%TF.GenerationSoftware,KiCad,Pcbnew,7.0.9*%
%TF.CreationDate,2024-01-04T00:09:48-06:00*%
%TF.ProjectId,FujiApple-DevKit-SmartPort,46756a69-4170-4706-9c65-2d4465764b69,1.0*%
%TF.SameCoordinates,Original*%
%TF.FileFunction,Soldermask,Bot*%
%TF.FilePolarity,Negative*%
%FSLAX46Y46*%
G04 Gerber Fmt 4.6, Leading zero omitted, Abs format (unit mm)*
G04 Created by KiCad (PCBNEW 7.0.9) date 2024-01-04 00:09:48*
%MOMM*%
%LPD*%
G01*
G04 APERTURE LIST*
%ADD10R,1.530000X1.530000*%
%ADD11C,1.530000*%
%ADD12C,0.900000*%
%ADD13C,2.700000*%
%ADD14O,2.100000X2.300000*%
G04 APERTURE END LIST*
D10*
%TO.C,U4*%
X167462200Y-123180000D03*
D11*
X167462200Y-120640000D03*
X167462200Y-118100000D03*
X167462200Y-115560000D03*
X167462200Y-113020000D03*
X167462200Y-110480000D03*
X167462200Y-107940000D03*
X167462200Y-105400000D03*
X167462200Y-102860000D03*
X167462200Y-100320000D03*
X167462200Y-97780000D03*
X167462200Y-95240000D03*
X167462200Y-92700000D03*
X167462200Y-90160000D03*
X167462200Y-87620000D03*
X167462200Y-85080000D03*
X167462200Y-82540000D03*
X167462200Y-80000000D03*
X167462200Y-77460000D03*
X142062200Y-77460000D03*
X142062200Y-80000000D03*
X142062200Y-82540000D03*
X142062200Y-85080000D03*
X142062200Y-87620000D03*
X142062200Y-90160000D03*
X142062200Y-92700000D03*
X142062200Y-95240000D03*
X142062200Y-97780000D03*
X142062200Y-100320000D03*
X142062200Y-102860000D03*
X142062200Y-105400000D03*
X142062200Y-107940000D03*
X142062200Y-110480000D03*
X142062200Y-113020000D03*
X142062200Y-115560000D03*
X142062200Y-118100000D03*
X142062200Y-120640000D03*
X142062200Y-123180000D03*
%TD*%
D12*
%TO.C,P1*%
X159686800Y-78000000D03*
X151686800Y-78000000D03*
%TD*%
D13*
%TO.C,J1*%
X173368000Y-128270000D03*
X136178000Y-128270000D03*
D14*
X167238000Y-126850000D03*
X164468000Y-126850000D03*
X161698000Y-126850000D03*
X158928000Y-126850000D03*
X153388000Y-126850000D03*
X145078000Y-126850000D03*
X142308000Y-126850000D03*
X165853000Y-129690000D03*
X163083000Y-129690000D03*
X160313000Y-129690000D03*
X157543000Y-129690000D03*
X154773000Y-129690000D03*
X152003000Y-129690000D03*
X149233000Y-129690000D03*
X146463000Y-129690000D03*
X143693000Y-129690000D03*
%TD*%
M02*
