G04 DipTrace 3.3.1.3*
G04 BottomMask.gbr*
%MOIN*%
G04 #@! TF.FileFunction,Soldermask,Bot*
G04 #@! TF.Part,Single*
%ADD22C,0.15748*%
%ADD23C,0.125984*%
%ADD26R,0.074803X0.074803*%
%ADD28C,0.074803*%
%ADD30C,0.090551*%
%FSLAX26Y26*%
G04*
G70*
G90*
G75*
G01*
G04 BotMask*
%LPD*%
D22*
X537814Y839059D3*
X2049664D3*
D30*
X1784467Y976761D3*
X1729940Y1088572D3*
X1675412Y976761D3*
X1620885Y1088572D3*
X1566357Y976761D3*
X1511830Y1088572D3*
X1457302Y976761D3*
X1402774Y1088572D3*
X1348247Y976761D3*
X1293719Y1088572D3*
X1239192Y976761D3*
X1184664Y1088572D3*
X1130137Y976761D3*
X1075609Y1088572D3*
X1021082Y976761D3*
X966554Y1088572D3*
X912026Y976761D3*
X857499Y1088572D3*
X802971Y976761D3*
D23*
X2049625Y1032667D3*
X537814D3*
D28*
X1743719Y643701D3*
Y543701D3*
X1643719Y643701D3*
Y543701D3*
X1543719Y643701D3*
Y543701D3*
X1443719Y643701D3*
Y543701D3*
X1343719Y643701D3*
Y543701D3*
X1243719Y643701D3*
Y543701D3*
X1143719Y643701D3*
Y543701D3*
X1043719Y643701D3*
Y543701D3*
X943719Y643701D3*
Y543701D3*
D26*
X843719Y643701D3*
D28*
Y543701D3*
M02*
