M48
INCH
T01C0.0433
T02C0.065
T03C0.126
T04C0.1575
%
T01
X+017437Y+006437
X+017437Y+005437
X+016437Y+005437
X+016437Y+006437
X+015437Y+006437
X+015437Y+005437
X+014437Y+005437
X+014437Y+006437
X+013437Y+006437
X+013437Y+005437
X+012437Y+005437
X+012437Y+006437
X+011437Y+006437
X+011437Y+005437
X+010437Y+005437
X+010437Y+006437
X+009437Y+006437
X+009437Y+005437
X+008437Y+005437
X+008437Y+006437
T02
X+017845Y+009768
X+016754Y+009768
X+015664Y+009768
X+014573Y+009768
X+013482Y+009768
X+012392Y+009768
X+011301Y+009768
X+010211Y+009768
X+009120Y+009768
X+008030Y+009768
X+008575Y+010886
X+009666Y+010886
X+010756Y+010886
X+011847Y+010886
X+012937Y+010886
X+014028Y+010886
X+015118Y+010886
X+016209Y+010886
X+017299Y+010886
T03
X+020496Y+010327
X+005378Y+010327
T04
X+005378Y+008391
X+020497Y+008391
T00
M30
