G04 DipTrace 3.3.1.3*
G04 Top.gbr*
%MOIN*%
G04 #@! TF.FileFunction,Copper,L1,Top*
G04 #@! TF.Part,Single*
%AMOUTLINE0*
4,1,14,
0.014815,0.01642,
0.022199,0.011571,
0.027295,0.00397,
0.029016,-0.005709,
0.029022,-0.019547,
-0.029022,-0.019547,
-0.029016,-0.005512,
-0.027685,0.002975,
-0.024241,0.010255,
-0.017575,0.016113,
-0.011514,0.018537,
-0.003232,0.019547,
0.003232,0.019547,
0.009293,0.018537,
0.014815,0.01642,
0*%
%AMOUTLINE1*
4,1,14,
-0.014815,-0.01642,
-0.022199,-0.011571,
-0.027295,-0.00397,
-0.029016,0.005709,
-0.029022,0.019547,
0.029022,0.019547,
0.029016,0.005512,
0.027685,-0.002975,
0.024241,-0.010255,
0.017575,-0.016113,
0.011514,-0.018537,
0.003232,-0.019547,
-0.003232,-0.019547,
-0.009293,-0.018537,
-0.014815,-0.01642,
0*%
G04 #@! TA.AperFunction,Conductor*
%ADD13C,0.023622*%
%ADD14C,0.007874*%
%ADD15C,0.015748*%
G04 #@! TA.AperFunction,ComponentPad*
%ADD16C,0.082677*%
%ADD17C,0.066929*%
%ADD18R,0.066929X0.066929*%
%ADD33OUTLINE0*%
%ADD34OUTLINE1*%
%FSLAX26Y26*%
G04*
G70*
G90*
G75*
G01*
G04 Top*
%LPD*%
X1457302Y976761D2*
D13*
Y881818D1*
X1457919Y881201D1*
X1239192Y976761D2*
Y882088D1*
X1240079Y881201D1*
X1675412Y976761D2*
D15*
Y876465D1*
X1674969Y876021D1*
Y818701D2*
Y736510D1*
X1643719Y705261D1*
Y643701D1*
X1674969Y876021D2*
D14*
Y818701D1*
X1457919Y823881D2*
D13*
Y657900D1*
X1443719Y643701D1*
X1243719D2*
X1240079D1*
Y823881D1*
X857499Y1088572D2*
D14*
Y770764D1*
X779326Y692591D1*
Y608094D1*
X843719Y543701D1*
X966554Y1088572D2*
Y769311D1*
X895198Y697955D1*
Y592222D1*
X943719Y543701D1*
X1075609Y1088572D2*
Y772150D1*
X994865Y691406D1*
Y592555D1*
X1043719Y543701D1*
X1184664Y1088572D2*
Y737867D1*
X1195898Y726634D1*
Y595879D1*
X1143719Y543701D1*
X1620885Y1088572D2*
Y744499D1*
X1594643Y718257D1*
Y594625D1*
X1543719Y543701D1*
X1402774Y1088572D2*
Y730453D1*
X1393396Y721075D1*
Y593378D1*
X1343719Y543701D1*
X1643719D2*
X1693719Y593701D1*
Y693701D1*
X1729940Y729921D1*
Y1088572D1*
X1784467Y976761D2*
D15*
X1793211D1*
Y593193D1*
X1743719Y543701D1*
D16*
X1784467Y976761D3*
X1729940Y1088572D3*
X1675412Y976761D3*
X1620885Y1088572D3*
X1566357Y976761D3*
X1511830Y1088572D3*
X1457302Y976761D3*
X1402774Y1088572D3*
X1348247Y976761D3*
X1293719Y1088572D3*
X1239192Y976761D3*
X1184664Y1088572D3*
X1130137Y976761D3*
X1075609Y1088572D3*
X1021082Y976761D3*
X966554Y1088572D3*
X912026Y976761D3*
X857499Y1088572D3*
X802971Y976761D3*
D17*
X1743719Y643701D3*
Y543701D3*
X1643719Y643701D3*
Y543701D3*
X1543719Y643701D3*
Y543701D3*
X1443719Y643701D3*
Y543701D3*
X1343719Y643701D3*
Y543701D3*
X1243719Y643701D3*
Y543701D3*
X1143719Y643701D3*
Y543701D3*
X1043719Y643701D3*
Y543701D3*
X943719Y643701D3*
Y543701D3*
D18*
X843719Y643701D3*
D17*
Y543701D3*
D33*
X1240079Y881201D3*
D34*
Y823881D3*
X1674969Y818701D3*
D33*
Y876021D3*
X1457919Y881201D3*
D34*
Y823881D3*
M02*
