G04 DipTrace 3.3.1.3*
G04 TopSilk.gbr*
%MOIN*%
G04 #@! TF.FileFunction,Legend,Top*
G04 #@! TF.Part,Single*
%ADD10C,0.009843*%
%ADD12C,0.003*%
%ADD19C,0.003937*%
%ADD20O,0.032613X0.032485*%
%ADD21C,0.032568*%
%ADD31C,0.004632*%
%ADD32C,0.006176*%
%FSLAX26Y26*%
G04*
G70*
G90*
G75*
G01*
G04 TopSilk*
%LPD*%
X1884270Y475591D2*
D10*
X703168D1*
Y711801D1*
X1884270D1*
Y475591D1*
G36*
X1372499Y712450D2*
X1214940D1*
Y758071D1*
X1372499D1*
Y712450D1*
G37*
X1202579Y802541D2*
D19*
Y902541D1*
X1277579Y802541D2*
Y902541D1*
X1712469Y897361D2*
Y797361D1*
X1637469Y897361D2*
Y797361D1*
X1420419Y802541D2*
Y902541D1*
X1495419Y802541D2*
Y902541D1*
X894993Y806532D2*
X873704Y806670D1*
X971407Y774296D2*
X885119D1*
X958000Y766425D2*
Y853748D1*
X926655Y744334D2*
Y784663D1*
X894767Y766577D2*
Y882921D1*
X932544Y869311D2*
X852144D1*
X926519Y821956D2*
X926655Y877266D1*
X861928Y852099D2*
Y882921D1*
X871394Y838226D2*
X966696D1*
X992968Y806504D2*
X958226Y806379D1*
D20*
X958679Y806518D3*
D21*
X894880Y806629D3*
X926723Y774172D3*
X894971Y838919D3*
X912976Y806331D2*
D19*
X913010Y807315D1*
X913111Y808295D1*
X913279Y809265D1*
X913513Y810221D1*
X913812Y811158D1*
X914174Y812072D1*
X914598Y812957D1*
X915082Y813811D1*
X915623Y814627D1*
X916219Y815404D1*
X916866Y816136D1*
X917562Y816820D1*
X918303Y817453D1*
X919086Y818033D1*
X919906Y818555D1*
X920760Y819017D1*
X921644Y819418D1*
X922553Y819755D1*
X923483Y820026D1*
X924429Y820231D1*
X925387Y820368D1*
X926353Y820437D1*
X927320D1*
X928285Y820368D1*
X929243Y820231D1*
X930189Y820026D1*
X931119Y819755D1*
X932028Y819418D1*
X932912Y819017D1*
X933766Y818555D1*
X934587Y818033D1*
X935370Y817453D1*
X936111Y816820D1*
X936807Y816136D1*
X937454Y815404D1*
X938050Y814627D1*
X938591Y813811D1*
X939074Y812957D1*
X939498Y812072D1*
X939861Y811158D1*
X940160Y810221D1*
X940394Y809265D1*
X940562Y808295D1*
X940663Y807315D1*
X940697Y806331D1*
X940663Y805346D1*
X940562Y804366D1*
X940394Y803396D1*
X940160Y802440D1*
X939861Y801503D1*
X939498Y800590D1*
X939074Y799704D1*
X938591Y798851D1*
X938050Y798034D1*
X937454Y797258D1*
X936807Y796526D1*
X936111Y795841D1*
X935370Y795208D1*
X934587Y794629D1*
X933766Y794107D1*
X932912Y793644D1*
X932028Y793243D1*
X931119Y792906D1*
X930189Y792635D1*
X929243Y792430D1*
X928285Y792293D1*
X927320Y792224D1*
X926353D1*
X925387Y792293D1*
X924429Y792430D1*
X923483Y792635D1*
X922553Y792906D1*
X921644Y793243D1*
X920760Y793644D1*
X919906Y794107D1*
X919086Y794629D1*
X918303Y795208D1*
X917562Y795841D1*
X916866Y796526D1*
X916219Y797258D1*
X915623Y798034D1*
X915082Y798851D1*
X914598Y799704D1*
X914174Y800590D1*
X913812Y801503D1*
X913513Y802440D1*
X913279Y803396D1*
X913111Y804366D1*
X913010Y805346D1*
X912976Y806331D1*
X988167Y800157D2*
Y817106D1*
X722792Y846539D2*
D12*
X731792D1*
X754292D2*
X787292D1*
X847292D2*
X856292D1*
X722792Y845039D2*
X731792D1*
X754292D2*
X787292D1*
X802292D2*
X803792D1*
X847292D2*
X856292D1*
X722792Y843539D2*
X731792D1*
X754292D2*
X787292D1*
X802292D2*
X805298D1*
X847292D2*
X856292D1*
X722792Y842039D2*
X731792D1*
X754292D2*
X787292D1*
X802292D2*
X806850D1*
X847292D2*
X856292D1*
X722792Y840539D2*
X731792D1*
X754292D2*
X787292D1*
X802292D2*
X808541D1*
X847292D2*
X856292D1*
X722792Y839039D2*
X731792D1*
X754292D2*
X787292D1*
X802292D2*
X810401D1*
X847292D2*
X856292D1*
X722792Y837539D2*
X731792D1*
X778292D2*
X787292D1*
X802292D2*
X812285D1*
X847292D2*
X856292D1*
X722792Y836039D2*
X731792D1*
X778292D2*
X787292D1*
X802292D2*
X814047D1*
X847292D2*
X856292D1*
X722792Y834539D2*
X731792D1*
X778292D2*
X787292D1*
X802292D2*
X815686D1*
X847292D2*
X856292D1*
X722792Y833039D2*
X731792D1*
X778292D2*
X787292D1*
X802292D2*
X817250D1*
X847292D2*
X856292D1*
X722792Y831539D2*
X731792D1*
X778292D2*
X787292D1*
X802292D2*
X818776D1*
X847292D2*
X856292D1*
X722792Y830039D2*
X731792D1*
X778292D2*
X787292D1*
X802292D2*
X820286D1*
X847292D2*
X856292D1*
X722792Y828539D2*
X731792D1*
X778292D2*
X787292D1*
X802292D2*
X821796D1*
X847292D2*
X856292D1*
X722792Y827039D2*
X731792D1*
X778292D2*
X787292D1*
X802292D2*
X823350D1*
X847292D2*
X856292D1*
X722792Y825539D2*
X731792D1*
X778292D2*
X787292D1*
X802292D2*
X809792D1*
X814292D2*
X825041D1*
X847292D2*
X856292D1*
X722792Y824039D2*
X731792D1*
X778292D2*
X787292D1*
X802292D2*
X809792D1*
X815792D2*
X826901D1*
X847292D2*
X856292D1*
X722792Y822539D2*
X731792D1*
X778292D2*
X787292D1*
X802292D2*
X809792D1*
X817292D2*
X828785D1*
X847292D2*
X856292D1*
X722792Y821039D2*
X731792D1*
X778292D2*
X787292D1*
X802292D2*
X809792D1*
X818792D2*
X830547D1*
X847292D2*
X856292D1*
X722792Y819539D2*
X731792D1*
X778292D2*
X787292D1*
X802292D2*
X809792D1*
X820292D2*
X832186D1*
X847292D2*
X856292D1*
X722792Y818039D2*
X731792D1*
X754292D2*
X787292D1*
X802292D2*
X809792D1*
X821792D2*
X833750D1*
X847292D2*
X856292D1*
X722792Y816539D2*
X731792D1*
X754292D2*
X787292D1*
X802292D2*
X809792D1*
X823292D2*
X835276D1*
X847292D2*
X856292D1*
X722792Y815039D2*
X731792D1*
X754292D2*
X787292D1*
X802292D2*
X809792D1*
X824792D2*
X836786D1*
X847292D2*
X856292D1*
X722792Y813539D2*
X731792D1*
X754292D2*
X787292D1*
X802292D2*
X809792D1*
X826292D2*
X838290D1*
X847292D2*
X856292D1*
X722792Y812039D2*
X731792D1*
X754292D2*
X787292D1*
X802292D2*
X809792D1*
X827792D2*
X839797D1*
X847286D2*
X856292D1*
X722792Y810539D2*
X731792D1*
X754292D2*
X787292D1*
X802292D2*
X809792D1*
X829292D2*
X841354D1*
X847229D2*
X856292D1*
X722792Y809039D2*
X731792D1*
X778292D2*
X787292D1*
X802292D2*
X809792D1*
X830792D2*
X843086D1*
X846997D2*
X856292D1*
X722792Y807539D2*
X731792D1*
X778292D2*
X787292D1*
X802292D2*
X809792D1*
X832292D2*
X845099D1*
X846484D2*
X856292D1*
X722792Y806039D2*
X731792D1*
X778292D2*
X787292D1*
X802292D2*
X809792D1*
X833792D2*
X856292D1*
X722792Y804539D2*
X731792D1*
X778292D2*
X787292D1*
X802292D2*
X809792D1*
X835292D2*
X856292D1*
X722792Y803039D2*
X731792D1*
X778292D2*
X787292D1*
X802292D2*
X809792D1*
X836798D2*
X856292D1*
X722792Y801539D2*
X731792D1*
X778292D2*
X787292D1*
X802292D2*
X809792D1*
X838350D2*
X856292D1*
X722792Y800039D2*
X731792D1*
X778292D2*
X787292D1*
X802292D2*
X809792D1*
X840041D2*
X856292D1*
X722792Y798539D2*
X731792D1*
X778292D2*
X787292D1*
X802292D2*
X809792D1*
X841901D2*
X856292D1*
X722792Y797039D2*
X731792D1*
X778292D2*
X787292D1*
X802292D2*
X809792D1*
X843785D2*
X856292D1*
X722792Y795539D2*
X731792D1*
X778292D2*
X787292D1*
X802292D2*
X809792D1*
X845547D2*
X856292D1*
X707792Y794039D2*
X748292D1*
X754292D2*
X787292D1*
X802292D2*
X809792D1*
X847186D2*
X856292D1*
X707792Y792539D2*
X748292D1*
X754292D2*
X787292D1*
X802292D2*
X809792D1*
X848750D2*
X856292D1*
X707792Y791039D2*
X748292D1*
X754292D2*
X787292D1*
X802292D2*
X809792D1*
X850276D2*
X856292D1*
X707792Y789539D2*
X748292D1*
X754292D2*
X787292D1*
X802292D2*
X809792D1*
X851786D2*
X856292D1*
X707792Y788039D2*
X748292D1*
X754292D2*
X787292D1*
X802292D2*
X809792D1*
X853290D2*
X856292D1*
X707792Y786539D2*
X748292D1*
X754292D2*
X787292D1*
X802292D2*
X809792D1*
X854792D2*
X856292D1*
X998113Y849199D2*
X1007113D1*
X1028113D2*
X1038613D1*
X1070113D2*
X1086613D1*
X1139113D2*
X1148113D1*
X998113Y847699D2*
X1007113D1*
X1025977D2*
X1041249D1*
X1066715D2*
X1090010D1*
X1139113D2*
X1148113D1*
X998113Y846199D2*
X1007113D1*
X1024245D2*
X1043415D1*
X1063913D2*
X1092818D1*
X1139113D2*
X1148113D1*
X998113Y844699D2*
X1007113D1*
X1022945D2*
X1045204D1*
X1061745D2*
X1095033D1*
X1139113D2*
X1148113D1*
X998113Y843199D2*
X1007113D1*
X1021982D2*
X1044999D1*
X1060102D2*
X1096820D1*
X1139113D2*
X1148113D1*
X998113Y841699D2*
X1007113D1*
X1021314D2*
X1044073D1*
X1058869D2*
X1098268D1*
X1139113D2*
X1148113D1*
X998113Y840199D2*
X1007113D1*
X1020932D2*
X1031407D1*
X1038613D2*
X1042900D1*
X1057894D2*
X1073702D1*
X1084818D2*
X1099407D1*
X1139113D2*
X1148113D1*
X998113Y838699D2*
X1007113D1*
X1020745D2*
X1030530D1*
X1040113D2*
X1041613D1*
X1057053D2*
X1070454D1*
X1087189D2*
X1100293D1*
X1139113D2*
X1148113D1*
X998113Y837199D2*
X1007113D1*
X1020664D2*
X1030028D1*
X1056318D2*
X1068007D1*
X1089139D2*
X1100936D1*
X1139113D2*
X1148113D1*
X998113Y835699D2*
X1007113D1*
X1020632D2*
X1029784D1*
X1055744D2*
X1066264D1*
X1090685D2*
X1101359D1*
X1139113D2*
X1148113D1*
X998113Y834199D2*
X1007113D1*
X1020619D2*
X1029679D1*
X1055350D2*
X1065110D1*
X1091873D2*
X1101732D1*
X1139113D2*
X1148113D1*
X998113Y832699D2*
X1007113D1*
X1020615D2*
X1029637D1*
X1054987D2*
X1064328D1*
X1092781D2*
X1102171D1*
X1139113D2*
X1148113D1*
X998113Y831199D2*
X1007113D1*
X1020613D2*
X1029621D1*
X1054552D2*
X1063693D1*
X1093426D2*
X1102587D1*
X1139113D2*
X1148113D1*
X998113Y829699D2*
X1007113D1*
X1020613D2*
X1029615D1*
X1054137D2*
X1063191D1*
X1093799D2*
X1102861D1*
X1139113D2*
X1148113D1*
X998113Y828199D2*
X1007113D1*
X1020613D2*
X1029614D1*
X1053864D2*
X1062884D1*
X1093982D2*
X1103005D1*
X1139113D2*
X1148113D1*
X998113Y826699D2*
X1007113D1*
X1020613D2*
X1029613D1*
X1053720D2*
X1062727D1*
X1094062D2*
X1103070D1*
X1139113D2*
X1148113D1*
X998113Y825199D2*
X1007113D1*
X1020613D2*
X1029613D1*
X1053655D2*
X1062658D1*
X1094094D2*
X1103097D1*
X1139113D2*
X1148113D1*
X998113Y823699D2*
X1007113D1*
X1020613D2*
X1029613D1*
X1053629D2*
X1062629D1*
X1094106D2*
X1103107D1*
X1139113D2*
X1148113D1*
X998113Y822199D2*
X1007113D1*
X1020613D2*
X1029613D1*
X1053618D2*
X1062619D1*
X1094110D2*
X1103111D1*
X1139113D2*
X1148113D1*
X998113Y820699D2*
X1007113D1*
X1020613D2*
X1029613D1*
X1053615D2*
X1062615D1*
X1094112D2*
X1103112D1*
X1115113D2*
X1148113D1*
X998113Y819199D2*
X1007113D1*
X1020613D2*
X1029613D1*
X1053613D2*
X1062613D1*
X1094112D2*
X1103112D1*
X1115113D2*
X1148113D1*
X998113Y817699D2*
X1007113D1*
X1020613D2*
X1029613D1*
X1053613D2*
X1062613D1*
X1094112D2*
X1103112D1*
X1115113D2*
X1148113D1*
X998113Y816199D2*
X1007113D1*
X1020613D2*
X1029613D1*
X1053613D2*
X1062613D1*
X1094113D2*
X1103113D1*
X1115113D2*
X1148113D1*
X998113Y814699D2*
X1007113D1*
X1020613D2*
X1029613D1*
X1053613D2*
X1062613D1*
X1094113D2*
X1103113D1*
X1115113D2*
X1148113D1*
X998113Y813199D2*
X1007113D1*
X1020613D2*
X1029613D1*
X1053613D2*
X1062613D1*
X1094113D2*
X1103113D1*
X1115113D2*
X1148113D1*
X998113Y811699D2*
X1007113D1*
X1020613D2*
X1029613D1*
X1053613D2*
X1062613D1*
X1094113D2*
X1103113D1*
X1139113D2*
X1148113D1*
X998113Y810199D2*
X1007113D1*
X1020613D2*
X1029613D1*
X1053613D2*
X1062613D1*
X1094113D2*
X1103113D1*
X1139113D2*
X1148113D1*
X998113Y808699D2*
X1007113D1*
X1020613D2*
X1029613D1*
X1053613D2*
X1062613D1*
X1094113D2*
X1103113D1*
X1139113D2*
X1148113D1*
X998113Y807199D2*
X1007113D1*
X1020613D2*
X1029613D1*
X1053613D2*
X1062613D1*
X1094113D2*
X1103113D1*
X1139113D2*
X1148113D1*
X998113Y805699D2*
X1007113D1*
X1020613D2*
X1029613D1*
X1053613D2*
X1062613D1*
X1094113D2*
X1103113D1*
X1139113D2*
X1148113D1*
X998113Y804199D2*
X1007113D1*
X1020613D2*
X1029613D1*
X1053613D2*
X1062613D1*
X1094113D2*
X1103113D1*
X1139113D2*
X1148113D1*
X998113Y802699D2*
X1007113D1*
X1020613D2*
X1029613D1*
X1053613D2*
X1062613D1*
X1094113D2*
X1103113D1*
X1139113D2*
X1148113D1*
X998113Y801199D2*
X1007113D1*
X1020613D2*
X1029613D1*
X1053613D2*
X1062613D1*
X1094113D2*
X1103113D1*
X1139113D2*
X1148113D1*
X998113Y799699D2*
X1007113D1*
X1020613D2*
X1029613D1*
X1053613D2*
X1062613D1*
X1094113D2*
X1103113D1*
X1139113D2*
X1148113D1*
X998113Y798199D2*
X1007113D1*
X1020613D2*
X1029613D1*
X1053613D2*
X1062613D1*
X1094113D2*
X1103113D1*
X1139113D2*
X1148113D1*
X998113Y796699D2*
X1007113D1*
X1020613D2*
X1029613D1*
X1053613D2*
X1062613D1*
X1094113D2*
X1103113D1*
X1115113D2*
X1148113D1*
X998113Y795199D2*
X1007113D1*
X1020613D2*
X1029613D1*
X1053613D2*
X1062613D1*
X1094113D2*
X1103113D1*
X1115113D2*
X1148113D1*
X998113Y793699D2*
X1007113D1*
X1020613D2*
X1029613D1*
X1053613D2*
X1062613D1*
X1094113D2*
X1103113D1*
X1115113D2*
X1148113D1*
X998113Y792199D2*
X1007113D1*
X1020613D2*
X1029613D1*
X1053613D2*
X1062613D1*
X1094113D2*
X1103113D1*
X1115113D2*
X1148113D1*
X998113Y790699D2*
X1007113D1*
X1020613D2*
X1029613D1*
X1053613D2*
X1062613D1*
X1094113D2*
X1103113D1*
X1115113D2*
X1148113D1*
X998113Y789199D2*
X1007113D1*
X1020613D2*
X1029613D1*
X1053613D2*
X1062613D1*
X1094113D2*
X1103113D1*
X1115113D2*
X1148113D1*
X722792Y846539D2*
Y845039D1*
Y843539D1*
Y842039D1*
Y840539D1*
Y839039D1*
Y837539D1*
Y836039D1*
Y834539D1*
Y833039D1*
Y831539D1*
Y830039D1*
Y828539D1*
Y827039D1*
Y825539D1*
Y824039D1*
Y822539D1*
Y821039D1*
Y819539D1*
Y818039D1*
Y816539D1*
Y815039D1*
Y813539D1*
Y812039D1*
Y810539D1*
Y809039D1*
Y807539D1*
Y806039D1*
Y804539D1*
Y803039D1*
Y801539D1*
Y800039D1*
Y798539D1*
Y797039D1*
Y795539D1*
Y794039D1*
X707792D1*
Y792539D1*
Y791039D1*
Y789539D1*
Y788039D1*
Y786539D1*
X731792Y846539D2*
Y845039D1*
Y843539D1*
Y842039D1*
Y840539D1*
Y839039D1*
Y837539D1*
Y836039D1*
Y834539D1*
Y833039D1*
Y831539D1*
Y830039D1*
Y828539D1*
Y827039D1*
Y825539D1*
Y824039D1*
Y822539D1*
Y821039D1*
Y819539D1*
Y818039D1*
Y816539D1*
Y815039D1*
Y813539D1*
Y812039D1*
Y810539D1*
Y809039D1*
Y807539D1*
Y806039D1*
Y804539D1*
Y803039D1*
Y801539D1*
Y800039D1*
Y798539D1*
Y797039D1*
Y795539D1*
Y794039D1*
X748292D1*
Y792539D1*
Y791039D1*
Y789539D1*
Y788039D1*
Y786539D1*
X754292Y846539D2*
Y845039D1*
Y843539D1*
Y842039D1*
Y840539D1*
Y839039D1*
X787292Y846539D2*
Y845039D1*
Y843539D1*
Y842039D1*
Y840539D1*
Y839039D1*
Y837539D1*
Y836039D1*
Y834539D1*
Y833039D1*
Y831539D1*
Y830039D1*
Y828539D1*
Y827039D1*
Y825539D1*
Y824039D1*
Y822539D1*
Y821039D1*
Y819539D1*
Y818039D1*
Y816539D1*
Y815039D1*
Y813539D1*
Y812039D1*
Y810539D1*
Y809039D1*
Y807539D1*
Y806039D1*
Y804539D1*
Y803039D1*
Y801539D1*
Y800039D1*
Y798539D1*
Y797039D1*
Y795539D1*
Y794039D1*
Y792539D1*
Y791039D1*
Y789539D1*
Y788039D1*
Y786539D1*
X847292Y846539D2*
Y845039D1*
Y843539D1*
Y842039D1*
Y840539D1*
Y839039D1*
Y837539D1*
Y836039D1*
Y834539D1*
Y833039D1*
Y831539D1*
Y830039D1*
Y828539D1*
Y827039D1*
Y825539D1*
Y824039D1*
Y822539D1*
Y821039D1*
Y819539D1*
Y818039D1*
Y816539D1*
Y815039D1*
Y813539D1*
X847286Y812039D1*
X847229Y810539D1*
X846997Y809039D1*
X846484Y807539D1*
X845792Y806039D1*
X856292Y846539D2*
Y845039D1*
Y843539D1*
Y842039D1*
Y840539D1*
Y839039D1*
Y837539D1*
Y836039D1*
Y834539D1*
Y833039D1*
Y831539D1*
Y830039D1*
Y828539D1*
Y827039D1*
Y825539D1*
Y824039D1*
Y822539D1*
Y821039D1*
Y819539D1*
Y818039D1*
Y816539D1*
Y815039D1*
Y813539D1*
Y812039D1*
Y810539D1*
Y809039D1*
Y807539D1*
Y806039D1*
Y804539D1*
Y803039D1*
Y801539D1*
Y800039D1*
Y798539D1*
Y797039D1*
Y795539D1*
Y794039D1*
Y792539D1*
Y791039D1*
Y789539D1*
Y788039D1*
Y786539D1*
X802292Y845039D2*
Y843539D1*
Y842039D1*
Y840539D1*
Y839039D1*
Y837539D1*
Y836039D1*
Y834539D1*
Y833039D1*
Y831539D1*
Y830039D1*
Y828539D1*
Y827039D1*
Y825539D1*
Y824039D1*
Y822539D1*
Y821039D1*
Y819539D1*
Y818039D1*
Y816539D1*
Y815039D1*
Y813539D1*
Y812039D1*
Y810539D1*
Y809039D1*
Y807539D1*
Y806039D1*
Y804539D1*
Y803039D1*
Y801539D1*
Y800039D1*
Y798539D1*
Y797039D1*
Y795539D1*
Y794039D1*
Y792539D1*
Y791039D1*
Y789539D1*
Y788039D1*
Y786539D1*
X803792Y845039D2*
X805298Y843539D1*
X806850Y842039D1*
X808541Y840539D1*
X810401Y839039D1*
X812285Y837539D1*
X814047Y836039D1*
X815686Y834539D1*
X817250Y833039D1*
X818776Y831539D1*
X820286Y830039D1*
X821796Y828539D1*
X823350Y827039D1*
X825041Y825539D1*
X826901Y824039D1*
X828785Y822539D1*
X830547Y821039D1*
X832186Y819539D1*
X833750Y818039D1*
X835276Y816539D1*
X836786Y815039D1*
X838290Y813539D1*
X839797Y812039D1*
X841354Y810539D1*
X843086Y809039D1*
X845099Y807539D1*
X847292Y806039D1*
X778292Y839039D2*
Y837539D1*
Y836039D1*
Y834539D1*
Y833039D1*
Y831539D1*
Y830039D1*
Y828539D1*
Y827039D1*
Y825539D1*
Y824039D1*
Y822539D1*
Y821039D1*
Y819539D1*
Y818039D1*
X809792Y827039D2*
Y825539D1*
Y824039D1*
Y822539D1*
Y821039D1*
Y819539D1*
Y818039D1*
Y816539D1*
Y815039D1*
Y813539D1*
Y812039D1*
Y810539D1*
Y809039D1*
Y807539D1*
Y806039D1*
Y804539D1*
Y803039D1*
Y801539D1*
Y800039D1*
Y798539D1*
Y797039D1*
Y795539D1*
Y794039D1*
Y792539D1*
Y791039D1*
Y789539D1*
Y788039D1*
Y786539D1*
X812792Y827039D2*
X814292Y825539D1*
X815792Y824039D1*
X817292Y822539D1*
X818792Y821039D1*
X820292Y819539D1*
X821792Y818039D1*
X823292Y816539D1*
X824792Y815039D1*
X826292Y813539D1*
X827792Y812039D1*
X829292Y810539D1*
X830792Y809039D1*
X832292Y807539D1*
X833792Y806039D1*
X835292Y804539D1*
X836798Y803039D1*
X838350Y801539D1*
X840041Y800039D1*
X841901Y798539D1*
X843785Y797039D1*
X845547Y795539D1*
X847186Y794039D1*
X848750Y792539D1*
X850276Y791039D1*
X851786Y789539D1*
X853290Y788039D1*
X854792Y786539D1*
X754292Y818039D2*
Y816539D1*
Y815039D1*
Y813539D1*
Y812039D1*
Y810539D1*
X778292D2*
Y809039D1*
Y807539D1*
Y806039D1*
Y804539D1*
Y803039D1*
Y801539D1*
Y800039D1*
Y798539D1*
Y797039D1*
Y795539D1*
Y794039D1*
X754292D2*
Y792539D1*
Y791039D1*
Y789539D1*
Y788039D1*
Y786539D1*
X998113Y849199D2*
Y847699D1*
Y846199D1*
Y844699D1*
Y843199D1*
Y841699D1*
Y840199D1*
Y838699D1*
Y837199D1*
Y835699D1*
Y834199D1*
Y832699D1*
Y831199D1*
Y829699D1*
Y828199D1*
Y826699D1*
Y825199D1*
Y823699D1*
Y822199D1*
Y820699D1*
Y819199D1*
Y817699D1*
Y816199D1*
Y814699D1*
Y813199D1*
Y811699D1*
Y810199D1*
Y808699D1*
Y807199D1*
Y805699D1*
Y804199D1*
Y802699D1*
Y801199D1*
Y799699D1*
Y798199D1*
Y796699D1*
Y795199D1*
Y793699D1*
Y792199D1*
Y790699D1*
Y789199D1*
X1007113Y849199D2*
Y847699D1*
Y846199D1*
Y844699D1*
Y843199D1*
Y841699D1*
Y840199D1*
Y838699D1*
Y837199D1*
Y835699D1*
Y834199D1*
Y832699D1*
Y831199D1*
Y829699D1*
Y828199D1*
Y826699D1*
Y825199D1*
Y823699D1*
Y822199D1*
Y820699D1*
Y819199D1*
Y817699D1*
Y816199D1*
Y814699D1*
Y813199D1*
Y811699D1*
Y810199D1*
Y808699D1*
Y807199D1*
Y805699D1*
Y804199D1*
Y802699D1*
Y801199D1*
Y799699D1*
Y798199D1*
Y796699D1*
Y795199D1*
Y793699D1*
Y792199D1*
Y790699D1*
Y789199D1*
X1028113Y849199D2*
X1025977Y847699D1*
X1024245Y846199D1*
X1022945Y844699D1*
X1021982Y843199D1*
X1021314Y841699D1*
X1020932Y840199D1*
X1020745Y838699D1*
X1020664Y837199D1*
X1020632Y835699D1*
X1020619Y834199D1*
X1020615Y832699D1*
X1020613Y831199D1*
Y829699D1*
Y828199D1*
Y826699D1*
Y825199D1*
Y823699D1*
Y822199D1*
Y820699D1*
Y819199D1*
Y817699D1*
Y816199D1*
Y814699D1*
Y813199D1*
Y811699D1*
Y810199D1*
Y808699D1*
Y807199D1*
Y805699D1*
Y804199D1*
Y802699D1*
Y801199D1*
Y799699D1*
Y798199D1*
Y796699D1*
Y795199D1*
Y793699D1*
Y792199D1*
Y790699D1*
Y789199D1*
X1038613Y849199D2*
X1041249Y847699D1*
X1043415Y846199D1*
X1045204Y844699D1*
X1044999Y843199D1*
X1044073Y841699D1*
X1042900Y840199D1*
X1041613Y838699D1*
X1070113Y849199D2*
X1066715Y847699D1*
X1063913Y846199D1*
X1061745Y844699D1*
X1060102Y843199D1*
X1058869Y841699D1*
X1057894Y840199D1*
X1057053Y838699D1*
X1056318Y837199D1*
X1055744Y835699D1*
X1055350Y834199D1*
X1054987Y832699D1*
X1054552Y831199D1*
X1054137Y829699D1*
X1053864Y828199D1*
X1053720Y826699D1*
X1053655Y825199D1*
X1053629Y823699D1*
X1053618Y822199D1*
X1053615Y820699D1*
X1053613Y819199D1*
Y817699D1*
Y816199D1*
Y814699D1*
Y813199D1*
Y811699D1*
Y810199D1*
Y808699D1*
Y807199D1*
Y805699D1*
Y804199D1*
Y802699D1*
Y801199D1*
Y799699D1*
Y798199D1*
Y796699D1*
Y795199D1*
Y793699D1*
Y792199D1*
Y790699D1*
Y789199D1*
X1086613Y849199D2*
X1090010Y847699D1*
X1092818Y846199D1*
X1095033Y844699D1*
X1096820Y843199D1*
X1098268Y841699D1*
X1099407Y840199D1*
X1100293Y838699D1*
X1100936Y837199D1*
X1101359Y835699D1*
X1101732Y834199D1*
X1102171Y832699D1*
X1102587Y831199D1*
X1102861Y829699D1*
X1103005Y828199D1*
X1103070Y826699D1*
X1103097Y825199D1*
X1103107Y823699D1*
X1103111Y822199D1*
X1103112Y820699D1*
Y819199D1*
Y817699D1*
X1103113Y816199D1*
Y814699D1*
Y813199D1*
Y811699D1*
Y810199D1*
Y808699D1*
Y807199D1*
Y805699D1*
Y804199D1*
Y802699D1*
Y801199D1*
Y799699D1*
Y798199D1*
Y796699D1*
Y795199D1*
Y793699D1*
Y792199D1*
Y790699D1*
Y789199D1*
X1139113Y849199D2*
Y847699D1*
Y846199D1*
Y844699D1*
Y843199D1*
Y841699D1*
Y840199D1*
Y838699D1*
Y837199D1*
Y835699D1*
Y834199D1*
Y832699D1*
Y831199D1*
Y829699D1*
Y828199D1*
Y826699D1*
Y825199D1*
Y823699D1*
Y822199D1*
Y820699D1*
X1148113Y849199D2*
Y847699D1*
Y846199D1*
Y844699D1*
Y843199D1*
Y841699D1*
Y840199D1*
Y838699D1*
Y837199D1*
Y835699D1*
Y834199D1*
Y832699D1*
Y831199D1*
Y829699D1*
Y828199D1*
Y826699D1*
Y825199D1*
Y823699D1*
Y822199D1*
Y820699D1*
Y819199D1*
Y817699D1*
Y816199D1*
Y814699D1*
Y813199D1*
Y811699D1*
Y810199D1*
Y808699D1*
Y807199D1*
Y805699D1*
Y804199D1*
Y802699D1*
Y801199D1*
Y799699D1*
Y798199D1*
Y796699D1*
Y795199D1*
Y793699D1*
Y792199D1*
Y790699D1*
Y789199D1*
X1032613Y841699D2*
X1031407Y840199D1*
X1030530Y838699D1*
X1030028Y837199D1*
X1029784Y835699D1*
X1029679Y834199D1*
X1029637Y832699D1*
X1029621Y831199D1*
X1029615Y829699D1*
X1029614Y828199D1*
X1029613Y826699D1*
Y825199D1*
Y823699D1*
Y822199D1*
Y820699D1*
Y819199D1*
Y817699D1*
Y816199D1*
Y814699D1*
Y813199D1*
Y811699D1*
Y810199D1*
Y808699D1*
Y807199D1*
Y805699D1*
Y804199D1*
Y802699D1*
Y801199D1*
Y799699D1*
Y798199D1*
Y796699D1*
Y795199D1*
Y793699D1*
Y792199D1*
Y790699D1*
Y789199D1*
X1037113Y841699D2*
X1038613Y840199D1*
X1040113Y838699D1*
X1077613Y841699D2*
X1073702Y840199D1*
X1070454Y838699D1*
X1068007Y837199D1*
X1066264Y835699D1*
X1065110Y834199D1*
X1064328Y832699D1*
X1063693Y831199D1*
X1063191Y829699D1*
X1062884Y828199D1*
X1062727Y826699D1*
X1062658Y825199D1*
X1062629Y823699D1*
X1062619Y822199D1*
X1062615Y820699D1*
X1062613Y819199D1*
Y817699D1*
Y816199D1*
Y814699D1*
Y813199D1*
Y811699D1*
Y810199D1*
Y808699D1*
Y807199D1*
Y805699D1*
Y804199D1*
Y802699D1*
Y801199D1*
Y799699D1*
Y798199D1*
Y796699D1*
Y795199D1*
Y793699D1*
Y792199D1*
Y790699D1*
Y789199D1*
X1082113Y841699D2*
X1084818Y840199D1*
X1087189Y838699D1*
X1089139Y837199D1*
X1090685Y835699D1*
X1091873Y834199D1*
X1092781Y832699D1*
X1093426Y831199D1*
X1093799Y829699D1*
X1093982Y828199D1*
X1094062Y826699D1*
X1094094Y825199D1*
X1094106Y823699D1*
X1094110Y822199D1*
X1094112Y820699D1*
Y819199D1*
Y817699D1*
X1094113Y816199D1*
Y814699D1*
Y813199D1*
Y811699D1*
Y810199D1*
Y808699D1*
Y807199D1*
Y805699D1*
Y804199D1*
Y802699D1*
Y801199D1*
Y799699D1*
Y798199D1*
Y796699D1*
Y795199D1*
Y793699D1*
Y792199D1*
Y790699D1*
Y789199D1*
X1115113Y820699D2*
Y819199D1*
Y817699D1*
Y816199D1*
Y814699D1*
Y813199D1*
X1139113D2*
Y811699D1*
Y810199D1*
Y808699D1*
Y807199D1*
Y805699D1*
Y804199D1*
Y802699D1*
Y801199D1*
Y799699D1*
Y798199D1*
Y796699D1*
X1115113D2*
Y795199D1*
Y793699D1*
Y792199D1*
Y790699D1*
Y789199D1*
X1302843Y805235D2*
D31*
Y821816D1*
X1293524Y831079D2*
X1292065Y833964D1*
X1287787Y838276D1*
X1317898Y838275D1*
X1294950Y848998D2*
X1293524D1*
X1290639Y850424D1*
X1289213Y851850D1*
X1287787Y854735D1*
Y860472D1*
X1289213Y863324D1*
X1290639Y864750D1*
X1293524Y866209D1*
X1296376D1*
X1299261Y864750D1*
X1303539Y861898D1*
X1317898Y847539D1*
Y867635D1*
X1287754Y876899D2*
X1317898Y888372D1*
X1287754Y899846D1*
X1722644Y791848D2*
X1752788D1*
Y801896D1*
X1751329Y806207D1*
X1748477Y809092D1*
X1745592Y810518D1*
X1741314Y811944D1*
X1734118D1*
X1729807Y810518D1*
X1726955Y809092D1*
X1724070Y806207D1*
X1722644Y801896D1*
Y791848D1*
X1737003Y821207D2*
Y834107D1*
X1735544Y838418D1*
X1734118Y839877D1*
X1731266Y841303D1*
X1728381D1*
X1725529Y839877D1*
X1724070Y838418D1*
X1722644Y834107D1*
Y821207D1*
X1752788D1*
X1737003Y831255D2*
X1752788Y841303D1*
X1722644Y850567D2*
X1752788Y862041D1*
X1722644Y873515D1*
X1729840Y884237D2*
X1728414D1*
X1725529Y885663D1*
X1724103Y887089D1*
X1722677Y889974D1*
Y895711D1*
X1724103Y898563D1*
X1725529Y899989D1*
X1728414Y901448D1*
X1731266D1*
X1734151Y899989D1*
X1738429Y897137D1*
X1752788Y882778D1*
Y902874D1*
X1507766Y813509D2*
X1533599D1*
X1520699Y800609D2*
Y826442D1*
X1511364Y835705D2*
X1509905Y838591D1*
X1505627Y842902D1*
X1535738Y842901D1*
X1512790Y853624D2*
X1511364D1*
X1508479Y855050D1*
X1507053Y856476D1*
X1505627Y859361D1*
Y865098D1*
X1507053Y867950D1*
X1508479Y869376D1*
X1511364Y870835D1*
X1514216D1*
X1517101Y869376D1*
X1521379Y866524D1*
X1535738Y852165D1*
Y872261D1*
X1505594Y881525D2*
X1535738Y892999D1*
X1505594Y904473D1*
X837609Y901424D2*
D32*
X839511Y903369D1*
X837609Y905271D1*
X835664Y903369D1*
X837609Y901424D1*
X813762Y878476D2*
X817564Y880377D1*
X821411Y884224D1*
X823312Y889972D1*
Y893775D1*
X821411Y899523D1*
X817564Y903325D1*
X813762Y905271D1*
X808014D1*
X804167Y903325D1*
X800365Y899523D1*
X798419Y893775D1*
Y889972D1*
X800365Y884224D1*
X804167Y880377D1*
X808014Y878476D1*
X813762D1*
X786068D2*
Y905271D1*
Y886125D2*
X780320Y880377D1*
X776473Y878476D1*
X770769D1*
X766922Y880377D1*
X765021Y886125D1*
Y905271D1*
X752670Y865079D2*
Y905271D1*
X740318Y865079D2*
X738417Y866980D1*
X736472Y865079D1*
X738417Y863133D1*
X740318Y865079D1*
X738417Y878476D2*
Y905271D1*
X724120Y878476D2*
Y905271D1*
Y886125D2*
X718372Y880377D1*
X714525Y878476D1*
X708822D1*
X704975Y880377D1*
X703074Y886125D1*
Y905271D1*
X690722Y889972D2*
X667774D1*
Y886125D1*
X669675Y882278D1*
X671577Y880377D1*
X675424Y878476D1*
X681172D1*
X684974Y880377D1*
X688821Y884224D1*
X690722Y889972D1*
Y893775D1*
X688821Y899523D1*
X684974Y903325D1*
X681172Y905271D1*
X675424D1*
X671577Y903325D1*
X667774Y899523D1*
X631609Y481730D2*
Y521922D1*
X618212D1*
X612464Y519976D1*
X608617Y516174D1*
X606716Y512327D1*
X604814Y506623D1*
Y497028D1*
X606715Y491280D1*
X608617Y487478D1*
X612463Y483631D1*
X618212Y481730D1*
X631609D1*
X592463D2*
Y521922D1*
X575219D1*
X569471Y519976D1*
X567569Y518075D1*
X565668Y514272D1*
Y508524D1*
X567569Y504678D1*
X569471Y502776D1*
X575219Y500875D1*
X569471Y498930D1*
X567569Y497028D1*
X565668Y493226D1*
Y489379D1*
X567569Y485576D1*
X569471Y483631D1*
X575219Y481730D1*
X592463D1*
Y500875D2*
X575219D1*
X553317Y501848D2*
X531209D1*
X518858Y489423D2*
X515011Y487478D1*
X509263Y481774D1*
Y521922D1*
X472018Y495127D2*
X473964Y500875D1*
X477766Y504722D1*
X483514Y506623D1*
X485415D1*
X491163Y504722D1*
X494966Y500875D1*
X496911Y495127D1*
Y493226D1*
X494966Y487478D1*
X491163Y483675D1*
X485415Y481774D1*
X483514D1*
X477766Y483675D1*
X473964Y487478D1*
X472018Y495127D1*
Y504722D1*
X473964Y514272D1*
X477766Y520020D1*
X483514Y521922D1*
X487317D1*
X493065Y520020D1*
X494966Y516174D1*
X429069Y521922D2*
Y481730D1*
X444368Y521922D1*
X459667Y481730D1*
Y521922D1*
X628606Y624658D2*
Y664850D1*
X616255Y624658D2*
Y664850D1*
X602858D1*
X597110Y662904D1*
X593263Y659102D1*
X591362Y655255D1*
X589460Y649551D1*
Y639956D1*
X591362Y634208D1*
X593263Y630406D1*
X597110Y626559D1*
X602858Y624658D1*
X616255D1*
X548413Y634208D2*
X550314Y630406D1*
X554161Y626559D1*
X557964Y624658D1*
X565613D1*
X569460Y626559D1*
X573262Y630406D1*
X575208Y634208D1*
X577109Y639956D1*
Y649551D1*
X575208Y655255D1*
X573262Y659102D1*
X569460Y662904D1*
X565613Y664850D1*
X557964D1*
X554161Y662904D1*
X550314Y659102D1*
X548413Y655255D1*
X534116Y634252D2*
Y632351D1*
X532215Y628504D1*
X530314Y626603D1*
X526467Y624702D1*
X518818D1*
X515015Y626603D1*
X513114Y628504D1*
X511168Y632351D1*
Y636154D1*
X513114Y640000D1*
X516916Y645704D1*
X536062Y664850D1*
X509267D1*
X485420Y624702D2*
X491168Y626603D1*
X495014Y632351D1*
X496916Y641902D1*
Y647650D1*
X495014Y657200D1*
X491168Y662948D1*
X485420Y664850D1*
X481617D1*
X475869Y662948D1*
X472066Y657200D1*
X470121Y647650D1*
Y641902D1*
X472066Y632351D1*
X475869Y626603D1*
X481617Y624702D1*
X485420D1*
X472066Y632351D2*
X495014Y657200D1*
X432876Y624658D2*
X457770D1*
Y664850D1*
Y643803D2*
X442471D1*
X548647Y550260D2*
Y582803D1*
X546746Y588506D1*
X542899Y590452D1*
X539096D1*
X554395Y563657D2*
X540998D1*
X517194D2*
X520997Y565559D1*
X524844Y569405D1*
X526745Y575153D1*
Y578956D1*
X524844Y584704D1*
X520997Y588506D1*
X517195Y590452D1*
X511447D1*
X507600Y588506D1*
X503797Y584704D1*
X501852Y578956D1*
Y575153D1*
X503797Y569405D1*
X507600Y565559D1*
X511446Y563657D1*
X517194D1*
X1954526Y637368D2*
X1950680Y635423D1*
X1944932Y629719D1*
Y669867D1*
X1907687Y643072D2*
X1909632Y648820D1*
X1913435Y652667D1*
X1919183Y654568D1*
X1921084D1*
X1926832Y652667D1*
X1930635Y648820D1*
X1932580Y643072D1*
Y641171D1*
X1930635Y635423D1*
X1926832Y631620D1*
X1921084Y629719D1*
X1919183D1*
X1913435Y631620D1*
X1909632Y635423D1*
X1907687Y643072D1*
Y652667D1*
X1909632Y662217D1*
X1913435Y667965D1*
X1919183Y669867D1*
X1922985D1*
X1928733Y667965D1*
X1930635Y664119D1*
X676044Y528294D2*
Y526393D1*
X674143Y522546D1*
X672242Y520645D1*
X668395Y518744D1*
X660746D1*
X656943Y520645D1*
X655042Y522546D1*
X653096Y526393D1*
Y530196D1*
X655042Y534042D1*
X658844Y539746D1*
X677990Y558892D1*
X651195D1*
X1471384Y1160591D2*
Y1158690D1*
X1469483Y1154843D1*
X1467581Y1152942D1*
X1463735Y1151040D1*
X1456085D1*
X1452283Y1152942D1*
X1450382Y1154843D1*
X1448436Y1158690D1*
Y1162492D1*
X1450382Y1166339D1*
X1454184Y1172043D1*
X1473330Y1191188D1*
X1446535D1*
X1422687Y1151040D2*
X1428435Y1152942D1*
X1432282Y1158690D1*
X1434184Y1168240D1*
Y1173988D1*
X1432282Y1183539D1*
X1428436Y1189287D1*
X1422687Y1191188D1*
X1418885D1*
X1413137Y1189287D1*
X1409334Y1183539D1*
X1407389Y1173988D1*
Y1168240D1*
X1409334Y1158690D1*
X1413137Y1152942D1*
X1418885Y1151040D1*
X1422687D1*
X1409334Y1158690D2*
X1432282Y1183539D1*
X1393092Y1160591D2*
Y1158690D1*
X1391191Y1154843D1*
X1389289Y1152942D1*
X1385443Y1151040D1*
X1377793D1*
X1373991Y1152942D1*
X1372090Y1154843D1*
X1370144Y1158690D1*
Y1162492D1*
X1372090Y1166339D1*
X1375892Y1172043D1*
X1395037Y1191188D1*
X1368243D1*
X1336746D2*
Y1151040D1*
X1355891Y1177791D1*
X1327195D1*
X1314844Y1171114D2*
X1292736D1*
X1268889Y1151040D2*
X1274637Y1152942D1*
X1278484Y1158690D1*
X1280385Y1168240D1*
Y1173988D1*
X1278484Y1183539D1*
X1274637Y1189287D1*
X1268889Y1191188D1*
X1265086D1*
X1259338Y1189287D1*
X1255536Y1183539D1*
X1253590Y1173988D1*
Y1168240D1*
X1255536Y1158690D1*
X1259338Y1152942D1*
X1265086Y1151040D1*
X1268889D1*
X1255536Y1158690D2*
X1278484Y1183539D1*
X1222093Y1191188D2*
Y1151040D1*
X1241239Y1177791D1*
X1212543D1*
X1200191Y1171114D2*
X1178084D1*
X1165732Y1158690D2*
X1161886Y1156744D1*
X1156137Y1151040D1*
Y1191188D1*
X1134235Y1151040D2*
X1139939Y1152942D1*
X1141885Y1156744D1*
Y1160591D1*
X1139939Y1164393D1*
X1136137Y1166339D1*
X1128487Y1168240D1*
X1122739Y1170141D1*
X1118937Y1173988D1*
X1117036Y1177791D1*
Y1183539D1*
X1118937Y1187341D1*
X1120838Y1189287D1*
X1126586Y1191188D1*
X1134235D1*
X1139939Y1189287D1*
X1141885Y1187341D1*
X1143786Y1183539D1*
Y1177791D1*
X1141885Y1173988D1*
X1138038Y1170141D1*
X1132334Y1168240D1*
X1124685Y1166339D1*
X1120838Y1164393D1*
X1118937Y1160591D1*
Y1156744D1*
X1120838Y1152942D1*
X1126586Y1151040D1*
X1134235D1*
X671148Y632898D2*
X667302Y630953D1*
X661554Y625249D1*
Y665397D1*
X1973003Y527832D2*
Y525931D1*
X1971102Y522084D1*
X1969201Y520183D1*
X1965354Y518282D1*
X1957705D1*
X1953902Y520183D1*
X1952001Y522084D1*
X1950056Y525931D1*
Y529734D1*
X1952001Y533580D1*
X1955804Y539284D1*
X1974949Y558430D1*
X1948154D1*
X1924307Y518282D2*
X1930055Y520183D1*
X1933902Y525931D1*
X1935803Y535482D1*
Y541230D1*
X1933902Y550780D1*
X1930055Y556528D1*
X1924307Y558430D1*
X1920504D1*
X1914756Y556528D1*
X1910954Y550780D1*
X1909008Y541230D1*
Y535482D1*
X1910954Y525931D1*
X1914756Y520183D1*
X1920504Y518282D1*
X1924307D1*
X1910954Y525931D2*
X1933902Y550780D1*
X714094Y963957D2*
X710247Y962011D1*
X704499Y956308D1*
Y996455D1*
X1849683Y1076974D2*
X1845836Y1075029D1*
X1840088Y1069325D1*
Y1109473D1*
X1802843Y1082678D2*
X1804789Y1088426D1*
X1808591Y1092273D1*
X1814339Y1094174D1*
X1816241D1*
X1821989Y1092273D1*
X1825791Y1088426D1*
X1827737Y1082678D1*
Y1080777D1*
X1825791Y1075029D1*
X1821989Y1071226D1*
X1816241Y1069325D1*
X1814339D1*
X1808591Y1071226D1*
X1804789Y1075029D1*
X1802843Y1082678D1*
Y1092273D1*
X1804789Y1101823D1*
X1808591Y1107571D1*
X1814340Y1109473D1*
X1818142D1*
X1823890Y1107571D1*
X1825791Y1103725D1*
X1894552Y963685D2*
X1890705Y961739D1*
X1884957Y956035D1*
Y996183D1*
X1861110Y956035D2*
X1866858Y957937D1*
X1870705Y963685D1*
X1872606Y973235D1*
Y978983D1*
X1870705Y988534D1*
X1866858Y994282D1*
X1861110Y996183D1*
X1857308D1*
X1851559Y994282D1*
X1847757Y988534D1*
X1845811Y978983D1*
Y973235D1*
X1847757Y963685D1*
X1851559Y957937D1*
X1857307Y956035D1*
X1861110D1*
X1847757Y963685D2*
X1870705Y988534D1*
X768531Y1076663D2*
X764684Y1074717D1*
X758936Y1069014D1*
Y1109161D1*
X746585Y1076663D2*
X742738Y1074717D1*
X736990Y1069014D1*
Y1109161D1*
M02*
