G04*
G04 Format:               Gerber RS-274X*
G04 Export Settings:      OSH Park*
G04 Layer:                TopSilkscreen*
G04 This File Name:       576NUC_FujiNet_V1.6.gto*
G04 Source File Name:     576NUC_FujiNet_V1.6.rrb*
G04 Unique ID:            d1145678-c053-40f8-9390-8959fa1d921f*
G04 Generated Date:       Saturday, 09 October 2021 17:44:57*
G04*
G04 Created Using:        Robot Room Copper Connection v3.0.5875*
G04 Software Contact:     http://www.robotroom.com/CopperConnection/Support.aspx*
G04 License Number:       2194*
G04*
G04 Zero Suppression:     Leading*
G04 Number Precision:     2.4*
G04*
%FSLAX24Y24*%
%MOIN*%
%LNTopSilkscreen*%
%ADD10C,.006*%
%ADD11C,.0062*%
%ADD12C,.007*%
%ADD13C,.0079*%
%ADD14C,.008*%
%ADD15C,.01*%
%ADD16C,.0109*%
%ADD17C,.012*%
%ADD18C,.015*%
%ADD19C,.018*%
%ADD20C,.02*%
%ADD21C,.0225*%
%ADD22C,.056*%
%ADD23C,.063*%
%ADD24C,.065*%
%ADD25C,.075*%
%ADD26C,.084*%
%ADD27C,.1*%
%ADD28C,.115*%
%ADD29C,.13*%
%ADD30C,.15*%
%ADD31R,.006X.006*%
%ADD32R,.056X.056*%
%ADD33R,.065X.065*%
%ADD34R,.13X.13*%
%ADD35R,.035X.035*%
%ADD36R,.04X.06*%
%ADD37R,.059X.035*%
%ADD38R,.07X.027*%
%ADD39R,.07X.04*%
%ADD40R,.07X.05*%
%ADD41R,.12X.07*%
%ADD42R,.13X.065*%
G36*
G01X29180Y830D02*
X29480D01*
Y480D01*
X29180D01*
Y830D01*
G37*
G36*
X31390Y22370D02*
X31760D01*
Y21870D01*
X31390D01*
Y22370D01*
G37*
G36*
X32210Y900D02*
X32580D01*
Y400D01*
X32210D01*
Y900D01*
G37*
G36*
X1180Y9840D02*
X1810D01*
Y9520D01*
X1180D01*
Y9840D01*
G37*
G36*
X3390Y9840D02*
X4020D01*
Y9520D01*
X3390D01*
Y9840D01*
G37*
G36*
X5720Y9860D02*
X6350D01*
Y9540D01*
X5720D01*
Y9860D01*
G37*
G36*
X26560Y22810D02*
X26690D01*
Y22500D01*
X26560D01*
Y22810D01*
G37*
G36*
X26440Y24060D02*
X26570D01*
Y23750D01*
X26440D01*
Y24060D01*
G37*
G36*
X26560Y24250D02*
X26690D01*
Y23940D01*
X26560D01*
Y24250D01*
G37*
G36*
X26560Y24260D02*
X26930D01*
Y24130D01*
X26560D01*
Y24260D01*
G37*
G36*
X26440Y23000D02*
X26570D01*
Y22690D01*
X26440D01*
Y23000D01*
G37*
G36*
X27190Y24000D02*
X27940D01*
Y23880D01*
X27190D01*
Y24000D01*
G37*
G36*
X27810Y24250D02*
X27940D01*
Y23940D01*
X27810D01*
Y24250D01*
G37*
G36*
X26310Y23880D02*
X26440D01*
Y22880D01*
X26310D01*
Y23880D01*
G37*
G36*
X28190Y24500D02*
X28320D01*
Y24130D01*
X28190D01*
Y24500D01*
G37*
G36*
X28190Y24500D02*
X28620D01*
Y24380D01*
X28190D01*
Y24500D01*
G37*
G36*
X28810Y24500D02*
X29310D01*
Y24380D01*
X28810D01*
Y24500D01*
G37*
G36*
X28810Y24500D02*
X28940D01*
Y24130D01*
X28810D01*
Y24500D01*
G37*
G36*
X28710Y22870D02*
X28840D01*
Y22500D01*
X28710D01*
Y22870D01*
G37*
G36*
X29190Y22870D02*
X29320D01*
Y22500D01*
X29190D01*
Y22870D01*
G37*
G36*
X29310Y24750D02*
X29680D01*
Y24620D01*
X29310D01*
Y24750D01*
G37*
G36*
X29190Y24750D02*
X29320D01*
Y24380D01*
X29190D01*
Y24750D01*
G37*
G36*
X29560Y24750D02*
X29690D01*
Y24000D01*
X29560D01*
Y24750D01*
G37*
G36*
X29310Y24130D02*
X29680D01*
Y24000D01*
X29310D01*
Y24130D01*
G37*
G36*
X29310Y24130D02*
X29440D01*
Y23760D01*
X29310D01*
Y24130D01*
G37*
G36*
X29190Y23940D02*
X29320D01*
Y23380D01*
X29190D01*
Y23940D01*
G37*
G36*
X29060Y23940D02*
X29230D01*
Y23630D01*
X29060D01*
Y23940D01*
G37*
G36*
X29320Y23510D02*
X29690D01*
Y23380D01*
X29320D01*
Y23510D01*
G37*
G36*
X29310Y23500D02*
X29440D01*
Y23130D01*
X29310D01*
Y23500D01*
G37*
G36*
X27560Y22630D02*
X28810D01*
Y22500D01*
X27560D01*
Y22630D01*
G37*
G36*
X27560Y22870D02*
X27690D01*
Y22500D01*
X27560D01*
Y22870D01*
G37*
G36*
X29190Y22630D02*
X29560D01*
Y22500D01*
X29190D01*
Y22630D01*
G37*
G36*
X29560Y23500D02*
X29690D01*
Y22750D01*
X29560D01*
Y23500D01*
G37*
G36*
X29440Y22870D02*
X29570D01*
Y22500D01*
X29440D01*
Y22870D01*
G37*
G36*
X28940Y22880D02*
X29310D01*
Y22750D01*
X28940D01*
Y22880D01*
G37*
G36*
X27190Y22870D02*
X27320D01*
Y22500D01*
X27190D01*
Y22870D01*
G37*
G36*
X26560Y22630D02*
X27250D01*
Y22500D01*
X26560D01*
Y22630D01*
G37*
G36*
X27440Y23880D02*
X27570D01*
Y23570D01*
X27440D01*
Y23880D01*
G37*
G36*
X27310Y23120D02*
X27560D01*
Y22750D01*
X27310D01*
Y23120D01*
G37*
G36*
X28840Y23130D02*
X29090D01*
Y22750D01*
X28840D01*
Y23130D01*
G37*
G36*
X28690Y24250D02*
X28820D01*
Y23940D01*
X28690D01*
Y24250D01*
G37*
G36*
X26820Y24260D02*
X27200D01*
Y23380D01*
X26820D01*
Y24260D01*
G37*
G36*
X27940Y24250D02*
X28310D01*
Y24130D01*
X27940D01*
Y24250D01*
G37*
G36*
X28560Y24500D02*
X28690D01*
Y24130D01*
X28560D01*
Y24500D01*
G37*
G36*
X26950Y23450D02*
X27080D01*
Y23140D01*
X26950D01*
Y23450D01*
G37*
G36*
X28310Y24160D02*
X28560D01*
Y23910D01*
X28310D01*
Y24160D01*
G37*
G36*
X28120Y23910D02*
X28370D01*
Y23660D01*
X28120D01*
Y23910D01*
G37*
G36*
X27940Y23660D02*
X28190D01*
Y23410D01*
X27940D01*
Y23660D01*
G37*
G36*
X27750Y23410D02*
X28000D01*
Y23160D01*
X27750D01*
Y23410D01*
G37*
G36*
X31016Y25217D02*
X30851D01*
X30808Y25332D01*
X30794Y25346D01*
X30765Y25403D01*
X30751Y25418D01*
X30729Y25454D01*
X30643Y25540D01*
X30593Y25575D01*
X30586D01*
X30571Y25590D01*
X30478Y25626D01*
X30464D01*
X30457Y25633D01*
X30421D01*
X30414Y25640D01*
X29976D01*
Y25719D01*
X30500D01*
X30507Y25712D01*
X30564D01*
X30571Y25704D01*
X30600D01*
X30657Y25690D01*
X30686Y25676D01*
X30700D01*
X30772Y25640D01*
X30786Y25626D01*
X30815Y25611D01*
X30844Y25583D01*
X30894Y25540D01*
Y25532D01*
X30930Y25489D01*
X30944Y25454D01*
X30951Y25439D01*
X30966Y25425D01*
X31002Y25317D01*
Y25296D01*
X31009Y25289D01*
Y25253D01*
X31016Y25246D01*
Y25217D01*
G37*
G36*
X31016Y25755D02*
X29976D01*
Y25912D01*
X31016D01*
Y25755D01*
G37*
G36*
X30500Y25948D02*
X29976D01*
Y25977D01*
X29969Y25984D01*
X29976Y25991D01*
Y26027D01*
X30414D01*
X30421Y26034D01*
X30450D01*
X30478Y26041D01*
X30507Y26056D01*
X30557Y26070D01*
X30571Y26084D01*
X30614Y26106D01*
X30629Y26120D01*
X30729Y26221D01*
X30751Y26242D01*
X30779Y26285D01*
X30786Y26307D01*
X30794Y26321D01*
X30808Y26335D01*
X30815Y26350D01*
Y26364D01*
X30844Y26421D01*
Y26436D01*
X30851Y26450D01*
X31016D01*
Y26421D01*
X31009Y26414D01*
Y26378D01*
X30994Y26321D01*
X30980Y26292D01*
X30966Y26242D01*
X30951Y26228D01*
Y26214D01*
X30916Y26156D01*
X30887Y26127D01*
X30851Y26084D01*
X30844D01*
X30772Y26027D01*
X30708Y25998D01*
X30657Y25977D01*
X30607Y25970D01*
X30600Y25963D01*
X30571D01*
X30564Y25955D01*
X30507D01*
X30500Y25948D01*
G37*
G36*
G75*
X35488Y22591D02*
G02I0J-281D01*
G37*
G36*
G01X35494Y23662D02*
G02I0J-281D01*
G37*
G36*
G01X34945Y23126D02*
G02I0J-281D01*
G37*
G36*
G01X36015Y23662D02*
G02I0J-281D01*
G37*
D10*
G01X33379Y1605D02*
X33443Y1541D01*
Y1414D01*
X33379Y1350D01*
X33124D01*
X33060Y1414D01*
Y1541D01*
X33124Y1605D01*
X33251Y1924D02*
X33315Y1988D01*
X33379D01*
X33443Y1924D01*
Y1796D01*
X33379Y1733D01*
X33315D01*
X33251Y1796D01*
X33188Y1733D01*
X33124D01*
X33060Y1796D01*
Y1924D01*
X33124Y1988D01*
X33188D01*
X33251Y1924D01*
Y1796D01*
X16565Y11161D02*
X16501Y11098D01*
X16374D01*
X16310Y11161D01*
Y11416D01*
X16374Y11480D01*
X16501D01*
X16565Y11416D01*
X16947Y11480D02*
X16693D01*
Y11352D01*
X16884D01*
X16947Y11289D01*
Y11161D01*
X16884Y11098D01*
X16756D01*
X16693Y11161D01*
X10825D02*
X10761Y11098D01*
X10634D01*
X10570Y11161D01*
Y11416D01*
X10634Y11480D01*
X10761D01*
X10825Y11416D01*
X11207Y11225D02*
X10952D01*
Y11289D01*
X11144Y11480D01*
Y11098D01*
X8999Y25085D02*
X9062Y25021D01*
Y24894D01*
X8999Y24830D01*
X8744D01*
X8680Y24894D01*
Y25021D01*
X8744Y25085D01*
Y25276D02*
X8680Y25340D01*
X9062D01*
Y25276D02*
Y25404D01*
X2281Y10197D02*
Y9942D01*
X2472D01*
Y10134D01*
G74*
G02X2536Y10197I64J0D01*
G01X2600D01*
G02X2663Y10134I0J64D01*
G01Y10006D01*
G02X2600Y9942I64J0D01*
G01X2281Y10325D02*
X2663Y10452D01*
X2281Y10580D01*
Y11004D02*
Y11259D01*
Y11132D02*
X2663D01*
X2281Y11387D02*
X2663Y11642D01*
Y11387D02*
X2281Y11642D01*
Y12033D02*
X2663D01*
X2281D02*
Y12224D01*
G02X2345Y12288I64J0D01*
G01X2408D01*
G02X2472Y12224I0J64D01*
G01Y12033D01*
Y12097D02*
X2663Y12288D01*
X2281Y12416D02*
X2663Y12671D01*
Y12416D02*
X2281Y12671D01*
X2472Y13145D02*
Y13209D01*
X2600D01*
G02X2663Y13145I0J64D01*
G01Y13018D01*
G02X2600Y12954I64J0D01*
G01X2345D01*
G02X2281Y13018I0J64D01*
G01Y13145D01*
G02X2345Y13209I64J0D01*
G01X2663Y13337D02*
X2281D01*
X2663Y13592D01*
X2281D01*
Y13719D02*
Y13910D01*
G02X2345Y13974I64J0D01*
G01X2600D01*
G02X2663Y13910I0J64D01*
G01Y13719D01*
X2281D01*
X4472Y11328D02*
Y11073D01*
X4664D01*
Y11264D01*
G02X4727Y11328I64J0D01*
G01X4791D01*
G02X4855Y11264I0J64D01*
G01Y11137D01*
G02X4791Y11073I64J0D01*
G01X4472Y11455D02*
X4855Y11583D01*
X4472Y11710D01*
X4461Y10333D02*
Y10078D01*
X4652D01*
Y10269D01*
G02X4716Y10333I64J0D01*
G01X4780D01*
G02X4843Y10269I0J64D01*
G01Y10142D01*
G02X4780Y10078I64J0D01*
G01X4461Y10461D02*
X4843Y10588D01*
X4461Y10716D01*
X4803Y12355D02*
G02X4867Y12291I0J64D01*
G01Y12164D01*
G02X4803Y12100I64J0D01*
G01X4548D01*
G02X4484Y12164I0J64D01*
G01Y12291D01*
G02X4548Y12355I64J0D01*
G01X4484Y12482D02*
X4867D01*
X4484Y12737D02*
X4675Y12546D01*
X4867Y12737D01*
X4675Y12482D02*
Y12546D01*
X4484Y13037D02*
Y13229D01*
G02X4548Y13292I64J0D01*
G01X4803D01*
G02X4867Y13229I0J64D01*
G01Y13037D01*
X4484D01*
Y13420D02*
Y13675D01*
Y13547D02*
X4867D01*
X4687Y14111D02*
Y14174D01*
X4814D01*
G02X4878Y14111I0J64D01*
G01Y13983D01*
G02X4814Y13919I64J0D01*
G01X4559D01*
G02X4496Y13983I0J64D01*
G01Y14111D01*
G02X4559Y14174I64J0D01*
G01X4878Y14302D02*
X4496D01*
X4878Y14557D01*
X4496D01*
Y14684D02*
Y14876D01*
G02X4559Y14939I64J0D01*
G01X4814D01*
G02X4878Y14876I0J64D01*
G01Y14684D01*
X4496D01*
X6822Y9924D02*
Y10179D01*
Y10051D02*
X7205D01*
X6822Y10306D02*
X7205D01*
X7014D02*
Y10561D01*
X6822D02*
X7205D01*
X6822Y10753D02*
Y10880D01*
Y10816D02*
X7205D01*
Y10753D02*
Y10880D01*
X7014Y11263D02*
G02X7077Y11326I64J0D01*
G01X7141D01*
G02X7205Y11263I0J64D01*
G01Y11135D01*
G02X7141Y11071I64J0D01*
G01X7014Y11263D02*
Y11135D01*
G02X6950Y11071I64J0D01*
G01X6886D01*
G02X6822Y11135I0J64D01*
G01Y11263D01*
G02X6886Y11326I64J0D01*
G01X6822Y11836D02*
X7205D01*
X7014D02*
Y12091D01*
X6822D02*
X7205D01*
X6822Y12474D02*
Y12219D01*
X7205D01*
Y12474D01*
X7014Y12219D02*
Y12410D01*
X7205Y12601D02*
X6886D01*
G02X6822Y12665I0J64D01*
G01Y12793D01*
G02X6886Y12856I64J0D01*
G01X7205D01*
X7014Y12601D02*
Y12856D01*
X6822Y12984D02*
Y13175D01*
G02X6886Y13239I64J0D01*
G01X7141D01*
G02X7205Y13175I0J64D01*
G01Y12984D01*
X6822D01*
Y13621D02*
Y13366D01*
X7205D01*
Y13621D01*
X7014Y13366D02*
Y13558D01*
X6822Y13749D02*
X7205D01*
X6822D02*
Y13940D01*
G02X6886Y14004I64J0D01*
G01X6950D01*
G02X7014Y13940I0J64D01*
G01Y13749D01*
Y13813D02*
X7205Y14004D01*
X7014Y14705D02*
Y14769D01*
X7141D01*
G02X7205Y14705I0J64D01*
G01Y14578D01*
G02X7141Y14514I64J0D01*
G01X6886D01*
G02X6822Y14578I0J64D01*
G01Y14705D01*
G02X6886Y14769I64J0D01*
G01X6822Y15151D02*
Y14896D01*
X7205D01*
Y15151D01*
X7014Y14896D02*
Y15088D01*
X6822Y15279D02*
Y15534D01*
Y15406D02*
X7205D01*
X7014Y15853D02*
G02X7077Y15916I64J0D01*
G01X7141D01*
G02X7205Y15853I0J64D01*
G01Y15725D01*
G02X7141Y15661I64J0D01*
G01X7014Y15853D02*
Y15725D01*
G02X6950Y15661I64J0D01*
G01X6886D01*
G02X6822Y15725I0J64D01*
G01Y15853D01*
G02X6886Y15916I64J0D01*
G01X7205Y16426D02*
X6822D01*
X7014Y16554D01*
X6822Y16681D01*
X7205D01*
X7141Y16809D02*
X6886D01*
G02X6822Y16873I0J64D01*
G01Y17000D01*
G02X6886Y17064I64J0D01*
G01X7141D01*
G02X7205Y17000I0J64D01*
G01Y16873D01*
G02X7141Y16809I64J0D01*
G01X6822Y17446D02*
X7141D01*
G02X7205Y17383I0J64D01*
G01Y17255D01*
G02X7141Y17191I64J0D01*
G01X6822D01*
X7205Y17574D02*
X6822D01*
X7205Y17829D01*
X6822D01*
Y17956D02*
Y18211D01*
Y18084D02*
X7205D01*
X6822Y18594D02*
Y18339D01*
X7205D01*
Y18594D01*
X7014Y18339D02*
Y18530D01*
X6822Y18721D02*
Y18913D01*
G02X6886Y18976I64J0D01*
G01X7141D01*
G02X7205Y18913I0J64D01*
G01Y18721D01*
X6822D01*
X7141Y19486D02*
X6886D01*
G02X6822Y19550I0J64D01*
G01Y19678D01*
G02X6886Y19741I64J0D01*
G01X7141D01*
G02X7205Y19678I0J64D01*
G01Y19550D01*
G02X7141Y19486I64J0D01*
G01X7205Y19869D02*
X6822D01*
X7205Y20124D01*
X6822D01*
Y20634D02*
Y20825D01*
G02X6886Y20889I64J0D01*
G01X6950D01*
G02X7014Y20825I0J64D01*
G01Y20634D01*
Y20825D02*
G02X7077Y20889I64J0D01*
G01X7141D01*
G02X7205Y20825I0J64D01*
G01Y20634D01*
X6822D01*
X7205Y21016D02*
X6886D01*
G02X6822Y21080I0J64D01*
G01Y21208D01*
G02X6886Y21271I64J0D01*
G01X7205D01*
X7014Y21016D02*
Y21271D01*
X7141Y21654D02*
G02X7205Y21590I0J64D01*
G01Y21463D01*
G02X7141Y21399I64J0D01*
G01X6886D01*
G02X6822Y21463I0J64D01*
G01Y21590D01*
G02X6886Y21654I64J0D01*
G01X6822Y21781D02*
X7205D01*
X6822Y22036D02*
X7014Y21845D01*
X7205Y22036D01*
X7014Y21781D02*
Y21845D01*
Y22738D02*
G02X7077Y22801I64J0D01*
G01X7141D01*
G02X7205Y22738I0J64D01*
G01Y22610D01*
G02X7141Y22546I64J0D01*
G01X7014Y22738D02*
Y22610D01*
G02X6950Y22546I64J0D01*
G01X6886D01*
G02X6822Y22610I0J64D01*
G01Y22738D01*
G02X6886Y22801I64J0D01*
G01X6822Y22993D02*
Y23120D01*
Y23056D02*
X7205D01*
Y22993D02*
Y23120D01*
X6822Y23311D02*
Y23503D01*
G02X6886Y23566I64J0D01*
G01X7141D01*
G02X7205Y23503I0J64D01*
G01Y23311D01*
X6822D01*
Y23949D02*
Y23694D01*
X7205D01*
Y23949D01*
X7014Y23694D02*
Y23885D01*
X37404Y19782D02*
X37022D01*
X37213Y19909D01*
X37022Y20037D01*
X37404D01*
X37341Y20164D02*
X37086D01*
G02X37022Y20228I0J64D01*
G01Y20356D01*
G02X37086Y20419I64J0D01*
G01X37341D01*
G02X37404Y20356I0J64D01*
G01Y20228D01*
G02X37341Y20164I64J0D01*
G01X37022Y20547D02*
Y20802D01*
X37404Y20547D01*
Y20802D01*
X37022Y20929D02*
Y21184D01*
X37404Y20929D01*
Y21184D01*
X37022Y21567D02*
X37341D01*
G02X37404Y21503I0J64D01*
X37341Y21439I64J0D01*
G01X37213D01*
X37341D01*
G02X37404Y21376I0J64D01*
X37341Y21312I64J0D01*
G01X37022D01*
X37404Y21694D02*
X37086D01*
G02X37022Y21758I0J64D01*
G01Y21886D01*
G02X37086Y21949I64J0D01*
G01X37404D01*
X37213Y21694D02*
Y21949D01*
X37022Y22077D02*
X37404D01*
Y22332D01*
X37022Y22459D02*
Y22651D01*
G02X37086Y22714I64J0D01*
G01X37341D01*
G02X37404Y22651I0J64D01*
G01Y22459D01*
X37022D01*
Y23479D02*
Y23224D01*
X37404D01*
Y23479D01*
X37213Y23224D02*
Y23416D01*
X37341Y23830D02*
G02X37404Y23766I0J64D01*
G01Y23734D01*
G02X37341Y23671I64J0D01*
G01X37022D01*
X37149Y23607D02*
Y23798D01*
X37404Y24372D02*
X37086D01*
G02X37022Y24436I0J64D01*
G01Y24563D01*
G02X37086Y24627I64J0D01*
G01X37404D01*
X37213Y24372D02*
Y24627D01*
X37022Y24882D02*
X37404D01*
X37372Y25232D02*
G02X37341Y25264I0J32D01*
X37372Y25296I32J0D01*
X37404Y25264I0J32D01*
X37372Y25232I32J0D01*
G01X37357Y25264D02*
X37388D01*
D11*
X17967Y22660D02*
X17570D01*
Y22859D01*
X17636Y22925D01*
X17703D01*
X17769Y22859D01*
Y22660D01*
Y22726D02*
X17967Y22925D01*
X17636Y23124D02*
X17570Y23190D01*
X17967D01*
Y23124D02*
Y23256D01*
X18967Y22590D02*
X18570D01*
Y22789D01*
X18636Y22855D01*
X18703D01*
X18769Y22789D01*
Y22590D01*
Y22656D02*
X18967Y22855D01*
X18636Y22988D02*
X18570Y23054D01*
Y23186D01*
X18636Y23253D01*
X18703D01*
X18769Y23186D01*
Y23054D01*
X18835Y22988D01*
X18967D01*
Y23253D01*
X19928Y22560D02*
X19530D01*
Y22759D01*
X19596Y22825D01*
X19663D01*
X19729Y22759D01*
Y22560D01*
Y22626D02*
X19928Y22825D01*
X19596Y22958D02*
X19530Y23024D01*
Y23156D01*
X19596Y23223D01*
X19663D01*
X19729Y23156D01*
Y23090D01*
Y23156D02*
X19795Y23223D01*
X19861D01*
X19928Y23156D01*
Y23024D01*
X19861Y22958D01*
X20967Y22590D02*
X20570D01*
Y22789D01*
X20636Y22855D01*
X20703D01*
X20769Y22789D01*
Y22590D01*
Y22656D02*
X20967Y22855D01*
X20835Y23253D02*
Y22988D01*
X20769D01*
X20570Y23186D01*
X20967D01*
X38830Y17143D02*
Y17540D01*
X39029D01*
X39095Y17474D01*
Y17408D01*
X39029Y17341D01*
X38830D01*
X38896D02*
X39095Y17143D01*
X39493Y17540D02*
X39228D01*
Y17408D01*
X39426D01*
X39493Y17341D01*
Y17209D01*
X39426Y17143D01*
X39294D01*
X39228Y17209D01*
X38830Y15143D02*
Y15540D01*
X39029D01*
X39095Y15474D01*
Y15407D01*
X39029Y15341D01*
X38830D01*
X38896D02*
X39095Y15143D01*
X39228Y15275D02*
X39294Y15341D01*
X39426D01*
X39493Y15275D01*
Y15209D01*
X39426Y15143D01*
X39294D01*
X39228Y15209D01*
Y15275D01*
Y15407D01*
X39360Y15540D01*
X39426D01*
X38830Y13143D02*
Y13540D01*
X39029D01*
X39095Y13474D01*
Y13407D01*
X39029Y13341D01*
X38830D01*
X38896D02*
X39095Y13143D01*
X39228Y13474D02*
Y13540D01*
X39493D01*
Y13474D01*
X39294Y13275D01*
Y13143D01*
X13927Y14920D02*
X13530D01*
Y15119D01*
X13596Y15185D01*
X13663D01*
X13729Y15119D01*
Y14920D01*
Y14986D02*
X13927Y15185D01*
X13729Y15516D02*
X13795Y15582D01*
X13861D01*
X13927Y15516D01*
Y15384D01*
X13861Y15317D01*
X13795D01*
X13729Y15384D01*
X13663Y15317D01*
X13596D01*
X13530Y15384D01*
Y15516D01*
X13596Y15582D01*
X13663D01*
X13729Y15516D01*
Y15384D01*
D12*
X1000Y14457D02*
X1372D01*
G02X1446Y14383I0J74D01*
G01Y14234D01*
G02X1372Y14160I74J0D01*
G01X1074Y14606D02*
G02X1000Y14681I0J74D01*
G01Y14829D01*
G02X1074Y14904I74J0D01*
G01X1149D01*
G02X1223Y14829I0J74D01*
G01Y14755D01*
Y14829D02*
G02X1298Y14904I74J0D01*
G01X1372D01*
G02X1446Y14829I0J74D01*
G01Y14681D01*
G02X1372Y14606I74J0D01*
G01X1223Y15052D02*
Y15350D01*
X1000Y15499D02*
X1446D01*
X1000D02*
Y15722D01*
G02X1074Y15796I74J0D01*
G01X1149D01*
G02X1223Y15722I0J74D01*
G01Y15499D01*
Y16168D02*
Y16242D01*
X1372D01*
G02X1446Y16168I0J74D01*
G01Y16019D01*
G02X1372Y15945I74J0D01*
G01X1074D01*
G02X1000Y16019I0J74D01*
G01Y16168D01*
G02X1074Y16242I74J0D01*
G01X1446Y16391D02*
X1000D01*
X1223Y16540D01*
X1000Y16689D01*
X1446D01*
X3766Y15467D02*
X4137D01*
G02X4212Y15393I0J74D01*
G01Y15244D01*
G02X4137Y15170I74J0D01*
G01X3840Y15616D02*
G02X3766Y15691I0J74D01*
G01Y15839D01*
G02X3840Y15914I74J0D01*
G01X3914D01*
G02X3989Y15839I0J74D01*
G01Y15691D01*
X4063Y15616D02*
G02X3989Y15691I0J74D01*
G01X4063Y15616D02*
X4212D01*
Y15914D01*
X3989Y16062D02*
Y16360D01*
X3766Y16509D02*
X4212D01*
X3766D02*
Y16732D01*
G02X3840Y16806I74J0D01*
G01X3914D01*
G02X3989Y16732I0J74D01*
G01Y16509D01*
Y17178D02*
G02X4063Y17252I74J0D01*
G01X4137D01*
G02X4212Y17178I0J74D01*
G01Y17029D01*
G02X4137Y16955I74J0D01*
G01X3989Y17178D02*
Y17029D01*
G02X3914Y16955I74J0D01*
G01X3840D01*
G02X3766Y17029I0J74D01*
G01Y17178D01*
G02X3840Y17252I74J0D01*
G01X4212Y17401D02*
X3766Y17699D01*
X3840Y17847D02*
G02X3766Y17922I0J74D01*
G01Y18071D01*
G02X3840Y18145I74J0D01*
G01X3914D01*
G02X3989Y18071I0J74D01*
G01Y17922D01*
X4063Y17847D02*
G02X3989Y17922I0J74D01*
G01X4063Y17847D02*
X4212D01*
Y18145D01*
X4801Y21709D02*
X5173D01*
G02X5247Y21634I0J74D01*
G01Y21485D01*
G02X5173Y21411I74J0D01*
G01X4876Y21932D02*
X4801Y22006D01*
X5247D01*
Y21932D02*
Y22080D01*
X5024Y22304D02*
Y22601D01*
Y22973D02*
G02X5099Y23047I74J0D01*
G01X5173D01*
G02X5247Y22973I0J74D01*
G01Y22824D01*
G02X5173Y22750I74J0D01*
G01X5024Y22973D02*
Y22824D01*
G02X4950Y22750I74J0D01*
G01X4876D01*
G02X4801Y22824I0J74D01*
G01Y22973D01*
G02X4876Y23047I74J0D01*
G01X4801Y23270D02*
Y23419D01*
Y23345D02*
X5247D01*
Y23270D02*
Y23419D01*
X5173Y23642D02*
X4876D01*
G02X4801Y23717I0J74D01*
G01Y23865D01*
G02X4876Y23940I74J0D01*
G01X5173D01*
G02X5247Y23865I0J74D01*
G01Y23717D01*
G02X5173Y23642I74J0D01*
G01X34652Y12205D02*
X34653Y12217D01*
X34656Y12229D01*
X34661Y12240D01*
X34667Y12251D01*
X34676Y12260D01*
X34686Y12269D01*
X34697Y12276D01*
X34710Y12282D01*
X34723Y12287D01*
X34737Y12289D01*
X34752Y12290D01*
X34763Y12289D01*
X34774Y12287D01*
X34785Y12284D01*
X34795Y12279D01*
X34805Y12272D01*
X34814Y12265D01*
X34823Y12256D01*
X34831Y12246D01*
X34839Y12235D01*
X34845Y12223D01*
X34851Y12210D01*
X34855Y12197D01*
X34859Y12183D01*
X34862Y12169D01*
X34863Y12141D01*
Y12127D01*
X34862Y12112D01*
X34860Y12098D01*
X34858Y12084D01*
X34855Y12071D01*
X34851Y12059D01*
X34847Y12048D01*
X34842Y12037D01*
X34836Y12028D01*
X34831Y12020D01*
X34824Y12013D01*
X34818Y12008D01*
X34811Y12004D01*
X34804Y12001D01*
X34797Y12000D01*
X34652Y12205D02*
X34633Y12104D01*
X34632Y12090D01*
X34629Y12076D01*
X34625Y12062D01*
X34619Y12049D01*
X34612Y12037D01*
X34603Y12026D01*
X34593Y12017D01*
X34582Y12008D01*
X34570Y12002D01*
X34557Y11997D01*
X34544Y11994D01*
X34529Y11993D01*
X34518D01*
X34507Y11996D01*
X34496Y11999D01*
X34486Y12004D01*
X34476Y12010D01*
X34466Y12018D01*
X34458Y12027D01*
X34449Y12037D01*
X34442Y12048D01*
X34436Y12060D01*
X34430Y12072D01*
X34425Y12086D01*
X34422Y12100D01*
X34419Y12114D01*
X34417Y12141D01*
X34418Y12156D01*
X34419Y12171D01*
X34420Y12185D01*
X34423Y12198D01*
X34426Y12212D01*
X34430Y12224D01*
X34434Y12235D01*
X34439Y12246D01*
X34444Y12255D01*
X34450Y12263D01*
X34456Y12270D01*
X34463Y12275D01*
X34469Y12279D01*
X34476Y12282D01*
X34484Y12283D01*
X34834Y12736D02*
X34838Y12735D01*
X34841Y12733D01*
X34845Y12728D01*
X34848Y12722D01*
X34852Y12714D01*
X34855Y12705D01*
X34857Y12694D01*
X34859Y12682D01*
X34861Y12669D01*
X34862Y12656D01*
X34863Y12641D01*
Y12625D01*
Y12612D01*
X34861Y12600D01*
X34859Y12588D01*
X34855Y12575D01*
X34851Y12563D01*
X34846Y12552D01*
X34839Y12540D01*
X34832Y12529D01*
X34824Y12519D01*
X34815Y12509D01*
X34805Y12499D01*
X34794Y12490D01*
X34783Y12482D01*
X34771Y12474D01*
X34759Y12467D01*
X34746Y12461D01*
X34732Y12455D01*
X34719Y12451D01*
X34704Y12447D01*
X34690Y12444D01*
X34675Y12441D01*
X34660Y12440D01*
X34640Y12439D01*
X34625D01*
X34610Y12441D01*
X34596Y12443D01*
X34581Y12446D01*
X34567Y12449D01*
X34553Y12454D01*
X34539Y12459D01*
X34526Y12465D01*
X34513Y12472D01*
X34501Y12480D01*
X34490Y12488D01*
X34479Y12496D01*
X34469Y12506D01*
X34460Y12516D01*
X34451Y12526D01*
X34444Y12537D01*
X34437Y12548D01*
X34431Y12560D01*
X34427Y12572D01*
X34423Y12584D01*
X34420Y12596D01*
X34418Y12608D01*
X34417Y12625D01*
Y12639D01*
X34418Y12653D01*
X34419Y12667D01*
X34421Y12680D01*
X34423Y12692D01*
X34426Y12703D01*
X34429Y12713D01*
X34432Y12721D01*
X34435Y12727D01*
X34439Y12732D01*
X34443Y12735D01*
X34447Y12736D01*
X34863Y12885D02*
X34417D01*
Y13108D01*
X34418Y13118D01*
X34421Y13127D01*
X34426Y13136D01*
X34432Y13145D01*
X34440Y13153D01*
X34449Y13160D01*
X34460Y13167D01*
X34472Y13172D01*
X34485Y13177D01*
X34498Y13180D01*
X34512Y13182D01*
X34529Y13183D01*
X34543Y13182D01*
X34557Y13180D01*
X34571Y13177D01*
X34584Y13173D01*
X34596Y13168D01*
X34607Y13161D01*
X34617Y13154D01*
X34625Y13146D01*
X34631Y13138D01*
X34636Y13129D01*
X34639Y13119D01*
X34640Y13108D01*
Y12885D01*
Y13034D02*
X34863Y13183D01*
X34417Y13629D02*
Y13331D01*
X34863D01*
Y13629D01*
X34640Y13331D02*
Y13555D01*
X34417Y13778D02*
X34863Y13833D01*
X34603Y13926D01*
X34863Y14019D01*
X34417Y14075D01*
X22038Y23760D02*
X21592D01*
X21815Y23909D01*
X21592Y24058D01*
X22038D01*
X21592Y24206D02*
X21815Y24355D01*
X21592Y24504D01*
X21815Y24355D02*
X22038D01*
X21592Y24652D02*
Y24950D01*
Y24801D02*
X22038D01*
X21592Y25396D02*
Y25099D01*
X22038D01*
Y25396D01*
X21815Y25099D02*
Y25322D01*
X21592Y25545D02*
X22038D01*
X21592Y25842D02*
X21815Y25619D01*
X22038Y25842D01*
X21815Y25545D02*
Y25619D01*
X25433Y24220D02*
X25061D01*
G02X24986Y24294I0J74D01*
G01Y24443D01*
G02X25061Y24517I74J0D01*
G01X25433D01*
X25209Y24220D02*
Y24517D01*
X25433Y24666D02*
X24986D01*
X25433Y24963D01*
X24986D01*
Y25112D02*
Y25335D01*
G02X25061Y25410I74J0D01*
G01X25358D01*
G02X25433Y25335I0J74D01*
G01Y25112D01*
X24986D01*
X26086Y22520D02*
X25640D01*
X25863Y22669D01*
X25640Y22818D01*
X26086D01*
X25789Y22967D02*
X26086D01*
X25863D02*
G02X25789Y23041I0J74D01*
G01Y23190D01*
G02X25863Y23264I74J0D01*
G01X25640Y23413D02*
X26086D01*
X25640D02*
Y23636D01*
G02X25714Y23710I74J0D01*
G01X25789D01*
G02X25863Y23636I0J74D01*
G01Y23413D01*
Y23487D02*
X26086Y23710D01*
X26012Y23859D02*
X25714D01*
G02X25640Y23934I0J74D01*
G01Y24082D01*
G02X25714Y24157I74J0D01*
G01X26012D01*
G02X26086Y24082I0J74D01*
G01Y23934D01*
G02X26012Y23859I74J0D01*
G01X25640Y24305D02*
Y24529D01*
G02X25714Y24603I74J0D01*
G01X25789D01*
G02X25863Y24529I0J74D01*
G01Y24305D01*
Y24529D02*
G02X25937Y24603I74J0D01*
G01X26012D01*
G02X26086Y24529I0J74D01*
G01Y24305D01*
X25640D01*
X26012Y24752D02*
X25714D01*
G02X25640Y24826I0J74D01*
G01Y24975D01*
G02X25714Y25049I74J0D01*
G01X26012D01*
G02X26086Y24975I0J74D01*
G01Y24826D01*
G02X26012Y24752I74J0D01*
G01X25640Y25198D02*
Y25495D01*
Y25347D02*
X26086D01*
D13*
X41700Y13505D02*
X42119D01*
G02X42203Y13421I0J84D01*
X42119Y13337I84J0D01*
G01X41951D01*
X42119D01*
G02X42203Y13254I0J84D01*
X42119Y13170I84J0D01*
G01X41700D01*
Y13673D02*
X42203D01*
X41951D02*
Y14008D01*
X41700D02*
X42203D01*
X41700Y14175D02*
Y14510D01*
Y14343D02*
X42203D01*
X41700Y15160D02*
Y15411D01*
G02X41784Y15495I84J0D01*
G01X41868D01*
G02X41951Y15411I0J84D01*
G01Y15160D01*
Y15411D02*
G02X42035Y15495I84J0D01*
G01X42119D01*
G02X42203Y15411I0J84D01*
G01Y15160D01*
X41700D01*
Y15663D02*
X42203D01*
Y15998D01*
X41700Y16500D02*
X42119D01*
G02X42203Y16416I0J84D01*
G01Y16249D01*
G02X42119Y16165I84J0D01*
G01X41700D01*
Y17110D02*
X42203D01*
X41700D02*
Y17361D01*
G02X41784Y17445I84J0D01*
G01X41868D01*
G02X41951Y17361I0J84D01*
G01Y17110D01*
Y17194D02*
X42203Y17445D01*
X41700Y17948D02*
Y17613D01*
X42203D01*
Y17948D01*
X41951Y17613D02*
Y17864D01*
X41700Y18115D02*
Y18366D01*
G02X41784Y18450I84J0D01*
G01X42119D01*
G02X42203Y18366I0J84D01*
G01Y18115D01*
X41700D01*
X16370Y13416D02*
X16789D01*
G02X16872Y13332I0J84D01*
G01Y13164D01*
G02X16789Y13081I84J0D01*
G01X16370D01*
X16454Y13583D02*
G02X16370Y13667I0J84D01*
G01Y13834D01*
G02X16454Y13918I84J0D01*
G01X16537D01*
G02X16621Y13834I0J84D01*
G01Y13751D01*
Y13834D02*
G02X16705Y13918I84J0D01*
G01X16789D01*
G02X16872Y13834I0J84D01*
G01Y13667D01*
G02X16789Y13583I84J0D01*
G01X16370Y14588D02*
X16872D01*
X16621D02*
Y14923D01*
X16370D02*
X16872D01*
X16789Y15426D02*
G02X16872Y15342I0J84D01*
G01Y15174D01*
G02X16789Y15091I84J0D01*
G01X16454D01*
G02X16370Y15174I0J84D01*
G01Y15342D01*
G02X16454Y15426I84J0D01*
G01X16370Y15593D02*
Y15928D01*
Y15761D02*
X16872D01*
Y16431D02*
X16370D01*
Y16096D02*
X16621D01*
Y16431D01*
X16789Y16598D02*
X16454D01*
G02X16370Y16682I0J84D01*
G01Y16849D01*
G02X16454Y16933I84J0D01*
G01X16789D01*
G02X16872Y16849I0J84D01*
G01Y16682D01*
G02X16789Y16598I84J0D01*
G01X16454Y16933D01*
X16705Y17101D02*
G02X16621Y17184I0J84D01*
G01Y17352D01*
G02X16705Y17436I84J0D01*
G01X16789D01*
G02X16872Y17352I0J84D01*
G01Y17184D01*
G02X16789Y17101I84J0D01*
G01X16454D01*
G02X16370Y17184I0J84D01*
G01Y17352D01*
G02X16454Y17436I84J0D01*
G01X16705Y17603D02*
G02X16621Y17687I0J84D01*
G01Y17854D01*
G02X16705Y17938I84J0D01*
G01X16789D01*
G02X16872Y17854I0J84D01*
G01Y17687D01*
G02X16789Y17603I84J0D01*
G01X16454D01*
G02X16370Y17687I0J84D01*
G01Y17854D01*
G02X16454Y17938I84J0D01*
G01X2799Y21910D02*
X2882Y21994D01*
Y22161D01*
X2799Y22245D01*
X2715D01*
X2631Y22161D01*
Y21994D01*
X2547Y21910D01*
X2464D01*
X2380Y21994D01*
Y22161D01*
X2464Y22245D01*
X2380Y22748D02*
X2882D01*
X2715Y22580D01*
X2882Y22413D01*
X2380D01*
X2631Y22580D02*
X2715D01*
X2464Y22915D02*
X2380Y22999D01*
Y23166D01*
X2464Y23250D01*
X2547D01*
X2631Y23166D01*
Y22999D01*
X2715Y22915D01*
X2882D01*
Y23250D01*
X43419Y24640D02*
X43502Y24724D01*
Y24891D01*
X43419Y24975D01*
X43335D01*
X43251Y24891D01*
Y24724D01*
X43167Y24640D01*
X43084D01*
X43000Y24724D01*
Y24891D01*
X43084Y24975D01*
X43000Y25478D02*
X43502D01*
X43335Y25310D01*
X43502Y25143D01*
X43000D01*
X43251Y25310D02*
X43335D01*
Y25980D02*
Y25645D01*
X43251D01*
X43000Y25896D01*
X43502D01*
X43419Y20770D02*
X43502Y20854D01*
Y21021D01*
X43419Y21105D01*
X43335D01*
X43251Y21021D01*
Y20854D01*
X43167Y20770D01*
X43084D01*
X43000Y20854D01*
Y21021D01*
X43084Y21105D01*
X43000Y21608D02*
X43502D01*
X43335Y21440D01*
X43502Y21273D01*
X43000D01*
X43251Y21440D02*
X43335D01*
X43084Y21775D02*
X43000Y21859D01*
Y22026D01*
X43084Y22110D01*
X43167D01*
X43251Y22026D01*
Y21942D01*
Y22026D02*
X43335Y22110D01*
X43419D01*
X43502Y22026D01*
Y21859D01*
X43419Y21775D01*
X37220Y10994D02*
Y11245D01*
X37639D01*
X37723Y11161D01*
Y10994D01*
X37639Y10910D01*
X37555Y11748D02*
Y11413D01*
X37471D01*
X37220Y11664D01*
X37723D01*
X12750Y24995D02*
X13169D01*
X13252Y24911D01*
Y24744D01*
X13169Y24660D01*
X12750D01*
X12834Y25246D02*
X12750Y25330D01*
X13252D01*
Y25246D02*
Y25414D01*
X20250Y685D02*
X20669D01*
X20752Y601D01*
Y434D01*
X20669Y350D01*
X20250D01*
X20585Y1188D02*
Y853D01*
X20501D01*
X20250Y1104D01*
X20752D01*
X42500Y13410D02*
Y13661D01*
X42584Y13745D01*
X42919D01*
X43003Y13661D01*
Y13410D01*
X42500Y13494D02*
X43003D01*
X42584Y13913D02*
X42500Y13996D01*
Y14164D01*
X42584Y14248D01*
X42668D01*
X42751Y14164D01*
Y14080D01*
Y14164D02*
X42835Y14248D01*
X42919D01*
X43003Y14164D01*
Y13996D01*
X42919Y13913D01*
X42550Y15410D02*
Y15661D01*
X42634Y15745D01*
X42969D01*
X43053Y15661D01*
Y15410D01*
X42550Y15494D02*
X43053D01*
X42885Y16248D02*
Y15912D01*
X42801D01*
X42550Y16164D01*
X43053D01*
X42550Y17360D02*
Y17611D01*
X42634Y17695D01*
X42969D01*
X43053Y17611D01*
Y17360D01*
X42550Y17444D02*
X43053D01*
X42550Y18198D02*
Y17863D01*
X42718D01*
Y18114D01*
X42801Y18198D01*
X42969D01*
X43053Y18114D01*
Y17946D01*
X42969Y17863D01*
X1750Y17600D02*
X2001D01*
X2085Y17516D01*
Y17181D01*
X2001Y17097D01*
X1750D01*
X1834Y17600D02*
Y17097D01*
X2252Y17516D02*
X2336Y17600D01*
X2504D01*
X2587Y17516D01*
Y17432D01*
X2504Y17349D01*
X2336D01*
X2252Y17265D01*
Y17097D01*
X2587D01*
X10359Y22545D02*
X10443Y22461D01*
Y22294D01*
X10359Y22210D01*
X10024D01*
X9940Y22294D01*
Y22461D01*
X10024Y22545D01*
Y22712D02*
X9940Y22796D01*
Y22964D01*
X10024Y23048D01*
X10108D01*
X10191Y22964D01*
Y22796D01*
X10275Y22712D01*
X10443D01*
Y23048D01*
X1750Y20100D02*
X2001D01*
X2085Y20016D01*
Y19681D01*
X2001Y19598D01*
X1750D01*
X1834Y20100D02*
Y19598D01*
X2336Y20016D02*
X2420Y20100D01*
Y19598D01*
X2336D02*
X2504D01*
X15099Y22555D02*
X15182Y22471D01*
Y22304D01*
X15099Y22220D01*
X14764D01*
X14680Y22304D01*
Y22471D01*
X14764Y22555D01*
Y22722D02*
X14680Y22806D01*
Y22974D01*
X14764Y23058D01*
X14847D01*
X14931Y22974D01*
Y22890D01*
Y22974D02*
X15015Y23058D01*
X15099D01*
X15182Y22974D01*
Y22806D01*
X15099Y22722D01*
X979Y29850D02*
X1062Y29934D01*
Y30101D01*
X979Y30185D01*
X895D01*
X811Y30101D01*
Y29934D01*
X728Y29850D01*
X644D01*
X560Y29934D01*
Y30101D01*
X644Y30185D01*
X560Y30687D02*
X1062D01*
X895Y30520D01*
X1062Y30352D01*
X560D01*
X811Y30520D02*
X895D01*
X644Y30939D02*
X560Y31022D01*
X1062D01*
Y30939D02*
Y31106D01*
X34729Y6185D02*
X34813Y6101D01*
Y5934D01*
X34729Y5850D01*
X34394D01*
X34310Y5934D01*
Y6101D01*
X34394Y6185D01*
X34645Y6352D02*
X34561Y6436D01*
Y6604D01*
X34645Y6688D01*
X34729D01*
X34813Y6604D01*
Y6436D01*
X34729Y6352D01*
X34645D01*
X34478D01*
X34310Y6520D01*
Y6604D01*
X34729Y4125D02*
X34813Y4041D01*
Y3874D01*
X34729Y3790D01*
X34394D01*
X34310Y3874D01*
Y4041D01*
X34394Y4125D01*
Y4292D02*
X34310D01*
Y4628D01*
X34394D01*
X34645Y4376D01*
X34813D01*
X21842Y20597D02*
X21340D01*
Y20849D01*
X21423Y20933D01*
X21507D01*
X21591Y20849D01*
Y20597D01*
Y20681D02*
X21842Y20933D01*
Y21100D02*
X21340D01*
X21675Y21435D01*
X21340D02*
X21842D01*
X21423Y21686D02*
X21340Y21770D01*
X21842D01*
Y21686D02*
Y21854D01*
X44814Y3130D02*
G02X44897Y3214I84J0D01*
G01X44981D01*
G02X45065Y3130I0J84D01*
G01Y2962D01*
G02X44981Y2879I84J0D01*
G01X44814Y3130D02*
Y2962D01*
G02X44730Y2879I84J0D01*
G01X44646D01*
G02X44562Y2962I0J84D01*
G01Y3130D01*
G02X44646Y3214I84J0D01*
G01X44562Y3381D02*
Y3632D01*
G02X44646Y3716I84J0D01*
G01X44981D01*
G02X45065Y3632I0J84D01*
G01Y3381D01*
X44562D01*
X44981Y4721D02*
G02X45065Y4638I0J84D01*
G01Y4470D01*
G02X44981Y4386I84J0D01*
G01X44646D01*
G02X44562Y4470I0J84D01*
G01Y4638D01*
G02X44646Y4721I84J0D01*
G01X45065Y4889D02*
X44646D01*
G02X44562Y4973I0J84D01*
G01Y5140D01*
G02X44646Y5224I84J0D01*
G01X45065D01*
X44814Y4889D02*
Y5224D01*
X44562Y5391D02*
X45065D01*
X44562D02*
Y5643D01*
G02X44646Y5726I84J0D01*
G01X44730D01*
G02X44814Y5643I0J84D01*
G01Y5391D01*
Y5475D02*
X45065Y5726D01*
X44562Y5894D02*
Y6145D01*
G02X44646Y6229I84J0D01*
G01X44981D01*
G02X45065Y6145I0J84D01*
G01Y5894D01*
X44562D01*
X44814Y7150D02*
G02X44897Y7234I84J0D01*
G01X44981D01*
G02X45065Y7150I0J84D01*
G01Y6983D01*
G02X44981Y6899I84J0D01*
G01X44814Y7150D02*
Y6983D01*
G02X44730Y6899I84J0D01*
G01X44646D01*
G02X44562Y6983I0J84D01*
G01Y7150D01*
G02X44646Y7234I84J0D01*
G01X44981Y7401D02*
X44646D01*
G02X44562Y7485I0J84D01*
G01Y7653D01*
G02X44646Y7736I84J0D01*
G01X44981D01*
G02X45065Y7653I0J84D01*
G01Y7485D01*
G02X44981Y7401I84J0D01*
G01Y8239D02*
G02X45065Y8155I0J84D01*
G01Y7988D01*
G02X44981Y7904I84J0D01*
G01X44646D01*
G02X44562Y7988I0J84D01*
G01Y8155D01*
G02X44646Y8239I84J0D01*
G01X44562Y8406D02*
X45065D01*
X44562Y8741D02*
X44814Y8490D01*
X45065Y8741D01*
X44814Y8406D02*
Y8490D01*
X44562Y9244D02*
Y8909D01*
X45065D01*
Y9244D01*
X44814Y8909D02*
Y9160D01*
X44562Y9411D02*
Y9746D01*
Y9579D02*
X45065D01*
X10630Y13690D02*
X11049D01*
G02X11132Y13606I0J84D01*
G01Y13439D01*
G02X11049Y13355I84J0D01*
G01X10630D01*
X10714Y13857D02*
G02X10630Y13941I0J84D01*
G01Y14109D01*
G02X10714Y14192I84J0D01*
G01X10797D01*
G02X10881Y14109I0J84D01*
G01Y13941D01*
X10965Y13857D02*
G02X10881Y13941I0J84D01*
G01X10965Y13857D02*
X11132D01*
Y14192D01*
X10630Y14862D02*
Y15197D01*
X11132Y14946D01*
Y15700D02*
X10630D01*
Y15365D02*
X10881D01*
Y15700D01*
X10630Y15867D02*
X11132D01*
Y16202D01*
X10881Y16621D02*
G02X10965Y16705I84J0D01*
G01X11049D01*
G02X11132Y16621I0J84D01*
G01Y16454D01*
G02X11049Y16370I84J0D01*
G01X10881Y16621D02*
Y16454D01*
G02X10797Y16370I84J0D01*
G01X10714D01*
G02X10630Y16454I0J84D01*
G01Y16621D01*
G02X10714Y16705I84J0D01*
G01X11049Y16872D02*
X10714D01*
G02X10630Y16956I0J84D01*
G01Y17124D01*
G02X10714Y17207I84J0D01*
G01X11049D01*
G02X11132Y17124I0J84D01*
G01Y16956D01*
G02X11049Y16872I84J0D01*
G01X10714Y17207D01*
X10630Y17375D02*
Y17710D01*
X11132Y17459D01*
X22176Y18357D02*
Y18273D01*
G02X22092Y18189I84J0D01*
G01X22008D01*
G02X21925Y18273I0J84D01*
G01Y18357D01*
Y18494D02*
X22176D01*
Y18662D01*
X21925Y18800D02*
X22176D01*
Y18967D02*
X22050Y18862D01*
X21925Y18967D01*
X22259Y6372D02*
Y6414D01*
X22363D01*
Y6330D01*
G02X22280Y6246I84J0D01*
G01X22196D01*
G02X22112Y6330I0J84D01*
G01Y6414D01*
X22363Y6551D02*
X22112D01*
X22363Y6719D01*
X22112D01*
Y6856D02*
Y6940D01*
G02X22196Y7024I84J0D01*
G01X22280D01*
G02X22363Y6940I0J84D01*
G01Y6856D01*
X22112D01*
X22257Y434D02*
Y475D01*
X22362D01*
Y392D01*
G02X22278Y308I84J0D01*
G01X22194D01*
G02X22110Y392I0J84D01*
G01Y475D01*
X22362Y613D02*
X22110D01*
X22362Y781D01*
X22110D01*
Y918D02*
Y1002D01*
G02X22194Y1086I84J0D01*
G01X22278D01*
G02X22362Y1002I0J84D01*
G01Y918D01*
X22110D01*
X30500Y359D02*
Y443D01*
X30501Y457D01*
X30503Y470D01*
X30508Y483D01*
X30514Y495D01*
X30521Y505D01*
X30529Y514D01*
X30538Y520D01*
X30548Y524D01*
X30563Y527D01*
X30573Y525D01*
X30583Y522D01*
X30593Y516D01*
X30602Y508D01*
X30609Y499D01*
X30616Y488D01*
X30621Y475D01*
X30624Y462D01*
X30626Y443D01*
X30627Y457D01*
X30629Y470D01*
X30633Y483D01*
X30639Y495D01*
X30646Y505D01*
X30655Y514D01*
X30664Y520D01*
X30674Y524D01*
X30688Y527D01*
X30699Y525D01*
X30709Y522D01*
X30719Y516D01*
X30727Y508D01*
X30735Y499D01*
X30741Y488D01*
X30746Y475D01*
X30750Y462D01*
X30751Y443D01*
Y359D01*
X30500Y832D02*
X30751Y748D01*
X30500Y664D01*
Y969D02*
Y1053D01*
X30501Y1067D01*
X30503Y1081D01*
X30508Y1093D01*
X30514Y1105D01*
X30521Y1115D01*
X30529Y1124D01*
X30538Y1130D01*
X30548Y1135D01*
X30563Y1137D01*
X30573Y1136D01*
X30583Y1132D01*
X30593Y1126D01*
X30602Y1119D01*
X30609Y1109D01*
X30616Y1098D01*
X30621Y1085D01*
X30624Y1072D01*
X30626Y1053D01*
X30627Y1067D01*
X30629Y1081D01*
X30633Y1093D01*
X30639Y1105D01*
X30646Y1115D01*
X30655Y1124D01*
X30664Y1130D01*
X30674Y1135D01*
X30688Y1137D01*
X30699Y1136D01*
X30709Y1132D01*
X30719Y1126D01*
X30727Y1119D01*
X30735Y1109D01*
X30741Y1098D01*
X30746Y1085D01*
X30750Y1072D01*
X30751Y1053D01*
Y969D01*
X30773Y13412D02*
Y13454D01*
X30878D01*
Y13370D01*
G02X30794Y13286I84J0D01*
G01X30710D01*
G02X30626Y13370I0J84D01*
G01Y13454D01*
X30878Y13591D02*
X30626D01*
X30878Y13759D01*
X30626D01*
Y13897D02*
Y13980D01*
G02X30710Y14064I84J0D01*
G01X30794D01*
G02X30878Y13980I0J84D01*
G01Y13897D01*
X30626D01*
X30836Y17453D02*
Y17369D01*
G02X30753Y17285I84J0D01*
G01X30669D01*
G02X30585Y17369I0J84D01*
G01Y17453D01*
X30836Y17590D02*
X30585D01*
Y17603D01*
X30669Y17674D01*
X30585Y17745D01*
Y17758D01*
X30836D01*
X30585Y17896D02*
Y17979D01*
G02X30669Y18063I84J0D01*
G01X30753D01*
G02X30836Y17979I0J84D01*
G01Y17896D01*
X30585D01*
D14*
X31022Y24658D02*
X30980D01*
X30962Y24664D01*
X30944Y24682D01*
X30914Y24718D01*
X30908D01*
X30896Y24724D01*
X30890Y24718D01*
X30652D01*
X30646Y24724D01*
X30568D01*
X30562Y24730D01*
X30496D01*
X30490Y24736D01*
X30443D01*
X30401Y24748D01*
X30371D01*
X30335Y24760D01*
X30311D01*
X30281Y24772D01*
X30257D01*
X30233Y24778D01*
X30216Y24790D01*
X30198Y24802D01*
X30168Y24808D01*
X30138Y24826D01*
X30126D01*
X30108Y24837D01*
X30090D01*
X30024Y24873D01*
X30013D01*
X30001Y24879D01*
X29989Y24891D01*
X29959Y24903D01*
X29941Y24921D01*
X29923Y24927D01*
X29893Y24957D01*
X29833Y25011D01*
Y25017D01*
X29809Y25035D01*
Y25041D01*
X29786Y25058D01*
X29762Y25082D01*
X29750Y25106D01*
X29726Y25130D01*
X29720Y25148D01*
X29696Y25172D01*
X29672Y25208D01*
Y25232D01*
X29666Y25244D01*
X29654Y25256D01*
X29642Y25273D01*
Y25291D01*
X29618Y25333D01*
Y25345D01*
X29606Y25381D01*
X29594Y25405D01*
X29582Y25435D01*
Y25465D01*
X29571Y25483D01*
X29565D01*
Y25512D01*
X29553Y25542D01*
Y25566D01*
X29541Y25596D01*
X29582Y25614D02*
Y25578D01*
X29594Y25554D01*
Y25512D01*
X29606Y25488D01*
Y25471D01*
X29624Y25417D01*
Y25393D01*
X29630Y25381D01*
X29642Y25369D01*
Y25351D01*
X29660Y25321D01*
Y25309D01*
X29672Y25297D01*
Y25279D01*
X29702Y25232D01*
Y25214D01*
X29738Y25160D01*
X29744D01*
X29750Y25148D01*
X29774Y25124D01*
X29786Y25106D01*
X29792D01*
X29815Y25076D01*
X29821D01*
X29827Y25064D01*
X29881Y25011D01*
X29905Y24981D01*
X29911D01*
X29941Y24951D01*
X29953D01*
X29959Y24939D01*
X29965D01*
X29983Y24921D01*
X30007Y24909D01*
X30018D01*
X30036Y24903D01*
X30048Y24891D01*
X30096Y24867D01*
X30108D01*
X30120Y24861D01*
X30132Y24849D01*
X30210Y24826D01*
X30216Y24820D01*
X30251D01*
X30293Y24808D01*
X30299Y24802D01*
X30323Y24796D01*
X30359D01*
X30383Y24784D01*
X30389Y24790D01*
X30401Y24796D01*
X30460D01*
X30466Y24802D01*
X30496D01*
X30502Y24808D01*
X30544D01*
X30574Y24820D01*
X30646D01*
X30652Y24826D01*
X30675D01*
X30681Y24832D01*
X30717D01*
X30723Y24837D01*
X30753D01*
X30759Y24843D01*
X30783D01*
X30789Y24849D01*
X30861D01*
X30902Y24873D01*
X30914D01*
X30956Y24885D01*
X30962Y24891D01*
X30974Y24897D01*
X30986D01*
X31034Y24921D01*
X31046D01*
X31088Y24945D01*
X31100D01*
X31135Y24957D01*
X31141Y24963D01*
X31159D01*
X31171Y24975D01*
X31219Y24987D01*
X31231Y24999D01*
X31267Y25017D01*
Y25023D01*
X31273Y25035D01*
X31261Y25064D01*
X31255Y25088D01*
Y25112D01*
X31249Y25118D01*
X31261Y25148D01*
X31273Y25160D01*
X31285Y25178D01*
Y25190D01*
X31297Y25232D01*
X31309Y25250D01*
X31320Y25267D01*
Y25285D01*
X31332Y25315D01*
X31344Y25327D01*
X31356Y25369D01*
Y25393D01*
X31338Y25417D01*
Y25429D01*
X31332Y25435D01*
Y25477D01*
X31344Y25500D01*
X31356Y25512D01*
X31368Y25524D01*
X31380D01*
X31422Y25536D01*
X31428Y25530D01*
X31446D01*
X31535Y25650D01*
X31547Y25680D01*
X31553Y25692D01*
X31571Y25709D01*
X31595Y25739D01*
X31607D01*
X31613Y25745D01*
Y25749D02*
Y25910D01*
Y25907D02*
X31583Y25930D01*
Y25936D01*
X31494Y26056D01*
X31488Y26074D01*
X31482Y26086D01*
X31470Y26098D01*
X31446Y26134D01*
X31392D01*
X31350Y26151D01*
Y26163D01*
X31332Y26193D01*
Y26223D01*
X31356Y26265D01*
Y26289D01*
X31350Y26295D01*
Y26319D01*
X31326Y26354D01*
X31320Y26384D01*
X31315Y26396D01*
X31303Y26408D01*
X31255Y26528D01*
Y26570D01*
X31267Y26611D01*
Y26641D01*
X31255Y26653D01*
X31213Y26671D01*
X31195D01*
X31183Y26683D01*
X31165Y26689D01*
X31141D01*
X31129Y26701D01*
X31100Y26707D01*
X31088Y26719D01*
X31034Y26737D01*
X31016Y26755D01*
X30986Y26761D01*
X30974Y26773D01*
X30938Y26785D01*
X30914D01*
X30902Y26790D01*
X30890Y26802D01*
X30867Y26808D01*
X30843D01*
X30813Y26820D01*
X30771D01*
X30765Y26826D01*
X30711D01*
X30705Y26832D01*
X30664D01*
X30634Y26844D01*
X30610D01*
X30604Y26850D01*
X30526D01*
X30520Y26856D01*
X30496D01*
X30490Y26862D01*
X30454D01*
X30431Y26874D01*
X30341D01*
X30299Y26856D01*
X30281D01*
X30275Y26850D01*
X30239D01*
X30210Y26838D01*
X30204Y26832D01*
X30150Y26820D01*
X30132Y26808D01*
X30120Y26802D01*
X30108D01*
X30084Y26785D01*
X30072D01*
X30048Y26773D01*
X30036Y26761D01*
X30024Y26755D01*
X30007D01*
X29995Y26737D01*
X29965Y26719D01*
X29905Y26671D01*
X29899D01*
X29881Y26647D01*
X29875D01*
X29839Y26617D01*
Y26611D01*
X29827Y26593D01*
X29821D01*
X29797Y26564D01*
X29786D01*
X29774Y26540D01*
X29762Y26528D01*
Y26516D01*
X29750Y26510D01*
Y26498D01*
X29708Y26444D01*
X29696Y26414D01*
X29684Y26384D01*
X29672Y26372D01*
X29660Y26331D01*
X29648Y26319D01*
X29624Y26259D01*
Y26241D01*
X29618Y26235D01*
Y26211D01*
X29606Y26181D01*
X29600Y26175D01*
X29594Y26151D01*
Y26116D01*
X29588Y26110D01*
Y26080D01*
X29582Y26074D01*
Y26038D01*
X29577Y26032D01*
X29541Y26062D02*
X29547Y26068D01*
Y26092D01*
X29565Y26145D01*
Y26187D01*
X29571Y26181D01*
X29582Y26211D01*
X29588Y26217D01*
X29594Y26235D01*
Y26253D01*
X29606Y26283D01*
X29612Y26289D01*
X29618Y26325D01*
X29636Y26354D01*
X29642Y26366D01*
Y26378D01*
X29654Y26402D01*
X29666Y26414D01*
X29672Y26426D01*
Y26438D01*
X29678Y26450D01*
X29702Y26474D01*
Y26492D01*
X29714Y26498D01*
Y26504D01*
X29726Y26516D01*
X29732Y26546D01*
X29762Y26575D01*
X29768Y26587D01*
X29774D01*
X29792Y26617D01*
X29803D01*
X29959Y26761D01*
X29965D01*
X29977Y26773D01*
X30001Y26779D01*
X30013Y26790D01*
X30024Y26796D01*
X30036D01*
X30126Y26838D01*
X30138D01*
X30150Y26850D01*
X30168Y26856D01*
X30186D01*
X30204Y26868D01*
X30228D01*
X30233Y26874D01*
X30281D01*
X30305Y26886D01*
X30329D01*
X30335Y26892D01*
X30365D01*
X30395Y26904D01*
X30431D01*
X30437Y26910D01*
X30466D01*
X30472Y26916D01*
X30532D01*
X30538Y26922D01*
X30610D01*
X30616Y26928D01*
X30908D01*
X30932Y26940D01*
X30944Y26964D01*
X30950Y26982D01*
X30956D01*
X30980Y27000D01*
X31022D01*
X31040Y26994D01*
X31064Y26970D01*
X31076Y26946D01*
Y26934D01*
X31082Y26928D01*
Y26904D01*
X31094Y26892D01*
X31153Y26874D01*
X31177D01*
X31225Y26856D01*
X31231Y26850D01*
X31344Y26808D01*
X31380D01*
X31386Y26802D01*
X31410D01*
X31416Y26796D01*
X31464D01*
X31488Y26808D01*
X31506D01*
X31535Y26826D01*
X31547D01*
X31565Y26838D01*
X31667D01*
X31673Y26832D01*
X31715D01*
X31721Y26826D01*
X31751D01*
X31804Y26808D01*
X31834D01*
X31876Y26796D01*
X31882Y26790D01*
X31894Y26785D01*
X31906D01*
X31918Y26773D01*
X31942D01*
X31983Y26749D01*
X31995D01*
X32001Y26737D01*
X32013Y26725D01*
X32037Y26707D01*
X32055D01*
X32091Y26677D01*
Y26671D01*
X32109Y26647D01*
X32115D01*
X32121Y26629D01*
X32133Y26611D01*
X32139Y26599D01*
Y26587D01*
X32151Y26558D01*
Y26343D01*
X32169Y26325D01*
X32216D01*
X32222Y26319D01*
X32246D01*
X32276Y26307D01*
X32306D01*
X32378Y26289D01*
X32413D01*
X32443Y26277D01*
X32461Y26259D01*
X32479Y26235D01*
X32539D01*
X32557Y26223D01*
X32575D01*
Y26217D01*
X32515D01*
X32503Y26205D01*
X32509Y26187D01*
X32515D01*
X32521Y26181D01*
X32623D01*
X32652Y26139D01*
X32646Y26134D01*
X32628Y26139D01*
X32623Y26134D01*
X32593Y26139D01*
X32587Y26134D01*
X32557Y26139D01*
X32545Y26128D01*
X32563Y26086D01*
X32611D01*
X32617Y26092D01*
X32611Y26098D01*
X32700D01*
X32742Y26056D01*
Y26008D01*
X32736Y26002D01*
X32730Y26008D01*
X32605D01*
X32593Y25990D01*
Y25966D01*
X32605Y25954D01*
X32628D01*
X32652Y25966D01*
X32688D01*
X32754Y25972D01*
X32766Y25966D01*
Y25960D01*
X32772Y25954D01*
Y25865D01*
X32766Y25847D01*
X32760D01*
X32754Y25841D01*
X32748Y25847D01*
X32646D01*
X32611Y25859D01*
X32605Y25865D01*
X32593Y25847D01*
Y25799D01*
X32605Y25787D01*
X32670Y25805D01*
X32760D01*
X32772Y25781D01*
Y25727D01*
X32766Y25721D01*
Y25698D01*
X32646D01*
X32628Y25703D01*
X32617Y25715D01*
X32599Y25709D01*
Y25703D01*
X32593Y25698D01*
Y25662D01*
X32617Y25644D01*
X32623Y25650D01*
X32736D01*
X32742Y25644D01*
Y25602D01*
X32736Y25590D01*
X32724Y25578D01*
X32706Y25566D01*
X32599D01*
X32593Y25572D01*
X32569D01*
X32557Y25566D01*
X32545Y25554D01*
X32551Y25530D01*
X32652D01*
X32646Y25512D01*
X32628Y25494D01*
X32623Y25483D01*
X32515D01*
X32503Y25471D01*
X32509Y25453D01*
X32581D01*
Y25435D01*
X32539Y25417D01*
X32521D01*
X32515Y25423D01*
X32509Y25417D01*
X32479D01*
X32443Y25375D01*
X32407D01*
X32402Y25369D01*
X32378D01*
X32324Y25351D01*
X32300D01*
X32294Y25345D01*
X32246D01*
X32240Y25339D01*
X32216D01*
X32192Y25327D01*
X32163D01*
X32151Y25315D01*
Y25112D01*
X32139Y25064D01*
X32127Y25052D01*
X32121Y25023D01*
X32109Y25011D01*
X32097Y24987D01*
X32073Y24963D01*
X32043Y24951D01*
X32025Y24933D01*
X32013Y24927D01*
X32001D01*
X31971Y24903D01*
X31942Y24897D01*
X31888Y24873D01*
X31876D01*
X31858Y24861D01*
X31822D01*
X31756Y24843D01*
X31751Y24837D01*
X31721D01*
X31715Y24832D01*
X31673D01*
X31667Y24826D01*
X31583D01*
X31524Y24843D01*
X31518Y24849D01*
X31470Y24867D01*
X31410D01*
X31404Y24861D01*
X31374D01*
X31315Y24843D01*
X31309Y24837D01*
X31291D01*
X31243Y24814D01*
X31231D01*
X31201Y24802D01*
X31183Y24784D01*
X31165Y24772D01*
X31141D01*
X31082Y24748D01*
Y24724D01*
X31070Y24694D01*
X31064D01*
X31052Y24670D01*
X31046D01*
X31022Y24658D01*
X31556Y25089D02*
X31626Y25039D01*
X31866Y25109D01*
X31946Y25209D01*
X31936Y25459D01*
X31776Y25709D01*
X31606Y25469D01*
X31556Y25099D01*
X31616Y25741D02*
X31766D01*
Y25911D01*
X31606D01*
X32160Y25668D02*
X32220D01*
X32230D02*
X32430Y25828D01*
X32240Y25988D01*
X32230D02*
X32160D01*
X32150Y25978D02*
X32096Y25918D01*
X32150Y25668D02*
X32096Y25738D01*
X31556Y26561D02*
X31626Y26611D01*
X31866Y26541D01*
X31946Y26441D01*
X31936Y26191D01*
X31776Y25941D01*
X31606Y26181D01*
X31556Y26551D01*
X32037Y25749D02*
X32025D01*
X31995Y25761D01*
X31971Y25784D01*
X31959Y25808D01*
Y25862D01*
X31977Y25880D01*
X31983Y25898D01*
X31995D01*
X32043Y25910D01*
X32031Y25749D02*
X32043D01*
X32073Y25761D01*
X32097Y25784D01*
X32109Y25808D01*
Y25862D01*
X32091Y25880D01*
X32085Y25898D01*
X32073D01*
X32025Y25910D01*
X31410Y25369D02*
X31398D01*
X31368Y25381D01*
X31344Y25404D01*
X31332Y25428D01*
Y25482D01*
X31350Y25500D01*
X31356Y25518D01*
X31368D01*
X31416Y25530D01*
X31405Y25369D02*
X31417D01*
X31446Y25381D01*
X31470Y25404D01*
X31482Y25428D01*
Y25482D01*
X31464Y25500D01*
X31458Y25518D01*
X31446D01*
X31399Y25530D01*
X31410Y26129D02*
X31398D01*
X31368Y26141D01*
X31344Y26164D01*
X31332Y26188D01*
Y26242D01*
X31350Y26260D01*
X31356Y26278D01*
X31368D01*
X31416Y26290D01*
X31405Y26129D02*
X31417D01*
X31446Y26141D01*
X31470Y26164D01*
X31482Y26188D01*
Y26242D01*
X31464Y26260D01*
X31458Y26278D01*
X31446D01*
X31399Y26290D01*
X31008Y24649D02*
X30996D01*
X30966Y24661D01*
X30943Y24684D01*
X30931Y24708D01*
Y24762D01*
X30949Y24780D01*
X30955Y24798D01*
X30966D01*
X31014Y24810D01*
X31003Y24649D02*
X31015D01*
X31045Y24661D01*
X31069Y24684D01*
X31081Y24708D01*
Y24762D01*
X31063Y24780D01*
X31057Y24798D01*
X31045D01*
X30997Y24810D01*
X31010Y26849D02*
X30998D01*
X30968Y26861D01*
X30944Y26884D01*
X30932Y26908D01*
Y26962D01*
X30950Y26980D01*
X30956Y26998D01*
X30968D01*
X31016Y27010D01*
X31005Y26849D02*
X31017D01*
X31046Y26861D01*
X31070Y26884D01*
X31082Y26908D01*
Y26962D01*
X31064Y26980D01*
X31058Y26998D01*
X31046D01*
X30999Y27010D01*
X29540Y25599D02*
X29528D01*
X29498Y25611D01*
X29474Y25634D01*
X29462Y25658D01*
Y25712D01*
X29480Y25730D01*
X29486Y25748D01*
X29498D01*
X29546Y25760D01*
X29535Y25599D02*
X29547D01*
X29576Y25611D01*
X29600Y25634D01*
X29612Y25658D01*
Y25712D01*
X29594Y25730D01*
X29588Y25748D01*
X29576D01*
X29529Y25760D01*
X29542Y25879D02*
X29530D01*
X29500Y25891D01*
X29476Y25914D01*
X29464Y25938D01*
Y25992D01*
X29482Y26010D01*
X29488Y26028D01*
X29500D01*
X29548Y26040D01*
X29536Y25879D02*
X29548D01*
X29578Y25891D01*
X29602Y25914D01*
X29614Y25938D01*
Y25992D01*
X29596Y26010D01*
X29590Y26028D01*
X29578D01*
X29530Y26040D01*
X34943Y22187D02*
Y23500D01*
X35753Y22844D02*
X36565D01*
X36019Y23844D02*
Y22219D01*
X36455Y22562D02*
Y24031D01*
X36213Y23937D02*
X36588D01*
X34753Y23383D02*
X36628D01*
X34753Y22312D02*
X36190D01*
X34565Y22844D02*
X34753D01*
X35494Y23594D02*
Y23750D01*
X35488Y22094D02*
Y21812D01*
X35346Y21899D02*
X35628D01*
G75*
X35238Y22844D02*
G02X35738I250J0D01*
G01X35739Y22839D02*
G02X35239I-250J0D01*
G01X42250Y19951D02*
Y20206D01*
G74*
G02X42335Y20291I85J0D01*
G01X42420D01*
G02X42505Y20206I0J85D01*
G01Y19951D01*
Y20206D02*
G02X42590Y20291I85J0D01*
G01X42675D01*
G02X42760Y20206I0J85D01*
G01Y19951D01*
X42250D01*
Y20801D02*
X42675D01*
G02X42760Y20716I0J85D01*
G01Y20546D01*
G02X42675Y20461I85J0D01*
G01X42250D01*
Y20971D02*
Y21311D01*
Y21141D02*
X42760D01*
Y21481D02*
X42250D01*
X42760Y21821D01*
X42250D01*
X42760Y22501D02*
X42335D01*
G02X42250Y22586I0J85D01*
G01Y22756D01*
G02X42335Y22841I85J0D01*
G01X42760D01*
X42505Y22501D02*
Y22841D01*
X42264Y23849D02*
Y24104D01*
G02X42349Y24189I85J0D01*
G01X42434D01*
G02X42519Y24104I0J85D01*
G01Y23849D01*
Y24104D02*
G02X42604Y24189I85J0D01*
G01X42689D01*
G02X42774Y24104I0J85D01*
G01Y23849D01*
X42264D01*
Y24699D02*
X42689D01*
G02X42774Y24614I0J85D01*
G01Y24444D01*
G02X42689Y24359I85J0D01*
G01X42264D01*
Y24869D02*
Y25209D01*
Y25039D02*
X42774D01*
Y25379D02*
X42264D01*
X42774Y25719D01*
X42264D01*
Y26399D02*
Y26654D01*
G02X42349Y26739I85J0D01*
G01X42434D01*
G02X42519Y26654I0J85D01*
G01Y26399D01*
Y26654D02*
G02X42604Y26739I85J0D01*
G01X42689D01*
G02X42774Y26654I0J85D01*
G01Y26399D01*
X42264D01*
X3184Y21357D02*
X3694D01*
X3184D02*
Y21612D01*
G02X3269Y21697I85J0D01*
G01X3354D01*
G02X3439Y21612I0J85D01*
G01Y21357D01*
Y21442D02*
X3694Y21697D01*
X3184Y22207D02*
Y21867D01*
X3694D01*
Y22207D01*
X3439Y21867D02*
Y22122D01*
Y22632D02*
G02X3524Y22717I85J0D01*
G01X3609D01*
G02X3694Y22632I0J85D01*
G01Y22462D01*
G02X3609Y22377I85J0D01*
G01X3439Y22632D02*
Y22462D01*
G02X3354Y22377I85J0D01*
G01X3269D01*
G02X3184Y22462I0J85D01*
G01Y22632D01*
G02X3269Y22717I85J0D01*
G01X3184Y23227D02*
Y22887D01*
X3694D01*
Y23227D01*
X3439Y22887D02*
Y23142D01*
X3184Y23397D02*
Y23737D01*
Y23567D02*
X3694D01*
X2390Y25418D02*
Y24908D01*
Y25418D02*
X2645D01*
G02X2730Y25333I0J85D01*
G01Y25248D01*
G02X2645Y25163I85J0D01*
G01X2390D01*
X2900Y24993D02*
Y25333D01*
G02X2985Y25418I85J0D01*
G01X3155D01*
G02X3240Y25333I0J85D01*
G01Y24993D01*
G02X3155Y24908I85J0D01*
G01X2985D01*
G02X2900Y24993I0J85D01*
G01X3750Y25418D02*
Y24993D01*
G02X3665Y24908I85J0D01*
X3580Y24993I0J85D01*
G01Y25163D01*
Y24993D01*
G02X3495Y24908I85J0D01*
X3410Y24993I0J85D01*
G01Y25418D01*
X4260D02*
X3920D01*
Y24908D01*
X4260D01*
X3920Y25163D02*
X4175D01*
X4430Y25418D02*
Y24908D01*
Y25418D02*
X4685D01*
G02X4770Y25333I0J85D01*
G01Y25248D01*
G02X4685Y25163I85J0D01*
G01X4430D01*
X4515D02*
X4770Y24908D01*
X13902Y24593D02*
G02X13817Y24678I0J85D01*
G01Y24848D01*
G02X13902Y24933I85J0D01*
G01X13987D01*
G02X14072Y24848I0J85D01*
G01Y24763D01*
Y24848D02*
G02X14157Y24933I85J0D01*
G01X14242D01*
G02X14327Y24848I0J85D01*
G01Y24678D01*
G02X14242Y24593I85J0D01*
G01X14284Y25231D02*
G02X14242Y25273I0J43D01*
X14284Y25316I43J0D01*
G01X14295Y25314D01*
X14306Y25310D01*
X14315Y25303D01*
X14321Y25294D01*
X14326Y25284D01*
X14327Y25273D01*
X14326Y25262D01*
X14321Y25252D01*
X14315Y25243D01*
X14306Y25236D01*
X14295Y25232D01*
X14284Y25231D01*
X14263Y25273D02*
X14306D01*
X13902Y25613D02*
G02X13817Y25698I0J85D01*
G01Y25868D01*
G02X13902Y25953I85J0D01*
G01X13987D01*
G02X14072Y25868I0J85D01*
G01Y25783D01*
Y25868D02*
G02X14157Y25953I85J0D01*
G01X14242D01*
G02X14327Y25868I0J85D01*
G01Y25698D01*
G02X14242Y25613I85J0D01*
G01X13817Y26123D02*
X14327Y26293D01*
X13817Y26463D01*
X38374Y19087D02*
Y19342D01*
G02X38459Y19427I85J0D01*
G01X38544D01*
G02X38629Y19342I0J85D01*
G01Y19087D01*
Y19342D02*
G02X38714Y19427I85J0D01*
G01X38799D01*
G02X38884Y19342I0J85D01*
G01Y19087D01*
X38374D01*
X38799Y19597D02*
X38459D01*
G02X38374Y19682I0J85D01*
G01Y19852D01*
G02X38459Y19937I85J0D01*
G01X38799D01*
G02X38884Y19852I0J85D01*
G01Y19682D01*
G02X38799Y19597I85J0D01*
G01X38884Y20107D02*
X38459D01*
G02X38374Y20192I0J85D01*
G01Y20362D01*
G02X38459Y20447I85J0D01*
G01X38884D01*
X38629Y20107D02*
Y20447D01*
X38374Y20617D02*
X38884D01*
X38374D02*
Y20872D01*
G02X38459Y20957I85J0D01*
G01X38544D01*
G02X38629Y20872I0J85D01*
G01Y20617D01*
Y20702D02*
X38884Y20957D01*
X38374Y21127D02*
Y21382D01*
G02X38459Y21467I85J0D01*
G01X38799D01*
G02X38884Y21382I0J85D01*
G01Y21127D01*
X38374D01*
Y22147D02*
X38884D01*
X38374D02*
Y22402D01*
G02X38459Y22487I85J0D01*
G01X38544D01*
G02X38629Y22402I0J85D01*
G01Y22147D01*
Y22232D02*
X38884Y22487D01*
X38374Y22997D02*
Y22657D01*
X38884D01*
Y22997D01*
X38629Y22657D02*
Y22912D01*
X38374Y23167D02*
X38884Y23337D01*
X38374Y23507D01*
Y24187D02*
X38884Y24357D01*
X38374Y24527D01*
X38459Y24782D02*
X38374Y24867D01*
X38884D01*
Y24782D02*
Y24952D01*
X38841Y25334D02*
G02X38799Y25377I0J43D01*
X38841Y25419I43J0D01*
G01X38852Y25418D01*
X38862Y25414D01*
X38871Y25407D01*
X38878Y25398D01*
X38882Y25388D01*
X38884Y25377D01*
X38882Y25366D01*
X38878Y25355D01*
X38871Y25347D01*
X38862Y25340D01*
X38852Y25336D01*
X38841Y25334D01*
X38820Y25377D02*
X38862D01*
X38714Y25717D02*
G02X38629Y25802I0J85D01*
G01Y25972D01*
G02X38714Y26057I85J0D01*
G01X38799D01*
G02X38884Y25972I0J85D01*
G01Y25802D01*
G02X38799Y25717I85J0D01*
G01X38459D01*
G02X38374Y25802I0J85D01*
G01Y25972D01*
G02X38459Y26057I85J0D01*
D15*
G01X22565Y24410D02*
X22865Y24610D01*
X22565Y25210D02*
X22865Y25010D01*
Y24610D01*
X24065D02*
Y25010D01*
X24365Y25210D02*
X24065Y25010D01*
X24365Y24410D02*
X24065Y24610D01*
X21469Y20043D02*
X21044D01*
Y19406D01*
X21469D01*
X21044Y19725D02*
X21363D01*
X22001D02*
G02X22107Y19618I0J106D01*
G01Y19512D01*
G02X22001Y19406I106J0D01*
G01X21788D01*
G02X21682Y19512I0J106D01*
G01X22001Y19725D02*
X21788D01*
G02X21682Y19831I0J106D01*
G01Y19937D01*
G02X21788Y20043I106J0D01*
G01X22001D01*
G02X22107Y19937I0J106D01*
G01X22319Y20043D02*
Y19406D01*
Y20043D02*
X22638D01*
G02X22744Y19937I0J106D01*
G01Y19831D01*
G02X22638Y19725I106J0D01*
G01X22319D01*
X22957Y19937D02*
G02X23063Y20043I106J0D01*
G01X23276D01*
G02X23382Y19937I0J106D01*
G01Y19831D01*
G02X23276Y19725I106J0D01*
G01X23169D01*
X23276D02*
G02X23382Y19618I0J106D01*
G01Y19512D01*
G02X23276Y19406I106J0D01*
G01X23063D01*
G02X22957Y19512I0J106D01*
G01X23594Y19937D02*
G02X23701Y20043I106J0D01*
G01X23913D01*
G02X24019Y19937I0J106D01*
G01Y19831D01*
G02X23913Y19725I106J0D01*
G01X23701D01*
X23594Y19618D02*
G02X23701Y19725I106J0D01*
G01X23594Y19618D02*
Y19406D01*
X24019D01*
X24232Y19725D02*
X24657D01*
X25294Y20043D02*
Y19512D01*
G02X25188Y19406I106J0D01*
X25082Y19512I0J106D01*
G01Y19725D01*
Y19512D01*
G02X24976Y19406I106J0D01*
X24869Y19512I0J106D01*
G01Y20043D01*
X25507D02*
Y19406D01*
Y20043D02*
X25826D01*
G02X25932Y19937I0J106D01*
G01Y19831D01*
G02X25826Y19725I106J0D01*
G01X25507D01*
X25613D02*
X25932Y19406D01*
X26144Y19512D02*
Y19937D01*
G02X26251Y20043I106J0D01*
G01X26463D01*
G02X26569Y19937I0J106D01*
G01Y19512D01*
G02X26463Y19406I106J0D01*
G01X26251D01*
G02X26144Y19512I0J106D01*
G01X26782Y20043D02*
X26994Y19406D01*
X27207Y20043D01*
X27844D02*
X27419D01*
Y19406D01*
X27844D01*
X27419Y19725D02*
X27738D01*
X28057Y20043D02*
Y19406D01*
Y20043D02*
X28376D01*
G02X28482Y19937I0J106D01*
G01Y19831D01*
G02X28376Y19725I106J0D01*
G01X28057D01*
X28163D02*
X28482Y19406D01*
X28694Y19725D02*
X29119D01*
X29757Y20043D02*
X29332D01*
Y19406D01*
X29757D01*
X29332Y19725D02*
X29651D01*
X29969Y19406D02*
X30394Y20043D01*
X30713D02*
X30926D01*
X30819D02*
Y19406D01*
X30713D02*
X30926D01*
X31669Y20043D02*
X31244D01*
Y19406D01*
X31669D01*
X31244Y19725D02*
X31563D01*
X41012Y21997D02*
Y21891D01*
G02X40906Y21784I106J0D01*
G01X40800D01*
G02X40694Y21891I0J106D01*
G01Y21997D01*
X41012Y22384D02*
Y22278D01*
G02X40906Y22171I106J0D01*
G01X40800D01*
G02X40694Y22278I0J106D01*
G01Y22384D01*
X22146Y17362D02*
Y17468D01*
G02X22252Y17574I106J0D01*
G01X22359D01*
G02X22465Y17468I0J106D01*
G01Y17362D01*
X22146D01*
X22252Y17749D02*
G02X22146Y17855I0J106D01*
X22252Y17961I106J0D01*
G01X22359D01*
G02X22465Y17855I0J106D01*
X22359Y17749I106J0D01*
G01X22252D01*
X22133Y16362D02*
Y16468D01*
G02X22239Y16574I106J0D01*
G01X22346D01*
G02X22452Y16468I0J106D01*
G01Y16362D01*
X22133D01*
X22239Y16749D02*
X22133Y16855D01*
X22452D01*
Y16749D02*
Y16961D01*
X22252Y15336D02*
X22146Y15442D01*
X22465D01*
Y15336D02*
Y15548D01*
X22306Y15829D02*
Y15843D01*
X22308Y15857D01*
X22312Y15871D01*
X22317Y15884D01*
X22323Y15895D01*
X22330Y15906D01*
X22339Y15915D01*
X22348Y15923D01*
X22358Y15928D01*
X22368Y15933D01*
X22385Y15935D01*
X22396Y15934D01*
X22407Y15931D01*
X22417Y15926D01*
X22426Y15920D01*
X22435Y15912D01*
X22443Y15902D01*
X22450Y15891D01*
X22456Y15879D01*
X22460Y15866D01*
X22463Y15852D01*
X22465Y15829D01*
Y15723D01*
X22306Y15829D02*
Y15723D01*
X22252D01*
X22146D01*
Y15935D01*
X22239Y14528D02*
G02X22133Y14634I0J106D01*
X22239Y14740I106J0D01*
G01X22452Y14528D01*
Y14740D01*
X22239Y13515D02*
G02X22133Y13621I0J106D01*
X22239Y13727I106J0D01*
G01X22346D01*
G02X22452Y13621I0J106D01*
X22346Y13515I106J0D01*
G01X22239D01*
X22159Y12754D02*
X22478D01*
X22319D02*
Y12541D01*
X22159D01*
X22293Y11364D02*
X22187Y11471D01*
X22505D01*
Y11364D02*
Y11577D01*
X22346Y11751D02*
Y11858D01*
X22347Y11872D01*
X22349Y11886D01*
X22353Y11899D01*
X22357Y11912D01*
X22364Y11924D01*
X22371Y11935D01*
X22379Y11944D01*
X22388Y11951D01*
X22398Y11957D01*
X22408Y11961D01*
X22426Y11964D01*
X22437Y11963D01*
X22447Y11960D01*
X22457Y11955D01*
X22467Y11949D01*
X22476Y11940D01*
X22484Y11931D01*
X22490Y11920D01*
X22496Y11908D01*
X22501Y11894D01*
X22504Y11881D01*
X22505Y11858D01*
Y11843D01*
X22503Y11829D01*
X22499Y11816D01*
X22494Y11803D01*
X22488Y11791D01*
X22481Y11781D01*
X22472Y11771D01*
X22463Y11764D01*
X22453Y11758D01*
X22443Y11754D01*
X22426Y11751D01*
X22293D01*
X22266D02*
X22256Y11752D01*
X22245Y11755D01*
X22235Y11760D01*
X22225Y11766D01*
X22217Y11775D01*
X22209Y11784D01*
X22202Y11795D01*
X22196Y11808D01*
X22192Y11821D01*
X22189Y11834D01*
X22187Y11858D01*
Y11937D01*
X22267Y10349D02*
X22161Y10455D01*
X22479D01*
Y10349D02*
Y10561D01*
X22161Y10736D02*
Y10948D01*
X22479Y10842D01*
X22333Y9674D02*
X22334Y9689D01*
X22336Y9703D01*
X22339Y9716D01*
X22344Y9729D01*
X22351Y9741D01*
X22358Y9751D01*
X22366Y9761D01*
X22375Y9768D01*
X22385Y9774D01*
X22395Y9778D01*
X22413Y9781D01*
X22423Y9780D01*
X22434Y9777D01*
X22444Y9772D01*
X22454Y9765D01*
X22463Y9757D01*
X22470Y9748D01*
X22477Y9737D01*
X22483Y9724D01*
X22487Y9711D01*
X22491Y9697D01*
X22492Y9674D01*
Y9568D01*
X22333Y9674D02*
Y9568D01*
X22280D01*
X22174D01*
Y9781D01*
X22280Y8325D02*
X22174Y8431D01*
X22492D01*
Y8325D02*
Y8538D01*
X22333Y8818D02*
X22334Y8833D01*
X22336Y8847D01*
X22339Y8860D01*
X22344Y8873D01*
X22351Y8885D01*
X22358Y8895D01*
X22366Y8905D01*
X22375Y8912D01*
X22385Y8918D01*
X22395Y8922D01*
X22413Y8925D01*
X22423Y8924D01*
X22434Y8921D01*
X22444Y8916D01*
X22454Y8910D01*
X22463Y8901D01*
X22470Y8892D01*
X22477Y8881D01*
X22483Y8868D01*
X22487Y8855D01*
X22491Y8842D01*
X22492Y8818D01*
Y8804D01*
X22490Y8790D01*
X22486Y8777D01*
X22481Y8764D01*
X22475Y8752D01*
X22468Y8741D01*
X22459Y8732D01*
X22450Y8725D01*
X22440Y8719D01*
X22430Y8715D01*
X22413Y8712D01*
X22402Y8713D01*
X22391Y8716D01*
X22381Y8721D01*
X22372Y8727D01*
X22363Y8736D01*
X22355Y8745D01*
X22348Y8756D01*
X22342Y8768D01*
X22338Y8782D01*
X22335Y8795D01*
X22333Y8818D01*
X22174D02*
Y8833D01*
X22177Y8847D01*
X22180Y8860D01*
X22185Y8873D01*
X22191Y8885D01*
X22198Y8895D01*
X22207Y8905D01*
X22216Y8912D01*
X22226Y8918D01*
X22236Y8922D01*
X22253Y8925D01*
X22264Y8924D01*
X22275Y8921D01*
X22285Y8916D01*
X22294Y8910D01*
X22303Y8901D01*
X22311Y8892D01*
X22318Y8881D01*
X22324Y8868D01*
X22328Y8855D01*
X22331Y8842D01*
X22333Y8818D01*
X22332Y8804D01*
X22330Y8790D01*
X22327Y8777D01*
X22322Y8764D01*
X22316Y8752D01*
X22308Y8741D01*
X22300Y8732D01*
X22291Y8725D01*
X22281Y8719D01*
X22271Y8715D01*
X22253Y8712D01*
X22243Y8713D01*
X22232Y8716D01*
X22222Y8721D01*
X22212Y8727D01*
X22204Y8736D01*
X22196Y8745D01*
X22189Y8756D01*
X22183Y8768D01*
X22179Y8782D01*
X22176Y8795D01*
X22174Y8818D01*
X22267Y7351D02*
X22161Y7457D01*
X22479D01*
Y7351D02*
Y7564D01*
X22161Y7845D02*
Y7859D01*
X22164Y7873D01*
X22167Y7886D01*
X22172Y7899D01*
X22178Y7911D01*
X22185Y7922D01*
X22194Y7931D01*
X22203Y7938D01*
X22213Y7944D01*
X22223Y7948D01*
X22240Y7951D01*
X22251Y7950D01*
X22262Y7947D01*
X22272Y7942D01*
X22281Y7936D01*
X22290Y7927D01*
X22298Y7918D01*
X22305Y7907D01*
X22311Y7895D01*
X22315Y7881D01*
X22318Y7868D01*
X22320Y7845D01*
X22319Y7830D01*
X22317Y7816D01*
X22314Y7803D01*
X22309Y7790D01*
X22302Y7778D01*
X22295Y7768D01*
X22287Y7758D01*
X22278Y7751D01*
X22268Y7745D01*
X22258Y7741D01*
X22240Y7738D01*
X22230Y7739D01*
X22219Y7742D01*
X22209Y7747D01*
X22199Y7753D01*
X22190Y7762D01*
X22183Y7771D01*
X22176Y7782D01*
X22170Y7795D01*
X22166Y7808D01*
X22163Y7821D01*
X22161Y7845D01*
X22240Y7951D02*
X22479D01*
X22228Y5323D02*
G02X22121Y5429I0J106D01*
X22228Y5535I106J0D01*
G01X22440Y5323D01*
Y5535D01*
X22228Y5710D02*
X22121Y5816D01*
X22440D01*
Y5710D02*
Y5922D01*
X22466Y4338D02*
X22148D01*
Y4444D01*
Y4459D01*
X22150Y4473D01*
X22154Y4486D01*
X22159Y4499D01*
X22165Y4511D01*
X22172Y4521D01*
X22181Y4531D01*
X22190Y4538D01*
X22200Y4544D01*
X22210Y4548D01*
X22227Y4551D01*
X22238Y4550D01*
X22249Y4547D01*
X22259Y4542D01*
X22268Y4536D01*
X22277Y4527D01*
X22285Y4518D01*
X22292Y4507D01*
X22298Y4494D01*
X22302Y4481D01*
X22305Y4468D01*
X22307Y4444D01*
Y4338D01*
Y4418D02*
X22466Y4551D01*
X22148Y4725D02*
X22466Y4938D01*
X22148D02*
X22466Y4725D01*
X22148Y3325D02*
Y3538D01*
Y3431D02*
X22466D01*
X22148Y3712D02*
X22466Y3925D01*
X22148D02*
X22466Y3712D01*
X22254Y2338D02*
G02X22148Y2444I0J106D01*
X22254Y2551I106J0D01*
G01X22466Y2338D01*
Y2551D01*
X22254Y2725D02*
G02X22148Y2831I0J106D01*
X22254Y2938I106J0D01*
G01X22466Y2725D01*
Y2938D01*
X22246Y1346D02*
G02X22140Y1452I0J106D01*
X22246Y1558I106J0D01*
G01X22459Y1346D01*
Y1558D01*
X22140Y1733D02*
Y1839D01*
X22141Y1854D01*
X22143Y1868D01*
X22146Y1881D01*
X22151Y1894D01*
X22157Y1906D01*
X22165Y1916D01*
X22173Y1925D01*
X22182Y1933D01*
X22192Y1939D01*
X22202Y1943D01*
X22220Y1946D01*
X22230Y1945D01*
X22241Y1942D01*
X22251Y1937D01*
X22261Y1930D01*
X22269Y1922D01*
X22277Y1912D01*
X22284Y1901D01*
X22290Y1889D01*
X22294Y1876D01*
X22297Y1862D01*
X22299Y1839D01*
X22300Y1854D01*
X22302Y1868D01*
X22306Y1881D01*
X22311Y1894D01*
X22317Y1906D01*
X22324Y1916D01*
X22332Y1925D01*
X22342Y1933D01*
X22351Y1939D01*
X22362Y1943D01*
X22379Y1946D01*
X22390Y1945D01*
X22400Y1942D01*
X22410Y1937D01*
X22420Y1930D01*
X22429Y1922D01*
X22437Y1912D01*
X22444Y1901D01*
X22449Y1889D01*
X22454Y1876D01*
X22457Y1862D01*
X22459Y1839D01*
Y1733D01*
X30819Y1591D02*
Y1379D01*
X30500D01*
Y1591D01*
X30659Y1379D02*
Y1538D01*
X30819Y1766D02*
X30500D01*
X30819Y1979D01*
X30500D01*
Y2604D02*
X30819Y2497D01*
X30500Y2391D01*
X30819Y2778D02*
X30500D01*
Y2884D01*
X30501Y2899D01*
X30503Y2913D01*
X30506Y2926D01*
X30511Y2939D01*
X30518Y2951D01*
X30525Y2961D01*
X30533Y2971D01*
X30542Y2978D01*
X30552Y2984D01*
X30562Y2988D01*
X30580Y2991D01*
X30590Y2990D01*
X30601Y2987D01*
X30611Y2982D01*
X30621Y2975D01*
X30630Y2967D01*
X30637Y2958D01*
X30644Y2947D01*
X30650Y2934D01*
X30654Y2921D01*
X30657Y2907D01*
X30659Y2884D01*
Y2778D01*
X30500Y3568D02*
X30819Y3462D01*
X30500Y3356D01*
X30819Y3743D02*
X30500D01*
X30819Y3955D01*
X30500D01*
Y4346D02*
Y4452D01*
X30501Y4466D01*
X30503Y4480D01*
X30506Y4494D01*
X30511Y4506D01*
X30518Y4518D01*
X30525Y4529D01*
X30533Y4538D01*
X30542Y4546D01*
X30552Y4551D01*
X30562Y4555D01*
X30580Y4558D01*
X30590Y4557D01*
X30601Y4554D01*
X30611Y4549D01*
X30621Y4543D01*
X30630Y4535D01*
X30637Y4525D01*
X30644Y4514D01*
X30650Y4502D01*
X30654Y4489D01*
X30657Y4475D01*
X30659Y4452D01*
X30660Y4466D01*
X30662Y4480D01*
X30666Y4494D01*
X30671Y4506D01*
X30677Y4518D01*
X30684Y4529D01*
X30692Y4538D01*
X30702Y4546D01*
X30711Y4551D01*
X30722Y4555D01*
X30739Y4558D01*
X30750Y4557D01*
X30760Y4554D01*
X30770Y4549D01*
X30780Y4543D01*
X30789Y4535D01*
X30797Y4525D01*
X30804Y4514D01*
X30809Y4502D01*
X30814Y4489D01*
X30817Y4475D01*
X30819Y4452D01*
Y4346D01*
X30500Y4945D02*
X30819D01*
X30659D02*
Y4733D01*
X30500D01*
Y5344D02*
Y5450D01*
X30501Y5464D01*
X30503Y5478D01*
X30506Y5492D01*
X30511Y5505D01*
X30518Y5516D01*
X30525Y5527D01*
X30533Y5536D01*
X30542Y5544D01*
X30552Y5549D01*
X30562Y5554D01*
X30580Y5556D01*
X30590Y5555D01*
X30601Y5552D01*
X30611Y5547D01*
X30621Y5541D01*
X30630Y5533D01*
X30637Y5523D01*
X30644Y5512D01*
X30650Y5500D01*
X30654Y5487D01*
X30657Y5473D01*
X30659Y5450D01*
X30660Y5464D01*
X30662Y5478D01*
X30666Y5492D01*
X30671Y5505D01*
X30677Y5516D01*
X30684Y5527D01*
X30692Y5536D01*
X30702Y5544D01*
X30711Y5549D01*
X30722Y5554D01*
X30739Y5556D01*
X30750Y5555D01*
X30760Y5552D01*
X30770Y5547D01*
X30780Y5541D01*
X30789Y5533D01*
X30797Y5523D01*
X30804Y5512D01*
X30809Y5500D01*
X30814Y5487D01*
X30817Y5473D01*
X30819Y5450D01*
Y5344D01*
X30659Y5837D02*
X30660Y5851D01*
X30662Y5865D01*
X30666Y5879D01*
X30671Y5892D01*
X30677Y5903D01*
X30684Y5914D01*
X30692Y5923D01*
X30702Y5931D01*
X30711Y5937D01*
X30722Y5941D01*
X30739Y5943D01*
X30750Y5942D01*
X30760Y5939D01*
X30770Y5935D01*
X30780Y5928D01*
X30789Y5920D01*
X30797Y5910D01*
X30804Y5899D01*
X30809Y5887D01*
X30814Y5874D01*
X30817Y5860D01*
X30819Y5837D01*
Y5731D01*
X30659Y5837D02*
Y5731D01*
X30606D01*
X30500D01*
Y5943D01*
Y6344D02*
Y6450D01*
X30501Y6464D01*
X30503Y6478D01*
X30506Y6492D01*
X30511Y6505D01*
X30518Y6516D01*
X30525Y6527D01*
X30533Y6536D01*
X30542Y6544D01*
X30552Y6549D01*
X30562Y6554D01*
X30580Y6556D01*
X30590Y6555D01*
X30601Y6552D01*
X30611Y6547D01*
X30621Y6541D01*
X30630Y6533D01*
X30637Y6523D01*
X30644Y6512D01*
X30650Y6500D01*
X30654Y6487D01*
X30657Y6473D01*
X30659Y6450D01*
X30660Y6464D01*
X30662Y6478D01*
X30666Y6492D01*
X30671Y6505D01*
X30677Y6516D01*
X30684Y6527D01*
X30692Y6536D01*
X30702Y6544D01*
X30711Y6549D01*
X30722Y6554D01*
X30739Y6556D01*
X30750Y6555D01*
X30760Y6552D01*
X30770Y6547D01*
X30780Y6541D01*
X30789Y6533D01*
X30797Y6523D01*
X30804Y6512D01*
X30809Y6500D01*
X30814Y6487D01*
X30817Y6473D01*
X30819Y6450D01*
Y6344D01*
X30606Y6731D02*
G02X30500Y6837I0J106D01*
X30606Y6943I106J0D01*
G01X30819Y6731D01*
Y6943D01*
X30500Y7361D02*
Y7468D01*
X30501Y7482D01*
X30503Y7496D01*
X30506Y7510D01*
X30511Y7522D01*
X30518Y7534D01*
X30525Y7545D01*
X30533Y7554D01*
X30542Y7561D01*
X30552Y7567D01*
X30562Y7571D01*
X30580Y7574D01*
X30590Y7573D01*
X30601Y7570D01*
X30611Y7565D01*
X30621Y7559D01*
X30630Y7551D01*
X30637Y7541D01*
X30644Y7530D01*
X30650Y7518D01*
X30654Y7505D01*
X30657Y7491D01*
X30659Y7468D01*
X30660Y7482D01*
X30662Y7496D01*
X30666Y7510D01*
X30671Y7522D01*
X30677Y7534D01*
X30684Y7545D01*
X30692Y7554D01*
X30702Y7561D01*
X30711Y7567D01*
X30722Y7571D01*
X30739Y7574D01*
X30750Y7573D01*
X30760Y7570D01*
X30770Y7565D01*
X30780Y7559D01*
X30789Y7551D01*
X30797Y7541D01*
X30804Y7530D01*
X30809Y7518D01*
X30814Y7505D01*
X30817Y7491D01*
X30819Y7468D01*
Y7361D01*
X30500Y7749D02*
Y7855D01*
X30501Y7869D01*
X30503Y7883D01*
X30506Y7897D01*
X30511Y7909D01*
X30518Y7921D01*
X30525Y7932D01*
X30533Y7941D01*
X30542Y7949D01*
X30552Y7954D01*
X30562Y7958D01*
X30580Y7961D01*
X30590Y7960D01*
X30601Y7957D01*
X30611Y7952D01*
X30621Y7946D01*
X30630Y7938D01*
X30637Y7928D01*
X30644Y7917D01*
X30650Y7905D01*
X30654Y7892D01*
X30657Y7878D01*
X30659Y7855D01*
X30660Y7869D01*
X30662Y7883D01*
X30666Y7897D01*
X30671Y7909D01*
X30677Y7921D01*
X30684Y7932D01*
X30692Y7941D01*
X30702Y7949D01*
X30711Y7954D01*
X30722Y7958D01*
X30739Y7961D01*
X30750Y7960D01*
X30760Y7957D01*
X30770Y7952D01*
X30780Y7946D01*
X30789Y7938D01*
X30797Y7928D01*
X30804Y7917D01*
X30809Y7905D01*
X30814Y7892D01*
X30817Y7878D01*
X30819Y7855D01*
Y7749D01*
X30606Y8361D02*
G02X30500Y8468I0J106D01*
X30606Y8574I106J0D01*
G01X30819Y8361D01*
Y8574D01*
X30659Y8855D02*
X30660Y8869D01*
X30662Y8883D01*
X30666Y8897D01*
X30671Y8909D01*
X30677Y8921D01*
X30684Y8932D01*
X30692Y8941D01*
X30702Y8949D01*
X30711Y8954D01*
X30722Y8958D01*
X30739Y8961D01*
X30750Y8960D01*
X30760Y8957D01*
X30770Y8952D01*
X30780Y8946D01*
X30789Y8938D01*
X30797Y8928D01*
X30804Y8917D01*
X30809Y8905D01*
X30814Y8892D01*
X30817Y8878D01*
X30819Y8855D01*
Y8749D01*
X30659Y8855D02*
Y8749D01*
X30606D01*
X30500D01*
Y8961D01*
X30606Y9379D02*
G02X30500Y9486I0J106D01*
X30606Y9592I106J0D01*
G01X30819Y9379D01*
Y9592D01*
X30659Y9766D02*
Y9873D01*
X30660Y9887D01*
X30662Y9901D01*
X30666Y9915D01*
X30671Y9927D01*
X30677Y9939D01*
X30684Y9950D01*
X30692Y9959D01*
X30702Y9966D01*
X30711Y9972D01*
X30722Y9976D01*
X30739Y9979D01*
X30750Y9978D01*
X30760Y9975D01*
X30770Y9970D01*
X30780Y9964D01*
X30789Y9956D01*
X30797Y9946D01*
X30804Y9935D01*
X30809Y9923D01*
X30814Y9910D01*
X30817Y9896D01*
X30819Y9873D01*
X30818Y9858D01*
X30816Y9844D01*
X30812Y9831D01*
X30807Y9818D01*
X30801Y9806D01*
X30794Y9796D01*
X30786Y9786D01*
X30777Y9779D01*
X30767Y9773D01*
X30756Y9769D01*
X30739Y9766D01*
X30606D01*
X30580D02*
X30569Y9767D01*
X30558Y9770D01*
X30548Y9775D01*
X30539Y9782D01*
X30530Y9790D01*
X30522Y9799D01*
X30515Y9810D01*
X30509Y9823D01*
X30505Y9836D01*
X30502Y9849D01*
X30500Y9873D01*
Y9952D01*
X30606Y11344D02*
X30500Y11450D01*
X30819D01*
Y11344D02*
Y11556D01*
X30500Y11943D02*
X30819D01*
X30659D02*
Y11731D01*
X30500D01*
X30606Y12361D02*
X30500Y12468D01*
X30819D01*
Y12361D02*
Y12574D01*
X30606Y12749D02*
G02X30500Y12855I0J106D01*
X30606Y12961I106J0D01*
G01X30819Y12749D01*
Y12961D01*
X30624Y14344D02*
X30518Y14451D01*
X30837D01*
Y14344D02*
Y14557D01*
X30518Y14731D02*
Y14838D01*
X30519Y14852D01*
X30521Y14866D01*
X30525Y14880D01*
X30530Y14892D01*
X30536Y14904D01*
X30543Y14915D01*
X30551Y14924D01*
X30560Y14932D01*
X30570Y14937D01*
X30580Y14941D01*
X30598Y14944D01*
X30609Y14943D01*
X30619Y14940D01*
X30629Y14935D01*
X30639Y14929D01*
X30648Y14921D01*
X30656Y14911D01*
X30662Y14900D01*
X30668Y14888D01*
X30673Y14875D01*
X30676Y14861D01*
X30678Y14838D01*
Y14852D01*
X30680Y14866D01*
X30684Y14880D01*
X30689Y14892D01*
X30695Y14904D01*
X30702Y14915D01*
X30711Y14924D01*
X30720Y14932D01*
X30730Y14937D01*
X30740Y14941D01*
X30757Y14944D01*
X30768Y14943D01*
X30778Y14940D01*
X30789Y14935D01*
X30798Y14929D01*
X30807Y14921D01*
X30815Y14911D01*
X30822Y14900D01*
X30828Y14888D01*
X30832Y14875D01*
X30835Y14861D01*
X30837Y14838D01*
Y14731D01*
X30500Y15347D02*
Y15453D01*
G02X30606Y15559I106J0D01*
G01X30712D01*
G02X30819Y15453I0J106D01*
G01Y15347D01*
X30500D01*
X30606Y15734D02*
G02X30500Y15840I0J106D01*
X30606Y15947I106J0D01*
G01X30819Y15734D01*
Y15947D01*
X30500Y16410D02*
Y16516D01*
G02X30606Y16622I106J0D01*
G01X30712D01*
G02X30819Y16516I0J106D01*
G01Y16410D01*
X30500D01*
Y16797D02*
Y16903D01*
X30501Y16918D01*
X30503Y16932D01*
X30506Y16945D01*
X30511Y16958D01*
X30518Y16970D01*
X30525Y16980D01*
X30533Y16989D01*
X30542Y16997D01*
X30552Y17003D01*
X30562Y17007D01*
X30580Y17010D01*
X30590Y17009D01*
X30601Y17006D01*
X30611Y17001D01*
X30621Y16994D01*
X30630Y16986D01*
X30637Y16977D01*
X30644Y16965D01*
X30650Y16953D01*
X30654Y16940D01*
X30657Y16926D01*
X30659Y16903D01*
X30660Y16918D01*
X30662Y16932D01*
X30666Y16945D01*
X30671Y16958D01*
X30677Y16970D01*
X30684Y16980D01*
X30692Y16989D01*
X30702Y16997D01*
X30711Y17003D01*
X30722Y17007D01*
X30739Y17010D01*
X30750Y17009D01*
X30760Y17006D01*
X30770Y17001D01*
X30780Y16994D01*
X30789Y16986D01*
X30797Y16977D01*
X30804Y16965D01*
X30809Y16953D01*
X30814Y16940D01*
X30817Y16926D01*
X30819Y16903D01*
Y16797D01*
X30606Y10361D02*
G02X30500Y10468I0J106D01*
X30606Y10574I106J0D01*
G01X30819Y10361D01*
Y10574D01*
X30500Y10749D02*
Y10961D01*
X30819Y10855D01*
X30659Y18485D02*
X30660Y18500D01*
X30662Y18514D01*
X30666Y18527D01*
X30671Y18540D01*
X30677Y18552D01*
X30684Y18562D01*
X30692Y18571D01*
X30702Y18579D01*
X30711Y18585D01*
X30722Y18589D01*
X30739Y18592D01*
X30750Y18591D01*
X30760Y18588D01*
X30770Y18583D01*
X30780Y18576D01*
X30789Y18568D01*
X30797Y18558D01*
X30804Y18547D01*
X30809Y18535D01*
X30814Y18522D01*
X30817Y18508D01*
X30819Y18485D01*
Y18379D01*
X30659Y18485D02*
Y18379D01*
X30606D01*
X30500D01*
Y18592D01*
Y18979D02*
X30819Y18872D01*
X30500Y18766D01*
X5159Y10180D02*
X5160Y10194D01*
X5162Y10208D01*
X5166Y10222D01*
X5171Y10235D01*
X5177Y10246D01*
X5184Y10257D01*
X5192Y10266D01*
X5202Y10274D01*
X5211Y10280D01*
X5222Y10284D01*
X5239Y10286D01*
X5250Y10285D01*
X5260Y10282D01*
X5270Y10278D01*
X5280Y10271D01*
X5289Y10263D01*
X5297Y10253D01*
X5304Y10242D01*
X5309Y10230D01*
X5314Y10217D01*
X5317Y10203D01*
X5319Y10180D01*
Y10084D01*
G02X5308Y10074I11J0D01*
G01X5159Y10180D02*
Y10166D01*
X5156Y10152D01*
X5153Y10138D01*
X5148Y10125D01*
X5142Y10114D01*
X5135Y10103D01*
X5126Y10094D01*
X5117Y10086D01*
X5107Y10080D01*
X5097Y10076D01*
X5080Y10074D01*
X5069Y10075D01*
X5058Y10078D01*
X5048Y10082D01*
X5039Y10089D01*
X5030Y10097D01*
X5022Y10107D01*
X5015Y10118D01*
X5009Y10130D01*
X5005Y10143D01*
X5002Y10157D01*
X5000Y10180D01*
Y10276D01*
G02X5011Y10286I11J0D01*
G01X5159Y10461D02*
Y10567D01*
X5160Y10581D01*
X5162Y10595D01*
X5166Y10609D01*
X5171Y10622D01*
X5177Y10634D01*
X5184Y10644D01*
X5192Y10653D01*
X5202Y10661D01*
X5211Y10667D01*
X5222Y10671D01*
X5239Y10673D01*
X5250Y10672D01*
X5260Y10669D01*
X5270Y10665D01*
X5280Y10658D01*
X5289Y10650D01*
X5297Y10640D01*
X5304Y10629D01*
X5309Y10617D01*
X5314Y10604D01*
X5317Y10590D01*
X5319Y10567D01*
Y10461D01*
X5000D01*
Y10567D01*
X5001Y10581D01*
X5003Y10595D01*
X5006Y10609D01*
X5011Y10622D01*
X5018Y10634D01*
X5025Y10644D01*
X5033Y10653D01*
X5042Y10661D01*
X5052Y10667D01*
X5062Y10671D01*
X5080Y10673D01*
X5090Y10672D01*
X5101Y10669D01*
X5111Y10665D01*
X5121Y10658D01*
X5130Y10650D01*
X5137Y10640D01*
X5144Y10629D01*
X5150Y10617D01*
X5154Y10604D01*
X5157Y10590D01*
X5159Y10567D01*
Y11192D02*
X5160Y11206D01*
X5162Y11220D01*
X5166Y11234D01*
X5171Y11247D01*
X5177Y11259D01*
X5184Y11269D01*
X5192Y11278D01*
X5202Y11286D01*
X5211Y11292D01*
X5222Y11296D01*
X5239Y11298D01*
X5250Y11297D01*
X5260Y11294D01*
X5270Y11290D01*
X5280Y11283D01*
X5289Y11275D01*
X5297Y11265D01*
X5304Y11254D01*
X5309Y11242D01*
X5314Y11229D01*
X5317Y11215D01*
X5319Y11192D01*
Y11096D01*
G02X5308Y11086I11J0D01*
G01X5159Y11192D02*
Y11178D01*
X5156Y11164D01*
X5153Y11150D01*
X5148Y11137D01*
X5142Y11126D01*
X5135Y11115D01*
X5126Y11106D01*
X5117Y11098D01*
X5107Y11092D01*
X5097Y11088D01*
X5080Y11086D01*
X5069Y11087D01*
X5058Y11090D01*
X5048Y11094D01*
X5039Y11101D01*
X5030Y11109D01*
X5022Y11119D01*
X5015Y11130D01*
X5009Y11142D01*
X5005Y11155D01*
X5002Y11169D01*
X5000Y11192D01*
Y11288D01*
G02X5011Y11298I11J0D01*
G01X5000Y11685D02*
X5319Y11675D01*
X5213Y11579D01*
X5319Y11484D01*
X5000Y11473D01*
D16*
X1081Y25160D02*
X616D01*
G02X500Y25276I0J116D01*
G01Y25509D01*
G02X616Y25625I116J0D01*
G01X1081D01*
G02X1198Y25509I0J116D01*
G01Y25276D01*
G02X1081Y25160I116J0D01*
G01X1198Y25857D02*
X500D01*
X1198Y26322D01*
X500D01*
D17*
X5350Y25710D02*
Y30710D01*
X1850D01*
X5350Y25710D02*
X1850D01*
Y26460D01*
Y30710D02*
Y29960D01*
Y27960D02*
Y28460D01*
X-2240Y21940D02*
Y23200D01*
X60Y21940D02*
X-2240D01*
X60Y23210D02*
X-2240D01*
X1460Y23990D02*
X70D01*
Y21180D02*
Y23980D01*
X1600Y21580D02*
Y23580D01*
X70Y21170D02*
X1460D01*
X1200Y26860D02*
X-950D01*
Y29560D01*
X1200D01*
X-3500Y27710D02*
X-950D01*
X-3500Y28710D02*
X-950D01*
X48240Y25930D02*
Y24670D01*
X45940Y25930D02*
X48240D01*
X45940Y24660D02*
X48240D01*
X44540Y23880D02*
X45930D01*
Y26690D02*
Y23890D01*
X44400Y26290D02*
Y24290D01*
X45930Y26700D02*
X44540D01*
X48240Y22030D02*
Y20770D01*
X45940Y22030D02*
X48240D01*
X45940Y20760D02*
X48240D01*
X44540Y19980D02*
X45930D01*
Y22790D02*
Y19990D01*
X44400Y22390D02*
Y20390D01*
X45930Y22800D02*
X44540D01*
X35780Y10700D02*
Y1100D01*
X45950Y11700D02*
Y1100D01*
X35780D01*
X38780Y11700D02*
X45950D01*
X35780Y10700D02*
X37780D01*
X38780Y11700D01*
X10090Y25980D02*
Y24260D01*
X12410Y25980D02*
Y24260D01*
X11600Y24060D02*
X11800D01*
X10690D02*
X10890D01*
X10450Y25980D02*
X10090D01*
X12050D02*
X12410D01*
X22880Y-2340D02*
Y160D01*
X22900Y10060D02*
X30000D01*
Y160D02*
Y-2340D01*
Y10060D02*
Y9910D01*
X22900Y10060D02*
Y9910D01*
X30000Y-2340D02*
X22880D01*
X43400Y13010D02*
X45950D01*
Y14710D01*
X43400D01*
Y13010D01*
Y15010D02*
X45950D01*
X43400Y16710D02*
Y15010D01*
X45600Y13610D02*
X44600D01*
X45090Y14110D01*
X45600Y13610D01*
X44600Y14110D02*
X45600D01*
X46340Y13290D02*
X45980D01*
X46350Y14430D02*
X45980D01*
X45950Y16710D02*
X43400D01*
X45950Y15010D02*
Y16710D01*
X45600Y15610D02*
X44600D01*
X45090Y16110D01*
X45600Y15610D01*
X44600Y16110D02*
X45600D01*
X46350Y16430D02*
X45980D01*
X46340Y15290D02*
X45980D01*
X43400Y17010D02*
X45950D01*
X43400Y18710D02*
Y17010D01*
X45950Y18710D02*
X43400D01*
X45950Y17010D02*
Y18710D01*
X45600Y17610D02*
X44600D01*
X45090Y18110D01*
X45600Y17610D01*
X44600Y18110D02*
X45600D01*
X46350Y18430D02*
X45980D01*
X46340Y17290D02*
X45980D01*
X11130Y12130D02*
X11730D01*
Y18930D01*
X10030D01*
Y12130D01*
X10630D01*
Y12630D01*
X11130D01*
Y12130D01*
X16870D02*
X17470D01*
Y18930D01*
X15770D01*
Y12130D01*
X16370D01*
Y12630D01*
X16870D01*
Y12130D01*
X5530Y10930D02*
X6530D01*
X5530Y23930D02*
X6530D01*
Y9930D01*
X5530D01*
Y23930D01*
X31000Y1160D02*
X32000D01*
X21000Y19160D02*
X32000D01*
Y160D01*
X21000D01*
Y19160D01*
X2310Y18090D02*
X1690Y17790D01*
Y18410D01*
X2310Y18090D01*
X1690Y18100D02*
X1100D01*
X2310D02*
X2900D01*
X2310Y18350D02*
Y17850D01*
X32870Y1040D02*
X33630D01*
Y2280D02*
Y1040D01*
Y2280D02*
X32870D01*
Y1040D02*
Y2280D01*
X8240Y22830D02*
X8520D01*
X8380Y22970D02*
Y22690D01*
X2310Y19090D02*
X1690Y18790D01*
Y19410D01*
X2310Y19090D01*
X1690Y19100D02*
X1100D01*
X2310D02*
X2900D01*
X2310Y19350D02*
Y18850D01*
X12980Y22830D02*
X13260D01*
X13120Y22970D02*
Y22690D01*
X16000Y11670D02*
Y10910D01*
X17240D02*
X16000D01*
X17240D02*
Y11670D01*
X16000D02*
X17240D01*
X10260D02*
Y10910D01*
X11500D02*
X10260D01*
X11500D02*
Y11670D01*
X10260D02*
X11500D01*
X8500Y24540D02*
X9260D01*
Y25780D02*
Y24540D01*
Y25780D02*
X8500D01*
Y24540D02*
Y25780D01*
X18130Y24040D02*
X17370D01*
Y21780D02*
Y24040D01*
Y21780D02*
X18130D01*
Y24040D02*
Y21780D01*
X17750Y24040D02*
Y24280D01*
Y21780D02*
Y21540D01*
X19130Y24040D02*
X18370D01*
Y21780D02*
Y24040D01*
Y21780D02*
X19130D01*
Y24040D02*
Y21780D01*
X18750Y24040D02*
Y24280D01*
Y21780D02*
Y21540D01*
X19370Y21780D02*
X20130D01*
Y24040D02*
Y21780D01*
Y24040D02*
X19370D01*
Y21780D02*
Y24040D01*
X19750Y21780D02*
Y21540D01*
Y24040D02*
Y24280D01*
X21130Y24040D02*
X20370D01*
Y21780D02*
Y24040D01*
Y21780D02*
X21130D01*
Y24040D02*
Y21780D01*
X20750Y24040D02*
Y24280D01*
Y21780D02*
Y21540D01*
X40280Y16980D02*
Y17740D01*
X38020D02*
X40280D01*
X38020D02*
Y16980D01*
X40280D02*
X38020D01*
X40280Y17360D02*
X40520D01*
X38020D02*
X37780D01*
X40280Y14980D02*
Y15740D01*
X38020D02*
X40280D01*
X38020D02*
Y14980D01*
X40280D02*
X38020D01*
X40280Y15360D02*
X40520D01*
X38020D02*
X37780D01*
X40280Y12980D02*
Y13740D01*
X38020D02*
X40280D01*
X38020D02*
Y12980D01*
X40280D02*
X38020D01*
X40280Y13360D02*
X40520D01*
X38020D02*
X37780D01*
X3200Y10910D02*
X4200D01*
X3200Y9910D02*
X4200D01*
Y14910D02*
Y9910D01*
Y14910D02*
X3200D01*
Y9910D02*
Y14910D01*
X31000Y1160D02*
Y160D01*
X32610Y6460D02*
X32890D01*
X32750Y6600D02*
Y6320D01*
X1000Y10910D02*
X2000D01*
X1000Y9910D02*
X2000D01*
Y13910D02*
Y9910D01*
Y13910D02*
X1000D01*
Y9910D02*
Y13910D01*
X13370Y14150D02*
X14130D01*
Y16410D02*
Y14150D01*
Y16410D02*
X13370D01*
Y14150D02*
Y16410D01*
X13750Y14150D02*
Y13910D01*
Y16410D02*
Y16650D01*
X32610Y4400D02*
X32890D01*
X32750Y4540D02*
Y4260D01*
X32060Y20660D02*
Y21660D01*
X22060D02*
X32060D01*
X22060D02*
Y20660D01*
X32060D02*
X22060D01*
X31060D02*
Y21660D01*
X12574Y23837D02*
X14074D01*
X12574D02*
X13074Y24087D01*
X12574Y23837D02*
X13074Y23587D01*
X14074Y23837D02*
Y24337D01*
X34620Y15343D02*
Y14343D01*
Y15343D02*
X34870Y14843D01*
X34620Y15343D02*
X34370Y14843D01*
X22665Y24510D02*
Y25110D01*
X22765Y24610D02*
Y25010D01*
X24265Y25110D02*
Y24510D01*
X24165Y25010D02*
Y24610D01*
X23365Y24660D02*
X23565D01*
X23315Y24960D02*
X23565D01*
X23365Y24360D02*
X23765D01*
X23315Y25260D02*
X23765D01*
X22565Y24110D02*
X22265D01*
X22565Y25510D02*
X22265D01*
X22565Y24360D02*
X22265D01*
X22565Y25260D02*
X22265D01*
Y24660D02*
X22565D01*
X22265Y24960D02*
X22565D01*
X24665Y24110D02*
X24365D01*
X24665Y25510D02*
X24365D01*
X24665Y24360D02*
X24365D01*
X24665Y25260D02*
X24365D01*
Y24660D02*
X24665D01*
X24365Y24960D02*
X24665D01*
X24165Y23910D02*
Y23610D01*
X22765Y23910D02*
Y23610D01*
X23915Y23910D02*
Y23610D01*
X23015Y23910D02*
Y23610D01*
X23615D02*
Y23910D01*
X23315Y23610D02*
Y23910D01*
X24165Y26010D02*
Y25710D01*
X22765Y26010D02*
Y25710D01*
X23915Y26010D02*
Y25710D01*
X23015Y26010D02*
Y25710D01*
X23615D02*
Y26010D01*
X23315Y25710D02*
Y26010D01*
X40849Y22593D02*
X41003Y22569D01*
X41143Y22498D01*
X41253Y22387D01*
X41324Y22248D01*
X41349Y22093D01*
X41324Y21939D01*
X41253Y21799D01*
X41143Y21689D01*
X41003Y21618D01*
X40849Y21593D01*
X40694Y21618D01*
X40555Y21689D01*
X40444Y21799D01*
X40373Y21939D01*
X40349Y22093D01*
X40373Y22248D01*
X40444Y22387D01*
X40555Y22498D01*
X40694Y22569D01*
X40849Y22593D01*
G75*
X-3500Y27710D02*
G02Y28710I0J500D01*
G01X46350Y14430D02*
G02Y13290I0J-570D01*
G01Y16430D02*
G02Y15290I0J-570D01*
G01Y18430D02*
G02Y17290I0J-570D01*
G01X8880Y21780D02*
G02I0J850D01*
G01X13620D02*
G02I0J850D01*
G01X33250Y5410D02*
G02I0J850D01*
G01Y3350D02*
G02I0J850D01*
G01X23315Y24360D02*
G02Y24660I0J150D01*
G01Y24960D02*
G02Y25260I0J150D01*
G01X23615Y24960D02*
G02Y24660I0J-150D01*
G01X24346Y2934D02*
X23581D01*
X23963Y3189D01*
X23581Y3444D01*
X24346D01*
X24218Y3699D02*
X23708D01*
G74*
G02X23581Y3826I0J127D01*
G01Y4081D01*
G02X23708Y4209I127J0D01*
G01X24218D01*
G02X24346Y4081I0J127D01*
G01Y3826D01*
G02X24218Y3699I127J0D01*
G01X23581Y4464D02*
Y4846D01*
G02X23708Y4974I127J0D01*
G01X24218D01*
G02X24346Y4846I0J127D01*
G01Y4464D01*
X23581D01*
Y5739D02*
X24218D01*
G02X24346Y5611I0J127D01*
G01Y5356D01*
G02X24218Y5229I127J0D01*
G01X23581D01*
Y5994D02*
X24346D01*
Y6504D01*
X23581Y7269D02*
Y6759D01*
X24346D01*
Y7269D01*
X23963Y6759D02*
Y7141D01*
X25989Y12146D02*
Y12528D01*
G02X26117Y12656I127J0D01*
G01X26627D01*
G02X26754Y12528I0J127D01*
G01Y12146D01*
X25989D01*
Y13420D02*
Y12911D01*
X26754D01*
Y13420D01*
X26372Y12911D02*
Y13293D01*
X25989Y13675D02*
X26754Y13930D01*
X25989Y14185D01*
Y14440D02*
X26754D01*
X25989Y14950D02*
X26372Y14568D01*
X26754Y14950D01*
X26372Y14440D02*
Y14568D01*
X25989Y15333D02*
Y15588D01*
Y15460D02*
X26754D01*
Y15333D02*
Y15588D01*
X25989Y15970D02*
Y16480D01*
Y16225D02*
X26754D01*
X26627Y17245D02*
G02X26754Y17118I0J127D01*
G01Y16863D01*
G02X26627Y16735I127J0D01*
G01X26117D01*
G02X25989Y16863I0J127D01*
G01Y17118D01*
G02X26117Y17245I127J0D01*
G01X40119Y19674D02*
X39800D01*
G02X39736Y19737I0J64D01*
G01Y19865D01*
G02X39800Y19929I64J0D01*
G01X40119D01*
X39927Y19674D02*
Y19929D01*
Y20138D02*
Y20393D01*
X40119D02*
Y20329D01*
G02X40055Y20266I64J0D01*
G01X39800D01*
X39915Y20858D02*
X40119D01*
Y20666D01*
G02X40055Y20603I64J0D01*
G01X39991D01*
G02X39927Y20666I0J64D01*
G01Y20858D01*
X40119Y21067D02*
X39927D01*
X39959D02*
G02X39927Y21099I0J32D01*
G01Y21290D01*
G02X39959Y21322I32J0D01*
G01X39736Y21659D02*
X39749D01*
X39927D02*
X40119D01*
X39927Y21996D02*
Y22124D01*
X39928Y22138D01*
X39930Y22152D01*
X39933Y22166D01*
X39937Y22180D01*
X39943Y22192D01*
X39949Y22204D01*
X39956Y22215D01*
X39965Y22225D01*
X39974Y22233D01*
X39983Y22240D01*
X39993Y22245D01*
X40004Y22249D01*
X40023Y22251D01*
X40034Y22250D01*
X40045Y22248D01*
X40055Y22244D01*
X40065Y22238D01*
X40075Y22231D01*
X40084Y22222D01*
X40092Y22212D01*
X40099Y22201D01*
X40105Y22189D01*
X40110Y22177D01*
X40114Y22163D01*
X40117Y22149D01*
X40119Y22124D01*
Y21996D01*
X39736D01*
Y22124D01*
X39737Y22138D01*
X39739Y22152D01*
X39742Y22166D01*
X39746Y22180D01*
X39751Y22192D01*
X39758Y22204D01*
X39765Y22215D01*
X39773Y22225D01*
X39782Y22233D01*
X39792Y22240D01*
X39802Y22245D01*
X39813Y22249D01*
X39832Y22251D01*
X39843Y22250D01*
X39853Y22248D01*
X39864Y22244D01*
X39874Y22238D01*
X39883Y22231D01*
X39892Y22222D01*
X39900Y22212D01*
X39907Y22201D01*
X39914Y22189D01*
X39919Y22177D01*
X39923Y22163D01*
X39925Y22149D01*
X39927Y22124D01*
X39736Y22588D02*
X39749D01*
X39927D02*
X40119D01*
X39927Y22925D02*
Y23180D01*
X40119D02*
Y23116D01*
G02X40055Y23052I64J0D01*
G01X39800D01*
X39991Y23517D02*
X39978Y23518D01*
X39965Y23520D01*
X39953Y23523D01*
X39943Y23528D01*
X39935Y23533D01*
X39930Y23540D01*
X39927Y23549D01*
Y23644D01*
X39991Y23517D02*
X40055D01*
X40068Y23516D01*
X40081Y23514D01*
X40093Y23511D01*
X40103Y23506D01*
X40111Y23501D01*
X40116Y23494D01*
X40119Y23485D01*
Y23389D01*
X40106Y23981D02*
X40119D01*
Y24573D02*
Y24382D01*
G02X40055Y24318I64J0D01*
G01X39991D01*
G02X39927Y24382I0J64D01*
G01Y24573D01*
Y24847D02*
Y24974D01*
G02X39991Y25038I64J0D01*
G01X40055D01*
G02X40119Y24974I0J64D01*
G01Y24847D01*
G02X40055Y24783I64J0D01*
G01X39991D01*
G02X39927Y24847I0J64D01*
G01X40119Y25247D02*
X39927D01*
Y25266D01*
X40087Y25375D01*
X39927Y25483D01*
Y25502D01*
X40119D01*
X40793Y22893D02*
G02X40665Y23021I0J127D01*
X40793Y23148I127J0D01*
G01X41048Y22893D01*
Y23148D01*
X40793Y23358D02*
G02X40665Y23485I0J127D01*
X40793Y23613I127J0D01*
G01X40920D01*
G02X41048Y23485I0J127D01*
X40920Y23358I127J0D01*
G01X40793D01*
Y23822D02*
G02X40665Y23950I0J127D01*
X40793Y24077I127J0D01*
G01X41048Y23822D01*
Y24077D01*
X40793Y24287D02*
X40665Y24414D01*
X41048D01*
Y24287D02*
Y24542D01*
X33541Y18377D02*
X33116D01*
G02X33031Y18462I0J85D01*
G01Y18632D01*
G02X33116Y18717I85J0D01*
G01X33541D01*
X33286Y18377D02*
Y18717D01*
X33031Y18887D02*
Y19227D01*
Y19057D02*
X33541D01*
Y19397D02*
X33116D01*
G02X33031Y19482I0J85D01*
G01Y19652D01*
G02X33116Y19737I85J0D01*
G01X33541D01*
X33286Y19397D02*
Y19737D01*
X33031Y19907D02*
X33541D01*
X33031D02*
Y20162D01*
G02X33116Y20247I85J0D01*
G01X33201D01*
G02X33286Y20162I0J85D01*
G01Y19907D01*
Y19992D02*
X33541Y20247D01*
X33031Y20502D02*
Y20672D01*
Y20587D02*
X33541D01*
Y20502D02*
Y20672D01*
D18*
X35089Y19205D02*
Y18568D01*
X36045D01*
X35567D02*
Y19046D01*
X35089Y20161D02*
X35886D01*
G02X36045Y20002I0J159D01*
G01Y19683D01*
G02X35886Y19524I159J0D01*
G01X35089D01*
Y21118D02*
X35886D01*
G02X36045Y20958I0J159D01*
G01Y20639D01*
G02X35886Y20480I159J0D01*
G01X36045Y24088D02*
X35089D01*
X36045Y24726D01*
X35089D01*
Y25682D02*
Y25044D01*
X36045D01*
Y25682D01*
X35567Y25044D02*
Y25523D01*
X35089Y26001D02*
Y26638D01*
Y26319D02*
X36045D01*
X35090Y21593D02*
X36046D01*
D19*
X34046Y24028D02*
X33281D01*
X34046Y24538D01*
X33281D01*
Y25303D02*
X33919D01*
G02X34046Y25176I0J127D01*
G01Y24921D01*
G02X33919Y24793I127J0D01*
G01X33281D01*
X33919Y26068D02*
G02X34046Y25941I0J127D01*
G01Y25686D01*
G02X33919Y25558I127J0D01*
G01X33409D01*
G02X33281Y25686I0J127D01*
G01Y25941D01*
G02X33409Y26068I127J0D01*
G01X33664Y26323D02*
Y26833D01*
X33409Y26578D02*
X33919D01*
D20*
X22565Y24010D02*
Y25610D01*
X22665Y25710D02*
X24265D01*
X24365Y25610D02*
Y24010D01*
X24265Y23910D02*
X22665D01*
X22565Y24010D01*
Y25610D02*
X22665Y25710D01*
X24365Y25610D02*
X24265Y25710D01*
Y23910D02*
X24365Y24010D01*
D21*
X33075Y21702D02*
Y21065D01*
X33553D01*
Y21543D01*
G02X33712Y21702I159J0D01*
G01X33872D01*
G02X34031Y21543I0J159D01*
G01Y21224D01*
G02X33872Y21065I159J0D01*
G01X33075Y22021D02*
Y22658D01*
X34031Y22180D01*
X33712Y22977D02*
G02X33553Y23137I0J159D01*
G01Y23455D01*
G02X33712Y23615I159J0D01*
G01X33872D01*
G02X34031Y23455I0J159D01*
G01Y23137D01*
G02X33872Y22977I159J0D01*
G01X33234D01*
G02X33075Y23137I0J159D01*
G01Y23455D01*
G02X33234Y23615I159J0D01*
%LPC*%
D22*
G01X15620Y11290D03*
X43850Y13360D03*
Y15360D03*
X12380Y13530D03*
X43850Y17360D03*
X12380Y14530D03*
Y15530D03*
Y16530D03*
Y17530D03*
Y18530D03*
X9380D03*
Y17530D03*
Y16530D03*
Y15530D03*
Y14530D03*
Y13530D03*
Y12530D03*
X18120Y13530D03*
Y14530D03*
Y15530D03*
Y16530D03*
Y17530D03*
Y18530D03*
X15120D03*
Y17530D03*
Y16530D03*
Y15530D03*
Y14530D03*
Y13530D03*
Y12530D03*
X750Y18100D03*
X33250Y660D03*
Y2660D03*
X8880Y22240D03*
X750Y19100D03*
X13620Y22240D03*
X17620Y11290D03*
X9880D03*
X11880D03*
X8880Y24160D03*
Y26160D03*
X18750Y24660D03*
X17750D03*
Y21160D03*
X18750D03*
X19750D03*
Y24660D03*
X20750D03*
Y21160D03*
X40900Y17360D03*
X37400D03*
X40900Y15360D03*
X37400D03*
X40900Y13360D03*
X37400D03*
X30560Y21160D03*
X33250Y5870D03*
X13750Y13530D03*
Y17030D03*
X29560Y21160D03*
X28560D03*
X27560D03*
X33250Y3810D03*
X26560Y21160D03*
X25560D03*
X24560D03*
X23560D03*
X22560D03*
D23*
X36750Y1860D03*
D24*
X31500Y6660D03*
Y5660D03*
Y4660D03*
Y3660D03*
Y2660D03*
X3700Y11410D03*
X6030Y16430D03*
Y15430D03*
Y14430D03*
Y13430D03*
Y12430D03*
Y11430D03*
Y17430D03*
Y18430D03*
Y19430D03*
Y20430D03*
Y21430D03*
Y22430D03*
Y23430D03*
X31500Y1660D03*
Y7660D03*
Y8660D03*
Y9660D03*
Y10660D03*
Y11660D03*
Y12660D03*
Y13660D03*
X21500Y660D03*
X31500Y14660D03*
Y15660D03*
Y16660D03*
Y17660D03*
Y18660D03*
X21500Y1660D03*
Y2660D03*
Y3660D03*
Y4660D03*
Y5660D03*
Y6660D03*
Y7660D03*
Y8660D03*
Y9660D03*
Y10660D03*
Y11660D03*
Y12660D03*
Y13660D03*
Y14660D03*
X3700Y12410D03*
Y13410D03*
Y14410D03*
X21500Y15660D03*
Y16660D03*
Y17660D03*
Y18660D03*
X1500Y11410D03*
Y12410D03*
Y13410D03*
D25*
X1070Y23460D03*
Y21700D03*
X44930Y24410D03*
Y26170D03*
Y20510D03*
Y22270D03*
D26*
X36750Y10060D03*
D27*
X2050Y23960D03*
Y21200D03*
X43950Y23910D03*
Y26670D03*
Y20010D03*
Y22770D03*
D28*
X1850Y29210D03*
Y27210D03*
D29*
X6850Y30060D03*
Y28210D03*
D30*
X34600Y16560D03*
D32*
X31560Y21160D03*
X43850Y14360D03*
X12380Y12530D03*
X43850Y16360D03*
Y18360D03*
X18120Y12530D03*
X3250Y18100D03*
X8880Y23030D03*
X3250Y19100D03*
X13620Y23030D03*
X33250Y6660D03*
Y4600D03*
D33*
X3700Y10410D03*
X6030Y10430D03*
X31500Y660D03*
X1500Y10410D03*
D34*
X6850Y26360D03*
D35*
X27050Y3710D03*
Y3160D03*
Y4260D03*
X26500Y3710D03*
Y3160D03*
Y4260D03*
X27600Y3710D03*
Y3160D03*
Y4260D03*
D36*
X11250Y23790D03*
X12160D03*
X10340D03*
D37*
X23000Y660D03*
Y1160D03*
Y1660D03*
Y2160D03*
Y2660D03*
Y3160D03*
Y3660D03*
Y4160D03*
Y4660D03*
Y5160D03*
Y5660D03*
Y6160D03*
Y6660D03*
Y7160D03*
Y7660D03*
Y8160D03*
Y8660D03*
Y9160D03*
Y9660D03*
X29900Y660D03*
Y1160D03*
Y1660D03*
Y2160D03*
Y2660D03*
Y3160D03*
Y3660D03*
Y4160D03*
Y4660D03*
Y5160D03*
Y5660D03*
Y6160D03*
Y6660D03*
Y7160D03*
Y7660D03*
Y8160D03*
Y8660D03*
Y9160D03*
Y9660D03*
D38*
X35600Y2000D03*
Y1520D03*
D39*
X35600Y2570D03*
D40*
X35600Y3250D03*
Y4230D03*
Y5210D03*
Y6190D03*
Y7170D03*
Y8150D03*
Y9130D03*
Y10110D03*
D41*
X44870Y11920D03*
Y880D03*
X36400Y10920D03*
Y880D03*
D42*
X11250Y26270D03*
%LPD*%
D31*
X0Y31410D02*
X8620D01*
Y27530D01*
X46000D01*
Y0D01*
X18880D01*
Y9440D01*
X0D01*
Y31410D01*
M02*
