G04*
G04 Format:               Gerber RS-274X*
G04 Export Settings:      OSH Park*
G04 Layer:                BottomCopper*
G04 This File Name:       576NUC_FujiNet_V1.6.gbl*
G04 Source File Name:     576NUC_FujiNet_V1.6.rrb*
G04 Unique ID:            d1145678-c053-40f8-9390-8959fa1d921f*
G04 Generated Date:       Saturday, 09 October 2021 17:44:57*
G04*
G04 Created Using:        Robot Room Copper Connection v3.0.5875*
G04 Software Contact:     http://www.robotroom.com/CopperConnection/Support.aspx*
G04 License Number:       2194*
G04*
G04 Zero Suppression:     Leading*
G04 Number Precision:     2.4*
G04*
%FSLAX24Y24*%
%MOIN*%
%LNBottomCopper*%
%ADD10C,.007*%
%ADD11C,.012*%
%ADD12C,.025*%
%ADD13C,.037*%
%ADD14C,.056*%
%ADD15C,.063*%
%ADD16C,.065*%
%ADD17C,.075*%
%ADD18C,.084*%
%ADD19C,.1*%
%ADD20C,.115*%
%ADD21C,.13*%
%ADD22C,.15*%
%ADD23R,.006X.006*%
%ADD24R,.056X.056*%
%ADD25R,.065X.065*%
%ADD26R,.13X.13*%
D10*
G01X43394Y9942D02*
X42948D01*
Y9718D01*
X42949Y9709D01*
X42952Y9699D01*
X42956Y9690D01*
X42963Y9682D01*
X42971Y9674D01*
X42980Y9666D01*
X42991Y9660D01*
X43003Y9654D01*
X43016Y9650D01*
X43029Y9647D01*
X43043Y9645D01*
X43060Y9644D01*
X43074Y9645D01*
X43088Y9646D01*
X43102Y9650D01*
X43115Y9654D01*
X43127Y9659D01*
X43138Y9665D01*
X43147Y9672D01*
X43156Y9680D01*
X43162Y9689D01*
X43167Y9698D01*
X43170Y9707D01*
X43171Y9718D01*
Y9942D01*
Y9718D02*
X43172Y9709D01*
X43175Y9699D01*
X43180Y9690D01*
X43186Y9682D01*
X43194Y9674D01*
X43203Y9666D01*
X43214Y9660D01*
X43226Y9654D01*
X43239Y9650D01*
X43252Y9647D01*
X43266Y9645D01*
X43283Y9644D01*
X43297Y9645D01*
X43311Y9646D01*
X43325Y9650D01*
X43338Y9654D01*
X43350Y9659D01*
X43361Y9665D01*
X43371Y9672D01*
X43379Y9680D01*
X43385Y9689D01*
X43390Y9698D01*
X43393Y9707D01*
X43394Y9718D01*
Y9942D01*
X43246Y9198D02*
G74*
G03X43394Y9347I0J149D01*
X43246Y9495I149J0D01*
G01X43097D01*
G03X42948Y9347I0J149D01*
X43097Y9198I149J0D01*
G01X43246D01*
X43394Y9049D02*
X42948Y8900D01*
X43394Y8752D01*
X43246Y8993D02*
Y8807D01*
X43394Y8603D02*
X42948D01*
Y8380D01*
X42949Y8370D01*
X42952Y8361D01*
X42956Y8352D01*
X42963Y8343D01*
X42971Y8335D01*
X42980Y8328D01*
X42991Y8321D01*
X43003Y8316D01*
X43016Y8311D01*
X43029Y8308D01*
X43043Y8306D01*
X43060Y8305D01*
X43074Y8306D01*
X43088Y8308D01*
X43102Y8311D01*
X43115Y8315D01*
X43127Y8320D01*
X43138Y8327D01*
X43147Y8334D01*
X43156Y8342D01*
X43162Y8350D01*
X43167Y8359D01*
X43170Y8369D01*
X43171Y8380D01*
Y8603D01*
Y8454D02*
X43394Y8305D01*
X42948Y8157D02*
Y8045D01*
X42949Y8032D01*
X42950Y8020D01*
X42953Y8008D01*
X42956Y7995D01*
X42961Y7983D01*
X42966Y7972D01*
X42973Y7960D01*
X42980Y7950D01*
X42988Y7939D01*
X42997Y7929D01*
X43007Y7919D01*
X43017Y7910D01*
X43028Y7902D01*
X43040Y7894D01*
X43053Y7887D01*
X43066Y7881D01*
X43079Y7876D01*
X43093Y7871D01*
X43107Y7867D01*
X43122Y7864D01*
X43137Y7861D01*
X43152Y7860D01*
X43171Y7859D01*
X43186D01*
X43201Y7861D01*
X43216Y7863D01*
X43231Y7866D01*
X43245Y7869D01*
X43259Y7874D01*
X43273Y7879D01*
X43286Y7885D01*
X43298Y7892D01*
X43311Y7900D01*
X43322Y7908D01*
X43333Y7917D01*
X43343Y7926D01*
X43352Y7936D01*
X43360Y7946D01*
X43368Y7957D01*
X43375Y7968D01*
X43380Y7980D01*
X43385Y7992D01*
X43389Y8004D01*
X43392Y8016D01*
X43394Y8029D01*
Y8045D01*
Y8157D01*
X42948D01*
X43394Y7264D02*
X42948D01*
Y7041D01*
X42949Y7031D01*
X42952Y7022D01*
X42956Y7013D01*
X42963Y7004D01*
X42971Y6996D01*
X42980Y6989D01*
X42991Y6982D01*
X43003Y6977D01*
X43016Y6973D01*
X43029Y6969D01*
X43043Y6967D01*
X43060D01*
X43074D01*
X43088Y6969D01*
X43102Y6972D01*
X43115Y6976D01*
X43127Y6982D01*
X43138Y6988D01*
X43147Y6995D01*
X43156Y7003D01*
X43162Y7011D01*
X43167Y7020D01*
X43170Y7030D01*
X43171Y7041D01*
Y7264D01*
Y7041D02*
X43172Y7031D01*
X43175Y7022D01*
X43180Y7013D01*
X43186Y7004D01*
X43194Y6996D01*
X43203Y6989D01*
X43214Y6982D01*
X43226Y6977D01*
X43239Y6973D01*
X43252Y6969D01*
X43266Y6967D01*
X43283D01*
X43297D01*
X43311Y6969D01*
X43325Y6972D01*
X43338Y6976D01*
X43350Y6982D01*
X43361Y6988D01*
X43371Y6995D01*
X43379Y7003D01*
X43385Y7011D01*
X43390Y7020D01*
X43393Y7030D01*
X43394Y7041D01*
Y7264D01*
X43246Y6520D02*
G03X43394Y6669I0J149D01*
X43246Y6818I149J0D01*
G01X43097D01*
G03X42948Y6669I0J149D01*
X43097Y6520I149J0D01*
G01X43246D01*
X42948Y6372D02*
Y6074D01*
Y6223D02*
X43394D01*
X42948Y5925D02*
Y5628D01*
Y5777D02*
X43394D01*
X43246Y5182D02*
G03X43394Y5330I0J149D01*
X43246Y5479I149J0D01*
G01X43097D01*
G03X42948Y5330I0J149D01*
X43097Y5182I149J0D01*
G01X43246D01*
X43394Y5033D02*
X42948D01*
X43171Y4884D01*
X42948Y4735D01*
X43394D01*
X43182Y3928D02*
X43184Y3916D01*
X43187Y3904D01*
X43191Y3893D01*
X43198Y3882D01*
X43207Y3872D01*
X43217Y3864D01*
X43228Y3857D01*
X43241Y3851D01*
X43254Y3846D01*
X43268Y3844D01*
X43283Y3843D01*
X43294D01*
X43305Y3846D01*
X43316Y3849D01*
X43326Y3854D01*
X43336Y3861D01*
X43345Y3868D01*
X43354Y3877D01*
X43362Y3887D01*
X43370Y3898D01*
X43376Y3910D01*
X43382Y3923D01*
X43386Y3936D01*
X43390Y3950D01*
X43393Y3964D01*
X43394Y3992D01*
Y4006D01*
X43393Y4021D01*
X43391Y4035D01*
X43389Y4049D01*
X43386Y4062D01*
X43382Y4074D01*
X43378Y4085D01*
X43373Y4096D01*
X43367Y4105D01*
X43362Y4113D01*
X43355Y4120D01*
X43349Y4125D01*
X43342Y4129D01*
X43335Y4132D01*
X43328Y4133D01*
X43182Y3928D02*
X43164Y4029D01*
X43163Y4043D01*
X43160Y4057D01*
X43156Y4071D01*
X43150Y4084D01*
X43143Y4096D01*
X43134Y4107D01*
X43124Y4116D01*
X43113Y4125D01*
X43101Y4131D01*
X43088Y4136D01*
X43075Y4139D01*
X43060Y4140D01*
X43049D01*
X43038Y4137D01*
X43027Y4134D01*
X43017Y4129D01*
X43007Y4122D01*
X42997Y4115D01*
X42989Y4106D01*
X42980Y4096D01*
X42973Y4085D01*
X42967Y4073D01*
X42961Y4061D01*
X42956Y4047D01*
X42953Y4033D01*
X42950Y4019D01*
X42948Y3992D01*
X42949Y3977D01*
X42950Y3962D01*
X42951Y3948D01*
X42954Y3935D01*
X42957Y3921D01*
X42961Y3909D01*
X42965Y3898D01*
X42970Y3887D01*
X42975Y3878D01*
X42981Y3870D01*
X42987Y3863D01*
X42994Y3858D01*
X43000Y3854D01*
X43007Y3851D01*
X43015Y3850D01*
X42948Y3620D02*
Y3471D01*
Y3545D02*
X43394D01*
Y3620D02*
Y3471D01*
X42948Y3248D02*
Y3136D01*
X42949Y3124D01*
X42950Y3111D01*
X42953Y3099D01*
X42956Y3087D01*
X42961Y3075D01*
X42966Y3063D01*
X42973Y3052D01*
X42980Y3041D01*
X42988Y3030D01*
X42997Y3020D01*
X43007Y3011D01*
X43017Y3002D01*
X43028Y2993D01*
X43040Y2986D01*
X43053Y2979D01*
X43066Y2972D01*
X43079Y2967D01*
X43093Y2962D01*
X43107Y2958D01*
X43122Y2955D01*
X43137Y2953D01*
X43152Y2951D01*
X43171Y2950D01*
X43186Y2951D01*
X43201Y2952D01*
X43216Y2954D01*
X43231Y2957D01*
X43245Y2961D01*
X43259Y2965D01*
X43273Y2971D01*
X43286Y2977D01*
X43298Y2983D01*
X43311Y2991D01*
X43322Y2999D01*
X43333Y3008D01*
X43343Y3017D01*
X43352Y3027D01*
X43360Y3037D01*
X43368Y3048D01*
X43375Y3059D01*
X43380Y3071D01*
X43385Y3083D01*
X43389Y3095D01*
X43392Y3107D01*
X43394Y3120D01*
Y3136D01*
Y3248D01*
X42948D01*
Y2504D02*
Y2802D01*
X43394D01*
Y2504D01*
X43171Y2802D02*
Y2578D01*
D11*
X44400Y13110D02*
X43900Y12610D01*
X28060Y12660D02*
X30690D01*
X36250D02*
X32310D01*
X30690D02*
X31190Y12160D01*
X31810D01*
X32310Y12660D01*
X21500Y15660D02*
X22500Y16660D01*
X28060D01*
X4620Y19940D02*
X1070Y23460D01*
X13750Y13530D02*
X15120D01*
X24250Y1660D02*
X31500D01*
X6030Y16430D02*
X5190Y15600D01*
X6030Y12430D02*
X6620Y13030D01*
X9880D01*
X40900Y17360D02*
X43850D01*
X40900Y15360D02*
X43850D01*
X40900Y13360D02*
X43850D01*
X13250Y13030D02*
X11880D01*
X6030Y13430D02*
X6620Y14030D01*
X9880Y13030D02*
X12380Y15530D01*
X6620Y14030D02*
X9880D01*
X11750Y15910D01*
Y16910D01*
X12380Y17530D01*
X6030Y15430D02*
X5500Y14910D01*
X7440Y24660D02*
X17750D01*
X5500Y14910D02*
Y12210D01*
X5190Y15600D02*
Y11520D01*
X5500Y12210D02*
X5770Y11940D01*
X13250Y13030D02*
X13750Y13530D01*
X7250Y10310D02*
X15410D01*
X16110Y11940D02*
X17690Y13530D01*
X5190Y11520D02*
X5800Y10910D01*
X18120Y13530D02*
X17690D01*
X5800Y10910D02*
X6650D01*
X7250Y10310D01*
X6030Y19430D02*
X5500Y18910D01*
X15410Y10310D02*
X17500Y12410D01*
X9380Y18530D02*
X8280Y17430D01*
X17500Y12410D02*
Y12790D01*
X17740Y13030D01*
X6030Y18430D02*
X8520D01*
X17740Y13030D02*
X18310D01*
X8280Y17430D02*
X6030D01*
X18310Y13030D02*
X18620Y13350D01*
Y14030D01*
X18120Y14530D01*
X8520Y18430D02*
X9310Y19220D01*
X5500Y18910D02*
Y17210D01*
X9310Y19220D02*
X14560D01*
X5500Y17210D02*
X5770Y16940D01*
X8970D01*
X9380Y16530D01*
X6810Y25160D02*
X18250D01*
X18750Y24660D01*
X19750D02*
X20750D01*
X4620Y19940D02*
X26340D01*
X1500Y12410D02*
X880Y11790D01*
X2120Y10740D02*
Y10480D01*
X880Y11790D02*
Y11220D01*
X1190Y10910D01*
X1500Y11410D02*
X1950D01*
X1190Y10910D02*
X1950D01*
X2120Y10740D01*
Y10480D02*
X2940Y9660D01*
X19120D01*
X21500Y3660D02*
X19750Y5410D01*
X1950Y11410D02*
X2450Y10910D01*
Y10610D01*
X3150Y9910D01*
X19310D01*
X19750Y5410D02*
Y9030D01*
X21500Y4660D02*
X20060Y6100D01*
X19750Y9030D02*
X19120Y9660D01*
X20060Y6100D02*
Y9160D01*
X26340Y19940D02*
X27560Y21160D01*
X20060Y9160D02*
X19310Y9910D01*
X16110Y11940D02*
X5770D01*
X21500Y7660D02*
X25120Y4030D01*
X26000Y3160D02*
X34810D01*
X22000Y14160D02*
X43600D01*
X34810Y5160D02*
X25000D01*
X21500Y8660D01*
X34810Y9160D02*
X24690D01*
X22000D02*
X21500Y9660D01*
Y1660D02*
X22000Y1160D01*
X36690Y8160D02*
Y3230D01*
X34620Y1160D01*
X22000D02*
X25560D01*
X22440Y18600D02*
X27000D01*
X43850Y14360D02*
X43600Y14160D01*
X22000D02*
X21500Y14660D01*
X29560Y21160D02*
X27000Y18600D01*
X21500Y12660D02*
X22000Y13160D01*
X36380D01*
X36930Y12610D01*
X43900D01*
X31500Y14660D02*
X39120D01*
X43850Y18360D02*
X44400Y17810D01*
X31440Y23030D02*
X42410D01*
X44400Y17810D02*
Y13110D01*
X42410Y23030D02*
X44930Y20510D01*
X30690Y16160D02*
X27560D01*
X39120Y14660D02*
X40810Y16360D01*
X22000Y9160D02*
X24690D01*
X40810Y16360D02*
X43850D01*
X26000Y3160D02*
X25120Y4030D01*
X34620Y1160D02*
X25560D01*
X44930Y24410D02*
X44240Y25100D01*
X28560D01*
X19250Y16030D02*
X12880D01*
X9380Y17530D02*
X9880Y18030D01*
X12880Y16030D02*
X12380Y16530D01*
X14620Y17030D02*
X19620D01*
X9880Y18030D02*
X13620D01*
X14620Y17030D01*
X31500Y9660D02*
X22350D01*
X9940Y19600D02*
X27190D01*
X22350Y9660D02*
X21850Y10160D01*
X27190Y10660D02*
X31500D01*
X21850Y10160D02*
X20000D01*
X15120Y18530D02*
X15750Y19160D01*
X20000Y15030D02*
X12880D01*
X12380Y14530D01*
X15750Y19160D02*
X26820D01*
X18120Y15530D02*
X20510D01*
X26820Y8660D02*
X31500D01*
X20510Y15530D02*
X20880Y15160D01*
X26440D01*
X20750Y24660D02*
X32620D01*
X17000Y18030D02*
X19750D01*
X26440Y7660D02*
X31500D01*
X19750Y18030D02*
X19880Y18160D01*
X26000D01*
X18120Y12530D02*
X18500Y12160D01*
X26000Y6660D02*
X31500D01*
X18500Y12160D02*
X28120D01*
X9380Y12530D02*
X11380D01*
X18690Y11160D02*
X27620D01*
X36250Y12660D02*
X37620Y11290D01*
Y9790D01*
X36250Y8420D01*
X32620Y11160D02*
Y9600D01*
X36250Y8420D02*
Y3470D01*
X11880Y13030D02*
X11380Y12530D01*
X27620Y15530D02*
X29000D01*
X36250Y3470D02*
X34810Y2030D01*
D12*
X2120Y17260D02*
X4410Y14970D01*
X3700Y10410D02*
X5700D01*
X500Y10970D02*
X1060Y10410D01*
X2120Y17260D02*
Y17730D01*
X750Y19100D01*
Y18100D02*
X500Y17850D01*
X31500Y660D02*
X33250D01*
X13620Y23030D02*
X29690D01*
X31560Y21160D01*
X33600D01*
X37400Y17360D01*
X4400Y12110D02*
X4410Y14970D01*
X4400Y12110D02*
X3700Y11410D01*
X6030Y11430D02*
X6300Y11410D01*
X6800D02*
X7500Y10720D01*
X15060D01*
X15620Y11290D01*
X500Y10970D02*
Y17850D01*
X1500Y10410D02*
X1060D01*
X6030Y10430D02*
X5700Y10410D01*
X6800Y11410D02*
X6300D01*
D13*
X28060Y16660D03*
X24690Y9160D03*
X28060Y12660D03*
X34810Y2030D03*
X30690Y16160D03*
X24250Y1660D03*
X27620Y15530D03*
X7440Y24660D03*
X14560Y19220D03*
X6810Y25160D03*
X34810Y3160D03*
Y5160D03*
Y9160D03*
X36690Y8160D03*
X22440Y18600D03*
X31440Y23030D03*
X27560Y16160D03*
X25120Y4030D03*
X25560Y1160D03*
X28560Y25100D03*
X19250Y16030D03*
X19620Y17030D03*
X9940Y19600D03*
X27190D03*
Y10660D03*
X32620Y11160D03*
X20000Y10160D03*
X17000Y18030D03*
X20000Y15030D03*
X26820Y19160D03*
Y8660D03*
X26440Y15160D03*
X32620Y24660D03*
X26440Y7660D03*
X26000Y18160D03*
Y6660D03*
X28120Y12160D03*
X18690Y11160D03*
X27620D03*
X32620Y9600D03*
X29000Y15530D03*
D14*
X15620Y11290D03*
X43850Y13360D03*
Y15360D03*
X12380Y13530D03*
X43850Y17360D03*
X12380Y14530D03*
Y15530D03*
Y16530D03*
Y17530D03*
Y18530D03*
X9380D03*
Y17530D03*
Y16530D03*
Y15530D03*
Y14530D03*
Y13530D03*
Y12530D03*
X18120Y13530D03*
Y14530D03*
Y15530D03*
Y16530D03*
Y17530D03*
Y18530D03*
X15120D03*
Y17530D03*
Y16530D03*
Y15530D03*
Y14530D03*
Y13530D03*
Y12530D03*
X750Y18100D03*
X33250Y660D03*
Y2660D03*
X8880Y22240D03*
X750Y19100D03*
X13620Y22240D03*
X17620Y11290D03*
X9880D03*
X11880D03*
X8880Y24160D03*
Y26160D03*
X18750Y24660D03*
X17750D03*
Y21160D03*
X18750D03*
X19750D03*
Y24660D03*
X20750D03*
Y21160D03*
X40900Y17360D03*
X37400D03*
X40900Y15360D03*
X37400D03*
X40900Y13360D03*
X37400D03*
X30560Y21160D03*
X33250Y5870D03*
X13750Y13530D03*
Y17030D03*
X29560Y21160D03*
X28560D03*
X27560D03*
X33250Y3810D03*
X26560Y21160D03*
X25560D03*
X24560D03*
X23560D03*
X22560D03*
D15*
X36750Y1860D03*
D16*
X31500Y6660D03*
Y5660D03*
Y4660D03*
Y3660D03*
Y2660D03*
X3700Y11410D03*
X6030Y16430D03*
Y15430D03*
Y14430D03*
Y13430D03*
Y12430D03*
Y11430D03*
Y17430D03*
Y18430D03*
Y19430D03*
Y20430D03*
Y21430D03*
Y22430D03*
Y23430D03*
X31500Y1660D03*
Y7660D03*
Y8660D03*
Y9660D03*
Y10660D03*
Y11660D03*
Y12660D03*
Y13660D03*
X21500Y660D03*
X31500Y14660D03*
Y15660D03*
Y16660D03*
Y17660D03*
Y18660D03*
X21500Y1660D03*
Y2660D03*
Y3660D03*
Y4660D03*
Y5660D03*
Y6660D03*
Y7660D03*
Y8660D03*
Y9660D03*
Y10660D03*
Y11660D03*
Y12660D03*
Y13660D03*
Y14660D03*
X3700Y12410D03*
Y13410D03*
Y14410D03*
X21500Y15660D03*
Y16660D03*
Y17660D03*
Y18660D03*
X1500Y11410D03*
Y12410D03*
Y13410D03*
D17*
X1070Y23460D03*
Y21700D03*
X44930Y24410D03*
Y26170D03*
Y20510D03*
Y22270D03*
D18*
X36750Y10060D03*
D19*
X2050Y23960D03*
Y21200D03*
X43950Y23910D03*
Y26670D03*
Y20010D03*
Y22770D03*
D20*
X1850Y29210D03*
Y27210D03*
D21*
X6850Y30060D03*
Y28210D03*
D22*
X34600Y16560D03*
D24*
X31560Y21160D03*
X43850Y14360D03*
X12380Y12530D03*
X43850Y16360D03*
Y18360D03*
X18120Y12530D03*
X3250Y18100D03*
X8880Y23030D03*
X3250Y19100D03*
X13620Y23030D03*
X33250Y6660D03*
Y4600D03*
D25*
X3700Y10410D03*
X6030Y10430D03*
X31500Y660D03*
X1500Y10410D03*
D26*
X6850Y26360D03*
M02*
