G04 DipTrace 3.3.1.3*
G04 BottomMask.gbr*
%MOIN*%
G04 #@! TF.FileFunction,Soldermask,Bot*
G04 #@! TF.Part,Single*
%ADD21R,0.035433X0.027559*%
%ADD32O,0.070866X0.035433*%
%ADD33O,0.082677X0.035433*%
%ADD39R,0.07874X0.023622*%
%ADD40R,0.057087X0.068898*%
%ADD41R,0.088583X0.068898*%
%ADD50R,0.011024X0.033465*%
%ADD51R,0.033465X0.011024*%
%ADD52R,0.080709X0.080709*%
%ADD63C,0.11811*%
%ADD64C,0.137795*%
%ADD65C,0.025591*%
%ADD66C,0.049213*%
%ADD97C,0.082677*%
%ADD99C,0.070866*%
%ADD111C,0.067874*%
%ADD113R,0.067874X0.067874*%
%FSLAX26Y26*%
G04*
G70*
G90*
G75*
G01*
G04 BotMask*
%LPD*%
D21*
X1318701Y2831201D3*
X1267520D3*
X1318701Y2781201D3*
X1267520D3*
D63*
X1924932Y1368701D3*
D64*
X1199951Y2031201D3*
D63*
X468702Y2943701D3*
D113*
X749951Y1006201D3*
D111*
X849951D3*
X949951D3*
X1049951D3*
X1149951D3*
X1249951D3*
X1349951D3*
X1449951D3*
X1549951D3*
X1649951D3*
Y1106201D3*
X1549951D3*
X1449951D3*
X1349951D3*
X1249951D3*
X1149951D3*
X1049951D3*
X949951D3*
X849951D3*
X749951D3*
D32*
X444195Y1757382D3*
Y1417224D3*
D33*
X608761Y1757382D3*
Y1417224D3*
D65*
X589076Y1701082D3*
Y1473523D3*
D99*
X1893469Y3450646D3*
X1716303D3*
D97*
X1942681Y3352220D3*
X1667091D3*
D99*
X678633Y3450630D3*
X501467D3*
D97*
X727845Y3352205D3*
X452255D3*
D39*
X1431613Y2981201D3*
Y2937894D3*
Y2894587D3*
Y2851280D3*
Y2807972D3*
Y2764665D3*
Y2721358D3*
Y2678051D3*
Y2634744D3*
D40*
X1455196Y3040295D3*
X1455547Y2451496D3*
D41*
X1833432Y2415185D3*
X1833297Y3026803D3*
D66*
X1843789Y2915965D3*
Y2601516D3*
D50*
X518702Y2631201D3*
X538387D3*
X558072D3*
X577757D3*
X597442D3*
Y2495374D3*
X577757D3*
X558072D3*
X538387D3*
X518702D3*
D51*
X490159Y2533760D3*
Y2592815D3*
X625986Y2533760D3*
Y2592815D3*
D52*
X558072Y2563287D3*
D50*
X1506201Y1724951D3*
X1525886D3*
X1545571D3*
X1565256D3*
X1584941D3*
Y1589125D3*
X1565256D3*
X1545571D3*
X1525886D3*
X1506201D3*
D51*
X1477657Y1627510D3*
Y1686566D3*
X1613484Y1627510D3*
Y1686566D3*
D52*
X1545571Y1657038D3*
D50*
X1768702Y1724951D3*
X1788387D3*
X1808072D3*
X1827757D3*
X1847442D3*
Y1589125D3*
X1827757D3*
X1808072D3*
X1788387D3*
X1768702D3*
D51*
X1740159Y1627510D3*
Y1686566D3*
X1875986Y1627510D3*
Y1686566D3*
D52*
X1808072Y1657038D3*
M02*
