M48
INCH
T01C0.0157
T02C0.0236
T03C0.0256
T04C0.038
T05C0.0394
T06C0.0492
T07C0.0512
T08C0.1181
T09C0.1378
%
T01
X+007312Y+015595
X+007312Y+015970
X+006875Y+016812
X+006875Y+014916
X+009875Y+014562
X+010125Y+014187
X+011250Y+014875
X+011625Y+015625
X+011625Y+016000
X+011290Y+016952
X+012330Y+017500
X+013062Y+017375
X+014125Y+017062
X+014125Y+016250
X+013375Y+015125
X+016437Y+015375
X+016750Y+015812
X+016750Y+016187
X+017000Y+017875
X+016000Y+018125
X+017812Y+018875
X+018437Y+018562
X+019224Y+016500
X+015625Y+021312
X+015250Y+022062
X+014562Y+023000
X+016500Y+023937
X+016500Y+024625
X+016107Y+025063
X+016125Y+026056
X+016125Y+026937
X+016562Y+027625
X+016437Y+028562
X+016062Y+028562
X+016125Y+029062
X+016250Y+030062
X+016017Y+030812
X+016437Y+032250
X+017000Y+032562
X+012250Y+030437
X+011625Y+030062
X+011000Y+030437
X+011000Y+029687
X+012250Y+029687
X+011250Y+027875
X+013187Y+027393
X+013147Y+026740
X+012812Y+026437
X+013437Y+026375
X+009250Y+026062
X+008000Y+025562
X+006614Y+027458
X+006312Y+028562
X+006125Y+029062
X+007937Y+029562
X+007937Y+030062
X+007000Y+030750
X+007937Y+028062
X+004875Y+026937
X+005577Y+025635
X+004899Y+024265
X+006437Y+022375
X+007184Y+019684
X+009625Y+018562
X+009187Y+016937
X+017500Y+022812
X+018335Y+024808
X+018000Y+027437
X+011292Y+031742
X+010250Y+030750
X+009875Y+032500
T02
X+004599Y+017574G85X+004284Y+017574
X+006304Y+017574G85X+005871Y+017574
X+006304Y+014172G85X+005871Y+014172
X+004599Y+014172G85X+004284Y+014172
T03
X+005891Y+017011
X+005891Y+014735
T04
X+007500Y+010062
X+008500Y+010062
X+009500Y+010062
X+010500Y+010062
X+011500Y+010062
X+012500Y+010062
X+013500Y+010062
X+014500Y+010062
X+015500Y+010062
X+016500Y+010062
X+016500Y+011062
X+015500Y+011062
X+014500Y+011062
X+013500Y+011062
X+012500Y+011062
X+011500Y+011062
X+010500Y+011062
X+009500Y+011062
X+008500Y+011062
X+007500Y+011062
T05
X+018935Y+034506
X+017163Y+034506
X+006786Y+034506
X+005015Y+034506
T06
X+018438Y+029160
X+018438Y+026015
T07
X+019427Y+033522
X+016671Y+033522
X+007278Y+033522
X+004523Y+033522
T08
X+019249Y+013687
X+004687Y+029437
T09
X+012000Y+020312
T00
M30
