G04 DipTrace 3.3.1.3*
G04 Top.gbr*
%MOIN*%
G04 #@! TF.FileFunction,Copper,L1,Top*
G04 #@! TF.Part,Single*
%AMOUTLINE0*
4,1,4,
-0.017717,-0.01378,
-0.017717,0.01378,
0.017717,0.01378,
0.017717,-0.01378,
-0.017717,-0.01378,
0*%
G04 #@! TA.AperFunction,Conductor*
%ADD14C,0.007874*%
%ADD15C,0.015748*%
%ADD16C,0.011811*%
%ADD17C,0.019685*%
G04 #@! TA.AperFunction,CopperBalancing*
%ADD18C,0.025*%
%ADD19C,0.012992*%
%ADD20R,0.027559X0.035433*%
%ADD21R,0.035433X0.027559*%
%ADD22R,0.102362X0.094488*%
%ADD24R,0.031496X0.023622*%
%ADD26R,0.047244X0.047244*%
G04 #@! TA.AperFunction,ComponentPad*
%ADD28R,0.06X0.06*%
%ADD29C,0.06*%
%ADD30R,0.044882X0.011811*%
%ADD31R,0.044882X0.023622*%
G04 #@! TA.AperFunction,ComponentPad*
%ADD32O,0.070866X0.035433*%
%ADD33O,0.082677X0.035433*%
%ADD35R,0.035433X0.015748*%
G04 #@! TA.AperFunction,ComponentPad*
%ADD36C,0.062992*%
%ADD37C,0.074803*%
%ADD42R,0.07874X0.035433*%
%ADD43R,0.19685X0.11811*%
%ADD45O,0.033465X0.011811*%
%ADD46O,0.011811X0.033465*%
%ADD47R,0.096457X0.096457*%
%ADD55R,0.023622X0.043307*%
%ADD56R,0.047244X0.086614*%
G04 #@! TA.AperFunction,ViaPad*
%ADD62C,0.031*%
%ADD129OUTLINE0*%
%FSLAX26Y26*%
G04*
G70*
G90*
G75*
G01*
G04 Top*
%LPD*%
X1284894Y1357420D2*
D14*
X1351172D1*
X1381202Y1387450D1*
Y1531201D1*
X1367483Y1544920D1*
X1298573D1*
X718701Y2143751D2*
D15*
Y2185762D1*
Y2237453D1*
X638873Y2317281D1*
Y2542280D1*
Y2694016D1*
X556202Y2776686D1*
Y2922297D1*
Y3033543D1*
X549971D1*
X662451Y2182383D2*
D16*
X715322D1*
X718701Y2185762D1*
X860934Y3206201D2*
D15*
X761222D1*
Y3205014D1*
X1713633Y2906201D2*
D16*
X1718702D1*
X1743702Y2881201D1*
Y2856201D1*
X1744883D1*
Y2832382D1*
X1718702Y2806201D1*
X1713633D1*
X1656201Y2762451D2*
X1693702D1*
X1713633Y2782382D1*
Y2806201D1*
Y2506201D2*
Y2605614D1*
X1761864D1*
X1793701Y2637451D1*
Y2681200D1*
X1831201Y2718701D1*
Y2768701D1*
X1793701Y2806201D1*
X1713633D1*
X1643701Y3224951D2*
X1674951D1*
X1713633Y3186270D1*
Y3156201D1*
X860934Y3206201D2*
X935640D1*
X967668Y3174173D1*
X1129231D1*
X1713633Y2906201D2*
X1681201Y2938633D1*
Y3123769D1*
X1713633Y3156201D1*
Y2662451D2*
Y2605614D1*
X718701Y2143751D2*
D14*
Y2118702D1*
X737451Y2099951D1*
X874950D1*
X1137451Y1837450D1*
X1256202D1*
X1381202Y1712450D1*
Y1705509D1*
Y1531201D1*
Y1705509D2*
X1412451D1*
X1455510D1*
X1456202Y1706201D1*
X1412451D2*
Y1705509D1*
X1674951Y1618701D2*
X1543702D1*
X1456202Y1706201D1*
X487451Y2693701D2*
X638873Y2542280D1*
X761222Y3205014D2*
D15*
Y3067471D1*
X662451Y2968701D1*
X602606D1*
X556202Y2922297D1*
X1368701Y1287450D2*
D14*
Y1124950D1*
X1349951Y1106201D1*
X1449951D2*
Y1287450D1*
X1149951D2*
Y1106201D1*
X1249951Y1006201D2*
D16*
X1299951Y1056201D1*
X1474951D1*
X1499951Y1081201D1*
Y1131201D1*
X1556201Y1187450D1*
Y1287450D1*
Y1393699D1*
X1599951Y1437450D1*
Y1456201D1*
X1218702Y693701D2*
D17*
Y881488D1*
Y974951D1*
X1249951Y1006201D1*
X608440Y1896217D2*
Y1895938D1*
X512451Y1799950D1*
Y924950D1*
X555913Y881488D1*
X1218702D1*
X1299951Y1056201D2*
D14*
Y1287450D1*
X1317520D1*
X1501133D2*
X1556201D1*
X1201133D2*
X1317520D1*
X1034735Y1653953D2*
Y1683916D1*
X1018701Y1699950D1*
X999953D1*
X949951Y1749951D1*
X947797D1*
X1643701Y2856201D2*
X1693702D1*
X1612451Y2605614D2*
X1662451D1*
X1549951Y1006201D2*
X1599951Y1056201D1*
Y1326133D1*
X1623770Y1349951D1*
X1207904Y1471445D2*
X1239042D1*
X1264633Y1445854D1*
X1294518D1*
X1054420Y1504346D2*
Y1457983D1*
X1068702Y1443701D1*
X1131201D1*
X1158945Y1471445D1*
X1207904D1*
X1233713Y1357420D2*
Y1391692D1*
X1207904Y1417500D1*
Y1420264D1*
X1233713Y1391692D2*
X1331470D1*
X1343508Y1403730D1*
X918702Y1693701D2*
X912450Y1687449D1*
Y1412453D1*
X974951Y1349951D1*
X1093701D1*
X1164013Y1420264D1*
X1207904D1*
X860934Y3156201D2*
X943702D1*
X1024951Y3074951D1*
X1099695Y1549622D2*
X1054420D1*
X1024892Y1579150D1*
X1343508Y1454911D2*
Y1512451D1*
X1337451D1*
X1161328Y3008091D2*
X1135562D1*
X1099951Y3043701D1*
Y2968701D1*
X1224951D1*
Y3043701D2*
Y2968701D1*
X1162451Y3006201D2*
X1137451D1*
X1099951Y3043701D1*
X1099695Y1549622D2*
X1119031D1*
X1143702Y1524951D1*
X1174951D1*
X1193701Y1543701D1*
Y1565458D1*
X1265282Y1637039D1*
X608761Y1417224D2*
X665458D1*
X681206Y1432972D1*
Y1445567D1*
X815454D1*
X831202Y1461315D1*
Y1499950D1*
X749951Y1006201D2*
X849951D1*
X501467Y3450630D2*
X505614D1*
X547474Y3408770D1*
Y3268958D1*
X560237Y3256196D1*
X761222D1*
X662451Y2131202D2*
Y2074950D1*
X608761Y1757382D2*
X665458D1*
Y1713287D1*
X631202D1*
X681206Y1445567D2*
X665454Y1461319D1*
X631202D1*
X1833508Y2480778D2*
X1815181Y2462451D1*
X1649951D1*
X1265280Y1693701D2*
Y1637039D1*
X1265282D1*
X1177108Y1801133D2*
X1249533D1*
X1265280Y1785386D1*
Y1693701D1*
X1119780Y1801131D2*
X1177108D1*
Y1801133D1*
X1005122D2*
X1001134D1*
X1030663Y1830661D1*
X1094240D1*
X1119780Y1805122D1*
Y1801131D1*
X831202Y1662450D2*
Y1711776D1*
X879297Y1759870D1*
Y1868458D1*
X895043Y1884205D1*
X990697D1*
X1005122Y1869780D1*
Y1801133D1*
X818260Y1606201D2*
Y1659009D1*
X831202Y1662450D1*
X818259Y1556201D2*
Y1606201D1*
X818260D1*
X831202Y1499950D2*
X818259Y1503394D1*
Y1556201D1*
X849951Y1006201D2*
X949951D1*
X861328Y3256201D2*
X931803D1*
X986520Y3201484D1*
X1145580D1*
X1161328Y3185736D1*
Y3008092D1*
X1162451Y3006201D1*
X761222Y3256196D2*
X809751D1*
X809756Y3256201D1*
X861328D1*
X1699951D2*
X1538966Y3256240D1*
X662451Y2074950D2*
X749953D1*
X756102Y2068801D1*
Y2037451D1*
X860938Y2556541D2*
X799951D1*
Y2556201D1*
X1143702Y1524951D2*
X1124951Y1506201D1*
Y1487450D1*
X444195Y1417224D2*
Y818208D1*
X568702Y693701D1*
X966720D1*
X1699951Y3256201D2*
Y3249950D1*
X1743441Y3206461D1*
X1774932Y3174970D1*
Y3082382D1*
X662451Y2074950D2*
X604631D1*
X518701D1*
X444195Y2000444D1*
Y1757382D1*
X1743441Y3206461D2*
Y3423508D1*
X1716303Y3450646D1*
X665458Y1757382D2*
Y1928194D1*
X604631Y1989021D1*
Y2074950D1*
X1699951Y1787451D2*
Y1704232D1*
X799951Y2556201D2*
Y2318701D1*
X949951Y2168701D1*
X1274951D1*
X1368702Y2074950D1*
X1862453D1*
X1893702Y2043701D1*
Y1824951D1*
X1856202Y1787451D1*
X1699951D1*
X662451Y2131202D2*
X581222D1*
X452362Y2260062D1*
Y2458184D1*
X557671Y2563492D1*
X661390Y2745782D2*
Y2740497D1*
X698770Y2777877D1*
Y2806201D1*
X1294518Y1471445D2*
Y1497794D1*
X1247392Y1544920D1*
Y1572391D1*
X1268702Y1593701D1*
X1293701D1*
X1306201Y1606201D1*
Y1737451D1*
X987451Y3249950D2*
X1243702D1*
X1281202Y3212450D1*
Y2643701D1*
X1538969Y2606581D2*
X1318322D1*
X1281202Y2643701D1*
X860934Y2606201D2*
X924951D1*
X1649951Y2393701D2*
X1899951D1*
X1924951Y2418701D1*
Y3062450D1*
X1905020Y3082382D1*
X1849951D1*
X1562451Y2131201D2*
X1387451D1*
X1012112Y2506541D1*
X860938D1*
X1781201Y1887450D2*
X1162453D1*
X768701Y2281202D1*
Y2618699D1*
X806202Y2656201D1*
X860934D1*
X1662451Y2506201D2*
X1610730D1*
X1539349D1*
X1538969Y2506581D1*
X1610730Y2506331D2*
Y2506201D1*
X1606202Y2856201D2*
X1538966D1*
Y2856240D1*
X1662451Y2906201D2*
X1612451D1*
X1538966Y2906240D2*
X1612412D1*
X1612451Y2906201D1*
X624951Y3031201D2*
X656201D1*
X699951Y3074951D1*
X1124951Y2787451D2*
Y2718701D1*
X1287071Y2556581D1*
X1538969D1*
X1538966Y3006240D2*
X1624951Y3006201D1*
X1507383Y1706201D2*
X1597983D1*
X1599951Y1704232D1*
Y1812451D2*
Y1704232D1*
X1601711Y3081220D2*
Y3156240D1*
X1538966D1*
Y3206240D2*
X1606163D1*
X1662451Y3149951D1*
Y3156201D1*
X1538966Y3206240D2*
X1337491D1*
X1318702Y3187451D1*
Y2739297D1*
X1643701Y1537451D2*
X1809908D1*
X1922407Y1649950D1*
X749951Y2806201D2*
X793701D1*
X860934D1*
X793701D2*
D3*
X860934D2*
X906202D1*
X1468702Y2243701D1*
X1893702D1*
X1922407Y2214996D1*
Y1649950D1*
X1524951Y2206201D2*
X1474951D1*
X924951Y2756201D1*
X860934D1*
X1843702Y1856201D2*
X1156202D1*
X737451Y2274951D1*
Y2662450D1*
X781202Y2706201D1*
X860934D1*
X612451Y2906201D2*
X860934D1*
X631202Y2856201D2*
X860934D1*
X793701Y3006201D2*
X860934D1*
X793701Y2956201D2*
X860934D1*
X1749951Y2281201D2*
X1531201D1*
X1487451Y2324950D1*
X1468702D1*
X1012451Y2781201D1*
Y3031201D1*
X937451Y3106201D1*
X860934D1*
X1456202Y2299951D2*
X987451Y2768702D1*
Y2993701D1*
X924951Y3056201D1*
X860934D1*
X1538969Y2656581D2*
X1656581D1*
X1662451Y2662451D1*
Y2693701D1*
X1712451Y2743701D1*
X1799951D1*
X1538969Y2806581D2*
X1612071D1*
Y2806201D1*
X1662451D1*
X1612451Y2693701D2*
X1612071Y2806201D1*
X631202Y1636516D2*
X754087D1*
X780021Y1662450D1*
X631202Y1518406D2*
X761566D1*
X780021Y1499950D1*
X549971Y3084724D2*
X622609D1*
X624951Y3082382D1*
X1774932Y3031201D2*
X1849951D1*
X1699951Y1456201D2*
Y1374951D1*
X1674951Y1349951D1*
X1054420Y1653953D2*
Y1707982D1*
X1040591Y1721811D1*
X1033262D1*
X1005122Y1749951D1*
X1062453D2*
Y1743673D1*
X1040591Y1721811D1*
X1207904Y1445854D2*
X1243441D1*
X1269031Y1420264D1*
X1294518D1*
X975680Y1504346D2*
Y1494428D1*
X949953Y1468701D1*
Y1418699D1*
X987451Y1381201D1*
X1093701D1*
X1158354Y1445854D1*
X1207904D1*
X631202Y1681791D2*
D17*
X686861D1*
X687451Y1681201D1*
X631202Y1492815D2*
X686223D1*
X687451Y1491587D1*
X1177108Y1749951D2*
D16*
X1119780D1*
Y1749950D1*
X1074105Y1653953D2*
Y1699102D1*
X1119780Y1744777D1*
Y1749950D1*
X1062453Y1801133D2*
X1068597D1*
X1119780Y1749950D1*
X843860Y1827215D2*
D17*
X833466D1*
X687451Y1681201D1*
X1177108Y1749951D2*
D16*
X1233012D1*
Y1749953D1*
X631202Y1597146D2*
D14*
X608512D1*
G03X609118Y1557776I703J-19679D01*
G01*
X631202D1*
X729465D1*
X731157Y1559469D1*
X774951Y1556201D2*
X734425D1*
X731157Y1559469D1*
X1099696Y1569307D2*
X1155596D1*
X1162451Y1562451D1*
X631202Y1616831D2*
X654491Y1615194D1*
G02X675176Y1598226I2433J-18126D01*
G01*
G02X654780Y1578903I-18251J-1161D01*
G01*
Y1577461D1*
X631202D1*
X675176Y1598226D2*
X729899D1*
X731157Y1596967D1*
X774953Y1606201D2*
X740391D1*
X731157Y1596967D1*
X1099696Y1588992D2*
X1151493D1*
X1162451Y1599950D1*
X995365Y1504346D2*
Y1464114D1*
X987451Y1456201D1*
X1314654Y2674043D2*
X1349951Y2709341D1*
Y3056201D1*
X1399991Y3106240D1*
X1538966D1*
X1015050Y1504346D2*
Y1421298D1*
X1012453Y1418701D1*
X1343701Y2637451D2*
X1381201Y2674951D1*
Y2999950D1*
X1437491Y3056240D1*
X1538966D1*
X718701Y2037451D2*
D17*
X718676Y1967860D1*
Y1896217D1*
X793504Y2037451D2*
D14*
Y1987807D1*
X843860Y1937451D1*
X662451Y2023769D2*
D16*
X705018D1*
X718701Y2037451D1*
X843860Y1937451D2*
D17*
X781201D1*
X750793Y1967860D1*
X718676D1*
X718411Y1968442D2*
X718676Y1967860D1*
X1674951Y1581201D2*
D14*
X1456201D1*
X1412451Y1624950D1*
X489925Y2426488D2*
Y2391227D1*
X643701Y2237451D1*
X1214098Y1693701D2*
Y1637039D1*
X1214101D1*
X1099696Y1608677D2*
X1121657D1*
X1141343Y1628362D1*
X1150020Y1637039D1*
X1214101D1*
X1099696Y1628362D2*
X1141343D1*
X1129047Y1695167D2*
X1214098D1*
Y1693701D1*
X947797Y1801133D2*
Y1841546D1*
X962451Y1856201D1*
D62*
X731157Y1559469D3*
Y1596967D3*
X687451Y1681201D3*
Y1491587D3*
X1162451Y1599950D3*
Y1562451D3*
X962451Y1856201D3*
X1129047Y1695167D3*
X987451Y1456201D3*
X1012453Y1418701D3*
X1314654Y2674043D3*
X1343701Y2637451D3*
X1337451Y1512451D3*
X1318702Y2739297D3*
X718411Y1968442D3*
X1643701Y2856201D3*
X1612451Y2605614D3*
X1162451Y3006201D3*
X1099951Y3043701D3*
Y2968701D3*
X1224951Y3043701D3*
Y2968701D3*
X1612451Y2693701D3*
X1624951Y3006201D3*
X1612451Y2906201D3*
X1656201Y2762451D3*
X1610730Y2506331D3*
X1843702Y1856201D3*
X699951Y3074951D3*
X1124951Y2787451D3*
X987451Y3249950D3*
X1799951Y2743701D3*
X1781201Y1887450D3*
X1281202Y2643701D3*
X799951Y2556201D3*
X1699951Y1787451D3*
X1749951Y2281201D3*
X1562451Y2131201D3*
X1524951Y2206201D3*
X1456202Y2299951D3*
X631202Y2856201D3*
X1124951Y1487450D3*
X612451Y2906201D3*
X793701Y2956201D3*
Y3006201D3*
X924951Y2606201D3*
X1649951Y2393701D3*
X793701Y2806201D3*
X557671Y2563492D3*
X1599951Y1812451D3*
X1412451Y1624950D3*
Y1706201D3*
X1674951Y1618701D3*
Y1581201D3*
X1922407Y1649950D3*
X1643701Y1537451D3*
X487451Y2693701D3*
X643701Y2237451D3*
X489925Y2426488D3*
X661390Y2745782D3*
X1643701Y3224951D3*
X1129231Y3174173D3*
X1024951Y3074951D3*
X918702Y1693701D3*
X1699951Y3256201D3*
X1649951Y2462451D3*
X1833508Y2480778D3*
X1306201Y1737451D3*
X1606202Y2856201D3*
X1601711Y3081220D3*
X1233012Y1749953D3*
X433750Y3237399D2*
D18*
X723575D1*
X924574D2*
X950291D1*
X1294540D2*
X1475707D1*
X1703584D2*
X1959964D1*
X433750Y3212530D2*
X723575D1*
X970398D2*
X1242819D1*
X1728452D2*
X1959964D1*
X433750Y3187661D2*
X723575D1*
X1166039D2*
X1253405D1*
X1755221D2*
X1959964D1*
X433750Y3162793D2*
X729460D1*
X1166792D2*
X1253405D1*
X1346500D2*
X1475707D1*
X1755221D2*
X1959964D1*
X433750Y3137924D2*
X729460D1*
X1000290D2*
X1119987D1*
X1138472D2*
X1253405D1*
X1346500D2*
X1475707D1*
X1755221D2*
X1959964D1*
X433750Y3113055D2*
X512324D1*
X662620D2*
X729460D1*
X1025158D2*
X1253405D1*
X1346500D2*
X1368521D1*
X1629519D2*
X1651432D1*
X1711550D2*
X1737267D1*
X1887598D2*
X1959964D1*
X433750Y3088186D2*
X512324D1*
X1640428D2*
X1651432D1*
X1710976D2*
X1737267D1*
X1937513D2*
X1959964D1*
X433750Y3063318D2*
X512324D1*
X1395375D2*
X1406271D1*
X1636445D2*
X1651432D1*
X1710976D2*
X1737267D1*
X433750Y3038449D2*
X512324D1*
X1710976D2*
X1737267D1*
X1887598D2*
X1897147D1*
X1433125Y3013580D2*
X1475707D1*
X1710976D2*
X1737267D1*
X1887598D2*
X1897147D1*
X726314Y2988711D2*
X758741D1*
X924179D2*
X954131D1*
X1409011D2*
X1470612D1*
X1710976D2*
X1897131D1*
X701446Y2963843D2*
X755117D1*
X924179D2*
X959657D1*
X1409011D2*
X1470612D1*
X1607343D2*
X1651432D1*
X1710976D2*
X1802146D1*
X1885445D2*
X1897170D1*
X631867Y2938974D2*
X758598D1*
X924179D2*
X959657D1*
X1409011D2*
X1470612D1*
X1755221D2*
X1783881D1*
X924179Y2914105D2*
X959657D1*
X1040265D2*
X1253405D1*
X1409011D2*
X1470612D1*
X1755221D2*
X1779467D1*
X924179Y2889236D2*
X959657D1*
X1040265D2*
X1253405D1*
X1409011D2*
X1475707D1*
X503222Y2864367D2*
X524453D1*
X924179D2*
X959657D1*
X1040265D2*
X1253405D1*
X1409011D2*
X1475707D1*
X1786476D2*
X1807205D1*
X1880385D2*
X1897131D1*
X433750Y2839499D2*
X524453D1*
X587945D2*
X595827D1*
X924179D2*
X959657D1*
X1040265D2*
X1253405D1*
X1409011D2*
X1475707D1*
X1786476D2*
X1897131D1*
X433750Y2814630D2*
X524453D1*
X587945D2*
X657189D1*
X936057D2*
X959657D1*
X1040265D2*
X1097524D1*
X1152367D2*
X1253405D1*
X1409011D2*
X1475707D1*
X1826344D2*
X1897131D1*
X433750Y2789761D2*
X524453D1*
X587945D2*
X657189D1*
X1042202D2*
X1085646D1*
X1164245D2*
X1253405D1*
X1409011D2*
X1470612D1*
X1851211D2*
X1897131D1*
X433750Y2764892D2*
X526929D1*
X611843D2*
X797676D1*
X1067070D2*
X1093289D1*
X1156637D2*
X1253405D1*
X1409011D2*
X1470612D1*
X1860972D2*
X1897131D1*
X433750Y2740024D2*
X548998D1*
X636711D2*
X797676D1*
X1152762D2*
X1253405D1*
X1409011D2*
X1470612D1*
X1860972D2*
X1897131D1*
X433750Y2715155D2*
X454946D1*
X519944D2*
X573866D1*
X661579D2*
X751851D1*
X1166792D2*
X1253405D1*
X1409011D2*
X1470612D1*
X1722208D2*
X1774120D1*
X1860757D2*
X1897131D1*
X433750Y2690286D2*
X448235D1*
X529166D2*
X598734D1*
X670622D2*
X726984D1*
X924179D2*
X952588D1*
X1191660D2*
X1253405D1*
X1409011D2*
X1470612D1*
X1755221D2*
X1765472D1*
X1843855D2*
X1897131D1*
X433750Y2665417D2*
X461297D1*
X554034D2*
X607131D1*
X670622D2*
X709831D1*
X924179D2*
X977455D1*
X1216528D2*
X1248919D1*
X1407145D2*
X1470612D1*
X1755221D2*
X1763929D1*
X1823473D2*
X1897131D1*
X433750Y2640549D2*
X502313D1*
X578902D2*
X607131D1*
X670622D2*
X709652D1*
X940866D2*
X1002323D1*
X1385076D2*
X1475707D1*
X433750Y2615680D2*
X527181D1*
X670622D2*
X709652D1*
X963078D2*
X1027191D1*
X433750Y2590811D2*
X552048D1*
X670622D2*
X709652D1*
X960961D2*
X1052059D1*
X433750Y2565942D2*
X576916D1*
X670622D2*
X709652D1*
X924179D2*
X1076926D1*
X1602211D2*
X1683836D1*
X1743415D2*
X1790699D1*
X433750Y2541073D2*
X601784D1*
X670622D2*
X709652D1*
X924179D2*
X1101794D1*
X1755221D2*
X1828198D1*
X1859393D2*
X1897131D1*
X433750Y2516205D2*
X607131D1*
X670622D2*
X709652D1*
X1040731D2*
X1126662D1*
X1315748D2*
X1475707D1*
X1755221D2*
X1897131D1*
X433750Y2491336D2*
X607131D1*
X670622D2*
X709652D1*
X1065599D2*
X1151530D1*
X1340615D2*
X1470612D1*
X1755221D2*
X1897131D1*
X433750Y2466467D2*
X607131D1*
X670622D2*
X709652D1*
X929311D2*
X1013878D1*
X1090467D2*
X1176397D1*
X1365483D2*
X1470612D1*
X1607343D2*
X1897131D1*
X433750Y2441598D2*
X453797D1*
X526044D2*
X607131D1*
X670622D2*
X709652D1*
X929311D2*
X1038746D1*
X1115334D2*
X1201265D1*
X1390351D2*
X1470612D1*
X1607343D2*
X1897131D1*
X433750Y2416730D2*
X451860D1*
X527982D2*
X607131D1*
X670622D2*
X709652D1*
X929311D2*
X1063613D1*
X1140202D2*
X1226133D1*
X1415219D2*
X1470612D1*
X1607343D2*
X1618670D1*
X433750Y2391861D2*
X462123D1*
X527587D2*
X607131D1*
X670622D2*
X709652D1*
X929311D2*
X1088481D1*
X1165070D2*
X1251000D1*
X1440086D2*
X1470612D1*
X1936401D2*
X1959964D1*
X433750Y2366992D2*
X475866D1*
X552455D2*
X607131D1*
X670622D2*
X709652D1*
X929311D2*
X1113349D1*
X1189938D2*
X1275868D1*
X1607343D2*
X1622043D1*
X1677891D2*
X1959964D1*
X433750Y2342123D2*
X500734D1*
X577323D2*
X607131D1*
X670622D2*
X709652D1*
X929311D2*
X1138216D1*
X1214841D2*
X1300736D1*
X1607343D2*
X1959964D1*
X433750Y2317255D2*
X525602D1*
X682751D2*
X709652D1*
X929311D2*
X1163120D1*
X1239709D2*
X1325604D1*
X1607343D2*
X1739707D1*
X1760173D2*
X1959964D1*
X433750Y2292386D2*
X550469D1*
X796503D2*
X1187988D1*
X1264577D2*
X1350471D1*
X1787589D2*
X1959964D1*
X433750Y2267517D2*
X575337D1*
X820689D2*
X1212856D1*
X1289445D2*
X1375339D1*
X1904787D2*
X1959964D1*
X433750Y2242648D2*
X600205D1*
X845557D2*
X1237723D1*
X1314312D2*
X1400207D1*
X1933063D2*
X1959964D1*
X433750Y2217780D2*
X610001D1*
X870425D2*
X1262591D1*
X1339180D2*
X1425075D1*
X1562451D2*
X1881342D1*
X1950072D2*
X1959971D1*
X433750Y2192911D2*
X624786D1*
X750464D2*
X781205D1*
X895293D2*
X1287459D1*
X1364048D2*
X1449942D1*
X1561841D2*
X1894583D1*
X1950216D2*
X1959994D1*
X433750Y2168042D2*
X624786D1*
X920160D2*
X1312327D1*
X1388915D2*
X1558384D1*
X1566505D2*
X1894583D1*
X1950216D2*
X1959994D1*
X433750Y2143173D2*
X624786D1*
X945028D2*
X1129963D1*
X1269959D2*
X1337194D1*
X1599843D2*
X1894583D1*
X1950216D2*
X1959994D1*
X433750Y2118304D2*
X624786D1*
X969896D2*
X1099964D1*
X1299959D2*
X1362062D1*
X1599484D2*
X1894583D1*
X1950216D2*
X1959994D1*
X433750Y2093436D2*
X624786D1*
X994764D2*
X1082488D1*
X1317434D2*
X1894583D1*
X1950216D2*
X1959994D1*
X433750Y2068567D2*
X624786D1*
X829194D2*
X868044D1*
X1019631D2*
X1072154D1*
X1327733D2*
X1894583D1*
X1950216D2*
X1959994D1*
X433750Y2043698D2*
X624786D1*
X829194D2*
X892912D1*
X1044499D2*
X1067309D1*
X1332577D2*
X1894583D1*
X1950216D2*
X1959994D1*
X433750Y2018829D2*
X624786D1*
X829194D2*
X917780D1*
X1332613D2*
X1894583D1*
X1950216D2*
X1959994D1*
X433750Y1993961D2*
X624786D1*
X825641D2*
X942648D1*
X1327769D2*
X1894583D1*
X1950216D2*
X1959994D1*
X433750Y1969092D2*
X679042D1*
X891345D2*
X967515D1*
X1317506D2*
X1894583D1*
X1950216D2*
X1959994D1*
X433750Y1944223D2*
X684963D1*
X891345D2*
X992383D1*
X1300066D2*
X1894583D1*
X1950216D2*
X1959994D1*
X433750Y1919354D2*
X560948D1*
X655945D2*
X671184D1*
X891345D2*
X1017251D1*
X1270139D2*
X1760197D1*
X1802194D2*
X1894583D1*
X1950216D2*
X1959994D1*
X433750Y1894486D2*
X560338D1*
X655945D2*
X671184D1*
X766181D2*
X796348D1*
X891345D2*
X1042119D1*
X1819885D2*
X1894583D1*
X1950216D2*
X1959994D1*
X433750Y1869617D2*
X535470D1*
X655945D2*
X671184D1*
X766181D2*
X796348D1*
X891345D2*
X925603D1*
X999285D2*
X1066986D1*
X1880565D2*
X1894583D1*
X1950216D2*
X1959994D1*
X433750Y1844748D2*
X510602D1*
X603913D2*
X796348D1*
X891345D2*
X920184D1*
X1000003D2*
X1091854D1*
X1881247D2*
X1894583D1*
X1950216D2*
X1959994D1*
X433750Y1819879D2*
X485914D1*
X579045D2*
X779482D1*
X891345D2*
X910137D1*
X1312052D2*
X1561327D1*
X1638562D2*
X1834836D1*
X1852581D2*
X1894583D1*
X1950216D2*
X1959994D1*
X554142Y1795010D2*
X572036D1*
X645467D2*
X754615D1*
X891345D2*
X910137D1*
X1214770D2*
X1260330D1*
X1336919D2*
X1564951D1*
X1634937D2*
X1894583D1*
X1950216D2*
X1959994D1*
X671842Y1770142D2*
X729747D1*
X823022D2*
X910137D1*
X1266371D2*
X1285198D1*
X1361823D2*
X1572128D1*
X1627761D2*
X1894583D1*
X1950216D2*
X1959994D1*
X677512Y1745273D2*
X704879D1*
X798154D2*
X910137D1*
X1386691D2*
X1552464D1*
X1747434D2*
X1894583D1*
X1950216D2*
X1959994D1*
X773286Y1720404D2*
X890759D1*
X1747434D2*
X1894583D1*
X1950216D2*
X1959994D1*
X433750Y1695535D2*
X478737D1*
X1334013D2*
X1353378D1*
X1747434D2*
X1894583D1*
X1950216D2*
X1959994D1*
X433750Y1670667D2*
X478737D1*
X546175D2*
X561701D1*
X725273D2*
X738431D1*
X872793D2*
X884623D1*
X1334013D2*
X1353378D1*
X1424800D2*
X1453423D1*
X1530048D2*
X1552464D1*
X1747434D2*
X1889416D1*
X433750Y1645798D2*
X478737D1*
X546175D2*
X579787D1*
X872793D2*
X884623D1*
X1334013D2*
X1353378D1*
X1445361D2*
X1478327D1*
X1747434D2*
X1879943D1*
X433750Y1620929D2*
X478737D1*
X546175D2*
X584882D1*
X857865D2*
X884623D1*
X1334013D2*
X1353378D1*
X1454763D2*
X1503195D1*
X1714242D2*
X1855075D1*
X1947668D2*
X1959964D1*
X433750Y1596060D2*
X478737D1*
X546175D2*
X565792D1*
X857865D2*
X884623D1*
X1201636D2*
X1232771D1*
X1331896D2*
X1353378D1*
X1711191D2*
X1830207D1*
X1906796D2*
X1959964D1*
X433750Y1571192D2*
X478737D1*
X546175D2*
X562168D1*
X857865D2*
X884623D1*
X1340149D2*
X1353378D1*
X1409011D2*
X1427910D1*
X1712950D2*
X1805339D1*
X1881928D2*
X1959964D1*
X433750Y1546323D2*
X478737D1*
X546175D2*
X574261D1*
X857865D2*
X884623D1*
X1198119D2*
X1205812D1*
X1409011D2*
X1605393D1*
X1857061D2*
X1959964D1*
X433750Y1521454D2*
X478737D1*
X546175D2*
X579787D1*
X872793D2*
X884623D1*
X1144293D2*
X1205786D1*
X1409011D2*
X1607976D1*
X1832193D2*
X1959964D1*
X433750Y1496585D2*
X478737D1*
X546175D2*
X554784D1*
X872793D2*
X884623D1*
X1109019D2*
X1153503D1*
X1336094D2*
X1353378D1*
X1409011D2*
X1552464D1*
X1747434D2*
X1959964D1*
X433750Y1471717D2*
X478737D1*
X721003D2*
X738431D1*
X872793D2*
X884623D1*
X1100550D2*
X1120920D1*
X1409011D2*
X1552464D1*
X1747434D2*
X1959964D1*
X546175Y1446848D2*
X557120D1*
X677512D2*
X884623D1*
X1409011D2*
X1552464D1*
X1747434D2*
X1887622D1*
X673672Y1421979D2*
X884623D1*
X1409011D2*
X1543385D1*
X1747434D2*
X1855505D1*
X668397Y1397110D2*
X889826D1*
X1409011D2*
X1526627D1*
X1747434D2*
X1841726D1*
X433750Y1372241D2*
X478737D1*
X546175D2*
X914371D1*
X1154269D2*
X1192115D1*
X1403951D2*
X1526412D1*
X1727626D2*
X1836953D1*
X433750Y1347373D2*
X478737D1*
X546175D2*
X939239D1*
X1129401D2*
X1192115D1*
X1379406D2*
X1526412D1*
X1716538D2*
X1839573D1*
X433750Y1322504D2*
X478737D1*
X546175D2*
X1108361D1*
X1390997D2*
X1427658D1*
X1716538D2*
X1850446D1*
X433750Y1297635D2*
X478737D1*
X546175D2*
X1108361D1*
X1627761D2*
X1874811D1*
X433750Y1272766D2*
X478737D1*
X546175D2*
X1108361D1*
X1627761D2*
X1959964D1*
X433750Y1247898D2*
X478737D1*
X546175D2*
X1122140D1*
X1177773D2*
X1272136D1*
X1327769D2*
X1340890D1*
X1396523D2*
X1422132D1*
X1477765D2*
X1526412D1*
X1627761D2*
X1959964D1*
X433750Y1223029D2*
X478737D1*
X546175D2*
X1122140D1*
X1177773D2*
X1272136D1*
X1327769D2*
X1340890D1*
X1396523D2*
X1422132D1*
X1477765D2*
X1526412D1*
X1627761D2*
X1959964D1*
X433750Y1198160D2*
X478737D1*
X546175D2*
X1122140D1*
X1177773D2*
X1272136D1*
X1327769D2*
X1340890D1*
X1396523D2*
X1422132D1*
X1477765D2*
X1525837D1*
X1627761D2*
X1959964D1*
X433750Y1173291D2*
X478737D1*
X546175D2*
X1122140D1*
X1177773D2*
X1272136D1*
X1327769D2*
X1340890D1*
X1396523D2*
X1422132D1*
X1477765D2*
X1500970D1*
X1627761D2*
X1959964D1*
X433750Y1148423D2*
X478737D1*
X546175D2*
X718192D1*
X781719D2*
X818201D1*
X881728D2*
X918175D1*
X981702D2*
X1018184D1*
X1081711D2*
X1118193D1*
X1181720D2*
X1218166D1*
X1396523D2*
X1418185D1*
X1681730D2*
X1959964D1*
X433750Y1123554D2*
X478737D1*
X546175D2*
X699102D1*
X1700821D2*
X1959964D1*
X433750Y1098685D2*
X478737D1*
X546175D2*
X696626D1*
X1703261D2*
X1959964D1*
X433750Y1073816D2*
X478737D1*
X546175D2*
X707570D1*
X792341D2*
X807580D1*
X892350D2*
X907553D1*
X992323D2*
X1007562D1*
X1092333D2*
X1107571D1*
X1192342D2*
X1207581D1*
X1692316D2*
X1959964D1*
X433750Y1048948D2*
X478737D1*
X546175D2*
X696087D1*
X803824D2*
X818955D1*
X880939D2*
X918964D1*
X980948D2*
X1018973D1*
X1080957D2*
X1110514D1*
X1189399D2*
X1218956D1*
X1508769D2*
X1518968D1*
X1689374D2*
X1959964D1*
X433750Y1024079D2*
X478737D1*
X546175D2*
X696087D1*
X1706024D2*
X1959964D1*
X433750Y999210D2*
X478737D1*
X546175D2*
X696087D1*
X1708500D2*
X1959964D1*
X433750Y974341D2*
X478737D1*
X546175D2*
X696087D1*
X892745D2*
X907158D1*
X992754D2*
X1007132D1*
X1092763D2*
X1100789D1*
X1292746D2*
X1300821D1*
X1499116D2*
X1507142D1*
X1592738D2*
X1600801D1*
X1699098D2*
X1959964D1*
X433750Y949472D2*
X478737D1*
X546175D2*
X1184974D1*
X1252412D2*
X1959964D1*
X433750Y924604D2*
X478737D1*
X559453D2*
X1184974D1*
X1252412D2*
X1959964D1*
X433750Y899735D2*
X491009D1*
X1252412D2*
X1959964D1*
X433750Y874866D2*
X515877D1*
X1252412D2*
X1959964D1*
X433750Y849997D2*
X1184974D1*
X1252412D2*
X1959964D1*
X433750Y825129D2*
X1184974D1*
X1252412D2*
X1959964D1*
X433750Y800260D2*
X1184974D1*
X1252412D2*
X1959964D1*
X433750Y775391D2*
X1184974D1*
X1252412D2*
X1959964D1*
X433750Y750522D2*
X891656D1*
X1041772D2*
X1143635D1*
X1293751D2*
X1959964D1*
X502684Y725654D2*
X891656D1*
X1041772D2*
X1143635D1*
X1293751D2*
X1897275D1*
X531642Y700785D2*
X891656D1*
X1041772D2*
X1143635D1*
X1293751D2*
X1868316D1*
X551630Y675916D2*
X891656D1*
X1041772D2*
X1143635D1*
X1293751D2*
X1851092D1*
X560457Y651047D2*
X891656D1*
X1041772D2*
X1143635D1*
X1293751D2*
X1840219D1*
X564010Y626178D2*
X891656D1*
X1041772D2*
X1143635D1*
X1293751D2*
X1836092D1*
X562287Y601310D2*
X1837671D1*
X558053Y576441D2*
X1841905D1*
X543125Y551572D2*
X1856833D1*
X522097Y526703D2*
X1877861D1*
X478821Y501835D2*
X1921174D1*
X433750Y476966D2*
X1959964D1*
X434719Y452097D2*
X1958995D1*
X796375Y3176966D2*
Y3165924D1*
X790454D1*
X790380Y3065176D1*
X789662Y3060643D1*
X788243Y3056278D1*
X786160Y3052189D1*
X783462Y3048476D1*
X723442Y2988328D1*
X681447Y2946460D1*
X677734Y2943763D1*
X673644Y2941679D1*
X669279Y2940261D1*
X664746Y2939543D1*
X628397Y2939453D1*
X634125Y2936032D1*
X639224Y2931519D1*
X766287Y2931512D1*
X762261Y2936934D1*
X759634Y2942090D1*
X757846Y2947593D1*
X756940Y2953308D1*
Y2959094D1*
X757846Y2964809D1*
X759634Y2970312D1*
X762261Y2975467D1*
X765662Y2980149D1*
X766621Y2981187D1*
X763869Y2984527D1*
X760846Y2989460D1*
X758632Y2994806D1*
X757281Y3000432D1*
X756827Y3006201D1*
X757281Y3011969D1*
X758632Y3017595D1*
X760846Y3022941D1*
X763869Y3027875D1*
X767627Y3032275D1*
X772027Y3036032D1*
X776960Y3039056D1*
X782306Y3041270D1*
X787932Y3042621D1*
X793701Y3043075D1*
X800190Y3042477D1*
X800191Y3176978D1*
X796379Y3176953D1*
X731954Y3165924D2*
X726068D1*
Y3262269D1*
X431208Y3262268D1*
X431232Y3020600D1*
X442267Y3025061D1*
X448731Y3026884D1*
X455320Y3028195D1*
X461990Y3028984D1*
X468702Y3029248D1*
X475414Y3028984D1*
X482085Y3028195D1*
X488673Y3026884D1*
X495138Y3025061D1*
X501440Y3022736D1*
X507540Y3019924D1*
X514819Y3015694D1*
X514818Y3123815D1*
X585125D1*
Y3110071D1*
X589767Y3110036D1*
X589798Y3121472D1*
X660105D1*
Y3070911D1*
X663077Y3074951D1*
X663531Y3080720D1*
X664882Y3086346D1*
X667096Y3091692D1*
X670120Y3096625D1*
X673878Y3101025D1*
X678277Y3104783D1*
X683211Y3107806D1*
X688557Y3110021D1*
X694183Y3111371D1*
X699951Y3111825D1*
X705720Y3111371D1*
X711346Y3110021D1*
X716692Y3107806D1*
X721625Y3104783D1*
X726025Y3101025D1*
X729783Y3096625D1*
X731972Y3093182D1*
X731974Y3165901D1*
X1333609Y1494001D2*
X1355886D1*
X1355891Y1519612D1*
X1337663Y1519609D1*
X1337664Y1509766D1*
X1316816D1*
X1318591Y1505616D1*
X1319732Y1500693D1*
X1333609D1*
Y1493982D1*
X1263257Y1728854D2*
X1270348D1*
X1269440Y1734558D1*
Y1740345D1*
X1270346Y1746060D1*
X1272134Y1751563D1*
X1274761Y1756718D1*
X1278162Y1761399D1*
X1282253Y1765491D1*
X1286934Y1768892D1*
X1288227Y1769616D1*
X1245696Y1812161D1*
X1212244Y1812139D1*
X1212261Y1780433D1*
X1216271Y1782808D1*
X1221617Y1785022D1*
X1227243Y1786373D1*
X1233012Y1786827D1*
X1238780Y1786373D1*
X1244407Y1785022D1*
X1249752Y1782808D1*
X1254686Y1779784D1*
X1259086Y1776027D1*
X1262844Y1771627D1*
X1265867Y1766693D1*
X1268081Y1761347D1*
X1269432Y1755721D1*
X1269886Y1749953D1*
X1269432Y1744184D1*
X1268081Y1738558D1*
X1265867Y1733212D1*
X1263227Y1728852D1*
X1226171Y1601886D2*
X1199258D1*
X1199212Y1597057D1*
X1198307Y1591342D1*
X1196519Y1585839D1*
X1194196Y1581226D1*
X1196519Y1576563D1*
X1198307Y1571060D1*
X1199212Y1565345D1*
Y1559558D1*
X1198307Y1553843D1*
X1196519Y1548340D1*
X1193892Y1543185D1*
X1190491Y1538504D1*
X1186399Y1534412D1*
X1181718Y1531011D1*
X1176563Y1528384D1*
X1171060Y1526596D1*
X1165345Y1525691D1*
X1159558D1*
X1153843Y1526596D1*
X1148340Y1528384D1*
X1142893Y1531206D1*
X1142521Y1524869D1*
X1141334Y1519926D1*
X1139388Y1515229D1*
X1136732Y1510894D1*
X1133431Y1507028D1*
X1129565Y1503727D1*
X1125230Y1501071D1*
X1120533Y1499125D1*
X1115590Y1497938D1*
X1110522Y1497539D1*
X1106467D1*
X1106402Y1490978D1*
X1105607Y1485957D1*
X1104036Y1481122D1*
X1101728Y1476592D1*
X1098740Y1472479D1*
X1095284Y1469012D1*
X1120698D1*
X1142507Y1490692D1*
X1145720Y1493026D1*
X1149259Y1494829D1*
X1153036Y1496057D1*
X1156959Y1496678D1*
X1168813Y1496756D1*
X1168814Y1500693D1*
X1246995D1*
Y1495490D1*
X1252267Y1493026D1*
X1253926Y1491917D1*
X1255428Y1497315D1*
Y1500693D1*
X1255823D1*
X1246756Y1509761D1*
X1208302Y1509766D1*
Y1580073D1*
X1223320Y1580213D1*
X1224840Y1583882D1*
X1226915Y1587269D1*
X1229495Y1590289D1*
X1241091Y1601885D1*
X1226192Y1601893D1*
X685297Y1984678D2*
X627298D1*
Y2204403D1*
X622027Y2207620D1*
X617627Y2211378D1*
X613869Y2215777D1*
X610846Y2220711D1*
X608632Y2226057D1*
X607281Y2231683D1*
X606867Y2238480D1*
X470678Y2374789D1*
X468344Y2378002D1*
X466541Y2381541D1*
X465313Y2385318D1*
X464692Y2389241D1*
X463851Y2400414D1*
X460093Y2404814D1*
X457070Y2409748D1*
X454856Y2415093D1*
X453505Y2420720D1*
X453051Y2426488D1*
X453505Y2432257D1*
X454856Y2437883D1*
X457070Y2443229D1*
X460093Y2448162D1*
X463851Y2452562D1*
X468251Y2456320D1*
X473185Y2459343D1*
X478530Y2461557D1*
X484157Y2462908D1*
X489925Y2463362D1*
X495694Y2462908D1*
X501320Y2461557D1*
X506666Y2459343D1*
X511599Y2456320D1*
X515999Y2452562D1*
X519757Y2448162D1*
X522780Y2443229D1*
X524994Y2437883D1*
X526345Y2432257D1*
X526799Y2426488D1*
X526345Y2420720D1*
X524994Y2415093D1*
X522780Y2409748D1*
X519757Y2404814D1*
X516252Y2400688D1*
X612693Y2304254D1*
X611056Y2308243D1*
X609985Y2312705D1*
X609625Y2317281D1*
Y2535708D1*
X488498Y2656859D1*
X481683Y2657281D1*
X476057Y2658632D1*
X470711Y2660846D1*
X465777Y2663869D1*
X461378Y2667627D1*
X457620Y2672027D1*
X454596Y2676960D1*
X452382Y2682306D1*
X451031Y2687932D1*
X450577Y2693701D1*
X451031Y2699469D1*
X452382Y2705095D1*
X454596Y2710441D1*
X457620Y2715375D1*
X461378Y2719775D1*
X465777Y2723532D1*
X470711Y2726556D1*
X476057Y2728770D1*
X481683Y2730121D1*
X487451Y2730575D1*
X493220Y2730121D1*
X498846Y2728770D1*
X504192Y2726556D1*
X509125Y2723532D1*
X513525Y2719775D1*
X517283Y2715375D1*
X520306Y2710441D1*
X522521Y2705095D1*
X523871Y2699469D1*
X524285Y2692672D1*
X609611Y2607337D1*
X609625Y2681905D1*
X533962Y2757691D1*
X531264Y2761404D1*
X529180Y2765494D1*
X527762Y2769859D1*
X527044Y2774392D1*
X526954Y2859364D1*
Y2881073D1*
X518986Y2874492D1*
X513400Y2870760D1*
X507540Y2867478D1*
X501440Y2864665D1*
X495138Y2862341D1*
X488673Y2860517D1*
X482085Y2859207D1*
X475414Y2858417D1*
X468702Y2858154D1*
X461990Y2858417D1*
X455320Y2859207D1*
X448731Y2860517D1*
X442267Y2862341D1*
X435965Y2864665D1*
X431223Y2866851D1*
X431232Y1796447D1*
X465099Y1796342D1*
X470543Y1795507D1*
X475815Y1793916D1*
X481239Y1791350D1*
X481331Y1802399D1*
X482097Y1807237D1*
X483611Y1811896D1*
X485835Y1816261D1*
X488714Y1820224D1*
X542344Y1873989D1*
X563430Y1895075D1*
X563444Y1941212D1*
X653436D1*
Y1851220D1*
X607899D1*
X543658Y1787010D1*
X543668Y937904D1*
X568856Y912693D1*
X1187511Y912705D1*
X1187485Y963986D1*
X1183157Y960498D1*
X1175598Y955866D1*
X1167408Y952474D1*
X1158789Y950404D1*
X1149951Y949709D1*
X1141114Y950404D1*
X1132494Y952474D1*
X1124305Y955866D1*
X1116746Y960498D1*
X1110005Y966255D1*
X1104248Y972996D1*
X1099617Y980554D1*
X1097214Y986061D1*
X1093755Y979358D1*
X1089017Y972836D1*
X1083316Y967136D1*
X1076794Y962397D1*
X1069611Y958737D1*
X1061944Y956246D1*
X1053982Y954985D1*
X1045921D1*
X1037958Y956246D1*
X1030291Y958737D1*
X1023109Y962397D1*
X1016587Y967136D1*
X1010886Y972836D1*
X1006148Y979358D1*
X1002488Y986541D1*
X999957Y994409D1*
X998075Y988217D1*
X995020Y981540D1*
X991044Y975367D1*
X986228Y969824D1*
X980672Y965024D1*
X974488Y961065D1*
X967802Y958028D1*
X960752Y955975D1*
X953481Y954948D1*
X946139Y954968D1*
X938874Y956035D1*
X931835Y958127D1*
X925167Y961201D1*
X919004Y965194D1*
X913474Y970025D1*
X908690Y975594D1*
X904748Y981789D1*
X901729Y988483D1*
X899956Y994413D1*
X898075Y988217D1*
X895020Y981540D1*
X891044Y975367D1*
X886228Y969824D1*
X880672Y965024D1*
X874488Y961065D1*
X867802Y958028D1*
X860752Y955975D1*
X853481Y954948D1*
X846139Y954968D1*
X838874Y956035D1*
X831835Y958127D1*
X825167Y961201D1*
X819004Y965194D1*
X813474Y970025D1*
X808690Y975594D1*
X804748Y981789D1*
X801729Y988483D1*
X801326Y989596D1*
Y954827D1*
X698578D1*
Y1057575D1*
X733378D1*
X726628Y1060426D1*
X719755Y1064638D1*
X713625Y1069874D1*
X708389Y1076004D1*
X704177Y1082877D1*
X701092Y1090325D1*
X699210Y1098164D1*
X698577Y1106201D1*
X699210Y1114237D1*
X701092Y1122076D1*
X704177Y1129524D1*
X708389Y1136398D1*
X713625Y1142528D1*
X719755Y1147763D1*
X726628Y1151975D1*
X734076Y1155060D1*
X741915Y1156942D1*
X749951Y1157575D1*
X757988Y1156942D1*
X765827Y1155060D1*
X773275Y1151975D1*
X780148Y1147763D1*
X786278Y1142528D1*
X791514Y1136398D1*
X795726Y1129524D1*
X798811Y1122076D1*
X799997Y1118194D1*
X802488Y1125861D1*
X806148Y1133044D1*
X810886Y1139566D1*
X816587Y1145266D1*
X823109Y1150004D1*
X830291Y1153664D1*
X837958Y1156155D1*
X845921Y1157416D1*
X853982D1*
X861944Y1156155D1*
X869611Y1153664D1*
X876794Y1150004D1*
X883316Y1145266D1*
X889017Y1139566D1*
X893755Y1133044D1*
X897415Y1125861D1*
X899946Y1117993D1*
X902488Y1125861D1*
X906148Y1133044D1*
X910886Y1139566D1*
X916587Y1145266D1*
X923109Y1150004D1*
X930291Y1153664D1*
X937958Y1156155D1*
X945921Y1157416D1*
X953982D1*
X961944Y1156155D1*
X969611Y1153664D1*
X976794Y1150004D1*
X983316Y1145266D1*
X989017Y1139566D1*
X993755Y1133044D1*
X997415Y1125861D1*
X999946Y1117993D1*
X1002488Y1125861D1*
X1006148Y1133044D1*
X1010886Y1139566D1*
X1016587Y1145266D1*
X1023109Y1150004D1*
X1030291Y1153664D1*
X1037958Y1156155D1*
X1045921Y1157416D1*
X1053982D1*
X1061944Y1156155D1*
X1069611Y1153664D1*
X1076794Y1150004D1*
X1083316Y1145266D1*
X1089017Y1139566D1*
X1093755Y1133044D1*
X1097415Y1125861D1*
X1099946Y1117993D1*
X1102488Y1125861D1*
X1106148Y1133044D1*
X1110886Y1139566D1*
X1116587Y1145266D1*
X1123109Y1150004D1*
X1124635Y1150859D1*
X1124640Y1252285D1*
X1110861Y1252296D1*
Y1322604D1*
X1194589D1*
X1194622Y1391002D1*
X1170554Y1391016D1*
X1110139Y1330705D1*
X1106926Y1328370D1*
X1103387Y1326567D1*
X1099610Y1325340D1*
X1095687Y1324718D1*
X974951Y1324640D1*
X970992Y1324952D1*
X967130Y1325879D1*
X963460Y1327399D1*
X960074Y1329474D1*
X957048Y1332059D1*
X893203Y1396014D1*
X890869Y1399228D1*
X889066Y1402767D1*
X887838Y1406544D1*
X887217Y1410467D1*
X887139Y1531875D1*
Y1674659D1*
X884635Y1679590D1*
X882847Y1685093D1*
X881942Y1690808D1*
Y1696594D1*
X882847Y1702309D1*
X884635Y1707812D1*
X887262Y1712967D1*
X890663Y1717649D1*
X894754Y1721740D1*
X899435Y1725141D1*
X904591Y1727768D1*
X910094Y1729556D1*
X912634Y1730061D1*
X912643Y1840223D1*
X922511D1*
X922797Y1845505D1*
X923724Y1849368D1*
X925248Y1853044D1*
X926031Y1861969D1*
X927382Y1867595D1*
X929596Y1872941D1*
X932620Y1877875D1*
X936378Y1882275D1*
X940777Y1886032D1*
X945711Y1889056D1*
X951057Y1891270D1*
X956683Y1892621D1*
X962451Y1893075D1*
X968220Y1892621D1*
X973846Y1891270D1*
X979192Y1889056D1*
X984125Y1886032D1*
X988525Y1882275D1*
X992283Y1877875D1*
X995306Y1872941D1*
X997521Y1867595D1*
X998871Y1861969D1*
X999325Y1856201D1*
X998871Y1850432D1*
X997521Y1844806D1*
X995690Y1840223D1*
X1097606Y1840187D1*
X1093571Y1845535D1*
X864469Y2074637D1*
X826686Y2074640D1*
X826689Y1994424D1*
X822706D1*
X834670Y1982437D1*
X888856Y1982447D1*
Y1892455D1*
X798864D1*
Y1906271D1*
X778752Y1906331D1*
X773913Y1907097D1*
X769255Y1908611D1*
X764882Y1910840D1*
X763672Y1904467D1*
Y1851220D1*
X673680D1*
Y1941212D1*
X687424D1*
X687459Y1948428D1*
X684344Y1954331D1*
X682556Y1959834D1*
X681650Y1965549D1*
Y1971335D1*
X682556Y1977050D1*
X684344Y1982553D1*
X685324Y1984679D1*
X1155334Y762319D2*
X1187450D1*
X1187485Y850263D1*
X553464Y850368D1*
X548626Y851134D1*
X543967Y852648D1*
X539603Y854872D1*
X535640Y857751D1*
X490378Y902877D1*
X487197Y906601D1*
X484637Y910778D1*
X482763Y915304D1*
X481619Y920067D1*
X481235Y924960D1*
Y1383227D1*
X475271Y1380487D1*
X469975Y1378974D1*
X464520Y1378221D1*
X432515Y1378133D1*
X431230D1*
X431232Y737289D1*
X470688Y737114D1*
X472599Y736655D1*
X506383Y723005D1*
X508715Y721211D1*
X534489Y695384D1*
X554781Y668112D1*
X555840Y665371D1*
X562457Y619310D1*
X562426Y617345D1*
X555588Y577060D1*
X554820Y575250D1*
X534487Y541650D1*
X507329Y514655D1*
X504762Y513218D1*
X471502Y500078D1*
X469557Y499795D1*
X431233Y499768D1*
X431232Y453545D1*
X440253Y440022D1*
X453764Y431020D1*
X1939930Y431018D1*
X1953478Y440039D1*
X1962480Y453550D1*
X1962482Y499754D1*
X1929276Y499922D1*
X1927365Y500381D1*
X1893581Y514031D1*
X1891248Y515825D1*
X1864869Y542420D1*
X1845042Y575448D1*
X1844050Y578218D1*
X1837482Y618417D1*
X1839162Y629635D1*
X1844376Y659977D1*
X1845143Y661786D1*
X1865401Y695298D1*
X1891864Y721773D1*
X1894307Y723405D1*
X1927513Y736702D1*
X1930406Y737240D1*
X1962486Y737268D1*
X1962482Y1291846D1*
X1951367Y1287341D1*
X1944902Y1285517D1*
X1938314Y1284207D1*
X1931644Y1283417D1*
X1924932Y1283154D1*
X1918220Y1283417D1*
X1911549Y1284207D1*
X1904961Y1285517D1*
X1898496Y1287341D1*
X1892194Y1289665D1*
X1886094Y1292478D1*
X1880233Y1295760D1*
X1874648Y1299492D1*
X1869373Y1303650D1*
X1864441Y1308210D1*
X1859881Y1313142D1*
X1855723Y1318417D1*
X1851991Y1324002D1*
X1848709Y1329863D1*
X1845896Y1335963D1*
X1843571Y1342265D1*
X1841748Y1348730D1*
X1840438Y1355318D1*
X1839648Y1361989D1*
X1839385Y1368701D1*
X1839648Y1375413D1*
X1840438Y1382083D1*
X1841748Y1388671D1*
X1843571Y1395136D1*
X1845896Y1401438D1*
X1848709Y1407538D1*
X1851991Y1413399D1*
X1855723Y1418984D1*
X1859881Y1424259D1*
X1864441Y1429192D1*
X1869373Y1433751D1*
X1874648Y1437910D1*
X1880233Y1441642D1*
X1886094Y1444924D1*
X1892194Y1447736D1*
X1898496Y1450061D1*
X1904961Y1451884D1*
X1911549Y1453195D1*
X1918220Y1453984D1*
X1924932Y1454248D1*
X1931644Y1453984D1*
X1938314Y1453195D1*
X1944902Y1451884D1*
X1951367Y1450061D1*
X1957669Y1447736D1*
X1962459Y1445528D1*
X1962482Y3262246D1*
X1599710Y3262260D1*
Y3231550D1*
X1606170Y3231551D1*
X1607846Y3233560D1*
X1609634Y3239063D1*
X1612261Y3244218D1*
X1615662Y3248899D1*
X1619753Y3252991D1*
X1624434Y3256392D1*
X1629590Y3259019D1*
X1635093Y3260807D1*
X1640808Y3261712D1*
X1646594D1*
X1652309Y3260807D1*
X1657812Y3259019D1*
X1662967Y3256392D1*
X1668471Y3252231D1*
X1677092Y3252147D1*
X1681320Y3251477D1*
X1685391Y3250155D1*
X1689205Y3248211D1*
X1692668Y3245695D1*
X1732922Y3205560D1*
X1735702Y3202305D1*
X1737939Y3198655D1*
X1739577Y3194700D1*
X1740160Y3192630D1*
X1748033Y3191354D1*
X1752723D1*
Y3121493D1*
X1810085Y3121472D1*
X1810086Y3056547D1*
X1814799Y3056512D1*
X1814798Y3121472D1*
X1885105D1*
Y3107729D1*
X1907006Y3107615D1*
X1910928Y3106994D1*
X1914706Y3105766D1*
X1918245Y3103963D1*
X1921458Y3101629D1*
X1944198Y3078888D1*
X1946533Y3075675D1*
X1948336Y3072136D1*
X1949563Y3068359D1*
X1950185Y3064436D1*
X1950263Y2943028D1*
X1950185Y2416715D1*
X1949563Y2412792D1*
X1948336Y2409015D1*
X1946533Y2405476D1*
X1944198Y2402263D1*
X1916390Y2374454D1*
X1913176Y2372120D1*
X1909638Y2370316D1*
X1905860Y2369089D1*
X1901937Y2368468D1*
X1780529Y2368390D1*
X1676788D1*
X1671625Y2363869D1*
X1666692Y2360846D1*
X1661346Y2358632D1*
X1655720Y2357281D1*
X1649951Y2356827D1*
X1644183Y2357281D1*
X1638557Y2358632D1*
X1633211Y2360846D1*
X1628277Y2363869D1*
X1623878Y2367627D1*
X1620120Y2372027D1*
X1617096Y2376960D1*
X1614882Y2382306D1*
X1613531Y2387932D1*
X1613077Y2393701D1*
X1613531Y2399469D1*
X1614882Y2405095D1*
X1617096Y2410441D1*
X1620120Y2415375D1*
X1623878Y2419775D1*
X1628277Y2423532D1*
X1633211Y2426556D1*
X1638557Y2428770D1*
X1644183Y2430121D1*
X1649951Y2430575D1*
X1655720Y2430121D1*
X1661346Y2428770D1*
X1666692Y2426556D1*
X1671625Y2423532D1*
X1676724Y2419019D1*
X1889478Y2419012D1*
X1899638Y2429183D1*
X1899640Y2574976D1*
X1896519Y2569202D1*
X1890815Y2561351D1*
X1883953Y2554489D1*
X1876102Y2548785D1*
X1867455Y2544379D1*
X1858226Y2541381D1*
X1848641Y2539863D1*
X1838937D1*
X1829352Y2541381D1*
X1820122Y2544379D1*
X1811475Y2548785D1*
X1803624Y2554489D1*
X1796762Y2561351D1*
X1791058Y2569202D1*
X1786652Y2577849D1*
X1783654Y2587079D1*
X1783361Y2588548D1*
X1777898Y2583544D1*
X1774248Y2581308D1*
X1770293Y2579670D1*
X1766131Y2578670D1*
X1761855Y2578335D1*
X1752723Y2576463D1*
Y2570460D1*
X1740917D1*
X1740912Y2541346D1*
X1752723Y2541354D1*
Y2471047D1*
X1623361D1*
Y2471657D1*
X1616498Y2469911D1*
X1610730Y2469457D1*
X1604839Y2469935D1*
X1604831Y2312373D1*
X1535826D1*
X1541710Y2306487D1*
X1723145Y2306512D1*
X1728277Y2311032D1*
X1733211Y2314056D1*
X1738557Y2316270D1*
X1744183Y2317621D1*
X1749951Y2318075D1*
X1755720Y2317621D1*
X1761346Y2316270D1*
X1766692Y2314056D1*
X1771625Y2311032D1*
X1776025Y2307275D1*
X1779783Y2302875D1*
X1782806Y2297941D1*
X1785021Y2292595D1*
X1786371Y2286969D1*
X1786825Y2281201D1*
X1786371Y2275432D1*
X1784727Y2269010D1*
X1895688Y2268934D1*
X1899611Y2268313D1*
X1903388Y2267085D1*
X1906927Y2265282D1*
X1910140Y2262948D1*
X1941654Y2231434D1*
X1943988Y2228221D1*
X1945791Y2224682D1*
X1947019Y2220905D1*
X1947640Y2216982D1*
X1947718Y2095573D1*
Y1676769D1*
X1952239Y1671624D1*
X1955262Y1666691D1*
X1957476Y1661345D1*
X1958827Y1655718D1*
X1959281Y1649950D1*
X1958827Y1644182D1*
X1957476Y1638555D1*
X1955262Y1633210D1*
X1952239Y1628276D1*
X1948481Y1623876D1*
X1944081Y1620118D1*
X1939147Y1617095D1*
X1933802Y1614881D1*
X1928175Y1613530D1*
X1921378Y1613117D1*
X1826346Y1518205D1*
X1823133Y1515870D1*
X1819594Y1514067D1*
X1815817Y1512840D1*
X1811894Y1512218D1*
X1744922Y1512140D1*
X1744948Y1391519D1*
X1725247D1*
X1725185Y1372966D1*
X1724563Y1369043D1*
X1723336Y1365265D1*
X1721533Y1361726D1*
X1719198Y1358513D1*
X1714018Y1353222D1*
X1714042Y1314798D1*
X1625290D1*
X1625263Y1151269D1*
X1630291Y1153664D1*
X1637958Y1156155D1*
X1645921Y1157416D1*
X1653982D1*
X1661944Y1156155D1*
X1669611Y1153664D1*
X1676794Y1150004D1*
X1683316Y1145266D1*
X1689017Y1139566D1*
X1693755Y1133044D1*
X1697415Y1125861D1*
X1699906Y1118194D1*
X1701167Y1110232D1*
Y1102170D1*
X1699906Y1094208D1*
X1697415Y1086541D1*
X1693755Y1079358D1*
X1689017Y1072836D1*
X1683316Y1067136D1*
X1676794Y1062397D1*
X1670112Y1058968D1*
X1675598Y1056536D1*
X1683157Y1051904D1*
X1689897Y1046147D1*
X1695655Y1039406D1*
X1700286Y1031848D1*
X1703679Y1023658D1*
X1705748Y1015038D1*
X1706444Y1006201D1*
X1705748Y997363D1*
X1703679Y988744D1*
X1700286Y980554D1*
X1695655Y972996D1*
X1689897Y966255D1*
X1683157Y960498D1*
X1675598Y955866D1*
X1667408Y952474D1*
X1658789Y950404D1*
X1649951Y949709D1*
X1641114Y950404D1*
X1632494Y952474D1*
X1624305Y955866D1*
X1616746Y960498D1*
X1610005Y966255D1*
X1604248Y972996D1*
X1599617Y980554D1*
X1597214Y986061D1*
X1593755Y979358D1*
X1589017Y972836D1*
X1583316Y967136D1*
X1576794Y962397D1*
X1569611Y958737D1*
X1561944Y956246D1*
X1553982Y954985D1*
X1545921D1*
X1537958Y956246D1*
X1530291Y958737D1*
X1523109Y962397D1*
X1516587Y967136D1*
X1510886Y972836D1*
X1506148Y979358D1*
X1502719Y986040D1*
X1500286Y980554D1*
X1495655Y972996D1*
X1489897Y966255D1*
X1483157Y960498D1*
X1475598Y955866D1*
X1467408Y952474D1*
X1458789Y950404D1*
X1449951Y949709D1*
X1441114Y950404D1*
X1432494Y952474D1*
X1424305Y955866D1*
X1416746Y960498D1*
X1410005Y966255D1*
X1404248Y972996D1*
X1399964Y979934D1*
X1395655Y972996D1*
X1389897Y966255D1*
X1383157Y960498D1*
X1375598Y955866D1*
X1367408Y952474D1*
X1358789Y950404D1*
X1349951Y949709D1*
X1341114Y950404D1*
X1332494Y952474D1*
X1324305Y955866D1*
X1316746Y960498D1*
X1310005Y966255D1*
X1304248Y972996D1*
X1299617Y980554D1*
X1297214Y986061D1*
X1293755Y979358D1*
X1289017Y972836D1*
X1283316Y967136D1*
X1276794Y962397D1*
X1269611Y958737D1*
X1261944Y956246D1*
X1253982Y954985D1*
X1249904Y954829D1*
X1249919Y762317D1*
X1291257Y762319D1*
Y625082D1*
X1146147D1*
Y762319D1*
X1155334D1*
X896003D2*
X1039276D1*
Y625082D1*
X894166D1*
Y762319D1*
X896003D1*
X585125Y3059392D2*
X585360Y3035838D1*
X585450Y2992384D1*
X589336Y2994765D1*
X589798Y3001296D1*
Y3059403D1*
X585110Y3059413D1*
X1885105Y3043271D2*
Y2992110D1*
X1814798D1*
Y3005854D1*
X1810084Y3005890D1*
X1810086Y2992110D1*
X1739779D1*
X1739778Y3121048D1*
X1717090Y3121047D1*
X1708487Y3112476D1*
X1708480Y2949910D1*
X1717060Y2941353D1*
X1752723Y2941354D1*
Y2910745D1*
X1764446Y2898917D1*
X1766962Y2895454D1*
X1768908Y2891632D1*
X1770097Y2891354D1*
X1783974D1*
Y2833473D1*
X1795842Y2833396D1*
X1800070Y2832727D1*
X1804141Y2831404D1*
X1807955Y2829461D1*
X1811418Y2826944D1*
X1850491Y2787990D1*
X1853271Y2784735D1*
X1855508Y2781085D1*
X1857146Y2777131D1*
X1858145Y2772968D1*
X1858481Y2768692D1*
X1858397Y2716560D1*
X1857727Y2712332D1*
X1856405Y2708261D1*
X1854461Y2704447D1*
X1851945Y2700984D1*
X1820981Y2669901D1*
X1820980Y2658988D1*
X1829352Y2661651D1*
X1838937Y2663169D1*
X1848641D1*
X1858226Y2661651D1*
X1867455Y2658652D1*
X1876102Y2654246D1*
X1883953Y2648542D1*
X1890815Y2641680D1*
X1896519Y2633829D1*
X1899646Y2627956D1*
X1899640Y2889394D1*
X1896519Y2883651D1*
X1890815Y2875800D1*
X1883953Y2868938D1*
X1876102Y2863234D1*
X1867455Y2858828D1*
X1858226Y2855829D1*
X1848641Y2854311D1*
X1838937D1*
X1829352Y2855829D1*
X1820122Y2858828D1*
X1811475Y2863234D1*
X1803624Y2868938D1*
X1796762Y2875800D1*
X1791058Y2883651D1*
X1786652Y2892298D1*
X1783654Y2901527D1*
X1782136Y2911112D1*
Y2920817D1*
X1783654Y2930402D1*
X1786652Y2939631D1*
X1791058Y2948278D1*
X1796762Y2956129D1*
X1803624Y2962991D1*
X1811475Y2968695D1*
X1820122Y2973101D1*
X1829352Y2976100D1*
X1838937Y2977618D1*
X1848641D1*
X1858226Y2976100D1*
X1867455Y2973101D1*
X1876102Y2968695D1*
X1883953Y2962991D1*
X1890815Y2956129D1*
X1896519Y2948278D1*
X1899646Y2942405D1*
X1899640Y3051949D1*
X1885105Y3057060D2*
X1885069Y3043291D1*
X855381Y1573015D2*
Y1535107D1*
X870293Y1535103D1*
Y1464796D1*
X740931D1*
Y1493109D1*
X724282Y1493094D1*
X724212Y1488694D1*
X723307Y1482979D1*
X721519Y1477476D1*
X718892Y1472320D1*
X715491Y1467639D1*
X711399Y1463547D1*
X706718Y1460146D1*
X701563Y1457519D1*
X696060Y1455731D1*
X690345Y1454826D1*
X684558D1*
X678843Y1455731D1*
X675027Y1456897D1*
X675018Y1428133D1*
X669915D1*
X671164Y1422142D1*
X671431Y1415387D1*
X670785Y1409918D1*
X669377Y1404594D1*
X667235Y1399520D1*
X664402Y1394798D1*
X660932Y1390521D1*
X656896Y1386774D1*
X652374Y1383631D1*
X647454Y1381155D1*
X642236Y1379395D1*
X636822Y1378386D1*
X628709Y1378133D1*
X582241Y1378241D1*
X576791Y1379035D1*
X571507Y1380588D1*
X566494Y1382867D1*
X561851Y1385828D1*
X557669Y1389413D1*
X554034Y1393549D1*
X551015Y1398156D1*
X548674Y1403140D1*
X547057Y1408405D1*
X546195Y1413844D1*
X546107Y1419351D1*
X546793Y1424815D1*
X548240Y1430129D1*
X550420Y1435186D1*
X553289Y1439887D1*
X556790Y1444138D1*
X559977Y1447126D1*
X555578Y1452996D1*
X552780Y1458489D1*
X550875Y1464352D1*
X549910Y1470441D1*
Y1476606D1*
X550875Y1482695D1*
X552780Y1488558D1*
X555578Y1494051D1*
X559202Y1499038D1*
X563561Y1503398D1*
X568549Y1507021D1*
X574042Y1509820D1*
X579905Y1511725D1*
X582281Y1512198D1*
X582228Y1541455D1*
X577306Y1545734D1*
X572455Y1551566D1*
X568965Y1557426D1*
X566550Y1563259D1*
X564969Y1569372D1*
X564295Y1575141D1*
X564370Y1580948D1*
X565192Y1586697D1*
X566749Y1592292D1*
X569013Y1597641D1*
X571947Y1602652D1*
X575503Y1607244D1*
X579621Y1611340D1*
X584232Y1614870D1*
X585904Y1615960D1*
X587388Y1618422D1*
Y1623769D1*
X582270Y1623803D1*
Y1662378D1*
X576936Y1663718D1*
X571240Y1666077D1*
X565984Y1669298D1*
X561296Y1673302D1*
X557292Y1677990D1*
X554071Y1683246D1*
X551712Y1688942D1*
X550273Y1694936D1*
X549789Y1701082D1*
X550273Y1707228D1*
X551712Y1713223D1*
X554071Y1718918D1*
X557292Y1724175D1*
X559995Y1727456D1*
X555180Y1732271D1*
X551949Y1736731D1*
X549376Y1741600D1*
X547513Y1746783D1*
X546397Y1752176D1*
X546050Y1757672D1*
X546479Y1763163D1*
X547675Y1768538D1*
X549615Y1773693D1*
X552259Y1778523D1*
X555557Y1782934D1*
X559441Y1786838D1*
X563836Y1790157D1*
X568654Y1792826D1*
X573798Y1794791D1*
X579168Y1796013D1*
X585137Y1796464D1*
X635572Y1796342D1*
X641015Y1795507D1*
X646288Y1793916D1*
X651284Y1791599D1*
X655905Y1788603D1*
X660059Y1784988D1*
X663664Y1780825D1*
X666649Y1776196D1*
X668953Y1771194D1*
X670531Y1765918D1*
X671352Y1760472D1*
X671302Y1753712D1*
X670400Y1748280D1*
X670065Y1746472D1*
X675017D1*
Y1715920D1*
X679232Y1717133D1*
X798870Y1836767D1*
X798864Y1872211D1*
X888856D1*
Y1782219D1*
X832625D1*
X747979Y1697582D1*
X870293Y1697604D1*
Y1627297D1*
X855386D1*
X855375Y1573016D1*
X1330370Y2022022D2*
X1329404Y2012888D1*
X1327799Y2003845D1*
X1325563Y1994937D1*
X1322707Y1986208D1*
X1319246Y1977701D1*
X1315195Y1969458D1*
X1310576Y1961519D1*
X1305411Y1953925D1*
X1299726Y1946712D1*
X1293548Y1939915D1*
X1286908Y1933570D1*
X1279839Y1927706D1*
X1272376Y1922352D1*
X1264556Y1917536D1*
X1255200Y1912750D1*
X1754362Y1912761D1*
X1759527Y1917282D1*
X1764460Y1920305D1*
X1769806Y1922519D1*
X1775432Y1923870D1*
X1781201Y1924324D1*
X1786969Y1923870D1*
X1792595Y1922519D1*
X1797941Y1920305D1*
X1802875Y1917282D1*
X1807275Y1913524D1*
X1811032Y1909124D1*
X1814056Y1904191D1*
X1816270Y1898845D1*
X1817621Y1893218D1*
X1818075Y1887450D1*
X1817699Y1882344D1*
X1822028Y1886032D1*
X1826962Y1889056D1*
X1832307Y1891270D1*
X1837934Y1892621D1*
X1843702Y1893075D1*
X1849470Y1892621D1*
X1855097Y1891270D1*
X1860443Y1889056D1*
X1865376Y1886032D1*
X1869776Y1882275D1*
X1873534Y1877875D1*
X1876557Y1872941D1*
X1878771Y1867595D1*
X1880122Y1861969D1*
X1880576Y1856201D1*
X1880122Y1850432D1*
X1878771Y1844806D1*
X1876557Y1839460D1*
X1873534Y1834527D1*
X1869776Y1830127D1*
X1865376Y1826369D1*
X1860443Y1823346D1*
X1855097Y1821132D1*
X1849470Y1819781D1*
X1843702Y1819327D1*
X1837934Y1819781D1*
X1832307Y1821132D1*
X1826962Y1823346D1*
X1822028Y1826369D1*
X1816930Y1830883D1*
X1631878Y1830890D1*
X1634019Y1826563D1*
X1635807Y1821060D1*
X1636712Y1815345D1*
Y1809558D1*
X1635807Y1803843D1*
X1634019Y1798340D1*
X1631392Y1793185D1*
X1627991Y1788504D1*
X1625270Y1785679D1*
X1625263Y1768924D1*
X1644948Y1768913D1*
Y1644001D1*
X1648878Y1644775D1*
X1653277Y1648532D1*
X1654961Y1649657D1*
X1654955Y1768913D1*
X1744948D1*
Y1639551D1*
X1705367D1*
X1707806Y1635441D1*
X1710021Y1630095D1*
X1711371Y1624469D1*
X1711825Y1618701D1*
X1711371Y1612932D1*
X1710021Y1607306D1*
X1707806Y1601960D1*
X1706696Y1599977D1*
X1709019Y1595312D1*
X1710807Y1589809D1*
X1711712Y1584094D1*
Y1578308D1*
X1710807Y1572593D1*
X1709019Y1567090D1*
X1706850Y1562753D1*
X1799402Y1562763D1*
X1885564Y1648903D1*
X1885987Y1655718D1*
X1887338Y1661345D1*
X1889552Y1666691D1*
X1892575Y1671624D1*
X1897089Y1676723D1*
X1897096Y2204540D1*
X1883220Y2218387D1*
X1559728Y2218390D1*
X1561371Y2211969D1*
X1561825Y2206201D1*
X1561371Y2200432D1*
X1560021Y2194806D1*
X1557806Y2189460D1*
X1554783Y2184527D1*
X1551025Y2180127D1*
X1546625Y2176369D1*
X1541692Y2173346D1*
X1536346Y2171132D1*
X1530720Y2169781D1*
X1524951Y2169327D1*
X1519183Y2169781D1*
X1513557Y2171132D1*
X1508211Y2173346D1*
X1503277Y2176369D1*
X1498179Y2180883D1*
X1472966Y2180968D1*
X1469043Y2181589D1*
X1465265Y2182816D1*
X1461726Y2184619D1*
X1458513Y2186954D1*
X1372609Y2272748D1*
X921689Y2723668D1*
X921679Y2642959D1*
X927845Y2642961D1*
X933560Y2642056D1*
X939063Y2640268D1*
X944218Y2637641D1*
X948899Y2634240D1*
X952991Y2630149D1*
X956392Y2625467D1*
X959019Y2620312D1*
X960807Y2614809D1*
X961712Y2609094D1*
Y2603308D1*
X960807Y2597593D1*
X959019Y2592090D1*
X956392Y2586934D1*
X952991Y2582253D1*
X948899Y2578162D1*
X944218Y2574761D1*
X939063Y2572134D1*
X933560Y2570346D1*
X927845Y2569440D1*
X921688Y2569484D1*
X921683Y2531887D1*
X1014097Y2531774D1*
X1018020Y2531152D1*
X1021798Y2529925D1*
X1025337Y2528122D1*
X1028550Y2525787D1*
X1114454Y2439994D1*
X1397957Y2156491D1*
X1535617Y2156512D1*
X1540777Y2161032D1*
X1545711Y2164056D1*
X1551057Y2166270D1*
X1556683Y2167621D1*
X1562451Y2168075D1*
X1568220Y2167621D1*
X1573846Y2166270D1*
X1579192Y2164056D1*
X1584125Y2161032D1*
X1588525Y2157275D1*
X1592283Y2152875D1*
X1595306Y2147941D1*
X1597521Y2142595D1*
X1598871Y2136969D1*
X1599325Y2131201D1*
X1598871Y2125432D1*
X1597521Y2119806D1*
X1595306Y2114460D1*
X1592283Y2109527D1*
X1588525Y2105127D1*
X1584125Y2101369D1*
X1579192Y2098346D1*
X1573846Y2096132D1*
X1568220Y2094781D1*
X1562451Y2094327D1*
X1556683Y2094781D1*
X1551057Y2096132D1*
X1545711Y2098346D1*
X1540777Y2101369D1*
X1535679Y2105883D1*
X1385466Y2105968D1*
X1381543Y2106589D1*
X1377765Y2107816D1*
X1374226Y2109619D1*
X1371013Y2111954D1*
X1285109Y2197748D1*
X1001606Y2481251D1*
X926815Y2481230D1*
X926801Y2312332D1*
X795076D1*
Y2500749D1*
X800208D1*
X800190Y2614370D1*
X794032Y2608235D1*
X794012Y2291687D1*
X1070152Y2015546D1*
X1069373Y2024667D1*
X1069237Y2033850D1*
X1069745Y2043020D1*
X1070896Y2052132D1*
X1072684Y2061141D1*
X1075100Y2070002D1*
X1078133Y2078672D1*
X1081766Y2087107D1*
X1085982Y2095266D1*
X1090761Y2103109D1*
X1096079Y2110598D1*
X1101910Y2117694D1*
X1108224Y2124364D1*
X1114991Y2130574D1*
X1122177Y2136293D1*
X1129747Y2141494D1*
X1137663Y2146151D1*
X1145887Y2150240D1*
X1154378Y2153742D1*
X1163093Y2156639D1*
X1171991Y2158917D1*
X1181026Y2160565D1*
X1190155Y2161575D1*
X1199332Y2161941D1*
X1208513Y2161662D1*
X1217651Y2160739D1*
X1226701Y2159177D1*
X1235620Y2156983D1*
X1244362Y2154168D1*
X1252886Y2150747D1*
X1261148Y2146736D1*
X1269108Y2142154D1*
X1276727Y2137025D1*
X1283967Y2131374D1*
X1290793Y2125229D1*
X1297170Y2118619D1*
X1303067Y2111578D1*
X1308456Y2104140D1*
X1313309Y2096343D1*
X1317602Y2088224D1*
X1321315Y2079823D1*
X1324429Y2071183D1*
X1326929Y2062345D1*
X1328802Y2053354D1*
X1330040Y2044253D1*
X1330693Y2031201D1*
X1330370Y2022022D1*
X766535Y1057575D2*
X801326D1*
Y1022774D1*
X804158Y1029487D1*
X807946Y1035778D1*
X812591Y1041464D1*
X818000Y1046430D1*
X824062Y1050574D1*
X830652Y1053812D1*
X837637Y1056077D1*
X837958Y1056246D1*
X830291Y1058737D1*
X823109Y1062397D1*
X816587Y1067136D1*
X810886Y1072836D1*
X806148Y1079358D1*
X802488Y1086541D1*
X799957Y1094409D1*
X797415Y1086541D1*
X793755Y1079358D1*
X789017Y1072836D1*
X783316Y1067136D1*
X776794Y1062397D1*
X769611Y1058737D1*
X766463Y1057576D1*
X861745Y1056197D2*
X868333Y1054174D1*
X874984Y1051063D1*
X881124Y1047036D1*
X886628Y1042175D1*
X891382Y1036579D1*
X895289Y1030362D1*
X898271Y1023652D1*
X899948Y1017992D1*
X901928Y1024450D1*
X905020Y1031110D1*
X909030Y1037261D1*
X913876Y1042777D1*
X919459Y1047547D1*
X925665Y1051472D1*
X932367Y1054472D1*
X938162Y1056197D1*
X930291Y1058737D1*
X923109Y1062397D1*
X916587Y1067136D1*
X910886Y1072836D1*
X906148Y1079358D1*
X902488Y1086541D1*
X899957Y1094409D1*
X897415Y1086541D1*
X893755Y1079358D1*
X889017Y1072836D1*
X883316Y1067136D1*
X876794Y1062397D1*
X869611Y1058737D1*
X861744Y1056206D1*
X961745Y1056197D2*
X968333Y1054174D1*
X974984Y1051063D1*
X981124Y1047036D1*
X986628Y1042175D1*
X991382Y1036579D1*
X995289Y1030362D1*
X998271Y1023652D1*
X999948Y1017992D1*
X1002488Y1025861D1*
X1006148Y1033044D1*
X1010886Y1039566D1*
X1016587Y1045266D1*
X1023109Y1050004D1*
X1030291Y1053664D1*
X1038159Y1056195D1*
X1030291Y1058737D1*
X1023109Y1062397D1*
X1016587Y1067136D1*
X1010886Y1072836D1*
X1006148Y1079358D1*
X1002488Y1086541D1*
X999957Y1094409D1*
X997415Y1086541D1*
X993755Y1079358D1*
X989017Y1072836D1*
X983316Y1067136D1*
X976794Y1062397D1*
X969611Y1058737D1*
X961744Y1056206D1*
X1061744Y1056195D2*
X1069611Y1053664D1*
X1076794Y1050004D1*
X1083316Y1045266D1*
X1089017Y1039566D1*
X1093755Y1033044D1*
X1097184Y1026362D1*
X1099617Y1031848D1*
X1104248Y1039406D1*
X1110005Y1046147D1*
X1116746Y1051904D1*
X1124305Y1056536D1*
X1129812Y1058938D1*
X1123109Y1062397D1*
X1116587Y1067136D1*
X1110886Y1072836D1*
X1106148Y1079358D1*
X1102488Y1086541D1*
X1099957Y1094409D1*
X1097415Y1086541D1*
X1093755Y1079358D1*
X1089017Y1072836D1*
X1083316Y1067136D1*
X1076794Y1062397D1*
X1069611Y1058737D1*
X1061744Y1056206D1*
X1170091Y1058938D2*
X1175598Y1056536D1*
X1183157Y1051904D1*
X1189897Y1046147D1*
X1195655Y1039406D1*
X1200286Y1031848D1*
X1202689Y1026340D1*
X1206148Y1033044D1*
X1210886Y1039566D1*
X1216587Y1045266D1*
X1223109Y1050004D1*
X1230291Y1053664D1*
X1238159Y1056195D1*
X1230291Y1058737D1*
X1223109Y1062397D1*
X1216587Y1067136D1*
X1210886Y1072836D1*
X1206148Y1079358D1*
X1202488Y1086541D1*
X1199957Y1094409D1*
X1197415Y1086541D1*
X1193755Y1079358D1*
X1189017Y1072836D1*
X1183316Y1067136D1*
X1176794Y1062397D1*
X1170112Y1058968D1*
X1496088Y1038758D2*
X1500286Y1031848D1*
X1502689Y1026340D1*
X1506148Y1033044D1*
X1510886Y1039566D1*
X1516587Y1045266D1*
X1523109Y1050004D1*
X1530291Y1053664D1*
X1538159Y1056195D1*
X1530291Y1058737D1*
X1523109Y1062397D1*
X1520973Y1063824D1*
X1499754Y1042424D1*
X1496115Y1038785D1*
X1561744Y1056195D2*
X1563628Y1055681D1*
X1565065Y1057110D1*
X1561744Y1056206D1*
X1403893Y1083493D2*
X1401092Y1090325D1*
X1399906Y1094208D1*
X1397415Y1086541D1*
X1396010Y1083493D1*
X1403908Y1083480D1*
X1399957Y1117993D2*
X1402488Y1125861D1*
X1406148Y1133044D1*
X1410886Y1139566D1*
X1416587Y1145266D1*
X1423109Y1150004D1*
X1424635Y1150859D1*
X1424640Y1253721D1*
X1421067Y1255446D1*
X1417121Y1258557D1*
X1414010Y1262503D1*
X1411907Y1267066D1*
X1410927Y1271994D1*
Y1302907D1*
X1411907Y1307835D1*
X1414010Y1312398D1*
X1417121Y1316343D1*
X1421067Y1319454D1*
X1425630Y1321558D1*
X1430558Y1322538D1*
X1469345D1*
X1474279Y1321555D1*
X1476811Y1321558D1*
X1481739Y1322538D1*
X1520526D1*
X1525454Y1321558D1*
X1528558Y1320271D1*
X1528921Y1324196D1*
X1529005Y1395840D1*
X1529675Y1400068D1*
X1530998Y1404139D1*
X1532941Y1407953D1*
X1535457Y1411416D1*
X1554952Y1431030D1*
X1554956Y1520882D1*
X1610756D1*
X1608632Y1526057D1*
X1607281Y1531683D1*
X1606827Y1537451D1*
X1607281Y1543220D1*
X1608632Y1548846D1*
X1610846Y1554192D1*
X1611802Y1555899D1*
X1454215Y1555968D1*
X1450292Y1556589D1*
X1446515Y1557816D1*
X1442976Y1559620D1*
X1439763Y1561954D1*
X1413513Y1588094D1*
X1406517Y1588563D1*
X1406435Y1385464D1*
X1405814Y1381541D1*
X1404586Y1377764D1*
X1402783Y1374225D1*
X1400449Y1371012D1*
X1369070Y1339522D1*
X1366049Y1336943D1*
X1362663Y1334868D1*
X1358993Y1333348D1*
X1355131Y1332421D1*
X1351164Y1332109D1*
X1324008D1*
X1323984Y1322618D1*
X1336913Y1322538D1*
X1341847Y1321555D1*
X1344379Y1321558D1*
X1349307Y1322538D1*
X1388094D1*
X1393022Y1321558D1*
X1397585Y1319454D1*
X1401531Y1316343D1*
X1404642Y1312398D1*
X1406745Y1307835D1*
X1407725Y1302907D1*
Y1271994D1*
X1406745Y1267066D1*
X1404642Y1262503D1*
X1401531Y1258557D1*
X1397585Y1255446D1*
X1394591Y1253921D1*
X1394012Y1250705D1*
Y1132610D1*
X1397415Y1125861D1*
X1399946Y1117993D1*
X1475268Y1150859D2*
X1478930Y1148577D1*
X1500149Y1169978D1*
X1528898Y1198726D1*
X1528921Y1254805D1*
X1523839Y1252887D1*
X1518849Y1252297D1*
X1481739Y1252362D1*
X1476805Y1253345D1*
X1475263Y1250705D1*
Y1150911D1*
X1325267Y1151213D2*
X1330291Y1153664D1*
X1337958Y1156155D1*
X1343401Y1157118D1*
X1343390Y1253667D1*
X1338580Y1252560D1*
X1335236Y1252297D1*
X1325296D1*
X1325263Y1151270D1*
X1199957Y1117993D2*
X1202488Y1125861D1*
X1206148Y1133044D1*
X1210886Y1139566D1*
X1216587Y1145266D1*
X1223109Y1150004D1*
X1230291Y1153664D1*
X1237958Y1156155D1*
X1245921Y1157416D1*
X1253982D1*
X1261944Y1156155D1*
X1269611Y1153664D1*
X1274636Y1151213D1*
X1274640Y1262140D1*
X1240189Y1262139D1*
X1240223Y1252296D1*
X1175237D1*
X1175263Y1150911D1*
X1180148Y1147763D1*
X1186278Y1142528D1*
X1191514Y1136398D1*
X1195726Y1129524D1*
X1198811Y1122076D1*
X1199946Y1117993D1*
X481232Y1723412D2*
X475271Y1720645D1*
X469975Y1719132D1*
X464520Y1718378D1*
X432515Y1718291D1*
X431230D1*
X431232Y1456337D1*
X465099Y1456184D1*
X470543Y1455350D1*
X475815Y1453758D1*
X481239Y1451192D1*
X481235Y1723409D1*
X1702137Y2697605D2*
X1752723D1*
Y2635062D1*
X1766400Y2648730D1*
X1766505Y2683340D1*
X1767175Y2687568D1*
X1768498Y2691640D1*
X1770441Y2695454D1*
X1772957Y2698917D1*
X1784231Y2710309D1*
X1778277Y2713869D1*
X1773179Y2718383D1*
X1722908Y2718390D1*
X1702159Y2697613D1*
X1296031Y1322266D2*
X1240256D1*
X1240223Y1312735D1*
X1281836Y1312761D1*
X1284689Y1316343D1*
X1288635Y1319454D1*
X1293198Y1321558D1*
X1294820Y1322014D1*
X1315857Y1580073D2*
X1337664D1*
Y1570205D1*
X1355881Y1570231D1*
X1355891Y1701977D1*
X1338413Y1719444D1*
X1334240Y1713504D1*
X1331519Y1710679D1*
X1331434Y1604215D1*
X1330812Y1600292D1*
X1329585Y1596515D1*
X1327782Y1592976D1*
X1325447Y1589763D1*
X1315866Y1580071D1*
X1623612Y2941354D2*
X1653898D1*
X1653921Y2983380D1*
X1648899Y2978162D1*
X1644218Y2974761D1*
X1639063Y2972134D1*
X1633560Y2970346D1*
X1627845Y2969440D1*
X1622058D1*
X1616343Y2970346D1*
X1610840Y2972134D1*
X1604829Y2975332D1*
X1604828Y2942280D1*
X1609558Y2942961D1*
X1615345D1*
X1621060Y2942056D1*
X1623552Y2941353D1*
X1752723Y2778952D2*
Y2771047D1*
X1738477D1*
X1737935Y2769990D1*
X1740010Y2769012D1*
X1773132D1*
X1778277Y2773532D1*
X1784269Y2777043D1*
X1775329Y2778921D1*
X1752758D1*
X1653924Y3121047D2*
X1627007D1*
X1627022Y3108048D1*
X1631543Y3102894D1*
X1634566Y3097961D1*
X1636781Y3092615D1*
X1638131Y3086989D1*
X1638585Y3081220D1*
X1638131Y3075452D1*
X1636781Y3069826D1*
X1634566Y3064480D1*
X1631543Y3059546D1*
X1627785Y3055147D1*
X1623385Y3051389D1*
X1618452Y3048365D1*
X1613106Y3046151D1*
X1607480Y3044800D1*
X1601711Y3044346D1*
X1599711Y3044425D1*
X1599710Y3033071D1*
X1603277Y3036032D1*
X1608211Y3039056D1*
X1613557Y3041270D1*
X1619183Y3042621D1*
X1624951Y3043075D1*
X1630720Y3042621D1*
X1636346Y3041270D1*
X1641692Y3039056D1*
X1646625Y3036032D1*
X1651025Y3032275D1*
X1653922Y3028967D1*
X1653921Y3121032D1*
X1632547Y2541354D2*
X1686338D1*
X1686353Y2570469D1*
X1623599Y2570460D1*
X1618220Y2569194D1*
X1612451Y2568740D1*
X1606683Y2569194D1*
X1601057Y2570545D1*
X1599709Y2571042D1*
X1599713Y2541522D1*
X1604961Y2542751D1*
X1610730Y2543205D1*
X1616498Y2542751D1*
X1622124Y2541400D1*
X1623366Y2540942D1*
X1623361Y2541354D1*
X1632547D1*
X740930Y1661853D2*
Y1690560D1*
X723417Y1673020D1*
X721519Y1667090D1*
X718823Y1661831D1*
X740900Y1661827D1*
X1407791Y1290213D2*
X1410861D1*
Y1279189D1*
X1407791Y1279176D1*
X1423607Y1741354D2*
X1546474D1*
Y1731486D1*
X1554930Y1731512D1*
X1554955Y1768913D1*
X1574656D1*
X1574640Y1785654D1*
X1570120Y1790777D1*
X1567096Y1795711D1*
X1564882Y1801057D1*
X1563531Y1806683D1*
X1563077Y1812451D1*
X1563531Y1818220D1*
X1564882Y1823846D1*
X1567096Y1829192D1*
X1568052Y1830899D1*
X1298585Y1830890D1*
X1392317Y1737131D1*
X1398340Y1740268D1*
X1403843Y1742056D1*
X1409558Y1742961D1*
X1415345D1*
X1421060Y1742056D1*
X1423552Y1741353D1*
X1455569Y1671047D2*
X1423560D1*
X1418220Y1669781D1*
X1412451Y1669327D1*
X1406517Y1669814D1*
X1406683Y1661370D1*
X1412451Y1661824D1*
X1418220Y1661370D1*
X1423846Y1660019D1*
X1429192Y1657805D1*
X1434125Y1654782D1*
X1438525Y1651024D1*
X1442283Y1646624D1*
X1445306Y1641691D1*
X1447521Y1636345D1*
X1448871Y1630718D1*
X1449285Y1623922D1*
X1466710Y1606487D1*
X1520111Y1606512D1*
X1455544Y1671064D1*
X1546474Y1680889D2*
Y1671047D1*
X1527132D1*
X1554205Y1643993D1*
X1554955Y1648738D1*
Y1680854D1*
X1546489Y1680890D1*
X1645047Y1385105D2*
X1674293D1*
X1671457Y1391519D1*
X1654956D1*
Y1502366D1*
X1649469Y1501031D1*
X1644955Y1500627D1*
X1644948Y1391519D1*
X1592593D1*
X1583489Y1382409D1*
X1583480Y1345435D1*
X1584680Y1351543D1*
Y1383581D1*
X1586151Y1385105D1*
X1635887D1*
X782547Y2771047D2*
X659680D1*
Y2830895D1*
X658009Y2830890D1*
X652876Y2826369D1*
X647943Y2823346D1*
X642597Y2821132D1*
X636970Y2819781D1*
X631202Y2819327D1*
X625434Y2819781D1*
X619807Y2821132D1*
X614462Y2823346D1*
X609528Y2826369D1*
X605128Y2830127D1*
X601370Y2834527D1*
X598347Y2839460D1*
X596133Y2844806D1*
X594782Y2850432D1*
X594328Y2856201D1*
X594782Y2861969D1*
X596133Y2867595D1*
X598030Y2872253D1*
X593185Y2874761D1*
X588504Y2878162D1*
X585449Y2881132D1*
X585450Y2788772D1*
X661113Y2713011D1*
X663811Y2709298D1*
X665894Y2705209D1*
X667313Y2700844D1*
X668031Y2696311D1*
X668121Y2611339D1*
Y2329379D1*
X712154Y2285362D1*
X712218Y2664436D1*
X712840Y2668359D1*
X714067Y2672136D1*
X715870Y2675675D1*
X718205Y2678888D1*
X763304Y2724098D1*
X766325Y2726678D1*
X769711Y2728753D1*
X773381Y2730273D1*
X777243Y2731200D1*
X781202Y2731512D1*
X800185D1*
X800190Y2769873D1*
X793701Y2769327D1*
X787932Y2769781D1*
X782600Y2771049D1*
X1049213Y1415808D2*
X1048308Y1410093D1*
X1047228Y1406510D1*
X1083226Y1406512D1*
X1095113Y1418408D1*
X1066716Y1418468D1*
X1062793Y1419089D1*
X1059016Y1420316D1*
X1055477Y1422120D1*
X1052264Y1424454D1*
X1050799Y1425809D1*
X1048308Y1427309D1*
X1049213Y1421594D1*
Y1415808D1*
X1380461Y2634558D2*
X1380146Y2631896D1*
X1478257Y2631892D1*
X1478225Y2662382D1*
X1473106Y2662373D1*
Y2800789D1*
X1478238D1*
X1478222Y2912040D1*
X1473104Y2912031D1*
Y3000449D1*
X1478235D1*
X1478222Y3030916D1*
X1447999Y3030929D1*
X1406493Y2989447D1*
X1406434Y2672966D1*
X1405813Y2669043D1*
X1404585Y2665265D1*
X1402782Y2661726D1*
X1400448Y2658513D1*
X1380550Y2638505D1*
X1380461Y2634558D1*
X1161712Y2784558D2*
X1160807Y2778843D1*
X1159019Y2773340D1*
X1156392Y2768185D1*
X1152991Y2763504D1*
X1150270Y2760679D1*
X1150263Y2729211D1*
X1245690Y2633758D1*
X1244442Y2640808D1*
Y2646594D1*
X1245347Y2652309D1*
X1247135Y2657812D1*
X1249762Y2662967D1*
X1253163Y2667649D1*
X1255884Y2670473D1*
X1255891Y2927652D1*
X1041529Y2927661D1*
Y3042010D1*
X1036248Y3039855D1*
X1037451Y3035160D1*
X1037762Y3031193D1*
X1037763Y2791674D1*
X1099645Y2729802D1*
X1099640Y2760649D1*
X1095120Y2765777D1*
X1092096Y2770711D1*
X1089882Y2776057D1*
X1088531Y2781683D1*
X1088077Y2787451D1*
X1088531Y2793220D1*
X1089882Y2798846D1*
X1092096Y2804192D1*
X1095120Y2809125D1*
X1098878Y2813525D1*
X1103277Y2817283D1*
X1108211Y2820306D1*
X1113557Y2822521D1*
X1119183Y2823871D1*
X1124951Y2824325D1*
X1130720Y2823871D1*
X1136346Y2822521D1*
X1141692Y2820306D1*
X1146625Y2817283D1*
X1151025Y2813525D1*
X1154783Y2809125D1*
X1157806Y2804192D1*
X1160021Y2798846D1*
X1161371Y2793220D1*
X1161825Y2787451D1*
X1161712Y2784558D1*
X1014224Y3224632D2*
X1009125Y3220118D1*
X1004192Y3217095D1*
X998846Y3214881D1*
X993220Y3213530D1*
X987451Y3213076D1*
X981683Y3213530D1*
X976057Y3214881D1*
X970711Y3217095D1*
X965777Y3220118D1*
X961378Y3223876D1*
X957620Y3228276D1*
X954596Y3233210D1*
X952382Y3238555D1*
X951031Y3244182D1*
X950577Y3249950D1*
X951031Y3255718D1*
X952723Y3262268D1*
X922072Y3262220D1*
Y3233477D1*
X937781Y3233396D1*
X942009Y3232727D1*
X946080Y3231404D1*
X949894Y3229460D1*
X953357Y3226944D1*
X978959Y3201461D1*
X1104423Y3201453D1*
X1109964Y3205613D1*
X1115120Y3208240D1*
X1120623Y3210028D1*
X1126338Y3210934D1*
X1132124D1*
X1137839Y3210028D1*
X1143342Y3208240D1*
X1148498Y3205613D1*
X1153179Y3202212D1*
X1157270Y3198121D1*
X1160671Y3193440D1*
X1163298Y3188284D1*
X1165086Y3182781D1*
X1165991Y3177066D1*
Y3171280D1*
X1165086Y3165565D1*
X1163298Y3160062D1*
X1160671Y3154907D1*
X1157270Y3150225D1*
X1153179Y3146134D1*
X1148498Y3142733D1*
X1143342Y3140106D1*
X1137839Y3138318D1*
X1132124Y3137413D1*
X1126338D1*
X1120623Y3138318D1*
X1115120Y3140106D1*
X1109964Y3142733D1*
X1104461Y3146894D1*
X988816D1*
X1023893Y3111805D1*
X1030720Y3111371D1*
X1036346Y3110021D1*
X1041692Y3107806D1*
X1046625Y3104783D1*
X1051025Y3101025D1*
X1054783Y3096625D1*
X1057806Y3091692D1*
X1059218Y3088521D1*
X1255894Y3088520D1*
X1255891Y3201951D1*
X1233236Y3224621D1*
X1014294Y3224639D1*
X921679Y3023653D2*
X921678Y2826237D1*
X930595Y2817603D1*
X962135Y2786063D1*
X962140Y2983182D1*
X921673Y3023684D1*
X1473106Y2356331D2*
X1473107Y2500790D1*
X1478238D1*
X1478225Y2531257D1*
X1298150Y2531270D1*
X1473099Y2356348D1*
X1478222Y3131562D2*
Y3180916D1*
X1347954Y3180929D1*
X1344013Y3169079D1*
Y3086079D1*
X1383553Y3125487D1*
X1386766Y3127821D1*
X1390305Y3129625D1*
X1394082Y3130852D1*
X1398005Y3131473D1*
X1478254Y3131551D1*
X1478222Y3231562D2*
Y3262270D1*
X1267166Y3262268D1*
X1300449Y3228888D1*
X1302783Y3225675D1*
X1304586Y3222136D1*
X1305814Y3218359D1*
X1306435Y3214436D1*
X1306513Y3211051D1*
X1321053Y3225487D1*
X1324266Y3227821D1*
X1327805Y3229625D1*
X1331582Y3230852D1*
X1335505Y3231473D1*
X1456913Y3231551D1*
X1478193D1*
X764387Y2191896D2*
X784734D1*
X747926Y2228681D1*
X747949Y2186775D1*
X751886Y2186778D1*
Y2125237D1*
X755201Y2132350D1*
Y2191896D1*
X764387D1*
X1375263Y3045687D2*
Y3029826D1*
X1421053Y3075487D1*
X1424266Y3077821D1*
X1427805Y3079625D1*
X1431590Y3080853D1*
X1410465Y3080929D1*
X1375286Y3045740D1*
X726104Y3256196D2*
D19*
X761222D1*
X1343508Y1493965D2*
Y1454911D1*
X1265280Y1728818D2*
Y1693701D1*
X1177108Y1801133D2*
X1212225D1*
X627334Y2074950D2*
X662451D1*
X627334Y2131202D2*
X662451D1*
X966720Y762283D2*
Y625118D1*
X894202Y693701D2*
X1039240D1*
X818259Y1556201D2*
X855345D1*
X818260Y1606201D2*
X855346D1*
X749951Y1006201D2*
Y954862D1*
X698613Y1006201D2*
X749951D1*
X849951Y1057539D2*
Y954863D1*
Y1006201D2*
X901290D1*
X949951Y1057539D2*
Y954863D1*
Y1006201D2*
X1001290D1*
X631202Y1461319D2*
X674982D1*
X631202Y1713287D2*
X674982D1*
X444195Y1796436D2*
Y1718327D1*
Y1456279D2*
Y1378169D1*
X608761Y1796436D2*
Y1757382D1*
X546085D2*
X671438D1*
X608761Y1417224D2*
Y1378169D1*
X546085Y1417224D2*
X671438D1*
X1774932Y3121437D2*
Y3082382D1*
X1739814D2*
X1810049D1*
X1005122Y1840187D2*
Y1801133D1*
X831202Y1499950D2*
Y1464832D1*
Y1499950D2*
X870257D1*
X831202Y1697568D2*
Y1662450D1*
X870257D1*
X698770Y2806201D2*
Y2771083D1*
X659716Y2806201D2*
X698770D1*
X861328Y3256201D2*
X922036D1*
X1478258Y3256240D2*
X1599674D1*
X1161328Y3088484D2*
Y2927697D1*
X1041565Y3008091D2*
X1161328D1*
X800230Y2556541D2*
X921647D1*
X1699951Y1768878D2*
Y1639587D1*
X1654991Y1704232D2*
X1744912D1*
D20*
X761222Y3205014D3*
Y3256196D3*
X1343508Y1403730D3*
Y1454911D3*
D21*
X1214098Y1693701D3*
X1265280D3*
X1214101Y1637039D3*
X1265282D3*
D20*
X1119780Y1749950D3*
Y1801131D3*
X1177108Y1749951D3*
Y1801133D3*
X662451Y2023769D3*
Y2074950D3*
Y2182383D3*
Y2131202D3*
D22*
X1218702Y693701D3*
X966720D3*
D20*
X549971Y3084724D3*
Y3033543D3*
X1849951Y3031201D3*
Y3082382D3*
D24*
X774951Y1556201D3*
X818259D3*
X774953Y1606201D3*
X818260D3*
D26*
X843860Y1937451D3*
Y1827215D3*
X718676Y1896217D3*
X608440D3*
D28*
X749951Y1006201D3*
D29*
X849951D3*
X949951D3*
X1049951D3*
X1149951D3*
X1249951D3*
X1349951D3*
X1449951D3*
X1549951D3*
X1649951D3*
Y1106201D3*
X1549951D3*
X1449951D3*
X1349951D3*
X1249951D3*
X1149951D3*
X1049951D3*
X949951D3*
X849951D3*
X749951D3*
D30*
X631202Y1656200D3*
Y1636515D3*
Y1616830D3*
Y1597145D3*
Y1577460D3*
Y1557775D3*
Y1538090D3*
Y1518405D3*
D31*
Y1492815D3*
Y1461319D3*
Y1713287D3*
Y1681791D3*
D32*
X444195Y1757382D3*
Y1417224D3*
D33*
X608761Y1757382D3*
Y1417224D3*
D35*
X1294518Y1420264D3*
Y1445854D3*
Y1471445D3*
X1207904D3*
Y1445854D3*
Y1420264D3*
D21*
X1662451Y2662451D3*
X1713633D3*
X1284894Y1357420D3*
X1233713D3*
X1298573Y1544920D3*
X1247392D3*
D20*
X624951Y3082382D3*
Y3031201D3*
X1774932D3*
Y3082382D3*
X1005122Y1749951D3*
Y1801133D3*
X947797Y1749951D3*
Y1801133D3*
X1062453Y1749951D3*
Y1801133D3*
D21*
X1662451Y2906201D3*
X1713633D3*
X1662451Y2806201D3*
X1713633D3*
X1693702Y2856201D3*
X1744883D3*
X1662451Y3156201D3*
X1713633D3*
X1662451Y2506201D3*
X1713633D3*
X1662451Y2605614D3*
X1713633D3*
X831202Y1499950D3*
X780021D3*
X831202Y1662450D3*
X780021D3*
D129*
X1368701Y1287450D3*
X1317520D3*
X1449951D3*
X1501133D3*
D21*
X1456202Y1706201D3*
X1507383D3*
X1674951Y1349951D3*
X1623770D3*
X1149951Y1287450D3*
X1201133D3*
X749951Y2806201D3*
X698770D3*
D36*
X1893469Y3450646D3*
X1716303D3*
D37*
X1942681Y3352220D3*
X1667091D3*
D36*
X678633Y3450630D3*
X501467D3*
D37*
X727845Y3352205D3*
X452255D3*
D42*
X861328Y3256201D3*
X860934Y3206201D3*
Y3156201D3*
Y3106201D3*
Y3056201D3*
Y3006201D3*
Y2956201D3*
Y2906201D3*
Y2856201D3*
Y2806201D3*
Y2756201D3*
Y2706201D3*
Y2656201D3*
Y2606201D3*
X1538969Y2606581D3*
Y2656581D3*
Y2706581D3*
Y2756580D3*
Y2806581D3*
Y2356581D3*
Y2406581D3*
Y2456581D3*
Y2506581D3*
Y2556581D3*
X1538966Y2856240D3*
Y2906240D3*
Y2956240D3*
Y3006240D3*
Y3056240D3*
Y3106240D3*
Y3156240D3*
Y3206240D3*
Y3256240D3*
D43*
X1161328Y3008091D3*
D42*
X860938Y2556541D3*
Y2506541D3*
Y2456541D3*
Y2406541D3*
Y2356541D3*
D45*
X1099695Y1529937D3*
Y1549622D3*
Y1569307D3*
Y1588992D3*
Y1608677D3*
Y1628362D3*
D46*
X1074105Y1653953D3*
X1054420D3*
X1034735D3*
X1015050D3*
X995365D3*
X975679D3*
D45*
X950089Y1628362D3*
Y1608677D3*
Y1588992D3*
Y1569307D3*
Y1549622D3*
Y1529937D3*
D46*
X975679Y1504346D3*
X995365D3*
X1015050D3*
X1034735D3*
X1054420D3*
X1074105D3*
D47*
X1024892Y1579150D3*
D55*
X718701Y2037451D3*
X756102D3*
X793504D3*
Y2143751D3*
X718701D3*
D56*
X1599951Y1456201D3*
X1699951D3*
Y1704232D3*
X1599951D3*
M02*
