G04 DipTrace 3.3.1.3*
G04 TopMask.gbr*
%MOIN*%
G04 #@! TF.FileFunction,Soldermask,Top*
G04 #@! TF.Part,Single*
%AMOUTLINE0*
4,1,4,
-0.017717,-0.01378,
-0.017717,0.01378,
0.017717,0.01378,
0.017717,-0.01378,
-0.017717,-0.01378,
0*%
%ADD21R,0.035433X0.027559*%
%ADD22R,0.102362X0.094488*%
%ADD24R,0.031496X0.023622*%
%ADD26R,0.047244X0.047244*%
%ADD30R,0.044882X0.011811*%
%ADD31R,0.044882X0.023622*%
%ADD32O,0.070866X0.035433*%
%ADD33O,0.082677X0.035433*%
%ADD35R,0.035433X0.015748*%
%ADD42R,0.07874X0.035433*%
%ADD45O,0.033465X0.011811*%
%ADD46O,0.011811X0.033465*%
%ADD47R,0.096457X0.096457*%
%ADD55R,0.023622X0.043307*%
%ADD56R,0.047244X0.086614*%
%ADD63C,0.11811*%
%ADD64C,0.137795*%
%ADD65C,0.025591*%
%ADD66C,0.049213*%
%ADD87R,0.204724X0.125984*%
%ADD97C,0.082677*%
%ADD99C,0.070866*%
%ADD111C,0.067874*%
%ADD113R,0.067874X0.067874*%
%ADD121R,0.043307X0.035433*%
%ADD123R,0.035433X0.043307*%
%ADD129OUTLINE0*%
%FSLAX26Y26*%
G04*
G70*
G90*
G75*
G01*
G04 TopMask*
%LPD*%
D123*
X761222Y3205014D3*
Y3256196D3*
X1343508Y1403730D3*
Y1454911D3*
D121*
X1214098Y1693701D3*
X1265280D3*
X1214101Y1637039D3*
X1265282D3*
D123*
X1119780Y1749950D3*
Y1801131D3*
X1177108Y1749951D3*
Y1801133D3*
X662451Y2023769D3*
Y2074950D3*
Y2182383D3*
Y2131202D3*
D22*
X1218702Y693701D3*
X966720D3*
D123*
X549971Y3084724D3*
Y3033543D3*
X1849951Y3031201D3*
Y3082382D3*
D24*
X774951Y1556201D3*
X818259D3*
X774953Y1606201D3*
X818260D3*
D26*
X843860Y1937451D3*
Y1827215D3*
X718676Y1896217D3*
X608440D3*
D63*
X1924932Y1368701D3*
D64*
X1199951Y2031201D3*
D63*
X468702Y2943701D3*
D113*
X749951Y1006201D3*
D111*
X849951D3*
X949951D3*
X1049951D3*
X1149951D3*
X1249951D3*
X1349951D3*
X1449951D3*
X1549951D3*
X1649951D3*
Y1106201D3*
X1549951D3*
X1449951D3*
X1349951D3*
X1249951D3*
X1149951D3*
X1049951D3*
X949951D3*
X849951D3*
X749951D3*
D30*
X631202Y1656200D3*
Y1636515D3*
Y1616830D3*
Y1597145D3*
Y1577460D3*
Y1557775D3*
Y1538090D3*
Y1518405D3*
D31*
Y1492815D3*
Y1461319D3*
Y1713287D3*
Y1681791D3*
D32*
X444195Y1757382D3*
Y1417224D3*
D33*
X608761Y1757382D3*
Y1417224D3*
D65*
X589076Y1701082D3*
Y1473523D3*
D35*
X1294518Y1420264D3*
Y1445854D3*
Y1471445D3*
X1207904D3*
Y1445854D3*
Y1420264D3*
D121*
X1662451Y2662451D3*
X1713633D3*
X1284894Y1357420D3*
X1233713D3*
X1298573Y1544920D3*
X1247392D3*
D123*
X624951Y3082382D3*
Y3031201D3*
X1774932D3*
Y3082382D3*
X1005122Y1749951D3*
Y1801133D3*
X947797Y1749951D3*
Y1801133D3*
X1062453Y1749951D3*
Y1801133D3*
D121*
X1662451Y2906201D3*
X1713633D3*
X1662451Y2806201D3*
X1713633D3*
X1693702Y2856201D3*
X1744883D3*
X1662451Y3156201D3*
X1713633D3*
X1662451Y2506201D3*
X1713633D3*
X1662451Y2605614D3*
X1713633D3*
X831202Y1499950D3*
X780021D3*
X831202Y1662450D3*
X780021D3*
D129*
X1368701Y1287450D3*
X1317520D3*
X1449951D3*
X1501133D3*
D121*
X1456202Y1706201D3*
X1507383D3*
X1674951Y1349951D3*
X1623770D3*
X1149951Y1287450D3*
X1201133D3*
D21*
X749951Y2806201D3*
X698770D3*
D99*
X1893469Y3450646D3*
X1716303D3*
D97*
X1942681Y3352220D3*
X1667091D3*
D99*
X678633Y3450630D3*
X501467D3*
D97*
X727845Y3352205D3*
X452255D3*
D66*
X1843789Y2915965D3*
Y2601516D3*
D42*
X861328Y3256201D3*
X860934Y3206201D3*
Y3156201D3*
Y3106201D3*
Y3056201D3*
Y3006201D3*
Y2956201D3*
Y2906201D3*
Y2856201D3*
Y2806201D3*
Y2756201D3*
Y2706201D3*
Y2656201D3*
Y2606201D3*
X1538969Y2606581D3*
Y2656581D3*
Y2706581D3*
Y2756580D3*
Y2806581D3*
Y2356581D3*
Y2406581D3*
Y2456581D3*
Y2506581D3*
Y2556581D3*
X1538966Y2856240D3*
Y2906240D3*
Y2956240D3*
Y3006240D3*
Y3056240D3*
Y3106240D3*
Y3156240D3*
Y3206240D3*
Y3256240D3*
D87*
X1161328Y3008091D3*
D42*
X860938Y2556541D3*
Y2506541D3*
Y2456541D3*
Y2406541D3*
Y2356541D3*
D45*
X1099695Y1529937D3*
Y1549622D3*
Y1569307D3*
Y1588992D3*
Y1608677D3*
Y1628362D3*
D46*
X1074105Y1653953D3*
X1054420D3*
X1034735D3*
X1015050D3*
X995365D3*
X975679D3*
D45*
X950089Y1628362D3*
Y1608677D3*
Y1588992D3*
Y1569307D3*
Y1549622D3*
Y1529937D3*
D46*
X975679Y1504346D3*
X995365D3*
X1015050D3*
X1034735D3*
X1054420D3*
X1074105D3*
D47*
X1024892Y1579150D3*
D55*
X718701Y2037451D3*
X756102D3*
X793504D3*
Y2143751D3*
X718701D3*
D56*
X1599951Y1456201D3*
X1699951D3*
Y1704232D3*
X1599951D3*
M02*
