G04 DipTrace 3.3.1.3*
G04 BottomSilk.gbr*
%MOIN*%
G04 #@! TF.FileFunction,Legend,Bot*
G04 #@! TF.Part,Single*
%ADD10C,0.009843*%
%ADD14C,0.007874*%
%ADD17C,0.003937*%
%ADD20C,0.01378*%
%ADD24C,0.015762*%
%ADD32C,0.015396*%
%ADD34C,0.015422*%
%ADD51O,0.016153X0.01536*%
%ADD57C,0.015395*%
%ADD135C,0.004632*%
%ADD136C,0.006176*%
%FSLAX26Y26*%
G04*
G70*
G90*
G75*
G01*
G04 BotSilk*
%LPD*%
X608195Y1361795D2*
D10*
X748935Y1280559D1*
X757139Y2097983D2*
D17*
Y2145224D1*
X717769Y2097983D2*
Y2145224D1*
D14*
X737454Y2074363D3*
X717769Y1970673D2*
D17*
Y1923432D1*
X757139Y1970673D2*
Y1923432D1*
D14*
X737454Y1994293D3*
X612395Y1754535D2*
D17*
Y1707294D1*
X651765Y1754535D2*
Y1707294D1*
D14*
X632080Y1778156D3*
X788596Y1800352D2*
D10*
X741364D1*
X788596Y1729490D2*
X741364D1*
D24*
X861431Y1764921D3*
X788596Y1706603D2*
D10*
X741364D1*
X788596Y1635741D2*
X741364D1*
D24*
X861431Y1671172D3*
X2350337Y768164D2*
D14*
X2344785Y772185D1*
X2343636Y774336D1*
X2341339Y778730D1*
X2333299Y793878D1*
X2323153Y812859D1*
X2105297Y1221191D1*
Y1354154D1*
X2098406D1*
X2035423D1*
X1764923D1*
X1400235D1*
X1063881D1*
X894842D1*
X827839D1*
Y1226708D1*
X607112Y812859D1*
X604432Y807904D1*
X599838Y799114D1*
X596966Y793878D1*
X588926Y778730D1*
X586629Y774336D1*
X585480Y772185D1*
X580694Y768725D1*
X579928Y768164D1*
X565571Y755167D1*
X552553Y740861D1*
X541067Y725340D1*
X531112Y708789D1*
X522880Y691304D1*
X516371Y673071D1*
X511777Y654370D1*
X508905Y635295D1*
X508714Y632584D1*
X507948Y615940D1*
X508905Y596678D1*
X511777Y577603D1*
X516371Y558809D1*
X522880Y540669D1*
X531112Y523184D1*
X541067Y506634D1*
X552553Y491112D1*
X557339Y485970D1*
X565571Y476713D1*
X571505Y471289D1*
X579928Y463809D1*
X595435Y452308D1*
X612090Y442303D1*
X629511Y434075D1*
X647697Y427623D1*
X666458Y422854D1*
X685602Y420049D1*
X704745Y419114D1*
X724080Y420049D1*
X743224Y422854D1*
X753562Y425472D1*
X761985Y427623D1*
X780171Y434075D1*
X797592Y442303D1*
X814247Y452308D1*
X829754Y463809D1*
X837985Y471289D1*
X843920Y476713D1*
X852343Y485970D1*
X856938Y491112D1*
X868424Y506634D1*
X878379Y523184D1*
X881442Y529449D1*
X884887Y533750D1*
X901734Y555162D1*
X1077856Y779385D1*
X1852409D1*
X2028531Y555162D1*
X2043655Y535994D1*
X2045378Y533750D1*
X2048824Y529449D1*
X2051887Y523184D1*
X2061841Y506634D1*
X2073328Y491112D1*
X2086345Y476713D1*
X2092280Y471289D1*
X2098406Y465679D1*
X2100512Y463809D1*
X2116018Y452308D1*
X2132673Y442303D1*
X2150094Y434075D1*
X2168280Y427623D1*
X2187041Y422854D1*
X2206185Y420049D1*
X2225520Y419114D1*
X2244664Y420049D1*
X2263807Y422854D1*
X2282568Y427623D1*
X2300755Y434075D1*
X2318175Y442303D1*
X2334830Y452308D1*
X2350337Y463809D1*
X2358760Y471289D1*
X2364694Y476713D1*
X2366226Y478489D1*
X2377712Y491112D1*
X2389198Y506634D1*
X2399153Y523184D1*
X2407385Y540669D1*
X2413894Y558809D1*
X2418488Y577603D1*
X2421360Y596678D1*
X2422317Y615940D1*
X2421743Y628002D1*
X2421360Y635295D1*
X2418488Y654370D1*
X2413894Y673071D1*
X2407385Y691304D1*
X2399153Y708789D1*
X2389198Y725340D1*
X2377712Y740861D1*
X2366226Y753391D1*
X2364694Y755167D1*
X2350337Y768164D1*
D32*
X863457Y2469305D3*
X872656Y2427033D2*
D10*
X951385D1*
Y2403372D1*
X872656D1*
Y2427033D1*
D34*
X1041495Y1570875D3*
X1091636Y1580076D2*
D10*
Y1698181D1*
X1111322D1*
Y1580076D1*
X1091636D1*
D34*
X1083412Y1545073D3*
X1033270Y1535873D2*
D10*
Y1417768D1*
X1013585D1*
Y1535873D1*
X1033270D1*
X851023Y2813254D2*
Y2963258D1*
X1176048Y2813254D2*
X1176013Y2963258D1*
X851023D2*
X1176048D1*
X851023Y2725748D2*
Y2700739D1*
X1176048D1*
Y2725748D1*
X2169774Y2813812D2*
Y2963816D1*
X2494799Y2813812D2*
X2494764Y2963816D1*
X2169774D2*
X2494799D1*
X2169774Y2726305D2*
Y2701297D1*
X2494799D1*
Y2726305D1*
X444774Y2813265D2*
Y2963269D1*
X769799Y2813265D2*
X769764Y2963269D1*
X444774D2*
X769799D1*
X444774Y2725758D2*
Y2700749D1*
X769799D1*
Y2725758D1*
X564551Y1737324D2*
X539251Y1737370D1*
X407996Y1643616D2*
X439550Y1643570D1*
Y1493582D1*
X407996Y1493628D1*
X439550Y1568576D2*
X407996Y1568622D1*
X408283Y1737324D2*
X407996Y1399874D1*
X564551Y1737324D2*
X564264Y1399874D1*
X439550Y1399828D2*
X407996Y1399874D1*
X439550Y1737324D2*
X407996Y1737370D1*
X564551Y1399828D2*
X539251Y1399874D1*
X2444440Y1885708D2*
X2223290D1*
X2094817D2*
X2043821D1*
Y1451804D1*
X2195830Y1413134D2*
X2442969D1*
X1990743Y2984677D2*
X1272034D1*
Y2728427D1*
X1990743D1*
Y2984677D1*
Y1760053D2*
Y1735053D1*
X1353236Y1734678D1*
X1278240Y1735053D2*
Y1760053D1*
Y1735053D2*
X1372004D1*
X944695Y2093750D2*
X932904Y2105558D1*
X944695Y1948080D2*
X932904D1*
X944695D2*
Y1959888D1*
X787155Y1948080D2*
Y1959888D1*
Y1948080D2*
X798987D1*
X787155Y2105558D2*
Y2093750D1*
Y2105558D2*
X798987D1*
D51*
X972052Y2075836D3*
X1531749Y1480064D2*
D10*
X1193156D1*
X1531749Y1582440D2*
X1193156D1*
Y1480064D2*
Y1582440D1*
X1531749Y1480064D2*
Y1511557D1*
Y1550946D2*
Y1582440D1*
Y1511557D2*
G02X1531749Y1550946I-12J19694D01*
G01*
X1956749Y1480064D2*
X1618156D1*
X1956749Y1582440D2*
X1618156D1*
Y1480064D2*
Y1582440D1*
X1956749Y1480064D2*
Y1511557D1*
Y1550946D2*
Y1582440D1*
Y1511557D2*
G02X1956749Y1550946I-12J19694D01*
G01*
D57*
X758327Y1468561D3*
X812393Y1473824D2*
D10*
Y1591932D1*
X843884Y1473824D2*
Y1591932D1*
X812393D2*
X843884D1*
X812393Y1473824D2*
X843884D1*
X862454Y1795475D2*
D20*
Y1757975D1*
Y1701724D2*
Y1664224D1*
X874954Y2424953D2*
D10*
Y2356203D1*
X2122403Y2664909D2*
D135*
X2123829Y2667760D1*
X2126714Y2670646D1*
X2129566Y2672072D1*
X2135303D1*
X2138188Y2670646D1*
X2141040Y2667760D1*
X2142499Y2664909D1*
X2143925Y2660598D1*
Y2653401D1*
X2142499Y2649124D1*
X2141040Y2646239D1*
X2138188Y2643387D1*
X2135303Y2641928D1*
X2129566D1*
X2126714Y2643387D1*
X2123829Y2646239D1*
X2122403Y2649124D1*
X2113140Y2666301D2*
X2110255Y2667760D1*
X2105944Y2672038D1*
Y2641928D1*
X780654Y2391964D2*
X777802Y2393389D1*
X774917Y2396275D1*
X773491Y2399126D1*
Y2404863D1*
X774917Y2407748D1*
X777802Y2410600D1*
X780654Y2412059D1*
X784965Y2413485D1*
X792161D1*
X796439Y2412059D1*
X799324Y2410600D1*
X802176Y2407748D1*
X803635Y2404863D1*
Y2399126D1*
X802176Y2396274D1*
X799324Y2393389D1*
X796439Y2391963D1*
X780688Y2381241D2*
X779262D1*
X776376Y2379815D1*
X774951Y2378389D1*
X773525Y2375504D1*
Y2369767D1*
X774950Y2366915D1*
X776376Y2365489D1*
X779262Y2364030D1*
X782113D1*
X784998Y2365489D1*
X789276Y2368341D1*
X803635Y2382700D1*
Y2362604D1*
X2223289Y2163342D2*
X2224715Y2166194D1*
X2227600Y2169079D1*
X2230452Y2170505D1*
X2236189D1*
X2239074Y2169079D1*
X2241926Y2166194D1*
X2243385Y2163342D1*
X2244811Y2159031D1*
Y2151835D1*
X2243385Y2147557D1*
X2241926Y2144672D1*
X2239074Y2141820D1*
X2236189Y2140361D1*
X2230452D1*
X2227600Y2141820D1*
X2224715Y2144672D1*
X2223289Y2147557D1*
X2211140Y2170472D2*
X2195388D1*
X2203977Y2158998D1*
X2199666D1*
X2196814Y2157572D1*
X2195388Y2156146D1*
X2193929Y2151835D1*
Y2148983D1*
X2195388Y2144672D1*
X2198240Y2141787D1*
X2202551Y2140361D1*
X2206862D1*
X2211140Y2141787D1*
X2212566Y2143246D1*
X2214025Y2146098D1*
X1083839Y2103771D2*
X1080987Y2105197D1*
X1078102Y2108082D1*
X1076676Y2110934D1*
Y2116671D1*
X1078102Y2119556D1*
X1080987Y2122408D1*
X1083839Y2123867D1*
X1088150Y2125293D1*
X1095346D1*
X1099624Y2123867D1*
X1102509Y2122408D1*
X1105361Y2119556D1*
X1106820Y2116671D1*
Y2110934D1*
X1105361Y2108082D1*
X1102509Y2105197D1*
X1099624Y2103771D1*
X1106820Y2080148D2*
X1076710D1*
X1096772Y2094507D1*
Y2072986D1*
X1037787Y2102815D2*
X1034935Y2104241D1*
X1032050Y2107126D1*
X1030624Y2109978D1*
Y2115715D1*
X1032050Y2118600D1*
X1034935Y2121452D1*
X1037787Y2122911D1*
X1042098Y2124337D1*
X1049294D1*
X1053572Y2122911D1*
X1056457Y2121452D1*
X1059309Y2118600D1*
X1060768Y2115715D1*
Y2109978D1*
X1059309Y2107126D1*
X1056457Y2104241D1*
X1053572Y2102815D1*
X1030657Y2076341D2*
Y2090667D1*
X1043557Y2092093D1*
X1042131Y2090667D1*
X1040672Y2086356D1*
Y2082078D1*
X1042131Y2077767D1*
X1044983Y2074882D1*
X1049294Y2073456D1*
X1052146D1*
X1056457Y2074882D1*
X1059342Y2077767D1*
X1060768Y2082078D1*
Y2086356D1*
X1059342Y2090667D1*
X1057883Y2092093D1*
X1055031Y2093552D1*
X1573427Y1703792D2*
X1574853Y1706644D1*
X1577738Y1709529D1*
X1580590Y1710955D1*
X1586327D1*
X1589212Y1709529D1*
X1592064Y1706644D1*
X1593523Y1703792D1*
X1594949Y1699481D1*
Y1692285D1*
X1593523Y1688007D1*
X1592064Y1685122D1*
X1589212Y1682270D1*
X1586327Y1680811D1*
X1580590D1*
X1577738Y1682270D1*
X1574853Y1685122D1*
X1573427Y1688007D1*
X1546952Y1706644D2*
X1548378Y1709496D1*
X1552689Y1710922D1*
X1555541D1*
X1559852Y1709496D1*
X1562737Y1705185D1*
X1564163Y1698022D1*
Y1690859D1*
X1562737Y1685122D1*
X1559852Y1682237D1*
X1555541Y1680811D1*
X1554115D1*
X1549837Y1682237D1*
X1546952Y1685122D1*
X1545526Y1689433D1*
Y1690859D1*
X1546952Y1695170D1*
X1549837Y1698022D1*
X1554115Y1699448D1*
X1555541D1*
X1559852Y1698022D1*
X1562737Y1695170D1*
X1564163Y1690859D1*
X1055503Y1891304D2*
X1056929Y1894156D1*
X1059814Y1897041D1*
X1062666Y1898467D1*
X1068403D1*
X1071288Y1897041D1*
X1074140Y1894156D1*
X1075599Y1891304D1*
X1077025Y1886993D1*
Y1879797D1*
X1075599Y1875519D1*
X1074140Y1872634D1*
X1071288Y1869782D1*
X1068403Y1868323D1*
X1062666D1*
X1059814Y1869782D1*
X1056929Y1872634D1*
X1055503Y1875519D1*
X1040502Y1868323D2*
X1026143Y1898434D1*
X1046239D1*
X1054250Y1845074D2*
X1055676Y1847926D1*
X1058561Y1850811D1*
X1061413Y1852237D1*
X1067150D1*
X1070035Y1850811D1*
X1072887Y1847926D1*
X1074346Y1845074D1*
X1075772Y1840763D1*
Y1833567D1*
X1074346Y1829289D1*
X1072887Y1826404D1*
X1070035Y1823552D1*
X1067150Y1822093D1*
X1061413D1*
X1058561Y1823552D1*
X1055676Y1826404D1*
X1054250Y1829289D1*
X1037824Y1852204D2*
X1042101Y1850778D1*
X1043560Y1847926D1*
Y1845041D1*
X1042101Y1842189D1*
X1039249Y1840730D1*
X1033512Y1839304D1*
X1029201Y1837878D1*
X1026350Y1834993D1*
X1024924Y1832141D1*
Y1827830D1*
X1026350Y1824978D1*
X1027776Y1823519D1*
X1032087Y1822093D1*
X1037824D1*
X1042101Y1823519D1*
X1043560Y1824978D1*
X1044986Y1827830D1*
Y1832141D1*
X1043560Y1834993D1*
X1040675Y1837878D1*
X1036398Y1839304D1*
X1030661Y1840730D1*
X1027776Y1842189D1*
X1026350Y1845041D1*
Y1847926D1*
X1027776Y1850778D1*
X1032087Y1852204D1*
X1037824D1*
X1998176Y1705882D2*
X1999602Y1708734D1*
X2002487Y1711619D1*
X2005339Y1713045D1*
X2011076D1*
X2013961Y1711619D1*
X2016813Y1708734D1*
X2018272Y1705882D1*
X2019698Y1701571D1*
Y1694375D1*
X2018272Y1690097D1*
X2016813Y1687212D1*
X2013961Y1684361D1*
X2011076Y1682901D1*
X2005339D1*
X2002487Y1684361D1*
X1999602Y1687212D1*
X1998176Y1690097D1*
X1970242Y1702997D2*
X1971701Y1698686D1*
X1974553Y1695801D1*
X1978864Y1694375D1*
X1980290D1*
X1984601Y1695801D1*
X1987453Y1698686D1*
X1988912Y1702997D1*
Y1704423D1*
X1987453Y1708734D1*
X1984601Y1711586D1*
X1980290Y1713012D1*
X1978864D1*
X1974553Y1711586D1*
X1971701Y1708734D1*
X1970242Y1702997D1*
Y1695801D1*
X1971701Y1688638D1*
X1974553Y1684327D1*
X1978864Y1682901D1*
X1981716D1*
X1986027Y1684327D1*
X1987453Y1687212D1*
X730852Y1402999D2*
X732278Y1405851D1*
X735163Y1408736D1*
X738015Y1410162D1*
X743752D1*
X746637Y1408736D1*
X749489Y1405851D1*
X750948Y1402999D1*
X752374Y1398688D1*
Y1391492D1*
X750948Y1387214D1*
X749489Y1384329D1*
X746637Y1381477D1*
X743752Y1380018D1*
X738015D1*
X735163Y1381477D1*
X732278Y1384329D1*
X730852Y1387214D1*
X721588Y1404392D2*
X718703Y1405851D1*
X714392Y1410129D1*
Y1380018D1*
X696507Y1410129D2*
X700818Y1408703D1*
X703703Y1404392D1*
X705129Y1397229D1*
Y1392918D1*
X703703Y1385755D1*
X700818Y1381444D1*
X696507Y1380018D1*
X693655D1*
X689344Y1381444D1*
X686492Y1385755D1*
X685033Y1392918D1*
Y1397229D1*
X686492Y1404392D1*
X689344Y1408703D1*
X693655Y1410129D1*
X696507D1*
X686492Y1404392D2*
X703703Y1385755D1*
X836312Y1402276D2*
X837737Y1405128D1*
X840623Y1408013D1*
X843474Y1409439D1*
X849211D1*
X852097Y1408013D1*
X854948Y1405128D1*
X856408Y1402276D1*
X857833Y1397965D1*
Y1390769D1*
X856408Y1386491D1*
X854948Y1383606D1*
X852097Y1380754D1*
X849211Y1379295D1*
X843474D1*
X840623Y1380754D1*
X837737Y1383606D1*
X836312Y1386491D1*
X827048Y1403669D2*
X824163Y1405128D1*
X819852Y1409406D1*
Y1379295D1*
X810588Y1403669D2*
X807703Y1405128D1*
X803392Y1409406D1*
Y1379295D1*
X515685Y917316D2*
X517111Y920167D1*
X519996Y923053D1*
X522848Y924478D1*
X528585D1*
X531470Y923053D1*
X534322Y920167D1*
X535781Y917316D1*
X537207Y913005D1*
Y905808D1*
X535781Y901531D1*
X534322Y898645D1*
X531470Y895794D1*
X528585Y894334D1*
X522848D1*
X519996Y895794D1*
X517111Y898645D1*
X515685Y901531D1*
X506422Y918708D2*
X503537Y920167D1*
X499226Y924445D1*
Y894334D1*
X488503Y917282D2*
Y918708D1*
X487077Y921593D1*
X485651Y923019D1*
X482766Y924445D1*
X477029D1*
X474177Y923019D1*
X472751Y921593D1*
X471292Y918708D1*
Y915856D1*
X472751Y912971D1*
X475603Y908693D1*
X489962Y894334D1*
X469866D1*
X678393Y2188541D2*
X708537D1*
Y2178493D1*
X707078Y2174181D1*
X704226Y2171296D1*
X701341Y2169870D1*
X697063Y2168445D1*
X689867D1*
X685556Y2169871D1*
X682704Y2171296D1*
X679819Y2174182D1*
X678393Y2178493D1*
Y2188541D1*
X708537Y2144822D2*
X678426D1*
X698489Y2159181D1*
Y2137659D1*
X672060Y2002280D2*
X702204D1*
Y1992232D1*
X700745Y1987921D1*
X697893Y1985036D1*
X695008Y1983610D1*
X690730Y1982184D1*
X683534D1*
X679223Y1983610D1*
X676371Y1985036D1*
X673486Y1987921D1*
X672060Y1992232D1*
Y2002280D1*
X672093Y1955710D2*
Y1970036D1*
X684993Y1971462D1*
X683567Y1970036D1*
X682108Y1965725D1*
Y1961447D1*
X683567Y1957136D1*
X686419Y1954251D1*
X690730Y1952825D1*
X693582D1*
X697893Y1954251D1*
X700778Y1957136D1*
X702204Y1961447D1*
Y1965725D1*
X700778Y1970036D1*
X699319Y1971462D1*
X696467Y1972921D1*
X616825Y1685609D2*
X646969Y1685608D1*
Y1675560D1*
X645510Y1671249D1*
X642658Y1668364D1*
X639773Y1666938D1*
X635495Y1665513D1*
X628299D1*
X623988Y1666938D1*
X621136Y1668364D1*
X618251Y1671250D1*
X616825Y1675561D1*
Y1685609D1*
X621136Y1639038D2*
X618284Y1640464D1*
X616858Y1644775D1*
Y1647627D1*
X618284Y1651938D1*
X622595Y1654823D1*
X629758Y1656249D1*
X636921D1*
X642658Y1654823D1*
X645543Y1651938D1*
X646969Y1647627D1*
Y1646201D1*
X645543Y1641923D1*
X642658Y1639038D1*
X638347Y1637612D1*
X636921D1*
X632610Y1639038D1*
X629758Y1641923D1*
X628332Y1646201D1*
Y1647627D1*
X629758Y1651938D1*
X632610Y1654823D1*
X636921Y1656249D1*
X931226Y1774959D2*
Y1744815D1*
X921178D1*
X916867Y1746275D1*
X913982Y1749126D1*
X912556Y1752012D1*
X911130Y1756289D1*
Y1763485D1*
X912556Y1767797D1*
X913982Y1770648D1*
X916867Y1773533D1*
X921178Y1774959D1*
X931226D1*
X896130Y1744815D2*
X881771Y1774926D1*
X901867D1*
X930235Y1685907D2*
Y1655763D1*
X920187D1*
X915876Y1657222D1*
X912991Y1660074D1*
X911565Y1662959D1*
X910139Y1667237D1*
Y1674433D1*
X911565Y1678744D1*
X912991Y1681596D1*
X915876Y1684481D1*
X920187Y1685907D1*
X930235D1*
X893712Y1685874D2*
X897990Y1684448D1*
X899449Y1681596D1*
Y1678711D1*
X897990Y1675859D1*
X895138Y1674400D1*
X889401Y1672974D1*
X885090Y1671548D1*
X882238Y1668663D1*
X880812Y1665811D1*
Y1661500D1*
X882238Y1658648D1*
X883664Y1657189D1*
X887975Y1655763D1*
X893712D1*
X897990Y1657189D1*
X899449Y1658648D1*
X900875Y1661500D1*
Y1665811D1*
X899449Y1668663D1*
X896564Y1671548D1*
X892286Y1672974D1*
X886549Y1674400D1*
X883664Y1675859D1*
X882238Y1678711D1*
Y1681596D1*
X883664Y1684448D1*
X887975Y1685874D1*
X893712D1*
X468166Y2265990D2*
Y2243042D1*
X469592Y2238731D1*
X471051Y2237305D1*
X473903Y2235846D1*
X476788D1*
X479640Y2237305D1*
X481066Y2238731D1*
X482525Y2243042D1*
Y2245894D1*
X457443Y2258794D2*
Y2260220D1*
X456017Y2263105D1*
X454591Y2264531D1*
X451706Y2265957D1*
X445969D1*
X443117Y2264531D1*
X441691Y2263105D1*
X440232Y2260220D1*
Y2257368D1*
X441691Y2254483D1*
X444543Y2250205D1*
X458902Y2235846D1*
X438806D1*
X2265534Y1049419D2*
Y1026472D1*
X2266960Y1022160D1*
X2268419Y1020735D1*
X2271271Y1019275D1*
X2274156D1*
X2277008Y1020735D1*
X2278434Y1022160D1*
X2279893Y1026472D1*
Y1029323D1*
X2253386Y1049386D2*
X2237634D1*
X2246223Y1037912D1*
X2241912D1*
X2239060Y1036486D1*
X2237634Y1035060D1*
X2236175Y1030749D1*
Y1027897D1*
X2237634Y1023586D1*
X2240486Y1020701D1*
X2244797Y1019275D1*
X2249108D1*
X2253386Y1020701D1*
X2254812Y1022160D1*
X2256271Y1025012D1*
X889669Y2527204D2*
X892521Y2525811D1*
X895406Y2522926D1*
X896832Y2520041D1*
X898291Y2515730D1*
Y2508567D1*
X896832Y2504256D1*
X895406Y2501404D1*
X892521Y2498519D1*
X889669Y2497093D1*
X883932D1*
X881047Y2498519D1*
X878195Y2501404D1*
X876769Y2504256D1*
X875310Y2508567D1*
Y2515730D1*
X876769Y2520041D1*
X878195Y2522926D1*
X881047Y2525811D1*
X883932Y2527204D1*
X889669D1*
X885358Y2502830D2*
X876769Y2494208D1*
X866047Y2521434D2*
X863162Y2522893D1*
X858851Y2527171D1*
Y2497060D1*
X1120308Y1750594D2*
X1123160Y1749201D1*
X1126045Y1746316D1*
X1127471Y1743431D1*
X1128930Y1739120D1*
Y1731957D1*
X1127471Y1727646D1*
X1126045Y1724794D1*
X1123160Y1721909D1*
X1120308Y1720483D1*
X1114571D1*
X1111686Y1721909D1*
X1108834Y1724794D1*
X1107408Y1727646D1*
X1105949Y1731957D1*
Y1739120D1*
X1107408Y1743431D1*
X1108834Y1746316D1*
X1111686Y1749201D1*
X1114571Y1750594D1*
X1120308D1*
X1115997Y1726220D2*
X1107408Y1717598D1*
X1095226Y1743398D2*
Y1744824D1*
X1093800Y1747709D1*
X1092375Y1749135D1*
X1089489Y1750561D1*
X1083752D1*
X1080901Y1749135D1*
X1079475Y1747709D1*
X1078015Y1744824D1*
Y1741972D1*
X1079475Y1739087D1*
X1082327Y1734809D1*
X1096686Y1720450D1*
X1076590D1*
X989235Y1419287D2*
X992087Y1417894D1*
X994972Y1415009D1*
X996398Y1412124D1*
X997857Y1407813D1*
Y1400650D1*
X996398Y1396339D1*
X994972Y1393487D1*
X992087Y1390602D1*
X989235Y1389176D1*
X983498D1*
X980613Y1390602D1*
X977761Y1393487D1*
X976335Y1396339D1*
X974876Y1400650D1*
Y1407813D1*
X976335Y1412124D1*
X977761Y1415009D1*
X980613Y1417894D1*
X983498Y1419287D1*
X989235D1*
X984924Y1394913D2*
X976335Y1386291D1*
X962727Y1419254D2*
X946975D1*
X955564Y1407780D1*
X951253D1*
X948401Y1406354D1*
X946975Y1404928D1*
X945516Y1400617D1*
Y1397765D1*
X946975Y1393454D1*
X949827Y1390569D1*
X954138Y1389143D1*
X958449D1*
X962727Y1390569D1*
X964153Y1392028D1*
X965612Y1394880D1*
X1181153Y2514884D2*
X1168253D1*
X1163942Y2516344D1*
X1162483Y2517769D1*
X1161057Y2520621D1*
Y2523506D1*
X1162483Y2526358D1*
X1163942Y2527817D1*
X1168253Y2529243D1*
X1181153D1*
Y2499099D1*
X1171105Y2514884D2*
X1161057Y2499099D1*
X1151794Y2523473D2*
X1148909Y2524932D1*
X1144598Y2529210D1*
Y2499099D1*
X2159665Y2527277D2*
X2146765D1*
X2142454Y2528736D1*
X2140995Y2530162D1*
X2139569Y2533014D1*
Y2535899D1*
X2140995Y2538751D1*
X2142454Y2540210D1*
X2146765Y2541636D1*
X2159665D1*
Y2511492D1*
X2149617Y2527277D2*
X2139569Y2511492D1*
X2128846Y2534440D2*
Y2535866D1*
X2127420Y2538751D1*
X2125994Y2540177D1*
X2123109Y2541603D1*
X2117372D1*
X2114520Y2540177D1*
X2113094Y2538751D1*
X2111635Y2535866D1*
Y2533014D1*
X2113094Y2530129D1*
X2115946Y2525851D1*
X2130305Y2511492D1*
X2110209D1*
X2070849Y2882566D2*
Y2869667D1*
X2069390Y2865355D1*
X2067964Y2863896D1*
X2065112Y2862470D1*
X2062227D1*
X2059375Y2863896D1*
X2057916Y2865356D1*
X2056490Y2869667D1*
Y2882566D1*
X2086634D1*
X2070849Y2872518D2*
X2086634Y2862470D1*
X2056523Y2850322D2*
Y2834570D1*
X2067997Y2843159D1*
Y2838848D1*
X2069423Y2835996D1*
X2070849Y2834570D1*
X2075160Y2833111D1*
X2078012D1*
X2082323Y2834570D1*
X2085208Y2837422D1*
X2086634Y2841733D1*
Y2846044D1*
X2085208Y2850322D1*
X2083749Y2851748D1*
X2080897Y2853207D1*
X2043055Y2356064D2*
Y2343164D1*
X2041596Y2338853D1*
X2040170Y2337394D1*
X2037318Y2335968D1*
X2034433D1*
X2031581Y2337394D1*
X2030122Y2338853D1*
X2028696Y2343164D1*
Y2356064D1*
X2058840D1*
X2043055Y2346016D2*
X2058840Y2335968D1*
Y2312346D2*
X2028729D1*
X2048792Y2326705D1*
Y2305183D1*
X931636Y2246968D2*
X918736D1*
X914425Y2248428D1*
X912966Y2249853D1*
X911540Y2252705D1*
Y2255590D1*
X912966Y2258442D1*
X914425Y2259901D1*
X918736Y2261327D1*
X931636D1*
Y2231183D1*
X921588Y2246968D2*
X911540Y2231183D1*
X885065Y2261294D2*
X899391D1*
X900817Y2248394D1*
X899391Y2249820D1*
X895080Y2251279D1*
X890802D1*
X886491Y2249820D1*
X883606Y2246968D1*
X882180Y2242657D1*
Y2239805D1*
X883606Y2235494D1*
X886491Y2232609D1*
X890802Y2231183D1*
X895080D1*
X899391Y2232609D1*
X900817Y2234068D1*
X902276Y2236920D1*
X1019517Y2412043D2*
Y2399143D1*
X1018058Y2394832D1*
X1016632Y2393373D1*
X1013780Y2391947D1*
X1010895D1*
X1008043Y2393373D1*
X1006584Y2394832D1*
X1005158Y2399143D1*
Y2412043D1*
X1035302D1*
X1019517Y2401995D2*
X1035302Y2391947D1*
X1009469Y2365472D2*
X1006617Y2366898D1*
X1005191Y2371209D1*
Y2374061D1*
X1006617Y2378372D1*
X1010928Y2381257D1*
X1018091Y2382683D1*
X1025254D1*
X1030991Y2381257D1*
X1033876Y2378372D1*
X1035302Y2374061D1*
Y2372635D1*
X1033876Y2368358D1*
X1030991Y2365472D1*
X1026680Y2364047D1*
X1025254D1*
X1020943Y2365472D1*
X1018091Y2368358D1*
X1016665Y2372635D1*
Y2374061D1*
X1018091Y2378372D1*
X1020943Y2381257D1*
X1025254Y2382683D1*
X2163475Y2358666D2*
Y2345766D1*
X2162016Y2341455D1*
X2160590Y2339996D1*
X2157738Y2338570D1*
X2154853D1*
X2152001Y2339996D1*
X2150542Y2341455D1*
X2149116Y2345766D1*
Y2358666D1*
X2179260D1*
X2163475Y2348618D2*
X2179260Y2338570D1*
Y2323570D2*
X2149149Y2309211D1*
Y2329307D1*
X2200123Y2223166D2*
X2187223D1*
X2182912Y2224625D1*
X2181453Y2226051D1*
X2180027Y2228903D1*
Y2231788D1*
X2181453Y2234640D1*
X2182912Y2236099D1*
X2187223Y2237525D1*
X2200123D1*
Y2207381D1*
X2190075Y2223166D2*
X2180027Y2207381D1*
X2163601Y2237492D2*
X2167879Y2236066D1*
X2169338Y2233214D1*
Y2230329D1*
X2167879Y2227477D1*
X2165027Y2226018D1*
X2159290Y2224592D1*
X2154979Y2223166D1*
X2152127Y2220281D1*
X2150701Y2217429D1*
Y2213118D1*
X2152127Y2210266D1*
X2153553Y2208807D1*
X2157864Y2207381D1*
X2163601D1*
X2167879Y2208807D1*
X2169338Y2210266D1*
X2170764Y2213118D1*
Y2217429D1*
X2169338Y2220281D1*
X2166453Y2223166D1*
X2162175Y2224592D1*
X2156438Y2226018D1*
X2153553Y2227477D1*
X2152127Y2230329D1*
Y2233214D1*
X2153553Y2236066D1*
X2157864Y2237492D1*
X2163601D1*
X851683Y1885276D2*
X838783D1*
X834472Y1886735D1*
X833013Y1888161D1*
X831587Y1891013D1*
Y1893898D1*
X833013Y1896750D1*
X834472Y1898209D1*
X838783Y1899635D1*
X851683D1*
Y1869491D1*
X841635Y1885276D2*
X831587Y1869491D1*
X803653Y1889587D2*
X805112Y1885276D1*
X807964Y1882391D1*
X812275Y1880965D1*
X813701D1*
X818012Y1882391D1*
X820864Y1885276D1*
X822323Y1889587D1*
Y1891013D1*
X820864Y1895324D1*
X818012Y1898176D1*
X813701Y1899601D1*
X812275D1*
X807964Y1898176D1*
X805112Y1895324D1*
X803653Y1889587D1*
Y1882391D1*
X805112Y1875228D1*
X807964Y1870917D1*
X812275Y1869491D1*
X815127D1*
X819438Y1870917D1*
X820864Y1873802D1*
X1162968Y1933731D2*
X1150068D1*
X1145757Y1935190D1*
X1144298Y1936616D1*
X1142872Y1939468D1*
Y1942353D1*
X1144298Y1945205D1*
X1145757Y1946664D1*
X1150068Y1948090D1*
X1162968D1*
Y1917946D1*
X1152920Y1933731D2*
X1142872Y1917946D1*
X1133609Y1942320D2*
X1130723Y1943779D1*
X1126412Y1948057D1*
Y1917946D1*
X1108527Y1948057D2*
X1112838Y1946631D1*
X1115723Y1942320D1*
X1117149Y1935157D1*
Y1930846D1*
X1115723Y1923683D1*
X1112838Y1919372D1*
X1108527Y1917946D1*
X1105675D1*
X1101364Y1919372D1*
X1098512Y1923683D1*
X1097053Y1930846D1*
Y1935157D1*
X1098512Y1942320D1*
X1101364Y1946631D1*
X1105675Y1948057D1*
X1108527D1*
X1098512Y1942320D2*
X1115723Y1923683D1*
X858967Y1843316D2*
X846067D1*
X841756Y1844775D1*
X840297Y1846201D1*
X838871Y1849053D1*
Y1851938D1*
X840297Y1854790D1*
X841756Y1856249D1*
X846067Y1857675D1*
X858967D1*
Y1827531D1*
X848919Y1843316D2*
X838871Y1827531D1*
X829607Y1851905D2*
X826722Y1853364D1*
X822411Y1857642D1*
Y1827531D1*
X813148Y1851905D2*
X810263Y1853364D1*
X805952Y1857642D1*
Y1827531D1*
X2170410Y2457111D2*
X2157510D1*
X2153199Y2458571D1*
X2151740Y2459997D1*
X2150314Y2462848D1*
Y2465733D1*
X2151740Y2468585D1*
X2153199Y2470045D1*
X2157510Y2471470D1*
X2170410D1*
Y2441326D1*
X2160362Y2457111D2*
X2150314Y2441326D1*
X2141051Y2465700D2*
X2138166Y2467159D1*
X2133855Y2471437D1*
Y2441326D1*
X2123132Y2464274D2*
Y2465700D1*
X2121706Y2468585D1*
X2120280Y2470011D1*
X2117395Y2471437D1*
X2111658D1*
X2108806Y2470011D1*
X2107380Y2468585D1*
X2105921Y2465700D1*
Y2462848D1*
X2107380Y2459963D1*
X2110232Y2455685D1*
X2124591Y2441326D1*
X2104495D1*
X789019Y2595819D2*
X776119D1*
X771808Y2597278D1*
X770349Y2598704D1*
X768923Y2601556D1*
Y2604441D1*
X770349Y2607293D1*
X771808Y2608752D1*
X776119Y2610178D1*
X789019D1*
Y2580034D1*
X778971Y2595819D2*
X768923Y2580034D1*
X759660Y2604408D2*
X756775Y2605867D1*
X752464Y2610145D1*
Y2580034D1*
X740315Y2610145D2*
X724563D1*
X733152Y2598671D1*
X728841D1*
X725989Y2597245D1*
X724563Y2595819D1*
X723104Y2591508D1*
Y2588656D1*
X724563Y2584345D1*
X727415Y2581460D1*
X731726Y2580034D1*
X736037D1*
X740315Y2581460D1*
X741741Y2582919D1*
X743200Y2585771D1*
X945370Y2592583D2*
X932470D1*
X928159Y2594042D1*
X926700Y2595468D1*
X925274Y2598320D1*
Y2601205D1*
X926700Y2604057D1*
X928159Y2605516D1*
X932470Y2606942D1*
X945370D1*
Y2576798D1*
X935322Y2592583D2*
X925274Y2576798D1*
X916011Y2601172D2*
X913125Y2602631D1*
X908814Y2606909D1*
Y2576798D1*
X885192D2*
Y2606909D1*
X899551Y2586846D1*
X878029D1*
X2329094Y2618671D2*
X2316194D1*
X2311883Y2620130D1*
X2310424Y2621556D1*
X2308998Y2624408D1*
Y2627293D1*
X2310424Y2630145D1*
X2311883Y2631604D1*
X2316194Y2633030D1*
X2329094D1*
Y2602886D1*
X2319046Y2618671D2*
X2308998Y2602886D1*
X2299735Y2627260D2*
X2296849Y2628719D1*
X2292538Y2632997D1*
Y2602886D1*
X2266064Y2632997D2*
X2280390D1*
X2281816Y2620097D1*
X2280390Y2621523D1*
X2276079Y2622982D1*
X2271801D1*
X2267490Y2621523D1*
X2264605Y2618671D1*
X2263179Y2614360D1*
Y2611508D1*
X2264605Y2607197D1*
X2267490Y2604312D1*
X2271801Y2602886D1*
X2276079D1*
X2280390Y2604312D1*
X2281816Y2605771D1*
X2283275Y2608623D1*
X1604771Y1400638D2*
X1591871D1*
X1587560Y1402097D1*
X1586101Y1403523D1*
X1584675Y1406375D1*
Y1409260D1*
X1586101Y1412112D1*
X1587560Y1413571D1*
X1591871Y1414997D1*
X1604771D1*
Y1384853D1*
X1594723Y1400638D2*
X1584675Y1384853D1*
X1575412Y1409227D2*
X1572527Y1410686D1*
X1568216Y1414964D1*
Y1384853D1*
X1541741Y1410686D2*
X1543167Y1413538D1*
X1547478Y1414964D1*
X1550330D1*
X1554641Y1413538D1*
X1557526Y1409227D1*
X1558952Y1402064D1*
Y1394901D1*
X1557526Y1389164D1*
X1554641Y1386279D1*
X1550330Y1384853D1*
X1548904D1*
X1544626Y1386279D1*
X1541741Y1389164D1*
X1540315Y1393475D1*
Y1394901D1*
X1541741Y1399212D1*
X1544626Y1402064D1*
X1548904Y1403490D1*
X1550330D1*
X1554641Y1402064D1*
X1557526Y1399212D1*
X1558952Y1394901D1*
X1208444Y2374861D2*
X1195545D1*
X1191234Y2376320D1*
X1189774Y2377746D1*
X1188348Y2380598D1*
Y2383483D1*
X1189774Y2386335D1*
X1191234Y2387794D1*
X1195545Y2389220D1*
X1208444D1*
Y2359076D1*
X1198396Y2374861D2*
X1188348Y2359076D1*
X1179085Y2383450D2*
X1176200Y2384909D1*
X1171889Y2389187D1*
Y2359076D1*
X1156888D2*
X1142529Y2389187D1*
X1162625D1*
X2298274Y2149812D2*
Y2136913D1*
X2296815Y2132602D1*
X2295389Y2131142D1*
X2292537Y2129716D1*
X2289652D1*
X2286800Y2131142D1*
X2285341Y2132602D1*
X2283915Y2136913D1*
Y2149812D1*
X2314059D1*
X2298274Y2139764D2*
X2314059Y2129716D1*
X2289685Y2120453D2*
X2288226Y2117568D1*
X2283948Y2113257D1*
X2314059D1*
X2283948Y2096830D2*
X2285374Y2101108D1*
X2288226Y2102567D1*
X2291111D1*
X2293963Y2101108D1*
X2295422Y2098256D1*
X2296848Y2092519D1*
X2298274Y2088208D1*
X2301159Y2085356D1*
X2304011Y2083931D1*
X2308322D1*
X2311174Y2085356D1*
X2312633Y2086782D1*
X2314059Y2091093D1*
Y2096830D1*
X2312633Y2101108D1*
X2311174Y2102567D1*
X2308322Y2103993D1*
X2304011D1*
X2301159Y2102567D1*
X2298274Y2099682D1*
X2296848Y2095404D1*
X2295422Y2089667D1*
X2293963Y2086782D1*
X2291111Y2085356D1*
X2288226D1*
X2285374Y2086782D1*
X2283948Y2091093D1*
Y2096830D1*
X1209506Y2280224D2*
X1196606D1*
X1192295Y2281684D1*
X1190836Y2283110D1*
X1189410Y2285961D1*
Y2288846D1*
X1190836Y2291698D1*
X1192295Y2293158D1*
X1196606Y2294583D1*
X1209506D1*
Y2264439D1*
X1199458Y2280224D2*
X1189410Y2264439D1*
X1180146Y2288813D2*
X1177261Y2290272D1*
X1172950Y2294550D1*
Y2264439D1*
X1145017Y2284535D2*
X1146476Y2280224D1*
X1149328Y2277339D1*
X1153639Y2275913D1*
X1155065D1*
X1159376Y2277339D1*
X1162227Y2280224D1*
X1163687Y2284535D1*
Y2285961D1*
X1162227Y2290272D1*
X1159376Y2293124D1*
X1155065Y2294550D1*
X1153639D1*
X1149328Y2293124D1*
X1146476Y2290272D1*
X1145017Y2284535D1*
Y2277339D1*
X1146476Y2270176D1*
X1149328Y2265865D1*
X1153639Y2264439D1*
X1156491D1*
X1160802Y2265865D1*
X1162227Y2268750D1*
X956598Y1679221D2*
Y1666321D1*
X955139Y1662010D1*
X953713Y1660551D1*
X950861Y1659125D1*
X947976D1*
X945125Y1660551D1*
X943665Y1662010D1*
X942239Y1666321D1*
Y1679221D1*
X972383D1*
X956598Y1669173D2*
X972383Y1659125D1*
X949436Y1648403D2*
X948010D1*
X945125Y1646977D1*
X943699Y1645551D1*
X942273Y1642666D1*
Y1636929D1*
X943699Y1634077D1*
X945125Y1632651D1*
X948010Y1631192D1*
X950862D1*
X953747Y1632651D1*
X958024Y1635503D1*
X972383Y1649862D1*
Y1629766D1*
X942273Y1611880D2*
X943699Y1616191D1*
X948010Y1619076D1*
X955173Y1620502D1*
X959484D1*
X966646Y1619076D1*
X970958Y1616191D1*
X972383Y1611880D1*
Y1609028D1*
X970957Y1604717D1*
X966646Y1601865D1*
X959483Y1600406D1*
X955172D1*
X948010Y1601865D1*
X943699Y1604717D1*
X942273Y1609028D1*
Y1611880D1*
X948010Y1601865D2*
X966646Y1619076D1*
X1163267Y1510274D2*
Y1497374D1*
X1161807Y1493063D1*
X1160382Y1491604D1*
X1157530Y1490178D1*
X1154645D1*
X1151793Y1491604D1*
X1150334Y1493063D1*
X1148908Y1497374D1*
Y1510274D1*
X1179052D1*
X1163267Y1500226D2*
X1179052Y1490178D1*
X1156104Y1479455D2*
X1154678D1*
X1151793Y1478029D1*
X1150367Y1476603D1*
X1148941Y1473718D1*
Y1467981D1*
X1150367Y1465129D1*
X1151793Y1463704D1*
X1154678Y1462244D1*
X1157530D1*
X1160415Y1463703D1*
X1164693Y1466555D1*
X1179052Y1480914D1*
Y1460818D1*
X1154678Y1451555D2*
X1153219Y1448670D1*
X1148941Y1444359D1*
X1179052D1*
X619098Y1546792D2*
Y1533892D1*
X617639Y1529581D1*
X616213Y1528122D1*
X613361Y1526696D1*
X610476D1*
X607625Y1528122D1*
X606165Y1529581D1*
X604739Y1533892D1*
Y1546792D1*
X634883D1*
X619098Y1536744D2*
X634883Y1526696D1*
X611936Y1515973D2*
X610510D1*
X607625Y1514548D1*
X606199Y1513122D1*
X604773Y1510236D1*
Y1504500D1*
X606199Y1501648D1*
X607625Y1500222D1*
X610510Y1498763D1*
X613362D1*
X616247Y1500222D1*
X620524Y1503074D1*
X634883Y1517433D1*
Y1497337D1*
X611936Y1486614D2*
X610510D1*
X607625Y1485188D1*
X606199Y1483762D1*
X604773Y1480877D1*
Y1475140D1*
X606199Y1472288D1*
X607624Y1470862D1*
X610510Y1469403D1*
X613361D1*
X616247Y1470862D1*
X620524Y1473714D1*
X634883Y1488073D1*
Y1467977D1*
X2221202Y1949139D2*
X2208302D1*
X2203991Y1950598D1*
X2202531Y1952024D1*
X2201106Y1954876D1*
Y1957761D1*
X2202531Y1960613D1*
X2203991Y1962072D1*
X2208302Y1963498D1*
X2221202D1*
Y1933354D1*
X2211154Y1949139D2*
X2201106Y1933354D1*
X2190383Y1956302D2*
Y1957728D1*
X2188957Y1960613D1*
X2187531Y1962039D1*
X2184646Y1963465D1*
X2178909D1*
X2176057Y1962039D1*
X2174631Y1960613D1*
X2173172Y1957728D1*
Y1954876D1*
X2174631Y1951991D1*
X2177483Y1947713D1*
X2191842Y1933354D1*
X2171746D1*
X2159597Y1963465D2*
X2143846D1*
X2152434Y1951991D1*
X2148123D1*
X2145271Y1950565D1*
X2143846Y1949139D1*
X2142386Y1944828D1*
Y1941976D1*
X2143846Y1937665D1*
X2146697Y1934780D1*
X2151008Y1933354D1*
X2155319D1*
X2159597Y1934780D1*
X2161023Y1936239D1*
X2162482Y1939091D1*
X1401233Y475316D2*
X1388333D1*
X1384022Y476775D1*
X1382563Y478201D1*
X1381137Y481053D1*
Y483938D1*
X1382563Y486790D1*
X1384022Y488249D1*
X1388333Y489675D1*
X1401233D1*
Y459531D1*
X1391185Y475316D2*
X1381137Y459531D1*
X1370415Y482479D2*
Y483905D1*
X1368989Y486790D1*
X1367563Y488216D1*
X1364678Y489642D1*
X1358941D1*
X1356089Y488216D1*
X1354663Y486790D1*
X1353204Y483905D1*
Y481053D1*
X1354663Y478168D1*
X1357515Y473890D1*
X1371874Y459531D1*
X1351778D1*
X1328155D2*
Y489642D1*
X1342514Y469579D1*
X1320992D1*
X682519Y2243307D2*
X669619D1*
X665308Y2244766D1*
X663849Y2246192D1*
X662423Y2249044D1*
Y2251929D1*
X663849Y2254781D1*
X665308Y2256240D1*
X669619Y2257666D1*
X682519D1*
Y2227522D1*
X672471Y2243307D2*
X662423Y2227522D1*
X651700Y2250470D2*
Y2251896D1*
X650274Y2254781D1*
X648849Y2256207D1*
X645963Y2257633D1*
X640226D1*
X637375Y2256207D1*
X635949Y2254781D1*
X634490Y2251896D1*
Y2249044D1*
X635949Y2246159D1*
X638801Y2241881D1*
X653160Y2227522D1*
X633064D1*
X606589Y2257633D2*
X620915D1*
X622341Y2244733D1*
X620915Y2246159D1*
X616604Y2247618D1*
X612326D1*
X608015Y2246159D1*
X605130Y2243307D1*
X603704Y2238996D1*
Y2236144D1*
X605130Y2231833D1*
X608015Y2228948D1*
X612326Y2227522D1*
X616604D1*
X620915Y2228948D1*
X622341Y2230407D1*
X623800Y2233259D1*
X681790Y2287056D2*
X668890D1*
X664579Y2288516D1*
X663120Y2289942D1*
X661694Y2292793D1*
Y2295679D1*
X663120Y2298530D1*
X664579Y2299990D1*
X668890Y2301415D1*
X681790D1*
Y2271271D1*
X671742Y2287056D2*
X661694Y2271271D1*
X650971Y2294219D2*
Y2295645D1*
X649545Y2298530D1*
X648119Y2299956D1*
X645234Y2301382D1*
X639497D1*
X636645Y2299956D1*
X635219Y2298530D1*
X633760Y2295645D1*
Y2292793D1*
X635219Y2289908D1*
X638071Y2285631D1*
X652430Y2271271D1*
X632334D1*
X605860Y2297104D2*
X607285Y2299956D1*
X611596Y2301382D1*
X614448D1*
X618759Y2299956D1*
X621644Y2295645D1*
X623070Y2288482D1*
Y2281319D1*
X621644Y2275583D1*
X618759Y2272697D1*
X614448Y2271271D1*
X613022D1*
X608745Y2272697D1*
X605860Y2275583D1*
X604434Y2279894D1*
Y2281319D1*
X605860Y2285631D1*
X608745Y2288482D1*
X613022Y2289908D1*
X614448D1*
X618759Y2288482D1*
X621644Y2285631D1*
X623070Y2281319D1*
X2431813Y1975475D2*
X2418913D1*
X2414602Y1976934D1*
X2413143Y1978360D1*
X2411717Y1981212D1*
Y1984097D1*
X2413143Y1986949D1*
X2414602Y1988408D1*
X2418913Y1989834D1*
X2431813D1*
Y1959690D1*
X2421765Y1975475D2*
X2411717Y1959690D1*
X2400994Y1982638D2*
Y1984064D1*
X2399568Y1986949D1*
X2398143Y1988375D1*
X2395257Y1989801D1*
X2389520D1*
X2386669Y1988375D1*
X2385243Y1986949D1*
X2383783Y1984064D1*
Y1981212D1*
X2385243Y1978327D1*
X2388094Y1974049D1*
X2402454Y1959690D1*
X2382358D1*
X2367357D2*
X2352998Y1989801D1*
X2373094D1*
X2343577Y1334832D2*
X2330677D1*
X2326366Y1336291D1*
X2324907Y1337717D1*
X2323481Y1340569D1*
Y1343454D1*
X2324907Y1346306D1*
X2326366Y1347765D1*
X2330677Y1349191D1*
X2343577D1*
Y1319047D1*
X2333529Y1334832D2*
X2323481Y1319047D1*
X2312759Y1341995D2*
Y1343421D1*
X2311333Y1346306D1*
X2309907Y1347732D1*
X2307022Y1349158D1*
X2301285D1*
X2298433Y1347732D1*
X2297007Y1346306D1*
X2295548Y1343421D1*
Y1340569D1*
X2297007Y1337684D1*
X2299859Y1333406D1*
X2314218Y1319047D1*
X2294122D1*
X2277695Y1349158D2*
X2281973Y1347732D1*
X2283432Y1344880D1*
Y1341995D1*
X2281973Y1339143D1*
X2279121Y1337684D1*
X2273384Y1336258D1*
X2269073Y1334832D1*
X2266221Y1331947D1*
X2264795Y1329095D1*
Y1324784D1*
X2266221Y1321932D1*
X2267647Y1320473D1*
X2271958Y1319047D1*
X2277695D1*
X2281973Y1320473D1*
X2283432Y1321932D1*
X2284858Y1324784D1*
Y1329095D1*
X2283432Y1331947D1*
X2280547Y1334832D1*
X2276269Y1336258D1*
X2270532Y1337684D1*
X2267647Y1339143D1*
X2266221Y1341995D1*
Y1344880D1*
X2267647Y1347732D1*
X2271958Y1349158D1*
X2277695D1*
X1011717Y2771614D2*
X1014569Y2774499D1*
X1018880Y2775925D1*
X1024617D1*
X1028928Y2774499D1*
X1031813Y2771614D1*
Y2768762D1*
X1030354Y2765877D1*
X1028928Y2764451D1*
X1026076Y2763025D1*
X1017454Y2760140D1*
X1014569Y2758714D1*
X1013143Y2757255D1*
X1011717Y2754403D1*
Y2750092D1*
X1014569Y2747240D1*
X1018880Y2745781D1*
X1024617D1*
X1028928Y2747240D1*
X1031813Y2750092D1*
X1002454Y2770155D2*
X999569Y2771614D1*
X995258Y2775892D1*
Y2745781D1*
X1098016Y2690564D2*
Y2660420D1*
X1085083D1*
X1080772Y2661879D1*
X1079346Y2663305D1*
X1077920Y2666157D1*
Y2670468D1*
X1079346Y2673353D1*
X1080772Y2674779D1*
X1085083Y2676205D1*
X1080772Y2677664D1*
X1079346Y2679090D1*
X1077920Y2681942D1*
Y2684827D1*
X1079346Y2687679D1*
X1080772Y2689138D1*
X1085083Y2690564D1*
X1098016D1*
Y2676205D2*
X1085083D1*
X1068656Y2680516D2*
Y2666157D1*
X1067231Y2661879D1*
X1064345Y2660420D1*
X1060034D1*
X1057183Y2661879D1*
X1052872Y2666157D1*
Y2680516D2*
Y2660420D1*
X1039297Y2690564D2*
Y2666157D1*
X1037871Y2661879D1*
X1034986Y2660420D1*
X1032134D1*
X1043608Y2680516D2*
X1033560D1*
X1018559Y2690564D2*
Y2666157D1*
X1017133Y2661879D1*
X1014248Y2660420D1*
X1011397D1*
X1022870Y2680516D2*
X1012822D1*
X994970D2*
X997822Y2679090D1*
X1000707Y2676205D1*
X1002133Y2671894D1*
Y2669042D1*
X1000707Y2664731D1*
X997822Y2661879D1*
X994970Y2660420D1*
X990659D1*
X987774Y2661879D1*
X984922Y2664731D1*
X983463Y2669042D1*
Y2671894D1*
X984922Y2676205D1*
X987774Y2679090D1*
X990659Y2680516D1*
X994970D1*
X974199D2*
Y2660420D1*
Y2674779D2*
X969888Y2679090D1*
X967003Y2680516D1*
X962725D1*
X959840Y2679090D1*
X958414Y2674779D1*
Y2660420D1*
X949151Y2690564D2*
Y2660420D1*
X936218D1*
X931907Y2661879D1*
X930481Y2663305D1*
X929055Y2666157D1*
Y2670468D1*
X930481Y2673353D1*
X931907Y2674779D1*
X936218Y2676205D1*
X931907Y2677664D1*
X930481Y2679090D1*
X929055Y2681942D1*
Y2684827D1*
X930481Y2687679D1*
X931907Y2689138D1*
X936218Y2690564D1*
X949151D1*
Y2676205D2*
X936218D1*
X2333991Y2757143D2*
X2336843Y2760028D1*
X2341154Y2761454D1*
X2346891D1*
X2351202Y2760028D1*
X2354087Y2757143D1*
Y2754291D1*
X2352628Y2751406D1*
X2351202Y2749980D1*
X2348350Y2748554D1*
X2339728Y2745669D1*
X2336843Y2744243D1*
X2335417Y2742783D1*
X2333991Y2739932D1*
Y2735621D1*
X2336843Y2732769D1*
X2341154Y2731310D1*
X2346891D1*
X2351202Y2732769D1*
X2354087Y2735621D1*
X2323269Y2754257D2*
Y2755683D1*
X2321843Y2758568D1*
X2320417Y2759994D1*
X2317532Y2761420D1*
X2311795D1*
X2308943Y2759994D1*
X2307517Y2758568D1*
X2306058Y2755683D1*
Y2752831D1*
X2307517Y2749946D1*
X2310369Y2745669D1*
X2324728Y2731310D1*
X2304632D1*
X614777Y2766179D2*
X617628Y2769064D1*
X621939Y2770490D1*
X627676D1*
X631987Y2769064D1*
X634873Y2766179D1*
Y2763327D1*
X633413Y2760442D1*
X631987Y2759016D1*
X629136Y2757590D1*
X620513Y2754705D1*
X617628Y2753279D1*
X616202Y2751820D1*
X614777Y2748968D1*
Y2744657D1*
X617628Y2741805D1*
X621939Y2740346D1*
X627676D1*
X631987Y2741805D1*
X634873Y2744657D1*
X591154Y2740346D2*
Y2770457D1*
X605513Y2750394D1*
X583991D1*
X693209Y2690574D2*
Y2660430D1*
X680276D1*
X675965Y2661889D1*
X674539Y2663315D1*
X673113Y2666167D1*
Y2670478D1*
X674539Y2673363D1*
X675965Y2674789D1*
X680276Y2676215D1*
X675965Y2677674D1*
X674539Y2679100D1*
X673113Y2681952D1*
Y2684837D1*
X674539Y2687689D1*
X675965Y2689148D1*
X680276Y2690574D1*
X693209D1*
Y2676215D2*
X680276D1*
X663850Y2680526D2*
Y2666167D1*
X662424Y2661889D1*
X659539Y2660430D1*
X655228D1*
X652376Y2661889D1*
X648065Y2666167D1*
Y2680526D2*
Y2660430D1*
X634490Y2690574D2*
Y2666167D1*
X633064Y2661889D1*
X630179Y2660430D1*
X627327D1*
X638801Y2680526D2*
X628753D1*
X613753Y2690574D2*
Y2666167D1*
X612327Y2661889D1*
X609442Y2660430D1*
X606590D1*
X618064Y2680526D2*
X608016D1*
X590163D2*
X593015Y2679100D1*
X595900Y2676215D1*
X597326Y2671904D1*
Y2669052D1*
X595900Y2664741D1*
X593015Y2661889D1*
X590163Y2660430D1*
X585852D1*
X582967Y2661889D1*
X580115Y2664741D1*
X578656Y2669052D1*
Y2671904D1*
X580115Y2676215D1*
X582967Y2679100D1*
X585852Y2680526D1*
X590163D1*
X569393D2*
Y2660430D1*
Y2674789D2*
X565082Y2679100D1*
X562196Y2680526D1*
X557919D1*
X555034Y2679100D1*
X553608Y2674789D1*
Y2660430D1*
X521363D2*
X532870Y2690574D1*
X544344Y2660430D1*
X540033Y2670478D2*
X525674D1*
X453410Y1307463D2*
X456262Y1310348D1*
X460573Y1311774D1*
X466310D1*
X470621Y1310348D1*
X473506Y1307463D1*
Y1304611D1*
X472047Y1301726D1*
X470621Y1300300D1*
X467769Y1298874D1*
X459147Y1295989D1*
X456262Y1294563D1*
X454836Y1293104D1*
X453410Y1290252D1*
Y1285941D1*
X456262Y1283089D1*
X460573Y1281630D1*
X466310D1*
X470621Y1283089D1*
X473506Y1285941D1*
X426936Y1311741D2*
X441261D1*
X442687Y1298841D1*
X441261Y1300267D1*
X436950Y1301726D1*
X432672D1*
X428361Y1300267D1*
X425476Y1297415D1*
X424050Y1293104D1*
Y1290252D1*
X425476Y1285941D1*
X428361Y1283056D1*
X432672Y1281630D1*
X436950D1*
X441261Y1283056D1*
X442687Y1284515D1*
X444146Y1287367D1*
X2286415Y1925993D2*
X2289267Y1928878D1*
X2293578Y1930304D1*
X2299315D1*
X2303626Y1928878D1*
X2306511Y1925993D1*
Y1923141D1*
X2305052Y1920256D1*
X2303626Y1918830D1*
X2300774Y1917404D1*
X2292152Y1914519D1*
X2289267Y1913093D1*
X2287841Y1911634D1*
X2286415Y1908782D1*
Y1904471D1*
X2289267Y1901619D1*
X2293578Y1900160D1*
X2299315D1*
X2303626Y1901619D1*
X2306511Y1904471D1*
X2277152Y1930304D2*
Y1900160D1*
X2267104D1*
X2262793Y1901619D1*
X2259908Y1904471D1*
X2258482Y1907356D1*
X2257056Y1911634D1*
Y1918830D1*
X2258482Y1923141D1*
X2259908Y1925993D1*
X2262793Y1928878D1*
X2267104Y1930304D1*
X2277152D1*
X2247792Y1924534D2*
X2244907Y1925993D1*
X2240596Y1930271D1*
Y1900160D1*
X889471Y2168539D2*
Y2147017D1*
X888045Y2142706D1*
X885160Y2139854D1*
X880849Y2138395D1*
X877997D1*
X873686Y2139854D1*
X870801Y2142706D1*
X869375Y2147017D1*
Y2168539D1*
X858652Y2161343D2*
Y2162769D1*
X857226Y2165654D1*
X855800Y2167080D1*
X852915Y2168506D1*
X847178D1*
X844326Y2167080D1*
X842900Y2165654D1*
X841441Y2162769D1*
Y2159917D1*
X842900Y2157032D1*
X845752Y2152754D1*
X860111Y2138395D1*
X840015D1*
X1387181Y1720855D2*
Y1699333D1*
X1385755Y1695022D1*
X1382870Y1692170D1*
X1378558Y1690711D1*
X1375707D1*
X1371396Y1692170D1*
X1368510Y1695022D1*
X1367085Y1699333D1*
Y1720855D1*
X1354936Y1720822D2*
X1339184D1*
X1347773Y1709348D1*
X1343462D1*
X1340610Y1707922D1*
X1339184Y1706496D1*
X1337725Y1702185D1*
Y1699333D1*
X1339184Y1695022D1*
X1342036Y1692137D1*
X1346347Y1690711D1*
X1350658D1*
X1354936Y1692137D1*
X1356362Y1693596D1*
X1357821Y1696448D1*
X1812894Y1720855D2*
Y1699333D1*
X1811468Y1695022D1*
X1808582Y1692170D1*
X1804271Y1690711D1*
X1801420D1*
X1797109Y1692170D1*
X1794223Y1695022D1*
X1792798Y1699333D1*
Y1720855D1*
X1769175Y1690711D2*
Y1720822D1*
X1783534Y1700759D1*
X1762012D1*
X907745Y1635864D2*
Y1614342D1*
X906319Y1610031D1*
X903434Y1607179D1*
X899123Y1605720D1*
X896271D1*
X891960Y1607179D1*
X889075Y1610031D1*
X887649Y1614342D1*
Y1635864D1*
X861174Y1635831D2*
X875500D1*
X876926Y1622931D1*
X875500Y1624357D1*
X871189Y1625816D1*
X866911D1*
X862600Y1624357D1*
X859715Y1621505D1*
X858289Y1617194D1*
Y1614342D1*
X859715Y1610031D1*
X862600Y1607146D1*
X866911Y1605720D1*
X871189D1*
X875500Y1607146D1*
X876926Y1608605D1*
X878385Y1611457D1*
X1887884Y1511782D2*
D136*
X1868739Y1551930D1*
X1895534D1*
X1837242Y1511782D2*
Y1551930D1*
X1856387Y1525179D1*
X1827692D1*
X1815340Y1551974D2*
Y1511782D1*
X1792392D1*
X1753246Y1546226D2*
X1757049Y1550072D1*
X1762797Y1551974D1*
X1770446D1*
X1776194Y1550072D1*
X1780041Y1546226D1*
Y1542423D1*
X1778095Y1538576D1*
X1776194Y1536675D1*
X1772392Y1534774D1*
X1760895Y1530927D1*
X1757049Y1529026D1*
X1755147Y1527080D1*
X1753246Y1523278D1*
Y1517530D1*
X1757049Y1513727D1*
X1762797Y1511782D1*
X1770446D1*
X1776194Y1513727D1*
X1780041Y1517530D1*
X1729399Y1551930D2*
X1735147Y1550028D1*
X1738993Y1544280D1*
X1740895Y1534730D1*
Y1528982D1*
X1738993Y1519431D1*
X1735147Y1513683D1*
X1729399Y1511782D1*
X1725596D1*
X1719848Y1513683D1*
X1716046Y1519431D1*
X1714100Y1528982D1*
Y1534730D1*
X1716046Y1544280D1*
X1719848Y1550028D1*
X1725596Y1551930D1*
X1729399D1*
X1716046Y1544280D2*
X1738993Y1519431D1*
X1694099Y1511782D2*
X1674954Y1551930D1*
X1701749D1*
X1845280Y2597265D2*
X1870129D1*
Y2557073D1*
X1845280D1*
X1870129Y2578120D2*
X1854831D1*
X1806134Y2591517D2*
X1809937Y2595364D1*
X1815685Y2597265D1*
X1823334D1*
X1829082Y2595364D1*
X1832929Y2591517D1*
Y2587715D1*
X1830983Y2583868D1*
X1829082Y2581966D1*
X1825280Y2580065D1*
X1813783Y2576218D1*
X1809937Y2574317D1*
X1808035Y2572372D1*
X1806134Y2568569D1*
Y2562821D1*
X1809937Y2559019D1*
X1815685Y2557073D1*
X1823334D1*
X1829082Y2559019D1*
X1832929Y2562821D1*
X1793783Y2576218D2*
X1776539D1*
X1770835Y2578120D1*
X1768889Y2580065D1*
X1766988Y2583868D1*
Y2589616D1*
X1768889Y2593418D1*
X1770835Y2595364D1*
X1776539Y2597265D1*
X1793783D1*
Y2557073D1*
X1750790Y2597221D2*
X1729787D1*
X1741239Y2581922D1*
X1735491D1*
X1731689Y2580021D1*
X1729787Y2578120D1*
X1727842Y2572372D1*
Y2568569D1*
X1729787Y2562821D1*
X1733590Y2558974D1*
X1739338Y2557073D1*
X1745086D1*
X1750790Y2558974D1*
X1752691Y2560920D1*
X1754637Y2564722D1*
X1713545Y2587670D2*
Y2589572D1*
X1711644Y2593418D1*
X1709743Y2595320D1*
X1705896Y2597221D1*
X1698247D1*
X1694444Y2595320D1*
X1692543Y2593418D1*
X1690597Y2589572D1*
Y2585769D1*
X1692543Y2581922D1*
X1696345Y2576218D1*
X1715491Y2557073D1*
X1688696D1*
X1676345Y2577147D2*
X1654237D1*
X1641885Y2597265D2*
X1632291Y2557073D1*
X1622740Y2597265D1*
X1613189Y2557073D1*
X1603595Y2597265D1*
X1591243Y2578120D2*
X1574043D1*
X1568295Y2580065D1*
X1566350Y2581966D1*
X1564449Y2585769D1*
Y2589616D1*
X1566350Y2593418D1*
X1568295Y2595364D1*
X1574043Y2597265D1*
X1591243D1*
Y2557073D1*
X1577846Y2578120D2*
X1564449Y2557073D1*
X1540601Y2597265D2*
X1544448Y2595364D1*
X1548250Y2591517D1*
X1550196Y2587715D1*
X1552097Y2581966D1*
Y2572372D1*
X1550196Y2566668D1*
X1548250Y2562821D1*
X1544448Y2559019D1*
X1540601Y2557073D1*
X1532952D1*
X1529149Y2559019D1*
X1525302Y2562821D1*
X1523401Y2566668D1*
X1521500Y2572372D1*
Y2581966D1*
X1523401Y2587715D1*
X1525302Y2591517D1*
X1529149Y2595364D1*
X1532952Y2597265D1*
X1540601D1*
X1509149D2*
X1493850Y2557073D1*
X1478551Y2597265D1*
X1441351D2*
X1466200D1*
Y2557073D1*
X1441351D1*
X1466200Y2578120D2*
X1450901D1*
X1428999D2*
X1411799D1*
X1406051Y2580065D1*
X1404106Y2581966D1*
X1402205Y2585769D1*
Y2589616D1*
X1404106Y2593418D1*
X1406051Y2595364D1*
X1411799Y2597265D1*
X1428999D1*
Y2557073D1*
X1415602Y2578120D2*
X1402205Y2557073D1*
X1462884Y1511782D2*
X1443739Y1551930D1*
X1470534D1*
X1412242Y1511782D2*
Y1551930D1*
X1431387Y1525179D1*
X1402692D1*
X1390340Y1551974D2*
Y1511782D1*
X1367392D1*
X1328246Y1546226D2*
X1332049Y1550072D1*
X1337797Y1551974D1*
X1345446D1*
X1351194Y1550072D1*
X1355041Y1546226D1*
Y1542423D1*
X1353095Y1538576D1*
X1351194Y1536675D1*
X1347392Y1534774D1*
X1335895Y1530927D1*
X1332049Y1529026D1*
X1330147Y1527080D1*
X1328246Y1523278D1*
Y1517530D1*
X1332049Y1513727D1*
X1337797Y1511782D1*
X1345446D1*
X1351194Y1513727D1*
X1355041Y1517530D1*
X1304399Y1551930D2*
X1310147Y1550028D1*
X1313993Y1544280D1*
X1315895Y1534730D1*
Y1528982D1*
X1313993Y1519431D1*
X1310147Y1513683D1*
X1304399Y1511782D1*
X1300596D1*
X1294848Y1513683D1*
X1291046Y1519431D1*
X1289100Y1528982D1*
Y1534730D1*
X1291046Y1544280D1*
X1294848Y1550028D1*
X1300596Y1551930D1*
X1304399D1*
X1291046Y1544280D2*
X1313993Y1519431D1*
X1269099Y1511782D2*
X1249954Y1551930D1*
X1276749D1*
X2449389Y2211795D2*
D135*
Y2181651D1*
X2429293Y2211795D2*
Y2181651D1*
X2449389Y2197436D2*
X2429293D1*
X2402818Y2201747D2*
Y2181651D1*
Y2197436D2*
X2405670Y2200321D1*
X2408555Y2201747D1*
X2412833D1*
X2415718Y2200321D1*
X2418570Y2197436D1*
X2420029Y2193125D1*
Y2190273D1*
X2418570Y2185962D1*
X2415718Y2183110D1*
X2412833Y2181651D1*
X2408555D1*
X2405670Y2183110D1*
X2402818Y2185962D1*
X2393555Y2201747D2*
Y2181651D1*
Y2193125D2*
X2392096Y2197436D1*
X2389244Y2200321D1*
X2386359Y2201747D1*
X2382048D1*
X2355573Y2211795D2*
Y2181651D1*
Y2197436D2*
X2358425Y2200321D1*
X2361310Y2201747D1*
X2365621D1*
X2368473Y2200321D1*
X2371358Y2197436D1*
X2372784Y2193125D1*
Y2190273D1*
X2371358Y2185962D1*
X2368473Y2183110D1*
X2365621Y2181651D1*
X2361310D1*
X2358425Y2183110D1*
X2355573Y2185962D1*
X1664369Y2289386D2*
D136*
X1694966D1*
X1700714Y2291287D1*
X1702615Y2293233D1*
X1704561Y2297035D1*
Y2300882D1*
X1702615Y2304685D1*
X1700714Y2306586D1*
X1694966Y2308531D1*
X1691163D1*
X1664369Y2277035D2*
X1704561D1*
Y2254087D1*
X1673919Y2213039D2*
X1670117Y2214941D1*
X1666270Y2218787D1*
X1664369Y2222590D1*
Y2230239D1*
X1666270Y2234086D1*
X1670117Y2237889D1*
X1673919Y2239834D1*
X1679667Y2241735D1*
X1689262D1*
X1694966Y2239834D1*
X1698813Y2237889D1*
X1702615Y2234086D1*
X1704561Y2230239D1*
Y2222590D1*
X1702615Y2218787D1*
X1698813Y2214941D1*
X1694966Y2213039D1*
X1664369Y2181543D2*
X1694966D1*
X1700714Y2183444D1*
X1702615Y2185389D1*
X1704561Y2189192D1*
Y2193039D1*
X1702615Y2196841D1*
X1700714Y2198742D1*
X1694966Y2200688D1*
X1691163D1*
X1664369Y2169191D2*
X1704561D1*
Y2146243D1*
X1673919Y2105196D2*
X1670117Y2107097D1*
X1666270Y2110944D1*
X1664369Y2114747D1*
Y2122396D1*
X1666270Y2126243D1*
X1670117Y2130045D1*
X1673919Y2131991D1*
X1679667Y2133892D1*
X1689262D1*
X1694966Y2131991D1*
X1698813Y2130045D1*
X1702615Y2126243D1*
X1704561Y2122396D1*
Y2114747D1*
X1702615Y2110944D1*
X1698813Y2107097D1*
X1694966Y2105196D1*
X1664369Y2073699D2*
X1694966D1*
X1700714Y2075600D1*
X1702615Y2077546D1*
X1704561Y2081348D1*
Y2085195D1*
X1702615Y2088998D1*
X1700714Y2090899D1*
X1694966Y2092845D1*
X1691163D1*
X1664369Y2061348D2*
X1704561D1*
Y2038400D1*
X1673919Y1997353D2*
X1670117Y1999254D1*
X1666270Y2003101D1*
X1664369Y2006903D1*
Y2014552D1*
X1666270Y2018399D1*
X1670117Y2022202D1*
X1673919Y2024147D1*
X1679667Y2026048D1*
X1689262D1*
X1694966Y2024147D1*
X1698813Y2022202D1*
X1702615Y2018399D1*
X1704561Y2014552D1*
Y2006903D1*
X1702615Y2003101D1*
X1698813Y1999254D1*
X1694966Y1997353D1*
X1664369Y1965856D2*
X1694966D1*
X1700714Y1967757D1*
X1702615Y1969703D1*
X1704561Y1973505D1*
Y1977352D1*
X1702615Y1981154D1*
X1700714Y1983056D1*
X1694966Y1985001D1*
X1691164D1*
X1664369Y1953504D2*
X1704561D1*
Y1930556D1*
X1673919Y1889509D2*
X1670117Y1891411D1*
X1666270Y1895257D1*
X1664369Y1899060D1*
Y1906709D1*
X1666270Y1910556D1*
X1670117Y1914358D1*
X1673919Y1916304D1*
X1679667Y1918205D1*
X1689262D1*
X1694966Y1916304D1*
X1698813Y1914358D1*
X1702615Y1910556D1*
X1704561Y1906709D1*
Y1899060D1*
X1702615Y1895257D1*
X1698813Y1891411D1*
X1694966Y1889509D1*
X2464669Y870786D2*
X2466570D1*
X2470417Y872688D1*
X2472318Y874589D1*
X2474220Y878436D1*
Y886085D1*
X2472318Y889888D1*
X2470417Y891789D1*
X2466570Y893734D1*
X2462768D1*
X2458921Y891789D1*
X2453217Y887986D1*
X2434072Y868841D1*
Y895636D1*
X2474220Y919483D2*
X2472318Y913735D1*
X2466570Y909888D1*
X2457020Y907987D1*
X2451272D1*
X2441721Y909888D1*
X2435973Y913735D1*
X2434072Y919483D1*
Y923286D1*
X2435973Y929034D1*
X2441721Y932836D1*
X2451272Y934782D1*
X2457020D1*
X2466570Y932836D1*
X2472318Y929034D1*
X2474220Y923286D1*
Y919483D1*
X2466570Y932836D2*
X2441721Y909888D1*
X2464669Y949079D2*
X2466570D1*
X2470417Y950980D1*
X2472318Y952881D1*
X2474220Y956728D1*
Y964377D1*
X2472318Y968180D1*
X2470417Y970081D1*
X2466570Y972026D1*
X2462768D1*
X2458921Y970081D1*
X2453217Y966278D1*
X2434072Y947133D1*
Y973928D1*
Y1005425D2*
X2474220D1*
X2447469Y986279D1*
Y1014975D1*
X2454146Y1027326D2*
Y1049434D1*
X2474220Y1073282D2*
X2472318Y1067534D1*
X2466570Y1063687D1*
X2457020Y1061786D1*
X2451272D1*
X2441721Y1063687D1*
X2435973Y1067534D1*
X2434072Y1073282D1*
Y1077084D1*
X2435973Y1082832D1*
X2441721Y1086635D1*
X2451272Y1088580D1*
X2457020D1*
X2466570Y1086635D1*
X2472318Y1082832D1*
X2474220Y1077084D1*
Y1073282D1*
X2466570Y1086635D2*
X2441721Y1063687D1*
X2464669Y1102877D2*
X2466570D1*
X2470417Y1104779D1*
X2472318Y1106680D1*
X2474219Y1110527D1*
Y1118176D1*
X2472318Y1121978D1*
X2470417Y1123880D1*
X2466570Y1125825D1*
X2462768D1*
X2458921Y1123880D1*
X2453217Y1120077D1*
X2434072Y1100932D1*
Y1127726D1*
X2454146Y1140078D2*
Y1162186D1*
X2466570Y1174537D2*
X2468516Y1178384D1*
X2474219Y1184132D1*
X2434072D1*
X2474220Y1206034D2*
X2472318Y1200330D1*
X2468516Y1198384D1*
X2464669D1*
X2460866Y1200330D1*
X2458921Y1204132D1*
X2457020Y1211782D1*
X2455118Y1217530D1*
X2451272Y1221332D1*
X2447469Y1223234D1*
X2441721D1*
X2437919Y1221332D1*
X2435973Y1219431D1*
X2434072Y1213683D1*
Y1206034D1*
X2435973Y1200330D1*
X2437918Y1198384D1*
X2441721Y1196483D1*
X2447469D1*
X2451272Y1198384D1*
X2455118Y1202231D1*
X2457020Y1207935D1*
X2458921Y1215584D1*
X2460866Y1219431D1*
X2464669Y1221332D1*
X2468516D1*
X2472318Y1219431D1*
X2474220Y1213683D1*
Y1206034D1*
X2470130Y2677545D2*
D135*
X2472982Y2680430D1*
X2477293Y2681856D1*
X2483030D1*
X2487341Y2680430D1*
X2490226Y2677545D1*
Y2674693D1*
X2488767Y2671808D1*
X2487341Y2670382D1*
X2484489Y2668956D1*
X2475867Y2666071D1*
X2472982Y2664645D1*
X2471556Y2663186D1*
X2470130Y2660334D1*
Y2656023D1*
X2472982Y2653171D1*
X2477293Y2651712D1*
X2483030D1*
X2487341Y2653171D1*
X2490226Y2656023D1*
X2443655Y2671808D2*
Y2651712D1*
Y2667497D2*
X2446507Y2670382D1*
X2449392Y2671808D1*
X2453670D1*
X2456555Y2670382D1*
X2459407Y2667497D1*
X2460866Y2663186D1*
Y2660334D1*
X2459407Y2656023D1*
X2456555Y2653171D1*
X2453670Y2651712D1*
X2449392D1*
X2446507Y2653171D1*
X2443655Y2656023D1*
X2422918Y2681856D2*
X2425770D1*
X2428655Y2680430D1*
X2430081Y2676119D1*
Y2651712D1*
X2434392Y2671808D2*
X2424344D1*
X2413654Y2663186D2*
X2396443D1*
Y2666071D1*
X2397869Y2668956D1*
X2399295Y2670382D1*
X2402180Y2671808D1*
X2406491D1*
X2409343Y2670382D1*
X2412228Y2667497D1*
X2413654Y2663186D1*
Y2660334D1*
X2412228Y2656023D1*
X2409343Y2653171D1*
X2406491Y2651712D1*
X2402180D1*
X2399295Y2653171D1*
X2396443Y2656023D1*
X2502220Y2628962D2*
X2489320D1*
X2485009Y2630421D1*
X2483550Y2631847D1*
X2482124Y2634699D1*
Y2637584D1*
X2483550Y2640436D1*
X2485009Y2641895D1*
X2489320Y2643321D1*
X2502220D1*
Y2613177D1*
X2492172Y2628962D2*
X2482124Y2613177D1*
X2472861Y2624651D2*
X2455650D1*
Y2627536D1*
X2457076Y2630421D1*
X2458502Y2631847D1*
X2461387Y2633273D1*
X2465698D1*
X2468550Y2631847D1*
X2471435Y2628962D1*
X2472861Y2624651D1*
Y2621799D1*
X2471435Y2617488D1*
X2468550Y2614636D1*
X2465698Y2613177D1*
X2461387D1*
X2458502Y2614636D1*
X2455650Y2617488D1*
X2430601Y2628962D2*
X2432027Y2631847D1*
X2436338Y2633273D1*
X2440649D1*
X2444960Y2631847D1*
X2446386Y2628962D1*
X2444960Y2626110D1*
X2442075Y2624651D1*
X2434912Y2623225D1*
X2432027Y2621799D1*
X2430601Y2618914D1*
Y2617488D1*
X2432027Y2614636D1*
X2436338Y2613177D1*
X2440649D1*
X2444960Y2614636D1*
X2446386Y2617488D1*
X2421338Y2624651D2*
X2404127D1*
Y2627536D1*
X2405553Y2630421D1*
X2406979Y2631847D1*
X2409864Y2633273D1*
X2414175D1*
X2417027Y2631847D1*
X2419912Y2628962D1*
X2421338Y2624651D1*
Y2621799D1*
X2419912Y2617488D1*
X2417027Y2614636D1*
X2414175Y2613177D1*
X2409864D1*
X2406979Y2614636D1*
X2404127Y2617488D1*
X2390552Y2643321D2*
Y2618914D1*
X2389126Y2614636D1*
X2386241Y2613177D1*
X2383389D1*
X2394863Y2633273D2*
X2384815D1*
X2461913Y2085299D2*
X2449013D1*
X2444702Y2086758D1*
X2443243Y2088184D1*
X2441817Y2091036D1*
Y2093921D1*
X2443243Y2096773D1*
X2444702Y2098232D1*
X2449013Y2099658D1*
X2461913D1*
Y2069514D1*
X2451865Y2085299D2*
X2441817Y2069514D1*
X2432554Y2080988D2*
X2415343D1*
Y2083873D1*
X2416769Y2086758D1*
X2418195Y2088184D1*
X2421080Y2089610D1*
X2425391D1*
X2428243Y2088184D1*
X2431128Y2085299D1*
X2432554Y2080988D1*
Y2078136D1*
X2431128Y2073825D1*
X2428243Y2070973D1*
X2425391Y2069514D1*
X2421080D1*
X2418195Y2070973D1*
X2415343Y2073825D1*
X2390294Y2085299D2*
X2391720Y2088184D1*
X2396031Y2089610D1*
X2400342D1*
X2404653Y2088184D1*
X2406079Y2085299D1*
X2404653Y2082447D1*
X2401768Y2080988D1*
X2394605Y2079562D1*
X2391720Y2078136D1*
X2390294Y2075251D1*
Y2073825D1*
X2391720Y2070973D1*
X2396031Y2069514D1*
X2400342D1*
X2404653Y2070973D1*
X2406079Y2073825D1*
X2381031Y2080988D2*
X2363820D1*
Y2083873D1*
X2365246Y2086758D1*
X2366672Y2088184D1*
X2369557Y2089610D1*
X2373868D1*
X2376720Y2088184D1*
X2379605Y2085299D1*
X2381031Y2080988D1*
Y2078136D1*
X2379605Y2073825D1*
X2376720Y2070973D1*
X2373868Y2069514D1*
X2369557D1*
X2366672Y2070973D1*
X2363820Y2073825D1*
X2350245Y2099658D2*
Y2075251D1*
X2348819Y2070973D1*
X2345934Y2069514D1*
X2343082D1*
X2354556Y2089610D2*
X2344508D1*
X1746303Y1291700D2*
X1749155Y1294585D1*
X1753466Y1296011D1*
X1759203D1*
X1763514Y1294585D1*
X1766399Y1291700D1*
Y1288848D1*
X1764940Y1285963D1*
X1763514Y1284537D1*
X1760662Y1283111D1*
X1752040Y1280226D1*
X1749155Y1278800D1*
X1747729Y1277341D1*
X1746303Y1274489D1*
Y1270178D1*
X1749155Y1267326D1*
X1753466Y1265867D1*
X1759203D1*
X1763514Y1267326D1*
X1766399Y1270178D1*
X1737040Y1296011D2*
Y1265867D1*
X1719154Y1296011D2*
X1722039Y1294585D1*
X1724891Y1291700D1*
X1726350Y1288848D1*
X1727776Y1284537D1*
Y1277341D1*
X1726350Y1273063D1*
X1724891Y1270178D1*
X1722039Y1267326D1*
X1719154Y1265867D1*
X1713417D1*
X1710565Y1267326D1*
X1707680Y1270178D1*
X1706254Y1273063D1*
X1704828Y1277341D1*
Y1284537D1*
X1706254Y1288848D1*
X1707680Y1291700D1*
X1710565Y1294585D1*
X1713417Y1296011D1*
X1719154D1*
X1666404Y1281652D2*
X1653504D1*
X1649193Y1283111D1*
X1647734Y1284537D1*
X1646308Y1287389D1*
Y1290274D1*
X1647734Y1293126D1*
X1649193Y1294585D1*
X1653504Y1296011D1*
X1666404D1*
Y1265867D1*
X1656356Y1281652D2*
X1646308Y1265867D1*
X1618408Y1296011D2*
X1637044D1*
Y1265867D1*
X1618408D1*
X1637044Y1281652D2*
X1625570D1*
X1587622Y1288848D2*
X1589048Y1291700D1*
X1591933Y1294585D1*
X1594785Y1296011D1*
X1600522D1*
X1603407Y1294585D1*
X1606259Y1291700D1*
X1607718Y1288848D1*
X1609144Y1284537D1*
Y1277341D1*
X1607718Y1273063D1*
X1606259Y1270178D1*
X1603407Y1267326D1*
X1600522Y1265867D1*
X1594785D1*
X1591933Y1267326D1*
X1589048Y1270178D1*
X1587622Y1273063D1*
X1559722Y1296011D2*
X1578359D1*
Y1265867D1*
X1559722D1*
X1578359Y1281652D2*
X1566885D1*
X1550458Y1280226D2*
X1537525D1*
X1533247Y1281652D1*
X1531788Y1283111D1*
X1530362Y1285963D1*
Y1290274D1*
X1531788Y1293126D1*
X1533247Y1294585D1*
X1537525Y1296011D1*
X1550458D1*
Y1265867D1*
X1511051Y1296011D2*
Y1265867D1*
X1521099Y1296011D2*
X1501003D1*
X1468758Y1265867D2*
X1480265Y1296011D1*
X1491739Y1265867D1*
X1487428Y1275915D2*
X1473069D1*
X1437972Y1288848D2*
X1439398Y1291700D1*
X1442283Y1294585D1*
X1445135Y1296011D1*
X1450872D1*
X1453757Y1294585D1*
X1456609Y1291700D1*
X1458068Y1288848D1*
X1459494Y1284537D1*
Y1277341D1*
X1458068Y1273063D1*
X1456609Y1270178D1*
X1453757Y1267326D1*
X1450872Y1265867D1*
X1445135D1*
X1442283Y1267326D1*
X1439398Y1270178D1*
X1437972Y1273063D1*
X1428709Y1296011D2*
Y1265867D1*
X1411498D1*
X1383597Y1296011D2*
X1402234D1*
Y1265867D1*
X1383597D1*
X1402234Y1281652D2*
X1390760D1*
X1335125Y1296011D2*
Y1265867D1*
X1345173Y1296011D2*
X1325077D1*
X1315814D2*
Y1265867D1*
X1295718Y1296011D2*
Y1265867D1*
X1315814Y1281652D2*
X1295718D1*
X1286454Y1296011D2*
Y1265867D1*
X1257095Y1291700D2*
X1259947Y1294585D1*
X1264258Y1296011D1*
X1269995D1*
X1274306Y1294585D1*
X1277191Y1291700D1*
Y1288848D1*
X1275732Y1285963D1*
X1274306Y1284537D1*
X1271454Y1283111D1*
X1262832Y1280226D1*
X1259947Y1278800D1*
X1258521Y1277341D1*
X1257095Y1274489D1*
Y1270178D1*
X1259947Y1267326D1*
X1264258Y1265867D1*
X1269995D1*
X1274306Y1267326D1*
X1277191Y1270178D1*
X1198575Y1291700D2*
X1201426Y1294585D1*
X1205738Y1296011D1*
X1211474D1*
X1215786Y1294585D1*
X1218671Y1291700D1*
Y1288848D1*
X1217211Y1285963D1*
X1215786Y1284537D1*
X1212934Y1283111D1*
X1204312Y1280226D1*
X1201426Y1278800D1*
X1200001Y1277341D1*
X1198575Y1274489D1*
Y1270178D1*
X1201426Y1267326D1*
X1205738Y1265867D1*
X1211474D1*
X1215786Y1267326D1*
X1218671Y1270178D1*
X1189311Y1296011D2*
Y1265867D1*
X1180047Y1296011D2*
Y1265867D1*
X1169999D1*
X1165688Y1267326D1*
X1162803Y1270178D1*
X1161377Y1273063D1*
X1159951Y1277341D1*
Y1284537D1*
X1161377Y1288848D1*
X1162803Y1291700D1*
X1165688Y1294585D1*
X1169999Y1296011D1*
X1180047D1*
X1132051D2*
X1150688D1*
Y1265867D1*
X1132051D1*
X1150688Y1281652D2*
X1139214D1*
M02*
