M48
INCH
T01C0.0157
T02C0.0236
T03C0.0256
T04C0.0315
T05C0.0394
T06C0.0433
T07C0.0512
T08C0.0591
T09C0.0827
T10C0.2362
%
T01
X+007206Y+020448
X+007206Y+020073
X+006834Y+019296
X+007779Y+019229
X+008489Y+019047
X+009635Y+019233
X+009969Y+020073
X+009969Y+020448
X+009506Y+021299
X+009063Y+021750
X+008099Y+021998
X+006834Y+021174
X+009062Y+023250
X+009437Y+023250
X+010500Y+023125
X+010500Y+022750
X+010973Y+023534
X+012312Y+024875
X+012312Y+025250
X+011886Y+025937
X+011437Y+026312
X+011562Y+026750
X+009884Y+026244
X+009204Y+027000
X+007991Y+025551
X+009372Y+025061
X+006912Y+026718
X+013631Y+024331
X+016000Y+023937
X+016687Y+024312
X+016000Y+024750
X+017437Y+024750
X+017437Y+023937
X+019062Y+024312
X+019000Y+023125
X+019000Y+022312
X+019125Y+021812
X+019062Y+020812
X+018750Y+020187
X+019090Y+019826
X+019062Y+019312
X+018500Y+019625
X+017500Y+020375
X+016375Y+018750
X+016067Y+018436
X+015745Y+018093
X+015124Y+017063
X+015723Y+015343
X+016962Y+015166
X+019380Y+017065
X+019000Y+018437
X+021095Y+017637
X+021242Y+018067
X+022815Y+018759
X+023217Y+019296
X+022174Y+020286
X+022491Y+020650
X+021873Y+020668
X+020812Y+020437
X+021240Y+022510
X+023622Y+022480
X+021562Y+025687
X+021875Y+026500
X+022679Y+026664
X+020375Y+025500
X+019125Y+026312
X+017691Y+026551
X+014937Y+021812
X+014187Y+021125
X+015312Y+020812
X+012318Y+019844
X+011979Y+019200
X+011745Y+017049
X+010000Y+017080
X+008198Y+017180
X+008125Y+016062
X+007091Y+016237
X+007088Y+013440
X+011261Y+013955
X+013419Y+015577
X+014972Y+012181
X+020431Y+015374
X+020701Y+015676
X+022380Y+013706
X+023882Y+015861
X+024312Y+016437
X+024312Y+017312
X+011863Y+021376
T02
X+004639Y+018542G85X+004324Y+018542
X+006343Y+018542G85X+005910Y+018542
X+006343Y+021944G85X+005910Y+021944
X+004639Y+021944G85X+004324Y+021944
T03
X+005930Y+019105
X+005930Y+021381
T04
X+004893Y+016499
X+004893Y+015686
X+004893Y+014874
T05
X+009250Y+028625
X+011021Y+028625
X+006959Y+028625
X+005187Y+028625
X+022437Y+028630
X+024209Y+028630
T06
X+010482Y+005649
X+011183Y+006850
X+011884Y+005649
X+012585Y+006850
X+013285Y+005649
X+013986Y+006850
X+014687Y+005649
X+015388Y+006850
X+016089Y+005649
X+016789Y+006850
X+017490Y+005649
X+018191Y+006850
X+018892Y+005649
T07
X+008757Y+027640
X+007451Y+027640
X+004695Y+027640
X+011513Y+027640
X+021945Y+027646
X+024701Y+027646
T08
X+004893Y+017400G85X+004893Y+017597
X+004893Y+013775G85X+004893Y+013972
T09
X+018892Y+009962
X+018191Y+011162
X+017490Y+009962
X+016789Y+011162
X+016089Y+009962
X+015388Y+011162
X+014687Y+009962
X+013986Y+011162
X+013285Y+009962
X+012585Y+011162
X+011884Y+009962
X+011183Y+011162
X+010482Y+009962
T10
X+023312Y+024562
X+006062Y+024562
X+007096Y+006097
X+022278Y+006097
T00
M30
