M48
INCH
T01C0.0157
T02C0.028
T03C0.0354
T04C0.038
T05C0.0394
T06C0.0433
T07C0.0472
T08C0.0492
T09C0.128
%
T01
X+009487Y+007110
X+009459Y+010663
X+008433Y+011593
X+018854Y+014691
X+021620Y+022197
X+029077Y+012413
X+030297Y+012937
X+030570Y+012413
X+030570Y+011205
X+031001Y+013803
X+034021Y+013370
T02
X+032521Y+006904
X+032521Y+005904
X+032600Y+020669
X+032600Y+021669
T03
X+010687Y+005437
X+010687Y+006437
X+009937Y+022437
X+008937Y+022437
T04
X+005556Y+018187
X+005556Y+017187
X+005556Y+016187
X+005556Y+015187
X+005556Y+014187
X+005556Y+013187
X+005556Y+012187
X+005556Y+011187
X+005556Y+010187
X+005556Y+009187
X+006556Y+009187
X+006556Y+010187
X+006556Y+011187
X+006556Y+012187
X+006556Y+013187
X+006556Y+014187
X+006556Y+015187
X+006556Y+016187
X+006556Y+017187
X+006556Y+018187
X+022687Y+018687
X+022687Y+020312
X+022687Y+021937
X+026687Y+021937
X+026687Y+020312
X+026687Y+018687
X+026687Y+016937
X+026687Y+015312
X+026687Y+013687
X+026687Y+012062
X+026687Y+010437
X+026687Y+008812
X+026687Y+007062
X+026687Y+005437
X+022687Y+005437
X+022687Y+007062
X+022687Y+008812
X+022687Y+010437
X+022687Y+012062
X+022687Y+013687
X+022687Y+015312
X+022687Y+016937
T05
X+016937Y+022437
X+015937Y+022437
X+010168Y+014219
X+010168Y+013219
X+035322Y+007894
X+037094Y+007894
X+037094Y+005335
X+035322Y+005335
X+035325Y+020001
X+037096Y+020001
X+037096Y+022560
X+035325Y+022560
T06
X+013437Y+022437
X+012437Y+022437
X+015513Y+017187
X+016513Y+017187
X+016513Y+016187
X+016513Y+015187
X+016513Y+014187
X+015513Y+014187
X+015513Y+015187
X+015513Y+016187
X+015513Y+013187
X+015513Y+012187
X+015513Y+011187
X+016513Y+011187
X+016513Y+012187
X+016513Y+013187
X+016513Y+010187
X+015513Y+010187
X+019687Y+010687
X+019687Y+009687
X+019687Y+008687
X+019687Y+007687
X+019687Y+006687
X+019687Y+005687
X+019687Y+004687
X+019687Y+011687
X+019687Y+012687
X+019687Y+013687
X+019687Y+014687
X+019687Y+015687
X+019687Y+016687
X+019687Y+017687
X+019687Y+018687
X+019687Y+019687
X+019687Y+020687
X+019687Y+021687
X+019687Y+022687
X+029687Y+022687
X+029687Y+021687
X+029687Y+020687
X+029687Y+019687
X+029687Y+018687
X+029687Y+017687
X+029687Y+016687
X+029687Y+015687
X+029687Y+014687
X+029687Y+013687
X+029687Y+012687
X+029687Y+011687
X+029687Y+010687
X+029687Y+009687
X+029687Y+008687
X+029687Y+007687
X+029687Y+006687
X+029687Y+005687
X+029687Y+004687
T07
X+017687Y+005437
X+013337Y+005437
T08
X+039026Y+011857
X+039026Y+015002
T09
X+005437Y+022187
X+005437Y+005437
X+039187Y+005437
X+039187Y+022187
T00
M30
