G04 DipTrace 3.3.1.3*
G04 TopSilk.gbr*
%MOIN*%
G04 #@! TF.FileFunction,Legend,Top*
G04 #@! TF.Part,Single*
%ADD10C,0.009843*%
%ADD12C,0.003*%
%ADD16C,0.005906*%
%ADD37C,0.015401*%
%ADD39O,0.074027X0.074711*%
%ADD40O,0.073993X0.074711*%
%ADD41O,0.073959X0.074711*%
%ADD83C,0.004632*%
%ADD84C,0.006176*%
%ADD86C,0.00772*%
%FSLAX26Y26*%
G04*
G70*
G90*
G75*
G01*
G04 TopSilk*
%LPD*%
X1080521Y463821D2*
D10*
X1056881D1*
X1068701Y452002D2*
Y475615D1*
X968701Y593731D2*
G02X968701Y593731I100000J0D01*
G01*
X1573761Y2183702D2*
X1713641D1*
X1573761Y2303702D2*
X1713641D1*
Y2183702D2*
G03X1713641Y2303702I60J60000D01*
G01*
X1573761D2*
G03X1573761Y2183702I-60J-60000D01*
G01*
X956773Y1441791D2*
Y1301911D1*
X1076773Y1441791D2*
Y1301911D1*
X956773D2*
G03X1076773Y1301911I60000J-60D01*
G01*
Y1441791D2*
G03X956773Y1441791I-60000J60D01*
G01*
X1645785Y598820D2*
Y488584D1*
X1643762D2*
X1458600D1*
X1615937Y598820D2*
Y488584D1*
X1458600Y598820D2*
Y488584D1*
X1643762Y598820D2*
X1458600D1*
X3327013Y540437D2*
X3177137D1*
X3327313Y540662D2*
G03X3176837Y540662I-75238J99796D01*
G01*
X3334891Y2016883D2*
X3185015D1*
X3335191Y2017108D2*
G03X3184715Y2017108I-75238J99796D01*
G01*
X555593Y718702D2*
Y743402D1*
X655693D2*
X555593D1*
X655693Y718702D2*
Y743402D1*
X555593Y1994002D2*
Y2018702D1*
X655693Y1994002D2*
X555593D1*
X655693D2*
Y2018702D1*
X780643D2*
X430643D1*
X780643Y718702D2*
X430643D1*
X780643D2*
Y2018702D1*
X460743Y1288102D2*
X430643D1*
X460743D2*
Y1449302D1*
X430643D1*
Y718702D2*
Y1288102D1*
Y1449302D2*
Y2018702D1*
X843701Y2293702D2*
Y2193702D1*
X1043701Y2293702D2*
X843701D1*
X1043701D2*
Y2193702D1*
X843701D1*
X1393713Y2193697D2*
X1193689D1*
Y2293702D1*
X1393713D1*
Y2193697D1*
X1701316Y1768702D2*
X1501316D1*
Y968702D1*
X1701316D1*
Y1768702D1*
X2368881Y1918702D2*
X2568521D1*
Y1818702D2*
Y1918702D1*
X2368881Y1818702D2*
X2568521D1*
X2368881D2*
Y1918702D1*
Y2243702D2*
X2568521D1*
Y2143702D2*
Y2243702D1*
X2368881Y2143702D2*
X2568521D1*
X2368881D2*
Y2243702D1*
Y1418702D2*
X2568521D1*
Y1318702D2*
Y1418702D1*
X2368881Y1318702D2*
X2568521D1*
X2368881D2*
Y1418702D1*
Y593702D2*
X2568521D1*
Y493702D2*
Y593702D1*
X2368881Y493702D2*
X2568521D1*
X2368881D2*
Y593702D1*
Y931202D2*
X2568521D1*
Y831202D2*
Y931202D1*
X2368881Y831202D2*
X2568521D1*
X2368881D2*
Y931202D1*
Y1581202D2*
X2568521D1*
Y1481202D2*
Y1581202D1*
X2368881Y1481202D2*
X2568521D1*
X2368881D2*
Y1581202D1*
Y1256202D2*
X2568521D1*
Y1156202D2*
Y1256202D1*
X2368881Y1156202D2*
X2568521D1*
X2368881D2*
Y1256202D1*
X2568521Y656202D2*
X2368881D1*
Y756202D2*
Y656202D1*
X2568521Y756202D2*
X2368881D1*
X2568521D2*
Y656202D1*
Y1981202D2*
X2368881D1*
Y2081202D2*
Y1981202D1*
X2568521Y2081202D2*
X2368881D1*
X2568521D2*
Y1981202D1*
Y1643702D2*
X2368881D1*
Y1743702D2*
Y1643702D1*
X2568521Y1743702D2*
X2368881D1*
X2568521D2*
Y1643702D1*
Y993702D2*
X2368881D1*
Y1093702D2*
Y993702D1*
X2568521Y1093702D2*
X2368881D1*
X2568521D2*
Y993702D1*
X3570818Y542742D2*
X3664558D1*
X3570818Y780239D2*
X3664558D1*
X3483313Y542742D2*
Y780239D1*
X3752062Y542742D2*
Y780239D1*
X3571051Y2009328D2*
X3664791D1*
X3571051Y2246826D2*
X3664791D1*
X3483547Y2009328D2*
Y2246826D1*
X3752296Y2009328D2*
Y2246826D1*
X3553421Y1088974D2*
X3836886D1*
X3947154D2*
X4057421D1*
Y1675619D1*
X3947154D1*
X3836886D2*
X3557390D1*
Y1596849D1*
X3490492D1*
Y1490527D1*
D37*
X1139859Y1302076D3*
X1145122Y1356142D2*
D10*
X1263230D1*
X1145122Y1387633D2*
X1263230D1*
Y1356142D2*
Y1387633D1*
X1145122Y1356142D2*
Y1387633D1*
G36*
X3161942Y1171836D2*
X3303757D1*
Y1188767D1*
X3161942D1*
Y1171836D1*
G37*
G36*
X3161468Y1738422D2*
Y1835871D1*
X3177846D1*
Y1795710D1*
X3303858D1*
Y1778484D1*
X3177846D1*
Y1738422D1*
X3161468D1*
G37*
G36*
Y1650225D2*
Y1725428D1*
X3177575D1*
Y1667451D1*
X3217997D1*
Y1725428D1*
X3233528D1*
Y1667155D1*
X3288327D1*
Y1725428D1*
X3303858D1*
Y1650225D1*
X3161468D1*
G37*
G36*
X3303790Y1496668D2*
X3155228D1*
X3269609Y1600811D1*
X3161162D1*
Y1616954D1*
X3310640D1*
X3196870Y1512811D1*
X3303790D1*
Y1496668D1*
G37*
G36*
X3162214Y1121733D2*
Y1138763D1*
X3274966D1*
X3284326Y1137778D1*
X3291176Y1135711D1*
X3296466Y1132856D1*
X3300264Y1129707D1*
X3303621Y1125080D1*
X3305893Y1119765D1*
X3306978Y1113465D1*
X3307690Y1105689D1*
Y1100275D1*
X3306368Y1095058D1*
X3302671Y1087577D1*
X3299179Y1082557D1*
X3293821Y1077635D1*
X3282291Y1089152D1*
X3286360Y1092695D1*
X3288904Y1096042D1*
X3291277Y1100767D1*
X3292125Y1103129D1*
X3292498Y1105984D1*
X3292261Y1110217D1*
X3291684Y1112579D1*
X3290870Y1114351D1*
X3289480Y1116418D1*
X3287174Y1118485D1*
X3284427Y1120060D1*
X3282461Y1120946D1*
X3280053Y1121241D1*
X3277306Y1121635D1*
X3275204Y1121832D1*
X3162214Y1121733D1*
G37*
G36*
X3162112Y951443D2*
Y968669D1*
X3253365D1*
X3261572Y969161D1*
X3270592Y971228D1*
X3278188Y974673D1*
X3282223Y977725D1*
X3285953Y982154D1*
X3289344Y988848D1*
X3291549Y998396D1*
X3291956Y1006467D1*
X3290870Y1017689D1*
X3288429Y1025662D1*
X3284970Y1031568D1*
X3282223Y1034619D1*
X3276526Y1038754D1*
X3268015Y1042100D1*
X3254654Y1044069D1*
X3241768D1*
X3162044D1*
Y1061295D1*
X3250279D1*
X3265709Y1060114D1*
X3277340Y1057259D1*
X3286089Y1053125D1*
X3293007Y1047810D1*
X3298500Y1041411D1*
X3302773Y1033635D1*
X3305961Y1023595D1*
X3307656Y1008731D1*
Y1004892D1*
X3306707Y992391D1*
X3303824Y981268D1*
X3299823Y973000D1*
X3294601Y966110D1*
X3287479Y960302D1*
X3278798Y955774D1*
X3266930Y952624D1*
X3250381Y951344D1*
X3162112Y951443D1*
G37*
X3212673Y1200087D2*
D16*
Y1309742D1*
X3120809Y1277850D2*
X3322272D1*
X3197345Y1205008D2*
X3239123D1*
X3141528Y1248024D2*
Y1442529D1*
X3074148Y1347049D2*
X3175439D1*
X3123420Y1419004D2*
X3389245D1*
X3352588Y1331693D2*
X3351944Y1515567D1*
D39*
X3140935Y1347885D3*
G36*
X3161807Y926638D2*
Y851533D1*
X3304672D1*
Y868857D1*
X3233697D1*
Y926638D1*
X3218200D1*
Y868365D1*
X3177711D1*
Y926638D1*
X3161807D1*
G37*
D40*
X3213554Y1276127D3*
Y1418265D3*
D41*
X3285360D3*
X3176490Y1346310D2*
D16*
X3176576Y1348738D1*
X3176834Y1351153D1*
X3177262Y1353545D1*
X3177859Y1355901D1*
X3178622Y1358211D1*
X3179546Y1360463D1*
X3180628Y1362646D1*
X3181862Y1364750D1*
X3183242Y1366763D1*
X3184761Y1368677D1*
X3186412Y1370482D1*
X3188187Y1372169D1*
X3190077Y1373730D1*
X3192073Y1375158D1*
X3194166Y1376445D1*
X3196345Y1377585D1*
X3198599Y1378573D1*
X3200917Y1379404D1*
X3203289Y1380073D1*
X3205703Y1380578D1*
X3208146Y1380916D1*
X3210608Y1381085D1*
X3213076D1*
X3215537Y1380916D1*
X3217981Y1380578D1*
X3220394Y1380073D1*
X3222766Y1379404D1*
X3225085Y1378573D1*
X3227339Y1377585D1*
X3229518Y1376445D1*
X3231610Y1375158D1*
X3233607Y1373730D1*
X3235497Y1372169D1*
X3237272Y1370482D1*
X3238923Y1368677D1*
X3240442Y1366763D1*
X3241822Y1364750D1*
X3243056Y1362646D1*
X3244137Y1360463D1*
X3245062Y1358211D1*
X3245824Y1355901D1*
X3246421Y1353545D1*
X3246850Y1351153D1*
X3247107Y1348738D1*
X3247194Y1346310D1*
X3247107Y1343883D1*
X3246850Y1341468D1*
X3246421Y1339076D1*
X3245824Y1336719D1*
X3245062Y1334409D1*
X3244137Y1332157D1*
X3243056Y1329974D1*
X3241822Y1327871D1*
X3240442Y1325857D1*
X3238923Y1323944D1*
X3237272Y1322139D1*
X3235497Y1320452D1*
X3233607Y1318890D1*
X3231610Y1317463D1*
X3229518Y1316176D1*
X3227339Y1315036D1*
X3225085Y1314048D1*
X3222766Y1313217D1*
X3220394Y1312548D1*
X3217981Y1312043D1*
X3215537Y1311705D1*
X3213076Y1311535D1*
X3210608D1*
X3208146Y1311705D1*
X3205703Y1312043D1*
X3203289Y1312548D1*
X3200917Y1313217D1*
X3198599Y1314048D1*
X3196345Y1315036D1*
X3194166Y1316176D1*
X3192073Y1317463D1*
X3190077Y1318890D1*
X3188187Y1320452D1*
X3186412Y1322139D1*
X3184761Y1323944D1*
X3183242Y1325857D1*
X3181862Y1327871D1*
X3180628Y1329974D1*
X3179546Y1332157D1*
X3178622Y1334409D1*
X3177859Y1336719D1*
X3177262Y1339076D1*
X3176834Y1341468D1*
X3176576Y1343883D1*
X3176490Y1346310D1*
X3312641Y1490959D2*
X3383921D1*
X3282664Y1257769D2*
Y1475603D1*
X3212706Y1467630D2*
Y1388981D1*
X3248686Y1347049D2*
X3365949Y1347639D1*
G36*
X2628487Y2336484D2*
X2640987Y2311484D1*
X2615986D1*
D1*
X2628487Y2336484D1*
G37*
Y2311484D2*
D16*
Y2280235D1*
G36*
X2297236Y2336484D2*
X2309736Y2311484D1*
X2284736D1*
D1*
X2297236Y2336484D1*
G37*
Y2311484D2*
D16*
Y2280235D1*
G36*
X2303736Y420341D2*
X2291236Y445341D1*
X2316238D1*
D1*
X2303736Y420341D1*
G37*
Y445341D2*
D16*
Y476590D1*
G36*
X2634987Y420341D2*
X2622487Y445341D1*
X2647487D1*
D1*
X2634987Y420341D1*
G37*
Y445341D2*
D16*
Y476590D1*
G36*
X969251Y603294D2*
X1167215D1*
X1156959Y642762D1*
X1133651Y671043D1*
X1103816Y687824D1*
X1069631Y694350D1*
X1069009Y677879D1*
X1076780Y677569D1*
X1086413Y673840D1*
X1093560Y668867D1*
X1099155Y662030D1*
X1102262Y654261D1*
X1103816Y645870D1*
X1103505Y636547D1*
X1100709Y628466D1*
X1096047Y621319D1*
X1086413Y612305D1*
X1077711Y609820D1*
X1069631Y609509D1*
X1058133Y609820D1*
X1049430Y614170D1*
X1042904Y619765D1*
X1039176Y625358D1*
X1035446Y633438D1*
X1033581Y643383D1*
X1034824Y653018D1*
X1038243Y660787D1*
X1043215Y667313D1*
X1050012Y672887D1*
X1056059Y675884D1*
X1062766Y677866D1*
X1069067Y677917D1*
X1069525Y694534D1*
X1047566Y692796D1*
X1024568Y685027D1*
X1007476Y675704D1*
X990383Y657679D1*
X976399Y634993D1*
X969251Y603294D1*
G37*
X1315741Y1942515D2*
D12*
X1330741D1*
X1315741Y1941015D2*
X1330741D1*
X1315741Y1939515D2*
X1330741D1*
X1315741Y1938015D2*
X1330741D1*
X1702741D2*
X1716241D1*
X1773241D2*
X1786741D1*
X850741Y1936515D2*
X898741D1*
X913741D2*
X930241D1*
X967741D2*
X984241D1*
X1020241D2*
X1036741D1*
X1056241D2*
X1072741D1*
X1114741D2*
X1134241D1*
X1315741D2*
X1330741D1*
X1450741D2*
X1485241D1*
X1699344D2*
X1719639D1*
X1769844D2*
X1790139D1*
X850741Y1935015D2*
X898741D1*
X913741D2*
X930241D1*
X967741D2*
X984241D1*
X1020241D2*
X1036741D1*
X1056241D2*
X1072741D1*
X1113817D2*
X1134479D1*
X1315741D2*
X1330741D1*
X1450741D2*
X1489563D1*
X1696536D2*
X1722447D1*
X1767036D2*
X1792947D1*
X850741Y1933515D2*
X898741D1*
X913741D2*
X930241D1*
X967741D2*
X984241D1*
X1020241D2*
X1036741D1*
X1056241D2*
X1072741D1*
X1113009D2*
X1134904D1*
X1315741D2*
X1330741D1*
X1450741D2*
X1493174D1*
X1694315D2*
X1724668D1*
X1764815D2*
X1795168D1*
X850741Y1932015D2*
X898741D1*
X913741D2*
X930241D1*
X967741D2*
X984241D1*
X1020241D2*
X1036741D1*
X1056241D2*
X1072741D1*
X1112350D2*
X1135483D1*
X1315741D2*
X1330741D1*
X1450741D2*
X1496001D1*
X1692475D2*
X1726508D1*
X1762975D2*
X1797008D1*
X850741Y1930515D2*
X898741D1*
X913741D2*
X930241D1*
X967741D2*
X984241D1*
X1020241D2*
X1036741D1*
X1056241D2*
X1072741D1*
X1111799D2*
X1136111D1*
X1315741D2*
X1330741D1*
X1450741D2*
X1498195D1*
X1690836D2*
X1728146D1*
X1761336D2*
X1798646D1*
X850741Y1929015D2*
X898741D1*
X913741D2*
X930241D1*
X967741D2*
X984241D1*
X1020241D2*
X1036741D1*
X1056241D2*
X1072741D1*
X1111255D2*
X1136688D1*
X1315741D2*
X1330741D1*
X1450741D2*
X1499965D1*
X1689332D2*
X1729651D1*
X1759832D2*
X1800151D1*
X850741Y1927515D2*
X898741D1*
X913741D2*
X930241D1*
X967741D2*
X984241D1*
X1020241D2*
X1036741D1*
X1056241D2*
X1072741D1*
X1110739D2*
X1137210D1*
X1315741D2*
X1330741D1*
X1450741D2*
X1501403D1*
X1688008D2*
X1730975D1*
X1758508D2*
X1801475D1*
X850741Y1926015D2*
X898741D1*
X913741D2*
X930241D1*
X967741D2*
X984241D1*
X1020241D2*
X1036741D1*
X1056241D2*
X1072741D1*
X1110249D2*
X1137788D1*
X1315741D2*
X1330741D1*
X1450741D2*
X1502538D1*
X1686913D2*
X1732070D1*
X1757413D2*
X1802570D1*
X850741Y1924515D2*
X898741D1*
X913741D2*
X930241D1*
X967741D2*
X984241D1*
X1020241D2*
X1036741D1*
X1056241D2*
X1072741D1*
X1109686D2*
X1138437D1*
X1315741D2*
X1330741D1*
X1450741D2*
X1503423D1*
X1685992D2*
X1732991D1*
X1756492D2*
X1803491D1*
X850741Y1923015D2*
X898741D1*
X913741D2*
X930241D1*
X967741D2*
X984241D1*
X1020241D2*
X1036741D1*
X1056241D2*
X1072741D1*
X1109042D2*
X1139094D1*
X1315741D2*
X1330741D1*
X1450741D2*
X1467241D1*
X1480146D2*
X1504060D1*
X1685171D2*
X1706042D1*
X1712941D2*
X1733812D1*
X1755671D2*
X1776542D1*
X1783441D2*
X1804312D1*
X850741Y1921515D2*
X867241D1*
X913741D2*
X930241D1*
X967741D2*
X984241D1*
X1020241D2*
X1036741D1*
X1056241D2*
X1072741D1*
X1108388D2*
X1139682D1*
X1315741D2*
X1330741D1*
X1450741D2*
X1467241D1*
X1483348D2*
X1504429D1*
X1684438D2*
X1703718D1*
X1715265D2*
X1734545D1*
X1754938D2*
X1774218D1*
X1785765D2*
X1805045D1*
X850741Y1920015D2*
X867241D1*
X913741D2*
X930241D1*
X967741D2*
X984241D1*
X1020241D2*
X1036741D1*
X1056241D2*
X1072741D1*
X1107801D2*
X1122010D1*
X1125247D2*
X1140202D1*
X1315741D2*
X1330741D1*
X1450741D2*
X1467241D1*
X1485655D2*
X1504611D1*
X1683819D2*
X1701912D1*
X1717071D2*
X1735164D1*
X1754319D2*
X1772412D1*
X1787571D2*
X1805664D1*
X850741Y1918515D2*
X867241D1*
X913741D2*
X930241D1*
X967741D2*
X984241D1*
X1020241D2*
X1036741D1*
X1056241D2*
X1072741D1*
X1107281D2*
X1121638D1*
X1125300D2*
X1140734D1*
X1315741D2*
X1330741D1*
X1450741D2*
X1467241D1*
X1487225D2*
X1504691D1*
X1683287D2*
X1700581D1*
X1718396D2*
X1735696D1*
X1753787D2*
X1771081D1*
X1788896D2*
X1806196D1*
X850741Y1917015D2*
X867241D1*
X913741D2*
X930241D1*
X967741D2*
X984241D1*
X1020241D2*
X1036741D1*
X1056241D2*
X1072741D1*
X1106749D2*
X1121244D1*
X1125491D2*
X1141246D1*
X1315741D2*
X1330741D1*
X1450741D2*
X1467241D1*
X1488301D2*
X1504723D1*
X1682751D2*
X1699557D1*
X1719373D2*
X1736232D1*
X1753251D2*
X1770057D1*
X1789873D2*
X1806732D1*
X850741Y1915515D2*
X867241D1*
X913741D2*
X930241D1*
X967741D2*
X984241D1*
X1020241D2*
X1036741D1*
X1056241D2*
X1072741D1*
X1106237D2*
X1120928D1*
X1125856D2*
X1141735D1*
X1315741D2*
X1330741D1*
X1450741D2*
X1467241D1*
X1489009D2*
X1504735D1*
X1682238D2*
X1698694D1*
X1720097D2*
X1736745D1*
X1752738D2*
X1769194D1*
X1790597D2*
X1807245D1*
X850741Y1914015D2*
X867241D1*
X913741D2*
X930241D1*
X967741D2*
X984241D1*
X1020241D2*
X1036741D1*
X1056241D2*
X1072741D1*
X1105748D2*
X1120598D1*
X1126294D2*
X1142297D1*
X1315741D2*
X1330741D1*
X1450741D2*
X1467241D1*
X1489355D2*
X1504739D1*
X1681754D2*
X1697952D1*
X1720672D2*
X1737228D1*
X1752254D2*
X1768452D1*
X1791172D2*
X1807728D1*
X850741Y1912515D2*
X867241D1*
X913741D2*
X930241D1*
X967741D2*
X984241D1*
X1020241D2*
X1036741D1*
X1056241D2*
X1072741D1*
X1105186D2*
X1120169D1*
X1126746D2*
X1142941D1*
X1315741D2*
X1330741D1*
X1450741D2*
X1467241D1*
X1489350D2*
X1504741D1*
X1681245D2*
X1697381D1*
X1721218D2*
X1737738D1*
X1751745D2*
X1767881D1*
X1791718D2*
X1808238D1*
X850741Y1911015D2*
X867241D1*
X913741D2*
X930241D1*
X967741D2*
X984241D1*
X1020241D2*
X1036741D1*
X1056241D2*
X1072741D1*
X1104542D2*
X1119705D1*
X1127251D2*
X1143595D1*
X1201741D2*
X1213741D1*
X1272241D2*
X1284241D1*
X1315741D2*
X1330741D1*
X1366741D2*
X1380241D1*
X1450741D2*
X1467241D1*
X1489016D2*
X1504735D1*
X1539241D2*
X1552741D1*
X1680792D2*
X1697032D1*
X1721684D2*
X1738191D1*
X1751292D2*
X1767532D1*
X1792184D2*
X1808691D1*
X850741Y1909515D2*
X867241D1*
X913741D2*
X930241D1*
X967741D2*
X984241D1*
X1020241D2*
X1036741D1*
X1056241D2*
X1072741D1*
X1103888D2*
X1119242D1*
X1127752D2*
X1144182D1*
X1173241D2*
X1188241D1*
X1198338D2*
X1217139D1*
X1243741D2*
X1258741D1*
X1268838D2*
X1287639D1*
X1315741D2*
X1330741D1*
X1362932D2*
X1383871D1*
X1450741D2*
X1467241D1*
X1488403D2*
X1504683D1*
X1535432D2*
X1556371D1*
X1578241D2*
X1594741D1*
X1620241D2*
X1636741D1*
X1680503D2*
X1696808D1*
X1721984D2*
X1738480D1*
X1751003D2*
X1767308D1*
X1792484D2*
X1808980D1*
X850741Y1908015D2*
X867241D1*
X913741D2*
X930241D1*
X967741D2*
X984241D1*
X1020241D2*
X1036741D1*
X1056241D2*
X1072741D1*
X1103301D2*
X1118734D1*
X1128231D2*
X1144708D1*
X1173241D2*
X1188303D1*
X1195473D2*
X1219947D1*
X1243741D2*
X1258803D1*
X1265973D2*
X1290447D1*
X1315741D2*
X1330741D1*
X1359768D2*
X1387051D1*
X1450741D2*
X1467241D1*
X1487608D2*
X1504486D1*
X1532268D2*
X1559551D1*
X1578760D2*
X1595491D1*
X1619723D2*
X1636504D1*
X1680353D2*
X1696540D1*
X1722188D2*
X1738630D1*
X1750853D2*
X1767040D1*
X1792688D2*
X1809130D1*
X850741Y1906515D2*
X867241D1*
X913741D2*
X930241D1*
X967741D2*
X984241D1*
X1020241D2*
X1036741D1*
X1056241D2*
X1072741D1*
X1102775D2*
X1118232D1*
X1128745D2*
X1145287D1*
X1173241D2*
X1188536D1*
X1193019D2*
X1222162D1*
X1243741D2*
X1259036D1*
X1263519D2*
X1292662D1*
X1315741D2*
X1330741D1*
X1357226D2*
X1389660D1*
X1450741D2*
X1467241D1*
X1485904D2*
X1504074D1*
X1529726D2*
X1562160D1*
X1579259D2*
X1596114D1*
X1619224D2*
X1636079D1*
X1680286D2*
X1696150D1*
X1722447D2*
X1738697D1*
X1750786D2*
X1766650D1*
X1792947D2*
X1809197D1*
X850741Y1905015D2*
X898741D1*
X913741D2*
X930241D1*
X967741D2*
X984241D1*
X1020241D2*
X1036741D1*
X1056241D2*
X1072741D1*
X1102196D2*
X1117752D1*
X1129250D2*
X1145937D1*
X1173241D2*
X1189049D1*
X1190650D2*
X1223949D1*
X1243741D2*
X1259549D1*
X1261150D2*
X1294449D1*
X1315741D2*
X1330741D1*
X1355173D2*
X1391757D1*
X1450741D2*
X1467241D1*
X1481070D2*
X1503492D1*
X1527673D2*
X1564257D1*
X1579741D2*
X1596697D1*
X1618748D2*
X1635500D1*
X1680258D2*
X1695754D1*
X1722834D2*
X1738725D1*
X1750758D2*
X1766254D1*
X1793334D2*
X1809225D1*
X850741Y1903515D2*
X898741D1*
X913741D2*
X930241D1*
X967741D2*
X984241D1*
X1020241D2*
X1036741D1*
X1056241D2*
X1072741D1*
X1101546D2*
X1117238D1*
X1129730D2*
X1146594D1*
X1173241D2*
X1225397D1*
X1243741D2*
X1295897D1*
X1315741D2*
X1330741D1*
X1353422D2*
X1393488D1*
X1450741D2*
X1467241D1*
X1473518D2*
X1502813D1*
X1525922D2*
X1565988D1*
X1580300D2*
X1597232D1*
X1618236D2*
X1634872D1*
X1680247D2*
X1695488D1*
X1723229D2*
X1738736D1*
X1750747D2*
X1765988D1*
X1793729D2*
X1809236D1*
X850741Y1902015D2*
X898741D1*
X913741D2*
X930241D1*
X967741D2*
X984241D1*
X1020241D2*
X1036741D1*
X1056241D2*
X1072741D1*
X1100889D2*
X1116733D1*
X1130245D2*
X1147182D1*
X1173241D2*
X1226542D1*
X1243741D2*
X1297042D1*
X1315741D2*
X1330741D1*
X1351867D2*
X1394911D1*
X1450741D2*
X1502039D1*
X1524367D2*
X1567411D1*
X1580942D2*
X1597723D1*
X1617733D2*
X1634295D1*
X1680243D2*
X1695348D1*
X1723495D2*
X1738739D1*
X1750743D2*
X1765848D1*
X1793995D2*
X1809239D1*
X850741Y1900515D2*
X898741D1*
X913741D2*
X930241D1*
X967741D2*
X984241D1*
X1020241D2*
X1036741D1*
X1056241D2*
X1072741D1*
X1100301D2*
X1116253D1*
X1130750D2*
X1147702D1*
X1173241D2*
X1227481D1*
X1243741D2*
X1297981D1*
X1315741D2*
X1330741D1*
X1350521D2*
X1396047D1*
X1450741D2*
X1501099D1*
X1523021D2*
X1568547D1*
X1581595D2*
X1598243D1*
X1617253D2*
X1633773D1*
X1680242D2*
X1695284D1*
X1723635D2*
X1738741D1*
X1750742D2*
X1765784D1*
X1794135D2*
X1809241D1*
X850741Y1899015D2*
X898741D1*
X913741D2*
X930241D1*
X967741D2*
X984241D1*
X1020241D2*
X1036741D1*
X1056241D2*
X1072741D1*
X1099781D2*
X1115738D1*
X1131230D2*
X1148234D1*
X1173241D2*
X1197362D1*
X1205646D2*
X1228309D1*
X1243741D2*
X1267862D1*
X1276146D2*
X1298809D1*
X1315741D2*
X1330741D1*
X1349417D2*
X1368536D1*
X1378390D2*
X1396983D1*
X1450741D2*
X1499882D1*
X1521917D2*
X1541036D1*
X1550890D2*
X1569483D1*
X1582182D2*
X1598749D1*
X1616738D2*
X1633195D1*
X1680242D2*
X1695257D1*
X1723699D2*
X1738741D1*
X1750742D2*
X1765757D1*
X1794199D2*
X1809241D1*
X850741Y1897515D2*
X898741D1*
X913741D2*
X930241D1*
X967741D2*
X984241D1*
X1020241D2*
X1036741D1*
X1056241D2*
X1072741D1*
X1099249D2*
X1115233D1*
X1131745D2*
X1148746D1*
X1173241D2*
X1194805D1*
X1208848D2*
X1229038D1*
X1243741D2*
X1265305D1*
X1279348D2*
X1299538D1*
X1315741D2*
X1330741D1*
X1348494D2*
X1366165D1*
X1380569D2*
X1397810D1*
X1450741D2*
X1498303D1*
X1520994D2*
X1538665D1*
X1553069D2*
X1570310D1*
X1582708D2*
X1599230D1*
X1616233D2*
X1632546D1*
X1680242D2*
X1695247D1*
X1723726D2*
X1738741D1*
X1750742D2*
X1765747D1*
X1794226D2*
X1809241D1*
X850741Y1896015D2*
X898741D1*
X913741D2*
X930241D1*
X967741D2*
X984241D1*
X1020241D2*
X1036741D1*
X1056241D2*
X1072741D1*
X1098737D2*
X1114753D1*
X1132250D2*
X1149235D1*
X1173241D2*
X1192779D1*
X1211155D2*
X1229611D1*
X1243741D2*
X1263279D1*
X1281655D2*
X1300111D1*
X1315741D2*
X1330741D1*
X1347671D2*
X1364221D1*
X1382159D2*
X1398538D1*
X1450741D2*
X1496281D1*
X1520171D2*
X1536721D1*
X1554659D2*
X1571038D1*
X1583287D2*
X1599745D1*
X1615753D2*
X1631889D1*
X1680241D2*
X1695243D1*
X1723736D2*
X1738741D1*
X1750741D2*
X1765743D1*
X1794236D2*
X1809241D1*
X850741Y1894515D2*
X898741D1*
X913741D2*
X930241D1*
X967741D2*
X984241D1*
X1020241D2*
X1036741D1*
X1056241D2*
X1072741D1*
X1098248D2*
X1114238D1*
X1132730D2*
X1149797D1*
X1173241D2*
X1191216D1*
X1212731D2*
X1230005D1*
X1243741D2*
X1261716D1*
X1283231D2*
X1300505D1*
X1315741D2*
X1330741D1*
X1346944D2*
X1362721D1*
X1383321D2*
X1399111D1*
X1450741D2*
X1493941D1*
X1519444D2*
X1535221D1*
X1555821D2*
X1571611D1*
X1583937D2*
X1600250D1*
X1615238D2*
X1631301D1*
X1680241D2*
X1695242D1*
X1723734D2*
X1738741D1*
X1750741D2*
X1765742D1*
X1794234D2*
X1809241D1*
X850741Y1893015D2*
X898741D1*
X913741D2*
X930241D1*
X967741D2*
X984241D1*
X1020241D2*
X1036741D1*
X1056241D2*
X1072741D1*
X1097686D2*
X1113733D1*
X1133245D2*
X1150441D1*
X1173241D2*
X1189983D1*
X1213860D2*
X1230367D1*
X1243741D2*
X1260483D1*
X1284360D2*
X1300867D1*
X1315741D2*
X1330741D1*
X1346372D2*
X1361666D1*
X1384247D2*
X1399505D1*
X1450741D2*
X1491750D1*
X1518872D2*
X1534166D1*
X1556747D2*
X1572005D1*
X1584594D2*
X1600730D1*
X1614733D2*
X1630775D1*
X1680241D2*
X1695242D1*
X1723682D2*
X1738741D1*
X1750741D2*
X1765742D1*
X1794182D2*
X1809241D1*
X850741Y1891515D2*
X898741D1*
X913741D2*
X930241D1*
X967741D2*
X984241D1*
X1020241D2*
X1036741D1*
X1056241D2*
X1072741D1*
X1097042D2*
X1113253D1*
X1133755D2*
X1151095D1*
X1173241D2*
X1189125D1*
X1214764D2*
X1230802D1*
X1243741D2*
X1259625D1*
X1285264D2*
X1301302D1*
X1315741D2*
X1330741D1*
X1345978D2*
X1360869D1*
X1385015D2*
X1399867D1*
X1450741D2*
X1467241D1*
X1470530D2*
X1489947D1*
X1518478D2*
X1533369D1*
X1557515D2*
X1572367D1*
X1585182D2*
X1601239D1*
X1614253D2*
X1630196D1*
X1680241D2*
X1695247D1*
X1723492D2*
X1738741D1*
X1750741D2*
X1765747D1*
X1793992D2*
X1809241D1*
X850741Y1890015D2*
X867241D1*
X913741D2*
X930241D1*
X967741D2*
X984241D1*
X1020241D2*
X1036741D1*
X1056241D2*
X1072741D1*
X1096388D2*
X1112744D1*
X1134294D2*
X1151682D1*
X1173241D2*
X1188635D1*
X1215522D2*
X1231217D1*
X1243741D2*
X1259135D1*
X1286022D2*
X1301717D1*
X1315741D2*
X1330741D1*
X1345616D2*
X1360004D1*
X1385601D2*
X1400302D1*
X1450741D2*
X1467241D1*
X1471100D2*
X1489457D1*
X1518116D2*
X1532504D1*
X1558101D2*
X1572802D1*
X1585708D2*
X1601697D1*
X1613738D2*
X1629540D1*
X1680241D2*
X1695300D1*
X1723132D2*
X1738741D1*
X1750741D2*
X1765800D1*
X1793632D2*
X1809241D1*
X850741Y1888515D2*
X867241D1*
X913741D2*
X930241D1*
X967741D2*
X984241D1*
X1020241D2*
X1036741D1*
X1056241D2*
X1072741D1*
X1095801D2*
X1112288D1*
X1135048D2*
X1152208D1*
X1173241D2*
X1188348D1*
X1216099D2*
X1231490D1*
X1243741D2*
X1258848D1*
X1286599D2*
X1301990D1*
X1315741D2*
X1330741D1*
X1345181D2*
X1358930D1*
X1385973D2*
X1400717D1*
X1450741D2*
X1467241D1*
X1471901D2*
X1489812D1*
X1517681D2*
X1531430D1*
X1558473D2*
X1573217D1*
X1586287D2*
X1602039D1*
X1613233D2*
X1628836D1*
X1680241D2*
X1695491D1*
X1722748D2*
X1738741D1*
X1750741D2*
X1765991D1*
X1793248D2*
X1809241D1*
X850741Y1887015D2*
X867241D1*
X913741D2*
X930247D1*
X967736D2*
X984241D1*
X1020241D2*
X1036741D1*
X1056241D2*
X1072741D1*
X1095281D2*
X1111975D1*
X1136077D2*
X1152787D1*
X1173241D2*
X1188055D1*
X1216444D2*
X1231634D1*
X1243741D2*
X1258555D1*
X1286944D2*
X1302134D1*
X1315741D2*
X1330741D1*
X1344766D2*
X1400990D1*
X1450741D2*
X1467241D1*
X1472745D2*
X1490474D1*
X1517266D2*
X1573490D1*
X1586937D2*
X1602380D1*
X1612753D2*
X1628110D1*
X1680241D2*
X1695850D1*
X1722486D2*
X1738736D1*
X1750741D2*
X1766350D1*
X1792986D2*
X1809236D1*
X850741Y1885515D2*
X867241D1*
X913741D2*
X930300D1*
X967683D2*
X984241D1*
X1020241D2*
X1036741D1*
X1056241D2*
X1072741D1*
X1094749D2*
X1153437D1*
X1173241D2*
X1187662D1*
X1216617D2*
X1231699D1*
X1243741D2*
X1258162D1*
X1287117D2*
X1302199D1*
X1315741D2*
X1330741D1*
X1344493D2*
X1401134D1*
X1450741D2*
X1467241D1*
X1473558D2*
X1491340D1*
X1516993D2*
X1573634D1*
X1587594D2*
X1602812D1*
X1612238D2*
X1627416D1*
X1680247D2*
X1696235D1*
X1722341D2*
X1738683D1*
X1750747D2*
X1766735D1*
X1792841D2*
X1809183D1*
X850741Y1884015D2*
X867241D1*
X913747D2*
X930491D1*
X967492D2*
X984241D1*
X1020241D2*
X1036741D1*
X1056241D2*
X1072741D1*
X1094237D2*
X1154094D1*
X1173241D2*
X1187315D1*
X1216693D2*
X1231725D1*
X1243741D2*
X1257815D1*
X1287193D2*
X1302225D1*
X1315741D2*
X1330741D1*
X1344349D2*
X1401199D1*
X1450741D2*
X1467241D1*
X1474343D2*
X1492220D1*
X1516849D2*
X1573699D1*
X1588182D2*
X1603277D1*
X1611733D2*
X1626811D1*
X1680300D2*
X1696503D1*
X1722225D2*
X1738492D1*
X1750800D2*
X1767003D1*
X1792725D2*
X1808992D1*
X850741Y1882515D2*
X867241D1*
X913800D2*
X930856D1*
X967127D2*
X984236D1*
X1020241D2*
X1036741D1*
X1056241D2*
X1072741D1*
X1093748D2*
X1154682D1*
X1173241D2*
X1187239D1*
X1216718D2*
X1231736D1*
X1243741D2*
X1257739D1*
X1287218D2*
X1302236D1*
X1315741D2*
X1330741D1*
X1344284D2*
X1401226D1*
X1450741D2*
X1467241D1*
X1475106D2*
X1493054D1*
X1516784D2*
X1573726D1*
X1588708D2*
X1603741D1*
X1611253D2*
X1626279D1*
X1680491D2*
X1696694D1*
X1722007D2*
X1738132D1*
X1750991D2*
X1767194D1*
X1792507D2*
X1808632D1*
X850741Y1881015D2*
X867241D1*
X913991D2*
X931294D1*
X966689D2*
X984183D1*
X1020241D2*
X1036741D1*
X1056241D2*
X1072741D1*
X1093186D2*
X1155202D1*
X1173241D2*
X1187457D1*
X1216676D2*
X1231740D1*
X1243741D2*
X1257957D1*
X1287176D2*
X1302240D1*
X1315741D2*
X1330741D1*
X1344263D2*
X1401236D1*
X1450741D2*
X1467241D1*
X1475864D2*
X1493892D1*
X1516763D2*
X1573736D1*
X1589287D2*
X1604249D1*
X1610744D2*
X1625697D1*
X1680850D2*
X1696955D1*
X1721632D2*
X1737742D1*
X1751350D2*
X1767455D1*
X1792132D2*
X1808242D1*
X850741Y1879515D2*
X867241D1*
X914350D2*
X931752D1*
X966231D2*
X983992D1*
X1020241D2*
X1036741D1*
X1056241D2*
X1072741D1*
X1092542D2*
X1155734D1*
X1173241D2*
X1187783D1*
X1216484D2*
X1231735D1*
X1243741D2*
X1258283D1*
X1286984D2*
X1302235D1*
X1315741D2*
X1330741D1*
X1344306D2*
X1401241D1*
X1450741D2*
X1467241D1*
X1476621D2*
X1494802D1*
X1516806D2*
X1573741D1*
X1589937D2*
X1604751D1*
X1610292D2*
X1625046D1*
X1681241D2*
X1697393D1*
X1721191D2*
X1737428D1*
X1751741D2*
X1767893D1*
X1791691D2*
X1807928D1*
X850741Y1878015D2*
X867241D1*
X914741D2*
X932309D1*
X965674D2*
X983632D1*
X1020236D2*
X1036741D1*
X1056241D2*
X1072741D1*
X1091888D2*
X1156246D1*
X1173241D2*
X1188071D1*
X1216073D2*
X1231683D1*
X1243741D2*
X1258571D1*
X1286573D2*
X1302183D1*
X1315741D2*
X1330741D1*
X1344493D2*
X1359473D1*
X1450741D2*
X1467241D1*
X1477419D2*
X1495775D1*
X1516993D2*
X1531973D1*
X1590594D2*
X1605236D1*
X1609997D2*
X1624389D1*
X1681555D2*
X1697985D1*
X1720731D2*
X1737097D1*
X1752055D2*
X1768485D1*
X1791231D2*
X1807597D1*
X850741Y1876515D2*
X867241D1*
X915055D2*
X933013D1*
X964970D2*
X983242D1*
X1020183D2*
X1036741D1*
X1056241D2*
X1072741D1*
X1091301D2*
X1156735D1*
X1173241D2*
X1188397D1*
X1215492D2*
X1231492D1*
X1243741D2*
X1258897D1*
X1285992D2*
X1301992D1*
X1315741D2*
X1330741D1*
X1344851D2*
X1359851D1*
X1450741D2*
X1467241D1*
X1478313D2*
X1496696D1*
X1517351D2*
X1532351D1*
X1591182D2*
X1605802D1*
X1609790D2*
X1623801D1*
X1681891D2*
X1698668D1*
X1720174D2*
X1736669D1*
X1752391D2*
X1769168D1*
X1790674D2*
X1807169D1*
X850741Y1875015D2*
X867241D1*
X915386D2*
X933969D1*
X964014D2*
X982928D1*
X1019986D2*
X1036736D1*
X1056241D2*
X1072741D1*
X1090775D2*
X1157297D1*
X1173241D2*
X1188875D1*
X1214813D2*
X1231127D1*
X1243741D2*
X1259375D1*
X1285313D2*
X1301627D1*
X1315741D2*
X1330741D1*
X1345241D2*
X1360298D1*
X1450741D2*
X1467241D1*
X1479279D2*
X1497546D1*
X1517741D2*
X1532798D1*
X1591708D2*
X1606490D1*
X1609491D2*
X1623275D1*
X1682367D2*
X1699449D1*
X1719470D2*
X1736205D1*
X1752867D2*
X1769949D1*
X1789970D2*
X1806705D1*
X850741Y1873515D2*
X867241D1*
X915814D2*
X935408D1*
X962575D2*
X982592D1*
X1002241D2*
X1006741D1*
X1019545D2*
X1036683D1*
X1056241D2*
X1072741D1*
X1090196D2*
X1157941D1*
X1173241D2*
X1189546D1*
X1214033D2*
X1230689D1*
X1243741D2*
X1260046D1*
X1284533D2*
X1301189D1*
X1315741D2*
X1330741D1*
X1345555D2*
X1360810D1*
X1450741D2*
X1467241D1*
X1480197D2*
X1498389D1*
X1518055D2*
X1533310D1*
X1592287D2*
X1607316D1*
X1608949D2*
X1622696D1*
X1682975D2*
X1700466D1*
X1718491D2*
X1735736D1*
X1753475D2*
X1770966D1*
X1788991D2*
X1806236D1*
X850741Y1872015D2*
X867241D1*
X916278D2*
X937797D1*
X960186D2*
X982116D1*
X999517D2*
X1007975D1*
X1018911D2*
X1036492D1*
X1056241D2*
X1072741D1*
X1089546D2*
X1105684D1*
X1140473D2*
X1158595D1*
X1173241D2*
X1190369D1*
X1213005D2*
X1230237D1*
X1243741D2*
X1260869D1*
X1283505D2*
X1300737D1*
X1315741D2*
X1330741D1*
X1345891D2*
X1361565D1*
X1386241D2*
X1387741D1*
X1450741D2*
X1467241D1*
X1481041D2*
X1499301D1*
X1518391D2*
X1534065D1*
X1558741D2*
X1560241D1*
X1592943D2*
X1622046D1*
X1683659D2*
X1701770D1*
X1717207D2*
X1735181D1*
X1754159D2*
X1772270D1*
X1787707D2*
X1805681D1*
X850741Y1870515D2*
X867241D1*
X916747D2*
X942065D1*
X955918D2*
X981508D1*
X997044D2*
X1009523D1*
X1017362D2*
X1036127D1*
X1056241D2*
X1072741D1*
X1088889D2*
X1105492D1*
X1140851D2*
X1159182D1*
X1173241D2*
X1192030D1*
X1211666D2*
X1229732D1*
X1243741D2*
X1262530D1*
X1282166D2*
X1300232D1*
X1315741D2*
X1330741D1*
X1346373D2*
X1362716D1*
X1384643D2*
X1390037D1*
X1450741D2*
X1467241D1*
X1481837D2*
X1500275D1*
X1518873D2*
X1535216D1*
X1557143D2*
X1562537D1*
X1593647D2*
X1621389D1*
X1684383D2*
X1704879D1*
X1714101D2*
X1734535D1*
X1754883D2*
X1775379D1*
X1784601D2*
X1805035D1*
X850741Y1869015D2*
X867241D1*
X917307D2*
X948878D1*
X949105D2*
X980818D1*
X994741D2*
X1013092D1*
X1013849D2*
X1035689D1*
X1056241D2*
X1072741D1*
X1088301D2*
X1105127D1*
X1141292D2*
X1159708D1*
X1173241D2*
X1196343D1*
X1208034D2*
X1229225D1*
X1243741D2*
X1266843D1*
X1278534D2*
X1299725D1*
X1315741D2*
X1330741D1*
X1347028D2*
X1364194D1*
X1382550D2*
X1392483D1*
X1450741D2*
X1467241D1*
X1482610D2*
X1501196D1*
X1519528D2*
X1536694D1*
X1555050D2*
X1564983D1*
X1594373D2*
X1620801D1*
X1685127D2*
X1709373D1*
X1709609D2*
X1733829D1*
X1755627D2*
X1779873D1*
X1780109D2*
X1804329D1*
X850741Y1867515D2*
X867241D1*
X918007D2*
X980041D1*
X995491D2*
X1035231D1*
X1056241D2*
X1072741D1*
X1087781D2*
X1104689D1*
X1141746D2*
X1160287D1*
X1173241D2*
X1202855D1*
X1202499D2*
X1228694D1*
X1243741D2*
X1273355D1*
X1272999D2*
X1299194D1*
X1315741D2*
X1330741D1*
X1347856D2*
X1367889D1*
X1379055D2*
X1394707D1*
X1450741D2*
X1467241D1*
X1483416D2*
X1502046D1*
X1520356D2*
X1540389D1*
X1551555D2*
X1567207D1*
X1595067D2*
X1620275D1*
X1685928D2*
X1733045D1*
X1756428D2*
X1803545D1*
X850741Y1866015D2*
X867241D1*
X918904D2*
X979106D1*
X996120D2*
X1034680D1*
X1056241D2*
X1072741D1*
X1087249D2*
X1104237D1*
X1142251D2*
X1160937D1*
X1173241D2*
X1227988D1*
X1243741D2*
X1298488D1*
X1315741D2*
X1330741D1*
X1348801D2*
X1373460D1*
X1373519D2*
X1396510D1*
X1450741D2*
X1467241D1*
X1484311D2*
X1502889D1*
X1521301D2*
X1545960D1*
X1546019D2*
X1569010D1*
X1595672D2*
X1619696D1*
X1686872D2*
X1732107D1*
X1757372D2*
X1802607D1*
X850741Y1864515D2*
X867241D1*
X920053D2*
X977946D1*
X996756D2*
X1034034D1*
X1056241D2*
X1072741D1*
X1086737D2*
X1103732D1*
X1142752D2*
X1161594D1*
X1173241D2*
X1227118D1*
X1243741D2*
X1297618D1*
X1315741D2*
X1330741D1*
X1349762D2*
X1397228D1*
X1450741D2*
X1467241D1*
X1485279D2*
X1503801D1*
X1522262D2*
X1569728D1*
X1596204D2*
X1619046D1*
X1688035D2*
X1730947D1*
X1758535D2*
X1801447D1*
X850741Y1863015D2*
X867241D1*
X921428D2*
X976611D1*
X997487D2*
X1033329D1*
X1056241D2*
X1072741D1*
X1086248D2*
X1103231D1*
X1143237D2*
X1162182D1*
X1173241D2*
X1226189D1*
X1243741D2*
X1296689D1*
X1315741D2*
X1330741D1*
X1350804D2*
X1396217D1*
X1450741D2*
X1467241D1*
X1486197D2*
X1504781D1*
X1523304D2*
X1568717D1*
X1596786D2*
X1618389D1*
X1689365D2*
X1729617D1*
X1759865D2*
X1800117D1*
X850741Y1861515D2*
X867241D1*
X923053D2*
X975123D1*
X998403D2*
X1032539D1*
X1056241D2*
X1072741D1*
X1085686D2*
X1102752D1*
X1143798D2*
X1162708D1*
X1173241D2*
X1225116D1*
X1243741D2*
X1295616D1*
X1315741D2*
X1330741D1*
X1352069D2*
X1394947D1*
X1450741D2*
X1467241D1*
X1487041D2*
X1505749D1*
X1524569D2*
X1567447D1*
X1597436D2*
X1617801D1*
X1690796D2*
X1728187D1*
X1761296D2*
X1798687D1*
X850741Y1860015D2*
X867241D1*
X925004D2*
X973339D1*
X999609D2*
X1031537D1*
X1056241D2*
X1072741D1*
X1085041D2*
X1102244D1*
X1144442D2*
X1163292D1*
X1173241D2*
X1188241D1*
X1191310D2*
X1223713D1*
X1243741D2*
X1258741D1*
X1261810D2*
X1294213D1*
X1315741D2*
X1330741D1*
X1353674D2*
X1393329D1*
X1450741D2*
X1467241D1*
X1487832D2*
X1506733D1*
X1526174D2*
X1565829D1*
X1598088D2*
X1617280D1*
X1692330D2*
X1726653D1*
X1762830D2*
X1797153D1*
X850741Y1858515D2*
X867241D1*
X927432D2*
X970935D1*
X1001182D2*
X1030070D1*
X1056241D2*
X1072741D1*
X1084379D2*
X1101788D1*
X1145104D2*
X1163986D1*
X1173241D2*
X1188241D1*
X1193118D2*
X1221893D1*
X1243741D2*
X1258741D1*
X1263618D2*
X1292393D1*
X1315741D2*
X1330741D1*
X1355772D2*
X1391221D1*
X1450741D2*
X1467241D1*
X1488561D2*
X1507708D1*
X1528272D2*
X1563721D1*
X1598627D2*
X1616741D1*
X1694125D2*
X1724858D1*
X1764625D2*
X1795358D1*
X850741Y1857015D2*
X867241D1*
X930630D2*
X967612D1*
X1003209D2*
X1027905D1*
X1056241D2*
X1072741D1*
X1083775D2*
X1101475D1*
X1145708D2*
X1164814D1*
X1173241D2*
X1188241D1*
X1195454D2*
X1219610D1*
X1243741D2*
X1258741D1*
X1265954D2*
X1290110D1*
X1315741D2*
X1330741D1*
X1358468D2*
X1388519D1*
X1450741D2*
X1467241D1*
X1489193D2*
X1508537D1*
X1530968D2*
X1561019D1*
X1598982D2*
X1616217D1*
X1696456D2*
X1722527D1*
X1766956D2*
X1793027D1*
X850741Y1855515D2*
X867241D1*
X934707D2*
X963398D1*
X1005636D2*
X1025012D1*
X1056241D2*
X1072741D1*
X1083241D2*
X1101241D1*
X1146241D2*
X1165741D1*
X1173241D2*
X1188241D1*
X1198426D2*
X1216829D1*
X1243741D2*
X1258741D1*
X1268926D2*
X1287329D1*
X1315741D2*
X1330741D1*
X1361713D2*
X1385271D1*
X1450741D2*
X1467241D1*
X1489741D2*
X1509241D1*
X1534213D2*
X1557771D1*
X1599241D2*
X1615741D1*
X1699427D2*
X1719556D1*
X1769927D2*
X1790056D1*
X939241Y1854015D2*
X958741D1*
X1008241D2*
X1021741D1*
X1173241D2*
X1188241D1*
X1201741D2*
X1213741D1*
X1243741D2*
X1258741D1*
X1272241D2*
X1284241D1*
X1365241D2*
X1381741D1*
X1537741D2*
X1554241D1*
X1702741D2*
X1716241D1*
X1773241D2*
X1786741D1*
X1173241Y1852515D2*
X1188241D1*
X1243741D2*
X1258741D1*
X1173241Y1851015D2*
X1188241D1*
X1243741D2*
X1258741D1*
X1173241Y1849515D2*
X1188241D1*
X1243741D2*
X1258741D1*
X1173241Y1848015D2*
X1188241D1*
X1243741D2*
X1258741D1*
X1173241Y1846515D2*
X1188241D1*
X1243741D2*
X1258741D1*
X1173241Y1845015D2*
X1188241D1*
X1243741D2*
X1258741D1*
X1173241Y1843515D2*
X1188241D1*
X1243741D2*
X1258741D1*
X1173241Y1842015D2*
X1188241D1*
X1243741D2*
X1258741D1*
X1173241Y1840515D2*
X1188241D1*
X1243741D2*
X1258741D1*
X1173241Y1839015D2*
X1188241D1*
X1243741D2*
X1258741D1*
X1173241Y1837515D2*
X1188241D1*
X1243741D2*
X1258741D1*
X1173241Y1836015D2*
X1188241D1*
X1243741D2*
X1258741D1*
X1173241Y1834515D2*
X1188241D1*
X1243741D2*
X1258741D1*
X1173241Y1833015D2*
X1188241D1*
X1243741D2*
X1258741D1*
X1173241Y1831515D2*
X1188241D1*
X1243741D2*
X1258741D1*
X1173241Y1830015D2*
X1188241D1*
X1243741D2*
X1258741D1*
X1236113Y884290D2*
X1245113D1*
X1449113D2*
X1470113D1*
X1663613D2*
X1716113D1*
X1738613D2*
X1791113D1*
X1236113Y882790D2*
X1245113D1*
X1449113D2*
X1470113D1*
X1663613D2*
X1716113D1*
X1738613D2*
X1791113D1*
X1236107Y881290D2*
X1245113D1*
X1449113D2*
X1470113D1*
X1663613D2*
X1716113D1*
X1738613D2*
X1791113D1*
X1236013Y879790D2*
X1245113D1*
X1449113D2*
X1470113D1*
X1663613D2*
X1716113D1*
X1738613D2*
X1791113D1*
X1235767Y878290D2*
X1245113D1*
X1449113D2*
X1470113D1*
X1663613D2*
X1716113D1*
X1738613D2*
X1791113D1*
X1234137Y876790D2*
X1245113D1*
X1449113D2*
X1470113D1*
X1663613D2*
X1716113D1*
X1738613D2*
X1791113D1*
X1229568Y875290D2*
X1245113D1*
X1449113D2*
X1470113D1*
X1663613D2*
X1716113D1*
X1738613D2*
X1791113D1*
X1224113Y873790D2*
X1234613D1*
X1246613D2*
X1255613D1*
X1454473D2*
X1470113D1*
X1696613D2*
X1716113D1*
X1738613D2*
X1759613D1*
X1224113Y872290D2*
X1234613D1*
X1246613D2*
X1255613D1*
X1458563D2*
X1470113D1*
X1696613D2*
X1716113D1*
X1738613D2*
X1759613D1*
X1224113Y870790D2*
X1234613D1*
X1246613D2*
X1255613D1*
X1460139D2*
X1470113D1*
X1696613D2*
X1716113D1*
X1738613D2*
X1759613D1*
X1224113Y869290D2*
X1234613D1*
X1246613D2*
X1255613D1*
X1460667D2*
X1470113D1*
X1696613D2*
X1716113D1*
X1738613D2*
X1759613D1*
X1224113Y867790D2*
X1234613D1*
X1246613D2*
X1255613D1*
X1460934D2*
X1470113D1*
X1696613D2*
X1716113D1*
X1738613D2*
X1759613D1*
X1224113Y866290D2*
X1234613D1*
X1246613D2*
X1255613D1*
X1461046D2*
X1470113D1*
X1696613D2*
X1716113D1*
X1738613D2*
X1759613D1*
X1224113Y864790D2*
X1234613D1*
X1246613D2*
X1255613D1*
X1461089D2*
X1470113D1*
X1696613D2*
X1716113D1*
X1738613D2*
X1759613D1*
X1213613Y863290D2*
X1224113D1*
X1257113D2*
X1266113D1*
X1288613D2*
X1330613D1*
X1363613D2*
X1405613D1*
X1461105D2*
X1470113D1*
X1524113D2*
X1555613D1*
X1696613D2*
X1716113D1*
X1738613D2*
X1759613D1*
X1213613Y861790D2*
X1224113D1*
X1257113D2*
X1266113D1*
X1288613D2*
X1330613D1*
X1363613D2*
X1405613D1*
X1461110D2*
X1470113D1*
X1524113D2*
X1555613D1*
X1696613D2*
X1716113D1*
X1738613D2*
X1759613D1*
X1213613Y860290D2*
X1224113D1*
X1257113D2*
X1266113D1*
X1288613D2*
X1330613D1*
X1363613D2*
X1405613D1*
X1461112D2*
X1470113D1*
X1524113D2*
X1555613D1*
X1696613D2*
X1716113D1*
X1738613D2*
X1759613D1*
X1213613Y858790D2*
X1224113D1*
X1257113D2*
X1266113D1*
X1288613D2*
X1330613D1*
X1363613D2*
X1405613D1*
X1461113D2*
X1470113D1*
X1524113D2*
X1555613D1*
X1696613D2*
X1716113D1*
X1738613D2*
X1759613D1*
X1213613Y857290D2*
X1224113D1*
X1257113D2*
X1266113D1*
X1288613D2*
X1330613D1*
X1363613D2*
X1405613D1*
X1461113D2*
X1470113D1*
X1524113D2*
X1555613D1*
X1696613D2*
X1716113D1*
X1738613D2*
X1759613D1*
X1213613Y855790D2*
X1224113D1*
X1257113D2*
X1266113D1*
X1288613D2*
X1330613D1*
X1363613D2*
X1405613D1*
X1461113D2*
X1470113D1*
X1524113D2*
X1555613D1*
X1696613D2*
X1716113D1*
X1738613D2*
X1759613D1*
X1213613Y854290D2*
X1224113D1*
X1257113D2*
X1266113D1*
X1288613D2*
X1330613D1*
X1363613D2*
X1405613D1*
X1461113D2*
X1470113D1*
X1524113D2*
X1555613D1*
X1696613D2*
X1716113D1*
X1738613D2*
X1759613D1*
X1213613Y852790D2*
X1224113D1*
X1257113D2*
X1266113D1*
X1288613D2*
X1299113D1*
X1332113D2*
X1341113D1*
X1363613D2*
X1374113D1*
X1407113D2*
X1416113D1*
X1461113D2*
X1470113D1*
X1513613D2*
X1524113D1*
X1557113D2*
X1566113D1*
X1696613D2*
X1716113D1*
X1738613D2*
X1759613D1*
X1213613Y851290D2*
X1224113D1*
X1257113D2*
X1266113D1*
X1288613D2*
X1299113D1*
X1332113D2*
X1341113D1*
X1363613D2*
X1374113D1*
X1407113D2*
X1416113D1*
X1461113D2*
X1470113D1*
X1513613D2*
X1524113D1*
X1557113D2*
X1566113D1*
X1696613D2*
X1716113D1*
X1738613D2*
X1759613D1*
X1213613Y849790D2*
X1224113D1*
X1257113D2*
X1266113D1*
X1288613D2*
X1299113D1*
X1332113D2*
X1341113D1*
X1363613D2*
X1374113D1*
X1407113D2*
X1416113D1*
X1461113D2*
X1470113D1*
X1513613D2*
X1524113D1*
X1557113D2*
X1566113D1*
X1696613D2*
X1716113D1*
X1738613D2*
X1759613D1*
X1213613Y848290D2*
X1224113D1*
X1257113D2*
X1266113D1*
X1288613D2*
X1299113D1*
X1332113D2*
X1341113D1*
X1363613D2*
X1374113D1*
X1407113D2*
X1416113D1*
X1461113D2*
X1470113D1*
X1513613D2*
X1524113D1*
X1557113D2*
X1566113D1*
X1696613D2*
X1716113D1*
X1738613D2*
X1759613D1*
X1213613Y846790D2*
X1224113D1*
X1257113D2*
X1266113D1*
X1288613D2*
X1299113D1*
X1332113D2*
X1341113D1*
X1363613D2*
X1374113D1*
X1407113D2*
X1416113D1*
X1461113D2*
X1470113D1*
X1513613D2*
X1524113D1*
X1557113D2*
X1566113D1*
X1696613D2*
X1716113D1*
X1738613D2*
X1759613D1*
X1213613Y845290D2*
X1224113D1*
X1257113D2*
X1266113D1*
X1288613D2*
X1299113D1*
X1332113D2*
X1341113D1*
X1363613D2*
X1374113D1*
X1407113D2*
X1416113D1*
X1461113D2*
X1470113D1*
X1513613D2*
X1524113D1*
X1557113D2*
X1566113D1*
X1696613D2*
X1716113D1*
X1738613D2*
X1759613D1*
X1213613Y843790D2*
X1224113D1*
X1257113D2*
X1266113D1*
X1288613D2*
X1299113D1*
X1332113D2*
X1341113D1*
X1363613D2*
X1374113D1*
X1407113D2*
X1416113D1*
X1461113D2*
X1470113D1*
X1513613D2*
X1524113D1*
X1557113D2*
X1566113D1*
X1696613D2*
X1716113D1*
X1738613D2*
X1759613D1*
X1213613Y842290D2*
X1266113D1*
X1288613D2*
X1299113D1*
X1332113D2*
X1341113D1*
X1363613D2*
X1374113D1*
X1407113D2*
X1416113D1*
X1461113D2*
X1470113D1*
X1513613D2*
X1566113D1*
X1696613D2*
X1716113D1*
X1738613D2*
X1759613D1*
X1213613Y840790D2*
X1266113D1*
X1288613D2*
X1299113D1*
X1332113D2*
X1341113D1*
X1363613D2*
X1374113D1*
X1407113D2*
X1416113D1*
X1461113D2*
X1470113D1*
X1513613D2*
X1566113D1*
X1696613D2*
X1716113D1*
X1738613D2*
X1759613D1*
X1213613Y839290D2*
X1266113D1*
X1288613D2*
X1299113D1*
X1332113D2*
X1341113D1*
X1363613D2*
X1374113D1*
X1407113D2*
X1416113D1*
X1461113D2*
X1470113D1*
X1513613D2*
X1566113D1*
X1696613D2*
X1716113D1*
X1738613D2*
X1759613D1*
X1213613Y837790D2*
X1266113D1*
X1288613D2*
X1299113D1*
X1332113D2*
X1341113D1*
X1363613D2*
X1374113D1*
X1407113D2*
X1416113D1*
X1461113D2*
X1470113D1*
X1513613D2*
X1566113D1*
X1696613D2*
X1716113D1*
X1738613D2*
X1759613D1*
X1213613Y836290D2*
X1266113D1*
X1288613D2*
X1299113D1*
X1332113D2*
X1341113D1*
X1363613D2*
X1374113D1*
X1407113D2*
X1416113D1*
X1461113D2*
X1470113D1*
X1513613D2*
X1566113D1*
X1696613D2*
X1716113D1*
X1738613D2*
X1759613D1*
X1213613Y834790D2*
X1266113D1*
X1288613D2*
X1299113D1*
X1332113D2*
X1341113D1*
X1363613D2*
X1374113D1*
X1407113D2*
X1416113D1*
X1461113D2*
X1470113D1*
X1513613D2*
X1566113D1*
X1696613D2*
X1716113D1*
X1738613D2*
X1759613D1*
X1213613Y833290D2*
X1266113D1*
X1288613D2*
X1299113D1*
X1332113D2*
X1341113D1*
X1363613D2*
X1374113D1*
X1407113D2*
X1416113D1*
X1461113D2*
X1470113D1*
X1513613D2*
X1566113D1*
X1696613D2*
X1716113D1*
X1738613D2*
X1759613D1*
X1213613Y831790D2*
X1224113D1*
X1257113D2*
X1266113D1*
X1288613D2*
X1330613D1*
X1363613D2*
X1405613D1*
X1461113D2*
X1470113D1*
X1513613D2*
X1524113D1*
X1696613D2*
X1716113D1*
X1738613D2*
X1759613D1*
X1213613Y830290D2*
X1224113D1*
X1257113D2*
X1266113D1*
X1288613D2*
X1330613D1*
X1363613D2*
X1405613D1*
X1461113D2*
X1470113D1*
X1513613D2*
X1524113D1*
X1696613D2*
X1716113D1*
X1738613D2*
X1759613D1*
X1213613Y828790D2*
X1224113D1*
X1257113D2*
X1266113D1*
X1288613D2*
X1330613D1*
X1363613D2*
X1405613D1*
X1461113D2*
X1470113D1*
X1513613D2*
X1524113D1*
X1696613D2*
X1716113D1*
X1738613D2*
X1759613D1*
X1213613Y827290D2*
X1224113D1*
X1257113D2*
X1266113D1*
X1288613D2*
X1330613D1*
X1363613D2*
X1405613D1*
X1461107D2*
X1470113D1*
X1513619D2*
X1524113D1*
X1696613D2*
X1716113D1*
X1738613D2*
X1759613D1*
X1213613Y825790D2*
X1224113D1*
X1257113D2*
X1266113D1*
X1288613D2*
X1330613D1*
X1363613D2*
X1405613D1*
X1461013D2*
X1470113D1*
X1513707D2*
X1524113D1*
X1696613D2*
X1716113D1*
X1738613D2*
X1759613D1*
X1213613Y824290D2*
X1224113D1*
X1257113D2*
X1266113D1*
X1288613D2*
X1330613D1*
X1363613D2*
X1405613D1*
X1460767D2*
X1470113D1*
X1513935D2*
X1524113D1*
X1696613D2*
X1716113D1*
X1738613D2*
X1759613D1*
X1213613Y822790D2*
X1224113D1*
X1257113D2*
X1266113D1*
X1288613D2*
X1330613D1*
X1363613D2*
X1405613D1*
X1459137D2*
X1470113D1*
X1515280D2*
X1524113D1*
X1696613D2*
X1716113D1*
X1738613D2*
X1759613D1*
X1213613Y821290D2*
X1224113D1*
X1257113D2*
X1266113D1*
X1288613D2*
X1299113D1*
X1363613D2*
X1374113D1*
X1454568D2*
X1470113D1*
X1518150D2*
X1524113D1*
X1696613D2*
X1716113D1*
X1738613D2*
X1759613D1*
X1213613Y819790D2*
X1224113D1*
X1257113D2*
X1266113D1*
X1288613D2*
X1299113D1*
X1363613D2*
X1374113D1*
X1449113D2*
X1480613D1*
X1520802D2*
X1566113D1*
X1663613D2*
X1716113D1*
X1738613D2*
X1791113D1*
X1213613Y818290D2*
X1224113D1*
X1257113D2*
X1266113D1*
X1288613D2*
X1299113D1*
X1363613D2*
X1374113D1*
X1449113D2*
X1480613D1*
X1522846D2*
X1566113D1*
X1663613D2*
X1716113D1*
X1738613D2*
X1791113D1*
X1213613Y816790D2*
X1224113D1*
X1257113D2*
X1266113D1*
X1288613D2*
X1299113D1*
X1363613D2*
X1374113D1*
X1449113D2*
X1480613D1*
X1523513D2*
X1566113D1*
X1663613D2*
X1716113D1*
X1738613D2*
X1791113D1*
X1213613Y815290D2*
X1224113D1*
X1257113D2*
X1266113D1*
X1288613D2*
X1299113D1*
X1363613D2*
X1374113D1*
X1449113D2*
X1480613D1*
X1523864D2*
X1566113D1*
X1663613D2*
X1716113D1*
X1738613D2*
X1791113D1*
X1213613Y813790D2*
X1224113D1*
X1257113D2*
X1266113D1*
X1288613D2*
X1299113D1*
X1363613D2*
X1374113D1*
X1449113D2*
X1480613D1*
X1524018D2*
X1566113D1*
X1663613D2*
X1716113D1*
X1738613D2*
X1791113D1*
X1213613Y812290D2*
X1224113D1*
X1257113D2*
X1266113D1*
X1288613D2*
X1299113D1*
X1363613D2*
X1374113D1*
X1449113D2*
X1480613D1*
X1524080D2*
X1566113D1*
X1663613D2*
X1716113D1*
X1738613D2*
X1791113D1*
X1213613Y810790D2*
X1224113D1*
X1257113D2*
X1266113D1*
X1288613D2*
X1299113D1*
X1363613D2*
X1374113D1*
X1449113D2*
X1480613D1*
X1524113D2*
X1566113D1*
X1663613D2*
X1716113D1*
X1738613D2*
X1791113D1*
X1288613Y809290D2*
X1299113D1*
X1363613D2*
X1374113D1*
X1288613Y807790D2*
X1299113D1*
X1363613D2*
X1374113D1*
X1288613Y806290D2*
X1299113D1*
X1363613D2*
X1374113D1*
X1288613Y804790D2*
X1299113D1*
X1363613D2*
X1374113D1*
X1288613Y803290D2*
X1299113D1*
X1363613D2*
X1374113D1*
X1288613Y801790D2*
X1299113D1*
X1363613D2*
X1374113D1*
X1288613Y800290D2*
X1299113D1*
X1363613D2*
X1374113D1*
X3360676Y1821951D2*
X3368176D1*
X3357279Y1820451D2*
X3368176D1*
X3377176D2*
X3380176D1*
X3354471Y1818951D2*
X3368176D1*
X3376418D2*
X3381957D1*
X3352256Y1817451D2*
X3368176D1*
X3376200D2*
X3383526D1*
X3350469Y1815951D2*
X3368176D1*
X3376750D2*
X3384869D1*
X3349021Y1814451D2*
X3368176D1*
X3378194D2*
X3386057D1*
X3347882Y1812951D2*
X3356002D1*
X3363676D2*
X3368176D1*
X3379790D2*
X3387065D1*
X3346990Y1811451D2*
X3354328D1*
X3363676D2*
X3368176D1*
X3381246D2*
X3387895D1*
X3346300Y1809951D2*
X3352858D1*
X3363676D2*
X3368176D1*
X3382423D2*
X3388508D1*
X3345739Y1808451D2*
X3351724D1*
X3363676D2*
X3368176D1*
X3383336D2*
X3388869D1*
X3345198Y1806951D2*
X3350902D1*
X3363676D2*
X3368176D1*
X3383985D2*
X3389048D1*
X3344734Y1805451D2*
X3350280D1*
X3363676D2*
X3368176D1*
X3384361D2*
X3389126D1*
X3344440Y1803951D2*
X3349719D1*
X3363676D2*
X3368176D1*
X3384545D2*
X3389158D1*
X3344289Y1802451D2*
X3349298D1*
X3363676D2*
X3368176D1*
X3384625D2*
X3389170D1*
X3344227Y1800951D2*
X3349068D1*
X3363676D2*
X3368176D1*
X3384652D2*
X3389174D1*
X3344251Y1799451D2*
X3349373D1*
X3363676D2*
X3368176D1*
X3384611D2*
X3389176D1*
X3344432Y1797951D2*
X3349771D1*
X3363676D2*
X3368176D1*
X3384419D2*
X3389170D1*
X3344793Y1796451D2*
X3350260D1*
X3363676D2*
X3368176D1*
X3384002D2*
X3389118D1*
X3345229Y1794951D2*
X3350999D1*
X3363676D2*
X3368176D1*
X3383368D2*
X3388921D1*
X3345687Y1793451D2*
X3352065D1*
X3363676D2*
X3368182D1*
X3382480D2*
X3388509D1*
X3346244Y1791951D2*
X3353468D1*
X3363671D2*
X3368247D1*
X3381166D2*
X3387927D1*
X3346942Y1790451D2*
X3355428D1*
X3363613D2*
X3368405D1*
X3379042D2*
X3387248D1*
X3347839Y1788951D2*
X3358329D1*
X3363382D2*
X3369156D1*
X3375578D2*
X3386474D1*
X3348988Y1787451D2*
X3362245D1*
X3362869D2*
X3370803D1*
X3370721D2*
X3385534D1*
X3350369Y1785951D2*
X3384317D1*
X3352040Y1784451D2*
X3382738D1*
X3354112Y1782951D2*
X3380710D1*
X3356559Y1781451D2*
X3378283D1*
X3359176Y1779951D2*
X3375676D1*
X3359176Y1767951D2*
X3389176D1*
X3355092Y1766451D2*
X3389176D1*
X3351906Y1764951D2*
X3389176D1*
X3349665Y1763451D2*
X3389176D1*
X3348146Y1761951D2*
X3389176D1*
X3347090Y1760451D2*
X3389176D1*
X3346337Y1758951D2*
X3356477D1*
X3345752Y1757451D2*
X3354158D1*
X3345202Y1755951D2*
X3352400D1*
X3344735Y1754451D2*
X3351213D1*
X3344440Y1752951D2*
X3350410D1*
X3344295Y1751451D2*
X3349770D1*
X3344279Y1749951D2*
X3349316D1*
X3344443Y1748451D2*
X3349071D1*
X3344797Y1746951D2*
X3349375D1*
X3345231Y1745451D2*
X3349766D1*
X3345688Y1743951D2*
X3350202D1*
X3346244Y1742451D2*
X3350755D1*
X3346942Y1740951D2*
X3351520D1*
X3347839Y1739451D2*
X3352503D1*
X3348981Y1737951D2*
X3354963D1*
X3350294Y1736451D2*
X3358537D1*
X3351676Y1734951D2*
X3363131D1*
X3348907Y1733451D2*
X3389176D1*
X3346856Y1731951D2*
X3389176D1*
X3346228Y1730451D2*
X3389176D1*
X3345888Y1728951D2*
X3389176D1*
X3345676Y1727451D2*
X3389176D1*
X3321676Y1712451D2*
X3324676D1*
X3320758Y1710951D2*
X3326061D1*
X3345676D2*
X3389176D1*
X3320008Y1709451D2*
X3327087D1*
X3345682D2*
X3389176D1*
X3319436Y1707951D2*
X3327388D1*
X3345739D2*
X3389176D1*
X3319615Y1706451D2*
X3327436D1*
X3345971D2*
X3389176D1*
X3320087Y1704951D2*
X3327252D1*
X3346484D2*
X3389176D1*
X3320810Y1703451D2*
X3326099D1*
X3347176D2*
X3389176D1*
X3321676Y1701951D2*
X3324676D1*
X3314176Y1686951D2*
X3389176D1*
X3314182Y1685451D2*
X3389176D1*
X3314239Y1683951D2*
X3389176D1*
X3314471Y1682451D2*
X3389176D1*
X3314984Y1680951D2*
X3389176D1*
X3315676Y1679451D2*
X3389176D1*
X3359176Y1664451D2*
X3389176D1*
X3355092Y1662951D2*
X3389176D1*
X3351906Y1661451D2*
X3389176D1*
X3349665Y1659951D2*
X3389176D1*
X3348146Y1658451D2*
X3389176D1*
X3347090Y1656951D2*
X3389176D1*
X3346337Y1655451D2*
X3356477D1*
X3345752Y1653951D2*
X3354158D1*
X3345202Y1652451D2*
X3352400D1*
X3344735Y1650951D2*
X3351213D1*
X3344440Y1649451D2*
X3350410D1*
X3344295Y1647951D2*
X3349770D1*
X3344279Y1646451D2*
X3349316D1*
X3344443Y1644951D2*
X3349071D1*
X3344797Y1643451D2*
X3349375D1*
X3345231Y1641951D2*
X3349766D1*
X3345688Y1640451D2*
X3350202D1*
X3346244Y1638951D2*
X3350755D1*
X3346942Y1637451D2*
X3351520D1*
X3347839Y1635951D2*
X3352503D1*
X3348981Y1634451D2*
X3354963D1*
X3350294Y1632951D2*
X3358537D1*
X3351676Y1631451D2*
X3363131D1*
X3348907Y1629951D2*
X3389176D1*
X3346856Y1628451D2*
X3389176D1*
X3346228Y1626951D2*
X3389176D1*
X3345888Y1625451D2*
X3389176D1*
X3345676Y1623951D2*
X3389176D1*
X3360676Y1610451D2*
X3374176D1*
X3357792Y1608951D2*
X3376882D1*
X3355430Y1607451D2*
X3379253D1*
X3353494Y1605951D2*
X3381203D1*
X3351806Y1604451D2*
X3382755D1*
X3350281Y1602951D2*
X3362766D1*
X3370819D2*
X3383995D1*
X3348948Y1601451D2*
X3359511D1*
X3374445D2*
X3385100D1*
X3347855Y1599951D2*
X3357007D1*
X3377332D2*
X3386157D1*
X3346986Y1598451D2*
X3355025D1*
X3379529D2*
X3387106D1*
X3346350Y1596951D2*
X3353373D1*
X3381183D2*
X3387910D1*
X3345929Y1595451D2*
X3352039D1*
X3382412D2*
X3388513D1*
X3345557Y1593951D2*
X3351111D1*
X3383336D2*
X3388871D1*
X3345118Y1592451D2*
X3350540D1*
X3383987D2*
X3389048D1*
X3344701Y1590951D2*
X3350106D1*
X3384361D2*
X3389126D1*
X3344428Y1589451D2*
X3349693D1*
X3384545D2*
X3389158D1*
X3344290Y1587951D2*
X3349457D1*
X3384625D2*
X3389170D1*
X3344278Y1586451D2*
X3349539D1*
X3384652D2*
X3389174D1*
X3344442Y1584951D2*
X3349784D1*
X3384611D2*
X3389170D1*
X3344797Y1583451D2*
X3350039D1*
X3384419D2*
X3389118D1*
X3345231Y1581951D2*
X3350401D1*
X3384002D2*
X3388927D1*
X3345688Y1580451D2*
X3351063D1*
X3383368D2*
X3388562D1*
X3346239Y1578951D2*
X3352085D1*
X3382492D2*
X3388118D1*
X3346884Y1577451D2*
X3353414D1*
X3381295D2*
X3387613D1*
X3347589Y1575951D2*
X3355143D1*
X3379644D2*
X3386917D1*
X3348373Y1574451D2*
X3357689D1*
X3377137D2*
X3386051D1*
X3349311Y1572951D2*
X3361697D1*
X3373146D2*
X3385129D1*
X3350477Y1571451D2*
X3367445D1*
X3367404D2*
X3384103D1*
X3351865Y1569951D2*
X3382845D1*
X3353539Y1568451D2*
X3381249D1*
X3355612Y1566951D2*
X3379214D1*
X3358059Y1565451D2*
X3376784D1*
X3360676Y1563951D2*
X3374176D1*
X3384676Y1548951D2*
X3387676D1*
X3383060Y1547451D2*
X3388882D1*
X3381832Y1545951D2*
X3389759D1*
X3380888Y1544451D2*
X3390255D1*
X3380657Y1542951D2*
X3390442D1*
X3381195Y1541451D2*
X3390316D1*
X3382095Y1539951D2*
X3389846D1*
X3383176Y1538451D2*
X3389176D1*
X1315741Y1942515D2*
Y1941015D1*
Y1939515D1*
Y1938015D1*
Y1936515D1*
Y1935015D1*
Y1933515D1*
Y1932015D1*
Y1930515D1*
Y1929015D1*
Y1927515D1*
Y1926015D1*
Y1924515D1*
Y1923015D1*
Y1921515D1*
Y1920015D1*
Y1918515D1*
Y1917015D1*
Y1915515D1*
Y1914015D1*
Y1912515D1*
Y1911015D1*
Y1909515D1*
Y1908015D1*
Y1906515D1*
Y1905015D1*
Y1903515D1*
Y1902015D1*
Y1900515D1*
Y1899015D1*
Y1897515D1*
Y1896015D1*
Y1894515D1*
Y1893015D1*
Y1891515D1*
Y1890015D1*
Y1888515D1*
Y1887015D1*
Y1885515D1*
Y1884015D1*
Y1882515D1*
Y1881015D1*
Y1879515D1*
Y1878015D1*
Y1876515D1*
Y1875015D1*
Y1873515D1*
Y1872015D1*
Y1870515D1*
Y1869015D1*
Y1867515D1*
Y1866015D1*
Y1864515D1*
Y1863015D1*
Y1861515D1*
Y1860015D1*
Y1858515D1*
Y1857015D1*
Y1855515D1*
X1330741Y1942515D2*
Y1941015D1*
Y1939515D1*
Y1938015D1*
Y1936515D1*
Y1935015D1*
Y1933515D1*
Y1932015D1*
Y1930515D1*
Y1929015D1*
Y1927515D1*
Y1926015D1*
Y1924515D1*
Y1923015D1*
Y1921515D1*
Y1920015D1*
Y1918515D1*
Y1917015D1*
Y1915515D1*
Y1914015D1*
Y1912515D1*
Y1911015D1*
Y1909515D1*
Y1908015D1*
Y1906515D1*
Y1905015D1*
Y1903515D1*
Y1902015D1*
Y1900515D1*
Y1899015D1*
Y1897515D1*
Y1896015D1*
Y1894515D1*
Y1893015D1*
Y1891515D1*
Y1890015D1*
Y1888515D1*
Y1887015D1*
Y1885515D1*
Y1884015D1*
Y1882515D1*
Y1881015D1*
Y1879515D1*
Y1878015D1*
Y1876515D1*
Y1875015D1*
Y1873515D1*
Y1872015D1*
Y1870515D1*
Y1869015D1*
Y1867515D1*
Y1866015D1*
Y1864515D1*
Y1863015D1*
Y1861515D1*
Y1860015D1*
Y1858515D1*
Y1857015D1*
Y1855515D1*
X1702741Y1938015D2*
X1699344Y1936515D1*
X1696536Y1935015D1*
X1694315Y1933515D1*
X1692475Y1932015D1*
X1690836Y1930515D1*
X1689332Y1929015D1*
X1688008Y1927515D1*
X1686913Y1926015D1*
X1685992Y1924515D1*
X1685171Y1923015D1*
X1684438Y1921515D1*
X1683819Y1920015D1*
X1683287Y1918515D1*
X1682751Y1917015D1*
X1682238Y1915515D1*
X1681754Y1914015D1*
X1681245Y1912515D1*
X1680792Y1911015D1*
X1680503Y1909515D1*
X1680353Y1908015D1*
X1680286Y1906515D1*
X1680258Y1905015D1*
X1680247Y1903515D1*
X1680243Y1902015D1*
X1680242Y1900515D1*
Y1899015D1*
Y1897515D1*
X1680241Y1896015D1*
Y1894515D1*
Y1893015D1*
Y1891515D1*
Y1890015D1*
Y1888515D1*
Y1887015D1*
X1680247Y1885515D1*
X1680300Y1884015D1*
X1680491Y1882515D1*
X1680850Y1881015D1*
X1681241Y1879515D1*
X1681555Y1878015D1*
X1681891Y1876515D1*
X1682367Y1875015D1*
X1682975Y1873515D1*
X1683659Y1872015D1*
X1684383Y1870515D1*
X1685127Y1869015D1*
X1685928Y1867515D1*
X1686872Y1866015D1*
X1688035Y1864515D1*
X1689365Y1863015D1*
X1690796Y1861515D1*
X1692330Y1860015D1*
X1694125Y1858515D1*
X1696456Y1857015D1*
X1699427Y1855515D1*
X1702741Y1854015D1*
X1716241Y1938015D2*
X1719639Y1936515D1*
X1722447Y1935015D1*
X1724668Y1933515D1*
X1726508Y1932015D1*
X1728146Y1930515D1*
X1729651Y1929015D1*
X1730975Y1927515D1*
X1732070Y1926015D1*
X1732991Y1924515D1*
X1733812Y1923015D1*
X1734545Y1921515D1*
X1735164Y1920015D1*
X1735696Y1918515D1*
X1736232Y1917015D1*
X1736745Y1915515D1*
X1737228Y1914015D1*
X1737738Y1912515D1*
X1738191Y1911015D1*
X1738480Y1909515D1*
X1738630Y1908015D1*
X1738697Y1906515D1*
X1738725Y1905015D1*
X1738736Y1903515D1*
X1738739Y1902015D1*
X1738741Y1900515D1*
Y1899015D1*
Y1897515D1*
Y1896015D1*
Y1894515D1*
Y1893015D1*
Y1891515D1*
Y1890015D1*
Y1888515D1*
X1738736Y1887015D1*
X1738683Y1885515D1*
X1738492Y1884015D1*
X1738132Y1882515D1*
X1737742Y1881015D1*
X1737428Y1879515D1*
X1737097Y1878015D1*
X1736669Y1876515D1*
X1736205Y1875015D1*
X1735736Y1873515D1*
X1735181Y1872015D1*
X1734535Y1870515D1*
X1733829Y1869015D1*
X1733045Y1867515D1*
X1732107Y1866015D1*
X1730947Y1864515D1*
X1729617Y1863015D1*
X1728187Y1861515D1*
X1726653Y1860015D1*
X1724858Y1858515D1*
X1722527Y1857015D1*
X1719556Y1855515D1*
X1716241Y1854015D1*
X1773241Y1938015D2*
X1769844Y1936515D1*
X1767036Y1935015D1*
X1764815Y1933515D1*
X1762975Y1932015D1*
X1761336Y1930515D1*
X1759832Y1929015D1*
X1758508Y1927515D1*
X1757413Y1926015D1*
X1756492Y1924515D1*
X1755671Y1923015D1*
X1754938Y1921515D1*
X1754319Y1920015D1*
X1753787Y1918515D1*
X1753251Y1917015D1*
X1752738Y1915515D1*
X1752254Y1914015D1*
X1751745Y1912515D1*
X1751292Y1911015D1*
X1751003Y1909515D1*
X1750853Y1908015D1*
X1750786Y1906515D1*
X1750758Y1905015D1*
X1750747Y1903515D1*
X1750743Y1902015D1*
X1750742Y1900515D1*
Y1899015D1*
Y1897515D1*
X1750741Y1896015D1*
Y1894515D1*
Y1893015D1*
Y1891515D1*
Y1890015D1*
Y1888515D1*
Y1887015D1*
X1750747Y1885515D1*
X1750800Y1884015D1*
X1750991Y1882515D1*
X1751350Y1881015D1*
X1751741Y1879515D1*
X1752055Y1878015D1*
X1752391Y1876515D1*
X1752867Y1875015D1*
X1753475Y1873515D1*
X1754159Y1872015D1*
X1754883Y1870515D1*
X1755627Y1869015D1*
X1756428Y1867515D1*
X1757372Y1866015D1*
X1758535Y1864515D1*
X1759865Y1863015D1*
X1761296Y1861515D1*
X1762830Y1860015D1*
X1764625Y1858515D1*
X1766956Y1857015D1*
X1769927Y1855515D1*
X1773241Y1854015D1*
X1786741Y1938015D2*
X1790139Y1936515D1*
X1792947Y1935015D1*
X1795168Y1933515D1*
X1797008Y1932015D1*
X1798646Y1930515D1*
X1800151Y1929015D1*
X1801475Y1927515D1*
X1802570Y1926015D1*
X1803491Y1924515D1*
X1804312Y1923015D1*
X1805045Y1921515D1*
X1805664Y1920015D1*
X1806196Y1918515D1*
X1806732Y1917015D1*
X1807245Y1915515D1*
X1807728Y1914015D1*
X1808238Y1912515D1*
X1808691Y1911015D1*
X1808980Y1909515D1*
X1809130Y1908015D1*
X1809197Y1906515D1*
X1809225Y1905015D1*
X1809236Y1903515D1*
X1809239Y1902015D1*
X1809241Y1900515D1*
Y1899015D1*
Y1897515D1*
Y1896015D1*
Y1894515D1*
Y1893015D1*
Y1891515D1*
Y1890015D1*
Y1888515D1*
X1809236Y1887015D1*
X1809183Y1885515D1*
X1808992Y1884015D1*
X1808632Y1882515D1*
X1808242Y1881015D1*
X1807928Y1879515D1*
X1807597Y1878015D1*
X1807169Y1876515D1*
X1806705Y1875015D1*
X1806236Y1873515D1*
X1805681Y1872015D1*
X1805035Y1870515D1*
X1804329Y1869015D1*
X1803545Y1867515D1*
X1802607Y1866015D1*
X1801447Y1864515D1*
X1800117Y1863015D1*
X1798687Y1861515D1*
X1797153Y1860015D1*
X1795358Y1858515D1*
X1793027Y1857015D1*
X1790056Y1855515D1*
X1786741Y1854015D1*
X850741Y1936515D2*
Y1935015D1*
Y1933515D1*
Y1932015D1*
Y1930515D1*
Y1929015D1*
Y1927515D1*
Y1926015D1*
Y1924515D1*
Y1923015D1*
Y1921515D1*
Y1920015D1*
Y1918515D1*
Y1917015D1*
Y1915515D1*
Y1914015D1*
Y1912515D1*
Y1911015D1*
Y1909515D1*
Y1908015D1*
Y1906515D1*
Y1905015D1*
Y1903515D1*
Y1902015D1*
Y1900515D1*
Y1899015D1*
Y1897515D1*
Y1896015D1*
Y1894515D1*
Y1893015D1*
Y1891515D1*
Y1890015D1*
Y1888515D1*
Y1887015D1*
Y1885515D1*
Y1884015D1*
Y1882515D1*
Y1881015D1*
Y1879515D1*
Y1878015D1*
Y1876515D1*
Y1875015D1*
Y1873515D1*
Y1872015D1*
Y1870515D1*
Y1869015D1*
Y1867515D1*
Y1866015D1*
Y1864515D1*
Y1863015D1*
Y1861515D1*
Y1860015D1*
Y1858515D1*
Y1857015D1*
Y1855515D1*
X898741Y1936515D2*
Y1935015D1*
Y1933515D1*
Y1932015D1*
Y1930515D1*
Y1929015D1*
Y1927515D1*
Y1926015D1*
Y1924515D1*
Y1923015D1*
X913741Y1936515D2*
Y1935015D1*
Y1933515D1*
Y1932015D1*
Y1930515D1*
Y1929015D1*
Y1927515D1*
Y1926015D1*
Y1924515D1*
Y1923015D1*
Y1921515D1*
Y1920015D1*
Y1918515D1*
Y1917015D1*
Y1915515D1*
Y1914015D1*
Y1912515D1*
Y1911015D1*
Y1909515D1*
Y1908015D1*
Y1906515D1*
Y1905015D1*
Y1903515D1*
Y1902015D1*
Y1900515D1*
Y1899015D1*
Y1897515D1*
Y1896015D1*
Y1894515D1*
Y1893015D1*
Y1891515D1*
Y1890015D1*
Y1888515D1*
Y1887015D1*
Y1885515D1*
X913747Y1884015D1*
X913800Y1882515D1*
X913991Y1881015D1*
X914350Y1879515D1*
X914741Y1878015D1*
X915055Y1876515D1*
X915386Y1875015D1*
X915814Y1873515D1*
X916278Y1872015D1*
X916747Y1870515D1*
X917307Y1869015D1*
X918007Y1867515D1*
X918904Y1866015D1*
X920053Y1864515D1*
X921428Y1863015D1*
X923053Y1861515D1*
X925004Y1860015D1*
X927432Y1858515D1*
X930630Y1857015D1*
X934707Y1855515D1*
X939241Y1854015D1*
X930241Y1936515D2*
Y1935015D1*
Y1933515D1*
Y1932015D1*
Y1930515D1*
Y1929015D1*
Y1927515D1*
Y1926015D1*
Y1924515D1*
Y1923015D1*
Y1921515D1*
Y1920015D1*
Y1918515D1*
Y1917015D1*
Y1915515D1*
Y1914015D1*
Y1912515D1*
Y1911015D1*
Y1909515D1*
Y1908015D1*
Y1906515D1*
Y1905015D1*
Y1903515D1*
Y1902015D1*
Y1900515D1*
Y1899015D1*
Y1897515D1*
Y1896015D1*
Y1894515D1*
Y1893015D1*
Y1891515D1*
Y1890015D1*
Y1888515D1*
X930247Y1887015D1*
X930300Y1885515D1*
X930491Y1884015D1*
X930856Y1882515D1*
X931294Y1881015D1*
X931752Y1879515D1*
X932309Y1878015D1*
X933013Y1876515D1*
X933969Y1875015D1*
X935408Y1873515D1*
X937797Y1872015D1*
X942065Y1870515D1*
X948878Y1869015D1*
X957241Y1867515D1*
X967741Y1936515D2*
Y1935015D1*
Y1933515D1*
Y1932015D1*
Y1930515D1*
Y1929015D1*
Y1927515D1*
Y1926015D1*
Y1924515D1*
Y1923015D1*
Y1921515D1*
Y1920015D1*
Y1918515D1*
Y1917015D1*
Y1915515D1*
Y1914015D1*
Y1912515D1*
Y1911015D1*
Y1909515D1*
Y1908015D1*
Y1906515D1*
Y1905015D1*
Y1903515D1*
Y1902015D1*
Y1900515D1*
Y1899015D1*
Y1897515D1*
Y1896015D1*
Y1894515D1*
Y1893015D1*
Y1891515D1*
Y1890015D1*
Y1888515D1*
X967736Y1887015D1*
X967683Y1885515D1*
X967492Y1884015D1*
X967127Y1882515D1*
X966689Y1881015D1*
X966231Y1879515D1*
X965674Y1878015D1*
X964970Y1876515D1*
X964014Y1875015D1*
X962575Y1873515D1*
X960186Y1872015D1*
X955918Y1870515D1*
X949105Y1869015D1*
X940741Y1867515D1*
X984241Y1936515D2*
Y1935015D1*
Y1933515D1*
Y1932015D1*
Y1930515D1*
Y1929015D1*
Y1927515D1*
Y1926015D1*
Y1924515D1*
Y1923015D1*
Y1921515D1*
Y1920015D1*
Y1918515D1*
Y1917015D1*
Y1915515D1*
Y1914015D1*
Y1912515D1*
Y1911015D1*
Y1909515D1*
Y1908015D1*
Y1906515D1*
Y1905015D1*
Y1903515D1*
Y1902015D1*
Y1900515D1*
Y1899015D1*
Y1897515D1*
Y1896015D1*
Y1894515D1*
Y1893015D1*
Y1891515D1*
Y1890015D1*
Y1888515D1*
Y1887015D1*
Y1885515D1*
Y1884015D1*
X984236Y1882515D1*
X984183Y1881015D1*
X983992Y1879515D1*
X983632Y1878015D1*
X983242Y1876515D1*
X982928Y1875015D1*
X982592Y1873515D1*
X982116Y1872015D1*
X981508Y1870515D1*
X980818Y1869015D1*
X980041Y1867515D1*
X979106Y1866015D1*
X977946Y1864515D1*
X976611Y1863015D1*
X975123Y1861515D1*
X973339Y1860015D1*
X970935Y1858515D1*
X967612Y1857015D1*
X963398Y1855515D1*
X958741Y1854015D1*
X1020241Y1936515D2*
Y1935015D1*
Y1933515D1*
Y1932015D1*
Y1930515D1*
Y1929015D1*
Y1927515D1*
Y1926015D1*
Y1924515D1*
Y1923015D1*
Y1921515D1*
Y1920015D1*
Y1918515D1*
Y1917015D1*
Y1915515D1*
Y1914015D1*
Y1912515D1*
Y1911015D1*
Y1909515D1*
Y1908015D1*
Y1906515D1*
Y1905015D1*
Y1903515D1*
Y1902015D1*
Y1900515D1*
Y1899015D1*
Y1897515D1*
Y1896015D1*
Y1894515D1*
Y1893015D1*
Y1891515D1*
Y1890015D1*
Y1888515D1*
Y1887015D1*
Y1885515D1*
Y1884015D1*
Y1882515D1*
Y1881015D1*
Y1879515D1*
X1020236Y1878015D1*
X1020183Y1876515D1*
X1019986Y1875015D1*
X1019545Y1873515D1*
X1018911Y1872015D1*
X1017362Y1870515D1*
X1013849Y1869015D1*
X1009741Y1867515D1*
X1036741Y1936515D2*
Y1935015D1*
Y1933515D1*
Y1932015D1*
Y1930515D1*
Y1929015D1*
Y1927515D1*
Y1926015D1*
Y1924515D1*
Y1923015D1*
Y1921515D1*
Y1920015D1*
Y1918515D1*
Y1917015D1*
Y1915515D1*
Y1914015D1*
Y1912515D1*
Y1911015D1*
Y1909515D1*
Y1908015D1*
Y1906515D1*
Y1905015D1*
Y1903515D1*
Y1902015D1*
Y1900515D1*
Y1899015D1*
Y1897515D1*
Y1896015D1*
Y1894515D1*
Y1893015D1*
Y1891515D1*
Y1890015D1*
Y1888515D1*
Y1887015D1*
Y1885515D1*
Y1884015D1*
Y1882515D1*
Y1881015D1*
Y1879515D1*
Y1878015D1*
Y1876515D1*
X1036736Y1875015D1*
X1036683Y1873515D1*
X1036492Y1872015D1*
X1036127Y1870515D1*
X1035689Y1869015D1*
X1035231Y1867515D1*
X1034680Y1866015D1*
X1034034Y1864515D1*
X1033329Y1863015D1*
X1032539Y1861515D1*
X1031537Y1860015D1*
X1030070Y1858515D1*
X1027905Y1857015D1*
X1025012Y1855515D1*
X1021741Y1854015D1*
X1056241Y1936515D2*
Y1935015D1*
Y1933515D1*
Y1932015D1*
Y1930515D1*
Y1929015D1*
Y1927515D1*
Y1926015D1*
Y1924515D1*
Y1923015D1*
Y1921515D1*
Y1920015D1*
Y1918515D1*
Y1917015D1*
Y1915515D1*
Y1914015D1*
Y1912515D1*
Y1911015D1*
Y1909515D1*
Y1908015D1*
Y1906515D1*
Y1905015D1*
Y1903515D1*
Y1902015D1*
Y1900515D1*
Y1899015D1*
Y1897515D1*
Y1896015D1*
Y1894515D1*
Y1893015D1*
Y1891515D1*
Y1890015D1*
Y1888515D1*
Y1887015D1*
Y1885515D1*
Y1884015D1*
Y1882515D1*
Y1881015D1*
Y1879515D1*
Y1878015D1*
Y1876515D1*
Y1875015D1*
Y1873515D1*
Y1872015D1*
Y1870515D1*
Y1869015D1*
Y1867515D1*
Y1866015D1*
Y1864515D1*
Y1863015D1*
Y1861515D1*
Y1860015D1*
Y1858515D1*
Y1857015D1*
Y1855515D1*
X1072741Y1936515D2*
Y1935015D1*
Y1933515D1*
Y1932015D1*
Y1930515D1*
Y1929015D1*
Y1927515D1*
Y1926015D1*
Y1924515D1*
Y1923015D1*
Y1921515D1*
Y1920015D1*
Y1918515D1*
Y1917015D1*
Y1915515D1*
Y1914015D1*
Y1912515D1*
Y1911015D1*
Y1909515D1*
Y1908015D1*
Y1906515D1*
Y1905015D1*
Y1903515D1*
Y1902015D1*
Y1900515D1*
Y1899015D1*
Y1897515D1*
Y1896015D1*
Y1894515D1*
Y1893015D1*
Y1891515D1*
Y1890015D1*
Y1888515D1*
Y1887015D1*
Y1885515D1*
Y1884015D1*
Y1882515D1*
Y1881015D1*
Y1879515D1*
Y1878015D1*
Y1876515D1*
Y1875015D1*
Y1873515D1*
Y1872015D1*
Y1870515D1*
Y1869015D1*
Y1867515D1*
Y1866015D1*
Y1864515D1*
Y1863015D1*
Y1861515D1*
Y1860015D1*
Y1858515D1*
Y1857015D1*
Y1855515D1*
X1114741Y1936515D2*
X1113817Y1935015D1*
X1113009Y1933515D1*
X1112350Y1932015D1*
X1111799Y1930515D1*
X1111255Y1929015D1*
X1110739Y1927515D1*
X1110249Y1926015D1*
X1109686Y1924515D1*
X1109042Y1923015D1*
X1108388Y1921515D1*
X1107801Y1920015D1*
X1107281Y1918515D1*
X1106749Y1917015D1*
X1106237Y1915515D1*
X1105748Y1914015D1*
X1105186Y1912515D1*
X1104542Y1911015D1*
X1103888Y1909515D1*
X1103301Y1908015D1*
X1102775Y1906515D1*
X1102196Y1905015D1*
X1101546Y1903515D1*
X1100889Y1902015D1*
X1100301Y1900515D1*
X1099781Y1899015D1*
X1099249Y1897515D1*
X1098737Y1896015D1*
X1098248Y1894515D1*
X1097686Y1893015D1*
X1097042Y1891515D1*
X1096388Y1890015D1*
X1095801Y1888515D1*
X1095281Y1887015D1*
X1094749Y1885515D1*
X1094237Y1884015D1*
X1093748Y1882515D1*
X1093186Y1881015D1*
X1092542Y1879515D1*
X1091888Y1878015D1*
X1091301Y1876515D1*
X1090775Y1875015D1*
X1090196Y1873515D1*
X1089546Y1872015D1*
X1088889Y1870515D1*
X1088301Y1869015D1*
X1087781Y1867515D1*
X1087249Y1866015D1*
X1086737Y1864515D1*
X1086248Y1863015D1*
X1085686Y1861515D1*
X1085041Y1860015D1*
X1084379Y1858515D1*
X1083775Y1857015D1*
X1083241Y1855515D1*
X1134241Y1936515D2*
X1134479Y1935015D1*
X1134904Y1933515D1*
X1135483Y1932015D1*
X1136111Y1930515D1*
X1136688Y1929015D1*
X1137210Y1927515D1*
X1137788Y1926015D1*
X1138437Y1924515D1*
X1139094Y1923015D1*
X1139682Y1921515D1*
X1140202Y1920015D1*
X1140734Y1918515D1*
X1141246Y1917015D1*
X1141735Y1915515D1*
X1142297Y1914015D1*
X1142941Y1912515D1*
X1143595Y1911015D1*
X1144182Y1909515D1*
X1144708Y1908015D1*
X1145287Y1906515D1*
X1145937Y1905015D1*
X1146594Y1903515D1*
X1147182Y1902015D1*
X1147702Y1900515D1*
X1148234Y1899015D1*
X1148746Y1897515D1*
X1149235Y1896015D1*
X1149797Y1894515D1*
X1150441Y1893015D1*
X1151095Y1891515D1*
X1151682Y1890015D1*
X1152208Y1888515D1*
X1152787Y1887015D1*
X1153437Y1885515D1*
X1154094Y1884015D1*
X1154682Y1882515D1*
X1155202Y1881015D1*
X1155734Y1879515D1*
X1156246Y1878015D1*
X1156735Y1876515D1*
X1157297Y1875015D1*
X1157941Y1873515D1*
X1158595Y1872015D1*
X1159182Y1870515D1*
X1159708Y1869015D1*
X1160287Y1867515D1*
X1160937Y1866015D1*
X1161594Y1864515D1*
X1162182Y1863015D1*
X1162708Y1861515D1*
X1163292Y1860015D1*
X1163986Y1858515D1*
X1164814Y1857015D1*
X1165741Y1855515D1*
X1450741Y1936515D2*
Y1935015D1*
Y1933515D1*
Y1932015D1*
Y1930515D1*
Y1929015D1*
Y1927515D1*
Y1926015D1*
Y1924515D1*
Y1923015D1*
Y1921515D1*
Y1920015D1*
Y1918515D1*
Y1917015D1*
Y1915515D1*
Y1914015D1*
Y1912515D1*
Y1911015D1*
Y1909515D1*
Y1908015D1*
Y1906515D1*
Y1905015D1*
Y1903515D1*
Y1902015D1*
Y1900515D1*
Y1899015D1*
Y1897515D1*
Y1896015D1*
Y1894515D1*
Y1893015D1*
Y1891515D1*
Y1890015D1*
Y1888515D1*
Y1887015D1*
Y1885515D1*
Y1884015D1*
Y1882515D1*
Y1881015D1*
Y1879515D1*
Y1878015D1*
Y1876515D1*
Y1875015D1*
Y1873515D1*
Y1872015D1*
Y1870515D1*
Y1869015D1*
Y1867515D1*
Y1866015D1*
Y1864515D1*
Y1863015D1*
Y1861515D1*
Y1860015D1*
Y1858515D1*
Y1857015D1*
Y1855515D1*
X1485241Y1936515D2*
X1489563Y1935015D1*
X1493174Y1933515D1*
X1496001Y1932015D1*
X1498195Y1930515D1*
X1499965Y1929015D1*
X1501403Y1927515D1*
X1502538Y1926015D1*
X1503423Y1924515D1*
X1504060Y1923015D1*
X1504429Y1921515D1*
X1504611Y1920015D1*
X1504691Y1918515D1*
X1504723Y1917015D1*
X1504735Y1915515D1*
X1504739Y1914015D1*
X1504741Y1912515D1*
X1504735Y1911015D1*
X1504683Y1909515D1*
X1504486Y1908015D1*
X1504074Y1906515D1*
X1503492Y1905015D1*
X1502813Y1903515D1*
X1502039Y1902015D1*
X1501099Y1900515D1*
X1499882Y1899015D1*
X1498303Y1897515D1*
X1496281Y1896015D1*
X1493941Y1894515D1*
X1491750Y1893015D1*
X1489947Y1891515D1*
X1489457Y1890015D1*
X1489812Y1888515D1*
X1490474Y1887015D1*
X1491340Y1885515D1*
X1492220Y1884015D1*
X1493054Y1882515D1*
X1493892Y1881015D1*
X1494802Y1879515D1*
X1495775Y1878015D1*
X1496696Y1876515D1*
X1497546Y1875015D1*
X1498389Y1873515D1*
X1499301Y1872015D1*
X1500275Y1870515D1*
X1501196Y1869015D1*
X1502046Y1867515D1*
X1502889Y1866015D1*
X1503801Y1864515D1*
X1504781Y1863015D1*
X1505749Y1861515D1*
X1506733Y1860015D1*
X1507708Y1858515D1*
X1508537Y1857015D1*
X1509241Y1855515D1*
X1467241Y1924515D2*
Y1923015D1*
Y1921515D1*
Y1920015D1*
Y1918515D1*
Y1917015D1*
Y1915515D1*
Y1914015D1*
Y1912515D1*
Y1911015D1*
Y1909515D1*
Y1908015D1*
Y1906515D1*
Y1905015D1*
Y1903515D1*
X1479241Y1902015D1*
X1476241Y1924515D2*
X1480146Y1923015D1*
X1483348Y1921515D1*
X1485655Y1920015D1*
X1487225Y1918515D1*
X1488301Y1917015D1*
X1489009Y1915515D1*
X1489355Y1914015D1*
X1489350Y1912515D1*
X1489016Y1911015D1*
X1488403Y1909515D1*
X1487608Y1908015D1*
X1485904Y1906515D1*
X1481070Y1905015D1*
X1473518Y1903515D1*
X1464241Y1902015D1*
X1708741Y1924515D2*
X1706042Y1923015D1*
X1703718Y1921515D1*
X1701912Y1920015D1*
X1700581Y1918515D1*
X1699557Y1917015D1*
X1698694Y1915515D1*
X1697952Y1914015D1*
X1697381Y1912515D1*
X1697032Y1911015D1*
X1696808Y1909515D1*
X1696540Y1908015D1*
X1696150Y1906515D1*
X1695754Y1905015D1*
X1695488Y1903515D1*
X1695348Y1902015D1*
X1695284Y1900515D1*
X1695257Y1899015D1*
X1695247Y1897515D1*
X1695243Y1896015D1*
X1695242Y1894515D1*
Y1893015D1*
X1695247Y1891515D1*
X1695300Y1890015D1*
X1695491Y1888515D1*
X1695850Y1887015D1*
X1696235Y1885515D1*
X1696503Y1884015D1*
X1696694Y1882515D1*
X1696955Y1881015D1*
X1697393Y1879515D1*
X1697985Y1878015D1*
X1698668Y1876515D1*
X1699449Y1875015D1*
X1700466Y1873515D1*
X1701770Y1872015D1*
X1704879Y1870515D1*
X1709373Y1869015D1*
X1714741Y1867515D1*
X1710241Y1924515D2*
X1712941Y1923015D1*
X1715265Y1921515D1*
X1717071Y1920015D1*
X1718396Y1918515D1*
X1719373Y1917015D1*
X1720097Y1915515D1*
X1720672Y1914015D1*
X1721218Y1912515D1*
X1721684Y1911015D1*
X1721984Y1909515D1*
X1722188Y1908015D1*
X1722447Y1906515D1*
X1722834Y1905015D1*
X1723229Y1903515D1*
X1723495Y1902015D1*
X1723635Y1900515D1*
X1723699Y1899015D1*
X1723726Y1897515D1*
X1723736Y1896015D1*
X1723734Y1894515D1*
X1723682Y1893015D1*
X1723492Y1891515D1*
X1723132Y1890015D1*
X1722748Y1888515D1*
X1722486Y1887015D1*
X1722341Y1885515D1*
X1722225Y1884015D1*
X1722007Y1882515D1*
X1721632Y1881015D1*
X1721191Y1879515D1*
X1720731Y1878015D1*
X1720174Y1876515D1*
X1719470Y1875015D1*
X1718491Y1873515D1*
X1717207Y1872015D1*
X1714101Y1870515D1*
X1709609Y1869015D1*
X1704241Y1867515D1*
X1779241Y1924515D2*
X1776542Y1923015D1*
X1774218Y1921515D1*
X1772412Y1920015D1*
X1771081Y1918515D1*
X1770057Y1917015D1*
X1769194Y1915515D1*
X1768452Y1914015D1*
X1767881Y1912515D1*
X1767532Y1911015D1*
X1767308Y1909515D1*
X1767040Y1908015D1*
X1766650Y1906515D1*
X1766254Y1905015D1*
X1765988Y1903515D1*
X1765848Y1902015D1*
X1765784Y1900515D1*
X1765757Y1899015D1*
X1765747Y1897515D1*
X1765743Y1896015D1*
X1765742Y1894515D1*
Y1893015D1*
X1765747Y1891515D1*
X1765800Y1890015D1*
X1765991Y1888515D1*
X1766350Y1887015D1*
X1766735Y1885515D1*
X1767003Y1884015D1*
X1767194Y1882515D1*
X1767455Y1881015D1*
X1767893Y1879515D1*
X1768485Y1878015D1*
X1769168Y1876515D1*
X1769949Y1875015D1*
X1770966Y1873515D1*
X1772270Y1872015D1*
X1775379Y1870515D1*
X1779873Y1869015D1*
X1785241Y1867515D1*
X1780741Y1924515D2*
X1783441Y1923015D1*
X1785765Y1921515D1*
X1787571Y1920015D1*
X1788896Y1918515D1*
X1789873Y1917015D1*
X1790597Y1915515D1*
X1791172Y1914015D1*
X1791718Y1912515D1*
X1792184Y1911015D1*
X1792484Y1909515D1*
X1792688Y1908015D1*
X1792947Y1906515D1*
X1793334Y1905015D1*
X1793729Y1903515D1*
X1793995Y1902015D1*
X1794135Y1900515D1*
X1794199Y1899015D1*
X1794226Y1897515D1*
X1794236Y1896015D1*
X1794234Y1894515D1*
X1794182Y1893015D1*
X1793992Y1891515D1*
X1793632Y1890015D1*
X1793248Y1888515D1*
X1792986Y1887015D1*
X1792841Y1885515D1*
X1792725Y1884015D1*
X1792507Y1882515D1*
X1792132Y1881015D1*
X1791691Y1879515D1*
X1791231Y1878015D1*
X1790674Y1876515D1*
X1789970Y1875015D1*
X1788991Y1873515D1*
X1787707Y1872015D1*
X1784601Y1870515D1*
X1780109Y1869015D1*
X1774741Y1867515D1*
X867241Y1923015D2*
Y1921515D1*
Y1920015D1*
Y1918515D1*
Y1917015D1*
Y1915515D1*
Y1914015D1*
Y1912515D1*
Y1911015D1*
Y1909515D1*
Y1908015D1*
Y1906515D1*
Y1905015D1*
X1122241Y1921515D2*
X1122010Y1920015D1*
X1121638Y1918515D1*
X1121244Y1917015D1*
X1120928Y1915515D1*
X1120598Y1914015D1*
X1120169Y1912515D1*
X1119705Y1911015D1*
X1119242Y1909515D1*
X1118734Y1908015D1*
X1118232Y1906515D1*
X1117752Y1905015D1*
X1117238Y1903515D1*
X1116733Y1902015D1*
X1116253Y1900515D1*
X1115738Y1899015D1*
X1115233Y1897515D1*
X1114753Y1896015D1*
X1114238Y1894515D1*
X1113733Y1893015D1*
X1113253Y1891515D1*
X1112744Y1890015D1*
X1112288Y1888515D1*
X1111975Y1887015D1*
X1111741Y1885515D1*
X1125241Y1921515D2*
X1125247Y1920015D1*
X1125300Y1918515D1*
X1125491Y1917015D1*
X1125856Y1915515D1*
X1126294Y1914015D1*
X1126746Y1912515D1*
X1127251Y1911015D1*
X1127752Y1909515D1*
X1128231Y1908015D1*
X1128745Y1906515D1*
X1129250Y1905015D1*
X1129730Y1903515D1*
X1130245Y1902015D1*
X1130750Y1900515D1*
X1131230Y1899015D1*
X1131745Y1897515D1*
X1132250Y1896015D1*
X1132730Y1894515D1*
X1133245Y1893015D1*
X1133755Y1891515D1*
X1134294Y1890015D1*
X1135048Y1888515D1*
X1136077Y1887015D1*
X1137241Y1885515D1*
X1201741Y1911015D2*
X1198338Y1909515D1*
X1195473Y1908015D1*
X1193019Y1906515D1*
X1190650Y1905015D1*
X1188241Y1903515D1*
X1213741Y1911015D2*
X1217139Y1909515D1*
X1219947Y1908015D1*
X1222162Y1906515D1*
X1223949Y1905015D1*
X1225397Y1903515D1*
X1226542Y1902015D1*
X1227481Y1900515D1*
X1228309Y1899015D1*
X1229038Y1897515D1*
X1229611Y1896015D1*
X1230005Y1894515D1*
X1230367Y1893015D1*
X1230802Y1891515D1*
X1231217Y1890015D1*
X1231490Y1888515D1*
X1231634Y1887015D1*
X1231699Y1885515D1*
X1231725Y1884015D1*
X1231736Y1882515D1*
X1231740Y1881015D1*
X1231735Y1879515D1*
X1231683Y1878015D1*
X1231492Y1876515D1*
X1231127Y1875015D1*
X1230689Y1873515D1*
X1230237Y1872015D1*
X1229732Y1870515D1*
X1229225Y1869015D1*
X1228694Y1867515D1*
X1227988Y1866015D1*
X1227118Y1864515D1*
X1226189Y1863015D1*
X1225116Y1861515D1*
X1223713Y1860015D1*
X1221893Y1858515D1*
X1219610Y1857015D1*
X1216829Y1855515D1*
X1213741Y1854015D1*
X1272241Y1911015D2*
X1268838Y1909515D1*
X1265973Y1908015D1*
X1263519Y1906515D1*
X1261150Y1905015D1*
X1258741Y1903515D1*
X1284241Y1911015D2*
X1287639Y1909515D1*
X1290447Y1908015D1*
X1292662Y1906515D1*
X1294449Y1905015D1*
X1295897Y1903515D1*
X1297042Y1902015D1*
X1297981Y1900515D1*
X1298809Y1899015D1*
X1299538Y1897515D1*
X1300111Y1896015D1*
X1300505Y1894515D1*
X1300867Y1893015D1*
X1301302Y1891515D1*
X1301717Y1890015D1*
X1301990Y1888515D1*
X1302134Y1887015D1*
X1302199Y1885515D1*
X1302225Y1884015D1*
X1302236Y1882515D1*
X1302240Y1881015D1*
X1302235Y1879515D1*
X1302183Y1878015D1*
X1301992Y1876515D1*
X1301627Y1875015D1*
X1301189Y1873515D1*
X1300737Y1872015D1*
X1300232Y1870515D1*
X1299725Y1869015D1*
X1299194Y1867515D1*
X1298488Y1866015D1*
X1297618Y1864515D1*
X1296689Y1863015D1*
X1295616Y1861515D1*
X1294213Y1860015D1*
X1292393Y1858515D1*
X1290110Y1857015D1*
X1287329Y1855515D1*
X1284241Y1854015D1*
X1366741Y1911015D2*
X1362932Y1909515D1*
X1359768Y1908015D1*
X1357226Y1906515D1*
X1355173Y1905015D1*
X1353422Y1903515D1*
X1351867Y1902015D1*
X1350521Y1900515D1*
X1349417Y1899015D1*
X1348494Y1897515D1*
X1347671Y1896015D1*
X1346944Y1894515D1*
X1346372Y1893015D1*
X1345978Y1891515D1*
X1345616Y1890015D1*
X1345181Y1888515D1*
X1344766Y1887015D1*
X1344493Y1885515D1*
X1344349Y1884015D1*
X1344284Y1882515D1*
X1344263Y1881015D1*
X1344306Y1879515D1*
X1344493Y1878015D1*
X1344851Y1876515D1*
X1345241Y1875015D1*
X1345555Y1873515D1*
X1345891Y1872015D1*
X1346373Y1870515D1*
X1347028Y1869015D1*
X1347856Y1867515D1*
X1348801Y1866015D1*
X1349762Y1864515D1*
X1350804Y1863015D1*
X1352069Y1861515D1*
X1353674Y1860015D1*
X1355772Y1858515D1*
X1358468Y1857015D1*
X1361713Y1855515D1*
X1365241Y1854015D1*
X1380241Y1911015D2*
X1383871Y1909515D1*
X1387051Y1908015D1*
X1389660Y1906515D1*
X1391757Y1905015D1*
X1393488Y1903515D1*
X1394911Y1902015D1*
X1396047Y1900515D1*
X1396983Y1899015D1*
X1397810Y1897515D1*
X1398538Y1896015D1*
X1399111Y1894515D1*
X1399505Y1893015D1*
X1399867Y1891515D1*
X1400302Y1890015D1*
X1400717Y1888515D1*
X1400990Y1887015D1*
X1401134Y1885515D1*
X1401199Y1884015D1*
X1401226Y1882515D1*
X1401236Y1881015D1*
X1401241Y1879515D1*
X1539241Y1911015D2*
X1535432Y1909515D1*
X1532268Y1908015D1*
X1529726Y1906515D1*
X1527673Y1905015D1*
X1525922Y1903515D1*
X1524367Y1902015D1*
X1523021Y1900515D1*
X1521917Y1899015D1*
X1520994Y1897515D1*
X1520171Y1896015D1*
X1519444Y1894515D1*
X1518872Y1893015D1*
X1518478Y1891515D1*
X1518116Y1890015D1*
X1517681Y1888515D1*
X1517266Y1887015D1*
X1516993Y1885515D1*
X1516849Y1884015D1*
X1516784Y1882515D1*
X1516763Y1881015D1*
X1516806Y1879515D1*
X1516993Y1878015D1*
X1517351Y1876515D1*
X1517741Y1875015D1*
X1518055Y1873515D1*
X1518391Y1872015D1*
X1518873Y1870515D1*
X1519528Y1869015D1*
X1520356Y1867515D1*
X1521301Y1866015D1*
X1522262Y1864515D1*
X1523304Y1863015D1*
X1524569Y1861515D1*
X1526174Y1860015D1*
X1528272Y1858515D1*
X1530968Y1857015D1*
X1534213Y1855515D1*
X1537741Y1854015D1*
X1552741Y1911015D2*
X1556371Y1909515D1*
X1559551Y1908015D1*
X1562160Y1906515D1*
X1564257Y1905015D1*
X1565988Y1903515D1*
X1567411Y1902015D1*
X1568547Y1900515D1*
X1569483Y1899015D1*
X1570310Y1897515D1*
X1571038Y1896015D1*
X1571611Y1894515D1*
X1572005Y1893015D1*
X1572367Y1891515D1*
X1572802Y1890015D1*
X1573217Y1888515D1*
X1573490Y1887015D1*
X1573634Y1885515D1*
X1573699Y1884015D1*
X1573726Y1882515D1*
X1573736Y1881015D1*
X1573741Y1879515D1*
X1173241Y1909515D2*
Y1908015D1*
Y1906515D1*
Y1905015D1*
Y1903515D1*
Y1902015D1*
Y1900515D1*
Y1899015D1*
Y1897515D1*
Y1896015D1*
Y1894515D1*
Y1893015D1*
Y1891515D1*
Y1890015D1*
Y1888515D1*
Y1887015D1*
Y1885515D1*
Y1884015D1*
Y1882515D1*
Y1881015D1*
Y1879515D1*
Y1878015D1*
Y1876515D1*
Y1875015D1*
Y1873515D1*
Y1872015D1*
Y1870515D1*
Y1869015D1*
Y1867515D1*
Y1866015D1*
Y1864515D1*
Y1863015D1*
Y1861515D1*
Y1860015D1*
Y1858515D1*
Y1857015D1*
Y1855515D1*
Y1854015D1*
Y1852515D1*
Y1851015D1*
Y1849515D1*
Y1848015D1*
Y1846515D1*
Y1845015D1*
Y1843515D1*
Y1842015D1*
Y1840515D1*
Y1839015D1*
Y1837515D1*
Y1836015D1*
Y1834515D1*
Y1833015D1*
Y1831515D1*
Y1830015D1*
X1188241Y1909515D2*
X1188303Y1908015D1*
X1188536Y1906515D1*
X1189049Y1905015D1*
X1189741Y1903515D1*
X1243741Y1909515D2*
Y1908015D1*
Y1906515D1*
Y1905015D1*
Y1903515D1*
Y1902015D1*
Y1900515D1*
Y1899015D1*
Y1897515D1*
Y1896015D1*
Y1894515D1*
Y1893015D1*
Y1891515D1*
Y1890015D1*
Y1888515D1*
Y1887015D1*
Y1885515D1*
Y1884015D1*
Y1882515D1*
Y1881015D1*
Y1879515D1*
Y1878015D1*
Y1876515D1*
Y1875015D1*
Y1873515D1*
Y1872015D1*
Y1870515D1*
Y1869015D1*
Y1867515D1*
Y1866015D1*
Y1864515D1*
Y1863015D1*
Y1861515D1*
Y1860015D1*
Y1858515D1*
Y1857015D1*
Y1855515D1*
Y1854015D1*
Y1852515D1*
Y1851015D1*
Y1849515D1*
Y1848015D1*
Y1846515D1*
Y1845015D1*
Y1843515D1*
Y1842015D1*
Y1840515D1*
Y1839015D1*
Y1837515D1*
Y1836015D1*
Y1834515D1*
Y1833015D1*
Y1831515D1*
Y1830015D1*
X1258741Y1909515D2*
X1258803Y1908015D1*
X1259036Y1906515D1*
X1259549Y1905015D1*
X1260241Y1903515D1*
X1578241Y1909515D2*
X1578760Y1908015D1*
X1579259Y1906515D1*
X1579741Y1905015D1*
X1580300Y1903515D1*
X1580942Y1902015D1*
X1581595Y1900515D1*
X1582182Y1899015D1*
X1582708Y1897515D1*
X1583287Y1896015D1*
X1583937Y1894515D1*
X1584594Y1893015D1*
X1585182Y1891515D1*
X1585708Y1890015D1*
X1586287Y1888515D1*
X1586937Y1887015D1*
X1587594Y1885515D1*
X1588182Y1884015D1*
X1588708Y1882515D1*
X1589287Y1881015D1*
X1589937Y1879515D1*
X1590594Y1878015D1*
X1591182Y1876515D1*
X1591708Y1875015D1*
X1592287Y1873515D1*
X1592943Y1872015D1*
X1593647Y1870515D1*
X1594373Y1869015D1*
X1595067Y1867515D1*
X1595672Y1866015D1*
X1596204Y1864515D1*
X1596786Y1863015D1*
X1597436Y1861515D1*
X1598088Y1860015D1*
X1598627Y1858515D1*
X1598982Y1857015D1*
X1599241Y1855515D1*
X1594741Y1909515D2*
X1595491Y1908015D1*
X1596114Y1906515D1*
X1596697Y1905015D1*
X1597232Y1903515D1*
X1597723Y1902015D1*
X1598243Y1900515D1*
X1598749Y1899015D1*
X1599230Y1897515D1*
X1599745Y1896015D1*
X1600250Y1894515D1*
X1600730Y1893015D1*
X1601239Y1891515D1*
X1601697Y1890015D1*
X1602039Y1888515D1*
X1602380Y1887015D1*
X1602812Y1885515D1*
X1603277Y1884015D1*
X1603741Y1882515D1*
X1604249Y1881015D1*
X1604751Y1879515D1*
X1605236Y1878015D1*
X1605802Y1876515D1*
X1606490Y1875015D1*
X1607316Y1873515D1*
X1608241Y1872015D1*
X1620241Y1909515D2*
X1619723Y1908015D1*
X1619224Y1906515D1*
X1618748Y1905015D1*
X1618236Y1903515D1*
X1617733Y1902015D1*
X1617253Y1900515D1*
X1616738Y1899015D1*
X1616233Y1897515D1*
X1615753Y1896015D1*
X1615238Y1894515D1*
X1614733Y1893015D1*
X1614253Y1891515D1*
X1613738Y1890015D1*
X1613233Y1888515D1*
X1612753Y1887015D1*
X1612238Y1885515D1*
X1611733Y1884015D1*
X1611253Y1882515D1*
X1610744Y1881015D1*
X1610292Y1879515D1*
X1609997Y1878015D1*
X1609790Y1876515D1*
X1609491Y1875015D1*
X1608949Y1873515D1*
X1608241Y1872015D1*
X1636741Y1909515D2*
X1636504Y1908015D1*
X1636079Y1906515D1*
X1635500Y1905015D1*
X1634872Y1903515D1*
X1634295Y1902015D1*
X1633773Y1900515D1*
X1633195Y1899015D1*
X1632546Y1897515D1*
X1631889Y1896015D1*
X1631301Y1894515D1*
X1630775Y1893015D1*
X1630196Y1891515D1*
X1629540Y1890015D1*
X1628836Y1888515D1*
X1628110Y1887015D1*
X1627416Y1885515D1*
X1626811Y1884015D1*
X1626279Y1882515D1*
X1625697Y1881015D1*
X1625046Y1879515D1*
X1624389Y1878015D1*
X1623801Y1876515D1*
X1623275Y1875015D1*
X1622696Y1873515D1*
X1622046Y1872015D1*
X1621389Y1870515D1*
X1620801Y1869015D1*
X1620275Y1867515D1*
X1619696Y1866015D1*
X1619046Y1864515D1*
X1618389Y1863015D1*
X1617801Y1861515D1*
X1617280Y1860015D1*
X1616741Y1858515D1*
X1616217Y1857015D1*
X1615741Y1855515D1*
X898741Y1905015D2*
Y1903515D1*
Y1902015D1*
Y1900515D1*
Y1899015D1*
Y1897515D1*
Y1896015D1*
Y1894515D1*
Y1893015D1*
Y1891515D1*
X1200241Y1900515D2*
X1197362Y1899015D1*
X1194805Y1897515D1*
X1192779Y1896015D1*
X1191216Y1894515D1*
X1189983Y1893015D1*
X1189125Y1891515D1*
X1188635Y1890015D1*
X1188348Y1888515D1*
X1188055Y1887015D1*
X1187662Y1885515D1*
X1187315Y1884015D1*
X1187239Y1882515D1*
X1187457Y1881015D1*
X1187783Y1879515D1*
X1188071Y1878015D1*
X1188397Y1876515D1*
X1188875Y1875015D1*
X1189546Y1873515D1*
X1190369Y1872015D1*
X1192030Y1870515D1*
X1196343Y1869015D1*
X1202855Y1867515D1*
X1210741Y1866015D1*
X1201741Y1900515D2*
X1205646Y1899015D1*
X1208848Y1897515D1*
X1211155Y1896015D1*
X1212731Y1894515D1*
X1213860Y1893015D1*
X1214764Y1891515D1*
X1215522Y1890015D1*
X1216099Y1888515D1*
X1216444Y1887015D1*
X1216617Y1885515D1*
X1216693Y1884015D1*
X1216718Y1882515D1*
X1216676Y1881015D1*
X1216484Y1879515D1*
X1216073Y1878015D1*
X1215492Y1876515D1*
X1214813Y1875015D1*
X1214033Y1873515D1*
X1213005Y1872015D1*
X1211666Y1870515D1*
X1208034Y1869015D1*
X1202499Y1867515D1*
X1195741Y1866015D1*
X1270741Y1900515D2*
X1267862Y1899015D1*
X1265305Y1897515D1*
X1263279Y1896015D1*
X1261716Y1894515D1*
X1260483Y1893015D1*
X1259625Y1891515D1*
X1259135Y1890015D1*
X1258848Y1888515D1*
X1258555Y1887015D1*
X1258162Y1885515D1*
X1257815Y1884015D1*
X1257739Y1882515D1*
X1257957Y1881015D1*
X1258283Y1879515D1*
X1258571Y1878015D1*
X1258897Y1876515D1*
X1259375Y1875015D1*
X1260046Y1873515D1*
X1260869Y1872015D1*
X1262530Y1870515D1*
X1266843Y1869015D1*
X1273355Y1867515D1*
X1281241Y1866015D1*
X1272241Y1900515D2*
X1276146Y1899015D1*
X1279348Y1897515D1*
X1281655Y1896015D1*
X1283231Y1894515D1*
X1284360Y1893015D1*
X1285264Y1891515D1*
X1286022Y1890015D1*
X1286599Y1888515D1*
X1286944Y1887015D1*
X1287117Y1885515D1*
X1287193Y1884015D1*
X1287218Y1882515D1*
X1287176Y1881015D1*
X1286984Y1879515D1*
X1286573Y1878015D1*
X1285992Y1876515D1*
X1285313Y1875015D1*
X1284533Y1873515D1*
X1283505Y1872015D1*
X1282166Y1870515D1*
X1278534Y1869015D1*
X1272999Y1867515D1*
X1266241Y1866015D1*
X1371241Y1900515D2*
X1368536Y1899015D1*
X1366165Y1897515D1*
X1364221Y1896015D1*
X1362721Y1894515D1*
X1361666Y1893015D1*
X1360869Y1891515D1*
X1360004Y1890015D1*
X1358930Y1888515D1*
X1357741Y1887015D1*
X1375741Y1900515D2*
X1378390Y1899015D1*
X1380569Y1897515D1*
X1382159Y1896015D1*
X1383321Y1894515D1*
X1384247Y1893015D1*
X1385015Y1891515D1*
X1385601Y1890015D1*
X1385973Y1888515D1*
X1386241Y1887015D1*
X1543741Y1900515D2*
X1541036Y1899015D1*
X1538665Y1897515D1*
X1536721Y1896015D1*
X1535221Y1894515D1*
X1534166Y1893015D1*
X1533369Y1891515D1*
X1532504Y1890015D1*
X1531430Y1888515D1*
X1530241Y1887015D1*
X1548241Y1900515D2*
X1550890Y1899015D1*
X1553069Y1897515D1*
X1554659Y1896015D1*
X1555821Y1894515D1*
X1556747Y1893015D1*
X1557515Y1891515D1*
X1558101Y1890015D1*
X1558473Y1888515D1*
X1558741Y1887015D1*
X1467241Y1893015D2*
Y1891515D1*
Y1890015D1*
Y1888515D1*
Y1887015D1*
Y1885515D1*
Y1884015D1*
Y1882515D1*
Y1881015D1*
Y1879515D1*
Y1878015D1*
Y1876515D1*
Y1875015D1*
Y1873515D1*
Y1872015D1*
Y1870515D1*
Y1869015D1*
Y1867515D1*
Y1866015D1*
Y1864515D1*
Y1863015D1*
Y1861515D1*
Y1860015D1*
Y1858515D1*
Y1857015D1*
Y1855515D1*
X1470241Y1893015D2*
X1470530Y1891515D1*
X1471100Y1890015D1*
X1471901Y1888515D1*
X1472745Y1887015D1*
X1473558Y1885515D1*
X1474343Y1884015D1*
X1475106Y1882515D1*
X1475864Y1881015D1*
X1476621Y1879515D1*
X1477419Y1878015D1*
X1478313Y1876515D1*
X1479279Y1875015D1*
X1480197Y1873515D1*
X1481041Y1872015D1*
X1481837Y1870515D1*
X1482610Y1869015D1*
X1483416Y1867515D1*
X1484311Y1866015D1*
X1485279Y1864515D1*
X1486197Y1863015D1*
X1487041Y1861515D1*
X1487832Y1860015D1*
X1488561Y1858515D1*
X1489193Y1857015D1*
X1489741Y1855515D1*
X867241Y1891515D2*
Y1890015D1*
Y1888515D1*
Y1887015D1*
Y1885515D1*
Y1884015D1*
Y1882515D1*
Y1881015D1*
Y1879515D1*
Y1878015D1*
Y1876515D1*
Y1875015D1*
Y1873515D1*
Y1872015D1*
Y1870515D1*
Y1869015D1*
Y1867515D1*
Y1866015D1*
Y1864515D1*
Y1863015D1*
Y1861515D1*
Y1860015D1*
Y1858515D1*
Y1857015D1*
Y1855515D1*
X1359241Y1879515D2*
X1359473Y1878015D1*
X1359851Y1876515D1*
X1360298Y1875015D1*
X1360810Y1873515D1*
X1361565Y1872015D1*
X1362716Y1870515D1*
X1364194Y1869015D1*
X1367889Y1867515D1*
X1373460Y1866015D1*
X1380241Y1864515D1*
X1531741Y1879515D2*
X1531973Y1878015D1*
X1532351Y1876515D1*
X1532798Y1875015D1*
X1533310Y1873515D1*
X1534065Y1872015D1*
X1535216Y1870515D1*
X1536694Y1869015D1*
X1540389Y1867515D1*
X1545960Y1866015D1*
X1552741Y1864515D1*
X1002241Y1873515D2*
X999517Y1872015D1*
X997044Y1870515D1*
X994741Y1869015D1*
X995491Y1867515D1*
X996120Y1866015D1*
X996756Y1864515D1*
X997487Y1863015D1*
X998403Y1861515D1*
X999609Y1860015D1*
X1001182Y1858515D1*
X1003209Y1857015D1*
X1005636Y1855515D1*
X1008241Y1854015D1*
X1006741Y1873515D2*
X1007975Y1872015D1*
X1009523Y1870515D1*
X1013092Y1869015D1*
X1017241Y1867515D1*
X1105741Y1873515D2*
X1105684Y1872015D1*
X1105492Y1870515D1*
X1105127Y1869015D1*
X1104689Y1867515D1*
X1104237Y1866015D1*
X1103732Y1864515D1*
X1103231Y1863015D1*
X1102752Y1861515D1*
X1102244Y1860015D1*
X1101788Y1858515D1*
X1101475Y1857015D1*
X1101241Y1855515D1*
X1140241Y1873515D2*
X1140473Y1872015D1*
X1140851Y1870515D1*
X1141292Y1869015D1*
X1141746Y1867515D1*
X1142251Y1866015D1*
X1142752Y1864515D1*
X1143237Y1863015D1*
X1143798Y1861515D1*
X1144442Y1860015D1*
X1145104Y1858515D1*
X1145708Y1857015D1*
X1146241Y1855515D1*
X1386241Y1872015D2*
X1384643Y1870515D1*
X1382550Y1869015D1*
X1379055Y1867515D1*
X1373519Y1866015D1*
X1366741Y1864515D1*
X1387741Y1872015D2*
X1390037Y1870515D1*
X1392483Y1869015D1*
X1394707Y1867515D1*
X1396510Y1866015D1*
X1397228Y1864515D1*
X1396217Y1863015D1*
X1394947Y1861515D1*
X1393329Y1860015D1*
X1391221Y1858515D1*
X1388519Y1857015D1*
X1385271Y1855515D1*
X1381741Y1854015D1*
X1558741Y1872015D2*
X1557143Y1870515D1*
X1555050Y1869015D1*
X1551555Y1867515D1*
X1546019Y1866015D1*
X1539241Y1864515D1*
X1560241Y1872015D2*
X1562537Y1870515D1*
X1564983Y1869015D1*
X1567207Y1867515D1*
X1569010Y1866015D1*
X1569728Y1864515D1*
X1568717Y1863015D1*
X1567447Y1861515D1*
X1565829Y1860015D1*
X1563721Y1858515D1*
X1561019Y1857015D1*
X1557771Y1855515D1*
X1554241Y1854015D1*
X1188241Y1861515D2*
Y1860015D1*
Y1858515D1*
Y1857015D1*
Y1855515D1*
Y1854015D1*
Y1852515D1*
Y1851015D1*
Y1849515D1*
Y1848015D1*
Y1846515D1*
Y1845015D1*
Y1843515D1*
Y1842015D1*
Y1840515D1*
Y1839015D1*
Y1837515D1*
Y1836015D1*
Y1834515D1*
Y1833015D1*
Y1831515D1*
Y1830015D1*
X1189741Y1861515D2*
X1191310Y1860015D1*
X1193118Y1858515D1*
X1195454Y1857015D1*
X1198426Y1855515D1*
X1201741Y1854015D1*
X1258741Y1861515D2*
Y1860015D1*
Y1858515D1*
Y1857015D1*
Y1855515D1*
Y1854015D1*
Y1852515D1*
Y1851015D1*
Y1849515D1*
Y1848015D1*
Y1846515D1*
Y1845015D1*
Y1843515D1*
Y1842015D1*
Y1840515D1*
Y1839015D1*
Y1837515D1*
Y1836015D1*
Y1834515D1*
Y1833015D1*
Y1831515D1*
Y1830015D1*
X1260241Y1861515D2*
X1261810Y1860015D1*
X1263618Y1858515D1*
X1265954Y1857015D1*
X1268926Y1855515D1*
X1272241Y1854015D1*
X1236113Y884290D2*
Y882790D1*
X1236107Y881290D1*
X1236013Y879790D1*
X1235767Y878290D1*
X1234137Y876790D1*
X1229568Y875290D1*
X1224113Y873790D1*
Y872290D1*
Y870790D1*
Y869290D1*
Y867790D1*
Y866290D1*
Y864790D1*
Y863290D1*
X1213613D1*
Y861790D1*
Y860290D1*
Y858790D1*
Y857290D1*
Y855790D1*
Y854290D1*
Y852790D1*
Y851290D1*
Y849790D1*
Y848290D1*
Y846790D1*
Y845290D1*
Y843790D1*
Y842290D1*
Y840790D1*
Y839290D1*
Y837790D1*
Y836290D1*
Y834790D1*
Y833290D1*
Y831790D1*
Y830290D1*
Y828790D1*
Y827290D1*
Y825790D1*
Y824290D1*
Y822790D1*
Y821290D1*
Y819790D1*
Y818290D1*
Y816790D1*
Y815290D1*
Y813790D1*
Y812290D1*
Y810790D1*
X1245113Y884290D2*
Y882790D1*
Y881290D1*
Y879790D1*
Y878290D1*
Y876790D1*
Y875290D1*
Y873790D1*
X1234613D1*
Y872290D1*
Y870790D1*
Y869290D1*
Y867790D1*
Y866290D1*
Y864790D1*
Y863290D1*
X1224113D1*
Y861790D1*
Y860290D1*
Y858790D1*
Y857290D1*
Y855790D1*
Y854290D1*
Y852790D1*
Y851290D1*
Y849790D1*
Y848290D1*
Y846790D1*
Y845290D1*
Y843790D1*
Y842290D1*
X1449113Y884290D2*
Y882790D1*
Y881290D1*
Y879790D1*
Y878290D1*
Y876790D1*
Y875290D1*
X1454473Y873790D1*
X1458563Y872290D1*
X1460139Y870790D1*
X1460667Y869290D1*
X1460934Y867790D1*
X1461046Y866290D1*
X1461089Y864790D1*
X1461105Y863290D1*
X1461110Y861790D1*
X1461112Y860290D1*
X1461113Y858790D1*
Y857290D1*
Y855790D1*
Y854290D1*
Y852790D1*
Y851290D1*
Y849790D1*
Y848290D1*
Y846790D1*
Y845290D1*
Y843790D1*
Y842290D1*
Y840790D1*
Y839290D1*
Y837790D1*
Y836290D1*
Y834790D1*
Y833290D1*
Y831790D1*
Y830290D1*
Y828790D1*
X1461107Y827290D1*
X1461013Y825790D1*
X1460767Y824290D1*
X1459137Y822790D1*
X1454568Y821290D1*
X1449113Y819790D1*
Y818290D1*
Y816790D1*
Y815290D1*
Y813790D1*
Y812290D1*
Y810790D1*
X1470113Y884290D2*
Y882790D1*
Y881290D1*
Y879790D1*
Y878290D1*
Y876790D1*
Y875290D1*
Y873790D1*
Y872290D1*
Y870790D1*
Y869290D1*
Y867790D1*
Y866290D1*
Y864790D1*
Y863290D1*
Y861790D1*
Y860290D1*
Y858790D1*
Y857290D1*
Y855790D1*
Y854290D1*
Y852790D1*
Y851290D1*
Y849790D1*
Y848290D1*
Y846790D1*
Y845290D1*
Y843790D1*
Y842290D1*
Y840790D1*
Y839290D1*
Y837790D1*
Y836290D1*
Y834790D1*
Y833290D1*
Y831790D1*
Y830290D1*
Y828790D1*
Y827290D1*
Y825790D1*
Y824290D1*
Y822790D1*
Y821290D1*
Y819790D1*
X1480613D1*
Y818290D1*
Y816790D1*
Y815290D1*
Y813790D1*
Y812290D1*
Y810790D1*
X1663613Y884290D2*
Y882790D1*
Y881290D1*
Y879790D1*
Y878290D1*
Y876790D1*
Y875290D1*
X1716113Y884290D2*
Y882790D1*
Y881290D1*
Y879790D1*
Y878290D1*
Y876790D1*
Y875290D1*
Y873790D1*
Y872290D1*
Y870790D1*
Y869290D1*
Y867790D1*
Y866290D1*
Y864790D1*
Y863290D1*
Y861790D1*
Y860290D1*
Y858790D1*
Y857290D1*
Y855790D1*
Y854290D1*
Y852790D1*
Y851290D1*
Y849790D1*
Y848290D1*
Y846790D1*
Y845290D1*
Y843790D1*
Y842290D1*
Y840790D1*
Y839290D1*
Y837790D1*
Y836290D1*
Y834790D1*
Y833290D1*
Y831790D1*
Y830290D1*
Y828790D1*
Y827290D1*
Y825790D1*
Y824290D1*
Y822790D1*
Y821290D1*
Y819790D1*
Y818290D1*
Y816790D1*
Y815290D1*
Y813790D1*
Y812290D1*
Y810790D1*
X1738613Y884290D2*
Y882790D1*
Y881290D1*
Y879790D1*
Y878290D1*
Y876790D1*
Y875290D1*
Y873790D1*
Y872290D1*
Y870790D1*
Y869290D1*
Y867790D1*
Y866290D1*
Y864790D1*
Y863290D1*
Y861790D1*
Y860290D1*
Y858790D1*
Y857290D1*
Y855790D1*
Y854290D1*
Y852790D1*
Y851290D1*
Y849790D1*
Y848290D1*
Y846790D1*
Y845290D1*
Y843790D1*
Y842290D1*
Y840790D1*
Y839290D1*
Y837790D1*
Y836290D1*
Y834790D1*
Y833290D1*
Y831790D1*
Y830290D1*
Y828790D1*
Y827290D1*
Y825790D1*
Y824290D1*
Y822790D1*
Y821290D1*
Y819790D1*
Y818290D1*
Y816790D1*
Y815290D1*
Y813790D1*
Y812290D1*
Y810790D1*
X1791113Y884290D2*
Y882790D1*
Y881290D1*
Y879790D1*
Y878290D1*
Y876790D1*
Y875290D1*
X1246613Y873790D2*
Y872290D1*
Y870790D1*
Y869290D1*
Y867790D1*
Y866290D1*
Y864790D1*
Y863290D1*
X1257113D1*
Y861790D1*
Y860290D1*
Y858790D1*
Y857290D1*
Y855790D1*
Y854290D1*
Y852790D1*
Y851290D1*
Y849790D1*
Y848290D1*
Y846790D1*
Y845290D1*
Y843790D1*
Y842290D1*
X1255613Y873790D2*
Y872290D1*
Y870790D1*
Y869290D1*
Y867790D1*
Y866290D1*
Y864790D1*
X1696613Y875290D2*
Y873790D1*
Y872290D1*
Y870790D1*
Y869290D1*
Y867790D1*
Y866290D1*
Y864790D1*
Y863290D1*
Y861790D1*
Y860290D1*
Y858790D1*
Y857290D1*
Y855790D1*
Y854290D1*
Y852790D1*
Y851290D1*
Y849790D1*
Y848290D1*
Y846790D1*
Y845290D1*
Y843790D1*
Y842290D1*
Y840790D1*
Y839290D1*
Y837790D1*
Y836290D1*
Y834790D1*
Y833290D1*
Y831790D1*
Y830290D1*
Y828790D1*
Y827290D1*
Y825790D1*
Y824290D1*
Y822790D1*
Y821290D1*
Y819790D1*
X1759613Y875290D2*
Y873790D1*
Y872290D1*
Y870790D1*
Y869290D1*
Y867790D1*
Y866290D1*
Y864790D1*
Y863290D1*
Y861790D1*
Y860290D1*
Y858790D1*
Y857290D1*
Y855790D1*
Y854290D1*
Y852790D1*
Y851290D1*
Y849790D1*
Y848290D1*
Y846790D1*
Y845290D1*
Y843790D1*
Y842290D1*
Y840790D1*
Y839290D1*
Y837790D1*
Y836290D1*
Y834790D1*
Y833290D1*
Y831790D1*
Y830290D1*
Y828790D1*
Y827290D1*
Y825790D1*
Y824290D1*
Y822790D1*
Y821290D1*
Y819790D1*
X1266113Y863290D2*
Y861790D1*
Y860290D1*
Y858790D1*
Y857290D1*
Y855790D1*
Y854290D1*
Y852790D1*
Y851290D1*
Y849790D1*
Y848290D1*
Y846790D1*
Y845290D1*
Y843790D1*
Y842290D1*
Y840790D1*
Y839290D1*
Y837790D1*
Y836290D1*
Y834790D1*
Y833290D1*
Y831790D1*
Y830290D1*
Y828790D1*
Y827290D1*
Y825790D1*
Y824290D1*
Y822790D1*
Y821290D1*
Y819790D1*
Y818290D1*
Y816790D1*
Y815290D1*
Y813790D1*
Y812290D1*
Y810790D1*
X1288613Y863290D2*
Y861790D1*
Y860290D1*
Y858790D1*
Y857290D1*
Y855790D1*
Y854290D1*
Y852790D1*
Y851290D1*
Y849790D1*
Y848290D1*
Y846790D1*
Y845290D1*
Y843790D1*
Y842290D1*
Y840790D1*
Y839290D1*
Y837790D1*
Y836290D1*
Y834790D1*
Y833290D1*
Y831790D1*
Y830290D1*
Y828790D1*
Y827290D1*
Y825790D1*
Y824290D1*
Y822790D1*
Y821290D1*
Y819790D1*
Y818290D1*
Y816790D1*
Y815290D1*
Y813790D1*
Y812290D1*
Y810790D1*
Y809290D1*
Y807790D1*
Y806290D1*
Y804790D1*
Y803290D1*
Y801790D1*
Y800290D1*
X1330613Y863290D2*
Y861790D1*
Y860290D1*
Y858790D1*
Y857290D1*
Y855790D1*
Y854290D1*
X1363613Y863290D2*
Y861790D1*
Y860290D1*
Y858790D1*
Y857290D1*
Y855790D1*
Y854290D1*
Y852790D1*
Y851290D1*
Y849790D1*
Y848290D1*
Y846790D1*
Y845290D1*
Y843790D1*
Y842290D1*
Y840790D1*
Y839290D1*
Y837790D1*
Y836290D1*
Y834790D1*
Y833290D1*
Y831790D1*
Y830290D1*
Y828790D1*
Y827290D1*
Y825790D1*
Y824290D1*
Y822790D1*
Y821290D1*
Y819790D1*
Y818290D1*
Y816790D1*
Y815290D1*
Y813790D1*
Y812290D1*
Y810790D1*
Y809290D1*
Y807790D1*
Y806290D1*
Y804790D1*
Y803290D1*
Y801790D1*
Y800290D1*
X1405613Y863290D2*
Y861790D1*
Y860290D1*
Y858790D1*
Y857290D1*
Y855790D1*
Y854290D1*
X1524113Y863290D2*
Y861790D1*
Y860290D1*
Y858790D1*
Y857290D1*
Y855790D1*
Y854290D1*
Y852790D1*
X1513613D1*
Y851290D1*
Y849790D1*
Y848290D1*
Y846790D1*
Y845290D1*
Y843790D1*
Y842290D1*
Y840790D1*
Y839290D1*
Y837790D1*
Y836290D1*
Y834790D1*
Y833290D1*
Y831790D1*
Y830290D1*
Y828790D1*
X1513619Y827290D1*
X1513707Y825790D1*
X1513935Y824290D1*
X1515280Y822790D1*
X1518150Y821290D1*
X1520802Y819790D1*
X1522846Y818290D1*
X1523513Y816790D1*
X1523864Y815290D1*
X1524018Y813790D1*
X1524080Y812290D1*
X1524113Y810790D1*
X1555613Y863290D2*
Y861790D1*
Y860290D1*
Y858790D1*
Y857290D1*
Y855790D1*
Y854290D1*
X1299113D2*
Y852790D1*
Y851290D1*
Y849790D1*
Y848290D1*
Y846790D1*
Y845290D1*
Y843790D1*
Y842290D1*
Y840790D1*
Y839290D1*
Y837790D1*
Y836290D1*
Y834790D1*
Y833290D1*
Y831790D1*
X1332113Y852790D2*
Y851290D1*
Y849790D1*
Y848290D1*
Y846790D1*
Y845290D1*
Y843790D1*
Y842290D1*
Y840790D1*
Y839290D1*
Y837790D1*
Y836290D1*
Y834790D1*
Y833290D1*
X1341113Y852790D2*
Y851290D1*
Y849790D1*
Y848290D1*
Y846790D1*
Y845290D1*
Y843790D1*
Y842290D1*
Y840790D1*
Y839290D1*
Y837790D1*
Y836290D1*
Y834790D1*
Y833290D1*
Y831790D1*
X1330613D1*
Y830290D1*
Y828790D1*
Y827290D1*
Y825790D1*
Y824290D1*
Y822790D1*
X1374113Y854290D2*
Y852790D1*
Y851290D1*
Y849790D1*
Y848290D1*
Y846790D1*
Y845290D1*
Y843790D1*
Y842290D1*
Y840790D1*
Y839290D1*
Y837790D1*
Y836290D1*
Y834790D1*
Y833290D1*
Y831790D1*
X1407113Y852790D2*
Y851290D1*
Y849790D1*
Y848290D1*
Y846790D1*
Y845290D1*
Y843790D1*
Y842290D1*
Y840790D1*
Y839290D1*
Y837790D1*
Y836290D1*
Y834790D1*
Y833290D1*
X1416113Y852790D2*
Y851290D1*
Y849790D1*
Y848290D1*
Y846790D1*
Y845290D1*
Y843790D1*
Y842290D1*
Y840790D1*
Y839290D1*
Y837790D1*
Y836290D1*
Y834790D1*
Y833290D1*
Y831790D1*
X1405613D1*
Y830290D1*
Y828790D1*
Y827290D1*
Y825790D1*
Y824290D1*
Y822790D1*
X1524113Y852790D2*
Y851290D1*
Y849790D1*
Y848290D1*
Y846790D1*
Y845290D1*
Y843790D1*
Y842290D1*
X1557113Y852790D2*
Y851290D1*
Y849790D1*
Y848290D1*
Y846790D1*
Y845290D1*
Y843790D1*
Y842290D1*
X1566113Y852790D2*
Y851290D1*
Y849790D1*
Y848290D1*
Y846790D1*
Y845290D1*
Y843790D1*
Y842290D1*
Y840790D1*
Y839290D1*
Y837790D1*
Y836290D1*
Y834790D1*
Y833290D1*
X1224113D2*
Y831790D1*
Y830290D1*
Y828790D1*
Y827290D1*
Y825790D1*
Y824290D1*
Y822790D1*
Y821290D1*
Y819790D1*
Y818290D1*
Y816790D1*
Y815290D1*
Y813790D1*
Y812290D1*
Y810790D1*
X1257113Y833290D2*
Y831790D1*
Y830290D1*
Y828790D1*
Y827290D1*
Y825790D1*
Y824290D1*
Y822790D1*
Y821290D1*
Y819790D1*
Y818290D1*
Y816790D1*
Y815290D1*
Y813790D1*
Y812290D1*
Y810790D1*
X1524113Y833290D2*
Y831790D1*
Y830290D1*
Y828790D1*
Y827290D1*
Y825790D1*
Y824290D1*
Y822790D1*
Y821290D1*
Y819790D1*
X1299113Y822790D2*
Y821290D1*
Y819790D1*
Y818290D1*
Y816790D1*
Y815290D1*
Y813790D1*
Y812290D1*
Y810790D1*
Y809290D1*
Y807790D1*
Y806290D1*
Y804790D1*
Y803290D1*
Y801790D1*
Y800290D1*
X1374113Y822790D2*
Y821290D1*
Y819790D1*
Y818290D1*
Y816790D1*
Y815290D1*
Y813790D1*
Y812290D1*
Y810790D1*
Y809290D1*
Y807790D1*
Y806290D1*
Y804790D1*
Y803290D1*
Y801790D1*
Y800290D1*
X1566113Y819790D2*
Y818290D1*
Y816790D1*
Y815290D1*
Y813790D1*
Y812290D1*
Y810790D1*
X1663613Y819790D2*
Y818290D1*
Y816790D1*
Y815290D1*
Y813790D1*
Y812290D1*
Y810790D1*
X1791113Y819790D2*
Y818290D1*
Y816790D1*
Y815290D1*
Y813790D1*
Y812290D1*
Y810790D1*
X3360676Y1821951D2*
X3357279Y1820451D1*
X3354471Y1818951D1*
X3352256Y1817451D1*
X3350469Y1815951D1*
X3349021Y1814451D1*
X3347882Y1812951D1*
X3346990Y1811451D1*
X3346300Y1809951D1*
X3345739Y1808451D1*
X3345198Y1806951D1*
X3344734Y1805451D1*
X3344440Y1803951D1*
X3344289Y1802451D1*
X3344227Y1800951D1*
X3344251Y1799451D1*
X3344432Y1797951D1*
X3344793Y1796451D1*
X3345229Y1794951D1*
X3345687Y1793451D1*
X3346244Y1791951D1*
X3346942Y1790451D1*
X3347839Y1788951D1*
X3348988Y1787451D1*
X3350369Y1785951D1*
X3352040Y1784451D1*
X3354112Y1782951D1*
X3356559Y1781451D1*
X3359176Y1779951D1*
X3368176Y1821951D2*
Y1820451D1*
Y1818951D1*
Y1817451D1*
Y1815951D1*
Y1814451D1*
Y1812951D1*
Y1811451D1*
Y1809951D1*
Y1808451D1*
Y1806951D1*
Y1805451D1*
Y1803951D1*
Y1802451D1*
Y1800951D1*
Y1799451D1*
Y1797951D1*
Y1796451D1*
Y1794951D1*
X3368182Y1793451D1*
X3368247Y1791951D1*
X3368405Y1790451D1*
X3369156Y1788951D1*
X3370803Y1787451D1*
X3372676Y1785951D1*
X3377176Y1820451D2*
X3376418Y1818951D1*
X3376200Y1817451D1*
X3376750Y1815951D1*
X3378194Y1814451D1*
X3379790Y1812951D1*
X3381246Y1811451D1*
X3382423Y1809951D1*
X3383336Y1808451D1*
X3383985Y1806951D1*
X3384361Y1805451D1*
X3384545Y1803951D1*
X3384625Y1802451D1*
X3384652Y1800951D1*
X3384611Y1799451D1*
X3384419Y1797951D1*
X3384002Y1796451D1*
X3383368Y1794951D1*
X3382480Y1793451D1*
X3381166Y1791951D1*
X3379042Y1790451D1*
X3375578Y1788951D1*
X3370721Y1787451D1*
X3365176Y1785951D1*
X3380176Y1820451D2*
X3381957Y1818951D1*
X3383526Y1817451D1*
X3384869Y1815951D1*
X3386057Y1814451D1*
X3387065Y1812951D1*
X3387895Y1811451D1*
X3388508Y1809951D1*
X3388869Y1808451D1*
X3389048Y1806951D1*
X3389126Y1805451D1*
X3389158Y1803951D1*
X3389170Y1802451D1*
X3389174Y1800951D1*
X3389176Y1799451D1*
X3389170Y1797951D1*
X3389118Y1796451D1*
X3388921Y1794951D1*
X3388509Y1793451D1*
X3387927Y1791951D1*
X3387248Y1790451D1*
X3386474Y1788951D1*
X3385534Y1787451D1*
X3384317Y1785951D1*
X3382738Y1784451D1*
X3380710Y1782951D1*
X3378283Y1781451D1*
X3375676Y1779951D1*
X3357676Y1814451D2*
X3356002Y1812951D1*
X3354328Y1811451D1*
X3352858Y1809951D1*
X3351724Y1808451D1*
X3350902Y1806951D1*
X3350280Y1805451D1*
X3349719Y1803951D1*
X3349298Y1802451D1*
X3349068Y1800951D1*
X3349373Y1799451D1*
X3349771Y1797951D1*
X3350260Y1796451D1*
X3350999Y1794951D1*
X3352065Y1793451D1*
X3353468Y1791951D1*
X3355428Y1790451D1*
X3358329Y1788951D1*
X3362245Y1787451D1*
X3366676Y1785951D1*
X3363676Y1814451D2*
Y1812951D1*
Y1811451D1*
Y1809951D1*
Y1808451D1*
Y1806951D1*
Y1805451D1*
Y1803951D1*
Y1802451D1*
Y1800951D1*
Y1799451D1*
Y1797951D1*
Y1796451D1*
Y1794951D1*
Y1793451D1*
X3363671Y1791951D1*
X3363613Y1790451D1*
X3363382Y1788951D1*
X3362869Y1787451D1*
X3362176Y1785951D1*
X3359176Y1767951D2*
X3355092Y1766451D1*
X3351906Y1764951D1*
X3349665Y1763451D1*
X3348146Y1761951D1*
X3347090Y1760451D1*
X3346337Y1758951D1*
X3345752Y1757451D1*
X3345202Y1755951D1*
X3344735Y1754451D1*
X3344440Y1752951D1*
X3344295Y1751451D1*
X3344279Y1749951D1*
X3344443Y1748451D1*
X3344797Y1746951D1*
X3345231Y1745451D1*
X3345688Y1743951D1*
X3346244Y1742451D1*
X3346942Y1740951D1*
X3347839Y1739451D1*
X3348981Y1737951D1*
X3350294Y1736451D1*
X3351676Y1734951D1*
X3348907Y1733451D1*
X3346856Y1731951D1*
X3346228Y1730451D1*
X3345888Y1728951D1*
X3345676Y1727451D1*
X3389176Y1767951D2*
Y1766451D1*
Y1764951D1*
Y1763451D1*
Y1761951D1*
Y1760451D1*
X3359176D2*
X3356477Y1758951D1*
X3354158Y1757451D1*
X3352400Y1755951D1*
X3351213Y1754451D1*
X3350410Y1752951D1*
X3349770Y1751451D1*
X3349316Y1749951D1*
X3349071Y1748451D1*
X3349375Y1746951D1*
X3349766Y1745451D1*
X3350202Y1743951D1*
X3350755Y1742451D1*
X3351520Y1740951D1*
X3352503Y1739451D1*
X3354963Y1737951D1*
X3358537Y1736451D1*
X3363131Y1734951D1*
X3368176Y1733451D1*
X3389176D2*
Y1731951D1*
Y1730451D1*
Y1728951D1*
Y1727451D1*
X3321676Y1712451D2*
X3320758Y1710951D1*
X3320008Y1709451D1*
X3319436Y1707951D1*
X3319615Y1706451D1*
X3320087Y1704951D1*
X3320810Y1703451D1*
X3321676Y1701951D1*
X3324676Y1712451D2*
X3326061Y1710951D1*
X3327087Y1709451D1*
X3327388Y1707951D1*
X3327436Y1706451D1*
X3327252Y1704951D1*
X3326099Y1703451D1*
X3324676Y1701951D1*
X3345676Y1710951D2*
X3345682Y1709451D1*
X3345739Y1707951D1*
X3345971Y1706451D1*
X3346484Y1704951D1*
X3347176Y1703451D1*
X3389176Y1710951D2*
Y1709451D1*
Y1707951D1*
Y1706451D1*
Y1704951D1*
Y1703451D1*
X3314176Y1686951D2*
X3314182Y1685451D1*
X3314239Y1683951D1*
X3314471Y1682451D1*
X3314984Y1680951D1*
X3315676Y1679451D1*
X3389176Y1686951D2*
Y1685451D1*
Y1683951D1*
Y1682451D1*
Y1680951D1*
Y1679451D1*
X3359176Y1664451D2*
X3355092Y1662951D1*
X3351906Y1661451D1*
X3349665Y1659951D1*
X3348146Y1658451D1*
X3347090Y1656951D1*
X3346337Y1655451D1*
X3345752Y1653951D1*
X3345202Y1652451D1*
X3344735Y1650951D1*
X3344440Y1649451D1*
X3344295Y1647951D1*
X3344279Y1646451D1*
X3344443Y1644951D1*
X3344797Y1643451D1*
X3345231Y1641951D1*
X3345688Y1640451D1*
X3346244Y1638951D1*
X3346942Y1637451D1*
X3347839Y1635951D1*
X3348981Y1634451D1*
X3350294Y1632951D1*
X3351676Y1631451D1*
X3348907Y1629951D1*
X3346856Y1628451D1*
X3346228Y1626951D1*
X3345888Y1625451D1*
X3345676Y1623951D1*
X3389176Y1664451D2*
Y1662951D1*
Y1661451D1*
Y1659951D1*
Y1658451D1*
Y1656951D1*
X3359176D2*
X3356477Y1655451D1*
X3354158Y1653951D1*
X3352400Y1652451D1*
X3351213Y1650951D1*
X3350410Y1649451D1*
X3349770Y1647951D1*
X3349316Y1646451D1*
X3349071Y1644951D1*
X3349375Y1643451D1*
X3349766Y1641951D1*
X3350202Y1640451D1*
X3350755Y1638951D1*
X3351520Y1637451D1*
X3352503Y1635951D1*
X3354963Y1634451D1*
X3358537Y1632951D1*
X3363131Y1631451D1*
X3368176Y1629951D1*
X3389176D2*
Y1628451D1*
Y1626951D1*
Y1625451D1*
Y1623951D1*
X3360676Y1610451D2*
X3357792Y1608951D1*
X3355430Y1607451D1*
X3353494Y1605951D1*
X3351806Y1604451D1*
X3350281Y1602951D1*
X3348948Y1601451D1*
X3347855Y1599951D1*
X3346986Y1598451D1*
X3346350Y1596951D1*
X3345929Y1595451D1*
X3345557Y1593951D1*
X3345118Y1592451D1*
X3344701Y1590951D1*
X3344428Y1589451D1*
X3344290Y1587951D1*
X3344278Y1586451D1*
X3344442Y1584951D1*
X3344797Y1583451D1*
X3345231Y1581951D1*
X3345688Y1580451D1*
X3346239Y1578951D1*
X3346884Y1577451D1*
X3347589Y1575951D1*
X3348373Y1574451D1*
X3349311Y1572951D1*
X3350477Y1571451D1*
X3351865Y1569951D1*
X3353539Y1568451D1*
X3355612Y1566951D1*
X3358059Y1565451D1*
X3360676Y1563951D1*
X3374176Y1610451D2*
X3376882Y1608951D1*
X3379253Y1607451D1*
X3381203Y1605951D1*
X3382755Y1604451D1*
X3383995Y1602951D1*
X3385100Y1601451D1*
X3386157Y1599951D1*
X3387106Y1598451D1*
X3387910Y1596951D1*
X3388513Y1595451D1*
X3388871Y1593951D1*
X3389048Y1592451D1*
X3389126Y1590951D1*
X3389158Y1589451D1*
X3389170Y1587951D1*
X3389174Y1586451D1*
X3389170Y1584951D1*
X3389118Y1583451D1*
X3388927Y1581951D1*
X3388562Y1580451D1*
X3388118Y1578951D1*
X3387613Y1577451D1*
X3386917Y1575951D1*
X3386051Y1574451D1*
X3385129Y1572951D1*
X3384103Y1571451D1*
X3382845Y1569951D1*
X3381249Y1568451D1*
X3379214Y1566951D1*
X3376784Y1565451D1*
X3374176Y1563951D1*
X3366676Y1604451D2*
X3362766Y1602951D1*
X3359511Y1601451D1*
X3357007Y1599951D1*
X3355025Y1598451D1*
X3353373Y1596951D1*
X3352039Y1595451D1*
X3351111Y1593951D1*
X3350540Y1592451D1*
X3350106Y1590951D1*
X3349693Y1589451D1*
X3349457Y1587951D1*
X3349539Y1586451D1*
X3349784Y1584951D1*
X3350039Y1583451D1*
X3350401Y1581951D1*
X3351063Y1580451D1*
X3352085Y1578951D1*
X3353414Y1577451D1*
X3355143Y1575951D1*
X3357689Y1574451D1*
X3361697Y1572951D1*
X3367445Y1571451D1*
X3374176Y1569951D1*
X3366676Y1604451D2*
X3370819Y1602951D1*
X3374445Y1601451D1*
X3377332Y1599951D1*
X3379529Y1598451D1*
X3381183Y1596951D1*
X3382412Y1595451D1*
X3383336Y1593951D1*
X3383987Y1592451D1*
X3384361Y1590951D1*
X3384545Y1589451D1*
X3384625Y1587951D1*
X3384652Y1586451D1*
X3384611Y1584951D1*
X3384419Y1583451D1*
X3384002Y1581951D1*
X3383368Y1580451D1*
X3382492Y1578951D1*
X3381295Y1577451D1*
X3379644Y1575951D1*
X3377137Y1574451D1*
X3373146Y1572951D1*
X3367404Y1571451D1*
X3360676Y1569951D1*
X3384676Y1548951D2*
X3383060Y1547451D1*
X3381832Y1545951D1*
X3380888Y1544451D1*
X3380657Y1542951D1*
X3381195Y1541451D1*
X3382095Y1539951D1*
X3383176Y1538451D1*
X3387676Y1548951D2*
X3388882Y1547451D1*
X3389759Y1545951D1*
X3390255Y1544451D1*
X3390442Y1542951D1*
X3390316Y1541451D1*
X3389846Y1539951D1*
X3389176Y1538451D1*
X1071232Y730467D2*
D83*
X1069806Y733319D1*
X1066921Y736204D1*
X1064069Y737630D1*
X1058332D1*
X1055447Y736204D1*
X1052595Y733319D1*
X1051136Y730467D1*
X1049710Y726156D1*
Y718960D1*
X1051136Y714682D1*
X1052595Y711797D1*
X1055447Y708945D1*
X1058332Y707486D1*
X1064069D1*
X1066921Y708945D1*
X1069806Y711797D1*
X1071232Y714682D1*
X1080495Y731860D2*
X1083381Y733319D1*
X1087692Y737597D1*
Y707486D1*
X1476930Y2239783D2*
X1474078Y2238357D1*
X1471193Y2235472D1*
X1469767Y2232620D1*
Y2226883D1*
X1471193Y2223998D1*
X1474078Y2221146D1*
X1476930Y2219687D1*
X1481241Y2218261D1*
X1488437D1*
X1492715Y2219687D1*
X1495600Y2221146D1*
X1498452Y2223998D1*
X1499911Y2226883D1*
Y2232620D1*
X1498452Y2235472D1*
X1495600Y2238357D1*
X1492715Y2239783D1*
X1476963Y2250506D2*
X1475537D1*
X1472652Y2251932D1*
X1471226Y2253358D1*
X1469800Y2256243D1*
Y2261980D1*
X1471226Y2264832D1*
X1472652Y2266258D1*
X1475537Y2267717D1*
X1478389D1*
X1481274Y2266258D1*
X1485552Y2263406D1*
X1499911Y2249047D1*
Y2269143D1*
X1012854Y1538622D2*
X1011428Y1541474D1*
X1008543Y1544359D1*
X1005691Y1545785D1*
X999954D1*
X997069Y1544359D1*
X994217Y1541474D1*
X992758Y1538622D1*
X991332Y1534311D1*
Y1527115D1*
X992758Y1522837D1*
X994217Y1519952D1*
X997069Y1517100D1*
X999954Y1515641D1*
X1005691D1*
X1008543Y1517100D1*
X1011428Y1519952D1*
X1012854Y1522837D1*
X1025003Y1545752D2*
X1040755D1*
X1032166Y1534278D1*
X1036477D1*
X1039329Y1532852D1*
X1040755Y1531426D1*
X1042214Y1527115D1*
Y1524263D1*
X1040755Y1519952D1*
X1037903Y1517067D1*
X1033592Y1515641D1*
X1029281D1*
X1025003Y1517067D1*
X1023577Y1518526D1*
X1022118Y1521378D1*
X1532903Y642754D2*
Y612610D1*
X1542951D1*
X1547262Y614069D1*
X1550147Y616921D1*
X1551573Y619806D1*
X1552999Y624084D1*
Y631280D1*
X1551573Y635591D1*
X1550147Y638443D1*
X1547262Y641328D1*
X1542951Y642754D1*
X1532903D1*
X1562263Y636984D2*
X1565148Y638443D1*
X1569459Y642721D1*
Y612610D1*
X1480651Y472638D2*
X1483536Y474097D1*
X1487847Y478375D1*
Y448264D1*
X1517206Y478408D2*
Y448264D1*
X1497110Y478408D1*
Y448264D1*
X1543681Y478375D2*
X1529355D1*
X1527929Y465475D1*
X1529355Y466901D1*
X1533666Y468360D1*
X1537944D1*
X1542255Y466901D1*
X1545140Y464049D1*
X1546566Y459738D1*
Y456887D1*
X1545140Y452575D1*
X1542255Y449690D1*
X1537944Y448264D1*
X1533666D1*
X1529355Y449690D1*
X1527929Y451150D1*
X1526470Y454001D1*
X1562992Y478375D2*
X1558715Y476949D1*
X1557255Y474097D1*
Y471212D1*
X1558715Y468360D1*
X1561566Y466901D1*
X1567303Y465475D1*
X1571614Y464049D1*
X1574466Y461164D1*
X1575892Y458312D1*
Y454001D1*
X1574466Y451150D1*
X1573040Y449690D1*
X1568729Y448264D1*
X1562992D1*
X1558715Y449690D1*
X1557255Y451150D1*
X1555829Y454001D1*
Y458312D1*
X1557255Y461164D1*
X1560140Y464049D1*
X1564418Y465475D1*
X1570155Y466901D1*
X1573040Y468360D1*
X1574466Y471212D1*
Y474097D1*
X1573040Y476949D1*
X1568729Y478375D1*
X1562992D1*
X1585156Y472638D2*
X1588041Y474097D1*
X1592352Y478375D1*
Y448264D1*
X1607352D2*
X1621711Y478375D1*
X1601615D1*
X3227347Y809371D2*
Y779227D1*
X3237395D1*
X3241706Y780686D1*
X3244591Y783538D1*
X3246017Y786423D1*
X3247443Y790700D1*
Y797897D1*
X3246017Y802208D1*
X3244591Y805060D1*
X3241706Y807945D1*
X3237395Y809371D1*
X3227347D1*
X3258166Y802174D2*
Y803600D1*
X3259592Y806485D1*
X3261018Y807911D1*
X3263903Y809337D1*
X3269640D1*
X3272492Y807911D1*
X3273918Y806485D1*
X3275377Y803600D1*
Y800749D1*
X3273918Y797863D1*
X3271066Y793586D1*
X3256707Y779227D1*
X3276803D1*
X3235225Y2285817D2*
Y2255673D1*
X3245273D1*
X3249584Y2257132D1*
X3252469Y2259984D1*
X3253895Y2262869D1*
X3255321Y2267147D1*
Y2274343D1*
X3253895Y2278654D1*
X3252469Y2281506D1*
X3249584Y2284391D1*
X3245273Y2285817D1*
X3235225D1*
X3267470Y2285784D2*
X3283221D1*
X3274633Y2274310D1*
X3278944D1*
X3281795Y2272884D1*
X3283221Y2271458D1*
X3284681Y2267147D1*
Y2264295D1*
X3283221Y2259984D1*
X3280370Y2257099D1*
X3276058Y2255673D1*
X3271747D1*
X3267470Y2257099D1*
X3266044Y2258558D1*
X3264585Y2261410D1*
X455994Y2069548D2*
Y2046600D1*
X454568Y2042289D1*
X453109Y2040863D1*
X450257Y2039404D1*
X447372D1*
X444520Y2040863D1*
X443094Y2042289D1*
X441635Y2046600D1*
Y2049452D1*
X465258Y2063778D2*
X468143Y2065237D1*
X472454Y2069515D1*
Y2039404D1*
X799767Y2236202D2*
X822715D1*
X827026Y2234776D1*
X828452Y2233317D1*
X829911Y2230465D1*
Y2227580D1*
X828452Y2224728D1*
X827026Y2223302D1*
X822715Y2221843D1*
X819863D1*
X806963Y2246924D2*
X805537D1*
X802652Y2248350D1*
X801226Y2249776D1*
X799800Y2252661D1*
Y2258398D1*
X801226Y2261250D1*
X802652Y2262676D1*
X805537Y2264135D1*
X808389D1*
X811274Y2262676D1*
X815552Y2259824D1*
X829911Y2245465D1*
Y2265561D1*
X1147199Y2236202D2*
X1170147D1*
X1174458Y2234776D1*
X1175884Y2233317D1*
X1177343Y2230465D1*
Y2227580D1*
X1175884Y2224728D1*
X1174458Y2223302D1*
X1170147Y2221843D1*
X1167295D1*
X1147232Y2248350D2*
Y2264102D1*
X1158706Y2255513D1*
Y2259824D1*
X1160132Y2262676D1*
X1161558Y2264102D1*
X1165869Y2265561D1*
X1168721D1*
X1173032Y2264102D1*
X1175917Y2261250D1*
X1177343Y2256939D1*
Y2252628D1*
X1175917Y2248350D1*
X1174458Y2246924D1*
X1171606Y2245465D1*
X1593103Y1812636D2*
Y1789688D1*
X1591677Y1785377D1*
X1590218Y1783951D1*
X1587366Y1782492D1*
X1584481D1*
X1581629Y1783951D1*
X1580203Y1785377D1*
X1578744Y1789688D1*
Y1792540D1*
X1616726Y1782492D2*
Y1812602D1*
X1602367Y1792540D1*
X1623889D1*
X2723235Y1850424D2*
Y1863324D1*
X2721776Y1867635D1*
X2720350Y1869094D1*
X2717498Y1870520D1*
X2714613D1*
X2711761Y1869094D1*
X2710302Y1867635D1*
X2708876Y1863324D1*
Y1850424D1*
X2739020D1*
X2723235Y1860472D2*
X2739020Y1870520D1*
X2714646Y1879784D2*
X2713187Y1882669D1*
X2708909Y1886980D1*
X2739020D1*
X2437899Y1879811D2*
X2440784Y1881270D1*
X2445095Y1885548D1*
Y1855437D1*
X2462980Y1885548D2*
X2458669Y1884122D1*
X2455784Y1879811D1*
X2454358Y1872648D1*
Y1868337D1*
X2455784Y1861174D1*
X2458669Y1856863D1*
X2462980Y1855437D1*
X2465832D1*
X2470143Y1856863D1*
X2472995Y1861174D1*
X2474454Y1868337D1*
Y1872648D1*
X2472995Y1879811D1*
X2470143Y1884122D1*
X2465832Y1885548D1*
X2462980D1*
X2472995Y1879811D2*
X2455784Y1861174D1*
X2483718Y1885581D2*
Y1855437D1*
X2498077Y1875533D2*
X2483718Y1861174D1*
X2489455Y1866911D2*
X2499503Y1855437D1*
X2723235Y2168974D2*
Y2181874D1*
X2721776Y2186185D1*
X2720350Y2187644D1*
X2717498Y2189070D1*
X2714613D1*
X2711761Y2187644D1*
X2710302Y2186185D1*
X2708876Y2181874D1*
Y2168974D1*
X2739020D1*
X2723235Y2179022D2*
X2739020Y2189070D1*
X2716072Y2199793D2*
X2714646D1*
X2711761Y2201219D1*
X2710335Y2202645D1*
X2708909Y2205530D1*
Y2211267D1*
X2710335Y2214119D1*
X2711761Y2215545D1*
X2714646Y2217004D1*
X2717498D1*
X2720383Y2215545D1*
X2724661Y2212693D1*
X2739020Y2198334D1*
Y2218430D1*
X2437899Y2204811D2*
X2440784Y2206270D1*
X2445095Y2210548D1*
Y2180437D1*
X2462980Y2210548D2*
X2458669Y2209122D1*
X2455784Y2204811D1*
X2454358Y2197648D1*
Y2193337D1*
X2455784Y2186174D1*
X2458669Y2181863D1*
X2462980Y2180437D1*
X2465832D1*
X2470143Y2181863D1*
X2472995Y2186174D1*
X2474454Y2193337D1*
Y2197648D1*
X2472995Y2204811D1*
X2470143Y2209122D1*
X2465832Y2210548D1*
X2462980D1*
X2472995Y2204811D2*
X2455784Y2186174D1*
X2483718Y2210581D2*
Y2180437D1*
X2498077Y2200533D2*
X2483718Y2186174D1*
X2489455Y2191911D2*
X2499503Y2180437D1*
X2723235Y1343974D2*
Y1356874D1*
X2721776Y1361185D1*
X2720350Y1362644D1*
X2717498Y1364070D1*
X2714613D1*
X2711761Y1362644D1*
X2710302Y1361185D1*
X2708876Y1356874D1*
Y1343974D1*
X2739020D1*
X2723235Y1354022D2*
X2739020Y1364070D1*
X2708909Y1376219D2*
Y1391971D1*
X2720383Y1383382D1*
Y1387693D1*
X2721809Y1390545D1*
X2723235Y1391970D1*
X2727546Y1393430D1*
X2730398D1*
X2734709Y1391970D1*
X2737594Y1389119D1*
X2739020Y1384808D1*
Y1380497D1*
X2737594Y1376219D1*
X2736135Y1374793D1*
X2733283Y1373334D1*
X2437899Y1379811D2*
X2440784Y1381270D1*
X2445095Y1385548D1*
Y1355437D1*
X2462980Y1385548D2*
X2458669Y1384122D1*
X2455784Y1379811D1*
X2454358Y1372648D1*
Y1368337D1*
X2455784Y1361174D1*
X2458669Y1356863D1*
X2462980Y1355437D1*
X2465832D1*
X2470143Y1356863D1*
X2472995Y1361174D1*
X2474454Y1368337D1*
Y1372648D1*
X2472995Y1379811D1*
X2470143Y1384122D1*
X2465832Y1385548D1*
X2462980D1*
X2472995Y1379811D2*
X2455784Y1361174D1*
X2483718Y1385581D2*
Y1355437D1*
X2498077Y1375533D2*
X2483718Y1361174D1*
X2489455Y1366911D2*
X2499503Y1355437D1*
X2723235Y518261D2*
Y531161D1*
X2721776Y535472D1*
X2720350Y536931D1*
X2717498Y538357D1*
X2714613D1*
X2711761Y536931D1*
X2710302Y535472D1*
X2708876Y531161D1*
Y518261D1*
X2739020D1*
X2723235Y528309D2*
X2739020Y538357D1*
Y561980D2*
X2708909D1*
X2728972Y547621D1*
Y569143D1*
X2437899Y554811D2*
X2440784Y556270D1*
X2445095Y560548D1*
Y530437D1*
X2462980Y560548D2*
X2458669Y559122D1*
X2455784Y554811D1*
X2454358Y547648D1*
Y543337D1*
X2455784Y536174D1*
X2458669Y531863D1*
X2462980Y530437D1*
X2465832D1*
X2470143Y531863D1*
X2472995Y536174D1*
X2474454Y543337D1*
Y547648D1*
X2472995Y554811D1*
X2470143Y559122D1*
X2465832Y560548D1*
X2462980D1*
X2472995Y554811D2*
X2455784Y536174D1*
X2483718Y560581D2*
Y530437D1*
X2498077Y550533D2*
X2483718Y536174D1*
X2489455Y541911D2*
X2499503Y530437D1*
X2723235Y856474D2*
Y869374D1*
X2721776Y873685D1*
X2720350Y875144D1*
X2717498Y876570D1*
X2714613D1*
X2711761Y875144D1*
X2710302Y873685D1*
X2708876Y869374D1*
Y856474D1*
X2739020D1*
X2723235Y866522D2*
X2739020Y876570D1*
X2708909Y903045D2*
Y888719D1*
X2721809Y887293D1*
X2720383Y888719D1*
X2718924Y893030D1*
Y897308D1*
X2720383Y901619D1*
X2723235Y904504D1*
X2727546Y905930D1*
X2730398D1*
X2734709Y904504D1*
X2737594Y901619D1*
X2739020Y897308D1*
Y893030D1*
X2737594Y888719D1*
X2736135Y887293D1*
X2733283Y885834D1*
X2437899Y892311D2*
X2440784Y893770D1*
X2445095Y898048D1*
Y867937D1*
X2462980Y898048D2*
X2458669Y896622D1*
X2455784Y892311D1*
X2454358Y885148D1*
Y880837D1*
X2455784Y873674D1*
X2458669Y869363D1*
X2462980Y867937D1*
X2465832D1*
X2470143Y869363D1*
X2472995Y873674D1*
X2474454Y880837D1*
Y885148D1*
X2472995Y892311D1*
X2470143Y896622D1*
X2465832Y898048D1*
X2462980D1*
X2472995Y892311D2*
X2455784Y873674D1*
X2483718Y898081D2*
Y867937D1*
X2498077Y888033D2*
X2483718Y873674D1*
X2489455Y879411D2*
X2499503Y867937D1*
X2723235Y1507204D2*
Y1520104D1*
X2721776Y1524415D1*
X2720350Y1525874D1*
X2717498Y1527300D1*
X2714613D1*
X2711761Y1525874D1*
X2710302Y1524415D1*
X2708876Y1520104D1*
Y1507204D1*
X2739020D1*
X2723235Y1517252D2*
X2739020Y1527300D1*
X2713187Y1553774D2*
X2710335Y1552348D1*
X2708909Y1548037D1*
Y1545185D1*
X2710335Y1540874D1*
X2714646Y1537989D1*
X2721809Y1536563D1*
X2728972D1*
X2734709Y1537989D1*
X2737594Y1540874D1*
X2739020Y1545185D1*
Y1546611D1*
X2737594Y1550889D1*
X2734709Y1553774D1*
X2730398Y1555200D1*
X2728972D1*
X2724661Y1553774D1*
X2721809Y1550889D1*
X2720383Y1546611D1*
Y1545185D1*
X2721809Y1540874D1*
X2724661Y1537989D1*
X2728972Y1536563D1*
X2437899Y1542311D2*
X2440784Y1543770D1*
X2445095Y1548048D1*
Y1517937D1*
X2462980Y1548048D2*
X2458669Y1546622D1*
X2455784Y1542311D1*
X2454358Y1535148D1*
Y1530837D1*
X2455784Y1523674D1*
X2458669Y1519363D1*
X2462980Y1517937D1*
X2465832D1*
X2470143Y1519363D1*
X2472995Y1523674D1*
X2474454Y1530837D1*
Y1535148D1*
X2472995Y1542311D1*
X2470143Y1546622D1*
X2465832Y1548048D1*
X2462980D1*
X2472995Y1542311D2*
X2455784Y1523674D1*
X2483718Y1548081D2*
Y1517937D1*
X2498077Y1538033D2*
X2483718Y1523674D1*
X2489455Y1529411D2*
X2499503Y1517937D1*
X2723235Y1181474D2*
Y1194374D1*
X2721776Y1198685D1*
X2720350Y1200144D1*
X2717498Y1201570D1*
X2714613D1*
X2711761Y1200144D1*
X2710302Y1198685D1*
X2708876Y1194374D1*
Y1181474D1*
X2739020D1*
X2723235Y1191522D2*
X2739020Y1201570D1*
Y1216571D2*
X2708909Y1230930D1*
Y1210834D1*
X2452578Y1217311D2*
X2455464Y1218770D1*
X2459775Y1223048D1*
Y1192937D1*
X2469038Y1223081D2*
Y1192937D1*
X2483397Y1213033D2*
X2469038Y1198674D1*
X2474775Y1204411D2*
X2484823Y1192937D1*
X2723235Y681491D2*
Y694391D1*
X2721776Y698702D1*
X2720350Y700161D1*
X2717498Y701587D1*
X2714613D1*
X2711761Y700161D1*
X2710302Y698702D1*
X2708876Y694391D1*
Y681491D1*
X2739020D1*
X2723235Y691539D2*
X2739020Y701587D1*
X2708909Y718013D2*
X2710335Y713735D1*
X2713187Y712276D1*
X2716072D1*
X2718924Y713735D1*
X2720383Y716587D1*
X2721809Y722324D1*
X2723235Y726635D1*
X2726120Y729487D1*
X2728972Y730913D1*
X2733283D1*
X2736135Y729487D1*
X2737594Y728061D1*
X2739020Y723750D1*
Y718013D1*
X2737594Y713735D1*
X2736135Y712276D1*
X2733283Y710850D1*
X2728972D1*
X2726120Y712276D1*
X2723235Y715161D1*
X2721809Y719439D1*
X2720383Y725176D1*
X2718924Y728061D1*
X2716072Y729487D1*
X2713187D1*
X2710335Y728061D1*
X2708909Y723750D1*
Y718013D1*
X2452578Y717311D2*
X2455464Y718770D1*
X2459775Y723048D1*
Y692937D1*
X2469038Y723081D2*
Y692937D1*
X2483397Y713033D2*
X2469038Y698674D1*
X2474775Y704411D2*
X2484823Y692937D1*
X2723235Y2007187D2*
Y2020087D1*
X2721776Y2024398D1*
X2720350Y2025857D1*
X2717498Y2027283D1*
X2714613D1*
X2711761Y2025857D1*
X2710302Y2024398D1*
X2708876Y2020087D1*
Y2007187D1*
X2739020D1*
X2723235Y2017235D2*
X2739020Y2027283D1*
X2718924Y2055217D2*
X2723235Y2053758D1*
X2726120Y2050906D1*
X2727546Y2046595D1*
Y2045169D1*
X2726120Y2040858D1*
X2723235Y2038006D1*
X2718924Y2036547D1*
X2717498D1*
X2713187Y2038006D1*
X2710335Y2040858D1*
X2708909Y2045169D1*
Y2046595D1*
X2710335Y2050906D1*
X2713187Y2053758D1*
X2718924Y2055217D1*
X2726120D1*
X2733283Y2053757D1*
X2737594Y2050906D1*
X2739020Y2046595D1*
Y2043743D1*
X2737594Y2039432D1*
X2734709Y2038006D1*
X2452578Y2042311D2*
X2455464Y2043770D1*
X2459775Y2048048D1*
Y2017937D1*
X2469038Y2048081D2*
Y2017937D1*
X2483397Y2038033D2*
X2469038Y2023674D1*
X2474775Y2029411D2*
X2484823Y2017937D1*
X2723235Y1660744D2*
Y1673644D1*
X2721776Y1677955D1*
X2720350Y1679414D1*
X2717498Y1680840D1*
X2714613D1*
X2711761Y1679414D1*
X2710302Y1677955D1*
X2708876Y1673644D1*
Y1660744D1*
X2739020D1*
X2723235Y1670792D2*
X2739020Y1680840D1*
X2714646Y1690104D2*
X2713187Y1692989D1*
X2708909Y1697300D1*
X2739020D1*
X2708909Y1715185D2*
X2710335Y1710874D1*
X2714646Y1707989D1*
X2721809Y1706563D1*
X2726120D1*
X2733283Y1707989D1*
X2737594Y1710874D1*
X2739020Y1715185D1*
Y1718037D1*
X2737594Y1722348D1*
X2733283Y1725200D1*
X2726120Y1726659D1*
X2721809D1*
X2714646Y1725200D1*
X2710335Y1722348D1*
X2708909Y1718037D1*
Y1715185D1*
X2714646Y1725200D2*
X2733283Y1707989D1*
X2437899Y1704811D2*
X2440784Y1706270D1*
X2445095Y1710548D1*
Y1680437D1*
X2462980Y1710548D2*
X2458669Y1709122D1*
X2455784Y1704811D1*
X2454358Y1697648D1*
Y1693337D1*
X2455784Y1686174D1*
X2458669Y1681863D1*
X2462980Y1680437D1*
X2465832D1*
X2470143Y1681863D1*
X2472995Y1686174D1*
X2474454Y1693337D1*
Y1697648D1*
X2472995Y1704811D1*
X2470143Y1709122D1*
X2465832Y1710548D1*
X2462980D1*
X2472995Y1704811D2*
X2455784Y1686174D1*
X2483718Y1710581D2*
Y1680437D1*
X2498077Y1700533D2*
X2483718Y1686174D1*
X2489455Y1691911D2*
X2499503Y1680437D1*
X2723235Y1017194D2*
Y1030094D1*
X2721776Y1034405D1*
X2720350Y1035864D1*
X2717498Y1037290D1*
X2714613D1*
X2711761Y1035864D1*
X2710302Y1034405D1*
X2708876Y1030094D1*
Y1017194D1*
X2739020D1*
X2723235Y1027242D2*
X2739020Y1037290D1*
X2714646Y1046554D2*
X2713187Y1049439D1*
X2708909Y1053750D1*
X2739020D1*
X2714646Y1063013D2*
X2713187Y1065898D1*
X2708909Y1070209D1*
X2739020D1*
X2447588Y1053385D2*
Y1054811D1*
X2449014Y1057696D1*
X2450440Y1059122D1*
X2453325Y1060548D1*
X2459062D1*
X2461914Y1059122D1*
X2463339Y1057696D1*
X2464799Y1054811D1*
Y1051959D1*
X2463339Y1049074D1*
X2460488Y1044796D1*
X2446129Y1030437D1*
X2466225D1*
X2475488Y1060581D2*
Y1030437D1*
X2489847Y1050533D2*
X2475488Y1036174D1*
X2481225Y1041911D2*
X2491273Y1030437D1*
X3619506Y491492D2*
X3616654Y494378D1*
X3612343Y495803D1*
X3606606D1*
X3602295Y494378D1*
X3599410Y491492D1*
Y488641D1*
X3600869Y485755D1*
X3602295Y484330D1*
X3605147Y482904D1*
X3613769Y480019D1*
X3616654Y478593D1*
X3618080Y477133D1*
X3619506Y474282D1*
Y469971D1*
X3616654Y467119D1*
X3612343Y465659D1*
X3606606D1*
X3602295Y467119D1*
X3599410Y469971D1*
X3628769Y490033D2*
X3631654Y491492D1*
X3635965Y495770D1*
Y465659D1*
X3613289Y2323212D2*
X3610438Y2326097D1*
X3606127Y2327523D1*
X3600390D1*
X3596079Y2326097D1*
X3593193Y2323212D1*
Y2320360D1*
X3594653Y2317475D1*
X3596079Y2316049D1*
X3598930Y2314623D1*
X3607553Y2311738D1*
X3610438Y2310312D1*
X3611864Y2308853D1*
X3613289Y2306001D1*
Y2301690D1*
X3610438Y2298838D1*
X3606127Y2297379D1*
X3600390D1*
X3596079Y2298838D1*
X3593193Y2301690D1*
X3624012Y2320327D2*
Y2321753D1*
X3625438Y2324638D1*
X3626864Y2326064D1*
X3629749Y2327490D1*
X3635486D1*
X3638338Y2326064D1*
X3639764Y2324638D1*
X3641223Y2321753D1*
Y2318901D1*
X3639764Y2316016D1*
X3636912Y2311738D1*
X3622553Y2297379D1*
X3642649D1*
X3992560Y1735561D2*
X3989708Y1738446D1*
X3985397Y1739872D1*
X3979660D1*
X3975349Y1738446D1*
X3972464Y1735561D1*
Y1732709D1*
X3973923Y1729824D1*
X3975349Y1728398D1*
X3978201Y1726972D1*
X3986823Y1724087D1*
X3989708Y1722661D1*
X3991134Y1721202D1*
X3992560Y1718350D1*
Y1714039D1*
X3989708Y1711187D1*
X3985397Y1709728D1*
X3979660D1*
X3975349Y1711187D1*
X3972464Y1714039D1*
X4001823Y1739872D2*
Y1709728D1*
X4011871D1*
X4016182Y1711187D1*
X4019067Y1714039D1*
X4020493Y1716924D1*
X4021919Y1721202D1*
Y1728398D1*
X4020493Y1732709D1*
X4019067Y1735561D1*
X4016182Y1738446D1*
X4011871Y1739872D1*
X4001823D1*
X4031183Y1734102D2*
X4034068Y1735561D1*
X4038379Y1739839D1*
Y1709728D1*
X1861370Y2287454D2*
Y2265932D1*
X1862796Y2261621D1*
X1865681Y2258769D1*
X1869993Y2257310D1*
X1872844D1*
X1877155Y2258769D1*
X1880041Y2261621D1*
X1881466Y2265932D1*
Y2287454D1*
X1890730Y2281684D2*
X1893615Y2283143D1*
X1897926Y2287421D1*
Y2257310D1*
X1180221Y1491394D2*
Y1469872D1*
X1181647Y1465561D1*
X1184532Y1462709D1*
X1188843Y1461250D1*
X1191695D1*
X1196006Y1462709D1*
X1198891Y1465561D1*
X1200317Y1469872D1*
Y1491394D1*
X1211040Y1484198D2*
Y1485624D1*
X1212466Y1488509D1*
X1213892Y1489935D1*
X1216777Y1491361D1*
X1222514D1*
X1225366Y1489935D1*
X1226792Y1488509D1*
X1228251Y1485624D1*
Y1482772D1*
X1226792Y1479887D1*
X1223940Y1475609D1*
X1209581Y1461250D1*
X1229677D1*
X975478Y1972451D2*
D84*
X1015670D1*
Y1985848D1*
X1013724Y1991596D1*
X1009922Y1995443D1*
X1006075Y1997345D1*
X1000371Y1999246D1*
X990776D1*
X985028Y1997345D1*
X981226Y1995443D1*
X977379Y1991597D1*
X975478Y1985849D1*
Y1972451D1*
X994623Y2011597D2*
Y2028797D1*
X992678Y2034545D1*
X990776Y2036491D1*
X986974Y2038392D1*
X983127D1*
X979325Y2036491D1*
X977379Y2034545D1*
X975478Y2028797D1*
Y2011597D1*
X1015670D1*
X994623Y2024995D2*
X1015670Y2038392D1*
X975478Y2050743D2*
X1015670D1*
X975478Y2063095D2*
X1015670Y2078393D1*
X975478Y2093692D1*
Y2130892D2*
Y2106043D1*
X1015670D1*
Y2130892D1*
X994623Y2106043D2*
Y2121342D1*
X985073Y2145189D2*
X983171D1*
X979325Y2147091D1*
X977423Y2148992D1*
X975522Y2152839D1*
Y2160488D1*
X977423Y2164290D1*
X979325Y2166192D1*
X983171Y2168137D1*
X986974D1*
X990821Y2166192D1*
X996524Y2162389D1*
X1015670Y2143244D1*
Y2170038D1*
X883913Y2086667D2*
X880110Y2084766D1*
X876264Y2080919D1*
X874362Y2077116D1*
Y2069467D1*
X876264Y2065620D1*
X880110Y2061818D1*
X883913Y2059872D1*
X889661Y2057971D1*
X899256D1*
X904959Y2059872D1*
X908806Y2061818D1*
X912609Y2065620D1*
X914554Y2069467D1*
Y2077116D1*
X912609Y2080919D1*
X908806Y2084765D1*
X904960Y2086667D1*
X899256D1*
Y2077116D1*
X874362Y2125813D2*
X914554D1*
X874362Y2099018D1*
X914554D1*
X874362Y2138164D2*
X914554D1*
Y2151561D1*
X912609Y2157310D1*
X908806Y2161156D1*
X904959Y2163058D1*
X899256Y2164959D1*
X889661D1*
X883913Y2163058D1*
X880110Y2161156D1*
X876264Y2157310D1*
X874362Y2151562D1*
Y2138164D1*
X1234838Y2077332D2*
X1231036Y2075431D1*
X1227189Y2071584D1*
X1225287Y2067782D1*
Y2060132D1*
X1227189Y2056286D1*
X1231035Y2052483D1*
X1234838Y2050538D1*
X1240586Y2048636D1*
X1250181D1*
X1255885Y2050538D1*
X1259731Y2052483D1*
X1263534Y2056286D1*
X1265479Y2060132D1*
Y2067782D1*
X1263534Y2071584D1*
X1259731Y2075431D1*
X1255885Y2077332D1*
X1250181D1*
Y2067782D1*
X1225287Y2116478D2*
X1265479D1*
X1225287Y2089684D1*
X1265479Y2089683D1*
X1225287Y2128830D2*
X1265479D1*
Y2142227D1*
X1263534Y2147975D1*
X1259731Y2151822D1*
X1255885Y2153723D1*
X1250181Y2155624D1*
X1240586D1*
X1234838Y2153723D1*
X1231036Y2151822D1*
X1227189Y2147975D1*
X1225287Y2142227D1*
Y2128830D1*
X1365697Y2024300D2*
X1325505Y2008957D1*
X1365697Y1993659D1*
X1352300Y1999407D2*
Y2018552D1*
X1325505Y2036651D2*
X1354201D1*
X1359949Y2038553D1*
X1363752Y2042399D1*
X1365697Y2048147D1*
Y2051950D1*
X1363752Y2057698D1*
X1359949Y2061545D1*
X1354201Y2063446D1*
X1325505D1*
Y2075797D2*
X1365697D1*
Y2089195D1*
X1363752Y2094943D1*
X1359949Y2098789D1*
X1356103Y2100691D1*
X1350399Y2102592D1*
X1340804D1*
X1335056Y2100691D1*
X1331253Y2098789D1*
X1327407Y2094943D1*
X1325505Y2089195D1*
Y2075797D1*
Y2114943D2*
X1365697D1*
X1325505Y2138791D2*
X1327407Y2134944D1*
X1331253Y2131142D1*
X1335056Y2129196D1*
X1340804Y2127295D1*
X1350399D1*
X1356103Y2129196D1*
X1359949Y2131142D1*
X1363752Y2134944D1*
X1365697Y2138791D1*
Y2146440D1*
X1363752Y2150243D1*
X1359949Y2154089D1*
X1356103Y2155991D1*
X1350399Y2157892D1*
X1340804D1*
X1335056Y2155991D1*
X1331253Y2154089D1*
X1327407Y2150243D1*
X1325505Y2146440D1*
Y2138791D1*
X888309Y1312950D2*
X890211Y1307202D1*
X895959Y1303355D1*
X905509Y1301454D1*
X911257D1*
X920808Y1303355D1*
X926556Y1307202D1*
X928457Y1312950D1*
Y1316752D1*
X926556Y1322500D1*
X920808Y1326303D1*
X911257Y1328248D1*
X905509D1*
X895959Y1326303D1*
X890211Y1322500D1*
X888309Y1316752D1*
Y1312950D1*
X895959Y1326303D2*
X920808Y1303355D1*
X924610Y1342501D2*
X926556Y1340600D1*
X928457Y1342501D1*
X926556Y1344447D1*
X924610Y1342501D1*
X895959Y1356798D2*
X894013Y1360645D1*
X888309Y1366393D1*
X928457D1*
X901663Y1378744D2*
X920808D1*
X926512Y1380645D1*
X928457Y1384492D1*
Y1390240D1*
X926512Y1394043D1*
X920808Y1399791D1*
X901662D2*
X928457D1*
X888265Y1437036D2*
Y1412142D1*
X928457D1*
X907411D2*
Y1427441D1*
X1591099Y2112331D2*
Y2152479D1*
X1571954Y2125729D1*
X1600650D1*
X1614903Y2116178D2*
X1613001Y2114233D1*
X1614903Y2112331D1*
X1616848Y2114233D1*
X1614903Y2116178D1*
X1636849Y2112331D2*
X1655994Y2152479D1*
X1629199D1*
X1668346Y2139126D2*
Y2119981D1*
X1670247Y2114277D1*
X1674094Y2112331D1*
X1679842D1*
X1683644Y2114277D1*
X1689392Y2119981D1*
Y2139126D2*
Y2112331D1*
X1726637Y2152523D2*
X1701744D1*
Y2112331D1*
Y2133378D2*
X1717042D1*
X928813Y516200D2*
X888665D1*
X915415Y497055D1*
Y525751D1*
X928813Y545751D2*
X888665Y564897D1*
Y538102D1*
Y588744D2*
X890566Y582996D1*
X896314Y579149D1*
X905865Y577248D1*
X911613D1*
X921163Y579149D1*
X926912Y582996D1*
X928813Y588744D1*
Y592547D1*
X926912Y598295D1*
X921163Y602097D1*
X911613Y604043D1*
X905865D1*
X896314Y602097D1*
X890566Y598295D1*
X888665Y592547D1*
Y588744D1*
X896314Y602097D2*
X921163Y579149D1*
X902018Y616394D2*
X921163D1*
X926867Y618295D1*
X928813Y622142D1*
Y627890D1*
X926867Y631693D1*
X921163Y637441D1*
X902018D2*
X928813D1*
X888621Y674686D2*
Y649792D1*
X928813D1*
X907766D2*
Y665091D1*
X1727424Y1719985D2*
X1744668D1*
X1750372Y1721886D1*
X1752317Y1723831D1*
X1754218Y1727634D1*
Y1733382D1*
X1752317Y1737184D1*
X1750372Y1739130D1*
X1744668Y1741031D1*
X1727424D1*
Y1700839D1*
X1766570Y1741031D2*
Y1700839D1*
X1793365Y1741031D2*
Y1700839D1*
X1766570Y1721886D2*
X1793365D1*
X1805716Y1733338D2*
X1809563Y1735283D1*
X1815311Y1740987D1*
Y1700839D1*
X1726611Y1616834D2*
X1743856D1*
X1749559Y1618735D1*
X1751505Y1620680D1*
X1753406Y1624483D1*
Y1630231D1*
X1751505Y1634033D1*
X1749559Y1635979D1*
X1743856Y1637880D1*
X1726611D1*
Y1597688D1*
X1765758Y1637880D2*
Y1597688D1*
X1792552Y1637880D2*
Y1597688D1*
X1765758Y1618735D2*
X1792552D1*
X1808750Y1637836D2*
X1829753D1*
X1818301Y1622537D1*
X1824049D1*
X1827852Y1620636D1*
X1829753Y1618735D1*
X1831698Y1612987D1*
Y1609184D1*
X1829753Y1603436D1*
X1825950Y1599590D1*
X1820202Y1597688D1*
X1814454D1*
X1808750Y1599590D1*
X1806849Y1601535D1*
X1804904Y1605338D1*
X1375504Y1617672D2*
X1392748D1*
X1398452Y1619573D1*
X1400397Y1621519D1*
X1402299Y1625321D1*
Y1631070D1*
X1400397Y1634872D1*
X1398452Y1636818D1*
X1392748Y1638719D1*
X1375504D1*
Y1598527D1*
X1414650Y1638719D2*
Y1598527D1*
X1441445Y1638719D2*
Y1598527D1*
X1414650Y1619573D2*
X1441445D1*
X1455741Y1629124D2*
Y1631025D1*
X1457643Y1634872D1*
X1459544Y1636773D1*
X1463391Y1638675D1*
X1471040D1*
X1474843Y1636773D1*
X1476744Y1634872D1*
X1478689Y1631025D1*
Y1627223D1*
X1476744Y1623376D1*
X1472941Y1617672D1*
X1453796Y1598527D1*
X1480591D1*
X1216514Y1719775D2*
X1233758D1*
X1239462Y1721676D1*
X1241408Y1723621D1*
X1243309Y1727424D1*
Y1733172D1*
X1241408Y1736974D1*
X1239462Y1738920D1*
X1233758Y1740821D1*
X1216514D1*
Y1700629D1*
X1255660Y1740821D2*
Y1700629D1*
X1282455Y1740821D2*
Y1700629D1*
X1255660Y1721676D2*
X1282455D1*
X1306303Y1740777D2*
X1300555Y1738876D1*
X1296708Y1733128D1*
X1294806Y1723577D1*
Y1717829D1*
X1296708Y1708278D1*
X1300555Y1702530D1*
X1306303Y1700629D1*
X1310105D1*
X1315853Y1702530D1*
X1319656Y1708278D1*
X1321601Y1717829D1*
Y1723577D1*
X1319656Y1733128D1*
X1315853Y1738876D1*
X1310105Y1740777D1*
X1306303D1*
X1319656Y1733128D2*
X1296708Y1708278D1*
X1333953Y1700629D2*
X1360747Y1740777D1*
X1373099Y1721676D2*
X1390299D1*
X1396047Y1723621D1*
X1397992Y1725523D1*
X1399893Y1729325D1*
Y1733172D1*
X1397992Y1736974D1*
X1396047Y1738920D1*
X1390299Y1740821D1*
X1373099D1*
Y1700629D1*
X1386496Y1721676D2*
X1399893Y1700629D1*
X1437094Y1740821D2*
X1412245D1*
Y1700629D1*
X1437094D1*
X1412245Y1721676D2*
X1427543D1*
X1460941Y1740821D2*
X1457139Y1738964D1*
X1453292Y1735117D1*
X1451391Y1731271D1*
X1449445Y1725523D1*
Y1715972D1*
X1451391Y1710224D1*
X1453292Y1706421D1*
X1457139Y1702575D1*
X1460941Y1700673D1*
X1468591D1*
X1472437Y1702575D1*
X1476240Y1706421D1*
X1478141Y1710224D1*
X1480087Y1715972D1*
Y1725523D1*
X1478141Y1731271D1*
X1476240Y1735117D1*
X1472437Y1738964D1*
X1468591Y1740821D1*
X1460941D1*
X1466689Y1708323D2*
X1478141Y1696827D1*
X1294848Y1519042D2*
X1312048D1*
X1317796Y1520987D1*
X1319741Y1522889D1*
X1321642Y1526691D1*
Y1530538D1*
X1319741Y1534341D1*
X1317796Y1536286D1*
X1312048Y1538187D1*
X1294848D1*
Y1497995D1*
X1308245Y1519042D2*
X1321642Y1497995D1*
X1333994Y1538187D2*
Y1497995D1*
X1347391D1*
X1353139Y1499941D1*
X1356986Y1503743D1*
X1358887Y1507590D1*
X1360788Y1513294D1*
Y1522889D1*
X1358887Y1528637D1*
X1356986Y1532439D1*
X1353139Y1536286D1*
X1347391Y1538187D1*
X1333994D1*
X1373140D2*
Y1497995D1*
X1386537D1*
X1392285Y1499941D1*
X1396132Y1503743D1*
X1398033Y1507590D1*
X1399934Y1513294D1*
Y1522889D1*
X1398033Y1528637D1*
X1396132Y1532439D1*
X1392285Y1536286D1*
X1386537Y1538187D1*
X1373140D1*
X1442927Y1497995D2*
X1427585Y1538187D1*
X1412286Y1497995D1*
X1418034Y1511393D2*
X1437179D1*
X1468676Y1538187D2*
Y1497995D1*
X1455279Y1538187D2*
X1482073D1*
X1282982Y1439265D2*
X1292576Y1399073D1*
X1302127Y1439265D1*
X1311677Y1399073D1*
X1321272Y1439265D1*
X1333624Y1418218D2*
X1350868D1*
X1356572Y1420119D1*
X1358517Y1422065D1*
X1360418Y1425867D1*
Y1431615D1*
X1358517Y1435418D1*
X1356572Y1437363D1*
X1350868Y1439265D1*
X1333624D1*
Y1399073D1*
X1372770Y1420119D2*
X1389970D1*
X1395718Y1422065D1*
X1397663Y1423966D1*
X1399564Y1427769D1*
Y1431615D1*
X1397663Y1435418D1*
X1395718Y1437363D1*
X1389970Y1439265D1*
X1372770D1*
Y1399073D1*
X1386167Y1420119D2*
X1399564Y1399073D1*
X1423412Y1439265D2*
X1419565Y1437363D1*
X1415763Y1433517D1*
X1413817Y1429714D1*
X1411916Y1423966D1*
Y1414371D1*
X1413817Y1408668D1*
X1415763Y1404821D1*
X1419565Y1401018D1*
X1423412Y1399073D1*
X1431061D1*
X1434864Y1401018D1*
X1438710Y1404821D1*
X1440612Y1408668D1*
X1442513Y1414371D1*
Y1423966D1*
X1440612Y1429714D1*
X1438710Y1433517D1*
X1434864Y1437363D1*
X1431061Y1439265D1*
X1423412D1*
X1468262D2*
Y1399073D1*
X1454864Y1439265D2*
X1481659D1*
X1342698Y1340602D2*
Y1300410D1*
X1356095D1*
X1361843Y1302356D1*
X1365690Y1306158D1*
X1367591Y1310005D1*
X1369493Y1315709D1*
Y1325303D1*
X1367591Y1331051D1*
X1365690Y1334854D1*
X1361843Y1338701D1*
X1356095Y1340602D1*
X1342698D1*
X1381844Y1321457D2*
X1399044D1*
X1404792Y1323402D1*
X1406738Y1325303D1*
X1408639Y1329106D1*
Y1332953D1*
X1406738Y1336755D1*
X1404792Y1338701D1*
X1399044Y1340602D1*
X1381844D1*
Y1300410D1*
X1395241Y1321457D2*
X1408639Y1300410D1*
X1420990Y1340602D2*
X1436289Y1300410D1*
X1451587Y1340602D1*
X1463939Y1332909D2*
X1467786Y1334854D1*
X1473534Y1340558D1*
Y1300410D1*
X1343574Y1240536D2*
X1318724D1*
Y1200344D1*
X1343574D1*
X1318724Y1221391D2*
X1334023D1*
X1382720Y1240536D2*
Y1200344D1*
X1355925Y1240536D1*
Y1200344D1*
X1398918Y1240492D2*
X1419920D1*
X1408468Y1225194D1*
X1414216D1*
X1418019Y1223292D1*
X1419920Y1221391D1*
X1421866Y1215643D1*
Y1211840D1*
X1419920Y1206092D1*
X1416118Y1202246D1*
X1410370Y1200344D1*
X1404622D1*
X1398918Y1202246D1*
X1397016Y1204191D1*
X1395071Y1207994D1*
X1436118Y1204191D2*
X1434217Y1202246D1*
X1436118Y1200344D1*
X1438064Y1202246D1*
X1436118Y1204191D1*
X1473363Y1240492D2*
X1454262D1*
X1452361Y1223292D1*
X1454262Y1225194D1*
X1460010Y1227139D1*
X1465714D1*
X1471462Y1225194D1*
X1475309Y1221391D1*
X1477210Y1215643D1*
Y1211840D1*
X1475309Y1206092D1*
X1471462Y1202246D1*
X1465714Y1200344D1*
X1460010D1*
X1454262Y1202246D1*
X1452361Y1204191D1*
X1450415Y1207994D1*
X1400524Y1130780D2*
X1398623Y1134582D1*
X1394776Y1138429D1*
X1390973Y1140330D1*
X1383324D1*
X1379477Y1138429D1*
X1375675Y1134582D1*
X1373729Y1130780D1*
X1371828Y1125032D1*
Y1115437D1*
X1373729Y1109733D1*
X1375675Y1105886D1*
X1379477Y1102084D1*
X1383324Y1100138D1*
X1390973D1*
X1394776Y1102084D1*
X1398623Y1105886D1*
X1400524Y1109733D1*
Y1115437D1*
X1390973D1*
X1439670Y1140330D2*
Y1100138D1*
X1412875Y1140330D1*
Y1100138D1*
X1452021Y1140330D2*
Y1100138D1*
X1465419D1*
X1471167Y1102084D1*
X1475014Y1105886D1*
X1476915Y1109733D1*
X1478816Y1115437D1*
Y1125032D1*
X1476915Y1130780D1*
X1475014Y1134582D1*
X1471167Y1138429D1*
X1465419Y1140330D1*
X1452021D1*
X1753731Y1127849D2*
X1751830Y1131652D1*
X1747983Y1135499D1*
X1744181Y1137400D1*
X1736531D1*
X1732685Y1135499D1*
X1728882Y1131652D1*
X1726937Y1127849D1*
X1725035Y1122101D1*
Y1112507D1*
X1726937Y1106803D1*
X1728882Y1102956D1*
X1732685Y1099153D1*
X1736531Y1097208D1*
X1744181D1*
X1747983Y1099153D1*
X1751830Y1102956D1*
X1753731Y1106803D1*
Y1112507D1*
X1744181D1*
X1792877Y1137400D2*
Y1097208D1*
X1766083Y1137400D1*
Y1097208D1*
X1805229Y1137400D2*
Y1097208D1*
X1818626D1*
X1824374Y1099153D1*
X1828221Y1102956D1*
X1830122Y1106803D1*
X1832023Y1112507D1*
Y1122101D1*
X1830122Y1127849D1*
X1828221Y1131652D1*
X1824374Y1135499D1*
X1818626Y1137400D1*
X1805229D1*
X1382640Y1000478D2*
Y1040670D1*
X1367342Y1000478D1*
X1352043Y1040670D1*
Y1000478D1*
X1406488Y1040670D2*
X1402641Y1038769D1*
X1398839Y1034922D1*
X1396893Y1031120D1*
X1394992Y1025372D1*
Y1015777D1*
X1396893Y1010073D1*
X1398839Y1006226D1*
X1402641Y1002424D1*
X1406488Y1000478D1*
X1414137D1*
X1417940Y1002424D1*
X1421787Y1006226D1*
X1423688Y1010073D1*
X1425589Y1015777D1*
Y1025372D1*
X1423688Y1031120D1*
X1421787Y1034922D1*
X1417940Y1038769D1*
X1414137Y1040670D1*
X1406488D1*
X1464735Y1034922D2*
X1460933Y1038769D1*
X1455185Y1040670D1*
X1447535D1*
X1441787Y1038769D1*
X1437940Y1034922D1*
Y1031120D1*
X1439886Y1027273D1*
X1441787Y1025372D1*
X1445590Y1023470D1*
X1457086Y1019624D1*
X1460933Y1017722D1*
X1462834Y1015777D1*
X1464735Y1011974D1*
Y1006226D1*
X1460933Y1002424D1*
X1455185Y1000478D1*
X1447535D1*
X1441787Y1002424D1*
X1437940Y1006226D1*
X1477087Y1040670D2*
Y1000478D1*
X1736235Y1039938D2*
Y999746D1*
X1722837Y1039938D2*
X1749632D1*
X1761983Y1020793D2*
X1779183D1*
X1784931Y1022738D1*
X1786877Y1024639D1*
X1788778Y1028442D1*
Y1032289D1*
X1786877Y1036091D1*
X1784931Y1038037D1*
X1779183Y1039938D1*
X1761983D1*
Y999746D1*
X1775381Y1020793D2*
X1788778Y999746D1*
X1801129Y1039938D2*
Y999746D1*
X1842177Y1030387D2*
X1840275Y1034190D1*
X1836429Y1038037D1*
X1832626Y1039938D1*
X1824977D1*
X1821130Y1038037D1*
X1817327Y1034190D1*
X1815382Y1030387D1*
X1813481Y1024639D1*
Y1015045D1*
X1815382Y1009341D1*
X1817327Y1005494D1*
X1821130Y1001691D1*
X1824977Y999746D1*
X1832626D1*
X1836429Y1001691D1*
X1840275Y1005494D1*
X1842177Y1009341D1*
Y1015045D1*
X1832626D1*
X1867925Y1039938D2*
Y999746D1*
X1854528Y1039938D2*
X1881323D1*
X1725769Y1240724D2*
Y1200532D1*
X1752564Y1240724D2*
Y1200532D1*
X1725769Y1221579D2*
X1752564D1*
X1764915Y1240724D2*
Y1200532D1*
X1778312D1*
X1784060Y1202478D1*
X1787907Y1206280D1*
X1789808Y1210127D1*
X1791710Y1215831D1*
Y1225425D1*
X1789808Y1231174D1*
X1787907Y1234976D1*
X1784060Y1238823D1*
X1778312Y1240724D1*
X1764915D1*
X1830856Y1234976D2*
X1827053Y1238823D1*
X1821305Y1240724D1*
X1813656D1*
X1807908Y1238823D1*
X1804061Y1234976D1*
Y1231174D1*
X1806007Y1227327D1*
X1807908Y1225425D1*
X1811710Y1223524D1*
X1823206Y1219677D1*
X1827053Y1217776D1*
X1828954Y1215831D1*
X1830856Y1212028D1*
Y1206280D1*
X1827053Y1202478D1*
X1821305Y1200532D1*
X1813656D1*
X1807908Y1202478D1*
X1804061Y1206280D1*
X1868056Y1240724D2*
X1843207D1*
Y1200532D1*
X1868056D1*
X1843207Y1221579D2*
X1858506D1*
X1880408Y1240724D2*
Y1200532D1*
X1903356D1*
X1725769Y1340384D2*
Y1300192D1*
X1739166D1*
X1744914Y1302138D1*
X1748761Y1305940D1*
X1750662Y1309787D1*
X1752564Y1315491D1*
Y1325086D1*
X1750662Y1330834D1*
X1748761Y1334636D1*
X1744914Y1338483D1*
X1739166Y1340384D1*
X1725769D1*
X1764915Y1321239D2*
X1782115D1*
X1787863Y1323184D1*
X1789808Y1325086D1*
X1791710Y1328888D1*
Y1332735D1*
X1789808Y1336537D1*
X1787863Y1338483D1*
X1782115Y1340384D1*
X1764915D1*
Y1300192D1*
X1778312Y1321239D2*
X1791710Y1300192D1*
X1804061Y1340384D2*
X1819360Y1300192D1*
X1834658Y1340384D1*
X1848955Y1330789D2*
Y1332691D1*
X1850856Y1336537D1*
X1852758Y1338439D1*
X1856604Y1340340D1*
X1864254D1*
X1868056Y1338439D1*
X1869958Y1336537D1*
X1871903Y1332691D1*
Y1328888D1*
X1869958Y1325041D1*
X1866155Y1319338D1*
X1847010Y1300192D1*
X1873804D1*
X1723569Y1440777D2*
X1733164Y1400585D1*
X1742715Y1440777D1*
X1752265Y1400585D1*
X1761860Y1440777D1*
X1774212Y1421631D2*
X1791411D1*
X1797160Y1423577D1*
X1799105Y1425478D1*
X1801006Y1429281D1*
Y1433127D1*
X1799105Y1436930D1*
X1797160Y1438875D1*
X1791411Y1440777D1*
X1774212D1*
Y1400585D1*
X1787609Y1421631D2*
X1801006Y1400585D1*
X1838207Y1440777D2*
X1813358D1*
Y1400585D1*
X1838207D1*
X1813358Y1421631D2*
X1828656D1*
X1862054Y1440777D2*
X1858252Y1438920D1*
X1854405Y1435073D1*
X1852504Y1431226D1*
X1850558Y1425478D1*
Y1415927D1*
X1852504Y1410179D1*
X1854405Y1406377D1*
X1858252Y1402530D1*
X1862054Y1400629D1*
X1869704D1*
X1873550Y1402530D1*
X1877353Y1406377D1*
X1879254Y1410179D1*
X1881200Y1415927D1*
Y1425478D1*
X1879254Y1431226D1*
X1877353Y1435073D1*
X1873550Y1438920D1*
X1869704Y1440777D1*
X1862054D1*
X1867802Y1408278D2*
X1879254Y1396782D1*
X1720639Y1541170D2*
X1730234Y1500978D1*
X1739784Y1541170D1*
X1749335Y1500978D1*
X1758930Y1541170D1*
X1771281Y1522025D2*
X1788481D1*
X1794229Y1523970D1*
X1796175Y1525872D1*
X1798076Y1529674D1*
Y1533521D1*
X1796175Y1537324D1*
X1794229Y1539269D1*
X1788481Y1541170D1*
X1771281D1*
Y1500978D1*
X1784678Y1522025D2*
X1798076Y1500978D1*
X1810427Y1541170D2*
Y1500978D1*
X1823825D1*
X1829573Y1502924D1*
X1833419Y1506726D1*
X1835321Y1510573D1*
X1837222Y1516277D1*
Y1525872D1*
X1835321Y1531620D1*
X1833419Y1535422D1*
X1829573Y1539269D1*
X1823825Y1541170D1*
X1810427D1*
X1862971D2*
Y1500978D1*
X1849573Y1541170D2*
X1876368D1*
X1369970Y729106D2*
Y731007D1*
X1371872Y734854D1*
X1373773Y736755D1*
X1377620Y738656D1*
X1385269D1*
X1389071Y736755D1*
X1390973Y734854D1*
X1392918Y731007D1*
Y727204D1*
X1390973Y723358D1*
X1387170Y717654D1*
X1368025Y698508D1*
X1394820D1*
X1418667Y738656D2*
X1412919Y736755D1*
X1409072Y731007D1*
X1407171Y721456D1*
Y715708D1*
X1409072Y706158D1*
X1412919Y700410D1*
X1418667Y698508D1*
X1422470D1*
X1428218Y700410D1*
X1432020Y706158D1*
X1433966Y715708D1*
Y721456D1*
X1432020Y731007D1*
X1428218Y736755D1*
X1422470Y738656D1*
X1418667D1*
X1432020Y731007D2*
X1409072Y706158D1*
X1448262Y729106D2*
Y731007D1*
X1450164Y734854D1*
X1452065Y736755D1*
X1455912Y738656D1*
X1463561D1*
X1467364Y736755D1*
X1469265Y734854D1*
X1471210Y731007D1*
Y727204D1*
X1469265Y723358D1*
X1465462Y717654D1*
X1446317Y698508D1*
X1473112D1*
X1487409Y729106D2*
Y731007D1*
X1489310Y734854D1*
X1491211Y736755D1*
X1495058Y738656D1*
X1502707D1*
X1506510Y736755D1*
X1508411Y734854D1*
X1510356Y731007D1*
Y727204D1*
X1508411Y723358D1*
X1504608Y717654D1*
X1485463Y698508D1*
X1512258D1*
X1524609Y718582D2*
X1546717D1*
X1570564Y738656D2*
X1564816Y736755D1*
X1560970Y731007D1*
X1559068Y721456D1*
Y715708D1*
X1560970Y706158D1*
X1564816Y700410D1*
X1570564Y698508D1*
X1574367D1*
X1580115Y700410D1*
X1583918Y706158D1*
X1585863Y715708D1*
Y721456D1*
X1583918Y731007D1*
X1580115Y736755D1*
X1574367Y738656D1*
X1570564D1*
X1583918Y731007D2*
X1560970Y706158D1*
X1605864Y698508D2*
X1625009Y738656D1*
X1598214D1*
X1637360Y718582D2*
X1659468D1*
X1671820Y731007D2*
X1675666Y732952D1*
X1681414Y738656D1*
Y698508D1*
X1697613Y738656D2*
X1718615D1*
X1707163Y723358D1*
X1712911D1*
X1716714Y721456D1*
X1718615Y719555D1*
X1720561Y713807D1*
Y710005D1*
X1718615Y704256D1*
X1714813Y700410D1*
X1709064Y698508D1*
X1703316D1*
X1697613Y700410D1*
X1695711Y702355D1*
X1693766Y706158D1*
X3132132Y1980317D2*
Y1940125D1*
X3149377D1*
X3155125Y1942071D1*
X3157026Y1943972D1*
X3158927Y1947775D1*
Y1953523D1*
X3157026Y1957369D1*
X3155125Y1959271D1*
X3149377Y1961172D1*
X3155125Y1963117D1*
X3157026Y1965019D1*
X3158927Y1968821D1*
Y1972668D1*
X3157026Y1976470D1*
X3155125Y1978416D1*
X3149377Y1980317D1*
X3132132D1*
Y1961172D2*
X3149377D1*
X3171279Y1980317D2*
Y1951621D1*
X3173180Y1945873D1*
X3177027Y1942071D1*
X3182775Y1940125D1*
X3186577D1*
X3192325Y1942071D1*
X3196172Y1945873D1*
X3198073Y1951621D1*
Y1980317D1*
X3237219Y1974569D2*
X3233417Y1978416D1*
X3227669Y1980317D1*
X3220019D1*
X3214271Y1978416D1*
X3210425Y1974569D1*
Y1970767D1*
X3212370Y1966920D1*
X3214271Y1965019D1*
X3218074Y1963117D1*
X3229570Y1959271D1*
X3233417Y1957369D1*
X3235318Y1955424D1*
X3237219Y1951621D1*
Y1945873D1*
X3233417Y1942071D1*
X3227669Y1940125D1*
X3220019D1*
X3214271Y1942071D1*
X3210425Y1945873D1*
X3288451Y1980317D2*
Y1940125D1*
X3311399D1*
X3348600Y1980317D2*
X3323751D1*
Y1940125D1*
X3348600D1*
X3323751Y1961172D2*
X3339049D1*
X3360951Y1980317D2*
Y1940125D1*
X3374349D1*
X3380097Y1942071D1*
X3383943Y1945873D1*
X3385845Y1949720D1*
X3387746Y1955424D1*
Y1965019D1*
X3385845Y1970767D1*
X3383943Y1974569D1*
X3380097Y1978416D1*
X3374349Y1980317D1*
X3360951D1*
X3842874Y1884280D2*
X3839027Y1880477D1*
X3837126Y1874729D1*
Y1867080D1*
X3839027Y1861332D1*
X3842874Y1857485D1*
X3846677D1*
X3850523Y1859431D1*
X3852425Y1861332D1*
X3854326Y1865135D1*
X3858173Y1876631D1*
X3860074Y1880477D1*
X3862019Y1882379D1*
X3865822Y1884280D1*
X3871570D1*
X3875373Y1880477D1*
X3877318Y1874729D1*
Y1867080D1*
X3875373Y1861332D1*
X3871570Y1857485D1*
X3877318Y1927273D2*
X3837126Y1911930D1*
X3877318Y1896631D1*
X3863921Y1902379D2*
Y1921525D1*
X3837126Y1964518D2*
Y1939624D1*
X3877318D1*
X3856271D2*
Y1954923D1*
X3837126Y2001718D2*
Y1976869D1*
X3877318D1*
Y2001718D1*
X3856271Y1976869D2*
Y1992167D1*
X3929866Y1843686D2*
Y1860886D1*
X3927920Y1866634D1*
X3926019Y1868579D1*
X3922217Y1870481D1*
X3918370D1*
X3914567Y1868579D1*
X3912622Y1866634D1*
X3910721Y1860886D1*
X3910720Y1843686D1*
X3950913D1*
X3929866Y1857083D2*
X3950913Y1870481D1*
X3910721Y1907681D2*
Y1882832D1*
X3950913D1*
Y1907681D1*
X3929866Y1882832D2*
Y1898131D1*
X3916469Y1946827D2*
X3912622Y1943025D1*
X3910721Y1937277D1*
Y1929627D1*
X3912622Y1923879D1*
X3916469Y1920033D1*
X3920271D1*
X3924118Y1921978D1*
X3926019Y1923879D1*
X3927920Y1927682D1*
X3931767Y1939178D1*
X3933668Y1943025D1*
X3935614Y1944926D1*
X3939416Y1946827D1*
X3945164D1*
X3948967Y1943025D1*
X3950913Y1937277D1*
Y1929627D1*
X3948967Y1923879D1*
X3945165Y1920033D1*
X3910721Y1984028D2*
Y1959179D1*
X3950913D1*
Y1984028D1*
X3929866Y1959179D2*
Y1974477D1*
X3910721Y2009777D2*
X3950913D1*
X3910721Y1996379D2*
Y2023174D1*
X3871584Y699306D2*
X3911776D1*
Y716550D1*
X3909831Y722298D1*
X3907929Y724199D1*
X3904127Y726100D1*
X3898379D1*
X3894532Y724199D1*
X3892631Y722298D1*
X3890729Y716550D1*
X3888784Y722298D1*
X3886883Y724199D1*
X3883080Y726100D1*
X3879233D1*
X3875431Y724199D1*
X3873485Y722298D1*
X3871584Y716550D1*
Y699306D1*
X3890729D2*
Y716550D1*
X3871584Y738452D2*
X3900280D1*
X3906028Y740353D1*
X3909831Y744200D1*
X3911776Y749948D1*
Y753750D1*
X3909831Y759498D1*
X3906028Y763345D1*
X3900280Y765246D1*
X3871584D1*
Y790995D2*
X3911776D1*
X3871584Y777598D2*
Y804392D1*
Y830141D2*
X3911776D1*
X3871584Y816744D2*
Y843538D1*
Y867386D2*
X3873485Y863539D1*
X3877332Y859736D1*
X3881135Y857791D1*
X3886883Y855890D1*
X3896477D1*
X3902181Y857791D1*
X3906028Y859736D1*
X3909831Y863539D1*
X3911776Y867386D1*
Y875035D1*
X3909831Y878838D1*
X3906028Y882684D1*
X3902181Y884586D1*
X3896477Y886487D1*
X3886883D1*
X3881135Y884586D1*
X3877332Y882684D1*
X3873485Y878838D1*
X3871584Y875035D1*
Y867386D1*
Y925633D2*
X3911776D1*
X3871584Y898838D1*
X3911776D1*
Y1007507D2*
X3871584Y992164D1*
X3911776Y976865D1*
X3898379Y982613D2*
Y1001759D1*
X3128321Y500741D2*
X3137916Y460549D1*
X3147467Y500741D1*
X3157017Y460549D1*
X3166612Y500741D1*
X3178964D2*
Y460549D1*
X3216208Y500741D2*
X3191315D1*
Y460549D1*
Y481596D2*
X3206614D1*
X3228560Y500741D2*
Y460549D1*
X3279792Y500741D2*
Y460549D1*
X3302740D1*
X3339940Y500741D2*
X3315091D1*
Y460549D1*
X3339940D1*
X3315091Y481596D2*
X3330390D1*
X3352292Y500741D2*
Y460549D1*
X3365689D1*
X3371437Y462495D1*
X3375284Y466297D1*
X3377185Y470144D1*
X3379086Y475848D1*
Y485443D1*
X3377185Y491191D1*
X3375284Y494993D1*
X3371437Y498840D1*
X3365689Y500741D1*
X3352292D1*
X2367991Y429470D2*
Y469662D1*
X2352692Y429470D1*
X2337394Y469662D1*
Y429470D1*
X2380342Y469662D2*
X2382244Y467761D1*
X2384189Y469662D1*
X2382244Y471608D1*
X2380342Y469662D1*
X2382244Y456265D2*
Y429470D1*
X2419533Y450517D2*
X2415686Y454364D1*
X2411839Y456265D1*
X2406135D1*
X2402288Y454364D1*
X2398486Y450517D1*
X2396540Y444769D1*
Y440966D1*
X2398486Y435218D1*
X2402288Y431416D1*
X2406135Y429470D1*
X2411839D1*
X2415686Y431416D1*
X2419533Y435218D1*
X2431884Y456265D2*
Y429470D1*
Y444769D2*
X2433829Y450517D1*
X2437632Y454364D1*
X2441479Y456265D1*
X2447227D1*
X2469129D2*
X2465326Y454364D1*
X2461479Y450517D1*
X2459578Y444769D1*
Y440966D1*
X2461479Y435218D1*
X2465326Y431416D1*
X2469129Y429470D1*
X2474877D1*
X2478724Y431416D1*
X2482526Y435218D1*
X2484472Y440966D1*
Y444769D1*
X2482526Y450517D1*
X2478724Y454364D1*
X2474877Y456265D1*
X2469129D1*
X2496823Y469662D2*
Y440966D1*
X2498724Y435218D1*
X2502571Y431416D1*
X2508319Y429470D1*
X2512122D1*
X2517870Y431416D1*
X2521716Y435218D1*
X2523618Y440966D1*
Y469662D1*
X2562764Y463914D2*
X2558961Y467761D1*
X2553213Y469662D1*
X2545564D1*
X2539816Y467761D1*
X2535969Y463914D1*
Y460112D1*
X2537914Y456265D1*
X2539816Y454364D1*
X2543618Y452463D1*
X2555114Y448616D1*
X2558961Y446714D1*
X2560862Y444769D1*
X2562764Y440966D1*
Y435218D1*
X2558961Y431416D1*
X2553213Y429470D1*
X2545564D1*
X2539816Y431416D1*
X2535969Y435218D1*
X2575115Y469662D2*
Y429470D1*
X2592359D1*
X2598107Y431416D1*
X2600008Y433317D1*
X2601910Y437120D1*
Y442868D1*
X2600008Y446714D1*
X2598107Y448616D1*
X2592359Y450517D1*
X2598107Y452463D1*
X2600008Y454364D1*
X2601910Y458166D1*
Y462013D1*
X2600008Y465816D1*
X2598107Y467761D1*
X2592359Y469662D1*
X2575115D1*
Y450517D2*
X2592359D1*
X2360459Y2289283D2*
X2345116Y2329475D1*
X2329818Y2289283D1*
X2335566Y2302680D2*
X2354711D1*
X2399605Y2329475D2*
Y2289283D1*
X2372810Y2329475D1*
Y2289283D1*
X2425354Y2329475D2*
Y2289283D1*
X2411956Y2329475D2*
X2438751D1*
X2475952D2*
X2451102D1*
Y2289283D1*
X2475952D1*
X2451102Y2310329D2*
X2466401D1*
X2515098Y2329475D2*
Y2289283D1*
X2488303Y2329475D1*
Y2289283D1*
X2554244Y2329475D2*
Y2289283D1*
X2527449Y2329475D1*
Y2289283D1*
X2597237D2*
X2581894Y2329475D1*
X2566595Y2289283D1*
X2572343Y2302680D2*
X2591489D1*
X2100785Y901778D2*
Y876929D1*
X2140977D1*
Y901778D1*
X2119930Y876929D2*
Y892227D1*
X2106533Y940924D2*
X2102686Y937122D1*
X2100785Y931373D1*
Y923724D1*
X2102686Y917976D1*
X2106533Y914129D1*
X2110335D1*
X2114182Y916075D1*
X2116083Y917976D1*
X2117985Y921779D1*
X2121831Y933275D1*
X2123733Y937121D1*
X2125678Y939023D1*
X2129481Y940924D1*
X2135229D1*
X2139031Y937121D1*
X2140977Y931373D1*
Y923724D1*
X2139031Y917976D1*
X2135229Y914129D1*
X2121831Y953275D2*
Y970520D1*
X2119930Y976223D1*
X2117985Y978169D1*
X2114182Y980070D1*
X2108434D1*
X2104632Y978169D1*
X2102686Y976223D1*
X2100785Y970520D1*
Y953275D1*
X2140977D1*
X2100829Y996268D2*
Y1017271D1*
X2116128Y1005819D1*
Y1011567D1*
X2118029Y1015369D1*
X2119930Y1017271D1*
X2125678Y1019216D1*
X2129481D1*
X2135229Y1017271D1*
X2139076Y1013468D1*
X2140977Y1007720D1*
Y1001972D1*
X2139076Y996268D1*
X2137130Y994367D1*
X2133328Y992421D1*
X2110380Y1033513D2*
X2108478D1*
X2104632Y1035414D1*
X2102730Y1037316D1*
X2100829Y1041162D1*
Y1048812D1*
X2102730Y1052614D1*
X2104632Y1054515D1*
X2108478Y1056461D1*
X2112281D1*
X2116128Y1054515D1*
X2121831Y1050713D1*
X2140977Y1031568D1*
Y1058362D1*
X2120903Y1070714D2*
Y1092821D1*
X2100785Y1105173D2*
X2140977D1*
Y1118570D1*
X2139031Y1124318D1*
X2135229Y1128165D1*
X2131382Y1130066D1*
X2125678Y1131967D1*
X2116083D1*
X2110335Y1130066D1*
X2106533Y1128165D1*
X2102686Y1124318D1*
X2100785Y1118570D1*
Y1105173D1*
Y1169168D2*
Y1144319D1*
X2140977D1*
Y1169168D1*
X2119930Y1144319D2*
Y1159617D1*
X2100785Y1181519D2*
X2140977Y1196818D1*
X2100785Y1212117D1*
Y1224468D2*
X2140977D1*
X2100785Y1251263D2*
X2127579Y1224468D1*
X2117985Y1234019D2*
X2140977Y1251263D1*
X2100785Y1263614D2*
X2140977D1*
X2100785Y1289363D2*
X2140977D1*
X2100785Y1275966D2*
Y1302760D1*
X2110335Y1343808D2*
X2106533Y1341906D1*
X2102686Y1338060D1*
X2100785Y1334257D1*
Y1326608D1*
X2102686Y1322761D1*
X2106533Y1318958D1*
X2110335Y1317013D1*
X2116083Y1315112D1*
X2125678D1*
X2131382Y1317013D1*
X2135229Y1318958D1*
X2139031Y1322761D1*
X2140977Y1326608D1*
Y1334257D1*
X2139031Y1338060D1*
X2135229Y1341906D1*
X2131382Y1343808D1*
X2120903Y1356159D2*
Y1378267D1*
X2100785Y1390618D2*
X2140977Y1405917D1*
X2100785Y1421215D1*
Y1458416D2*
Y1433567D1*
X2140977D1*
Y1458416D1*
X2119930Y1433567D2*
Y1448865D1*
X2090306Y1523045D2*
X2094108Y1519199D1*
X2099856Y1515396D1*
X2107506Y1511549D1*
X2117100Y1509648D1*
X2124750D1*
X2134300Y1511549D1*
X2141950Y1515396D1*
X2147698Y1519199D1*
X2151500Y1523045D1*
X2100785Y1535397D2*
X2140977Y1544992D1*
X2100785Y1554542D1*
X2140977Y1564093D1*
X2100785Y1573688D1*
X2119930Y1586039D2*
Y1603239D1*
X2117985Y1608987D1*
X2116083Y1610932D1*
X2112281Y1612834D1*
X2108434D1*
X2104632Y1610932D1*
X2102686Y1608987D1*
X2100785Y1603239D1*
Y1586039D1*
X2140977D1*
X2119930Y1599436D2*
X2140977Y1612834D1*
X2100785Y1636681D2*
X2102686Y1632834D1*
X2106533Y1629032D1*
X2110335Y1627086D1*
X2116083Y1625185D1*
X2125678D1*
X2131382Y1627086D1*
X2135229Y1629032D1*
X2139031Y1632834D1*
X2140977Y1636681D1*
Y1644330D1*
X2139031Y1648133D1*
X2135229Y1651980D1*
X2131382Y1653881D1*
X2125678Y1655782D1*
X2116083D1*
X2110335Y1653881D1*
X2106533Y1651980D1*
X2102686Y1648133D1*
X2100785Y1644330D1*
Y1636681D1*
Y1668134D2*
X2140977Y1683432D1*
X2100785Y1698731D1*
Y1735931D2*
Y1711082D1*
X2140977D1*
Y1735931D1*
X2119930Y1711082D2*
Y1726381D1*
Y1748283D2*
Y1765483D1*
X2117985Y1771231D1*
X2116083Y1773176D1*
X2112281Y1775078D1*
X2108434D1*
X2104632Y1773176D1*
X2102686Y1771231D1*
X2100785Y1765483D1*
Y1748283D1*
X2140977D1*
X2119930Y1761680D2*
X2140977Y1775078D1*
X2090306Y1787429D2*
X2094108Y1791276D1*
X2099856Y1795078D1*
X2107506Y1798925D1*
X2117100Y1800826D1*
X2124750D1*
X2134300Y1798925D1*
X2141950Y1795078D1*
X2147698Y1791276D1*
X2151500Y1787429D1*
X3634632Y1509053D2*
Y1514801D1*
X3632731Y1518603D1*
X3630830Y1520549D1*
X3626983Y1522450D1*
X3619334D1*
X3617432Y1520549D1*
Y1516702D1*
X3619334Y1509053D1*
X3615531Y1507152D1*
Y1505250D1*
X3619334Y1501403D1*
X3628884Y1499502D1*
X3634632Y1501403D1*
X3638479Y1503305D1*
X3642281Y1507151D1*
X3644183Y1510954D1*
Y1518603D1*
X3642282Y1522450D1*
X3638479Y1526253D1*
X3634632Y1528198D1*
X3628884Y1530099D1*
X3619334D1*
X3613586Y1528198D1*
X3609783Y1526253D1*
X3605936Y1522450D1*
X3604035Y1518603D1*
Y1510954D1*
X3605936Y1507152D1*
X3609783Y1503305D1*
X3636533Y1509053D2*
X3619334D1*
X3630830Y1487151D2*
X3604035D1*
X3623180D2*
X3628928Y1481403D1*
X3630830Y1477556D1*
Y1471852D1*
X3628928Y1468005D1*
X3623180Y1466104D1*
X3604035D1*
X3623180D2*
X3628928Y1460356D1*
X3630830Y1456509D1*
Y1450806D1*
X3628928Y1446959D1*
X3623180Y1445013D1*
X3604035D1*
X3630830Y1423111D2*
X3628928Y1426914D1*
X3625082Y1430761D1*
X3619334Y1432662D1*
X3615531D1*
X3609783Y1430761D1*
X3605980Y1426914D1*
X3604035Y1423111D1*
Y1417363D1*
X3605980Y1413517D1*
X3609783Y1409714D1*
X3615531Y1407769D1*
X3619334D1*
X3625082Y1409714D1*
X3628928Y1413517D1*
X3630830Y1417363D1*
Y1423111D1*
Y1395417D2*
Y1374371D1*
X3604035Y1395417D1*
Y1374371D1*
X3630830Y1362019D2*
Y1340973D1*
X3604035Y1362019D1*
Y1340973D1*
X3630830Y1328621D2*
X3604035Y1320972D1*
X3630830Y1313323D1*
X3604035Y1305673D1*
X3630830Y1298024D1*
Y1262725D2*
X3604035D1*
X3625082D2*
X3628928Y1266527D1*
X3630830Y1270374D1*
Y1276078D1*
X3628928Y1279924D1*
X3625082Y1283727D1*
X3619334Y1285673D1*
X3615531D1*
X3609783Y1283727D1*
X3605980Y1279924D1*
X3604035Y1276078D1*
Y1270374D1*
X3605980Y1266527D1*
X3609783Y1262725D1*
X3644227Y1250373D2*
X3604035D1*
X3644227Y1215074D2*
X3604035D1*
X3625082D2*
X3628928Y1218876D1*
X3630830Y1222723D1*
Y1228471D1*
X3628928Y1232274D1*
X3625082Y1236121D1*
X3619334Y1238022D1*
X3615531D1*
X3609783Y1236121D1*
X3605980Y1232274D1*
X3604035Y1228471D1*
Y1222723D1*
X3605980Y1218876D1*
X3609783Y1215074D1*
X3679949Y1596633D2*
Y1579389D1*
X3681851Y1573686D1*
X3683796Y1571740D1*
X3687599Y1569839D1*
X3693347D1*
X3697149Y1571740D1*
X3699095Y1573686D1*
X3700996Y1579389D1*
Y1596633D1*
X3660804D1*
X3691445Y1528792D2*
X3695248Y1530693D1*
X3699095Y1534540D1*
X3700996Y1538342D1*
Y1545991D1*
X3699095Y1549838D1*
X3695248Y1553641D1*
X3691445Y1555586D1*
X3685697Y1557487D1*
X3676103Y1557488D1*
X3670399Y1555586D1*
X3666552Y1553641D1*
X3662749Y1549838D1*
X3660804Y1545991D1*
Y1538342D1*
X3662749Y1534540D1*
X3666552Y1530693D1*
X3670399Y1528792D1*
X3700996Y1516440D2*
X3660804D1*
Y1499196D1*
X3662750Y1493448D1*
X3664651Y1491547D1*
X3668453Y1489646D1*
X3674201D1*
X3678048Y1491547D1*
X3679949Y1493448D1*
X3681851Y1499196D1*
X3683796Y1493448D1*
X3685697Y1491547D1*
X3689500Y1489646D1*
X3693347D1*
X3697149Y1491547D1*
X3699095Y1493448D1*
X3700996Y1499196D1*
Y1516440D1*
X3681851D2*
Y1499196D1*
X3700996Y1438413D2*
X3660804D1*
Y1425016D1*
X3662750Y1419268D1*
X3666552Y1415421D1*
X3670399Y1413520D1*
X3676103Y1411619D1*
X3685697D1*
X3691445Y1413520D1*
X3695248Y1415421D1*
X3699095Y1419268D1*
X3700996Y1425016D1*
Y1438413D1*
X3676103Y1399267D2*
Y1376319D1*
X3679949D1*
X3683796Y1378221D1*
X3685697Y1380122D1*
X3687599Y1383969D1*
Y1389717D1*
X3685697Y1393519D1*
X3681851Y1397366D1*
X3676103Y1399267D1*
X3672300D1*
X3666552Y1397366D1*
X3662750Y1393519D1*
X3660804Y1389717D1*
Y1383969D1*
X3662750Y1380122D1*
X3666552Y1376319D1*
X3681851Y1342921D2*
X3685697Y1344823D1*
X3687599Y1350571D1*
Y1356319D1*
X3685697Y1362067D1*
X3681851Y1363968D1*
X3678048Y1362067D1*
X3676103Y1358220D1*
X3674201Y1348669D1*
X3672300Y1344823D1*
X3668453Y1342921D1*
X3666552D1*
X3662750Y1344823D1*
X3660804Y1350571D1*
Y1356319D1*
X3662750Y1362067D1*
X3666552Y1363968D1*
X3700996Y1330570D2*
X3699095Y1328669D1*
X3700996Y1326723D1*
X3702941Y1328669D1*
X3700996Y1330570D1*
X3687599Y1328669D2*
X3660804D1*
X3685697Y1291424D2*
X3655056D1*
X3649352Y1293325D1*
X3647407Y1295226D1*
X3645505Y1299073D1*
Y1304821D1*
X3647407Y1308624D1*
X3679949Y1291424D2*
X3683752Y1295226D1*
X3685697Y1299073D1*
Y1304821D1*
X3683752Y1308624D1*
X3679949Y1312471D1*
X3674201Y1314372D1*
X3670355D1*
X3664651Y1312471D1*
X3660804Y1308624D1*
X3658903Y1304821D1*
Y1299073D1*
X3660804Y1295226D1*
X3664651Y1291424D1*
X3687599Y1279073D2*
X3660804D1*
X3679949D2*
X3685697Y1273324D1*
X3687599Y1269478D1*
Y1263774D1*
X3685697Y1259927D1*
X3679949Y1258026D1*
X3660804D1*
X3700996Y1206794D2*
X3660804D1*
X3681851D2*
X3685697Y1202947D1*
X3687599Y1199144D1*
Y1193396D1*
X3685697Y1189594D1*
X3681851Y1185747D1*
X3676103Y1183846D1*
X3672300D1*
X3666552Y1185747D1*
X3662750Y1189594D1*
X3660804Y1193396D1*
Y1199144D1*
X3662750Y1202947D1*
X3666552Y1206794D1*
X3687599Y1169549D2*
X3660804Y1158097D1*
X3653155Y1161900D1*
X3649308Y1165746D1*
X3647407Y1169549D1*
Y1171494D1*
X3687599Y1146601D2*
X3660804Y1158097D1*
X874580Y816776D2*
D86*
Y867016D1*
X855457Y816776D1*
X836334Y867016D1*
Y816776D1*
X918704Y850269D2*
Y816776D1*
Y843084D2*
X913951Y847893D1*
X909143Y850269D1*
X902013D1*
X897204Y847893D1*
X892451Y843084D1*
X890019Y835899D1*
Y831146D1*
X892451Y823961D1*
X897204Y819208D1*
X902013Y816776D1*
X909143D1*
X913951Y819208D1*
X918704Y823961D1*
X962828Y867016D2*
Y816776D1*
Y843084D2*
X958075Y847893D1*
X953267Y850269D1*
X946082D1*
X941329Y847893D1*
X936520Y843084D1*
X934143Y835899D1*
Y831146D1*
X936520Y823961D1*
X941329Y819208D1*
X946082Y816776D1*
X953267D1*
X958075Y819208D1*
X962828Y823961D1*
X978268Y835899D2*
X1006952D1*
Y840708D1*
X1004576Y845516D1*
X1002199Y847893D1*
X997391Y850269D1*
X990206D1*
X985453Y847893D1*
X980644Y843084D1*
X978268Y835899D1*
Y831146D1*
X980644Y823961D1*
X985453Y819208D1*
X990206Y816776D1*
X997391D1*
X1002199Y819208D1*
X1006952Y823961D1*
X1090116Y867016D2*
X1085363D1*
X1080554Y864639D1*
X1078178Y857454D1*
Y816776D1*
X1070993Y850269D2*
X1087739D1*
X1117493D2*
X1112740Y847893D1*
X1107932Y843084D1*
X1105555Y835899D1*
Y831146D1*
X1107932Y823961D1*
X1112740Y819208D1*
X1117493Y816776D1*
X1124678D1*
X1129487Y819208D1*
X1134240Y823961D1*
X1136672Y831146D1*
Y835899D1*
X1134240Y843084D1*
X1129487Y847893D1*
X1124678Y850269D1*
X1117493D1*
X1152111D2*
Y816776D1*
Y835899D2*
X1154543Y843084D1*
X1159296Y847893D1*
X1164105Y850269D1*
X1171290D1*
X3769460Y1489185D2*
D84*
Y1494933D1*
X3767559Y1498736D1*
X3765658Y1500681D1*
X3761811Y1502583D1*
X3754162D1*
X3752260Y1500681D1*
Y1496835D1*
X3754162Y1489185D1*
X3750359Y1487284D1*
Y1485383D1*
X3754162Y1481536D1*
X3763712Y1479635D1*
X3769460Y1481536D1*
X3773307Y1483437D1*
X3777110Y1487284D1*
X3779011Y1491087D1*
Y1498736D1*
X3777110Y1502583D1*
X3773307Y1506385D1*
X3769460Y1508331D1*
X3763712Y1510232D1*
X3754162D1*
X3748414Y1508331D1*
X3744611Y1506385D1*
X3740764Y1502583D1*
X3738863Y1498736D1*
Y1491087D1*
X3740764Y1487284D1*
X3744611Y1483437D1*
X3771362Y1489185D2*
X3754162D1*
X3779055Y1448138D2*
X3748458D1*
X3742710Y1450039D1*
X3740809Y1451985D1*
X3738863Y1455787D1*
Y1459634D1*
X3740809Y1463437D1*
X3742710Y1465338D1*
X3748458Y1467283D1*
X3752260D1*
X3754162Y1435787D2*
Y1412839D1*
X3758008D1*
X3761855Y1414740D1*
X3763756Y1416641D1*
X3765658Y1420488D1*
Y1426236D1*
X3763756Y1430039D1*
X3759910Y1433885D1*
X3754162Y1435787D1*
X3750359D1*
X3744611Y1433885D1*
X3740809Y1430039D1*
X3738863Y1426236D1*
Y1420488D1*
X3740809Y1416641D1*
X3744611Y1412839D1*
X3779055Y1385189D2*
Y1388991D1*
X3777154Y1392838D1*
X3771406Y1394739D1*
X3738863D1*
X3765658Y1400487D2*
Y1387090D1*
X3779055Y1357539D2*
Y1361341D1*
X3777154Y1365188D1*
X3771406Y1367089D1*
X3738863D1*
X3765658Y1372837D2*
Y1359440D1*
X3758008Y1345187D2*
Y1327943D1*
X3759910Y1322239D1*
X3761855Y1320294D1*
X3765658Y1318393D1*
X3771406D1*
X3775208Y1320294D1*
X3777154Y1322239D1*
X3779055Y1327943D1*
Y1345187D1*
X3738863D1*
X3779055Y1306041D2*
X3777154Y1304140D1*
X3779055Y1302195D1*
X3781001Y1304140D1*
X3779055Y1306041D1*
X3765658Y1304140D2*
X3738863D1*
X3754162Y1289843D2*
Y1266895D1*
X3758008D1*
X3761855Y1268796D1*
X3763756Y1270698D1*
X3765658Y1274545D1*
Y1280293D1*
X3763756Y1284095D1*
X3759910Y1287942D1*
X3754162Y1289843D1*
X3750359D1*
X3744611Y1287942D1*
X3740809Y1284095D1*
X3738863Y1280293D1*
Y1274545D1*
X3740809Y1270698D1*
X3744611Y1266895D1*
X3765658Y1254544D2*
X3725466D1*
X3759910D2*
X3763712Y1250697D1*
X3765658Y1246895D1*
Y1241146D1*
X3763712Y1237300D1*
X3759910Y1233497D1*
X3754162Y1231552D1*
X3750315D1*
X3744611Y1233497D1*
X3740764Y1237300D1*
X3738863Y1241146D1*
Y1246895D1*
X3740764Y1250697D1*
X3744611Y1254544D1*
X3840760Y1550704D2*
X3844607Y1554506D1*
X3846508Y1560254D1*
Y1567904D1*
X3844607Y1573652D1*
X3840760Y1577498D1*
X3836957D1*
X3833111Y1575553D1*
X3831209Y1573652D1*
X3829308Y1569849D1*
X3825461Y1558353D1*
X3823560Y1554506D1*
X3821614Y1552605D1*
X3817812Y1550704D1*
X3812064D1*
X3808261Y1554506D1*
X3806316Y1560254D1*
Y1567904D1*
X3808261Y1573652D1*
X3812064Y1577498D1*
X3827362Y1515360D2*
X3831209Y1519207D1*
X3833110Y1523054D1*
Y1528758D1*
X3831209Y1532604D1*
X3827362Y1536407D1*
X3821614Y1538352D1*
X3817812D1*
X3812064Y1536407D1*
X3808261Y1532604D1*
X3806316Y1528758D1*
Y1523054D1*
X3808261Y1519207D1*
X3812064Y1515360D1*
X3846508Y1503009D2*
X3806316D1*
X3825461D2*
X3831209Y1497261D1*
X3833110Y1493414D1*
Y1487666D1*
X3831209Y1483863D1*
X3825461Y1481962D1*
X3806316D1*
X3821614Y1469611D2*
Y1446663D1*
X3825461D1*
X3829308Y1448564D1*
X3831209Y1450465D1*
X3833110Y1454312D1*
Y1460060D1*
X3831209Y1463863D1*
X3827362Y1467710D1*
X3821614Y1469611D1*
X3817812D1*
X3812064Y1467710D1*
X3808261Y1463863D1*
X3806316Y1460060D1*
Y1454312D1*
X3808261Y1450465D1*
X3812064Y1446663D1*
X3833110Y1434312D2*
X3806316D1*
X3825461D2*
X3831209Y1428563D1*
X3833110Y1424717D1*
Y1419013D1*
X3831209Y1415166D1*
X3825461Y1413265D1*
X3806316D1*
X3825461D2*
X3831209Y1407517D1*
X3833110Y1403670D1*
Y1397966D1*
X3831209Y1394120D1*
X3825461Y1392174D1*
X3806316D1*
X3833110Y1356875D2*
X3806316D1*
X3827362D2*
X3831209Y1360677D1*
X3833110Y1364524D1*
Y1370228D1*
X3831209Y1374075D1*
X3827362Y1377877D1*
X3821614Y1379823D1*
X3817812D1*
X3812064Y1377877D1*
X3808261Y1374075D1*
X3806316Y1370228D1*
Y1364524D1*
X3808261Y1360677D1*
X3812064Y1356875D1*
X3846508Y1338775D2*
X3813965D1*
X3808261Y1336874D1*
X3806316Y1333027D1*
Y1329225D1*
X3833110Y1344523D2*
Y1331126D1*
X3846508Y1316873D2*
X3844607Y1314972D1*
X3846508Y1313027D1*
X3848453Y1314972D1*
X3846508Y1316873D1*
X3833110Y1314972D2*
X3806316D1*
X3827362Y1277683D2*
X3831209Y1281530D1*
X3833110Y1285377D1*
Y1291080D1*
X3831209Y1294927D1*
X3827362Y1298730D1*
X3821614Y1300675D1*
X3817812D1*
X3812064Y1298730D1*
X3808261Y1294927D1*
X3806316Y1291080D1*
Y1285377D1*
X3808261Y1281530D1*
X3812064Y1277683D1*
X3846508Y1226451D2*
X3806316D1*
X3827362D2*
X3831209Y1222604D1*
X3833111Y1218802D1*
Y1213054D1*
X3831209Y1209251D1*
X3827362Y1205404D1*
X3821614Y1203503D1*
X3817812D1*
X3812064Y1205404D1*
X3808261Y1209251D1*
X3806316Y1213054D1*
Y1218802D1*
X3808261Y1222604D1*
X3812064Y1226451D1*
X3833111Y1189206D2*
X3806316Y1177754D1*
X3798667Y1181557D1*
X3794820Y1185404D1*
X3792919Y1189206D1*
Y1191152D1*
X3833111Y1166258D2*
X3806316Y1177754D1*
M02*
