G04 DipTrace 3.3.1.3*
G04 BottomSilk.gbr*
%MOMM*%
G04 #@! TF.FileFunction,Legend,Bot*
G04 #@! TF.Part,Single*
%ADD10C,0.25*%
%ADD14C,0.2*%
%ADD22O,0.40037X0.39994*%
%ADD25C,0.15*%
%ADD26C,0.50018*%
%ADD38C,0.31758*%
%ADD40O,0.39172X0.39127*%
%ADD54O,0.41029X0.39013*%
%ADD60O,0.39103X0.39118*%
%ADD130C,0.11765*%
%ADD131C,0.15686*%
%ADD132C,0.19608*%
%FSLAX35Y35*%
G04*
G71*
G90*
G75*
G01*
G04 BotSilk*
%LPD*%
X2062988Y4661872D2*
D10*
X1943018D1*
X2062988Y4481882D2*
X1943018D1*
D22*
X2247988Y4571877D3*
X2062988Y4423748D2*
D10*
X1943018D1*
X2062988Y4243758D2*
X1943018D1*
D22*
X2247988Y4333753D3*
X5969855Y1951138D2*
D14*
X5955754Y1961350D1*
X5952836Y1966813D1*
X5947001Y1977975D1*
X5926579Y2016450D1*
X5900808Y2064663D1*
X5347456Y3101825D1*
Y3439550D1*
X5329951D1*
X5169974D1*
X4482904D1*
X3556598D1*
X2702257D1*
X2272899D1*
X2102712D1*
Y3115838D1*
X1542066Y2064663D1*
X1535258Y2052075D1*
X1523588Y2029750D1*
X1516294Y2016450D1*
X1495872Y1977975D1*
X1490037Y1966813D1*
X1487119Y1961350D1*
X1474963Y1952563D1*
X1473018Y1951138D1*
X1436550Y1918125D1*
X1403485Y1881788D1*
X1374310Y1842363D1*
X1349025Y1800325D1*
X1328116Y1755913D1*
X1311583Y1709600D1*
X1299913Y1662100D1*
X1292620Y1613650D1*
X1292133Y1606763D1*
X1290188Y1564488D1*
X1292620Y1515563D1*
X1299913Y1467113D1*
X1311583Y1419375D1*
X1328116Y1373300D1*
X1349025Y1328888D1*
X1374310Y1286850D1*
X1403485Y1247425D1*
X1415641Y1234363D1*
X1436550Y1210850D1*
X1451623Y1197075D1*
X1473018Y1178075D1*
X1512404Y1148863D1*
X1554708Y1123450D1*
X1598957Y1102550D1*
X1645151Y1086163D1*
X1692803Y1074050D1*
X1741428Y1066925D1*
X1790053Y1064550D1*
X1839164Y1066925D1*
X1887789Y1074050D1*
X1914047Y1080700D1*
X1935442Y1086163D1*
X1981635Y1102550D1*
X2025884Y1123450D1*
X2068188Y1148863D1*
X2107574Y1178075D1*
X2128483Y1197075D1*
X2143557Y1210850D1*
X2164952Y1234363D1*
X2176622Y1247425D1*
X2205796Y1286850D1*
X2231081Y1328888D1*
X2238861Y1344800D1*
X2247614Y1355725D1*
X2290404Y1410113D1*
X2737754Y1979638D1*
X4705120D1*
X5152469Y1410113D1*
X5190883Y1361425D1*
X5195259Y1355725D1*
X5204012Y1344800D1*
X5211792Y1328888D1*
X5237077Y1286850D1*
X5266252Y1247425D1*
X5299317Y1210850D1*
X5314391Y1197075D1*
X5329951Y1182825D1*
X5335299Y1178075D1*
X5374686Y1148863D1*
X5416989Y1123450D1*
X5461238Y1102550D1*
X5507432Y1086163D1*
X5555084Y1074050D1*
X5603709Y1066925D1*
X5652820Y1064550D1*
X5701445Y1066925D1*
X5750070Y1074050D1*
X5797723Y1086163D1*
X5843916Y1102550D1*
X5888165Y1123450D1*
X5930469Y1148863D1*
X5969855Y1178075D1*
X5991250Y1197075D1*
X6006324Y1210850D1*
X6010214Y1215363D1*
X6039389Y1247425D1*
X6068564Y1286850D1*
X6093849Y1328888D1*
X6114758Y1373300D1*
X6131290Y1419375D1*
X6142960Y1467113D1*
X6150254Y1515563D1*
X6152685Y1564488D1*
X6151226Y1595125D1*
X6150254Y1613650D1*
X6142960Y1662100D1*
X6131290Y1709600D1*
X6114758Y1755913D1*
X6093849Y1800325D1*
X6068564Y1842363D1*
X6039389Y1881788D1*
X6010214Y1913613D1*
X6006324Y1918125D1*
X5969855Y1951138D1*
D26*
X1529698Y4978904D3*
X1224694Y4763914D2*
D25*
X1434690D1*
Y4833853D1*
X1224694Y5573856D2*
X1434690D1*
Y5493913D1*
X1054725Y4763914D2*
X1014698D1*
X1054725Y5573856D2*
X1014698D1*
X6208878Y4789699D2*
D10*
X5647157D1*
X5320836D2*
X5191304D1*
Y3687581D1*
X5577409Y3589360D2*
X6205141D1*
X2256496Y6065133D2*
X2383510D1*
D38*
X2218680Y6144333D3*
D40*
X2645396Y4017274D3*
X2772756Y4040644D2*
D10*
Y4340630D1*
X2822757D1*
Y4040644D1*
X2772756D1*
D40*
X2751867Y3951736D3*
X2624507Y3928366D2*
D10*
Y3628380D1*
X2574506D1*
Y3928366D1*
X2624507D1*
X2161598Y7145666D2*
Y7526676D1*
X2987162Y7145666D2*
X2987073Y7526676D1*
X2161598D2*
X2987162D1*
X2161598Y6923399D2*
Y6859877D1*
X2987162D1*
Y6923399D1*
X5511225Y7147082D2*
Y7528093D1*
X6336789Y7147082D2*
X6336700Y7528093D1*
X5511225D2*
X6336789D1*
X5511225Y6924816D2*
Y6861293D1*
X6336789D1*
Y6924816D1*
X1129725Y7145692D2*
Y7526703D1*
X1955289Y7145692D2*
X1955200Y7526703D1*
X1129725D2*
X1955289D1*
X1129725Y6923426D2*
Y6859903D1*
X1955289D1*
Y6923426D1*
X1433960Y4412803D2*
X1369697Y4412920D1*
X1036310Y4174785D2*
X1116456Y4174668D1*
Y3793698D1*
X1036310Y3793815D1*
X1116456Y3984183D2*
X1036310Y3984300D1*
X1037039Y4412803D2*
X1036310Y3555680D1*
X1433960Y4412803D2*
X1433231Y3555680D1*
X1116456Y3555563D2*
X1036310Y3555680D1*
X1116456Y4412803D2*
X1036310Y4412920D1*
X1433960Y3555563D2*
X1369697Y3555680D1*
X5056486Y7581078D2*
X3230966D1*
Y6930204D1*
X5056486D1*
Y7581078D1*
Y4470534D2*
Y4407034D1*
X3437219Y4406082D1*
X3246728Y4407034D2*
Y4470534D1*
Y4407034D2*
X3484890D1*
X2248415Y5299511D2*
X2218466Y5329503D1*
X2248415Y4929510D2*
X2218466D1*
X2248415D2*
Y4959503D1*
X1848264Y4929510D2*
Y4959503D1*
Y4929510D2*
X1878317D1*
X1848264Y5329503D2*
Y5299511D1*
Y5329503D2*
X1878317D1*
D54*
X2317903Y5254010D3*
X3890643Y3759362D2*
D10*
X3030617D1*
X3890643Y4019398D2*
X3030617D1*
Y3759362D2*
Y4019398D1*
X3890643Y3759362D2*
Y3839356D1*
Y3939404D2*
Y4019398D1*
Y3839356D2*
G02X3890643Y3939404I-30J50024D01*
G01*
X4970143Y3759362D2*
X4110117D1*
X4970143Y4019398D2*
X4110117D1*
Y3759362D2*
Y4019398D1*
X4970143Y3759362D2*
Y3839356D1*
Y3939404D2*
Y4019398D1*
Y3839356D2*
G02X4970143Y3939404I-30J50024D01*
G01*
D60*
X1926152Y3757396D3*
X2063478Y3770762D2*
D10*
Y4070757D1*
X2143464Y3770762D2*
Y4070757D1*
X2063478D2*
X2143464D1*
X2063478Y3770762D2*
X2143464D1*
X5390904Y6768868D2*
D130*
X5394526Y6776112D1*
X5401854Y6783440D1*
X5409098Y6787062D1*
X5423670D1*
X5430998Y6783440D1*
X5438242Y6776112D1*
X5441948Y6768868D1*
X5445570Y6757918D1*
Y6739640D1*
X5441948Y6728774D1*
X5438242Y6721446D1*
X5430998Y6714202D1*
X5423670Y6710496D1*
X5409098D1*
X5401854Y6714202D1*
X5394526Y6721446D1*
X5390904Y6728774D1*
X5367375Y6772405D2*
X5360047Y6776112D1*
X5349097Y6786977D1*
Y6710496D1*
X1982862Y6075587D2*
X1975618Y6079209D1*
X1968290Y6086537D1*
X1964668Y6093781D1*
Y6108353D1*
X1968290Y6115681D1*
X1975618Y6122925D1*
X1982862Y6126631D1*
X1993812Y6130253D1*
X2012090D1*
X2022956Y6126631D1*
X2030284Y6122925D1*
X2037528Y6115681D1*
X2041234Y6108353D1*
Y6093781D1*
X2037528Y6086537D1*
X2030284Y6079209D1*
X2022956Y6075587D1*
X1982946Y6048352D2*
X1979324D1*
X1971996Y6044730D1*
X1968374Y6041108D1*
X1964752Y6033780D1*
Y6019208D1*
X1968374Y6011964D1*
X1971996Y6008342D1*
X1979324Y6004636D1*
X1986568D1*
X1993896Y6008342D1*
X2004762Y6015586D1*
X2041234Y6052058D1*
Y6001014D1*
X5694450Y5476873D2*
X5698072Y5484117D1*
X5705400Y5491445D1*
X5712644Y5495067D1*
X5727216D1*
X5734544Y5491445D1*
X5741788Y5484117D1*
X5745494Y5476873D1*
X5749116Y5465923D1*
Y5447645D1*
X5745494Y5436779D1*
X5741788Y5429451D1*
X5734544Y5422207D1*
X5727216Y5418501D1*
X5712644D1*
X5705400Y5422207D1*
X5698072Y5429451D1*
X5694450Y5436779D1*
X5663593Y5494983D2*
X5623583D1*
X5645399Y5465839D1*
X5634449D1*
X5627205Y5462217D1*
X5623583Y5458595D1*
X5619877Y5447645D1*
Y5440401D1*
X5623583Y5429451D1*
X5630827Y5422123D1*
X5641777Y5418501D1*
X5652727D1*
X5663593Y5422123D1*
X5667215Y5425829D1*
X5670921Y5433073D1*
X2605005Y5092417D2*
X2597762Y5096039D1*
X2590433Y5103367D1*
X2586812Y5110611D1*
Y5125183D1*
X2590433Y5132511D1*
X2597762Y5139755D1*
X2605005Y5143461D1*
X2615955Y5147083D1*
X2634233D1*
X2645099Y5143461D1*
X2652427Y5139755D1*
X2659671Y5132511D1*
X2663377Y5125183D1*
Y5110611D1*
X2659671Y5103367D1*
X2652427Y5096039D1*
X2645099Y5092417D1*
X2586896Y5025172D2*
Y5061560D1*
X2619662Y5065182D1*
X2616040Y5061560D1*
X2612333Y5050610D1*
Y5039744D1*
X2616040Y5028794D1*
X2623283Y5021466D1*
X2634233Y5017844D1*
X2641477D1*
X2652427Y5021466D1*
X2659755Y5028794D1*
X2663377Y5039744D1*
Y5050610D1*
X2659755Y5061560D1*
X2656049Y5065182D1*
X2648805Y5068888D1*
X1514859Y4703851D2*
X1507615Y4707473D1*
X1500287Y4714801D1*
X1496665Y4722045D1*
Y4736617D1*
X1500287Y4743945D1*
X1507615Y4751189D1*
X1514859Y4754895D1*
X1525809Y4758517D1*
X1544087D1*
X1554953Y4754895D1*
X1562281Y4751188D1*
X1569524Y4743945D1*
X1573231Y4736616D1*
Y4722045D1*
X1569524Y4714801D1*
X1562281Y4707473D1*
X1554953Y4703851D1*
X1507615Y4636606D2*
X1500371Y4640228D1*
X1496749Y4651178D1*
Y4658422D1*
X1500371Y4669372D1*
X1511321Y4676700D1*
X1529515Y4680322D1*
X1547709Y4680321D1*
X1562281Y4676700D1*
X1569609Y4669371D1*
X1573231Y4658421D1*
Y4654800D1*
X1569609Y4643934D1*
X1562281Y4636606D1*
X1551330Y4632984D1*
X1547709D1*
X1536759Y4636606D1*
X1529515Y4643934D1*
X1525893Y4654800D1*
Y4658422D1*
X1529515Y4669372D1*
X1536759Y4676700D1*
X1547709Y4680321D1*
X4010334Y3717844D2*
X4013956Y3725088D1*
X4021284Y3732416D1*
X4028528Y3736038D1*
X4043100D1*
X4050428Y3732416D1*
X4057671Y3725088D1*
X4061378Y3717844D1*
X4065000Y3706894D1*
Y3688616D1*
X4061378Y3677751D1*
X4057671Y3670423D1*
X4050428Y3663179D1*
X4043100Y3659473D1*
X4028528D1*
X4021284Y3663179D1*
X4013956Y3670423D1*
X4010334Y3677751D1*
X3972232Y3659473D2*
X3935761Y3735954D1*
X3986804D1*
X1835418Y3590868D2*
X1839040Y3598112D1*
X1846368Y3605440D1*
X1853612Y3609062D1*
X1868184D1*
X1875512Y3605440D1*
X1882756Y3598112D1*
X1886462Y3590868D1*
X1890084Y3579918D1*
Y3561640D1*
X1886462Y3550774D1*
X1882756Y3543446D1*
X1875512Y3536202D1*
X1868184Y3532496D1*
X1853612D1*
X1846368Y3536202D1*
X1839040Y3543446D1*
X1835418Y3550774D1*
X1793695Y3608977D2*
X1804561Y3605355D1*
X1808267Y3598112D1*
Y3590784D1*
X1804561Y3583540D1*
X1797317Y3579834D1*
X1782745Y3576212D1*
X1771795Y3572590D1*
X1764551Y3565262D1*
X1760929Y3558018D1*
Y3547068D1*
X1764551Y3539824D1*
X1768173Y3536118D1*
X1779123Y3532496D1*
X1793695D1*
X1804561Y3536118D1*
X1808267Y3539824D1*
X1811889Y3547068D1*
Y3558018D1*
X1808267Y3565262D1*
X1800939Y3572590D1*
X1790073Y3576212D1*
X1775501Y3579834D1*
X1768173Y3583540D1*
X1764551Y3590784D1*
Y3598112D1*
X1768173Y3605355D1*
X1779123Y3608977D1*
X1793695D1*
X2117899Y3589031D2*
X2121521Y3596275D1*
X2128849Y3603603D1*
X2136093Y3607225D1*
X2150665D1*
X2157993Y3603603D1*
X2165237Y3596275D1*
X2168943Y3589031D1*
X2172565Y3578081D1*
Y3559803D1*
X2168943Y3548938D1*
X2165237Y3541610D1*
X2157993Y3534366D1*
X2150665Y3530660D1*
X2136093D1*
X2128849Y3534366D1*
X2121521Y3541610D1*
X2117899Y3548938D1*
X2046948Y3581703D2*
X2050654Y3570753D1*
X2057898Y3563425D1*
X2068848Y3559803D1*
X2072470D1*
X2083420Y3563425D1*
X2090664Y3570753D1*
X2094370Y3581703D1*
Y3585325D1*
X2090664Y3596275D1*
X2083420Y3603519D1*
X2072470Y3607141D1*
X2068848D1*
X2057898Y3603519D1*
X2050654Y3596275D1*
X2046948Y3581703D1*
Y3563425D1*
X2050654Y3545231D1*
X2057898Y3534281D1*
X2068848Y3530660D1*
X2076092D1*
X2087042Y3534281D1*
X2090664Y3541610D1*
X2449376Y4614714D2*
Y4538148D1*
X2423854D1*
X2412904Y4541854D1*
X2405576Y4549098D1*
X2401954Y4556426D1*
X2398332Y4567292D1*
Y4585570D1*
X2401954Y4596520D1*
X2405576Y4603764D1*
X2412904Y4611092D1*
X2423854Y4614714D1*
X2449376D1*
X2338331Y4538148D2*
Y4614629D1*
X2374803Y4563670D1*
X2320137D1*
X2447565Y4408340D2*
Y4331775D1*
X2422043D1*
X2411093Y4335481D1*
X2403765Y4342725D1*
X2400143Y4350053D1*
X2396521Y4360918D1*
Y4379196D1*
X2400143Y4390146D1*
X2403765Y4397390D1*
X2411093Y4404718D1*
X2422043Y4408340D1*
X2447565D1*
X2329276Y4408256D2*
X2365664D1*
X2369286Y4375490D1*
X2365664Y4379112D1*
X2354714Y4382818D1*
X2343848D1*
X2332898Y4379112D1*
X2325570Y4371868D1*
X2321948Y4360918D1*
Y4353675D1*
X2325570Y4342725D1*
X2332898Y4335396D1*
X2343848Y4331775D1*
X2354714D1*
X2365664Y4335396D1*
X2369286Y4339103D1*
X2372992Y4346346D1*
X5486737Y3376519D2*
Y3318231D1*
X5490359Y3307281D1*
X5494065Y3303659D1*
X5501309Y3299953D1*
X5508637D1*
X5515881Y3303659D1*
X5519503Y3307281D1*
X5523209Y3318231D1*
Y3325475D1*
X5459502Y3358241D2*
Y3361863D1*
X5455880Y3369191D1*
X5452258Y3372813D1*
X5444930Y3376434D1*
X5430358D1*
X5423114Y3372813D1*
X5419492Y3369191D1*
X5415786Y3361863D1*
Y3354619D1*
X5419492Y3347291D1*
X5426736Y3336425D1*
X5463208Y3299953D1*
X5412164D1*
X1242951Y5702975D2*
Y5644688D1*
X1246573Y5633738D1*
X1250279Y5630116D1*
X1257523Y5626410D1*
X1264851D1*
X1272095Y5630116D1*
X1275716Y5633738D1*
X1279423Y5644688D1*
Y5651931D1*
X1212093Y5702891D2*
X1172084D1*
X1193899Y5673747D1*
X1182949D1*
X1175706Y5670125D1*
X1172084Y5666503D1*
X1168377Y5655553D1*
Y5648310D1*
X1172084Y5637360D1*
X1179327Y5630031D1*
X1190277Y5626410D1*
X1201227D1*
X1212093Y5630031D1*
X1215715Y5633738D1*
X1219421Y5640981D1*
X5803778Y4916599D2*
Y4858311D1*
X5807400Y4847361D1*
X5811106Y4843739D1*
X5818350Y4840033D1*
X5825678D1*
X5832922Y4843739D1*
X5836544Y4847361D1*
X5840250Y4858311D1*
Y4865555D1*
X5743777Y4840033D2*
Y4916514D1*
X5780249Y4865555D1*
X5725583D1*
X2258590Y6288602D2*
X2265834Y6285064D1*
X2273162Y6277736D1*
X2276784Y6270408D1*
X2280490Y6259458D1*
Y6241264D1*
X2276784Y6230314D1*
X2273162Y6223070D1*
X2265834Y6215742D1*
X2258590Y6212120D1*
X2244018D1*
X2236690Y6215742D1*
X2229446Y6223070D1*
X2225824Y6230314D1*
X2222118Y6241264D1*
Y6259458D1*
X2225824Y6270408D1*
X2229446Y6277736D1*
X2236690Y6285064D1*
X2244018Y6288602D1*
X2258590D1*
X2247640Y6226692D2*
X2225824Y6204792D1*
X2198588Y6273946D2*
X2191260Y6277652D1*
X2180310Y6288518D1*
Y6212036D1*
X2967106Y4452222D2*
X2974350Y4448684D1*
X2981678Y4441356D1*
X2985300Y4434028D1*
X2989006Y4423078D1*
Y4404884D1*
X2985300Y4393934D1*
X2981678Y4386690D1*
X2974350Y4379362D1*
X2967106Y4375740D1*
X2952534D1*
X2945206Y4379362D1*
X2937962Y4386690D1*
X2934340Y4393934D1*
X2930634Y4404884D1*
Y4423078D1*
X2934340Y4434028D1*
X2937962Y4441356D1*
X2945206Y4448684D1*
X2952534Y4452222D1*
X2967106D1*
X2956156Y4390312D2*
X2934340Y4368412D1*
X2903398Y4433944D2*
Y4437566D1*
X2899777Y4444894D1*
X2896155Y4448516D1*
X2888827Y4452138D1*
X2874255D1*
X2867011Y4448516D1*
X2863389Y4444894D1*
X2859683Y4437566D1*
Y4430322D1*
X2863389Y4422994D1*
X2870633Y4412128D1*
X2907105Y4375656D1*
X2856061D1*
X2503426Y3638392D2*
X2510670Y3634854D1*
X2517998Y3627526D1*
X2521620Y3620198D1*
X2525326Y3609248D1*
Y3591054D1*
X2521620Y3580104D1*
X2517998Y3572860D1*
X2510670Y3565532D1*
X2503426Y3561910D1*
X2488854D1*
X2481526Y3565532D1*
X2474282Y3572860D1*
X2470660Y3580104D1*
X2466954Y3591054D1*
Y3609248D1*
X2470660Y3620198D1*
X2474282Y3627526D1*
X2481526Y3634854D1*
X2488854Y3638392D1*
X2503426D1*
X2492476Y3576482D2*
X2470660Y3554582D1*
X2436097Y3638308D2*
X2396087D1*
X2417903Y3609164D1*
X2406953D1*
X2399709Y3605542D1*
X2396087Y3601920D1*
X2392381Y3590970D1*
Y3583726D1*
X2396087Y3572776D1*
X2403331Y3565448D1*
X2414281Y3561826D1*
X2425231D1*
X2436097Y3565448D1*
X2439718Y3569154D1*
X2443425Y3576398D1*
X3000129Y6387806D2*
X2967363D1*
X2956413Y6391513D1*
X2952707Y6395134D1*
X2949085Y6402378D1*
Y6409706D1*
X2952707Y6416950D1*
X2956413Y6420656D1*
X2967363Y6424278D1*
X3000129D1*
Y6347713D1*
X2974607Y6387806D2*
X2949085Y6347713D1*
X2925556Y6409622D2*
X2918228Y6413328D1*
X2907278Y6424194D1*
Y6347713D1*
X5476069Y6448943D2*
X5443303D1*
X5432353Y6452649D1*
X5428647Y6456271D1*
X5425025Y6463515D1*
Y6470843D1*
X5428647Y6478087D1*
X5432353Y6481793D1*
X5443303Y6485415D1*
X5476069D1*
Y6408849D1*
X5450547Y6448943D2*
X5425025Y6408849D1*
X5397789Y6467137D2*
Y6470759D1*
X5394167Y6478087D1*
X5390545Y6481709D1*
X5383217Y6485331D1*
X5368645D1*
X5361401Y6481709D1*
X5357780Y6478087D1*
X5354073Y6470759D1*
Y6463515D1*
X5357780Y6456187D1*
X5365023Y6445321D1*
X5401495Y6408849D1*
X5350451D1*
X5259957Y7321719D2*
Y7288953D1*
X5256251Y7278003D1*
X5252629Y7274297D1*
X5245385Y7270675D1*
X5238057D1*
X5230813Y7274297D1*
X5227107Y7278003D1*
X5223485Y7288953D1*
Y7321719D1*
X5300051D1*
X5259957Y7296197D2*
X5300051Y7270675D1*
X5223569Y7239818D2*
Y7199808D1*
X5252713Y7221624D1*
Y7210674D1*
X5256335Y7203430D1*
X5259957Y7199808D1*
X5270907Y7196102D1*
X5278150D1*
X5289101Y7199808D1*
X5296429Y7207052D1*
X5300051Y7218002D1*
Y7228952D1*
X5296429Y7239817D1*
X5292723Y7243439D1*
X5285479Y7247145D1*
X5189360Y5984403D2*
Y5951637D1*
X5185654Y5940687D1*
X5182032Y5936981D1*
X5174788Y5933359D1*
X5167460D1*
X5160216Y5936981D1*
X5156510Y5940687D1*
X5152888Y5951637D1*
Y5984403D1*
X5229454D1*
X5189360Y5958881D2*
X5229454Y5933359D1*
Y5873358D2*
X5152972D1*
X5203932Y5909830D1*
Y5855164D1*
X5495227Y5991012D2*
Y5958246D1*
X5491521Y5947296D1*
X5487899Y5943590D1*
X5480655Y5939968D1*
X5473327D1*
X5466083Y5943590D1*
X5462377Y5947296D1*
X5458755Y5958246D1*
Y5991012D1*
X5535321D1*
X5495227Y5965490D2*
X5535321Y5939968D1*
X5458839Y5872723D2*
Y5909111D1*
X5491605Y5912733D1*
X5487983Y5909111D1*
X5484277Y5898161D1*
Y5887295D1*
X5487983Y5876345D1*
X5495227Y5869017D1*
X5506177Y5865395D1*
X5513421D1*
X5524371Y5869017D1*
X5531699Y5876345D1*
X5535321Y5887295D1*
Y5898161D1*
X5531699Y5909111D1*
X5527993Y5912733D1*
X5520749Y5916439D1*
X2364502Y5707300D2*
X2331736D1*
X2320786Y5711006D1*
X2317080Y5714628D1*
X2313458Y5721872D1*
Y5729200D1*
X2317080Y5736444D1*
X2320786Y5740150D1*
X2331736Y5743772D1*
X2364502D1*
Y5667206D1*
X2338980Y5707300D2*
X2313458Y5667206D1*
X2246213Y5732822D2*
X2249835Y5740065D1*
X2260785Y5743687D1*
X2268029D1*
X2278979Y5740065D1*
X2286307Y5729115D1*
X2289929Y5710922D1*
Y5692728D1*
X2286307Y5678156D1*
X2278979Y5670828D1*
X2268029Y5667206D1*
X2264407D1*
X2253541Y5670828D1*
X2246213Y5678156D1*
X2242591Y5689106D1*
Y5692728D1*
X2246213Y5703678D1*
X2253541Y5710922D1*
X2264407Y5714544D1*
X2268029D1*
X2278979Y5710922D1*
X2286307Y5703678D1*
X2289929Y5692728D1*
X2589574Y6128442D2*
Y6095676D1*
X2585868Y6084726D1*
X2582246Y6081020D1*
X2575002Y6077398D1*
X2567674D1*
X2560430Y6081020D1*
X2556724Y6084726D1*
X2553102Y6095676D1*
Y6128442D1*
X2629668D1*
X2589574Y6102920D2*
X2629668Y6077398D1*
Y6039297D2*
X2553186Y6002825D1*
Y6053869D1*
X5615340Y5622068D2*
X5582574D1*
X5571624Y5625775D1*
X5567918Y5629396D1*
X5564296Y5636640D1*
Y5643968D1*
X5567918Y5651212D1*
X5571624Y5654918D1*
X5582574Y5658540D1*
X5615340D1*
Y5581975D1*
X5589818Y5622068D2*
X5564296Y5581975D1*
X5522573Y5658456D2*
X5533438Y5654834D1*
X5537145Y5647590D1*
Y5640262D1*
X5533438Y5633018D1*
X5526195Y5629312D1*
X5511623Y5625690D1*
X5500673Y5622068D1*
X5493429Y5614740D1*
X5489807Y5607496D1*
Y5596546D1*
X5493429Y5589303D1*
X5497051Y5585596D1*
X5508001Y5581975D1*
X5522573D1*
X5533438Y5585596D1*
X5537145Y5589303D1*
X5540767Y5596546D1*
Y5607496D1*
X5537145Y5614740D1*
X5529817Y5622068D1*
X5518951Y5625690D1*
X5504379Y5629312D1*
X5497051Y5633018D1*
X5493429Y5640262D1*
Y5647590D1*
X5497051Y5654834D1*
X5508001Y5658456D1*
X5522573D1*
X2609614Y4800972D2*
X2576849D1*
X2565899Y4804678D1*
X2562192Y4808300D1*
X2558570Y4815544D1*
Y4822872D1*
X2562192Y4830116D1*
X2565899Y4833822D1*
X2576849Y4837444D1*
X2609614D1*
Y4760878D1*
X2584092Y4800972D2*
X2558570Y4760878D1*
X2487619Y4811922D2*
X2491325Y4800972D1*
X2498569Y4793644D1*
X2509519Y4790022D1*
X2513141D1*
X2524091Y4793644D1*
X2531335Y4800972D1*
X2535041Y4811922D1*
Y4815544D1*
X2531335Y4826494D1*
X2524091Y4833738D1*
X2513141Y4837359D1*
X2509519D1*
X2498569Y4833738D1*
X2491325Y4826494D1*
X2487619Y4811922D1*
Y4793644D1*
X2491325Y4775450D1*
X2498569Y4764500D1*
X2509519Y4760878D1*
X2516763D1*
X2527713Y4764500D1*
X2531335Y4771828D1*
X2004109Y6593380D2*
X1971343D1*
X1960393Y6597086D1*
X1956687Y6600708D1*
X1953065Y6607952D1*
Y6615280D1*
X1956687Y6622524D1*
X1960393Y6626230D1*
X1971343Y6629852D1*
X2004109D1*
Y6553286D1*
X1978587Y6593380D2*
X1953065Y6553286D1*
X1929536Y6615195D2*
X1922208Y6618902D1*
X1911258Y6629767D1*
Y6553286D1*
X1865828Y6629767D2*
X1876778Y6626145D1*
X1884106Y6615195D1*
X1887728Y6597002D1*
Y6586052D1*
X1884106Y6567858D1*
X1876778Y6556908D1*
X1865828Y6553286D1*
X1858584D1*
X1847634Y6556908D1*
X1840391Y6567858D1*
X1836684Y6586052D1*
Y6597002D1*
X1840391Y6615195D1*
X1847634Y6626145D1*
X1858584Y6629767D1*
X1865828D1*
X1840391Y6615195D2*
X1884106Y6567858D1*
X5496459Y6241063D2*
X5463694D1*
X5452744Y6244769D1*
X5449038Y6248391D1*
X5445416Y6255635D1*
Y6262963D1*
X5449038Y6270207D1*
X5452744Y6273913D1*
X5463694Y6277535D1*
X5496459D1*
Y6200969D1*
X5470938Y6241063D2*
X5445416Y6200969D1*
X5421886Y6262879D2*
X5414558Y6266585D1*
X5403608Y6277451D1*
Y6200969D1*
X5380079Y6262879D2*
X5372751Y6266585D1*
X5361801Y6277451D1*
Y6200969D1*
X5915899Y6651425D2*
X5883133D1*
X5872183Y6655131D1*
X5868477Y6658753D1*
X5864855Y6665997D1*
Y6673325D1*
X5868477Y6680569D1*
X5872183Y6684275D1*
X5883133Y6687897D1*
X5915899D1*
Y6611331D1*
X5890377Y6651425D2*
X5864855Y6611331D1*
X5841326Y6673241D2*
X5833998Y6676947D1*
X5823048Y6687813D1*
Y6611331D1*
X5795812Y6669619D2*
Y6673241D1*
X5792190Y6680569D1*
X5788568Y6684191D1*
X5781240Y6687813D1*
X5766668D1*
X5759424Y6684191D1*
X5755802Y6680569D1*
X5752096Y6673241D1*
Y6665997D1*
X5755802Y6658669D1*
X5763046Y6647803D1*
X5799518Y6611331D1*
X5748474D1*
X2399429Y6585160D2*
X2366663D1*
X2355713Y6588866D1*
X2352007Y6592488D1*
X2348385Y6599732D1*
Y6607060D1*
X2352007Y6614304D1*
X2355713Y6618010D1*
X2366663Y6621632D1*
X2399429D1*
Y6545066D1*
X2373907Y6585160D2*
X2348385Y6545066D1*
X2324856Y6606976D2*
X2317528Y6610682D1*
X2306578Y6621548D1*
Y6545066D1*
X2275720Y6621548D2*
X2235711D1*
X2257526Y6592404D1*
X2246576D1*
X2239332Y6588782D1*
X2235711Y6585160D1*
X2232004Y6574210D1*
Y6566966D1*
X2235711Y6556016D1*
X2242954Y6548688D1*
X2253904Y6545066D1*
X2264854D1*
X2275720Y6548688D1*
X2279342Y6552394D1*
X2283048Y6559638D1*
X2429760Y4277900D2*
Y4245134D1*
X2426054Y4234184D1*
X2422432Y4230478D1*
X2415188Y4226856D1*
X2407860D1*
X2400616Y4230478D1*
X2396910Y4234184D1*
X2393288Y4245134D1*
Y4277900D1*
X2469854D1*
X2429760Y4252378D2*
X2469854Y4226856D1*
X2407944Y4203327D2*
X2404238Y4195999D1*
X2393372Y4185049D1*
X2469854D1*
Y4125048D2*
X2393372D1*
X2444332Y4161519D1*
Y4106854D1*
X1572510Y3939719D2*
Y3906953D1*
X1568804Y3896003D1*
X1565182Y3892297D1*
X1557938Y3888675D1*
X1550610D1*
X1543366Y3892297D1*
X1539660Y3896003D1*
X1536038Y3906953D1*
Y3939719D1*
X1612604D1*
X1572510Y3914197D2*
X1612604Y3888675D1*
X1550694Y3865146D2*
X1546988Y3857818D1*
X1536122Y3846868D1*
X1612604D1*
X1536122Y3779623D2*
Y3816010D1*
X1568888Y3819632D1*
X1565266Y3816010D1*
X1561560Y3805060D1*
Y3794195D1*
X1565266Y3783245D1*
X1572510Y3775917D1*
X1583460Y3772295D1*
X1590704D1*
X1601654Y3775917D1*
X1608982Y3783245D1*
X1612604Y3794195D1*
Y3805060D1*
X1608982Y3816010D1*
X1605276Y3819632D1*
X1598032Y3823338D1*
X2954697Y3861493D2*
Y3828727D1*
X2950991Y3817777D1*
X2947369Y3814071D1*
X2940125Y3810449D1*
X2932797D1*
X2925553Y3814071D1*
X2921847Y3817777D1*
X2918225Y3828727D1*
Y3861493D1*
X2994791D1*
X2954697Y3835971D2*
X2994791Y3810449D1*
X2932881Y3786919D2*
X2929175Y3779591D1*
X2918309Y3768641D1*
X2994791D1*
X2929175Y3701396D2*
X2921931Y3705018D1*
X2918309Y3715968D1*
Y3723212D1*
X2921931Y3734162D1*
X2932881Y3741490D1*
X2951075Y3745112D1*
X2969269D1*
X2983841Y3741490D1*
X2991169Y3734162D1*
X2994791Y3723212D1*
Y3719590D1*
X2991169Y3708724D1*
X2983841Y3701396D1*
X2972891Y3697774D1*
X2969269D1*
X2958319Y3701396D1*
X2951075Y3708724D1*
X2947453Y3719590D1*
Y3723212D1*
X2951075Y3734162D1*
X2958319Y3741490D1*
X2969269Y3745112D1*
X2569762Y7039899D2*
X2577006Y7047227D1*
X2587956Y7050849D1*
X2602528D1*
X2613478Y7047227D1*
X2620806Y7039899D1*
Y7032655D1*
X2617100Y7025327D1*
X2613478Y7021705D1*
X2606234Y7018083D1*
X2584334Y7010755D1*
X2577006Y7007133D1*
X2573384Y7003427D1*
X2569762Y6996183D1*
Y6985233D1*
X2577006Y6977989D1*
X2587956Y6974283D1*
X2602528D1*
X2613478Y6977989D1*
X2620806Y6985233D1*
X2546232Y7036193D2*
X2538904Y7039899D1*
X2527954Y7050764D1*
Y6974283D1*
X2699773Y6834032D2*
X2707102Y6830410D1*
X2714345Y6823082D1*
X2718052Y6815838D1*
X2721673Y6804888D1*
Y6786610D1*
X2718052Y6775744D1*
X2714345Y6768416D1*
X2707102Y6761172D1*
X2699773Y6757466D1*
X2685202D1*
X2677958Y6761172D1*
X2670630Y6768416D1*
X2667008Y6775744D1*
X2663386Y6786610D1*
Y6804888D1*
X2667008Y6815838D1*
X2670630Y6823082D1*
X2677958Y6830410D1*
X2685202Y6834032D1*
X2699773D1*
X2628906D2*
Y6772038D1*
X2625284Y6761172D1*
X2617956Y6757466D1*
X2610713D1*
X2639856Y6808510D2*
X2614334D1*
X2587183Y6834032D2*
Y6757466D1*
Y6793938D2*
X2576233Y6804888D1*
X2568905Y6808510D1*
X2557955D1*
X2550711Y6804888D1*
X2547089Y6793938D1*
Y6757466D1*
X2523560Y6786610D2*
X2479844D1*
Y6793938D1*
X2483466Y6801266D1*
X2487088Y6804888D1*
X2494416Y6808510D1*
X2505366D1*
X2512610Y6804888D1*
X2519938Y6797560D1*
X2523560Y6786610D1*
Y6779366D1*
X2519938Y6768416D1*
X2512610Y6761172D1*
X2505366Y6757466D1*
X2494416D1*
X2487088Y6761172D1*
X2479844Y6768416D1*
X2456315Y6808510D2*
Y6757466D1*
Y6786610D2*
X2452609Y6797560D1*
X2445365Y6804888D1*
X2438037Y6808510D1*
X2427087D1*
X5928338Y7003142D2*
X5935582Y7010470D1*
X5946532Y7014092D1*
X5961104D1*
X5972054Y7010470D1*
X5979382Y7003142D1*
Y6995898D1*
X5975676Y6988570D1*
X5972054Y6984948D1*
X5964810Y6981326D1*
X5942910Y6973998D1*
X5935582Y6970376D1*
X5931960Y6966670D1*
X5928338Y6959426D1*
Y6948476D1*
X5935582Y6941232D1*
X5946532Y6937526D1*
X5961104D1*
X5972054Y6941232D1*
X5979382Y6948476D1*
X5901103Y6995814D2*
Y6999436D1*
X5897481Y7006764D1*
X5893859Y7010386D1*
X5886531Y7014008D1*
X5871959D1*
X5864715Y7010386D1*
X5861093Y7006764D1*
X5857387Y6999436D1*
Y6992192D1*
X5861093Y6984864D1*
X5868337Y6973998D1*
X5904809Y6937526D1*
X5853765D1*
X6191781Y6824498D2*
X6199024Y6831826D1*
X6209974Y6835448D1*
X6224546D1*
X6235496Y6831826D1*
X6242824Y6824498D1*
Y6817254D1*
X6239118Y6809926D1*
X6235496Y6806304D1*
X6228253Y6802683D1*
X6206353Y6795354D1*
X6199024Y6791733D1*
X6195403Y6788026D1*
X6191781Y6780783D1*
Y6769833D1*
X6199024Y6762589D1*
X6209974Y6758883D1*
X6224546D1*
X6235496Y6762589D1*
X6242824Y6769833D1*
X6124535Y6809926D2*
Y6758883D1*
Y6798976D2*
X6131779Y6806304D1*
X6139107Y6809926D1*
X6149973D1*
X6157301Y6806304D1*
X6164545Y6798976D1*
X6168251Y6788026D1*
Y6780783D1*
X6164545Y6769833D1*
X6157301Y6762589D1*
X6149973Y6758883D1*
X6139107D1*
X6131779Y6762589D1*
X6124535Y6769833D1*
X6071862Y6835448D2*
X6079106D1*
X6086434Y6831826D1*
X6090056Y6820876D1*
Y6758883D1*
X6101006Y6809926D2*
X6075484D1*
X6048333Y6788026D2*
X6004617D1*
Y6795354D1*
X6008239Y6802683D1*
X6011861Y6806304D1*
X6019189Y6809926D1*
X6030139D1*
X6037383Y6806304D1*
X6044711Y6798976D1*
X6048333Y6788026D1*
Y6780783D1*
X6044711Y6769833D1*
X6037383Y6762589D1*
X6030139Y6758883D1*
X6019189D1*
X6011861Y6762589D1*
X6004617Y6769833D1*
X5907020Y6798976D2*
X5874254D1*
X5863304Y6802683D1*
X5859598Y6806304D1*
X5855976Y6813548D1*
Y6820876D1*
X5859598Y6828120D1*
X5863304Y6831826D1*
X5874254Y6835448D1*
X5907020D1*
Y6758883D1*
X5881498Y6798976D2*
X5855976Y6758883D1*
X5832446Y6788026D2*
X5788731D1*
Y6795354D1*
X5792353Y6802683D1*
X5795975Y6806304D1*
X5803303Y6809926D1*
X5814253D1*
X5821496Y6806304D1*
X5828825Y6798976D1*
X5832446Y6788026D1*
Y6780783D1*
X5828825Y6769833D1*
X5821496Y6762589D1*
X5814253Y6758883D1*
X5803303D1*
X5795975Y6762589D1*
X5788731Y6769833D1*
X5725107Y6798976D2*
X5728729Y6806304D1*
X5739679Y6809926D1*
X5750629D1*
X5761579Y6806304D1*
X5765201Y6798976D1*
X5761579Y6791733D1*
X5754251Y6788026D1*
X5736057Y6784404D1*
X5728729Y6780783D1*
X5725107Y6773454D1*
Y6769833D1*
X5728729Y6762589D1*
X5739679Y6758883D1*
X5750629D1*
X5761579Y6762589D1*
X5765201Y6769833D1*
X5701578Y6788026D2*
X5657862D1*
Y6795354D1*
X5661484Y6802683D1*
X5665106Y6806304D1*
X5672434Y6809926D1*
X5683384D1*
X5690628Y6806304D1*
X5697956Y6798976D1*
X5701578Y6788026D1*
Y6780783D1*
X5697956Y6769833D1*
X5690628Y6762589D1*
X5683384Y6758883D1*
X5672434D1*
X5665106Y6762589D1*
X5657862Y6769833D1*
X5623383Y6835448D2*
Y6773454D1*
X5619761Y6762589D1*
X5612433Y6758883D1*
X5605189D1*
X5634333Y6809926D2*
X5608811D1*
X1561532Y7026095D2*
X1568776Y7033423D1*
X1579726Y7037045D1*
X1594298D1*
X1605248Y7033423D1*
X1612576Y7026095D1*
Y7018851D1*
X1608870Y7011523D1*
X1605248Y7007901D1*
X1598004Y7004280D1*
X1576104Y6996951D1*
X1568776Y6993330D1*
X1565154Y6989623D1*
X1561532Y6982380D1*
Y6971430D1*
X1568776Y6964186D1*
X1579726Y6960480D1*
X1594298D1*
X1605248Y6964186D1*
X1612576Y6971430D1*
X1501531Y6960480D2*
Y7036961D1*
X1538003Y6986001D1*
X1483337D1*
X1627806Y6834058D2*
X1675228D1*
Y6757493D1*
Y6797586D2*
X1646084D1*
X1604277Y6834058D2*
Y6757493D1*
X1537032Y6808536D2*
Y6757493D1*
Y6797586D2*
X1544276Y6804914D1*
X1551604Y6808536D1*
X1562469D1*
X1569797Y6804914D1*
X1577041Y6797586D1*
X1580747Y6786636D1*
Y6779393D1*
X1577041Y6768443D1*
X1569797Y6761199D1*
X1562469Y6757493D1*
X1551604D1*
X1544276Y6761199D1*
X1537032Y6768443D1*
X1473408Y6797586D2*
X1477030Y6804914D1*
X1487980Y6808536D1*
X1498930D1*
X1509880Y6804914D1*
X1513502Y6797586D1*
X1509880Y6790343D1*
X1502552Y6786636D1*
X1484358Y6783014D1*
X1477030Y6779393D1*
X1473408Y6772064D1*
Y6768443D1*
X1477030Y6761199D1*
X1487980Y6757493D1*
X1498930D1*
X1509880Y6761199D1*
X1513502Y6768443D1*
X1449879Y6834058D2*
Y6757493D1*
Y6793964D2*
X1438929Y6804914D1*
X1431601Y6808536D1*
X1420651D1*
X1413407Y6804914D1*
X1409785Y6793964D1*
Y6757493D1*
X1151661Y3320955D2*
X1158905Y3328283D1*
X1169855Y3331905D1*
X1184427D1*
X1195377Y3328283D1*
X1202705Y3320955D1*
Y3313711D1*
X1198999Y3306383D1*
X1195377Y3302761D1*
X1188133Y3299140D1*
X1166233Y3291811D1*
X1158905Y3288190D1*
X1155283Y3284483D1*
X1151661Y3277240D1*
Y3266290D1*
X1158905Y3259046D1*
X1169855Y3255340D1*
X1184427D1*
X1195377Y3259046D1*
X1202705Y3266290D1*
X1084416Y3331821D2*
X1120804D1*
X1124426Y3299055D1*
X1120804Y3302677D1*
X1109854Y3306383D1*
X1098988D1*
X1088038Y3302677D1*
X1080710Y3295433D1*
X1077088Y3284483D1*
Y3277240D1*
X1080710Y3266290D1*
X1088038Y3258961D1*
X1098988Y3255340D1*
X1109854D1*
X1120804Y3258961D1*
X1124426Y3262668D1*
X1128132Y3269911D1*
X2108145Y5489475D2*
Y5434810D1*
X2104523Y5423860D1*
X2097195Y5416616D1*
X2086245Y5412910D1*
X2079001D1*
X2068051Y5416616D1*
X2060723Y5423860D1*
X2057101Y5434810D1*
Y5489475D1*
X2029866Y5471197D2*
Y5474819D1*
X2026244Y5482147D1*
X2022622Y5485769D1*
X2015294Y5489391D1*
X2000722D1*
X1993478Y5485769D1*
X1989856Y5482147D1*
X1986150Y5474819D1*
Y5467575D1*
X1989856Y5460247D1*
X1997100Y5449381D1*
X2033572Y5412910D1*
X1982528D1*
X3523439Y4370972D2*
Y4316306D1*
X3519817Y4305356D1*
X3512489Y4298112D1*
X3501539Y4294406D1*
X3494295D1*
X3483345Y4298112D1*
X3476017Y4305356D1*
X3472395Y4316306D1*
Y4370972D1*
X3441537Y4370888D2*
X3401528D1*
X3423343Y4341744D1*
X3412393D1*
X3405150Y4338122D1*
X3401528Y4334500D1*
X3397821Y4323550D1*
Y4316306D1*
X3401528Y4305356D1*
X3408771Y4298028D1*
X3419721Y4294406D1*
X3430671D1*
X3441537Y4298028D1*
X3445159Y4301734D1*
X3448865Y4308978D1*
X4604750Y4370972D2*
Y4316306D1*
X4601128Y4305356D1*
X4593800Y4298112D1*
X4582850Y4294406D1*
X4575606D1*
X4564656Y4298112D1*
X4557328Y4305356D1*
X4553706Y4316306D1*
Y4370972D1*
X4493704Y4294406D2*
Y4370888D1*
X4530176Y4319928D1*
X4475511D1*
X2305672Y4182345D2*
Y4127680D1*
X2302050Y4116730D1*
X2294722Y4109486D1*
X2283772Y4105780D1*
X2276528D1*
X2265578Y4109486D1*
X2258250Y4116730D1*
X2254628Y4127680D1*
Y4182345D1*
X2187383Y4182261D2*
X2223771D1*
X2227393Y4149495D1*
X2223771Y4153117D1*
X2212821Y4156823D1*
X2201955D1*
X2191005Y4153117D1*
X2183677Y4145873D1*
X2180055Y4134923D1*
Y4127680D1*
X2183677Y4116730D1*
X2191005Y4109401D1*
X2201955Y4105780D1*
X2212821D1*
X2223771Y4109401D1*
X2227393Y4113108D1*
X2231099Y4120351D1*
X4795226Y3839926D2*
D131*
X4746597Y3941901D1*
X4814655D1*
X4666595Y3839926D2*
Y3941901D1*
X4715224Y3873955D1*
X4642336D1*
X4610964Y3942013D2*
Y3839926D1*
X4552676D1*
X4453245Y3927413D2*
X4462904Y3937184D1*
X4477504Y3942013D1*
X4496933D1*
X4511533Y3937184D1*
X4521304Y3927413D1*
Y3917755D1*
X4516362Y3907984D1*
X4511533Y3903155D1*
X4501874Y3898326D1*
X4472674Y3888555D1*
X4462904Y3883726D1*
X4458074Y3878784D1*
X4453245Y3869126D1*
Y3854526D1*
X4462904Y3844867D1*
X4477504Y3839926D1*
X4496933D1*
X4511533Y3844867D1*
X4521304Y3854526D1*
X4392673Y3941901D2*
X4407273Y3937072D1*
X4417043Y3922472D1*
X4421873Y3898213D1*
Y3883613D1*
X4417043Y3859355D1*
X4407273Y3844755D1*
X4392673Y3839926D1*
X4383014D1*
X4368414Y3844755D1*
X4358756Y3859355D1*
X4353814Y3883613D1*
Y3898213D1*
X4358756Y3922472D1*
X4368414Y3937072D1*
X4383014Y3941901D1*
X4392673D1*
X4358756Y3922472D2*
X4417043Y3859355D1*
X4303012Y3839926D2*
X4254383Y3941901D1*
X4322442D1*
X4679945Y5840747D2*
X4743062D1*
Y5738659D1*
X4679945D1*
X4743062Y5792117D2*
X4704204D1*
X4580514Y5826147D2*
X4590173Y5835917D1*
X4604773Y5840747D1*
X4624202D1*
X4638802Y5835917D1*
X4648573Y5826147D1*
Y5816488D1*
X4643631Y5806717D1*
X4638802Y5801888D1*
X4629143Y5797059D1*
X4599943Y5787288D1*
X4590173Y5782459D1*
X4585343Y5777517D1*
X4580514Y5767859D1*
Y5753259D1*
X4590173Y5743600D1*
X4604773Y5738659D1*
X4624202D1*
X4638802Y5743600D1*
X4648573Y5753259D1*
X4549141Y5787288D2*
X4505341D1*
X4490854Y5792117D1*
X4485912Y5797059D1*
X4481083Y5806717D1*
Y5821317D1*
X4485912Y5830976D1*
X4490854Y5835917D1*
X4505341Y5840747D1*
X4549141D1*
Y5738659D1*
X4439940Y5840634D2*
X4386594D1*
X4415681Y5801776D1*
X4401081D1*
X4391423Y5796947D1*
X4386594Y5792117D1*
X4381652Y5777517D1*
Y5767859D1*
X4386594Y5753259D1*
X4396252Y5743488D1*
X4410852Y5738659D1*
X4425452D1*
X4439940Y5743488D1*
X4444769Y5748430D1*
X4449710Y5758088D1*
X4345338Y5816376D2*
Y5821205D1*
X4340509Y5830976D1*
X4335679Y5835805D1*
X4325909Y5840634D1*
X4306479D1*
X4296821Y5835805D1*
X4291992Y5830976D1*
X4287050Y5821205D1*
Y5811547D1*
X4291992Y5801776D1*
X4301650Y5787288D1*
X4350279Y5738659D1*
X4282221D1*
X4250848Y5789647D2*
X4194695D1*
X4163322Y5840747D2*
X4138951Y5738659D1*
X4114693Y5840747D1*
X4090434Y5738659D1*
X4066064Y5840747D1*
X4034691Y5792117D2*
X3991003D1*
X3976403Y5797059D1*
X3971462Y5801888D1*
X3966633Y5811547D1*
Y5821317D1*
X3971462Y5830976D1*
X3976403Y5835917D1*
X3991003Y5840747D1*
X4034691D1*
Y5738659D1*
X4000662Y5792117D2*
X3966633Y5738659D1*
X3906060Y5840747D2*
X3915831Y5835917D1*
X3925489Y5826147D1*
X3930431Y5816488D1*
X3935260Y5801888D1*
Y5777517D1*
X3930431Y5763030D1*
X3925489Y5753259D1*
X3915831Y5743600D1*
X3906060Y5738659D1*
X3886631D1*
X3876972Y5743600D1*
X3867202Y5753259D1*
X3862372Y5763030D1*
X3857543Y5777517D1*
Y5801888D1*
X3862372Y5816488D1*
X3867202Y5826147D1*
X3876972Y5835917D1*
X3886631Y5840747D1*
X3906060D1*
X3826171D2*
X3787312Y5738659D1*
X3748454Y5840747D1*
X3653964D2*
X3717081D1*
Y5738659D1*
X3653964D1*
X3717081Y5792117D2*
X3678223D1*
X3622592D2*
X3578904D1*
X3564304Y5797059D1*
X3559362Y5801888D1*
X3554533Y5811547D1*
Y5821317D1*
X3559362Y5830976D1*
X3564304Y5835917D1*
X3578904Y5840747D1*
X3622592D1*
Y5738659D1*
X3588562Y5792117D2*
X3554533Y5738659D1*
X3715726Y3839926D2*
X3667097Y3941901D1*
X3735155D1*
X3587095Y3839926D2*
Y3941901D1*
X3635724Y3873955D1*
X3562836D1*
X3531464Y3942013D2*
Y3839926D1*
X3473176D1*
X3373745Y3927413D2*
X3383404Y3937184D1*
X3398004Y3942013D1*
X3417433D1*
X3432033Y3937184D1*
X3441804Y3927413D1*
Y3917755D1*
X3436862Y3907984D1*
X3432033Y3903155D1*
X3422374Y3898326D1*
X3393174Y3888555D1*
X3383404Y3883726D1*
X3378574Y3878784D1*
X3373745Y3869126D1*
Y3854526D1*
X3383404Y3844867D1*
X3398004Y3839926D1*
X3417433D1*
X3432033Y3844867D1*
X3441804Y3854526D1*
X3313173Y3941901D2*
X3327773Y3937072D1*
X3337543Y3922472D1*
X3342373Y3898213D1*
Y3883613D1*
X3337543Y3859355D1*
X3327773Y3844755D1*
X3313173Y3839926D1*
X3303514D1*
X3288914Y3844755D1*
X3279256Y3859355D1*
X3274314Y3883613D1*
Y3898213D1*
X3279256Y3922472D1*
X3288914Y3937072D1*
X3303514Y3941901D1*
X3313173D1*
X3279256Y3922472D2*
X3337543Y3859355D1*
X3223512Y3839926D2*
X3174883Y3941901D1*
X3242942D1*
X6355450Y2092214D2*
X6253362D1*
X6355450Y2160272D2*
X6253362D1*
X6306821Y2092214D2*
Y2160272D1*
X6321421Y2249933D2*
X6253362D1*
X6306821D2*
X6316591Y2240274D1*
X6321421Y2230503D1*
Y2216016D1*
X6316591Y2206245D1*
X6306821Y2196587D1*
X6292221Y2191645D1*
X6282562D1*
X6267962Y2196587D1*
X6258304Y2206245D1*
X6253362Y2216016D1*
Y2230503D1*
X6258304Y2240274D1*
X6267962Y2249933D1*
X6321421Y2281305D2*
X6253362D1*
X6292221D2*
X6306821Y2286247D1*
X6316591Y2295905D1*
X6321421Y2305676D1*
Y2320276D1*
X6355450Y2409936D2*
X6253362D1*
X6306821D2*
X6316591Y2400278D1*
X6321421Y2390507D1*
Y2375907D1*
X6316591Y2366249D1*
X6306821Y2356478D1*
X6292221Y2351649D1*
X6282562D1*
X6267962Y2356478D1*
X6258304Y2366249D1*
X6253362Y2375907D1*
Y2390507D1*
X6258304Y2400278D1*
X6267962Y2409936D1*
X6321421Y2441309D2*
X6253362Y2460738D1*
X6321421Y2480167D1*
X6253362Y2499597D1*
X6321421Y2519026D1*
Y2608686D2*
X6253362D1*
X6306821D2*
X6316591Y2599028D1*
X6321421Y2589257D1*
Y2574769D1*
X6316591Y2564998D1*
X6306821Y2555340D1*
X6292221Y2550398D1*
X6282562D1*
X6267962Y2555340D1*
X6258304Y2564998D1*
X6253362Y2574769D1*
Y2589257D1*
X6258304Y2599028D1*
X6267962Y2608686D1*
X6321421Y2640059D2*
X6253362D1*
X6292221D2*
X6306821Y2645000D1*
X6316591Y2654659D1*
X6321421Y2664429D1*
Y2679029D1*
X6292221Y2710402D2*
Y2768690D1*
X6301991D1*
X6311762Y2763860D1*
X6316591Y2759031D1*
X6321421Y2749260D1*
Y2734660D1*
X6316591Y2725002D1*
X6306821Y2715231D1*
X6292221Y2710402D1*
X6282562D1*
X6267962Y2715231D1*
X6258304Y2725002D1*
X6253362Y2734660D1*
Y2749260D1*
X6258304Y2759031D1*
X6267962Y2768690D1*
X6355450Y2898819D2*
X6253362D1*
Y2932849D1*
X6258304Y2947449D1*
X6267962Y2957219D1*
X6277733Y2962048D1*
X6292221Y2966878D1*
X6316591D1*
X6331191Y2962048D1*
X6340850Y2957219D1*
X6350621Y2947448D1*
X6355450Y2932848D1*
Y2898819D1*
X6292221Y2998250D2*
Y3056538D1*
X6301991D1*
X6311762Y3051709D1*
X6316591Y3046879D1*
X6321421Y3037109D1*
Y3022509D1*
X6316591Y3012850D1*
X6306821Y3003079D1*
X6292221Y2998250D1*
X6282562D1*
X6267962Y3003080D1*
X6258304Y3012850D1*
X6253362Y3022509D1*
Y3037109D1*
X6258304Y3046880D1*
X6267962Y3056538D1*
X6306821Y3141369D2*
X6316591Y3136540D1*
X6321421Y3121940D1*
Y3107340D1*
X6316591Y3092740D1*
X6306821Y3087910D1*
X6297162Y3092740D1*
X6292221Y3102511D1*
X6287391Y3126769D1*
X6282562Y3136540D1*
X6272791Y3141369D1*
X6267962D1*
X6258304Y3136540D1*
X6253362Y3121940D1*
Y3107340D1*
X6258304Y3092740D1*
X6267962Y3087911D1*
X6355450Y3172741D2*
X6350621Y3177571D1*
X6355450Y3182512D1*
X6360391Y3177571D1*
X6355450Y3172741D1*
X6321421Y3177571D2*
X6253362D1*
X6316591Y3272172D2*
X6238762Y3272173D1*
X6224275Y3267343D1*
X6219333Y3262514D1*
X6214504Y3252743D1*
Y3238143D1*
X6219333Y3228485D1*
X6301991Y3272172D2*
X6311650Y3262514D1*
X6316591Y3252743D1*
Y3238143D1*
X6311650Y3228485D1*
X6301991Y3218714D1*
X6287391Y3213885D1*
X6277621D1*
X6263133Y3218714D1*
X6253362Y3228485D1*
X6248533Y3238143D1*
Y3252743D1*
X6253362Y3262514D1*
X6263133Y3272172D1*
X6321421Y3303545D2*
X6253362D1*
X6301991D2*
X6316591Y3318145D1*
X6321421Y3327916D1*
Y3342403D1*
X6316591Y3352174D1*
X6301992Y3357003D1*
X6253362D1*
X6115061Y2415923D2*
D132*
Y2397673D1*
X6109025Y2385600D1*
X6102988Y2379423D1*
X6090775Y2373386D1*
X6066488D1*
X6060452Y2379423D1*
Y2391636D1*
X6066488Y2415923D1*
X6054415Y2421959D1*
Y2427996D1*
X6066488Y2440209D1*
X6096811Y2446246D1*
X6115061Y2440209D1*
X6127275Y2434173D1*
X6139348Y2421959D1*
X6145385Y2409886D1*
Y2385600D1*
X6139348Y2373386D1*
X6127275Y2361313D1*
X6115061Y2355136D1*
X6096811Y2349100D1*
X6066488D1*
X6048238Y2355136D1*
X6036165Y2361313D1*
X6023952Y2373386D1*
X6017915Y2385600D1*
Y2409886D1*
X6023952Y2421959D1*
X6036165Y2434173D1*
X6121098Y2415923D2*
X6066488D1*
X6102988Y2485462D2*
X6017915D1*
X6078702D2*
X6096952Y2503712D1*
X6102988Y2515925D1*
Y2534035D1*
X6096952Y2546248D1*
X6078702Y2552285D1*
X6017915D1*
X6078702D2*
X6096952Y2570535D1*
X6102988Y2582748D1*
Y2600858D1*
X6096952Y2613071D1*
X6078702Y2619248D1*
X6017915D1*
X6102988Y2688787D2*
X6096952Y2676714D1*
X6084738Y2664500D1*
X6066488Y2658464D1*
X6054415D1*
X6036165Y2664500D1*
X6024092Y2676714D1*
X6017915Y2688787D1*
Y2707037D1*
X6024092Y2719250D1*
X6036165Y2731324D1*
X6054415Y2737500D1*
X6066488D1*
X6084738Y2731324D1*
X6096952Y2719250D1*
X6102988Y2707037D1*
Y2688787D1*
Y2776716D2*
Y2843539D1*
X6017915Y2776716D1*
Y2843539D1*
X6102988Y2882755D2*
Y2949578D1*
X6017915Y2882755D1*
Y2949578D1*
X6102988Y2988794D2*
X6017915Y3013080D1*
X6102988Y3037367D1*
X6017915Y3061653D1*
X6102988Y3085940D1*
Y3198015D2*
X6017915D1*
X6084738D2*
X6096952Y3185942D1*
X6102988Y3173728D1*
Y3155619D1*
X6096952Y3143405D1*
X6084738Y3131332D1*
X6066488Y3125155D1*
X6054415D1*
X6036165Y3131332D1*
X6024092Y3143405D1*
X6017915Y3155619D1*
Y3173729D1*
X6024092Y3185942D1*
X6036165Y3198015D1*
X6145525Y3237231D2*
X6017915D1*
X6145525Y3349306D2*
X6017915D1*
X6084738D2*
X6096952Y3337233D1*
X6102988Y3325019D1*
Y3306769D1*
X6096952Y3294696D1*
X6084738Y3282483D1*
X6066488Y3276446D1*
X6054415D1*
X6036165Y3282483D1*
X6024092Y3294696D1*
X6017915Y3306769D1*
Y3325019D1*
X6024092Y3337233D1*
X6036165Y3349306D1*
X1154964Y2956411D2*
D131*
X1150135D1*
X1140364Y2951582D1*
X1135535Y2946753D1*
X1130706Y2936982D1*
Y2917553D1*
X1135535Y2907894D1*
X1140364Y2903065D1*
X1150135Y2898124D1*
X1159793D1*
X1169564Y2903065D1*
X1184052Y2912724D1*
X1232681Y2961353D1*
Y2893294D1*
X1130706Y2832722D2*
X1135535Y2847322D1*
X1150135Y2857093D1*
X1174393Y2861922D1*
X1188993D1*
X1213252Y2857093D1*
X1227852Y2847322D1*
X1232681Y2832722D1*
Y2823063D1*
X1227852Y2808463D1*
X1213252Y2798805D1*
X1188993Y2793863D1*
X1174393D1*
X1150135Y2798805D1*
X1135535Y2808463D1*
X1130706Y2823063D1*
Y2832722D1*
X1150135Y2798805D2*
X1213252Y2857093D1*
X1154964Y2757549D2*
X1150135D1*
X1140364Y2752720D1*
X1135535Y2747891D1*
X1130706Y2738120D1*
Y2718691D1*
X1135535Y2709032D1*
X1140364Y2704203D1*
X1150135Y2699262D1*
X1159793D1*
X1169564Y2704203D1*
X1184052Y2713862D1*
X1232681Y2762491D1*
Y2694432D1*
X1130706Y2633860D2*
X1135535Y2648460D1*
X1150135Y2658231D1*
X1174393Y2663060D1*
X1188993D1*
X1213252Y2658231D1*
X1227852Y2648460D1*
X1232681Y2633860D1*
Y2624201D1*
X1227852Y2609601D1*
X1213252Y2599943D1*
X1188993Y2595001D1*
X1174393D1*
X1150135Y2599943D1*
X1135535Y2609601D1*
X1130706Y2624201D1*
Y2633860D1*
X1150135Y2599943D2*
X1213252Y2658231D1*
X1181693Y2563629D2*
Y2507475D1*
X1150135Y2476102D2*
X1145194Y2466332D1*
X1130706Y2451732D1*
X1232681D1*
X1154964Y2415418D2*
X1150135D1*
X1140364Y2410588D1*
X1135535Y2405759D1*
X1130706Y2395988D1*
Y2376559D1*
X1135535Y2366901D1*
X1140364Y2362071D1*
X1150135Y2357130D1*
X1159794D1*
X1169564Y2362071D1*
X1184052Y2371730D1*
X1232681Y2420359D1*
Y2352301D1*
X1181694Y2320928D2*
Y2264774D1*
X1130706Y2204202D2*
X1135535Y2218802D1*
X1150135Y2228573D1*
X1174394Y2233402D1*
X1188994D1*
X1213252Y2228572D1*
X1227852Y2218802D1*
X1232681Y2204202D1*
Y2194543D1*
X1227852Y2179943D1*
X1213252Y2170285D1*
X1188994Y2165343D1*
X1174394D1*
X1150135Y2170285D1*
X1135535Y2179943D1*
X1130706Y2194543D1*
Y2204202D1*
X1150135Y2170285D2*
X1213252Y2228572D1*
X1150135Y2133971D2*
X1145193Y2124200D1*
X1130706Y2109600D1*
X1232681D1*
X6150116Y2094794D2*
X6048029D1*
X6101487D2*
X6111258Y2104565D1*
X6116087Y2114223D1*
Y2128823D1*
X6111258Y2138482D1*
X6101487Y2148252D1*
X6086887Y2153082D1*
X6077229D1*
X6062629Y2148252D1*
X6052970Y2138482D1*
X6048029Y2128823D1*
Y2114223D1*
X6052970Y2104565D1*
X6062629Y2094794D1*
X6116087Y2189396D2*
X6048029Y2218483D1*
X6028600Y2208825D1*
X6018829Y2199054D1*
X6014000Y2189396D1*
Y2184454D1*
X6116087Y2247683D2*
X6048029Y2218483D1*
X4435610Y3280917D2*
D130*
X4442854Y3288246D1*
X4453804Y3291867D1*
X4468376D1*
X4479326Y3288246D1*
X4486654Y3280917D1*
Y3273674D1*
X4482948Y3266346D1*
X4479326Y3262724D1*
X4472082Y3259102D1*
X4450182Y3251774D1*
X4442854Y3248152D1*
X4439232Y3244446D1*
X4435610Y3237202D1*
Y3226252D1*
X4442854Y3219008D1*
X4453804Y3215302D1*
X4468376D1*
X4479326Y3219008D1*
X4486654Y3226252D1*
X4412081Y3291867D2*
Y3215302D1*
X4366651Y3291867D2*
X4373979Y3288246D1*
X4381223Y3280917D1*
X4384929Y3273674D1*
X4388551Y3262724D1*
Y3244446D1*
X4384929Y3233580D1*
X4381223Y3226252D1*
X4373979Y3219008D1*
X4366651Y3215302D1*
X4352079D1*
X4344835Y3219008D1*
X4337507Y3226252D1*
X4333885Y3233580D1*
X4330263Y3244446D1*
Y3262724D1*
X4333885Y3273674D1*
X4337507Y3280917D1*
X4344835Y3288246D1*
X4352079Y3291867D1*
X4366651D1*
X4232666Y3255396D2*
X4199900D1*
X4188950Y3259102D1*
X4185244Y3262724D1*
X4181622Y3269967D1*
Y3277296D1*
X4185244Y3284539D1*
X4188950Y3288246D1*
X4199900Y3291867D1*
X4232666D1*
Y3215302D1*
X4207144Y3255396D2*
X4181622Y3215302D1*
X4110755Y3291867D2*
X4158093D1*
Y3215302D1*
X4110755D1*
X4158093Y3255396D2*
X4128949D1*
X4032560Y3273674D2*
X4036182Y3280917D1*
X4043510Y3288246D1*
X4050754Y3291867D1*
X4065326D1*
X4072654Y3288246D1*
X4079898Y3280917D1*
X4083604Y3273674D1*
X4087226Y3262724D1*
Y3244446D1*
X4083604Y3233580D1*
X4079898Y3226252D1*
X4072654Y3219008D1*
X4065326Y3215302D1*
X4050754D1*
X4043510Y3219008D1*
X4036182Y3226252D1*
X4032560Y3233580D1*
X3961693Y3291867D2*
X4009031D1*
Y3215302D1*
X3961693D1*
X4009031Y3255396D2*
X3979887D1*
X3938164Y3251774D2*
X3905314D1*
X3894448Y3255396D1*
X3890742Y3259102D1*
X3887120Y3266346D1*
Y3277296D1*
X3890742Y3284539D1*
X3894448Y3288246D1*
X3905314Y3291867D1*
X3938164D1*
Y3215302D1*
X3838068Y3291867D2*
Y3215302D1*
X3863590Y3291867D2*
X3812546D1*
X3730645Y3215302D2*
X3759873Y3291867D1*
X3789017Y3215302D1*
X3778067Y3240824D2*
X3741595D1*
X3652450Y3273674D2*
X3656072Y3280917D1*
X3663400Y3288246D1*
X3670644Y3291867D1*
X3685216D1*
X3692544Y3288246D1*
X3699788Y3280917D1*
X3703494Y3273674D1*
X3707116Y3262724D1*
Y3244446D1*
X3703494Y3233580D1*
X3699788Y3226252D1*
X3692544Y3219008D1*
X3685216Y3215302D1*
X3670644D1*
X3663400Y3219008D1*
X3656072Y3226252D1*
X3652450Y3233580D1*
X3628920Y3291867D2*
Y3215302D1*
X3585205D1*
X3514338Y3291867D2*
X3561675D1*
Y3215302D1*
X3514338D1*
X3561675Y3255396D2*
X3532531D1*
X3391218Y3291867D2*
Y3215302D1*
X3416740Y3291867D2*
X3365696D1*
X3342167D2*
Y3215302D1*
X3291123Y3291867D2*
Y3215302D1*
X3342167Y3255396D2*
X3291123D1*
X3267594Y3291867D2*
Y3215302D1*
X3193021Y3280917D2*
X3200264Y3288246D1*
X3211214Y3291867D1*
X3225786D1*
X3236736Y3288246D1*
X3244064Y3280917D1*
Y3273674D1*
X3240358Y3266346D1*
X3236736Y3262724D1*
X3229492Y3259102D1*
X3207592Y3251774D1*
X3200264Y3248152D1*
X3196642Y3244446D1*
X3193021Y3237202D1*
Y3226252D1*
X3200264Y3219008D1*
X3211214Y3215302D1*
X3225786D1*
X3236736Y3219008D1*
X3244064Y3226252D1*
X3044379Y3280917D2*
X3051623Y3288246D1*
X3062573Y3291867D1*
X3077145D1*
X3088095Y3288246D1*
X3095423Y3280917D1*
Y3273674D1*
X3091717Y3266346D1*
X3088095Y3262724D1*
X3080851Y3259102D1*
X3058951Y3251774D1*
X3051623Y3248152D1*
X3048001Y3244446D1*
X3044379Y3237202D1*
Y3226252D1*
X3051623Y3219008D1*
X3062573Y3215302D1*
X3077145D1*
X3088095Y3219008D1*
X3095423Y3226252D1*
X3020850Y3291867D2*
Y3215302D1*
X2997321Y3291867D2*
Y3215302D1*
X2971799D1*
X2960849Y3219008D1*
X2953521Y3226252D1*
X2949899Y3233580D1*
X2946277Y3244446D1*
Y3262724D1*
X2949899Y3273674D1*
X2953521Y3280917D1*
X2960849Y3288246D1*
X2971799Y3291867D1*
X2997321D1*
X2875410D2*
X2922747D1*
Y3215302D1*
X2875410D1*
X2922747Y3255396D2*
X2893603D1*
M02*
