G04 DipTrace 3.3.1.3*
G04 BottomPaste.gbr*
%MOMM*%
G04 #@! TF.FileFunction,Paste,Bot*
G04 #@! TF.Part,Single*
%AMOUTLINE0*
4,1,4,
-0.5657,0.0707,
-0.0707,0.5657,
0.5657,-0.0707,
0.0707,-0.5657,
-0.5657,0.0707,
0*%
%AMOUTLINE2*
4,1,4,
-0.0707,-0.5657,
-0.5657,-0.0707,
0.0707,0.5657,
0.5657,0.0707,
-0.0707,-0.5657,
0*%
%ADD20R,0.7X0.9*%
%ADD21R,0.9X0.7*%
%ADD27R,1.35X0.4*%
%ADD30R,1.5X1.5*%
%ADD31R,1.0X1.0*%
%ADD32R,1.75X0.7*%
%ADD33R,1.5X1.3*%
%ADD34R,1.55X1.0*%
%ADD35R,1.4X0.8*%
%ADD36R,1.5X0.8*%
%ADD37R,1.0X1.45*%
%ADD39R,0.3X0.67*%
%ADD41R,1.05X0.65*%
%ADD51R,2.0X0.9*%
%ADD53R,4.3X2.3*%
%ADD55O,0.85X0.3*%
%ADD56O,0.3X0.85*%
%ADD58R,1.75X1.75*%
%ADD59R,0.6X2.0*%
%ADD61R,1.1X0.6*%
%ADD134OUTLINE0*%
%ADD136OUTLINE2*%
%FSLAX35Y35*%
G04*
G71*
G90*
G75*
G01*
G04 BotPaste*
%LPD*%
D20*
X5286257Y6683257D3*
Y6813257D3*
X2111260Y6000633D3*
Y6130633D3*
D134*
X5553253Y5375383D3*
X5461327Y5467310D3*
D20*
X2524003Y5026780D3*
Y5156780D3*
X1650880Y4762380D3*
Y4632380D3*
X4000380Y3968633D3*
Y3838633D3*
X1825507Y3825757D3*
Y3695757D3*
D21*
X2174757Y3667007D3*
X2044757D3*
D31*
X2143007Y4571880D3*
X1863007D3*
X2143007Y4333757D3*
X1863007D3*
D27*
X1404713Y5033883D3*
Y5098883D3*
Y5163883D3*
Y5228883D3*
Y5293883D3*
D31*
X1134713Y5063883D3*
Y5263883D3*
D32*
X6318133Y4619507D3*
Y4509407D3*
Y4399507D3*
X6318167Y4289440D3*
Y4179440D3*
Y4069473D3*
Y3959440D3*
X6318133Y3849507D3*
D33*
X6306133Y4739407D3*
D30*
Y3604407D3*
D34*
X5237667Y3610440D3*
D35*
X5480667Y3569473D3*
D36*
X5545733Y4764407D3*
D37*
X5395733Y4732507D3*
D39*
X2270006Y6127633D3*
X2320006D3*
X2370006D3*
Y6002633D3*
X2320006D3*
X2270006D3*
D41*
X2682757Y4095630D3*
Y4285630D3*
X2912757Y4190630D3*
X2714507Y3873380D3*
Y3683380D3*
X2484507Y3778380D3*
D21*
X2888703Y6485123D3*
X3018703D3*
D20*
X5286260Y6413383D3*
Y6543383D3*
X5370077Y7193910D3*
Y7323910D3*
X5286253Y5857757D3*
Y5987757D3*
X5397383Y5858703D3*
Y5988703D3*
D21*
X2368547Y5804617D3*
X2238547D3*
D20*
X2492257Y6000633D3*
Y6130633D3*
D134*
X5367277Y5559123D3*
X5275350Y5651050D3*
D136*
X2375653Y4799607D3*
X2467580Y4891533D3*
D21*
X1857257Y6683257D3*
X1987257D3*
D20*
X5286253Y6157880D3*
Y6287880D3*
D136*
X5665487Y6680743D3*
X5573560Y6588817D3*
D21*
X2254133Y6683257D3*
X2384133D3*
D20*
X2539880Y4127380D3*
Y4257380D3*
X1682630Y3921007D3*
Y3791007D3*
X2857380Y3714633D3*
Y3844633D3*
D51*
X5008923Y6819107D3*
X5009923Y6692107D3*
Y6565107D3*
Y6438107D3*
Y6311107D3*
Y6184107D3*
Y6057107D3*
Y5930107D3*
Y5803107D3*
Y5676107D3*
Y5549107D3*
Y5422107D3*
Y5295107D3*
Y5168107D3*
X3287717Y5169073D3*
Y5296073D3*
Y5423073D3*
Y5550070D3*
Y5677073D3*
Y4534073D3*
Y4661073D3*
Y4788073D3*
Y4915073D3*
Y5042073D3*
X3287723Y5803207D3*
Y5930207D3*
Y6057207D3*
Y6184207D3*
Y6311207D3*
Y6438207D3*
Y6565207D3*
Y6692207D3*
Y6819207D3*
D53*
X4246923Y6188907D3*
D51*
X5009913Y5041970D3*
Y4914970D3*
Y4787970D3*
Y4660970D3*
Y4533970D3*
D55*
X2238256Y5254507D3*
Y5204507D3*
Y5154507D3*
Y5104507D3*
Y5054507D3*
Y5004507D3*
D56*
X2173256Y4939507D3*
X2123256D3*
X2073256D3*
X2023256D3*
X1973256D3*
X1923256D3*
D55*
X1858256Y5004507D3*
Y5054507D3*
Y5104507D3*
Y5154507D3*
Y5204507D3*
Y5254507D3*
D56*
X1923256Y5319507D3*
X1973256D3*
X2023256D3*
X2073256D3*
X2123256D3*
X2173256D3*
D58*
X2048256Y5129507D3*
D59*
X3841630Y3619380D3*
X3714630D3*
X3587630D3*
X3460630D3*
X3333630D3*
X3206630D3*
X3079630D3*
Y4159380D3*
X3206630D3*
X3333630D3*
X3460630D3*
X3587630D3*
X3714630D3*
X3841630D3*
X4921130Y3619380D3*
X4794130D3*
X4667130D3*
X4540130D3*
X4413130D3*
X4286130D3*
X4159130D3*
Y4159380D3*
X4286130D3*
X4413130D3*
X4540130D3*
X4667130D3*
X4794130D3*
X4921130D3*
D61*
X1968380Y3825757D3*
Y3920757D3*
Y4015757D3*
X2238380D3*
Y3825757D3*
M02*
