M48
METRIC,0000.00
T01C0.4
T02C0.8
T03C0.85
T04C1.0
T05C1.1
T06C1.15
T07C1.3
T08C1.5
T09C6.0
%
T01
X+001556Y+005175
X+001556Y+005080
X+002074Y+004793
X+002230Y+004793
X+002381Y+005080
X+002381Y+005175
X+002380Y+005413
X+002169Y+005524
X+001925Y+005587
X+002302Y+005905
X+002397Y+005905
X+002667Y+005874
X+002667Y+005778
X+002778Y+006001
X+002381Y+006239
X+002030Y+006490
X+001756Y+006786
X+002338Y+006858
X+002510Y+006666
X+002905Y+006683
X+002937Y+006794
X+003019Y+006588
X+003127Y+006413
X+003127Y+006318
X+003462Y+006180
X+004064Y+006080
X+004239Y+006175
X+004064Y+006286
X+004429Y+006286
X+004429Y+006080
X+004842Y+006175
X+004826Y+005874
X+004826Y+005667
X+004858Y+005540
X+004842Y+005286
X+004762Y+005128
X+004849Y+005036
X+004842Y+004905
X+004699Y+004985
X+004445Y+005175
X+004159Y+004762
X+004081Y+004683
X+003999Y+004596
X+003699Y+004905
X+003889Y+005286
X+003794Y+005540
X+003604Y+005366
X+003080Y+005032
X+003111Y+004916
X+002921Y+005048
X+002984Y+004286
X+002540Y+004366
X+002142Y+004453
X+002127Y+004175
X+001861Y+004213
X+004000Y+004159
X+004826Y+004683
X+005191Y+005048
X+005286Y+005191
X+005556Y+005250
X+005647Y+005067
X+005916Y+005033
X+006175Y+004397
X+006175Y+004175
X+006066Y+004029
X+005366Y+004429
X+005016Y+004159
X+005258Y+003982
X+005203Y+003885
X+005395Y+005718
X+005175Y+006477
X+005395Y+006644
X+005477Y+006525
X+005556Y+006731
X+005760Y+006773
X+004858Y+006683
X+004493Y+006744
T02
X+001243Y+004191
X+001243Y+003984
X+001243Y+003778
T03
X+001405Y+004914
X+001405Y+005414
T04
X+002349Y+007271
X+002799Y+007271
X+001768Y+007271
X+001318Y+007271
X+005699Y+007272
X+006149Y+007272
T05
X+002663Y+001435
X+002841Y+001740
X+003019Y+001435
X+003197Y+001740
X+003375Y+001435
X+003553Y+001740
X+003731Y+001435
X+003909Y+001740
X+004087Y+001435
X+004265Y+001740
X+004443Y+001435
X+004621Y+001740
X+004799Y+001435
X+004799Y+002530
X+004621Y+002835
X+004443Y+002530
X+004265Y+002835
X+004087Y+002530
X+003909Y+002835
X+003731Y+002530
X+003553Y+002835
X+003375Y+002530
X+003197Y+002835
X+003019Y+002530
X+002841Y+002835
X+002663Y+002530
T06
X+001135Y+004814
X+001135Y+005514
T07
X+002224Y+007021
X+001893Y+007021
X+001193Y+007021
X+002924Y+007021
X+005574Y+007022
X+006274Y+007022
T08
X+001243Y+004420G85X+001243Y+004470
X+001243Y+003499G85X+001243Y+003549
T09
X+005921Y+006239
X+001540Y+006239
X+001803Y+001549
X+005659Y+001549
T00
M30
