M48
; DRILL file {KiCad 7.0.9} date Tue Jan  9 00:20:41 2024
; FORMAT={-:-/ absolute / inch / decimal}
; #@! TF.CreationDate,2024-01-09T00:20:41-06:00
; #@! TF.GenerationSoftware,Kicad,Pcbnew,7.0.9
; #@! TF.FileFunction,MixedPlating,1,2
FMAT,2
INCH
; #@! TA.AperFunction,Plated,PTH,ViaDrill
T1C0.0157
; #@! TA.AperFunction,Plated,PTH,ComponentDrill
T2C0.0394
; #@! TA.AperFunction,Plated,PTH,ComponentDrill
T3C0.0630
; #@! TA.AperFunction,NonPlated,NPTH,ComponentDrill
T4C0.1063
%
G90
G05
T1
X5.43Y-4.72
X5.485Y-4.615
T2
X5.6434Y-4.565
X5.6434Y-4.665
X5.7434Y-4.565
X5.7434Y-4.665
X5.8434Y-4.565
X5.8434Y-4.665
X5.9434Y-4.565
X5.9434Y-4.665
X6.0434Y-4.565
X6.0434Y-4.665
X6.1434Y-4.565
X6.1434Y-4.665
X6.2434Y-4.565
X6.2434Y-4.665
X6.3434Y-4.565
X6.3434Y-4.665
X6.4434Y-4.565
X6.4434Y-4.665
X6.5434Y-4.565
X6.5434Y-4.665
T3
X5.6027Y-4.9941
X5.6572Y-5.1059
X5.7117Y-4.9941
X5.7663Y-5.1059
X5.8208Y-4.9941
X5.8753Y-5.1059
X5.9298Y-4.9941
X5.9844Y-5.1059
X6.0389Y-4.9941
X6.0934Y-5.1059
X6.148Y-4.9941
X6.2025Y-5.1059
X6.257Y-4.9941
X6.3115Y-5.1059
X6.3661Y-4.9941
X6.4206Y-5.1059
X6.4751Y-4.9941
X6.5296Y-5.1059
X6.5842Y-4.9941
T4
X5.3613Y-5.05
X6.8255Y-5.05
T0
M30
