G04 DipTrace 3.3.1.3*
G04 Top.gbr*
%MOIN*%
G04 #@! TF.FileFunction,Copper,L1,Top*
G04 #@! TF.Part,Single*
G04 #@! TA.AperFunction,Conductor*
%ADD14C,0.015748*%
G04 #@! TA.AperFunction,ComponentPad*
%ADD16C,0.070866*%
%ADD17C,0.066929*%
%ADD18R,0.066929X0.066929*%
%FSLAX26Y26*%
G04*
G70*
G90*
G75*
G01*
G04 Top*
%LPD*%
X1511830Y1088573D2*
D14*
Y741661D1*
X1493196Y723028D1*
Y593177D1*
X1443719Y543701D1*
X857499Y1088573D2*
Y770764D1*
X779326Y692591D1*
Y608094D1*
X843719Y543701D1*
X966554Y1088573D2*
Y769311D1*
X895198Y697955D1*
Y592222D1*
X943719Y543701D1*
X1075609Y1088573D2*
Y772150D1*
X994865Y691406D1*
Y592555D1*
X1043719Y543701D1*
X1184664Y1088573D2*
Y737867D1*
X1195898Y726634D1*
Y595879D1*
X1143719Y543701D1*
X1620885Y1088573D2*
Y744499D1*
X1594643Y718257D1*
Y594625D1*
X1543719Y543701D1*
X1402774Y1088573D2*
Y730453D1*
X1393396Y721075D1*
Y593378D1*
X1343719Y543701D1*
X1729940Y1088573D2*
Y754848D1*
X1693432Y718340D1*
Y593413D1*
X1643719Y543701D1*
X1293719Y1088573D2*
Y593701D1*
X1243719Y543701D1*
X1784467Y976762D2*
X1793211D1*
Y593193D1*
X1743719Y543701D1*
D16*
X1784467Y976762D3*
X1729940Y1088573D3*
X1675412Y976762D3*
X1620885Y1088573D3*
X1566357Y976762D3*
X1511830Y1088573D3*
X1457302Y976762D3*
X1402774Y1088573D3*
X1348247Y976762D3*
X1293719Y1088573D3*
X1239192Y976762D3*
X1184664Y1088573D3*
X1130137Y976762D3*
X1075609Y1088573D3*
X1021082Y976762D3*
X966554Y1088573D3*
X912026Y976762D3*
X857499Y1088573D3*
X802971Y976762D3*
D17*
X1743719Y643701D3*
Y543701D3*
X1643719Y643701D3*
Y543701D3*
X1543719Y643701D3*
Y543701D3*
X1443719Y643701D3*
Y543701D3*
X1343719Y643701D3*
Y543701D3*
X1243719Y643701D3*
Y543701D3*
X1143719Y643701D3*
Y543701D3*
X1043719Y643701D3*
Y543701D3*
X943719Y643701D3*
Y543701D3*
D18*
X843719Y643701D3*
D17*
Y543701D3*
M02*
