M48
;
; Format:               Excellon NC Drill Ascii
; Export Settings:      OSH Park
; This File Name:       576NUC_FujiNet_V1.6.xln
; Source File Name:     576NUC_FujiNet_V1.6.rrb
; Unique ID:            d1145678-c053-40f8-9390-8959fa1d921f
; Generated Date:       Saturday, 09 October 2021 17:44:57
;
; Created Using:        Robot Room Copper Connection v3.0.5875
; Software Contact:     http://www.robotroom.com/CopperConnection/Support.aspx
; License Number:       2194
;
; Zero Suppression:     None
; Number Precision:     2.4
;
FMAT,2
INCH
T01C.02
T02C.029
T03C.035
T04C.04
T05C.046
T06C.052
T07C.061
T08C.067
T09C.125
%
T01
X018690Y011160
X020000Y010160
X024690Y009160
X026820Y008660
X026440Y007660
X026000Y006660
X025120Y004030
X024250Y001660
X025560Y001160
X034810Y002030
Y003160
Y005160
X036690Y008160
X034810Y009160
X032620Y009600
Y011160
X028120Y012160
X028060Y012660
X027620Y011160
X027190Y010660
X026440Y015160
X027620Y015530
X027560Y016160
X028060Y016660
X029000Y015530
X030690Y016160
X026820Y019160
X027190Y019600
X026000Y018160
X022440Y018600
X019620Y017030
X019250Y016030
X020000Y015030
X017000Y018030
X014560Y019220
X009940Y019600
X007440Y024660
X006810Y025160
X028560Y025100
X031440Y023030
X032620Y024660
T02
X009880Y011290
X009380Y012530
Y013530
Y014530
Y015530
Y016530
Y017530
Y018530
X012380
Y017530
Y016530
Y015530
Y014530
Y013530
Y012530
X011880Y011290
X013750Y013530
X015120
Y012530
X015620Y011290
X017620
X018120Y012530
Y013530
Y014530
Y015530
Y016530
Y017530
Y018530
X017750Y021160
X018750
X019750
X020750
X022560
X023560
X024560
X025560
X026560
X027560
X028560
X029560
X030560
X031560
X037400Y017360
Y015360
Y013360
X040900
Y015360
Y017360
X043850
Y016360
Y015360
Y014360
Y013360
Y018360
X033250Y006660
Y005870
Y004600
Y003810
Y002660
Y000660
X015120Y014530
Y015530
Y016530
Y017530
Y018530
X013750Y017030
X013620Y022240
Y023030
X017750Y024660
X018750
X019750
X020750
X008880Y024160
Y023030
Y022240
Y026160
X003250Y019100
Y018100
X000750
Y019100
T03
X001500Y010410
Y011410
Y012410
Y013410
X003700
Y012410
Y011410
Y010410
X006030Y010430
Y011430
Y012430
Y013430
Y014430
Y015430
Y016430
Y017430
Y018430
Y019430
Y020430
Y021430
Y022430
Y023430
X003700Y014410
X021500Y014660
Y013660
Y012660
Y011660
Y010660
Y009660
Y008660
Y007660
Y006660
Y005660
Y004660
Y003660
Y002660
Y001660
Y000660
X031500
Y001660
Y002660
Y003660
Y004660
Y005660
Y006660
Y007660
Y008660
Y009660
Y010660
Y011660
Y012660
Y013660
Y014660
Y015660
Y016660
Y017660
Y018660
X021500
Y017660
Y016660
Y015660
T04
X001070Y021700
Y023460
X044930Y024410
Y026170
Y022270
Y020510
T05
X036750Y001860
T06
X002050Y021200
Y023960
X001850Y027210
Y029210
X043950Y026670
Y023910
Y022770
Y020010
T07
X006850Y026360
Y028210
Y030060
T08
X036750Y010060
T09
X034600Y016560
M30
