G04*
G04 Format:               Gerber RS-274X*
G04 Export Settings:      OSH Park*
G04 Layer:                BottomSolderMask*
G04 This File Name:       576NUC_FujiNet_V1.6.gbs*
G04 Source File Name:     576NUC_FujiNet_V1.6.rrb*
G04 Unique ID:            d1145678-c053-40f8-9390-8959fa1d921f*
G04 Generated Date:       Saturday, 09 October 2021 17:44:57*
G04*
G04 Created Using:        Robot Room Copper Connection v3.0.5875*
G04 Software Contact:     http://www.robotroom.com/CopperConnection/Support.aspx*
G04 License Number:       2194*
G04*
G04 Zero Suppression:     Leading*
G04 Number Precision:     2.4*
G04*
G04 Polarity:             Negative. Dark is solderable. Clear space is coating.*
G04*
%FSLAX24Y24*%
%MOIN*%
%LNBottomSolderMask*%
%ADD10C,.066*%
%ADD11C,.073*%
%ADD12C,.075*%
%ADD13C,.085*%
%ADD14C,.094*%
%ADD15C,.11*%
%ADD16C,.125*%
%ADD17C,.14*%
%ADD18C,.16*%
%ADD19R,.006X.006*%
%ADD20R,.066X.066*%
%ADD21R,.075X.075*%
%ADD22R,.14X.14*%
D10*
G01X15620Y11290D03*
X43850Y13360D03*
Y15360D03*
X12380Y13530D03*
X43850Y17360D03*
X12380Y14530D03*
Y15530D03*
Y16530D03*
Y17530D03*
Y18530D03*
X9380D03*
Y17530D03*
Y16530D03*
Y15530D03*
Y14530D03*
Y13530D03*
Y12530D03*
X18120Y13530D03*
Y14530D03*
Y15530D03*
Y16530D03*
Y17530D03*
Y18530D03*
X15120D03*
Y17530D03*
Y16530D03*
Y15530D03*
Y14530D03*
Y13530D03*
Y12530D03*
X750Y18100D03*
X33250Y660D03*
Y2660D03*
X8880Y22240D03*
X750Y19100D03*
X13620Y22240D03*
X17620Y11290D03*
X9880D03*
X11880D03*
X8880Y24160D03*
Y26160D03*
X18750Y24660D03*
X17750D03*
Y21160D03*
X18750D03*
X19750D03*
Y24660D03*
X20750D03*
Y21160D03*
X40900Y17360D03*
X37400D03*
X40900Y15360D03*
X37400D03*
X40900Y13360D03*
X37400D03*
X30560Y21160D03*
X33250Y5870D03*
X13750Y13530D03*
Y17030D03*
X29560Y21160D03*
X28560D03*
X27560D03*
X33250Y3810D03*
X26560Y21160D03*
X25560D03*
X24560D03*
X23560D03*
X22560D03*
D11*
X36750Y1860D03*
D12*
X31500Y6660D03*
Y5660D03*
Y4660D03*
Y3660D03*
Y2660D03*
X3700Y11410D03*
X6030Y16430D03*
Y15430D03*
Y14430D03*
Y13430D03*
Y12430D03*
Y11430D03*
Y17430D03*
Y18430D03*
Y19430D03*
Y20430D03*
Y21430D03*
Y22430D03*
Y23430D03*
X31500Y1660D03*
Y7660D03*
Y8660D03*
Y9660D03*
Y10660D03*
Y11660D03*
Y12660D03*
Y13660D03*
X21500Y660D03*
X31500Y14660D03*
Y15660D03*
Y16660D03*
Y17660D03*
Y18660D03*
X21500Y1660D03*
Y2660D03*
Y3660D03*
Y4660D03*
Y5660D03*
Y6660D03*
Y7660D03*
Y8660D03*
Y9660D03*
Y10660D03*
Y11660D03*
Y12660D03*
Y13660D03*
Y14660D03*
X3700Y12410D03*
Y13410D03*
Y14410D03*
X21500Y15660D03*
Y16660D03*
Y17660D03*
Y18660D03*
X1500Y11410D03*
Y12410D03*
Y13410D03*
D13*
X1070Y23460D03*
Y21700D03*
X44930Y24410D03*
Y26170D03*
Y20510D03*
Y22270D03*
D14*
X36750Y10060D03*
D15*
X2050Y23960D03*
Y21200D03*
X43950Y23910D03*
Y26670D03*
Y20010D03*
Y22770D03*
D16*
X1850Y29210D03*
Y27210D03*
D17*
X6850Y30060D03*
Y28210D03*
D18*
X34600Y16560D03*
D20*
X31560Y21160D03*
X43850Y14360D03*
X12380Y12530D03*
X43850Y16360D03*
Y18360D03*
X18120Y12530D03*
X3250Y18100D03*
X8880Y23030D03*
X3250Y19100D03*
X13620Y23030D03*
X33250Y6660D03*
Y4600D03*
D21*
X3700Y10410D03*
X6030Y10430D03*
X31500Y660D03*
X1500Y10410D03*
D22*
X6850Y26360D03*
M02*
