G04*
G04 Format:               Gerber RS-274X*
G04 Export Settings:      OSH Park*
G04 Layer:                TopCopper*
G04 This File Name:       576NUC_FujiNet_V1.6.gtl*
G04 Source File Name:     576NUC_FujiNet_V1.6.rrb*
G04 Unique ID:            d1145678-c053-40f8-9390-8959fa1d921f*
G04 Generated Date:       Saturday, 09 October 2021 17:44:57*
G04*
G04 Created Using:        Robot Room Copper Connection v3.0.5875*
G04 Software Contact:     http://www.robotroom.com/CopperConnection/Support.aspx*
G04 License Number:       2194*
G04*
G04 Zero Suppression:     Leading*
G04 Number Precision:     2.4*
G04*
%FSLAX24Y24*%
%MOIN*%
%LNTopCopper*%
%ADD10C,.007*%
%ADD11C,.012*%
%ADD12C,.015*%
%ADD13C,.02*%
%ADD14C,.025*%
%ADD15C,.031*%
%ADD16C,.036*%
%ADD17C,.037*%
%ADD18C,.039*%
%ADD19C,.044*%
%ADD20C,.049*%
%ADD21C,.056*%
%ADD22C,.061*%
%ADD23C,.063*%
%ADD24C,.065*%
%ADD25C,.075*%
%ADD26C,.08*%
%ADD27C,.084*%
%ADD28C,.089*%
%ADD29C,.099*%
%ADD30C,.1*%
%ADD31C,.115*%
%ADD32C,.13*%
%ADD33C,.15*%
%ADD34C,.154*%
%ADD35C,.174*%
%ADD36R,.006X.006*%
%ADD37R,.012X.012*%
%ADD38R,.056X.056*%
%ADD39R,.065X.065*%
%ADD40R,.08X.08*%
%ADD41R,.089X.089*%
%ADD42R,.13X.13*%
%ADD43R,.154X.154*%
%ADD44R,.035X.035*%
%ADD45R,.04X.06*%
%ADD46R,.059X.035*%
%ADD47R,.064X.084*%
%ADD48R,.07X.027*%
%ADD49R,.07X.04*%
%ADD50R,.07X.05*%
%ADD51R,.083X.059*%
%ADD52R,.094X.051*%
%ADD53R,.094X.064*%
%ADD54R,.094X.074*%
%ADD55R,.12X.07*%
%ADD56R,.13X.065*%
%AMTHERMAL*7,0,0,$1,$1-$2-$2,$2,0*%
%ADD57THERMAL,.08X.012*%
%ADD58THERMAL,.089X.012*%
%ADD59THERMAL,.099X.012*%
%ADD60THERMAL,.124X.012*%
%ADD61THERMAL,.139X.012*%
G36*
G01X120Y31290D02*
X8500D01*
Y27410D01*
X45880D01*
Y100D01*
X19000D01*
Y9530D01*
X120D01*
Y31290D01*
G37*
%LPC*%
G36*
X29000Y15530D02*
Y15030D01*
X28810Y14850D01*
X28560D01*
Y15530D01*
X29000D01*
G37*
G36*
X37250Y10410D02*
X41750D01*
Y1910D01*
X37250D01*
Y10410D01*
G37*
G36*
X19250Y16060D02*
X19600D01*
Y9960D01*
X19400Y9760D01*
X19200Y9910D01*
X19250Y16060D01*
G37*
G36*
X20000Y15060D02*
X19600D01*
X19650Y9960D01*
X20000Y10160D01*
Y15060D01*
G37*
G36*
X22300Y6810D02*
X22700D01*
Y1710D01*
X22500D01*
X21850Y2360D01*
Y3010D01*
X21650Y3210D01*
X21950Y3710D01*
Y6810D01*
X22300D01*
G37*
G36*
X30120Y5910D02*
X31310D01*
Y3470D01*
X30500Y2660D01*
X30120D01*
Y5910D01*
G37*
G36*
X23250Y8160D02*
X23900D01*
Y7560D01*
X23450Y7160D01*
X23250D01*
Y8160D01*
G37*
G36*
X21250Y19110D02*
X20600Y18560D01*
X20650Y16910D01*
X22200Y16860D01*
X23500Y15560D01*
X23900D01*
Y17160D01*
X22450Y18610D01*
X21900Y19110D01*
X21250D01*
G37*
G36*
X23880Y17160D02*
X24250Y17410D01*
Y7600D01*
X23880D01*
Y17160D01*
G37*
G36*
X25560Y18160D02*
X26000D01*
Y15160D01*
X26400D01*
X26440Y7660D01*
X26000D01*
Y6660D01*
X25560D01*
Y18160D01*
G37*
G36*
X27190Y19600D02*
X27560D01*
Y21160D01*
X28560D01*
Y6660D01*
X27620Y6850D01*
Y10660D01*
X26810D01*
Y8660D01*
X26440D01*
Y10660D01*
Y15160D01*
X26810D01*
Y19160D01*
X27190Y19600D01*
G37*
G36*
X29000Y8360D02*
X29600D01*
Y5860D01*
X29300D01*
X28550Y6660D01*
Y8360D01*
X29000D01*
G37*
G36*
X29310Y3350D02*
X29620D01*
Y2160D01*
X29500D01*
X29310Y2350D01*
Y3350D01*
G37*
G36*
X32350Y16560D02*
X31750Y17160D01*
X31120D01*
X28810Y14850D01*
Y12530D01*
X29380D01*
X31500Y14660D01*
X32350Y14710D01*
Y16560D01*
G37*
D57*
X12380Y18530D03*
X18120D03*
X33250Y2660D03*
X8880Y22240D03*
X13620D03*
X17620Y11290D03*
X11880D03*
X8880Y26160D03*
X17750Y21160D03*
X20750D03*
X33250Y5870D03*
X13750Y17030D03*
X33250Y3810D03*
D58*
X6030Y23430D03*
X31500Y13660D03*
X21500Y660D03*
Y6660D03*
X3700Y14410D03*
X1500Y13410D03*
D59*
X1070Y21700D03*
X44930Y26170D03*
Y22270D03*
D60*
X2050Y23960D03*
Y21200D03*
X43950Y23910D03*
Y26670D03*
Y20010D03*
Y22770D03*
D61*
X1850Y29210D03*
Y27210D03*
D15*
X31500Y1660D02*
X29900D01*
X31500Y2660D02*
X31000Y2160D01*
X31500Y3660D02*
X30500Y2660D01*
X31000Y2160D02*
X29900D01*
X31500Y4660D02*
Y4310D01*
X30500Y2660D02*
X29900D01*
X30350Y3160D02*
X31500Y4310D01*
X30350Y3160D02*
X29900D01*
X31500Y5660D02*
X31040Y5200D01*
X31500Y6660D02*
X30880Y6040D01*
X31040Y5200D02*
Y4220D01*
X29900Y4160D02*
X30500D01*
X31040Y4220D02*
X30470Y3660D01*
X30880Y6040D02*
Y4530D01*
X30470Y3660D02*
X29900D01*
X31500Y7660D02*
X30720Y6880D01*
X30880Y4530D02*
X30500Y4160D01*
X30720Y6880D02*
Y4840D01*
X31500Y8660D02*
X31000Y8160D01*
X30720Y4840D02*
X30540Y4660D01*
X29900D01*
X31500Y9660D02*
X30810Y8970D01*
X31000Y8160D02*
Y7440D01*
X30560Y5350D02*
X30350Y5160D01*
X30810Y8970D02*
Y7530D01*
X30350Y5160D02*
X29900D01*
X31500Y12660D02*
X32000Y13160D01*
X30380Y5810D02*
X30220Y5660D01*
X29900D01*
X31500Y11660D02*
X32190Y12350D01*
X32000Y13160D02*
Y14900D01*
X31740Y15160D01*
X31130D01*
X31500Y10660D02*
X32380Y11540D01*
X32190Y12350D02*
Y15720D01*
X31750Y16160D01*
X30690D01*
X32380Y11540D02*
Y16530D01*
X31500Y14660D02*
X29380Y12530D01*
X32380Y16530D02*
X31750Y17160D01*
X31130D01*
Y15160D02*
X29190Y13220D01*
X29380Y12530D02*
Y8350D01*
X29570Y8160D01*
X29190Y13220D02*
Y7470D01*
X29570Y8160D02*
X29900D01*
X30690Y16160D02*
X29000Y14470D01*
X29190Y7470D02*
X29500Y7160D01*
X29900D01*
X29000Y14470D02*
Y7160D01*
X31130Y17160D02*
X28820Y14840D01*
X29000Y7160D02*
X29500Y6660D01*
X29900D01*
X28820Y14840D02*
Y6840D01*
X21500Y1660D02*
X22000Y1160D01*
X28820Y6840D02*
X29500Y6160D01*
X29900D01*
X21500Y2660D02*
X22500Y1660D01*
X22000Y1160D02*
X23000D01*
X21500Y3660D02*
Y3380D01*
X22500Y1660D02*
X23000D01*
X21500Y3380D02*
X22720Y2160D01*
X21500Y4660D02*
X21970Y4190D01*
X22720Y2160D02*
X23000D01*
X21500Y5660D02*
X21970Y5190D01*
Y4190D02*
Y3230D01*
X22540Y2660D01*
X23000D01*
X21970Y5190D02*
Y4470D01*
X22260Y3340D02*
X22440Y3160D01*
X21500Y7660D02*
X21970Y7190D01*
X22440Y3160D02*
X23000D01*
X21500Y8660D02*
X22160Y8000D01*
X21970Y7190D02*
Y5500D01*
X22260Y3340D02*
Y4180D01*
X21970Y5500D02*
X22130Y5340D01*
X22160Y8000D02*
Y5570D01*
X22130Y5340D02*
Y4630D01*
X22600Y4160D01*
X23000D01*
X22160Y5570D02*
X22290Y5440D01*
X22260Y4180D02*
X21970Y4470D01*
X22290Y5440D02*
Y5030D01*
X22660Y4660D01*
X23000D01*
Y5160D02*
X22660D01*
X23000Y6660D02*
X22660D01*
Y5160D02*
X22470Y5350D01*
Y5560D01*
X21500Y15660D02*
X21000Y16160D01*
X22470Y5560D02*
X22320Y5710D01*
X22660Y6660D02*
X22500Y6820D01*
X22320Y5710D02*
Y8840D01*
X21500Y9660D01*
X22500Y6820D02*
Y11660D01*
X21000Y16160D02*
Y16900D01*
X22500Y11660D02*
X21500Y12660D01*
Y14660D02*
X20820Y15340D01*
X21000Y16900D02*
X21260Y17160D01*
X21880D01*
X20820Y15340D02*
Y17840D01*
X21500Y13660D02*
X20630Y14530D01*
X20820Y17840D02*
X21130Y18160D01*
X21880D01*
X20630Y14530D02*
Y18530D01*
X23000Y8160D02*
X23380D01*
X20630Y18530D02*
X21260Y19160D01*
X21880D01*
X23000Y7660D02*
X23440D01*
X23380Y8160D02*
X23500Y8280D01*
Y15530D01*
X23000Y7160D02*
X23440D01*
X23500Y15530D02*
X21880Y17160D01*
X23440Y7660D02*
X23690Y7900D01*
Y16340D01*
X21880Y18160D01*
X23440Y7160D02*
X23880Y7590D01*
Y17160D01*
X22440Y18600D01*
X21880Y19160D01*
X30560Y5350D02*
Y7000D01*
X31000Y7440D01*
X30380Y5810D02*
Y7100D01*
X30810Y7530D01*
G36*
X42786Y9347D02*
X43535D01*
Y2946D01*
X42786D01*
Y9347D01*
G37*
D16*
X3700Y13410D02*
X3940D01*
X3700Y12410D02*
X3940D01*
X6030Y22430D02*
X5750Y22410D01*
X6030Y21430D02*
X5750Y21350D01*
X28060Y12660D02*
Y16660D01*
X5120Y20720D02*
X5750Y21350D01*
X4560Y21220D02*
X5750Y22410D01*
X5120Y20720D02*
Y13600D01*
X28060Y21350D02*
Y16660D01*
X22560Y21160D02*
X24250Y19470D01*
Y1660D01*
X27620Y11160D02*
Y15530D01*
X4560Y14030D02*
X3940Y13410D01*
X5120Y13600D02*
X3940Y12410D01*
X18120Y17530D02*
Y16530D01*
X16120Y14530D01*
X15120D01*
Y13530D01*
X28560Y6660D02*
Y21160D01*
X6030Y14430D02*
X7440Y15850D01*
Y24660D01*
X6030Y20430D02*
X6810Y21210D01*
X14560Y19220D02*
Y17100D01*
X6810Y21210D02*
Y25160D01*
X15620Y11290D02*
X16300Y11970D01*
X18430D01*
X18810Y12350D01*
X18750Y21160D02*
X15120Y17530D01*
X18810Y12350D02*
Y20220D01*
X35600Y3250D02*
X35310Y3160D01*
X34810D02*
X35310D01*
X35600Y5210D02*
X35310Y5160D01*
X34810D01*
X35600Y9130D02*
X35310Y9160D01*
X34810D01*
X35600Y8150D02*
X35880Y8160D01*
X36690D01*
X29560Y21160D02*
X31440Y23030D01*
X27560Y16160D02*
Y21160D01*
X24690Y9160D02*
Y20030D01*
X4560Y21220D02*
Y14030D01*
X23560Y21160D02*
X24690Y20030D01*
X24560Y21160D02*
X25120Y20600D01*
Y4030D01*
X29900Y3160D02*
X29500D01*
X25560Y21160D02*
Y1160D01*
X28560Y25100D02*
Y21160D01*
Y6660D02*
X29310Y5910D01*
X19750Y21160D02*
X18810Y20220D01*
X29310Y5910D02*
Y3350D01*
X21500Y2660D02*
X19690Y4470D01*
X29310Y3350D02*
X29500Y3160D01*
X19690Y4470D02*
Y9470D01*
X9380Y15530D02*
X9940Y16100D01*
X19620Y17030D02*
Y9970D01*
X20000Y9590D02*
Y6600D01*
X9940Y16100D02*
Y19600D01*
X27190D02*
Y10660D01*
X20000Y10160D02*
Y15030D01*
X26820Y19160D02*
Y8660D01*
X15120Y15530D02*
X17000Y17410D01*
X26440Y15160D02*
Y7660D01*
X26000Y18160D02*
Y6660D01*
X32620Y24660D02*
Y11160D01*
X32250Y6410D02*
X31500Y5660D01*
X32250Y6410D02*
Y9230D01*
X28120Y12160D02*
Y6720D01*
X29060Y5790D01*
X27620Y6850D02*
X28810Y5660D01*
X29060Y5790D02*
Y3100D01*
X9380Y14530D02*
X13500Y10410D01*
X29060Y3100D02*
X29500Y2660D01*
X10100Y10790D02*
X9670D01*
X29500Y2660D02*
X29900D01*
X26560Y21160D02*
X27060Y21660D01*
X13500Y10410D02*
X17940D01*
X18690Y11160D01*
X28810Y5660D02*
Y2850D01*
X27620Y11160D02*
Y6850D01*
X28810Y2850D02*
X29500Y2160D01*
X29900D01*
X27060Y21660D02*
X27750D01*
X28060Y21350D01*
X15120Y16530D02*
X14560Y17100D01*
X17000Y18030D02*
Y17410D01*
X32620Y9600D02*
X32250Y9230D01*
X20000Y9590D02*
X19620Y9970D01*
X21500Y5660D02*
X20940D01*
X19250Y16030D02*
Y9910D01*
X19690Y9470D01*
X20000Y6600D02*
X20940Y5660D01*
X34810Y2030D02*
X35310D01*
X9380Y13530D02*
X10380Y12530D01*
X6030Y14430D02*
X9670Y10790D01*
X10380Y12530D02*
Y11070D01*
X10100Y10790D02*
X10380Y11070D01*
X29000Y15530D02*
Y19600D01*
X30560Y21160D01*
X35310Y2030D02*
X35600Y2000D01*
D18*
X31500Y660D02*
X31000Y1160D01*
X29900D01*
X35600Y6190D02*
X35380Y6220D01*
X31500Y1660D02*
X32190Y2350D01*
Y3540D01*
X33250Y4600D01*
D19*
X6850Y28210D02*
X6300Y28260D01*
D20*
X12190Y23030D02*
Y23530D01*
X10340Y23790D02*
X10310Y23530D01*
X6030Y11430D02*
X5750Y11410D01*
X34120Y6220D02*
Y6660D01*
Y10530D02*
Y6660D01*
X8880Y24160D02*
Y23030D01*
X10310D01*
X6850Y30060D02*
X8000Y28910D01*
X10310Y23030D02*
Y23530D01*
X9880Y11290D02*
X9380Y11790D01*
X3700Y11410D02*
X5750D01*
X8000Y28910D02*
Y24160D01*
X3250Y18100D02*
Y19100D01*
Y25220D01*
X6300Y28260D01*
X8000Y24160D02*
X8880D01*
X8000D02*
Y13910D01*
X9380Y11790D02*
Y12530D01*
X8000Y13910D02*
X9380Y12530D01*
X12160Y23790D02*
X12190Y23530D01*
Y23030D02*
X13620D01*
X33250Y660D02*
X34120Y1530D01*
Y6220D02*
X35380D01*
X34120Y1530D02*
Y6220D01*
X37400Y17360D02*
Y15360D01*
X34120Y10530D02*
X36950Y13360D01*
X37400Y15360D02*
Y13360D01*
X15620Y11290D02*
X15120Y11790D01*
Y12530D01*
X37400Y13360D02*
X36950D01*
X33250Y6660D02*
X34120D01*
D22*
X28060Y16660D03*
X24690Y9160D03*
X28060Y12660D03*
X34810Y2030D03*
X30690Y16160D03*
X24250Y1660D03*
X27620Y15530D03*
X7440Y24660D03*
X14560Y19220D03*
X6810Y25160D03*
X34810Y3160D03*
Y5160D03*
Y9160D03*
X36690Y8160D03*
X22440Y18600D03*
X31440Y23030D03*
X27560Y16160D03*
X25120Y4030D03*
X25560Y1160D03*
X28560Y25100D03*
X19250Y16030D03*
X19620Y17030D03*
X9940Y19600D03*
X27190D03*
Y10660D03*
X32620Y11160D03*
X20000Y10160D03*
X17000Y18030D03*
X20000Y15030D03*
X26820Y19160D03*
Y8660D03*
X26440Y15160D03*
X32620Y24660D03*
X26440Y7660D03*
X26000Y18160D03*
Y6660D03*
X28120Y12160D03*
X18690Y11160D03*
X27620D03*
X32620Y9600D03*
X29000Y15530D03*
D26*
X15620Y11290D03*
X43850Y13360D03*
Y15360D03*
X12380Y13530D03*
X43850Y17360D03*
X12380Y14530D03*
Y15530D03*
Y16530D03*
Y17530D03*
X9380Y18530D03*
Y17530D03*
Y16530D03*
Y15530D03*
Y14530D03*
Y13530D03*
Y12530D03*
X18120Y13530D03*
Y14530D03*
Y15530D03*
Y16530D03*
Y17530D03*
X15120Y18530D03*
Y17530D03*
Y16530D03*
Y15530D03*
Y14530D03*
Y13530D03*
Y12530D03*
X750Y18100D03*
X33250Y660D03*
X750Y19100D03*
X9880Y11290D03*
X8880Y24160D03*
X18750Y24660D03*
X17750D03*
X18750Y21160D03*
X19750D03*
Y24660D03*
X20750D03*
X40900Y17360D03*
X37400D03*
X40900Y15360D03*
X37400D03*
X40900Y13360D03*
X37400D03*
X30560Y21160D03*
X13750Y13530D03*
X29560Y21160D03*
X28560D03*
X27560D03*
X26560D03*
X25560D03*
X24560D03*
X23560D03*
X22560D03*
D28*
X31500Y6660D03*
Y5660D03*
Y4660D03*
Y3660D03*
Y2660D03*
X3700Y11410D03*
X6030Y16430D03*
Y15430D03*
Y14430D03*
Y13430D03*
Y12430D03*
Y11430D03*
Y17430D03*
Y18430D03*
Y19430D03*
Y20430D03*
Y21430D03*
Y22430D03*
X31500Y1660D03*
Y7660D03*
Y8660D03*
Y9660D03*
Y10660D03*
Y11660D03*
Y12660D03*
Y14660D03*
Y15660D03*
Y16660D03*
Y17660D03*
Y18660D03*
X21500Y1660D03*
Y2660D03*
Y3660D03*
Y4660D03*
Y5660D03*
Y7660D03*
Y8660D03*
Y9660D03*
Y10660D03*
Y11660D03*
Y12660D03*
Y13660D03*
Y14660D03*
X3700Y12410D03*
Y13410D03*
X21500Y15660D03*
Y16660D03*
Y17660D03*
Y18660D03*
X1500Y11410D03*
Y12410D03*
D29*
X1070Y23460D03*
X44930Y24410D03*
Y20510D03*
D34*
X6850Y30060D03*
Y28210D03*
D35*
X34600Y16560D03*
D40*
X31560Y21160D03*
X43850Y14360D03*
D37*
X12040Y12650D02*
Y12870D01*
X12260D01*
X12500D02*
X12720D01*
Y12650D01*
Y12410D02*
Y12190D01*
X12500D01*
X12260D02*
X12040D01*
Y12410D01*
D40*
X43850Y16360D03*
Y18360D03*
X18120Y12530D03*
X3250Y18100D03*
X8880Y23030D03*
X3250Y19100D03*
X13620Y23030D03*
X33250Y6660D03*
Y4600D03*
D41*
X3700Y10410D03*
X6030Y10430D03*
X31500Y660D03*
X1500Y10410D03*
D43*
X6850Y26360D03*
D37*
X26815Y3830D02*
Y3945D01*
X26930D01*
X27170D02*
X27285D01*
Y3830D01*
Y3590D02*
Y3475D01*
X27170D01*
X26930D02*
X26815D01*
Y3590D01*
Y3280D02*
Y3395D01*
X26930D01*
X27170D02*
X27285D01*
Y3280D01*
Y3040D02*
Y2925D01*
X27170D01*
X26930D02*
X26815D01*
Y3040D01*
Y4380D02*
Y4495D01*
X26930D01*
X27170D02*
X27285D01*
Y4380D01*
Y4140D02*
Y4025D01*
X27170D01*
X26930D02*
X26815D01*
Y4140D01*
X26265Y3830D02*
Y3945D01*
X26380D01*
X26620D02*
X26735D01*
Y3830D01*
Y3590D02*
Y3475D01*
X26620D01*
X26380D02*
X26265D01*
Y3590D01*
Y3280D02*
Y3395D01*
X26380D01*
X26620D02*
X26735D01*
Y3280D01*
Y3040D02*
Y2925D01*
X26620D01*
X26380D02*
X26265D01*
Y3040D01*
Y4380D02*
Y4495D01*
X26380D01*
X26620D02*
X26735D01*
Y4380D01*
Y4140D02*
Y4025D01*
X26620D01*
X26380D02*
X26265D01*
Y4140D01*
X27365Y3830D02*
Y3945D01*
X27480D01*
X27720D02*
X27835D01*
Y3830D01*
Y3590D02*
Y3475D01*
X27720D01*
X27480D02*
X27365D01*
Y3590D01*
Y3280D02*
Y3395D01*
X27480D01*
X27720D02*
X27835D01*
Y3280D01*
Y3040D02*
Y2925D01*
X27720D01*
X27480D02*
X27365D01*
Y3040D01*
Y4380D02*
Y4495D01*
X27480D01*
X27720D02*
X27835D01*
Y4380D01*
Y4140D02*
Y4025D01*
X27720D01*
X27480D02*
X27365D01*
Y4140D01*
X10990Y23910D02*
Y24150D01*
X11130D01*
X11370D02*
X11510D01*
Y23910D01*
Y23670D02*
Y23430D01*
X11370D01*
X11130D02*
X10990D01*
Y23670D01*
D47*
X12160Y23790D03*
X10340D03*
D37*
X22645Y780D02*
Y895D01*
X22880D01*
X23120D02*
X23355D01*
Y780D01*
Y540D02*
Y425D01*
X23120D01*
X22880D02*
X22645D01*
Y540D01*
D51*
X23000Y1160D03*
Y1660D03*
Y2160D03*
Y2660D03*
Y3160D03*
Y3660D03*
Y4160D03*
Y4660D03*
Y5160D03*
Y5660D03*
Y6160D03*
Y6660D03*
Y7160D03*
Y7660D03*
Y8160D03*
Y8660D03*
Y9160D03*
Y9660D03*
D37*
X29545Y780D02*
Y895D01*
X29780D01*
X30020D02*
X30255D01*
Y780D01*
Y540D02*
Y425D01*
X30020D01*
X29780D02*
X29545D01*
Y540D01*
D51*
X29900Y1160D03*
Y1660D03*
Y2160D03*
Y2660D03*
Y3160D03*
Y3660D03*
Y4160D03*
Y4660D03*
Y5160D03*
Y5660D03*
Y6160D03*
Y6660D03*
Y7160D03*
D37*
X29545Y7780D02*
Y7895D01*
X29780D01*
X30020D02*
X30255D01*
Y7780D01*
Y7540D02*
Y7425D01*
X30020D01*
X29780D02*
X29545D01*
Y7540D01*
D51*
X29900Y8160D03*
Y8660D03*
Y9160D03*
Y9660D03*
D52*
X35600Y2000D03*
Y1520D03*
D53*
X35600Y2570D03*
D54*
X35600Y3250D03*
D37*
X35190Y4350D02*
Y4540D01*
X35480D01*
X35720D02*
X36010D01*
Y4350D01*
Y4110D02*
Y3920D01*
X35720D01*
X35480D02*
X35190D01*
Y4110D01*
D54*
X35600Y5210D03*
Y6190D03*
D37*
X35190Y7290D02*
Y7480D01*
X35480D01*
X35720D02*
X36010D01*
Y7290D01*
Y7050D02*
Y6860D01*
X35720D01*
X35480D02*
X35190D01*
Y7050D01*
D54*
X35600Y8150D03*
Y9130D03*
Y10110D03*
D37*
X44210Y12040D02*
Y12330D01*
X44750D01*
X44990D02*
X45530D01*
Y12040D01*
Y11800D02*
Y11510D01*
X44990D01*
X44750D02*
X44210D01*
Y11800D01*
Y1000D02*
Y1290D01*
X44750D01*
X44990D02*
X45530D01*
Y1000D01*
Y760D02*
Y470D01*
X44990D01*
X44750D02*
X44210D01*
Y760D01*
X35740Y11040D02*
Y11330D01*
X36280D01*
X36520D02*
X37060D01*
Y11040D01*
Y10800D02*
Y10510D01*
X36520D01*
X36280D02*
X35740D01*
Y10800D01*
Y1000D02*
Y1290D01*
X36280D01*
X36520D02*
X37060D01*
Y1000D01*
Y760D02*
Y470D01*
X36520D01*
X36280D02*
X35740D01*
Y760D01*
X10540Y26390D02*
Y26655D01*
X11130D01*
X11370D02*
X11960D01*
Y26390D01*
Y26150D02*
Y25885D01*
X11370D01*
X11130D02*
X10540D01*
Y26150D01*
%LPD*%
D10*
X31500Y1660D02*
X29900D01*
X31500Y2660D02*
X31000Y2160D01*
X31500Y3660D02*
X30500Y2660D01*
X31000Y2160D02*
X29900D01*
X31500Y4660D02*
Y4310D01*
X30500Y2660D02*
X29900D01*
X30350Y3160D02*
X31500Y4310D01*
X30350Y3160D02*
X29900D01*
X31500Y5660D02*
X31040Y5200D01*
X31500Y6660D02*
X30880Y6040D01*
X31040Y5200D02*
Y4220D01*
X29900Y4160D02*
X30500D01*
X31040Y4220D02*
X30470Y3660D01*
X30880Y6040D02*
Y4530D01*
X30470Y3660D02*
X29900D01*
X31500Y7660D02*
X30720Y6880D01*
X30880Y4530D02*
X30500Y4160D01*
X30720Y6880D02*
Y4840D01*
X31500Y8660D02*
X31000Y8160D01*
X30720Y4840D02*
X30540Y4660D01*
X29900D01*
X31500Y9660D02*
X30810Y8970D01*
X31000Y8160D02*
Y7440D01*
X30560Y5350D02*
X30350Y5160D01*
X30810Y8970D02*
Y7530D01*
X30350Y5160D02*
X29900D01*
X31500Y12660D02*
X32000Y13160D01*
X30380Y5810D02*
X30220Y5660D01*
X29900D01*
X31500Y11660D02*
X32190Y12350D01*
X32000Y13160D02*
Y14900D01*
X31740Y15160D01*
X31130D01*
X31500Y10660D02*
X32380Y11540D01*
X32190Y12350D02*
Y15720D01*
X31750Y16160D01*
X30690D01*
X32380Y11540D02*
Y16530D01*
X31500Y14660D02*
X29380Y12530D01*
X32380Y16530D02*
X31750Y17160D01*
X31130D01*
Y15160D02*
X29190Y13220D01*
X29380Y12530D02*
Y8350D01*
X29570Y8160D01*
X29190Y13220D02*
Y7470D01*
X29570Y8160D02*
X29900D01*
X30690Y16160D02*
X29000Y14470D01*
X29190Y7470D02*
X29500Y7160D01*
X29900D01*
X29000Y14470D02*
Y7160D01*
X31130Y17160D02*
X28820Y14840D01*
X29000Y7160D02*
X29500Y6660D01*
X29900D01*
X28820Y14840D02*
Y6840D01*
X21500Y1660D02*
X22000Y1160D01*
X28820Y6840D02*
X29500Y6160D01*
X29900D01*
X21500Y2660D02*
X22500Y1660D01*
X22000Y1160D02*
X23000D01*
X21500Y3660D02*
Y3380D01*
X22500Y1660D02*
X23000D01*
X21500Y3380D02*
X22720Y2160D01*
X21500Y4660D02*
X21970Y4190D01*
X22720Y2160D02*
X23000D01*
X21500Y5660D02*
X21970Y5190D01*
Y4190D02*
Y3230D01*
X22540Y2660D01*
X23000D01*
X21970Y5190D02*
Y4470D01*
X22260Y3340D02*
X22440Y3160D01*
X21500Y7660D02*
X21970Y7190D01*
X22440Y3160D02*
X23000D01*
X21500Y8660D02*
X22160Y8000D01*
X21970Y7190D02*
Y5500D01*
X22260Y3340D02*
Y4180D01*
X21970Y5500D02*
X22130Y5340D01*
X22160Y8000D02*
Y5570D01*
X22130Y5340D02*
Y4630D01*
X22600Y4160D01*
X23000D01*
X22160Y5570D02*
X22290Y5440D01*
X22260Y4180D02*
X21970Y4470D01*
X22290Y5440D02*
Y5030D01*
X22660Y4660D01*
X23000D01*
Y5160D02*
X22660D01*
X23000Y6660D02*
X22660D01*
Y5160D02*
X22470Y5350D01*
Y5560D01*
X21500Y15660D02*
X21000Y16160D01*
X22470Y5560D02*
X22320Y5710D01*
X22660Y6660D02*
X22500Y6820D01*
X22320Y5710D02*
Y8840D01*
X21500Y9660D01*
X22500Y6820D02*
Y11660D01*
X21000Y16160D02*
Y16900D01*
X22500Y11660D02*
X21500Y12660D01*
Y14660D02*
X20820Y15340D01*
X21000Y16900D02*
X21260Y17160D01*
X21880D01*
X20820Y15340D02*
Y17840D01*
X21500Y13660D02*
X20630Y14530D01*
X20820Y17840D02*
X21130Y18160D01*
X21880D01*
X20630Y14530D02*
Y18530D01*
X23000Y8160D02*
X23380D01*
X20630Y18530D02*
X21260Y19160D01*
X21880D01*
X23000Y7660D02*
X23440D01*
X23380Y8160D02*
X23500Y8280D01*
Y15530D01*
X23000Y7160D02*
X23440D01*
X23500Y15530D02*
X21880Y17160D01*
X23440Y7660D02*
X23690Y7900D01*
Y16340D01*
X21880Y18160D01*
X23440Y7160D02*
X23880Y7590D01*
Y17160D01*
X22440Y18600D01*
X21880Y19160D01*
X30560Y5350D02*
Y7000D01*
X31000Y7440D01*
X30380Y5810D02*
Y7100D01*
X30810Y7530D01*
X43384Y3098D02*
X42938D01*
Y3321D01*
Y3330D01*
X42941Y3340D01*
X42946Y3349D01*
X42952Y3357D01*
X42960Y3365D01*
X42969Y3373D01*
X42980Y3379D01*
X42992Y3385D01*
X43005Y3389D01*
X43018Y3392D01*
X43032Y3394D01*
X43049Y3395D01*
X43063Y3394D01*
X43078Y3393D01*
X43091Y3389D01*
X43104Y3385D01*
X43116Y3380D01*
X43127Y3374D01*
X43137Y3367D01*
X43145Y3359D01*
X43151Y3350D01*
X43156Y3341D01*
X43159Y3332D01*
X43161Y3321D01*
Y3098D01*
Y3321D02*
X43162Y3330D01*
X43164Y3340D01*
X43169Y3349D01*
X43175Y3357D01*
X43183Y3365D01*
X43193Y3373D01*
X43203Y3379D01*
X43215Y3385D01*
X43228Y3389D01*
X43242Y3392D01*
X43256Y3394D01*
X43272Y3395D01*
X43287Y3394D01*
X43301Y3393D01*
X43314Y3389D01*
X43327Y3385D01*
X43339Y3380D01*
X43350Y3374D01*
X43360Y3367D01*
X43368Y3359D01*
X43375Y3350D01*
X43379Y3341D01*
X43383Y3332D01*
X43384Y3321D01*
Y3098D01*
X43235Y3841D02*
G74*
G02X43384Y3693I0J149D01*
X43235Y3544I149J0D01*
G01X43086D01*
G02X42938Y3693I0J149D01*
X43086Y3841I149J0D01*
G01X43235D01*
X43384Y3990D02*
X42938Y4139D01*
X43384Y4287D01*
X43235Y4046D02*
Y4232D01*
X43384Y4436D02*
X42938D01*
Y4659D01*
Y4669D01*
X42941Y4678D01*
X42946Y4687D01*
X42952Y4696D01*
X42960Y4704D01*
X42969Y4711D01*
X42980Y4718D01*
X42992Y4723D01*
X43005Y4728D01*
X43018Y4731D01*
X43032Y4733D01*
X43049Y4734D01*
X43063Y4733D01*
X43078Y4731D01*
X43091Y4728D01*
X43104Y4724D01*
X43116Y4719D01*
X43127Y4712D01*
X43137Y4705D01*
X43145Y4697D01*
X43151Y4689D01*
X43156Y4680D01*
X43159Y4670D01*
X43161Y4659D01*
Y4436D01*
Y4585D02*
X43384Y4734D01*
X42938Y4882D02*
Y4994D01*
Y5007D01*
X42940Y5019D01*
X42942Y5031D01*
X42946Y5044D01*
X42950Y5056D01*
X42955Y5067D01*
X42962Y5079D01*
X42969Y5090D01*
X42977Y5100D01*
X42986Y5110D01*
X42996Y5120D01*
X43007Y5129D01*
X43018Y5137D01*
X43030Y5145D01*
X43042Y5152D01*
X43055Y5158D01*
X43069Y5163D01*
X43082Y5168D01*
X43097Y5172D01*
X43111Y5175D01*
X43126Y5178D01*
X43141Y5179D01*
X43161Y5180D01*
X43176D01*
X43191Y5178D01*
X43205Y5176D01*
X43220Y5173D01*
X43234Y5170D01*
X43248Y5165D01*
X43262Y5160D01*
X43275Y5154D01*
X43288Y5147D01*
X43300Y5139D01*
X43311Y5131D01*
X43322Y5122D01*
X43332Y5113D01*
X43341Y5103D01*
X43350Y5093D01*
X43357Y5082D01*
X43364Y5071D01*
X43370Y5059D01*
X43374Y5047D01*
X43378Y5035D01*
X43381Y5023D01*
X43383Y5010D01*
X43384Y4994D01*
Y4882D01*
X42938D01*
Y5775D02*
Y6072D01*
Y5924D02*
X43384D01*
X43235Y6519D02*
G02X43384Y6370I0J149D01*
X43235Y6221I149J0D01*
G01X43086D01*
G02X42938Y6370I0J149D01*
X43086Y6519I149J0D01*
G01X43235D01*
X43384Y6667D02*
X42938D01*
Y6891D01*
Y6900D01*
X42941Y6910D01*
X42946Y6919D01*
X42952Y6927D01*
X42960Y6935D01*
X42969Y6943D01*
X42980Y6949D01*
X42992Y6955D01*
X43005Y6959D01*
X43018Y6962D01*
X43032Y6964D01*
X43049Y6965D01*
X43063Y6964D01*
X43078Y6963D01*
X43091Y6959D01*
X43104Y6955D01*
X43116Y6950D01*
X43127Y6944D01*
X43137Y6937D01*
X43145Y6929D01*
X43151Y6920D01*
X43156Y6911D01*
X43159Y6902D01*
X43161Y6891D01*
Y6667D01*
X43172Y7772D02*
X43173Y7784D01*
X43176Y7796D01*
X43181Y7807D01*
X43188Y7818D01*
X43196Y7828D01*
X43206Y7836D01*
X43218Y7844D01*
X43230Y7850D01*
X43243Y7854D01*
X43257Y7857D01*
X43272D01*
X43283D01*
X43294Y7855D01*
X43305Y7851D01*
X43315Y7846D01*
X43325Y7840D01*
X43335Y7832D01*
X43343Y7823D01*
X43352Y7813D01*
X43359Y7802D01*
X43365Y7790D01*
X43371Y7778D01*
X43376Y7764D01*
X43379Y7750D01*
X43382Y7736D01*
X43384Y7709D01*
X43383Y7694D01*
X43382Y7680D01*
X43381Y7665D01*
X43378Y7652D01*
X43375Y7639D01*
X43371Y7626D01*
X43367Y7615D01*
X43362Y7604D01*
X43357Y7595D01*
X43351Y7587D01*
X43345Y7580D01*
X43338Y7575D01*
X43332Y7571D01*
X43325Y7568D01*
X43317Y7567D01*
X43172Y7772D02*
X43153Y7672D01*
X43152Y7657D01*
X43150Y7643D01*
X43145Y7629D01*
X43140Y7616D01*
X43132Y7604D01*
X43123Y7593D01*
X43113Y7584D01*
X43102Y7576D01*
X43090Y7569D01*
X43078Y7564D01*
X43065Y7561D01*
X43049Y7560D01*
X43038Y7561D01*
X43027Y7563D01*
X43016Y7567D01*
X43006Y7571D01*
X42996Y7578D01*
X42987Y7585D01*
X42978Y7594D01*
X42970Y7604D01*
X42962Y7615D01*
X42956Y7627D01*
X42950Y7640D01*
X42946Y7653D01*
X42942Y7667D01*
X42939Y7681D01*
X42938Y7709D01*
Y7723D01*
X42939Y7738D01*
X42941Y7752D01*
X42943Y7766D01*
X42946Y7779D01*
X42950Y7791D01*
X42954Y7803D01*
X42959Y7813D01*
X42965Y7822D01*
X42970Y7830D01*
X42977Y7837D01*
X42983Y7843D01*
X42990Y7847D01*
X42997Y7849D01*
X43004Y7850D01*
X42938Y8081D02*
Y8229D01*
Y8155D02*
X43384D01*
Y8081D02*
Y8229D01*
X42938Y8452D02*
Y8564D01*
Y8577D01*
X42940Y8589D01*
X42942Y8601D01*
X42946Y8614D01*
X42950Y8626D01*
X42955Y8637D01*
X42962Y8649D01*
X42969Y8660D01*
X42977Y8670D01*
X42986Y8680D01*
X42996Y8690D01*
X43007Y8699D01*
X43018Y8707D01*
X43030Y8715D01*
X43042Y8722D01*
X43055Y8728D01*
X43069Y8733D01*
X43082Y8738D01*
X43097Y8742D01*
X43111Y8745D01*
X43126Y8748D01*
X43141Y8749D01*
X43161Y8750D01*
X43176D01*
X43191Y8748D01*
X43205Y8746D01*
X43220Y8743D01*
X43234Y8740D01*
X43248Y8735D01*
X43262Y8730D01*
X43275Y8724D01*
X43288Y8717D01*
X43300Y8709D01*
X43311Y8701D01*
X43322Y8692D01*
X43332Y8683D01*
X43341Y8673D01*
X43350Y8663D01*
X43357Y8652D01*
X43364Y8641D01*
X43370Y8629D01*
X43374Y8617D01*
X43378Y8605D01*
X43381Y8593D01*
X43383Y8580D01*
X43384Y8564D01*
Y8452D01*
X42938D01*
Y9196D02*
Y8899D01*
X43384D01*
Y9196D01*
X43161Y8899D02*
Y9122D01*
D11*
X3700Y13410D02*
X3940D01*
X3700Y12410D02*
X3940D01*
X6030Y22430D02*
X5750Y22410D01*
X6030Y21430D02*
X5750Y21350D01*
X28060Y12660D02*
Y16660D01*
X5120Y20720D02*
X5750Y21350D01*
X4560Y21220D02*
X5750Y22410D01*
X5120Y20720D02*
Y13600D01*
X28060Y21350D02*
Y16660D01*
X22560Y21160D02*
X24250Y19470D01*
Y1660D01*
X27620Y11160D02*
Y15530D01*
X4560Y14030D02*
X3940Y13410D01*
X5120Y13600D02*
X3940Y12410D01*
X18120Y17530D02*
Y16530D01*
X16120Y14530D01*
X15120D01*
Y13530D01*
X28560Y6660D02*
Y21160D01*
X6030Y14430D02*
X7440Y15850D01*
Y24660D01*
X6030Y20430D02*
X6810Y21210D01*
X14560Y19220D02*
Y17100D01*
X6810Y21210D02*
Y25160D01*
X15620Y11290D02*
X16300Y11970D01*
X18430D01*
X18810Y12350D01*
X18750Y21160D02*
X15120Y17530D01*
X18810Y12350D02*
Y20220D01*
X35600Y3250D02*
X35310Y3160D01*
X34810D02*
X35310D01*
X35600Y5210D02*
X35310Y5160D01*
X34810D01*
X35600Y9130D02*
X35310Y9160D01*
X34810D01*
X35600Y8150D02*
X35880Y8160D01*
X36690D01*
X29560Y21160D02*
X31440Y23030D01*
X27560Y16160D02*
Y21160D01*
X24690Y9160D02*
Y20030D01*
X4560Y21220D02*
Y14030D01*
X23560Y21160D02*
X24690Y20030D01*
X24560Y21160D02*
X25120Y20600D01*
Y4030D01*
X29900Y3160D02*
X29500D01*
X25560Y21160D02*
Y1160D01*
X28560Y25100D02*
Y21160D01*
Y6660D02*
X29310Y5910D01*
X19750Y21160D02*
X18810Y20220D01*
X29310Y5910D02*
Y3350D01*
X21500Y2660D02*
X19690Y4470D01*
X29310Y3350D02*
X29500Y3160D01*
X19690Y4470D02*
Y9470D01*
X9380Y15530D02*
X9940Y16100D01*
X19620Y17030D02*
Y9970D01*
X20000Y9590D02*
Y6600D01*
X9940Y16100D02*
Y19600D01*
X27190D02*
Y10660D01*
X20000Y10160D02*
Y15030D01*
X26820Y19160D02*
Y8660D01*
X15120Y15530D02*
X17000Y17410D01*
X26440Y15160D02*
Y7660D01*
X26000Y18160D02*
Y6660D01*
X32620Y24660D02*
Y11160D01*
X32250Y6410D02*
X31500Y5660D01*
X32250Y6410D02*
Y9230D01*
X28120Y12160D02*
Y6720D01*
X29060Y5790D01*
X27620Y6850D02*
X28810Y5660D01*
X29060Y5790D02*
Y3100D01*
X9380Y14530D02*
X13500Y10410D01*
X29060Y3100D02*
X29500Y2660D01*
X10100Y10790D02*
X9670D01*
X29500Y2660D02*
X29900D01*
X26560Y21160D02*
X27060Y21660D01*
X13500Y10410D02*
X17940D01*
X18690Y11160D01*
X28810Y5660D02*
Y2850D01*
X27620Y11160D02*
Y6850D01*
X28810Y2850D02*
X29500Y2160D01*
X29900D01*
X27060Y21660D02*
X27750D01*
X28060Y21350D01*
X15120Y16530D02*
X14560Y17100D01*
X17000Y18030D02*
Y17410D01*
X32620Y9600D02*
X32250Y9230D01*
X20000Y9590D02*
X19620Y9970D01*
X21500Y5660D02*
X20940D01*
X19250Y16030D02*
Y9910D01*
X19690Y9470D01*
X20000Y6600D02*
X20940Y5660D01*
X34810Y2030D02*
X35310D01*
X9380Y13530D02*
X10380Y12530D01*
X6030Y14430D02*
X9670Y10790D01*
X10380Y12530D02*
Y11070D01*
X10100Y10790D02*
X10380Y11070D01*
X29000Y15530D02*
Y19600D01*
X30560Y21160D01*
X35310Y2030D02*
X35600Y2000D01*
D12*
X31500Y660D02*
X31000Y1160D01*
X29900D01*
X35600Y6190D02*
X35380Y6220D01*
X31500Y1660D02*
X32190Y2350D01*
Y3540D01*
X33250Y4600D01*
D13*
X6850Y28210D02*
X6300Y28260D01*
D14*
X12190Y23030D02*
Y23530D01*
X10340Y23790D02*
X10310Y23530D01*
X6030Y11430D02*
X5750Y11410D01*
X34120Y6220D02*
Y6660D01*
Y10530D02*
Y6660D01*
X8880Y24160D02*
Y23030D01*
X10310D01*
X6850Y30060D02*
X8000Y28910D01*
X10310Y23030D02*
Y23530D01*
X9880Y11290D02*
X9380Y11790D01*
X3700Y11410D02*
X5750D01*
X8000Y28910D02*
Y24160D01*
X3250Y18100D02*
Y19100D01*
Y25220D01*
X6300Y28260D01*
X8000Y24160D02*
X8880D01*
X8000D02*
Y13910D01*
X9380Y11790D02*
Y12530D01*
X8000Y13910D02*
X9380Y12530D01*
X12160Y23790D02*
X12190Y23530D01*
Y23030D02*
X13620D01*
X33250Y660D02*
X34120Y1530D01*
Y6220D02*
X35380D01*
X34120Y1530D02*
Y6220D01*
X37400Y17360D02*
Y15360D01*
X34120Y10530D02*
X36950Y13360D01*
X37400Y15360D02*
Y13360D01*
X15620Y11290D02*
X15120Y11790D01*
Y12530D01*
X37400Y13360D02*
X36950D01*
X33250Y6660D02*
X34120D01*
D17*
X28060Y16660D03*
X24690Y9160D03*
X28060Y12660D03*
X34810Y2030D03*
X30690Y16160D03*
X24250Y1660D03*
X27620Y15530D03*
X7440Y24660D03*
X14560Y19220D03*
X6810Y25160D03*
X34810Y3160D03*
Y5160D03*
Y9160D03*
X36690Y8160D03*
X22440Y18600D03*
X31440Y23030D03*
X27560Y16160D03*
X25120Y4030D03*
X25560Y1160D03*
X28560Y25100D03*
X19250Y16030D03*
X19620Y17030D03*
X9940Y19600D03*
X27190D03*
Y10660D03*
X32620Y11160D03*
X20000Y10160D03*
X17000Y18030D03*
X20000Y15030D03*
X26820Y19160D03*
Y8660D03*
X26440Y15160D03*
X32620Y24660D03*
X26440Y7660D03*
X26000Y18160D03*
Y6660D03*
X28120Y12160D03*
X18690Y11160D03*
X27620D03*
X32620Y9600D03*
X29000Y15530D03*
D21*
X15620Y11290D03*
X43850Y13360D03*
Y15360D03*
X12380Y13530D03*
X43850Y17360D03*
X12380Y14530D03*
Y15530D03*
Y16530D03*
Y17530D03*
Y18530D03*
X9380D03*
Y17530D03*
Y16530D03*
Y15530D03*
Y14530D03*
Y13530D03*
Y12530D03*
X18120Y13530D03*
Y14530D03*
Y15530D03*
Y16530D03*
Y17530D03*
Y18530D03*
X15120D03*
Y17530D03*
Y16530D03*
Y15530D03*
Y14530D03*
Y13530D03*
Y12530D03*
X750Y18100D03*
X33250Y660D03*
Y2660D03*
X8880Y22240D03*
X750Y19100D03*
X13620Y22240D03*
X17620Y11290D03*
X9880D03*
X11880D03*
X8880Y24160D03*
Y26160D03*
X18750Y24660D03*
X17750D03*
Y21160D03*
X18750D03*
X19750D03*
Y24660D03*
X20750D03*
Y21160D03*
X40900Y17360D03*
X37400D03*
X40900Y15360D03*
X37400D03*
X40900Y13360D03*
X37400D03*
X30560Y21160D03*
X33250Y5870D03*
X13750Y13530D03*
Y17030D03*
X29560Y21160D03*
X28560D03*
X27560D03*
X33250Y3810D03*
X26560Y21160D03*
X25560D03*
X24560D03*
X23560D03*
X22560D03*
D23*
X36750Y1860D03*
D24*
X31500Y6660D03*
Y5660D03*
Y4660D03*
Y3660D03*
Y2660D03*
X3700Y11410D03*
X6030Y16430D03*
Y15430D03*
Y14430D03*
Y13430D03*
Y12430D03*
Y11430D03*
Y17430D03*
Y18430D03*
Y19430D03*
Y20430D03*
Y21430D03*
Y22430D03*
Y23430D03*
X31500Y1660D03*
Y7660D03*
Y8660D03*
Y9660D03*
Y10660D03*
Y11660D03*
Y12660D03*
Y13660D03*
X21500Y660D03*
X31500Y14660D03*
Y15660D03*
Y16660D03*
Y17660D03*
Y18660D03*
X21500Y1660D03*
Y2660D03*
Y3660D03*
Y4660D03*
Y5660D03*
Y6660D03*
Y7660D03*
Y8660D03*
Y9660D03*
Y10660D03*
Y11660D03*
Y12660D03*
Y13660D03*
Y14660D03*
X3700Y12410D03*
Y13410D03*
Y14410D03*
X21500Y15660D03*
Y16660D03*
Y17660D03*
Y18660D03*
X1500Y11410D03*
Y12410D03*
Y13410D03*
D25*
X1070Y23460D03*
Y21700D03*
X44930Y24410D03*
Y26170D03*
Y20510D03*
Y22270D03*
D27*
X36750Y10060D03*
D30*
X2050Y23960D03*
Y21200D03*
X43950Y23910D03*
Y26670D03*
Y20010D03*
Y22770D03*
D31*
X1850Y29210D03*
Y27210D03*
D32*
X6850Y30060D03*
Y28210D03*
D33*
X34600Y16560D03*
D38*
X31560Y21160D03*
X43850Y14360D03*
X12380Y12530D03*
X43850Y16360D03*
Y18360D03*
X18120Y12530D03*
X3250Y18100D03*
X8880Y23030D03*
X3250Y19100D03*
X13620Y23030D03*
X33250Y6660D03*
Y4600D03*
D39*
X3700Y10410D03*
X6030Y10430D03*
X31500Y660D03*
X1500Y10410D03*
D42*
X6850Y26360D03*
D44*
X27050Y3710D03*
Y3160D03*
Y4260D03*
X26500Y3710D03*
Y3160D03*
Y4260D03*
X27600Y3710D03*
Y3160D03*
Y4260D03*
D45*
X11250Y23790D03*
X12160D03*
X10340D03*
D46*
X23000Y660D03*
Y1160D03*
Y1660D03*
Y2160D03*
Y2660D03*
Y3160D03*
Y3660D03*
Y4160D03*
Y4660D03*
Y5160D03*
Y5660D03*
Y6160D03*
Y6660D03*
Y7160D03*
Y7660D03*
Y8160D03*
Y8660D03*
Y9160D03*
Y9660D03*
X29900Y660D03*
Y1160D03*
Y1660D03*
Y2160D03*
Y2660D03*
Y3160D03*
Y3660D03*
Y4160D03*
Y4660D03*
Y5160D03*
Y5660D03*
Y6160D03*
Y6660D03*
Y7160D03*
Y7660D03*
Y8160D03*
Y8660D03*
Y9160D03*
Y9660D03*
D48*
X35600Y2000D03*
Y1520D03*
D49*
X35600Y2570D03*
D50*
X35600Y3250D03*
Y4230D03*
Y5210D03*
Y6190D03*
Y7170D03*
Y8150D03*
Y9130D03*
Y10110D03*
D55*
X44870Y11920D03*
Y880D03*
X36400Y10920D03*
Y880D03*
D56*
X11250Y26270D03*
M02*
