M48
METRIC,0000.00
T01C0.4
T02C0.6
T03C0.65
T04C1.0
T05C1.1
T06C1.25
T07C1.5
%
T01
X+002838Y+002972
X+002949Y+002972
X+003112Y+002874
X+003334Y+002715
X+003429Y+002588
X+003668Y+002906
X+003556Y+003160
X+003001Y+003382
X+002620Y+003779
X+002277Y+003855
X+002295Y+004300
X+002296Y+004626
X+002633Y+004519
X+002731Y+005144
X+002239Y+005160
X+002112Y+005080
X+001731Y+005620
X+001982Y+005942
X+002588Y+005747
X+003027Y+006049
X+003252Y+005510
X+003382Y+005525
X+001283Y+005750
X+001858Y+003445
X+002080Y+003207
X+001636Y+003207
X+001509Y+002921
X+002239Y+002525
X+002652Y+002890
X+002890Y+002604
X+002685Y+001801
X+002614Y+001482
X+003668Y+001477
X+003858Y+001286
X+003650Y+002198
T02
X+002208Y+001089G85X+002208Y+001169
X+002208Y+001492G85X+002208Y+001602
X+003072Y+001492G85X+003072Y+001602
X+003072Y+001089G85X+003072Y+001169
T03
X+002351Y+001497
X+002929Y+001497
T04
X+001534Y+007014
X+001534Y+006414
X+002284Y+006547
X+002284Y+006997
X+002934Y+006997
X+002934Y+006547
X+003395Y+006547
X+003395Y+006997
X+004045Y+006997
X+004045Y+006547
T05
X+001270Y+001318
X+001524Y+001318
T06
X+001414Y+004024
X+001414Y+004822
T07
X+002877Y+004573
T00
M30
