G04 DipTrace 3.3.1.3*
G04 TopMask.gbr*
%MOMM*%
G04 #@! TF.FileFunction,Soldermask,Top*
G04 #@! TF.Part,Single*
%ADD41C,1.0*%
%ADD61C,0.65*%
%ADD62C,1.25*%
%ADD69R,0.8X1.3*%
%ADD71R,2.65X2.65*%
%ADD73O,1.05X0.5*%
%ADD75O,0.5X1.05*%
%ADD77R,3.2X5.2*%
%ADD79R,1.1X2.2*%
%ADD85C,1.6*%
%ADD87R,0.87X0.5*%
%ADD89C,1.9*%
%ADD91R,1.9X1.9*%
%ADD99R,2.7X2.6*%
%ADD101R,3.0X2.6*%
%ADD103O,1.1X2.3*%
%ADD105O,1.1X2.0*%
%ADD107R,0.8X1.34*%
%ADD109R,0.5X1.34*%
%ADD111R,1.4X1.4*%
%ADD113R,0.8X1.0*%
%ADD115R,2.0X1.8*%
%ADD117R,1.1X0.9*%
%ADD119R,0.9X1.1*%
%FSLAX35Y35*%
G04*
G71*
G90*
G75*
G01*
G04 TopMask*
%LPD*%
D119*
X3286567Y5620188D3*
Y5750188D3*
X3159567Y5620188D3*
Y5750188D3*
X2714821Y2991711D3*
Y3121711D3*
X2587821Y2991711D3*
Y3121711D3*
X2460821Y2991711D3*
Y3121711D3*
X2333821Y2991711D3*
Y3121711D3*
X1476817Y2032438D3*
Y1902438D3*
D117*
X1508567Y2730938D3*
X1638567D3*
D115*
X1254564Y2111811D3*
Y1831811D3*
D117*
X3810441Y2905564D3*
X3940441D3*
X3810691Y2200564D3*
X3940691D3*
X3810441Y1470314D3*
X3940441D3*
D113*
X2650024Y1976021D3*
Y2086021D3*
X2475397Y1976021D3*
Y2086021D3*
X2927017Y1976021D3*
Y2086021D3*
D111*
X1873691Y2127688D3*
X2153691D3*
X1254567Y2445188D3*
Y2725188D3*
D109*
X2464627Y1603812D3*
X2514627D3*
X2564627D3*
X2614627D3*
X2664627D3*
X2714627D3*
X2764627D3*
X2814627D3*
D107*
X2879627D3*
X2959627D3*
X2319627D3*
X2399627D3*
D105*
X2207627Y1128812D3*
X3071627D3*
D103*
X2207627Y1546812D3*
X3071627D3*
D61*
X2350627Y1496812D3*
X2928627D3*
D101*
X1204361Y7144188D3*
D99*
X1189361Y6174188D3*
D101*
X1864361Y6874188D3*
D99*
X1879361Y6174188D3*
D41*
X1534361Y7014188D3*
Y6414188D3*
D62*
X1414141Y4023761D3*
Y4822461D3*
D91*
X1270441Y1318061D3*
D89*
X1524441D3*
D87*
X3429441Y2762689D3*
Y2712689D3*
Y2662689D3*
X3554441D3*
Y2712689D3*
Y2762689D3*
D119*
X1984841Y5750188D3*
Y5620188D3*
X2683317Y5747188D3*
Y5617188D3*
X2810317Y5747188D3*
Y5617188D3*
X3032567Y5747188D3*
Y5617188D3*
X1857817Y3207188D3*
Y3337188D3*
D117*
X2873817Y3286564D3*
X3003817D3*
X2476697Y2594831D3*
X2346697D3*
X2476697Y2451958D3*
X2346697D3*
D119*
X1730814Y3207188D3*
Y3337188D3*
D117*
X2476694Y2721831D3*
X2346694D3*
D119*
X1603841Y5750188D3*
Y5620188D3*
X2796597Y2097151D3*
Y1967151D3*
X2331941Y2096931D3*
Y1966931D3*
X1984814Y3207188D3*
Y3337188D3*
X1524441Y3334188D3*
Y3204188D3*
X2619817Y3397688D3*
Y3267688D3*
X3381814Y3381814D3*
Y3251814D3*
X2334067Y3397688D3*
Y3267688D3*
X1683191Y2032438D3*
Y1902438D3*
D85*
X2283861Y6546614D3*
X2933861D3*
Y6996614D3*
X2283861D3*
X3395111Y6546614D3*
X4045111D3*
Y6996614D3*
X3395111D3*
D79*
X3506647Y5337291D3*
X3379647Y5338291D3*
X3252647D3*
X3125647D3*
X2998647D3*
X2871647D3*
X2744647D3*
X2617647D3*
X2490647D3*
X2363647D3*
X2236647D3*
X2109647D3*
X1982647D3*
X1855647D3*
X1856614Y3616084D3*
X1983614D3*
X2110614D3*
X2237611D3*
X2364614D3*
X1221614D3*
X1348614D3*
X1475614D3*
X1602614D3*
X1729614D3*
X2490747Y3616091D3*
X2617747D3*
X2744747D3*
X2871747D3*
X2998747D3*
X3125747D3*
X3252747D3*
X3379747D3*
X3506747D3*
D77*
X2876447Y4575291D3*
D79*
X1729511Y5338281D3*
X1602511D3*
X1475511D3*
X1348511D3*
X1221511D3*
D75*
X3016691Y2794437D3*
X2966691D3*
X2916691D3*
X2866691D3*
X2816691D3*
X2766691D3*
D73*
X2701691Y2729437D3*
Y2679437D3*
Y2629437D3*
Y2579437D3*
Y2529437D3*
Y2479437D3*
D75*
X2766691Y2414437D3*
X2816691D3*
X2866691D3*
X2916691D3*
X2966691D3*
X3016691D3*
D73*
X3081691Y2479437D3*
Y2529437D3*
Y2579437D3*
Y2629437D3*
Y2679437D3*
Y2729437D3*
D71*
X2891691Y2604437D3*
D69*
X1476817Y2286434D3*
X1571817D3*
X1666817D3*
Y2556434D3*
X1476817D3*
M02*
