%TF.GenerationSoftware,KiCad,Pcbnew,7.0.10*%
%TF.CreationDate,2024-01-20T13:47:53-06:00*%
%TF.ProjectId,CoCo-FujiNet-Rev00,436f436f-2d46-4756-9a69-4e65742d5265,Rev 00*%
%TF.SameCoordinates,Original*%
%TF.FileFunction,Soldermask,Top*%
%TF.FilePolarity,Negative*%
%FSLAX46Y46*%
G04 Gerber Fmt 4.6, Leading zero omitted, Abs format (unit mm)*
G04 Created by KiCad (PCBNEW 7.0.10) date 2024-01-20 13:47:53*
%MOMM*%
%LPD*%
G01*
G04 APERTURE LIST*
G04 Aperture macros list*
%AMRoundRect*
0 Rectangle with rounded corners*
0 $1 Rounding radius*
0 $2 $3 $4 $5 $6 $7 $8 $9 X,Y pos of 4 corners*
0 Add a 4 corners polygon primitive as box body*
4,1,4,$2,$3,$4,$5,$6,$7,$8,$9,$2,$3,0*
0 Add four circle primitives for the rounded corners*
1,1,$1+$1,$2,$3*
1,1,$1+$1,$4,$5*
1,1,$1+$1,$6,$7*
1,1,$1+$1,$8,$9*
0 Add four rect primitives between the rounded corners*
20,1,$1+$1,$2,$3,$4,$5,0*
20,1,$1+$1,$4,$5,$6,$7,0*
20,1,$1+$1,$6,$7,$8,$9,0*
20,1,$1+$1,$8,$9,$2,$3,0*%
%AMFreePoly0*
4,1,19,0.500000,-0.750000,0.000000,-0.750000,0.000000,-0.744911,-0.071157,-0.744911,-0.207708,-0.704816,-0.327430,-0.627875,-0.420627,-0.520320,-0.479746,-0.390866,-0.500000,-0.250000,-0.500000,0.250000,-0.479746,0.390866,-0.420627,0.520320,-0.327430,0.627875,-0.207708,0.704816,-0.071157,0.744911,0.000000,0.744911,0.000000,0.750000,0.500000,0.750000,0.500000,-0.750000,0.500000,-0.750000,
$1*%
%AMFreePoly1*
4,1,19,0.000000,0.744911,0.071157,0.744911,0.207708,0.704816,0.327430,0.627875,0.420627,0.520320,0.479746,0.390866,0.500000,0.250000,0.500000,-0.250000,0.479746,-0.390866,0.420627,-0.520320,0.327430,-0.627875,0.207708,-0.704816,0.071157,-0.744911,0.000000,-0.744911,0.000000,-0.750000,-0.500000,-0.750000,-0.500000,0.750000,0.000000,0.750000,0.000000,0.744911,0.000000,0.744911,
$1*%
G04 Aperture macros list end*
%ADD10R,1.800000X1.800000*%
%ADD11C,1.800000*%
%ADD12C,2.000000*%
%ADD13R,1.700000X1.700000*%
%ADD14O,1.700000X1.700000*%
%ADD15C,1.600000*%
%ADD16O,1.600000X1.600000*%
%ADD17R,1.530000X1.530000*%
%ADD18C,1.530000*%
%ADD19RoundRect,0.250001X-0.924999X0.499999X-0.924999X-0.499999X0.924999X-0.499999X0.924999X0.499999X0*%
%ADD20R,1.600000X1.600000*%
%ADD21FreePoly0,90.000000*%
%ADD22FreePoly1,90.000000*%
%ADD23C,0.900000*%
%ADD24R,0.700000X1.600000*%
%ADD25R,1.400000X1.600000*%
%ADD26R,1.400000X2.200000*%
%ADD27R,1.800000X1.400000*%
%ADD28R,1.560000X1.560000*%
%ADD29C,1.560000*%
G04 APERTURE END LIST*
D10*
%TO.C,D1*%
X134874000Y-73025000D03*
D11*
X134874000Y-70485000D03*
%TD*%
D12*
%TO.C,SW1*%
X136906000Y-56388000D03*
X136906000Y-62888000D03*
X132406000Y-56388000D03*
X132406000Y-62888000D03*
%TD*%
D13*
%TO.C,J1*%
X130810000Y-75565000D03*
D14*
X130810000Y-73025000D03*
X130810000Y-70485000D03*
X130810000Y-67945000D03*
%TD*%
D13*
%TO.C,J2*%
X130810000Y-94615000D03*
D14*
X130810000Y-92075000D03*
X130810000Y-89535000D03*
X130810000Y-86995000D03*
%TD*%
D15*
%TO.C,R17*%
X153670000Y-95250000D03*
D16*
X153670000Y-87630000D03*
%TD*%
D13*
%TO.C,J4*%
X148590000Y-56388000D03*
D14*
X146050000Y-56388000D03*
%TD*%
D10*
%TO.C,D3*%
X134874000Y-91821000D03*
D11*
X134874000Y-89281000D03*
%TD*%
D15*
%TO.C,C6*%
X147955000Y-73580000D03*
X147955000Y-68580000D03*
%TD*%
D17*
%TO.C,U2*%
X160020000Y-60970000D03*
D18*
X160020000Y-63510000D03*
X160020000Y-66050000D03*
X160020000Y-68590000D03*
X160020000Y-71130000D03*
X160020000Y-73670000D03*
X160020000Y-76210000D03*
X160020000Y-78750000D03*
X160020000Y-81290000D03*
X160020000Y-83830000D03*
X160020000Y-86370000D03*
X160020000Y-88910000D03*
X160020000Y-91450000D03*
X160020000Y-93990000D03*
X160020000Y-96530000D03*
X160020000Y-99070000D03*
X160020000Y-101610000D03*
X160020000Y-104150000D03*
X160020000Y-106690000D03*
X185420000Y-106690000D03*
X185420000Y-104150000D03*
X185420000Y-101610000D03*
X185420000Y-99070000D03*
X185420000Y-96530000D03*
X185420000Y-93990000D03*
X185420000Y-91450000D03*
X185420000Y-88910000D03*
X185420000Y-86370000D03*
X185420000Y-83830000D03*
X185420000Y-81290000D03*
X185420000Y-78750000D03*
X185420000Y-76210000D03*
X185420000Y-73670000D03*
X185420000Y-71130000D03*
X185420000Y-68590000D03*
X185420000Y-66050000D03*
X185420000Y-63510000D03*
X185420000Y-60970000D03*
%TD*%
D15*
%TO.C,R9*%
X167640000Y-93345000D03*
D16*
X175260000Y-93345000D03*
%TD*%
D13*
%TO.C,J3*%
X151130000Y-106045000D03*
D14*
X148590000Y-106045000D03*
X146050000Y-106045000D03*
X143510000Y-106045000D03*
%TD*%
D15*
%TO.C,R7*%
X146050000Y-99695000D03*
D16*
X153670000Y-99695000D03*
%TD*%
D19*
%TO.C,C1*%
X170942000Y-70892000D03*
X170942000Y-74142000D03*
%TD*%
D15*
%TO.C,R11*%
X167640000Y-88265000D03*
D16*
X175260000Y-88265000D03*
%TD*%
D20*
%TO.C,C7*%
X151765000Y-64095000D03*
D15*
X151765000Y-61595000D03*
%TD*%
D12*
%TO.C,SW2*%
X136906000Y-99418000D03*
X136906000Y-105918000D03*
X132406000Y-99418000D03*
X132406000Y-105918000D03*
%TD*%
D21*
%TO.C,JP1*%
X142240000Y-92202000D03*
D22*
X142240000Y-90902000D03*
%TD*%
D20*
%TO.C,RN1*%
X181610000Y-81915000D03*
D16*
X181610000Y-79375000D03*
X181610000Y-76835000D03*
X181610000Y-74295000D03*
X181610000Y-71755000D03*
X181610000Y-69215000D03*
X181610000Y-66675000D03*
X181610000Y-64135000D03*
X181610000Y-61595000D03*
%TD*%
D15*
%TO.C,R13*%
X165100000Y-78740000D03*
D16*
X165100000Y-71120000D03*
%TD*%
D15*
%TO.C,C4*%
X142240000Y-97790000D03*
X142240000Y-102790000D03*
%TD*%
D10*
%TO.C,D2*%
X134874000Y-82423000D03*
D11*
X134874000Y-79883000D03*
%TD*%
D20*
%TO.C,C2*%
X144145000Y-64007380D03*
D15*
X144145000Y-61507380D03*
%TD*%
%TO.C,C5*%
X144145000Y-68580000D03*
X144145000Y-73580000D03*
%TD*%
%TO.C,C8*%
X156845000Y-78740000D03*
X156845000Y-73740000D03*
%TD*%
D23*
%TO.C,P1*%
X175612600Y-57491800D03*
X167612600Y-57491800D03*
D24*
X168412600Y-67991800D03*
X169512600Y-67991800D03*
X170612600Y-67991800D03*
X171712600Y-67991800D03*
X172812600Y-67991800D03*
X173912600Y-67991800D03*
X175012600Y-67991800D03*
X176112600Y-67991800D03*
X177212600Y-67991800D03*
D25*
X178512600Y-67391800D03*
D26*
X178512600Y-57891800D03*
X162812600Y-57891800D03*
D27*
X163712600Y-67491800D03*
%TD*%
D28*
%TO.C,RV1*%
X150114000Y-87630000D03*
D29*
X145114000Y-90130000D03*
X150114000Y-92630000D03*
%TD*%
D15*
%TO.C,R12*%
X156845000Y-88900000D03*
D16*
X156845000Y-81280000D03*
%TD*%
D15*
%TO.C,R8*%
X142240000Y-95250000D03*
D16*
X142240000Y-87630000D03*
%TD*%
D15*
%TO.C,C3*%
X145455000Y-95885000D03*
X150455000Y-95885000D03*
%TD*%
D20*
%TO.C,U1*%
X141605000Y-84445000D03*
D16*
X144145000Y-84445000D03*
X146685000Y-84445000D03*
X149225000Y-84445000D03*
X149225000Y-76825000D03*
X146685000Y-76825000D03*
X144145000Y-76825000D03*
X141605000Y-76825000D03*
%TD*%
D15*
%TO.C,R10*%
X175260000Y-98425000D03*
D16*
X167640000Y-98425000D03*
%TD*%
M02*
