M48
; DRILL file {KiCad 7.0.10} date Sat Jan 20 13:47:55 2024
; FORMAT={-:-/ absolute / inch / decimal}
; #@! TF.CreationDate,2024-01-20T13:47:55-06:00
; #@! TF.GenerationSoftware,Kicad,Pcbnew,7.0.10
; #@! TF.FileFunction,MixedPlating,1,2
FMAT,2
INCH
; #@! TA.AperFunction,Plated,PTH,ViaDrill
T1C0.0157
; #@! TA.AperFunction,Plated,PTH,ViaDrill
T2C0.0197
; #@! TA.AperFunction,Plated,PTH,ComponentDrill
T3C0.0315
; #@! TA.AperFunction,Plated,PTH,ComponentDrill
T4C0.0354
; #@! TA.AperFunction,Plated,PTH,ComponentDrill
T5C0.0394
; #@! TA.AperFunction,Plated,PTH,ComponentDrill
T6C0.0402
; #@! TA.AperFunction,Plated,PTH,ComponentDrill
T7C0.0433
; #@! TA.AperFunction,NonPlated,NPTH,ComponentDrill
T8C0.0354
%
G90
G05
T1
X5.115Y-2.4
X5.31Y-2.34
X5.44Y-2.8
X5.44Y-3.36
X5.47Y-2.88
X5.47Y-3.8
X5.666Y-3.41
X5.686Y-3.208
X5.825Y-2.395
X5.888Y-3.195
X5.97Y-3.325
X6.04Y-2.47
X6.04Y-3.15
X6.05Y-3.514
X6.135Y-2.4
X6.22Y-4.13
X6.23Y-2.65
X6.632Y-2.629
X6.65Y-3.215
X6.675Y-2.629
X6.719Y-2.629
X6.73Y-2.875
X6.83Y-3.25
X6.85Y-2.732
X6.86Y-3.18
X6.895Y-2.9215
X6.935Y-2.825
X6.98Y-3.9
X7.0415Y-3.38
X7.07Y-3.58
X7.245Y-2.855
T2
X6.08Y-2.8969
T3
X5.575Y-3.0246
X5.575Y-3.3246
X5.6Y-3.45
X5.6Y-3.75
X5.6Y-3.85
X5.6Y-4.0469
X5.675Y-2.4216
X5.675Y-2.52
X5.675Y-2.7
X5.675Y-2.8969
X5.675Y-3.0246
X5.675Y-3.3246
X5.7266Y-3.775
X5.75Y-3.925
X5.775Y-3.0246
X5.775Y-3.3246
X5.825Y-2.7
X5.825Y-2.8969
X5.875Y-3.0246
X5.875Y-3.3246
X5.9234Y-3.775
X5.975Y-2.425
X5.975Y-2.5234
X6.05Y-3.45
X6.05Y-3.75
X6.05Y-3.925
X6.175Y-2.9031
X6.175Y-3.1
X6.175Y-3.2
X6.175Y-3.5
X6.5Y-2.8
X6.5Y-3.1
X6.6Y-3.475
X6.6Y-3.675
X6.6Y-3.875
X6.9Y-3.475
X6.9Y-3.675
X6.9Y-3.875
X7.15Y-2.425
X7.15Y-2.525
X7.15Y-2.625
X7.15Y-2.725
X7.15Y-2.825
X7.15Y-2.925
X7.15Y-3.025
X7.15Y-3.125
X7.15Y-3.225
T4
X5.31Y-2.775
X5.31Y-2.875
X5.31Y-3.145
X5.31Y-3.245
X5.31Y-3.515
X5.31Y-3.615
T5
X5.15Y-2.675
X5.15Y-2.775
X5.15Y-2.875
X5.15Y-2.975
X5.15Y-3.425
X5.15Y-3.525
X5.15Y-3.625
X5.15Y-3.725
X5.65Y-4.175
X5.7131Y-3.5484
X5.75Y-2.22
X5.75Y-4.175
X5.85Y-2.22
X5.85Y-4.175
X5.91Y-3.45
X5.91Y-3.6469
X5.95Y-4.175
T6
X6.3Y-2.4004
X6.3Y-2.5004
X6.3Y-2.6004
X6.3Y-2.7004
X6.3Y-2.8004
X6.3Y-2.9004
X6.3Y-3.0004
X6.3Y-3.1004
X6.3Y-3.2004
X6.3Y-3.3004
X6.3Y-3.4004
X6.3Y-3.5004
X6.3Y-3.6004
X6.3Y-3.7004
X6.3Y-3.8004
X6.3Y-3.9004
X6.3Y-4.0004
X6.3Y-4.1004
X6.3Y-4.2004
X7.3Y-2.4004
X7.3Y-2.5004
X7.3Y-2.6004
X7.3Y-2.7004
X7.3Y-2.8004
X7.3Y-2.9004
X7.3Y-3.0004
X7.3Y-3.1004
X7.3Y-3.2004
X7.3Y-3.3004
X7.3Y-3.4004
X7.3Y-3.5004
X7.3Y-3.6004
X7.3Y-3.7004
X7.3Y-3.8004
X7.3Y-3.9004
X7.3Y-4.0004
X7.3Y-4.1004
X7.3Y-4.2004
T7
X5.2128Y-2.22
X5.2128Y-2.4759
X5.2128Y-3.9141
X5.2128Y-4.17
X5.39Y-2.22
X5.39Y-2.4759
X5.39Y-3.9141
X5.39Y-4.17
T8
X6.5989Y-2.2635
X6.9139Y-2.2635
M30
