%TF.GenerationSoftware,KiCad,Pcbnew,7.0.10*%
%TF.CreationDate,2024-01-20T13:47:53-06:00*%
%TF.ProjectId,CoCo-FujiNet-Rev00,436f436f-2d46-4756-9a69-4e65742d5265,Rev 00*%
%TF.SameCoordinates,Original*%
%TF.FileFunction,Legend,Bot*%
%TF.FilePolarity,Positive*%
%FSLAX46Y46*%
G04 Gerber Fmt 4.6, Leading zero omitted, Abs format (unit mm)*
G04 Created by KiCad (PCBNEW 7.0.10) date 2024-01-20 13:47:53*
%MOMM*%
%LPD*%
G01*
G04 APERTURE LIST*
%ADD10C,0.150000*%
%ADD11C,0.300000*%
%ADD12C,0.010000*%
G04 APERTURE END LIST*
D10*
X129203220Y-87499819D02*
X129203220Y-86499819D01*
X129203220Y-86499819D02*
X128869887Y-87214104D01*
X128869887Y-87214104D02*
X128536554Y-86499819D01*
X128536554Y-86499819D02*
X128536554Y-87499819D01*
X128203220Y-86499819D02*
X127631792Y-86499819D01*
X127917506Y-87499819D02*
X127917506Y-86499819D01*
X126727030Y-87499819D02*
X127060363Y-87023628D01*
X127298458Y-87499819D02*
X127298458Y-86499819D01*
X127298458Y-86499819D02*
X126917506Y-86499819D01*
X126917506Y-86499819D02*
X126822268Y-86547438D01*
X126822268Y-86547438D02*
X126774649Y-86595057D01*
X126774649Y-86595057D02*
X126727030Y-86690295D01*
X126727030Y-86690295D02*
X126727030Y-86833152D01*
X126727030Y-86833152D02*
X126774649Y-86928390D01*
X126774649Y-86928390D02*
X126822268Y-86976009D01*
X126822268Y-86976009D02*
X126917506Y-87023628D01*
X126917506Y-87023628D02*
X127298458Y-87023628D01*
X125774649Y-87499819D02*
X126346077Y-87499819D01*
X126060363Y-87499819D02*
X126060363Y-86499819D01*
X126060363Y-86499819D02*
X126155601Y-86642676D01*
X126155601Y-86642676D02*
X126250839Y-86737914D01*
X126250839Y-86737914D02*
X126346077Y-86785533D01*
X129203220Y-90039819D02*
X129203220Y-89039819D01*
X129203220Y-89039819D02*
X128965125Y-89039819D01*
X128965125Y-89039819D02*
X128822268Y-89087438D01*
X128822268Y-89087438D02*
X128727030Y-89182676D01*
X128727030Y-89182676D02*
X128679411Y-89277914D01*
X128679411Y-89277914D02*
X128631792Y-89468390D01*
X128631792Y-89468390D02*
X128631792Y-89611247D01*
X128631792Y-89611247D02*
X128679411Y-89801723D01*
X128679411Y-89801723D02*
X128727030Y-89896961D01*
X128727030Y-89896961D02*
X128822268Y-89992200D01*
X128822268Y-89992200D02*
X128965125Y-90039819D01*
X128965125Y-90039819D02*
X129203220Y-90039819D01*
X128250839Y-89754104D02*
X127774649Y-89754104D01*
X128346077Y-90039819D02*
X128012744Y-89039819D01*
X128012744Y-89039819D02*
X127679411Y-90039819D01*
X127488934Y-89039819D02*
X126917506Y-89039819D01*
X127203220Y-90039819D02*
X127203220Y-89039819D01*
X126631791Y-89754104D02*
X126155601Y-89754104D01*
X126727029Y-90039819D02*
X126393696Y-89039819D01*
X126393696Y-89039819D02*
X126060363Y-90039819D01*
X128876541Y-76069819D02*
X129209874Y-75593628D01*
X129447969Y-76069819D02*
X129447969Y-75069819D01*
X129447969Y-75069819D02*
X129067017Y-75069819D01*
X129067017Y-75069819D02*
X128971779Y-75117438D01*
X128971779Y-75117438D02*
X128924160Y-75165057D01*
X128924160Y-75165057D02*
X128876541Y-75260295D01*
X128876541Y-75260295D02*
X128876541Y-75403152D01*
X128876541Y-75403152D02*
X128924160Y-75498390D01*
X128924160Y-75498390D02*
X128971779Y-75546009D01*
X128971779Y-75546009D02*
X129067017Y-75593628D01*
X129067017Y-75593628D02*
X129447969Y-75593628D01*
X128543207Y-75069819D02*
X127876541Y-76069819D01*
X127876541Y-75069819D02*
X128543207Y-76069819D01*
D11*
X172048028Y-104432428D02*
X171976600Y-104503856D01*
X171976600Y-104503856D02*
X171905171Y-104718142D01*
X171905171Y-104718142D02*
X171905171Y-104860999D01*
X171905171Y-104860999D02*
X171976600Y-105075285D01*
X171976600Y-105075285D02*
X172119457Y-105218142D01*
X172119457Y-105218142D02*
X172262314Y-105289571D01*
X172262314Y-105289571D02*
X172548028Y-105360999D01*
X172548028Y-105360999D02*
X172762314Y-105360999D01*
X172762314Y-105360999D02*
X173048028Y-105289571D01*
X173048028Y-105289571D02*
X173190885Y-105218142D01*
X173190885Y-105218142D02*
X173333742Y-105075285D01*
X173333742Y-105075285D02*
X173405171Y-104860999D01*
X173405171Y-104860999D02*
X173405171Y-104718142D01*
X173405171Y-104718142D02*
X173333742Y-104503856D01*
X173333742Y-104503856D02*
X173262314Y-104432428D01*
X171905171Y-103575285D02*
X171976600Y-103718142D01*
X171976600Y-103718142D02*
X172048028Y-103789571D01*
X172048028Y-103789571D02*
X172190885Y-103860999D01*
X172190885Y-103860999D02*
X172619457Y-103860999D01*
X172619457Y-103860999D02*
X172762314Y-103789571D01*
X172762314Y-103789571D02*
X172833742Y-103718142D01*
X172833742Y-103718142D02*
X172905171Y-103575285D01*
X172905171Y-103575285D02*
X172905171Y-103360999D01*
X172905171Y-103360999D02*
X172833742Y-103218142D01*
X172833742Y-103218142D02*
X172762314Y-103146714D01*
X172762314Y-103146714D02*
X172619457Y-103075285D01*
X172619457Y-103075285D02*
X172190885Y-103075285D01*
X172190885Y-103075285D02*
X172048028Y-103146714D01*
X172048028Y-103146714D02*
X171976600Y-103218142D01*
X171976600Y-103218142D02*
X171905171Y-103360999D01*
X171905171Y-103360999D02*
X171905171Y-103575285D01*
X172048028Y-101575285D02*
X171976600Y-101646713D01*
X171976600Y-101646713D02*
X171905171Y-101860999D01*
X171905171Y-101860999D02*
X171905171Y-102003856D01*
X171905171Y-102003856D02*
X171976600Y-102218142D01*
X171976600Y-102218142D02*
X172119457Y-102360999D01*
X172119457Y-102360999D02*
X172262314Y-102432428D01*
X172262314Y-102432428D02*
X172548028Y-102503856D01*
X172548028Y-102503856D02*
X172762314Y-102503856D01*
X172762314Y-102503856D02*
X173048028Y-102432428D01*
X173048028Y-102432428D02*
X173190885Y-102360999D01*
X173190885Y-102360999D02*
X173333742Y-102218142D01*
X173333742Y-102218142D02*
X173405171Y-102003856D01*
X173405171Y-102003856D02*
X173405171Y-101860999D01*
X173405171Y-101860999D02*
X173333742Y-101646713D01*
X173333742Y-101646713D02*
X173262314Y-101575285D01*
X171905171Y-100718142D02*
X171976600Y-100860999D01*
X171976600Y-100860999D02*
X172048028Y-100932428D01*
X172048028Y-100932428D02*
X172190885Y-101003856D01*
X172190885Y-101003856D02*
X172619457Y-101003856D01*
X172619457Y-101003856D02*
X172762314Y-100932428D01*
X172762314Y-100932428D02*
X172833742Y-100860999D01*
X172833742Y-100860999D02*
X172905171Y-100718142D01*
X172905171Y-100718142D02*
X172905171Y-100503856D01*
X172905171Y-100503856D02*
X172833742Y-100360999D01*
X172833742Y-100360999D02*
X172762314Y-100289571D01*
X172762314Y-100289571D02*
X172619457Y-100218142D01*
X172619457Y-100218142D02*
X172190885Y-100218142D01*
X172190885Y-100218142D02*
X172048028Y-100289571D01*
X172048028Y-100289571D02*
X171976600Y-100360999D01*
X171976600Y-100360999D02*
X171905171Y-100503856D01*
X171905171Y-100503856D02*
X171905171Y-100718142D01*
X172690885Y-97932428D02*
X172690885Y-98432428D01*
X171905171Y-98432428D02*
X173405171Y-98432428D01*
X173405171Y-98432428D02*
X173405171Y-97718142D01*
X172905171Y-96503857D02*
X171905171Y-96503857D01*
X172905171Y-97146714D02*
X172119457Y-97146714D01*
X172119457Y-97146714D02*
X171976600Y-97075285D01*
X171976600Y-97075285D02*
X171905171Y-96932428D01*
X171905171Y-96932428D02*
X171905171Y-96718142D01*
X171905171Y-96718142D02*
X171976600Y-96575285D01*
X171976600Y-96575285D02*
X172048028Y-96503857D01*
X172905171Y-95789571D02*
X171619457Y-95789571D01*
X171619457Y-95789571D02*
X171476600Y-95860999D01*
X171476600Y-95860999D02*
X171405171Y-96003856D01*
X171405171Y-96003856D02*
X171405171Y-96075285D01*
X173405171Y-95789571D02*
X173333742Y-95860999D01*
X173333742Y-95860999D02*
X173262314Y-95789571D01*
X173262314Y-95789571D02*
X173333742Y-95718142D01*
X173333742Y-95718142D02*
X173405171Y-95789571D01*
X173405171Y-95789571D02*
X173262314Y-95789571D01*
X171905171Y-95075285D02*
X172905171Y-95075285D01*
X173405171Y-95075285D02*
X173333742Y-95146713D01*
X173333742Y-95146713D02*
X173262314Y-95075285D01*
X173262314Y-95075285D02*
X173333742Y-95003856D01*
X173333742Y-95003856D02*
X173405171Y-95075285D01*
X173405171Y-95075285D02*
X173262314Y-95075285D01*
X171905171Y-94360999D02*
X173405171Y-94360999D01*
X173405171Y-94360999D02*
X171905171Y-93503856D01*
X171905171Y-93503856D02*
X173405171Y-93503856D01*
X171976600Y-92218141D02*
X171905171Y-92360998D01*
X171905171Y-92360998D02*
X171905171Y-92646713D01*
X171905171Y-92646713D02*
X171976600Y-92789570D01*
X171976600Y-92789570D02*
X172119457Y-92860998D01*
X172119457Y-92860998D02*
X172690885Y-92860998D01*
X172690885Y-92860998D02*
X172833742Y-92789570D01*
X172833742Y-92789570D02*
X172905171Y-92646713D01*
X172905171Y-92646713D02*
X172905171Y-92360998D01*
X172905171Y-92360998D02*
X172833742Y-92218141D01*
X172833742Y-92218141D02*
X172690885Y-92146713D01*
X172690885Y-92146713D02*
X172548028Y-92146713D01*
X172548028Y-92146713D02*
X172405171Y-92860998D01*
X172905171Y-91718141D02*
X172905171Y-91146713D01*
X173405171Y-91503856D02*
X172119457Y-91503856D01*
X172119457Y-91503856D02*
X171976600Y-91432427D01*
X171976600Y-91432427D02*
X171905171Y-91289570D01*
X171905171Y-91289570D02*
X171905171Y-91146713D01*
X171905171Y-88646713D02*
X172619457Y-89146713D01*
X171905171Y-89503856D02*
X173405171Y-89503856D01*
X173405171Y-89503856D02*
X173405171Y-88932427D01*
X173405171Y-88932427D02*
X173333742Y-88789570D01*
X173333742Y-88789570D02*
X173262314Y-88718141D01*
X173262314Y-88718141D02*
X173119457Y-88646713D01*
X173119457Y-88646713D02*
X172905171Y-88646713D01*
X172905171Y-88646713D02*
X172762314Y-88718141D01*
X172762314Y-88718141D02*
X172690885Y-88789570D01*
X172690885Y-88789570D02*
X172619457Y-88932427D01*
X172619457Y-88932427D02*
X172619457Y-89503856D01*
X171976600Y-87432427D02*
X171905171Y-87575284D01*
X171905171Y-87575284D02*
X171905171Y-87860999D01*
X171905171Y-87860999D02*
X171976600Y-88003856D01*
X171976600Y-88003856D02*
X172119457Y-88075284D01*
X172119457Y-88075284D02*
X172690885Y-88075284D01*
X172690885Y-88075284D02*
X172833742Y-88003856D01*
X172833742Y-88003856D02*
X172905171Y-87860999D01*
X172905171Y-87860999D02*
X172905171Y-87575284D01*
X172905171Y-87575284D02*
X172833742Y-87432427D01*
X172833742Y-87432427D02*
X172690885Y-87360999D01*
X172690885Y-87360999D02*
X172548028Y-87360999D01*
X172548028Y-87360999D02*
X172405171Y-88075284D01*
X172905171Y-86860999D02*
X171905171Y-86503856D01*
X171905171Y-86503856D02*
X172905171Y-86146713D01*
X173405171Y-85289570D02*
X173405171Y-85146713D01*
X173405171Y-85146713D02*
X173333742Y-85003856D01*
X173333742Y-85003856D02*
X173262314Y-84932428D01*
X173262314Y-84932428D02*
X173119457Y-84860999D01*
X173119457Y-84860999D02*
X172833742Y-84789570D01*
X172833742Y-84789570D02*
X172476600Y-84789570D01*
X172476600Y-84789570D02*
X172190885Y-84860999D01*
X172190885Y-84860999D02*
X172048028Y-84932428D01*
X172048028Y-84932428D02*
X171976600Y-85003856D01*
X171976600Y-85003856D02*
X171905171Y-85146713D01*
X171905171Y-85146713D02*
X171905171Y-85289570D01*
X171905171Y-85289570D02*
X171976600Y-85432428D01*
X171976600Y-85432428D02*
X172048028Y-85503856D01*
X172048028Y-85503856D02*
X172190885Y-85575285D01*
X172190885Y-85575285D02*
X172476600Y-85646713D01*
X172476600Y-85646713D02*
X172833742Y-85646713D01*
X172833742Y-85646713D02*
X173119457Y-85575285D01*
X173119457Y-85575285D02*
X173262314Y-85503856D01*
X173262314Y-85503856D02*
X173333742Y-85432428D01*
X173333742Y-85432428D02*
X173405171Y-85289570D01*
X173405171Y-83860999D02*
X173405171Y-83718142D01*
X173405171Y-83718142D02*
X173333742Y-83575285D01*
X173333742Y-83575285D02*
X173262314Y-83503857D01*
X173262314Y-83503857D02*
X173119457Y-83432428D01*
X173119457Y-83432428D02*
X172833742Y-83360999D01*
X172833742Y-83360999D02*
X172476600Y-83360999D01*
X172476600Y-83360999D02*
X172190885Y-83432428D01*
X172190885Y-83432428D02*
X172048028Y-83503857D01*
X172048028Y-83503857D02*
X171976600Y-83575285D01*
X171976600Y-83575285D02*
X171905171Y-83718142D01*
X171905171Y-83718142D02*
X171905171Y-83860999D01*
X171905171Y-83860999D02*
X171976600Y-84003857D01*
X171976600Y-84003857D02*
X172048028Y-84075285D01*
X172048028Y-84075285D02*
X172190885Y-84146714D01*
X172190885Y-84146714D02*
X172476600Y-84218142D01*
X172476600Y-84218142D02*
X172833742Y-84218142D01*
X172833742Y-84218142D02*
X173119457Y-84146714D01*
X173119457Y-84146714D02*
X173262314Y-84075285D01*
X173262314Y-84075285D02*
X173333742Y-84003857D01*
X173333742Y-84003857D02*
X173405171Y-83860999D01*
X170490171Y-104968144D02*
X170490171Y-104396716D01*
X169490171Y-104753859D02*
X170775885Y-104753859D01*
X170775885Y-104753859D02*
X170918742Y-104682430D01*
X170918742Y-104682430D02*
X170990171Y-104539573D01*
X170990171Y-104539573D02*
X170990171Y-104396716D01*
X170490171Y-103253859D02*
X169490171Y-103253859D01*
X170490171Y-103896716D02*
X169704457Y-103896716D01*
X169704457Y-103896716D02*
X169561600Y-103825287D01*
X169561600Y-103825287D02*
X169490171Y-103682430D01*
X169490171Y-103682430D02*
X169490171Y-103468144D01*
X169490171Y-103468144D02*
X169561600Y-103325287D01*
X169561600Y-103325287D02*
X169633028Y-103253859D01*
X170490171Y-102539573D02*
X169204457Y-102539573D01*
X169204457Y-102539573D02*
X169061600Y-102611001D01*
X169061600Y-102611001D02*
X168990171Y-102753858D01*
X168990171Y-102753858D02*
X168990171Y-102825287D01*
X170990171Y-102539573D02*
X170918742Y-102611001D01*
X170918742Y-102611001D02*
X170847314Y-102539573D01*
X170847314Y-102539573D02*
X170918742Y-102468144D01*
X170918742Y-102468144D02*
X170990171Y-102539573D01*
X170990171Y-102539573D02*
X170847314Y-102539573D01*
X169490171Y-101825287D02*
X170490171Y-101825287D01*
X170990171Y-101825287D02*
X170918742Y-101896715D01*
X170918742Y-101896715D02*
X170847314Y-101825287D01*
X170847314Y-101825287D02*
X170918742Y-101753858D01*
X170918742Y-101753858D02*
X170990171Y-101825287D01*
X170990171Y-101825287D02*
X170847314Y-101825287D01*
X170490171Y-101111001D02*
X169490171Y-101111001D01*
X170347314Y-101111001D02*
X170418742Y-101039572D01*
X170418742Y-101039572D02*
X170490171Y-100896715D01*
X170490171Y-100896715D02*
X170490171Y-100682429D01*
X170490171Y-100682429D02*
X170418742Y-100539572D01*
X170418742Y-100539572D02*
X170275885Y-100468144D01*
X170275885Y-100468144D02*
X169490171Y-100468144D01*
X169561600Y-99182429D02*
X169490171Y-99325286D01*
X169490171Y-99325286D02*
X169490171Y-99611001D01*
X169490171Y-99611001D02*
X169561600Y-99753858D01*
X169561600Y-99753858D02*
X169704457Y-99825286D01*
X169704457Y-99825286D02*
X170275885Y-99825286D01*
X170275885Y-99825286D02*
X170418742Y-99753858D01*
X170418742Y-99753858D02*
X170490171Y-99611001D01*
X170490171Y-99611001D02*
X170490171Y-99325286D01*
X170490171Y-99325286D02*
X170418742Y-99182429D01*
X170418742Y-99182429D02*
X170275885Y-99111001D01*
X170275885Y-99111001D02*
X170133028Y-99111001D01*
X170133028Y-99111001D02*
X169990171Y-99825286D01*
X170490171Y-98682429D02*
X170490171Y-98111001D01*
X170990171Y-98468144D02*
X169704457Y-98468144D01*
X169704457Y-98468144D02*
X169561600Y-98396715D01*
X169561600Y-98396715D02*
X169490171Y-98253858D01*
X169490171Y-98253858D02*
X169490171Y-98111001D01*
X170490171Y-97753858D02*
X169490171Y-97468144D01*
X169490171Y-97468144D02*
X170204457Y-97182429D01*
X170204457Y-97182429D02*
X169490171Y-96896715D01*
X169490171Y-96896715D02*
X170490171Y-96611001D01*
X169490171Y-96039572D02*
X170490171Y-96039572D01*
X170990171Y-96039572D02*
X170918742Y-96111000D01*
X170918742Y-96111000D02*
X170847314Y-96039572D01*
X170847314Y-96039572D02*
X170918742Y-95968143D01*
X170918742Y-95968143D02*
X170990171Y-96039572D01*
X170990171Y-96039572D02*
X170847314Y-96039572D01*
X170490171Y-95539571D02*
X170490171Y-94968143D01*
X169490171Y-95325286D02*
X170775885Y-95325286D01*
X170775885Y-95325286D02*
X170918742Y-95253857D01*
X170918742Y-95253857D02*
X170990171Y-95111000D01*
X170990171Y-95111000D02*
X170990171Y-94968143D01*
X169490171Y-94468143D02*
X170490171Y-94468143D01*
X170990171Y-94468143D02*
X170918742Y-94539571D01*
X170918742Y-94539571D02*
X170847314Y-94468143D01*
X170847314Y-94468143D02*
X170918742Y-94396714D01*
X170918742Y-94396714D02*
X170990171Y-94468143D01*
X170990171Y-94468143D02*
X170847314Y-94468143D01*
X169633028Y-93753857D02*
X169561600Y-93682428D01*
X169561600Y-93682428D02*
X169490171Y-93753857D01*
X169490171Y-93753857D02*
X169561600Y-93825285D01*
X169561600Y-93825285D02*
X169633028Y-93753857D01*
X169633028Y-93753857D02*
X169490171Y-93753857D01*
X170490171Y-92396714D02*
X169275885Y-92396714D01*
X169275885Y-92396714D02*
X169133028Y-92468142D01*
X169133028Y-92468142D02*
X169061600Y-92539571D01*
X169061600Y-92539571D02*
X168990171Y-92682428D01*
X168990171Y-92682428D02*
X168990171Y-92896714D01*
X168990171Y-92896714D02*
X169061600Y-93039571D01*
X169561600Y-92396714D02*
X169490171Y-92539571D01*
X169490171Y-92539571D02*
X169490171Y-92825285D01*
X169490171Y-92825285D02*
X169561600Y-92968142D01*
X169561600Y-92968142D02*
X169633028Y-93039571D01*
X169633028Y-93039571D02*
X169775885Y-93110999D01*
X169775885Y-93110999D02*
X170204457Y-93110999D01*
X170204457Y-93110999D02*
X170347314Y-93039571D01*
X170347314Y-93039571D02*
X170418742Y-92968142D01*
X170418742Y-92968142D02*
X170490171Y-92825285D01*
X170490171Y-92825285D02*
X170490171Y-92539571D01*
X170490171Y-92539571D02*
X170418742Y-92396714D01*
X169490171Y-91682428D02*
X170490171Y-91682428D01*
X170990171Y-91682428D02*
X170918742Y-91753856D01*
X170918742Y-91753856D02*
X170847314Y-91682428D01*
X170847314Y-91682428D02*
X170918742Y-91610999D01*
X170918742Y-91610999D02*
X170990171Y-91682428D01*
X170990171Y-91682428D02*
X170847314Y-91682428D01*
X170490171Y-91182427D02*
X170490171Y-90610999D01*
X170990171Y-90968142D02*
X169704457Y-90968142D01*
X169704457Y-90968142D02*
X169561600Y-90896713D01*
X169561600Y-90896713D02*
X169490171Y-90753856D01*
X169490171Y-90753856D02*
X169490171Y-90610999D01*
X169490171Y-90110999D02*
X170990171Y-90110999D01*
X169490171Y-89468142D02*
X170275885Y-89468142D01*
X170275885Y-89468142D02*
X170418742Y-89539570D01*
X170418742Y-89539570D02*
X170490171Y-89682427D01*
X170490171Y-89682427D02*
X170490171Y-89896713D01*
X170490171Y-89896713D02*
X170418742Y-90039570D01*
X170418742Y-90039570D02*
X170347314Y-90110999D01*
X170490171Y-88110999D02*
X169490171Y-88110999D01*
X170490171Y-88753856D02*
X169704457Y-88753856D01*
X169704457Y-88753856D02*
X169561600Y-88682427D01*
X169561600Y-88682427D02*
X169490171Y-88539570D01*
X169490171Y-88539570D02*
X169490171Y-88325284D01*
X169490171Y-88325284D02*
X169561600Y-88182427D01*
X169561600Y-88182427D02*
X169633028Y-88110999D01*
X169490171Y-87396713D02*
X170990171Y-87396713D01*
X170418742Y-87396713D02*
X170490171Y-87253856D01*
X170490171Y-87253856D02*
X170490171Y-86968141D01*
X170490171Y-86968141D02*
X170418742Y-86825284D01*
X170418742Y-86825284D02*
X170347314Y-86753856D01*
X170347314Y-86753856D02*
X170204457Y-86682427D01*
X170204457Y-86682427D02*
X169775885Y-86682427D01*
X169775885Y-86682427D02*
X169633028Y-86753856D01*
X169633028Y-86753856D02*
X169561600Y-86825284D01*
X169561600Y-86825284D02*
X169490171Y-86968141D01*
X169490171Y-86968141D02*
X169490171Y-87253856D01*
X169490171Y-87253856D02*
X169561600Y-87396713D01*
X169633028Y-86039570D02*
X169561600Y-85968141D01*
X169561600Y-85968141D02*
X169490171Y-86039570D01*
X169490171Y-86039570D02*
X169561600Y-86110998D01*
X169561600Y-86110998D02*
X169633028Y-86039570D01*
X169633028Y-86039570D02*
X169490171Y-86039570D01*
X169490171Y-85325284D02*
X170490171Y-85325284D01*
X170990171Y-85325284D02*
X170918742Y-85396712D01*
X170918742Y-85396712D02*
X170847314Y-85325284D01*
X170847314Y-85325284D02*
X170918742Y-85253855D01*
X170918742Y-85253855D02*
X170990171Y-85325284D01*
X170990171Y-85325284D02*
X170847314Y-85325284D01*
X169490171Y-84396712D02*
X169561600Y-84539569D01*
X169561600Y-84539569D02*
X169633028Y-84610998D01*
X169633028Y-84610998D02*
X169775885Y-84682426D01*
X169775885Y-84682426D02*
X170204457Y-84682426D01*
X170204457Y-84682426D02*
X170347314Y-84610998D01*
X170347314Y-84610998D02*
X170418742Y-84539569D01*
X170418742Y-84539569D02*
X170490171Y-84396712D01*
X170490171Y-84396712D02*
X170490171Y-84182426D01*
X170490171Y-84182426D02*
X170418742Y-84039569D01*
X170418742Y-84039569D02*
X170347314Y-83968141D01*
X170347314Y-83968141D02*
X170204457Y-83896712D01*
X170204457Y-83896712D02*
X169775885Y-83896712D01*
X169775885Y-83896712D02*
X169633028Y-83968141D01*
X169633028Y-83968141D02*
X169561600Y-84039569D01*
X169561600Y-84039569D02*
X169490171Y-84182426D01*
X169490171Y-84182426D02*
X169490171Y-84396712D01*
D10*
X128679411Y-72577438D02*
X128774649Y-72529819D01*
X128774649Y-72529819D02*
X128917506Y-72529819D01*
X128917506Y-72529819D02*
X129060363Y-72577438D01*
X129060363Y-72577438D02*
X129155601Y-72672676D01*
X129155601Y-72672676D02*
X129203220Y-72767914D01*
X129203220Y-72767914D02*
X129250839Y-72958390D01*
X129250839Y-72958390D02*
X129250839Y-73101247D01*
X129250839Y-73101247D02*
X129203220Y-73291723D01*
X129203220Y-73291723D02*
X129155601Y-73386961D01*
X129155601Y-73386961D02*
X129060363Y-73482200D01*
X129060363Y-73482200D02*
X128917506Y-73529819D01*
X128917506Y-73529819D02*
X128822268Y-73529819D01*
X128822268Y-73529819D02*
X128679411Y-73482200D01*
X128679411Y-73482200D02*
X128631792Y-73434580D01*
X128631792Y-73434580D02*
X128631792Y-73101247D01*
X128631792Y-73101247D02*
X128822268Y-73101247D01*
X128203220Y-73529819D02*
X128203220Y-72529819D01*
X128203220Y-72529819D02*
X127631792Y-73529819D01*
X127631792Y-73529819D02*
X127631792Y-72529819D01*
X127155601Y-73529819D02*
X127155601Y-72529819D01*
X127155601Y-72529819D02*
X126917506Y-72529819D01*
X126917506Y-72529819D02*
X126774649Y-72577438D01*
X126774649Y-72577438D02*
X126679411Y-72672676D01*
X126679411Y-72672676D02*
X126631792Y-72767914D01*
X126631792Y-72767914D02*
X126584173Y-72958390D01*
X126584173Y-72958390D02*
X126584173Y-73101247D01*
X126584173Y-73101247D02*
X126631792Y-73291723D01*
X126631792Y-73291723D02*
X126679411Y-73386961D01*
X126679411Y-73386961D02*
X126774649Y-73482200D01*
X126774649Y-73482200D02*
X126917506Y-73529819D01*
X126917506Y-73529819D02*
X127155601Y-73529819D01*
X128670160Y-68354580D02*
X128717779Y-68402200D01*
X128717779Y-68402200D02*
X128860636Y-68449819D01*
X128860636Y-68449819D02*
X128955874Y-68449819D01*
X128955874Y-68449819D02*
X129098731Y-68402200D01*
X129098731Y-68402200D02*
X129193969Y-68306961D01*
X129193969Y-68306961D02*
X129241588Y-68211723D01*
X129241588Y-68211723D02*
X129289207Y-68021247D01*
X129289207Y-68021247D02*
X129289207Y-67878390D01*
X129289207Y-67878390D02*
X129241588Y-67687914D01*
X129241588Y-67687914D02*
X129193969Y-67592676D01*
X129193969Y-67592676D02*
X129098731Y-67497438D01*
X129098731Y-67497438D02*
X128955874Y-67449819D01*
X128955874Y-67449819D02*
X128860636Y-67449819D01*
X128860636Y-67449819D02*
X128717779Y-67497438D01*
X128717779Y-67497438D02*
X128670160Y-67545057D01*
X128241588Y-68449819D02*
X128241588Y-67449819D01*
X128241588Y-67449819D02*
X128003493Y-67449819D01*
X128003493Y-67449819D02*
X127860636Y-67497438D01*
X127860636Y-67497438D02*
X127765398Y-67592676D01*
X127765398Y-67592676D02*
X127717779Y-67687914D01*
X127717779Y-67687914D02*
X127670160Y-67878390D01*
X127670160Y-67878390D02*
X127670160Y-68021247D01*
X127670160Y-68021247D02*
X127717779Y-68211723D01*
X127717779Y-68211723D02*
X127765398Y-68306961D01*
X127765398Y-68306961D02*
X127860636Y-68402200D01*
X127860636Y-68402200D02*
X128003493Y-68449819D01*
X128003493Y-68449819D02*
X128241588Y-68449819D01*
X128679411Y-91627438D02*
X128774649Y-91579819D01*
X128774649Y-91579819D02*
X128917506Y-91579819D01*
X128917506Y-91579819D02*
X129060363Y-91627438D01*
X129060363Y-91627438D02*
X129155601Y-91722676D01*
X129155601Y-91722676D02*
X129203220Y-91817914D01*
X129203220Y-91817914D02*
X129250839Y-92008390D01*
X129250839Y-92008390D02*
X129250839Y-92151247D01*
X129250839Y-92151247D02*
X129203220Y-92341723D01*
X129203220Y-92341723D02*
X129155601Y-92436961D01*
X129155601Y-92436961D02*
X129060363Y-92532200D01*
X129060363Y-92532200D02*
X128917506Y-92579819D01*
X128917506Y-92579819D02*
X128822268Y-92579819D01*
X128822268Y-92579819D02*
X128679411Y-92532200D01*
X128679411Y-92532200D02*
X128631792Y-92484580D01*
X128631792Y-92484580D02*
X128631792Y-92151247D01*
X128631792Y-92151247D02*
X128822268Y-92151247D01*
X128203220Y-92579819D02*
X128203220Y-91579819D01*
X128203220Y-91579819D02*
X127631792Y-92579819D01*
X127631792Y-92579819D02*
X127631792Y-91579819D01*
X127155601Y-92579819D02*
X127155601Y-91579819D01*
X127155601Y-91579819D02*
X126917506Y-91579819D01*
X126917506Y-91579819D02*
X126774649Y-91627438D01*
X126774649Y-91627438D02*
X126679411Y-91722676D01*
X126679411Y-91722676D02*
X126631792Y-91817914D01*
X126631792Y-91817914D02*
X126584173Y-92008390D01*
X126584173Y-92008390D02*
X126584173Y-92151247D01*
X126584173Y-92151247D02*
X126631792Y-92341723D01*
X126631792Y-92341723D02*
X126679411Y-92436961D01*
X126679411Y-92436961D02*
X126774649Y-92532200D01*
X126774649Y-92532200D02*
X126917506Y-92579819D01*
X126917506Y-92579819D02*
X127155601Y-92579819D01*
X129330220Y-95119819D02*
X129330220Y-94119819D01*
X129330220Y-94119819D02*
X128996887Y-94834104D01*
X128996887Y-94834104D02*
X128663554Y-94119819D01*
X128663554Y-94119819D02*
X128663554Y-95119819D01*
X128330220Y-94119819D02*
X127758792Y-94119819D01*
X128044506Y-95119819D02*
X128044506Y-94119819D01*
X126854030Y-95119819D02*
X127187363Y-94643628D01*
X127425458Y-95119819D02*
X127425458Y-94119819D01*
X127425458Y-94119819D02*
X127044506Y-94119819D01*
X127044506Y-94119819D02*
X126949268Y-94167438D01*
X126949268Y-94167438D02*
X126901649Y-94215057D01*
X126901649Y-94215057D02*
X126854030Y-94310295D01*
X126854030Y-94310295D02*
X126854030Y-94453152D01*
X126854030Y-94453152D02*
X126901649Y-94548390D01*
X126901649Y-94548390D02*
X126949268Y-94596009D01*
X126949268Y-94596009D02*
X127044506Y-94643628D01*
X127044506Y-94643628D02*
X127425458Y-94643628D01*
X126473077Y-94215057D02*
X126425458Y-94167438D01*
X126425458Y-94167438D02*
X126330220Y-94119819D01*
X126330220Y-94119819D02*
X126092125Y-94119819D01*
X126092125Y-94119819D02*
X125996887Y-94167438D01*
X125996887Y-94167438D02*
X125949268Y-94215057D01*
X125949268Y-94215057D02*
X125901649Y-94310295D01*
X125901649Y-94310295D02*
X125901649Y-94405533D01*
X125901649Y-94405533D02*
X125949268Y-94548390D01*
X125949268Y-94548390D02*
X126520696Y-95119819D01*
X126520696Y-95119819D02*
X125901649Y-95119819D01*
X129352731Y-69989819D02*
X128781303Y-69989819D01*
X129067017Y-70989819D02*
X129067017Y-69989819D01*
X128543207Y-69989819D02*
X127876541Y-70989819D01*
X127876541Y-69989819D02*
X128543207Y-70989819D01*
%TO.C,REF\u002A\u002A*%
D12*
X165765820Y-61969101D02*
X165839114Y-61970216D01*
X165897150Y-61971952D01*
X165935337Y-61974167D01*
X165949086Y-61976721D01*
X165949049Y-61977256D01*
X165942207Y-61995808D01*
X165927132Y-62027153D01*
X165905178Y-62069608D01*
X165676760Y-62073604D01*
X165448343Y-62077600D01*
X165448343Y-62164686D01*
X165698714Y-62168657D01*
X165766773Y-62169916D01*
X165839518Y-62171718D01*
X165897270Y-62173671D01*
X165935352Y-62175612D01*
X165949086Y-62177377D01*
X165949038Y-62177885D01*
X165943985Y-62195482D01*
X165933151Y-62227834D01*
X165917217Y-62273543D01*
X165697294Y-62273765D01*
X165659091Y-62273988D01*
X165584854Y-62275531D01*
X165522855Y-62278292D01*
X165478692Y-62281977D01*
X165457959Y-62286292D01*
X165446869Y-62301732D01*
X165443444Y-62333241D01*
X165448343Y-62367886D01*
X165698714Y-62371857D01*
X165762337Y-62373278D01*
X165837644Y-62376225D01*
X165896714Y-62380079D01*
X165935282Y-62384542D01*
X165949086Y-62389317D01*
X165944718Y-62407941D01*
X165932242Y-62439774D01*
X165915398Y-62476743D01*
X165428804Y-62476743D01*
X165382873Y-62430812D01*
X165372573Y-62420320D01*
X165349680Y-62391255D01*
X165342265Y-62361943D01*
X165345679Y-62318326D01*
X165347886Y-62300568D01*
X165352555Y-62254767D01*
X165354415Y-62222743D01*
X165354131Y-62213244D01*
X165351052Y-62174274D01*
X165345679Y-62127160D01*
X165343832Y-62112085D01*
X165343107Y-62074110D01*
X165354571Y-62046325D01*
X165382873Y-62014674D01*
X165428804Y-61968743D01*
X165688945Y-61968743D01*
X165765820Y-61969101D01*
G36*
X165765820Y-61969101D02*
G01*
X165839114Y-61970216D01*
X165897150Y-61971952D01*
X165935337Y-61974167D01*
X165949086Y-61976721D01*
X165949049Y-61977256D01*
X165942207Y-61995808D01*
X165927132Y-62027153D01*
X165905178Y-62069608D01*
X165676760Y-62073604D01*
X165448343Y-62077600D01*
X165448343Y-62164686D01*
X165698714Y-62168657D01*
X165766773Y-62169916D01*
X165839518Y-62171718D01*
X165897270Y-62173671D01*
X165935352Y-62175612D01*
X165949086Y-62177377D01*
X165949038Y-62177885D01*
X165943985Y-62195482D01*
X165933151Y-62227834D01*
X165917217Y-62273543D01*
X165697294Y-62273765D01*
X165659091Y-62273988D01*
X165584854Y-62275531D01*
X165522855Y-62278292D01*
X165478692Y-62281977D01*
X165457959Y-62286292D01*
X165446869Y-62301732D01*
X165443444Y-62333241D01*
X165448343Y-62367886D01*
X165698714Y-62371857D01*
X165762337Y-62373278D01*
X165837644Y-62376225D01*
X165896714Y-62380079D01*
X165935282Y-62384542D01*
X165949086Y-62389317D01*
X165944718Y-62407941D01*
X165932242Y-62439774D01*
X165915398Y-62476743D01*
X165428804Y-62476743D01*
X165382873Y-62430812D01*
X165372573Y-62420320D01*
X165349680Y-62391255D01*
X165342265Y-62361943D01*
X165345679Y-62318326D01*
X165347886Y-62300568D01*
X165352555Y-62254767D01*
X165354415Y-62222743D01*
X165354131Y-62213244D01*
X165351052Y-62174274D01*
X165345679Y-62127160D01*
X165343832Y-62112085D01*
X165343107Y-62074110D01*
X165354571Y-62046325D01*
X165382873Y-62014674D01*
X165428804Y-61968743D01*
X165688945Y-61968743D01*
X165765820Y-61969101D01*
G37*
X165715904Y-66555833D02*
X165786118Y-66562937D01*
X165841688Y-66576815D01*
X165878699Y-66594649D01*
X165936267Y-66644855D01*
X165972038Y-66712885D01*
X165984335Y-66796158D01*
X165983669Y-66818398D01*
X165970053Y-66883891D01*
X165935751Y-66937687D01*
X165876662Y-66987057D01*
X165872278Y-66989995D01*
X165848701Y-67003287D01*
X165822051Y-67011932D01*
X165785841Y-67016904D01*
X165733587Y-67019174D01*
X165663808Y-67019678D01*
X165658800Y-67019714D01*
X165643065Y-67019701D01*
X165572881Y-67018914D01*
X165523978Y-67016210D01*
X165489822Y-67010606D01*
X165463876Y-67001119D01*
X165439603Y-66986768D01*
X165434567Y-66983237D01*
X165394857Y-66945878D01*
X165364908Y-66903311D01*
X165355190Y-66881452D01*
X165340612Y-66810814D01*
X165474320Y-66810814D01*
X165499143Y-66845543D01*
X165505675Y-66851584D01*
X165525221Y-66863417D01*
X165553614Y-66870404D01*
X165597570Y-66873727D01*
X165663808Y-66874571D01*
X165725850Y-66873125D01*
X165784958Y-66865907D01*
X165822314Y-66851006D01*
X165841848Y-66826636D01*
X165847486Y-66791008D01*
X165846365Y-66777440D01*
X165825806Y-66739430D01*
X165779701Y-66714312D01*
X165708487Y-66702248D01*
X165612601Y-66703402D01*
X165606431Y-66703866D01*
X165553522Y-66710629D01*
X165519971Y-66722671D01*
X165496984Y-66743005D01*
X165475452Y-66777097D01*
X165474320Y-66810814D01*
X165340612Y-66810814D01*
X165338980Y-66802908D01*
X165349465Y-66725231D01*
X165385293Y-66653645D01*
X165445113Y-66593374D01*
X165453127Y-66588286D01*
X165499658Y-66571730D01*
X165564448Y-66560573D01*
X165639273Y-66555160D01*
X165715904Y-66555833D01*
G36*
X165715904Y-66555833D02*
G01*
X165786118Y-66562937D01*
X165841688Y-66576815D01*
X165878699Y-66594649D01*
X165936267Y-66644855D01*
X165972038Y-66712885D01*
X165984335Y-66796158D01*
X165983669Y-66818398D01*
X165970053Y-66883891D01*
X165935751Y-66937687D01*
X165876662Y-66987057D01*
X165872278Y-66989995D01*
X165848701Y-67003287D01*
X165822051Y-67011932D01*
X165785841Y-67016904D01*
X165733587Y-67019174D01*
X165663808Y-67019678D01*
X165658800Y-67019714D01*
X165643065Y-67019701D01*
X165572881Y-67018914D01*
X165523978Y-67016210D01*
X165489822Y-67010606D01*
X165463876Y-67001119D01*
X165439603Y-66986768D01*
X165434567Y-66983237D01*
X165394857Y-66945878D01*
X165364908Y-66903311D01*
X165355190Y-66881452D01*
X165340612Y-66810814D01*
X165474320Y-66810814D01*
X165499143Y-66845543D01*
X165505675Y-66851584D01*
X165525221Y-66863417D01*
X165553614Y-66870404D01*
X165597570Y-66873727D01*
X165663808Y-66874571D01*
X165725850Y-66873125D01*
X165784958Y-66865907D01*
X165822314Y-66851006D01*
X165841848Y-66826636D01*
X165847486Y-66791008D01*
X165846365Y-66777440D01*
X165825806Y-66739430D01*
X165779701Y-66714312D01*
X165708487Y-66702248D01*
X165612601Y-66703402D01*
X165606431Y-66703866D01*
X165553522Y-66710629D01*
X165519971Y-66722671D01*
X165496984Y-66743005D01*
X165475452Y-66777097D01*
X165474320Y-66810814D01*
X165340612Y-66810814D01*
X165338980Y-66802908D01*
X165349465Y-66725231D01*
X165385293Y-66653645D01*
X165445113Y-66593374D01*
X165453127Y-66588286D01*
X165499658Y-66571730D01*
X165564448Y-66560573D01*
X165639273Y-66555160D01*
X165715904Y-66555833D01*
G37*
X165581818Y-60531742D02*
X165562644Y-60563424D01*
X165517653Y-60590962D01*
X165503248Y-60596711D01*
X165462454Y-60628855D01*
X165441919Y-60672611D01*
X165443765Y-60720254D01*
X165470114Y-60764057D01*
X165486545Y-60779111D01*
X165511333Y-60792763D01*
X165533856Y-60788493D01*
X165557036Y-60763916D01*
X165583798Y-60716651D01*
X165617066Y-60644314D01*
X165682184Y-60495543D01*
X165746692Y-60491595D01*
X165794936Y-60493338D01*
X165855904Y-60515281D01*
X165889503Y-60542979D01*
X165927034Y-60600405D01*
X165945994Y-60668527D01*
X165944493Y-60738947D01*
X165920645Y-60803267D01*
X165911487Y-60817426D01*
X165883151Y-60849904D01*
X165847305Y-60872116D01*
X165798616Y-60885804D01*
X165731751Y-60892715D01*
X165687753Y-60893628D01*
X165641378Y-60894590D01*
X165602695Y-60894307D01*
X165526479Y-60890762D01*
X165470706Y-60881483D01*
X165429387Y-60864375D01*
X165396533Y-60837344D01*
X165369384Y-60802444D01*
X165658800Y-60802444D01*
X165662874Y-60804977D01*
X165687753Y-60805993D01*
X165727743Y-60802369D01*
X165766848Y-60793242D01*
X165816116Y-60764773D01*
X165843878Y-60723678D01*
X165847636Y-60674590D01*
X165824891Y-60622144D01*
X165813519Y-60607609D01*
X165787780Y-60590010D01*
X165762343Y-60597368D01*
X165735186Y-60630848D01*
X165704286Y-60691614D01*
X165699810Y-60701669D01*
X165678983Y-60749751D01*
X165664335Y-60785726D01*
X165658800Y-60802444D01*
X165369384Y-60802444D01*
X165366154Y-60798292D01*
X165352340Y-60773445D01*
X165343035Y-60733615D01*
X165343770Y-60677665D01*
X165346717Y-60646385D01*
X165355717Y-60608653D01*
X165375280Y-60578494D01*
X165411733Y-60543408D01*
X165417057Y-60538720D01*
X165458031Y-60507177D01*
X165493717Y-60492128D01*
X165536034Y-60488286D01*
X165598221Y-60488286D01*
X165581818Y-60531742D01*
G36*
X165581818Y-60531742D02*
G01*
X165562644Y-60563424D01*
X165517653Y-60590962D01*
X165503248Y-60596711D01*
X165462454Y-60628855D01*
X165441919Y-60672611D01*
X165443765Y-60720254D01*
X165470114Y-60764057D01*
X165486545Y-60779111D01*
X165511333Y-60792763D01*
X165533856Y-60788493D01*
X165557036Y-60763916D01*
X165583798Y-60716651D01*
X165617066Y-60644314D01*
X165682184Y-60495543D01*
X165746692Y-60491595D01*
X165794936Y-60493338D01*
X165855904Y-60515281D01*
X165889503Y-60542979D01*
X165927034Y-60600405D01*
X165945994Y-60668527D01*
X165944493Y-60738947D01*
X165920645Y-60803267D01*
X165911487Y-60817426D01*
X165883151Y-60849904D01*
X165847305Y-60872116D01*
X165798616Y-60885804D01*
X165731751Y-60892715D01*
X165687753Y-60893628D01*
X165641378Y-60894590D01*
X165602695Y-60894307D01*
X165526479Y-60890762D01*
X165470706Y-60881483D01*
X165429387Y-60864375D01*
X165396533Y-60837344D01*
X165369384Y-60802444D01*
X165658800Y-60802444D01*
X165662874Y-60804977D01*
X165687753Y-60805993D01*
X165727743Y-60802369D01*
X165766848Y-60793242D01*
X165816116Y-60764773D01*
X165843878Y-60723678D01*
X165847636Y-60674590D01*
X165824891Y-60622144D01*
X165813519Y-60607609D01*
X165787780Y-60590010D01*
X165762343Y-60597368D01*
X165735186Y-60630848D01*
X165704286Y-60691614D01*
X165699810Y-60701669D01*
X165678983Y-60749751D01*
X165664335Y-60785726D01*
X165658800Y-60802444D01*
X165369384Y-60802444D01*
X165366154Y-60798292D01*
X165352340Y-60773445D01*
X165343035Y-60733615D01*
X165343770Y-60677665D01*
X165346717Y-60646385D01*
X165355717Y-60608653D01*
X165375280Y-60578494D01*
X165411733Y-60543408D01*
X165417057Y-60538720D01*
X165458031Y-60507177D01*
X165493717Y-60492128D01*
X165536034Y-60488286D01*
X165598221Y-60488286D01*
X165581818Y-60531742D01*
G37*
X165660289Y-64900884D02*
X165743108Y-64903086D01*
X165804773Y-64908661D01*
X165850252Y-64918941D01*
X165884516Y-64935258D01*
X165912534Y-64958943D01*
X165939277Y-64991328D01*
X165966220Y-65037907D01*
X165983809Y-65111287D01*
X165976178Y-65185020D01*
X165944320Y-65252810D01*
X165889230Y-65308366D01*
X165871984Y-65319881D01*
X165852438Y-65329432D01*
X165827802Y-65336206D01*
X165793289Y-65340819D01*
X165744111Y-65343888D01*
X165675481Y-65346029D01*
X165582611Y-65347859D01*
X165324993Y-65352404D01*
X165339509Y-65314225D01*
X165352844Y-65279268D01*
X165365677Y-65253097D01*
X165382220Y-65236013D01*
X165407535Y-65226086D01*
X165446684Y-65221386D01*
X165504732Y-65219982D01*
X165586739Y-65219943D01*
X165652105Y-65219744D01*
X165714827Y-65218559D01*
X165757666Y-65215729D01*
X165785780Y-65210609D01*
X165804325Y-65202553D01*
X165818457Y-65190914D01*
X165838400Y-65162303D01*
X165845917Y-65114239D01*
X165826921Y-65066688D01*
X165824489Y-65063550D01*
X165813252Y-65053769D01*
X165795230Y-65046553D01*
X165765974Y-65041299D01*
X165721038Y-65037402D01*
X165655972Y-65034256D01*
X165566330Y-65031257D01*
X165326303Y-65024000D01*
X165353956Y-64962314D01*
X165381609Y-64900629D01*
X165600754Y-64900629D01*
X165660289Y-64900884D01*
G36*
X165660289Y-64900884D02*
G01*
X165743108Y-64903086D01*
X165804773Y-64908661D01*
X165850252Y-64918941D01*
X165884516Y-64935258D01*
X165912534Y-64958943D01*
X165939277Y-64991328D01*
X165966220Y-65037907D01*
X165983809Y-65111287D01*
X165976178Y-65185020D01*
X165944320Y-65252810D01*
X165889230Y-65308366D01*
X165871984Y-65319881D01*
X165852438Y-65329432D01*
X165827802Y-65336206D01*
X165793289Y-65340819D01*
X165744111Y-65343888D01*
X165675481Y-65346029D01*
X165582611Y-65347859D01*
X165324993Y-65352404D01*
X165339509Y-65314225D01*
X165352844Y-65279268D01*
X165365677Y-65253097D01*
X165382220Y-65236013D01*
X165407535Y-65226086D01*
X165446684Y-65221386D01*
X165504732Y-65219982D01*
X165586739Y-65219943D01*
X165652105Y-65219744D01*
X165714827Y-65218559D01*
X165757666Y-65215729D01*
X165785780Y-65210609D01*
X165804325Y-65202553D01*
X165818457Y-65190914D01*
X165838400Y-65162303D01*
X165845917Y-65114239D01*
X165826921Y-65066688D01*
X165824489Y-65063550D01*
X165813252Y-65053769D01*
X165795230Y-65046553D01*
X165765974Y-65041299D01*
X165721038Y-65037402D01*
X165655972Y-65034256D01*
X165566330Y-65031257D01*
X165326303Y-65024000D01*
X165353956Y-64962314D01*
X165381609Y-64900629D01*
X165600754Y-64900629D01*
X165660289Y-64900884D01*
G37*
X165796849Y-60985336D02*
X165847453Y-61007235D01*
X165894872Y-61042644D01*
X165927666Y-61084052D01*
X165935248Y-61101400D01*
X165947924Y-61167089D01*
X165942903Y-61236829D01*
X165920645Y-61296753D01*
X165903920Y-61321673D01*
X165879957Y-61346910D01*
X165849474Y-61364912D01*
X165807977Y-61376858D01*
X165750968Y-61383930D01*
X165673953Y-61387308D01*
X165572435Y-61388171D01*
X165519973Y-61388002D01*
X165448285Y-61387153D01*
X165391075Y-61385711D01*
X165353191Y-61383814D01*
X165339486Y-61381597D01*
X165344019Y-61367172D01*
X165356330Y-61338054D01*
X165356728Y-61337181D01*
X165364644Y-61322060D01*
X165375505Y-61311891D01*
X165394529Y-61305691D01*
X165426931Y-61302478D01*
X165477929Y-61301270D01*
X165552739Y-61301086D01*
X165600196Y-61300714D01*
X165689385Y-61296750D01*
X165754713Y-61287673D01*
X165799607Y-61272524D01*
X165827493Y-61250345D01*
X165841797Y-61220175D01*
X165842794Y-61215990D01*
X165843573Y-61159480D01*
X165818256Y-61115410D01*
X165767498Y-61084972D01*
X165752825Y-61079544D01*
X165720351Y-61067171D01*
X165705428Y-61060905D01*
X165707484Y-61048036D01*
X165718643Y-61019933D01*
X165737073Y-60993721D01*
X165771902Y-60981771D01*
X165796849Y-60985336D01*
G36*
X165796849Y-60985336D02*
G01*
X165847453Y-61007235D01*
X165894872Y-61042644D01*
X165927666Y-61084052D01*
X165935248Y-61101400D01*
X165947924Y-61167089D01*
X165942903Y-61236829D01*
X165920645Y-61296753D01*
X165903920Y-61321673D01*
X165879957Y-61346910D01*
X165849474Y-61364912D01*
X165807977Y-61376858D01*
X165750968Y-61383930D01*
X165673953Y-61387308D01*
X165572435Y-61388171D01*
X165519973Y-61388002D01*
X165448285Y-61387153D01*
X165391075Y-61385711D01*
X165353191Y-61383814D01*
X165339486Y-61381597D01*
X165344019Y-61367172D01*
X165356330Y-61338054D01*
X165356728Y-61337181D01*
X165364644Y-61322060D01*
X165375505Y-61311891D01*
X165394529Y-61305691D01*
X165426931Y-61302478D01*
X165477929Y-61301270D01*
X165552739Y-61301086D01*
X165600196Y-61300714D01*
X165689385Y-61296750D01*
X165754713Y-61287673D01*
X165799607Y-61272524D01*
X165827493Y-61250345D01*
X165841797Y-61220175D01*
X165842794Y-61215990D01*
X165843573Y-61159480D01*
X165818256Y-61115410D01*
X165767498Y-61084972D01*
X165752825Y-61079544D01*
X165720351Y-61067171D01*
X165705428Y-61060905D01*
X165707484Y-61048036D01*
X165718643Y-61019933D01*
X165737073Y-60993721D01*
X165771902Y-60981771D01*
X165796849Y-60985336D01*
G37*
X166145638Y-62611000D02*
X166140230Y-62623472D01*
X166128015Y-62643324D01*
X166109518Y-62654687D01*
X166077171Y-62660933D01*
X166023407Y-62665429D01*
X165975134Y-62669535D01*
X165943443Y-62674963D01*
X165931617Y-62682739D01*
X165934788Y-62694457D01*
X165945933Y-62724318D01*
X165948696Y-62777684D01*
X165938375Y-62835093D01*
X165916139Y-62884625D01*
X165895557Y-62911876D01*
X165855400Y-62946865D01*
X165803914Y-62969274D01*
X165735432Y-62981190D01*
X165648353Y-62984542D01*
X165644286Y-62984698D01*
X165587687Y-62983537D01*
X165510538Y-62975345D01*
X165452724Y-62957519D01*
X165408578Y-62927975D01*
X165372432Y-62884625D01*
X165351537Y-62843332D01*
X165339910Y-62773987D01*
X165344259Y-62750299D01*
X165444581Y-62750299D01*
X165447110Y-62800635D01*
X165476712Y-62847517D01*
X165492047Y-62861477D01*
X165512378Y-62873160D01*
X165540486Y-62879686D01*
X165583450Y-62882524D01*
X165648353Y-62883143D01*
X165697878Y-62882837D01*
X165746218Y-62880722D01*
X165777413Y-62875390D01*
X165798353Y-62865460D01*
X165815927Y-62849550D01*
X165823841Y-62840204D01*
X165845157Y-62791776D01*
X165841802Y-62741040D01*
X165813893Y-62696987D01*
X165802827Y-62687504D01*
X165781991Y-62675939D01*
X165752894Y-62669252D01*
X165708619Y-62666173D01*
X165642252Y-62665429D01*
X165589423Y-62665772D01*
X165541638Y-62667942D01*
X165510791Y-62673307D01*
X165490065Y-62683217D01*
X165472644Y-62699021D01*
X165469295Y-62702724D01*
X165444581Y-62750299D01*
X165344259Y-62750299D01*
X165352623Y-62704736D01*
X165388055Y-62642145D01*
X165444582Y-62592779D01*
X165455005Y-62586818D01*
X165473267Y-62578945D01*
X165496571Y-62573106D01*
X165528915Y-62568999D01*
X165574296Y-62566325D01*
X165636713Y-62564781D01*
X165720163Y-62564067D01*
X165828642Y-62563883D01*
X166165399Y-62563829D01*
X166145638Y-62611000D01*
G36*
X166145638Y-62611000D02*
G01*
X166140230Y-62623472D01*
X166128015Y-62643324D01*
X166109518Y-62654687D01*
X166077171Y-62660933D01*
X166023407Y-62665429D01*
X165975134Y-62669535D01*
X165943443Y-62674963D01*
X165931617Y-62682739D01*
X165934788Y-62694457D01*
X165945933Y-62724318D01*
X165948696Y-62777684D01*
X165938375Y-62835093D01*
X165916139Y-62884625D01*
X165895557Y-62911876D01*
X165855400Y-62946865D01*
X165803914Y-62969274D01*
X165735432Y-62981190D01*
X165648353Y-62984542D01*
X165644286Y-62984698D01*
X165587687Y-62983537D01*
X165510538Y-62975345D01*
X165452724Y-62957519D01*
X165408578Y-62927975D01*
X165372432Y-62884625D01*
X165351537Y-62843332D01*
X165339910Y-62773987D01*
X165344259Y-62750299D01*
X165444581Y-62750299D01*
X165447110Y-62800635D01*
X165476712Y-62847517D01*
X165492047Y-62861477D01*
X165512378Y-62873160D01*
X165540486Y-62879686D01*
X165583450Y-62882524D01*
X165648353Y-62883143D01*
X165697878Y-62882837D01*
X165746218Y-62880722D01*
X165777413Y-62875390D01*
X165798353Y-62865460D01*
X165815927Y-62849550D01*
X165823841Y-62840204D01*
X165845157Y-62791776D01*
X165841802Y-62741040D01*
X165813893Y-62696987D01*
X165802827Y-62687504D01*
X165781991Y-62675939D01*
X165752894Y-62669252D01*
X165708619Y-62666173D01*
X165642252Y-62665429D01*
X165589423Y-62665772D01*
X165541638Y-62667942D01*
X165510791Y-62673307D01*
X165490065Y-62683217D01*
X165472644Y-62699021D01*
X165469295Y-62702724D01*
X165444581Y-62750299D01*
X165344259Y-62750299D01*
X165352623Y-62704736D01*
X165388055Y-62642145D01*
X165444582Y-62592779D01*
X165455005Y-62586818D01*
X165473267Y-62578945D01*
X165496571Y-62573106D01*
X165528915Y-62568999D01*
X165574296Y-62566325D01*
X165636713Y-62564781D01*
X165720163Y-62564067D01*
X165828642Y-62563883D01*
X166165399Y-62563829D01*
X166145638Y-62611000D01*
G37*
X165576763Y-64058823D02*
X165595049Y-64058857D01*
X165690374Y-64060778D01*
X165762457Y-64066678D01*
X165816187Y-64078001D01*
X165856451Y-64096187D01*
X165888139Y-64122679D01*
X165916139Y-64158918D01*
X165933667Y-64194263D01*
X165947215Y-64250773D01*
X165947985Y-64306356D01*
X165934805Y-64349086D01*
X165932985Y-64352298D01*
X165933180Y-64362205D01*
X165948428Y-64368975D01*
X165983387Y-64373861D01*
X166042711Y-64378114D01*
X166164453Y-64385371D01*
X166144556Y-64432543D01*
X166124658Y-64479714D01*
X165727491Y-64479714D01*
X165624502Y-64479519D01*
X165531859Y-64478998D01*
X165453300Y-64478199D01*
X165392561Y-64477172D01*
X165353377Y-64475963D01*
X165339486Y-64474623D01*
X165339532Y-64474099D01*
X165344580Y-64456287D01*
X165355420Y-64423823D01*
X165371354Y-64378114D01*
X165575827Y-64378114D01*
X165656168Y-64377824D01*
X165714438Y-64376474D01*
X165754091Y-64373369D01*
X165780382Y-64367812D01*
X165798564Y-64359107D01*
X165813893Y-64346556D01*
X165822045Y-64337999D01*
X165844625Y-64291728D01*
X165842625Y-64240728D01*
X165815927Y-64193993D01*
X165809302Y-64187189D01*
X165795544Y-64176293D01*
X165777358Y-64168836D01*
X165749823Y-64164169D01*
X165708019Y-64161642D01*
X165647027Y-64160602D01*
X165561927Y-64160400D01*
X165518766Y-64160303D01*
X165447776Y-64159674D01*
X165390924Y-64158556D01*
X165353172Y-64157063D01*
X165339486Y-64155309D01*
X165339532Y-64154785D01*
X165344580Y-64136973D01*
X165355420Y-64104509D01*
X165371354Y-64058800D01*
X165576763Y-64058823D01*
G36*
X165576763Y-64058823D02*
G01*
X165595049Y-64058857D01*
X165690374Y-64060778D01*
X165762457Y-64066678D01*
X165816187Y-64078001D01*
X165856451Y-64096187D01*
X165888139Y-64122679D01*
X165916139Y-64158918D01*
X165933667Y-64194263D01*
X165947215Y-64250773D01*
X165947985Y-64306356D01*
X165934805Y-64349086D01*
X165932985Y-64352298D01*
X165933180Y-64362205D01*
X165948428Y-64368975D01*
X165983387Y-64373861D01*
X166042711Y-64378114D01*
X166164453Y-64385371D01*
X166144556Y-64432543D01*
X166124658Y-64479714D01*
X165727491Y-64479714D01*
X165624502Y-64479519D01*
X165531859Y-64478998D01*
X165453300Y-64478199D01*
X165392561Y-64477172D01*
X165353377Y-64475963D01*
X165339486Y-64474623D01*
X165339532Y-64474099D01*
X165344580Y-64456287D01*
X165355420Y-64423823D01*
X165371354Y-64378114D01*
X165575827Y-64378114D01*
X165656168Y-64377824D01*
X165714438Y-64376474D01*
X165754091Y-64373369D01*
X165780382Y-64367812D01*
X165798564Y-64359107D01*
X165813893Y-64346556D01*
X165822045Y-64337999D01*
X165844625Y-64291728D01*
X165842625Y-64240728D01*
X165815927Y-64193993D01*
X165809302Y-64187189D01*
X165795544Y-64176293D01*
X165777358Y-64168836D01*
X165749823Y-64164169D01*
X165708019Y-64161642D01*
X165647027Y-64160602D01*
X165561927Y-64160400D01*
X165518766Y-64160303D01*
X165447776Y-64159674D01*
X165390924Y-64158556D01*
X165353172Y-64157063D01*
X165339486Y-64155309D01*
X165339532Y-64154785D01*
X165344580Y-64136973D01*
X165355420Y-64104509D01*
X165371354Y-64058800D01*
X165576763Y-64058823D01*
G37*
X165590922Y-63553371D02*
X165604568Y-63553736D01*
X165700349Y-63557904D01*
X165772538Y-63565268D01*
X165825942Y-63577330D01*
X165865367Y-63595593D01*
X165895620Y-63621560D01*
X165921507Y-63656733D01*
X165921913Y-63657384D01*
X165943032Y-63714256D01*
X165946600Y-63780033D01*
X165933431Y-63843483D01*
X165904339Y-63893376D01*
X165881673Y-63915325D01*
X165813918Y-63957504D01*
X165740050Y-63971714D01*
X165689230Y-63971714D01*
X165708872Y-63924999D01*
X165728692Y-63892692D01*
X165769840Y-63867231D01*
X165778325Y-63864616D01*
X165821549Y-63836478D01*
X165844897Y-63794067D01*
X165845900Y-63745370D01*
X165822086Y-63698373D01*
X165815944Y-63691357D01*
X165789255Y-63667893D01*
X165765986Y-63664019D01*
X165743138Y-63681768D01*
X165717713Y-63723179D01*
X165686712Y-63790286D01*
X165684748Y-63794824D01*
X165650010Y-63869322D01*
X165619237Y-63920203D01*
X165588512Y-63951525D01*
X165553918Y-63967343D01*
X165511538Y-63971714D01*
X165464554Y-63965986D01*
X165404415Y-63937062D01*
X165361212Y-63886178D01*
X165348241Y-63849374D01*
X165341144Y-63797434D01*
X165342660Y-63746999D01*
X165353368Y-63710983D01*
X165356034Y-63707158D01*
X165374663Y-63696998D01*
X165407495Y-63704048D01*
X165433265Y-63716297D01*
X165443994Y-63735939D01*
X165443461Y-63773191D01*
X165446538Y-63824908D01*
X165467788Y-63858701D01*
X165507123Y-63870114D01*
X165508253Y-63870104D01*
X165531087Y-63863187D01*
X165552037Y-63839659D01*
X165576185Y-63793914D01*
X165605259Y-63731704D01*
X165621075Y-63690499D01*
X165620056Y-63666712D01*
X165599163Y-63655597D01*
X165555359Y-63652408D01*
X165485607Y-63652400D01*
X165442548Y-63652044D01*
X165389374Y-63650413D01*
X165352978Y-63647761D01*
X165339486Y-63644422D01*
X165339577Y-63643530D01*
X165346890Y-63624237D01*
X165362322Y-63592284D01*
X165385158Y-63548124D01*
X165590922Y-63553371D01*
G36*
X165590922Y-63553371D02*
G01*
X165604568Y-63553736D01*
X165700349Y-63557904D01*
X165772538Y-63565268D01*
X165825942Y-63577330D01*
X165865367Y-63595593D01*
X165895620Y-63621560D01*
X165921507Y-63656733D01*
X165921913Y-63657384D01*
X165943032Y-63714256D01*
X165946600Y-63780033D01*
X165933431Y-63843483D01*
X165904339Y-63893376D01*
X165881673Y-63915325D01*
X165813918Y-63957504D01*
X165740050Y-63971714D01*
X165689230Y-63971714D01*
X165708872Y-63924999D01*
X165728692Y-63892692D01*
X165769840Y-63867231D01*
X165778325Y-63864616D01*
X165821549Y-63836478D01*
X165844897Y-63794067D01*
X165845900Y-63745370D01*
X165822086Y-63698373D01*
X165815944Y-63691357D01*
X165789255Y-63667893D01*
X165765986Y-63664019D01*
X165743138Y-63681768D01*
X165717713Y-63723179D01*
X165686712Y-63790286D01*
X165684748Y-63794824D01*
X165650010Y-63869322D01*
X165619237Y-63920203D01*
X165588512Y-63951525D01*
X165553918Y-63967343D01*
X165511538Y-63971714D01*
X165464554Y-63965986D01*
X165404415Y-63937062D01*
X165361212Y-63886178D01*
X165348241Y-63849374D01*
X165341144Y-63797434D01*
X165342660Y-63746999D01*
X165353368Y-63710983D01*
X165356034Y-63707158D01*
X165374663Y-63696998D01*
X165407495Y-63704048D01*
X165433265Y-63716297D01*
X165443994Y-63735939D01*
X165443461Y-63773191D01*
X165446538Y-63824908D01*
X165467788Y-63858701D01*
X165507123Y-63870114D01*
X165508253Y-63870104D01*
X165531087Y-63863187D01*
X165552037Y-63839659D01*
X165576185Y-63793914D01*
X165605259Y-63731704D01*
X165621075Y-63690499D01*
X165620056Y-63666712D01*
X165599163Y-63655597D01*
X165555359Y-63652408D01*
X165485607Y-63652400D01*
X165442548Y-63652044D01*
X165389374Y-63650413D01*
X165352978Y-63647761D01*
X165339486Y-63644422D01*
X165339577Y-63643530D01*
X165346890Y-63624237D01*
X165362322Y-63592284D01*
X165385158Y-63548124D01*
X165590922Y-63553371D01*
G37*
X168397524Y-61460760D02*
X168492708Y-61461082D01*
X168563745Y-61462033D01*
X168614266Y-61463896D01*
X168647902Y-61466955D01*
X168668282Y-61471494D01*
X168679038Y-61477795D01*
X168683801Y-61486143D01*
X168685730Y-61494224D01*
X168692555Y-61527172D01*
X168702978Y-61579736D01*
X168715982Y-61646569D01*
X168730551Y-61722328D01*
X168745667Y-61801665D01*
X168760315Y-61879237D01*
X168773477Y-61949698D01*
X168784137Y-62007702D01*
X168791279Y-62047904D01*
X168793886Y-62064959D01*
X168795459Y-62066112D01*
X168815881Y-62075385D01*
X168854955Y-62091432D01*
X168906371Y-62111635D01*
X168975647Y-62139672D01*
X169055710Y-62174186D01*
X169126272Y-62206538D01*
X169142111Y-62213952D01*
X169191707Y-62234755D01*
X169229962Y-62247219D01*
X169249644Y-62248863D01*
X169251038Y-62248015D01*
X169271580Y-62234548D01*
X169311484Y-62207850D01*
X169366860Y-62170539D01*
X169433823Y-62125234D01*
X169508483Y-62074552D01*
X169593308Y-62017445D01*
X169659200Y-61974607D01*
X169707522Y-61945460D01*
X169741267Y-61928317D01*
X169763428Y-61921495D01*
X169776998Y-61923306D01*
X169778016Y-61923915D01*
X169797790Y-61940297D01*
X169833825Y-61973695D01*
X169882549Y-62020671D01*
X169940388Y-62077786D01*
X170003773Y-62141603D01*
X170068095Y-62207802D01*
X170128553Y-62272648D01*
X170169345Y-62320299D01*
X170191516Y-62351990D01*
X170196111Y-62368958D01*
X170195079Y-62371175D01*
X170181163Y-62394524D01*
X170153970Y-62436912D01*
X170116111Y-62494369D01*
X170070197Y-62562923D01*
X170018840Y-62638601D01*
X169850374Y-62885298D01*
X169900938Y-62996706D01*
X169902403Y-62999943D01*
X169932035Y-63068343D01*
X169961507Y-63140907D01*
X169984642Y-63202457D01*
X169984738Y-63202729D01*
X170002633Y-63251595D01*
X170017747Y-63289212D01*
X170026816Y-63307457D01*
X170027145Y-63307752D01*
X170045718Y-63313946D01*
X170087955Y-63324139D01*
X170149304Y-63337348D01*
X170225211Y-63352590D01*
X170311125Y-63368881D01*
X170314204Y-63369449D01*
X170401872Y-63385713D01*
X170481259Y-63400608D01*
X170547299Y-63413171D01*
X170594921Y-63422438D01*
X170619057Y-63427444D01*
X170620395Y-63427764D01*
X170630727Y-63431060D01*
X170638494Y-63437738D01*
X170644060Y-63451462D01*
X170647793Y-63475895D01*
X170650058Y-63514702D01*
X170651222Y-63571546D01*
X170651652Y-63650090D01*
X170651714Y-63754000D01*
X170651714Y-63767056D01*
X170651629Y-63867933D01*
X170651135Y-63943856D01*
X170649865Y-63998491D01*
X170647453Y-64035500D01*
X170643533Y-64058547D01*
X170637738Y-64071296D01*
X170629701Y-64077411D01*
X170619057Y-64080556D01*
X170618675Y-64080646D01*
X170593653Y-64085814D01*
X170545319Y-64095209D01*
X170478740Y-64107867D01*
X170398986Y-64122825D01*
X170311125Y-64139119D01*
X170303936Y-64140448D01*
X170218660Y-64156691D01*
X170143758Y-64171805D01*
X170083781Y-64184808D01*
X170043283Y-64194715D01*
X170026816Y-64200544D01*
X170026790Y-64200575D01*
X170017680Y-64218943D01*
X170002543Y-64256640D01*
X169984642Y-64305543D01*
X169983670Y-64308297D01*
X169960041Y-64370817D01*
X169930405Y-64443543D01*
X169900938Y-64511294D01*
X169850374Y-64622703D01*
X170018840Y-64869399D01*
X170030689Y-64886775D01*
X170081053Y-64961202D01*
X170125388Y-65027614D01*
X170161084Y-65082039D01*
X170185529Y-65120506D01*
X170196111Y-65139042D01*
X170193685Y-65151743D01*
X170174890Y-65180579D01*
X170137670Y-65225143D01*
X170080980Y-65286670D01*
X170003773Y-65366398D01*
X169996745Y-65373532D01*
X169933778Y-65436796D01*
X169876732Y-65492990D01*
X169829183Y-65538677D01*
X169794703Y-65570414D01*
X169776869Y-65584764D01*
X169776783Y-65584810D01*
X169763205Y-65586633D01*
X169741180Y-65579910D01*
X169707696Y-65562946D01*
X169659739Y-65534044D01*
X169594296Y-65491508D01*
X169508355Y-65433644D01*
X169493849Y-65423783D01*
X169420365Y-65373913D01*
X169355313Y-65329905D01*
X169302583Y-65294380D01*
X169266064Y-65269959D01*
X169249644Y-65259264D01*
X169246166Y-65258458D01*
X169220215Y-65263518D01*
X169177841Y-65278677D01*
X169126272Y-65301463D01*
X169058830Y-65332429D01*
X168978805Y-65367004D01*
X168906371Y-65396366D01*
X168887623Y-65403645D01*
X168839754Y-65422710D01*
X168806404Y-65436715D01*
X168793886Y-65443041D01*
X168792950Y-65450025D01*
X168787539Y-65481413D01*
X168778194Y-65532787D01*
X168765931Y-65598802D01*
X168751768Y-65674113D01*
X168736720Y-65753375D01*
X168721805Y-65831243D01*
X168708039Y-65902370D01*
X168696438Y-65961412D01*
X168688020Y-66003022D01*
X168683801Y-66021857D01*
X168682611Y-66024980D01*
X168676195Y-66032591D01*
X168662535Y-66038254D01*
X168638001Y-66042251D01*
X168598962Y-66044866D01*
X168541787Y-66046384D01*
X168462846Y-66047086D01*
X168358508Y-66047257D01*
X168041201Y-66047257D01*
X168026161Y-65971057D01*
X168024358Y-65961840D01*
X168015020Y-65912891D01*
X168002331Y-65845205D01*
X167987727Y-65766478D01*
X167972645Y-65684400D01*
X167966578Y-65652078D01*
X167951819Y-65579855D01*
X167937863Y-65519666D01*
X167926048Y-65477040D01*
X167917713Y-65457510D01*
X167904095Y-65448660D01*
X167868062Y-65432548D01*
X167821428Y-65416065D01*
X167803966Y-65410263D01*
X167746642Y-65388906D01*
X167678799Y-65361359D01*
X167611645Y-65332107D01*
X167576570Y-65316463D01*
X167524178Y-65294174D01*
X167484942Y-65278857D01*
X167465437Y-65273162D01*
X167463964Y-65273478D01*
X167443271Y-65284281D01*
X167403335Y-65308638D01*
X167348028Y-65344081D01*
X167281219Y-65388136D01*
X167206780Y-65438332D01*
X166964377Y-65603501D01*
X166747017Y-65386503D01*
X166726101Y-65365516D01*
X166663495Y-65301342D01*
X166609505Y-65243990D01*
X166567174Y-65196820D01*
X166539543Y-65163192D01*
X166529657Y-65146467D01*
X166537179Y-65128303D01*
X166558773Y-65090265D01*
X166591849Y-65036726D01*
X166633809Y-64971884D01*
X166682057Y-64899940D01*
X166729709Y-64829275D01*
X166771672Y-64765526D01*
X166804835Y-64713513D01*
X166826622Y-64677279D01*
X166834457Y-64660867D01*
X166834386Y-64659905D01*
X166826662Y-64638103D01*
X166808677Y-64599440D01*
X166783987Y-64551612D01*
X166783716Y-64551110D01*
X166751901Y-64487587D01*
X166736358Y-64444060D01*
X166736315Y-64417052D01*
X166751000Y-64403090D01*
X166765456Y-64397180D01*
X166804169Y-64381229D01*
X166863684Y-64356660D01*
X166940835Y-64324779D01*
X167032459Y-64286893D01*
X167135393Y-64244310D01*
X167246474Y-64198337D01*
X167347528Y-64156667D01*
X167451220Y-64114268D01*
X167543881Y-64076756D01*
X167622358Y-64045388D01*
X167683500Y-64021425D01*
X167724157Y-64006123D01*
X167741175Y-64000743D01*
X167756781Y-64011018D01*
X167782838Y-64039563D01*
X167813113Y-64079971D01*
X167892316Y-64176979D01*
X167993525Y-64263793D01*
X168104884Y-64327322D01*
X168223107Y-64367177D01*
X168344905Y-64382965D01*
X168466990Y-64374296D01*
X168586075Y-64340778D01*
X168698871Y-64282021D01*
X168802089Y-64197632D01*
X168842287Y-64153631D01*
X168913362Y-64048211D01*
X168959699Y-63935410D01*
X168982401Y-63818525D01*
X168982572Y-63700853D01*
X168961313Y-63585690D01*
X168919730Y-63476335D01*
X168858924Y-63376083D01*
X168779999Y-63288233D01*
X168684059Y-63216080D01*
X168572205Y-63162922D01*
X168445543Y-63132057D01*
X168384493Y-63126392D01*
X168252224Y-63134185D01*
X168126734Y-63169284D01*
X168010241Y-63230649D01*
X167904961Y-63317243D01*
X167813113Y-63428029D01*
X167784070Y-63466931D01*
X167757728Y-63496104D01*
X167741200Y-63507257D01*
X167726791Y-63502810D01*
X167688185Y-63488378D01*
X167628799Y-63465173D01*
X167551785Y-63434452D01*
X167460297Y-63397474D01*
X167357484Y-63355496D01*
X167246498Y-63309778D01*
X167145928Y-63268178D01*
X167042053Y-63225222D01*
X166949181Y-63186829D01*
X166870475Y-63154305D01*
X166809101Y-63128958D01*
X166768221Y-63112095D01*
X166751000Y-63105025D01*
X166750796Y-63104943D01*
X166736255Y-63090798D01*
X166736421Y-63063659D01*
X166752073Y-63020023D01*
X166783987Y-62956388D01*
X166786674Y-62951379D01*
X166810850Y-62904125D01*
X166827963Y-62866811D01*
X166834457Y-62847133D01*
X166826782Y-62831005D01*
X166805129Y-62794959D01*
X166772072Y-62743092D01*
X166730190Y-62679445D01*
X166682057Y-62608060D01*
X166634869Y-62537724D01*
X166592733Y-62472670D01*
X166559422Y-62418820D01*
X166537531Y-62380374D01*
X166529657Y-62361534D01*
X166530657Y-62358325D01*
X166546416Y-62335954D01*
X166578967Y-62297733D01*
X166625267Y-62247021D01*
X166682274Y-62187181D01*
X166746942Y-62121571D01*
X166964228Y-61904648D01*
X167212747Y-62073601D01*
X167461267Y-62242553D01*
X167572405Y-62191183D01*
X167572734Y-62191031D01*
X167643582Y-62160183D01*
X167722477Y-62128661D01*
X167792400Y-62103266D01*
X167803678Y-62099423D01*
X167856033Y-62080047D01*
X167896717Y-62062574D01*
X167917713Y-62050388D01*
X167920678Y-62045426D01*
X167930625Y-62015634D01*
X167943495Y-61965047D01*
X167957947Y-61899194D01*
X167972645Y-61823600D01*
X167976790Y-61800957D01*
X167991884Y-61719038D01*
X168006101Y-61642600D01*
X168018005Y-61579337D01*
X168026161Y-61536943D01*
X168041201Y-61460743D01*
X168358508Y-61460743D01*
X168397524Y-61460760D01*
G36*
X168397524Y-61460760D02*
G01*
X168492708Y-61461082D01*
X168563745Y-61462033D01*
X168614266Y-61463896D01*
X168647902Y-61466955D01*
X168668282Y-61471494D01*
X168679038Y-61477795D01*
X168683801Y-61486143D01*
X168685730Y-61494224D01*
X168692555Y-61527172D01*
X168702978Y-61579736D01*
X168715982Y-61646569D01*
X168730551Y-61722328D01*
X168745667Y-61801665D01*
X168760315Y-61879237D01*
X168773477Y-61949698D01*
X168784137Y-62007702D01*
X168791279Y-62047904D01*
X168793886Y-62064959D01*
X168795459Y-62066112D01*
X168815881Y-62075385D01*
X168854955Y-62091432D01*
X168906371Y-62111635D01*
X168975647Y-62139672D01*
X169055710Y-62174186D01*
X169126272Y-62206538D01*
X169142111Y-62213952D01*
X169191707Y-62234755D01*
X169229962Y-62247219D01*
X169249644Y-62248863D01*
X169251038Y-62248015D01*
X169271580Y-62234548D01*
X169311484Y-62207850D01*
X169366860Y-62170539D01*
X169433823Y-62125234D01*
X169508483Y-62074552D01*
X169593308Y-62017445D01*
X169659200Y-61974607D01*
X169707522Y-61945460D01*
X169741267Y-61928317D01*
X169763428Y-61921495D01*
X169776998Y-61923306D01*
X169778016Y-61923915D01*
X169797790Y-61940297D01*
X169833825Y-61973695D01*
X169882549Y-62020671D01*
X169940388Y-62077786D01*
X170003773Y-62141603D01*
X170068095Y-62207802D01*
X170128553Y-62272648D01*
X170169345Y-62320299D01*
X170191516Y-62351990D01*
X170196111Y-62368958D01*
X170195079Y-62371175D01*
X170181163Y-62394524D01*
X170153970Y-62436912D01*
X170116111Y-62494369D01*
X170070197Y-62562923D01*
X170018840Y-62638601D01*
X169850374Y-62885298D01*
X169900938Y-62996706D01*
X169902403Y-62999943D01*
X169932035Y-63068343D01*
X169961507Y-63140907D01*
X169984642Y-63202457D01*
X169984738Y-63202729D01*
X170002633Y-63251595D01*
X170017747Y-63289212D01*
X170026816Y-63307457D01*
X170027145Y-63307752D01*
X170045718Y-63313946D01*
X170087955Y-63324139D01*
X170149304Y-63337348D01*
X170225211Y-63352590D01*
X170311125Y-63368881D01*
X170314204Y-63369449D01*
X170401872Y-63385713D01*
X170481259Y-63400608D01*
X170547299Y-63413171D01*
X170594921Y-63422438D01*
X170619057Y-63427444D01*
X170620395Y-63427764D01*
X170630727Y-63431060D01*
X170638494Y-63437738D01*
X170644060Y-63451462D01*
X170647793Y-63475895D01*
X170650058Y-63514702D01*
X170651222Y-63571546D01*
X170651652Y-63650090D01*
X170651714Y-63754000D01*
X170651714Y-63767056D01*
X170651629Y-63867933D01*
X170651135Y-63943856D01*
X170649865Y-63998491D01*
X170647453Y-64035500D01*
X170643533Y-64058547D01*
X170637738Y-64071296D01*
X170629701Y-64077411D01*
X170619057Y-64080556D01*
X170618675Y-64080646D01*
X170593653Y-64085814D01*
X170545319Y-64095209D01*
X170478740Y-64107867D01*
X170398986Y-64122825D01*
X170311125Y-64139119D01*
X170303936Y-64140448D01*
X170218660Y-64156691D01*
X170143758Y-64171805D01*
X170083781Y-64184808D01*
X170043283Y-64194715D01*
X170026816Y-64200544D01*
X170026790Y-64200575D01*
X170017680Y-64218943D01*
X170002543Y-64256640D01*
X169984642Y-64305543D01*
X169983670Y-64308297D01*
X169960041Y-64370817D01*
X169930405Y-64443543D01*
X169900938Y-64511294D01*
X169850374Y-64622703D01*
X170018840Y-64869399D01*
X170030689Y-64886775D01*
X170081053Y-64961202D01*
X170125388Y-65027614D01*
X170161084Y-65082039D01*
X170185529Y-65120506D01*
X170196111Y-65139042D01*
X170193685Y-65151743D01*
X170174890Y-65180579D01*
X170137670Y-65225143D01*
X170080980Y-65286670D01*
X170003773Y-65366398D01*
X169996745Y-65373532D01*
X169933778Y-65436796D01*
X169876732Y-65492990D01*
X169829183Y-65538677D01*
X169794703Y-65570414D01*
X169776869Y-65584764D01*
X169776783Y-65584810D01*
X169763205Y-65586633D01*
X169741180Y-65579910D01*
X169707696Y-65562946D01*
X169659739Y-65534044D01*
X169594296Y-65491508D01*
X169508355Y-65433644D01*
X169493849Y-65423783D01*
X169420365Y-65373913D01*
X169355313Y-65329905D01*
X169302583Y-65294380D01*
X169266064Y-65269959D01*
X169249644Y-65259264D01*
X169246166Y-65258458D01*
X169220215Y-65263518D01*
X169177841Y-65278677D01*
X169126272Y-65301463D01*
X169058830Y-65332429D01*
X168978805Y-65367004D01*
X168906371Y-65396366D01*
X168887623Y-65403645D01*
X168839754Y-65422710D01*
X168806404Y-65436715D01*
X168793886Y-65443041D01*
X168792950Y-65450025D01*
X168787539Y-65481413D01*
X168778194Y-65532787D01*
X168765931Y-65598802D01*
X168751768Y-65674113D01*
X168736720Y-65753375D01*
X168721805Y-65831243D01*
X168708039Y-65902370D01*
X168696438Y-65961412D01*
X168688020Y-66003022D01*
X168683801Y-66021857D01*
X168682611Y-66024980D01*
X168676195Y-66032591D01*
X168662535Y-66038254D01*
X168638001Y-66042251D01*
X168598962Y-66044866D01*
X168541787Y-66046384D01*
X168462846Y-66047086D01*
X168358508Y-66047257D01*
X168041201Y-66047257D01*
X168026161Y-65971057D01*
X168024358Y-65961840D01*
X168015020Y-65912891D01*
X168002331Y-65845205D01*
X167987727Y-65766478D01*
X167972645Y-65684400D01*
X167966578Y-65652078D01*
X167951819Y-65579855D01*
X167937863Y-65519666D01*
X167926048Y-65477040D01*
X167917713Y-65457510D01*
X167904095Y-65448660D01*
X167868062Y-65432548D01*
X167821428Y-65416065D01*
X167803966Y-65410263D01*
X167746642Y-65388906D01*
X167678799Y-65361359D01*
X167611645Y-65332107D01*
X167576570Y-65316463D01*
X167524178Y-65294174D01*
X167484942Y-65278857D01*
X167465437Y-65273162D01*
X167463964Y-65273478D01*
X167443271Y-65284281D01*
X167403335Y-65308638D01*
X167348028Y-65344081D01*
X167281219Y-65388136D01*
X167206780Y-65438332D01*
X166964377Y-65603501D01*
X166747017Y-65386503D01*
X166726101Y-65365516D01*
X166663495Y-65301342D01*
X166609505Y-65243990D01*
X166567174Y-65196820D01*
X166539543Y-65163192D01*
X166529657Y-65146467D01*
X166537179Y-65128303D01*
X166558773Y-65090265D01*
X166591849Y-65036726D01*
X166633809Y-64971884D01*
X166682057Y-64899940D01*
X166729709Y-64829275D01*
X166771672Y-64765526D01*
X166804835Y-64713513D01*
X166826622Y-64677279D01*
X166834457Y-64660867D01*
X166834386Y-64659905D01*
X166826662Y-64638103D01*
X166808677Y-64599440D01*
X166783987Y-64551612D01*
X166783716Y-64551110D01*
X166751901Y-64487587D01*
X166736358Y-64444060D01*
X166736315Y-64417052D01*
X166751000Y-64403090D01*
X166765456Y-64397180D01*
X166804169Y-64381229D01*
X166863684Y-64356660D01*
X166940835Y-64324779D01*
X167032459Y-64286893D01*
X167135393Y-64244310D01*
X167246474Y-64198337D01*
X167347528Y-64156667D01*
X167451220Y-64114268D01*
X167543881Y-64076756D01*
X167622358Y-64045388D01*
X167683500Y-64021425D01*
X167724157Y-64006123D01*
X167741175Y-64000743D01*
X167756781Y-64011018D01*
X167782838Y-64039563D01*
X167813113Y-64079971D01*
X167892316Y-64176979D01*
X167993525Y-64263793D01*
X168104884Y-64327322D01*
X168223107Y-64367177D01*
X168344905Y-64382965D01*
X168466990Y-64374296D01*
X168586075Y-64340778D01*
X168698871Y-64282021D01*
X168802089Y-64197632D01*
X168842287Y-64153631D01*
X168913362Y-64048211D01*
X168959699Y-63935410D01*
X168982401Y-63818525D01*
X168982572Y-63700853D01*
X168961313Y-63585690D01*
X168919730Y-63476335D01*
X168858924Y-63376083D01*
X168779999Y-63288233D01*
X168684059Y-63216080D01*
X168572205Y-63162922D01*
X168445543Y-63132057D01*
X168384493Y-63126392D01*
X168252224Y-63134185D01*
X168126734Y-63169284D01*
X168010241Y-63230649D01*
X167904961Y-63317243D01*
X167813113Y-63428029D01*
X167784070Y-63466931D01*
X167757728Y-63496104D01*
X167741200Y-63507257D01*
X167726791Y-63502810D01*
X167688185Y-63488378D01*
X167628799Y-63465173D01*
X167551785Y-63434452D01*
X167460297Y-63397474D01*
X167357484Y-63355496D01*
X167246498Y-63309778D01*
X167145928Y-63268178D01*
X167042053Y-63225222D01*
X166949181Y-63186829D01*
X166870475Y-63154305D01*
X166809101Y-63128958D01*
X166768221Y-63112095D01*
X166751000Y-63105025D01*
X166750796Y-63104943D01*
X166736255Y-63090798D01*
X166736421Y-63063659D01*
X166752073Y-63020023D01*
X166783987Y-62956388D01*
X166786674Y-62951379D01*
X166810850Y-62904125D01*
X166827963Y-62866811D01*
X166834457Y-62847133D01*
X166826782Y-62831005D01*
X166805129Y-62794959D01*
X166772072Y-62743092D01*
X166730190Y-62679445D01*
X166682057Y-62608060D01*
X166634869Y-62537724D01*
X166592733Y-62472670D01*
X166559422Y-62418820D01*
X166537531Y-62380374D01*
X166529657Y-62361534D01*
X166530657Y-62358325D01*
X166546416Y-62335954D01*
X166578967Y-62297733D01*
X166625267Y-62247021D01*
X166682274Y-62187181D01*
X166746942Y-62121571D01*
X166964228Y-61904648D01*
X167212747Y-62073601D01*
X167461267Y-62242553D01*
X167572405Y-62191183D01*
X167572734Y-62191031D01*
X167643582Y-62160183D01*
X167722477Y-62128661D01*
X167792400Y-62103266D01*
X167803678Y-62099423D01*
X167856033Y-62080047D01*
X167896717Y-62062574D01*
X167917713Y-62050388D01*
X167920678Y-62045426D01*
X167930625Y-62015634D01*
X167943495Y-61965047D01*
X167957947Y-61899194D01*
X167972645Y-61823600D01*
X167976790Y-61800957D01*
X167991884Y-61719038D01*
X168006101Y-61642600D01*
X168018005Y-61579337D01*
X168026161Y-61536943D01*
X168041201Y-61460743D01*
X168358508Y-61460743D01*
X168397524Y-61460760D01*
G37*
X165644673Y-61475493D02*
X165728793Y-61477729D01*
X165791200Y-61483423D01*
X165836642Y-61493903D01*
X165869867Y-61510497D01*
X165895622Y-61534531D01*
X165918656Y-61567333D01*
X165937665Y-61609124D01*
X165949086Y-61686287D01*
X165947780Y-61721495D01*
X165939879Y-61752599D01*
X165920183Y-61781559D01*
X165883516Y-61818831D01*
X165857622Y-61842801D01*
X165824003Y-61867770D01*
X165792494Y-61879031D01*
X165752515Y-61881657D01*
X165687083Y-61881657D01*
X165710158Y-61837035D01*
X165738276Y-61801673D01*
X165776152Y-61777451D01*
X165786449Y-61773291D01*
X165826363Y-61741594D01*
X165846376Y-61697554D01*
X165844428Y-61649531D01*
X165818457Y-61605886D01*
X165797365Y-61587420D01*
X165770381Y-61576663D01*
X165746366Y-61588178D01*
X165722209Y-61623981D01*
X165694801Y-61686090D01*
X165691015Y-61695515D01*
X165666241Y-61752058D01*
X165641811Y-61800580D01*
X165622514Y-61831451D01*
X165588047Y-61862371D01*
X165533043Y-61882927D01*
X165474017Y-61880744D01*
X165418155Y-61856424D01*
X165372645Y-61810568D01*
X165353273Y-61773438D01*
X165339708Y-61701711D01*
X165341538Y-61661852D01*
X165351432Y-61624953D01*
X165372194Y-61610797D01*
X165406387Y-61616091D01*
X165410908Y-61617631D01*
X165434884Y-61629842D01*
X165443958Y-61650174D01*
X165443351Y-61688908D01*
X165442526Y-61716257D01*
X165449608Y-61748257D01*
X165470781Y-61770182D01*
X165496848Y-61782670D01*
X165524155Y-61784062D01*
X165524315Y-61783998D01*
X165539070Y-61767807D01*
X165560543Y-61733155D01*
X165584542Y-61688321D01*
X165606875Y-61641582D01*
X165623348Y-61601217D01*
X165629771Y-61575504D01*
X165623482Y-61571679D01*
X165593885Y-61566864D01*
X165545553Y-61563566D01*
X165484628Y-61562343D01*
X165442458Y-61562058D01*
X165389347Y-61560718D01*
X165352975Y-61558528D01*
X165339486Y-61555769D01*
X165344019Y-61541344D01*
X165356330Y-61512226D01*
X165373174Y-61475257D01*
X165589279Y-61475257D01*
X165644673Y-61475493D01*
G36*
X165644673Y-61475493D02*
G01*
X165728793Y-61477729D01*
X165791200Y-61483423D01*
X165836642Y-61493903D01*
X165869867Y-61510497D01*
X165895622Y-61534531D01*
X165918656Y-61567333D01*
X165937665Y-61609124D01*
X165949086Y-61686287D01*
X165947780Y-61721495D01*
X165939879Y-61752599D01*
X165920183Y-61781559D01*
X165883516Y-61818831D01*
X165857622Y-61842801D01*
X165824003Y-61867770D01*
X165792494Y-61879031D01*
X165752515Y-61881657D01*
X165687083Y-61881657D01*
X165710158Y-61837035D01*
X165738276Y-61801673D01*
X165776152Y-61777451D01*
X165786449Y-61773291D01*
X165826363Y-61741594D01*
X165846376Y-61697554D01*
X165844428Y-61649531D01*
X165818457Y-61605886D01*
X165797365Y-61587420D01*
X165770381Y-61576663D01*
X165746366Y-61588178D01*
X165722209Y-61623981D01*
X165694801Y-61686090D01*
X165691015Y-61695515D01*
X165666241Y-61752058D01*
X165641811Y-61800580D01*
X165622514Y-61831451D01*
X165588047Y-61862371D01*
X165533043Y-61882927D01*
X165474017Y-61880744D01*
X165418155Y-61856424D01*
X165372645Y-61810568D01*
X165353273Y-61773438D01*
X165339708Y-61701711D01*
X165341538Y-61661852D01*
X165351432Y-61624953D01*
X165372194Y-61610797D01*
X165406387Y-61616091D01*
X165410908Y-61617631D01*
X165434884Y-61629842D01*
X165443958Y-61650174D01*
X165443351Y-61688908D01*
X165442526Y-61716257D01*
X165449608Y-61748257D01*
X165470781Y-61770182D01*
X165496848Y-61782670D01*
X165524155Y-61784062D01*
X165524315Y-61783998D01*
X165539070Y-61767807D01*
X165560543Y-61733155D01*
X165584542Y-61688321D01*
X165606875Y-61641582D01*
X165623348Y-61601217D01*
X165629771Y-61575504D01*
X165623482Y-61571679D01*
X165593885Y-61566864D01*
X165545553Y-61563566D01*
X165484628Y-61562343D01*
X165442458Y-61562058D01*
X165389347Y-61560718D01*
X165352975Y-61558528D01*
X165339486Y-61555769D01*
X165344019Y-61541344D01*
X165356330Y-61512226D01*
X165373174Y-61475257D01*
X165589279Y-61475257D01*
X165644673Y-61475493D01*
G37*
X165631840Y-65451861D02*
X165644286Y-65460007D01*
X165643529Y-65467244D01*
X165629765Y-65501851D01*
X165604454Y-65541078D01*
X165575155Y-65574448D01*
X165549428Y-65591483D01*
X165514529Y-65609192D01*
X165482788Y-65645485D01*
X165470114Y-65687630D01*
X165473779Y-65703077D01*
X165492226Y-65733569D01*
X165517834Y-65760128D01*
X165541066Y-65771486D01*
X165541152Y-65771482D01*
X165550842Y-65759778D01*
X165709907Y-65759778D01*
X165719247Y-65769676D01*
X165751252Y-65771486D01*
X165791085Y-65763966D01*
X165827283Y-65737897D01*
X165846050Y-65700154D01*
X165844155Y-65658077D01*
X165818368Y-65619005D01*
X165800549Y-65603647D01*
X165786987Y-65600000D01*
X165774051Y-65614791D01*
X165754667Y-65651644D01*
X165754119Y-65652725D01*
X165733413Y-65696205D01*
X165716895Y-65735102D01*
X165709907Y-65759778D01*
X165550842Y-65759778D01*
X165551821Y-65758596D01*
X165571067Y-65724241D01*
X165596187Y-65673593D01*
X165624476Y-65611829D01*
X165624626Y-65611489D01*
X165654502Y-65544388D01*
X165676027Y-65499411D01*
X165692563Y-65472145D01*
X165707469Y-65458178D01*
X165724107Y-65453097D01*
X165745838Y-65452490D01*
X165797914Y-65457833D01*
X165868665Y-65484251D01*
X165924265Y-65528473D01*
X165962761Y-65585697D01*
X165982203Y-65651120D01*
X165980641Y-65719937D01*
X165956122Y-65787347D01*
X165906698Y-65848544D01*
X165857788Y-65882450D01*
X165787973Y-65906806D01*
X165751252Y-65910767D01*
X165699945Y-65916299D01*
X165589922Y-65911684D01*
X165566613Y-65909078D01*
X165483648Y-65889660D01*
X165420552Y-65854573D01*
X165372192Y-65801212D01*
X165370196Y-65798196D01*
X165341815Y-65730362D01*
X165339289Y-65659535D01*
X165360903Y-65591289D01*
X165404938Y-65531196D01*
X165469678Y-65484829D01*
X165471239Y-65484050D01*
X165511442Y-65468643D01*
X165557134Y-65457357D01*
X165600028Y-65451370D01*
X165631840Y-65451861D01*
G36*
X165631840Y-65451861D02*
G01*
X165644286Y-65460007D01*
X165643529Y-65467244D01*
X165629765Y-65501851D01*
X165604454Y-65541078D01*
X165575155Y-65574448D01*
X165549428Y-65591483D01*
X165514529Y-65609192D01*
X165482788Y-65645485D01*
X165470114Y-65687630D01*
X165473779Y-65703077D01*
X165492226Y-65733569D01*
X165517834Y-65760128D01*
X165541066Y-65771486D01*
X165541152Y-65771482D01*
X165550842Y-65759778D01*
X165709907Y-65759778D01*
X165719247Y-65769676D01*
X165751252Y-65771486D01*
X165791085Y-65763966D01*
X165827283Y-65737897D01*
X165846050Y-65700154D01*
X165844155Y-65658077D01*
X165818368Y-65619005D01*
X165800549Y-65603647D01*
X165786987Y-65600000D01*
X165774051Y-65614791D01*
X165754667Y-65651644D01*
X165754119Y-65652725D01*
X165733413Y-65696205D01*
X165716895Y-65735102D01*
X165709907Y-65759778D01*
X165550842Y-65759778D01*
X165551821Y-65758596D01*
X165571067Y-65724241D01*
X165596187Y-65673593D01*
X165624476Y-65611829D01*
X165624626Y-65611489D01*
X165654502Y-65544388D01*
X165676027Y-65499411D01*
X165692563Y-65472145D01*
X165707469Y-65458178D01*
X165724107Y-65453097D01*
X165745838Y-65452490D01*
X165797914Y-65457833D01*
X165868665Y-65484251D01*
X165924265Y-65528473D01*
X165962761Y-65585697D01*
X165982203Y-65651120D01*
X165980641Y-65719937D01*
X165956122Y-65787347D01*
X165906698Y-65848544D01*
X165857788Y-65882450D01*
X165787973Y-65906806D01*
X165751252Y-65910767D01*
X165699945Y-65916299D01*
X165589922Y-65911684D01*
X165566613Y-65909078D01*
X165483648Y-65889660D01*
X165420552Y-65854573D01*
X165372192Y-65801212D01*
X165370196Y-65798196D01*
X165341815Y-65730362D01*
X165339289Y-65659535D01*
X165360903Y-65591289D01*
X165404938Y-65531196D01*
X165469678Y-65484829D01*
X165471239Y-65484050D01*
X165511442Y-65468643D01*
X165557134Y-65457357D01*
X165600028Y-65451370D01*
X165631840Y-65451861D01*
G37*
X165846591Y-63083836D02*
X165876883Y-63104727D01*
X165919916Y-63158142D01*
X165944245Y-63224074D01*
X165947557Y-63294574D01*
X165927533Y-63361691D01*
X165924997Y-63366273D01*
X165895943Y-63403704D01*
X165858590Y-63437170D01*
X165850148Y-63443007D01*
X165830447Y-63454165D01*
X165807065Y-63462136D01*
X165774933Y-63467618D01*
X165728981Y-63471307D01*
X165664141Y-63473899D01*
X165575343Y-63476092D01*
X165560331Y-63476402D01*
X165463001Y-63477400D01*
X165394066Y-63475994D01*
X165353052Y-63472164D01*
X165339486Y-63465889D01*
X165343548Y-63446898D01*
X165355856Y-63414638D01*
X165359455Y-63407041D01*
X165367602Y-63395176D01*
X165380996Y-63386994D01*
X165404392Y-63381643D01*
X165442545Y-63378269D01*
X165500210Y-63376019D01*
X165582143Y-63374040D01*
X165606093Y-63373498D01*
X165681734Y-63371403D01*
X165734672Y-63368683D01*
X165769925Y-63364515D01*
X165792513Y-63358079D01*
X165807456Y-63348550D01*
X165819773Y-63335106D01*
X165841366Y-63295305D01*
X165845524Y-63246341D01*
X165829001Y-63202529D01*
X165794790Y-63171008D01*
X165745886Y-63158914D01*
X165732593Y-63158578D01*
X165708528Y-63151972D01*
X165704856Y-63132470D01*
X165719187Y-63094283D01*
X165723783Y-63085438D01*
X165750814Y-63061534D01*
X165791006Y-63061061D01*
X165846591Y-63083836D01*
G36*
X165846591Y-63083836D02*
G01*
X165876883Y-63104727D01*
X165919916Y-63158142D01*
X165944245Y-63224074D01*
X165947557Y-63294574D01*
X165927533Y-63361691D01*
X165924997Y-63366273D01*
X165895943Y-63403704D01*
X165858590Y-63437170D01*
X165850148Y-63443007D01*
X165830447Y-63454165D01*
X165807065Y-63462136D01*
X165774933Y-63467618D01*
X165728981Y-63471307D01*
X165664141Y-63473899D01*
X165575343Y-63476092D01*
X165560331Y-63476402D01*
X165463001Y-63477400D01*
X165394066Y-63475994D01*
X165353052Y-63472164D01*
X165339486Y-63465889D01*
X165343548Y-63446898D01*
X165355856Y-63414638D01*
X165359455Y-63407041D01*
X165367602Y-63395176D01*
X165380996Y-63386994D01*
X165404392Y-63381643D01*
X165442545Y-63378269D01*
X165500210Y-63376019D01*
X165582143Y-63374040D01*
X165606093Y-63373498D01*
X165681734Y-63371403D01*
X165734672Y-63368683D01*
X165769925Y-63364515D01*
X165792513Y-63358079D01*
X165807456Y-63348550D01*
X165819773Y-63335106D01*
X165841366Y-63295305D01*
X165845524Y-63246341D01*
X165829001Y-63202529D01*
X165794790Y-63171008D01*
X165745886Y-63158914D01*
X165732593Y-63158578D01*
X165708528Y-63151972D01*
X165704856Y-63132470D01*
X165719187Y-63094283D01*
X165723783Y-63085438D01*
X165750814Y-63061534D01*
X165791006Y-63061061D01*
X165846591Y-63083836D01*
G37*
X165737831Y-66004253D02*
X165789413Y-66006707D01*
X165825184Y-66012158D01*
X165851985Y-66021686D01*
X165876662Y-66036371D01*
X165895520Y-66049852D01*
X165946432Y-66098799D01*
X165974082Y-66154256D01*
X165982835Y-66223928D01*
X165974110Y-66303664D01*
X165942815Y-66372595D01*
X165887619Y-66427113D01*
X165881776Y-66431223D01*
X165866247Y-66440808D01*
X165848502Y-66448151D01*
X165824710Y-66453612D01*
X165791042Y-66457550D01*
X165743667Y-66460323D01*
X165678755Y-66462292D01*
X165665397Y-66462528D01*
X165592476Y-66463815D01*
X165481000Y-66465252D01*
X165448661Y-66465651D01*
X165340545Y-66466929D01*
X165257814Y-66467185D01*
X165197574Y-66465634D01*
X165156927Y-66461490D01*
X165132977Y-66453964D01*
X165122829Y-66442271D01*
X165123586Y-66425624D01*
X165132352Y-66403236D01*
X165146231Y-66374321D01*
X165149192Y-66368142D01*
X165163689Y-66342413D01*
X165180935Y-66328976D01*
X165209692Y-66323834D01*
X165258717Y-66322990D01*
X165346743Y-66322952D01*
X165346743Y-66232276D01*
X165347533Y-66214237D01*
X165474048Y-66214237D01*
X165476433Y-66248596D01*
X165505740Y-66287403D01*
X165515756Y-66296895D01*
X165536292Y-66310876D01*
X165563003Y-66318760D01*
X165603501Y-66322245D01*
X165665397Y-66323029D01*
X165702870Y-66322350D01*
X165771020Y-66314983D01*
X165815670Y-66298168D01*
X165840074Y-66270234D01*
X165847486Y-66229509D01*
X165845906Y-66212350D01*
X165830234Y-66182660D01*
X165795309Y-66163031D01*
X165738099Y-66152188D01*
X165655570Y-66148857D01*
X165642303Y-66148882D01*
X165582416Y-66150261D01*
X165543268Y-66154687D01*
X165517847Y-66163461D01*
X165499143Y-66177886D01*
X165498250Y-66178784D01*
X165474048Y-66214237D01*
X165347533Y-66214237D01*
X165349185Y-66176498D01*
X165359092Y-66132640D01*
X165379114Y-66096218D01*
X165381071Y-66093503D01*
X165414131Y-66056546D01*
X165454069Y-66030826D01*
X165506343Y-66014606D01*
X165576412Y-66006148D01*
X165669733Y-66003714D01*
X165737831Y-66004253D01*
G36*
X165737831Y-66004253D02*
G01*
X165789413Y-66006707D01*
X165825184Y-66012158D01*
X165851985Y-66021686D01*
X165876662Y-66036371D01*
X165895520Y-66049852D01*
X165946432Y-66098799D01*
X165974082Y-66154256D01*
X165982835Y-66223928D01*
X165974110Y-66303664D01*
X165942815Y-66372595D01*
X165887619Y-66427113D01*
X165881776Y-66431223D01*
X165866247Y-66440808D01*
X165848502Y-66448151D01*
X165824710Y-66453612D01*
X165791042Y-66457550D01*
X165743667Y-66460323D01*
X165678755Y-66462292D01*
X165665397Y-66462528D01*
X165592476Y-66463815D01*
X165481000Y-66465252D01*
X165448661Y-66465651D01*
X165340545Y-66466929D01*
X165257814Y-66467185D01*
X165197574Y-66465634D01*
X165156927Y-66461490D01*
X165132977Y-66453964D01*
X165122829Y-66442271D01*
X165123586Y-66425624D01*
X165132352Y-66403236D01*
X165146231Y-66374321D01*
X165149192Y-66368142D01*
X165163689Y-66342413D01*
X165180935Y-66328976D01*
X165209692Y-66323834D01*
X165258717Y-66322990D01*
X165346743Y-66322952D01*
X165346743Y-66232276D01*
X165347533Y-66214237D01*
X165474048Y-66214237D01*
X165476433Y-66248596D01*
X165505740Y-66287403D01*
X165515756Y-66296895D01*
X165536292Y-66310876D01*
X165563003Y-66318760D01*
X165603501Y-66322245D01*
X165665397Y-66323029D01*
X165702870Y-66322350D01*
X165771020Y-66314983D01*
X165815670Y-66298168D01*
X165840074Y-66270234D01*
X165847486Y-66229509D01*
X165845906Y-66212350D01*
X165830234Y-66182660D01*
X165795309Y-66163031D01*
X165738099Y-66152188D01*
X165655570Y-66148857D01*
X165642303Y-66148882D01*
X165582416Y-66150261D01*
X165543268Y-66154687D01*
X165517847Y-66163461D01*
X165499143Y-66177886D01*
X165498250Y-66178784D01*
X165474048Y-66214237D01*
X165347533Y-66214237D01*
X165349185Y-66176498D01*
X165359092Y-66132640D01*
X165379114Y-66096218D01*
X165381071Y-66093503D01*
X165414131Y-66056546D01*
X165454069Y-66030826D01*
X165506343Y-66014606D01*
X165576412Y-66006148D01*
X165669733Y-66003714D01*
X165737831Y-66004253D01*
G37*
%TO.C,G\u002A\u002A\u002A*%
G36*
X164934347Y-96378521D02*
G01*
X164934347Y-96516565D01*
X163845338Y-96516565D01*
X162756328Y-96516565D01*
X162756328Y-96378521D01*
X162756328Y-96240478D01*
X163845338Y-96240478D01*
X164934347Y-96240478D01*
X164934347Y-96378521D01*
G37*
G36*
X164934347Y-87173859D02*
G01*
X164934347Y-87927193D01*
X164796304Y-87927193D01*
X164658260Y-87927193D01*
X164658260Y-87620429D01*
X164658260Y-87313666D01*
X163705530Y-87313666D01*
X162752800Y-87313666D01*
X162762233Y-87183292D01*
X162771666Y-87052917D01*
X163713858Y-87044806D01*
X164656049Y-87036696D01*
X164664824Y-86738043D01*
X164673599Y-86439391D01*
X164803973Y-86429958D01*
X164934347Y-86420525D01*
X164934347Y-87173859D01*
G37*
G36*
X164075410Y-100657869D02*
G01*
X164075410Y-101087338D01*
X164382173Y-101087338D01*
X164688937Y-101087338D01*
X164688937Y-100657869D01*
X164688937Y-100228400D01*
X164811642Y-100228400D01*
X164934347Y-100228400D01*
X164934347Y-100795912D01*
X164934347Y-101363424D01*
X163843574Y-101363424D01*
X162752800Y-101363424D01*
X162762233Y-101233050D01*
X162771666Y-101102676D01*
X163300833Y-101094282D01*
X163830000Y-101085889D01*
X163830000Y-100657145D01*
X163830000Y-100228400D01*
X163952705Y-100228400D01*
X164075410Y-100228400D01*
X164075410Y-100657869D01*
G37*
G36*
X163961227Y-88117198D02*
G01*
X164090748Y-88126589D01*
X164099267Y-88564866D01*
X164107785Y-89003144D01*
X164390692Y-88994335D01*
X164673599Y-88985526D01*
X164682110Y-88548388D01*
X164690621Y-88111251D01*
X164812484Y-88111251D01*
X164934347Y-88111251D01*
X164934347Y-88694101D01*
X164934347Y-89276951D01*
X163865789Y-89276951D01*
X163653765Y-89276546D01*
X163419644Y-89275088D01*
X163211190Y-89272699D01*
X163035540Y-89269512D01*
X162899829Y-89265660D01*
X162811197Y-89261278D01*
X162776779Y-89256500D01*
X162770555Y-89223488D01*
X162764860Y-89138488D01*
X162760356Y-89011807D01*
X162757394Y-88853507D01*
X162756328Y-88673650D01*
X162756328Y-88111251D01*
X162894372Y-88111251D01*
X163032415Y-88111251D01*
X163032415Y-88556974D01*
X163032415Y-89002697D01*
X163423538Y-88994112D01*
X163814661Y-88985526D01*
X163823183Y-88546666D01*
X163831705Y-88107806D01*
X163961227Y-88117198D01*
G37*
G36*
X164934347Y-89889968D02*
G01*
X164934347Y-90012164D01*
X164136552Y-90020343D01*
X163338757Y-90028521D01*
X164167228Y-90788475D01*
X164171045Y-90791977D01*
X164359652Y-90965817D01*
X164533042Y-91127173D01*
X164686186Y-91271248D01*
X164814053Y-91393244D01*
X164911615Y-91488362D01*
X164973840Y-91551805D01*
X164995700Y-91578774D01*
X164994385Y-91580698D01*
X164951516Y-91588870D01*
X164849426Y-91595178D01*
X164689855Y-91599586D01*
X164474546Y-91602060D01*
X164205241Y-91602565D01*
X163883683Y-91601066D01*
X162771666Y-91593014D01*
X162762258Y-91463152D01*
X162752851Y-91333291D01*
X163546489Y-91325109D01*
X164340127Y-91316927D01*
X163517551Y-90554385D01*
X163513671Y-90550788D01*
X163326425Y-90376878D01*
X163154286Y-90216388D01*
X163002249Y-90074020D01*
X162875307Y-89954477D01*
X162778451Y-89862459D01*
X162716677Y-89802669D01*
X162694975Y-89779808D01*
X162694987Y-89779753D01*
X162725667Y-89777013D01*
X162810767Y-89774494D01*
X162943491Y-89772269D01*
X163117040Y-89770411D01*
X163324617Y-89768994D01*
X163559423Y-89768090D01*
X163814661Y-89767772D01*
X164934347Y-89767772D01*
X164934347Y-89889968D01*
G37*
G36*
X164928442Y-97137760D02*
G01*
X164919009Y-97268135D01*
X163995701Y-97283473D01*
X163986785Y-97283621D01*
X163710982Y-97288831D01*
X163490664Y-97294472D01*
X163320126Y-97300880D01*
X163193667Y-97308392D01*
X163105582Y-97317344D01*
X163050170Y-97328072D01*
X163021728Y-97340913D01*
X162993326Y-97377867D01*
X162973135Y-97466409D01*
X162986425Y-97568221D01*
X163032415Y-97659959D01*
X163034683Y-97662859D01*
X163076489Y-97723294D01*
X163093768Y-97761817D01*
X163075180Y-97801102D01*
X163025727Y-97857253D01*
X162967251Y-97906528D01*
X162921789Y-97927676D01*
X162918951Y-97927498D01*
X162872914Y-97898538D01*
X162816445Y-97832249D01*
X162762444Y-97746208D01*
X162723815Y-97657989D01*
X162720275Y-97645560D01*
X162708615Y-97538420D01*
X162715911Y-97409829D01*
X162739111Y-97287126D01*
X162775167Y-97197648D01*
X162778243Y-97193098D01*
X162839363Y-97127593D01*
X162919046Y-97067389D01*
X162919151Y-97067325D01*
X162950021Y-97050575D01*
X162986236Y-97037276D01*
X163034797Y-97027030D01*
X163102704Y-97019442D01*
X163196960Y-97014115D01*
X163324564Y-97010654D01*
X163492517Y-97008662D01*
X163707821Y-97007743D01*
X163977476Y-97007501D01*
X164937875Y-97007386D01*
X164928442Y-97137760D01*
G37*
G36*
X164934347Y-98308872D02*
G01*
X164934347Y-98444657D01*
X164129094Y-98454584D01*
X164110113Y-98454819D01*
X163868427Y-98458161D01*
X163679696Y-98461854D01*
X163536068Y-98466515D01*
X163429691Y-98472758D01*
X163352716Y-98481199D01*
X163297289Y-98492454D01*
X163255561Y-98507137D01*
X163219680Y-98525864D01*
X163166618Y-98559260D01*
X163077119Y-98635999D01*
X163021985Y-98727854D01*
X162994113Y-98849768D01*
X162986401Y-99016685D01*
X162988486Y-99112949D01*
X163006458Y-99255633D01*
X163048674Y-99359709D01*
X163122122Y-99439045D01*
X163233791Y-99507507D01*
X163270941Y-99524607D01*
X163317242Y-99539830D01*
X163376279Y-99551493D01*
X163456155Y-99560223D01*
X163564973Y-99566652D01*
X163710835Y-99571409D01*
X163901844Y-99575124D01*
X164146103Y-99578426D01*
X164937690Y-99587993D01*
X164928349Y-99716470D01*
X164919009Y-99844946D01*
X164106087Y-99844946D01*
X163854728Y-99844414D01*
X163634444Y-99841902D01*
X163460473Y-99836212D01*
X163324997Y-99826150D01*
X163220203Y-99810520D01*
X163138275Y-99788127D01*
X163071396Y-99757777D01*
X163011752Y-99718275D01*
X162951526Y-99668425D01*
X162874688Y-99591408D01*
X162782429Y-99447686D01*
X162725163Y-99267421D01*
X162715615Y-99207889D01*
X162708372Y-99050565D01*
X162718526Y-98878477D01*
X162743956Y-98716664D01*
X162782541Y-98590165D01*
X162797499Y-98560143D01*
X162867413Y-98455946D01*
X162950175Y-98366130D01*
X162980583Y-98340369D01*
X163049167Y-98291010D01*
X163124643Y-98252265D01*
X163214786Y-98222892D01*
X163327372Y-98201647D01*
X163470178Y-98187287D01*
X163650979Y-98178569D01*
X163877550Y-98174250D01*
X164157669Y-98173086D01*
X164934347Y-98173086D01*
X164934347Y-98308872D01*
G37*
G36*
X162051083Y-91278660D02*
G01*
X162066041Y-91347951D01*
X162075244Y-91447301D01*
X162084376Y-91639028D01*
X162374338Y-91639028D01*
X162431223Y-91639502D01*
X162554389Y-91644812D01*
X162635242Y-91655214D01*
X162664299Y-91669705D01*
X162659655Y-91675819D01*
X162609069Y-91688803D01*
X162510335Y-91697321D01*
X162372874Y-91700381D01*
X162081449Y-91700381D01*
X162081449Y-92223280D01*
X162081449Y-92746179D01*
X162285540Y-92737109D01*
X162489631Y-92728038D01*
X162531796Y-92605921D01*
X162540127Y-92583529D01*
X162628834Y-92434013D01*
X162757144Y-92314605D01*
X162909175Y-92240676D01*
X162972754Y-92221105D01*
X163025868Y-92192536D01*
X163048373Y-92144818D01*
X163057134Y-92057017D01*
X163062246Y-92006697D01*
X163079472Y-91944267D01*
X163100018Y-91937936D01*
X163117228Y-91985113D01*
X163124444Y-92083208D01*
X163124721Y-92117504D01*
X163132407Y-92185891D01*
X163159738Y-92219387D01*
X163218752Y-92237717D01*
X163300080Y-92270085D01*
X163409205Y-92345350D01*
X163506412Y-92441795D01*
X163569945Y-92540656D01*
X163607722Y-92630501D01*
X163661399Y-92517385D01*
X163709387Y-92435175D01*
X163826258Y-92321505D01*
X163987535Y-92247686D01*
X164059200Y-92221204D01*
X164097156Y-92184898D01*
X164106087Y-92124994D01*
X164115427Y-92065021D01*
X164152101Y-92037821D01*
X164184397Y-92056787D01*
X164198115Y-92129850D01*
X164208277Y-92196264D01*
X164245352Y-92221879D01*
X164327194Y-92241989D01*
X164428369Y-92293717D01*
X164525849Y-92363256D01*
X164597040Y-92436799D01*
X164597684Y-92437706D01*
X164653158Y-92535197D01*
X164693442Y-92638148D01*
X164723192Y-92745893D01*
X164959144Y-92736965D01*
X165195096Y-92728038D01*
X165204368Y-92566987D01*
X165210101Y-92504726D01*
X165224165Y-92433620D01*
X165241111Y-92405937D01*
X165252455Y-92418529D01*
X165267949Y-92476983D01*
X165277853Y-92566987D01*
X165287125Y-92728038D01*
X165417500Y-92737471D01*
X165430391Y-92738503D01*
X165517106Y-92753880D01*
X165543862Y-92775249D01*
X165510660Y-92796278D01*
X165417500Y-92810634D01*
X165287125Y-92820067D01*
X165278103Y-93042914D01*
X165275319Y-93155861D01*
X165280159Y-93228140D01*
X165295550Y-93266035D01*
X165324118Y-93283256D01*
X165390007Y-93305467D01*
X165528901Y-93367007D01*
X165628917Y-93441086D01*
X165706340Y-93538580D01*
X165736287Y-93590149D01*
X165777229Y-93680243D01*
X165793285Y-93746363D01*
X165794015Y-93767383D01*
X165804434Y-93795050D01*
X165837540Y-93809910D01*
X165906219Y-93815923D01*
X166023357Y-93817048D01*
X166111676Y-93818102D01*
X166197825Y-93824544D01*
X166241378Y-93838791D01*
X166253429Y-93863062D01*
X166248526Y-93880248D01*
X166216950Y-93897763D01*
X166146415Y-93906623D01*
X166025794Y-93909077D01*
X165798159Y-93909077D01*
X165777584Y-94002758D01*
X165775754Y-94010374D01*
X165724038Y-94116767D01*
X165632857Y-94223732D01*
X165519726Y-94314100D01*
X165402161Y-94370705D01*
X165271787Y-94409609D01*
X165271787Y-94634826D01*
X165271787Y-94860043D01*
X165409830Y-94860043D01*
X165468380Y-94861914D01*
X165529808Y-94875729D01*
X165547874Y-94906057D01*
X165542261Y-94925574D01*
X165500817Y-94946050D01*
X165409830Y-94952072D01*
X165271787Y-94952072D01*
X165271787Y-95166806D01*
X165271787Y-95167015D01*
X165267720Y-95277122D01*
X165256847Y-95353167D01*
X165241111Y-95381540D01*
X165241081Y-95381540D01*
X165225351Y-95353075D01*
X165214488Y-95276960D01*
X165210434Y-95166806D01*
X165210434Y-94952072D01*
X164966206Y-94952072D01*
X164721978Y-94952072D01*
X164689312Y-95073382D01*
X164669763Y-95131034D01*
X164595373Y-95261708D01*
X164493322Y-95370882D01*
X164377299Y-95445766D01*
X164260992Y-95473569D01*
X164243688Y-95474491D01*
X164218936Y-95486612D01*
X164205230Y-95522793D01*
X164199359Y-95595460D01*
X164198115Y-95717036D01*
X164198115Y-95960503D01*
X164297814Y-95970116D01*
X164362666Y-95982557D01*
X164394050Y-96007470D01*
X164368222Y-96035251D01*
X164286205Y-96058133D01*
X164253798Y-96062205D01*
X164154489Y-96066552D01*
X164039420Y-96063943D01*
X163924013Y-96055700D01*
X163823691Y-96043147D01*
X163753876Y-96027608D01*
X163729990Y-96010405D01*
X163753283Y-95995571D01*
X163823031Y-95980107D01*
X163921717Y-95970596D01*
X164106087Y-95961463D01*
X164106087Y-95717516D01*
X164105844Y-95649798D01*
X164102700Y-95554077D01*
X164093347Y-95501074D01*
X164074583Y-95478377D01*
X164043210Y-95473569D01*
X163995677Y-95468544D01*
X163877824Y-95419604D01*
X163765950Y-95328904D01*
X163673742Y-95209233D01*
X163614890Y-95073382D01*
X163582224Y-94952072D01*
X163353334Y-94952072D01*
X163124444Y-94952072D01*
X163124444Y-95072967D01*
X163123884Y-95096306D01*
X163113376Y-95172599D01*
X163093768Y-95212821D01*
X163085090Y-95213890D01*
X163068969Y-95177789D01*
X163065672Y-95130274D01*
X163063091Y-95093077D01*
X163063091Y-94954374D01*
X162786835Y-94945554D01*
X162732542Y-94943282D01*
X162617246Y-94934049D01*
X162539249Y-94921067D01*
X162510578Y-94906057D01*
X162515430Y-94899874D01*
X162565429Y-94885475D01*
X162659906Y-94873797D01*
X162786835Y-94866561D01*
X163063091Y-94857741D01*
X163063091Y-94383409D01*
X163063091Y-93909077D01*
X163124444Y-93909077D01*
X163124444Y-94384560D01*
X163124444Y-94860043D01*
X163369855Y-94860043D01*
X163400329Y-94859987D01*
X163512334Y-94857528D01*
X163577523Y-94849517D01*
X163607877Y-94833334D01*
X163615380Y-94806359D01*
X163616483Y-94791103D01*
X163645139Y-94707572D01*
X163702642Y-94613074D01*
X163775605Y-94524391D01*
X163850640Y-94458304D01*
X163914359Y-94431595D01*
X163922757Y-94431110D01*
X163950878Y-94413992D01*
X163937640Y-94394128D01*
X164350257Y-94394128D01*
X164462209Y-94463317D01*
X164561509Y-94551248D01*
X164649135Y-94696275D01*
X164724111Y-94860043D01*
X164967272Y-94860043D01*
X165210434Y-94860043D01*
X165210434Y-94634826D01*
X165210434Y-94409609D01*
X165091883Y-94374090D01*
X164989615Y-94333914D01*
X164848006Y-94231469D01*
X164751849Y-94088988D01*
X164699764Y-93972651D01*
X164688937Y-93997191D01*
X164645199Y-94096326D01*
X164631010Y-94124374D01*
X164558829Y-94224107D01*
X164470445Y-94307064D01*
X164350257Y-94394128D01*
X163937640Y-94394128D01*
X163924689Y-94374694D01*
X163845679Y-94315728D01*
X163766094Y-94244712D01*
X163691681Y-94146438D01*
X163636714Y-94042989D01*
X163615265Y-93956313D01*
X163606667Y-93934054D01*
X163570381Y-93918745D01*
X163495165Y-93911136D01*
X163369855Y-93909077D01*
X163124444Y-93909077D01*
X163063091Y-93909077D01*
X162574214Y-93909077D01*
X162085336Y-93909077D01*
X162075723Y-94008775D01*
X162074926Y-94016173D01*
X162058921Y-94081603D01*
X162035434Y-94108473D01*
X162033132Y-94108199D01*
X162009961Y-94076685D01*
X161995145Y-94008775D01*
X161986487Y-93953829D01*
X161958716Y-93917108D01*
X161895447Y-93909077D01*
X161832705Y-93899650D01*
X161805362Y-93863062D01*
X161824328Y-93830767D01*
X161897391Y-93817048D01*
X161989420Y-93817048D01*
X161989420Y-93310888D01*
X161989420Y-92804729D01*
X161728671Y-92804729D01*
X161695065Y-92804520D01*
X161632696Y-92801926D01*
X162081449Y-92801926D01*
X162081449Y-93309487D01*
X162081449Y-93817048D01*
X162573560Y-93817048D01*
X163065672Y-93817048D01*
X163124444Y-93817048D01*
X163369855Y-93817048D01*
X163384003Y-93817035D01*
X163502772Y-93814864D01*
X163573087Y-93807269D01*
X163606675Y-93791813D01*
X163615265Y-93766059D01*
X163617097Y-93746056D01*
X163650060Y-93656979D01*
X163713398Y-93556460D01*
X163792753Y-93464721D01*
X163873767Y-93401982D01*
X163898077Y-93388392D01*
X163958989Y-93348638D01*
X163983381Y-93322972D01*
X164320821Y-93322972D01*
X164323638Y-93328976D01*
X164361982Y-93360689D01*
X164430889Y-93402227D01*
X164448767Y-93412828D01*
X164537213Y-93487467D01*
X164607278Y-93577686D01*
X164625905Y-93609254D01*
X164665903Y-93669365D01*
X164688937Y-93692674D01*
X164696392Y-93686502D01*
X164726197Y-93640883D01*
X164766058Y-93565672D01*
X164772959Y-93552470D01*
X164863066Y-93442766D01*
X164996740Y-93348709D01*
X165158104Y-93281797D01*
X165185838Y-93266365D01*
X165201676Y-93230296D01*
X165206895Y-93160353D01*
X165204118Y-93042914D01*
X165195096Y-92820067D01*
X164959144Y-92811140D01*
X164723192Y-92802213D01*
X164692536Y-92913238D01*
X164682418Y-92945495D01*
X164615037Y-93079946D01*
X164520584Y-93192739D01*
X164414717Y-93264100D01*
X164407546Y-93267129D01*
X164346061Y-93298924D01*
X164320821Y-93322972D01*
X163983381Y-93322972D01*
X163983108Y-93321333D01*
X163953373Y-93295934D01*
X163889485Y-93264100D01*
X163875660Y-93257775D01*
X163780616Y-93187897D01*
X163692885Y-93085429D01*
X163632847Y-92973449D01*
X163616840Y-92939030D01*
X163599349Y-92945847D01*
X163571424Y-93004695D01*
X163524061Y-93083706D01*
X163431462Y-93183446D01*
X163322523Y-93265220D01*
X163218752Y-93310388D01*
X163124444Y-93331101D01*
X163124444Y-93574074D01*
X163124444Y-93817048D01*
X163065672Y-93817048D01*
X163056713Y-93582428D01*
X163047753Y-93347808D01*
X162909175Y-93307493D01*
X162887201Y-93300495D01*
X162737490Y-93219245D01*
X162613721Y-93094678D01*
X162531796Y-92942185D01*
X162489631Y-92820067D01*
X162285540Y-92810996D01*
X162081449Y-92801926D01*
X161632696Y-92801926D01*
X161576074Y-92799571D01*
X161496760Y-92788992D01*
X161467922Y-92774053D01*
X161469697Y-92770099D01*
X161511763Y-92756100D01*
X161601687Y-92746769D01*
X161728671Y-92743376D01*
X161989420Y-92743376D01*
X161989420Y-92221879D01*
X161989420Y-91700381D01*
X161759347Y-91700381D01*
X161748558Y-91700352D01*
X161635100Y-91695935D01*
X161557823Y-91685162D01*
X161529275Y-91669705D01*
X161529452Y-91668396D01*
X161562141Y-91653212D01*
X161642500Y-91642857D01*
X161757884Y-91639028D01*
X161986492Y-91639028D01*
X161995625Y-91447301D01*
X162003650Y-91356369D01*
X162018208Y-91283511D01*
X162035434Y-91255574D01*
X162051083Y-91278660D01*
G37*
%TD*%
M02*
