G04 DipTrace 3.3.1.3*
G04 TopMask.gbr*
%MOIN*%
G04 #@! TF.FileFunction,Soldermask,Top*
G04 #@! TF.Part,Single*
%ADD19C,0.024999*%
%ADD21R,0.027559X0.035433*%
%ADD38C,0.074803*%
%ADD65C,0.23622*%
%ADD66C,0.025591*%
%ADD104C,0.055118*%
%ADD106O,0.086614X0.106299*%
%ADD108C,0.082677*%
%ADD109C,0.070866*%
%ADD116C,0.11811*%
%ADD118O,0.090551X0.043307*%
%ADD120O,0.07874X0.043307*%
%FSLAX26Y26*%
G04*
G70*
G90*
G75*
G01*
G04 TopMask*
%LPD*%
D21*
X631203Y2699953D3*
Y2751134D3*
X1037454Y2699954D3*
Y2751135D3*
X2356203Y2699953D3*
Y2751134D3*
D65*
X2331203Y2456203D3*
X606203D3*
X2227759Y609747D3*
X709648D3*
D38*
X1048231Y564913D3*
X1118310Y684992D3*
X1188388Y564913D3*
X1258467Y684992D3*
X1328546Y564913D3*
X1398625Y684992D3*
X1468703Y564913D3*
X1538782Y684992D3*
X1608861Y564913D3*
X1678940Y684992D3*
X1749018Y564913D3*
X1819097Y684992D3*
X1889176Y564913D3*
D120*
X448116Y1854225D3*
Y2194382D3*
D118*
X612683Y1854225D3*
Y2194382D3*
D66*
X592998Y1910524D3*
Y2138083D3*
D116*
X1889176Y996164D3*
X1819097Y1116243D3*
X1749018Y996164D3*
X1678940Y1116243D3*
X1608861Y996164D3*
X1538782Y1116243D3*
X1468703Y996164D3*
X1398625Y1116243D3*
X1328546Y996164D3*
X1258467Y1116243D3*
X1188388Y996164D3*
X1118310Y1116243D3*
X1048231Y996164D3*
D109*
X924953Y2862453D3*
X1102118D3*
D108*
X875740Y2764028D3*
X1151331D3*
D109*
X2243703Y2863011D3*
X2420869D3*
D108*
X2194491Y2764585D3*
X2470081D3*
D109*
X518703Y2862463D3*
X695869D3*
D108*
X469491Y2764038D3*
X745081D3*
D106*
X489256Y1749877D3*
D104*
Y1649867D3*
Y1568627D3*
Y1487377D3*
D106*
Y1387367D3*
D19*
X2037453Y2549953D3*
M02*
