G04 DipTrace 3.3.1.3*
G04 BottomSilk.gbr*
%MOMM*%
G04 #@! TF.FileFunction,Legend,Bot*
G04 #@! TF.Part,Single*
%ADD30C,0.15686*%
%FSLAX35Y35*%
G04*
G71*
G90*
G75*
G01*
G04 BotSilk*
%LPD*%
X1790416Y2949375D2*
D30*
X1795245Y2959033D1*
X1805016Y2968804D1*
X1814674Y2973633D1*
X1834103D1*
X1843874Y2968804D1*
X1853533Y2959033D1*
X1858474Y2949375D1*
X1863303Y2934775D1*
Y2910404D1*
X1858474Y2895916D1*
X1853533Y2886145D1*
X1843874Y2876487D1*
X1834103Y2871545D1*
X1814674D1*
X1805016Y2876487D1*
X1795245Y2886145D1*
X1790416Y2895916D1*
X1729843Y2973633D2*
X1739614Y2968804D1*
X1749272Y2959033D1*
X1754214Y2949375D1*
X1759043Y2934775D1*
Y2910404D1*
X1754214Y2895916D1*
X1749272Y2886145D1*
X1739614Y2876487D1*
X1729843Y2871545D1*
X1710414D1*
X1700755Y2876487D1*
X1690985Y2886145D1*
X1686155Y2895916D1*
X1681326Y2910404D1*
Y2934775D1*
X1686155Y2949375D1*
X1690985Y2959033D1*
X1700755Y2968804D1*
X1710414Y2973633D1*
X1729843D1*
X1572237Y2871545D2*
Y2973633D1*
X1611095Y2871545D1*
X1649954Y2973633D1*
Y2871545D1*
X1540864Y2973633D2*
Y2871545D1*
X1482576D1*
X1451204Y2973633D2*
X1412345Y2925004D1*
Y2871545D1*
X1373487Y2973633D2*
X1412345Y2925004D1*
X1274056Y2973633D2*
Y2871545D1*
X1342114Y2973633D1*
Y2871545D1*
X1242683Y2973633D2*
X1174625Y2871545D1*
Y2973633D2*
X1242683Y2871545D1*
X1972795Y3489012D2*
Y3493842D1*
X1967966Y3503612D1*
X1963137Y3508442D1*
X1953366Y3513271D1*
X1933937D1*
X1924278Y3508442D1*
X1919449Y3503612D1*
X1914507Y3493842D1*
Y3484183D1*
X1919449Y3474412D1*
X1929107Y3459925D1*
X1977737Y3411295D1*
X1909678D1*
X1873476Y3421066D2*
X1878306Y3416125D1*
X1873476Y3411295D1*
X1868535Y3416125D1*
X1873476Y3421066D1*
X1778875Y3513271D2*
X1827391D1*
X1832221Y3469583D1*
X1827391Y3474412D1*
X1812791Y3479354D1*
X1798304D1*
X1783704Y3474412D1*
X1773933Y3464754D1*
X1769104Y3450154D1*
Y3440495D1*
X1773933Y3425895D1*
X1783704Y3416125D1*
X1798304Y3411295D1*
X1812791D1*
X1827391Y3416125D1*
X1832221Y3421066D1*
X1837162Y3430725D1*
X1737731Y3479354D2*
Y3411295D1*
Y3459925D2*
X1723131Y3474525D1*
X1713360Y3479354D1*
X1698873D1*
X1689102Y3474525D1*
X1684273Y3459925D1*
Y3411295D1*
Y3459925D2*
X1669673Y3474525D1*
X1659902Y3479354D1*
X1645414D1*
X1635644Y3474525D1*
X1630702Y3459925D1*
Y3411295D1*
X1599329Y3479354D2*
Y3411295D1*
Y3459925D2*
X1584729Y3474525D1*
X1574959Y3479354D1*
X1560471D1*
X1550700Y3474525D1*
X1545871Y3459925D1*
Y3411295D1*
Y3459925D2*
X1531271Y3474525D1*
X1521500Y3479354D1*
X1507013D1*
X1497242Y3474525D1*
X1492300Y3459925D1*
Y3411295D1*
X1328141Y3513383D2*
Y3411295D1*
X1362170Y3513383D2*
X1294112D1*
X1262739Y3464754D2*
X1219052D1*
X1204452Y3469695D1*
X1199510Y3474525D1*
X1194681Y3484183D1*
Y3493954D1*
X1199510Y3503612D1*
X1204452Y3508554D1*
X1219052Y3513383D1*
X1262739D1*
Y3411295D1*
X1228710Y3464754D2*
X1194681Y3411295D1*
X1095250Y3498783D2*
X1104908Y3508554D1*
X1119508Y3513383D1*
X1138938D1*
X1153538Y3508554D1*
X1163308Y3498783D1*
Y3489125D1*
X1158367Y3479354D1*
X1153538Y3474525D1*
X1143879Y3469695D1*
X1114679Y3459925D1*
X1104908Y3455095D1*
X1100079Y3450154D1*
X1095250Y3440495D1*
Y3425895D1*
X1104908Y3416237D1*
X1119508Y3411295D1*
X1138938D1*
X1153538Y3416237D1*
X1163308Y3425895D1*
X1873707Y2520637D2*
X1888307D1*
X1897965Y2515808D1*
X1902907Y2510979D1*
X1907736Y2501208D1*
Y2481779D1*
X1902907Y2476950D1*
X1893136D1*
X1873707Y2481779D1*
X1868877Y2472120D1*
X1864048D1*
X1854277Y2481779D1*
X1849448Y2506037D1*
X1854277Y2520637D1*
X1859107Y2530408D1*
X1868877Y2540067D1*
X1878536Y2544896D1*
X1897965D1*
X1907736Y2540067D1*
X1917394Y2530408D1*
X1922336Y2520637D1*
X1927165Y2506037D1*
Y2481779D1*
X1922336Y2467179D1*
X1917394Y2457520D1*
X1907736Y2447750D1*
X1897965Y2442920D1*
X1878536D1*
X1868877Y2447750D1*
X1859107Y2457520D1*
X1873707Y2525467D2*
Y2481779D1*
X1818076Y2510979D2*
Y2442920D1*
Y2491550D2*
X1803476Y2506150D1*
X1793705Y2510979D1*
X1779217D1*
X1769446Y2506150D1*
X1764617Y2491550D1*
Y2442920D1*
Y2491550D2*
X1750017Y2506150D1*
X1740246Y2510979D1*
X1725759D1*
X1715988Y2506150D1*
X1711046Y2491550D1*
Y2442920D1*
X1655415Y2510979D2*
X1665074Y2506150D1*
X1674845Y2496379D1*
X1679674Y2481779D1*
Y2472120D1*
X1674845Y2457520D1*
X1665074Y2447862D1*
X1655415Y2442920D1*
X1640815D1*
X1631045Y2447862D1*
X1621386Y2457520D1*
X1616445Y2472120D1*
Y2481779D1*
X1621386Y2496379D1*
X1631045Y2506150D1*
X1640815Y2510979D1*
X1655415D1*
X1585072D2*
X1531614D1*
X1585072Y2442920D1*
X1531614D1*
X1500241Y2510979D2*
X1446783D1*
X1500241Y2442920D1*
X1446783D1*
X1415410Y2510979D2*
X1395981Y2442920D1*
X1376551Y2510979D1*
X1357122Y2442920D1*
X1337693Y2510979D1*
X1248033D2*
Y2442920D1*
Y2496379D2*
X1257691Y2506150D1*
X1267462Y2510979D1*
X1281950D1*
X1291720Y2506150D1*
X1301379Y2496379D1*
X1306320Y2481779D1*
Y2472120D1*
X1301379Y2457520D1*
X1291720Y2447862D1*
X1281950Y2442920D1*
X1267462D1*
X1257691Y2447862D1*
X1248033Y2457520D1*
X1216660Y2545008D2*
Y2442920D1*
X1127000Y2545008D2*
Y2442920D1*
Y2496379D2*
X1136658Y2506150D1*
X1146429Y2510979D1*
X1161029D1*
X1170688Y2506150D1*
X1180458Y2496379D1*
X1185288Y2481779D1*
Y2472120D1*
X1180458Y2457520D1*
X1170688Y2447862D1*
X1161029Y2442920D1*
X1146429D1*
X1136658Y2447862D1*
X1127000Y2457520D1*
X1883139Y2767258D2*
Y2665170D1*
Y2718629D2*
X1873369Y2728400D1*
X1863710Y2733229D1*
X1849110D1*
X1839452Y2728400D1*
X1829681Y2718629D1*
X1824852Y2704029D1*
Y2694370D1*
X1829681Y2679770D1*
X1839452Y2670112D1*
X1849110Y2665170D1*
X1863710D1*
X1873369Y2670112D1*
X1883139Y2679770D1*
X1788538Y2733229D2*
X1759450Y2665170D1*
X1769108Y2645741D1*
X1778879Y2635970D1*
X1788538Y2631141D1*
X1793479D1*
X1730250Y2733229D2*
X1759450Y2665170D1*
X1224861Y1541800D2*
Y1590317D1*
X1268549Y1595146D1*
X1263719Y1590317D1*
X1258778Y1575717D1*
Y1561229D1*
X1263719Y1546629D1*
X1273378Y1536859D1*
X1287978Y1532029D1*
X1297636D1*
X1312236Y1536859D1*
X1322007Y1546629D1*
X1326836Y1561229D1*
Y1575717D1*
X1322007Y1590317D1*
X1317065Y1595146D1*
X1307407Y1600088D1*
X1224749Y1500657D2*
X1326836Y1461798D1*
X1224748Y1422940D1*
X1499950Y1580962D2*
X1490292Y1585791D1*
X1480521Y1595562D1*
X1475692Y1605220D1*
Y1624650D1*
X1480521Y1634420D1*
X1490292Y1644079D1*
X1499950Y1649020D1*
X1514550Y1653850D1*
X1538921D1*
X1553409Y1649020D1*
X1563179Y1644079D1*
X1572838Y1634420D1*
X1577779Y1624650D1*
Y1605220D1*
X1572838Y1595562D1*
X1563180Y1585791D1*
X1553409Y1580962D1*
X1538921D1*
Y1605220D1*
X1475692Y1481531D2*
X1577780D1*
X1475692Y1549589D1*
X1577779D1*
X1475692Y1450159D2*
X1577780Y1450158D1*
Y1416129D1*
X1572838Y1401529D1*
X1563179Y1391759D1*
X1553409Y1386929D1*
X1538921Y1382100D1*
X1514550D1*
X1499950Y1386929D1*
X1490292Y1391759D1*
X1480521Y1401529D1*
X1475692Y1416129D1*
Y1450159D1*
X1724439Y1664141D2*
X1826526D1*
Y1630112D1*
X1821585Y1615512D1*
X1811926Y1605741D1*
X1802155Y1600912D1*
X1787668Y1596083D1*
X1763297D1*
X1748697Y1600912D1*
X1739039Y1605741D1*
X1729268Y1615512D1*
X1724439Y1630112D1*
Y1664141D1*
X1826526Y1486881D2*
X1724439Y1525852D1*
X1826526Y1564710D1*
X1792497Y1550110D2*
Y1501481D1*
X1724438Y1421479D2*
X1826526D1*
X1724439Y1455509D2*
X1724438Y1387450D1*
X1476672Y2061803D2*
X1466901Y2071462D1*
X1462072Y2086062D1*
Y2105491D1*
X1466901Y2120091D1*
X1476672Y2129862D1*
X1486330D1*
X1496101Y2124920D1*
X1500930Y2120091D1*
X1505760Y2110433D1*
X1515530Y2081233D1*
X1520359Y2071462D1*
X1525301Y2066633D1*
X1534959Y2061803D1*
X1549559D1*
X1559218Y2071462D1*
X1564160Y2086062D1*
Y2105491D1*
X1559218Y2120091D1*
X1549560Y2129862D1*
X1204442Y2096629D2*
X1306530D1*
X1204442Y2130659D2*
Y2062600D1*
X1767854Y2128172D2*
Y2084484D1*
X1762913Y2069884D1*
X1758084Y2064943D1*
X1748425Y2060113D1*
X1738654D1*
X1728996Y2064943D1*
X1724054Y2069884D1*
X1719225Y2084484D1*
Y2128172D1*
X1821313D1*
X1767854Y2094143D2*
X1821313Y2060113D1*
X1593572Y3164133D2*
X1603230D1*
X1613001Y3159304D1*
X1617830Y3144704D1*
Y3062046D1*
X1632430Y3130104D2*
X1598401D1*
X1537941D2*
X1547599Y3125275D1*
X1557370Y3115504D1*
X1562199Y3100904D1*
Y3091246D1*
X1557370Y3076646D1*
X1547599Y3066987D1*
X1537941Y3062046D1*
X1523341D1*
X1513570Y3066987D1*
X1503911Y3076646D1*
X1498970Y3091246D1*
Y3100904D1*
X1503911Y3115504D1*
X1513570Y3125275D1*
X1523341Y3130104D1*
X1537941D1*
X1467597D2*
Y3062046D1*
Y3100904D2*
X1462656Y3115504D1*
X1452997Y3125275D1*
X1443226Y3130104D1*
X1428626D1*
M02*
