%TF.GenerationSoftware,KiCad,Pcbnew,7.0.9*%
%TF.CreationDate,2024-01-11T23:07:38-06:00*%
%TF.ProjectId,CoCo-FujiNet-Rev0,436f436f-2d46-4756-9a69-4e65742d5265,rev?*%
%TF.SameCoordinates,Original*%
%TF.FileFunction,Copper,L1,Top*%
%TF.FilePolarity,Positive*%
%FSLAX46Y46*%
G04 Gerber Fmt 4.6, Leading zero omitted, Abs format (unit mm)*
G04 Created by KiCad (PCBNEW 7.0.9) date 2024-01-11 23:07:38*
%MOMM*%
%LPD*%
G01*
G04 APERTURE LIST*
G04 Aperture macros list*
%AMRoundRect*
0 Rectangle with rounded corners*
0 $1 Rounding radius*
0 $2 $3 $4 $5 $6 $7 $8 $9 X,Y pos of 4 corners*
0 Add a 4 corners polygon primitive as box body*
4,1,4,$2,$3,$4,$5,$6,$7,$8,$9,$2,$3,0*
0 Add four circle primitives for the rounded corners*
1,1,$1+$1,$2,$3*
1,1,$1+$1,$4,$5*
1,1,$1+$1,$6,$7*
1,1,$1+$1,$8,$9*
0 Add four rect primitives between the rounded corners*
20,1,$1+$1,$2,$3,$4,$5,0*
20,1,$1+$1,$4,$5,$6,$7,0*
20,1,$1+$1,$6,$7,$8,$9,0*
20,1,$1+$1,$8,$9,$2,$3,0*%
%AMFreePoly0*
4,1,19,0.500000,-0.750000,0.000000,-0.750000,0.000000,-0.744911,-0.071157,-0.744911,-0.207708,-0.704816,-0.327430,-0.627875,-0.420627,-0.520320,-0.479746,-0.390866,-0.500000,-0.250000,-0.500000,0.250000,-0.479746,0.390866,-0.420627,0.520320,-0.327430,0.627875,-0.207708,0.704816,-0.071157,0.744911,0.000000,0.744911,0.000000,0.750000,0.500000,0.750000,0.500000,-0.750000,0.500000,-0.750000,
$1*%
%AMFreePoly1*
4,1,19,0.000000,0.744911,0.071157,0.744911,0.207708,0.704816,0.327430,0.627875,0.420627,0.520320,0.479746,0.390866,0.500000,0.250000,0.500000,-0.250000,0.479746,-0.390866,0.420627,-0.520320,0.327430,-0.627875,0.207708,-0.704816,0.071157,-0.744911,0.000000,-0.744911,0.000000,-0.750000,-0.500000,-0.750000,-0.500000,0.750000,0.000000,0.750000,0.000000,0.744911,0.000000,0.744911,
$1*%
G04 Aperture macros list end*
%TA.AperFunction,SMDPad,CuDef*%
%ADD10FreePoly0,90.000000*%
%TD*%
%TA.AperFunction,SMDPad,CuDef*%
%ADD11FreePoly1,90.000000*%
%TD*%
%TA.AperFunction,ComponentPad*%
%ADD12R,1.560000X1.560000*%
%TD*%
%TA.AperFunction,ComponentPad*%
%ADD13C,1.560000*%
%TD*%
%TA.AperFunction,ComponentPad*%
%ADD14R,1.800000X1.800000*%
%TD*%
%TA.AperFunction,ComponentPad*%
%ADD15C,1.800000*%
%TD*%
%TA.AperFunction,ComponentPad*%
%ADD16R,1.700000X1.700000*%
%TD*%
%TA.AperFunction,ComponentPad*%
%ADD17O,1.700000X1.700000*%
%TD*%
%TA.AperFunction,ComponentPad*%
%ADD18R,1.600000X1.600000*%
%TD*%
%TA.AperFunction,ComponentPad*%
%ADD19O,1.600000X1.600000*%
%TD*%
%TA.AperFunction,ComponentPad*%
%ADD20C,1.600000*%
%TD*%
%TA.AperFunction,ComponentPad*%
%ADD21C,2.000000*%
%TD*%
%TA.AperFunction,ComponentPad*%
%ADD22R,1.530000X1.530000*%
%TD*%
%TA.AperFunction,ComponentPad*%
%ADD23C,1.530000*%
%TD*%
%TA.AperFunction,SMDPad,CuDef*%
%ADD24RoundRect,0.250001X-0.924999X0.499999X-0.924999X-0.499999X0.924999X-0.499999X0.924999X0.499999X0*%
%TD*%
%TA.AperFunction,SMDPad,CuDef*%
%ADD25R,0.700000X1.600000*%
%TD*%
%TA.AperFunction,SMDPad,CuDef*%
%ADD26R,1.400000X1.600000*%
%TD*%
%TA.AperFunction,SMDPad,CuDef*%
%ADD27R,1.400000X2.200000*%
%TD*%
%TA.AperFunction,SMDPad,CuDef*%
%ADD28R,1.800000X1.400000*%
%TD*%
%TA.AperFunction,ViaPad*%
%ADD29C,0.800000*%
%TD*%
%TA.AperFunction,ViaPad*%
%ADD30C,0.900000*%
%TD*%
%TA.AperFunction,Conductor*%
%ADD31C,0.250000*%
%TD*%
%TA.AperFunction,Conductor*%
%ADD32C,0.400000*%
%TD*%
%TA.AperFunction,Conductor*%
%ADD33C,0.500000*%
%TD*%
%TA.AperFunction,Conductor*%
%ADD34C,0.300000*%
%TD*%
G04 APERTURE END LIST*
%TA.AperFunction,EtchedComponent*%
%TO.C,JP1*%
G36*
X142540000Y-91802000D02*
G01*
X141940000Y-91802000D01*
X141940000Y-91302000D01*
X142540000Y-91302000D01*
X142540000Y-91802000D01*
G37*
%TD.AperFunction*%
%TD*%
D10*
%TO.P,JP1,1,A*%
%TO.N,Net-(JP1-A)*%
X142240000Y-92202000D03*
D11*
%TO.P,JP1,2,B*%
%TO.N,Net-(JP1-B)*%
X142240000Y-90902000D03*
%TD*%
D12*
%TO.P,RV1,1,1*%
%TO.N,/LM386_IN*%
X150114000Y-87630000D03*
D13*
%TO.P,RV1,2,2*%
%TO.N,Net-(U1-+)*%
X145114000Y-90130000D03*
%TO.P,RV1,3,3*%
%TO.N,GND*%
X150114000Y-92630000D03*
%TD*%
D14*
%TO.P,D3,1,K*%
%TO.N,Net-(D3-K)*%
X134874000Y-91821000D03*
D15*
%TO.P,D3,2,A*%
%TO.N,+3.3V*%
X134874000Y-89281000D03*
%TD*%
%TO.P,D2,2,A*%
%TO.N,+3.3V*%
X134874000Y-79883000D03*
D14*
%TO.P,D2,1,K*%
%TO.N,Net-(D2-K)*%
X134874000Y-82423000D03*
%TD*%
%TO.P,D1,1,K*%
%TO.N,Net-(D1-K)*%
X134874000Y-73025000D03*
D15*
%TO.P,D1,2,A*%
%TO.N,+3.3V*%
X134874000Y-70485000D03*
%TD*%
D16*
%TO.P,J4,1,Pin_1*%
%TO.N,GND*%
X148590000Y-56388000D03*
D17*
%TO.P,J4,2,Pin_2*%
%TO.N,/CAS_PIN4_DATAIN*%
X146050000Y-56388000D03*
%TD*%
D16*
%TO.P,J3,1,Pin_1*%
%TO.N,GND*%
X151130000Y-106045000D03*
D17*
%TO.P,J3,2,Pin_2*%
X148590000Y-106045000D03*
%TO.P,J3,3,Pin_3*%
%TO.N,/LM386_IN*%
X146050000Y-106045000D03*
%TO.P,J3,4,Pin_4*%
%TO.N,+5V*%
X143510000Y-106045000D03*
%TD*%
D16*
%TO.P,J2,1,Pin_1*%
%TO.N,+3.3V*%
X130810000Y-93345000D03*
D17*
%TO.P,J2,2,Pin_2*%
%TO.N,GND*%
X130810000Y-90805000D03*
%TO.P,J2,3,Pin_3*%
%TO.N,/CAS_PIN4_DATAIN*%
X130810000Y-88265000D03*
%TO.P,J2,4,Pin_4*%
%TO.N,/CAS_PIN3_MTR1*%
X130810000Y-85725000D03*
%TD*%
D16*
%TO.P,J1,1,Pin_1*%
%TO.N,/SER_PIN2_RX*%
X130810000Y-74930000D03*
D17*
%TO.P,J1,2,Pin_2*%
%TO.N,GND*%
X130810000Y-72390000D03*
%TO.P,J1,3,Pin_3*%
%TO.N,/SER_PIN4_TX*%
X130810000Y-69850000D03*
%TD*%
D18*
%TO.P,RN1,1,common*%
%TO.N,+3.3V*%
X181610000Y-81915000D03*
D19*
%TO.P,RN1,2,R1*%
%TO.N,/IO0_BUTTON_A*%
X181610000Y-79375000D03*
%TO.P,RN1,3,R2*%
%TO.N,/IO14{slash}SAFE_RESET*%
X181610000Y-76835000D03*
%TO.P,RN1,4,R3*%
%TO.N,/IO19{slash}SPI_MISO*%
X181610000Y-74295000D03*
%TO.P,RN1,5,R4*%
%TO.N,Net-(P1-DAT1)*%
X181610000Y-71755000D03*
%TO.P,RN1,6,R5*%
%TO.N,/IO15{slash}CD*%
X181610000Y-69215000D03*
%TO.P,RN1,7,R6*%
%TO.N,/IO23{slash}SPI_MOSI*%
X181610000Y-66675000D03*
%TO.P,RN1,8,R7*%
%TO.N,/IO5{slash}SPI_CS*%
X181610000Y-64135000D03*
%TO.P,RN1,9,R8*%
%TO.N,Net-(P1-DAT2)*%
X181610000Y-61595000D03*
%TD*%
D18*
%TO.P,C7,1*%
%TO.N,+5V*%
X151765000Y-64095000D03*
D20*
%TO.P,C7,2*%
%TO.N,GND*%
X151765000Y-61595000D03*
%TD*%
D18*
%TO.P,C2,1*%
%TO.N,Net-(C2-Pad1)*%
X144145000Y-64007380D03*
D20*
%TO.P,C2,2*%
%TO.N,/CAS_PIN4_DATAIN*%
X144145000Y-61507380D03*
%TD*%
D21*
%TO.P,SW1,1,A*%
%TO.N,/IO0_BUTTON_A*%
X136906000Y-56388000D03*
X136906000Y-62888000D03*
%TO.P,SW1,2,B*%
%TO.N,GND*%
X132406000Y-56388000D03*
X132406000Y-62888000D03*
%TD*%
D19*
%TO.P,R17,2*%
%TO.N,/LM386_IN*%
X153670000Y-87630000D03*
D20*
%TO.P,R17,1*%
%TO.N,Net-(U1-+)*%
X153670000Y-95250000D03*
%TD*%
%TO.P,C6,1*%
%TO.N,+5V*%
X147955000Y-73580000D03*
%TO.P,C6,2*%
%TO.N,GND*%
X147955000Y-68580000D03*
%TD*%
D22*
%TO.P,U2,1,3V3*%
%TO.N,+3.3V*%
X160020000Y-60970000D03*
D23*
%TO.P,U2,2,EN*%
%TO.N,unconnected-(U2-EN-Pad2)*%
X160020000Y-63510000D03*
%TO.P,U2,3,SENSOR_VP*%
%TO.N,unconnected-(U2-SENSOR_VP-Pad3)*%
X160020000Y-66050000D03*
%TO.P,U2,4,SENSOR_VN*%
%TO.N,unconnected-(U2-SENSOR_VN-Pad4)*%
X160020000Y-68590000D03*
%TO.P,U2,5,IO34*%
%TO.N,/CAS_PIN3_MTR1*%
X160020000Y-71130000D03*
%TO.P,U2,6,IO35*%
%TO.N,unconnected-(U2-IO35-Pad6)*%
X160020000Y-73670000D03*
%TO.P,U2,7,IO32*%
%TO.N,unconnected-(U2-IO32-Pad7)*%
X160020000Y-76210000D03*
%TO.P,U2,8,IO33*%
%TO.N,/SER_PIN4_TX*%
X160020000Y-78750000D03*
%TO.P,U2,9,IO25*%
%TO.N,Net-(U2-IO25)*%
X160020000Y-81290000D03*
%TO.P,U2,10,IO26*%
%TO.N,unconnected-(U2-IO26-Pad10)*%
X160020000Y-83830000D03*
%TO.P,U2,11,IO27*%
%TO.N,unconnected-(U2-IO27-Pad11)*%
X160020000Y-86370000D03*
%TO.P,U2,12,IO14*%
%TO.N,/IO14{slash}SAFE_RESET*%
X160020000Y-88910000D03*
%TO.P,U2,13,IO12*%
%TO.N,unconnected-(U2-IO12-Pad13)*%
X160020000Y-91450000D03*
%TO.P,U2,14,GND1*%
%TO.N,GND*%
X160020000Y-93990000D03*
%TO.P,U2,15,IO13*%
%TO.N,/IO13{slash}LED_BT*%
X160020000Y-96530000D03*
%TO.P,U2,16,SD2*%
%TO.N,unconnected-(U2-SD2-Pad16)*%
X160020000Y-99070000D03*
%TO.P,U2,17,SD3*%
%TO.N,unconnected-(U2-SD3-Pad17)*%
X160020000Y-101610000D03*
%TO.P,U2,18,CMD*%
%TO.N,unconnected-(U2-CMD-Pad18)*%
X160020000Y-104150000D03*
%TO.P,U2,19,EXT_5V*%
%TO.N,+5V*%
X160020000Y-106690000D03*
%TO.P,U2,20,CLK*%
%TO.N,unconnected-(U2-CLK-Pad20)*%
X185420000Y-106690000D03*
%TO.P,U2,21,SD0*%
%TO.N,unconnected-(U2-SD0-Pad21)*%
X185420000Y-104150000D03*
%TO.P,U2,22,SD1*%
%TO.N,unconnected-(U2-SD1-Pad22)*%
X185420000Y-101610000D03*
%TO.P,U2,23,IO15*%
%TO.N,/IO15{slash}CD*%
X185420000Y-99070000D03*
%TO.P,U2,24,IO2*%
%TO.N,/IO2{slash}LED_WIFI*%
X185420000Y-96530000D03*
%TO.P,U2,25,IO0*%
%TO.N,/IO0_BUTTON_A*%
X185420000Y-93990000D03*
%TO.P,U2,26,IO4*%
%TO.N,/IO4{slash}LED_BUS*%
X185420000Y-91450000D03*
%TO.P,U2,27,IO16*%
%TO.N,unconnected-(U2-IO16-Pad27)*%
X185420000Y-88910000D03*
%TO.P,U2,28,IO17*%
%TO.N,unconnected-(U2-IO17-Pad28)*%
X185420000Y-86370000D03*
%TO.P,U2,29,IO5*%
%TO.N,/IO5{slash}SPI_CS*%
X185420000Y-83830000D03*
%TO.P,U2,30,IO18*%
%TO.N,/IO18{slash}SPI_CLK*%
X185420000Y-81290000D03*
%TO.P,U2,31,IO19*%
%TO.N,/IO19{slash}SPI_MISO*%
X185420000Y-78750000D03*
%TO.P,U2,32,GND2*%
%TO.N,GND*%
X185420000Y-76210000D03*
%TO.P,U2,33,IO21*%
%TO.N,/SER_PIN2_RX*%
X185420000Y-73670000D03*
%TO.P,U2,34,RXD0*%
%TO.N,unconnected-(U2-RXD0-Pad34)*%
X185420000Y-71130000D03*
%TO.P,U2,35,TXD0*%
%TO.N,unconnected-(U2-TXD0-Pad35)*%
X185420000Y-68590000D03*
%TO.P,U2,36,IO22*%
%TO.N,unconnected-(U2-IO22-Pad36)*%
X185420000Y-66050000D03*
%TO.P,U2,37,IO23*%
%TO.N,/IO23{slash}SPI_MOSI*%
X185420000Y-63510000D03*
%TO.P,U2,38,GND3*%
%TO.N,GND*%
X185420000Y-60970000D03*
%TD*%
D20*
%TO.P,R9,1*%
%TO.N,Net-(D1-K)*%
X167640000Y-93345000D03*
D19*
%TO.P,R9,2*%
%TO.N,/IO2{slash}LED_WIFI*%
X175260000Y-93345000D03*
%TD*%
D20*
%TO.P,R7,1*%
%TO.N,GND*%
X146050000Y-99695000D03*
D19*
%TO.P,R7,2*%
%TO.N,Net-(C3-Pad2)*%
X153670000Y-99695000D03*
%TD*%
D24*
%TO.P,C1,1*%
%TO.N,+3.3V*%
X170942000Y-70892000D03*
%TO.P,C1,2*%
%TO.N,GND*%
X170942000Y-74142000D03*
%TD*%
D20*
%TO.P,R11,1*%
%TO.N,Net-(D3-K)*%
X167640000Y-88265000D03*
D19*
%TO.P,R11,2*%
%TO.N,/IO4{slash}LED_BUS*%
X175260000Y-88265000D03*
%TD*%
D21*
%TO.P,SW2,2,B*%
%TO.N,GND*%
X132406000Y-105918000D03*
X132406000Y-99418000D03*
%TO.P,SW2,1,A*%
%TO.N,/IO14{slash}SAFE_RESET*%
X136906000Y-105918000D03*
X136906000Y-99418000D03*
%TD*%
D20*
%TO.P,R13,1*%
%TO.N,/CAS_PIN3_MTR1*%
X165100000Y-78740000D03*
D19*
%TO.P,R13,2*%
%TO.N,GND*%
X165100000Y-71120000D03*
%TD*%
D20*
%TO.P,C4,1*%
%TO.N,Net-(JP1-A)*%
X142240000Y-97790000D03*
%TO.P,C4,2*%
%TO.N,Net-(C4-Pad2)*%
X142240000Y-102790000D03*
%TD*%
%TO.P,C5,1*%
%TO.N,GND*%
X144145000Y-68580000D03*
%TO.P,C5,2*%
%TO.N,Net-(U1-BYPASS)*%
X144145000Y-73580000D03*
%TD*%
%TO.P,C8,1*%
%TO.N,/LM386_IN*%
X156845000Y-78740000D03*
%TO.P,C8,2*%
%TO.N,GND*%
X156845000Y-73740000D03*
%TD*%
D25*
%TO.P,P1,1,DAT2*%
%TO.N,Net-(P1-DAT2)*%
X168412600Y-67991800D03*
%TO.P,P1,2,DAT3*%
%TO.N,/IO5{slash}SPI_CS*%
X169512600Y-67991800D03*
%TO.P,P1,3,CMD*%
%TO.N,/IO23{slash}SPI_MOSI*%
X170612600Y-67991800D03*
%TO.P,P1,4,VDD*%
%TO.N,+3.3V*%
X171712600Y-67991800D03*
%TO.P,P1,5,CLK*%
%TO.N,/IO18{slash}SPI_CLK*%
X172812600Y-67991800D03*
%TO.P,P1,6,VSS*%
%TO.N,GND*%
X173912600Y-67991800D03*
%TO.P,P1,7,DAT0*%
%TO.N,/IO19{slash}SPI_MISO*%
X175012600Y-67991800D03*
%TO.P,P1,8,DAT1*%
%TO.N,Net-(P1-DAT1)*%
X176112600Y-67991800D03*
%TO.P,P1,9,CD*%
%TO.N,/IO15{slash}CD*%
X177212600Y-67991800D03*
D26*
%TO.P,P1,G1,GND*%
%TO.N,GND*%
X178512600Y-67391800D03*
D27*
%TO.P,P1,G2,GND*%
X178512600Y-57891800D03*
%TO.P,P1,G3,GND*%
X162812600Y-57891800D03*
D28*
%TO.P,P1,G4,GND*%
X163712600Y-67491800D03*
%TD*%
D20*
%TO.P,R12,1*%
%TO.N,/LM386_IN*%
X156845000Y-88900000D03*
D19*
%TO.P,R12,2*%
%TO.N,Net-(U2-IO25)*%
X156845000Y-81280000D03*
%TD*%
%TO.P,R8,2*%
%TO.N,Net-(JP1-B)*%
X142240000Y-87630000D03*
D20*
%TO.P,R8,1*%
%TO.N,Net-(JP1-A)*%
X142240000Y-95250000D03*
%TD*%
%TO.P,C3,1*%
%TO.N,Net-(C2-Pad1)*%
X145455000Y-95885000D03*
%TO.P,C3,2*%
%TO.N,Net-(C3-Pad2)*%
X150455000Y-95885000D03*
%TD*%
D19*
%TO.P,U1,8,GAIN*%
%TO.N,Net-(C4-Pad2)*%
X141605000Y-76825000D03*
%TO.P,U1,7,BYPASS*%
%TO.N,Net-(U1-BYPASS)*%
X144145000Y-76825000D03*
%TO.P,U1,6,V+*%
%TO.N,+5V*%
X146685000Y-76825000D03*
%TO.P,U1,5*%
%TO.N,Net-(C2-Pad1)*%
X149225000Y-76825000D03*
%TO.P,U1,4,GND*%
%TO.N,GND*%
X149225000Y-84445000D03*
%TO.P,U1,3,+*%
%TO.N,Net-(U1-+)*%
X146685000Y-84445000D03*
%TO.P,U1,2,-*%
%TO.N,GND*%
X144145000Y-84445000D03*
D18*
%TO.P,U1,1,GAIN*%
%TO.N,Net-(JP1-B)*%
X141605000Y-84445000D03*
%TD*%
D19*
%TO.P,R10,2*%
%TO.N,/IO13{slash}LED_BT*%
X167640000Y-98425000D03*
D20*
%TO.P,R10,1*%
%TO.N,Net-(D2-K)*%
X175260000Y-98425000D03*
%TD*%
D29*
%TO.N,GND*%
X143916400Y-86614000D03*
X155829000Y-60960000D03*
X147955000Y-60833000D03*
X149555200Y-81153000D03*
X144424400Y-81483200D03*
X151638000Y-84455000D03*
X173990000Y-69392800D03*
%TO.N,/IO19{slash}SPI_MISO*%
X184022500Y-72517000D03*
%TO.N,/IO18{slash}SPI_CLK*%
X174244000Y-80772000D03*
%TO.N,/IO19{slash}SPI_MISO*%
X175133000Y-74205500D03*
%TO.N,Net-(P1-DAT1)*%
X176149000Y-71755000D03*
%TO.N,/IO23{slash}SPI_MOSI*%
X170662600Y-66776600D03*
%TO.N,/IO5{slash}SPI_CS*%
X169545000Y-66776600D03*
%TO.N,Net-(P1-DAT2)*%
X168452800Y-66776600D03*
%TO.N,GND*%
X170942000Y-73025000D03*
D30*
%TO.N,+5V*%
X154432000Y-73580000D03*
D29*
%TO.N,+3.3V*%
X134874000Y-59436000D03*
%TO.N,/SER_PIN4_TX*%
X158242000Y-67310000D03*
%TO.N,/CAS_PIN4_DATAIN*%
X129921000Y-60960000D03*
%TO.N,/CAS_PIN3_MTR1*%
X138176000Y-71120000D03*
X138176000Y-85344000D03*
%TO.N,/IO0_BUTTON_A*%
X153416000Y-62738000D03*
X153416000Y-80010000D03*
%TO.N,+3.3V*%
X168910000Y-81661000D03*
%TO.N,/IO14{slash}SAFE_RESET*%
X178853500Y-85852000D03*
%TO.N,/IO0_BUTTON_A*%
X179578000Y-90932000D03*
%TO.N,/IO15{slash}CD*%
X177292000Y-99060000D03*
%TO.N,Net-(D1-K)*%
X138938000Y-73152000D03*
X138938000Y-96520000D03*
%TO.N,Net-(D2-K)*%
X173482000Y-82550000D03*
%TO.N,Net-(U1-+)*%
X153670000Y-89255600D03*
%TO.N,/IO14{slash}SAFE_RESET*%
X157988000Y-104902000D03*
%TD*%
D31*
%TO.N,/CAS_PIN3_MTR1*%
X138176000Y-71120000D02*
X138176000Y-85344000D01*
%TO.N,Net-(U1-+)*%
X153670000Y-95250000D02*
X153670000Y-89255600D01*
D32*
%TO.N,/CAS_PIN4_DATAIN*%
X128143000Y-62738000D02*
X128143000Y-85598000D01*
X129921000Y-60960000D02*
X128143000Y-62738000D01*
X128143000Y-85598000D02*
X130810000Y-88265000D01*
D33*
%TO.N,GND*%
X170942000Y-73025000D02*
X170942000Y-74142000D01*
D31*
%TO.N,+3.3V*%
X168910000Y-81661000D02*
X168936000Y-81635000D01*
X168936000Y-81635000D02*
X168936000Y-72898000D01*
D33*
X161798000Y-71120000D02*
X161798000Y-62748000D01*
X163576000Y-72898000D02*
X161798000Y-71120000D01*
X168936000Y-72898000D02*
X163576000Y-72898000D01*
X171712600Y-70121400D02*
X168936000Y-72898000D01*
X161798000Y-62748000D02*
X160020000Y-60970000D01*
X171712600Y-67991800D02*
X171712600Y-70121400D01*
D31*
X134874000Y-59436000D02*
X134874000Y-70485000D01*
D33*
%TO.N,GND*%
X173940000Y-69342800D02*
X173940000Y-68412000D01*
X173990000Y-69392800D02*
X173940000Y-69342800D01*
D31*
%TO.N,/IO5{slash}SPI_CS*%
X183298000Y-81708000D02*
X185420000Y-83830000D01*
X183298000Y-65823000D02*
X183298000Y-81708000D01*
X181610000Y-64135000D02*
X183298000Y-65823000D01*
%TO.N,/IO19{slash}SPI_MISO*%
X175012600Y-74085100D02*
X175133000Y-74205500D01*
X175012600Y-68384600D02*
X175012600Y-74085100D01*
X175040000Y-68412000D02*
X175012600Y-68384600D01*
%TO.N,/IO15{slash}CD*%
X177240000Y-68269200D02*
X178185800Y-69215000D01*
X177240000Y-99008000D02*
X177240000Y-68269200D01*
X177292000Y-99060000D02*
X177240000Y-99008000D01*
X178185800Y-69215000D02*
X181610000Y-69215000D01*
%TO.N,Net-(P1-DAT1)*%
X176112600Y-67991800D02*
X176140000Y-68019200D01*
X176140000Y-68019200D02*
X176140000Y-71746000D01*
X176140000Y-71746000D02*
X176149000Y-71755000D01*
%TO.N,/IO18{slash}SPI_CLK*%
X174244000Y-71313900D02*
X174244000Y-80772000D01*
X172812600Y-69882500D02*
X174244000Y-71313900D01*
X172812600Y-67991800D02*
X172812600Y-69882500D01*
%TO.N,/IO23{slash}SPI_MOSI*%
X170662600Y-66776600D02*
X170640000Y-66799200D01*
X170640000Y-66799200D02*
X170640000Y-68412000D01*
%TO.N,/IO5{slash}SPI_CS*%
X169545000Y-66776600D02*
X169540000Y-66781600D01*
X169540000Y-66781600D02*
X169540000Y-68412000D01*
%TO.N,Net-(P1-DAT2)*%
X168452800Y-66776600D02*
X168440000Y-66789400D01*
X168440000Y-66789400D02*
X168440000Y-68412000D01*
%TO.N,/IO19{slash}SPI_MISO*%
X184022500Y-77352500D02*
X184022500Y-72517000D01*
X185420000Y-78750000D02*
X184022500Y-77352500D01*
%TO.N,/SER_PIN4_TX*%
X158242000Y-76972000D02*
X160020000Y-78750000D01*
X158242000Y-67310000D02*
X158242000Y-76972000D01*
%TO.N,/IO0_BUTTON_A*%
X153416000Y-80010000D02*
X153416000Y-62738000D01*
%TO.N,/LM386_IN*%
X148717000Y-89027000D02*
X150114000Y-87630000D01*
X148717000Y-103378000D02*
X148717000Y-89027000D01*
X146050000Y-106045000D02*
X148717000Y-103378000D01*
%TO.N,Net-(C4-Pad2)*%
X140208000Y-78222000D02*
X141605000Y-76825000D01*
X140208000Y-100758000D02*
X140208000Y-78222000D01*
X142240000Y-102790000D02*
X140208000Y-100758000D01*
%TO.N,Net-(C2-Pad1)*%
X147955000Y-93385000D02*
X147955000Y-78095000D01*
X145455000Y-95885000D02*
X147955000Y-93385000D01*
X147955000Y-78095000D02*
X148100000Y-77950000D01*
D34*
X145415000Y-65277380D02*
X144145000Y-64007380D01*
X145415000Y-77597000D02*
X145415000Y-65277380D01*
X146177000Y-78359000D02*
X145415000Y-77597000D01*
X148100000Y-77950000D02*
X147691000Y-78359000D01*
X147691000Y-78359000D02*
X146177000Y-78359000D01*
D32*
%TO.N,/CAS_PIN4_DATAIN*%
X146050000Y-59602380D02*
X146050000Y-56388000D01*
X144145000Y-61507380D02*
X146050000Y-59602380D01*
D31*
%TO.N,/LM386_IN*%
X157970000Y-87775000D02*
X156845000Y-88900000D01*
X157970000Y-79865000D02*
X157970000Y-87775000D01*
X156845000Y-78740000D02*
X157970000Y-79865000D01*
D33*
%TO.N,+5V*%
X155194000Y-103310082D02*
X158573918Y-106690000D01*
X154432000Y-73580000D02*
X155194000Y-74342000D01*
X158573918Y-106690000D02*
X160020000Y-106690000D01*
X155194000Y-74342000D02*
X155194000Y-103310082D01*
X159014000Y-107696000D02*
X160020000Y-106690000D01*
X145161000Y-107696000D02*
X159014000Y-107696000D01*
X143510000Y-106045000D02*
X145161000Y-107696000D01*
D31*
%TO.N,/IO0_BUTTON_A*%
X136906000Y-62888000D02*
X136906000Y-56388000D01*
%TO.N,/IO14{slash}SAFE_RESET*%
X178853500Y-79591500D02*
X181610000Y-76835000D01*
X178853500Y-85852000D02*
X178853500Y-79591500D01*
%TO.N,/IO0_BUTTON_A*%
X179578000Y-90932000D02*
X179578000Y-81407000D01*
X179578000Y-81407000D02*
X181610000Y-79375000D01*
%TO.N,Net-(D1-K)*%
X138938000Y-73152000D02*
X138938000Y-96520000D01*
%TO.N,Net-(D2-K)*%
X173482000Y-82550000D02*
X173482000Y-96647000D01*
X173482000Y-96647000D02*
X175260000Y-98425000D01*
%TO.N,Net-(JP1-B)*%
X142240000Y-90902000D02*
X142240000Y-87630000D01*
%TO.N,Net-(JP1-A)*%
X142240000Y-95250000D02*
X142240000Y-92202000D01*
%TO.N,+3.3V*%
X130810000Y-93345000D02*
X134874000Y-89281000D01*
%TO.N,/IO14{slash}SAFE_RESET*%
X136906000Y-105918000D02*
X136906000Y-99418000D01*
X157988000Y-90942000D02*
X160020000Y-88910000D01*
X157988000Y-104902000D02*
X157988000Y-90942000D01*
%TO.N,/CAS_PIN3_MTR1*%
X165100000Y-76210000D02*
X160020000Y-71130000D01*
X165100000Y-78740000D02*
X165100000Y-76210000D01*
D34*
%TO.N,Net-(C2-Pad1)*%
X148100000Y-77950000D02*
X149225000Y-76825000D01*
D31*
%TO.N,Net-(U1-+)*%
X145114000Y-90130000D02*
X145114000Y-86016000D01*
X145114000Y-86016000D02*
X146685000Y-84445000D01*
%TO.N,Net-(JP1-B)*%
X142240000Y-85080000D02*
X141605000Y-84445000D01*
X142240000Y-87630000D02*
X142240000Y-85080000D01*
%TO.N,Net-(JP1-A)*%
X142240000Y-97790000D02*
X142240000Y-95250000D01*
%TO.N,Net-(C3-Pad2)*%
X150455000Y-96480000D02*
X150455000Y-95885000D01*
X153670000Y-99695000D02*
X150455000Y-96480000D01*
%TO.N,+3.3V*%
X133649000Y-88056000D02*
X134874000Y-89281000D01*
X133649000Y-81108000D02*
X133649000Y-88056000D01*
X134874000Y-79883000D02*
X133649000Y-81108000D01*
X133649000Y-78658000D02*
X134874000Y-79883000D01*
X134874000Y-70485000D02*
X133649000Y-71710000D01*
X133649000Y-71710000D02*
X133649000Y-78658000D01*
%TO.N,Net-(U1-BYPASS)*%
X144145000Y-76825000D02*
X144145000Y-73580000D01*
D33*
%TO.N,+5V*%
X151765000Y-69770000D02*
X151765000Y-64095000D01*
X147955000Y-73580000D02*
X151765000Y-69770000D01*
X146685000Y-74850000D02*
X147955000Y-73580000D01*
X146685000Y-76825000D02*
X146685000Y-74850000D01*
%TD*%
%TA.AperFunction,Conductor*%
%TO.N,GND*%
G36*
X149547703Y-96817336D02*
G01*
X149554181Y-96823368D01*
X149615858Y-96885045D01*
X149615861Y-96885047D01*
X149802266Y-97015568D01*
X150008504Y-97111739D01*
X150008509Y-97111740D01*
X150008511Y-97111741D01*
X150037588Y-97119532D01*
X150228308Y-97170635D01*
X150228313Y-97170635D01*
X150229550Y-97170854D01*
X150230048Y-97171100D01*
X150233538Y-97172036D01*
X150233350Y-97172737D01*
X150292153Y-97201881D01*
X150295699Y-97205289D01*
X152370586Y-99280176D01*
X152404071Y-99341499D01*
X152402681Y-99399948D01*
X152384365Y-99468307D01*
X152384364Y-99468313D01*
X152364532Y-99694999D01*
X152364532Y-99695001D01*
X152384364Y-99921686D01*
X152384366Y-99921697D01*
X152443258Y-100141488D01*
X152443261Y-100141497D01*
X152539431Y-100347732D01*
X152539432Y-100347734D01*
X152669954Y-100534141D01*
X152830858Y-100695045D01*
X152830861Y-100695047D01*
X153017266Y-100825568D01*
X153223504Y-100921739D01*
X153443308Y-100980635D01*
X153605230Y-100994801D01*
X153669998Y-101000468D01*
X153670000Y-101000468D01*
X153670002Y-101000468D01*
X153726673Y-100995509D01*
X153896692Y-100980635D01*
X154116496Y-100921739D01*
X154267095Y-100851512D01*
X154336173Y-100841021D01*
X154399957Y-100869541D01*
X154438196Y-100928017D01*
X154443500Y-100963895D01*
X154443500Y-103246376D01*
X154442191Y-103264345D01*
X154438710Y-103288107D01*
X154443264Y-103340146D01*
X154443500Y-103345552D01*
X154443500Y-103353791D01*
X154447306Y-103386356D01*
X154454000Y-103462873D01*
X154455461Y-103469949D01*
X154455403Y-103469960D01*
X154457034Y-103477319D01*
X154457092Y-103477306D01*
X154458757Y-103484332D01*
X154485025Y-103556506D01*
X154509185Y-103629413D01*
X154512236Y-103635956D01*
X154512182Y-103635980D01*
X154515470Y-103642770D01*
X154515521Y-103642745D01*
X154518761Y-103649195D01*
X154518762Y-103649196D01*
X154518763Y-103649199D01*
X154551475Y-103698936D01*
X154560965Y-103713365D01*
X154601287Y-103778737D01*
X154605766Y-103784401D01*
X154605719Y-103784438D01*
X154610482Y-103790284D01*
X154610528Y-103790246D01*
X154615173Y-103795782D01*
X154671017Y-103848467D01*
X157556369Y-106733819D01*
X157589854Y-106795142D01*
X157584870Y-106864834D01*
X157542998Y-106920767D01*
X157477534Y-106945184D01*
X157468688Y-106945500D01*
X152604000Y-106945500D01*
X152536961Y-106925815D01*
X152491206Y-106873011D01*
X152480000Y-106821500D01*
X152480000Y-106295000D01*
X151563686Y-106295000D01*
X151589493Y-106254844D01*
X151630000Y-106116889D01*
X151630000Y-105973111D01*
X151589493Y-105835156D01*
X151563686Y-105795000D01*
X152480000Y-105795000D01*
X152480000Y-105147172D01*
X152479999Y-105147155D01*
X152473598Y-105087627D01*
X152473596Y-105087620D01*
X152423354Y-104952913D01*
X152423350Y-104952906D01*
X152337190Y-104837812D01*
X152337187Y-104837809D01*
X152222093Y-104751649D01*
X152222086Y-104751645D01*
X152087379Y-104701403D01*
X152087372Y-104701401D01*
X152027844Y-104695000D01*
X151380000Y-104695000D01*
X151380000Y-105609498D01*
X151272315Y-105560320D01*
X151165763Y-105545000D01*
X151094237Y-105545000D01*
X150987685Y-105560320D01*
X150880000Y-105609498D01*
X150880000Y-104695000D01*
X150232155Y-104695000D01*
X150172627Y-104701401D01*
X150172620Y-104701403D01*
X150037913Y-104751645D01*
X150037906Y-104751649D01*
X149922812Y-104837809D01*
X149922809Y-104837812D01*
X149836649Y-104952906D01*
X149836646Y-104952911D01*
X149787385Y-105084987D01*
X149745513Y-105140920D01*
X149680049Y-105165337D01*
X149611776Y-105150485D01*
X149583522Y-105129334D01*
X149461082Y-105006894D01*
X149267578Y-104871399D01*
X149053492Y-104771570D01*
X149053486Y-104771567D01*
X148840000Y-104714364D01*
X148840000Y-105609498D01*
X148732315Y-105560320D01*
X148625763Y-105545000D01*
X148554237Y-105545000D01*
X148447685Y-105560320D01*
X148340000Y-105609498D01*
X148340000Y-104690950D01*
X148359685Y-104623911D01*
X148376314Y-104603274D01*
X149100786Y-103878802D01*
X149113048Y-103868980D01*
X149112865Y-103868759D01*
X149118867Y-103863792D01*
X149118877Y-103863786D01*
X149166241Y-103813348D01*
X149187120Y-103792470D01*
X149191373Y-103786986D01*
X149195150Y-103782563D01*
X149227062Y-103748582D01*
X149236714Y-103731023D01*
X149247389Y-103714772D01*
X149259674Y-103698936D01*
X149278186Y-103656152D01*
X149280742Y-103650935D01*
X149303197Y-103610092D01*
X149308180Y-103590680D01*
X149314477Y-103572291D01*
X149322438Y-103553895D01*
X149329729Y-103507853D01*
X149330908Y-103502162D01*
X149342500Y-103457019D01*
X149342500Y-103436983D01*
X149344027Y-103417582D01*
X149347160Y-103397804D01*
X149343207Y-103355990D01*
X149342775Y-103351415D01*
X149342500Y-103345577D01*
X149342500Y-96911049D01*
X149362185Y-96844010D01*
X149414989Y-96798255D01*
X149484147Y-96788311D01*
X149547703Y-96817336D01*
G37*
%TD.AperFunction*%
%TA.AperFunction,Conductor*%
G36*
X150670507Y-105835156D02*
G01*
X150630000Y-105973111D01*
X150630000Y-106116889D01*
X150670507Y-106254844D01*
X150696314Y-106295000D01*
X149023686Y-106295000D01*
X149049493Y-106254844D01*
X149090000Y-106116889D01*
X149090000Y-105973111D01*
X149049493Y-105835156D01*
X149023686Y-105795000D01*
X150696314Y-105795000D01*
X150670507Y-105835156D01*
G37*
%TD.AperFunction*%
%TA.AperFunction,Conductor*%
G36*
X152722004Y-65403564D02*
G01*
X152773141Y-65451174D01*
X152790500Y-65514448D01*
X152790500Y-79311312D01*
X152770815Y-79378351D01*
X152758650Y-79394284D01*
X152683466Y-79477784D01*
X152588821Y-79641715D01*
X152588818Y-79641722D01*
X152530327Y-79821740D01*
X152530326Y-79821744D01*
X152510540Y-80010000D01*
X152530326Y-80198256D01*
X152530327Y-80198259D01*
X152588818Y-80378277D01*
X152588821Y-80378284D01*
X152683467Y-80542216D01*
X152750821Y-80617020D01*
X152810129Y-80682888D01*
X152963265Y-80794148D01*
X152963270Y-80794151D01*
X153136192Y-80871142D01*
X153136197Y-80871144D01*
X153321354Y-80910500D01*
X153321355Y-80910500D01*
X153510644Y-80910500D01*
X153510646Y-80910500D01*
X153695803Y-80871144D01*
X153868730Y-80794151D01*
X154021871Y-80682888D01*
X154148533Y-80542216D01*
X154212114Y-80432089D01*
X154262679Y-80383876D01*
X154331286Y-80370652D01*
X154396151Y-80396620D01*
X154436680Y-80453534D01*
X154443500Y-80494091D01*
X154443500Y-86361105D01*
X154423815Y-86428144D01*
X154371011Y-86473899D01*
X154301853Y-86483843D01*
X154267095Y-86473487D01*
X154169857Y-86428144D01*
X154116496Y-86403261D01*
X154116492Y-86403260D01*
X154116488Y-86403258D01*
X153896697Y-86344366D01*
X153896693Y-86344365D01*
X153896692Y-86344365D01*
X153896691Y-86344364D01*
X153896686Y-86344364D01*
X153670002Y-86324532D01*
X153669998Y-86324532D01*
X153443313Y-86344364D01*
X153443302Y-86344366D01*
X153223511Y-86403258D01*
X153223502Y-86403261D01*
X153017267Y-86499431D01*
X153017265Y-86499432D01*
X152830858Y-86629954D01*
X152669954Y-86790858D01*
X152539432Y-86977265D01*
X152539431Y-86977267D01*
X152443261Y-87183502D01*
X152443258Y-87183511D01*
X152384366Y-87403302D01*
X152384364Y-87403313D01*
X152364532Y-87629998D01*
X152364532Y-87630001D01*
X152384364Y-87856686D01*
X152384366Y-87856697D01*
X152443258Y-88076488D01*
X152443261Y-88076497D01*
X152539431Y-88282732D01*
X152539432Y-88282734D01*
X152669954Y-88469141D01*
X152830857Y-88630044D01*
X152852074Y-88644900D01*
X152895700Y-88699476D01*
X152902894Y-88768974D01*
X152888339Y-88808475D01*
X152842823Y-88887310D01*
X152842818Y-88887322D01*
X152790058Y-89049702D01*
X152784326Y-89067344D01*
X152764540Y-89255600D01*
X152784326Y-89443856D01*
X152784327Y-89443859D01*
X152842818Y-89623877D01*
X152842821Y-89623884D01*
X152937467Y-89787816D01*
X152980772Y-89835910D01*
X153012650Y-89871315D01*
X153042880Y-89934306D01*
X153044500Y-89954287D01*
X153044500Y-94035811D01*
X153024815Y-94102850D01*
X152991623Y-94137386D01*
X152830859Y-94249953D01*
X152669954Y-94410858D01*
X152539432Y-94597265D01*
X152539431Y-94597267D01*
X152443261Y-94803502D01*
X152443258Y-94803511D01*
X152384366Y-95023302D01*
X152384364Y-95023313D01*
X152364532Y-95249998D01*
X152364532Y-95250001D01*
X152384364Y-95476686D01*
X152384366Y-95476697D01*
X152443258Y-95696488D01*
X152443261Y-95696497D01*
X152539431Y-95902732D01*
X152539432Y-95902734D01*
X152669954Y-96089141D01*
X152830858Y-96250045D01*
X152830861Y-96250047D01*
X153017266Y-96380568D01*
X153223504Y-96476739D01*
X153443308Y-96535635D01*
X153605230Y-96549801D01*
X153669998Y-96555468D01*
X153670000Y-96555468D01*
X153670002Y-96555468D01*
X153726673Y-96550509D01*
X153896692Y-96535635D01*
X154116496Y-96476739D01*
X154267095Y-96406512D01*
X154336173Y-96396021D01*
X154399957Y-96424541D01*
X154438196Y-96483017D01*
X154443500Y-96518895D01*
X154443500Y-98426105D01*
X154423815Y-98493144D01*
X154371011Y-98538899D01*
X154301853Y-98548843D01*
X154267095Y-98538487D01*
X154254241Y-98532493D01*
X154116496Y-98468261D01*
X154116492Y-98468260D01*
X154116488Y-98468258D01*
X153896697Y-98409366D01*
X153896693Y-98409365D01*
X153896692Y-98409365D01*
X153896691Y-98409364D01*
X153896686Y-98409364D01*
X153670002Y-98389532D01*
X153669999Y-98389532D01*
X153443313Y-98409364D01*
X153443296Y-98409367D01*
X153374949Y-98427680D01*
X153305099Y-98426016D01*
X153255177Y-98395586D01*
X151581615Y-96722025D01*
X151548130Y-96660702D01*
X151553114Y-96591010D01*
X151567720Y-96563222D01*
X151585568Y-96537734D01*
X151681739Y-96331496D01*
X151740635Y-96111692D01*
X151758781Y-95904284D01*
X151760468Y-95885001D01*
X151760468Y-95884998D01*
X151745459Y-95713445D01*
X151740635Y-95658308D01*
X151681739Y-95438504D01*
X151585568Y-95232266D01*
X151455047Y-95045861D01*
X151455045Y-95045858D01*
X151294141Y-94884954D01*
X151107734Y-94754432D01*
X151107732Y-94754431D01*
X150901497Y-94658261D01*
X150901488Y-94658258D01*
X150681697Y-94599366D01*
X150681693Y-94599365D01*
X150681692Y-94599365D01*
X150681691Y-94599364D01*
X150681686Y-94599364D01*
X150455002Y-94579532D01*
X150454998Y-94579532D01*
X150228313Y-94599364D01*
X150228302Y-94599366D01*
X150008511Y-94658258D01*
X150008502Y-94658261D01*
X149802267Y-94754431D01*
X149802265Y-94754432D01*
X149615858Y-94884954D01*
X149554181Y-94946632D01*
X149492858Y-94980117D01*
X149423166Y-94975133D01*
X149367233Y-94933261D01*
X149342816Y-94867797D01*
X149342500Y-94858951D01*
X149342500Y-93877208D01*
X149362185Y-93810169D01*
X149414989Y-93764414D01*
X149484147Y-93754470D01*
X149518905Y-93764826D01*
X149674540Y-93837399D01*
X149674549Y-93837403D01*
X149890875Y-93895367D01*
X149890886Y-93895369D01*
X150113998Y-93914889D01*
X150114002Y-93914889D01*
X150337113Y-93895369D01*
X150337124Y-93895367D01*
X150553450Y-93837403D01*
X150553464Y-93837398D01*
X150756440Y-93742749D01*
X150825110Y-93694664D01*
X150246532Y-93116086D01*
X150256315Y-93114680D01*
X150387100Y-93054952D01*
X150495761Y-92960798D01*
X150573493Y-92839844D01*
X150597076Y-92759523D01*
X151178664Y-93341110D01*
X151226749Y-93272440D01*
X151321398Y-93069464D01*
X151321403Y-93069450D01*
X151379367Y-92853124D01*
X151379369Y-92853113D01*
X151398889Y-92630002D01*
X151398889Y-92629997D01*
X151379369Y-92406886D01*
X151379367Y-92406875D01*
X151321403Y-92190549D01*
X151321399Y-92190540D01*
X151226746Y-91987556D01*
X151178664Y-91918887D01*
X150597076Y-92500475D01*
X150573493Y-92420156D01*
X150495761Y-92299202D01*
X150387100Y-92205048D01*
X150256315Y-92145320D01*
X150246533Y-92143913D01*
X150825111Y-91565334D01*
X150756444Y-91517253D01*
X150553459Y-91422600D01*
X150553450Y-91422596D01*
X150337124Y-91364632D01*
X150337113Y-91364630D01*
X150114002Y-91345111D01*
X150113998Y-91345111D01*
X149890886Y-91364630D01*
X149890875Y-91364632D01*
X149674549Y-91422596D01*
X149674540Y-91422600D01*
X149518905Y-91495174D01*
X149449827Y-91505666D01*
X149386043Y-91477146D01*
X149347804Y-91418670D01*
X149342500Y-91382792D01*
X149342500Y-89337451D01*
X149362185Y-89270412D01*
X149378815Y-89249774D01*
X149681771Y-88946817D01*
X149743094Y-88913333D01*
X149769452Y-88910499D01*
X150941871Y-88910499D01*
X150941872Y-88910499D01*
X151001483Y-88904091D01*
X151136331Y-88853796D01*
X151251546Y-88767546D01*
X151337796Y-88652331D01*
X151388091Y-88517483D01*
X151394500Y-88457873D01*
X151394499Y-86802128D01*
X151388091Y-86742517D01*
X151346107Y-86629953D01*
X151337797Y-86607671D01*
X151337793Y-86607664D01*
X151251547Y-86492455D01*
X151251544Y-86492452D01*
X151136335Y-86406206D01*
X151136328Y-86406202D01*
X151001482Y-86355908D01*
X151001483Y-86355908D01*
X150941883Y-86349501D01*
X150941881Y-86349500D01*
X150941873Y-86349500D01*
X150941864Y-86349500D01*
X149286129Y-86349500D01*
X149286123Y-86349501D01*
X149226516Y-86355908D01*
X149091671Y-86406202D01*
X149091664Y-86406206D01*
X148976455Y-86492452D01*
X148976452Y-86492455D01*
X148890206Y-86607664D01*
X148890202Y-86607671D01*
X148839908Y-86742517D01*
X148834711Y-86790861D01*
X148833501Y-86802123D01*
X148833500Y-86802135D01*
X148833500Y-87974546D01*
X148813815Y-88041585D01*
X148797181Y-88062227D01*
X148792181Y-88067227D01*
X148730858Y-88100712D01*
X148661166Y-88095728D01*
X148605233Y-88053856D01*
X148580816Y-87988392D01*
X148580500Y-87979546D01*
X148580500Y-85773497D01*
X148600185Y-85706458D01*
X148652989Y-85660703D01*
X148722147Y-85650759D01*
X148756906Y-85661115D01*
X148778678Y-85671267D01*
X148778682Y-85671269D01*
X148974999Y-85723872D01*
X148975000Y-85723871D01*
X148975000Y-84760686D01*
X148986955Y-84772641D01*
X149099852Y-84830165D01*
X149193519Y-84845000D01*
X149256481Y-84845000D01*
X149350148Y-84830165D01*
X149463045Y-84772641D01*
X149475000Y-84760686D01*
X149475000Y-85723872D01*
X149671317Y-85671269D01*
X149671326Y-85671265D01*
X149877482Y-85575134D01*
X150063820Y-85444657D01*
X150224657Y-85283820D01*
X150355134Y-85097482D01*
X150451265Y-84891326D01*
X150451269Y-84891317D01*
X150503872Y-84695000D01*
X149540686Y-84695000D01*
X149552641Y-84683045D01*
X149610165Y-84570148D01*
X149629986Y-84445000D01*
X149610165Y-84319852D01*
X149552641Y-84206955D01*
X149540686Y-84195000D01*
X150503872Y-84195000D01*
X150503872Y-84194999D01*
X150451269Y-83998682D01*
X150451265Y-83998673D01*
X150355134Y-83792517D01*
X150224657Y-83606179D01*
X150063820Y-83445342D01*
X149877482Y-83314865D01*
X149671328Y-83218734D01*
X149475000Y-83166127D01*
X149475000Y-84129314D01*
X149463045Y-84117359D01*
X149350148Y-84059835D01*
X149256481Y-84045000D01*
X149193519Y-84045000D01*
X149099852Y-84059835D01*
X148986955Y-84117359D01*
X148975000Y-84129314D01*
X148975000Y-83166127D01*
X148778668Y-83218735D01*
X148756902Y-83228885D01*
X148687825Y-83239376D01*
X148624041Y-83210854D01*
X148585803Y-83152377D01*
X148580500Y-83116502D01*
X148580500Y-78440807D01*
X148600185Y-78373768D01*
X148616815Y-78353130D01*
X148838062Y-78131882D01*
X148899383Y-78098399D01*
X148957834Y-78099790D01*
X148998308Y-78110635D01*
X149155780Y-78124412D01*
X149224998Y-78130468D01*
X149225000Y-78130468D01*
X149225002Y-78130468D01*
X149294220Y-78124412D01*
X149451692Y-78110635D01*
X149671496Y-78051739D01*
X149877734Y-77955568D01*
X150064139Y-77825047D01*
X150225047Y-77664139D01*
X150355568Y-77477734D01*
X150451739Y-77271496D01*
X150510635Y-77051692D01*
X150530468Y-76825000D01*
X150510635Y-76598308D01*
X150454420Y-76388511D01*
X150451741Y-76378511D01*
X150451738Y-76378502D01*
X150406575Y-76281650D01*
X150355568Y-76172266D01*
X150225047Y-75985861D01*
X150225045Y-75985858D01*
X150064141Y-75824954D01*
X149877734Y-75694432D01*
X149877732Y-75694431D01*
X149671497Y-75598261D01*
X149671488Y-75598258D01*
X149451697Y-75539366D01*
X149451693Y-75539365D01*
X149451692Y-75539365D01*
X149451691Y-75539364D01*
X149451686Y-75539364D01*
X149225002Y-75519532D01*
X149224998Y-75519532D01*
X148998313Y-75539364D01*
X148998302Y-75539366D01*
X148778511Y-75598258D01*
X148778502Y-75598261D01*
X148572267Y-75694431D01*
X148572265Y-75694432D01*
X148385858Y-75824954D01*
X148224954Y-75985858D01*
X148094432Y-76172265D01*
X148094431Y-76172267D01*
X148089768Y-76182267D01*
X148070405Y-76223793D01*
X148067382Y-76230275D01*
X148021209Y-76282714D01*
X147954016Y-76301866D01*
X147887135Y-76281650D01*
X147842618Y-76230275D01*
X147839597Y-76223796D01*
X147815568Y-76172266D01*
X147746121Y-76073084D01*
X147685048Y-75985862D01*
X147605454Y-75906268D01*
X147524139Y-75824953D01*
X147501949Y-75809415D01*
X147488375Y-75799910D01*
X147444751Y-75745332D01*
X147435500Y-75698336D01*
X147435500Y-75212229D01*
X147455185Y-75145190D01*
X147471819Y-75124548D01*
X147580090Y-75016277D01*
X147689652Y-74906714D01*
X147750973Y-74873231D01*
X147788135Y-74870869D01*
X147931366Y-74883400D01*
X147954999Y-74885468D01*
X147955000Y-74885468D01*
X147955002Y-74885468D01*
X148011673Y-74880509D01*
X148181692Y-74865635D01*
X148401496Y-74806739D01*
X148607734Y-74710568D01*
X148794139Y-74580047D01*
X148955047Y-74419139D01*
X149085568Y-74232734D01*
X149181739Y-74026496D01*
X149240635Y-73806692D01*
X149260468Y-73580000D01*
X149245869Y-73413137D01*
X149259635Y-73344639D01*
X149281713Y-73314653D01*
X152250638Y-70345727D01*
X152264267Y-70333950D01*
X152283530Y-70319610D01*
X152283532Y-70319606D01*
X152283534Y-70319606D01*
X152307495Y-70291049D01*
X152317113Y-70279585D01*
X152320767Y-70275599D01*
X152326591Y-70269776D01*
X152346930Y-70244052D01*
X152396302Y-70185214D01*
X152396306Y-70185205D01*
X152400274Y-70179175D01*
X152400325Y-70179208D01*
X152404369Y-70172860D01*
X152404317Y-70172828D01*
X152408104Y-70166685D01*
X152408111Y-70166677D01*
X152440572Y-70097063D01*
X152475040Y-70028433D01*
X152475041Y-70028427D01*
X152477508Y-70021650D01*
X152477566Y-70021671D01*
X152480043Y-70014544D01*
X152479986Y-70014526D01*
X152482255Y-70007679D01*
X152482256Y-70007674D01*
X152482257Y-70007672D01*
X152497790Y-69932441D01*
X152515500Y-69857721D01*
X152515500Y-69857719D01*
X152516339Y-69850548D01*
X152516398Y-69850554D01*
X152517164Y-69843054D01*
X152517105Y-69843049D01*
X152517734Y-69835859D01*
X152516611Y-69797281D01*
X152515500Y-69759082D01*
X152515500Y-65517351D01*
X152535185Y-65450312D01*
X152587989Y-65404557D01*
X152626244Y-65394062D01*
X152650882Y-65391413D01*
X152653244Y-65391159D01*
X152722004Y-65403564D01*
G37*
%TD.AperFunction*%
%TA.AperFunction,Conductor*%
G36*
X159551318Y-94204040D02*
G01*
X159630605Y-94327413D01*
X159741438Y-94423451D01*
X159874839Y-94484373D01*
X159878633Y-94484918D01*
X159319656Y-95043894D01*
X159385083Y-95089706D01*
X159385085Y-95089707D01*
X159508683Y-95147342D01*
X159561122Y-95193514D01*
X159580274Y-95260708D01*
X159560058Y-95327589D01*
X159508683Y-95372106D01*
X159384833Y-95429857D01*
X159203444Y-95556868D01*
X159046868Y-95713444D01*
X158919858Y-95894833D01*
X158849882Y-96044898D01*
X158803710Y-96097337D01*
X158736516Y-96116489D01*
X158669635Y-96096273D01*
X158624301Y-96043108D01*
X158613500Y-95992493D01*
X158613500Y-94526323D01*
X158633185Y-94459284D01*
X158685989Y-94413529D01*
X158755147Y-94403585D01*
X158818703Y-94432610D01*
X158849882Y-94473918D01*
X158920295Y-94624919D01*
X158966103Y-94690341D01*
X158966105Y-94690342D01*
X159528866Y-94127580D01*
X159551318Y-94204040D01*
G37*
%TD.AperFunction*%
%TA.AperFunction,Conductor*%
G36*
X158818703Y-91893793D02*
G01*
X158849882Y-91935102D01*
X158898578Y-92039532D01*
X158919858Y-92085167D01*
X159046868Y-92266555D01*
X159203445Y-92423132D01*
X159384833Y-92550142D01*
X159508682Y-92607893D01*
X159561122Y-92654065D01*
X159580274Y-92721258D01*
X159560059Y-92788139D01*
X159508683Y-92832657D01*
X159385084Y-92890293D01*
X159319657Y-92936104D01*
X159878634Y-93495081D01*
X159874839Y-93495627D01*
X159741438Y-93556549D01*
X159630605Y-93652587D01*
X159551318Y-93775960D01*
X159528866Y-93852419D01*
X158966104Y-93289657D01*
X158920293Y-93355084D01*
X158849882Y-93506081D01*
X158803710Y-93558520D01*
X158736516Y-93577672D01*
X158669635Y-93557456D01*
X158624300Y-93504291D01*
X158613500Y-93453676D01*
X158613500Y-91987506D01*
X158633185Y-91920467D01*
X158685989Y-91874712D01*
X158755147Y-91864768D01*
X158818703Y-91893793D01*
G37*
%TD.AperFunction*%
%TA.AperFunction,Conductor*%
G36*
X142942865Y-77368348D02*
G01*
X142987381Y-77419724D01*
X142994576Y-77435152D01*
X143014429Y-77477728D01*
X143014432Y-77477734D01*
X143144954Y-77664141D01*
X143305858Y-77825045D01*
X143305861Y-77825047D01*
X143492266Y-77955568D01*
X143698504Y-78051739D01*
X143918308Y-78110635D01*
X144075780Y-78124412D01*
X144144998Y-78130468D01*
X144145000Y-78130468D01*
X144145002Y-78130468D01*
X144214220Y-78124412D01*
X144371692Y-78110635D01*
X144591496Y-78051739D01*
X144757158Y-77974488D01*
X144826234Y-77963997D01*
X144890018Y-77992516D01*
X144897240Y-77999187D01*
X144911921Y-78013867D01*
X144924561Y-78028665D01*
X144937037Y-78045837D01*
X144937039Y-78045839D01*
X144974464Y-78076799D01*
X144978776Y-78080722D01*
X145323132Y-78425077D01*
X145656564Y-78758509D01*
X145666640Y-78771086D01*
X145666827Y-78770932D01*
X145671795Y-78776937D01*
X145724260Y-78826205D01*
X145745961Y-78847907D01*
X145745965Y-78847910D01*
X145745966Y-78847911D01*
X145751759Y-78852404D01*
X145756191Y-78856190D01*
X145791607Y-78889448D01*
X145798517Y-78893247D01*
X145810207Y-78899674D01*
X145826468Y-78910355D01*
X145843237Y-78923363D01*
X145887827Y-78942658D01*
X145893056Y-78945220D01*
X145935632Y-78968627D01*
X145956193Y-78973905D01*
X145974597Y-78980207D01*
X145994074Y-78988636D01*
X146031927Y-78994630D01*
X146042054Y-78996235D01*
X146047764Y-78997417D01*
X146094823Y-79009500D01*
X146116045Y-79009500D01*
X146135442Y-79011026D01*
X146156405Y-79014347D01*
X146201104Y-79010121D01*
X146204770Y-79009775D01*
X146210608Y-79009500D01*
X147205500Y-79009500D01*
X147272539Y-79029185D01*
X147318294Y-79081989D01*
X147329500Y-79133500D01*
X147329500Y-83115950D01*
X147309815Y-83182989D01*
X147257011Y-83228744D01*
X147187853Y-83238688D01*
X147153099Y-83228334D01*
X147131498Y-83218262D01*
X147131488Y-83218258D01*
X146911697Y-83159366D01*
X146911693Y-83159365D01*
X146911692Y-83159365D01*
X146911691Y-83159364D01*
X146911686Y-83159364D01*
X146685002Y-83139532D01*
X146684998Y-83139532D01*
X146458313Y-83159364D01*
X146458302Y-83159366D01*
X146238511Y-83218258D01*
X146238502Y-83218261D01*
X146032267Y-83314431D01*
X146032265Y-83314432D01*
X145845858Y-83444954D01*
X145684954Y-83605858D01*
X145631614Y-83682037D01*
X145554432Y-83792266D01*
X145554315Y-83792518D01*
X145527106Y-83850867D01*
X145480933Y-83903306D01*
X145413739Y-83922457D01*
X145346858Y-83902241D01*
X145302342Y-83850865D01*
X145275135Y-83792520D01*
X145275134Y-83792518D01*
X145144657Y-83606179D01*
X144983820Y-83445342D01*
X144797482Y-83314865D01*
X144591328Y-83218734D01*
X144395000Y-83166127D01*
X144395000Y-84129314D01*
X144383045Y-84117359D01*
X144270148Y-84059835D01*
X144176481Y-84045000D01*
X144113519Y-84045000D01*
X144019852Y-84059835D01*
X143906955Y-84117359D01*
X143895000Y-84129314D01*
X143895000Y-83166127D01*
X143698671Y-83218734D01*
X143492517Y-83314865D01*
X143306179Y-83445342D01*
X143145339Y-83606182D01*
X143127806Y-83631222D01*
X143073229Y-83674845D01*
X143003730Y-83682037D01*
X142941376Y-83650513D01*
X142905963Y-83590283D01*
X142902943Y-83573349D01*
X142899091Y-83537516D01*
X142848797Y-83402671D01*
X142848793Y-83402664D01*
X142762547Y-83287455D01*
X142762544Y-83287452D01*
X142647335Y-83201206D01*
X142647328Y-83201202D01*
X142512482Y-83150908D01*
X142512483Y-83150908D01*
X142452883Y-83144501D01*
X142452881Y-83144500D01*
X142452873Y-83144500D01*
X142452865Y-83144500D01*
X140957500Y-83144500D01*
X140890461Y-83124815D01*
X140844706Y-83072011D01*
X140833500Y-83020500D01*
X140833500Y-78532452D01*
X140853185Y-78465413D01*
X140869819Y-78444771D01*
X141021088Y-78293502D01*
X141190179Y-78124410D01*
X141251500Y-78090927D01*
X141309947Y-78092317D01*
X141378308Y-78110635D01*
X141535780Y-78124412D01*
X141604998Y-78130468D01*
X141605000Y-78130468D01*
X141605002Y-78130468D01*
X141674220Y-78124412D01*
X141831692Y-78110635D01*
X142051496Y-78051739D01*
X142257734Y-77955568D01*
X142444139Y-77825047D01*
X142605047Y-77664139D01*
X142735568Y-77477734D01*
X142762618Y-77419724D01*
X142808790Y-77367285D01*
X142875983Y-77348133D01*
X142942865Y-77368348D01*
G37*
%TD.AperFunction*%
%TA.AperFunction,Conductor*%
G36*
X187394539Y-53487185D02*
G01*
X187440294Y-53539989D01*
X187451500Y-53591500D01*
X187451500Y-108714500D01*
X187431815Y-108781539D01*
X187379011Y-108827294D01*
X187327500Y-108838500D01*
X125854500Y-108838500D01*
X125787461Y-108818815D01*
X125741706Y-108766011D01*
X125730500Y-108714500D01*
X125730500Y-105918005D01*
X130900859Y-105918005D01*
X130921385Y-106165729D01*
X130921387Y-106165738D01*
X130982412Y-106406717D01*
X131082266Y-106634364D01*
X131182564Y-106787882D01*
X131880070Y-106090376D01*
X131882884Y-106103915D01*
X131952442Y-106238156D01*
X132055638Y-106348652D01*
X132184819Y-106427209D01*
X132236002Y-106441549D01*
X131535942Y-107141609D01*
X131582768Y-107178055D01*
X131582770Y-107178056D01*
X131801385Y-107296364D01*
X131801396Y-107296369D01*
X132036506Y-107377083D01*
X132281707Y-107418000D01*
X132530293Y-107418000D01*
X132775493Y-107377083D01*
X133010603Y-107296369D01*
X133010614Y-107296364D01*
X133229228Y-107178057D01*
X133229231Y-107178055D01*
X133276056Y-107141609D01*
X132577568Y-106443121D01*
X132694458Y-106392349D01*
X132811739Y-106296934D01*
X132898928Y-106173415D01*
X132929354Y-106087802D01*
X133629434Y-106787882D01*
X133729731Y-106634369D01*
X133829587Y-106406717D01*
X133890612Y-106165738D01*
X133890614Y-106165729D01*
X133911141Y-105918005D01*
X135400357Y-105918005D01*
X135420890Y-106165812D01*
X135420892Y-106165824D01*
X135481936Y-106406881D01*
X135581826Y-106634606D01*
X135717833Y-106842782D01*
X135745661Y-106873011D01*
X135886256Y-107025738D01*
X136082491Y-107178474D01*
X136082493Y-107178475D01*
X136300332Y-107296364D01*
X136301190Y-107296828D01*
X136383733Y-107325165D01*
X136534964Y-107377083D01*
X136536386Y-107377571D01*
X136781665Y-107418500D01*
X137030335Y-107418500D01*
X137275614Y-107377571D01*
X137510810Y-107296828D01*
X137729509Y-107178474D01*
X137925744Y-107025738D01*
X138094164Y-106842785D01*
X138230173Y-106634607D01*
X138330063Y-106406881D01*
X138391108Y-106165821D01*
X138396238Y-106103915D01*
X138411643Y-105918005D01*
X138411643Y-105917994D01*
X138391109Y-105670187D01*
X138391107Y-105670175D01*
X138330063Y-105429118D01*
X138230173Y-105201393D01*
X138094166Y-104993217D01*
X138057063Y-104952913D01*
X137925744Y-104810262D01*
X137729509Y-104657526D01*
X137729508Y-104657525D01*
X137729505Y-104657523D01*
X137729503Y-104657522D01*
X137596481Y-104585533D01*
X137546891Y-104536313D01*
X137531500Y-104476479D01*
X137531500Y-100859519D01*
X137551185Y-100792480D01*
X137596483Y-100750464D01*
X137613958Y-100741007D01*
X137729509Y-100678474D01*
X137925744Y-100525738D01*
X138094164Y-100342785D01*
X138230173Y-100134607D01*
X138330063Y-99906881D01*
X138391108Y-99665821D01*
X138397207Y-99592216D01*
X138411643Y-99418005D01*
X138411643Y-99417994D01*
X138391109Y-99170187D01*
X138391107Y-99170175D01*
X138330063Y-98929118D01*
X138230173Y-98701393D01*
X138094166Y-98493217D01*
X138040422Y-98434836D01*
X137925744Y-98310262D01*
X137729509Y-98157526D01*
X137729507Y-98157525D01*
X137729506Y-98157524D01*
X137510811Y-98039172D01*
X137510802Y-98039169D01*
X137275616Y-97958429D01*
X137030335Y-97917500D01*
X136781665Y-97917500D01*
X136536383Y-97958429D01*
X136301197Y-98039169D01*
X136301188Y-98039172D01*
X136082493Y-98157524D01*
X135886257Y-98310261D01*
X135717833Y-98493217D01*
X135581826Y-98701393D01*
X135481936Y-98929118D01*
X135420892Y-99170175D01*
X135420890Y-99170187D01*
X135400357Y-99417994D01*
X135400357Y-99418005D01*
X135420890Y-99665812D01*
X135420892Y-99665824D01*
X135481936Y-99906881D01*
X135581826Y-100134606D01*
X135717833Y-100342782D01*
X135717836Y-100342785D01*
X135886256Y-100525738D01*
X135898449Y-100535228D01*
X136081952Y-100678055D01*
X136082491Y-100678474D01*
X136198042Y-100741007D01*
X136215517Y-100750464D01*
X136265108Y-100799683D01*
X136280500Y-100859519D01*
X136280500Y-104476479D01*
X136260815Y-104543518D01*
X136215519Y-104585533D01*
X136082496Y-104657522D01*
X136082494Y-104657523D01*
X135886257Y-104810261D01*
X135717833Y-104993217D01*
X135581826Y-105201393D01*
X135481936Y-105429118D01*
X135420892Y-105670175D01*
X135420890Y-105670187D01*
X135400357Y-105917994D01*
X135400357Y-105918005D01*
X133911141Y-105918005D01*
X133911141Y-105917994D01*
X133890614Y-105670270D01*
X133890612Y-105670261D01*
X133829587Y-105429282D01*
X133729731Y-105201630D01*
X133629434Y-105048116D01*
X132931929Y-105745622D01*
X132929116Y-105732085D01*
X132859558Y-105597844D01*
X132756362Y-105487348D01*
X132627181Y-105408791D01*
X132575997Y-105394450D01*
X133276057Y-104694390D01*
X133276056Y-104694389D01*
X133229229Y-104657943D01*
X133010614Y-104539635D01*
X133010603Y-104539630D01*
X132775493Y-104458916D01*
X132530293Y-104418000D01*
X132281707Y-104418000D01*
X132036506Y-104458916D01*
X131801396Y-104539630D01*
X131801390Y-104539632D01*
X131582761Y-104657949D01*
X131535942Y-104694388D01*
X131535942Y-104694390D01*
X132234431Y-105392878D01*
X132117542Y-105443651D01*
X132000261Y-105539066D01*
X131913072Y-105662585D01*
X131882645Y-105748197D01*
X131182564Y-105048116D01*
X131082267Y-105201632D01*
X130982412Y-105429282D01*
X130921387Y-105670261D01*
X130921385Y-105670270D01*
X130900859Y-105917994D01*
X130900859Y-105918005D01*
X125730500Y-105918005D01*
X125730500Y-99418005D01*
X130900859Y-99418005D01*
X130921385Y-99665729D01*
X130921387Y-99665738D01*
X130982412Y-99906717D01*
X131082266Y-100134364D01*
X131182564Y-100287882D01*
X131880070Y-99590376D01*
X131882884Y-99603915D01*
X131952442Y-99738156D01*
X132055638Y-99848652D01*
X132184819Y-99927209D01*
X132236002Y-99941549D01*
X131535942Y-100641609D01*
X131582768Y-100678055D01*
X131582770Y-100678056D01*
X131801385Y-100796364D01*
X131801396Y-100796369D01*
X132036506Y-100877083D01*
X132281707Y-100918000D01*
X132530293Y-100918000D01*
X132775493Y-100877083D01*
X133010603Y-100796369D01*
X133010614Y-100796364D01*
X133229228Y-100678057D01*
X133229231Y-100678055D01*
X133276056Y-100641609D01*
X132577568Y-99943121D01*
X132694458Y-99892349D01*
X132811739Y-99796934D01*
X132898928Y-99673415D01*
X132929354Y-99587802D01*
X133629434Y-100287882D01*
X133729731Y-100134369D01*
X133829587Y-99906717D01*
X133890612Y-99665738D01*
X133890614Y-99665729D01*
X133911141Y-99418005D01*
X133911141Y-99417994D01*
X133890614Y-99170270D01*
X133890612Y-99170261D01*
X133829587Y-98929282D01*
X133729731Y-98701630D01*
X133629434Y-98548116D01*
X132931929Y-99245622D01*
X132929116Y-99232085D01*
X132859558Y-99097844D01*
X132756362Y-98987348D01*
X132627181Y-98908791D01*
X132575997Y-98894450D01*
X133276057Y-98194390D01*
X133276056Y-98194389D01*
X133229229Y-98157943D01*
X133010614Y-98039635D01*
X133010603Y-98039630D01*
X132775493Y-97958916D01*
X132530293Y-97918000D01*
X132281707Y-97918000D01*
X132036506Y-97958916D01*
X131801396Y-98039630D01*
X131801390Y-98039632D01*
X131582761Y-98157949D01*
X131535942Y-98194388D01*
X131535942Y-98194390D01*
X132234431Y-98892878D01*
X132117542Y-98943651D01*
X132000261Y-99039066D01*
X131913072Y-99162585D01*
X131882645Y-99248197D01*
X131182564Y-98548116D01*
X131082267Y-98701632D01*
X130982412Y-98929282D01*
X130921387Y-99170261D01*
X130921385Y-99170270D01*
X130900859Y-99417994D01*
X130900859Y-99418005D01*
X125730500Y-99418005D01*
X125730500Y-85640606D01*
X127438642Y-85640606D01*
X127444261Y-85671269D01*
X127449821Y-85701612D01*
X127450384Y-85705313D01*
X127457859Y-85766870D01*
X127457860Y-85766874D01*
X127461451Y-85776343D01*
X127467474Y-85797946D01*
X127469304Y-85807930D01*
X127494759Y-85864490D01*
X127496189Y-85867941D01*
X127518182Y-85925930D01*
X127518183Y-85925931D01*
X127523936Y-85934266D01*
X127534961Y-85953813D01*
X127539120Y-85963055D01*
X127539124Y-85963060D01*
X127577371Y-86011878D01*
X127579591Y-86014896D01*
X127614812Y-86065924D01*
X127614816Y-86065928D01*
X127614817Y-86065929D01*
X127661250Y-86107064D01*
X127663941Y-86109598D01*
X128559506Y-87005163D01*
X129447348Y-87893005D01*
X129480833Y-87954328D01*
X129479442Y-88012778D01*
X129474939Y-88029584D01*
X129474936Y-88029597D01*
X129454341Y-88264999D01*
X129454341Y-88265000D01*
X129474936Y-88500403D01*
X129474938Y-88500413D01*
X129536094Y-88728655D01*
X129536096Y-88728659D01*
X129536097Y-88728663D01*
X129616358Y-88900782D01*
X129635965Y-88942830D01*
X129635967Y-88942834D01*
X129723148Y-89067340D01*
X129767437Y-89130592D01*
X129771501Y-89136395D01*
X129771506Y-89136402D01*
X129938597Y-89303493D01*
X129938603Y-89303498D01*
X130124594Y-89433730D01*
X130168219Y-89488307D01*
X130175413Y-89557805D01*
X130143890Y-89620160D01*
X130124595Y-89636880D01*
X129938922Y-89766890D01*
X129938920Y-89766891D01*
X129771891Y-89933920D01*
X129771886Y-89933926D01*
X129636400Y-90127420D01*
X129636399Y-90127422D01*
X129536570Y-90341507D01*
X129536567Y-90341513D01*
X129479364Y-90554999D01*
X129479364Y-90555000D01*
X130376314Y-90555000D01*
X130350507Y-90595156D01*
X130310000Y-90733111D01*
X130310000Y-90876889D01*
X130350507Y-91014844D01*
X130376314Y-91055000D01*
X129479364Y-91055000D01*
X129536567Y-91268486D01*
X129536570Y-91268492D01*
X129636399Y-91482578D01*
X129771894Y-91676082D01*
X129893946Y-91798134D01*
X129927431Y-91859457D01*
X129922447Y-91929149D01*
X129880575Y-91985082D01*
X129849598Y-92001997D01*
X129717671Y-92051202D01*
X129717664Y-92051206D01*
X129602455Y-92137452D01*
X129602452Y-92137455D01*
X129516206Y-92252664D01*
X129516202Y-92252671D01*
X129465908Y-92387517D01*
X129459501Y-92447116D01*
X129459500Y-92447135D01*
X129459500Y-94242870D01*
X129459501Y-94242876D01*
X129465908Y-94302483D01*
X129516202Y-94437328D01*
X129516206Y-94437335D01*
X129602452Y-94552544D01*
X129602455Y-94552547D01*
X129717664Y-94638793D01*
X129717671Y-94638797D01*
X129852517Y-94689091D01*
X129852516Y-94689091D01*
X129859444Y-94689835D01*
X129912127Y-94695500D01*
X131707872Y-94695499D01*
X131767483Y-94689091D01*
X131902331Y-94638796D01*
X132017546Y-94552546D01*
X132103796Y-94437331D01*
X132154091Y-94302483D01*
X132160500Y-94242873D01*
X132160499Y-92930450D01*
X132180184Y-92863412D01*
X132196813Y-92842775D01*
X133261820Y-91777768D01*
X133323142Y-91744285D01*
X133392834Y-91749269D01*
X133448767Y-91791141D01*
X133473184Y-91856605D01*
X133473500Y-91865451D01*
X133473500Y-92768870D01*
X133473501Y-92768876D01*
X133479908Y-92828483D01*
X133530202Y-92963328D01*
X133530206Y-92963335D01*
X133616452Y-93078544D01*
X133616455Y-93078547D01*
X133731664Y-93164793D01*
X133731671Y-93164797D01*
X133866517Y-93215091D01*
X133866516Y-93215091D01*
X133872702Y-93215756D01*
X133926127Y-93221500D01*
X135821872Y-93221499D01*
X135881483Y-93215091D01*
X136016331Y-93164796D01*
X136131546Y-93078546D01*
X136217796Y-92963331D01*
X136268091Y-92828483D01*
X136274500Y-92768873D01*
X136274499Y-90873128D01*
X136268233Y-90814834D01*
X136268091Y-90813516D01*
X136217797Y-90678671D01*
X136217793Y-90678664D01*
X136131547Y-90563455D01*
X136131544Y-90563452D01*
X136016335Y-90477206D01*
X136016328Y-90477202D01*
X135936094Y-90447277D01*
X135880160Y-90405406D01*
X135855743Y-90339941D01*
X135870595Y-90271668D01*
X135888190Y-90247121D01*
X135982979Y-90144153D01*
X136109924Y-89949849D01*
X136203157Y-89737300D01*
X136260134Y-89512305D01*
X136261838Y-89491739D01*
X136279300Y-89281006D01*
X136279300Y-89280993D01*
X136260135Y-89049702D01*
X136260133Y-89049691D01*
X136203157Y-88824699D01*
X136109924Y-88612151D01*
X135982983Y-88417852D01*
X135982980Y-88417849D01*
X135982979Y-88417847D01*
X135825784Y-88247087D01*
X135825779Y-88247083D01*
X135825777Y-88247081D01*
X135642634Y-88104535D01*
X135642628Y-88104531D01*
X135438504Y-87994064D01*
X135438495Y-87994061D01*
X135218984Y-87918702D01*
X135047282Y-87890050D01*
X134990049Y-87880500D01*
X134757951Y-87880500D01*
X134700718Y-87890050D01*
X134529016Y-87918702D01*
X134503421Y-87927489D01*
X134433622Y-87930638D01*
X134375478Y-87897888D01*
X134310818Y-87833227D01*
X134277334Y-87771903D01*
X134274500Y-87745546D01*
X134274500Y-85344000D01*
X137270540Y-85344000D01*
X137290326Y-85532256D01*
X137290327Y-85532259D01*
X137348818Y-85712277D01*
X137348821Y-85712284D01*
X137443467Y-85876216D01*
X137521662Y-85963060D01*
X137570129Y-86016888D01*
X137723265Y-86128148D01*
X137723270Y-86128151D01*
X137896192Y-86205142D01*
X137896197Y-86205144D01*
X138081354Y-86244500D01*
X138081355Y-86244500D01*
X138188500Y-86244500D01*
X138255539Y-86264185D01*
X138301294Y-86316989D01*
X138312500Y-86368500D01*
X138312500Y-95821312D01*
X138292815Y-95888351D01*
X138280650Y-95904284D01*
X138205466Y-95987784D01*
X138110821Y-96151715D01*
X138110818Y-96151722D01*
X138052406Y-96331497D01*
X138052326Y-96331744D01*
X138032540Y-96520000D01*
X138052326Y-96708256D01*
X138052327Y-96708259D01*
X138110818Y-96888277D01*
X138110821Y-96888284D01*
X138205467Y-97052216D01*
X138312511Y-97171100D01*
X138332129Y-97192888D01*
X138485265Y-97304148D01*
X138485270Y-97304151D01*
X138658192Y-97381142D01*
X138658197Y-97381144D01*
X138843354Y-97420500D01*
X138843355Y-97420500D01*
X139032644Y-97420500D01*
X139032646Y-97420500D01*
X139217803Y-97381144D01*
X139390730Y-97304151D01*
X139390733Y-97304148D01*
X139396363Y-97300899D01*
X139397904Y-97303569D01*
X139450948Y-97284415D01*
X139519062Y-97299980D01*
X139567948Y-97349900D01*
X139582500Y-97408185D01*
X139582500Y-100675255D01*
X139580775Y-100690872D01*
X139581061Y-100690899D01*
X139580326Y-100698665D01*
X139582500Y-100767814D01*
X139582500Y-100797343D01*
X139582501Y-100797360D01*
X139583368Y-100804231D01*
X139583826Y-100810050D01*
X139585290Y-100856624D01*
X139585291Y-100856627D01*
X139590880Y-100875867D01*
X139594824Y-100894911D01*
X139597336Y-100914792D01*
X139602572Y-100928017D01*
X139614490Y-100958119D01*
X139616382Y-100963647D01*
X139629381Y-101008388D01*
X139639580Y-101025634D01*
X139648138Y-101043103D01*
X139655514Y-101061732D01*
X139682898Y-101099423D01*
X139686106Y-101104307D01*
X139709827Y-101144416D01*
X139709833Y-101144424D01*
X139723990Y-101158580D01*
X139736628Y-101173376D01*
X139748405Y-101189586D01*
X139748406Y-101189587D01*
X139784309Y-101219288D01*
X139788620Y-101223210D01*
X140660511Y-102095102D01*
X140940586Y-102375177D01*
X140974071Y-102436500D01*
X140972680Y-102494949D01*
X140954367Y-102563296D01*
X140954364Y-102563313D01*
X140934532Y-102789999D01*
X140934532Y-102790001D01*
X140954364Y-103016686D01*
X140954366Y-103016697D01*
X141013258Y-103236488D01*
X141013261Y-103236497D01*
X141109431Y-103442732D01*
X141109432Y-103442734D01*
X141239954Y-103629141D01*
X141400858Y-103790045D01*
X141434139Y-103813348D01*
X141587266Y-103920568D01*
X141793504Y-104016739D01*
X142013308Y-104075635D01*
X142175230Y-104089801D01*
X142239998Y-104095468D01*
X142240000Y-104095468D01*
X142240002Y-104095468D01*
X142296673Y-104090509D01*
X142466692Y-104075635D01*
X142686496Y-104016739D01*
X142892734Y-103920568D01*
X143079139Y-103790047D01*
X143240047Y-103629139D01*
X143370568Y-103442734D01*
X143466739Y-103236496D01*
X143525635Y-103016692D01*
X143545468Y-102790000D01*
X143525635Y-102563308D01*
X143466739Y-102343504D01*
X143370568Y-102137266D01*
X143240047Y-101950861D01*
X143240045Y-101950858D01*
X143079141Y-101789954D01*
X142892734Y-101659432D01*
X142892732Y-101659431D01*
X142686497Y-101563261D01*
X142686488Y-101563258D01*
X142466697Y-101504366D01*
X142466693Y-101504365D01*
X142466692Y-101504365D01*
X142466691Y-101504364D01*
X142466686Y-101504364D01*
X142240002Y-101484532D01*
X142239999Y-101484532D01*
X142013313Y-101504364D01*
X142013296Y-101504367D01*
X141944949Y-101522680D01*
X141875099Y-101521016D01*
X141825177Y-101490586D01*
X140869819Y-100535228D01*
X140836334Y-100473905D01*
X140833500Y-100447547D01*
X140833500Y-99695002D01*
X144745034Y-99695002D01*
X144764858Y-99921599D01*
X144764860Y-99921610D01*
X144823730Y-100141317D01*
X144823734Y-100141326D01*
X144919865Y-100347481D01*
X144919866Y-100347483D01*
X144970973Y-100420471D01*
X144970974Y-100420472D01*
X145652046Y-99739399D01*
X145664835Y-99820148D01*
X145722359Y-99933045D01*
X145811955Y-100022641D01*
X145924852Y-100080165D01*
X146005599Y-100092953D01*
X145324526Y-100774025D01*
X145324526Y-100774026D01*
X145397512Y-100825131D01*
X145397516Y-100825133D01*
X145603673Y-100921265D01*
X145603682Y-100921269D01*
X145823389Y-100980139D01*
X145823400Y-100980141D01*
X146049998Y-100999966D01*
X146050002Y-100999966D01*
X146276599Y-100980141D01*
X146276610Y-100980139D01*
X146496317Y-100921269D01*
X146496331Y-100921264D01*
X146702478Y-100825136D01*
X146775472Y-100774025D01*
X146094401Y-100092953D01*
X146175148Y-100080165D01*
X146288045Y-100022641D01*
X146377641Y-99933045D01*
X146435165Y-99820148D01*
X146447953Y-99739400D01*
X147129025Y-100420472D01*
X147180136Y-100347478D01*
X147276264Y-100141331D01*
X147276269Y-100141317D01*
X147335139Y-99921610D01*
X147335141Y-99921599D01*
X147354966Y-99695002D01*
X147354966Y-99694997D01*
X147335141Y-99468400D01*
X147335139Y-99468389D01*
X147276269Y-99248682D01*
X147276265Y-99248673D01*
X147180133Y-99042516D01*
X147180131Y-99042512D01*
X147129026Y-98969526D01*
X147129025Y-98969526D01*
X146447953Y-99650598D01*
X146435165Y-99569852D01*
X146377641Y-99456955D01*
X146288045Y-99367359D01*
X146175148Y-99309835D01*
X146094400Y-99297046D01*
X146775472Y-98615974D01*
X146775471Y-98615973D01*
X146702483Y-98564866D01*
X146702481Y-98564865D01*
X146496326Y-98468734D01*
X146496317Y-98468730D01*
X146276610Y-98409860D01*
X146276599Y-98409858D01*
X146050002Y-98390034D01*
X146049998Y-98390034D01*
X145823400Y-98409858D01*
X145823389Y-98409860D01*
X145603682Y-98468730D01*
X145603673Y-98468734D01*
X145397513Y-98564868D01*
X145324527Y-98615972D01*
X145324526Y-98615973D01*
X146005600Y-99297046D01*
X145924852Y-99309835D01*
X145811955Y-99367359D01*
X145722359Y-99456955D01*
X145664835Y-99569852D01*
X145652046Y-99650599D01*
X144970973Y-98969526D01*
X144970972Y-98969527D01*
X144919868Y-99042513D01*
X144823734Y-99248673D01*
X144823730Y-99248682D01*
X144764860Y-99468389D01*
X144764858Y-99468400D01*
X144745034Y-99694997D01*
X144745034Y-99695002D01*
X140833500Y-99695002D01*
X140833500Y-98410323D01*
X140853185Y-98343284D01*
X140905989Y-98297529D01*
X140975147Y-98287585D01*
X141038703Y-98316610D01*
X141069880Y-98357915D01*
X141101163Y-98425001D01*
X141109431Y-98442732D01*
X141109432Y-98442734D01*
X141239954Y-98629141D01*
X141400858Y-98790045D01*
X141400861Y-98790047D01*
X141587266Y-98920568D01*
X141793504Y-99016739D01*
X142013308Y-99075635D01*
X142175230Y-99089801D01*
X142239998Y-99095468D01*
X142240000Y-99095468D01*
X142240002Y-99095468D01*
X142296673Y-99090509D01*
X142466692Y-99075635D01*
X142686496Y-99016739D01*
X142892734Y-98920568D01*
X143079139Y-98790047D01*
X143240047Y-98629139D01*
X143370568Y-98442734D01*
X143466739Y-98236496D01*
X143525635Y-98016692D01*
X143545468Y-97790000D01*
X143543916Y-97772266D01*
X143527608Y-97585861D01*
X143525635Y-97563308D01*
X143466739Y-97343504D01*
X143370568Y-97137266D01*
X143249580Y-96964475D01*
X143240045Y-96950858D01*
X143079140Y-96789953D01*
X142918377Y-96677386D01*
X142874752Y-96622809D01*
X142865500Y-96575811D01*
X142865500Y-96464188D01*
X142885185Y-96397149D01*
X142918377Y-96362613D01*
X142994353Y-96309414D01*
X143079139Y-96250047D01*
X143240047Y-96089139D01*
X143370568Y-95902734D01*
X143466739Y-95696496D01*
X143525635Y-95476692D01*
X143545468Y-95250000D01*
X143543916Y-95232266D01*
X143536511Y-95147618D01*
X143525635Y-95023308D01*
X143466739Y-94803504D01*
X143370568Y-94597266D01*
X143240047Y-94410861D01*
X143240045Y-94410858D01*
X143079140Y-94249953D01*
X142918377Y-94137386D01*
X142874752Y-94082809D01*
X142865500Y-94035811D01*
X142865500Y-93215758D01*
X142885185Y-93148719D01*
X142937989Y-93102964D01*
X142937990Y-93102963D01*
X142973144Y-93086909D01*
X142973143Y-93086909D01*
X142973155Y-93086904D01*
X143094226Y-93009097D01*
X143094234Y-93009089D01*
X143094237Y-93009088D01*
X143202887Y-92914943D01*
X143202890Y-92914940D01*
X143297139Y-92806170D01*
X143374871Y-92685216D01*
X143434658Y-92554300D01*
X143475165Y-92416345D01*
X143495647Y-92273889D01*
X143495647Y-91702000D01*
X143490500Y-91630039D01*
X143479546Y-91592733D01*
X143475784Y-91540149D01*
X143480742Y-91505666D01*
X143495647Y-91402000D01*
X143495647Y-90830111D01*
X143475165Y-90687655D01*
X143434658Y-90549700D01*
X143374871Y-90418784D01*
X143332723Y-90353200D01*
X143297140Y-90297831D01*
X143297143Y-90297834D01*
X143202891Y-90189060D01*
X143202887Y-90189057D01*
X143094237Y-90094911D01*
X143094216Y-90094896D01*
X142973171Y-90017105D01*
X142973151Y-90017094D01*
X142937986Y-90001034D01*
X142885183Y-89955278D01*
X142865500Y-89888241D01*
X142865500Y-88844188D01*
X142885185Y-88777149D01*
X142918377Y-88742613D01*
X142994353Y-88689414D01*
X143079139Y-88630047D01*
X143240047Y-88469139D01*
X143370568Y-88282734D01*
X143466739Y-88076496D01*
X143525635Y-87856692D01*
X143545468Y-87630000D01*
X143543916Y-87612266D01*
X143531482Y-87470142D01*
X143525635Y-87403308D01*
X143466739Y-87183504D01*
X143370568Y-86977266D01*
X143263943Y-86824989D01*
X143240045Y-86790858D01*
X143079140Y-86629953D01*
X142918377Y-86517386D01*
X142874752Y-86462809D01*
X142865500Y-86415811D01*
X142865500Y-85464917D01*
X142873318Y-85421584D01*
X142899090Y-85352486D01*
X142899090Y-85352485D01*
X142899091Y-85352483D01*
X142902944Y-85316644D01*
X142929679Y-85252098D01*
X142987070Y-85212248D01*
X143056895Y-85209753D01*
X143116985Y-85245404D01*
X143127806Y-85258777D01*
X143145341Y-85283819D01*
X143306179Y-85444657D01*
X143492517Y-85575134D01*
X143698673Y-85671265D01*
X143698682Y-85671269D01*
X143894999Y-85723872D01*
X143895000Y-85723871D01*
X143895000Y-84760686D01*
X143906955Y-84772641D01*
X144019852Y-84830165D01*
X144113519Y-84845000D01*
X144176481Y-84845000D01*
X144270148Y-84830165D01*
X144383045Y-84772641D01*
X144395000Y-84760686D01*
X144395000Y-85723872D01*
X144413290Y-85737906D01*
X144418227Y-85738024D01*
X144476091Y-85777184D01*
X144503598Y-85841412D01*
X144502947Y-85875551D01*
X144501269Y-85886135D01*
X144500086Y-85891849D01*
X144488501Y-85936972D01*
X144488500Y-85936982D01*
X144488500Y-85957016D01*
X144486973Y-85976413D01*
X144483840Y-85996196D01*
X144485608Y-86014896D01*
X144488225Y-86042583D01*
X144488500Y-86048421D01*
X144488500Y-88940228D01*
X144468815Y-89007267D01*
X144435623Y-89041803D01*
X144287765Y-89145333D01*
X144129334Y-89303764D01*
X144000819Y-89487304D01*
X144000818Y-89487306D01*
X143906129Y-89690368D01*
X143906126Y-89690374D01*
X143848137Y-89906791D01*
X143848136Y-89906799D01*
X143828609Y-90129998D01*
X143828609Y-90130001D01*
X143848136Y-90353200D01*
X143848137Y-90353208D01*
X143906126Y-90569625D01*
X143906127Y-90569627D01*
X143906128Y-90569630D01*
X143989168Y-90747710D01*
X144000819Y-90772696D01*
X144000821Y-90772700D01*
X144129329Y-90956228D01*
X144129334Y-90956234D01*
X144287765Y-91114665D01*
X144287771Y-91114670D01*
X144471299Y-91243178D01*
X144471301Y-91243179D01*
X144471304Y-91243181D01*
X144674370Y-91337872D01*
X144890794Y-91395863D01*
X145050226Y-91409811D01*
X145113998Y-91415391D01*
X145114000Y-91415391D01*
X145114002Y-91415391D01*
X145169801Y-91410509D01*
X145337206Y-91395863D01*
X145553630Y-91337872D01*
X145756696Y-91243181D01*
X145940233Y-91114667D01*
X146098667Y-90956233D01*
X146227181Y-90772696D01*
X146321872Y-90569630D01*
X146379863Y-90353206D01*
X146398153Y-90144146D01*
X146399391Y-90130001D01*
X146399391Y-90129998D01*
X146384105Y-89955280D01*
X146379863Y-89906794D01*
X146321872Y-89690370D01*
X146227181Y-89487305D01*
X146128586Y-89346496D01*
X146098668Y-89303768D01*
X146040521Y-89245621D01*
X145940233Y-89145333D01*
X145881402Y-89104139D01*
X145792376Y-89041802D01*
X145748751Y-88987225D01*
X145739500Y-88940227D01*
X145739500Y-86326451D01*
X145759185Y-86259412D01*
X145775815Y-86238774D01*
X146270178Y-85744410D01*
X146331499Y-85710927D01*
X146389946Y-85712317D01*
X146458308Y-85730635D01*
X146613848Y-85744243D01*
X146684998Y-85750468D01*
X146685000Y-85750468D01*
X146685002Y-85750468D01*
X146754220Y-85744412D01*
X146911692Y-85730635D01*
X147131496Y-85671739D01*
X147153093Y-85661667D01*
X147222169Y-85651173D01*
X147285954Y-85679691D01*
X147324195Y-85738167D01*
X147329500Y-85774048D01*
X147329500Y-93074546D01*
X147309815Y-93141585D01*
X147293181Y-93162227D01*
X145869821Y-94585586D01*
X145808498Y-94619071D01*
X145750048Y-94617680D01*
X145681697Y-94599366D01*
X145681693Y-94599365D01*
X145681692Y-94599365D01*
X145568346Y-94589448D01*
X145455001Y-94579532D01*
X145454998Y-94579532D01*
X145228313Y-94599364D01*
X145228302Y-94599366D01*
X145008511Y-94658258D01*
X145008502Y-94658261D01*
X144802267Y-94754431D01*
X144802265Y-94754432D01*
X144615858Y-94884954D01*
X144454954Y-95045858D01*
X144324432Y-95232265D01*
X144324431Y-95232267D01*
X144228261Y-95438502D01*
X144228258Y-95438511D01*
X144169366Y-95658302D01*
X144169364Y-95658313D01*
X144149532Y-95884998D01*
X144149532Y-95885001D01*
X144169364Y-96111686D01*
X144169366Y-96111697D01*
X144228258Y-96331488D01*
X144228261Y-96331497D01*
X144324431Y-96537732D01*
X144324432Y-96537734D01*
X144454954Y-96724141D01*
X144615858Y-96885045D01*
X144615861Y-96885047D01*
X144802266Y-97015568D01*
X145008504Y-97111739D01*
X145008509Y-97111740D01*
X145008511Y-97111741D01*
X145037588Y-97119532D01*
X145228308Y-97170635D01*
X145390230Y-97184801D01*
X145454998Y-97190468D01*
X145455000Y-97190468D01*
X145455002Y-97190468D01*
X145511673Y-97185509D01*
X145681692Y-97170635D01*
X145901496Y-97111739D01*
X146107734Y-97015568D01*
X146294139Y-96885047D01*
X146455047Y-96724139D01*
X146585568Y-96537734D01*
X146681739Y-96331496D01*
X146740635Y-96111692D01*
X146758781Y-95904284D01*
X146760468Y-95885001D01*
X146760468Y-95884998D01*
X146745459Y-95713445D01*
X146740635Y-95658308D01*
X146722318Y-95589948D01*
X146723981Y-95520103D01*
X146754410Y-95470179D01*
X147879819Y-94344771D01*
X147941142Y-94311286D01*
X148010834Y-94316270D01*
X148066767Y-94358142D01*
X148091184Y-94423606D01*
X148091500Y-94432452D01*
X148091500Y-103067547D01*
X148071815Y-103134586D01*
X148055181Y-103155228D01*
X146505646Y-104704762D01*
X146444323Y-104738247D01*
X146385872Y-104736856D01*
X146285413Y-104709938D01*
X146285403Y-104709936D01*
X146050001Y-104689341D01*
X146049999Y-104689341D01*
X145814596Y-104709936D01*
X145814586Y-104709938D01*
X145586344Y-104771094D01*
X145586335Y-104771098D01*
X145372171Y-104870964D01*
X145372169Y-104870965D01*
X145178597Y-105006505D01*
X145011505Y-105173597D01*
X144881575Y-105359158D01*
X144826998Y-105402783D01*
X144757500Y-105409977D01*
X144695145Y-105378454D01*
X144678425Y-105359158D01*
X144548494Y-105173597D01*
X144381402Y-105006506D01*
X144381395Y-105006501D01*
X144187834Y-104870967D01*
X144187830Y-104870965D01*
X144057650Y-104810261D01*
X143973663Y-104771097D01*
X143973659Y-104771096D01*
X143973655Y-104771094D01*
X143745413Y-104709938D01*
X143745403Y-104709936D01*
X143510001Y-104689341D01*
X143509999Y-104689341D01*
X143274596Y-104709936D01*
X143274586Y-104709938D01*
X143046344Y-104771094D01*
X143046335Y-104771098D01*
X142832171Y-104870964D01*
X142832169Y-104870965D01*
X142638597Y-105006505D01*
X142471505Y-105173597D01*
X142335965Y-105367169D01*
X142335964Y-105367171D01*
X142236098Y-105581335D01*
X142236094Y-105581344D01*
X142174938Y-105809586D01*
X142174936Y-105809596D01*
X142154341Y-106044999D01*
X142154341Y-106045000D01*
X142174936Y-106280403D01*
X142174938Y-106280413D01*
X142236094Y-106508655D01*
X142236096Y-106508659D01*
X142236097Y-106508663D01*
X142294826Y-106634607D01*
X142335965Y-106722830D01*
X142335967Y-106722834D01*
X142419956Y-106842782D01*
X142471505Y-106916401D01*
X142638599Y-107083495D01*
X142697132Y-107124480D01*
X142832165Y-107219032D01*
X142832167Y-107219033D01*
X142832170Y-107219035D01*
X143046337Y-107318903D01*
X143274592Y-107380063D01*
X143462918Y-107396539D01*
X143509999Y-107400659D01*
X143510000Y-107400659D01*
X143510001Y-107400659D01*
X143552289Y-107396959D01*
X143723014Y-107382022D01*
X143791513Y-107395788D01*
X143821502Y-107417869D01*
X144585267Y-108181634D01*
X144597048Y-108195266D01*
X144611390Y-108214530D01*
X144651420Y-108248119D01*
X144655392Y-108251759D01*
X144661224Y-108257591D01*
X144661227Y-108257594D01*
X144686947Y-108277931D01*
X144745788Y-108327304D01*
X144751818Y-108331270D01*
X144751785Y-108331319D01*
X144758143Y-108335369D01*
X144758175Y-108335319D01*
X144764320Y-108339109D01*
X144764323Y-108339111D01*
X144833936Y-108371572D01*
X144902567Y-108406040D01*
X144902572Y-108406041D01*
X144909361Y-108408513D01*
X144909340Y-108408570D01*
X144916455Y-108411043D01*
X144916475Y-108410986D01*
X144923330Y-108413258D01*
X144998558Y-108428790D01*
X145073279Y-108446500D01*
X145073289Y-108446500D01*
X145080452Y-108447338D01*
X145080444Y-108447397D01*
X145087945Y-108448164D01*
X145087951Y-108448105D01*
X145095140Y-108448734D01*
X145095144Y-108448733D01*
X145095145Y-108448734D01*
X145171918Y-108446500D01*
X158950295Y-108446500D01*
X158968265Y-108447809D01*
X158992023Y-108451289D01*
X159044068Y-108446735D01*
X159049470Y-108446500D01*
X159057704Y-108446500D01*
X159057709Y-108446500D01*
X159069327Y-108445141D01*
X159090276Y-108442693D01*
X159103028Y-108441577D01*
X159166797Y-108435999D01*
X159166805Y-108435996D01*
X159173866Y-108434539D01*
X159173878Y-108434598D01*
X159181243Y-108432965D01*
X159181229Y-108432906D01*
X159188246Y-108431241D01*
X159188255Y-108431241D01*
X159260423Y-108404974D01*
X159333334Y-108380814D01*
X159333343Y-108380807D01*
X159339882Y-108377760D01*
X159339908Y-108377816D01*
X159346690Y-108374532D01*
X159346663Y-108374478D01*
X159353106Y-108371240D01*
X159353117Y-108371237D01*
X159417283Y-108329034D01*
X159482656Y-108288712D01*
X159482662Y-108288705D01*
X159488325Y-108284229D01*
X159488363Y-108284277D01*
X159494200Y-108279522D01*
X159494161Y-108279475D01*
X159499696Y-108274830D01*
X159552385Y-108218983D01*
X159630575Y-108140791D01*
X159786961Y-107984405D01*
X159848280Y-107950923D01*
X159885442Y-107948561D01*
X160020000Y-107960334D01*
X160020002Y-107960334D01*
X160075147Y-107955509D01*
X160240591Y-107941035D01*
X160454480Y-107883723D01*
X160655167Y-107790142D01*
X160836555Y-107663132D01*
X160993132Y-107506555D01*
X161120142Y-107325167D01*
X161213723Y-107124480D01*
X161271035Y-106910591D01*
X161290334Y-106690000D01*
X161271035Y-106469409D01*
X161213723Y-106255520D01*
X161120142Y-106054833D01*
X160993132Y-105873445D01*
X160836555Y-105716868D01*
X160655167Y-105589858D01*
X160636908Y-105581344D01*
X160531908Y-105532382D01*
X160479468Y-105486210D01*
X160460316Y-105419017D01*
X160480531Y-105352136D01*
X160531908Y-105307618D01*
X160655167Y-105250142D01*
X160836555Y-105123132D01*
X160993132Y-104966555D01*
X161120142Y-104785167D01*
X161213723Y-104584480D01*
X161271035Y-104370591D01*
X161290334Y-104150000D01*
X161287521Y-104117852D01*
X161271035Y-103929414D01*
X161271035Y-103929409D01*
X161213723Y-103715520D01*
X161120142Y-103514833D01*
X160993132Y-103333445D01*
X160836555Y-103176868D01*
X160655167Y-103049858D01*
X160531907Y-102992381D01*
X160479468Y-102946210D01*
X160460316Y-102879017D01*
X160480531Y-102812136D01*
X160531908Y-102767618D01*
X160655167Y-102710142D01*
X160836555Y-102583132D01*
X160993132Y-102426555D01*
X161120142Y-102245167D01*
X161213723Y-102044480D01*
X161271035Y-101830591D01*
X161290334Y-101610000D01*
X161271035Y-101389409D01*
X161213723Y-101175520D01*
X161212723Y-101173376D01*
X161160663Y-101061732D01*
X161120142Y-100974833D01*
X160993132Y-100793445D01*
X160836555Y-100636868D01*
X160655167Y-100509858D01*
X160531907Y-100452381D01*
X160479468Y-100406210D01*
X160460316Y-100339017D01*
X160480531Y-100272136D01*
X160531908Y-100227618D01*
X160655167Y-100170142D01*
X160836555Y-100043132D01*
X160993132Y-99886555D01*
X161120142Y-99705167D01*
X161213723Y-99504480D01*
X161271035Y-99290591D01*
X161290334Y-99070000D01*
X161287929Y-99042516D01*
X161278023Y-98929282D01*
X161271035Y-98849409D01*
X161213723Y-98635520D01*
X161210748Y-98629141D01*
X161163485Y-98527784D01*
X161120142Y-98434833D01*
X161113258Y-98425001D01*
X166334532Y-98425001D01*
X166354364Y-98651686D01*
X166354366Y-98651697D01*
X166413258Y-98871488D01*
X166413261Y-98871497D01*
X166509431Y-99077732D01*
X166509432Y-99077734D01*
X166639954Y-99264141D01*
X166800858Y-99425045D01*
X166800861Y-99425047D01*
X166987266Y-99555568D01*
X167193504Y-99651739D01*
X167413308Y-99710635D01*
X167575230Y-99724801D01*
X167639998Y-99730468D01*
X167640000Y-99730468D01*
X167640002Y-99730468D01*
X167696673Y-99725509D01*
X167866692Y-99710635D01*
X168086496Y-99651739D01*
X168292734Y-99555568D01*
X168479139Y-99425047D01*
X168640047Y-99264139D01*
X168770568Y-99077734D01*
X168866739Y-98871496D01*
X168925635Y-98651692D01*
X168943612Y-98446209D01*
X168945468Y-98425001D01*
X168945468Y-98424998D01*
X168935430Y-98310262D01*
X168925635Y-98198308D01*
X168866739Y-97978504D01*
X168770568Y-97772266D01*
X168640047Y-97585861D01*
X168640045Y-97585858D01*
X168479141Y-97424954D01*
X168292734Y-97294432D01*
X168292732Y-97294431D01*
X168086497Y-97198261D01*
X168086488Y-97198258D01*
X167866697Y-97139366D01*
X167866693Y-97139365D01*
X167866692Y-97139365D01*
X167866691Y-97139364D01*
X167866686Y-97139364D01*
X167640002Y-97119532D01*
X167639998Y-97119532D01*
X167413313Y-97139364D01*
X167413302Y-97139366D01*
X167193511Y-97198258D01*
X167193502Y-97198261D01*
X166987267Y-97294431D01*
X166987265Y-97294432D01*
X166800858Y-97424954D01*
X166639954Y-97585858D01*
X166509432Y-97772265D01*
X166509431Y-97772267D01*
X166413261Y-97978502D01*
X166413258Y-97978511D01*
X166354366Y-98198302D01*
X166354364Y-98198313D01*
X166334532Y-98424998D01*
X166334532Y-98425001D01*
X161113258Y-98425001D01*
X160993132Y-98253445D01*
X160836555Y-98096868D01*
X160655167Y-97969858D01*
X160531907Y-97912381D01*
X160479468Y-97866210D01*
X160460316Y-97799017D01*
X160480531Y-97732136D01*
X160531908Y-97687618D01*
X160655167Y-97630142D01*
X160836555Y-97503132D01*
X160993132Y-97346555D01*
X161120142Y-97165167D01*
X161213723Y-96964480D01*
X161271035Y-96750591D01*
X161289657Y-96537734D01*
X161290334Y-96530001D01*
X161290334Y-96529998D01*
X161278612Y-96396021D01*
X161271035Y-96309409D01*
X161213723Y-96095520D01*
X161210748Y-96089141D01*
X161120143Y-95894836D01*
X161120142Y-95894834D01*
X161120142Y-95894833D01*
X160993132Y-95713445D01*
X160836555Y-95556868D01*
X160655167Y-95429858D01*
X160655163Y-95429856D01*
X160531317Y-95372106D01*
X160478877Y-95325934D01*
X160459725Y-95258741D01*
X160479941Y-95191859D01*
X160531317Y-95147342D01*
X160654912Y-95089708D01*
X160654914Y-95089707D01*
X160720342Y-95043894D01*
X160161366Y-94484918D01*
X160165161Y-94484373D01*
X160298562Y-94423451D01*
X160409395Y-94327413D01*
X160488682Y-94204040D01*
X160511132Y-94127580D01*
X161073894Y-94690342D01*
X161119706Y-94624915D01*
X161213250Y-94424309D01*
X161213254Y-94424300D01*
X161270538Y-94210509D01*
X161270540Y-94210499D01*
X161289832Y-93990000D01*
X161289832Y-93989999D01*
X161270540Y-93769500D01*
X161270538Y-93769490D01*
X161213254Y-93555699D01*
X161213250Y-93555690D01*
X161119707Y-93355085D01*
X161119706Y-93355083D01*
X161112646Y-93345001D01*
X166334532Y-93345001D01*
X166354364Y-93571686D01*
X166354366Y-93571697D01*
X166413258Y-93791488D01*
X166413261Y-93791497D01*
X166509431Y-93997732D01*
X166509432Y-93997734D01*
X166639954Y-94184141D01*
X166800858Y-94345045D01*
X166800861Y-94345047D01*
X166987266Y-94475568D01*
X167193504Y-94571739D01*
X167413308Y-94630635D01*
X167575230Y-94644801D01*
X167639998Y-94650468D01*
X167640000Y-94650468D01*
X167640002Y-94650468D01*
X167696673Y-94645509D01*
X167866692Y-94630635D01*
X168086496Y-94571739D01*
X168292734Y-94475568D01*
X168479139Y-94345047D01*
X168640047Y-94184139D01*
X168770568Y-93997734D01*
X168866739Y-93791496D01*
X168925635Y-93571692D01*
X168944586Y-93355083D01*
X168945468Y-93345001D01*
X168945468Y-93344998D01*
X168934161Y-93215758D01*
X168925635Y-93118308D01*
X168866739Y-92898504D01*
X168770568Y-92692266D01*
X168640047Y-92505861D01*
X168640045Y-92505858D01*
X168479141Y-92344954D01*
X168292734Y-92214432D01*
X168292732Y-92214431D01*
X168086497Y-92118261D01*
X168086488Y-92118258D01*
X167866697Y-92059366D01*
X167866693Y-92059365D01*
X167866692Y-92059365D01*
X167866691Y-92059364D01*
X167866686Y-92059364D01*
X167640002Y-92039532D01*
X167639998Y-92039532D01*
X167413313Y-92059364D01*
X167413302Y-92059366D01*
X167193511Y-92118258D01*
X167193502Y-92118261D01*
X166987267Y-92214431D01*
X166987265Y-92214432D01*
X166800858Y-92344954D01*
X166639954Y-92505858D01*
X166509432Y-92692265D01*
X166509431Y-92692267D01*
X166413261Y-92898502D01*
X166413258Y-92898511D01*
X166354366Y-93118302D01*
X166354364Y-93118313D01*
X166334532Y-93344998D01*
X166334532Y-93345001D01*
X161112646Y-93345001D01*
X161073894Y-93289657D01*
X161073894Y-93289656D01*
X160511132Y-93852418D01*
X160488682Y-93775960D01*
X160409395Y-93652587D01*
X160298562Y-93556549D01*
X160165161Y-93495627D01*
X160161366Y-93495081D01*
X160720342Y-92936105D01*
X160720341Y-92936103D01*
X160654919Y-92890295D01*
X160531316Y-92832657D01*
X160478877Y-92786484D01*
X160459725Y-92719291D01*
X160479941Y-92652410D01*
X160531312Y-92607895D01*
X160655167Y-92550142D01*
X160836555Y-92423132D01*
X160993132Y-92266555D01*
X161120142Y-92085167D01*
X161213723Y-91884480D01*
X161271035Y-91670591D01*
X161290334Y-91450000D01*
X161287936Y-91422596D01*
X161282865Y-91364630D01*
X161271035Y-91229409D01*
X161213723Y-91015520D01*
X161194558Y-90974421D01*
X161149079Y-90876889D01*
X161120142Y-90814833D01*
X160993132Y-90633445D01*
X160836555Y-90476868D01*
X160655167Y-90349858D01*
X160580226Y-90314913D01*
X160543594Y-90297831D01*
X160531907Y-90292381D01*
X160479468Y-90246210D01*
X160460316Y-90179017D01*
X160480531Y-90112136D01*
X160531908Y-90067618D01*
X160655167Y-90010142D01*
X160836555Y-89883132D01*
X160993132Y-89726555D01*
X161120142Y-89545167D01*
X161213723Y-89344480D01*
X161271035Y-89130591D01*
X161290290Y-88910499D01*
X161290334Y-88910001D01*
X161290334Y-88909998D01*
X161280215Y-88794341D01*
X161271035Y-88689409D01*
X161213723Y-88475520D01*
X161210748Y-88469141D01*
X161123825Y-88282732D01*
X161120142Y-88274833D01*
X161113258Y-88265001D01*
X166334532Y-88265001D01*
X166354364Y-88491686D01*
X166354366Y-88491697D01*
X166413258Y-88711488D01*
X166413261Y-88711497D01*
X166509431Y-88917732D01*
X166509432Y-88917734D01*
X166639954Y-89104141D01*
X166800858Y-89265045D01*
X166800861Y-89265047D01*
X166987266Y-89395568D01*
X167193504Y-89491739D01*
X167413308Y-89550635D01*
X167575230Y-89564801D01*
X167639998Y-89570468D01*
X167640000Y-89570468D01*
X167640002Y-89570468D01*
X167696673Y-89565509D01*
X167866692Y-89550635D01*
X168086496Y-89491739D01*
X168292734Y-89395568D01*
X168479139Y-89265047D01*
X168640047Y-89104139D01*
X168770568Y-88917734D01*
X168866739Y-88711496D01*
X168925635Y-88491692D01*
X168942634Y-88297384D01*
X168945468Y-88265001D01*
X168945468Y-88264998D01*
X168935985Y-88156610D01*
X168925635Y-88038308D01*
X168866739Y-87818504D01*
X168770568Y-87612266D01*
X168640047Y-87425861D01*
X168640045Y-87425858D01*
X168479141Y-87264954D01*
X168292734Y-87134432D01*
X168292732Y-87134431D01*
X168086497Y-87038261D01*
X168086488Y-87038258D01*
X167866697Y-86979366D01*
X167866693Y-86979365D01*
X167866692Y-86979365D01*
X167866691Y-86979364D01*
X167866686Y-86979364D01*
X167640002Y-86959532D01*
X167639998Y-86959532D01*
X167413313Y-86979364D01*
X167413302Y-86979366D01*
X167193511Y-87038258D01*
X167193502Y-87038261D01*
X166987267Y-87134431D01*
X166987265Y-87134432D01*
X166800858Y-87264954D01*
X166639954Y-87425858D01*
X166509432Y-87612265D01*
X166509431Y-87612267D01*
X166413261Y-87818502D01*
X166413258Y-87818511D01*
X166354366Y-88038302D01*
X166354364Y-88038313D01*
X166334532Y-88264998D01*
X166334532Y-88265001D01*
X161113258Y-88265001D01*
X160993132Y-88093445D01*
X160836555Y-87936868D01*
X160655167Y-87809858D01*
X160636908Y-87801344D01*
X160531908Y-87752382D01*
X160479468Y-87706210D01*
X160460316Y-87639017D01*
X160480531Y-87572136D01*
X160531908Y-87527618D01*
X160557018Y-87515909D01*
X160655167Y-87470142D01*
X160836555Y-87343132D01*
X160993132Y-87186555D01*
X161120142Y-87005167D01*
X161213723Y-86804480D01*
X161271035Y-86590591D01*
X161290334Y-86370000D01*
X161271035Y-86149409D01*
X161213723Y-85935520D01*
X161213138Y-85934266D01*
X161135081Y-85766870D01*
X161120142Y-85734833D01*
X160993132Y-85553445D01*
X160836555Y-85396868D01*
X160655167Y-85269858D01*
X160636908Y-85261344D01*
X160531908Y-85212382D01*
X160479468Y-85166210D01*
X160460316Y-85099017D01*
X160480531Y-85032136D01*
X160531908Y-84987618D01*
X160557434Y-84975715D01*
X160655167Y-84930142D01*
X160836555Y-84803132D01*
X160993132Y-84646555D01*
X161120142Y-84465167D01*
X161213723Y-84264480D01*
X161271035Y-84050591D01*
X161290334Y-83830000D01*
X161271035Y-83609409D01*
X161213723Y-83395520D01*
X161207283Y-83381710D01*
X161163331Y-83287454D01*
X161120142Y-83194833D01*
X160993132Y-83013445D01*
X160836555Y-82856868D01*
X160655167Y-82729858D01*
X160531907Y-82672381D01*
X160479468Y-82626210D01*
X160460316Y-82559017D01*
X160480531Y-82492136D01*
X160531908Y-82447618D01*
X160655167Y-82390142D01*
X160836555Y-82263132D01*
X160993132Y-82106555D01*
X161120142Y-81925167D01*
X161213723Y-81724480D01*
X161271035Y-81510591D01*
X161290096Y-81292716D01*
X161290334Y-81290001D01*
X161290334Y-81289998D01*
X161279438Y-81165454D01*
X161271035Y-81069409D01*
X161213723Y-80855520D01*
X161207283Y-80841710D01*
X161162725Y-80746153D01*
X161120142Y-80654833D01*
X160993132Y-80473445D01*
X160836555Y-80316868D01*
X160655167Y-80189858D01*
X160531907Y-80132381D01*
X160479468Y-80086210D01*
X160460316Y-80019017D01*
X160480531Y-79952136D01*
X160531908Y-79907618D01*
X160553353Y-79897618D01*
X160655167Y-79850142D01*
X160836555Y-79723132D01*
X160993132Y-79566555D01*
X161120142Y-79385167D01*
X161213723Y-79184480D01*
X161271035Y-78970591D01*
X161289754Y-78756627D01*
X161290334Y-78750001D01*
X161290334Y-78749998D01*
X161276866Y-78596061D01*
X161271035Y-78529409D01*
X161213723Y-78315520D01*
X161120142Y-78114833D01*
X160993132Y-77933445D01*
X160836555Y-77776868D01*
X160655167Y-77649858D01*
X160531907Y-77592381D01*
X160479468Y-77546210D01*
X160460316Y-77479017D01*
X160480531Y-77412136D01*
X160531908Y-77367618D01*
X160551625Y-77358424D01*
X160655167Y-77310142D01*
X160836555Y-77183132D01*
X160993132Y-77026555D01*
X161120142Y-76845167D01*
X161213723Y-76644480D01*
X161271035Y-76430591D01*
X161290334Y-76210000D01*
X161271035Y-75989409D01*
X161213723Y-75775520D01*
X161120142Y-75574833D01*
X160993132Y-75393445D01*
X160836555Y-75236868D01*
X160655167Y-75109858D01*
X160646893Y-75106000D01*
X160531908Y-75052382D01*
X160479468Y-75006210D01*
X160460316Y-74939017D01*
X160480531Y-74872136D01*
X160531908Y-74827618D01*
X160655167Y-74770142D01*
X160836555Y-74643132D01*
X160993132Y-74486555D01*
X161120142Y-74305167D01*
X161213723Y-74104480D01*
X161271035Y-73890591D01*
X161290334Y-73670000D01*
X161283107Y-73587395D01*
X161296874Y-73518896D01*
X161345489Y-73468712D01*
X161413517Y-73452779D01*
X161479361Y-73476154D01*
X161494316Y-73488907D01*
X164438181Y-76432771D01*
X164471666Y-76494094D01*
X164474500Y-76520452D01*
X164474500Y-77525811D01*
X164454815Y-77592850D01*
X164421623Y-77627386D01*
X164260859Y-77739953D01*
X164099954Y-77900858D01*
X163969432Y-78087265D01*
X163969431Y-78087267D01*
X163873261Y-78293502D01*
X163873258Y-78293511D01*
X163814366Y-78513302D01*
X163814364Y-78513313D01*
X163794532Y-78739998D01*
X163794532Y-78740001D01*
X163814364Y-78966686D01*
X163814366Y-78966697D01*
X163873258Y-79186488D01*
X163873261Y-79186497D01*
X163969431Y-79392732D01*
X163969432Y-79392734D01*
X164099954Y-79579141D01*
X164260858Y-79740045D01*
X164260861Y-79740047D01*
X164447266Y-79870568D01*
X164653504Y-79966739D01*
X164873308Y-80025635D01*
X165035230Y-80039801D01*
X165099998Y-80045468D01*
X165100000Y-80045468D01*
X165100002Y-80045468D01*
X165156673Y-80040509D01*
X165326692Y-80025635D01*
X165546496Y-79966739D01*
X165752734Y-79870568D01*
X165939139Y-79740047D01*
X166100047Y-79579139D01*
X166230568Y-79392734D01*
X166326739Y-79186496D01*
X166385635Y-78966692D01*
X166405468Y-78740000D01*
X166401737Y-78697360D01*
X166392252Y-78588945D01*
X166385635Y-78513308D01*
X166326739Y-78293504D01*
X166230568Y-78087266D01*
X166100047Y-77900861D01*
X166100045Y-77900858D01*
X165939140Y-77739953D01*
X165778377Y-77627386D01*
X165734752Y-77572809D01*
X165725500Y-77525811D01*
X165725500Y-76292742D01*
X165727224Y-76277122D01*
X165726939Y-76277096D01*
X165727671Y-76269340D01*
X165727673Y-76269333D01*
X165725500Y-76200185D01*
X165725500Y-76170650D01*
X165724631Y-76163772D01*
X165724172Y-76157943D01*
X165722709Y-76111372D01*
X165717122Y-76092144D01*
X165713174Y-76073084D01*
X165710663Y-76053204D01*
X165693512Y-76009887D01*
X165691619Y-76004358D01*
X165678618Y-75959609D01*
X165678616Y-75959606D01*
X165668423Y-75942371D01*
X165659861Y-75924894D01*
X165652487Y-75906270D01*
X165652486Y-75906268D01*
X165625079Y-75868545D01*
X165621888Y-75863686D01*
X165598172Y-75823583D01*
X165598165Y-75823574D01*
X165584006Y-75809415D01*
X165571368Y-75794619D01*
X165559594Y-75778413D01*
X165556313Y-75775699D01*
X165523688Y-75748709D01*
X165519376Y-75744786D01*
X163634771Y-73860181D01*
X163601286Y-73798858D01*
X163606270Y-73729166D01*
X163648142Y-73673233D01*
X163713606Y-73648816D01*
X163722452Y-73648500D01*
X168186500Y-73648500D01*
X168253539Y-73668185D01*
X168299294Y-73720989D01*
X168310500Y-73772500D01*
X168310500Y-80933437D01*
X168290815Y-81000476D01*
X168278650Y-81016409D01*
X168177466Y-81128785D01*
X168082821Y-81292715D01*
X168082818Y-81292722D01*
X168024327Y-81472740D01*
X168024326Y-81472744D01*
X168004540Y-81661000D01*
X168024326Y-81849256D01*
X168024327Y-81849259D01*
X168082818Y-82029277D01*
X168082821Y-82029284D01*
X168177467Y-82193216D01*
X168304129Y-82333888D01*
X168457265Y-82445148D01*
X168457270Y-82445151D01*
X168630192Y-82522142D01*
X168630197Y-82522144D01*
X168815354Y-82561500D01*
X168815355Y-82561500D01*
X169004644Y-82561500D01*
X169004646Y-82561500D01*
X169189803Y-82522144D01*
X169362730Y-82445151D01*
X169515871Y-82333888D01*
X169642533Y-82193216D01*
X169737179Y-82029284D01*
X169795674Y-81849256D01*
X169815460Y-81661000D01*
X169795674Y-81472744D01*
X169737179Y-81292716D01*
X169663705Y-81165455D01*
X169642534Y-81128785D01*
X169642529Y-81128778D01*
X169593350Y-81074159D01*
X169563120Y-81011167D01*
X169561500Y-80991187D01*
X169561500Y-75452886D01*
X169581185Y-75385847D01*
X169633989Y-75340092D01*
X169703147Y-75330148D01*
X169724504Y-75335180D01*
X169864303Y-75381505D01*
X169864310Y-75381506D01*
X169967014Y-75391999D01*
X169967027Y-75392000D01*
X170692000Y-75392000D01*
X170692000Y-74392000D01*
X171192000Y-74392000D01*
X171192000Y-75392000D01*
X171916973Y-75392000D01*
X171916985Y-75391999D01*
X172019689Y-75381506D01*
X172019696Y-75381505D01*
X172186118Y-75326358D01*
X172186123Y-75326356D01*
X172335344Y-75234315D01*
X172459315Y-75110344D01*
X172551356Y-74961123D01*
X172551358Y-74961118D01*
X172606505Y-74794696D01*
X172606506Y-74794689D01*
X172616999Y-74691985D01*
X172617000Y-74691972D01*
X172617000Y-74392000D01*
X171192000Y-74392000D01*
X170692000Y-74392000D01*
X170692000Y-72892000D01*
X171192000Y-72892000D01*
X171192000Y-73892000D01*
X172617000Y-73892000D01*
X172617000Y-73592027D01*
X172616999Y-73592014D01*
X172606506Y-73489310D01*
X172606505Y-73489303D01*
X172551358Y-73322881D01*
X172551356Y-73322876D01*
X172459315Y-73173655D01*
X172335344Y-73049684D01*
X172186123Y-72957643D01*
X172186118Y-72957641D01*
X172019696Y-72902494D01*
X172019689Y-72902493D01*
X171916985Y-72892000D01*
X171192000Y-72892000D01*
X170692000Y-72892000D01*
X170302729Y-72892000D01*
X170235690Y-72872315D01*
X170189935Y-72819511D01*
X170179991Y-72750353D01*
X170209016Y-72686797D01*
X170215040Y-72680326D01*
X170716549Y-72178819D01*
X170777872Y-72145334D01*
X170804230Y-72142500D01*
X171917003Y-72142500D01*
X171917008Y-72142500D01*
X172019797Y-72131999D01*
X172186334Y-72076814D01*
X172335655Y-71984711D01*
X172459711Y-71860655D01*
X172551814Y-71711334D01*
X172606999Y-71544797D01*
X172617500Y-71442008D01*
X172617500Y-70871352D01*
X172637185Y-70804313D01*
X172689989Y-70758558D01*
X172759147Y-70748614D01*
X172822703Y-70777639D01*
X172829181Y-70783671D01*
X173582181Y-71536671D01*
X173615666Y-71597994D01*
X173618500Y-71624352D01*
X173618500Y-80073312D01*
X173598815Y-80140351D01*
X173586650Y-80156284D01*
X173511466Y-80239784D01*
X173416821Y-80403715D01*
X173416818Y-80403722D01*
X173368689Y-80551849D01*
X173358326Y-80583744D01*
X173338540Y-80772000D01*
X173358326Y-80960256D01*
X173358327Y-80960259D01*
X173416818Y-81140277D01*
X173416821Y-81140284D01*
X173511467Y-81304216D01*
X173611682Y-81415516D01*
X173636004Y-81442528D01*
X173666234Y-81505519D01*
X173657609Y-81574855D01*
X173612867Y-81628520D01*
X173546215Y-81649478D01*
X173543854Y-81649500D01*
X173387354Y-81649500D01*
X173354897Y-81656398D01*
X173202197Y-81688855D01*
X173202192Y-81688857D01*
X173029270Y-81765848D01*
X173029265Y-81765851D01*
X172876129Y-81877111D01*
X172749466Y-82017785D01*
X172654821Y-82181715D01*
X172654818Y-82181722D01*
X172605377Y-82333888D01*
X172596326Y-82361744D01*
X172576540Y-82550000D01*
X172596326Y-82738256D01*
X172596327Y-82738259D01*
X172654818Y-82918277D01*
X172654821Y-82918284D01*
X172749467Y-83082216D01*
X172776773Y-83112542D01*
X172824650Y-83165715D01*
X172854880Y-83228706D01*
X172856500Y-83248687D01*
X172856500Y-96564255D01*
X172854775Y-96579872D01*
X172855061Y-96579899D01*
X172854326Y-96587665D01*
X172856500Y-96656814D01*
X172856500Y-96686343D01*
X172856501Y-96686360D01*
X172857368Y-96693231D01*
X172857826Y-96699050D01*
X172859290Y-96745624D01*
X172859291Y-96745627D01*
X172864880Y-96764867D01*
X172868824Y-96783911D01*
X172871336Y-96803792D01*
X172887259Y-96844010D01*
X172888490Y-96847119D01*
X172890382Y-96852647D01*
X172903381Y-96897388D01*
X172913580Y-96914634D01*
X172922138Y-96932103D01*
X172929514Y-96950732D01*
X172956898Y-96988423D01*
X172960106Y-96993307D01*
X172983827Y-97033416D01*
X172983833Y-97033424D01*
X172997990Y-97047580D01*
X173010628Y-97062376D01*
X173022405Y-97078586D01*
X173022406Y-97078587D01*
X173058309Y-97108288D01*
X173062620Y-97112210D01*
X173513712Y-97563302D01*
X173960586Y-98010176D01*
X173994071Y-98071499D01*
X173992681Y-98129948D01*
X173974365Y-98198307D01*
X173974364Y-98198313D01*
X173954532Y-98424999D01*
X173954532Y-98425001D01*
X173974364Y-98651686D01*
X173974366Y-98651697D01*
X174033258Y-98871488D01*
X174033261Y-98871497D01*
X174129431Y-99077732D01*
X174129432Y-99077734D01*
X174259954Y-99264141D01*
X174420858Y-99425045D01*
X174420861Y-99425047D01*
X174607266Y-99555568D01*
X174813504Y-99651739D01*
X175033308Y-99710635D01*
X175195230Y-99724801D01*
X175259998Y-99730468D01*
X175260000Y-99730468D01*
X175260002Y-99730468D01*
X175316673Y-99725509D01*
X175486692Y-99710635D01*
X175706496Y-99651739D01*
X175912734Y-99555568D01*
X176099139Y-99425047D01*
X176231266Y-99292919D01*
X176292587Y-99259436D01*
X176362279Y-99264420D01*
X176418213Y-99306291D01*
X176436877Y-99342283D01*
X176464819Y-99428280D01*
X176464821Y-99428284D01*
X176559467Y-99592216D01*
X176666092Y-99710635D01*
X176686129Y-99732888D01*
X176839265Y-99844148D01*
X176839270Y-99844151D01*
X177012192Y-99921142D01*
X177012197Y-99921144D01*
X177197354Y-99960500D01*
X177197355Y-99960500D01*
X177386644Y-99960500D01*
X177386646Y-99960500D01*
X177571803Y-99921144D01*
X177744730Y-99844151D01*
X177897871Y-99732888D01*
X178024533Y-99592216D01*
X178119179Y-99428284D01*
X178177674Y-99248256D01*
X178197460Y-99060000D01*
X178177674Y-98871744D01*
X178119179Y-98691716D01*
X178024533Y-98527784D01*
X177993343Y-98493144D01*
X177897350Y-98386532D01*
X177867120Y-98323540D01*
X177865500Y-98303560D01*
X177865500Y-86404508D01*
X177885185Y-86337469D01*
X177937989Y-86291714D01*
X178007147Y-86281770D01*
X178070703Y-86310795D01*
X178096886Y-86342506D01*
X178112760Y-86370001D01*
X178120967Y-86384216D01*
X178247629Y-86524888D01*
X178400765Y-86636148D01*
X178400770Y-86636151D01*
X178573692Y-86713142D01*
X178573697Y-86713144D01*
X178758854Y-86752500D01*
X178758855Y-86752500D01*
X178828500Y-86752500D01*
X178895539Y-86772185D01*
X178941294Y-86824989D01*
X178952500Y-86876500D01*
X178952500Y-90233312D01*
X178932815Y-90300351D01*
X178920650Y-90316284D01*
X178845466Y-90399784D01*
X178750821Y-90563715D01*
X178750818Y-90563722D01*
X178692327Y-90743740D01*
X178692326Y-90743744D01*
X178672540Y-90932000D01*
X178692326Y-91120256D01*
X178692327Y-91120259D01*
X178750818Y-91300277D01*
X178750821Y-91300284D01*
X178845467Y-91464216D01*
X178937195Y-91566090D01*
X178972129Y-91604888D01*
X179125265Y-91716148D01*
X179125270Y-91716151D01*
X179298192Y-91793142D01*
X179298197Y-91793144D01*
X179483354Y-91832500D01*
X179483355Y-91832500D01*
X179672644Y-91832500D01*
X179672646Y-91832500D01*
X179857803Y-91793144D01*
X180030730Y-91716151D01*
X180183871Y-91604888D01*
X180310533Y-91464216D01*
X180405179Y-91300284D01*
X180463674Y-91120256D01*
X180483460Y-90932000D01*
X180463674Y-90743744D01*
X180405179Y-90563716D01*
X180310533Y-90399784D01*
X180268589Y-90353200D01*
X180235350Y-90316284D01*
X180205120Y-90253292D01*
X180203500Y-90233312D01*
X180203500Y-83112542D01*
X180223185Y-83045503D01*
X180275989Y-82999748D01*
X180345147Y-82989804D01*
X180408703Y-83018829D01*
X180426764Y-83038229D01*
X180452453Y-83072544D01*
X180452454Y-83072546D01*
X180452455Y-83072547D01*
X180567664Y-83158793D01*
X180567671Y-83158797D01*
X180702517Y-83209091D01*
X180702516Y-83209091D01*
X180709444Y-83209835D01*
X180762127Y-83215500D01*
X182457872Y-83215499D01*
X182517483Y-83209091D01*
X182652331Y-83158796D01*
X182767546Y-83072546D01*
X182853796Y-82957331D01*
X182904091Y-82822483D01*
X182910500Y-82762873D01*
X182910499Y-82504449D01*
X182930183Y-82437412D01*
X182982987Y-82391657D01*
X183052146Y-82381713D01*
X183115701Y-82410738D01*
X183122177Y-82416767D01*
X183662737Y-82957328D01*
X184149164Y-83443755D01*
X184182649Y-83505078D01*
X184181258Y-83563528D01*
X184168966Y-83609403D01*
X184168965Y-83609410D01*
X184149666Y-83829998D01*
X184149666Y-83830001D01*
X184168964Y-84050585D01*
X184168965Y-84050592D01*
X184226275Y-84264475D01*
X184226279Y-84264486D01*
X184319856Y-84465163D01*
X184319858Y-84465167D01*
X184446868Y-84646555D01*
X184603445Y-84803132D01*
X184784833Y-84930142D01*
X184846828Y-84959050D01*
X184908091Y-84987618D01*
X184960531Y-85033790D01*
X184979683Y-85100983D01*
X184959467Y-85167865D01*
X184908091Y-85212382D01*
X184784836Y-85269856D01*
X184784834Y-85269857D01*
X184603444Y-85396868D01*
X184446868Y-85553444D01*
X184319857Y-85734834D01*
X184319856Y-85734836D01*
X184226279Y-85935513D01*
X184226275Y-85935524D01*
X184168965Y-86149407D01*
X184168964Y-86149414D01*
X184149666Y-86369998D01*
X184149666Y-86370001D01*
X184168964Y-86590585D01*
X184168965Y-86590592D01*
X184226275Y-86804475D01*
X184226279Y-86804486D01*
X184306848Y-86977267D01*
X184319858Y-87005167D01*
X184446868Y-87186555D01*
X184603445Y-87343132D01*
X184784833Y-87470142D01*
X184846828Y-87499050D01*
X184908091Y-87527618D01*
X184960531Y-87573790D01*
X184979683Y-87640983D01*
X184959467Y-87707865D01*
X184908091Y-87752382D01*
X184784836Y-87809856D01*
X184784834Y-87809857D01*
X184603444Y-87936868D01*
X184446868Y-88093444D01*
X184319857Y-88274834D01*
X184319856Y-88274836D01*
X184226279Y-88475513D01*
X184226275Y-88475524D01*
X184168965Y-88689407D01*
X184168964Y-88689414D01*
X184149666Y-88909998D01*
X184149666Y-88910001D01*
X184168964Y-89130585D01*
X184168965Y-89130592D01*
X184226275Y-89344475D01*
X184226279Y-89344486D01*
X184304536Y-89512309D01*
X184319858Y-89545167D01*
X184446868Y-89726555D01*
X184603445Y-89883132D01*
X184784833Y-90010142D01*
X184823651Y-90028243D01*
X184908091Y-90067618D01*
X184960531Y-90113790D01*
X184979683Y-90180983D01*
X184959467Y-90247865D01*
X184908091Y-90292382D01*
X184784836Y-90349856D01*
X184784834Y-90349857D01*
X184603444Y-90476868D01*
X184446868Y-90633444D01*
X184319857Y-90814834D01*
X184319856Y-90814836D01*
X184226279Y-91015513D01*
X184226275Y-91015524D01*
X184168965Y-91229407D01*
X184168964Y-91229414D01*
X184149666Y-91449998D01*
X184149666Y-91450001D01*
X184168964Y-91670585D01*
X184168965Y-91670592D01*
X184226275Y-91884475D01*
X184226279Y-91884486D01*
X184298578Y-92039532D01*
X184319858Y-92085167D01*
X184446868Y-92266555D01*
X184603445Y-92423132D01*
X184784833Y-92550142D01*
X184846828Y-92579050D01*
X184908091Y-92607618D01*
X184960531Y-92653790D01*
X184979683Y-92720983D01*
X184959467Y-92787865D01*
X184908091Y-92832382D01*
X184784836Y-92889856D01*
X184784834Y-92889857D01*
X184603444Y-93016868D01*
X184446868Y-93173444D01*
X184319857Y-93354834D01*
X184319856Y-93354836D01*
X184226279Y-93555513D01*
X184226275Y-93555524D01*
X184168965Y-93769407D01*
X184168964Y-93769414D01*
X184149666Y-93989998D01*
X184149666Y-93990001D01*
X184168964Y-94210585D01*
X184168965Y-94210592D01*
X184226275Y-94424475D01*
X184226279Y-94424486D01*
X184306848Y-94597267D01*
X184319858Y-94625167D01*
X184446868Y-94806555D01*
X184603445Y-94963132D01*
X184784833Y-95090142D01*
X184846828Y-95119050D01*
X184908091Y-95147618D01*
X184960531Y-95193790D01*
X184979683Y-95260983D01*
X184959467Y-95327865D01*
X184908091Y-95372382D01*
X184784836Y-95429856D01*
X184784834Y-95429857D01*
X184603444Y-95556868D01*
X184446868Y-95713444D01*
X184319857Y-95894834D01*
X184319856Y-95894836D01*
X184226279Y-96095513D01*
X184226275Y-96095524D01*
X184168965Y-96309407D01*
X184168964Y-96309414D01*
X184149666Y-96529998D01*
X184149666Y-96530001D01*
X184168964Y-96750585D01*
X184168965Y-96750592D01*
X184226275Y-96964475D01*
X184226279Y-96964486D01*
X184306848Y-97137267D01*
X184319858Y-97165167D01*
X184446868Y-97346555D01*
X184603445Y-97503132D01*
X184784833Y-97630142D01*
X184846828Y-97659050D01*
X184908091Y-97687618D01*
X184960531Y-97733790D01*
X184979683Y-97800983D01*
X184959467Y-97867865D01*
X184908091Y-97912382D01*
X184784836Y-97969856D01*
X184784834Y-97969857D01*
X184603444Y-98096868D01*
X184446868Y-98253444D01*
X184319857Y-98434834D01*
X184319856Y-98434836D01*
X184226279Y-98635513D01*
X184226275Y-98635524D01*
X184168965Y-98849407D01*
X184168964Y-98849414D01*
X184149666Y-99069998D01*
X184149666Y-99070001D01*
X184168964Y-99290585D01*
X184168965Y-99290592D01*
X184226275Y-99504475D01*
X184226279Y-99504486D01*
X184315118Y-99695002D01*
X184319858Y-99705167D01*
X184446868Y-99886555D01*
X184603445Y-100043132D01*
X184784833Y-100170142D01*
X184846828Y-100199050D01*
X184908091Y-100227618D01*
X184960531Y-100273790D01*
X184979683Y-100340983D01*
X184959467Y-100407865D01*
X184908091Y-100452382D01*
X184784836Y-100509856D01*
X184784834Y-100509857D01*
X184603444Y-100636868D01*
X184446868Y-100793444D01*
X184319857Y-100974834D01*
X184319856Y-100974836D01*
X184226279Y-101175513D01*
X184226275Y-101175524D01*
X184168965Y-101389407D01*
X184168964Y-101389414D01*
X184149666Y-101609998D01*
X184149666Y-101610001D01*
X184168964Y-101830585D01*
X184168965Y-101830592D01*
X184226275Y-102044475D01*
X184226279Y-102044486D01*
X184274318Y-102147506D01*
X184319858Y-102245167D01*
X184446868Y-102426555D01*
X184603445Y-102583132D01*
X184784833Y-102710142D01*
X184846828Y-102739050D01*
X184908091Y-102767618D01*
X184960531Y-102813790D01*
X184979683Y-102880983D01*
X184959467Y-102947865D01*
X184908091Y-102992382D01*
X184784836Y-103049856D01*
X184784834Y-103049857D01*
X184603444Y-103176868D01*
X184446868Y-103333444D01*
X184319857Y-103514834D01*
X184319856Y-103514836D01*
X184226279Y-103715513D01*
X184226275Y-103715524D01*
X184168965Y-103929407D01*
X184168964Y-103929414D01*
X184149666Y-104149998D01*
X184149666Y-104150001D01*
X184168964Y-104370585D01*
X184168965Y-104370592D01*
X184226275Y-104584475D01*
X184226279Y-104584486D01*
X184319856Y-104785163D01*
X184319858Y-104785167D01*
X184446868Y-104966555D01*
X184603445Y-105123132D01*
X184784833Y-105250142D01*
X184828013Y-105270277D01*
X184908091Y-105307618D01*
X184960531Y-105353790D01*
X184979683Y-105420983D01*
X184959467Y-105487865D01*
X184908091Y-105532382D01*
X184784836Y-105589856D01*
X184784834Y-105589857D01*
X184603444Y-105716868D01*
X184446868Y-105873444D01*
X184319857Y-106054834D01*
X184319856Y-106054836D01*
X184226279Y-106255513D01*
X184226275Y-106255524D01*
X184168965Y-106469407D01*
X184168964Y-106469414D01*
X184149666Y-106689998D01*
X184149666Y-106690001D01*
X184168964Y-106910585D01*
X184168965Y-106910592D01*
X184226275Y-107124475D01*
X184226279Y-107124486D01*
X184270368Y-107219035D01*
X184319858Y-107325167D01*
X184446868Y-107506555D01*
X184603445Y-107663132D01*
X184784833Y-107790142D01*
X184905572Y-107846443D01*
X184985513Y-107883720D01*
X184985515Y-107883720D01*
X184985520Y-107883723D01*
X185199409Y-107941035D01*
X185356974Y-107954820D01*
X185419998Y-107960334D01*
X185420000Y-107960334D01*
X185420002Y-107960334D01*
X185475147Y-107955509D01*
X185640591Y-107941035D01*
X185854480Y-107883723D01*
X186055167Y-107790142D01*
X186236555Y-107663132D01*
X186393132Y-107506555D01*
X186520142Y-107325167D01*
X186613723Y-107124480D01*
X186671035Y-106910591D01*
X186690334Y-106690000D01*
X186671035Y-106469409D01*
X186613723Y-106255520D01*
X186520142Y-106054833D01*
X186393132Y-105873445D01*
X186236555Y-105716868D01*
X186055167Y-105589858D01*
X186036908Y-105581344D01*
X185931908Y-105532382D01*
X185879468Y-105486210D01*
X185860316Y-105419017D01*
X185880531Y-105352136D01*
X185931908Y-105307618D01*
X186055167Y-105250142D01*
X186236555Y-105123132D01*
X186393132Y-104966555D01*
X186520142Y-104785167D01*
X186613723Y-104584480D01*
X186671035Y-104370591D01*
X186690334Y-104150000D01*
X186687521Y-104117852D01*
X186671035Y-103929414D01*
X186671035Y-103929409D01*
X186613723Y-103715520D01*
X186520142Y-103514833D01*
X186393132Y-103333445D01*
X186236555Y-103176868D01*
X186055167Y-103049858D01*
X185931907Y-102992381D01*
X185879468Y-102946210D01*
X185860316Y-102879017D01*
X185880531Y-102812136D01*
X185931908Y-102767618D01*
X186055167Y-102710142D01*
X186236555Y-102583132D01*
X186393132Y-102426555D01*
X186520142Y-102245167D01*
X186613723Y-102044480D01*
X186671035Y-101830591D01*
X186690334Y-101610000D01*
X186671035Y-101389409D01*
X186613723Y-101175520D01*
X186612723Y-101173376D01*
X186560663Y-101061732D01*
X186520142Y-100974833D01*
X186393132Y-100793445D01*
X186236555Y-100636868D01*
X186055167Y-100509858D01*
X185931907Y-100452381D01*
X185879468Y-100406210D01*
X185860316Y-100339017D01*
X185880531Y-100272136D01*
X185931908Y-100227618D01*
X186055167Y-100170142D01*
X186236555Y-100043132D01*
X186393132Y-99886555D01*
X186520142Y-99705167D01*
X186613723Y-99504480D01*
X186671035Y-99290591D01*
X186690334Y-99070000D01*
X186687929Y-99042516D01*
X186678023Y-98929282D01*
X186671035Y-98849409D01*
X186613723Y-98635520D01*
X186610748Y-98629141D01*
X186563485Y-98527784D01*
X186520142Y-98434833D01*
X186393132Y-98253445D01*
X186236555Y-98096868D01*
X186055167Y-97969858D01*
X185931907Y-97912381D01*
X185879468Y-97866210D01*
X185860316Y-97799017D01*
X185880531Y-97732136D01*
X185931908Y-97687618D01*
X186055167Y-97630142D01*
X186236555Y-97503132D01*
X186393132Y-97346555D01*
X186520142Y-97165167D01*
X186613723Y-96964480D01*
X186671035Y-96750591D01*
X186689657Y-96537734D01*
X186690334Y-96530001D01*
X186690334Y-96529998D01*
X186678612Y-96396021D01*
X186671035Y-96309409D01*
X186613723Y-96095520D01*
X186610748Y-96089141D01*
X186520143Y-95894836D01*
X186520142Y-95894834D01*
X186520142Y-95894833D01*
X186393132Y-95713445D01*
X186236555Y-95556868D01*
X186055167Y-95429858D01*
X185931907Y-95372381D01*
X185879468Y-95326210D01*
X185860316Y-95259017D01*
X185880531Y-95192136D01*
X185931908Y-95147618D01*
X185932500Y-95147342D01*
X186055167Y-95090142D01*
X186236555Y-94963132D01*
X186393132Y-94806555D01*
X186520142Y-94625167D01*
X186613723Y-94424480D01*
X186671035Y-94210591D01*
X186690334Y-93990000D01*
X186671035Y-93769409D01*
X186613723Y-93555520D01*
X186590669Y-93506081D01*
X186566233Y-93453676D01*
X186520142Y-93354833D01*
X186393132Y-93173445D01*
X186236555Y-93016868D01*
X186055167Y-92889858D01*
X185931907Y-92832381D01*
X185879468Y-92786210D01*
X185860316Y-92719017D01*
X185880531Y-92652136D01*
X185931908Y-92607618D01*
X185976840Y-92586666D01*
X186055167Y-92550142D01*
X186236555Y-92423132D01*
X186393132Y-92266555D01*
X186520142Y-92085167D01*
X186613723Y-91884480D01*
X186671035Y-91670591D01*
X186690334Y-91450000D01*
X186687936Y-91422596D01*
X186682865Y-91364630D01*
X186671035Y-91229409D01*
X186613723Y-91015520D01*
X186594558Y-90974421D01*
X186549079Y-90876889D01*
X186520142Y-90814833D01*
X186393132Y-90633445D01*
X186236555Y-90476868D01*
X186055167Y-90349858D01*
X185980226Y-90314913D01*
X185943594Y-90297831D01*
X185931907Y-90292381D01*
X185879468Y-90246210D01*
X185860316Y-90179017D01*
X185880531Y-90112136D01*
X185931908Y-90067618D01*
X186055167Y-90010142D01*
X186236555Y-89883132D01*
X186393132Y-89726555D01*
X186520142Y-89545167D01*
X186613723Y-89344480D01*
X186671035Y-89130591D01*
X186690290Y-88910499D01*
X186690334Y-88910001D01*
X186690334Y-88909998D01*
X186680215Y-88794341D01*
X186671035Y-88689409D01*
X186613723Y-88475520D01*
X186610748Y-88469141D01*
X186523825Y-88282732D01*
X186520142Y-88274833D01*
X186393132Y-88093445D01*
X186236555Y-87936868D01*
X186055167Y-87809858D01*
X186036908Y-87801344D01*
X185931908Y-87752382D01*
X185879468Y-87706210D01*
X185860316Y-87639017D01*
X185880531Y-87572136D01*
X185931908Y-87527618D01*
X185957018Y-87515909D01*
X186055167Y-87470142D01*
X186236555Y-87343132D01*
X186393132Y-87186555D01*
X186520142Y-87005167D01*
X186613723Y-86804480D01*
X186671035Y-86590591D01*
X186690334Y-86370000D01*
X186671035Y-86149409D01*
X186613723Y-85935520D01*
X186613138Y-85934266D01*
X186535081Y-85766870D01*
X186520142Y-85734833D01*
X186393132Y-85553445D01*
X186236555Y-85396868D01*
X186055167Y-85269858D01*
X186036908Y-85261344D01*
X185931908Y-85212382D01*
X185879468Y-85166210D01*
X185860316Y-85099017D01*
X185880531Y-85032136D01*
X185931908Y-84987618D01*
X185957434Y-84975715D01*
X186055167Y-84930142D01*
X186236555Y-84803132D01*
X186393132Y-84646555D01*
X186520142Y-84465167D01*
X186613723Y-84264480D01*
X186671035Y-84050591D01*
X186690334Y-83830000D01*
X186671035Y-83609409D01*
X186613723Y-83395520D01*
X186607283Y-83381710D01*
X186563331Y-83287454D01*
X186520142Y-83194833D01*
X186393132Y-83013445D01*
X186236555Y-82856868D01*
X186055167Y-82729858D01*
X185931907Y-82672381D01*
X185879468Y-82626210D01*
X185860316Y-82559017D01*
X185880531Y-82492136D01*
X185931908Y-82447618D01*
X186055167Y-82390142D01*
X186236555Y-82263132D01*
X186393132Y-82106555D01*
X186520142Y-81925167D01*
X186613723Y-81724480D01*
X186671035Y-81510591D01*
X186690096Y-81292716D01*
X186690334Y-81290001D01*
X186690334Y-81289998D01*
X186679438Y-81165454D01*
X186671035Y-81069409D01*
X186613723Y-80855520D01*
X186607283Y-80841710D01*
X186562725Y-80746153D01*
X186520142Y-80654833D01*
X186393132Y-80473445D01*
X186236555Y-80316868D01*
X186055167Y-80189858D01*
X185931907Y-80132381D01*
X185879468Y-80086210D01*
X185860316Y-80019017D01*
X185880531Y-79952136D01*
X185931908Y-79907618D01*
X185953353Y-79897618D01*
X186055167Y-79850142D01*
X186236555Y-79723132D01*
X186393132Y-79566555D01*
X186520142Y-79385167D01*
X186613723Y-79184480D01*
X186671035Y-78970591D01*
X186689754Y-78756627D01*
X186690334Y-78750001D01*
X186690334Y-78749998D01*
X186676866Y-78596061D01*
X186671035Y-78529409D01*
X186613723Y-78315520D01*
X186520142Y-78114833D01*
X186393132Y-77933445D01*
X186236555Y-77776868D01*
X186055167Y-77649858D01*
X186047522Y-77646293D01*
X185931317Y-77592106D01*
X185878877Y-77545934D01*
X185859725Y-77478741D01*
X185879941Y-77411859D01*
X185931317Y-77367342D01*
X186054912Y-77309708D01*
X186054914Y-77309707D01*
X186120342Y-77263894D01*
X185561366Y-76704918D01*
X185565161Y-76704373D01*
X185698562Y-76643451D01*
X185809395Y-76547413D01*
X185888682Y-76424040D01*
X185911132Y-76347580D01*
X186473894Y-76910342D01*
X186519706Y-76844915D01*
X186613250Y-76644309D01*
X186613254Y-76644300D01*
X186670538Y-76430509D01*
X186670540Y-76430499D01*
X186689832Y-76210000D01*
X186689832Y-76209999D01*
X186670540Y-75989500D01*
X186670538Y-75989490D01*
X186613254Y-75775699D01*
X186613250Y-75775690D01*
X186519707Y-75575085D01*
X186519706Y-75575083D01*
X186473894Y-75509657D01*
X186473894Y-75509656D01*
X185911132Y-76072418D01*
X185888682Y-75995960D01*
X185809395Y-75872587D01*
X185698562Y-75776549D01*
X185565161Y-75715627D01*
X185561365Y-75715081D01*
X186120342Y-75156104D01*
X186120341Y-75156103D01*
X186054919Y-75110295D01*
X185931316Y-75052657D01*
X185878877Y-75006484D01*
X185859725Y-74939291D01*
X185879941Y-74872410D01*
X185931312Y-74827895D01*
X186055167Y-74770142D01*
X186236555Y-74643132D01*
X186393132Y-74486555D01*
X186520142Y-74305167D01*
X186613723Y-74104480D01*
X186671035Y-73890591D01*
X186690334Y-73670000D01*
X186688648Y-73650734D01*
X186679403Y-73545053D01*
X186671035Y-73449409D01*
X186613723Y-73235520D01*
X186520142Y-73034833D01*
X186393132Y-72853445D01*
X186236555Y-72696868D01*
X186055167Y-72569858D01*
X185986829Y-72537992D01*
X185934810Y-72513735D01*
X185931907Y-72512381D01*
X185879468Y-72466210D01*
X185860316Y-72399017D01*
X185880531Y-72332136D01*
X185931908Y-72287618D01*
X185990286Y-72260396D01*
X186055167Y-72230142D01*
X186236555Y-72103132D01*
X186393132Y-71946555D01*
X186520142Y-71765167D01*
X186613723Y-71564480D01*
X186671035Y-71350591D01*
X186690334Y-71130000D01*
X186671035Y-70909409D01*
X186613723Y-70695520D01*
X186520142Y-70494833D01*
X186393132Y-70313445D01*
X186236555Y-70156868D01*
X186055167Y-70029858D01*
X186052681Y-70028699D01*
X185931908Y-69972382D01*
X185879468Y-69926210D01*
X185860316Y-69859017D01*
X185880531Y-69792136D01*
X185931908Y-69747618D01*
X186055167Y-69690142D01*
X186236555Y-69563132D01*
X186393132Y-69406555D01*
X186520142Y-69225167D01*
X186613723Y-69024480D01*
X186671035Y-68810591D01*
X186690334Y-68590000D01*
X186689117Y-68576094D01*
X186677898Y-68447853D01*
X186671035Y-68369409D01*
X186613723Y-68155520D01*
X186520142Y-67954833D01*
X186393132Y-67773445D01*
X186236555Y-67616868D01*
X186055167Y-67489858D01*
X186038019Y-67481862D01*
X185931908Y-67432382D01*
X185879468Y-67386210D01*
X185860316Y-67319017D01*
X185880531Y-67252136D01*
X185931908Y-67207618D01*
X186055167Y-67150142D01*
X186236555Y-67023132D01*
X186393132Y-66866555D01*
X186520142Y-66685167D01*
X186613723Y-66484480D01*
X186671035Y-66270591D01*
X186690334Y-66050000D01*
X186689462Y-66040038D01*
X186676189Y-65888319D01*
X186671035Y-65829409D01*
X186613723Y-65615520D01*
X186520142Y-65414833D01*
X186393132Y-65233445D01*
X186236555Y-65076868D01*
X186055167Y-64949858D01*
X186040185Y-64942872D01*
X185931908Y-64892382D01*
X185879468Y-64846210D01*
X185860316Y-64779017D01*
X185880531Y-64712136D01*
X185931908Y-64667618D01*
X186055167Y-64610142D01*
X186236555Y-64483132D01*
X186393132Y-64326555D01*
X186520142Y-64145167D01*
X186613723Y-63944480D01*
X186671035Y-63730591D01*
X186690334Y-63510000D01*
X186671035Y-63289409D01*
X186613723Y-63075520D01*
X186603068Y-63052671D01*
X186549341Y-62937452D01*
X186520142Y-62874833D01*
X186393132Y-62693445D01*
X186236555Y-62536868D01*
X186055167Y-62409858D01*
X186053070Y-62408880D01*
X185931317Y-62352106D01*
X185878877Y-62305934D01*
X185859725Y-62238741D01*
X185879941Y-62171859D01*
X185931317Y-62127342D01*
X186054912Y-62069708D01*
X186054914Y-62069707D01*
X186120342Y-62023894D01*
X185561366Y-61464918D01*
X185565161Y-61464373D01*
X185698562Y-61403451D01*
X185809395Y-61307413D01*
X185888682Y-61184040D01*
X185911132Y-61107580D01*
X186473894Y-61670342D01*
X186519706Y-61604915D01*
X186613250Y-61404309D01*
X186613254Y-61404300D01*
X186670538Y-61190509D01*
X186670540Y-61190499D01*
X186689832Y-60970000D01*
X186689832Y-60969999D01*
X186670540Y-60749500D01*
X186670538Y-60749490D01*
X186613254Y-60535699D01*
X186613250Y-60535690D01*
X186519707Y-60335085D01*
X186519706Y-60335083D01*
X186473894Y-60269657D01*
X186473894Y-60269656D01*
X185911132Y-60832418D01*
X185888682Y-60755960D01*
X185809395Y-60632587D01*
X185698562Y-60536549D01*
X185565161Y-60475627D01*
X185561366Y-60475081D01*
X186120342Y-59916105D01*
X186120341Y-59916103D01*
X186054919Y-59870295D01*
X185854309Y-59776749D01*
X185854300Y-59776745D01*
X185640509Y-59719461D01*
X185640499Y-59719459D01*
X185420001Y-59700168D01*
X185419999Y-59700168D01*
X185199500Y-59719459D01*
X185199490Y-59719461D01*
X184985699Y-59776745D01*
X184985690Y-59776749D01*
X184785084Y-59870293D01*
X184719657Y-59916104D01*
X185278634Y-60475081D01*
X185274839Y-60475627D01*
X185141438Y-60536549D01*
X185030605Y-60632587D01*
X184951318Y-60755960D01*
X184928866Y-60832419D01*
X184366104Y-60269657D01*
X184320293Y-60335084D01*
X184226749Y-60535690D01*
X184226745Y-60535699D01*
X184169461Y-60749490D01*
X184169459Y-60749500D01*
X184150168Y-60969999D01*
X184150168Y-60970000D01*
X184169459Y-61190499D01*
X184169461Y-61190509D01*
X184226745Y-61404300D01*
X184226749Y-61404309D01*
X184320295Y-61604919D01*
X184366103Y-61670341D01*
X184366105Y-61670342D01*
X184928866Y-61107580D01*
X184951318Y-61184040D01*
X185030605Y-61307413D01*
X185141438Y-61403451D01*
X185274839Y-61464373D01*
X185278633Y-61464918D01*
X184719656Y-62023894D01*
X184785083Y-62069706D01*
X184785085Y-62069707D01*
X184908683Y-62127342D01*
X184961122Y-62173514D01*
X184980274Y-62240708D01*
X184960058Y-62307589D01*
X184908683Y-62352106D01*
X184784833Y-62409857D01*
X184603444Y-62536868D01*
X184446868Y-62693444D01*
X184319857Y-62874834D01*
X184319856Y-62874836D01*
X184226279Y-63075513D01*
X184226275Y-63075524D01*
X184168965Y-63289407D01*
X184168964Y-63289414D01*
X184149666Y-63509998D01*
X184149666Y-63510001D01*
X184168964Y-63730585D01*
X184168965Y-63730592D01*
X184226275Y-63944475D01*
X184226279Y-63944486D01*
X184319856Y-64145163D01*
X184319858Y-64145167D01*
X184446868Y-64326555D01*
X184603445Y-64483132D01*
X184784833Y-64610142D01*
X184846828Y-64639050D01*
X184908091Y-64667618D01*
X184960531Y-64713790D01*
X184979683Y-64780983D01*
X184959467Y-64847865D01*
X184908091Y-64892382D01*
X184784836Y-64949856D01*
X184784834Y-64949857D01*
X184603444Y-65076868D01*
X184446868Y-65233444D01*
X184319857Y-65414834D01*
X184319856Y-65414836D01*
X184226279Y-65615513D01*
X184226275Y-65615524D01*
X184197110Y-65724372D01*
X184172042Y-65817928D01*
X184167564Y-65834639D01*
X184165471Y-65834078D01*
X184138589Y-65888319D01*
X184078642Y-65924210D01*
X184008808Y-65921993D01*
X183951258Y-65882373D01*
X183924264Y-65817928D01*
X183923500Y-65804184D01*
X183923500Y-65783651D01*
X183923500Y-65783650D01*
X183922629Y-65776759D01*
X183922172Y-65770945D01*
X183920709Y-65724374D01*
X183920709Y-65724372D01*
X183915120Y-65705137D01*
X183911174Y-65686084D01*
X183908664Y-65666208D01*
X183891501Y-65622859D01*
X183889614Y-65617346D01*
X183889083Y-65615520D01*
X183876617Y-65572610D01*
X183866421Y-65555369D01*
X183857860Y-65537893D01*
X183850486Y-65519269D01*
X183850486Y-65519267D01*
X183840474Y-65505488D01*
X183823083Y-65481550D01*
X183819900Y-65476705D01*
X183796170Y-65436579D01*
X183796165Y-65436573D01*
X183782005Y-65422413D01*
X183769370Y-65407620D01*
X183757593Y-65391412D01*
X183721693Y-65361713D01*
X183717381Y-65357790D01*
X182909413Y-64549822D01*
X182875928Y-64488499D01*
X182877319Y-64430048D01*
X182878872Y-64424252D01*
X182895635Y-64361692D01*
X182915468Y-64135000D01*
X182895635Y-63908308D01*
X182836739Y-63688504D01*
X182740568Y-63482266D01*
X182610047Y-63295861D01*
X182610045Y-63295858D01*
X182449141Y-63134954D01*
X182262734Y-63004432D01*
X182262728Y-63004429D01*
X182204725Y-62977382D01*
X182152285Y-62931210D01*
X182133133Y-62864017D01*
X182153348Y-62797135D01*
X182204725Y-62752618D01*
X182262734Y-62725568D01*
X182449139Y-62595047D01*
X182610047Y-62434139D01*
X182740568Y-62247734D01*
X182836739Y-62041496D01*
X182895635Y-61821692D01*
X182915468Y-61595000D01*
X182895635Y-61368308D01*
X182836739Y-61148504D01*
X182740568Y-60942266D01*
X182642839Y-60802693D01*
X182610045Y-60755858D01*
X182449141Y-60594954D01*
X182262734Y-60464432D01*
X182262732Y-60464431D01*
X182056497Y-60368261D01*
X182056488Y-60368258D01*
X181836697Y-60309366D01*
X181836693Y-60309365D01*
X181836692Y-60309365D01*
X181836691Y-60309364D01*
X181836686Y-60309364D01*
X181610002Y-60289532D01*
X181609998Y-60289532D01*
X181383313Y-60309364D01*
X181383302Y-60309366D01*
X181163511Y-60368258D01*
X181163502Y-60368261D01*
X180957267Y-60464431D01*
X180957265Y-60464432D01*
X180770858Y-60594954D01*
X180609954Y-60755858D01*
X180479432Y-60942265D01*
X180479431Y-60942267D01*
X180383261Y-61148502D01*
X180383258Y-61148511D01*
X180324366Y-61368302D01*
X180324364Y-61368313D01*
X180304532Y-61594998D01*
X180304532Y-61595001D01*
X180324364Y-61821686D01*
X180324366Y-61821697D01*
X180383258Y-62041488D01*
X180383261Y-62041497D01*
X180479431Y-62247732D01*
X180479432Y-62247734D01*
X180609954Y-62434141D01*
X180770858Y-62595045D01*
X180770861Y-62595047D01*
X180957266Y-62725568D01*
X181015275Y-62752618D01*
X181067714Y-62798791D01*
X181086866Y-62865984D01*
X181066650Y-62932865D01*
X181015275Y-62977382D01*
X180957267Y-63004431D01*
X180957265Y-63004432D01*
X180770858Y-63134954D01*
X180609954Y-63295858D01*
X180479432Y-63482265D01*
X180479431Y-63482267D01*
X180383261Y-63688502D01*
X180383258Y-63688511D01*
X180324366Y-63908302D01*
X180324364Y-63908313D01*
X180304532Y-64134998D01*
X180304532Y-64135001D01*
X180324364Y-64361686D01*
X180324366Y-64361697D01*
X180383258Y-64581488D01*
X180383261Y-64581497D01*
X180479431Y-64787732D01*
X180479432Y-64787734D01*
X180609954Y-64974141D01*
X180770858Y-65135045D01*
X180785163Y-65145061D01*
X180957266Y-65265568D01*
X181015275Y-65292618D01*
X181067714Y-65338791D01*
X181086866Y-65405984D01*
X181066650Y-65472865D01*
X181015275Y-65517381D01*
X181011230Y-65519268D01*
X180957267Y-65544431D01*
X180957265Y-65544432D01*
X180770858Y-65674954D01*
X180609954Y-65835858D01*
X180479432Y-66022265D01*
X180479431Y-66022267D01*
X180383261Y-66228502D01*
X180383258Y-66228511D01*
X180324366Y-66448302D01*
X180324364Y-66448313D01*
X180304532Y-66674998D01*
X180304532Y-66675001D01*
X180324364Y-66901686D01*
X180324366Y-66901697D01*
X180383258Y-67121488D01*
X180383261Y-67121497D01*
X180479431Y-67327732D01*
X180479432Y-67327734D01*
X180609954Y-67514141D01*
X180770858Y-67675045D01*
X180770861Y-67675047D01*
X180957266Y-67805568D01*
X181015275Y-67832618D01*
X181067714Y-67878791D01*
X181086866Y-67945984D01*
X181066650Y-68012865D01*
X181015275Y-68057382D01*
X180957267Y-68084431D01*
X180957265Y-68084432D01*
X180770858Y-68214954D01*
X180609954Y-68375858D01*
X180497387Y-68536623D01*
X180442811Y-68580248D01*
X180395812Y-68589500D01*
X179776507Y-68589500D01*
X179709468Y-68569815D01*
X179663713Y-68517011D01*
X179653769Y-68447853D01*
X179660325Y-68422167D01*
X179706196Y-68299179D01*
X179706198Y-68299172D01*
X179712599Y-68239644D01*
X179712600Y-68239627D01*
X179712600Y-67641800D01*
X178386600Y-67641800D01*
X178319561Y-67622115D01*
X178273806Y-67569311D01*
X178262600Y-67517800D01*
X178262600Y-66091800D01*
X178762600Y-66091800D01*
X178762600Y-67141800D01*
X179712600Y-67141800D01*
X179712600Y-66543972D01*
X179712599Y-66543955D01*
X179706198Y-66484427D01*
X179706196Y-66484420D01*
X179655954Y-66349713D01*
X179655950Y-66349706D01*
X179569790Y-66234612D01*
X179569787Y-66234609D01*
X179454693Y-66148449D01*
X179454686Y-66148445D01*
X179319979Y-66098203D01*
X179319972Y-66098201D01*
X179260444Y-66091800D01*
X178762600Y-66091800D01*
X178262600Y-66091800D01*
X177764755Y-66091800D01*
X177705227Y-66098201D01*
X177705220Y-66098203D01*
X177570513Y-66148445D01*
X177570506Y-66148449D01*
X177455412Y-66234609D01*
X177455409Y-66234612D01*
X177369249Y-66349706D01*
X177369245Y-66349713D01*
X177319003Y-66484420D01*
X177319001Y-66484427D01*
X177312600Y-66543955D01*
X177312600Y-66567300D01*
X177292915Y-66634339D01*
X177240111Y-66680094D01*
X177188600Y-66691300D01*
X176814730Y-66691300D01*
X176814723Y-66691301D01*
X176755116Y-66697708D01*
X176705932Y-66716053D01*
X176636240Y-66721037D01*
X176619267Y-66716053D01*
X176570082Y-66697708D01*
X176570083Y-66697708D01*
X176510483Y-66691301D01*
X176510481Y-66691300D01*
X176510473Y-66691300D01*
X176510464Y-66691300D01*
X175714729Y-66691300D01*
X175714723Y-66691301D01*
X175655116Y-66697708D01*
X175605932Y-66716053D01*
X175536240Y-66721037D01*
X175519267Y-66716053D01*
X175470082Y-66697708D01*
X175470083Y-66697708D01*
X175410483Y-66691301D01*
X175410481Y-66691300D01*
X175410473Y-66691300D01*
X175410464Y-66691300D01*
X174614729Y-66691300D01*
X174614723Y-66691301D01*
X174555117Y-66697708D01*
X174505216Y-66716320D01*
X174435525Y-66721303D01*
X174418553Y-66716319D01*
X174369983Y-66698203D01*
X174369972Y-66698201D01*
X174310444Y-66691800D01*
X174162600Y-66691800D01*
X174162600Y-67135946D01*
X174162245Y-67142577D01*
X174162100Y-67143922D01*
X174162100Y-68839663D01*
X174162101Y-68839680D01*
X174162244Y-68841002D01*
X174162600Y-68847635D01*
X174162600Y-69291800D01*
X174263100Y-69291800D01*
X174330139Y-69311485D01*
X174375894Y-69364289D01*
X174387100Y-69415800D01*
X174387100Y-70273047D01*
X174367415Y-70340086D01*
X174314611Y-70385841D01*
X174245453Y-70395785D01*
X174181897Y-70366760D01*
X174175419Y-70360728D01*
X173474419Y-69659728D01*
X173440934Y-69598405D01*
X173438100Y-69572047D01*
X173438100Y-69415800D01*
X173457785Y-69348761D01*
X173510589Y-69303006D01*
X173562100Y-69291800D01*
X173662600Y-69291800D01*
X173662600Y-68847645D01*
X173662956Y-68841011D01*
X173663099Y-68839680D01*
X173663100Y-68839673D01*
X173663099Y-67143928D01*
X173662955Y-67142585D01*
X173662600Y-67135955D01*
X173662600Y-66691800D01*
X173514755Y-66691800D01*
X173455227Y-66698201D01*
X173455223Y-66698202D01*
X173406646Y-66716320D01*
X173336954Y-66721303D01*
X173319982Y-66716319D01*
X173270085Y-66697709D01*
X173270083Y-66697708D01*
X173210483Y-66691301D01*
X173210481Y-66691300D01*
X173210473Y-66691300D01*
X173210464Y-66691300D01*
X172414729Y-66691300D01*
X172414723Y-66691301D01*
X172355116Y-66697708D01*
X172305932Y-66716053D01*
X172236240Y-66721037D01*
X172219267Y-66716053D01*
X172170082Y-66697708D01*
X172170083Y-66697708D01*
X172110483Y-66691301D01*
X172110481Y-66691300D01*
X172110473Y-66691300D01*
X172110465Y-66691300D01*
X171670572Y-66691300D01*
X171603533Y-66671615D01*
X171557778Y-66618811D01*
X171549284Y-66593093D01*
X171548274Y-66588347D01*
X171548274Y-66588344D01*
X171498322Y-66434609D01*
X171489781Y-66408321D01*
X171489778Y-66408315D01*
X171395133Y-66244384D01*
X171268471Y-66103712D01*
X171268470Y-66103711D01*
X171115334Y-65992451D01*
X171115329Y-65992448D01*
X170942407Y-65915457D01*
X170942402Y-65915455D01*
X170786758Y-65882373D01*
X170757246Y-65876100D01*
X170567954Y-65876100D01*
X170538442Y-65882373D01*
X170382797Y-65915455D01*
X170382792Y-65915457D01*
X170209870Y-65992448D01*
X170209866Y-65992451D01*
X170176684Y-66016559D01*
X170110877Y-66040038D01*
X170042824Y-66024212D01*
X170030916Y-66016559D01*
X169997733Y-65992451D01*
X169997729Y-65992448D01*
X169824807Y-65915457D01*
X169824802Y-65915455D01*
X169669158Y-65882373D01*
X169639646Y-65876100D01*
X169450354Y-65876100D01*
X169420842Y-65882373D01*
X169265197Y-65915455D01*
X169265192Y-65915457D01*
X169092270Y-65992448D01*
X169092266Y-65992451D01*
X169071784Y-66007332D01*
X169005977Y-66030811D01*
X168937923Y-66014984D01*
X168926016Y-66007332D01*
X168905533Y-65992451D01*
X168905529Y-65992448D01*
X168732607Y-65915457D01*
X168732602Y-65915455D01*
X168576958Y-65882373D01*
X168547446Y-65876100D01*
X168358154Y-65876100D01*
X168328642Y-65882373D01*
X168172997Y-65915455D01*
X168172992Y-65915457D01*
X168000070Y-65992448D01*
X168000065Y-65992451D01*
X167846929Y-66103711D01*
X167720266Y-66244385D01*
X167625621Y-66408315D01*
X167625618Y-66408322D01*
X167567127Y-66588340D01*
X167567126Y-66588344D01*
X167547340Y-66776600D01*
X167567126Y-66964856D01*
X167567127Y-66964860D01*
X167575150Y-66989553D01*
X167577143Y-67059394D01*
X167573403Y-67071194D01*
X167568509Y-67084317D01*
X167568508Y-67084320D01*
X167562101Y-67143916D01*
X167562100Y-67143935D01*
X167562100Y-68839670D01*
X167562101Y-68839676D01*
X167568508Y-68899283D01*
X167618802Y-69034128D01*
X167618806Y-69034135D01*
X167705052Y-69149344D01*
X167705055Y-69149347D01*
X167820264Y-69235593D01*
X167820271Y-69235597D01*
X167955117Y-69285891D01*
X167955116Y-69285891D01*
X167962044Y-69286635D01*
X168014727Y-69292300D01*
X168810472Y-69292299D01*
X168870083Y-69285891D01*
X168919265Y-69267546D01*
X168988955Y-69262561D01*
X169005933Y-69267547D01*
X169055108Y-69285888D01*
X169055111Y-69285888D01*
X169055117Y-69285891D01*
X169114727Y-69292300D01*
X169910472Y-69292299D01*
X169970083Y-69285891D01*
X170019265Y-69267546D01*
X170088955Y-69262561D01*
X170105933Y-69267547D01*
X170155108Y-69285888D01*
X170155111Y-69285889D01*
X170155117Y-69285891D01*
X170214727Y-69292300D01*
X170838100Y-69292299D01*
X170905139Y-69311983D01*
X170950894Y-69364787D01*
X170962100Y-69416299D01*
X170962100Y-69517500D01*
X170942415Y-69584539D01*
X170889611Y-69630294D01*
X170838100Y-69641500D01*
X169966984Y-69641500D01*
X169864204Y-69652000D01*
X169864203Y-69652001D01*
X169697664Y-69707186D01*
X169697662Y-69707187D01*
X169548348Y-69799286D01*
X169548344Y-69799289D01*
X169424289Y-69923344D01*
X169424286Y-69923348D01*
X169332187Y-70072662D01*
X169332186Y-70072664D01*
X169277001Y-70239203D01*
X169277000Y-70239204D01*
X169266500Y-70341984D01*
X169266500Y-71442001D01*
X169266661Y-71445164D01*
X169265778Y-71445208D01*
X169253685Y-71510263D01*
X169230778Y-71541852D01*
X168661451Y-72111181D01*
X168600128Y-72144666D01*
X168573770Y-72147500D01*
X166205745Y-72147500D01*
X166138706Y-72127815D01*
X166092951Y-72075011D01*
X166083007Y-72005853D01*
X166104170Y-71952376D01*
X166230134Y-71772482D01*
X166326265Y-71566326D01*
X166326269Y-71566317D01*
X166378872Y-71370000D01*
X165415686Y-71370000D01*
X165427641Y-71358045D01*
X165485165Y-71245148D01*
X165504986Y-71120000D01*
X165485165Y-70994852D01*
X165427641Y-70881955D01*
X165415686Y-70870000D01*
X166378872Y-70870000D01*
X166378872Y-70869999D01*
X166326269Y-70673682D01*
X166326265Y-70673673D01*
X166230134Y-70467517D01*
X166099657Y-70281179D01*
X165938820Y-70120342D01*
X165752482Y-69989865D01*
X165546328Y-69893734D01*
X165350000Y-69841127D01*
X165350000Y-70804314D01*
X165338045Y-70792359D01*
X165225148Y-70734835D01*
X165131481Y-70720000D01*
X165068519Y-70720000D01*
X164974852Y-70734835D01*
X164861955Y-70792359D01*
X164850000Y-70804314D01*
X164850000Y-69841127D01*
X164653671Y-69893734D01*
X164447517Y-69989865D01*
X164261179Y-70120342D01*
X164100342Y-70281179D01*
X163969865Y-70467517D01*
X163873734Y-70673673D01*
X163873730Y-70673682D01*
X163821127Y-70869999D01*
X163821128Y-70870000D01*
X164784314Y-70870000D01*
X164772359Y-70881955D01*
X164714835Y-70994852D01*
X164695014Y-71120000D01*
X164714835Y-71245148D01*
X164772359Y-71358045D01*
X164784314Y-71370000D01*
X163821128Y-71370000D01*
X163873730Y-71566317D01*
X163873734Y-71566326D01*
X163969865Y-71772482D01*
X164095830Y-71952376D01*
X164118157Y-72018582D01*
X164101147Y-72086350D01*
X164050199Y-72134163D01*
X163994255Y-72147500D01*
X163938229Y-72147500D01*
X163871190Y-72127815D01*
X163850548Y-72111181D01*
X162584819Y-70845451D01*
X162551334Y-70784128D01*
X162548500Y-70757770D01*
X162548500Y-68805080D01*
X162568185Y-68738041D01*
X162620989Y-68692286D01*
X162690147Y-68682342D01*
X162701014Y-68684403D01*
X162705226Y-68685398D01*
X162764755Y-68691799D01*
X162764772Y-68691800D01*
X163462600Y-68691800D01*
X163462600Y-67741800D01*
X163962600Y-67741800D01*
X163962600Y-68691800D01*
X164660428Y-68691800D01*
X164660444Y-68691799D01*
X164719972Y-68685398D01*
X164719979Y-68685396D01*
X164854686Y-68635154D01*
X164854693Y-68635150D01*
X164969787Y-68548990D01*
X164969790Y-68548987D01*
X165055950Y-68433893D01*
X165055954Y-68433886D01*
X165106196Y-68299179D01*
X165106198Y-68299172D01*
X165112599Y-68239644D01*
X165112600Y-68239627D01*
X165112600Y-67741800D01*
X163962600Y-67741800D01*
X163462600Y-67741800D01*
X163462600Y-66291800D01*
X163962600Y-66291800D01*
X163962600Y-67241800D01*
X165112600Y-67241800D01*
X165112600Y-66743972D01*
X165112599Y-66743955D01*
X165106198Y-66684427D01*
X165106196Y-66684420D01*
X165055954Y-66549713D01*
X165055950Y-66549706D01*
X164969790Y-66434612D01*
X164969787Y-66434609D01*
X164854693Y-66348449D01*
X164854686Y-66348445D01*
X164719979Y-66298203D01*
X164719972Y-66298201D01*
X164660444Y-66291800D01*
X163962600Y-66291800D01*
X163462600Y-66291800D01*
X162764755Y-66291800D01*
X162705218Y-66298202D01*
X162701004Y-66299198D01*
X162697639Y-66299017D01*
X162697513Y-66299031D01*
X162697510Y-66299010D01*
X162631235Y-66295452D01*
X162574567Y-66254580D01*
X162548992Y-66189559D01*
X162548500Y-66178519D01*
X162548500Y-62811705D01*
X162549809Y-62793735D01*
X162550129Y-62791547D01*
X162553289Y-62769977D01*
X162552343Y-62759168D01*
X162548736Y-62717934D01*
X162548500Y-62712528D01*
X162548500Y-62704297D01*
X162548500Y-62704291D01*
X162544693Y-62671724D01*
X162541934Y-62640187D01*
X162537999Y-62595201D01*
X162536539Y-62588129D01*
X162536597Y-62588116D01*
X162534965Y-62580757D01*
X162534906Y-62580772D01*
X162533242Y-62573753D01*
X162533241Y-62573745D01*
X162506974Y-62501576D01*
X162482814Y-62428666D01*
X162482809Y-62428659D01*
X162479760Y-62422118D01*
X162479815Y-62422091D01*
X162476533Y-62415313D01*
X162476480Y-62415340D01*
X162473235Y-62408880D01*
X162431028Y-62344708D01*
X162413492Y-62316277D01*
X162390712Y-62279345D01*
X162390711Y-62279344D01*
X162390710Y-62279342D01*
X162386234Y-62273682D01*
X162386281Y-62273644D01*
X162381519Y-62267799D01*
X162381474Y-62267838D01*
X162376834Y-62262309D01*
X162376832Y-62262307D01*
X162376830Y-62262304D01*
X162346061Y-62233275D01*
X162320965Y-62209597D01*
X161321818Y-61210450D01*
X161288333Y-61149127D01*
X161285499Y-61122769D01*
X161285499Y-60157129D01*
X161285498Y-60157123D01*
X161285497Y-60157116D01*
X161279091Y-60097517D01*
X161268943Y-60070310D01*
X161228797Y-59962671D01*
X161228793Y-59962664D01*
X161142547Y-59847455D01*
X161142544Y-59847452D01*
X161027335Y-59761206D01*
X161027328Y-59761202D01*
X160892482Y-59710908D01*
X160892483Y-59710908D01*
X160832883Y-59704501D01*
X160832881Y-59704500D01*
X160832873Y-59704500D01*
X160832864Y-59704500D01*
X159207129Y-59704500D01*
X159207123Y-59704501D01*
X159147516Y-59710908D01*
X159012671Y-59761202D01*
X159012664Y-59761206D01*
X158897455Y-59847452D01*
X158897452Y-59847455D01*
X158811206Y-59962664D01*
X158811202Y-59962671D01*
X158760908Y-60097517D01*
X158754501Y-60157116D01*
X158754501Y-60157123D01*
X158754500Y-60157135D01*
X158754500Y-61782870D01*
X158754501Y-61782876D01*
X158760908Y-61842483D01*
X158811202Y-61977328D01*
X158811206Y-61977335D01*
X158897452Y-62092544D01*
X158897455Y-62092547D01*
X159012664Y-62178793D01*
X159012671Y-62178797D01*
X159147517Y-62229091D01*
X159147516Y-62229091D01*
X159154444Y-62229835D01*
X159207127Y-62235500D01*
X159240564Y-62235499D01*
X159307601Y-62255182D01*
X159353357Y-62307984D01*
X159363302Y-62377143D01*
X159334279Y-62440699D01*
X159311689Y-62461073D01*
X159203447Y-62536866D01*
X159203441Y-62536871D01*
X159046868Y-62693444D01*
X158919857Y-62874834D01*
X158919856Y-62874836D01*
X158826279Y-63075513D01*
X158826275Y-63075524D01*
X158768965Y-63289407D01*
X158768964Y-63289414D01*
X158749666Y-63509998D01*
X158749666Y-63510001D01*
X158768964Y-63730585D01*
X158768965Y-63730592D01*
X158826275Y-63944475D01*
X158826279Y-63944486D01*
X158919856Y-64145163D01*
X158919858Y-64145167D01*
X159046868Y-64326555D01*
X159203445Y-64483132D01*
X159384833Y-64610142D01*
X159446828Y-64639050D01*
X159508091Y-64667618D01*
X159560531Y-64713790D01*
X159579683Y-64780983D01*
X159559467Y-64847865D01*
X159508091Y-64892382D01*
X159384836Y-64949856D01*
X159384834Y-64949857D01*
X159203444Y-65076868D01*
X159046868Y-65233444D01*
X158919857Y-65414834D01*
X158919856Y-65414836D01*
X158826279Y-65615513D01*
X158826275Y-65615524D01*
X158768965Y-65829407D01*
X158768964Y-65829414D01*
X158749666Y-66049998D01*
X158749666Y-66050001D01*
X158768964Y-66270585D01*
X158768966Y-66270596D01*
X158789396Y-66346841D01*
X158787733Y-66416691D01*
X158748570Y-66474553D01*
X158684342Y-66502057D01*
X158619185Y-66492213D01*
X158521807Y-66448857D01*
X158521802Y-66448855D01*
X158370477Y-66416691D01*
X158336646Y-66409500D01*
X158147354Y-66409500D01*
X158114897Y-66416398D01*
X157962197Y-66448855D01*
X157962192Y-66448857D01*
X157789270Y-66525848D01*
X157789265Y-66525851D01*
X157636129Y-66637111D01*
X157509466Y-66777785D01*
X157414821Y-66941715D01*
X157414818Y-66941722D01*
X157356406Y-67121497D01*
X157356326Y-67121744D01*
X157336540Y-67310000D01*
X157356326Y-67498256D01*
X157357209Y-67500973D01*
X157414818Y-67678277D01*
X157414821Y-67678284D01*
X157509467Y-67842216D01*
X157540909Y-67877135D01*
X157584650Y-67925715D01*
X157614880Y-67988706D01*
X157616500Y-68008687D01*
X157616500Y-72470723D01*
X157596815Y-72537762D01*
X157544011Y-72583517D01*
X157474853Y-72593461D01*
X157440096Y-72583105D01*
X157291331Y-72513735D01*
X157291317Y-72513730D01*
X157071610Y-72454860D01*
X157071599Y-72454858D01*
X156845002Y-72435034D01*
X156844998Y-72435034D01*
X156618400Y-72454858D01*
X156618389Y-72454860D01*
X156398682Y-72513730D01*
X156398673Y-72513734D01*
X156192513Y-72609868D01*
X156119527Y-72660973D01*
X156800600Y-73342046D01*
X156719852Y-73354835D01*
X156606955Y-73412359D01*
X156517359Y-73501955D01*
X156459835Y-73614852D01*
X156447046Y-73695600D01*
X155765973Y-73014527D01*
X155714868Y-73087513D01*
X155618734Y-73293673D01*
X155618728Y-73293688D01*
X155599642Y-73364917D01*
X155563277Y-73424577D01*
X155500430Y-73455105D01*
X155431054Y-73446810D01*
X155377177Y-73402324D01*
X155361210Y-73368823D01*
X155314396Y-73214499D01*
X155314394Y-73214496D01*
X155314394Y-73214494D01*
X155226137Y-73049376D01*
X155226135Y-73049373D01*
X155107357Y-72904642D01*
X154962626Y-72785864D01*
X154962623Y-72785862D01*
X154797502Y-72697604D01*
X154618333Y-72643253D01*
X154618331Y-72643252D01*
X154432000Y-72624901D01*
X154245670Y-72643252D01*
X154201495Y-72656653D01*
X154131628Y-72657276D01*
X154072515Y-72620027D01*
X154042924Y-72556733D01*
X154041500Y-72537992D01*
X154041500Y-63436687D01*
X154061185Y-63369648D01*
X154073350Y-63353715D01*
X154091891Y-63333122D01*
X154148533Y-63270216D01*
X154243179Y-63106284D01*
X154301674Y-62926256D01*
X154321460Y-62738000D01*
X154301674Y-62549744D01*
X154243179Y-62369716D01*
X154148533Y-62205784D01*
X154021871Y-62065112D01*
X153989368Y-62041497D01*
X153868734Y-61953851D01*
X153868729Y-61953848D01*
X153695807Y-61876857D01*
X153695802Y-61876855D01*
X153534089Y-61842483D01*
X153510646Y-61837500D01*
X153321354Y-61837500D01*
X153207496Y-61861700D01*
X153137830Y-61856384D01*
X153082097Y-61814246D01*
X153057992Y-61748666D01*
X153058189Y-61729602D01*
X153069966Y-61595000D01*
X153069966Y-61594997D01*
X153050141Y-61368400D01*
X153050139Y-61368389D01*
X152991269Y-61148682D01*
X152991265Y-61148673D01*
X152895133Y-60942516D01*
X152895131Y-60942512D01*
X152844026Y-60869526D01*
X152844025Y-60869526D01*
X152162953Y-61550598D01*
X152150165Y-61469852D01*
X152092641Y-61356955D01*
X152003045Y-61267359D01*
X151890148Y-61209835D01*
X151809400Y-61197046D01*
X152490472Y-60515974D01*
X152490471Y-60515973D01*
X152417483Y-60464866D01*
X152417481Y-60464865D01*
X152211326Y-60368734D01*
X152211317Y-60368730D01*
X151991610Y-60309860D01*
X151991599Y-60309858D01*
X151765002Y-60290034D01*
X151764998Y-60290034D01*
X151538400Y-60309858D01*
X151538389Y-60309860D01*
X151318682Y-60368730D01*
X151318673Y-60368734D01*
X151112513Y-60464868D01*
X151039527Y-60515972D01*
X151039526Y-60515973D01*
X151720600Y-61197046D01*
X151639852Y-61209835D01*
X151526955Y-61267359D01*
X151437359Y-61356955D01*
X151379835Y-61469852D01*
X151367046Y-61550599D01*
X150685973Y-60869526D01*
X150685972Y-60869527D01*
X150634868Y-60942513D01*
X150538734Y-61148673D01*
X150538730Y-61148682D01*
X150479860Y-61368389D01*
X150479858Y-61368400D01*
X150460034Y-61594997D01*
X150460034Y-61595002D01*
X150479858Y-61821599D01*
X150479860Y-61821610D01*
X150538730Y-62041317D01*
X150538734Y-62041326D01*
X150634865Y-62247481D01*
X150634866Y-62247483D01*
X150685973Y-62320471D01*
X150685974Y-62320472D01*
X151367046Y-61639399D01*
X151379835Y-61720148D01*
X151437359Y-61833045D01*
X151526955Y-61922641D01*
X151639852Y-61980165D01*
X151720599Y-61992953D01*
X151034351Y-62679200D01*
X151024505Y-62728194D01*
X150975889Y-62778376D01*
X150920367Y-62793048D01*
X150920423Y-62794099D01*
X150920429Y-62794146D01*
X150920426Y-62794146D01*
X150920436Y-62794324D01*
X150917123Y-62794501D01*
X150857516Y-62800908D01*
X150722671Y-62851202D01*
X150722664Y-62851206D01*
X150607455Y-62937452D01*
X150607452Y-62937455D01*
X150521206Y-63052664D01*
X150521202Y-63052671D01*
X150470908Y-63187517D01*
X150464501Y-63247116D01*
X150464500Y-63247135D01*
X150464500Y-64942870D01*
X150464501Y-64942876D01*
X150470908Y-65002483D01*
X150521202Y-65137328D01*
X150521206Y-65137335D01*
X150607452Y-65252544D01*
X150607455Y-65252547D01*
X150722664Y-65338793D01*
X150722671Y-65338797D01*
X150857516Y-65389091D01*
X150903757Y-65394063D01*
X150968307Y-65420801D01*
X151008155Y-65478194D01*
X151014500Y-65517352D01*
X151014500Y-69407769D01*
X150994815Y-69474808D01*
X150978181Y-69495450D01*
X148220348Y-72253282D01*
X148159025Y-72286767D01*
X148121861Y-72289129D01*
X147955003Y-72274532D01*
X147954998Y-72274532D01*
X147728313Y-72294364D01*
X147728302Y-72294366D01*
X147508511Y-72353258D01*
X147508502Y-72353261D01*
X147302267Y-72449431D01*
X147302265Y-72449432D01*
X147115858Y-72579954D01*
X146954954Y-72740858D01*
X146824432Y-72927265D01*
X146824431Y-72927267D01*
X146728261Y-73133502D01*
X146728258Y-73133511D01*
X146669366Y-73353302D01*
X146669364Y-73353313D01*
X146649532Y-73579998D01*
X146649532Y-73580003D01*
X146664129Y-73746861D01*
X146650362Y-73815360D01*
X146628282Y-73845348D01*
X146277181Y-74196450D01*
X146215858Y-74229935D01*
X146146167Y-74224951D01*
X146090233Y-74183080D01*
X146065816Y-74117615D01*
X146065500Y-74108769D01*
X146065500Y-68580002D01*
X146650034Y-68580002D01*
X146669858Y-68806599D01*
X146669860Y-68806610D01*
X146728730Y-69026317D01*
X146728734Y-69026326D01*
X146824865Y-69232481D01*
X146824866Y-69232483D01*
X146875973Y-69305471D01*
X146875974Y-69305472D01*
X147557046Y-68624399D01*
X147569835Y-68705148D01*
X147627359Y-68818045D01*
X147716955Y-68907641D01*
X147829852Y-68965165D01*
X147910599Y-68977953D01*
X147229526Y-69659025D01*
X147229526Y-69659026D01*
X147302512Y-69710131D01*
X147302516Y-69710133D01*
X147508673Y-69806265D01*
X147508682Y-69806269D01*
X147728389Y-69865139D01*
X147728400Y-69865141D01*
X147954998Y-69884966D01*
X147955002Y-69884966D01*
X148181599Y-69865141D01*
X148181610Y-69865139D01*
X148401317Y-69806269D01*
X148401331Y-69806264D01*
X148607478Y-69710136D01*
X148680472Y-69659025D01*
X147999401Y-68977953D01*
X148080148Y-68965165D01*
X148193045Y-68907641D01*
X148282641Y-68818045D01*
X148340165Y-68705148D01*
X148352953Y-68624400D01*
X149034025Y-69305472D01*
X149085136Y-69232478D01*
X149181264Y-69026331D01*
X149181269Y-69026317D01*
X149240139Y-68806610D01*
X149240141Y-68806599D01*
X149259966Y-68580002D01*
X149259966Y-68579997D01*
X149240141Y-68353400D01*
X149240139Y-68353389D01*
X149181269Y-68133682D01*
X149181265Y-68133673D01*
X149085133Y-67927516D01*
X149085131Y-67927512D01*
X149034026Y-67854526D01*
X149034025Y-67854526D01*
X148352953Y-68535598D01*
X148340165Y-68454852D01*
X148282641Y-68341955D01*
X148193045Y-68252359D01*
X148080148Y-68194835D01*
X147999400Y-68182046D01*
X148680472Y-67500974D01*
X148680471Y-67500973D01*
X148607483Y-67449866D01*
X148607481Y-67449865D01*
X148401326Y-67353734D01*
X148401317Y-67353730D01*
X148181610Y-67294860D01*
X148181599Y-67294858D01*
X147955002Y-67275034D01*
X147954998Y-67275034D01*
X147728400Y-67294858D01*
X147728389Y-67294860D01*
X147508682Y-67353730D01*
X147508673Y-67353734D01*
X147302513Y-67449868D01*
X147229527Y-67500972D01*
X147229526Y-67500973D01*
X147910600Y-68182046D01*
X147829852Y-68194835D01*
X147716955Y-68252359D01*
X147627359Y-68341955D01*
X147569835Y-68454852D01*
X147557046Y-68535599D01*
X146875973Y-67854526D01*
X146875972Y-67854527D01*
X146824868Y-67927513D01*
X146728734Y-68133673D01*
X146728730Y-68133682D01*
X146669860Y-68353389D01*
X146669858Y-68353400D01*
X146650034Y-68579997D01*
X146650034Y-68580002D01*
X146065500Y-68580002D01*
X146065500Y-65362881D01*
X146067268Y-65346868D01*
X146067026Y-65346846D01*
X146067758Y-65339090D01*
X146067760Y-65339083D01*
X146065500Y-65267175D01*
X146065500Y-65236455D01*
X146064579Y-65229168D01*
X146064122Y-65223359D01*
X146062597Y-65174810D01*
X146056676Y-65154432D01*
X146052731Y-65135383D01*
X146050071Y-65114322D01*
X146032186Y-65069152D01*
X146030297Y-65063632D01*
X146016743Y-65016979D01*
X146005941Y-64998715D01*
X145997379Y-64981238D01*
X145994568Y-64974139D01*
X145989568Y-64961509D01*
X145961014Y-64922208D01*
X145957810Y-64917330D01*
X145933082Y-64875517D01*
X145933081Y-64875515D01*
X145918075Y-64860509D01*
X145905435Y-64845710D01*
X145892961Y-64828540D01*
X145855528Y-64797574D01*
X145851206Y-64793640D01*
X145481818Y-64424252D01*
X145448333Y-64362929D01*
X145445499Y-64336571D01*
X145445499Y-63159509D01*
X145445498Y-63159503D01*
X145445497Y-63159496D01*
X145439091Y-63099897D01*
X145430000Y-63075524D01*
X145388797Y-62965051D01*
X145388793Y-62965044D01*
X145302547Y-62849835D01*
X145302544Y-62849832D01*
X145187335Y-62763586D01*
X145187328Y-62763582D01*
X145052483Y-62713288D01*
X145047079Y-62712012D01*
X144986363Y-62677440D01*
X144953976Y-62615529D01*
X144960202Y-62545938D01*
X144987910Y-62503655D01*
X145145047Y-62346519D01*
X145275568Y-62160114D01*
X145371739Y-61953876D01*
X145430635Y-61734072D01*
X145450468Y-61507380D01*
X145430635Y-61280688D01*
X145430633Y-61280683D01*
X145430180Y-61275497D01*
X145443946Y-61206997D01*
X145466024Y-61177011D01*
X146529056Y-60113979D01*
X146531748Y-60111445D01*
X146578183Y-60070309D01*
X146613417Y-60019263D01*
X146615620Y-60016267D01*
X146653878Y-59967436D01*
X146658037Y-59958193D01*
X146669061Y-59938648D01*
X146674818Y-59930310D01*
X146696810Y-59872319D01*
X146698232Y-59868883D01*
X146723695Y-59812311D01*
X146725522Y-59802339D01*
X146731546Y-59780727D01*
X146735140Y-59771252D01*
X146742613Y-59709704D01*
X146743177Y-59705999D01*
X146746535Y-59687669D01*
X146754358Y-59644986D01*
X146750613Y-59583076D01*
X146750500Y-59579331D01*
X146750500Y-58141800D01*
X161612600Y-58141800D01*
X161612600Y-59039644D01*
X161619001Y-59099172D01*
X161619003Y-59099179D01*
X161669245Y-59233886D01*
X161669249Y-59233893D01*
X161755409Y-59348987D01*
X161755412Y-59348990D01*
X161870506Y-59435150D01*
X161870513Y-59435154D01*
X162005220Y-59485396D01*
X162005227Y-59485398D01*
X162064755Y-59491799D01*
X162064772Y-59491800D01*
X162562600Y-59491800D01*
X162562600Y-58141800D01*
X163062600Y-58141800D01*
X163062600Y-59491800D01*
X163560428Y-59491800D01*
X163560444Y-59491799D01*
X163619972Y-59485398D01*
X163619979Y-59485396D01*
X163754686Y-59435154D01*
X163754693Y-59435150D01*
X163869787Y-59348990D01*
X163869790Y-59348987D01*
X163955950Y-59233893D01*
X163955954Y-59233886D01*
X164006196Y-59099179D01*
X164006198Y-59099172D01*
X164012599Y-59039644D01*
X164012600Y-59039627D01*
X164012600Y-58141800D01*
X163062600Y-58141800D01*
X162562600Y-58141800D01*
X161612600Y-58141800D01*
X146750500Y-58141800D01*
X146750500Y-57610711D01*
X146770185Y-57543672D01*
X146803377Y-57509136D01*
X146822510Y-57495739D01*
X146921401Y-57426495D01*
X147043717Y-57304178D01*
X147105036Y-57270696D01*
X147174728Y-57275680D01*
X147230662Y-57317551D01*
X147247577Y-57348528D01*
X147296646Y-57480088D01*
X147296649Y-57480093D01*
X147382809Y-57595187D01*
X147382812Y-57595190D01*
X147497906Y-57681350D01*
X147497913Y-57681354D01*
X147632620Y-57731596D01*
X147632627Y-57731598D01*
X147692155Y-57737999D01*
X147692172Y-57738000D01*
X148340000Y-57738000D01*
X148340000Y-56823501D01*
X148447685Y-56872680D01*
X148554237Y-56888000D01*
X148625763Y-56888000D01*
X148732315Y-56872680D01*
X148840000Y-56823501D01*
X148840000Y-57738000D01*
X149487828Y-57738000D01*
X149487844Y-57737999D01*
X149547372Y-57731598D01*
X149547379Y-57731596D01*
X149682086Y-57681354D01*
X149682093Y-57681350D01*
X149734925Y-57641800D01*
X161612600Y-57641800D01*
X162562600Y-57641800D01*
X162562600Y-56291800D01*
X163062600Y-56291800D01*
X163062600Y-57641800D01*
X164012600Y-57641800D01*
X164012600Y-57576856D01*
X166912100Y-57576856D01*
X166920666Y-57611609D01*
X166952810Y-57742026D01*
X167031863Y-57892649D01*
X167031866Y-57892652D01*
X167144671Y-58019983D01*
X167234918Y-58082276D01*
X167284668Y-58116617D01*
X167284669Y-58116617D01*
X167284670Y-58116618D01*
X167443728Y-58176940D01*
X167519628Y-58186156D01*
X167570226Y-58192300D01*
X167570228Y-58192300D01*
X167654974Y-58192300D01*
X167697138Y-58187180D01*
X167781472Y-58176940D01*
X167940530Y-58116618D01*
X168080529Y-58019983D01*
X168193334Y-57892652D01*
X168272390Y-57742025D01*
X168313100Y-57576856D01*
X174912100Y-57576856D01*
X174920666Y-57611609D01*
X174952810Y-57742026D01*
X175031863Y-57892649D01*
X175031866Y-57892652D01*
X175144671Y-58019983D01*
X175234918Y-58082276D01*
X175284668Y-58116617D01*
X175284669Y-58116617D01*
X175284670Y-58116618D01*
X175443728Y-58176940D01*
X175519628Y-58186156D01*
X175570226Y-58192300D01*
X175570228Y-58192300D01*
X175654974Y-58192300D01*
X175697138Y-58187180D01*
X175781472Y-58176940D01*
X175874130Y-58141800D01*
X177312600Y-58141800D01*
X177312600Y-59039644D01*
X177319001Y-59099172D01*
X177319003Y-59099179D01*
X177369245Y-59233886D01*
X177369249Y-59233893D01*
X177455409Y-59348987D01*
X177455412Y-59348990D01*
X177570506Y-59435150D01*
X177570513Y-59435154D01*
X177705220Y-59485396D01*
X177705227Y-59485398D01*
X177764755Y-59491799D01*
X177764772Y-59491800D01*
X178262600Y-59491800D01*
X178262600Y-58141800D01*
X178762600Y-58141800D01*
X178762600Y-59491800D01*
X179260428Y-59491800D01*
X179260444Y-59491799D01*
X179319972Y-59485398D01*
X179319979Y-59485396D01*
X179454686Y-59435154D01*
X179454693Y-59435150D01*
X179569787Y-59348990D01*
X179569790Y-59348987D01*
X179655950Y-59233893D01*
X179655954Y-59233886D01*
X179706196Y-59099179D01*
X179706198Y-59099172D01*
X179712599Y-59039644D01*
X179712600Y-59039627D01*
X179712600Y-58141800D01*
X178762600Y-58141800D01*
X178262600Y-58141800D01*
X177312600Y-58141800D01*
X175874130Y-58141800D01*
X175940530Y-58116618D01*
X176080529Y-58019983D01*
X176193334Y-57892652D01*
X176272390Y-57742025D01*
X176297093Y-57641800D01*
X177312600Y-57641800D01*
X178262600Y-57641800D01*
X178262600Y-56291800D01*
X178762600Y-56291800D01*
X178762600Y-57641800D01*
X179712600Y-57641800D01*
X179712600Y-56743972D01*
X179712599Y-56743955D01*
X179706198Y-56684427D01*
X179706196Y-56684420D01*
X179655954Y-56549713D01*
X179655950Y-56549706D01*
X179569790Y-56434612D01*
X179569787Y-56434609D01*
X179454693Y-56348449D01*
X179454686Y-56348445D01*
X179319979Y-56298203D01*
X179319972Y-56298201D01*
X179260444Y-56291800D01*
X178762600Y-56291800D01*
X178262600Y-56291800D01*
X177764755Y-56291800D01*
X177705227Y-56298201D01*
X177705220Y-56298203D01*
X177570513Y-56348445D01*
X177570506Y-56348449D01*
X177455412Y-56434609D01*
X177455409Y-56434612D01*
X177369249Y-56549706D01*
X177369245Y-56549713D01*
X177319003Y-56684420D01*
X177319001Y-56684427D01*
X177312600Y-56743955D01*
X177312600Y-57641800D01*
X176297093Y-57641800D01*
X176313100Y-57576856D01*
X176313100Y-57406744D01*
X176272390Y-57241575D01*
X176272389Y-57241573D01*
X176193336Y-57090950D01*
X176171081Y-57065830D01*
X176080529Y-56963617D01*
X176021083Y-56922584D01*
X175940531Y-56866982D01*
X175781474Y-56806660D01*
X175781468Y-56806659D01*
X175654974Y-56791300D01*
X175654972Y-56791300D01*
X175570228Y-56791300D01*
X175570226Y-56791300D01*
X175443731Y-56806659D01*
X175443725Y-56806660D01*
X175284668Y-56866982D01*
X175144672Y-56963616D01*
X175031863Y-57090950D01*
X174952810Y-57241573D01*
X174927225Y-57345379D01*
X174912100Y-57406744D01*
X174912100Y-57576856D01*
X168313100Y-57576856D01*
X168313100Y-57406744D01*
X168272390Y-57241575D01*
X168272389Y-57241573D01*
X168193336Y-57090950D01*
X168171081Y-57065830D01*
X168080529Y-56963617D01*
X168021083Y-56922584D01*
X167940531Y-56866982D01*
X167781474Y-56806660D01*
X167781468Y-56806659D01*
X167654974Y-56791300D01*
X167654972Y-56791300D01*
X167570228Y-56791300D01*
X167570226Y-56791300D01*
X167443731Y-56806659D01*
X167443725Y-56806660D01*
X167284668Y-56866982D01*
X167144672Y-56963616D01*
X167031863Y-57090950D01*
X166952810Y-57241573D01*
X166927225Y-57345379D01*
X166912100Y-57406744D01*
X166912100Y-57576856D01*
X164012600Y-57576856D01*
X164012600Y-56743972D01*
X164012599Y-56743955D01*
X164006198Y-56684427D01*
X164006196Y-56684420D01*
X163955954Y-56549713D01*
X163955950Y-56549706D01*
X163869790Y-56434612D01*
X163869787Y-56434609D01*
X163754693Y-56348449D01*
X163754686Y-56348445D01*
X163619979Y-56298203D01*
X163619972Y-56298201D01*
X163560444Y-56291800D01*
X163062600Y-56291800D01*
X162562600Y-56291800D01*
X162064755Y-56291800D01*
X162005227Y-56298201D01*
X162005220Y-56298203D01*
X161870513Y-56348445D01*
X161870506Y-56348449D01*
X161755412Y-56434609D01*
X161755409Y-56434612D01*
X161669249Y-56549706D01*
X161669245Y-56549713D01*
X161619003Y-56684420D01*
X161619001Y-56684427D01*
X161612600Y-56743955D01*
X161612600Y-57641800D01*
X149734925Y-57641800D01*
X149797187Y-57595190D01*
X149797190Y-57595187D01*
X149883350Y-57480093D01*
X149883354Y-57480086D01*
X149933596Y-57345379D01*
X149933598Y-57345372D01*
X149939999Y-57285844D01*
X149940000Y-57285827D01*
X149940000Y-56638000D01*
X149023686Y-56638000D01*
X149049493Y-56597844D01*
X149090000Y-56459889D01*
X149090000Y-56316111D01*
X149049493Y-56178156D01*
X149023686Y-56138000D01*
X149940000Y-56138000D01*
X149940000Y-55490172D01*
X149939999Y-55490155D01*
X149933598Y-55430627D01*
X149933596Y-55430620D01*
X149883354Y-55295913D01*
X149883350Y-55295906D01*
X149797190Y-55180812D01*
X149797187Y-55180809D01*
X149682093Y-55094649D01*
X149682086Y-55094645D01*
X149547379Y-55044403D01*
X149547372Y-55044401D01*
X149487844Y-55038000D01*
X148840000Y-55038000D01*
X148840000Y-55952498D01*
X148732315Y-55903320D01*
X148625763Y-55888000D01*
X148554237Y-55888000D01*
X148447685Y-55903320D01*
X148340000Y-55952498D01*
X148340000Y-55038000D01*
X147692155Y-55038000D01*
X147632627Y-55044401D01*
X147632620Y-55044403D01*
X147497913Y-55094645D01*
X147497906Y-55094649D01*
X147382812Y-55180809D01*
X147382809Y-55180812D01*
X147296649Y-55295906D01*
X147296645Y-55295913D01*
X147247578Y-55427470D01*
X147205707Y-55483404D01*
X147140242Y-55507821D01*
X147071969Y-55492969D01*
X147043715Y-55471819D01*
X146999366Y-55427470D01*
X146921401Y-55349505D01*
X146921397Y-55349502D01*
X146921396Y-55349501D01*
X146727834Y-55213967D01*
X146727830Y-55213965D01*
X146621512Y-55164388D01*
X146513663Y-55114097D01*
X146513659Y-55114096D01*
X146513655Y-55114094D01*
X146285413Y-55052938D01*
X146285403Y-55052936D01*
X146050001Y-55032341D01*
X146049999Y-55032341D01*
X145814596Y-55052936D01*
X145814586Y-55052938D01*
X145586344Y-55114094D01*
X145586335Y-55114098D01*
X145372171Y-55213964D01*
X145372169Y-55213965D01*
X145178597Y-55349505D01*
X145011505Y-55516597D01*
X144875965Y-55710169D01*
X144875964Y-55710171D01*
X144776098Y-55924335D01*
X144776094Y-55924344D01*
X144714938Y-56152586D01*
X144714936Y-56152596D01*
X144694341Y-56387999D01*
X144694341Y-56388000D01*
X144714936Y-56623403D01*
X144714938Y-56623413D01*
X144776094Y-56851655D01*
X144776096Y-56851659D01*
X144776097Y-56851663D01*
X144797336Y-56897209D01*
X144875965Y-57065830D01*
X144875967Y-57065834D01*
X144984281Y-57220521D01*
X145010441Y-57257882D01*
X145011501Y-57259395D01*
X145011506Y-57259402D01*
X145178597Y-57426494D01*
X145178600Y-57426496D01*
X145277488Y-57495738D01*
X145296623Y-57509136D01*
X145340248Y-57563713D01*
X145349500Y-57610711D01*
X145349500Y-59260860D01*
X145329815Y-59327899D01*
X145313181Y-59348541D01*
X144475369Y-60186352D01*
X144414046Y-60219837D01*
X144376881Y-60222199D01*
X144371680Y-60221744D01*
X144352171Y-60220037D01*
X144145002Y-60201912D01*
X144144998Y-60201912D01*
X143918313Y-60221744D01*
X143918302Y-60221746D01*
X143698511Y-60280638D01*
X143698502Y-60280641D01*
X143492267Y-60376811D01*
X143492265Y-60376812D01*
X143305858Y-60507334D01*
X143144954Y-60668238D01*
X143014432Y-60854645D01*
X143014431Y-60854647D01*
X142918261Y-61060882D01*
X142918258Y-61060891D01*
X142859366Y-61280682D01*
X142859364Y-61280693D01*
X142839532Y-61507378D01*
X142839532Y-61507381D01*
X142859364Y-61734066D01*
X142859366Y-61734077D01*
X142918258Y-61953868D01*
X142918261Y-61953877D01*
X143014431Y-62160112D01*
X143014432Y-62160114D01*
X143144954Y-62346521D01*
X143302086Y-62503653D01*
X143335571Y-62564976D01*
X143330587Y-62634668D01*
X143288715Y-62690601D01*
X143242932Y-62712008D01*
X143237522Y-62713286D01*
X143102671Y-62763582D01*
X143102664Y-62763586D01*
X142987455Y-62849832D01*
X142987452Y-62849835D01*
X142901206Y-62965044D01*
X142901202Y-62965051D01*
X142850908Y-63099897D01*
X142847046Y-63135824D01*
X142844501Y-63159503D01*
X142844500Y-63159515D01*
X142844500Y-64855250D01*
X142844501Y-64855256D01*
X142850908Y-64914863D01*
X142901202Y-65049708D01*
X142901206Y-65049715D01*
X142987452Y-65164924D01*
X142987455Y-65164927D01*
X143102664Y-65251173D01*
X143102671Y-65251177D01*
X143237517Y-65301471D01*
X143237516Y-65301471D01*
X143244444Y-65302215D01*
X143297127Y-65307880D01*
X144474191Y-65307879D01*
X144541230Y-65327564D01*
X144561872Y-65344198D01*
X144728181Y-65510507D01*
X144761666Y-65571830D01*
X144764500Y-65598188D01*
X144764500Y-67239844D01*
X144744815Y-67306883D01*
X144692011Y-67352638D01*
X144622853Y-67362582D01*
X144596692Y-67354794D01*
X144596406Y-67355583D01*
X144591317Y-67353730D01*
X144371610Y-67294860D01*
X144371599Y-67294858D01*
X144145002Y-67275034D01*
X144144998Y-67275034D01*
X143918400Y-67294858D01*
X143918389Y-67294860D01*
X143698682Y-67353730D01*
X143698673Y-67353734D01*
X143492513Y-67449868D01*
X143419526Y-67500973D01*
X144100599Y-68182046D01*
X144019852Y-68194835D01*
X143906955Y-68252359D01*
X143817359Y-68341955D01*
X143759835Y-68454852D01*
X143747046Y-68535599D01*
X143065973Y-67854526D01*
X143065972Y-67854527D01*
X143014868Y-67927513D01*
X142918734Y-68133673D01*
X142918730Y-68133682D01*
X142859860Y-68353389D01*
X142859858Y-68353400D01*
X142840034Y-68579997D01*
X142840034Y-68580002D01*
X142859858Y-68806599D01*
X142859860Y-68806610D01*
X142918730Y-69026317D01*
X142918734Y-69026326D01*
X143014865Y-69232481D01*
X143014866Y-69232483D01*
X143065973Y-69305471D01*
X143065974Y-69305472D01*
X143747046Y-68624399D01*
X143759835Y-68705148D01*
X143817359Y-68818045D01*
X143906955Y-68907641D01*
X144019852Y-68965165D01*
X144100597Y-68977953D01*
X143419526Y-69659025D01*
X143419526Y-69659026D01*
X143492512Y-69710131D01*
X143492516Y-69710133D01*
X143698673Y-69806265D01*
X143698682Y-69806269D01*
X143918389Y-69865139D01*
X143918400Y-69865141D01*
X144144998Y-69884966D01*
X144145002Y-69884966D01*
X144371599Y-69865141D01*
X144371610Y-69865139D01*
X144591317Y-69806269D01*
X144596406Y-69804417D01*
X144597128Y-69806400D01*
X144657173Y-69797281D01*
X144720957Y-69825801D01*
X144759196Y-69884277D01*
X144764500Y-69920155D01*
X144764500Y-72239293D01*
X144744815Y-72306332D01*
X144692011Y-72352087D01*
X144622853Y-72362031D01*
X144596874Y-72354293D01*
X144596577Y-72355111D01*
X144591488Y-72353258D01*
X144371697Y-72294366D01*
X144371693Y-72294365D01*
X144371692Y-72294365D01*
X144371691Y-72294364D01*
X144371686Y-72294364D01*
X144145002Y-72274532D01*
X144144998Y-72274532D01*
X143918313Y-72294364D01*
X143918302Y-72294366D01*
X143698511Y-72353258D01*
X143698502Y-72353261D01*
X143492267Y-72449431D01*
X143492265Y-72449432D01*
X143305858Y-72579954D01*
X143144954Y-72740858D01*
X143014432Y-72927265D01*
X143014431Y-72927267D01*
X142918261Y-73133502D01*
X142918258Y-73133511D01*
X142859366Y-73353302D01*
X142859364Y-73353313D01*
X142839532Y-73579998D01*
X142839532Y-73580001D01*
X142859364Y-73806686D01*
X142859366Y-73806697D01*
X142918258Y-74026488D01*
X142918261Y-74026497D01*
X143014431Y-74232732D01*
X143014432Y-74232734D01*
X143144954Y-74419141D01*
X143305858Y-74580045D01*
X143466623Y-74692613D01*
X143510248Y-74747189D01*
X143519500Y-74794188D01*
X143519500Y-75610811D01*
X143499815Y-75677850D01*
X143466623Y-75712386D01*
X143305859Y-75824953D01*
X143144954Y-75985858D01*
X143014432Y-76172265D01*
X143014431Y-76172267D01*
X143009768Y-76182267D01*
X142990405Y-76223793D01*
X142987382Y-76230275D01*
X142941209Y-76282714D01*
X142874016Y-76301866D01*
X142807135Y-76281650D01*
X142762618Y-76230275D01*
X142759597Y-76223796D01*
X142735568Y-76172266D01*
X142605047Y-75985861D01*
X142605045Y-75985858D01*
X142444141Y-75824954D01*
X142257734Y-75694432D01*
X142257732Y-75694431D01*
X142051497Y-75598261D01*
X142051488Y-75598258D01*
X141831697Y-75539366D01*
X141831693Y-75539365D01*
X141831692Y-75539365D01*
X141831691Y-75539364D01*
X141831686Y-75539364D01*
X141605002Y-75519532D01*
X141604998Y-75519532D01*
X141378313Y-75539364D01*
X141378302Y-75539366D01*
X141158511Y-75598258D01*
X141158502Y-75598261D01*
X140952267Y-75694431D01*
X140952265Y-75694432D01*
X140765858Y-75824954D01*
X140604954Y-75985858D01*
X140474432Y-76172265D01*
X140474431Y-76172267D01*
X140378261Y-76378502D01*
X140378258Y-76378511D01*
X140319366Y-76598302D01*
X140319364Y-76598313D01*
X140308718Y-76720000D01*
X140299532Y-76825000D01*
X140319364Y-77051686D01*
X140319365Y-77051691D01*
X140319366Y-77051697D01*
X140337680Y-77120048D01*
X140336017Y-77189897D01*
X140305586Y-77239821D01*
X139824208Y-77721199D01*
X139811951Y-77731020D01*
X139812134Y-77731241D01*
X139806123Y-77736214D01*
X139777890Y-77766278D01*
X139717649Y-77801671D01*
X139647835Y-77798877D01*
X139590614Y-77758782D01*
X139564155Y-77694116D01*
X139563500Y-77681392D01*
X139563500Y-73850687D01*
X139583185Y-73783648D01*
X139595350Y-73767715D01*
X139630059Y-73729166D01*
X139670533Y-73684216D01*
X139765179Y-73520284D01*
X139823674Y-73340256D01*
X139843460Y-73152000D01*
X139823674Y-72963744D01*
X139765179Y-72783716D01*
X139670533Y-72619784D01*
X139543871Y-72479112D01*
X139539969Y-72476277D01*
X139390734Y-72367851D01*
X139390729Y-72367848D01*
X139217807Y-72290857D01*
X139217802Y-72290855D01*
X139072001Y-72259865D01*
X139032646Y-72251500D01*
X138925500Y-72251500D01*
X138858461Y-72231815D01*
X138812706Y-72179011D01*
X138801500Y-72127500D01*
X138801500Y-71818687D01*
X138821185Y-71751648D01*
X138833350Y-71735715D01*
X138854323Y-71712422D01*
X138908533Y-71652216D01*
X139003179Y-71488284D01*
X139061674Y-71308256D01*
X139081460Y-71120000D01*
X139061674Y-70931744D01*
X139003179Y-70751716D01*
X138908533Y-70587784D01*
X138781871Y-70447112D01*
X138774476Y-70441739D01*
X138628734Y-70335851D01*
X138628729Y-70335848D01*
X138455807Y-70258857D01*
X138455802Y-70258855D01*
X138310001Y-70227865D01*
X138270646Y-70219500D01*
X138081354Y-70219500D01*
X138048897Y-70226398D01*
X137896197Y-70258855D01*
X137896192Y-70258857D01*
X137723270Y-70335848D01*
X137723265Y-70335851D01*
X137570129Y-70447111D01*
X137443466Y-70587785D01*
X137348821Y-70751715D01*
X137348818Y-70751722D01*
X137290327Y-70931740D01*
X137290326Y-70931744D01*
X137270540Y-71120000D01*
X137290326Y-71308256D01*
X137290327Y-71308259D01*
X137348818Y-71488277D01*
X137348821Y-71488284D01*
X137443467Y-71652216D01*
X137469568Y-71681204D01*
X137518650Y-71735715D01*
X137548880Y-71798706D01*
X137550500Y-71818687D01*
X137550500Y-84645312D01*
X137530815Y-84712351D01*
X137518650Y-84728284D01*
X137443466Y-84811784D01*
X137348821Y-84975715D01*
X137348818Y-84975722D01*
X137308438Y-85100000D01*
X137290326Y-85155744D01*
X137270540Y-85344000D01*
X134274500Y-85344000D01*
X134274500Y-83947499D01*
X134294185Y-83880460D01*
X134346989Y-83834705D01*
X134398500Y-83823499D01*
X135821871Y-83823499D01*
X135821872Y-83823499D01*
X135881483Y-83817091D01*
X136016331Y-83766796D01*
X136131546Y-83680546D01*
X136217796Y-83565331D01*
X136268091Y-83430483D01*
X136274500Y-83370873D01*
X136274499Y-81475128D01*
X136268091Y-81415517D01*
X136226578Y-81304216D01*
X136217797Y-81280671D01*
X136217793Y-81280664D01*
X136131547Y-81165455D01*
X136131544Y-81165452D01*
X136016335Y-81079206D01*
X136016328Y-81079202D01*
X135936094Y-81049277D01*
X135880160Y-81007406D01*
X135855743Y-80941941D01*
X135870595Y-80873668D01*
X135888190Y-80849121D01*
X135982979Y-80746153D01*
X136109924Y-80551849D01*
X136203157Y-80339300D01*
X136260134Y-80114305D01*
X136262586Y-80084717D01*
X136279300Y-79883006D01*
X136279300Y-79882993D01*
X136260135Y-79651702D01*
X136260133Y-79651691D01*
X136203157Y-79426699D01*
X136109924Y-79214151D01*
X135982983Y-79019852D01*
X135982980Y-79019849D01*
X135982979Y-79019847D01*
X135825784Y-78849087D01*
X135825779Y-78849083D01*
X135825777Y-78849081D01*
X135642634Y-78706535D01*
X135642628Y-78706531D01*
X135438504Y-78596064D01*
X135438495Y-78596061D01*
X135218984Y-78520702D01*
X134996203Y-78483527D01*
X134990049Y-78482500D01*
X134757951Y-78482500D01*
X134751797Y-78483527D01*
X134529016Y-78520702D01*
X134503421Y-78529489D01*
X134433622Y-78532638D01*
X134375478Y-78499888D01*
X134310818Y-78435227D01*
X134277334Y-78373903D01*
X134274500Y-78347546D01*
X134274500Y-74549499D01*
X134294185Y-74482460D01*
X134346989Y-74436705D01*
X134398500Y-74425499D01*
X135821871Y-74425499D01*
X135821872Y-74425499D01*
X135881483Y-74419091D01*
X136016331Y-74368796D01*
X136131546Y-74282546D01*
X136217796Y-74167331D01*
X136268091Y-74032483D01*
X136274500Y-73972873D01*
X136274499Y-72077128D01*
X136269299Y-72028757D01*
X136268091Y-72017516D01*
X136217797Y-71882671D01*
X136217793Y-71882664D01*
X136131547Y-71767455D01*
X136131544Y-71767452D01*
X136016335Y-71681206D01*
X136016328Y-71681202D01*
X135936094Y-71651277D01*
X135880160Y-71609406D01*
X135855743Y-71543941D01*
X135870595Y-71475668D01*
X135888190Y-71451121D01*
X135982979Y-71348153D01*
X136109924Y-71153849D01*
X136203157Y-70941300D01*
X136260134Y-70716305D01*
X136261856Y-70695524D01*
X136279300Y-70485006D01*
X136279300Y-70484993D01*
X136260135Y-70253702D01*
X136260133Y-70253691D01*
X136203157Y-70028699D01*
X136109924Y-69816151D01*
X135982983Y-69621852D01*
X135982980Y-69621849D01*
X135982979Y-69621847D01*
X135825784Y-69451087D01*
X135825779Y-69451083D01*
X135825777Y-69451081D01*
X135642634Y-69308535D01*
X135642619Y-69308525D01*
X135564482Y-69266239D01*
X135514891Y-69217020D01*
X135499500Y-69157185D01*
X135499500Y-63893393D01*
X135519185Y-63826354D01*
X135571989Y-63780599D01*
X135641147Y-63770655D01*
X135704703Y-63799680D01*
X135714730Y-63809410D01*
X135717833Y-63812781D01*
X135717836Y-63812785D01*
X135886256Y-63995738D01*
X136082491Y-64148474D01*
X136082493Y-64148475D01*
X136300332Y-64266364D01*
X136301190Y-64266828D01*
X136475169Y-64326555D01*
X136534964Y-64347083D01*
X136536386Y-64347571D01*
X136781665Y-64388500D01*
X137030335Y-64388500D01*
X137275614Y-64347571D01*
X137510810Y-64266828D01*
X137729509Y-64148474D01*
X137925744Y-63995738D01*
X138094164Y-63812785D01*
X138230173Y-63604607D01*
X138330063Y-63376881D01*
X138391108Y-63135821D01*
X138394085Y-63099896D01*
X138411643Y-62888005D01*
X138411643Y-62887994D01*
X138391109Y-62640187D01*
X138391107Y-62640175D01*
X138330063Y-62399118D01*
X138230173Y-62171393D01*
X138094166Y-61963217D01*
X138019958Y-61882606D01*
X137925744Y-61780262D01*
X137729509Y-61627526D01*
X137729508Y-61627525D01*
X137729505Y-61627523D01*
X137729503Y-61627522D01*
X137596481Y-61555533D01*
X137546891Y-61506313D01*
X137531500Y-61446479D01*
X137531500Y-57829519D01*
X137551185Y-57762480D01*
X137596483Y-57720464D01*
X137597369Y-57719984D01*
X137729509Y-57648474D01*
X137925744Y-57495738D01*
X138094164Y-57312785D01*
X138230173Y-57104607D01*
X138330063Y-56876881D01*
X138391108Y-56635821D01*
X138398244Y-56549706D01*
X138411643Y-56388005D01*
X138411643Y-56387994D01*
X138391109Y-56140187D01*
X138391107Y-56140175D01*
X138330063Y-55899118D01*
X138230173Y-55671393D01*
X138094166Y-55463217D01*
X138061258Y-55427470D01*
X137925744Y-55280262D01*
X137729509Y-55127526D01*
X137729507Y-55127525D01*
X137729506Y-55127524D01*
X137510811Y-55009172D01*
X137510802Y-55009169D01*
X137275616Y-54928429D01*
X137030335Y-54887500D01*
X136781665Y-54887500D01*
X136536383Y-54928429D01*
X136301197Y-55009169D01*
X136301188Y-55009172D01*
X136082493Y-55127524D01*
X135886257Y-55280261D01*
X135717833Y-55463217D01*
X135581826Y-55671393D01*
X135481936Y-55899118D01*
X135420892Y-56140175D01*
X135420890Y-56140187D01*
X135400357Y-56387994D01*
X135400357Y-56388005D01*
X135420890Y-56635812D01*
X135420892Y-56635824D01*
X135481936Y-56876881D01*
X135581826Y-57104606D01*
X135717833Y-57312782D01*
X135717836Y-57312785D01*
X135886256Y-57495738D01*
X135973590Y-57563713D01*
X136082488Y-57648472D01*
X136082493Y-57648475D01*
X136215517Y-57720464D01*
X136265108Y-57769683D01*
X136280500Y-57829519D01*
X136280500Y-61446479D01*
X136260815Y-61513518D01*
X136215519Y-61555533D01*
X136082496Y-61627522D01*
X136082494Y-61627523D01*
X135945594Y-61734077D01*
X135886256Y-61780262D01*
X135848203Y-61821599D01*
X135714730Y-61966589D01*
X135654843Y-62002580D01*
X135585004Y-62000479D01*
X135527388Y-61960955D01*
X135500287Y-61896556D01*
X135499500Y-61882606D01*
X135499500Y-60134687D01*
X135519185Y-60067648D01*
X135531350Y-60051715D01*
X135561954Y-60017725D01*
X135606533Y-59968216D01*
X135701179Y-59804284D01*
X135759674Y-59624256D01*
X135779460Y-59436000D01*
X135759674Y-59247744D01*
X135701179Y-59067716D01*
X135606533Y-58903784D01*
X135479871Y-58763112D01*
X135479870Y-58763111D01*
X135326734Y-58651851D01*
X135326729Y-58651848D01*
X135153807Y-58574857D01*
X135153802Y-58574855D01*
X135008001Y-58543865D01*
X134968646Y-58535500D01*
X134779354Y-58535500D01*
X134746897Y-58542398D01*
X134594197Y-58574855D01*
X134594192Y-58574857D01*
X134421270Y-58651848D01*
X134421265Y-58651851D01*
X134268129Y-58763111D01*
X134141466Y-58903785D01*
X134046821Y-59067715D01*
X134046818Y-59067722D01*
X133992826Y-59233893D01*
X133988326Y-59247744D01*
X133968540Y-59436000D01*
X133988326Y-59624256D01*
X133988327Y-59624259D01*
X134046818Y-59804277D01*
X134046821Y-59804284D01*
X134141467Y-59968216D01*
X134184718Y-60016251D01*
X134216650Y-60051715D01*
X134246880Y-60114706D01*
X134248500Y-60134687D01*
X134248500Y-69157185D01*
X134228815Y-69224224D01*
X134183518Y-69266239D01*
X134105380Y-69308525D01*
X134105365Y-69308535D01*
X133922222Y-69451081D01*
X133922219Y-69451084D01*
X133922216Y-69451086D01*
X133922216Y-69451087D01*
X133881377Y-69495450D01*
X133765016Y-69621852D01*
X133638075Y-69816151D01*
X133544842Y-70028699D01*
X133487866Y-70253691D01*
X133487864Y-70253702D01*
X133468700Y-70484993D01*
X133468700Y-70485006D01*
X133487864Y-70716297D01*
X133487866Y-70716308D01*
X133525175Y-70863636D01*
X133522550Y-70933456D01*
X133492650Y-70981757D01*
X133265208Y-71209199D01*
X133252951Y-71219020D01*
X133253134Y-71219241D01*
X133247123Y-71224213D01*
X133199772Y-71274636D01*
X133178889Y-71295519D01*
X133178877Y-71295532D01*
X133174621Y-71301017D01*
X133170837Y-71305447D01*
X133138937Y-71339418D01*
X133138936Y-71339420D01*
X133129284Y-71356976D01*
X133118610Y-71373226D01*
X133106329Y-71389061D01*
X133106324Y-71389068D01*
X133087815Y-71431838D01*
X133085245Y-71437084D01*
X133062803Y-71477906D01*
X133057822Y-71497307D01*
X133051521Y-71515710D01*
X133043562Y-71534102D01*
X133043561Y-71534105D01*
X133036271Y-71580127D01*
X133035087Y-71585846D01*
X133023501Y-71630972D01*
X133023500Y-71630982D01*
X133023500Y-71651016D01*
X133021973Y-71670413D01*
X133018840Y-71690196D01*
X133020941Y-71712420D01*
X133023225Y-71736583D01*
X133023500Y-71742421D01*
X133023500Y-78575255D01*
X133021775Y-78590872D01*
X133022061Y-78590899D01*
X133021326Y-78598665D01*
X133023500Y-78667814D01*
X133023500Y-78697343D01*
X133023501Y-78697360D01*
X133024368Y-78704231D01*
X133024826Y-78710050D01*
X133026290Y-78756624D01*
X133026291Y-78756627D01*
X133031880Y-78775867D01*
X133035824Y-78794911D01*
X133038336Y-78814792D01*
X133051912Y-78849081D01*
X133055490Y-78858119D01*
X133057382Y-78863647D01*
X133070381Y-78908388D01*
X133080580Y-78925634D01*
X133089138Y-78943103D01*
X133096514Y-78961732D01*
X133123898Y-78999423D01*
X133127106Y-79004307D01*
X133150827Y-79044416D01*
X133150833Y-79044424D01*
X133164990Y-79058580D01*
X133177627Y-79073375D01*
X133189406Y-79089587D01*
X133208900Y-79105714D01*
X133225309Y-79119288D01*
X133229620Y-79123210D01*
X133376971Y-79270561D01*
X133492650Y-79386240D01*
X133526135Y-79447563D01*
X133525175Y-79504361D01*
X133487866Y-79651690D01*
X133487864Y-79651702D01*
X133468700Y-79882993D01*
X133468700Y-79883006D01*
X133487864Y-80114297D01*
X133487866Y-80114308D01*
X133525175Y-80261636D01*
X133522550Y-80331456D01*
X133492650Y-80379757D01*
X133265208Y-80607199D01*
X133252951Y-80617020D01*
X133253134Y-80617241D01*
X133247123Y-80622213D01*
X133199772Y-80672636D01*
X133178889Y-80693519D01*
X133178877Y-80693532D01*
X133174621Y-80699017D01*
X133170837Y-80703447D01*
X133138937Y-80737418D01*
X133138936Y-80737420D01*
X133129284Y-80754976D01*
X133118610Y-80771226D01*
X133106329Y-80787061D01*
X133106324Y-80787068D01*
X133087815Y-80829838D01*
X133085245Y-80835084D01*
X133062803Y-80875906D01*
X133057822Y-80895307D01*
X133051521Y-80913710D01*
X133043562Y-80932102D01*
X133043561Y-80932105D01*
X133036271Y-80978127D01*
X133035087Y-80983846D01*
X133023501Y-81028972D01*
X133023500Y-81028982D01*
X133023500Y-81049016D01*
X133021973Y-81068413D01*
X133021815Y-81069414D01*
X133018840Y-81088194D01*
X133018840Y-81088195D01*
X133023225Y-81134583D01*
X133023500Y-81140421D01*
X133023500Y-87973255D01*
X133021775Y-87988872D01*
X133022061Y-87988899D01*
X133021326Y-87996665D01*
X133023500Y-88065814D01*
X133023500Y-88095343D01*
X133023501Y-88095360D01*
X133024368Y-88102231D01*
X133024826Y-88108050D01*
X133026290Y-88154624D01*
X133026291Y-88154627D01*
X133031880Y-88173867D01*
X133035824Y-88192911D01*
X133038029Y-88210364D01*
X133038336Y-88212791D01*
X133055490Y-88256119D01*
X133057382Y-88261647D01*
X133070381Y-88306388D01*
X133080580Y-88323634D01*
X133089138Y-88341103D01*
X133096514Y-88359732D01*
X133123898Y-88397423D01*
X133127106Y-88402307D01*
X133150827Y-88442416D01*
X133150833Y-88442424D01*
X133164990Y-88456580D01*
X133177628Y-88471376D01*
X133189405Y-88487586D01*
X133189406Y-88487587D01*
X133225309Y-88517288D01*
X133229620Y-88521210D01*
X133381718Y-88673308D01*
X133492650Y-88784240D01*
X133526135Y-88845563D01*
X133525175Y-88902361D01*
X133487866Y-89049690D01*
X133487864Y-89049702D01*
X133468700Y-89280993D01*
X133468700Y-89281006D01*
X133487864Y-89512297D01*
X133487866Y-89512309D01*
X133525175Y-89659637D01*
X133522550Y-89729457D01*
X133492650Y-89777758D01*
X132251727Y-91018681D01*
X132190404Y-91052166D01*
X132164046Y-91055000D01*
X131243686Y-91055000D01*
X131269493Y-91014844D01*
X131310000Y-90876889D01*
X131310000Y-90733111D01*
X131269493Y-90595156D01*
X131243686Y-90555000D01*
X132140636Y-90555000D01*
X132140635Y-90554999D01*
X132083432Y-90341513D01*
X132083429Y-90341507D01*
X131983600Y-90127422D01*
X131983599Y-90127420D01*
X131848113Y-89933926D01*
X131848108Y-89933920D01*
X131681078Y-89766890D01*
X131495405Y-89636879D01*
X131451780Y-89582302D01*
X131444588Y-89512804D01*
X131476110Y-89450449D01*
X131495406Y-89433730D01*
X131549907Y-89395568D01*
X131681401Y-89303495D01*
X131848495Y-89136401D01*
X131984035Y-88942830D01*
X132083903Y-88728663D01*
X132145063Y-88500408D01*
X132165659Y-88265000D01*
X132145063Y-88029592D01*
X132083903Y-87801337D01*
X131984035Y-87587171D01*
X131973508Y-87572136D01*
X131848494Y-87393597D01*
X131681402Y-87226506D01*
X131681396Y-87226501D01*
X131495842Y-87096575D01*
X131452217Y-87041998D01*
X131445023Y-86972500D01*
X131476546Y-86910145D01*
X131495842Y-86893425D01*
X131530861Y-86868904D01*
X131681401Y-86763495D01*
X131848495Y-86596401D01*
X131984035Y-86402830D01*
X132083903Y-86188663D01*
X132145063Y-85960408D01*
X132165659Y-85725000D01*
X132164549Y-85712318D01*
X132152859Y-85578696D01*
X132145063Y-85489592D01*
X132083903Y-85261337D01*
X131984035Y-85047171D01*
X131973508Y-85032136D01*
X131848494Y-84853597D01*
X131681402Y-84686506D01*
X131681395Y-84686501D01*
X131676459Y-84683045D01*
X131624347Y-84646555D01*
X131487834Y-84550967D01*
X131487830Y-84550965D01*
X131487828Y-84550964D01*
X131273663Y-84451097D01*
X131273659Y-84451096D01*
X131273655Y-84451094D01*
X131045413Y-84389938D01*
X131045403Y-84389936D01*
X130810001Y-84369341D01*
X130809999Y-84369341D01*
X130574596Y-84389936D01*
X130574586Y-84389938D01*
X130346344Y-84451094D01*
X130346335Y-84451098D01*
X130132171Y-84550964D01*
X130132169Y-84550965D01*
X129938597Y-84686505D01*
X129771505Y-84853597D01*
X129635965Y-85047169D01*
X129635964Y-85047171D01*
X129536098Y-85261335D01*
X129536094Y-85261344D01*
X129474938Y-85489586D01*
X129474936Y-85489596D01*
X129461935Y-85638196D01*
X129436482Y-85703265D01*
X129379891Y-85744243D01*
X129310129Y-85748121D01*
X129250726Y-85715069D01*
X128879819Y-85344162D01*
X128846334Y-85282839D01*
X128843500Y-85256481D01*
X128843500Y-69850000D01*
X129454341Y-69850000D01*
X129474936Y-70085403D01*
X129474938Y-70085413D01*
X129536094Y-70313655D01*
X129536096Y-70313659D01*
X129536097Y-70313663D01*
X129607841Y-70467517D01*
X129635965Y-70527830D01*
X129635967Y-70527834D01*
X129771501Y-70721395D01*
X129771506Y-70721402D01*
X129938597Y-70888493D01*
X129938603Y-70888498D01*
X130002810Y-70933456D01*
X130090492Y-70994852D01*
X130124594Y-71018730D01*
X130168219Y-71073307D01*
X130175413Y-71142805D01*
X130143890Y-71205160D01*
X130124595Y-71221880D01*
X129938922Y-71351890D01*
X129938920Y-71351891D01*
X129771891Y-71518920D01*
X129771886Y-71518926D01*
X129636400Y-71712420D01*
X129636399Y-71712422D01*
X129536570Y-71926507D01*
X129536567Y-71926513D01*
X129479364Y-72139999D01*
X129479364Y-72140000D01*
X130376314Y-72140000D01*
X130350507Y-72180156D01*
X130310000Y-72318111D01*
X130310000Y-72461889D01*
X130350507Y-72599844D01*
X130376314Y-72640000D01*
X129479364Y-72640000D01*
X129536567Y-72853486D01*
X129536570Y-72853492D01*
X129636399Y-73067578D01*
X129771894Y-73261082D01*
X129893946Y-73383134D01*
X129927431Y-73444457D01*
X129922447Y-73514149D01*
X129880575Y-73570082D01*
X129849598Y-73586997D01*
X129717671Y-73636202D01*
X129717664Y-73636206D01*
X129602455Y-73722452D01*
X129602452Y-73722455D01*
X129516206Y-73837664D01*
X129516202Y-73837671D01*
X129465908Y-73972517D01*
X129461100Y-74017244D01*
X129459501Y-74032123D01*
X129459500Y-74032135D01*
X129459500Y-75827870D01*
X129459501Y-75827876D01*
X129465908Y-75887483D01*
X129516202Y-76022328D01*
X129516206Y-76022335D01*
X129602452Y-76137544D01*
X129602455Y-76137547D01*
X129717664Y-76223793D01*
X129717671Y-76223797D01*
X129852517Y-76274091D01*
X129852516Y-76274091D01*
X129859444Y-76274835D01*
X129912127Y-76280500D01*
X131707872Y-76280499D01*
X131767483Y-76274091D01*
X131902331Y-76223796D01*
X132017546Y-76137546D01*
X132103796Y-76022331D01*
X132154091Y-75887483D01*
X132160500Y-75827873D01*
X132160499Y-74032128D01*
X132154091Y-73972517D01*
X132123532Y-73890585D01*
X132103797Y-73837671D01*
X132103793Y-73837664D01*
X132017547Y-73722455D01*
X132017544Y-73722452D01*
X131902335Y-73636206D01*
X131902328Y-73636202D01*
X131770401Y-73586997D01*
X131714467Y-73545126D01*
X131690050Y-73479662D01*
X131704902Y-73411389D01*
X131726053Y-73383133D01*
X131848108Y-73261078D01*
X131983600Y-73067578D01*
X132083429Y-72853492D01*
X132083432Y-72853486D01*
X132140636Y-72640000D01*
X131243686Y-72640000D01*
X131269493Y-72599844D01*
X131310000Y-72461889D01*
X131310000Y-72318111D01*
X131269493Y-72180156D01*
X131243686Y-72140000D01*
X132140636Y-72140000D01*
X132140635Y-72139999D01*
X132083432Y-71926513D01*
X132083429Y-71926507D01*
X131983600Y-71712422D01*
X131983599Y-71712420D01*
X131848113Y-71518926D01*
X131848108Y-71518920D01*
X131681078Y-71351890D01*
X131495405Y-71221879D01*
X131451780Y-71167302D01*
X131444588Y-71097804D01*
X131476110Y-71035449D01*
X131495406Y-71018730D01*
X131519309Y-71001993D01*
X131681401Y-70888495D01*
X131848495Y-70721401D01*
X131984035Y-70527830D01*
X132083903Y-70313663D01*
X132145063Y-70085408D01*
X132165659Y-69850000D01*
X132165235Y-69845159D01*
X132159302Y-69777339D01*
X132145063Y-69614592D01*
X132091931Y-69416299D01*
X132083905Y-69386344D01*
X132083904Y-69386343D01*
X132083903Y-69386337D01*
X131984035Y-69172171D01*
X131968052Y-69149344D01*
X131848494Y-68978597D01*
X131681402Y-68811506D01*
X131681395Y-68811501D01*
X131680095Y-68810591D01*
X131620378Y-68768776D01*
X131487834Y-68675967D01*
X131487830Y-68675965D01*
X131470063Y-68667680D01*
X131273663Y-68576097D01*
X131273659Y-68576096D01*
X131273655Y-68576094D01*
X131045413Y-68514938D01*
X131045403Y-68514936D01*
X130810001Y-68494341D01*
X130809999Y-68494341D01*
X130574596Y-68514936D01*
X130574586Y-68514938D01*
X130346344Y-68576094D01*
X130346337Y-68576096D01*
X130346337Y-68576097D01*
X130337969Y-68579999D01*
X130132171Y-68675964D01*
X130132169Y-68675965D01*
X129938597Y-68811505D01*
X129771505Y-68978597D01*
X129635965Y-69172169D01*
X129635964Y-69172171D01*
X129536098Y-69386335D01*
X129536094Y-69386344D01*
X129474938Y-69614586D01*
X129474936Y-69614596D01*
X129454341Y-69849999D01*
X129454341Y-69850000D01*
X128843500Y-69850000D01*
X128843500Y-63079519D01*
X128863185Y-63012480D01*
X128879819Y-62991838D01*
X128983652Y-62888005D01*
X130900859Y-62888005D01*
X130921385Y-63135729D01*
X130921387Y-63135738D01*
X130982412Y-63376717D01*
X131082266Y-63604364D01*
X131182564Y-63757882D01*
X131880070Y-63060376D01*
X131882884Y-63073915D01*
X131952442Y-63208156D01*
X132055638Y-63318652D01*
X132184819Y-63397209D01*
X132236002Y-63411549D01*
X131535942Y-64111609D01*
X131582768Y-64148055D01*
X131582770Y-64148056D01*
X131801385Y-64266364D01*
X131801396Y-64266369D01*
X132036506Y-64347083D01*
X132281707Y-64388000D01*
X132530293Y-64388000D01*
X132775493Y-64347083D01*
X133010603Y-64266369D01*
X133010614Y-64266364D01*
X133229228Y-64148057D01*
X133229231Y-64148055D01*
X133276056Y-64111609D01*
X132577568Y-63413121D01*
X132694458Y-63362349D01*
X132811739Y-63266934D01*
X132898928Y-63143415D01*
X132929354Y-63057802D01*
X133629434Y-63757882D01*
X133729731Y-63604369D01*
X133829587Y-63376717D01*
X133890612Y-63135738D01*
X133890614Y-63135729D01*
X133911141Y-62888005D01*
X133911141Y-62887994D01*
X133890614Y-62640270D01*
X133890612Y-62640261D01*
X133829587Y-62399282D01*
X133729731Y-62171630D01*
X133629434Y-62018116D01*
X132931929Y-62715622D01*
X132929116Y-62702085D01*
X132859558Y-62567844D01*
X132756362Y-62457348D01*
X132627181Y-62378791D01*
X132575997Y-62364450D01*
X133276057Y-61664390D01*
X133276056Y-61664389D01*
X133229229Y-61627943D01*
X133010614Y-61509635D01*
X133010603Y-61509630D01*
X132775493Y-61428916D01*
X132530293Y-61388000D01*
X132281707Y-61388000D01*
X132036506Y-61428916D01*
X131801396Y-61509630D01*
X131801390Y-61509632D01*
X131582761Y-61627949D01*
X131535942Y-61664388D01*
X131535942Y-61664390D01*
X132234431Y-62362878D01*
X132117542Y-62413651D01*
X132000261Y-62509066D01*
X131913072Y-62632585D01*
X131882645Y-62718197D01*
X131182564Y-62018116D01*
X131082267Y-62171632D01*
X130982412Y-62399282D01*
X130921387Y-62640261D01*
X130921385Y-62640270D01*
X130900859Y-62887994D01*
X130900859Y-62888005D01*
X128983652Y-62888005D01*
X129430958Y-62440699D01*
X129983975Y-61887681D01*
X130045296Y-61854198D01*
X130045362Y-61854183D01*
X130200803Y-61821144D01*
X130200807Y-61821142D01*
X130200808Y-61821142D01*
X130292624Y-61780262D01*
X130373730Y-61744151D01*
X130526871Y-61632888D01*
X130653533Y-61492216D01*
X130748179Y-61328284D01*
X130806674Y-61148256D01*
X130826460Y-60960000D01*
X130806674Y-60771744D01*
X130748179Y-60591716D01*
X130653533Y-60427784D01*
X130526871Y-60287112D01*
X130526870Y-60287111D01*
X130373734Y-60175851D01*
X130373729Y-60175848D01*
X130200807Y-60098857D01*
X130200802Y-60098855D01*
X130053980Y-60067648D01*
X130015646Y-60059500D01*
X129826354Y-60059500D01*
X129793897Y-60066398D01*
X129641197Y-60098855D01*
X129641192Y-60098857D01*
X129468270Y-60175848D01*
X129468265Y-60175851D01*
X129315129Y-60287111D01*
X129188466Y-60427785D01*
X129093821Y-60591715D01*
X129093818Y-60591722D01*
X129035327Y-60771739D01*
X129035325Y-60771750D01*
X129030134Y-60821129D01*
X129003549Y-60885743D01*
X128994495Y-60895846D01*
X127663966Y-62226375D01*
X127661240Y-62228942D01*
X127614818Y-62270068D01*
X127579586Y-62321109D01*
X127577368Y-62324124D01*
X127539124Y-62372939D01*
X127539119Y-62372948D01*
X127534960Y-62382188D01*
X127523942Y-62401723D01*
X127518187Y-62410061D01*
X127518183Y-62410067D01*
X127518182Y-62410070D01*
X127518180Y-62410074D01*
X127518179Y-62410077D01*
X127496189Y-62468055D01*
X127494757Y-62471513D01*
X127480293Y-62503653D01*
X127469305Y-62528068D01*
X127467693Y-62536866D01*
X127467477Y-62538042D01*
X127461453Y-62559653D01*
X127457860Y-62569127D01*
X127457859Y-62569128D01*
X127450384Y-62630685D01*
X127449821Y-62634386D01*
X127438642Y-62695390D01*
X127438642Y-62695395D01*
X127442387Y-62757302D01*
X127442500Y-62761047D01*
X127442500Y-85574951D01*
X127442387Y-85578696D01*
X127440535Y-85609319D01*
X127438642Y-85640606D01*
X125730500Y-85640606D01*
X125730500Y-56388005D01*
X130900859Y-56388005D01*
X130921385Y-56635729D01*
X130921387Y-56635738D01*
X130982412Y-56876717D01*
X131082266Y-57104364D01*
X131182564Y-57257882D01*
X131880070Y-56560376D01*
X131882884Y-56573915D01*
X131952442Y-56708156D01*
X132055638Y-56818652D01*
X132184819Y-56897209D01*
X132236002Y-56911549D01*
X131535942Y-57611609D01*
X131582768Y-57648055D01*
X131582770Y-57648056D01*
X131801385Y-57766364D01*
X131801396Y-57766369D01*
X132036506Y-57847083D01*
X132281707Y-57888000D01*
X132530293Y-57888000D01*
X132775493Y-57847083D01*
X133010603Y-57766369D01*
X133010614Y-57766364D01*
X133229228Y-57648057D01*
X133229231Y-57648055D01*
X133276056Y-57611609D01*
X132577568Y-56913121D01*
X132694458Y-56862349D01*
X132811739Y-56766934D01*
X132898928Y-56643415D01*
X132929354Y-56557802D01*
X133629434Y-57257882D01*
X133729731Y-57104369D01*
X133829587Y-56876717D01*
X133890612Y-56635738D01*
X133890614Y-56635729D01*
X133911141Y-56388005D01*
X133911141Y-56387994D01*
X133890614Y-56140270D01*
X133890612Y-56140261D01*
X133829587Y-55899282D01*
X133729731Y-55671630D01*
X133629434Y-55518116D01*
X132931929Y-56215622D01*
X132929116Y-56202085D01*
X132859558Y-56067844D01*
X132756362Y-55957348D01*
X132627181Y-55878791D01*
X132575997Y-55864450D01*
X133276057Y-55164390D01*
X133276056Y-55164389D01*
X133229229Y-55127943D01*
X133010614Y-55009635D01*
X133010603Y-55009630D01*
X132775493Y-54928916D01*
X132530293Y-54888000D01*
X132281707Y-54888000D01*
X132036506Y-54928916D01*
X131801396Y-55009630D01*
X131801390Y-55009632D01*
X131582761Y-55127949D01*
X131535942Y-55164388D01*
X131535942Y-55164390D01*
X132234431Y-55862878D01*
X132117542Y-55913651D01*
X132000261Y-56009066D01*
X131913072Y-56132585D01*
X131882645Y-56218197D01*
X131182564Y-55518116D01*
X131082267Y-55671632D01*
X130982412Y-55899282D01*
X130921387Y-56140261D01*
X130921385Y-56140270D01*
X130900859Y-56387994D01*
X130900859Y-56388005D01*
X125730500Y-56388005D01*
X125730500Y-53591500D01*
X125750185Y-53524461D01*
X125802989Y-53478706D01*
X125854500Y-53467500D01*
X187327500Y-53467500D01*
X187394539Y-53487185D01*
G37*
%TD.AperFunction*%
%TD*%
M02*
