%TF.GenerationSoftware,KiCad,Pcbnew,7.0.9*%
%TF.CreationDate,2024-01-11T23:07:38-06:00*%
%TF.ProjectId,CoCo-FujiNet-Rev0,436f436f-2d46-4756-9a69-4e65742d5265,rev?*%
%TF.SameCoordinates,Original*%
%TF.FileFunction,Copper,L2,Bot*%
%TF.FilePolarity,Positive*%
%FSLAX46Y46*%
G04 Gerber Fmt 4.6, Leading zero omitted, Abs format (unit mm)*
G04 Created by KiCad (PCBNEW 7.0.9) date 2024-01-11 23:07:38*
%MOMM*%
%LPD*%
G01*
G04 APERTURE LIST*
%TA.AperFunction,ComponentPad*%
%ADD10R,1.560000X1.560000*%
%TD*%
%TA.AperFunction,ComponentPad*%
%ADD11C,1.560000*%
%TD*%
%TA.AperFunction,ComponentPad*%
%ADD12R,1.800000X1.800000*%
%TD*%
%TA.AperFunction,ComponentPad*%
%ADD13C,1.800000*%
%TD*%
%TA.AperFunction,ComponentPad*%
%ADD14R,1.700000X1.700000*%
%TD*%
%TA.AperFunction,ComponentPad*%
%ADD15O,1.700000X1.700000*%
%TD*%
%TA.AperFunction,ComponentPad*%
%ADD16R,1.600000X1.600000*%
%TD*%
%TA.AperFunction,ComponentPad*%
%ADD17O,1.600000X1.600000*%
%TD*%
%TA.AperFunction,ComponentPad*%
%ADD18C,1.600000*%
%TD*%
%TA.AperFunction,ComponentPad*%
%ADD19C,2.000000*%
%TD*%
%TA.AperFunction,ComponentPad*%
%ADD20R,1.530000X1.530000*%
%TD*%
%TA.AperFunction,ComponentPad*%
%ADD21C,1.530000*%
%TD*%
%TA.AperFunction,ViaPad*%
%ADD22C,0.800000*%
%TD*%
%TA.AperFunction,ViaPad*%
%ADD23C,0.900000*%
%TD*%
%TA.AperFunction,Conductor*%
%ADD24C,0.250000*%
%TD*%
%TA.AperFunction,Conductor*%
%ADD25C,0.400000*%
%TD*%
%TA.AperFunction,Conductor*%
%ADD26C,0.500000*%
%TD*%
G04 APERTURE END LIST*
D10*
%TO.P,RV1,1,1*%
%TO.N,/LM386_IN*%
X150114000Y-87630000D03*
D11*
%TO.P,RV1,2,2*%
%TO.N,Net-(U1-+)*%
X145114000Y-90130000D03*
%TO.P,RV1,3,3*%
%TO.N,GND*%
X150114000Y-92630000D03*
%TD*%
D12*
%TO.P,D3,1,K*%
%TO.N,Net-(D3-K)*%
X134874000Y-91821000D03*
D13*
%TO.P,D3,2,A*%
%TO.N,+3.3V*%
X134874000Y-89281000D03*
%TD*%
%TO.P,D2,2,A*%
%TO.N,+3.3V*%
X134874000Y-79883000D03*
D12*
%TO.P,D2,1,K*%
%TO.N,Net-(D2-K)*%
X134874000Y-82423000D03*
%TD*%
%TO.P,D1,1,K*%
%TO.N,Net-(D1-K)*%
X134874000Y-73025000D03*
D13*
%TO.P,D1,2,A*%
%TO.N,+3.3V*%
X134874000Y-70485000D03*
%TD*%
D14*
%TO.P,J4,1,Pin_1*%
%TO.N,GND*%
X148590000Y-56388000D03*
D15*
%TO.P,J4,2,Pin_2*%
%TO.N,/CAS_PIN4_DATAIN*%
X146050000Y-56388000D03*
%TD*%
D14*
%TO.P,J3,1,Pin_1*%
%TO.N,GND*%
X151130000Y-106045000D03*
D15*
%TO.P,J3,2,Pin_2*%
X148590000Y-106045000D03*
%TO.P,J3,3,Pin_3*%
%TO.N,/LM386_IN*%
X146050000Y-106045000D03*
%TO.P,J3,4,Pin_4*%
%TO.N,+5V*%
X143510000Y-106045000D03*
%TD*%
D14*
%TO.P,J2,1,Pin_1*%
%TO.N,+3.3V*%
X130810000Y-93345000D03*
D15*
%TO.P,J2,2,Pin_2*%
%TO.N,GND*%
X130810000Y-90805000D03*
%TO.P,J2,3,Pin_3*%
%TO.N,/CAS_PIN4_DATAIN*%
X130810000Y-88265000D03*
%TO.P,J2,4,Pin_4*%
%TO.N,/CAS_PIN3_MTR1*%
X130810000Y-85725000D03*
%TD*%
D14*
%TO.P,J1,1,Pin_1*%
%TO.N,/SER_PIN2_RX*%
X130810000Y-74930000D03*
D15*
%TO.P,J1,2,Pin_2*%
%TO.N,GND*%
X130810000Y-72390000D03*
%TO.P,J1,3,Pin_3*%
%TO.N,/SER_PIN4_TX*%
X130810000Y-69850000D03*
%TD*%
D16*
%TO.P,RN1,1,common*%
%TO.N,+3.3V*%
X181610000Y-81915000D03*
D17*
%TO.P,RN1,2,R1*%
%TO.N,/IO0_BUTTON_A*%
X181610000Y-79375000D03*
%TO.P,RN1,3,R2*%
%TO.N,/IO14{slash}SAFE_RESET*%
X181610000Y-76835000D03*
%TO.P,RN1,4,R3*%
%TO.N,/IO19{slash}SPI_MISO*%
X181610000Y-74295000D03*
%TO.P,RN1,5,R4*%
%TO.N,Net-(P1-DAT1)*%
X181610000Y-71755000D03*
%TO.P,RN1,6,R5*%
%TO.N,/IO15{slash}CD*%
X181610000Y-69215000D03*
%TO.P,RN1,7,R6*%
%TO.N,/IO23{slash}SPI_MOSI*%
X181610000Y-66675000D03*
%TO.P,RN1,8,R7*%
%TO.N,/IO5{slash}SPI_CS*%
X181610000Y-64135000D03*
%TO.P,RN1,9,R8*%
%TO.N,Net-(P1-DAT2)*%
X181610000Y-61595000D03*
%TD*%
D16*
%TO.P,C7,1*%
%TO.N,+5V*%
X151765000Y-64095000D03*
D18*
%TO.P,C7,2*%
%TO.N,GND*%
X151765000Y-61595000D03*
%TD*%
D16*
%TO.P,C2,1*%
%TO.N,Net-(C2-Pad1)*%
X144145000Y-64007380D03*
D18*
%TO.P,C2,2*%
%TO.N,/CAS_PIN4_DATAIN*%
X144145000Y-61507380D03*
%TD*%
D19*
%TO.P,SW1,1,A*%
%TO.N,/IO0_BUTTON_A*%
X136906000Y-56388000D03*
X136906000Y-62888000D03*
%TO.P,SW1,2,B*%
%TO.N,GND*%
X132406000Y-56388000D03*
X132406000Y-62888000D03*
%TD*%
D17*
%TO.P,R17,2*%
%TO.N,/LM386_IN*%
X153670000Y-87630000D03*
D18*
%TO.P,R17,1*%
%TO.N,Net-(U1-+)*%
X153670000Y-95250000D03*
%TD*%
%TO.P,C6,1*%
%TO.N,+5V*%
X147955000Y-73580000D03*
%TO.P,C6,2*%
%TO.N,GND*%
X147955000Y-68580000D03*
%TD*%
D20*
%TO.P,U2,1,3V3*%
%TO.N,+3.3V*%
X160020000Y-60970000D03*
D21*
%TO.P,U2,2,EN*%
%TO.N,unconnected-(U2-EN-Pad2)*%
X160020000Y-63510000D03*
%TO.P,U2,3,SENSOR_VP*%
%TO.N,unconnected-(U2-SENSOR_VP-Pad3)*%
X160020000Y-66050000D03*
%TO.P,U2,4,SENSOR_VN*%
%TO.N,unconnected-(U2-SENSOR_VN-Pad4)*%
X160020000Y-68590000D03*
%TO.P,U2,5,IO34*%
%TO.N,/CAS_PIN3_MTR1*%
X160020000Y-71130000D03*
%TO.P,U2,6,IO35*%
%TO.N,unconnected-(U2-IO35-Pad6)*%
X160020000Y-73670000D03*
%TO.P,U2,7,IO32*%
%TO.N,unconnected-(U2-IO32-Pad7)*%
X160020000Y-76210000D03*
%TO.P,U2,8,IO33*%
%TO.N,/SER_PIN4_TX*%
X160020000Y-78750000D03*
%TO.P,U2,9,IO25*%
%TO.N,Net-(U2-IO25)*%
X160020000Y-81290000D03*
%TO.P,U2,10,IO26*%
%TO.N,unconnected-(U2-IO26-Pad10)*%
X160020000Y-83830000D03*
%TO.P,U2,11,IO27*%
%TO.N,unconnected-(U2-IO27-Pad11)*%
X160020000Y-86370000D03*
%TO.P,U2,12,IO14*%
%TO.N,/IO14{slash}SAFE_RESET*%
X160020000Y-88910000D03*
%TO.P,U2,13,IO12*%
%TO.N,unconnected-(U2-IO12-Pad13)*%
X160020000Y-91450000D03*
%TO.P,U2,14,GND1*%
%TO.N,GND*%
X160020000Y-93990000D03*
%TO.P,U2,15,IO13*%
%TO.N,/IO13{slash}LED_BT*%
X160020000Y-96530000D03*
%TO.P,U2,16,SD2*%
%TO.N,unconnected-(U2-SD2-Pad16)*%
X160020000Y-99070000D03*
%TO.P,U2,17,SD3*%
%TO.N,unconnected-(U2-SD3-Pad17)*%
X160020000Y-101610000D03*
%TO.P,U2,18,CMD*%
%TO.N,unconnected-(U2-CMD-Pad18)*%
X160020000Y-104150000D03*
%TO.P,U2,19,EXT_5V*%
%TO.N,+5V*%
X160020000Y-106690000D03*
%TO.P,U2,20,CLK*%
%TO.N,unconnected-(U2-CLK-Pad20)*%
X185420000Y-106690000D03*
%TO.P,U2,21,SD0*%
%TO.N,unconnected-(U2-SD0-Pad21)*%
X185420000Y-104150000D03*
%TO.P,U2,22,SD1*%
%TO.N,unconnected-(U2-SD1-Pad22)*%
X185420000Y-101610000D03*
%TO.P,U2,23,IO15*%
%TO.N,/IO15{slash}CD*%
X185420000Y-99070000D03*
%TO.P,U2,24,IO2*%
%TO.N,/IO2{slash}LED_WIFI*%
X185420000Y-96530000D03*
%TO.P,U2,25,IO0*%
%TO.N,/IO0_BUTTON_A*%
X185420000Y-93990000D03*
%TO.P,U2,26,IO4*%
%TO.N,/IO4{slash}LED_BUS*%
X185420000Y-91450000D03*
%TO.P,U2,27,IO16*%
%TO.N,unconnected-(U2-IO16-Pad27)*%
X185420000Y-88910000D03*
%TO.P,U2,28,IO17*%
%TO.N,unconnected-(U2-IO17-Pad28)*%
X185420000Y-86370000D03*
%TO.P,U2,29,IO5*%
%TO.N,/IO5{slash}SPI_CS*%
X185420000Y-83830000D03*
%TO.P,U2,30,IO18*%
%TO.N,/IO18{slash}SPI_CLK*%
X185420000Y-81290000D03*
%TO.P,U2,31,IO19*%
%TO.N,/IO19{slash}SPI_MISO*%
X185420000Y-78750000D03*
%TO.P,U2,32,GND2*%
%TO.N,GND*%
X185420000Y-76210000D03*
%TO.P,U2,33,IO21*%
%TO.N,/SER_PIN2_RX*%
X185420000Y-73670000D03*
%TO.P,U2,34,RXD0*%
%TO.N,unconnected-(U2-RXD0-Pad34)*%
X185420000Y-71130000D03*
%TO.P,U2,35,TXD0*%
%TO.N,unconnected-(U2-TXD0-Pad35)*%
X185420000Y-68590000D03*
%TO.P,U2,36,IO22*%
%TO.N,unconnected-(U2-IO22-Pad36)*%
X185420000Y-66050000D03*
%TO.P,U2,37,IO23*%
%TO.N,/IO23{slash}SPI_MOSI*%
X185420000Y-63510000D03*
%TO.P,U2,38,GND3*%
%TO.N,GND*%
X185420000Y-60970000D03*
%TD*%
D18*
%TO.P,R9,1*%
%TO.N,Net-(D1-K)*%
X167640000Y-93345000D03*
D17*
%TO.P,R9,2*%
%TO.N,/IO2{slash}LED_WIFI*%
X175260000Y-93345000D03*
%TD*%
D18*
%TO.P,R7,1*%
%TO.N,GND*%
X146050000Y-99695000D03*
D17*
%TO.P,R7,2*%
%TO.N,Net-(C3-Pad2)*%
X153670000Y-99695000D03*
%TD*%
D18*
%TO.P,R11,1*%
%TO.N,Net-(D3-K)*%
X167640000Y-88265000D03*
D17*
%TO.P,R11,2*%
%TO.N,/IO4{slash}LED_BUS*%
X175260000Y-88265000D03*
%TD*%
D19*
%TO.P,SW2,2,B*%
%TO.N,GND*%
X132406000Y-105918000D03*
X132406000Y-99418000D03*
%TO.P,SW2,1,A*%
%TO.N,/IO14{slash}SAFE_RESET*%
X136906000Y-105918000D03*
X136906000Y-99418000D03*
%TD*%
D18*
%TO.P,R13,1*%
%TO.N,/CAS_PIN3_MTR1*%
X165100000Y-78740000D03*
D17*
%TO.P,R13,2*%
%TO.N,GND*%
X165100000Y-71120000D03*
%TD*%
D18*
%TO.P,C4,1*%
%TO.N,Net-(JP1-A)*%
X142240000Y-97790000D03*
%TO.P,C4,2*%
%TO.N,Net-(C4-Pad2)*%
X142240000Y-102790000D03*
%TD*%
%TO.P,C5,1*%
%TO.N,GND*%
X144145000Y-68580000D03*
%TO.P,C5,2*%
%TO.N,Net-(U1-BYPASS)*%
X144145000Y-73580000D03*
%TD*%
%TO.P,C8,1*%
%TO.N,/LM386_IN*%
X156845000Y-78740000D03*
%TO.P,C8,2*%
%TO.N,GND*%
X156845000Y-73740000D03*
%TD*%
%TO.P,R12,1*%
%TO.N,/LM386_IN*%
X156845000Y-88900000D03*
D17*
%TO.P,R12,2*%
%TO.N,Net-(U2-IO25)*%
X156845000Y-81280000D03*
%TD*%
%TO.P,R8,2*%
%TO.N,Net-(JP1-B)*%
X142240000Y-87630000D03*
D18*
%TO.P,R8,1*%
%TO.N,Net-(JP1-A)*%
X142240000Y-95250000D03*
%TD*%
%TO.P,C3,1*%
%TO.N,Net-(C2-Pad1)*%
X145455000Y-95885000D03*
%TO.P,C3,2*%
%TO.N,Net-(C3-Pad2)*%
X150455000Y-95885000D03*
%TD*%
D17*
%TO.P,U1,8,GAIN*%
%TO.N,Net-(C4-Pad2)*%
X141605000Y-76825000D03*
%TO.P,U1,7,BYPASS*%
%TO.N,Net-(U1-BYPASS)*%
X144145000Y-76825000D03*
%TO.P,U1,6,V+*%
%TO.N,+5V*%
X146685000Y-76825000D03*
%TO.P,U1,5*%
%TO.N,Net-(C2-Pad1)*%
X149225000Y-76825000D03*
%TO.P,U1,4,GND*%
%TO.N,GND*%
X149225000Y-84445000D03*
%TO.P,U1,3,+*%
%TO.N,Net-(U1-+)*%
X146685000Y-84445000D03*
%TO.P,U1,2,-*%
%TO.N,GND*%
X144145000Y-84445000D03*
D16*
%TO.P,U1,1,GAIN*%
%TO.N,Net-(JP1-B)*%
X141605000Y-84445000D03*
%TD*%
D17*
%TO.P,R10,2*%
%TO.N,/IO13{slash}LED_BT*%
X167640000Y-98425000D03*
D18*
%TO.P,R10,1*%
%TO.N,Net-(D2-K)*%
X175260000Y-98425000D03*
%TD*%
D22*
%TO.N,GND*%
X143916400Y-86614000D03*
X155829000Y-60960000D03*
X147955000Y-60833000D03*
X149555200Y-81153000D03*
X144424400Y-81483200D03*
X151638000Y-84455000D03*
X173990000Y-69392800D03*
%TO.N,/IO19{slash}SPI_MISO*%
X184022500Y-72517000D03*
%TO.N,/IO18{slash}SPI_CLK*%
X174244000Y-80772000D03*
%TO.N,/IO19{slash}SPI_MISO*%
X175133000Y-74205500D03*
%TO.N,Net-(P1-DAT1)*%
X176149000Y-71755000D03*
%TO.N,/IO23{slash}SPI_MOSI*%
X170662600Y-66776600D03*
%TO.N,/IO5{slash}SPI_CS*%
X169545000Y-66776600D03*
%TO.N,Net-(P1-DAT2)*%
X168452800Y-66776600D03*
%TO.N,GND*%
X170942000Y-73025000D03*
D23*
%TO.N,+5V*%
X154432000Y-73580000D03*
D22*
%TO.N,+3.3V*%
X134874000Y-59436000D03*
%TO.N,/SER_PIN4_TX*%
X158242000Y-67310000D03*
%TO.N,/CAS_PIN4_DATAIN*%
X129921000Y-60960000D03*
%TO.N,/CAS_PIN3_MTR1*%
X138176000Y-71120000D03*
X138176000Y-85344000D03*
%TO.N,/IO0_BUTTON_A*%
X153416000Y-62738000D03*
X153416000Y-80010000D03*
%TO.N,+3.3V*%
X168910000Y-81661000D03*
%TO.N,/IO14{slash}SAFE_RESET*%
X178853500Y-85852000D03*
%TO.N,/IO0_BUTTON_A*%
X179578000Y-90932000D03*
%TO.N,/IO15{slash}CD*%
X177292000Y-99060000D03*
%TO.N,Net-(D1-K)*%
X138938000Y-73152000D03*
X138938000Y-96520000D03*
%TO.N,Net-(D2-K)*%
X173482000Y-82550000D03*
%TO.N,Net-(U1-+)*%
X153670000Y-89255600D03*
%TO.N,/IO14{slash}SAFE_RESET*%
X157988000Y-104902000D03*
%TD*%
D24*
%TO.N,/IO18{slash}SPI_CLK*%
X184749600Y-80619600D02*
X185420000Y-81290000D01*
X174396400Y-80619600D02*
X184749600Y-80619600D01*
X174244000Y-80772000D02*
X174396400Y-80619600D01*
%TO.N,/CAS_PIN3_MTR1*%
X138176000Y-85344000D02*
X137795000Y-85725000D01*
X137795000Y-85725000D02*
X130810000Y-85725000D01*
%TO.N,Net-(U1-+)*%
X152795600Y-90130000D02*
X145114000Y-90130000D01*
X153670000Y-89255600D02*
X152795600Y-90130000D01*
%TO.N,+3.3V*%
X169037000Y-81534000D02*
X181229000Y-81534000D01*
X181229000Y-81534000D02*
X181610000Y-81915000D01*
X168910000Y-81661000D02*
X169037000Y-81534000D01*
X158486000Y-59436000D02*
X160020000Y-60970000D01*
X134874000Y-59436000D02*
X158486000Y-59436000D01*
%TO.N,Net-(D1-K)*%
X165735000Y-95250000D02*
X167640000Y-93345000D01*
X158826200Y-95250000D02*
X165735000Y-95250000D01*
X144399000Y-97510600D02*
X156565600Y-97510600D01*
X138938000Y-96520000D02*
X143408400Y-96520000D01*
X143408400Y-96520000D02*
X144399000Y-97510600D01*
X156565600Y-97510600D02*
X158826200Y-95250000D01*
%TO.N,Net-(D3-K)*%
X158826200Y-92710000D02*
X163195000Y-92710000D01*
X137033000Y-93980000D02*
X157556200Y-93980000D01*
X157556200Y-93980000D02*
X158826200Y-92710000D01*
X163195000Y-92710000D02*
X167640000Y-88265000D01*
X134874000Y-91821000D02*
X137033000Y-93980000D01*
%TO.N,/IO23{slash}SPI_MOSI*%
X182255000Y-66675000D02*
X185420000Y-63510000D01*
X181610000Y-66675000D02*
X182255000Y-66675000D01*
X170764200Y-66675000D02*
X181610000Y-66675000D01*
X170662600Y-66776600D02*
X170764200Y-66675000D01*
%TO.N,/IO5{slash}SPI_CS*%
X172186600Y-64135000D02*
X181610000Y-64135000D01*
X169545000Y-66776600D02*
X172186600Y-64135000D01*
%TO.N,Net-(P1-DAT2)*%
X168452800Y-66751200D02*
X173609000Y-61595000D01*
X173609000Y-61595000D02*
X181610000Y-61595000D01*
X168452800Y-66776600D02*
X168452800Y-66751200D01*
D25*
%TO.N,/CAS_PIN4_DATAIN*%
X143597620Y-60960000D02*
X144145000Y-61507380D01*
X129921000Y-60960000D02*
X143597620Y-60960000D01*
D24*
%TO.N,/IO19{slash}SPI_MISO*%
X184022500Y-72517000D02*
X183388000Y-72517000D01*
X183388000Y-72517000D02*
X181610000Y-74295000D01*
X175222500Y-74295000D02*
X181610000Y-74295000D01*
X175133000Y-74205500D02*
X175222500Y-74295000D01*
%TO.N,Net-(P1-DAT1)*%
X176149000Y-71755000D02*
X181610000Y-71755000D01*
%TO.N,/SER_PIN2_RX*%
X183525000Y-75565000D02*
X185420000Y-73670000D01*
X180467000Y-75565000D02*
X183525000Y-75565000D01*
X179832000Y-74930000D02*
X180467000Y-75565000D01*
X130810000Y-74930000D02*
X179832000Y-74930000D01*
%TO.N,/SER_PIN4_TX*%
X133350000Y-67310000D02*
X130810000Y-69850000D01*
X158242000Y-67310000D02*
X133350000Y-67310000D01*
%TO.N,/IO0_BUTTON_A*%
X180975000Y-80010000D02*
X181610000Y-79375000D01*
X153416000Y-80010000D02*
X180975000Y-80010000D01*
%TO.N,Net-(D2-K)*%
X134874000Y-82423000D02*
X135001000Y-82550000D01*
X135001000Y-82550000D02*
X173482000Y-82550000D01*
D26*
%TO.N,+5V*%
X154432000Y-73580000D02*
X147955000Y-73580000D01*
D24*
%TO.N,/IO0_BUTTON_A*%
X153416000Y-62738000D02*
X137056000Y-62738000D01*
X137056000Y-62738000D02*
X136906000Y-62888000D01*
%TO.N,/CAS_PIN3_MTR1*%
X138186000Y-71130000D02*
X138176000Y-71120000D01*
X160020000Y-71130000D02*
X138186000Y-71130000D01*
%TO.N,/IO14{slash}SAFE_RESET*%
X163078000Y-85852000D02*
X178853500Y-85852000D01*
X160020000Y-88910000D02*
X163078000Y-85852000D01*
%TO.N,/IO0_BUTTON_A*%
X182362000Y-90932000D02*
X179578000Y-90932000D01*
X185420000Y-93990000D02*
X182362000Y-90932000D01*
%TO.N,/IO15{slash}CD*%
X177302000Y-99070000D02*
X177292000Y-99060000D01*
X185420000Y-99070000D02*
X177302000Y-99070000D01*
%TO.N,Net-(D1-K)*%
X138811000Y-73025000D02*
X138938000Y-73152000D01*
X134874000Y-73025000D02*
X138811000Y-73025000D01*
%TO.N,/IO14{slash}SAFE_RESET*%
X137954000Y-104870000D02*
X157956000Y-104870000D01*
X157956000Y-104870000D02*
X157988000Y-104902000D01*
X136906000Y-105918000D02*
X137954000Y-104870000D01*
%TO.N,/IO13{slash}LED_BT*%
X165745000Y-96530000D02*
X167640000Y-98425000D01*
X160020000Y-96530000D02*
X165745000Y-96530000D01*
%TO.N,/IO2{slash}LED_WIFI*%
X182235000Y-93345000D02*
X175260000Y-93345000D01*
X185420000Y-96530000D02*
X182235000Y-93345000D01*
%TO.N,/IO4{slash}LED_BUS*%
X182235000Y-88265000D02*
X175260000Y-88265000D01*
X185420000Y-91450000D02*
X182235000Y-88265000D01*
%TO.N,Net-(U2-IO25)*%
X160010000Y-81280000D02*
X160020000Y-81290000D01*
X156845000Y-81280000D02*
X160010000Y-81280000D01*
%TO.N,/LM386_IN*%
X156845000Y-88900000D02*
X155575000Y-87630000D01*
X155575000Y-87630000D02*
X153670000Y-87630000D01*
X150114000Y-87630000D02*
X153670000Y-87630000D01*
%TD*%
%TA.AperFunction,Conductor*%
%TO.N,GND*%
G36*
X150670507Y-105835156D02*
G01*
X150630000Y-105973111D01*
X150630000Y-106116889D01*
X150670507Y-106254844D01*
X150696314Y-106295000D01*
X149023686Y-106295000D01*
X149049493Y-106254844D01*
X149090000Y-106116889D01*
X149090000Y-105973111D01*
X149049493Y-105835156D01*
X149023686Y-105795000D01*
X150696314Y-105795000D01*
X150670507Y-105835156D01*
G37*
%TD.AperFunction*%
%TA.AperFunction,Conductor*%
G36*
X184094368Y-76014099D02*
G01*
X184143060Y-76064207D01*
X184156932Y-76132686D01*
X184156915Y-76132875D01*
X184150168Y-76209997D01*
X184150168Y-76210000D01*
X184169459Y-76430499D01*
X184169461Y-76430509D01*
X184226745Y-76644300D01*
X184226749Y-76644309D01*
X184320295Y-76844919D01*
X184366103Y-76910341D01*
X184366104Y-76910342D01*
X184928866Y-76347579D01*
X184951318Y-76424040D01*
X185030605Y-76547413D01*
X185141438Y-76643451D01*
X185274839Y-76704373D01*
X185278633Y-76704918D01*
X184719656Y-77263894D01*
X184785083Y-77309706D01*
X184785085Y-77309707D01*
X184908683Y-77367342D01*
X184961122Y-77413514D01*
X184980274Y-77480708D01*
X184960058Y-77547589D01*
X184908683Y-77592106D01*
X184784833Y-77649857D01*
X184603444Y-77776868D01*
X184446868Y-77933444D01*
X184319857Y-78114834D01*
X184319856Y-78114836D01*
X184226279Y-78315513D01*
X184226275Y-78315524D01*
X184168965Y-78529407D01*
X184168964Y-78529414D01*
X184149666Y-78749998D01*
X184149666Y-78750001D01*
X184168964Y-78970585D01*
X184168965Y-78970592D01*
X184226275Y-79184475D01*
X184226279Y-79184486D01*
X184316215Y-79377355D01*
X184319858Y-79385167D01*
X184348940Y-79426700D01*
X184446868Y-79566555D01*
X184603441Y-79723128D01*
X184603451Y-79723137D01*
X184668273Y-79768526D01*
X184711898Y-79823103D01*
X184719090Y-79892601D01*
X184687568Y-79954956D01*
X184627338Y-79990369D01*
X184597149Y-79994100D01*
X182950893Y-79994100D01*
X182883854Y-79974415D01*
X182838099Y-79921611D01*
X182828155Y-79852453D01*
X182835771Y-79826898D01*
X182834889Y-79826577D01*
X182836734Y-79821504D01*
X182836739Y-79821496D01*
X182895635Y-79601692D01*
X182915468Y-79375000D01*
X182895635Y-79148308D01*
X182836739Y-78928504D01*
X182740568Y-78722266D01*
X182610047Y-78535861D01*
X182610045Y-78535858D01*
X182449141Y-78374954D01*
X182262734Y-78244432D01*
X182262728Y-78244429D01*
X182204725Y-78217382D01*
X182152285Y-78171210D01*
X182133133Y-78104017D01*
X182153348Y-78037135D01*
X182204725Y-77992618D01*
X182262734Y-77965568D01*
X182449139Y-77835047D01*
X182610047Y-77674139D01*
X182740568Y-77487734D01*
X182836739Y-77281496D01*
X182895635Y-77061692D01*
X182915468Y-76835000D01*
X182895635Y-76608308D01*
X182836739Y-76388504D01*
X182826666Y-76366904D01*
X182816175Y-76297827D01*
X182844695Y-76234043D01*
X182903171Y-76195804D01*
X182939049Y-76190500D01*
X183442257Y-76190500D01*
X183457877Y-76192224D01*
X183457904Y-76191939D01*
X183465660Y-76192671D01*
X183465667Y-76192673D01*
X183534814Y-76190500D01*
X183564350Y-76190500D01*
X183571228Y-76189630D01*
X183577041Y-76189172D01*
X183623627Y-76187709D01*
X183642869Y-76182117D01*
X183661912Y-76178174D01*
X183681792Y-76175664D01*
X183725122Y-76158507D01*
X183730646Y-76156617D01*
X183734396Y-76155527D01*
X183775390Y-76143618D01*
X183792629Y-76133422D01*
X183810103Y-76124862D01*
X183828727Y-76117488D01*
X183828727Y-76117487D01*
X183828732Y-76117486D01*
X183866449Y-76090082D01*
X183871305Y-76086892D01*
X183911420Y-76063170D01*
X183925589Y-76048999D01*
X183940373Y-76036373D01*
X183956587Y-76024594D01*
X183956587Y-76024593D01*
X183960507Y-76021746D01*
X184026315Y-75998270D01*
X184094368Y-76014099D01*
G37*
%TD.AperFunction*%
%TA.AperFunction,Conductor*%
G36*
X142883542Y-67955185D02*
G01*
X142929297Y-68007989D01*
X142939241Y-68077147D01*
X142928885Y-68111906D01*
X142918732Y-68133678D01*
X142918730Y-68133682D01*
X142859860Y-68353389D01*
X142859858Y-68353400D01*
X142840034Y-68579997D01*
X142840034Y-68580002D01*
X142859858Y-68806599D01*
X142859860Y-68806610D01*
X142918730Y-69026317D01*
X142918734Y-69026326D01*
X143014865Y-69232481D01*
X143014866Y-69232483D01*
X143065973Y-69305471D01*
X143065973Y-69305472D01*
X143747045Y-68624399D01*
X143759835Y-68705148D01*
X143817359Y-68818045D01*
X143906955Y-68907641D01*
X144019852Y-68965165D01*
X144100599Y-68977953D01*
X143419526Y-69659025D01*
X143419526Y-69659026D01*
X143492512Y-69710131D01*
X143492516Y-69710133D01*
X143698673Y-69806265D01*
X143698682Y-69806269D01*
X143918389Y-69865139D01*
X143918400Y-69865141D01*
X144144998Y-69884966D01*
X144145002Y-69884966D01*
X144371599Y-69865141D01*
X144371610Y-69865139D01*
X144591317Y-69806269D01*
X144591331Y-69806264D01*
X144797478Y-69710136D01*
X144870472Y-69659025D01*
X144189401Y-68977953D01*
X144270148Y-68965165D01*
X144383045Y-68907641D01*
X144472641Y-68818045D01*
X144530165Y-68705148D01*
X144542953Y-68624400D01*
X145224025Y-69305472D01*
X145275136Y-69232478D01*
X145371264Y-69026331D01*
X145371269Y-69026317D01*
X145430139Y-68806610D01*
X145430141Y-68806599D01*
X145449966Y-68580002D01*
X145449966Y-68579997D01*
X145430141Y-68353400D01*
X145430139Y-68353389D01*
X145371269Y-68133682D01*
X145371267Y-68133678D01*
X145361115Y-68111906D01*
X145350623Y-68042828D01*
X145379142Y-67979044D01*
X145437618Y-67940804D01*
X145473497Y-67935500D01*
X146626503Y-67935500D01*
X146693542Y-67955185D01*
X146739297Y-68007989D01*
X146749241Y-68077147D01*
X146738885Y-68111906D01*
X146728732Y-68133678D01*
X146728730Y-68133682D01*
X146669860Y-68353389D01*
X146669858Y-68353400D01*
X146650034Y-68579997D01*
X146650034Y-68580002D01*
X146669858Y-68806599D01*
X146669860Y-68806610D01*
X146728730Y-69026317D01*
X146728734Y-69026326D01*
X146824865Y-69232481D01*
X146824866Y-69232483D01*
X146875973Y-69305471D01*
X146875973Y-69305472D01*
X147557045Y-68624399D01*
X147569835Y-68705148D01*
X147627359Y-68818045D01*
X147716955Y-68907641D01*
X147829852Y-68965165D01*
X147910599Y-68977953D01*
X147229526Y-69659025D01*
X147229526Y-69659026D01*
X147302512Y-69710131D01*
X147302516Y-69710133D01*
X147508673Y-69806265D01*
X147508682Y-69806269D01*
X147728389Y-69865139D01*
X147728400Y-69865141D01*
X147954998Y-69884966D01*
X147955002Y-69884966D01*
X148181599Y-69865141D01*
X148181610Y-69865139D01*
X148401317Y-69806269D01*
X148401331Y-69806264D01*
X148607478Y-69710136D01*
X148680472Y-69659025D01*
X147999401Y-68977953D01*
X148080148Y-68965165D01*
X148193045Y-68907641D01*
X148282641Y-68818045D01*
X148340165Y-68705148D01*
X148352953Y-68624400D01*
X149034025Y-69305472D01*
X149085136Y-69232478D01*
X149181264Y-69026331D01*
X149181269Y-69026317D01*
X149240139Y-68806610D01*
X149240141Y-68806599D01*
X149259966Y-68580002D01*
X149259966Y-68579997D01*
X149240141Y-68353400D01*
X149240139Y-68353389D01*
X149181269Y-68133682D01*
X149181267Y-68133678D01*
X149171115Y-68111906D01*
X149160623Y-68042828D01*
X149189142Y-67979044D01*
X149247618Y-67940804D01*
X149283497Y-67935500D01*
X157538252Y-67935500D01*
X157605291Y-67955185D01*
X157630400Y-67976526D01*
X157636126Y-67982885D01*
X157636130Y-67982889D01*
X157789265Y-68094148D01*
X157789270Y-68094151D01*
X157962192Y-68171142D01*
X157962197Y-68171144D01*
X158147354Y-68210500D01*
X158147355Y-68210500D01*
X158336644Y-68210500D01*
X158336646Y-68210500D01*
X158521803Y-68171144D01*
X158625273Y-68125075D01*
X158694519Y-68115790D01*
X158757796Y-68145418D01*
X158795010Y-68204552D01*
X158795481Y-68270448D01*
X158768966Y-68369403D01*
X158768964Y-68369414D01*
X158749666Y-68589998D01*
X158749666Y-68590001D01*
X158768964Y-68810585D01*
X158768965Y-68810592D01*
X158826275Y-69024475D01*
X158826279Y-69024486D01*
X158919856Y-69225163D01*
X158919858Y-69225167D01*
X159046868Y-69406555D01*
X159203445Y-69563132D01*
X159384833Y-69690142D01*
X159427711Y-69710136D01*
X159508091Y-69747618D01*
X159560531Y-69793790D01*
X159579683Y-69860983D01*
X159559467Y-69927865D01*
X159508091Y-69972382D01*
X159384836Y-70029856D01*
X159384834Y-70029857D01*
X159203444Y-70156868D01*
X159046868Y-70313444D01*
X159005434Y-70372618D01*
X158950112Y-70451625D01*
X158895537Y-70495249D01*
X158848539Y-70504500D01*
X138888752Y-70504500D01*
X138821713Y-70484815D01*
X138796603Y-70463473D01*
X138781871Y-70447112D01*
X138781864Y-70447106D01*
X138628734Y-70335851D01*
X138628729Y-70335848D01*
X138455807Y-70258857D01*
X138455802Y-70258855D01*
X138310001Y-70227865D01*
X138270646Y-70219500D01*
X138081354Y-70219500D01*
X138048897Y-70226398D01*
X137896197Y-70258855D01*
X137896192Y-70258857D01*
X137723270Y-70335848D01*
X137723265Y-70335851D01*
X137570129Y-70447111D01*
X137443466Y-70587785D01*
X137348821Y-70751715D01*
X137348818Y-70751722D01*
X137290327Y-70931740D01*
X137290326Y-70931744D01*
X137270540Y-71120000D01*
X137290326Y-71308256D01*
X137290327Y-71308259D01*
X137348818Y-71488277D01*
X137348821Y-71488284D01*
X137443467Y-71652216D01*
X137536465Y-71755500D01*
X137570129Y-71792888D01*
X137723265Y-71904148D01*
X137723270Y-71904151D01*
X137896192Y-71981142D01*
X137896197Y-71981144D01*
X138081354Y-72020500D01*
X138081355Y-72020500D01*
X138270644Y-72020500D01*
X138270646Y-72020500D01*
X138455803Y-71981144D01*
X138628730Y-71904151D01*
X138781871Y-71792888D01*
X138781874Y-71792883D01*
X138786701Y-71788539D01*
X138788432Y-71790461D01*
X138838104Y-71759873D01*
X138870744Y-71755500D01*
X158848539Y-71755500D01*
X158915578Y-71775185D01*
X158950112Y-71808374D01*
X159046868Y-71946555D01*
X159203445Y-72103132D01*
X159384833Y-72230142D01*
X159430636Y-72251500D01*
X159508091Y-72287618D01*
X159560531Y-72333790D01*
X159579683Y-72400983D01*
X159559467Y-72467865D01*
X159508091Y-72512382D01*
X159384836Y-72569856D01*
X159384834Y-72569857D01*
X159203444Y-72696868D01*
X159046868Y-72853444D01*
X158919857Y-73034834D01*
X158919856Y-73034836D01*
X158826279Y-73235513D01*
X158826275Y-73235524D01*
X158768965Y-73449407D01*
X158768964Y-73449414D01*
X158749666Y-73669998D01*
X158749666Y-73670001D01*
X158768964Y-73890585D01*
X158768965Y-73890592D01*
X158826275Y-74104475D01*
X158826276Y-74104477D01*
X158826277Y-74104480D01*
X158837289Y-74128095D01*
X158847781Y-74197173D01*
X158819261Y-74260957D01*
X158760785Y-74299196D01*
X158724907Y-74304500D01*
X158201202Y-74304500D01*
X158134163Y-74284815D01*
X158088408Y-74232011D01*
X158078464Y-74162853D01*
X158081427Y-74148406D01*
X158130140Y-73966606D01*
X158130141Y-73966599D01*
X158149966Y-73740002D01*
X158149966Y-73739997D01*
X158130141Y-73513400D01*
X158130139Y-73513389D01*
X158071269Y-73293682D01*
X158071265Y-73293673D01*
X157975133Y-73087516D01*
X157975131Y-73087512D01*
X157924025Y-73014526D01*
X157242953Y-73695598D01*
X157230165Y-73614852D01*
X157172641Y-73501955D01*
X157083045Y-73412359D01*
X156970148Y-73354835D01*
X156889400Y-73342046D01*
X157570472Y-72660974D01*
X157570471Y-72660973D01*
X157497483Y-72609866D01*
X157497481Y-72609865D01*
X157291326Y-72513734D01*
X157291317Y-72513730D01*
X157071610Y-72454860D01*
X157071599Y-72454858D01*
X156845002Y-72435034D01*
X156844998Y-72435034D01*
X156618400Y-72454858D01*
X156618389Y-72454860D01*
X156398682Y-72513730D01*
X156398673Y-72513734D01*
X156192513Y-72609868D01*
X156119527Y-72660972D01*
X156119526Y-72660973D01*
X156800600Y-73342046D01*
X156719852Y-73354835D01*
X156606955Y-73412359D01*
X156517359Y-73501955D01*
X156459835Y-73614852D01*
X156447046Y-73695600D01*
X155765973Y-73014527D01*
X155714868Y-73087513D01*
X155618734Y-73293673D01*
X155618728Y-73293688D01*
X155599642Y-73364917D01*
X155563277Y-73424577D01*
X155500430Y-73455105D01*
X155431054Y-73446810D01*
X155377177Y-73402324D01*
X155361210Y-73368823D01*
X155314396Y-73214499D01*
X155314394Y-73214496D01*
X155314394Y-73214494D01*
X155226137Y-73049376D01*
X155226135Y-73049373D01*
X155107357Y-72904642D01*
X154962626Y-72785864D01*
X154962623Y-72785862D01*
X154797502Y-72697604D01*
X154618333Y-72643253D01*
X154618331Y-72643252D01*
X154432000Y-72624901D01*
X154245668Y-72643252D01*
X154245666Y-72643253D01*
X154066497Y-72697604D01*
X153901380Y-72785860D01*
X153901378Y-72785861D01*
X153893732Y-72792136D01*
X153882502Y-72801352D01*
X153818194Y-72828666D01*
X153803837Y-72829500D01*
X149081663Y-72829500D01*
X149014624Y-72809815D01*
X148980088Y-72776623D01*
X148955045Y-72740858D01*
X148794141Y-72579954D01*
X148607734Y-72449432D01*
X148607732Y-72449431D01*
X148401497Y-72353261D01*
X148401488Y-72353258D01*
X148181697Y-72294366D01*
X148181693Y-72294365D01*
X148181692Y-72294365D01*
X148181691Y-72294364D01*
X148181686Y-72294364D01*
X147955002Y-72274532D01*
X147954998Y-72274532D01*
X147728313Y-72294364D01*
X147728302Y-72294366D01*
X147508511Y-72353258D01*
X147508502Y-72353261D01*
X147302267Y-72449431D01*
X147302265Y-72449432D01*
X147115858Y-72579954D01*
X146954954Y-72740858D01*
X146824432Y-72927265D01*
X146824431Y-72927267D01*
X146728261Y-73133502D01*
X146728258Y-73133511D01*
X146669366Y-73353302D01*
X146669364Y-73353313D01*
X146649532Y-73579998D01*
X146649532Y-73580001D01*
X146669364Y-73806686D01*
X146669366Y-73806697D01*
X146728258Y-74026488D01*
X146728261Y-74026497D01*
X146731934Y-74034373D01*
X146774271Y-74125165D01*
X146775638Y-74128095D01*
X146786130Y-74197172D01*
X146757610Y-74260956D01*
X146699134Y-74299196D01*
X146663256Y-74304500D01*
X145436744Y-74304500D01*
X145369705Y-74284815D01*
X145323950Y-74232011D01*
X145314006Y-74162853D01*
X145324362Y-74128095D01*
X145371739Y-74026496D01*
X145430635Y-73806692D01*
X145450468Y-73580000D01*
X145450424Y-73579501D01*
X145442593Y-73489989D01*
X145430635Y-73353308D01*
X145371739Y-73133504D01*
X145275568Y-72927266D01*
X145145047Y-72740861D01*
X145145045Y-72740858D01*
X144984141Y-72579954D01*
X144797734Y-72449432D01*
X144797732Y-72449431D01*
X144591497Y-72353261D01*
X144591488Y-72353258D01*
X144371697Y-72294366D01*
X144371693Y-72294365D01*
X144371692Y-72294365D01*
X144371691Y-72294364D01*
X144371686Y-72294364D01*
X144145002Y-72274532D01*
X144144998Y-72274532D01*
X143918313Y-72294364D01*
X143918302Y-72294366D01*
X143698511Y-72353258D01*
X143698502Y-72353261D01*
X143492267Y-72449431D01*
X143492265Y-72449432D01*
X143305858Y-72579954D01*
X143144954Y-72740858D01*
X143014432Y-72927265D01*
X143014431Y-72927267D01*
X142918261Y-73133502D01*
X142918258Y-73133511D01*
X142859366Y-73353302D01*
X142859364Y-73353313D01*
X142839532Y-73579998D01*
X142839532Y-73580001D01*
X142859364Y-73806686D01*
X142859366Y-73806697D01*
X142918258Y-74026488D01*
X142918261Y-74026497D01*
X142921934Y-74034373D01*
X142964271Y-74125165D01*
X142965638Y-74128095D01*
X142976130Y-74197172D01*
X142947610Y-74260956D01*
X142889134Y-74299196D01*
X142853256Y-74304500D01*
X136345229Y-74304500D01*
X136278190Y-74284815D01*
X136232435Y-74232011D01*
X136222491Y-74162853D01*
X136229047Y-74137167D01*
X136268091Y-74032482D01*
X136268130Y-74032116D01*
X136274500Y-73972873D01*
X136274500Y-73774500D01*
X136294185Y-73707461D01*
X136346989Y-73661706D01*
X136398500Y-73650500D01*
X138119901Y-73650500D01*
X138186940Y-73670185D01*
X138212051Y-73691528D01*
X138332129Y-73824888D01*
X138485265Y-73936148D01*
X138485270Y-73936151D01*
X138658192Y-74013142D01*
X138658197Y-74013144D01*
X138843354Y-74052500D01*
X138843355Y-74052500D01*
X139032644Y-74052500D01*
X139032646Y-74052500D01*
X139217803Y-74013144D01*
X139390730Y-73936151D01*
X139543871Y-73824888D01*
X139670533Y-73684216D01*
X139765179Y-73520284D01*
X139823674Y-73340256D01*
X139843460Y-73152000D01*
X139823674Y-72963744D01*
X139765179Y-72783716D01*
X139670533Y-72619784D01*
X139543871Y-72479112D01*
X139526113Y-72466210D01*
X139390734Y-72367851D01*
X139390729Y-72367848D01*
X139217807Y-72290857D01*
X139217802Y-72290855D01*
X139072001Y-72259865D01*
X139032646Y-72251500D01*
X138843354Y-72251500D01*
X138810897Y-72258398D01*
X138658197Y-72290855D01*
X138658192Y-72290857D01*
X138485270Y-72367848D01*
X138474302Y-72375818D01*
X138408496Y-72399298D01*
X138401416Y-72399500D01*
X136398499Y-72399500D01*
X136331460Y-72379815D01*
X136285705Y-72327011D01*
X136274499Y-72275500D01*
X136274499Y-72077129D01*
X136274498Y-72077123D01*
X136274497Y-72077116D01*
X136268091Y-72017517D01*
X136249380Y-71967351D01*
X136217797Y-71882671D01*
X136217793Y-71882664D01*
X136131547Y-71767455D01*
X136131544Y-71767452D01*
X136016335Y-71681206D01*
X136016328Y-71681202D01*
X135936094Y-71651277D01*
X135880160Y-71609406D01*
X135855743Y-71543941D01*
X135870595Y-71475668D01*
X135888190Y-71451121D01*
X135982979Y-71348153D01*
X136109924Y-71153849D01*
X136203157Y-70941300D01*
X136260134Y-70716305D01*
X136261856Y-70695524D01*
X136279300Y-70485006D01*
X136279300Y-70484993D01*
X136260135Y-70253702D01*
X136260133Y-70253691D01*
X136203157Y-70028699D01*
X136109924Y-69816151D01*
X135982983Y-69621852D01*
X135982980Y-69621849D01*
X135982979Y-69621847D01*
X135825784Y-69451087D01*
X135825779Y-69451083D01*
X135825777Y-69451081D01*
X135642634Y-69308535D01*
X135642628Y-69308531D01*
X135438504Y-69198064D01*
X135438495Y-69198061D01*
X135218984Y-69122702D01*
X135047282Y-69094050D01*
X134990049Y-69084500D01*
X134757951Y-69084500D01*
X134712164Y-69092140D01*
X134529015Y-69122702D01*
X134309504Y-69198061D01*
X134309495Y-69198064D01*
X134105371Y-69308531D01*
X134105365Y-69308535D01*
X133922222Y-69451081D01*
X133922219Y-69451084D01*
X133765016Y-69621852D01*
X133638075Y-69816151D01*
X133544842Y-70028699D01*
X133487866Y-70253691D01*
X133487864Y-70253702D01*
X133468700Y-70484993D01*
X133468700Y-70485006D01*
X133487864Y-70716297D01*
X133487866Y-70716308D01*
X133544842Y-70941300D01*
X133638075Y-71153848D01*
X133765016Y-71348147D01*
X133765019Y-71348151D01*
X133765021Y-71348153D01*
X133859803Y-71451114D01*
X133890724Y-71513767D01*
X133882864Y-71583193D01*
X133838716Y-71637348D01*
X133811906Y-71651277D01*
X133731669Y-71681203D01*
X133731664Y-71681206D01*
X133616455Y-71767452D01*
X133616452Y-71767455D01*
X133530206Y-71882664D01*
X133530202Y-71882671D01*
X133479908Y-72017517D01*
X133475620Y-72057406D01*
X133473501Y-72077123D01*
X133473500Y-72077135D01*
X133473500Y-73972870D01*
X133473501Y-73972876D01*
X133479908Y-74032483D01*
X133518953Y-74137167D01*
X133523937Y-74206859D01*
X133490452Y-74268182D01*
X133429128Y-74301666D01*
X133402771Y-74304500D01*
X132284499Y-74304500D01*
X132217460Y-74284815D01*
X132171705Y-74232011D01*
X132160499Y-74180500D01*
X132160499Y-74032129D01*
X132160498Y-74032123D01*
X132160497Y-74032116D01*
X132154091Y-73972517D01*
X132151886Y-73966606D01*
X132103797Y-73837671D01*
X132103793Y-73837664D01*
X132017547Y-73722455D01*
X132017544Y-73722452D01*
X131902335Y-73636206D01*
X131902328Y-73636202D01*
X131770401Y-73586997D01*
X131714467Y-73545126D01*
X131690050Y-73479662D01*
X131704902Y-73411389D01*
X131726053Y-73383133D01*
X131848108Y-73261078D01*
X131983600Y-73067578D01*
X132083429Y-72853492D01*
X132083432Y-72853486D01*
X132140636Y-72640000D01*
X131243686Y-72640000D01*
X131269493Y-72599844D01*
X131310000Y-72461889D01*
X131310000Y-72318111D01*
X131269493Y-72180156D01*
X131243686Y-72140000D01*
X132140636Y-72140000D01*
X132140635Y-72139999D01*
X132083432Y-71926513D01*
X132083429Y-71926507D01*
X131983600Y-71712422D01*
X131983599Y-71712420D01*
X131848113Y-71518926D01*
X131848108Y-71518920D01*
X131681078Y-71351890D01*
X131495405Y-71221879D01*
X131451780Y-71167302D01*
X131444588Y-71097804D01*
X131476110Y-71035449D01*
X131495406Y-71018730D01*
X131681401Y-70888495D01*
X131848495Y-70721401D01*
X131984035Y-70527830D01*
X132083903Y-70313663D01*
X132145063Y-70085408D01*
X132165659Y-69850000D01*
X132145063Y-69614592D01*
X132118143Y-69514125D01*
X132119806Y-69444276D01*
X132150235Y-69394353D01*
X133572772Y-67971819D01*
X133634095Y-67938334D01*
X133660453Y-67935500D01*
X142816503Y-67935500D01*
X142883542Y-67955185D01*
G37*
%TD.AperFunction*%
%TA.AperFunction,Conductor*%
G36*
X151604126Y-60081185D02*
G01*
X151649881Y-60133989D01*
X151659825Y-60203147D01*
X151630800Y-60266703D01*
X151572022Y-60304477D01*
X151547895Y-60309028D01*
X151538399Y-60309858D01*
X151538389Y-60309860D01*
X151318682Y-60368730D01*
X151318673Y-60368734D01*
X151112513Y-60464868D01*
X151039527Y-60515972D01*
X151039526Y-60515973D01*
X151720600Y-61197046D01*
X151639852Y-61209835D01*
X151526955Y-61267359D01*
X151437359Y-61356955D01*
X151379835Y-61469852D01*
X151367046Y-61550600D01*
X150685973Y-60869527D01*
X150634868Y-60942513D01*
X150538734Y-61148673D01*
X150538730Y-61148682D01*
X150479860Y-61368389D01*
X150479858Y-61368400D01*
X150460034Y-61594997D01*
X150460034Y-61595002D01*
X150479858Y-61821599D01*
X150479860Y-61821610D01*
X150515979Y-61956407D01*
X150514316Y-62026256D01*
X150475153Y-62084119D01*
X150410925Y-62111623D01*
X150396204Y-62112500D01*
X145490836Y-62112500D01*
X145423797Y-62092815D01*
X145378042Y-62040011D01*
X145368098Y-61970853D01*
X145371061Y-61956407D01*
X145392376Y-61876856D01*
X145430635Y-61734072D01*
X145450468Y-61507380D01*
X145430635Y-61280688D01*
X145371739Y-61060884D01*
X145275568Y-60854646D01*
X145145047Y-60668241D01*
X145145045Y-60668238D01*
X144984141Y-60507334D01*
X144797734Y-60376812D01*
X144797732Y-60376811D01*
X144654156Y-60309860D01*
X144628468Y-60297881D01*
X144576030Y-60251709D01*
X144556878Y-60184516D01*
X144577094Y-60117635D01*
X144630259Y-60072300D01*
X144680874Y-60061500D01*
X151537087Y-60061500D01*
X151604126Y-60081185D01*
G37*
%TD.AperFunction*%
%TA.AperFunction,Conductor*%
G36*
X187394539Y-53487185D02*
G01*
X187440294Y-53539989D01*
X187451500Y-53591500D01*
X187451500Y-108714500D01*
X187431815Y-108781539D01*
X187379011Y-108827294D01*
X187327500Y-108838500D01*
X125854500Y-108838500D01*
X125787461Y-108818815D01*
X125741706Y-108766011D01*
X125730500Y-108714500D01*
X125730500Y-105918005D01*
X130900859Y-105918005D01*
X130921385Y-106165729D01*
X130921387Y-106165738D01*
X130982412Y-106406717D01*
X131082266Y-106634364D01*
X131182564Y-106787882D01*
X131880070Y-106090376D01*
X131882884Y-106103915D01*
X131952442Y-106238156D01*
X132055638Y-106348652D01*
X132184819Y-106427209D01*
X132236002Y-106441549D01*
X131535942Y-107141609D01*
X131582768Y-107178055D01*
X131582770Y-107178056D01*
X131801385Y-107296364D01*
X131801396Y-107296369D01*
X132036506Y-107377083D01*
X132281707Y-107418000D01*
X132530293Y-107418000D01*
X132775493Y-107377083D01*
X133010603Y-107296369D01*
X133010614Y-107296364D01*
X133229228Y-107178057D01*
X133229231Y-107178055D01*
X133276056Y-107141609D01*
X132577568Y-106443121D01*
X132694458Y-106392349D01*
X132811739Y-106296934D01*
X132898928Y-106173415D01*
X132929354Y-106087802D01*
X133629434Y-106787882D01*
X133729731Y-106634369D01*
X133829587Y-106406717D01*
X133890612Y-106165738D01*
X133890614Y-106165729D01*
X133911141Y-105918005D01*
X133911141Y-105917994D01*
X133890614Y-105670270D01*
X133890612Y-105670261D01*
X133829587Y-105429282D01*
X133729731Y-105201630D01*
X133629434Y-105048116D01*
X132931929Y-105745622D01*
X132929116Y-105732085D01*
X132859558Y-105597844D01*
X132756362Y-105487348D01*
X132627181Y-105408791D01*
X132575997Y-105394450D01*
X133276057Y-104694390D01*
X133276056Y-104694389D01*
X133229229Y-104657943D01*
X133010614Y-104539635D01*
X133010603Y-104539630D01*
X132775493Y-104458916D01*
X132530293Y-104418000D01*
X132281707Y-104418000D01*
X132036506Y-104458916D01*
X131801396Y-104539630D01*
X131801390Y-104539632D01*
X131582761Y-104657949D01*
X131535942Y-104694388D01*
X131535942Y-104694390D01*
X132234431Y-105392878D01*
X132117542Y-105443651D01*
X132000261Y-105539066D01*
X131913072Y-105662585D01*
X131882645Y-105748197D01*
X131182564Y-105048116D01*
X131082267Y-105201632D01*
X130982412Y-105429282D01*
X130921387Y-105670261D01*
X130921385Y-105670270D01*
X130900859Y-105917994D01*
X130900859Y-105918005D01*
X125730500Y-105918005D01*
X125730500Y-99418005D01*
X130900859Y-99418005D01*
X130921385Y-99665729D01*
X130921387Y-99665738D01*
X130982412Y-99906717D01*
X131082266Y-100134364D01*
X131182564Y-100287882D01*
X131880070Y-99590376D01*
X131882884Y-99603915D01*
X131952442Y-99738156D01*
X132055638Y-99848652D01*
X132184819Y-99927209D01*
X132236002Y-99941549D01*
X131535942Y-100641609D01*
X131582768Y-100678055D01*
X131582770Y-100678056D01*
X131801385Y-100796364D01*
X131801396Y-100796369D01*
X132036506Y-100877083D01*
X132281707Y-100918000D01*
X132530293Y-100918000D01*
X132775493Y-100877083D01*
X133010603Y-100796369D01*
X133010614Y-100796364D01*
X133229228Y-100678057D01*
X133229231Y-100678055D01*
X133276056Y-100641609D01*
X132577568Y-99943121D01*
X132694458Y-99892349D01*
X132811739Y-99796934D01*
X132898928Y-99673415D01*
X132929354Y-99587802D01*
X133629434Y-100287882D01*
X133729731Y-100134369D01*
X133829587Y-99906717D01*
X133890612Y-99665738D01*
X133890614Y-99665729D01*
X133911141Y-99418005D01*
X135400357Y-99418005D01*
X135420890Y-99665812D01*
X135420892Y-99665824D01*
X135481936Y-99906881D01*
X135581826Y-100134606D01*
X135717833Y-100342782D01*
X135717836Y-100342785D01*
X135886256Y-100525738D01*
X136082491Y-100678474D01*
X136082493Y-100678475D01*
X136300332Y-100796364D01*
X136301190Y-100796828D01*
X136384904Y-100825567D01*
X136534964Y-100877083D01*
X136536386Y-100877571D01*
X136781665Y-100918500D01*
X137030335Y-100918500D01*
X137275614Y-100877571D01*
X137510810Y-100796828D01*
X137729509Y-100678474D01*
X137925744Y-100525738D01*
X138094164Y-100342785D01*
X138230173Y-100134607D01*
X138330063Y-99906881D01*
X138383718Y-99695002D01*
X144745034Y-99695002D01*
X144764858Y-99921599D01*
X144764860Y-99921610D01*
X144823730Y-100141317D01*
X144823734Y-100141326D01*
X144919865Y-100347481D01*
X144919866Y-100347483D01*
X144970973Y-100420471D01*
X144970974Y-100420472D01*
X145652046Y-99739399D01*
X145664835Y-99820148D01*
X145722359Y-99933045D01*
X145811955Y-100022641D01*
X145924852Y-100080165D01*
X146005599Y-100092953D01*
X145324526Y-100774025D01*
X145324526Y-100774026D01*
X145397512Y-100825131D01*
X145397516Y-100825133D01*
X145603673Y-100921265D01*
X145603682Y-100921269D01*
X145823389Y-100980139D01*
X145823400Y-100980141D01*
X146049998Y-100999966D01*
X146050002Y-100999966D01*
X146276599Y-100980141D01*
X146276610Y-100980139D01*
X146496317Y-100921269D01*
X146496331Y-100921264D01*
X146702478Y-100825136D01*
X146775472Y-100774025D01*
X146094401Y-100092953D01*
X146175148Y-100080165D01*
X146288045Y-100022641D01*
X146377641Y-99933045D01*
X146435165Y-99820148D01*
X146447953Y-99739400D01*
X147129025Y-100420472D01*
X147180136Y-100347478D01*
X147276264Y-100141331D01*
X147276269Y-100141317D01*
X147335139Y-99921610D01*
X147335141Y-99921599D01*
X147354966Y-99695002D01*
X147354966Y-99695001D01*
X152364532Y-99695001D01*
X152384364Y-99921686D01*
X152384366Y-99921697D01*
X152443258Y-100141488D01*
X152443261Y-100141497D01*
X152539431Y-100347732D01*
X152539432Y-100347734D01*
X152669954Y-100534141D01*
X152830858Y-100695045D01*
X152830861Y-100695047D01*
X153017266Y-100825568D01*
X153223504Y-100921739D01*
X153443308Y-100980635D01*
X153605230Y-100994801D01*
X153669998Y-101000468D01*
X153670000Y-101000468D01*
X153670002Y-101000468D01*
X153726673Y-100995509D01*
X153896692Y-100980635D01*
X154116496Y-100921739D01*
X154322734Y-100825568D01*
X154509139Y-100695047D01*
X154670047Y-100534139D01*
X154800568Y-100347734D01*
X154896739Y-100141496D01*
X154955635Y-99921692D01*
X154975468Y-99695000D01*
X154972915Y-99665824D01*
X154967499Y-99603915D01*
X154955635Y-99468308D01*
X154896739Y-99248504D01*
X154800568Y-99042266D01*
X154670047Y-98855861D01*
X154670045Y-98855858D01*
X154509141Y-98694954D01*
X154322734Y-98564432D01*
X154322732Y-98564431D01*
X154116497Y-98468261D01*
X154116488Y-98468258D01*
X153896697Y-98409366D01*
X153896693Y-98409365D01*
X153896692Y-98409365D01*
X153896691Y-98409364D01*
X153896686Y-98409364D01*
X153670002Y-98389532D01*
X153669998Y-98389532D01*
X153443313Y-98409364D01*
X153443302Y-98409366D01*
X153223511Y-98468258D01*
X153223502Y-98468261D01*
X153017267Y-98564431D01*
X153017265Y-98564432D01*
X152830858Y-98694954D01*
X152669954Y-98855858D01*
X152539432Y-99042265D01*
X152539431Y-99042267D01*
X152443261Y-99248502D01*
X152443258Y-99248511D01*
X152384366Y-99468302D01*
X152384364Y-99468313D01*
X152364532Y-99694998D01*
X152364532Y-99695001D01*
X147354966Y-99695001D01*
X147354966Y-99694997D01*
X147335141Y-99468400D01*
X147335139Y-99468389D01*
X147276269Y-99248682D01*
X147276265Y-99248673D01*
X147180133Y-99042516D01*
X147180131Y-99042512D01*
X147129026Y-98969526D01*
X147129025Y-98969526D01*
X146447953Y-99650598D01*
X146435165Y-99569852D01*
X146377641Y-99456955D01*
X146288045Y-99367359D01*
X146175148Y-99309835D01*
X146094400Y-99297046D01*
X146775472Y-98615974D01*
X146775471Y-98615973D01*
X146702483Y-98564866D01*
X146702481Y-98564865D01*
X146496326Y-98468734D01*
X146496317Y-98468730D01*
X146276610Y-98409860D01*
X146276599Y-98409858D01*
X146050002Y-98390034D01*
X146049998Y-98390034D01*
X145823400Y-98409858D01*
X145823389Y-98409860D01*
X145603682Y-98468730D01*
X145603673Y-98468734D01*
X145397513Y-98564868D01*
X145324527Y-98615972D01*
X145324526Y-98615973D01*
X146005600Y-99297046D01*
X145924852Y-99309835D01*
X145811955Y-99367359D01*
X145722359Y-99456955D01*
X145664835Y-99569852D01*
X145652046Y-99650599D01*
X144970973Y-98969526D01*
X144970972Y-98969527D01*
X144919868Y-99042513D01*
X144823734Y-99248673D01*
X144823730Y-99248682D01*
X144764860Y-99468389D01*
X144764858Y-99468400D01*
X144745034Y-99694997D01*
X144745034Y-99695002D01*
X138383718Y-99695002D01*
X138391108Y-99665821D01*
X138397207Y-99592216D01*
X138411643Y-99418005D01*
X138411643Y-99417994D01*
X138391109Y-99170187D01*
X138391107Y-99170175D01*
X138330063Y-98929118D01*
X138230173Y-98701393D01*
X138094166Y-98493217D01*
X138047691Y-98442732D01*
X137925744Y-98310262D01*
X137729509Y-98157526D01*
X137729507Y-98157525D01*
X137729506Y-98157524D01*
X137510811Y-98039172D01*
X137510802Y-98039169D01*
X137275616Y-97958429D01*
X137030335Y-97917500D01*
X136781665Y-97917500D01*
X136536383Y-97958429D01*
X136301197Y-98039169D01*
X136301188Y-98039172D01*
X136082493Y-98157524D01*
X135886257Y-98310261D01*
X135717833Y-98493217D01*
X135581826Y-98701393D01*
X135481936Y-98929118D01*
X135420892Y-99170175D01*
X135420890Y-99170187D01*
X135400357Y-99417994D01*
X135400357Y-99418005D01*
X133911141Y-99418005D01*
X133911141Y-99417994D01*
X133890614Y-99170270D01*
X133890612Y-99170261D01*
X133829587Y-98929282D01*
X133729731Y-98701630D01*
X133629434Y-98548116D01*
X132931929Y-99245622D01*
X132929116Y-99232085D01*
X132859558Y-99097844D01*
X132756362Y-98987348D01*
X132627181Y-98908791D01*
X132575997Y-98894450D01*
X133276057Y-98194390D01*
X133276056Y-98194389D01*
X133229229Y-98157943D01*
X133010614Y-98039635D01*
X133010603Y-98039630D01*
X132775493Y-97958916D01*
X132530293Y-97918000D01*
X132281707Y-97918000D01*
X132036506Y-97958916D01*
X131801396Y-98039630D01*
X131801390Y-98039632D01*
X131582761Y-98157949D01*
X131535942Y-98194388D01*
X131535942Y-98194390D01*
X132234431Y-98892878D01*
X132117542Y-98943651D01*
X132000261Y-99039066D01*
X131913072Y-99162585D01*
X131882645Y-99248197D01*
X131182564Y-98548116D01*
X131082267Y-98701632D01*
X130982412Y-98929282D01*
X130921387Y-99170261D01*
X130921385Y-99170270D01*
X130900859Y-99417994D01*
X130900859Y-99418005D01*
X125730500Y-99418005D01*
X125730500Y-88265000D01*
X129454341Y-88265000D01*
X129474936Y-88500403D01*
X129474938Y-88500413D01*
X129536094Y-88728655D01*
X129536096Y-88728659D01*
X129536097Y-88728663D01*
X129626312Y-88922129D01*
X129635965Y-88942830D01*
X129635967Y-88942834D01*
X129718782Y-89061105D01*
X129767437Y-89130592D01*
X129771501Y-89136395D01*
X129771506Y-89136402D01*
X129938597Y-89303493D01*
X129938603Y-89303498D01*
X130124594Y-89433730D01*
X130168219Y-89488307D01*
X130175413Y-89557805D01*
X130143890Y-89620160D01*
X130124595Y-89636880D01*
X129938922Y-89766890D01*
X129938920Y-89766891D01*
X129771891Y-89933920D01*
X129771886Y-89933926D01*
X129636400Y-90127420D01*
X129636399Y-90127422D01*
X129536570Y-90341507D01*
X129536567Y-90341513D01*
X129479364Y-90554999D01*
X129479364Y-90555000D01*
X130376314Y-90555000D01*
X130350507Y-90595156D01*
X130310000Y-90733111D01*
X130310000Y-90876889D01*
X130350507Y-91014844D01*
X130376314Y-91055000D01*
X129479364Y-91055000D01*
X129536567Y-91268486D01*
X129536570Y-91268492D01*
X129636399Y-91482578D01*
X129771894Y-91676082D01*
X129893946Y-91798134D01*
X129927431Y-91859457D01*
X129922447Y-91929149D01*
X129880575Y-91985082D01*
X129849598Y-92001997D01*
X129717671Y-92051202D01*
X129717664Y-92051206D01*
X129602455Y-92137452D01*
X129602452Y-92137455D01*
X129516206Y-92252664D01*
X129516202Y-92252671D01*
X129465908Y-92387517D01*
X129459501Y-92447116D01*
X129459501Y-92447123D01*
X129459500Y-92447135D01*
X129459500Y-94242870D01*
X129459501Y-94242876D01*
X129465908Y-94302483D01*
X129516202Y-94437328D01*
X129516206Y-94437335D01*
X129602452Y-94552544D01*
X129602455Y-94552547D01*
X129717664Y-94638793D01*
X129717671Y-94638797D01*
X129852517Y-94689091D01*
X129852516Y-94689091D01*
X129859444Y-94689835D01*
X129912127Y-94695500D01*
X131707872Y-94695499D01*
X131767483Y-94689091D01*
X131902331Y-94638796D01*
X132017546Y-94552546D01*
X132103796Y-94437331D01*
X132154091Y-94302483D01*
X132160500Y-94242873D01*
X132160499Y-92447128D01*
X132154091Y-92387517D01*
X132135215Y-92336909D01*
X132103797Y-92252671D01*
X132103793Y-92252664D01*
X132017547Y-92137455D01*
X132017544Y-92137452D01*
X131902335Y-92051206D01*
X131902328Y-92051202D01*
X131770401Y-92001997D01*
X131714467Y-91960126D01*
X131690050Y-91894662D01*
X131704902Y-91826389D01*
X131726053Y-91798133D01*
X131848108Y-91676078D01*
X131983600Y-91482578D01*
X132083429Y-91268492D01*
X132083432Y-91268486D01*
X132140636Y-91055000D01*
X131243686Y-91055000D01*
X131269493Y-91014844D01*
X131310000Y-90876889D01*
X131310000Y-90733111D01*
X131269493Y-90595156D01*
X131243686Y-90555000D01*
X132140636Y-90555000D01*
X132140635Y-90554999D01*
X132083432Y-90341513D01*
X132083429Y-90341507D01*
X131983600Y-90127422D01*
X131983599Y-90127420D01*
X131848113Y-89933926D01*
X131848108Y-89933920D01*
X131681078Y-89766890D01*
X131495405Y-89636879D01*
X131451780Y-89582302D01*
X131444588Y-89512804D01*
X131476110Y-89450449D01*
X131495406Y-89433730D01*
X131549907Y-89395568D01*
X131681401Y-89303495D01*
X131848495Y-89136401D01*
X131984035Y-88942830D01*
X132083903Y-88728663D01*
X132145063Y-88500408D01*
X132165659Y-88265000D01*
X132145063Y-88029592D01*
X132083903Y-87801337D01*
X132004007Y-87630001D01*
X140934532Y-87630001D01*
X140954364Y-87856686D01*
X140954366Y-87856697D01*
X141013258Y-88076488D01*
X141013261Y-88076497D01*
X141109431Y-88282732D01*
X141109432Y-88282734D01*
X141239954Y-88469141D01*
X141400858Y-88630045D01*
X141400861Y-88630047D01*
X141587266Y-88760568D01*
X141793504Y-88856739D01*
X142013308Y-88915635D01*
X142175230Y-88929801D01*
X142239998Y-88935468D01*
X142240000Y-88935468D01*
X142240002Y-88935468D01*
X142296673Y-88930509D01*
X142466692Y-88915635D01*
X142686496Y-88856739D01*
X142892734Y-88760568D01*
X143079139Y-88630047D01*
X143240047Y-88469139D01*
X143370568Y-88282734D01*
X143466739Y-88076496D01*
X143525635Y-87856692D01*
X143544679Y-87639017D01*
X143545468Y-87630001D01*
X143545468Y-87629998D01*
X143527608Y-87425861D01*
X143525635Y-87403308D01*
X143466739Y-87183504D01*
X143370568Y-86977266D01*
X143247936Y-86802128D01*
X143240045Y-86790858D01*
X143079141Y-86629954D01*
X142892734Y-86499432D01*
X142892732Y-86499431D01*
X142686497Y-86403261D01*
X142686488Y-86403258D01*
X142466697Y-86344366D01*
X142466693Y-86344365D01*
X142466692Y-86344365D01*
X142466691Y-86344364D01*
X142466686Y-86344364D01*
X142240002Y-86324532D01*
X142239998Y-86324532D01*
X142013313Y-86344364D01*
X142013302Y-86344366D01*
X141793511Y-86403258D01*
X141793502Y-86403261D01*
X141587267Y-86499431D01*
X141587265Y-86499432D01*
X141400858Y-86629954D01*
X141239954Y-86790858D01*
X141109432Y-86977265D01*
X141109431Y-86977267D01*
X141013261Y-87183502D01*
X141013258Y-87183511D01*
X140954366Y-87403302D01*
X140954364Y-87403313D01*
X140934532Y-87629998D01*
X140934532Y-87630001D01*
X132004007Y-87630001D01*
X131984035Y-87587171D01*
X131983652Y-87586623D01*
X131848494Y-87393597D01*
X131681402Y-87226506D01*
X131681396Y-87226501D01*
X131495842Y-87096575D01*
X131452217Y-87041998D01*
X131445023Y-86972500D01*
X131476546Y-86910145D01*
X131495842Y-86893425D01*
X131550066Y-86855457D01*
X131681401Y-86763495D01*
X131848495Y-86596401D01*
X131981671Y-86406206D01*
X131983652Y-86403377D01*
X132038229Y-86359752D01*
X132085227Y-86350500D01*
X137712257Y-86350500D01*
X137727877Y-86352224D01*
X137727904Y-86351939D01*
X137735660Y-86352671D01*
X137735667Y-86352673D01*
X137804814Y-86350500D01*
X137834350Y-86350500D01*
X137841228Y-86349630D01*
X137847041Y-86349172D01*
X137893627Y-86347709D01*
X137912869Y-86342117D01*
X137931912Y-86338174D01*
X137951792Y-86335664D01*
X137995122Y-86318507D01*
X138000646Y-86316617D01*
X138004396Y-86315527D01*
X138045390Y-86303618D01*
X138062629Y-86293422D01*
X138080103Y-86284862D01*
X138098729Y-86277487D01*
X138098728Y-86277487D01*
X138098732Y-86277486D01*
X138111536Y-86268182D01*
X138177342Y-86244702D01*
X138184423Y-86244500D01*
X138270644Y-86244500D01*
X138270646Y-86244500D01*
X138455803Y-86205144D01*
X138628730Y-86128151D01*
X138781871Y-86016888D01*
X138908533Y-85876216D01*
X139003179Y-85712284D01*
X139061674Y-85532256D01*
X139081460Y-85344000D01*
X139061674Y-85155744D01*
X139003179Y-84975716D01*
X138908533Y-84811784D01*
X138781871Y-84671112D01*
X138781870Y-84671111D01*
X138628734Y-84559851D01*
X138628729Y-84559848D01*
X138455807Y-84482857D01*
X138455802Y-84482855D01*
X138306373Y-84451094D01*
X138270646Y-84443500D01*
X138081354Y-84443500D01*
X138048897Y-84450398D01*
X137896197Y-84482855D01*
X137896192Y-84482857D01*
X137723270Y-84559848D01*
X137723265Y-84559851D01*
X137570129Y-84671111D01*
X137443466Y-84811785D01*
X137348821Y-84975715D01*
X137348817Y-84975724D01*
X137336441Y-85013817D01*
X137297004Y-85071493D01*
X137232646Y-85098692D01*
X137218510Y-85099500D01*
X132085227Y-85099500D01*
X132018188Y-85079815D01*
X131983652Y-85046623D01*
X131848494Y-84853597D01*
X131681402Y-84686506D01*
X131681395Y-84686501D01*
X131676459Y-84683045D01*
X131624347Y-84646555D01*
X131487834Y-84550967D01*
X131487830Y-84550965D01*
X131341772Y-84482857D01*
X131273663Y-84451097D01*
X131273659Y-84451096D01*
X131273655Y-84451094D01*
X131045413Y-84389938D01*
X131045403Y-84389936D01*
X130810001Y-84369341D01*
X130809999Y-84369341D01*
X130574596Y-84389936D01*
X130574586Y-84389938D01*
X130346344Y-84451094D01*
X130346335Y-84451098D01*
X130132171Y-84550964D01*
X130132169Y-84550965D01*
X129938597Y-84686505D01*
X129771505Y-84853597D01*
X129635965Y-85047169D01*
X129635964Y-85047171D01*
X129536098Y-85261335D01*
X129536094Y-85261344D01*
X129474938Y-85489586D01*
X129474936Y-85489596D01*
X129454341Y-85724999D01*
X129454341Y-85725000D01*
X129474936Y-85960403D01*
X129474938Y-85960413D01*
X129536094Y-86188655D01*
X129536096Y-86188659D01*
X129536097Y-86188663D01*
X129582630Y-86288453D01*
X129635965Y-86402830D01*
X129635967Y-86402834D01*
X129713680Y-86513819D01*
X129771501Y-86596396D01*
X129771506Y-86596402D01*
X129938597Y-86763493D01*
X129938603Y-86763498D01*
X130124158Y-86893425D01*
X130167783Y-86948002D01*
X130174977Y-87017500D01*
X130143454Y-87079855D01*
X130124158Y-87096575D01*
X129938597Y-87226505D01*
X129771505Y-87393597D01*
X129635965Y-87587169D01*
X129635964Y-87587171D01*
X129536098Y-87801335D01*
X129536094Y-87801344D01*
X129474938Y-88029586D01*
X129474936Y-88029596D01*
X129454341Y-88264999D01*
X129454341Y-88265000D01*
X125730500Y-88265000D01*
X125730500Y-60960000D01*
X129015540Y-60960000D01*
X129035326Y-61148256D01*
X129035464Y-61148682D01*
X129093818Y-61328277D01*
X129093821Y-61328284D01*
X129188467Y-61492216D01*
X129281016Y-61595002D01*
X129315129Y-61632888D01*
X129468265Y-61744148D01*
X129468270Y-61744151D01*
X129641192Y-61821142D01*
X129641197Y-61821144D01*
X129826354Y-61860500D01*
X129826355Y-61860500D01*
X130015644Y-61860500D01*
X130015646Y-61860500D01*
X130200803Y-61821144D01*
X130373730Y-61744151D01*
X130393755Y-61729602D01*
X130456271Y-61684182D01*
X130522077Y-61660702D01*
X130529156Y-61660500D01*
X131480691Y-61660500D01*
X131547730Y-61680185D01*
X131568372Y-61696819D01*
X132234431Y-62362878D01*
X132117542Y-62413651D01*
X132000261Y-62509066D01*
X131913072Y-62632585D01*
X131882645Y-62718197D01*
X131182564Y-62018116D01*
X131082267Y-62171632D01*
X130982412Y-62399282D01*
X130921387Y-62640261D01*
X130921385Y-62640270D01*
X130900859Y-62887994D01*
X130900859Y-62888005D01*
X130921385Y-63135729D01*
X130921387Y-63135738D01*
X130982412Y-63376717D01*
X131082266Y-63604364D01*
X131182564Y-63757882D01*
X131880070Y-63060376D01*
X131882884Y-63073915D01*
X131952442Y-63208156D01*
X132055638Y-63318652D01*
X132184819Y-63397209D01*
X132236002Y-63411549D01*
X131535942Y-64111609D01*
X131582768Y-64148055D01*
X131582770Y-64148056D01*
X131801385Y-64266364D01*
X131801396Y-64266369D01*
X132036506Y-64347083D01*
X132281707Y-64388000D01*
X132530293Y-64388000D01*
X132775493Y-64347083D01*
X133010603Y-64266369D01*
X133010614Y-64266364D01*
X133229228Y-64148057D01*
X133229231Y-64148055D01*
X133276056Y-64111609D01*
X132577568Y-63413121D01*
X132694458Y-63362349D01*
X132811739Y-63266934D01*
X132898928Y-63143415D01*
X132929354Y-63057802D01*
X133629434Y-63757882D01*
X133729731Y-63604369D01*
X133829587Y-63376717D01*
X133890612Y-63135738D01*
X133890614Y-63135729D01*
X133911141Y-62888005D01*
X133911141Y-62887994D01*
X133890614Y-62640270D01*
X133890612Y-62640261D01*
X133829587Y-62399282D01*
X133729731Y-62171630D01*
X133629434Y-62018116D01*
X132931929Y-62715622D01*
X132929116Y-62702085D01*
X132859558Y-62567844D01*
X132756362Y-62457348D01*
X132627181Y-62378791D01*
X132575997Y-62364450D01*
X133243628Y-61696819D01*
X133304951Y-61663334D01*
X133331309Y-61660500D01*
X135713813Y-61660500D01*
X135780852Y-61680185D01*
X135826607Y-61732989D01*
X135836551Y-61802147D01*
X135807526Y-61865703D01*
X135805043Y-61868483D01*
X135717833Y-61963217D01*
X135581826Y-62171393D01*
X135481936Y-62399118D01*
X135420892Y-62640175D01*
X135420890Y-62640187D01*
X135400357Y-62887994D01*
X135400357Y-62888005D01*
X135420890Y-63135812D01*
X135420892Y-63135824D01*
X135481936Y-63376881D01*
X135581826Y-63604606D01*
X135717833Y-63812782D01*
X135717836Y-63812785D01*
X135886256Y-63995738D01*
X136082491Y-64148474D01*
X136082493Y-64148475D01*
X136300332Y-64266364D01*
X136301190Y-64266828D01*
X136475169Y-64326555D01*
X136534964Y-64347083D01*
X136536386Y-64347571D01*
X136781665Y-64388500D01*
X137030335Y-64388500D01*
X137275614Y-64347571D01*
X137510810Y-64266828D01*
X137729509Y-64148474D01*
X137925744Y-63995738D01*
X138094164Y-63812785D01*
X138230173Y-63604607D01*
X138275949Y-63500248D01*
X138303390Y-63437690D01*
X138348346Y-63384204D01*
X138415082Y-63363514D01*
X138416946Y-63363500D01*
X142720500Y-63363500D01*
X142787539Y-63383185D01*
X142833294Y-63435989D01*
X142844500Y-63487500D01*
X142844500Y-64855250D01*
X142844501Y-64855256D01*
X142850908Y-64914863D01*
X142901202Y-65049708D01*
X142901206Y-65049715D01*
X142987452Y-65164924D01*
X142987455Y-65164927D01*
X143102664Y-65251173D01*
X143102671Y-65251177D01*
X143237517Y-65301471D01*
X143237516Y-65301471D01*
X143244444Y-65302215D01*
X143297127Y-65307880D01*
X144992872Y-65307879D01*
X145052483Y-65301471D01*
X145187331Y-65251176D01*
X145302546Y-65164926D01*
X145388796Y-65049711D01*
X145439091Y-64914863D01*
X145445500Y-64855253D01*
X145445499Y-63487499D01*
X145465184Y-63420461D01*
X145517987Y-63374706D01*
X145569499Y-63363500D01*
X150340500Y-63363500D01*
X150407539Y-63383185D01*
X150453294Y-63435989D01*
X150464500Y-63487500D01*
X150464500Y-64942870D01*
X150464501Y-64942876D01*
X150470908Y-65002483D01*
X150521202Y-65137328D01*
X150521206Y-65137335D01*
X150607452Y-65252544D01*
X150607455Y-65252547D01*
X150722664Y-65338793D01*
X150722671Y-65338797D01*
X150857517Y-65389091D01*
X150857516Y-65389091D01*
X150864444Y-65389835D01*
X150917127Y-65395500D01*
X152612872Y-65395499D01*
X152672483Y-65389091D01*
X152807331Y-65338796D01*
X152922546Y-65252546D01*
X153008796Y-65137331D01*
X153059091Y-65002483D01*
X153065500Y-64942873D01*
X153065499Y-63737242D01*
X153085184Y-63670204D01*
X153137987Y-63624449D01*
X153207146Y-63614505D01*
X153215266Y-63615950D01*
X153321354Y-63638500D01*
X153321355Y-63638500D01*
X153510644Y-63638500D01*
X153510646Y-63638500D01*
X153695803Y-63599144D01*
X153868730Y-63522151D01*
X154021871Y-63410888D01*
X154148533Y-63270216D01*
X154243179Y-63106284D01*
X154301674Y-62926256D01*
X154321460Y-62738000D01*
X154301674Y-62549744D01*
X154243179Y-62369716D01*
X154148533Y-62205784D01*
X154021871Y-62065112D01*
X154021870Y-62065111D01*
X153868734Y-61953851D01*
X153868729Y-61953848D01*
X153695807Y-61876857D01*
X153695802Y-61876855D01*
X153534089Y-61842483D01*
X153510646Y-61837500D01*
X153321354Y-61837500D01*
X153207496Y-61861700D01*
X153137830Y-61856384D01*
X153082097Y-61814246D01*
X153057992Y-61748666D01*
X153058189Y-61729602D01*
X153069966Y-61595000D01*
X153069966Y-61594997D01*
X153050141Y-61368400D01*
X153050139Y-61368389D01*
X152991269Y-61148682D01*
X152991265Y-61148673D01*
X152895133Y-60942516D01*
X152895131Y-60942512D01*
X152844025Y-60869526D01*
X152162953Y-61550598D01*
X152150165Y-61469852D01*
X152092641Y-61356955D01*
X152003045Y-61267359D01*
X151890148Y-61209835D01*
X151809400Y-61197046D01*
X152490472Y-60515974D01*
X152490471Y-60515973D01*
X152417483Y-60464866D01*
X152417481Y-60464865D01*
X152211326Y-60368734D01*
X152211317Y-60368730D01*
X151991610Y-60309860D01*
X151991600Y-60309858D01*
X151982105Y-60309028D01*
X151917037Y-60283575D01*
X151876058Y-60226985D01*
X151872180Y-60157223D01*
X151906634Y-60096438D01*
X151968481Y-60063931D01*
X151992913Y-60061500D01*
X158175548Y-60061500D01*
X158242587Y-60081185D01*
X158263229Y-60097819D01*
X158718181Y-60552771D01*
X158751666Y-60614094D01*
X158754500Y-60640452D01*
X158754500Y-61782870D01*
X158754501Y-61782876D01*
X158760908Y-61842483D01*
X158811202Y-61977328D01*
X158811206Y-61977335D01*
X158897452Y-62092544D01*
X158897455Y-62092547D01*
X159012664Y-62178793D01*
X159012671Y-62178797D01*
X159147517Y-62229091D01*
X159147516Y-62229091D01*
X159154444Y-62229835D01*
X159207127Y-62235500D01*
X159240564Y-62235499D01*
X159307601Y-62255182D01*
X159353357Y-62307984D01*
X159363302Y-62377143D01*
X159334279Y-62440699D01*
X159311689Y-62461073D01*
X159203447Y-62536866D01*
X159203441Y-62536871D01*
X159046868Y-62693444D01*
X158919857Y-62874834D01*
X158919856Y-62874836D01*
X158826279Y-63075513D01*
X158826275Y-63075524D01*
X158768965Y-63289407D01*
X158768964Y-63289414D01*
X158749666Y-63509998D01*
X158749666Y-63510001D01*
X158768964Y-63730585D01*
X158768965Y-63730592D01*
X158826275Y-63944475D01*
X158826279Y-63944486D01*
X158919856Y-64145163D01*
X158919858Y-64145167D01*
X159046868Y-64326555D01*
X159203445Y-64483132D01*
X159384833Y-64610142D01*
X159446828Y-64639050D01*
X159508091Y-64667618D01*
X159560531Y-64713790D01*
X159579683Y-64780983D01*
X159559467Y-64847865D01*
X159508091Y-64892382D01*
X159384836Y-64949856D01*
X159384834Y-64949857D01*
X159203444Y-65076868D01*
X159046868Y-65233444D01*
X158919857Y-65414834D01*
X158919856Y-65414836D01*
X158826279Y-65615513D01*
X158826275Y-65615524D01*
X158768965Y-65829407D01*
X158768964Y-65829414D01*
X158749666Y-66049998D01*
X158749666Y-66050001D01*
X158768964Y-66270585D01*
X158768966Y-66270596D01*
X158789396Y-66346841D01*
X158787733Y-66416691D01*
X158748570Y-66474553D01*
X158684342Y-66502057D01*
X158619185Y-66492213D01*
X158521807Y-66448857D01*
X158521802Y-66448855D01*
X158370477Y-66416691D01*
X158336646Y-66409500D01*
X158147354Y-66409500D01*
X158114897Y-66416398D01*
X157962197Y-66448855D01*
X157962192Y-66448857D01*
X157789270Y-66525848D01*
X157789265Y-66525851D01*
X157636130Y-66637110D01*
X157636126Y-66637114D01*
X157630400Y-66643474D01*
X157570913Y-66680121D01*
X157538252Y-66684500D01*
X133432737Y-66684500D01*
X133417120Y-66682776D01*
X133417093Y-66683062D01*
X133409331Y-66682327D01*
X133340203Y-66684500D01*
X133310650Y-66684500D01*
X133309929Y-66684590D01*
X133303757Y-66685369D01*
X133297945Y-66685826D01*
X133251372Y-66687290D01*
X133251369Y-66687291D01*
X133232126Y-66692881D01*
X133213083Y-66696825D01*
X133193204Y-66699336D01*
X133193203Y-66699337D01*
X133149878Y-66716490D01*
X133144352Y-66718382D01*
X133099608Y-66731383D01*
X133099604Y-66731385D01*
X133082365Y-66741580D01*
X133064898Y-66750137D01*
X133046269Y-66757512D01*
X133046267Y-66757513D01*
X133008564Y-66784906D01*
X133003682Y-66788112D01*
X132963580Y-66811828D01*
X132949408Y-66826000D01*
X132934623Y-66838628D01*
X132918412Y-66850407D01*
X132888709Y-66886310D01*
X132884777Y-66890631D01*
X131265646Y-68509761D01*
X131204323Y-68543246D01*
X131145873Y-68541855D01*
X131045408Y-68514937D01*
X130810001Y-68494341D01*
X130809999Y-68494341D01*
X130574596Y-68514936D01*
X130574586Y-68514938D01*
X130346344Y-68576094D01*
X130346337Y-68576096D01*
X130346337Y-68576097D01*
X130337967Y-68580000D01*
X130132171Y-68675964D01*
X130132169Y-68675965D01*
X129938597Y-68811505D01*
X129771505Y-68978597D01*
X129635965Y-69172169D01*
X129635964Y-69172171D01*
X129536098Y-69386335D01*
X129536094Y-69386344D01*
X129474938Y-69614586D01*
X129474936Y-69614596D01*
X129454341Y-69849999D01*
X129454341Y-69850000D01*
X129474936Y-70085403D01*
X129474938Y-70085413D01*
X129536094Y-70313655D01*
X129536096Y-70313659D01*
X129536097Y-70313663D01*
X129605955Y-70463473D01*
X129635965Y-70527830D01*
X129635967Y-70527834D01*
X129771501Y-70721395D01*
X129771506Y-70721402D01*
X129938597Y-70888493D01*
X129938603Y-70888498D01*
X129968464Y-70909407D01*
X130090492Y-70994852D01*
X130124594Y-71018730D01*
X130168219Y-71073307D01*
X130175413Y-71142805D01*
X130143890Y-71205160D01*
X130124595Y-71221880D01*
X129938922Y-71351890D01*
X129938920Y-71351891D01*
X129771891Y-71518920D01*
X129771886Y-71518926D01*
X129636400Y-71712420D01*
X129636399Y-71712422D01*
X129536570Y-71926507D01*
X129536567Y-71926513D01*
X129479364Y-72139999D01*
X129479364Y-72140000D01*
X130376314Y-72140000D01*
X130350507Y-72180156D01*
X130310000Y-72318111D01*
X130310000Y-72461889D01*
X130350507Y-72599844D01*
X130376314Y-72640000D01*
X129479364Y-72640000D01*
X129536567Y-72853486D01*
X129536570Y-72853492D01*
X129636399Y-73067578D01*
X129771894Y-73261082D01*
X129893946Y-73383134D01*
X129927431Y-73444457D01*
X129922447Y-73514149D01*
X129880575Y-73570082D01*
X129849598Y-73586997D01*
X129717671Y-73636202D01*
X129717664Y-73636206D01*
X129602455Y-73722452D01*
X129602452Y-73722455D01*
X129516206Y-73837664D01*
X129516202Y-73837671D01*
X129465908Y-73972517D01*
X129461100Y-74017244D01*
X129459501Y-74032123D01*
X129459500Y-74032135D01*
X129459500Y-75827870D01*
X129459501Y-75827876D01*
X129465908Y-75887483D01*
X129516202Y-76022328D01*
X129516206Y-76022335D01*
X129602452Y-76137544D01*
X129602455Y-76137547D01*
X129717664Y-76223793D01*
X129717671Y-76223797D01*
X129852517Y-76274091D01*
X129852516Y-76274091D01*
X129859444Y-76274835D01*
X129912127Y-76280500D01*
X131707872Y-76280499D01*
X131767483Y-76274091D01*
X131902331Y-76223796D01*
X132017546Y-76137546D01*
X132103796Y-76022331D01*
X132154091Y-75887483D01*
X132160500Y-75827873D01*
X132160500Y-75679500D01*
X132180185Y-75612461D01*
X132232989Y-75566706D01*
X132284500Y-75555500D01*
X140757403Y-75555500D01*
X140824442Y-75575185D01*
X140870197Y-75627989D01*
X140880141Y-75697147D01*
X140851116Y-75760703D01*
X140828531Y-75781071D01*
X140775496Y-75818205D01*
X140765855Y-75824957D01*
X140604954Y-75985858D01*
X140474432Y-76172265D01*
X140474431Y-76172267D01*
X140378261Y-76378502D01*
X140378258Y-76378511D01*
X140319366Y-76598302D01*
X140319364Y-76598313D01*
X140299532Y-76824998D01*
X140299532Y-76825001D01*
X140319364Y-77051686D01*
X140319366Y-77051697D01*
X140378258Y-77271488D01*
X140378261Y-77271497D01*
X140474431Y-77477732D01*
X140474432Y-77477734D01*
X140604954Y-77664141D01*
X140765858Y-77825045D01*
X140765861Y-77825047D01*
X140952266Y-77955568D01*
X141158504Y-78051739D01*
X141378308Y-78110635D01*
X141540230Y-78124801D01*
X141604998Y-78130468D01*
X141605000Y-78130468D01*
X141605002Y-78130468D01*
X141661673Y-78125509D01*
X141831692Y-78110635D01*
X142051496Y-78051739D01*
X142257734Y-77955568D01*
X142444139Y-77825047D01*
X142605047Y-77664139D01*
X142735568Y-77477734D01*
X142762618Y-77419724D01*
X142808790Y-77367285D01*
X142875983Y-77348133D01*
X142942865Y-77368348D01*
X142987381Y-77419724D01*
X143001517Y-77450038D01*
X143014429Y-77477728D01*
X143014432Y-77477734D01*
X143144954Y-77664141D01*
X143305858Y-77825045D01*
X143305861Y-77825047D01*
X143492266Y-77955568D01*
X143698504Y-78051739D01*
X143918308Y-78110635D01*
X144080230Y-78124801D01*
X144144998Y-78130468D01*
X144145000Y-78130468D01*
X144145002Y-78130468D01*
X144201673Y-78125509D01*
X144371692Y-78110635D01*
X144591496Y-78051739D01*
X144797734Y-77955568D01*
X144984139Y-77825047D01*
X145145047Y-77664139D01*
X145275568Y-77477734D01*
X145302618Y-77419724D01*
X145348790Y-77367285D01*
X145415983Y-77348133D01*
X145482865Y-77368348D01*
X145527381Y-77419724D01*
X145541517Y-77450038D01*
X145554429Y-77477728D01*
X145554432Y-77477734D01*
X145684954Y-77664141D01*
X145845858Y-77825045D01*
X145845861Y-77825047D01*
X146032266Y-77955568D01*
X146238504Y-78051739D01*
X146458308Y-78110635D01*
X146620230Y-78124801D01*
X146684998Y-78130468D01*
X146685000Y-78130468D01*
X146685002Y-78130468D01*
X146741673Y-78125509D01*
X146911692Y-78110635D01*
X147131496Y-78051739D01*
X147337734Y-77955568D01*
X147524139Y-77825047D01*
X147685047Y-77664139D01*
X147815568Y-77477734D01*
X147842618Y-77419724D01*
X147888790Y-77367285D01*
X147955983Y-77348133D01*
X148022865Y-77368348D01*
X148067381Y-77419724D01*
X148081517Y-77450038D01*
X148094429Y-77477728D01*
X148094432Y-77477734D01*
X148224954Y-77664141D01*
X148385858Y-77825045D01*
X148385861Y-77825047D01*
X148572266Y-77955568D01*
X148778504Y-78051739D01*
X148998308Y-78110635D01*
X149160230Y-78124801D01*
X149224998Y-78130468D01*
X149225000Y-78130468D01*
X149225002Y-78130468D01*
X149281673Y-78125509D01*
X149451692Y-78110635D01*
X149671496Y-78051739D01*
X149877734Y-77955568D01*
X150064139Y-77825047D01*
X150225047Y-77664139D01*
X150355568Y-77477734D01*
X150451739Y-77271496D01*
X150510635Y-77051692D01*
X150530468Y-76825000D01*
X150510635Y-76598308D01*
X150454420Y-76388511D01*
X150451741Y-76378511D01*
X150451738Y-76378502D01*
X150406575Y-76281650D01*
X150355568Y-76172266D01*
X150225047Y-75985861D01*
X150225045Y-75985858D01*
X150064144Y-75824957D01*
X150064140Y-75824954D01*
X150064139Y-75824953D01*
X150001471Y-75781073D01*
X149957849Y-75726499D01*
X149950655Y-75657001D01*
X149982177Y-75594646D01*
X150042407Y-75559231D01*
X150072597Y-75555500D01*
X158734233Y-75555500D01*
X158801272Y-75575185D01*
X158847027Y-75627989D01*
X158856971Y-75697147D01*
X158846615Y-75731904D01*
X158826279Y-75775513D01*
X158826275Y-75775524D01*
X158768965Y-75989407D01*
X158768964Y-75989414D01*
X158749666Y-76209998D01*
X158749666Y-76210001D01*
X158768964Y-76430585D01*
X158768965Y-76430592D01*
X158826275Y-76644475D01*
X158826279Y-76644486D01*
X158919740Y-76844915D01*
X158919858Y-76845167D01*
X159046868Y-77026555D01*
X159203445Y-77183132D01*
X159384833Y-77310142D01*
X159446828Y-77339050D01*
X159508091Y-77367618D01*
X159560531Y-77413790D01*
X159579683Y-77480983D01*
X159559467Y-77547865D01*
X159508091Y-77592382D01*
X159384836Y-77649856D01*
X159384834Y-77649857D01*
X159203444Y-77776868D01*
X159046868Y-77933444D01*
X158919857Y-78114834D01*
X158919856Y-78114836D01*
X158826279Y-78315513D01*
X158826275Y-78315524D01*
X158768965Y-78529407D01*
X158768964Y-78529414D01*
X158749666Y-78749998D01*
X158749666Y-78750001D01*
X158768964Y-78970585D01*
X158768965Y-78970592D01*
X158826275Y-79184475D01*
X158826276Y-79184477D01*
X158826277Y-79184480D01*
X158827218Y-79186497D01*
X158837289Y-79208095D01*
X158847781Y-79277173D01*
X158819261Y-79340957D01*
X158760785Y-79379196D01*
X158724907Y-79384500D01*
X158174049Y-79384500D01*
X158107010Y-79364815D01*
X158061255Y-79312011D01*
X158051311Y-79242853D01*
X158061667Y-79208095D01*
X158071739Y-79186496D01*
X158130635Y-78966692D01*
X158150468Y-78740000D01*
X158148916Y-78722266D01*
X158132608Y-78535861D01*
X158130635Y-78513308D01*
X158071739Y-78293504D01*
X157975568Y-78087266D01*
X157845047Y-77900861D01*
X157845045Y-77900858D01*
X157684141Y-77739954D01*
X157497734Y-77609432D01*
X157497732Y-77609431D01*
X157291497Y-77513261D01*
X157291488Y-77513258D01*
X157071697Y-77454366D01*
X157071693Y-77454365D01*
X157071692Y-77454365D01*
X157071691Y-77454364D01*
X157071686Y-77454364D01*
X156845002Y-77434532D01*
X156844998Y-77434532D01*
X156618313Y-77454364D01*
X156618302Y-77454366D01*
X156398511Y-77513258D01*
X156398502Y-77513261D01*
X156192267Y-77609431D01*
X156192265Y-77609432D01*
X156005858Y-77739954D01*
X155844954Y-77900858D01*
X155714432Y-78087265D01*
X155714431Y-78087267D01*
X155618261Y-78293502D01*
X155618258Y-78293511D01*
X155559366Y-78513302D01*
X155559364Y-78513313D01*
X155539532Y-78739998D01*
X155539532Y-78740001D01*
X155559364Y-78966686D01*
X155559366Y-78966697D01*
X155618258Y-79186488D01*
X155618260Y-79186492D01*
X155618261Y-79186496D01*
X155628333Y-79208095D01*
X155638825Y-79277173D01*
X155610305Y-79340957D01*
X155551829Y-79379196D01*
X155515951Y-79384500D01*
X154119748Y-79384500D01*
X154052709Y-79364815D01*
X154027600Y-79343474D01*
X154021873Y-79337114D01*
X154021869Y-79337110D01*
X153868734Y-79225851D01*
X153868729Y-79225848D01*
X153695807Y-79148857D01*
X153695802Y-79148855D01*
X153550001Y-79117865D01*
X153510646Y-79109500D01*
X153321354Y-79109500D01*
X153288897Y-79116398D01*
X153136197Y-79148855D01*
X153136192Y-79148857D01*
X152963270Y-79225848D01*
X152963265Y-79225851D01*
X152810129Y-79337111D01*
X152683466Y-79477785D01*
X152588821Y-79641715D01*
X152588818Y-79641722D01*
X152530327Y-79821740D01*
X152530326Y-79821744D01*
X152510540Y-80010000D01*
X152530326Y-80198256D01*
X152530327Y-80198259D01*
X152588818Y-80378277D01*
X152588821Y-80378284D01*
X152683467Y-80542216D01*
X152777995Y-80647200D01*
X152810129Y-80682888D01*
X152963265Y-80794148D01*
X152963270Y-80794151D01*
X153136192Y-80871142D01*
X153136197Y-80871144D01*
X153321354Y-80910500D01*
X153321355Y-80910500D01*
X153510644Y-80910500D01*
X153510646Y-80910500D01*
X153695803Y-80871144D01*
X153868730Y-80794151D01*
X154021871Y-80682888D01*
X154025333Y-80679043D01*
X154027600Y-80676526D01*
X154087087Y-80639879D01*
X154119748Y-80635500D01*
X155515951Y-80635500D01*
X155582990Y-80655185D01*
X155628745Y-80707989D01*
X155638689Y-80777147D01*
X155628333Y-80811905D01*
X155618262Y-80833502D01*
X155618258Y-80833511D01*
X155559366Y-81053302D01*
X155559364Y-81053313D01*
X155539532Y-81279998D01*
X155539532Y-81280001D01*
X155559364Y-81506686D01*
X155559366Y-81506697D01*
X155618258Y-81726488D01*
X155618260Y-81726492D01*
X155618261Y-81726496D01*
X155628333Y-81748095D01*
X155638825Y-81817173D01*
X155610305Y-81880957D01*
X155551829Y-81919196D01*
X155515951Y-81924500D01*
X136398499Y-81924500D01*
X136331460Y-81904815D01*
X136285705Y-81852011D01*
X136274499Y-81800500D01*
X136274499Y-81475129D01*
X136274498Y-81475123D01*
X136274497Y-81475116D01*
X136268091Y-81415517D01*
X136231566Y-81317589D01*
X136217797Y-81280671D01*
X136217793Y-81280664D01*
X136131547Y-81165455D01*
X136131544Y-81165452D01*
X136016335Y-81079206D01*
X136016328Y-81079202D01*
X135936094Y-81049277D01*
X135880160Y-81007406D01*
X135855743Y-80941941D01*
X135870595Y-80873668D01*
X135888190Y-80849121D01*
X135982979Y-80746153D01*
X136109924Y-80551849D01*
X136203157Y-80339300D01*
X136260134Y-80114305D01*
X136266838Y-80033403D01*
X136279300Y-79883006D01*
X136279300Y-79882993D01*
X136260135Y-79651702D01*
X136260133Y-79651691D01*
X136203157Y-79426699D01*
X136109924Y-79214151D01*
X135982983Y-79019852D01*
X135982980Y-79019849D01*
X135982979Y-79019847D01*
X135825784Y-78849087D01*
X135825779Y-78849083D01*
X135825777Y-78849081D01*
X135642634Y-78706535D01*
X135642628Y-78706531D01*
X135438504Y-78596064D01*
X135438495Y-78596061D01*
X135218984Y-78520702D01*
X135047282Y-78492050D01*
X134990049Y-78482500D01*
X134757951Y-78482500D01*
X134712164Y-78490140D01*
X134529015Y-78520702D01*
X134309504Y-78596061D01*
X134309495Y-78596064D01*
X134105371Y-78706531D01*
X134105365Y-78706535D01*
X133922222Y-78849081D01*
X133922219Y-78849084D01*
X133765016Y-79019852D01*
X133638075Y-79214151D01*
X133544842Y-79426699D01*
X133487866Y-79651691D01*
X133487864Y-79651702D01*
X133468700Y-79882993D01*
X133468700Y-79883006D01*
X133487864Y-80114297D01*
X133487866Y-80114308D01*
X133544842Y-80339300D01*
X133638075Y-80551848D01*
X133765016Y-80746147D01*
X133765019Y-80746151D01*
X133765021Y-80746153D01*
X133859803Y-80849114D01*
X133890724Y-80911767D01*
X133882864Y-80981193D01*
X133838716Y-81035348D01*
X133811906Y-81049277D01*
X133731669Y-81079203D01*
X133731664Y-81079206D01*
X133616455Y-81165452D01*
X133616452Y-81165455D01*
X133530206Y-81280664D01*
X133530202Y-81280671D01*
X133479908Y-81415517D01*
X133473756Y-81472744D01*
X133473501Y-81475123D01*
X133473500Y-81475135D01*
X133473500Y-83370870D01*
X133473501Y-83370876D01*
X133479908Y-83430483D01*
X133530202Y-83565328D01*
X133530206Y-83565335D01*
X133616452Y-83680544D01*
X133616455Y-83680547D01*
X133731664Y-83766793D01*
X133731671Y-83766797D01*
X133866517Y-83817091D01*
X133866516Y-83817091D01*
X133873444Y-83817835D01*
X133926127Y-83823500D01*
X135821872Y-83823499D01*
X135881483Y-83817091D01*
X136016331Y-83766796D01*
X136131546Y-83680546D01*
X136217796Y-83565331D01*
X136268091Y-83430483D01*
X136274500Y-83370873D01*
X136274500Y-83299500D01*
X136294185Y-83232461D01*
X136346989Y-83186706D01*
X136398500Y-83175500D01*
X140283540Y-83175500D01*
X140350579Y-83195185D01*
X140396334Y-83247989D01*
X140406278Y-83317147D01*
X140382807Y-83373811D01*
X140361204Y-83402668D01*
X140361202Y-83402671D01*
X140310908Y-83537517D01*
X140304501Y-83597116D01*
X140304500Y-83597135D01*
X140304500Y-85292870D01*
X140304501Y-85292876D01*
X140310908Y-85352483D01*
X140361202Y-85487328D01*
X140361206Y-85487335D01*
X140447452Y-85602544D01*
X140447455Y-85602547D01*
X140562664Y-85688793D01*
X140562671Y-85688797D01*
X140697517Y-85739091D01*
X140697516Y-85739091D01*
X140704444Y-85739835D01*
X140757127Y-85745500D01*
X142452872Y-85745499D01*
X142512483Y-85739091D01*
X142647331Y-85688796D01*
X142762546Y-85602546D01*
X142848796Y-85487331D01*
X142873943Y-85419907D01*
X142899090Y-85352486D01*
X142899090Y-85352485D01*
X142899091Y-85352483D01*
X142902944Y-85316644D01*
X142929679Y-85252098D01*
X142987070Y-85212248D01*
X143056895Y-85209753D01*
X143116985Y-85245404D01*
X143127806Y-85258777D01*
X143145341Y-85283819D01*
X143306179Y-85444657D01*
X143492517Y-85575134D01*
X143698673Y-85671265D01*
X143698682Y-85671269D01*
X143894999Y-85723872D01*
X143895000Y-85723871D01*
X143895000Y-84760686D01*
X143906955Y-84772641D01*
X144019852Y-84830165D01*
X144113519Y-84845000D01*
X144176481Y-84845000D01*
X144270148Y-84830165D01*
X144383045Y-84772641D01*
X144395000Y-84760686D01*
X144395000Y-85723872D01*
X144591317Y-85671269D01*
X144591326Y-85671265D01*
X144797482Y-85575134D01*
X144983820Y-85444657D01*
X145144657Y-85283820D01*
X145275132Y-85097484D01*
X145302341Y-85039134D01*
X145348513Y-84986695D01*
X145415707Y-84967542D01*
X145482588Y-84987757D01*
X145527105Y-85039132D01*
X145530853Y-85047169D01*
X145554431Y-85097732D01*
X145554432Y-85097734D01*
X145684954Y-85284141D01*
X145845858Y-85445045D01*
X145845861Y-85445047D01*
X146032266Y-85575568D01*
X146238504Y-85671739D01*
X146458308Y-85730635D01*
X146620230Y-85744801D01*
X146684998Y-85750468D01*
X146685000Y-85750468D01*
X146685002Y-85750468D01*
X146741807Y-85745498D01*
X146911692Y-85730635D01*
X147131496Y-85671739D01*
X147337734Y-85575568D01*
X147524139Y-85445047D01*
X147685047Y-85284139D01*
X147815568Y-85097734D01*
X147842895Y-85039129D01*
X147889064Y-84986695D01*
X147956257Y-84967542D01*
X148023139Y-84987757D01*
X148067657Y-85039133D01*
X148094865Y-85097482D01*
X148225342Y-85283820D01*
X148386179Y-85444657D01*
X148572517Y-85575134D01*
X148778673Y-85671265D01*
X148778682Y-85671269D01*
X148974999Y-85723872D01*
X148975000Y-85723871D01*
X148975000Y-84760686D01*
X148986955Y-84772641D01*
X149099852Y-84830165D01*
X149193519Y-84845000D01*
X149256481Y-84845000D01*
X149350148Y-84830165D01*
X149463045Y-84772641D01*
X149475000Y-84760686D01*
X149475000Y-85723872D01*
X149671317Y-85671269D01*
X149671326Y-85671265D01*
X149877482Y-85575134D01*
X150063820Y-85444657D01*
X150224657Y-85283820D01*
X150355134Y-85097482D01*
X150451265Y-84891326D01*
X150451269Y-84891317D01*
X150503872Y-84695000D01*
X149540686Y-84695000D01*
X149552641Y-84683045D01*
X149610165Y-84570148D01*
X149629986Y-84445000D01*
X149610165Y-84319852D01*
X149552641Y-84206955D01*
X149540686Y-84195000D01*
X150503872Y-84195000D01*
X150503872Y-84194999D01*
X150451269Y-83998682D01*
X150451265Y-83998673D01*
X150355134Y-83792517D01*
X150224657Y-83606179D01*
X150063816Y-83445338D01*
X150000601Y-83401074D01*
X149956976Y-83346497D01*
X149949784Y-83276999D01*
X149981307Y-83214644D01*
X150041537Y-83179231D01*
X150071725Y-83175500D01*
X158734233Y-83175500D01*
X158801272Y-83195185D01*
X158847027Y-83247989D01*
X158856971Y-83317147D01*
X158846615Y-83351904D01*
X158826279Y-83395513D01*
X158826275Y-83395524D01*
X158768965Y-83609407D01*
X158768964Y-83609414D01*
X158749666Y-83829998D01*
X158749666Y-83830001D01*
X158768964Y-84050585D01*
X158768965Y-84050592D01*
X158826275Y-84264475D01*
X158826279Y-84264486D01*
X158919856Y-84465163D01*
X158919858Y-84465167D01*
X159046868Y-84646555D01*
X159203445Y-84803132D01*
X159384833Y-84930142D01*
X159430636Y-84951500D01*
X159508091Y-84987618D01*
X159560531Y-85033790D01*
X159579683Y-85100983D01*
X159559467Y-85167865D01*
X159508091Y-85212382D01*
X159384836Y-85269856D01*
X159384834Y-85269857D01*
X159203444Y-85396868D01*
X159046868Y-85553444D01*
X158919857Y-85734834D01*
X158919856Y-85734836D01*
X158826279Y-85935513D01*
X158826275Y-85935524D01*
X158768965Y-86149407D01*
X158768964Y-86149414D01*
X158749666Y-86369998D01*
X158749666Y-86370001D01*
X158768964Y-86590585D01*
X158768965Y-86590592D01*
X158826275Y-86804475D01*
X158826279Y-86804486D01*
X158906848Y-86977267D01*
X158919858Y-87005167D01*
X159046868Y-87186555D01*
X159203445Y-87343132D01*
X159384833Y-87470142D01*
X159446828Y-87499050D01*
X159508091Y-87527618D01*
X159560531Y-87573790D01*
X159579683Y-87640983D01*
X159559467Y-87707865D01*
X159508091Y-87752382D01*
X159384836Y-87809856D01*
X159384834Y-87809857D01*
X159203444Y-87936868D01*
X159046868Y-88093444D01*
X158919857Y-88274834D01*
X158919856Y-88274836D01*
X158826279Y-88475513D01*
X158826275Y-88475524D01*
X158768965Y-88689407D01*
X158768964Y-88689414D01*
X158749666Y-88909998D01*
X158749666Y-88910001D01*
X158768964Y-89130585D01*
X158768965Y-89130592D01*
X158826275Y-89344475D01*
X158826279Y-89344486D01*
X158904767Y-89512804D01*
X158919858Y-89545167D01*
X159046868Y-89726555D01*
X159203445Y-89883132D01*
X159384833Y-90010142D01*
X159428635Y-90030567D01*
X159508091Y-90067618D01*
X159560531Y-90113790D01*
X159579683Y-90180983D01*
X159559467Y-90247865D01*
X159508091Y-90292382D01*
X159384836Y-90349856D01*
X159384834Y-90349857D01*
X159203444Y-90476868D01*
X159046868Y-90633444D01*
X158919857Y-90814834D01*
X158919856Y-90814836D01*
X158826279Y-91015513D01*
X158826275Y-91015524D01*
X158768965Y-91229407D01*
X158768964Y-91229414D01*
X158749666Y-91449998D01*
X158749666Y-91450001D01*
X158768964Y-91670585D01*
X158768965Y-91670592D01*
X158826275Y-91884475D01*
X158826276Y-91884479D01*
X158826277Y-91884480D01*
X158826278Y-91884482D01*
X158838582Y-91910869D01*
X158849073Y-91979947D01*
X158820552Y-92043730D01*
X158762075Y-92081969D01*
X158730102Y-92087211D01*
X158727574Y-92087290D01*
X158727572Y-92087290D01*
X158708329Y-92092881D01*
X158689279Y-92096825D01*
X158669411Y-92099334D01*
X158669409Y-92099335D01*
X158626084Y-92116488D01*
X158620557Y-92118380D01*
X158575810Y-92131381D01*
X158575809Y-92131382D01*
X158558567Y-92141579D01*
X158541099Y-92150137D01*
X158522469Y-92157513D01*
X158522467Y-92157514D01*
X158484776Y-92184898D01*
X158479894Y-92188105D01*
X158439779Y-92211830D01*
X158425608Y-92226000D01*
X158410823Y-92238628D01*
X158394612Y-92250407D01*
X158364909Y-92286310D01*
X158360976Y-92290631D01*
X157831024Y-92820585D01*
X157333428Y-93318181D01*
X157272105Y-93351666D01*
X157245747Y-93354500D01*
X151383125Y-93354500D01*
X151316086Y-93334815D01*
X151270331Y-93282011D01*
X151260387Y-93212853D01*
X151270743Y-93178096D01*
X151321398Y-93069464D01*
X151321403Y-93069450D01*
X151379367Y-92853124D01*
X151379369Y-92853113D01*
X151398889Y-92630002D01*
X151398889Y-92629997D01*
X151379369Y-92406886D01*
X151379367Y-92406875D01*
X151321403Y-92190549D01*
X151321399Y-92190540D01*
X151226746Y-91987556D01*
X151178664Y-91918887D01*
X150597076Y-92500474D01*
X150573493Y-92420156D01*
X150495761Y-92299202D01*
X150387100Y-92205048D01*
X150256315Y-92145320D01*
X150246533Y-92143913D01*
X150825111Y-91565334D01*
X150756444Y-91517253D01*
X150553459Y-91422600D01*
X150553450Y-91422596D01*
X150337124Y-91364632D01*
X150337113Y-91364630D01*
X150114002Y-91345111D01*
X150113998Y-91345111D01*
X149890886Y-91364630D01*
X149890875Y-91364632D01*
X149674549Y-91422596D01*
X149674540Y-91422600D01*
X149471552Y-91517255D01*
X149402888Y-91565333D01*
X149402887Y-91565334D01*
X149981467Y-92143913D01*
X149971685Y-92145320D01*
X149840900Y-92205048D01*
X149732239Y-92299202D01*
X149654507Y-92420156D01*
X149630923Y-92500476D01*
X149049334Y-91918887D01*
X149049333Y-91918888D01*
X149001255Y-91987552D01*
X148906600Y-92190540D01*
X148906596Y-92190549D01*
X148848632Y-92406875D01*
X148848630Y-92406886D01*
X148829111Y-92629997D01*
X148829111Y-92630002D01*
X148848630Y-92853113D01*
X148848632Y-92853124D01*
X148906596Y-93069450D01*
X148906601Y-93069464D01*
X148957257Y-93178096D01*
X148967749Y-93247173D01*
X148939229Y-93310957D01*
X148880752Y-93349196D01*
X148844875Y-93354500D01*
X137343452Y-93354500D01*
X137276413Y-93334815D01*
X137255771Y-93318181D01*
X136310818Y-92373228D01*
X136277333Y-92311905D01*
X136274499Y-92285547D01*
X136274499Y-90873129D01*
X136274498Y-90873123D01*
X136274497Y-90873116D01*
X136268233Y-90814834D01*
X136268091Y-90813516D01*
X136217797Y-90678671D01*
X136217793Y-90678664D01*
X136131547Y-90563455D01*
X136131544Y-90563452D01*
X136016335Y-90477206D01*
X136016328Y-90477202D01*
X135936094Y-90447277D01*
X135880160Y-90405406D01*
X135855743Y-90339941D01*
X135870595Y-90271668D01*
X135888190Y-90247121D01*
X135982979Y-90144153D01*
X135992225Y-90130001D01*
X143828609Y-90130001D01*
X143848136Y-90353200D01*
X143848137Y-90353208D01*
X143906126Y-90569625D01*
X143906127Y-90569627D01*
X143906128Y-90569630D01*
X143987623Y-90744397D01*
X144000819Y-90772696D01*
X144000821Y-90772700D01*
X144129329Y-90956228D01*
X144129334Y-90956234D01*
X144287765Y-91114665D01*
X144287771Y-91114670D01*
X144471299Y-91243178D01*
X144471301Y-91243179D01*
X144471304Y-91243181D01*
X144674370Y-91337872D01*
X144890794Y-91395863D01*
X145050226Y-91409811D01*
X145113998Y-91415391D01*
X145114000Y-91415391D01*
X145114002Y-91415391D01*
X145169801Y-91410509D01*
X145337206Y-91395863D01*
X145553630Y-91337872D01*
X145756696Y-91243181D01*
X145940233Y-91114667D01*
X146098667Y-90956233D01*
X146202197Y-90808377D01*
X146256774Y-90764752D01*
X146303772Y-90755500D01*
X152712857Y-90755500D01*
X152728477Y-90757224D01*
X152728504Y-90756939D01*
X152736260Y-90757671D01*
X152736267Y-90757673D01*
X152805414Y-90755500D01*
X152834950Y-90755500D01*
X152841828Y-90754630D01*
X152847641Y-90754172D01*
X152894227Y-90752709D01*
X152913469Y-90747117D01*
X152932512Y-90743174D01*
X152952392Y-90740664D01*
X152995722Y-90723507D01*
X153001246Y-90721617D01*
X153004996Y-90720527D01*
X153045990Y-90708618D01*
X153063229Y-90698422D01*
X153080703Y-90689862D01*
X153099327Y-90682488D01*
X153099327Y-90682487D01*
X153099332Y-90682486D01*
X153137049Y-90655082D01*
X153141905Y-90651892D01*
X153182020Y-90628170D01*
X153196189Y-90613999D01*
X153210979Y-90601368D01*
X153227187Y-90589594D01*
X153256899Y-90553676D01*
X153260812Y-90549376D01*
X153617771Y-90192419D01*
X153679094Y-90158934D01*
X153705452Y-90156100D01*
X153764644Y-90156100D01*
X153764646Y-90156100D01*
X153949803Y-90116744D01*
X154122730Y-90039751D01*
X154275871Y-89928488D01*
X154402533Y-89787816D01*
X154497179Y-89623884D01*
X154555674Y-89443856D01*
X154575460Y-89255600D01*
X154555674Y-89067344D01*
X154497179Y-88887316D01*
X154451659Y-88808473D01*
X154435187Y-88740576D01*
X154458039Y-88674549D01*
X154487925Y-88644900D01*
X154509139Y-88630047D01*
X154670047Y-88469139D01*
X154782613Y-88308377D01*
X154837189Y-88264752D01*
X154884188Y-88255500D01*
X155264548Y-88255500D01*
X155331587Y-88275185D01*
X155352229Y-88291819D01*
X155545586Y-88485177D01*
X155579071Y-88546500D01*
X155577680Y-88604949D01*
X155559367Y-88673296D01*
X155559364Y-88673313D01*
X155539532Y-88899999D01*
X155539532Y-88900001D01*
X155559364Y-89126686D01*
X155559366Y-89126697D01*
X155618258Y-89346488D01*
X155618261Y-89346497D01*
X155714431Y-89552732D01*
X155714432Y-89552734D01*
X155844954Y-89739141D01*
X156005858Y-89900045D01*
X156015497Y-89906794D01*
X156192266Y-90030568D01*
X156398504Y-90126739D01*
X156398509Y-90126740D01*
X156398511Y-90126741D01*
X156410674Y-90130000D01*
X156618308Y-90185635D01*
X156780230Y-90199801D01*
X156844998Y-90205468D01*
X156845000Y-90205468D01*
X156845002Y-90205468D01*
X156901673Y-90200509D01*
X157071692Y-90185635D01*
X157291496Y-90126739D01*
X157497734Y-90030568D01*
X157684139Y-89900047D01*
X157845047Y-89739139D01*
X157975568Y-89552734D01*
X158071739Y-89346496D01*
X158130635Y-89126692D01*
X158148532Y-88922126D01*
X158150468Y-88900001D01*
X158150468Y-88899998D01*
X158138880Y-88767546D01*
X158130635Y-88673308D01*
X158072912Y-88457883D01*
X158071741Y-88453511D01*
X158071738Y-88453502D01*
X158005969Y-88312461D01*
X157975568Y-88247266D01*
X157845047Y-88060861D01*
X157845045Y-88060858D01*
X157684141Y-87899954D01*
X157497734Y-87769432D01*
X157497732Y-87769431D01*
X157291497Y-87673261D01*
X157291488Y-87673258D01*
X157071697Y-87614366D01*
X157071693Y-87614365D01*
X157071692Y-87614365D01*
X157071691Y-87614364D01*
X157071686Y-87614364D01*
X156845002Y-87594532D01*
X156844999Y-87594532D01*
X156618313Y-87614364D01*
X156618296Y-87614367D01*
X156549949Y-87632680D01*
X156480099Y-87631016D01*
X156430177Y-87600586D01*
X156075803Y-87246212D01*
X156065980Y-87233950D01*
X156065759Y-87234134D01*
X156060786Y-87228123D01*
X156059059Y-87226501D01*
X156010364Y-87180773D01*
X155999919Y-87170328D01*
X155989475Y-87159883D01*
X155983986Y-87155625D01*
X155979561Y-87151847D01*
X155945582Y-87119938D01*
X155945580Y-87119936D01*
X155945577Y-87119935D01*
X155928029Y-87110288D01*
X155911763Y-87099604D01*
X155895933Y-87087325D01*
X155853168Y-87068818D01*
X155847922Y-87066248D01*
X155807093Y-87043803D01*
X155807092Y-87043802D01*
X155787693Y-87038822D01*
X155769281Y-87032518D01*
X155750898Y-87024562D01*
X155750892Y-87024560D01*
X155704874Y-87017272D01*
X155699152Y-87016087D01*
X155654021Y-87004500D01*
X155654019Y-87004500D01*
X155633984Y-87004500D01*
X155614586Y-87002973D01*
X155607162Y-87001797D01*
X155594805Y-86999840D01*
X155594804Y-86999840D01*
X155548416Y-87004225D01*
X155542578Y-87004500D01*
X154884188Y-87004500D01*
X154817149Y-86984815D01*
X154782613Y-86951623D01*
X154670045Y-86790858D01*
X154509141Y-86629954D01*
X154322734Y-86499432D01*
X154322732Y-86499431D01*
X154116497Y-86403261D01*
X154116488Y-86403258D01*
X153896697Y-86344366D01*
X153896693Y-86344365D01*
X153896692Y-86344365D01*
X153896691Y-86344364D01*
X153896686Y-86344364D01*
X153670002Y-86324532D01*
X153669998Y-86324532D01*
X153443313Y-86344364D01*
X153443302Y-86344366D01*
X153223511Y-86403258D01*
X153223502Y-86403261D01*
X153017267Y-86499431D01*
X153017265Y-86499432D01*
X152830858Y-86629954D01*
X152669954Y-86790858D01*
X152557387Y-86951623D01*
X152502811Y-86995248D01*
X152455812Y-87004500D01*
X151518499Y-87004500D01*
X151451460Y-86984815D01*
X151405705Y-86932011D01*
X151394499Y-86880500D01*
X151394499Y-86802129D01*
X151394498Y-86802123D01*
X151394497Y-86802116D01*
X151388091Y-86742517D01*
X151346107Y-86629953D01*
X151337797Y-86607671D01*
X151337793Y-86607664D01*
X151251547Y-86492455D01*
X151251544Y-86492452D01*
X151136335Y-86406206D01*
X151136328Y-86406202D01*
X151001482Y-86355908D01*
X151001483Y-86355908D01*
X150941883Y-86349501D01*
X150941881Y-86349500D01*
X150941873Y-86349500D01*
X150941864Y-86349500D01*
X149286129Y-86349500D01*
X149286123Y-86349501D01*
X149226516Y-86355908D01*
X149091671Y-86406202D01*
X149091664Y-86406206D01*
X148976455Y-86492452D01*
X148976452Y-86492455D01*
X148890206Y-86607664D01*
X148890202Y-86607671D01*
X148839908Y-86742517D01*
X148834711Y-86790861D01*
X148833501Y-86802123D01*
X148833500Y-86802135D01*
X148833500Y-88457870D01*
X148833501Y-88457876D01*
X148839908Y-88517483D01*
X148890202Y-88652328D01*
X148890206Y-88652335D01*
X148976452Y-88767544D01*
X148976455Y-88767547D01*
X149091664Y-88853793D01*
X149091671Y-88853797D01*
X149226517Y-88904091D01*
X149226516Y-88904091D01*
X149233444Y-88904835D01*
X149286127Y-88910500D01*
X150941872Y-88910499D01*
X151001483Y-88904091D01*
X151136331Y-88853796D01*
X151251546Y-88767546D01*
X151337796Y-88652331D01*
X151388091Y-88517483D01*
X151394500Y-88457873D01*
X151394500Y-88379500D01*
X151414185Y-88312461D01*
X151466989Y-88266706D01*
X151518500Y-88255500D01*
X152455812Y-88255500D01*
X152522851Y-88275185D01*
X152557387Y-88308377D01*
X152669954Y-88469141D01*
X152830857Y-88630044D01*
X152830860Y-88630046D01*
X152830861Y-88630047D01*
X152852072Y-88644899D01*
X152852074Y-88644900D01*
X152895700Y-88699476D01*
X152902894Y-88768974D01*
X152888339Y-88808475D01*
X152842823Y-88887310D01*
X152842818Y-88887322D01*
X152790058Y-89049702D01*
X152784326Y-89067344D01*
X152766679Y-89235250D01*
X152740094Y-89299864D01*
X152731047Y-89309960D01*
X152572826Y-89468182D01*
X152511505Y-89501666D01*
X152485147Y-89504500D01*
X146303771Y-89504500D01*
X146236732Y-89484815D01*
X146202196Y-89451623D01*
X146189667Y-89433730D01*
X146128586Y-89346496D01*
X146098668Y-89303768D01*
X146030150Y-89235250D01*
X145940233Y-89145333D01*
X145940229Y-89145330D01*
X145940228Y-89145329D01*
X145756700Y-89016821D01*
X145756696Y-89016819D01*
X145756694Y-89016818D01*
X145553630Y-88922128D01*
X145553627Y-88922127D01*
X145553625Y-88922126D01*
X145337208Y-88864137D01*
X145337200Y-88864136D01*
X145114002Y-88844609D01*
X145113998Y-88844609D01*
X144890799Y-88864136D01*
X144890791Y-88864137D01*
X144674374Y-88922126D01*
X144674368Y-88922129D01*
X144471306Y-89016818D01*
X144471304Y-89016819D01*
X144287764Y-89145334D01*
X144129334Y-89303764D01*
X144000819Y-89487304D01*
X144000818Y-89487306D01*
X143906129Y-89690368D01*
X143906126Y-89690374D01*
X143848137Y-89906791D01*
X143848136Y-89906799D01*
X143828609Y-90129998D01*
X143828609Y-90130001D01*
X135992225Y-90130001D01*
X136109924Y-89949849D01*
X136203157Y-89737300D01*
X136260134Y-89512305D01*
X136261838Y-89491739D01*
X136279300Y-89281006D01*
X136279300Y-89280993D01*
X136260135Y-89049702D01*
X136260133Y-89049691D01*
X136203157Y-88824699D01*
X136109924Y-88612151D01*
X135982983Y-88417852D01*
X135982980Y-88417849D01*
X135982979Y-88417847D01*
X135825784Y-88247087D01*
X135825779Y-88247083D01*
X135825777Y-88247081D01*
X135642634Y-88104535D01*
X135642628Y-88104531D01*
X135438504Y-87994064D01*
X135438495Y-87994061D01*
X135218984Y-87918702D01*
X135047282Y-87890050D01*
X134990049Y-87880500D01*
X134757951Y-87880500D01*
X134712164Y-87888140D01*
X134529015Y-87918702D01*
X134309504Y-87994061D01*
X134309495Y-87994064D01*
X134105371Y-88104531D01*
X134105365Y-88104535D01*
X133922222Y-88247081D01*
X133922219Y-88247084D01*
X133922216Y-88247086D01*
X133922216Y-88247087D01*
X133865795Y-88308377D01*
X133765016Y-88417852D01*
X133638075Y-88612151D01*
X133544842Y-88824699D01*
X133487866Y-89049691D01*
X133487864Y-89049702D01*
X133468700Y-89280993D01*
X133468700Y-89281006D01*
X133487864Y-89512297D01*
X133487866Y-89512308D01*
X133544842Y-89737300D01*
X133638075Y-89949848D01*
X133765016Y-90144147D01*
X133765019Y-90144151D01*
X133765021Y-90144153D01*
X133859803Y-90247114D01*
X133890724Y-90309767D01*
X133882864Y-90379193D01*
X133838716Y-90433348D01*
X133811906Y-90447277D01*
X133731669Y-90477203D01*
X133731664Y-90477206D01*
X133616455Y-90563452D01*
X133616452Y-90563455D01*
X133530206Y-90678664D01*
X133530202Y-90678671D01*
X133479908Y-90813517D01*
X133473501Y-90873116D01*
X133473501Y-90873123D01*
X133473500Y-90873135D01*
X133473500Y-92768870D01*
X133473501Y-92768876D01*
X133479908Y-92828483D01*
X133530202Y-92963328D01*
X133530206Y-92963335D01*
X133616452Y-93078544D01*
X133616455Y-93078547D01*
X133731664Y-93164793D01*
X133731671Y-93164797D01*
X133866517Y-93215091D01*
X133866516Y-93215091D01*
X133873444Y-93215835D01*
X133926127Y-93221500D01*
X135338546Y-93221499D01*
X135405585Y-93241184D01*
X135426227Y-93257818D01*
X136532197Y-94363788D01*
X136542022Y-94376051D01*
X136542243Y-94375869D01*
X136547214Y-94381878D01*
X136568043Y-94401437D01*
X136597635Y-94429226D01*
X136618529Y-94450120D01*
X136624011Y-94454373D01*
X136628443Y-94458157D01*
X136662418Y-94490062D01*
X136679976Y-94499714D01*
X136696235Y-94510395D01*
X136712064Y-94522673D01*
X136754838Y-94541182D01*
X136760056Y-94543738D01*
X136800908Y-94566197D01*
X136820316Y-94571180D01*
X136838717Y-94577480D01*
X136857104Y-94585437D01*
X136900488Y-94592308D01*
X136903119Y-94592725D01*
X136908839Y-94593909D01*
X136953981Y-94605500D01*
X136974016Y-94605500D01*
X136993414Y-94607026D01*
X137013194Y-94610159D01*
X137013195Y-94610160D01*
X137013195Y-94610159D01*
X137013196Y-94610160D01*
X137059584Y-94605775D01*
X137065422Y-94605500D01*
X140910951Y-94605500D01*
X140977990Y-94625185D01*
X141023745Y-94677989D01*
X141033689Y-94747147D01*
X141023333Y-94781905D01*
X141013262Y-94803502D01*
X141013258Y-94803511D01*
X140954366Y-95023302D01*
X140954364Y-95023313D01*
X140934532Y-95249998D01*
X140934532Y-95250001D01*
X140954364Y-95476686D01*
X140954366Y-95476697D01*
X141013258Y-95696488D01*
X141013260Y-95696492D01*
X141013261Y-95696496D01*
X141023333Y-95718095D01*
X141033825Y-95787173D01*
X141005305Y-95850957D01*
X140946829Y-95889196D01*
X140910951Y-95894500D01*
X139641748Y-95894500D01*
X139574709Y-95874815D01*
X139549600Y-95853474D01*
X139543873Y-95847114D01*
X139543869Y-95847110D01*
X139390734Y-95735851D01*
X139390729Y-95735848D01*
X139217807Y-95658857D01*
X139217802Y-95658855D01*
X139072001Y-95627865D01*
X139032646Y-95619500D01*
X138843354Y-95619500D01*
X138810897Y-95626398D01*
X138658197Y-95658855D01*
X138658192Y-95658857D01*
X138485270Y-95735848D01*
X138485265Y-95735851D01*
X138332129Y-95847111D01*
X138205466Y-95987785D01*
X138110821Y-96151715D01*
X138110818Y-96151722D01*
X138052406Y-96331497D01*
X138052326Y-96331744D01*
X138032540Y-96520000D01*
X138052326Y-96708256D01*
X138052327Y-96708259D01*
X138110818Y-96888277D01*
X138110821Y-96888284D01*
X138205467Y-97052216D01*
X138306794Y-97164751D01*
X138332129Y-97192888D01*
X138485265Y-97304148D01*
X138485270Y-97304151D01*
X138658192Y-97381142D01*
X138658197Y-97381144D01*
X138843354Y-97420500D01*
X138843355Y-97420500D01*
X139032644Y-97420500D01*
X139032646Y-97420500D01*
X139217803Y-97381144D01*
X139390730Y-97304151D01*
X139543871Y-97192888D01*
X139546788Y-97189647D01*
X139549600Y-97186526D01*
X139609087Y-97149879D01*
X139641748Y-97145500D01*
X140910951Y-97145500D01*
X140977990Y-97165185D01*
X141023745Y-97217989D01*
X141033689Y-97287147D01*
X141023333Y-97321905D01*
X141013262Y-97343502D01*
X141013258Y-97343511D01*
X140954366Y-97563302D01*
X140954364Y-97563313D01*
X140934532Y-97789998D01*
X140934532Y-97790001D01*
X140954364Y-98016686D01*
X140954366Y-98016697D01*
X141013258Y-98236488D01*
X141013261Y-98236497D01*
X141109431Y-98442732D01*
X141109432Y-98442734D01*
X141239954Y-98629141D01*
X141400858Y-98790045D01*
X141400861Y-98790047D01*
X141587266Y-98920568D01*
X141793504Y-99016739D01*
X142013308Y-99075635D01*
X142175230Y-99089801D01*
X142239998Y-99095468D01*
X142240000Y-99095468D01*
X142240002Y-99095468D01*
X142296673Y-99090509D01*
X142466692Y-99075635D01*
X142686496Y-99016739D01*
X142892734Y-98920568D01*
X143079139Y-98790047D01*
X143240047Y-98629139D01*
X143370568Y-98442734D01*
X143466739Y-98236496D01*
X143525635Y-98016692D01*
X143542271Y-97826541D01*
X143567722Y-97761475D01*
X143624313Y-97720496D01*
X143694075Y-97716618D01*
X143753479Y-97749670D01*
X143898197Y-97894388D01*
X143908022Y-97906651D01*
X143908243Y-97906469D01*
X143913214Y-97912478D01*
X143934043Y-97932037D01*
X143963635Y-97959826D01*
X143984529Y-97980720D01*
X143990011Y-97984973D01*
X143994443Y-97988757D01*
X144028418Y-98020662D01*
X144045976Y-98030314D01*
X144062233Y-98040993D01*
X144078064Y-98053273D01*
X144095456Y-98060799D01*
X144120833Y-98071782D01*
X144126077Y-98074350D01*
X144166908Y-98096797D01*
X144179523Y-98100035D01*
X144186305Y-98101777D01*
X144204719Y-98108081D01*
X144223104Y-98116038D01*
X144269157Y-98123332D01*
X144274826Y-98124506D01*
X144319981Y-98136100D01*
X144340016Y-98136100D01*
X144359413Y-98137626D01*
X144379196Y-98140760D01*
X144425584Y-98136375D01*
X144431422Y-98136100D01*
X156482857Y-98136100D01*
X156498477Y-98137824D01*
X156498504Y-98137539D01*
X156506260Y-98138271D01*
X156506267Y-98138273D01*
X156575414Y-98136100D01*
X156604950Y-98136100D01*
X156611828Y-98135230D01*
X156617641Y-98134772D01*
X156664227Y-98133309D01*
X156683469Y-98127717D01*
X156702512Y-98123774D01*
X156722392Y-98121264D01*
X156765722Y-98104107D01*
X156771246Y-98102217D01*
X156774996Y-98101127D01*
X156815990Y-98089218D01*
X156833229Y-98079022D01*
X156850703Y-98070462D01*
X156869327Y-98063088D01*
X156869327Y-98063087D01*
X156869332Y-98063086D01*
X156907049Y-98035682D01*
X156911905Y-98032492D01*
X156952020Y-98008770D01*
X156966189Y-97994599D01*
X156980979Y-97981968D01*
X156997187Y-97970194D01*
X157026899Y-97934276D01*
X157030812Y-97929976D01*
X158539340Y-96421449D01*
X158600659Y-96387967D01*
X158670351Y-96392951D01*
X158726284Y-96434823D01*
X158750701Y-96500287D01*
X158750546Y-96519933D01*
X158749666Y-96529998D01*
X158749666Y-96530001D01*
X158768964Y-96750585D01*
X158768965Y-96750592D01*
X158826275Y-96964475D01*
X158826279Y-96964486D01*
X158898578Y-97119532D01*
X158919858Y-97165167D01*
X159046868Y-97346555D01*
X159203445Y-97503132D01*
X159384833Y-97630142D01*
X159446828Y-97659050D01*
X159508091Y-97687618D01*
X159560531Y-97733790D01*
X159579683Y-97800983D01*
X159559467Y-97867865D01*
X159508091Y-97912382D01*
X159384836Y-97969856D01*
X159384834Y-97969857D01*
X159203444Y-98096868D01*
X159046868Y-98253444D01*
X158919857Y-98434834D01*
X158919856Y-98434836D01*
X158826279Y-98635513D01*
X158826275Y-98635524D01*
X158768965Y-98849407D01*
X158768964Y-98849414D01*
X158749666Y-99069998D01*
X158749666Y-99070001D01*
X158768964Y-99290585D01*
X158768965Y-99290592D01*
X158826275Y-99504475D01*
X158826279Y-99504486D01*
X158915118Y-99695002D01*
X158919858Y-99705167D01*
X159046868Y-99886555D01*
X159203445Y-100043132D01*
X159384833Y-100170142D01*
X159446828Y-100199050D01*
X159508091Y-100227618D01*
X159560531Y-100273790D01*
X159579683Y-100340983D01*
X159559467Y-100407865D01*
X159508091Y-100452382D01*
X159384836Y-100509856D01*
X159384834Y-100509857D01*
X159203444Y-100636868D01*
X159046868Y-100793444D01*
X158919857Y-100974834D01*
X158919856Y-100974836D01*
X158826279Y-101175513D01*
X158826275Y-101175524D01*
X158768965Y-101389407D01*
X158768964Y-101389414D01*
X158749666Y-101609998D01*
X158749666Y-101610001D01*
X158768964Y-101830585D01*
X158768965Y-101830592D01*
X158826275Y-102044475D01*
X158826279Y-102044486D01*
X158919856Y-102245163D01*
X158919858Y-102245167D01*
X159046868Y-102426555D01*
X159203445Y-102583132D01*
X159384833Y-102710142D01*
X159446828Y-102739050D01*
X159508091Y-102767618D01*
X159560531Y-102813790D01*
X159579683Y-102880983D01*
X159559467Y-102947865D01*
X159508091Y-102992382D01*
X159384836Y-103049856D01*
X159384834Y-103049857D01*
X159203444Y-103176868D01*
X159046868Y-103333444D01*
X158919857Y-103514834D01*
X158919856Y-103514836D01*
X158826279Y-103715513D01*
X158826275Y-103715524D01*
X158768965Y-103929407D01*
X158768964Y-103929413D01*
X158752948Y-104112476D01*
X158727495Y-104177545D01*
X158670904Y-104218523D01*
X158601142Y-104222401D01*
X158556537Y-104201987D01*
X158440730Y-104117849D01*
X158440729Y-104117848D01*
X158267807Y-104040857D01*
X158267802Y-104040855D01*
X158122001Y-104009865D01*
X158082646Y-104001500D01*
X157893354Y-104001500D01*
X157860897Y-104008398D01*
X157708197Y-104040855D01*
X157708192Y-104040857D01*
X157535270Y-104117848D01*
X157535265Y-104117851D01*
X157393544Y-104220818D01*
X157327738Y-104244298D01*
X157320659Y-104244500D01*
X142757388Y-104244500D01*
X142690349Y-104224815D01*
X142644594Y-104172011D01*
X142634650Y-104102853D01*
X142663675Y-104039297D01*
X142704981Y-104008118D01*
X142892734Y-103920568D01*
X143079139Y-103790047D01*
X143240047Y-103629139D01*
X143370568Y-103442734D01*
X143466739Y-103236496D01*
X143525635Y-103016692D01*
X143545468Y-102790000D01*
X143525635Y-102563308D01*
X143466739Y-102343504D01*
X143370568Y-102137266D01*
X143240047Y-101950861D01*
X143240045Y-101950858D01*
X143079141Y-101789954D01*
X142892734Y-101659432D01*
X142892732Y-101659431D01*
X142686497Y-101563261D01*
X142686488Y-101563258D01*
X142466697Y-101504366D01*
X142466693Y-101504365D01*
X142466692Y-101504365D01*
X142466691Y-101504364D01*
X142466686Y-101504364D01*
X142240002Y-101484532D01*
X142239998Y-101484532D01*
X142013313Y-101504364D01*
X142013302Y-101504366D01*
X141793511Y-101563258D01*
X141793502Y-101563261D01*
X141587267Y-101659431D01*
X141587265Y-101659432D01*
X141400858Y-101789954D01*
X141239954Y-101950858D01*
X141109432Y-102137265D01*
X141109431Y-102137267D01*
X141013261Y-102343502D01*
X141013258Y-102343511D01*
X140954366Y-102563302D01*
X140954364Y-102563313D01*
X140934532Y-102789998D01*
X140934532Y-102790001D01*
X140954364Y-103016686D01*
X140954366Y-103016697D01*
X141013258Y-103236488D01*
X141013261Y-103236497D01*
X141109431Y-103442732D01*
X141109432Y-103442734D01*
X141239954Y-103629141D01*
X141400858Y-103790045D01*
X141400861Y-103790047D01*
X141587266Y-103920568D01*
X141775017Y-104008118D01*
X141827456Y-104054290D01*
X141846608Y-104121484D01*
X141826392Y-104188365D01*
X141773227Y-104233700D01*
X141722612Y-104244500D01*
X138036743Y-104244500D01*
X138021122Y-104242775D01*
X138021096Y-104243061D01*
X138013334Y-104242327D01*
X138013333Y-104242327D01*
X137944186Y-104244500D01*
X137914649Y-104244500D01*
X137907766Y-104245369D01*
X137901949Y-104245826D01*
X137855373Y-104247290D01*
X137836129Y-104252881D01*
X137817079Y-104256825D01*
X137797211Y-104259334D01*
X137753884Y-104276488D01*
X137748358Y-104278379D01*
X137703614Y-104291379D01*
X137703610Y-104291381D01*
X137686366Y-104301579D01*
X137668905Y-104310133D01*
X137650274Y-104317510D01*
X137650262Y-104317517D01*
X137612570Y-104344902D01*
X137607687Y-104348109D01*
X137567580Y-104371829D01*
X137553414Y-104385995D01*
X137538624Y-104398627D01*
X137522414Y-104410404D01*
X137522411Y-104410407D01*
X137492710Y-104446309D01*
X137488777Y-104450631D01*
X137483229Y-104456179D01*
X137421906Y-104489664D01*
X137355286Y-104485780D01*
X137275613Y-104458428D01*
X137030335Y-104417500D01*
X136781665Y-104417500D01*
X136536383Y-104458429D01*
X136301197Y-104539169D01*
X136301188Y-104539172D01*
X136082493Y-104657524D01*
X135886257Y-104810261D01*
X135717833Y-104993217D01*
X135581826Y-105201393D01*
X135481936Y-105429118D01*
X135420892Y-105670175D01*
X135420890Y-105670187D01*
X135400357Y-105917994D01*
X135400357Y-105918005D01*
X135420890Y-106165812D01*
X135420892Y-106165824D01*
X135481936Y-106406881D01*
X135581826Y-106634606D01*
X135717833Y-106842782D01*
X135717836Y-106842785D01*
X135886256Y-107025738D01*
X136082491Y-107178474D01*
X136082493Y-107178475D01*
X136300332Y-107296364D01*
X136301190Y-107296828D01*
X136422151Y-107338354D01*
X136534964Y-107377083D01*
X136536386Y-107377571D01*
X136781665Y-107418500D01*
X137030335Y-107418500D01*
X137275614Y-107377571D01*
X137510810Y-107296828D01*
X137729509Y-107178474D01*
X137925744Y-107025738D01*
X138094164Y-106842785D01*
X138230173Y-106634607D01*
X138330063Y-106406881D01*
X138391108Y-106165821D01*
X138396238Y-106103915D01*
X138411643Y-105918005D01*
X138411643Y-105917994D01*
X138391109Y-105670187D01*
X138391107Y-105670175D01*
X138385983Y-105649940D01*
X138388608Y-105580120D01*
X138428565Y-105522802D01*
X138493166Y-105496186D01*
X138506189Y-105495500D01*
X142097497Y-105495500D01*
X142164536Y-105515185D01*
X142210291Y-105567989D01*
X142220235Y-105637147D01*
X142217272Y-105651593D01*
X142174938Y-105809586D01*
X142174936Y-105809596D01*
X142154341Y-106044999D01*
X142154341Y-106045000D01*
X142174936Y-106280403D01*
X142174938Y-106280413D01*
X142236094Y-106508655D01*
X142236096Y-106508659D01*
X142236097Y-106508663D01*
X142316004Y-106680023D01*
X142335965Y-106722830D01*
X142335967Y-106722834D01*
X142419956Y-106842782D01*
X142471505Y-106916401D01*
X142638599Y-107083495D01*
X142697132Y-107124480D01*
X142832165Y-107219032D01*
X142832167Y-107219033D01*
X142832170Y-107219035D01*
X143046337Y-107318903D01*
X143274592Y-107380063D01*
X143445319Y-107395000D01*
X143509999Y-107400659D01*
X143510000Y-107400659D01*
X143510001Y-107400659D01*
X143574681Y-107395000D01*
X143745408Y-107380063D01*
X143973663Y-107318903D01*
X144187830Y-107219035D01*
X144381401Y-107083495D01*
X144548495Y-106916401D01*
X144678425Y-106730842D01*
X144733002Y-106687217D01*
X144802500Y-106680023D01*
X144864855Y-106711546D01*
X144881575Y-106730842D01*
X145011500Y-106916395D01*
X145011505Y-106916401D01*
X145178599Y-107083495D01*
X145237132Y-107124480D01*
X145372165Y-107219032D01*
X145372167Y-107219033D01*
X145372170Y-107219035D01*
X145586337Y-107318903D01*
X145814592Y-107380063D01*
X145985319Y-107395000D01*
X146049999Y-107400659D01*
X146050000Y-107400659D01*
X146050001Y-107400659D01*
X146114681Y-107395000D01*
X146285408Y-107380063D01*
X146513663Y-107318903D01*
X146727830Y-107219035D01*
X146921401Y-107083495D01*
X147088495Y-106916401D01*
X147218730Y-106730405D01*
X147273307Y-106686781D01*
X147342805Y-106679587D01*
X147405160Y-106711110D01*
X147421879Y-106730405D01*
X147551890Y-106916078D01*
X147718917Y-107083105D01*
X147912421Y-107218600D01*
X148126507Y-107318429D01*
X148126516Y-107318433D01*
X148340000Y-107375634D01*
X148340000Y-106480501D01*
X148447685Y-106529680D01*
X148554237Y-106545000D01*
X148625763Y-106545000D01*
X148732315Y-106529680D01*
X148840000Y-106480501D01*
X148840000Y-107375633D01*
X149053483Y-107318433D01*
X149053492Y-107318429D01*
X149267578Y-107218600D01*
X149461078Y-107083108D01*
X149583521Y-106960665D01*
X149644844Y-106927180D01*
X149714536Y-106932164D01*
X149770470Y-106974035D01*
X149787385Y-107005013D01*
X149836645Y-107137086D01*
X149836649Y-107137093D01*
X149922809Y-107252187D01*
X149922812Y-107252190D01*
X150037906Y-107338350D01*
X150037913Y-107338354D01*
X150172620Y-107388596D01*
X150172627Y-107388598D01*
X150232155Y-107394999D01*
X150232172Y-107395000D01*
X150880000Y-107395000D01*
X150880000Y-106480501D01*
X150987685Y-106529680D01*
X151094237Y-106545000D01*
X151165763Y-106545000D01*
X151272315Y-106529680D01*
X151380000Y-106480501D01*
X151380000Y-107395000D01*
X152027828Y-107395000D01*
X152027844Y-107394999D01*
X152087372Y-107388598D01*
X152087379Y-107388596D01*
X152222086Y-107338354D01*
X152222093Y-107338350D01*
X152337187Y-107252190D01*
X152337190Y-107252187D01*
X152423350Y-107137093D01*
X152423354Y-107137086D01*
X152473596Y-107002379D01*
X152473598Y-107002372D01*
X152479999Y-106942844D01*
X152480000Y-106942827D01*
X152480000Y-106295000D01*
X151563686Y-106295000D01*
X151589493Y-106254844D01*
X151630000Y-106116889D01*
X151630000Y-105973111D01*
X151589493Y-105835156D01*
X151563686Y-105795000D01*
X152480000Y-105795000D01*
X152480000Y-105619500D01*
X152499685Y-105552461D01*
X152552489Y-105506706D01*
X152604000Y-105495500D01*
X157255440Y-105495500D01*
X157322479Y-105515185D01*
X157347585Y-105536523D01*
X157382129Y-105574888D01*
X157402731Y-105589856D01*
X157535265Y-105686148D01*
X157535270Y-105686151D01*
X157708192Y-105763142D01*
X157708197Y-105763144D01*
X157893354Y-105802500D01*
X157893355Y-105802500D01*
X158082644Y-105802500D01*
X158082646Y-105802500D01*
X158267803Y-105763144D01*
X158440730Y-105686151D01*
X158593871Y-105574888D01*
X158720533Y-105434216D01*
X158815179Y-105270284D01*
X158873674Y-105090256D01*
X158874736Y-105080145D01*
X158901314Y-105015535D01*
X158958609Y-104975547D01*
X159028428Y-104972882D01*
X159085737Y-105005424D01*
X159203445Y-105123132D01*
X159384833Y-105250142D01*
X159428013Y-105270277D01*
X159508091Y-105307618D01*
X159560531Y-105353790D01*
X159579683Y-105420983D01*
X159559467Y-105487865D01*
X159508091Y-105532382D01*
X159384836Y-105589856D01*
X159384834Y-105589857D01*
X159203444Y-105716868D01*
X159046868Y-105873444D01*
X158919857Y-106054834D01*
X158919856Y-106054836D01*
X158826279Y-106255513D01*
X158826275Y-106255524D01*
X158768965Y-106469407D01*
X158768964Y-106469414D01*
X158749666Y-106689998D01*
X158749666Y-106690001D01*
X158768964Y-106910585D01*
X158768965Y-106910592D01*
X158826275Y-107124475D01*
X158826279Y-107124486D01*
X158906427Y-107296364D01*
X158919858Y-107325167D01*
X159046868Y-107506555D01*
X159203445Y-107663132D01*
X159384833Y-107790142D01*
X159505572Y-107846443D01*
X159585513Y-107883720D01*
X159585515Y-107883720D01*
X159585520Y-107883723D01*
X159799409Y-107941035D01*
X159956974Y-107954820D01*
X160019998Y-107960334D01*
X160020000Y-107960334D01*
X160020002Y-107960334D01*
X160075147Y-107955509D01*
X160240591Y-107941035D01*
X160454480Y-107883723D01*
X160655167Y-107790142D01*
X160836555Y-107663132D01*
X160993132Y-107506555D01*
X161120142Y-107325167D01*
X161213723Y-107124480D01*
X161271035Y-106910591D01*
X161290334Y-106690000D01*
X161290052Y-106686781D01*
X161274469Y-106508663D01*
X161271035Y-106469409D01*
X161213723Y-106255520D01*
X161120142Y-106054833D01*
X160993132Y-105873445D01*
X160836555Y-105716868D01*
X160655167Y-105589858D01*
X160636893Y-105581337D01*
X160531908Y-105532382D01*
X160479468Y-105486210D01*
X160460316Y-105419017D01*
X160480531Y-105352136D01*
X160531908Y-105307618D01*
X160655167Y-105250142D01*
X160836555Y-105123132D01*
X160993132Y-104966555D01*
X161120142Y-104785167D01*
X161213723Y-104584480D01*
X161271035Y-104370591D01*
X161290334Y-104150000D01*
X161271035Y-103929409D01*
X161213723Y-103715520D01*
X161120142Y-103514833D01*
X160993132Y-103333445D01*
X160836555Y-103176868D01*
X160655167Y-103049858D01*
X160531907Y-102992381D01*
X160479468Y-102946210D01*
X160460316Y-102879017D01*
X160480531Y-102812136D01*
X160531908Y-102767618D01*
X160655167Y-102710142D01*
X160836555Y-102583132D01*
X160993132Y-102426555D01*
X161120142Y-102245167D01*
X161213723Y-102044480D01*
X161271035Y-101830591D01*
X161290334Y-101610000D01*
X161271035Y-101389409D01*
X161213723Y-101175520D01*
X161120142Y-100974833D01*
X160993132Y-100793445D01*
X160836555Y-100636868D01*
X160655167Y-100509858D01*
X160531907Y-100452381D01*
X160479468Y-100406210D01*
X160460316Y-100339017D01*
X160480531Y-100272136D01*
X160531908Y-100227618D01*
X160655167Y-100170142D01*
X160836555Y-100043132D01*
X160993132Y-99886555D01*
X161120142Y-99705167D01*
X161213723Y-99504480D01*
X161271035Y-99290591D01*
X161290334Y-99070000D01*
X161287929Y-99042516D01*
X161278023Y-98929282D01*
X161271035Y-98849409D01*
X161213723Y-98635520D01*
X161210748Y-98629141D01*
X161163485Y-98527784D01*
X161120142Y-98434833D01*
X160993132Y-98253445D01*
X160836555Y-98096868D01*
X160655167Y-97969858D01*
X160531907Y-97912381D01*
X160479468Y-97866210D01*
X160460316Y-97799017D01*
X160480531Y-97732136D01*
X160531908Y-97687618D01*
X160655167Y-97630142D01*
X160836555Y-97503132D01*
X160993132Y-97346555D01*
X161089887Y-97208374D01*
X161144463Y-97164751D01*
X161191461Y-97155500D01*
X165434548Y-97155500D01*
X165501587Y-97175185D01*
X165522229Y-97191819D01*
X166340586Y-98010176D01*
X166374071Y-98071499D01*
X166372681Y-98129948D01*
X166354365Y-98198307D01*
X166354364Y-98198313D01*
X166334532Y-98424999D01*
X166334532Y-98425001D01*
X166354364Y-98651686D01*
X166354366Y-98651697D01*
X166413258Y-98871488D01*
X166413261Y-98871497D01*
X166509431Y-99077732D01*
X166509432Y-99077734D01*
X166639954Y-99264141D01*
X166800858Y-99425045D01*
X166800861Y-99425047D01*
X166987266Y-99555568D01*
X167193504Y-99651739D01*
X167413308Y-99710635D01*
X167575230Y-99724801D01*
X167639998Y-99730468D01*
X167640000Y-99730468D01*
X167640002Y-99730468D01*
X167696673Y-99725509D01*
X167866692Y-99710635D01*
X168086496Y-99651739D01*
X168292734Y-99555568D01*
X168479139Y-99425047D01*
X168640047Y-99264139D01*
X168770568Y-99077734D01*
X168866739Y-98871496D01*
X168925635Y-98651692D01*
X168943762Y-98444500D01*
X168945468Y-98425001D01*
X168945468Y-98424998D01*
X168935430Y-98310262D01*
X168925635Y-98198308D01*
X168867333Y-97980720D01*
X168866741Y-97978511D01*
X168866738Y-97978502D01*
X168835950Y-97912477D01*
X168770568Y-97772266D01*
X168640047Y-97585861D01*
X168640045Y-97585858D01*
X168479141Y-97424954D01*
X168292734Y-97294432D01*
X168292732Y-97294431D01*
X168086497Y-97198261D01*
X168086488Y-97198258D01*
X167866697Y-97139366D01*
X167866693Y-97139365D01*
X167866692Y-97139365D01*
X167866691Y-97139364D01*
X167866686Y-97139364D01*
X167640002Y-97119532D01*
X167639999Y-97119532D01*
X167413313Y-97139364D01*
X167413296Y-97139367D01*
X167344949Y-97157680D01*
X167275099Y-97156016D01*
X167225177Y-97125586D01*
X166245803Y-96146212D01*
X166235980Y-96133950D01*
X166235759Y-96134134D01*
X166230786Y-96128123D01*
X166213289Y-96111692D01*
X166180364Y-96080773D01*
X166169919Y-96070328D01*
X166159475Y-96059883D01*
X166153986Y-96055625D01*
X166149561Y-96051847D01*
X166115582Y-96019938D01*
X166115580Y-96019936D01*
X166115577Y-96019935D01*
X166098029Y-96010288D01*
X166081762Y-95999603D01*
X166060228Y-95982899D01*
X166019322Y-95926256D01*
X166015534Y-95856489D01*
X166050065Y-95795749D01*
X166063334Y-95784610D01*
X166076439Y-95775089D01*
X166081295Y-95771898D01*
X166121420Y-95748170D01*
X166135589Y-95733999D01*
X166150379Y-95721368D01*
X166166587Y-95709594D01*
X166196299Y-95673676D01*
X166200212Y-95669376D01*
X167225179Y-94644410D01*
X167286500Y-94610927D01*
X167344947Y-94612317D01*
X167413308Y-94630635D01*
X167570780Y-94644412D01*
X167639998Y-94650468D01*
X167640000Y-94650468D01*
X167640002Y-94650468D01*
X167709220Y-94644412D01*
X167866692Y-94630635D01*
X168086496Y-94571739D01*
X168292734Y-94475568D01*
X168479139Y-94345047D01*
X168640047Y-94184139D01*
X168770568Y-93997734D01*
X168866739Y-93791496D01*
X168925635Y-93571692D01*
X168942634Y-93377384D01*
X168945468Y-93345001D01*
X168945468Y-93344998D01*
X168938249Y-93262486D01*
X168925635Y-93118308D01*
X168866739Y-92898504D01*
X168770568Y-92692266D01*
X168640047Y-92505861D01*
X168640045Y-92505858D01*
X168479141Y-92344954D01*
X168292734Y-92214432D01*
X168292732Y-92214431D01*
X168086497Y-92118261D01*
X168086488Y-92118258D01*
X167866697Y-92059366D01*
X167866693Y-92059365D01*
X167866692Y-92059365D01*
X167866691Y-92059364D01*
X167866686Y-92059364D01*
X167640002Y-92039532D01*
X167639998Y-92039532D01*
X167413313Y-92059364D01*
X167413302Y-92059366D01*
X167193511Y-92118258D01*
X167193502Y-92118261D01*
X166987267Y-92214431D01*
X166987265Y-92214432D01*
X166800858Y-92344954D01*
X166639954Y-92505858D01*
X166509432Y-92692265D01*
X166509431Y-92692267D01*
X166413261Y-92898502D01*
X166413258Y-92898511D01*
X166354366Y-93118302D01*
X166354364Y-93118313D01*
X166336096Y-93327122D01*
X166334532Y-93345000D01*
X166354364Y-93571686D01*
X166354365Y-93571691D01*
X166354366Y-93571697D01*
X166372680Y-93640048D01*
X166371017Y-93709897D01*
X166340586Y-93759821D01*
X165512228Y-94588181D01*
X165450905Y-94621666D01*
X165424547Y-94624500D01*
X161314542Y-94624500D01*
X161247503Y-94604815D01*
X161201748Y-94552011D01*
X161191804Y-94482853D01*
X161202159Y-94448096D01*
X161213252Y-94424305D01*
X161213254Y-94424300D01*
X161270538Y-94210509D01*
X161270540Y-94210499D01*
X161289832Y-93990000D01*
X161289832Y-93989999D01*
X161270540Y-93769500D01*
X161270538Y-93769490D01*
X161213254Y-93555699D01*
X161213252Y-93555694D01*
X161192833Y-93511904D01*
X161182342Y-93442826D01*
X161210862Y-93379043D01*
X161269339Y-93340804D01*
X161305216Y-93335500D01*
X163112257Y-93335500D01*
X163127877Y-93337224D01*
X163127904Y-93336939D01*
X163135660Y-93337671D01*
X163135667Y-93337673D01*
X163204814Y-93335500D01*
X163234350Y-93335500D01*
X163241228Y-93334630D01*
X163247041Y-93334172D01*
X163293627Y-93332709D01*
X163312869Y-93327117D01*
X163331912Y-93323174D01*
X163351792Y-93320664D01*
X163395122Y-93303507D01*
X163400646Y-93301617D01*
X163404396Y-93300527D01*
X163445390Y-93288618D01*
X163462629Y-93278422D01*
X163480103Y-93269862D01*
X163498727Y-93262488D01*
X163498727Y-93262487D01*
X163498732Y-93262486D01*
X163536449Y-93235082D01*
X163541305Y-93231892D01*
X163581420Y-93208170D01*
X163595586Y-93194003D01*
X163610381Y-93181368D01*
X163621286Y-93173445D01*
X163626587Y-93169594D01*
X163656302Y-93133674D01*
X163660202Y-93129387D01*
X167225179Y-89564410D01*
X167286500Y-89530927D01*
X167344947Y-89532317D01*
X167413308Y-89550635D01*
X167570780Y-89564412D01*
X167639998Y-89570468D01*
X167640000Y-89570468D01*
X167640002Y-89570468D01*
X167709220Y-89564412D01*
X167866692Y-89550635D01*
X168086496Y-89491739D01*
X168292734Y-89395568D01*
X168479139Y-89265047D01*
X168640047Y-89104139D01*
X168770568Y-88917734D01*
X168866739Y-88711496D01*
X168925635Y-88491692D01*
X168943122Y-88291819D01*
X168945468Y-88265001D01*
X168945468Y-88264998D01*
X168931429Y-88104531D01*
X168925635Y-88038308D01*
X168866739Y-87818504D01*
X168770568Y-87612266D01*
X168640047Y-87425861D01*
X168640045Y-87425858D01*
X168479141Y-87264954D01*
X168292734Y-87134432D01*
X168292732Y-87134431D01*
X168086497Y-87038261D01*
X168086488Y-87038258D01*
X167866697Y-86979366D01*
X167866693Y-86979365D01*
X167866692Y-86979365D01*
X167866691Y-86979364D01*
X167866686Y-86979364D01*
X167640002Y-86959532D01*
X167639998Y-86959532D01*
X167413313Y-86979364D01*
X167413302Y-86979366D01*
X167193511Y-87038258D01*
X167193502Y-87038261D01*
X166987267Y-87134431D01*
X166987265Y-87134432D01*
X166800858Y-87264954D01*
X166639954Y-87425858D01*
X166509432Y-87612265D01*
X166509431Y-87612267D01*
X166413261Y-87818502D01*
X166413258Y-87818511D01*
X166354366Y-88038302D01*
X166354364Y-88038313D01*
X166336083Y-88247267D01*
X166334532Y-88265000D01*
X166354364Y-88491686D01*
X166354365Y-88491691D01*
X166354366Y-88491697D01*
X166372680Y-88560048D01*
X166371017Y-88629897D01*
X166340586Y-88679821D01*
X162972228Y-92048181D01*
X162910905Y-92081666D01*
X162884547Y-92084500D01*
X161315093Y-92084500D01*
X161248054Y-92064815D01*
X161202299Y-92012011D01*
X161192355Y-91942853D01*
X161202711Y-91908095D01*
X161213723Y-91884480D01*
X161271035Y-91670591D01*
X161290334Y-91450000D01*
X161287936Y-91422596D01*
X161282865Y-91364630D01*
X161271035Y-91229409D01*
X161213723Y-91015520D01*
X161120142Y-90814833D01*
X160993132Y-90633445D01*
X160836555Y-90476868D01*
X160655167Y-90349858D01*
X160589574Y-90319272D01*
X160531908Y-90292382D01*
X160479468Y-90246210D01*
X160460316Y-90179017D01*
X160480531Y-90112136D01*
X160531908Y-90067618D01*
X160655167Y-90010142D01*
X160836555Y-89883132D01*
X160993132Y-89726555D01*
X161120142Y-89545167D01*
X161213723Y-89344480D01*
X161271035Y-89130591D01*
X161290290Y-88910499D01*
X161290334Y-88910001D01*
X161290334Y-88909998D01*
X161277871Y-88767544D01*
X161271035Y-88689409D01*
X161258741Y-88643528D01*
X161260404Y-88573679D01*
X161290833Y-88523756D01*
X163300772Y-86513819D01*
X163362095Y-86480334D01*
X163388453Y-86477500D01*
X178149752Y-86477500D01*
X178216791Y-86497185D01*
X178241900Y-86518526D01*
X178247626Y-86524885D01*
X178247630Y-86524889D01*
X178400765Y-86636148D01*
X178400770Y-86636151D01*
X178573692Y-86713142D01*
X178573697Y-86713144D01*
X178758854Y-86752500D01*
X178758855Y-86752500D01*
X178948144Y-86752500D01*
X178948146Y-86752500D01*
X179133303Y-86713144D01*
X179306230Y-86636151D01*
X179459371Y-86524888D01*
X179586033Y-86384216D01*
X179680679Y-86220284D01*
X179739174Y-86040256D01*
X179758960Y-85852000D01*
X179739174Y-85663744D01*
X179680679Y-85483716D01*
X179586033Y-85319784D01*
X179459371Y-85179112D01*
X179459370Y-85179111D01*
X179306234Y-85067851D01*
X179306229Y-85067848D01*
X179133307Y-84990857D01*
X179133302Y-84990855D01*
X178987501Y-84959865D01*
X178948146Y-84951500D01*
X178758854Y-84951500D01*
X178726397Y-84958398D01*
X178573697Y-84990855D01*
X178573692Y-84990857D01*
X178400770Y-85067848D01*
X178400765Y-85067851D01*
X178247630Y-85179110D01*
X178247626Y-85179114D01*
X178241900Y-85185474D01*
X178182413Y-85222121D01*
X178149752Y-85226500D01*
X163160738Y-85226500D01*
X163145121Y-85224776D01*
X163145094Y-85225062D01*
X163137332Y-85224327D01*
X163068204Y-85226500D01*
X163038650Y-85226500D01*
X163037929Y-85226590D01*
X163031757Y-85227369D01*
X163025945Y-85227826D01*
X162979373Y-85229290D01*
X162979372Y-85229290D01*
X162960129Y-85234881D01*
X162941079Y-85238825D01*
X162921211Y-85241334D01*
X162877884Y-85258488D01*
X162872358Y-85260379D01*
X162827614Y-85273379D01*
X162827610Y-85273381D01*
X162810366Y-85283579D01*
X162792905Y-85292133D01*
X162774274Y-85299510D01*
X162774262Y-85299517D01*
X162736570Y-85326902D01*
X162731687Y-85330109D01*
X162691580Y-85353829D01*
X162677414Y-85367995D01*
X162662624Y-85380627D01*
X162646414Y-85392404D01*
X162646411Y-85392407D01*
X162616710Y-85428309D01*
X162612777Y-85432631D01*
X161494316Y-86551092D01*
X161432993Y-86584577D01*
X161363301Y-86579593D01*
X161307368Y-86537721D01*
X161282951Y-86472257D01*
X161283107Y-86452603D01*
X161287167Y-86406204D01*
X161290334Y-86370000D01*
X161289437Y-86359752D01*
X161279354Y-86244500D01*
X161271035Y-86149409D01*
X161213723Y-85935520D01*
X161120142Y-85734833D01*
X160993132Y-85553445D01*
X160836555Y-85396868D01*
X160655167Y-85269858D01*
X160636908Y-85261344D01*
X160557527Y-85224328D01*
X160531907Y-85212381D01*
X160479468Y-85166210D01*
X160460316Y-85099017D01*
X160480531Y-85032136D01*
X160531908Y-84987618D01*
X160655167Y-84930142D01*
X160836555Y-84803132D01*
X160993132Y-84646555D01*
X161120142Y-84465167D01*
X161213723Y-84264480D01*
X161271035Y-84050591D01*
X161290334Y-83830000D01*
X161271035Y-83609409D01*
X161213723Y-83395520D01*
X161202235Y-83370883D01*
X161193385Y-83351904D01*
X161182893Y-83282827D01*
X161211413Y-83219043D01*
X161269890Y-83180804D01*
X161305767Y-83175500D01*
X172778252Y-83175500D01*
X172845291Y-83195185D01*
X172870400Y-83216526D01*
X172876126Y-83222885D01*
X172876130Y-83222889D01*
X173029265Y-83334148D01*
X173029270Y-83334151D01*
X173202192Y-83411142D01*
X173202197Y-83411144D01*
X173387354Y-83450500D01*
X173387355Y-83450500D01*
X173576644Y-83450500D01*
X173576646Y-83450500D01*
X173761803Y-83411144D01*
X173934730Y-83334151D01*
X174087871Y-83222888D01*
X174214533Y-83082216D01*
X174309179Y-82918284D01*
X174367674Y-82738256D01*
X174387460Y-82550000D01*
X174367674Y-82361744D01*
X174354700Y-82321817D01*
X174352706Y-82251978D01*
X174388786Y-82192145D01*
X174451487Y-82161316D01*
X174472632Y-82159500D01*
X180185501Y-82159500D01*
X180252540Y-82179185D01*
X180298295Y-82231989D01*
X180309501Y-82283500D01*
X180309501Y-82762876D01*
X180315908Y-82822483D01*
X180366202Y-82957328D01*
X180366206Y-82957335D01*
X180452452Y-83072544D01*
X180452455Y-83072547D01*
X180567664Y-83158793D01*
X180567671Y-83158797D01*
X180702517Y-83209091D01*
X180702516Y-83209091D01*
X180709444Y-83209835D01*
X180762127Y-83215500D01*
X182457872Y-83215499D01*
X182517483Y-83209091D01*
X182652331Y-83158796D01*
X182767546Y-83072546D01*
X182853796Y-82957331D01*
X182904091Y-82822483D01*
X182910500Y-82762873D01*
X182910499Y-81369099D01*
X182930184Y-81302061D01*
X182982987Y-81256306D01*
X183034499Y-81245100D01*
X184032113Y-81245100D01*
X184099152Y-81264785D01*
X184144907Y-81317589D01*
X184155641Y-81358293D01*
X184168964Y-81510585D01*
X184168965Y-81510592D01*
X184226275Y-81724475D01*
X184226279Y-81724486D01*
X184310368Y-81904815D01*
X184319858Y-81925167D01*
X184446868Y-82106555D01*
X184603445Y-82263132D01*
X184784833Y-82390142D01*
X184846828Y-82419050D01*
X184908091Y-82447618D01*
X184960531Y-82493790D01*
X184979683Y-82560983D01*
X184959467Y-82627865D01*
X184908091Y-82672382D01*
X184784836Y-82729856D01*
X184784834Y-82729857D01*
X184603444Y-82856868D01*
X184446868Y-83013444D01*
X184319857Y-83194834D01*
X184319856Y-83194836D01*
X184226279Y-83395513D01*
X184226275Y-83395524D01*
X184168965Y-83609407D01*
X184168964Y-83609414D01*
X184149666Y-83829998D01*
X184149666Y-83830001D01*
X184168964Y-84050585D01*
X184168965Y-84050592D01*
X184226275Y-84264475D01*
X184226279Y-84264486D01*
X184319856Y-84465163D01*
X184319858Y-84465167D01*
X184446868Y-84646555D01*
X184603445Y-84803132D01*
X184784833Y-84930142D01*
X184830636Y-84951500D01*
X184908091Y-84987618D01*
X184960531Y-85033790D01*
X184979683Y-85100983D01*
X184959467Y-85167865D01*
X184908091Y-85212382D01*
X184784836Y-85269856D01*
X184784834Y-85269857D01*
X184603444Y-85396868D01*
X184446868Y-85553444D01*
X184319857Y-85734834D01*
X184319856Y-85734836D01*
X184226279Y-85935513D01*
X184226275Y-85935524D01*
X184168965Y-86149407D01*
X184168964Y-86149414D01*
X184149666Y-86369998D01*
X184149666Y-86370001D01*
X184168964Y-86590585D01*
X184168965Y-86590592D01*
X184226275Y-86804475D01*
X184226279Y-86804486D01*
X184306848Y-86977267D01*
X184319858Y-87005167D01*
X184446868Y-87186555D01*
X184603445Y-87343132D01*
X184784833Y-87470142D01*
X184846828Y-87499050D01*
X184908091Y-87527618D01*
X184960531Y-87573790D01*
X184979683Y-87640983D01*
X184959467Y-87707865D01*
X184908091Y-87752382D01*
X184784836Y-87809856D01*
X184784834Y-87809857D01*
X184603444Y-87936868D01*
X184446868Y-88093444D01*
X184319857Y-88274834D01*
X184319856Y-88274836D01*
X184226279Y-88475513D01*
X184226275Y-88475524D01*
X184168965Y-88689407D01*
X184168964Y-88689414D01*
X184149666Y-88909998D01*
X184149666Y-88910003D01*
X184156892Y-88992605D01*
X184143125Y-89061105D01*
X184094509Y-89111287D01*
X184026480Y-89127220D01*
X183960637Y-89103844D01*
X183945683Y-89091092D01*
X182735803Y-87881212D01*
X182725980Y-87868950D01*
X182725759Y-87869134D01*
X182720786Y-87863123D01*
X182713931Y-87856686D01*
X182670364Y-87815773D01*
X182655926Y-87801335D01*
X182649475Y-87794883D01*
X182643986Y-87790625D01*
X182639561Y-87786847D01*
X182605582Y-87754938D01*
X182605580Y-87754936D01*
X182605577Y-87754935D01*
X182588029Y-87745288D01*
X182571763Y-87734604D01*
X182555933Y-87722325D01*
X182513168Y-87703818D01*
X182507922Y-87701248D01*
X182467093Y-87678803D01*
X182467092Y-87678802D01*
X182447693Y-87673822D01*
X182429281Y-87667518D01*
X182410898Y-87659562D01*
X182410892Y-87659560D01*
X182364874Y-87652272D01*
X182359152Y-87651087D01*
X182314021Y-87639500D01*
X182314019Y-87639500D01*
X182293984Y-87639500D01*
X182274586Y-87637973D01*
X182267162Y-87636797D01*
X182254805Y-87634840D01*
X182254804Y-87634840D01*
X182208416Y-87639225D01*
X182202578Y-87639500D01*
X176474188Y-87639500D01*
X176407149Y-87619815D01*
X176372613Y-87586623D01*
X176260045Y-87425858D01*
X176099141Y-87264954D01*
X175912734Y-87134432D01*
X175912732Y-87134431D01*
X175706497Y-87038261D01*
X175706488Y-87038258D01*
X175486697Y-86979366D01*
X175486693Y-86979365D01*
X175486692Y-86979365D01*
X175486691Y-86979364D01*
X175486686Y-86979364D01*
X175260002Y-86959532D01*
X175259998Y-86959532D01*
X175033313Y-86979364D01*
X175033302Y-86979366D01*
X174813511Y-87038258D01*
X174813502Y-87038261D01*
X174607267Y-87134431D01*
X174607265Y-87134432D01*
X174420858Y-87264954D01*
X174259954Y-87425858D01*
X174129432Y-87612265D01*
X174129431Y-87612267D01*
X174033261Y-87818502D01*
X174033258Y-87818511D01*
X173974366Y-88038302D01*
X173974364Y-88038313D01*
X173954532Y-88264998D01*
X173954532Y-88265001D01*
X173974364Y-88491686D01*
X173974366Y-88491697D01*
X174033258Y-88711488D01*
X174033261Y-88711497D01*
X174129431Y-88917732D01*
X174129432Y-88917734D01*
X174259954Y-89104141D01*
X174420858Y-89265045D01*
X174443634Y-89280993D01*
X174607266Y-89395568D01*
X174813504Y-89491739D01*
X175033308Y-89550635D01*
X175190780Y-89564412D01*
X175259998Y-89570468D01*
X175260000Y-89570468D01*
X175260002Y-89570468D01*
X175329220Y-89564412D01*
X175486692Y-89550635D01*
X175706496Y-89491739D01*
X175912734Y-89395568D01*
X176099139Y-89265047D01*
X176260047Y-89104139D01*
X176372613Y-88943377D01*
X176427189Y-88899752D01*
X176474188Y-88890500D01*
X181924548Y-88890500D01*
X181991587Y-88910185D01*
X182012229Y-88926819D01*
X184149164Y-91063755D01*
X184182649Y-91125078D01*
X184181258Y-91183528D01*
X184168966Y-91229403D01*
X184168965Y-91229407D01*
X184168965Y-91229409D01*
X184167760Y-91243178D01*
X184149666Y-91449998D01*
X184149666Y-91450003D01*
X184156892Y-91532606D01*
X184143125Y-91601106D01*
X184094509Y-91651288D01*
X184026480Y-91667221D01*
X183960637Y-91643845D01*
X183945683Y-91631093D01*
X183544542Y-91229952D01*
X182862803Y-90548212D01*
X182852980Y-90535950D01*
X182852759Y-90536134D01*
X182847786Y-90530123D01*
X182797364Y-90482773D01*
X182786919Y-90472328D01*
X182776475Y-90461883D01*
X182770986Y-90457625D01*
X182766561Y-90453847D01*
X182732582Y-90421938D01*
X182732580Y-90421936D01*
X182732577Y-90421935D01*
X182715029Y-90412288D01*
X182698763Y-90401604D01*
X182682933Y-90389325D01*
X182640168Y-90370818D01*
X182634922Y-90368248D01*
X182594093Y-90345803D01*
X182594092Y-90345802D01*
X182574693Y-90340822D01*
X182556281Y-90334518D01*
X182537898Y-90326562D01*
X182537892Y-90326560D01*
X182491874Y-90319272D01*
X182486152Y-90318087D01*
X182441021Y-90306500D01*
X182441019Y-90306500D01*
X182420984Y-90306500D01*
X182401586Y-90304973D01*
X182394162Y-90303797D01*
X182381805Y-90301840D01*
X182381804Y-90301840D01*
X182335416Y-90306225D01*
X182329578Y-90306500D01*
X180281748Y-90306500D01*
X180214709Y-90286815D01*
X180189600Y-90265474D01*
X180183873Y-90259114D01*
X180183869Y-90259110D01*
X180030734Y-90147851D01*
X180030729Y-90147848D01*
X179857807Y-90070857D01*
X179857802Y-90070855D01*
X179711450Y-90039748D01*
X179672646Y-90031500D01*
X179483354Y-90031500D01*
X179450897Y-90038398D01*
X179298197Y-90070855D01*
X179298192Y-90070857D01*
X179125270Y-90147848D01*
X179125265Y-90147851D01*
X178972129Y-90259111D01*
X178845466Y-90399785D01*
X178750821Y-90563715D01*
X178750818Y-90563722D01*
X178692327Y-90743740D01*
X178692326Y-90743744D01*
X178672540Y-90932000D01*
X178692326Y-91120256D01*
X178692327Y-91120259D01*
X178750818Y-91300277D01*
X178750821Y-91300284D01*
X178845467Y-91464216D01*
X178947185Y-91577185D01*
X178972129Y-91604888D01*
X179125265Y-91716148D01*
X179125270Y-91716151D01*
X179298192Y-91793142D01*
X179298197Y-91793144D01*
X179483354Y-91832500D01*
X179483355Y-91832500D01*
X179672644Y-91832500D01*
X179672646Y-91832500D01*
X179857803Y-91793144D01*
X180030730Y-91716151D01*
X180183871Y-91604888D01*
X180187276Y-91601106D01*
X180189600Y-91598526D01*
X180249087Y-91561879D01*
X180281748Y-91557500D01*
X182051548Y-91557500D01*
X182118587Y-91577185D01*
X182139229Y-91593819D01*
X184149164Y-93603755D01*
X184182649Y-93665078D01*
X184181258Y-93723528D01*
X184168966Y-93769403D01*
X184168965Y-93769410D01*
X184149666Y-93989998D01*
X184149666Y-93990003D01*
X184156892Y-94072605D01*
X184143125Y-94141105D01*
X184094509Y-94191287D01*
X184026480Y-94207220D01*
X183960637Y-94183844D01*
X183945683Y-94171092D01*
X182735803Y-92961212D01*
X182725980Y-92948950D01*
X182725759Y-92949134D01*
X182720786Y-92943123D01*
X182700818Y-92924372D01*
X182670364Y-92895773D01*
X182659919Y-92885328D01*
X182649475Y-92874883D01*
X182643986Y-92870625D01*
X182639561Y-92866847D01*
X182605582Y-92834938D01*
X182605580Y-92834936D01*
X182605577Y-92834935D01*
X182588029Y-92825288D01*
X182571763Y-92814604D01*
X182555933Y-92802325D01*
X182513168Y-92783818D01*
X182507922Y-92781248D01*
X182467093Y-92758803D01*
X182467092Y-92758802D01*
X182447693Y-92753822D01*
X182429281Y-92747518D01*
X182410898Y-92739562D01*
X182410892Y-92739560D01*
X182364874Y-92732272D01*
X182359152Y-92731087D01*
X182314021Y-92719500D01*
X182314019Y-92719500D01*
X182293984Y-92719500D01*
X182274586Y-92717973D01*
X182267162Y-92716797D01*
X182254805Y-92714840D01*
X182254804Y-92714840D01*
X182208416Y-92719225D01*
X182202578Y-92719500D01*
X176474188Y-92719500D01*
X176407149Y-92699815D01*
X176372613Y-92666623D01*
X176260045Y-92505858D01*
X176099141Y-92344954D01*
X175912734Y-92214432D01*
X175912732Y-92214431D01*
X175706497Y-92118261D01*
X175706488Y-92118258D01*
X175486697Y-92059366D01*
X175486693Y-92059365D01*
X175486692Y-92059365D01*
X175486691Y-92059364D01*
X175486686Y-92059364D01*
X175260002Y-92039532D01*
X175259998Y-92039532D01*
X175033313Y-92059364D01*
X175033302Y-92059366D01*
X174813511Y-92118258D01*
X174813502Y-92118261D01*
X174607267Y-92214431D01*
X174607265Y-92214432D01*
X174420858Y-92344954D01*
X174259954Y-92505858D01*
X174129432Y-92692265D01*
X174129431Y-92692267D01*
X174033261Y-92898502D01*
X174033258Y-92898511D01*
X173974366Y-93118302D01*
X173974364Y-93118313D01*
X173954532Y-93344998D01*
X173954532Y-93345001D01*
X173974364Y-93571686D01*
X173974366Y-93571697D01*
X174033258Y-93791488D01*
X174033261Y-93791497D01*
X174129431Y-93997732D01*
X174129432Y-93997734D01*
X174259954Y-94184141D01*
X174420858Y-94345045D01*
X174420861Y-94345047D01*
X174607266Y-94475568D01*
X174813504Y-94571739D01*
X174813509Y-94571740D01*
X174813511Y-94571741D01*
X174858188Y-94583712D01*
X175033308Y-94630635D01*
X175190780Y-94644412D01*
X175259998Y-94650468D01*
X175260000Y-94650468D01*
X175260002Y-94650468D01*
X175329220Y-94644412D01*
X175486692Y-94630635D01*
X175706496Y-94571739D01*
X175912734Y-94475568D01*
X176099139Y-94345047D01*
X176260047Y-94184139D01*
X176372613Y-94023377D01*
X176427189Y-93979752D01*
X176474188Y-93970500D01*
X181924548Y-93970500D01*
X181991587Y-93990185D01*
X182012229Y-94006819D01*
X184149164Y-96143755D01*
X184182649Y-96205078D01*
X184181258Y-96263528D01*
X184168966Y-96309403D01*
X184168965Y-96309410D01*
X184149666Y-96529998D01*
X184149666Y-96530001D01*
X184168964Y-96750585D01*
X184168965Y-96750592D01*
X184226275Y-96964475D01*
X184226279Y-96964486D01*
X184298578Y-97119532D01*
X184319858Y-97165167D01*
X184446868Y-97346555D01*
X184603445Y-97503132D01*
X184784833Y-97630142D01*
X184846828Y-97659050D01*
X184908091Y-97687618D01*
X184960531Y-97733790D01*
X184979683Y-97800983D01*
X184959467Y-97867865D01*
X184908091Y-97912382D01*
X184784836Y-97969856D01*
X184784834Y-97969857D01*
X184603444Y-98096868D01*
X184446868Y-98253444D01*
X184446853Y-98253466D01*
X184350112Y-98391625D01*
X184295537Y-98435249D01*
X184248539Y-98444500D01*
X178004752Y-98444500D01*
X177937713Y-98424815D01*
X177912603Y-98403473D01*
X177897871Y-98387112D01*
X177897864Y-98387106D01*
X177744734Y-98275851D01*
X177744729Y-98275848D01*
X177571807Y-98198857D01*
X177571802Y-98198855D01*
X177426001Y-98167865D01*
X177386646Y-98159500D01*
X177197354Y-98159500D01*
X177164897Y-98166398D01*
X177012197Y-98198855D01*
X177012192Y-98198857D01*
X176839270Y-98275848D01*
X176839265Y-98275851D01*
X176746873Y-98342978D01*
X176681066Y-98366458D01*
X176613013Y-98350632D01*
X176564318Y-98300526D01*
X176550461Y-98253469D01*
X176545635Y-98198308D01*
X176487333Y-97980720D01*
X176486741Y-97978511D01*
X176486738Y-97978502D01*
X176455950Y-97912477D01*
X176390568Y-97772266D01*
X176260047Y-97585861D01*
X176260045Y-97585858D01*
X176099141Y-97424954D01*
X175912734Y-97294432D01*
X175912732Y-97294431D01*
X175706497Y-97198261D01*
X175706488Y-97198258D01*
X175486697Y-97139366D01*
X175486693Y-97139365D01*
X175486692Y-97139365D01*
X175486691Y-97139364D01*
X175486686Y-97139364D01*
X175260002Y-97119532D01*
X175259998Y-97119532D01*
X175033313Y-97139364D01*
X175033302Y-97139366D01*
X174813511Y-97198258D01*
X174813502Y-97198261D01*
X174607267Y-97294431D01*
X174607265Y-97294432D01*
X174420858Y-97424954D01*
X174259954Y-97585858D01*
X174129432Y-97772265D01*
X174129431Y-97772267D01*
X174033261Y-97978502D01*
X174033258Y-97978511D01*
X173974366Y-98198302D01*
X173974364Y-98198313D01*
X173954532Y-98424998D01*
X173954532Y-98425001D01*
X173974364Y-98651686D01*
X173974366Y-98651697D01*
X174033258Y-98871488D01*
X174033261Y-98871497D01*
X174129431Y-99077732D01*
X174129432Y-99077734D01*
X174259954Y-99264141D01*
X174420858Y-99425045D01*
X174420861Y-99425047D01*
X174607266Y-99555568D01*
X174813504Y-99651739D01*
X175033308Y-99710635D01*
X175195230Y-99724801D01*
X175259998Y-99730468D01*
X175260000Y-99730468D01*
X175260002Y-99730468D01*
X175316673Y-99725509D01*
X175486692Y-99710635D01*
X175706496Y-99651739D01*
X175912734Y-99555568D01*
X176099139Y-99425047D01*
X176231266Y-99292919D01*
X176292587Y-99259436D01*
X176362279Y-99264420D01*
X176418213Y-99306291D01*
X176436877Y-99342283D01*
X176464819Y-99428280D01*
X176464821Y-99428284D01*
X176559467Y-99592216D01*
X176666092Y-99710635D01*
X176686129Y-99732888D01*
X176839265Y-99844148D01*
X176839270Y-99844151D01*
X177012192Y-99921142D01*
X177012197Y-99921144D01*
X177197354Y-99960500D01*
X177197355Y-99960500D01*
X177386644Y-99960500D01*
X177386646Y-99960500D01*
X177571803Y-99921144D01*
X177744730Y-99844151D01*
X177897871Y-99732888D01*
X177897874Y-99732883D01*
X177902701Y-99728539D01*
X177904432Y-99730461D01*
X177954104Y-99699873D01*
X177986744Y-99695500D01*
X184248539Y-99695500D01*
X184315578Y-99715185D01*
X184350112Y-99748374D01*
X184446868Y-99886555D01*
X184603445Y-100043132D01*
X184784833Y-100170142D01*
X184846828Y-100199050D01*
X184908091Y-100227618D01*
X184960531Y-100273790D01*
X184979683Y-100340983D01*
X184959467Y-100407865D01*
X184908091Y-100452382D01*
X184784836Y-100509856D01*
X184784834Y-100509857D01*
X184603444Y-100636868D01*
X184446868Y-100793444D01*
X184319857Y-100974834D01*
X184319856Y-100974836D01*
X184226279Y-101175513D01*
X184226275Y-101175524D01*
X184168965Y-101389407D01*
X184168964Y-101389414D01*
X184149666Y-101609998D01*
X184149666Y-101610001D01*
X184168964Y-101830585D01*
X184168965Y-101830592D01*
X184226275Y-102044475D01*
X184226279Y-102044486D01*
X184319856Y-102245163D01*
X184319858Y-102245167D01*
X184446868Y-102426555D01*
X184603445Y-102583132D01*
X184784833Y-102710142D01*
X184846828Y-102739050D01*
X184908091Y-102767618D01*
X184960531Y-102813790D01*
X184979683Y-102880983D01*
X184959467Y-102947865D01*
X184908091Y-102992382D01*
X184784836Y-103049856D01*
X184784834Y-103049857D01*
X184603444Y-103176868D01*
X184446868Y-103333444D01*
X184319857Y-103514834D01*
X184319856Y-103514836D01*
X184226279Y-103715513D01*
X184226275Y-103715524D01*
X184168965Y-103929407D01*
X184168964Y-103929414D01*
X184149666Y-104149998D01*
X184149666Y-104150001D01*
X184168964Y-104370585D01*
X184168965Y-104370592D01*
X184226275Y-104584475D01*
X184226279Y-104584486D01*
X184277528Y-104694390D01*
X184319858Y-104785167D01*
X184446868Y-104966555D01*
X184603445Y-105123132D01*
X184784833Y-105250142D01*
X184828013Y-105270277D01*
X184908091Y-105307618D01*
X184960531Y-105353790D01*
X184979683Y-105420983D01*
X184959467Y-105487865D01*
X184908091Y-105532382D01*
X184784836Y-105589856D01*
X184784834Y-105589857D01*
X184603444Y-105716868D01*
X184446868Y-105873444D01*
X184319857Y-106054834D01*
X184319856Y-106054836D01*
X184226279Y-106255513D01*
X184226275Y-106255524D01*
X184168965Y-106469407D01*
X184168964Y-106469414D01*
X184149666Y-106689998D01*
X184149666Y-106690001D01*
X184168964Y-106910585D01*
X184168965Y-106910592D01*
X184226275Y-107124475D01*
X184226279Y-107124486D01*
X184306427Y-107296364D01*
X184319858Y-107325167D01*
X184446868Y-107506555D01*
X184603445Y-107663132D01*
X184784833Y-107790142D01*
X184905572Y-107846443D01*
X184985513Y-107883720D01*
X184985515Y-107883720D01*
X184985520Y-107883723D01*
X185199409Y-107941035D01*
X185356974Y-107954820D01*
X185419998Y-107960334D01*
X185420000Y-107960334D01*
X185420002Y-107960334D01*
X185475147Y-107955509D01*
X185640591Y-107941035D01*
X185854480Y-107883723D01*
X186055167Y-107790142D01*
X186236555Y-107663132D01*
X186393132Y-107506555D01*
X186520142Y-107325167D01*
X186613723Y-107124480D01*
X186671035Y-106910591D01*
X186690334Y-106690000D01*
X186690052Y-106686781D01*
X186674469Y-106508663D01*
X186671035Y-106469409D01*
X186613723Y-106255520D01*
X186520142Y-106054833D01*
X186393132Y-105873445D01*
X186236555Y-105716868D01*
X186055167Y-105589858D01*
X186036893Y-105581337D01*
X185931908Y-105532382D01*
X185879468Y-105486210D01*
X185860316Y-105419017D01*
X185880531Y-105352136D01*
X185931908Y-105307618D01*
X186055167Y-105250142D01*
X186236555Y-105123132D01*
X186393132Y-104966555D01*
X186520142Y-104785167D01*
X186613723Y-104584480D01*
X186671035Y-104370591D01*
X186690334Y-104150000D01*
X186671035Y-103929409D01*
X186613723Y-103715520D01*
X186520142Y-103514833D01*
X186393132Y-103333445D01*
X186236555Y-103176868D01*
X186055167Y-103049858D01*
X185931907Y-102992381D01*
X185879468Y-102946210D01*
X185860316Y-102879017D01*
X185880531Y-102812136D01*
X185931908Y-102767618D01*
X186055167Y-102710142D01*
X186236555Y-102583132D01*
X186393132Y-102426555D01*
X186520142Y-102245167D01*
X186613723Y-102044480D01*
X186671035Y-101830591D01*
X186690334Y-101610000D01*
X186671035Y-101389409D01*
X186613723Y-101175520D01*
X186520142Y-100974833D01*
X186393132Y-100793445D01*
X186236555Y-100636868D01*
X186055167Y-100509858D01*
X185931907Y-100452381D01*
X185879468Y-100406210D01*
X185860316Y-100339017D01*
X185880531Y-100272136D01*
X185931908Y-100227618D01*
X186055167Y-100170142D01*
X186236555Y-100043132D01*
X186393132Y-99886555D01*
X186520142Y-99705167D01*
X186613723Y-99504480D01*
X186671035Y-99290591D01*
X186690334Y-99070000D01*
X186687929Y-99042516D01*
X186678023Y-98929282D01*
X186671035Y-98849409D01*
X186613723Y-98635520D01*
X186610748Y-98629141D01*
X186563485Y-98527784D01*
X186520142Y-98434833D01*
X186393132Y-98253445D01*
X186236555Y-98096868D01*
X186055167Y-97969858D01*
X185931907Y-97912381D01*
X185879468Y-97866210D01*
X185860316Y-97799017D01*
X185880531Y-97732136D01*
X185931908Y-97687618D01*
X186055167Y-97630142D01*
X186236555Y-97503132D01*
X186393132Y-97346555D01*
X186520142Y-97165167D01*
X186613723Y-96964480D01*
X186671035Y-96750591D01*
X186690334Y-96530000D01*
X186687734Y-96500287D01*
X186677908Y-96387967D01*
X186671035Y-96309409D01*
X186613723Y-96095520D01*
X186610748Y-96089141D01*
X186558608Y-95977325D01*
X186520142Y-95894833D01*
X186393132Y-95713445D01*
X186236555Y-95556868D01*
X186055167Y-95429858D01*
X185931907Y-95372381D01*
X185879468Y-95326210D01*
X185860316Y-95259017D01*
X185880531Y-95192136D01*
X185931908Y-95147618D01*
X186055167Y-95090142D01*
X186236555Y-94963132D01*
X186393132Y-94806555D01*
X186520142Y-94625167D01*
X186613723Y-94424480D01*
X186671035Y-94210591D01*
X186690334Y-93990000D01*
X186689437Y-93979752D01*
X186680789Y-93880901D01*
X186671035Y-93769409D01*
X186613723Y-93555520D01*
X186520142Y-93354833D01*
X186393132Y-93173445D01*
X186236555Y-93016868D01*
X186055167Y-92889858D01*
X185931907Y-92832381D01*
X185879468Y-92786210D01*
X185860316Y-92719017D01*
X185880531Y-92652136D01*
X185931908Y-92607618D01*
X186055167Y-92550142D01*
X186236555Y-92423132D01*
X186393132Y-92266555D01*
X186520142Y-92085167D01*
X186613723Y-91884480D01*
X186671035Y-91670591D01*
X186690334Y-91450000D01*
X186687936Y-91422596D01*
X186682865Y-91364630D01*
X186671035Y-91229409D01*
X186613723Y-91015520D01*
X186520142Y-90814833D01*
X186393132Y-90633445D01*
X186236555Y-90476868D01*
X186055167Y-90349858D01*
X185989574Y-90319272D01*
X185931908Y-90292382D01*
X185879468Y-90246210D01*
X185860316Y-90179017D01*
X185880531Y-90112136D01*
X185931908Y-90067618D01*
X186055167Y-90010142D01*
X186236555Y-89883132D01*
X186393132Y-89726555D01*
X186520142Y-89545167D01*
X186613723Y-89344480D01*
X186671035Y-89130591D01*
X186690290Y-88910499D01*
X186690334Y-88910001D01*
X186690334Y-88909998D01*
X186677871Y-88767544D01*
X186671035Y-88689409D01*
X186613723Y-88475520D01*
X186610748Y-88469141D01*
X186537688Y-88312461D01*
X186520142Y-88274833D01*
X186393132Y-88093445D01*
X186236555Y-87936868D01*
X186055167Y-87809858D01*
X186036908Y-87801344D01*
X185968470Y-87769431D01*
X185931907Y-87752381D01*
X185879468Y-87706210D01*
X185860316Y-87639017D01*
X185880531Y-87572136D01*
X185931908Y-87527618D01*
X186055167Y-87470142D01*
X186236555Y-87343132D01*
X186393132Y-87186555D01*
X186520142Y-87005167D01*
X186613723Y-86804480D01*
X186671035Y-86590591D01*
X186690334Y-86370000D01*
X186689437Y-86359752D01*
X186679354Y-86244500D01*
X186671035Y-86149409D01*
X186613723Y-85935520D01*
X186520142Y-85734833D01*
X186393132Y-85553445D01*
X186236555Y-85396868D01*
X186055167Y-85269858D01*
X186036908Y-85261344D01*
X185957527Y-85224328D01*
X185931907Y-85212381D01*
X185879468Y-85166210D01*
X185860316Y-85099017D01*
X185880531Y-85032136D01*
X185931908Y-84987618D01*
X186055167Y-84930142D01*
X186236555Y-84803132D01*
X186393132Y-84646555D01*
X186520142Y-84465167D01*
X186613723Y-84264480D01*
X186671035Y-84050591D01*
X186690334Y-83830000D01*
X186671035Y-83609409D01*
X186613723Y-83395520D01*
X186602231Y-83370876D01*
X186544929Y-83247989D01*
X186520142Y-83194833D01*
X186393132Y-83013445D01*
X186236555Y-82856868D01*
X186055167Y-82729858D01*
X185931907Y-82672381D01*
X185879468Y-82626210D01*
X185860316Y-82559017D01*
X185880531Y-82492136D01*
X185931908Y-82447618D01*
X186055167Y-82390142D01*
X186236555Y-82263132D01*
X186393132Y-82106555D01*
X186520142Y-81925167D01*
X186613723Y-81724480D01*
X186671035Y-81510591D01*
X186690096Y-81292716D01*
X186690334Y-81290001D01*
X186690334Y-81289998D01*
X186679438Y-81165454D01*
X186671035Y-81069409D01*
X186613723Y-80855520D01*
X186520142Y-80654833D01*
X186393132Y-80473445D01*
X186236555Y-80316868D01*
X186055167Y-80189858D01*
X185931907Y-80132381D01*
X185879468Y-80086210D01*
X185860316Y-80019017D01*
X185880531Y-79952136D01*
X185931908Y-79907618D01*
X186055167Y-79850142D01*
X186236555Y-79723132D01*
X186393132Y-79566555D01*
X186520142Y-79385167D01*
X186613723Y-79184480D01*
X186671035Y-78970591D01*
X186690334Y-78750000D01*
X186671035Y-78529409D01*
X186613723Y-78315520D01*
X186520142Y-78114833D01*
X186393132Y-77933445D01*
X186236555Y-77776868D01*
X186055167Y-77649858D01*
X186055163Y-77649856D01*
X185931317Y-77592106D01*
X185878877Y-77545934D01*
X185859725Y-77478741D01*
X185879941Y-77411859D01*
X185931317Y-77367342D01*
X186054912Y-77309708D01*
X186054914Y-77309707D01*
X186120342Y-77263894D01*
X185561366Y-76704918D01*
X185565161Y-76704373D01*
X185698562Y-76643451D01*
X185809395Y-76547413D01*
X185888682Y-76424040D01*
X185911132Y-76347580D01*
X186473894Y-76910342D01*
X186519706Y-76844915D01*
X186613250Y-76644309D01*
X186613254Y-76644300D01*
X186670538Y-76430509D01*
X186670540Y-76430499D01*
X186689832Y-76210000D01*
X186689832Y-76209999D01*
X186670540Y-75989500D01*
X186670538Y-75989490D01*
X186613254Y-75775699D01*
X186613250Y-75775690D01*
X186519707Y-75575085D01*
X186519706Y-75575083D01*
X186473894Y-75509657D01*
X186473894Y-75509656D01*
X185911132Y-76072418D01*
X185888682Y-75995960D01*
X185809395Y-75872587D01*
X185698562Y-75776549D01*
X185565161Y-75715627D01*
X185561364Y-75715081D01*
X186120342Y-75156104D01*
X186120341Y-75156103D01*
X186054919Y-75110295D01*
X185931316Y-75052657D01*
X185878877Y-75006484D01*
X185859725Y-74939291D01*
X185879941Y-74872410D01*
X185931312Y-74827895D01*
X186055167Y-74770142D01*
X186236555Y-74643132D01*
X186393132Y-74486555D01*
X186520142Y-74305167D01*
X186613723Y-74104480D01*
X186671035Y-73890591D01*
X186690334Y-73670000D01*
X186689608Y-73661706D01*
X186678314Y-73532611D01*
X186671035Y-73449409D01*
X186613723Y-73235520D01*
X186520142Y-73034833D01*
X186393132Y-72853445D01*
X186236555Y-72696868D01*
X186055167Y-72569858D01*
X185931907Y-72512381D01*
X185879468Y-72466210D01*
X185860316Y-72399017D01*
X185880531Y-72332136D01*
X185931908Y-72287618D01*
X185932770Y-72287216D01*
X186055167Y-72230142D01*
X186236555Y-72103132D01*
X186393132Y-71946555D01*
X186520142Y-71765167D01*
X186613723Y-71564480D01*
X186671035Y-71350591D01*
X186690334Y-71130000D01*
X186671035Y-70909409D01*
X186613723Y-70695520D01*
X186520142Y-70494833D01*
X186393132Y-70313445D01*
X186236555Y-70156868D01*
X186055167Y-70029858D01*
X186052681Y-70028699D01*
X185931908Y-69972382D01*
X185879468Y-69926210D01*
X185860316Y-69859017D01*
X185880531Y-69792136D01*
X185931908Y-69747618D01*
X186055167Y-69690142D01*
X186236555Y-69563132D01*
X186393132Y-69406555D01*
X186520142Y-69225167D01*
X186613723Y-69024480D01*
X186671035Y-68810591D01*
X186690334Y-68590000D01*
X186689117Y-68576094D01*
X186671035Y-68369414D01*
X186671035Y-68369409D01*
X186613723Y-68155520D01*
X186609012Y-68145418D01*
X186561174Y-68042828D01*
X186520142Y-67954833D01*
X186393132Y-67773445D01*
X186236555Y-67616868D01*
X186055167Y-67489858D01*
X186038019Y-67481862D01*
X185931908Y-67432382D01*
X185879468Y-67386210D01*
X185860316Y-67319017D01*
X185880531Y-67252136D01*
X185931908Y-67207618D01*
X186055167Y-67150142D01*
X186236555Y-67023132D01*
X186393132Y-66866555D01*
X186520142Y-66685167D01*
X186613723Y-66484480D01*
X186671035Y-66270591D01*
X186690334Y-66050000D01*
X186671035Y-65829409D01*
X186613723Y-65615520D01*
X186520142Y-65414833D01*
X186393132Y-65233445D01*
X186236555Y-65076868D01*
X186055167Y-64949858D01*
X186040187Y-64942873D01*
X185931908Y-64892382D01*
X185879468Y-64846210D01*
X185860316Y-64779017D01*
X185880531Y-64712136D01*
X185931908Y-64667618D01*
X186055167Y-64610142D01*
X186236555Y-64483132D01*
X186393132Y-64326555D01*
X186520142Y-64145167D01*
X186613723Y-63944480D01*
X186671035Y-63730591D01*
X186690334Y-63510000D01*
X186671035Y-63289409D01*
X186613723Y-63075520D01*
X186520142Y-62874833D01*
X186393132Y-62693445D01*
X186236555Y-62536868D01*
X186055167Y-62409858D01*
X186055163Y-62409856D01*
X185931317Y-62352106D01*
X185878877Y-62305934D01*
X185859725Y-62238741D01*
X185879941Y-62171859D01*
X185931317Y-62127342D01*
X186054912Y-62069708D01*
X186054914Y-62069707D01*
X186120342Y-62023894D01*
X185561366Y-61464918D01*
X185565161Y-61464373D01*
X185698562Y-61403451D01*
X185809395Y-61307413D01*
X185888682Y-61184040D01*
X185911132Y-61107580D01*
X186473894Y-61670342D01*
X186519706Y-61604915D01*
X186613250Y-61404309D01*
X186613254Y-61404300D01*
X186670538Y-61190509D01*
X186670540Y-61190499D01*
X186689832Y-60970000D01*
X186689832Y-60969999D01*
X186670540Y-60749500D01*
X186670538Y-60749490D01*
X186613254Y-60535699D01*
X186613250Y-60535690D01*
X186519707Y-60335085D01*
X186519706Y-60335083D01*
X186473894Y-60269657D01*
X186473894Y-60269656D01*
X185911132Y-60832418D01*
X185888682Y-60755960D01*
X185809395Y-60632587D01*
X185698562Y-60536549D01*
X185565161Y-60475627D01*
X185561366Y-60475081D01*
X186120342Y-59916105D01*
X186120341Y-59916103D01*
X186054919Y-59870295D01*
X185854309Y-59776749D01*
X185854300Y-59776745D01*
X185640509Y-59719461D01*
X185640499Y-59719459D01*
X185420001Y-59700168D01*
X185419999Y-59700168D01*
X185199500Y-59719459D01*
X185199490Y-59719461D01*
X184985699Y-59776745D01*
X184985690Y-59776749D01*
X184785084Y-59870293D01*
X184719657Y-59916104D01*
X185278634Y-60475081D01*
X185274839Y-60475627D01*
X185141438Y-60536549D01*
X185030605Y-60632587D01*
X184951318Y-60755960D01*
X184928866Y-60832419D01*
X184366104Y-60269657D01*
X184320293Y-60335084D01*
X184226749Y-60535690D01*
X184226745Y-60535699D01*
X184169461Y-60749490D01*
X184169459Y-60749500D01*
X184150168Y-60969999D01*
X184150168Y-60970000D01*
X184169459Y-61190499D01*
X184169461Y-61190509D01*
X184226745Y-61404300D01*
X184226749Y-61404309D01*
X184320295Y-61604919D01*
X184366103Y-61670341D01*
X184366105Y-61670342D01*
X184928866Y-61107580D01*
X184951318Y-61184040D01*
X185030605Y-61307413D01*
X185141438Y-61403451D01*
X185274839Y-61464373D01*
X185278633Y-61464918D01*
X184719656Y-62023894D01*
X184785083Y-62069706D01*
X184785085Y-62069707D01*
X184908683Y-62127342D01*
X184961122Y-62173514D01*
X184980274Y-62240708D01*
X184960058Y-62307589D01*
X184908683Y-62352106D01*
X184784833Y-62409857D01*
X184603444Y-62536868D01*
X184446868Y-62693444D01*
X184319857Y-62874834D01*
X184319856Y-62874836D01*
X184226279Y-63075513D01*
X184226275Y-63075524D01*
X184168965Y-63289407D01*
X184168964Y-63289414D01*
X184149666Y-63509998D01*
X184149666Y-63510001D01*
X184168964Y-63730585D01*
X184168966Y-63730596D01*
X184181258Y-63776469D01*
X184179595Y-63846318D01*
X184149164Y-63896243D01*
X182476432Y-65568975D01*
X182415109Y-65602460D01*
X182345417Y-65597476D01*
X182317628Y-65582869D01*
X182262734Y-65544432D01*
X182262728Y-65544429D01*
X182204725Y-65517382D01*
X182152285Y-65471210D01*
X182133133Y-65404017D01*
X182153348Y-65337135D01*
X182204725Y-65292618D01*
X182262734Y-65265568D01*
X182449139Y-65135047D01*
X182610047Y-64974139D01*
X182740568Y-64787734D01*
X182836739Y-64581496D01*
X182895635Y-64361692D01*
X182915468Y-64135000D01*
X182895635Y-63908308D01*
X182836739Y-63688504D01*
X182740568Y-63482266D01*
X182610047Y-63295861D01*
X182610045Y-63295858D01*
X182449141Y-63134954D01*
X182262734Y-63004432D01*
X182262728Y-63004429D01*
X182204725Y-62977382D01*
X182152285Y-62931210D01*
X182133133Y-62864017D01*
X182153348Y-62797135D01*
X182204725Y-62752618D01*
X182262734Y-62725568D01*
X182449139Y-62595047D01*
X182610047Y-62434139D01*
X182740568Y-62247734D01*
X182836739Y-62041496D01*
X182895635Y-61821692D01*
X182915468Y-61595000D01*
X182895635Y-61368308D01*
X182836739Y-61148504D01*
X182740568Y-60942266D01*
X182621168Y-60771744D01*
X182610045Y-60755858D01*
X182449141Y-60594954D01*
X182262734Y-60464432D01*
X182262732Y-60464431D01*
X182056497Y-60368261D01*
X182056488Y-60368258D01*
X181836697Y-60309366D01*
X181836693Y-60309365D01*
X181836692Y-60309365D01*
X181836691Y-60309364D01*
X181836686Y-60309364D01*
X181610002Y-60289532D01*
X181609998Y-60289532D01*
X181383313Y-60309364D01*
X181383302Y-60309366D01*
X181163511Y-60368258D01*
X181163502Y-60368261D01*
X180957267Y-60464431D01*
X180957265Y-60464432D01*
X180770858Y-60594954D01*
X180609954Y-60755858D01*
X180497387Y-60916623D01*
X180442811Y-60960248D01*
X180395812Y-60969500D01*
X173691743Y-60969500D01*
X173676122Y-60967775D01*
X173676096Y-60968061D01*
X173668334Y-60967327D01*
X173668333Y-60967327D01*
X173599186Y-60969500D01*
X173569649Y-60969500D01*
X173562766Y-60970369D01*
X173556949Y-60970826D01*
X173510373Y-60972290D01*
X173491129Y-60977881D01*
X173472079Y-60981825D01*
X173452211Y-60984334D01*
X173408884Y-61001488D01*
X173403358Y-61003379D01*
X173358614Y-61016379D01*
X173358610Y-61016381D01*
X173341366Y-61026579D01*
X173323905Y-61035133D01*
X173305274Y-61042510D01*
X173305262Y-61042517D01*
X173267570Y-61069902D01*
X173262687Y-61073109D01*
X173222580Y-61096829D01*
X173208414Y-61110995D01*
X173193624Y-61123627D01*
X173177414Y-61135404D01*
X173177411Y-61135407D01*
X173147710Y-61171309D01*
X173143777Y-61175631D01*
X168479628Y-65839781D01*
X168418305Y-65873266D01*
X168391947Y-65876100D01*
X168358154Y-65876100D01*
X168329103Y-65882275D01*
X168172997Y-65915455D01*
X168172992Y-65915457D01*
X168000070Y-65992448D01*
X168000065Y-65992451D01*
X167846929Y-66103711D01*
X167720266Y-66244385D01*
X167625621Y-66408315D01*
X167625618Y-66408322D01*
X167587431Y-66525851D01*
X167567126Y-66588344D01*
X167547340Y-66776600D01*
X167567126Y-66964856D01*
X167567127Y-66964859D01*
X167625618Y-67144877D01*
X167625621Y-67144884D01*
X167720267Y-67308816D01*
X167814036Y-67412957D01*
X167846929Y-67449488D01*
X168000065Y-67560748D01*
X168000070Y-67560751D01*
X168172992Y-67637742D01*
X168172997Y-67637744D01*
X168358154Y-67677100D01*
X168358155Y-67677100D01*
X168547444Y-67677100D01*
X168547446Y-67677100D01*
X168732603Y-67637744D01*
X168905530Y-67560751D01*
X168920574Y-67549821D01*
X168926014Y-67545869D01*
X168991820Y-67522388D01*
X169059874Y-67538213D01*
X169071786Y-67545869D01*
X169092268Y-67560750D01*
X169265192Y-67637742D01*
X169265197Y-67637744D01*
X169450354Y-67677100D01*
X169450355Y-67677100D01*
X169639644Y-67677100D01*
X169639646Y-67677100D01*
X169824803Y-67637744D01*
X169997730Y-67560751D01*
X170030914Y-67536640D01*
X170096720Y-67513161D01*
X170164774Y-67528986D01*
X170176683Y-67536639D01*
X170189387Y-67545869D01*
X170209871Y-67560752D01*
X170382792Y-67637742D01*
X170382797Y-67637744D01*
X170567954Y-67677100D01*
X170567955Y-67677100D01*
X170757244Y-67677100D01*
X170757246Y-67677100D01*
X170942403Y-67637744D01*
X171115330Y-67560751D01*
X171268471Y-67449488D01*
X171365679Y-67341528D01*
X171425166Y-67304879D01*
X171457829Y-67300500D01*
X180395812Y-67300500D01*
X180462851Y-67320185D01*
X180497387Y-67353377D01*
X180609954Y-67514141D01*
X180770858Y-67675045D01*
X180770861Y-67675047D01*
X180957266Y-67805568D01*
X181015275Y-67832618D01*
X181067714Y-67878791D01*
X181086866Y-67945984D01*
X181066650Y-68012865D01*
X181015275Y-68057382D01*
X180957267Y-68084431D01*
X180957265Y-68084432D01*
X180770858Y-68214954D01*
X180609954Y-68375858D01*
X180479432Y-68562265D01*
X180479431Y-68562267D01*
X180383261Y-68768502D01*
X180383258Y-68768511D01*
X180324366Y-68988302D01*
X180324364Y-68988313D01*
X180304532Y-69214998D01*
X180304532Y-69215001D01*
X180324364Y-69441686D01*
X180324366Y-69441697D01*
X180383258Y-69661488D01*
X180383261Y-69661497D01*
X180479431Y-69867732D01*
X180479432Y-69867734D01*
X180609954Y-70054141D01*
X180770858Y-70215045D01*
X180817693Y-70247839D01*
X180957266Y-70345568D01*
X181015275Y-70372618D01*
X181067714Y-70418791D01*
X181086866Y-70485984D01*
X181066650Y-70552865D01*
X181015275Y-70597382D01*
X180957267Y-70624431D01*
X180957265Y-70624432D01*
X180770858Y-70754954D01*
X180609954Y-70915858D01*
X180497387Y-71076623D01*
X180442811Y-71120248D01*
X180395812Y-71129500D01*
X176852748Y-71129500D01*
X176785709Y-71109815D01*
X176760600Y-71088474D01*
X176754873Y-71082114D01*
X176754869Y-71082110D01*
X176601734Y-70970851D01*
X176601729Y-70970848D01*
X176428807Y-70893857D01*
X176428802Y-70893855D01*
X176283001Y-70862865D01*
X176243646Y-70854500D01*
X176054354Y-70854500D01*
X176021897Y-70861398D01*
X175869197Y-70893855D01*
X175869192Y-70893857D01*
X175696270Y-70970848D01*
X175696265Y-70970851D01*
X175543129Y-71082111D01*
X175416466Y-71222785D01*
X175321821Y-71386715D01*
X175321818Y-71386722D01*
X175263462Y-71566326D01*
X175263326Y-71566744D01*
X175243540Y-71755000D01*
X175263326Y-71943256D01*
X175263327Y-71943259D01*
X175321818Y-72123277D01*
X175321821Y-72123284D01*
X175416467Y-72287216D01*
X175518185Y-72400185D01*
X175543129Y-72427888D01*
X175696265Y-72539148D01*
X175696270Y-72539151D01*
X175869192Y-72616142D01*
X175869197Y-72616144D01*
X176054354Y-72655500D01*
X176054355Y-72655500D01*
X176243644Y-72655500D01*
X176243646Y-72655500D01*
X176428803Y-72616144D01*
X176601730Y-72539151D01*
X176754871Y-72427888D01*
X176757788Y-72424647D01*
X176760600Y-72421526D01*
X176820087Y-72384879D01*
X176852748Y-72380500D01*
X180395812Y-72380500D01*
X180462851Y-72400185D01*
X180497387Y-72433377D01*
X180609954Y-72594141D01*
X180770858Y-72755045D01*
X180814867Y-72785860D01*
X180957266Y-72885568D01*
X181015275Y-72912618D01*
X181067714Y-72958791D01*
X181086866Y-73025984D01*
X181066650Y-73092865D01*
X181015275Y-73137382D01*
X180957267Y-73164431D01*
X180957265Y-73164432D01*
X180770858Y-73294954D01*
X180609954Y-73455858D01*
X180497387Y-73616623D01*
X180442811Y-73660248D01*
X180395812Y-73669500D01*
X175917334Y-73669500D01*
X175850295Y-73649815D01*
X175825184Y-73628472D01*
X175814515Y-73616623D01*
X175738871Y-73532612D01*
X175721903Y-73520284D01*
X175585734Y-73421351D01*
X175585729Y-73421348D01*
X175412807Y-73344357D01*
X175412802Y-73344355D01*
X175254735Y-73310758D01*
X175227646Y-73305000D01*
X175038354Y-73305000D01*
X175011265Y-73310758D01*
X174853197Y-73344355D01*
X174853192Y-73344357D01*
X174680270Y-73421348D01*
X174680265Y-73421351D01*
X174527129Y-73532611D01*
X174400466Y-73673285D01*
X174305821Y-73837215D01*
X174305818Y-73837222D01*
X174251021Y-74005872D01*
X174247326Y-74017244D01*
X174228805Y-74193463D01*
X174202222Y-74258076D01*
X174144924Y-74298061D01*
X174105485Y-74304500D01*
X161315093Y-74304500D01*
X161248054Y-74284815D01*
X161202299Y-74232011D01*
X161192355Y-74162853D01*
X161202711Y-74128095D01*
X161213723Y-74104480D01*
X161271035Y-73890591D01*
X161290334Y-73670000D01*
X161289608Y-73661706D01*
X161278314Y-73532611D01*
X161271035Y-73449409D01*
X161213723Y-73235520D01*
X161120142Y-73034833D01*
X160993132Y-72853445D01*
X160836555Y-72696868D01*
X160655167Y-72569858D01*
X160531907Y-72512381D01*
X160479468Y-72466210D01*
X160460316Y-72399017D01*
X160480531Y-72332136D01*
X160531908Y-72287618D01*
X160532770Y-72287216D01*
X160655167Y-72230142D01*
X160836555Y-72103132D01*
X160993132Y-71946555D01*
X161120142Y-71765167D01*
X161213723Y-71564480D01*
X161271035Y-71350591D01*
X161290334Y-71130000D01*
X161271035Y-70909409D01*
X161260475Y-70869999D01*
X163821127Y-70869999D01*
X163821128Y-70870000D01*
X164784314Y-70870000D01*
X164772359Y-70881955D01*
X164714835Y-70994852D01*
X164695014Y-71120000D01*
X164714835Y-71245148D01*
X164772359Y-71358045D01*
X164784314Y-71370000D01*
X163821128Y-71370000D01*
X163873730Y-71566317D01*
X163873734Y-71566326D01*
X163969865Y-71772482D01*
X164100342Y-71958820D01*
X164261179Y-72119657D01*
X164447517Y-72250134D01*
X164653673Y-72346265D01*
X164653682Y-72346269D01*
X164849999Y-72398872D01*
X164850000Y-72398871D01*
X164850000Y-71435686D01*
X164861955Y-71447641D01*
X164974852Y-71505165D01*
X165068519Y-71520000D01*
X165131481Y-71520000D01*
X165225148Y-71505165D01*
X165338045Y-71447641D01*
X165350000Y-71435686D01*
X165350000Y-72398872D01*
X165546317Y-72346269D01*
X165546326Y-72346265D01*
X165752482Y-72250134D01*
X165938820Y-72119657D01*
X166099657Y-71958820D01*
X166230134Y-71772482D01*
X166326265Y-71566326D01*
X166326269Y-71566317D01*
X166378872Y-71370000D01*
X165415686Y-71370000D01*
X165427641Y-71358045D01*
X165485165Y-71245148D01*
X165504986Y-71120000D01*
X165485165Y-70994852D01*
X165427641Y-70881955D01*
X165415686Y-70870000D01*
X166378872Y-70870000D01*
X166378872Y-70869999D01*
X166326269Y-70673682D01*
X166326265Y-70673673D01*
X166230134Y-70467517D01*
X166099657Y-70281179D01*
X165938820Y-70120342D01*
X165752482Y-69989865D01*
X165546328Y-69893734D01*
X165350000Y-69841127D01*
X165350000Y-70804314D01*
X165338045Y-70792359D01*
X165225148Y-70734835D01*
X165131481Y-70720000D01*
X165068519Y-70720000D01*
X164974852Y-70734835D01*
X164861955Y-70792359D01*
X164850000Y-70804314D01*
X164850000Y-69841127D01*
X164653671Y-69893734D01*
X164447517Y-69989865D01*
X164261179Y-70120342D01*
X164100342Y-70281179D01*
X163969865Y-70467517D01*
X163873734Y-70673673D01*
X163873730Y-70673682D01*
X163821127Y-70869999D01*
X161260475Y-70869999D01*
X161213723Y-70695520D01*
X161120142Y-70494833D01*
X160993132Y-70313445D01*
X160836555Y-70156868D01*
X160655167Y-70029858D01*
X160652681Y-70028699D01*
X160531908Y-69972382D01*
X160479468Y-69926210D01*
X160460316Y-69859017D01*
X160480531Y-69792136D01*
X160531908Y-69747618D01*
X160655167Y-69690142D01*
X160836555Y-69563132D01*
X160993132Y-69406555D01*
X161120142Y-69225167D01*
X161213723Y-69024480D01*
X161271035Y-68810591D01*
X161290334Y-68590000D01*
X161289117Y-68576094D01*
X161271035Y-68369414D01*
X161271035Y-68369409D01*
X161213723Y-68155520D01*
X161209012Y-68145418D01*
X161161174Y-68042828D01*
X161120142Y-67954833D01*
X160993132Y-67773445D01*
X160836555Y-67616868D01*
X160655167Y-67489858D01*
X160638019Y-67481862D01*
X160531908Y-67432382D01*
X160479468Y-67386210D01*
X160460316Y-67319017D01*
X160480531Y-67252136D01*
X160531908Y-67207618D01*
X160655167Y-67150142D01*
X160836555Y-67023132D01*
X160993132Y-66866555D01*
X161120142Y-66685167D01*
X161213723Y-66484480D01*
X161271035Y-66270591D01*
X161290334Y-66050000D01*
X161271035Y-65829409D01*
X161213723Y-65615520D01*
X161120142Y-65414833D01*
X160993132Y-65233445D01*
X160836555Y-65076868D01*
X160655167Y-64949858D01*
X160640187Y-64942873D01*
X160531908Y-64892382D01*
X160479468Y-64846210D01*
X160460316Y-64779017D01*
X160480531Y-64712136D01*
X160531908Y-64667618D01*
X160655167Y-64610142D01*
X160836555Y-64483132D01*
X160993132Y-64326555D01*
X161120142Y-64145167D01*
X161213723Y-63944480D01*
X161271035Y-63730591D01*
X161290334Y-63510000D01*
X161271035Y-63289409D01*
X161213723Y-63075520D01*
X161120142Y-62874833D01*
X160993132Y-62693445D01*
X160836555Y-62536868D01*
X160836552Y-62536866D01*
X160836550Y-62536864D01*
X160777495Y-62495513D01*
X160728309Y-62461073D01*
X160684685Y-62406497D01*
X160677491Y-62336999D01*
X160709014Y-62274644D01*
X160769244Y-62239230D01*
X160799432Y-62235499D01*
X160832872Y-62235499D01*
X160892483Y-62229091D01*
X161027331Y-62178796D01*
X161142546Y-62092546D01*
X161228796Y-61977331D01*
X161279091Y-61842483D01*
X161285500Y-61782873D01*
X161285499Y-60157128D01*
X161279235Y-60098855D01*
X161279091Y-60097516D01*
X161228797Y-59962671D01*
X161228793Y-59962664D01*
X161142547Y-59847455D01*
X161142544Y-59847452D01*
X161027335Y-59761206D01*
X161027328Y-59761202D01*
X160892482Y-59710908D01*
X160892483Y-59710908D01*
X160832883Y-59704501D01*
X160832881Y-59704500D01*
X160832873Y-59704500D01*
X160832865Y-59704500D01*
X159690453Y-59704500D01*
X159623414Y-59684815D01*
X159602772Y-59668181D01*
X158986803Y-59052212D01*
X158976980Y-59039950D01*
X158976759Y-59040134D01*
X158971786Y-59034123D01*
X158921364Y-58986773D01*
X158910919Y-58976328D01*
X158900475Y-58965883D01*
X158894986Y-58961625D01*
X158890561Y-58957847D01*
X158856582Y-58925938D01*
X158856580Y-58925936D01*
X158856577Y-58925935D01*
X158839029Y-58916288D01*
X158822763Y-58905604D01*
X158806933Y-58893325D01*
X158764168Y-58874818D01*
X158758922Y-58872248D01*
X158718093Y-58849803D01*
X158718092Y-58849802D01*
X158698693Y-58844822D01*
X158680281Y-58838518D01*
X158661898Y-58830562D01*
X158661892Y-58830560D01*
X158615874Y-58823272D01*
X158610152Y-58822087D01*
X158565021Y-58810500D01*
X158565019Y-58810500D01*
X158544984Y-58810500D01*
X158525586Y-58808973D01*
X158518162Y-58807797D01*
X158505805Y-58805840D01*
X158505804Y-58805840D01*
X158459416Y-58810225D01*
X158453578Y-58810500D01*
X135577748Y-58810500D01*
X135510709Y-58790815D01*
X135485600Y-58769474D01*
X135479873Y-58763114D01*
X135479869Y-58763110D01*
X135326734Y-58651851D01*
X135326729Y-58651848D01*
X135153807Y-58574857D01*
X135153802Y-58574855D01*
X135008001Y-58543865D01*
X134968646Y-58535500D01*
X134779354Y-58535500D01*
X134746897Y-58542398D01*
X134594197Y-58574855D01*
X134594192Y-58574857D01*
X134421270Y-58651848D01*
X134421265Y-58651851D01*
X134268129Y-58763111D01*
X134141466Y-58903785D01*
X134046821Y-59067715D01*
X134046818Y-59067722D01*
X133988327Y-59247740D01*
X133988326Y-59247744D01*
X133968540Y-59436000D01*
X133988326Y-59624256D01*
X133988327Y-59624259D01*
X134046818Y-59804277D01*
X134046821Y-59804284D01*
X134141467Y-59968216D01*
X134210259Y-60044617D01*
X134217382Y-60052528D01*
X134247612Y-60115519D01*
X134238987Y-60184855D01*
X134194245Y-60238520D01*
X134127593Y-60259478D01*
X134125232Y-60259500D01*
X130529156Y-60259500D01*
X130462117Y-60239815D01*
X130456271Y-60235818D01*
X130373734Y-60175851D01*
X130373729Y-60175848D01*
X130200807Y-60098857D01*
X130200802Y-60098855D01*
X130025055Y-60061500D01*
X130015646Y-60059500D01*
X129826354Y-60059500D01*
X129816945Y-60061500D01*
X129641197Y-60098855D01*
X129641192Y-60098857D01*
X129468270Y-60175848D01*
X129468265Y-60175851D01*
X129315129Y-60287111D01*
X129188466Y-60427785D01*
X129093821Y-60591715D01*
X129093818Y-60591722D01*
X129035327Y-60771740D01*
X129035326Y-60771744D01*
X129015540Y-60960000D01*
X125730500Y-60960000D01*
X125730500Y-56388005D01*
X130900859Y-56388005D01*
X130921385Y-56635729D01*
X130921387Y-56635738D01*
X130982412Y-56876717D01*
X131082266Y-57104364D01*
X131182564Y-57257882D01*
X131880070Y-56560376D01*
X131882884Y-56573915D01*
X131952442Y-56708156D01*
X132055638Y-56818652D01*
X132184819Y-56897209D01*
X132236002Y-56911549D01*
X131535942Y-57611609D01*
X131582768Y-57648055D01*
X131582770Y-57648056D01*
X131801385Y-57766364D01*
X131801396Y-57766369D01*
X132036506Y-57847083D01*
X132281707Y-57888000D01*
X132530293Y-57888000D01*
X132775493Y-57847083D01*
X133010603Y-57766369D01*
X133010614Y-57766364D01*
X133229228Y-57648057D01*
X133229231Y-57648055D01*
X133276056Y-57611609D01*
X132577568Y-56913121D01*
X132694458Y-56862349D01*
X132811739Y-56766934D01*
X132898928Y-56643415D01*
X132929354Y-56557802D01*
X133629434Y-57257882D01*
X133729731Y-57104369D01*
X133829587Y-56876717D01*
X133890612Y-56635738D01*
X133890614Y-56635729D01*
X133911141Y-56388005D01*
X135400357Y-56388005D01*
X135420890Y-56635812D01*
X135420892Y-56635824D01*
X135481936Y-56876881D01*
X135581826Y-57104606D01*
X135717833Y-57312782D01*
X135717836Y-57312785D01*
X135886256Y-57495738D01*
X136082491Y-57648474D01*
X136082493Y-57648475D01*
X136300332Y-57766364D01*
X136301190Y-57766828D01*
X136520141Y-57841994D01*
X136534964Y-57847083D01*
X136536386Y-57847571D01*
X136781665Y-57888500D01*
X137030335Y-57888500D01*
X137275614Y-57847571D01*
X137510810Y-57766828D01*
X137729509Y-57648474D01*
X137925744Y-57495738D01*
X138094164Y-57312785D01*
X138230173Y-57104607D01*
X138330063Y-56876881D01*
X138391108Y-56635821D01*
X138396238Y-56573915D01*
X138411643Y-56388005D01*
X138411643Y-56388000D01*
X144694341Y-56388000D01*
X144714936Y-56623403D01*
X144714938Y-56623413D01*
X144776094Y-56851655D01*
X144776096Y-56851659D01*
X144776097Y-56851663D01*
X144797336Y-56897209D01*
X144875965Y-57065830D01*
X144875967Y-57065834D01*
X144984281Y-57220521D01*
X145011505Y-57259401D01*
X145178599Y-57426495D01*
X145255135Y-57480086D01*
X145372165Y-57562032D01*
X145372167Y-57562033D01*
X145372170Y-57562035D01*
X145586337Y-57661903D01*
X145814592Y-57723063D01*
X145985319Y-57738000D01*
X146049999Y-57743659D01*
X146050000Y-57743659D01*
X146050001Y-57743659D01*
X146114681Y-57738000D01*
X146285408Y-57723063D01*
X146513663Y-57661903D01*
X146727830Y-57562035D01*
X146921401Y-57426495D01*
X147043717Y-57304178D01*
X147105036Y-57270696D01*
X147174728Y-57275680D01*
X147230662Y-57317551D01*
X147247577Y-57348528D01*
X147296646Y-57480088D01*
X147296649Y-57480093D01*
X147382809Y-57595187D01*
X147382812Y-57595190D01*
X147497906Y-57681350D01*
X147497913Y-57681354D01*
X147632620Y-57731596D01*
X147632627Y-57731598D01*
X147692155Y-57737999D01*
X147692172Y-57738000D01*
X148340000Y-57738000D01*
X148340000Y-56823501D01*
X148447685Y-56872680D01*
X148554237Y-56888000D01*
X148625763Y-56888000D01*
X148732315Y-56872680D01*
X148840000Y-56823501D01*
X148840000Y-57738000D01*
X149487828Y-57738000D01*
X149487844Y-57737999D01*
X149547372Y-57731598D01*
X149547379Y-57731596D01*
X149682086Y-57681354D01*
X149682093Y-57681350D01*
X149797187Y-57595190D01*
X149797190Y-57595187D01*
X149810913Y-57576855D01*
X166912100Y-57576855D01*
X166952810Y-57742026D01*
X167031863Y-57892649D01*
X167031866Y-57892652D01*
X167144671Y-58019983D01*
X167234918Y-58082276D01*
X167284668Y-58116617D01*
X167284669Y-58116617D01*
X167284670Y-58116618D01*
X167443728Y-58176940D01*
X167519628Y-58186156D01*
X167570226Y-58192300D01*
X167570228Y-58192300D01*
X167654974Y-58192300D01*
X167697138Y-58187180D01*
X167781472Y-58176940D01*
X167940530Y-58116618D01*
X168080529Y-58019983D01*
X168193334Y-57892652D01*
X168195514Y-57888500D01*
X168259372Y-57766828D01*
X168272390Y-57742025D01*
X168313100Y-57576856D01*
X168313100Y-57576855D01*
X174912100Y-57576855D01*
X174952810Y-57742026D01*
X175031863Y-57892649D01*
X175031866Y-57892652D01*
X175144671Y-58019983D01*
X175234918Y-58082276D01*
X175284668Y-58116617D01*
X175284669Y-58116617D01*
X175284670Y-58116618D01*
X175443728Y-58176940D01*
X175519628Y-58186156D01*
X175570226Y-58192300D01*
X175570228Y-58192300D01*
X175654974Y-58192300D01*
X175697138Y-58187180D01*
X175781472Y-58176940D01*
X175940530Y-58116618D01*
X176080529Y-58019983D01*
X176193334Y-57892652D01*
X176195514Y-57888500D01*
X176259372Y-57766828D01*
X176272390Y-57742025D01*
X176313100Y-57576856D01*
X176313100Y-57406744D01*
X176272390Y-57241575D01*
X176272389Y-57241573D01*
X176193336Y-57090950D01*
X176171081Y-57065830D01*
X176080529Y-56963617D01*
X176021083Y-56922584D01*
X175940531Y-56866982D01*
X175781474Y-56806660D01*
X175781468Y-56806659D01*
X175654974Y-56791300D01*
X175654972Y-56791300D01*
X175570228Y-56791300D01*
X175570226Y-56791300D01*
X175443731Y-56806659D01*
X175443725Y-56806660D01*
X175284668Y-56866982D01*
X175144672Y-56963616D01*
X175031863Y-57090950D01*
X174952810Y-57241573D01*
X174912100Y-57406744D01*
X174912100Y-57576855D01*
X168313100Y-57576855D01*
X168313100Y-57406744D01*
X168272390Y-57241575D01*
X168272389Y-57241573D01*
X168193336Y-57090950D01*
X168171081Y-57065830D01*
X168080529Y-56963617D01*
X168021083Y-56922584D01*
X167940531Y-56866982D01*
X167781474Y-56806660D01*
X167781468Y-56806659D01*
X167654974Y-56791300D01*
X167654972Y-56791300D01*
X167570228Y-56791300D01*
X167570226Y-56791300D01*
X167443731Y-56806659D01*
X167443725Y-56806660D01*
X167284668Y-56866982D01*
X167144672Y-56963616D01*
X167031863Y-57090950D01*
X166952810Y-57241573D01*
X166912100Y-57406744D01*
X166912100Y-57576855D01*
X149810913Y-57576855D01*
X149883350Y-57480093D01*
X149883354Y-57480086D01*
X149933596Y-57345379D01*
X149933598Y-57345372D01*
X149939999Y-57285844D01*
X149940000Y-57285827D01*
X149940000Y-56638000D01*
X149023686Y-56638000D01*
X149049493Y-56597844D01*
X149090000Y-56459889D01*
X149090000Y-56316111D01*
X149049493Y-56178156D01*
X149023686Y-56138000D01*
X149940000Y-56138000D01*
X149940000Y-55490172D01*
X149939999Y-55490155D01*
X149933598Y-55430627D01*
X149933596Y-55430620D01*
X149883354Y-55295913D01*
X149883350Y-55295906D01*
X149797190Y-55180812D01*
X149797187Y-55180809D01*
X149682093Y-55094649D01*
X149682086Y-55094645D01*
X149547379Y-55044403D01*
X149547372Y-55044401D01*
X149487844Y-55038000D01*
X148840000Y-55038000D01*
X148840000Y-55952498D01*
X148732315Y-55903320D01*
X148625763Y-55888000D01*
X148554237Y-55888000D01*
X148447685Y-55903320D01*
X148340000Y-55952498D01*
X148340000Y-55038000D01*
X147692155Y-55038000D01*
X147632627Y-55044401D01*
X147632620Y-55044403D01*
X147497913Y-55094645D01*
X147497906Y-55094649D01*
X147382812Y-55180809D01*
X147382809Y-55180812D01*
X147296649Y-55295906D01*
X147296645Y-55295913D01*
X147247578Y-55427470D01*
X147205707Y-55483404D01*
X147140242Y-55507821D01*
X147071969Y-55492969D01*
X147043715Y-55471819D01*
X146999366Y-55427470D01*
X146921401Y-55349505D01*
X146921397Y-55349502D01*
X146921396Y-55349501D01*
X146727834Y-55213967D01*
X146727830Y-55213965D01*
X146621512Y-55164388D01*
X146513663Y-55114097D01*
X146513659Y-55114096D01*
X146513655Y-55114094D01*
X146285413Y-55052938D01*
X146285403Y-55052936D01*
X146050001Y-55032341D01*
X146049999Y-55032341D01*
X145814596Y-55052936D01*
X145814586Y-55052938D01*
X145586344Y-55114094D01*
X145586335Y-55114098D01*
X145372171Y-55213964D01*
X145372169Y-55213965D01*
X145178597Y-55349505D01*
X145011505Y-55516597D01*
X144875965Y-55710169D01*
X144875964Y-55710171D01*
X144776098Y-55924335D01*
X144776094Y-55924344D01*
X144714938Y-56152586D01*
X144714936Y-56152596D01*
X144694341Y-56387999D01*
X144694341Y-56388000D01*
X138411643Y-56388000D01*
X138411643Y-56387994D01*
X138391109Y-56140187D01*
X138391107Y-56140175D01*
X138330063Y-55899118D01*
X138230173Y-55671393D01*
X138094166Y-55463217D01*
X138061258Y-55427470D01*
X137925744Y-55280262D01*
X137729509Y-55127526D01*
X137729507Y-55127525D01*
X137729506Y-55127524D01*
X137510811Y-55009172D01*
X137510802Y-55009169D01*
X137275616Y-54928429D01*
X137030335Y-54887500D01*
X136781665Y-54887500D01*
X136536383Y-54928429D01*
X136301197Y-55009169D01*
X136301188Y-55009172D01*
X136082493Y-55127524D01*
X135886257Y-55280261D01*
X135717833Y-55463217D01*
X135581826Y-55671393D01*
X135481936Y-55899118D01*
X135420892Y-56140175D01*
X135420890Y-56140187D01*
X135400357Y-56387994D01*
X135400357Y-56388005D01*
X133911141Y-56388005D01*
X133911141Y-56387994D01*
X133890614Y-56140270D01*
X133890612Y-56140261D01*
X133829587Y-55899282D01*
X133729731Y-55671630D01*
X133629434Y-55518116D01*
X132931929Y-56215622D01*
X132929116Y-56202085D01*
X132859558Y-56067844D01*
X132756362Y-55957348D01*
X132627181Y-55878791D01*
X132575997Y-55864450D01*
X133276057Y-55164390D01*
X133276056Y-55164389D01*
X133229229Y-55127943D01*
X133010614Y-55009635D01*
X133010603Y-55009630D01*
X132775493Y-54928916D01*
X132530293Y-54888000D01*
X132281707Y-54888000D01*
X132036506Y-54928916D01*
X131801396Y-55009630D01*
X131801390Y-55009632D01*
X131582761Y-55127949D01*
X131535942Y-55164388D01*
X131535942Y-55164390D01*
X132234431Y-55862878D01*
X132117542Y-55913651D01*
X132000261Y-56009066D01*
X131913072Y-56132585D01*
X131882645Y-56218197D01*
X131182564Y-55518116D01*
X131082267Y-55671632D01*
X130982412Y-55899282D01*
X130921387Y-56140261D01*
X130921385Y-56140270D01*
X130900859Y-56387994D01*
X130900859Y-56388005D01*
X125730500Y-56388005D01*
X125730500Y-53591500D01*
X125750185Y-53524461D01*
X125802989Y-53478706D01*
X125854500Y-53467500D01*
X187327500Y-53467500D01*
X187394539Y-53487185D01*
G37*
%TD.AperFunction*%
%TD*%
M02*
