%TF.GenerationSoftware,KiCad,Pcbnew,7.0.9*%
%TF.CreationDate,2024-01-11T23:07:38-06:00*%
%TF.ProjectId,CoCo-FujiNet-Rev0,436f436f-2d46-4756-9a69-4e65742d5265,rev?*%
%TF.SameCoordinates,Original*%
%TF.FileFunction,Legend,Bot*%
%TF.FilePolarity,Positive*%
%FSLAX46Y46*%
G04 Gerber Fmt 4.6, Leading zero omitted, Abs format (unit mm)*
G04 Created by KiCad (PCBNEW 7.0.9) date 2024-01-11 23:07:38*
%MOMM*%
%LPD*%
G01*
G04 APERTURE LIST*
%ADD10C,0.300000*%
%ADD11C,0.150000*%
G04 APERTURE END LIST*
D10*
X172048028Y-103718142D02*
X171976600Y-103789570D01*
X171976600Y-103789570D02*
X171905171Y-104003856D01*
X171905171Y-104003856D02*
X171905171Y-104146713D01*
X171905171Y-104146713D02*
X171976600Y-104360999D01*
X171976600Y-104360999D02*
X172119457Y-104503856D01*
X172119457Y-104503856D02*
X172262314Y-104575285D01*
X172262314Y-104575285D02*
X172548028Y-104646713D01*
X172548028Y-104646713D02*
X172762314Y-104646713D01*
X172762314Y-104646713D02*
X173048028Y-104575285D01*
X173048028Y-104575285D02*
X173190885Y-104503856D01*
X173190885Y-104503856D02*
X173333742Y-104360999D01*
X173333742Y-104360999D02*
X173405171Y-104146713D01*
X173405171Y-104146713D02*
X173405171Y-104003856D01*
X173405171Y-104003856D02*
X173333742Y-103789570D01*
X173333742Y-103789570D02*
X173262314Y-103718142D01*
X171905171Y-102860999D02*
X171976600Y-103003856D01*
X171976600Y-103003856D02*
X172048028Y-103075285D01*
X172048028Y-103075285D02*
X172190885Y-103146713D01*
X172190885Y-103146713D02*
X172619457Y-103146713D01*
X172619457Y-103146713D02*
X172762314Y-103075285D01*
X172762314Y-103075285D02*
X172833742Y-103003856D01*
X172833742Y-103003856D02*
X172905171Y-102860999D01*
X172905171Y-102860999D02*
X172905171Y-102646713D01*
X172905171Y-102646713D02*
X172833742Y-102503856D01*
X172833742Y-102503856D02*
X172762314Y-102432428D01*
X172762314Y-102432428D02*
X172619457Y-102360999D01*
X172619457Y-102360999D02*
X172190885Y-102360999D01*
X172190885Y-102360999D02*
X172048028Y-102432428D01*
X172048028Y-102432428D02*
X171976600Y-102503856D01*
X171976600Y-102503856D02*
X171905171Y-102646713D01*
X171905171Y-102646713D02*
X171905171Y-102860999D01*
X172048028Y-100860999D02*
X171976600Y-100932427D01*
X171976600Y-100932427D02*
X171905171Y-101146713D01*
X171905171Y-101146713D02*
X171905171Y-101289570D01*
X171905171Y-101289570D02*
X171976600Y-101503856D01*
X171976600Y-101503856D02*
X172119457Y-101646713D01*
X172119457Y-101646713D02*
X172262314Y-101718142D01*
X172262314Y-101718142D02*
X172548028Y-101789570D01*
X172548028Y-101789570D02*
X172762314Y-101789570D01*
X172762314Y-101789570D02*
X173048028Y-101718142D01*
X173048028Y-101718142D02*
X173190885Y-101646713D01*
X173190885Y-101646713D02*
X173333742Y-101503856D01*
X173333742Y-101503856D02*
X173405171Y-101289570D01*
X173405171Y-101289570D02*
X173405171Y-101146713D01*
X173405171Y-101146713D02*
X173333742Y-100932427D01*
X173333742Y-100932427D02*
X173262314Y-100860999D01*
X171905171Y-100003856D02*
X171976600Y-100146713D01*
X171976600Y-100146713D02*
X172048028Y-100218142D01*
X172048028Y-100218142D02*
X172190885Y-100289570D01*
X172190885Y-100289570D02*
X172619457Y-100289570D01*
X172619457Y-100289570D02*
X172762314Y-100218142D01*
X172762314Y-100218142D02*
X172833742Y-100146713D01*
X172833742Y-100146713D02*
X172905171Y-100003856D01*
X172905171Y-100003856D02*
X172905171Y-99789570D01*
X172905171Y-99789570D02*
X172833742Y-99646713D01*
X172833742Y-99646713D02*
X172762314Y-99575285D01*
X172762314Y-99575285D02*
X172619457Y-99503856D01*
X172619457Y-99503856D02*
X172190885Y-99503856D01*
X172190885Y-99503856D02*
X172048028Y-99575285D01*
X172048028Y-99575285D02*
X171976600Y-99646713D01*
X171976600Y-99646713D02*
X171905171Y-99789570D01*
X171905171Y-99789570D02*
X171905171Y-100003856D01*
X172690885Y-97218142D02*
X172690885Y-97718142D01*
X171905171Y-97718142D02*
X173405171Y-97718142D01*
X173405171Y-97718142D02*
X173405171Y-97003856D01*
X172905171Y-95789571D02*
X171905171Y-95789571D01*
X172905171Y-96432428D02*
X172119457Y-96432428D01*
X172119457Y-96432428D02*
X171976600Y-96360999D01*
X171976600Y-96360999D02*
X171905171Y-96218142D01*
X171905171Y-96218142D02*
X171905171Y-96003856D01*
X171905171Y-96003856D02*
X171976600Y-95860999D01*
X171976600Y-95860999D02*
X172048028Y-95789571D01*
X172905171Y-95075285D02*
X171619457Y-95075285D01*
X171619457Y-95075285D02*
X171476600Y-95146713D01*
X171476600Y-95146713D02*
X171405171Y-95289570D01*
X171405171Y-95289570D02*
X171405171Y-95360999D01*
X173405171Y-95075285D02*
X173333742Y-95146713D01*
X173333742Y-95146713D02*
X173262314Y-95075285D01*
X173262314Y-95075285D02*
X173333742Y-95003856D01*
X173333742Y-95003856D02*
X173405171Y-95075285D01*
X173405171Y-95075285D02*
X173262314Y-95075285D01*
X171905171Y-94360999D02*
X172905171Y-94360999D01*
X173405171Y-94360999D02*
X173333742Y-94432427D01*
X173333742Y-94432427D02*
X173262314Y-94360999D01*
X173262314Y-94360999D02*
X173333742Y-94289570D01*
X173333742Y-94289570D02*
X173405171Y-94360999D01*
X173405171Y-94360999D02*
X173262314Y-94360999D01*
X171905171Y-93646713D02*
X173405171Y-93646713D01*
X173405171Y-93646713D02*
X171905171Y-92789570D01*
X171905171Y-92789570D02*
X173405171Y-92789570D01*
X171976600Y-91503855D02*
X171905171Y-91646712D01*
X171905171Y-91646712D02*
X171905171Y-91932427D01*
X171905171Y-91932427D02*
X171976600Y-92075284D01*
X171976600Y-92075284D02*
X172119457Y-92146712D01*
X172119457Y-92146712D02*
X172690885Y-92146712D01*
X172690885Y-92146712D02*
X172833742Y-92075284D01*
X172833742Y-92075284D02*
X172905171Y-91932427D01*
X172905171Y-91932427D02*
X172905171Y-91646712D01*
X172905171Y-91646712D02*
X172833742Y-91503855D01*
X172833742Y-91503855D02*
X172690885Y-91432427D01*
X172690885Y-91432427D02*
X172548028Y-91432427D01*
X172548028Y-91432427D02*
X172405171Y-92146712D01*
X172905171Y-91003855D02*
X172905171Y-90432427D01*
X173405171Y-90789570D02*
X172119457Y-90789570D01*
X172119457Y-90789570D02*
X171976600Y-90718141D01*
X171976600Y-90718141D02*
X171905171Y-90575284D01*
X171905171Y-90575284D02*
X171905171Y-90432427D01*
X171905171Y-87932427D02*
X172619457Y-88432427D01*
X171905171Y-88789570D02*
X173405171Y-88789570D01*
X173405171Y-88789570D02*
X173405171Y-88218141D01*
X173405171Y-88218141D02*
X173333742Y-88075284D01*
X173333742Y-88075284D02*
X173262314Y-88003855D01*
X173262314Y-88003855D02*
X173119457Y-87932427D01*
X173119457Y-87932427D02*
X172905171Y-87932427D01*
X172905171Y-87932427D02*
X172762314Y-88003855D01*
X172762314Y-88003855D02*
X172690885Y-88075284D01*
X172690885Y-88075284D02*
X172619457Y-88218141D01*
X172619457Y-88218141D02*
X172619457Y-88789570D01*
X171976600Y-86718141D02*
X171905171Y-86860998D01*
X171905171Y-86860998D02*
X171905171Y-87146713D01*
X171905171Y-87146713D02*
X171976600Y-87289570D01*
X171976600Y-87289570D02*
X172119457Y-87360998D01*
X172119457Y-87360998D02*
X172690885Y-87360998D01*
X172690885Y-87360998D02*
X172833742Y-87289570D01*
X172833742Y-87289570D02*
X172905171Y-87146713D01*
X172905171Y-87146713D02*
X172905171Y-86860998D01*
X172905171Y-86860998D02*
X172833742Y-86718141D01*
X172833742Y-86718141D02*
X172690885Y-86646713D01*
X172690885Y-86646713D02*
X172548028Y-86646713D01*
X172548028Y-86646713D02*
X172405171Y-87360998D01*
X172905171Y-86146713D02*
X171905171Y-85789570D01*
X171905171Y-85789570D02*
X172905171Y-85432427D01*
X173405171Y-84575284D02*
X173405171Y-84432427D01*
X173405171Y-84432427D02*
X173333742Y-84289570D01*
X173333742Y-84289570D02*
X173262314Y-84218142D01*
X173262314Y-84218142D02*
X173119457Y-84146713D01*
X173119457Y-84146713D02*
X172833742Y-84075284D01*
X172833742Y-84075284D02*
X172476600Y-84075284D01*
X172476600Y-84075284D02*
X172190885Y-84146713D01*
X172190885Y-84146713D02*
X172048028Y-84218142D01*
X172048028Y-84218142D02*
X171976600Y-84289570D01*
X171976600Y-84289570D02*
X171905171Y-84432427D01*
X171905171Y-84432427D02*
X171905171Y-84575284D01*
X171905171Y-84575284D02*
X171976600Y-84718142D01*
X171976600Y-84718142D02*
X172048028Y-84789570D01*
X172048028Y-84789570D02*
X172190885Y-84860999D01*
X172190885Y-84860999D02*
X172476600Y-84932427D01*
X172476600Y-84932427D02*
X172833742Y-84932427D01*
X172833742Y-84932427D02*
X173119457Y-84860999D01*
X173119457Y-84860999D02*
X173262314Y-84789570D01*
X173262314Y-84789570D02*
X173333742Y-84718142D01*
X173333742Y-84718142D02*
X173405171Y-84575284D01*
X170490171Y-104968144D02*
X170490171Y-104396716D01*
X169490171Y-104753859D02*
X170775885Y-104753859D01*
X170775885Y-104753859D02*
X170918742Y-104682430D01*
X170918742Y-104682430D02*
X170990171Y-104539573D01*
X170990171Y-104539573D02*
X170990171Y-104396716D01*
X170490171Y-103253859D02*
X169490171Y-103253859D01*
X170490171Y-103896716D02*
X169704457Y-103896716D01*
X169704457Y-103896716D02*
X169561600Y-103825287D01*
X169561600Y-103825287D02*
X169490171Y-103682430D01*
X169490171Y-103682430D02*
X169490171Y-103468144D01*
X169490171Y-103468144D02*
X169561600Y-103325287D01*
X169561600Y-103325287D02*
X169633028Y-103253859D01*
X170490171Y-102539573D02*
X169204457Y-102539573D01*
X169204457Y-102539573D02*
X169061600Y-102611001D01*
X169061600Y-102611001D02*
X168990171Y-102753858D01*
X168990171Y-102753858D02*
X168990171Y-102825287D01*
X170990171Y-102539573D02*
X170918742Y-102611001D01*
X170918742Y-102611001D02*
X170847314Y-102539573D01*
X170847314Y-102539573D02*
X170918742Y-102468144D01*
X170918742Y-102468144D02*
X170990171Y-102539573D01*
X170990171Y-102539573D02*
X170847314Y-102539573D01*
X169490171Y-101825287D02*
X170490171Y-101825287D01*
X170990171Y-101825287D02*
X170918742Y-101896715D01*
X170918742Y-101896715D02*
X170847314Y-101825287D01*
X170847314Y-101825287D02*
X170918742Y-101753858D01*
X170918742Y-101753858D02*
X170990171Y-101825287D01*
X170990171Y-101825287D02*
X170847314Y-101825287D01*
X170490171Y-101111001D02*
X169490171Y-101111001D01*
X170347314Y-101111001D02*
X170418742Y-101039572D01*
X170418742Y-101039572D02*
X170490171Y-100896715D01*
X170490171Y-100896715D02*
X170490171Y-100682429D01*
X170490171Y-100682429D02*
X170418742Y-100539572D01*
X170418742Y-100539572D02*
X170275885Y-100468144D01*
X170275885Y-100468144D02*
X169490171Y-100468144D01*
X169561600Y-99182429D02*
X169490171Y-99325286D01*
X169490171Y-99325286D02*
X169490171Y-99611001D01*
X169490171Y-99611001D02*
X169561600Y-99753858D01*
X169561600Y-99753858D02*
X169704457Y-99825286D01*
X169704457Y-99825286D02*
X170275885Y-99825286D01*
X170275885Y-99825286D02*
X170418742Y-99753858D01*
X170418742Y-99753858D02*
X170490171Y-99611001D01*
X170490171Y-99611001D02*
X170490171Y-99325286D01*
X170490171Y-99325286D02*
X170418742Y-99182429D01*
X170418742Y-99182429D02*
X170275885Y-99111001D01*
X170275885Y-99111001D02*
X170133028Y-99111001D01*
X170133028Y-99111001D02*
X169990171Y-99825286D01*
X170490171Y-98682429D02*
X170490171Y-98111001D01*
X170990171Y-98468144D02*
X169704457Y-98468144D01*
X169704457Y-98468144D02*
X169561600Y-98396715D01*
X169561600Y-98396715D02*
X169490171Y-98253858D01*
X169490171Y-98253858D02*
X169490171Y-98111001D01*
X170490171Y-97753858D02*
X169490171Y-97468144D01*
X169490171Y-97468144D02*
X170204457Y-97182429D01*
X170204457Y-97182429D02*
X169490171Y-96896715D01*
X169490171Y-96896715D02*
X170490171Y-96611001D01*
X169490171Y-96039572D02*
X170490171Y-96039572D01*
X170990171Y-96039572D02*
X170918742Y-96111000D01*
X170918742Y-96111000D02*
X170847314Y-96039572D01*
X170847314Y-96039572D02*
X170918742Y-95968143D01*
X170918742Y-95968143D02*
X170990171Y-96039572D01*
X170990171Y-96039572D02*
X170847314Y-96039572D01*
X170490171Y-95539571D02*
X170490171Y-94968143D01*
X169490171Y-95325286D02*
X170775885Y-95325286D01*
X170775885Y-95325286D02*
X170918742Y-95253857D01*
X170918742Y-95253857D02*
X170990171Y-95111000D01*
X170990171Y-95111000D02*
X170990171Y-94968143D01*
X169490171Y-94468143D02*
X170490171Y-94468143D01*
X170990171Y-94468143D02*
X170918742Y-94539571D01*
X170918742Y-94539571D02*
X170847314Y-94468143D01*
X170847314Y-94468143D02*
X170918742Y-94396714D01*
X170918742Y-94396714D02*
X170990171Y-94468143D01*
X170990171Y-94468143D02*
X170847314Y-94468143D01*
X169633028Y-93753857D02*
X169561600Y-93682428D01*
X169561600Y-93682428D02*
X169490171Y-93753857D01*
X169490171Y-93753857D02*
X169561600Y-93825285D01*
X169561600Y-93825285D02*
X169633028Y-93753857D01*
X169633028Y-93753857D02*
X169490171Y-93753857D01*
X170490171Y-92396714D02*
X169275885Y-92396714D01*
X169275885Y-92396714D02*
X169133028Y-92468142D01*
X169133028Y-92468142D02*
X169061600Y-92539571D01*
X169061600Y-92539571D02*
X168990171Y-92682428D01*
X168990171Y-92682428D02*
X168990171Y-92896714D01*
X168990171Y-92896714D02*
X169061600Y-93039571D01*
X169561600Y-92396714D02*
X169490171Y-92539571D01*
X169490171Y-92539571D02*
X169490171Y-92825285D01*
X169490171Y-92825285D02*
X169561600Y-92968142D01*
X169561600Y-92968142D02*
X169633028Y-93039571D01*
X169633028Y-93039571D02*
X169775885Y-93110999D01*
X169775885Y-93110999D02*
X170204457Y-93110999D01*
X170204457Y-93110999D02*
X170347314Y-93039571D01*
X170347314Y-93039571D02*
X170418742Y-92968142D01*
X170418742Y-92968142D02*
X170490171Y-92825285D01*
X170490171Y-92825285D02*
X170490171Y-92539571D01*
X170490171Y-92539571D02*
X170418742Y-92396714D01*
X169490171Y-91682428D02*
X170490171Y-91682428D01*
X170990171Y-91682428D02*
X170918742Y-91753856D01*
X170918742Y-91753856D02*
X170847314Y-91682428D01*
X170847314Y-91682428D02*
X170918742Y-91610999D01*
X170918742Y-91610999D02*
X170990171Y-91682428D01*
X170990171Y-91682428D02*
X170847314Y-91682428D01*
X170490171Y-91182427D02*
X170490171Y-90610999D01*
X170990171Y-90968142D02*
X169704457Y-90968142D01*
X169704457Y-90968142D02*
X169561600Y-90896713D01*
X169561600Y-90896713D02*
X169490171Y-90753856D01*
X169490171Y-90753856D02*
X169490171Y-90610999D01*
X169490171Y-90110999D02*
X170990171Y-90110999D01*
X169490171Y-89468142D02*
X170275885Y-89468142D01*
X170275885Y-89468142D02*
X170418742Y-89539570D01*
X170418742Y-89539570D02*
X170490171Y-89682427D01*
X170490171Y-89682427D02*
X170490171Y-89896713D01*
X170490171Y-89896713D02*
X170418742Y-90039570D01*
X170418742Y-90039570D02*
X170347314Y-90110999D01*
X170490171Y-88110999D02*
X169490171Y-88110999D01*
X170490171Y-88753856D02*
X169704457Y-88753856D01*
X169704457Y-88753856D02*
X169561600Y-88682427D01*
X169561600Y-88682427D02*
X169490171Y-88539570D01*
X169490171Y-88539570D02*
X169490171Y-88325284D01*
X169490171Y-88325284D02*
X169561600Y-88182427D01*
X169561600Y-88182427D02*
X169633028Y-88110999D01*
X169490171Y-87396713D02*
X170990171Y-87396713D01*
X170418742Y-87396713D02*
X170490171Y-87253856D01*
X170490171Y-87253856D02*
X170490171Y-86968141D01*
X170490171Y-86968141D02*
X170418742Y-86825284D01*
X170418742Y-86825284D02*
X170347314Y-86753856D01*
X170347314Y-86753856D02*
X170204457Y-86682427D01*
X170204457Y-86682427D02*
X169775885Y-86682427D01*
X169775885Y-86682427D02*
X169633028Y-86753856D01*
X169633028Y-86753856D02*
X169561600Y-86825284D01*
X169561600Y-86825284D02*
X169490171Y-86968141D01*
X169490171Y-86968141D02*
X169490171Y-87253856D01*
X169490171Y-87253856D02*
X169561600Y-87396713D01*
X169633028Y-86039570D02*
X169561600Y-85968141D01*
X169561600Y-85968141D02*
X169490171Y-86039570D01*
X169490171Y-86039570D02*
X169561600Y-86110998D01*
X169561600Y-86110998D02*
X169633028Y-86039570D01*
X169633028Y-86039570D02*
X169490171Y-86039570D01*
X169490171Y-85325284D02*
X170490171Y-85325284D01*
X170990171Y-85325284D02*
X170918742Y-85396712D01*
X170918742Y-85396712D02*
X170847314Y-85325284D01*
X170847314Y-85325284D02*
X170918742Y-85253855D01*
X170918742Y-85253855D02*
X170990171Y-85325284D01*
X170990171Y-85325284D02*
X170847314Y-85325284D01*
X169490171Y-84396712D02*
X169561600Y-84539569D01*
X169561600Y-84539569D02*
X169633028Y-84610998D01*
X169633028Y-84610998D02*
X169775885Y-84682426D01*
X169775885Y-84682426D02*
X170204457Y-84682426D01*
X170204457Y-84682426D02*
X170347314Y-84610998D01*
X170347314Y-84610998D02*
X170418742Y-84539569D01*
X170418742Y-84539569D02*
X170490171Y-84396712D01*
X170490171Y-84396712D02*
X170490171Y-84182426D01*
X170490171Y-84182426D02*
X170418742Y-84039569D01*
X170418742Y-84039569D02*
X170347314Y-83968141D01*
X170347314Y-83968141D02*
X170204457Y-83896712D01*
X170204457Y-83896712D02*
X169775885Y-83896712D01*
X169775885Y-83896712D02*
X169633028Y-83968141D01*
X169633028Y-83968141D02*
X169561600Y-84039569D01*
X169561600Y-84039569D02*
X169490171Y-84182426D01*
X169490171Y-84182426D02*
X169490171Y-84396712D01*
D11*
X129330220Y-93849819D02*
X129330220Y-92849819D01*
X129330220Y-92849819D02*
X128996887Y-93564104D01*
X128996887Y-93564104D02*
X128663554Y-92849819D01*
X128663554Y-92849819D02*
X128663554Y-93849819D01*
X128330220Y-92849819D02*
X127758792Y-92849819D01*
X128044506Y-93849819D02*
X128044506Y-92849819D01*
X126854030Y-93849819D02*
X127187363Y-93373628D01*
X127425458Y-93849819D02*
X127425458Y-92849819D01*
X127425458Y-92849819D02*
X127044506Y-92849819D01*
X127044506Y-92849819D02*
X126949268Y-92897438D01*
X126949268Y-92897438D02*
X126901649Y-92945057D01*
X126901649Y-92945057D02*
X126854030Y-93040295D01*
X126854030Y-93040295D02*
X126854030Y-93183152D01*
X126854030Y-93183152D02*
X126901649Y-93278390D01*
X126901649Y-93278390D02*
X126949268Y-93326009D01*
X126949268Y-93326009D02*
X127044506Y-93373628D01*
X127044506Y-93373628D02*
X127425458Y-93373628D01*
X126473077Y-92945057D02*
X126425458Y-92897438D01*
X126425458Y-92897438D02*
X126330220Y-92849819D01*
X126330220Y-92849819D02*
X126092125Y-92849819D01*
X126092125Y-92849819D02*
X125996887Y-92897438D01*
X125996887Y-92897438D02*
X125949268Y-92945057D01*
X125949268Y-92945057D02*
X125901649Y-93040295D01*
X125901649Y-93040295D02*
X125901649Y-93135533D01*
X125901649Y-93135533D02*
X125949268Y-93278390D01*
X125949268Y-93278390D02*
X126520696Y-93849819D01*
X126520696Y-93849819D02*
X125901649Y-93849819D01*
X128679411Y-90357438D02*
X128774649Y-90309819D01*
X128774649Y-90309819D02*
X128917506Y-90309819D01*
X128917506Y-90309819D02*
X129060363Y-90357438D01*
X129060363Y-90357438D02*
X129155601Y-90452676D01*
X129155601Y-90452676D02*
X129203220Y-90547914D01*
X129203220Y-90547914D02*
X129250839Y-90738390D01*
X129250839Y-90738390D02*
X129250839Y-90881247D01*
X129250839Y-90881247D02*
X129203220Y-91071723D01*
X129203220Y-91071723D02*
X129155601Y-91166961D01*
X129155601Y-91166961D02*
X129060363Y-91262200D01*
X129060363Y-91262200D02*
X128917506Y-91309819D01*
X128917506Y-91309819D02*
X128822268Y-91309819D01*
X128822268Y-91309819D02*
X128679411Y-91262200D01*
X128679411Y-91262200D02*
X128631792Y-91214580D01*
X128631792Y-91214580D02*
X128631792Y-90881247D01*
X128631792Y-90881247D02*
X128822268Y-90881247D01*
X128203220Y-91309819D02*
X128203220Y-90309819D01*
X128203220Y-90309819D02*
X127631792Y-91309819D01*
X127631792Y-91309819D02*
X127631792Y-90309819D01*
X127155601Y-91309819D02*
X127155601Y-90309819D01*
X127155601Y-90309819D02*
X126917506Y-90309819D01*
X126917506Y-90309819D02*
X126774649Y-90357438D01*
X126774649Y-90357438D02*
X126679411Y-90452676D01*
X126679411Y-90452676D02*
X126631792Y-90547914D01*
X126631792Y-90547914D02*
X126584173Y-90738390D01*
X126584173Y-90738390D02*
X126584173Y-90881247D01*
X126584173Y-90881247D02*
X126631792Y-91071723D01*
X126631792Y-91071723D02*
X126679411Y-91166961D01*
X126679411Y-91166961D02*
X126774649Y-91262200D01*
X126774649Y-91262200D02*
X126917506Y-91309819D01*
X126917506Y-91309819D02*
X127155601Y-91309819D01*
X129203220Y-88769819D02*
X129203220Y-87769819D01*
X129203220Y-87769819D02*
X128965125Y-87769819D01*
X128965125Y-87769819D02*
X128822268Y-87817438D01*
X128822268Y-87817438D02*
X128727030Y-87912676D01*
X128727030Y-87912676D02*
X128679411Y-88007914D01*
X128679411Y-88007914D02*
X128631792Y-88198390D01*
X128631792Y-88198390D02*
X128631792Y-88341247D01*
X128631792Y-88341247D02*
X128679411Y-88531723D01*
X128679411Y-88531723D02*
X128727030Y-88626961D01*
X128727030Y-88626961D02*
X128822268Y-88722200D01*
X128822268Y-88722200D02*
X128965125Y-88769819D01*
X128965125Y-88769819D02*
X129203220Y-88769819D01*
X128250839Y-88484104D02*
X127774649Y-88484104D01*
X128346077Y-88769819D02*
X128012744Y-87769819D01*
X128012744Y-87769819D02*
X127679411Y-88769819D01*
X127488934Y-87769819D02*
X126917506Y-87769819D01*
X127203220Y-88769819D02*
X127203220Y-87769819D01*
X126631791Y-88484104D02*
X126155601Y-88484104D01*
X126727029Y-88769819D02*
X126393696Y-87769819D01*
X126393696Y-87769819D02*
X126060363Y-88769819D01*
X129203220Y-86229819D02*
X129203220Y-85229819D01*
X129203220Y-85229819D02*
X128869887Y-85944104D01*
X128869887Y-85944104D02*
X128536554Y-85229819D01*
X128536554Y-85229819D02*
X128536554Y-86229819D01*
X128203220Y-85229819D02*
X127631792Y-85229819D01*
X127917506Y-86229819D02*
X127917506Y-85229819D01*
X126727030Y-86229819D02*
X127060363Y-85753628D01*
X127298458Y-86229819D02*
X127298458Y-85229819D01*
X127298458Y-85229819D02*
X126917506Y-85229819D01*
X126917506Y-85229819D02*
X126822268Y-85277438D01*
X126822268Y-85277438D02*
X126774649Y-85325057D01*
X126774649Y-85325057D02*
X126727030Y-85420295D01*
X126727030Y-85420295D02*
X126727030Y-85563152D01*
X126727030Y-85563152D02*
X126774649Y-85658390D01*
X126774649Y-85658390D02*
X126822268Y-85706009D01*
X126822268Y-85706009D02*
X126917506Y-85753628D01*
X126917506Y-85753628D02*
X127298458Y-85753628D01*
X125774649Y-86229819D02*
X126346077Y-86229819D01*
X126060363Y-86229819D02*
X126060363Y-85229819D01*
X126060363Y-85229819D02*
X126155601Y-85372676D01*
X126155601Y-85372676D02*
X126250839Y-85467914D01*
X126250839Y-85467914D02*
X126346077Y-85515533D01*
X128876541Y-75434819D02*
X129209874Y-74958628D01*
X129447969Y-75434819D02*
X129447969Y-74434819D01*
X129447969Y-74434819D02*
X129067017Y-74434819D01*
X129067017Y-74434819D02*
X128971779Y-74482438D01*
X128971779Y-74482438D02*
X128924160Y-74530057D01*
X128924160Y-74530057D02*
X128876541Y-74625295D01*
X128876541Y-74625295D02*
X128876541Y-74768152D01*
X128876541Y-74768152D02*
X128924160Y-74863390D01*
X128924160Y-74863390D02*
X128971779Y-74911009D01*
X128971779Y-74911009D02*
X129067017Y-74958628D01*
X129067017Y-74958628D02*
X129447969Y-74958628D01*
X128543207Y-74434819D02*
X127876541Y-75434819D01*
X127876541Y-74434819D02*
X128543207Y-75434819D01*
X128679411Y-71942438D02*
X128774649Y-71894819D01*
X128774649Y-71894819D02*
X128917506Y-71894819D01*
X128917506Y-71894819D02*
X129060363Y-71942438D01*
X129060363Y-71942438D02*
X129155601Y-72037676D01*
X129155601Y-72037676D02*
X129203220Y-72132914D01*
X129203220Y-72132914D02*
X129250839Y-72323390D01*
X129250839Y-72323390D02*
X129250839Y-72466247D01*
X129250839Y-72466247D02*
X129203220Y-72656723D01*
X129203220Y-72656723D02*
X129155601Y-72751961D01*
X129155601Y-72751961D02*
X129060363Y-72847200D01*
X129060363Y-72847200D02*
X128917506Y-72894819D01*
X128917506Y-72894819D02*
X128822268Y-72894819D01*
X128822268Y-72894819D02*
X128679411Y-72847200D01*
X128679411Y-72847200D02*
X128631792Y-72799580D01*
X128631792Y-72799580D02*
X128631792Y-72466247D01*
X128631792Y-72466247D02*
X128822268Y-72466247D01*
X128203220Y-72894819D02*
X128203220Y-71894819D01*
X128203220Y-71894819D02*
X127631792Y-72894819D01*
X127631792Y-72894819D02*
X127631792Y-71894819D01*
X127155601Y-72894819D02*
X127155601Y-71894819D01*
X127155601Y-71894819D02*
X126917506Y-71894819D01*
X126917506Y-71894819D02*
X126774649Y-71942438D01*
X126774649Y-71942438D02*
X126679411Y-72037676D01*
X126679411Y-72037676D02*
X126631792Y-72132914D01*
X126631792Y-72132914D02*
X126584173Y-72323390D01*
X126584173Y-72323390D02*
X126584173Y-72466247D01*
X126584173Y-72466247D02*
X126631792Y-72656723D01*
X126631792Y-72656723D02*
X126679411Y-72751961D01*
X126679411Y-72751961D02*
X126774649Y-72847200D01*
X126774649Y-72847200D02*
X126917506Y-72894819D01*
X126917506Y-72894819D02*
X127155601Y-72894819D01*
X129352731Y-69354819D02*
X128781303Y-69354819D01*
X129067017Y-70354819D02*
X129067017Y-69354819D01*
X128543207Y-69354819D02*
X127876541Y-70354819D01*
X127876541Y-69354819D02*
X128543207Y-70354819D01*
M02*
