G04 DipTrace 3.3.1.3*
G04 BottomSilk.gbr*
%MOIN*%
G04 #@! TF.FileFunction,Legend,Bot*
G04 #@! TF.Part,Single*
%ADD12C,0.003*%
%ADD13C,0.007874*%
%ADD16C,0.005906*%
%ADD32O,0.074027X0.074711*%
%ADD33O,0.073993X0.074711*%
%ADD34O,0.073959X0.074711*%
G04 #@! TA.AperFunction,ComponentDrill*
%ADD68C,0.004632*%
%ADD69C,0.009264*%
%FSLAX26Y26*%
G04*
G70*
G90*
G75*
G01*
G04 BotSilk*
%LPD*%
X758763Y1506776D2*
D13*
G02X758763Y1506776I35433J0D01*
G01*
G36*
X932788Y1528899D2*
X1074602D1*
Y1511968D1*
X932788D1*
Y1528899D1*
G37*
G36*
X932313Y962314D2*
Y864864D1*
X948692D1*
Y905025D1*
X1074704D1*
Y922251D1*
X948692D1*
Y962314D1*
X932313D1*
G37*
G36*
Y1050510D2*
Y975307D1*
X948420D1*
Y1033284D1*
X988842D1*
Y975307D1*
X1004373D1*
Y1033580D1*
X1059173D1*
Y975307D1*
X1074704D1*
Y1050510D1*
X932313D1*
G37*
G36*
X1074636Y1204067D2*
X926073D1*
X1040454Y1099924D1*
X932008D1*
Y1083781D1*
X1081486D1*
X967716Y1187924D1*
X1074636D1*
Y1204067D1*
G37*
G36*
X933059Y1579002D2*
Y1561973D1*
X1045812D1*
X1055171Y1562957D1*
X1062021Y1565024D1*
X1067311Y1567879D1*
X1071109Y1571029D1*
X1074466Y1575655D1*
X1076738Y1580970D1*
X1077823Y1587270D1*
X1078536Y1595046D1*
Y1600460D1*
X1077213Y1605677D1*
X1073517Y1613158D1*
X1070024Y1618178D1*
X1064666Y1623100D1*
X1053136Y1611583D1*
X1057206Y1608040D1*
X1059749Y1604693D1*
X1062123Y1599968D1*
X1062971Y1597606D1*
X1063344Y1594751D1*
X1063106Y1590518D1*
X1062530Y1588156D1*
X1061716Y1586384D1*
X1060326Y1584317D1*
X1058020Y1582250D1*
X1055273Y1580675D1*
X1053306Y1579789D1*
X1050898Y1579494D1*
X1048152Y1579100D1*
X1046049Y1578903D1*
X933059Y1579002D1*
G37*
G36*
X932957Y1749292D2*
Y1732066D1*
X1024211D1*
X1032417Y1731574D1*
X1041437Y1729507D1*
X1049033Y1726062D1*
X1053069Y1723010D1*
X1056799Y1718581D1*
X1060190Y1711887D1*
X1062394Y1702339D1*
X1062801Y1694268D1*
X1061716Y1683046D1*
X1059274Y1675073D1*
X1055815Y1669167D1*
X1053069Y1666116D1*
X1047372Y1661981D1*
X1038860Y1658635D1*
X1025499Y1656666D1*
X1012613D1*
X932889D1*
Y1639440D1*
X1021125D1*
X1036554Y1640621D1*
X1048185Y1643476D1*
X1056934Y1647610D1*
X1063852Y1652926D1*
X1069346Y1659324D1*
X1073618Y1667100D1*
X1076806Y1677140D1*
X1078502Y1692004D1*
Y1695843D1*
X1077552Y1708344D1*
X1074670Y1719467D1*
X1070668Y1727735D1*
X1065446Y1734626D1*
X1058325Y1740433D1*
X1049644Y1744961D1*
X1037775Y1748111D1*
X1021227Y1749391D1*
X932957Y1749292D1*
G37*
X983518Y1500648D2*
D16*
Y1390993D1*
X891654Y1422886D2*
X1093117D1*
X968190Y1495727D2*
X1009968D1*
X912373Y1452711D2*
Y1258206D1*
X844993Y1353687D2*
X946284D1*
X894265Y1281731D2*
X1160091D1*
X1123433Y1369042D2*
X1122789Y1185168D1*
D32*
X911780Y1352850D3*
G36*
X932652Y1774098D2*
Y1849203D1*
X1075517D1*
Y1831878D1*
X1004543D1*
Y1774098D1*
X989045D1*
Y1832370D1*
X948556D1*
Y1774098D1*
X932652D1*
G37*
D33*
X984400Y1424608D3*
Y1282470D3*
D34*
X1056205D3*
X947335Y1354425D2*
D16*
X947421Y1356852D1*
X947679Y1359268D1*
X948108Y1361659D1*
X948705Y1364016D1*
X949467Y1366326D1*
X950392Y1368578D1*
X951473Y1370761D1*
X952707Y1372864D1*
X954087Y1374878D1*
X955606Y1376792D1*
X957257Y1378596D1*
X959032Y1380284D1*
X960922Y1381845D1*
X962919Y1383272D1*
X965011Y1384559D1*
X967190Y1385700D1*
X969444Y1386687D1*
X971763Y1387518D1*
X974135Y1388188D1*
X976548Y1388693D1*
X978992Y1389031D1*
X981453Y1389200D1*
X983921D1*
X986382Y1389031D1*
X988826Y1388693D1*
X991239Y1388188D1*
X993611Y1387518D1*
X995930Y1386687D1*
X998184Y1385700D1*
X1000363Y1384559D1*
X1002456Y1383272D1*
X1004452Y1381845D1*
X1006342Y1380284D1*
X1008117Y1378596D1*
X1009768Y1376792D1*
X1011287Y1374878D1*
X1012667Y1372864D1*
X1013901Y1370761D1*
X1014983Y1368578D1*
X1015907Y1366326D1*
X1016669Y1364016D1*
X1017266Y1361659D1*
X1017695Y1359268D1*
X1017953Y1356852D1*
X1018039Y1354425D1*
X1017953Y1351998D1*
X1017695Y1349582D1*
X1017266Y1347190D1*
X1016669Y1344834D1*
X1015907Y1342524D1*
X1014983Y1340272D1*
X1013901Y1338089D1*
X1012667Y1335986D1*
X1011287Y1333972D1*
X1009768Y1332058D1*
X1008117Y1330253D1*
X1006342Y1328566D1*
X1004452Y1327005D1*
X1002456Y1325577D1*
X1000363Y1324290D1*
X998184Y1323150D1*
X995930Y1322162D1*
X993611Y1321332D1*
X991239Y1320662D1*
X988826Y1320157D1*
X986382Y1319819D1*
X983921Y1319650D1*
X981453D1*
X978992Y1319819D1*
X976548Y1320157D1*
X974135Y1320662D1*
X971763Y1321332D1*
X969444Y1322162D1*
X967190Y1323150D1*
X965011Y1324290D1*
X962919Y1325577D1*
X960922Y1327005D1*
X959032Y1328566D1*
X957257Y1330253D1*
X955606Y1332058D1*
X954087Y1333972D1*
X952707Y1335986D1*
X951473Y1338089D1*
X950392Y1340272D1*
X949467Y1342524D1*
X948705Y1344834D1*
X948108Y1347190D1*
X947679Y1349582D1*
X947421Y1351998D1*
X947335Y1354425D1*
X1083486Y1209776D2*
X1154767D1*
X1053509Y1442966D2*
Y1225132D1*
X983552Y1233105D2*
Y1311754D1*
X1019531Y1353687D2*
X1136794Y1353096D1*
G36*
X1105557Y2482234D2*
X1088392Y2475169D1*
X1086167Y2476224D1*
X1056605Y2548761D1*
X1057104Y2550642D1*
X1063280Y2553853D1*
X1068866Y2557983D1*
X1074043Y2562800D1*
X1079083Y2569361D1*
X1082080Y2575830D1*
X1084759Y2583492D1*
X1086031Y2590512D1*
X1086303Y2598816D1*
X1085168Y2606249D1*
X1083760Y2611341D1*
X1080854Y2617994D1*
X1076903Y2624280D1*
X1072045Y2629969D1*
X1066096Y2635016D1*
X1059875Y2638686D1*
X1052473Y2641852D1*
X1044934Y2643641D1*
X1037850Y2644238D1*
X1032401Y2643825D1*
X1024636Y2642402D1*
X1017325Y2639741D1*
X1011013Y2636117D1*
X1005337Y2631942D1*
X999615Y2625885D1*
X995619Y2620059D1*
X991986Y2612626D1*
X990033Y2605698D1*
X989307Y2600376D1*
X989034Y2592989D1*
X989806Y2585786D1*
X991895Y2578262D1*
X995346Y2570646D1*
X999706Y2564681D1*
X1004474Y2559543D1*
X1010604Y2554863D1*
X1017597Y2550917D1*
X1018506Y2549632D1*
X1018324Y2548027D1*
X988807Y2475857D1*
X986627Y2475123D1*
X969281Y2482280D1*
X932407Y2457642D1*
X931454D1*
X899939Y2488887D1*
X899848Y2490217D1*
X924687Y2526876D1*
X909339Y2563993D1*
X865018Y2572618D1*
X865109Y2618223D1*
X909566Y2626803D1*
X924733Y2663461D1*
X899303Y2701267D1*
X931817Y2733521D1*
X969099Y2708378D1*
X1006063Y2723427D1*
X1014691Y2767793D1*
X1060374Y2767885D1*
X1069184Y2723473D1*
X1105921Y2708287D1*
X1143339Y2733429D1*
X1175717Y2701267D1*
X1150559Y2663874D1*
X1165726Y2626895D1*
X1210138Y2618269D1*
Y2572527D1*
X1165726Y2563764D1*
X1150650Y2527518D1*
X1175626Y2489804D1*
X1143430Y2457184D1*
X1106511Y2482188D1*
X1105557Y2482234D1*
G37*
X590273Y3558056D2*
D12*
X603773D1*
X668273D2*
X681773D1*
X746273D2*
X759773D1*
X1136273D2*
X1151273D1*
X1214273D2*
X1230773D1*
X1292273D2*
X1307273D1*
X1364273D2*
X1383773D1*
X586876Y3556556D2*
X606710D1*
X664876D2*
X684710D1*
X742876D2*
X762710D1*
X980273D2*
X1013273D1*
X1132818D2*
X1154960D1*
X1210818D2*
X1235614D1*
X1288818D2*
X1310960D1*
X1358815D2*
X1388095D1*
X1448273D2*
X1481273D1*
X584068Y3555056D2*
X609459D1*
X662068D2*
X687459D1*
X740068D2*
X765459D1*
X975951D2*
X1013273D1*
X1129824D2*
X1158338D1*
X1207818D2*
X1239724D1*
X1285824D2*
X1314338D1*
X1354631D2*
X1391706D1*
X1443951D2*
X1481273D1*
X581847Y3553556D2*
X611844D1*
X659847D2*
X689844D1*
X737847D2*
X767844D1*
X972341D2*
X1013273D1*
X1127297D2*
X1161353D1*
X1205244D2*
X1243027D1*
X1283297D2*
X1317353D1*
X1351553D2*
X1394533D1*
X1440341D2*
X1481273D1*
X580013Y3552056D2*
X613798D1*
X658013D2*
X691798D1*
X736013D2*
X769798D1*
X969514D2*
X1013273D1*
X1125263D2*
X1163967D1*
X1203072D2*
X1245748D1*
X1281263D2*
X1319967D1*
X1350302D2*
X1396726D1*
X1437514D2*
X1481273D1*
X578421Y3550556D2*
X615346D1*
X656421D2*
X693346D1*
X734421D2*
X771346D1*
X967320D2*
X1013273D1*
X1123722D2*
X1166070D1*
X1201363D2*
X1248100D1*
X1279722D2*
X1322070D1*
X1350551D2*
X1398497D1*
X1435320D2*
X1481273D1*
X577055Y3549056D2*
X616539D1*
X655055D2*
X694539D1*
X733055D2*
X772539D1*
X965550D2*
X1013273D1*
X1122469D2*
X1167722D1*
X1200079D2*
X1250273D1*
X1278469D2*
X1323722D1*
X1350882D2*
X1399935D1*
X1433550D2*
X1481273D1*
X575899Y3547556D2*
X590568D1*
X603948D2*
X617500D1*
X653899D2*
X668568D1*
X681948D2*
X695500D1*
X731899D2*
X746568D1*
X759948D2*
X773500D1*
X964111D2*
X1013273D1*
X1121390D2*
X1136574D1*
X1152716D2*
X1168118D1*
X1199076D2*
X1215842D1*
X1231979D2*
X1249006D1*
X1277390D2*
X1292574D1*
X1308716D2*
X1324118D1*
X1351332D2*
X1367825D1*
X1383184D2*
X1401070D1*
X1432111D2*
X1481273D1*
X574835Y3546056D2*
X588197D1*
X605627D2*
X618342D1*
X652835D2*
X666197D1*
X683627D2*
X696342D1*
X730835D2*
X744197D1*
X761627D2*
X774342D1*
X962971D2*
X982131D1*
X1002773D2*
X1013273D1*
X1120552D2*
X1134249D1*
X1155523D2*
X1167725D1*
X1198221D2*
X1213146D1*
X1235861D2*
X1247891D1*
X1276552D2*
X1290249D1*
X1311523D2*
X1323725D1*
X1351818D2*
X1361377D1*
X1386438D2*
X1401961D1*
X1430971D2*
X1450131D1*
X1470773D2*
X1481273D1*
X573838Y3544556D2*
X586247D1*
X607150D2*
X619127D1*
X651838D2*
X664247D1*
X685150D2*
X697127D1*
X729838D2*
X742247D1*
X763150D2*
X775127D1*
X962033D2*
X978510D1*
X1002773D2*
X1013273D1*
X1119905D2*
X1132444D1*
X1158151D2*
X1166998D1*
X1197482D2*
X1210952D1*
X1239398D2*
X1246841D1*
X1275905D2*
X1288444D1*
X1314151D2*
X1322998D1*
X1352273D2*
X1355273D1*
X1388937D2*
X1402650D1*
X1430033D2*
X1446510D1*
X1470773D2*
X1481273D1*
X573033Y3543056D2*
X584700D1*
X608470D2*
X619886D1*
X651033D2*
X662700D1*
X686470D2*
X697886D1*
X729033D2*
X740700D1*
X764470D2*
X775886D1*
X961205D2*
X975670D1*
X1002773D2*
X1013273D1*
X1119323D2*
X1131118D1*
X1160704D2*
X1165956D1*
X1196912D2*
X1209363D1*
X1242773D2*
X1245773D1*
X1275323D2*
X1287118D1*
X1316704D2*
X1321956D1*
X1390866D2*
X1403211D1*
X1429205D2*
X1443670D1*
X1470773D2*
X1481273D1*
X572398Y3541556D2*
X583507D1*
X609604D2*
X620592D1*
X650398D2*
X661507D1*
X687604D2*
X698592D1*
X728398D2*
X739507D1*
X765604D2*
X776592D1*
X960476D2*
X973617D1*
X1002773D2*
X1013273D1*
X1118841D2*
X1130147D1*
X1163273D2*
X1164773D1*
X1196569D2*
X1208253D1*
X1274841D2*
X1286147D1*
X1319273D2*
X1320773D1*
X1392327D2*
X1403752D1*
X1428476D2*
X1441617D1*
X1470773D2*
X1481273D1*
X571815Y3540056D2*
X582547D1*
X610472D2*
X621201D1*
X649815D2*
X660547D1*
X688472D2*
X699201D1*
X727815D2*
X738547D1*
X766472D2*
X777201D1*
X959910D2*
X972185D1*
X1002773D2*
X1013273D1*
X1118541D2*
X1129476D1*
X1196398D2*
X1207518D1*
X1274541D2*
X1285476D1*
X1393464D2*
X1404216D1*
X1427910D2*
X1440185D1*
X1470773D2*
X1481273D1*
X571282Y3538556D2*
X581710D1*
X611132D2*
X621729D1*
X649282D2*
X659710D1*
X689132D2*
X699729D1*
X727282D2*
X737710D1*
X767132D2*
X777729D1*
X959563D2*
X971172D1*
X1002773D2*
X1013273D1*
X1118387D2*
X1129093D1*
X1196322D2*
X1207109D1*
X1274387D2*
X1285093D1*
X1393880D2*
X1404510D1*
X1427563D2*
X1439172D1*
X1470773D2*
X1481273D1*
X570791Y3537056D2*
X580978D1*
X611720D2*
X622258D1*
X648791D2*
X658978D1*
X689720D2*
X700258D1*
X726791D2*
X736978D1*
X767720D2*
X778258D1*
X959339D2*
X970484D1*
X1002773D2*
X1013273D1*
X1118318D2*
X1128906D1*
X1196291D2*
X1206912D1*
X1274318D2*
X1284906D1*
X1394106D2*
X1404661D1*
X1427339D2*
X1438484D1*
X1470773D2*
X1481273D1*
X570278Y3535556D2*
X580411D1*
X612210D2*
X622724D1*
X648278D2*
X658411D1*
X690210D2*
X700724D1*
X726278D2*
X736411D1*
X768210D2*
X778724D1*
X900773D2*
X914273D1*
X959072D2*
X970096D1*
X1002773D2*
X1013273D1*
X1118290D2*
X1128825D1*
X1196280D2*
X1206827D1*
X1274290D2*
X1284825D1*
X1394207D2*
X1404729D1*
X1427072D2*
X1438096D1*
X1470773D2*
X1481273D1*
X569818Y3534056D2*
X580063D1*
X612564D2*
X623069D1*
X647818D2*
X658063D1*
X690564D2*
X701069D1*
X725818D2*
X736063D1*
X768564D2*
X779069D1*
X797273D2*
X807773D1*
X852773D2*
X863273D1*
X896964D2*
X917903D1*
X958682D2*
X969907D1*
X1002773D2*
X1013273D1*
X1118279D2*
X1128792D1*
X1196275D2*
X1206799D1*
X1274279D2*
X1284792D1*
X1394243D2*
X1404751D1*
X1426682D2*
X1437907D1*
X1470773D2*
X1481273D1*
X569476Y3532556D2*
X579839D1*
X612909D2*
X623411D1*
X647476D2*
X657839D1*
X690909D2*
X701411D1*
X725476D2*
X735839D1*
X768909D2*
X779411D1*
X797843D2*
X808523D1*
X852203D2*
X862755D1*
X893800D2*
X921083D1*
X958292D2*
X969825D1*
X1002773D2*
X1013273D1*
X1118275D2*
X1128780D1*
X1196280D2*
X1206839D1*
X1274275D2*
X1284780D1*
X1394200D2*
X1404709D1*
X1426292D2*
X1437825D1*
X1470773D2*
X1481273D1*
X569135Y3531056D2*
X579572D1*
X613337D2*
X623838D1*
X647135D2*
X657572D1*
X691337D2*
X701838D1*
X725135D2*
X735572D1*
X769337D2*
X779838D1*
X798482D2*
X809152D1*
X851565D2*
X862255D1*
X891257D2*
X923691D1*
X958079D2*
X969792D1*
X1002773D2*
X1013273D1*
X1118274D2*
X1128775D1*
X1196332D2*
X1207031D1*
X1274274D2*
X1284775D1*
X1393962D2*
X1404521D1*
X1426079D2*
X1437792D1*
X1470773D2*
X1481273D1*
X568708Y3529556D2*
X579182D1*
X613750D2*
X624250D1*
X646708D2*
X657182D1*
X691750D2*
X702250D1*
X724708D2*
X735182D1*
X769750D2*
X780250D1*
X799132D2*
X809782D1*
X850915D2*
X861774D1*
X889205D2*
X925794D1*
X958129D2*
X969780D1*
X1002773D2*
X1013273D1*
X1118279D2*
X1128780D1*
X1196529D2*
X1207442D1*
X1274279D2*
X1284780D1*
X1393408D2*
X1404158D1*
X1426129D2*
X1437780D1*
X1470773D2*
X1481273D1*
X568296Y3528056D2*
X578786D1*
X614022D2*
X624523D1*
X646296D2*
X656786D1*
X692022D2*
X702523D1*
X724296D2*
X734786D1*
X770022D2*
X780523D1*
X799716D2*
X810454D1*
X850330D2*
X861215D1*
X887454D2*
X927572D1*
X958424D2*
X969781D1*
X1002773D2*
X1013273D1*
X1118332D2*
X1128832D1*
X1196941D2*
X1208023D1*
X1274332D2*
X1284832D1*
X1392600D2*
X1403721D1*
X1426424D2*
X1437781D1*
X1470773D2*
X1481273D1*
X568024Y3526556D2*
X578520D1*
X614165D2*
X624665D1*
X646024D2*
X656520D1*
X692165D2*
X702665D1*
X724024D2*
X734520D1*
X770165D2*
X780665D1*
X800235D2*
X811120D1*
X849811D2*
X860573D1*
X885898D2*
X929140D1*
X958788D2*
X969833D1*
X1002773D2*
X1013273D1*
X1118523D2*
X1129029D1*
X1197522D2*
X1208708D1*
X1274523D2*
X1285029D1*
X1391646D2*
X1403262D1*
X1426788D2*
X1437833D1*
X1470773D2*
X1481273D1*
X567881Y3525056D2*
X578380D1*
X614230D2*
X624730D1*
X645881D2*
X656380D1*
X692230D2*
X702730D1*
X723881D2*
X734380D1*
X770230D2*
X780730D1*
X800766D2*
X811712D1*
X849280D2*
X859919D1*
X884553D2*
X899568D1*
X915704D2*
X930491D1*
X959093D2*
X970029D1*
X1002773D2*
X1013273D1*
X1118888D2*
X1129441D1*
X1198202D2*
X1209534D1*
X1274888D2*
X1285441D1*
X1390386D2*
X1402711D1*
X1427093D2*
X1438029D1*
X1470773D2*
X1481273D1*
X567816Y3523556D2*
X578315D1*
X614257D2*
X624757D1*
X645816D2*
X656315D1*
X692257D2*
X702757D1*
X723816D2*
X734315D1*
X770257D2*
X780757D1*
X801278D2*
X812233D1*
X848769D2*
X859332D1*
X883449D2*
X897197D1*
X918401D2*
X931596D1*
X959419D2*
X970447D1*
X1002773D2*
X1013273D1*
X1119325D2*
X1130022D1*
X1198975D2*
X1210677D1*
X1275325D2*
X1286022D1*
X1388581D2*
X1402066D1*
X1427419D2*
X1438447D1*
X1470773D2*
X1481273D1*
X567789Y3522056D2*
X578289D1*
X614267D2*
X624767D1*
X645789D2*
X656289D1*
X692267D2*
X702767D1*
X723789D2*
X734289D1*
X770267D2*
X780767D1*
X801766D2*
X812766D1*
X848286D2*
X858812D1*
X882525D2*
X895247D1*
X920594D2*
X932521D1*
X959847D2*
X971081D1*
X1002773D2*
X1013273D1*
X1119784D2*
X1130696D1*
X1199915D2*
X1212406D1*
X1275784D2*
X1286696D1*
X1386236D2*
X1401360D1*
X1427847D2*
X1439081D1*
X1470773D2*
X1481273D1*
X567779Y3520556D2*
X578279D1*
X614271D2*
X624771D1*
X645779D2*
X656279D1*
X692271D2*
X702771D1*
X723779D2*
X734279D1*
X770271D2*
X780771D1*
X802329D2*
X813277D1*
X847770D2*
X858280D1*
X881703D2*
X893700D1*
X922189D2*
X933349D1*
X960316D2*
X971957D1*
X1002773D2*
X1013273D1*
X1120335D2*
X1131417D1*
X1201133D2*
X1215211D1*
X1276335D2*
X1287417D1*
X1383492D2*
X1400571D1*
X1428316D2*
X1439957D1*
X1470773D2*
X1481273D1*
X567775Y3519056D2*
X578275D1*
X614273D2*
X624773D1*
X645775D2*
X656275D1*
X692273D2*
X702773D1*
X723775D2*
X734275D1*
X770273D2*
X780773D1*
X802972D2*
X813760D1*
X847265D2*
X857769D1*
X880976D2*
X892513D1*
X923352D2*
X934129D1*
X960837D2*
X973155D1*
X1002773D2*
X1013273D1*
X1120980D2*
X1132160D1*
X1202718D2*
X1220100D1*
X1276980D2*
X1288160D1*
X1380382D2*
X1399580D1*
X1428837D2*
X1441155D1*
X1470773D2*
X1481273D1*
X567774Y3517556D2*
X578274D1*
X614273D2*
X624779D1*
X645774D2*
X656274D1*
X692273D2*
X702779D1*
X723774D2*
X734274D1*
X770273D2*
X780779D1*
X803627D2*
X814276D1*
X846779D2*
X857280D1*
X880404D2*
X891605D1*
X924278D2*
X934886D1*
X961589D2*
X974782D1*
X1002773D2*
X1013273D1*
X1121686D2*
X1132960D1*
X1204808D2*
X1227669D1*
X1277686D2*
X1288960D1*
X1376884D2*
X1398223D1*
X1429589D2*
X1442782D1*
X1470773D2*
X1481273D1*
X567773Y3516056D2*
X578273D1*
X614273D2*
X624832D1*
X645773D2*
X656273D1*
X692273D2*
X702832D1*
X723773D2*
X734273D1*
X770273D2*
X780832D1*
X804214D2*
X814781D1*
X846217D2*
X856718D1*
X880010D2*
X890960D1*
X925047D2*
X935587D1*
X962647D2*
X977061D1*
X1002773D2*
X1013273D1*
X1122470D2*
X1133904D1*
X1207501D2*
X1236773D1*
X1278470D2*
X1289904D1*
X1373160D2*
X1396476D1*
X1430647D2*
X1445061D1*
X1470773D2*
X1481273D1*
X567773Y3514556D2*
X578273D1*
X614273D2*
X625017D1*
X645773D2*
X656273D1*
X692273D2*
X703017D1*
X723773D2*
X734273D1*
X770273D2*
X781017D1*
X804734D2*
X815268D1*
X845574D2*
X856074D1*
X879648D2*
X890587D1*
X925634D2*
X936148D1*
X963929D2*
X980125D1*
X1002773D2*
X1013273D1*
X1123402D2*
X1135061D1*
X1210746D2*
X1236773D1*
X1279402D2*
X1291061D1*
X1369521D2*
X1394417D1*
X1431929D2*
X1448125D1*
X1470773D2*
X1481273D1*
X567773Y3513056D2*
X578273D1*
X614273D2*
X625324D1*
X645773D2*
X656273D1*
X692273D2*
X703324D1*
X723773D2*
X734273D1*
X770273D2*
X781324D1*
X805266D2*
X815829D1*
X844920D2*
X855420D1*
X879213D2*
X890404D1*
X926034D2*
X936538D1*
X965340D2*
X983815D1*
X1002773D2*
X1013273D1*
X1124509D2*
X1136338D1*
X1214273D2*
X1236767D1*
X1280509D2*
X1292338D1*
X1366128D2*
X1392077D1*
X1433340D2*
X1451815D1*
X1470773D2*
X1481273D1*
X567773Y3511556D2*
X578273D1*
X614273D2*
X625517D1*
X645773D2*
X656273D1*
X692273D2*
X703517D1*
X723773D2*
X734273D1*
X770273D2*
X781517D1*
X805777D2*
X816472D1*
X844333D2*
X854833D1*
X878798D2*
X890324D1*
X926398D2*
X936899D1*
X966860D2*
X1013273D1*
X1125648D2*
X1137572D1*
X1210131D2*
X1236710D1*
X1281648D2*
X1293572D1*
X1362985D2*
X1389450D1*
X1434860D2*
X1481273D1*
X567773Y3510056D2*
X578273D1*
X614273D2*
X625419D1*
X645773D2*
X656273D1*
X692273D2*
X703419D1*
X723773D2*
X734273D1*
X770273D2*
X781419D1*
X806266D2*
X817127D1*
X843812D2*
X854312D1*
X878524D2*
X890292D1*
X926834D2*
X937334D1*
X968584D2*
X1013273D1*
X1126713D2*
X1138682D1*
X1206505D2*
X1236478D1*
X1282713D2*
X1294682D1*
X1360145D2*
X1386577D1*
X1436584D2*
X1481273D1*
X567773Y3508556D2*
X578273D1*
X614273D2*
X625174D1*
X645773D2*
X656273D1*
X692273D2*
X703174D1*
X723773D2*
X734273D1*
X770273D2*
X781174D1*
X806829D2*
X817714D1*
X843280D2*
X853780D1*
X878381D2*
X890280D1*
X927253D2*
X937749D1*
X970564D2*
X1013273D1*
X1127798D2*
X1139786D1*
X1203612D2*
X1235966D1*
X1283798D2*
X1295786D1*
X1357718D2*
X1383414D1*
X1438564D2*
X1481273D1*
X567773Y3507056D2*
X578273D1*
X614273D2*
X624976D1*
X645773D2*
X656273D1*
X692273D2*
X702976D1*
X723773D2*
X734273D1*
X770273D2*
X780976D1*
X807472D2*
X818234D1*
X842769D2*
X853269D1*
X878316D2*
X890275D1*
X927549D2*
X938022D1*
X972504D2*
X1013273D1*
X1129018D2*
X1141020D1*
X1201362D2*
X1235273D1*
X1285018D2*
X1297020D1*
X1355698D2*
X1379896D1*
X1440504D2*
X1481273D1*
X567773Y3505556D2*
X578273D1*
X614273D2*
X624863D1*
X645773D2*
X656273D1*
X692273D2*
X702863D1*
X723773D2*
X734273D1*
X770273D2*
X780863D1*
X808127D2*
X818766D1*
X842286D2*
X852780D1*
X878289D2*
X938165D1*
X974143D2*
X1013273D1*
X1130322D2*
X1142380D1*
X1199517D2*
X1216312D1*
X1286322D2*
X1298380D1*
X1353954D2*
X1376164D1*
X1442143D2*
X1481273D1*
X567773Y3504056D2*
X578273D1*
X614273D2*
X624810D1*
X645773D2*
X656273D1*
X692273D2*
X702810D1*
X723773D2*
X734273D1*
X770273D2*
X780810D1*
X808714D2*
X819277D1*
X841770D2*
X852218D1*
X878279D2*
X938230D1*
X974584D2*
X1013273D1*
X1131566D2*
X1143810D1*
X1197928D2*
X1212917D1*
X1287566D2*
X1299810D1*
X1352399D2*
X1372528D1*
X1442584D2*
X1481273D1*
X567773Y3502556D2*
X578273D1*
X614273D2*
X624787D1*
X645773D2*
X656273D1*
X692273D2*
X702787D1*
X723773D2*
X734273D1*
X770273D2*
X780787D1*
X809240D2*
X819760D1*
X841265D2*
X851574D1*
X878281D2*
X938257D1*
X974266D2*
X1013273D1*
X1132680D2*
X1145230D1*
X1196614D2*
X1210250D1*
X1288680D2*
X1301230D1*
X1351053D2*
X1369187D1*
X1442266D2*
X1481273D1*
X567773Y3501056D2*
X578273D1*
X614273D2*
X624778D1*
X645773D2*
X656273D1*
X692273D2*
X702778D1*
X723773D2*
X734273D1*
X770273D2*
X780778D1*
X809819D2*
X820276D1*
X840779D2*
X850920D1*
X878337D2*
X938267D1*
X973736D2*
X986505D1*
X1002773D2*
X1013273D1*
X1133785D2*
X1146529D1*
X1195649D2*
X1208290D1*
X1289785D2*
X1302529D1*
X1349955D2*
X1366235D1*
X1441736D2*
X1454505D1*
X1470773D2*
X1481273D1*
X567773Y3499556D2*
X578273D1*
X614273D2*
X624775D1*
X645773D2*
X656273D1*
X692273D2*
X702775D1*
X723773D2*
X734273D1*
X770273D2*
X780775D1*
X810469D2*
X820781D1*
X840217D2*
X850333D1*
X878568D2*
X938271D1*
X973035D2*
X985383D1*
X1002773D2*
X1013273D1*
X1135020D2*
X1147666D1*
X1194944D2*
X1206900D1*
X1291020D2*
X1303666D1*
X1349084D2*
X1363760D1*
X1441035D2*
X1453383D1*
X1470773D2*
X1481273D1*
X567779Y3498056D2*
X578279D1*
X614273D2*
X624768D1*
X645779D2*
X656279D1*
X692273D2*
X702768D1*
X723779D2*
X734279D1*
X770273D2*
X780768D1*
X811126D2*
X821268D1*
X839574D2*
X849812D1*
X879081D2*
X938273D1*
X972180D2*
X984324D1*
X1002773D2*
X1013273D1*
X1136380D2*
X1148780D1*
X1194337D2*
X1205856D1*
X1292380D2*
X1304780D1*
X1348447D2*
X1361776D1*
X1440180D2*
X1452324D1*
X1470773D2*
X1481273D1*
X567832Y3496556D2*
X578332D1*
X614267D2*
X624715D1*
X645832D2*
X656332D1*
X692267D2*
X702715D1*
X723832D2*
X734332D1*
X770267D2*
X780715D1*
X811713D2*
X821829D1*
X838920D2*
X849280D1*
X879773D2*
X938273D1*
X971228D2*
X983284D1*
X1002773D2*
X1013273D1*
X1137815D2*
X1150018D1*
X1193846D2*
X1205034D1*
X1293815D2*
X1306018D1*
X1348026D2*
X1360261D1*
X1439228D2*
X1451284D1*
X1470773D2*
X1481273D1*
X568023Y3495056D2*
X578523D1*
X614215D2*
X624523D1*
X646023D2*
X656523D1*
X692215D2*
X702523D1*
X724023D2*
X734523D1*
X770215D2*
X780523D1*
X812234D2*
X822472D1*
X838333D2*
X848769D1*
X927767D2*
X938267D1*
X970315D2*
X982335D1*
X1002773D2*
X1013273D1*
X1139289D2*
X1151379D1*
X1193542D2*
X1204431D1*
X1295289D2*
X1307379D1*
X1347653D2*
X1359207D1*
X1438315D2*
X1450335D1*
X1470773D2*
X1481273D1*
X568382Y3493556D2*
X578882D1*
X614023D2*
X624164D1*
X646382D2*
X656882D1*
X692023D2*
X702164D1*
X724382D2*
X734882D1*
X770023D2*
X780164D1*
X812766D2*
X823127D1*
X837812D2*
X848280D1*
X927715D2*
X938215D1*
X969467D2*
X981474D1*
X1002773D2*
X1013273D1*
X1140779D2*
X1152815D1*
X1193387D2*
X1204076D1*
X1296779D2*
X1308815D1*
X1347215D2*
X1358465D1*
X1437467D2*
X1449474D1*
X1470773D2*
X1481273D1*
X568767Y3492056D2*
X579267D1*
X613664D2*
X623780D1*
X646767D2*
X657267D1*
X691664D2*
X701780D1*
X724767D2*
X735267D1*
X769664D2*
X779780D1*
X813277D2*
X823714D1*
X837280D2*
X847718D1*
X927523D2*
X938023D1*
X968625D2*
X980628D1*
X1002773D2*
X1013273D1*
X1142275D2*
X1154289D1*
X1193318D2*
X1203900D1*
X1298275D2*
X1310289D1*
X1346798D2*
X1357845D1*
X1436625D2*
X1448628D1*
X1470773D2*
X1481273D1*
X569034Y3490556D2*
X579534D1*
X613274D2*
X623512D1*
X647034D2*
X657534D1*
X691274D2*
X701512D1*
X725034D2*
X735534D1*
X769274D2*
X779512D1*
X813766D2*
X824234D1*
X836769D2*
X847074D1*
X927158D2*
X937664D1*
X967713D2*
X979714D1*
X1002773D2*
X1013273D1*
X1143774D2*
X1155779D1*
X1193290D2*
X1203823D1*
X1299774D2*
X1311779D1*
X1346530D2*
X1357355D1*
X1435713D2*
X1447714D1*
X1470773D2*
X1481273D1*
X569226Y3489056D2*
X579726D1*
X612959D2*
X623320D1*
X647226D2*
X657726D1*
X690959D2*
X701320D1*
X725226D2*
X735726D1*
X768959D2*
X779320D1*
X814329D2*
X824760D1*
X836286D2*
X846420D1*
X926721D2*
X937274D1*
X966734D2*
X978740D1*
X1002773D2*
X1013273D1*
X1145273D2*
X1157275D1*
X1193279D2*
X1203797D1*
X1301273D2*
X1313275D1*
X1346440D2*
X1357102D1*
X1434734D2*
X1446740D1*
X1470773D2*
X1481273D1*
X569481Y3487556D2*
X579987D1*
X612629D2*
X623065D1*
X647481D2*
X657987D1*
X690629D2*
X701065D1*
X725481D2*
X735987D1*
X768629D2*
X779065D1*
X814972D2*
X825225D1*
X835770D2*
X845833D1*
X926262D2*
X936959D1*
X965766D2*
X977819D1*
X1002773D2*
X1013273D1*
X1146767D2*
X1158774D1*
X1193281D2*
X1203838D1*
X1302767D2*
X1314774D1*
X1346566D2*
X1357137D1*
X1433766D2*
X1445819D1*
X1470773D2*
X1481273D1*
X569872Y3486056D2*
X580425D1*
X612200D2*
X622674D1*
X647872D2*
X658425D1*
X690200D2*
X700674D1*
X725872D2*
X736425D1*
X768200D2*
X778674D1*
X815627D2*
X825569D1*
X835265D2*
X845312D1*
X925711D2*
X936623D1*
X964777D2*
X976974D1*
X1002773D2*
X1013273D1*
X1148215D2*
X1160273D1*
X1193332D2*
X1204031D1*
X1304215D2*
X1316273D1*
X1346898D2*
X1357433D1*
X1432777D2*
X1444974D1*
X1470773D2*
X1481273D1*
X570320Y3484556D2*
X581017D1*
X611731D2*
X622227D1*
X648320D2*
X659017D1*
X689731D2*
X700227D1*
X726320D2*
X737017D1*
X767731D2*
X778227D1*
X816214D2*
X825911D1*
X834785D2*
X844780D1*
X925066D2*
X936148D1*
X963766D2*
X976178D1*
X1002773D2*
X1013273D1*
X1149523D2*
X1161767D1*
X1193523D2*
X1204447D1*
X1305523D2*
X1317767D1*
X1347278D2*
X1357848D1*
X1431766D2*
X1444178D1*
X1470773D2*
X1481273D1*
X570782Y3483056D2*
X581700D1*
X611215D2*
X621764D1*
X648782D2*
X659700D1*
X689215D2*
X699764D1*
X726782D2*
X737700D1*
X767215D2*
X777764D1*
X816734D2*
X826344D1*
X834270D2*
X844269D1*
X924360D2*
X935540D1*
X962829D2*
X975405D1*
X1002773D2*
X1013273D1*
X1150664D2*
X1163215D1*
X1193888D2*
X1205081D1*
X1306664D2*
X1319215D1*
X1347589D2*
X1358349D1*
X1430829D2*
X1443405D1*
X1470773D2*
X1481273D1*
X571334Y3481556D2*
X582475D1*
X610510D2*
X621212D1*
X649334D2*
X660475D1*
X688510D2*
X699212D1*
X727334D2*
X738475D1*
X766510D2*
X777212D1*
X817266D2*
X826809D1*
X833765D2*
X843780D1*
X923571D2*
X934856D1*
X961972D2*
X974599D1*
X1002773D2*
X1013273D1*
X1151780D2*
X1164523D1*
X1194325D2*
X1205952D1*
X1307780D2*
X1320523D1*
X1347924D2*
X1359099D1*
X1429972D2*
X1442599D1*
X1470773D2*
X1481273D1*
X571980Y3480056D2*
X583415D1*
X609590D2*
X620566D1*
X649980D2*
X661415D1*
X687590D2*
X698566D1*
X727980D2*
X739415D1*
X765590D2*
X776566D1*
X817777D2*
X827272D1*
X833285D2*
X843218D1*
X922574D2*
X934132D1*
X961127D2*
X973703D1*
X1002773D2*
X1013273D1*
X1153018D2*
X1165664D1*
X1194784D2*
X1207096D1*
X1309018D2*
X1321664D1*
X1348399D2*
X1360219D1*
X1429127D2*
X1441703D1*
X1470773D2*
X1481273D1*
X572686Y3478556D2*
X584680D1*
X608430D2*
X619860D1*
X650686D2*
X662680D1*
X686430D2*
X697860D1*
X728686D2*
X740680D1*
X764430D2*
X775860D1*
X818266D2*
X827780D1*
X832770D2*
X842574D1*
X921164D2*
X933387D1*
X960214D2*
X972736D1*
X1002773D2*
X1013273D1*
X1154379D2*
X1166774D1*
X1195341D2*
X1208532D1*
X1310379D2*
X1322774D1*
X1349007D2*
X1361808D1*
X1428214D2*
X1440736D1*
X1470773D2*
X1481273D1*
X573464Y3477056D2*
X586252D1*
X607003D2*
X619077D1*
X651464D2*
X664252D1*
X685003D2*
X697077D1*
X729464D2*
X742252D1*
X763003D2*
X775077D1*
X818829D2*
X828287D1*
X832261D2*
X841920D1*
X919226D2*
X932587D1*
X959240D2*
X971817D1*
X1002773D2*
X1013273D1*
X1155815D2*
X1167954D1*
X1196039D2*
X1210451D1*
X1247273D2*
X1250273D1*
X1311815D2*
X1323954D1*
X1349696D2*
X1364071D1*
X1403273D2*
X1406273D1*
X1427240D2*
X1439817D1*
X1470773D2*
X1481273D1*
X574349Y3475556D2*
X590482D1*
X603254D2*
X618145D1*
X652349D2*
X668482D1*
X681254D2*
X696145D1*
X730349D2*
X746482D1*
X759254D2*
X774145D1*
X819472D2*
X828808D1*
X831738D2*
X841333D1*
X882773D2*
X887273D1*
X916810D2*
X931643D1*
X958319D2*
X970968D1*
X1002773D2*
X1013273D1*
X1157288D2*
X1169065D1*
X1196936D2*
X1213127D1*
X1242669D2*
X1250273D1*
X1313288D2*
X1325065D1*
X1350473D2*
X1367128D1*
X1397169D2*
X1406273D1*
X1426319D2*
X1438968D1*
X1470773D2*
X1481273D1*
X575324Y3474056D2*
X597099D1*
X597452D2*
X617031D1*
X653324D2*
X675099D1*
X675452D2*
X695031D1*
X731324D2*
X753099D1*
X753452D2*
X773031D1*
X820127D2*
X829479D1*
X831068D2*
X840812D1*
X882773D2*
X893273D1*
X914097D2*
X930474D1*
X957469D2*
X970125D1*
X1002773D2*
X1013273D1*
X1113773D2*
X1169892D1*
X1198085D2*
X1216533D1*
X1237596D2*
X1250273D1*
X1269773D2*
X1325892D1*
X1351415D2*
X1370816D1*
X1390596D2*
X1406273D1*
X1425469D2*
X1438125D1*
X1470773D2*
X1481273D1*
X576347Y3472556D2*
X615840D1*
X654347D2*
X693840D1*
X732347D2*
X771840D1*
X820714D2*
X840280D1*
X882779D2*
X929091D1*
X956626D2*
X969213D1*
X1002773D2*
X1013273D1*
X1113773D2*
X1170372D1*
X1199460D2*
X1250267D1*
X1269773D2*
X1326372D1*
X1352633D2*
X1406267D1*
X1424626D2*
X1437213D1*
X1470773D2*
X1481273D1*
X577584Y3471056D2*
X614578D1*
X655584D2*
X692578D1*
X733584D2*
X770578D1*
X821234D2*
X839769D1*
X882849D2*
X927463D1*
X955713D2*
X968240D1*
X1002773D2*
X1013273D1*
X1113773D2*
X1170607D1*
X1201085D2*
X1250197D1*
X1269773D2*
X1326607D1*
X1354212D2*
X1406197D1*
X1423713D2*
X1436240D1*
X1470773D2*
X1481273D1*
X579215Y3469556D2*
X613075D1*
X657215D2*
X691075D1*
X735215D2*
X769075D1*
X821760D2*
X839285D1*
X883025D2*
X925517D1*
X954735D2*
X967323D1*
X1002773D2*
X1013273D1*
X1113773D2*
X1170709D1*
X1203035D2*
X1250021D1*
X1269773D2*
X1326709D1*
X1356257D2*
X1406021D1*
X1422735D2*
X1435323D1*
X1470773D2*
X1481273D1*
X581256Y3468056D2*
X611215D1*
X659256D2*
X689215D1*
X737256D2*
X767215D1*
X822223D2*
X838762D1*
X883989D2*
X923145D1*
X953774D2*
X966518D1*
X1002773D2*
X1013273D1*
X1113773D2*
X1170750D1*
X1205464D2*
X1249057D1*
X1269773D2*
X1326750D1*
X1358834D2*
X1405034D1*
X1421774D2*
X1434518D1*
X1470773D2*
X1481273D1*
X583786Y3466556D2*
X608992D1*
X661786D2*
X686992D1*
X739786D2*
X764992D1*
X822538D2*
X838245D1*
X886719D2*
X920180D1*
X952798D2*
X965846D1*
X1002773D2*
X1013273D1*
X1113773D2*
X1170765D1*
X1208662D2*
X1246328D1*
X1269773D2*
X1326765D1*
X1362041D2*
X1402043D1*
X1420798D2*
X1433846D1*
X1470773D2*
X1481273D1*
X586876Y3465056D2*
X606453D1*
X664876D2*
X684453D1*
X742876D2*
X762453D1*
X822773D2*
X837773D1*
X890468D2*
X916616D1*
X951773D2*
X965273D1*
X1002773D2*
X1013273D1*
X1113773D2*
X1170773D1*
X1212738D2*
X1242578D1*
X1269773D2*
X1326773D1*
X1365953D2*
X1397773D1*
X1419773D2*
X1433273D1*
X1470773D2*
X1481273D1*
X590273Y3463556D2*
X603773D1*
X668273D2*
X681773D1*
X746273D2*
X759773D1*
X894773D2*
X912773D1*
X1217273D2*
X1238273D1*
X1370273D2*
X1392773D1*
X1146522Y1164222D2*
X1155522D1*
X1146522Y1162722D2*
X1155522D1*
X1146522Y1161222D2*
X1155516D1*
X1146522Y1159722D2*
X1155459D1*
X1146522Y1158222D2*
X1155227D1*
X1146522Y1156722D2*
X1154714D1*
X1146522Y1155222D2*
X1154022D1*
X1119522Y1140222D2*
X1139022D1*
X1116073Y1138722D2*
X1142651D1*
X1113125Y1137222D2*
X1145825D1*
X1110737Y1135722D2*
X1148381D1*
X1108877Y1134222D2*
X1150287D1*
X1107408Y1132722D2*
X1151659D1*
X1106171Y1131222D2*
X1121674D1*
X1136869D2*
X1152698D1*
X1105143Y1129722D2*
X1117177D1*
X1141367D2*
X1153566D1*
X1104307Y1128222D2*
X1113840D1*
X1144710D2*
X1154316D1*
X1103691Y1126722D2*
X1111272D1*
X1147006D2*
X1154941D1*
X1103330Y1125222D2*
X1110111D1*
X1148544D2*
X1155475D1*
X1103151Y1123722D2*
X1109284D1*
X1149599D2*
X1156006D1*
X1103072Y1122222D2*
X1108621D1*
X1150302D2*
X1156467D1*
X1103040Y1120722D2*
X1108108D1*
X1150696D2*
X1156759D1*
X1103028Y1119222D2*
X1107795D1*
X1150887D2*
X1156910D1*
X1103024Y1117722D2*
X1107643D1*
X1150970D2*
X1156972D1*
X1103023Y1116222D2*
X1107626D1*
X1150997D2*
X1156947D1*
X1103022Y1114722D2*
X1107794D1*
X1150951D2*
X1156766D1*
X1103028Y1113222D2*
X1108201D1*
X1150705D2*
X1156411D1*
X1103080Y1111722D2*
X1108832D1*
X1150098D2*
X1156022D1*
X1103277Y1110222D2*
X1109713D1*
X1149093D2*
X1155708D1*
X1103689Y1108722D2*
X1110962D1*
X1147721D2*
X1155372D1*
X1104271Y1107222D2*
X1112779D1*
X1145828D2*
X1154890D1*
X1104950Y1105722D2*
X1115407D1*
X1143162D2*
X1154230D1*
X1105724Y1104222D2*
X1118793D1*
X1139760D2*
X1153349D1*
X1106664Y1102722D2*
X1152207D1*
X1107887Y1101222D2*
X1150822D1*
X1109542Y1099722D2*
X1149075D1*
X1111996Y1098222D2*
X1146577D1*
X1115757Y1096722D2*
X1142798D1*
X1120986Y1095222D2*
X1137561D1*
X1127022Y1093722D2*
X1131522D1*
X1104522Y1083222D2*
X1107522D1*
X1104522Y1081722D2*
X1155522D1*
X1104545Y1080222D2*
X1155516D1*
X1104616Y1078722D2*
X1155459D1*
X1105319Y1077222D2*
X1155227D1*
X1107657Y1075722D2*
X1154714D1*
X1110522Y1074222D2*
X1154022D1*
X1109028Y1072722D2*
X1116817D1*
X1107580Y1071222D2*
X1114445D1*
X1106277Y1069722D2*
X1112501D1*
X1105195Y1068222D2*
X1111002D1*
X1104330Y1066722D2*
X1109953D1*
X1103700Y1065222D2*
X1109213D1*
X1103333Y1063722D2*
X1108593D1*
X1103152Y1062222D2*
X1108103D1*
X1103072Y1060722D2*
X1107850D1*
X1103040Y1059222D2*
X1107886D1*
X1103028Y1057722D2*
X1108188D1*
X1103024Y1056222D2*
X1108661D1*
X1103028Y1054722D2*
X1109236D1*
X1103081Y1053222D2*
X1110721D1*
X1103277Y1051722D2*
X1112800D1*
X1103695Y1050222D2*
X1115322D1*
X1104330Y1048722D2*
X1155522D1*
X1105212Y1047222D2*
X1155522D1*
X1106459Y1045722D2*
X1155522D1*
X1108241Y1044222D2*
X1155522D1*
X1110684Y1042722D2*
X1155522D1*
X1113522Y1041222D2*
X1155522D1*
X1083522Y1027722D2*
X1154022D1*
X1083522Y1026222D2*
X1154714D1*
X1083522Y1024722D2*
X1155139D1*
X1083522Y1023222D2*
X1155300D1*
X1083522Y1021722D2*
X1155165D1*
X1083522Y1020222D2*
X1154693D1*
X1083522Y1018722D2*
X1154022D1*
X1083522Y1005222D2*
X1089522D1*
X1104522D2*
X1154022D1*
X1083522Y1003722D2*
X1089522D1*
X1104522D2*
X1154714D1*
X1083522Y1002222D2*
X1089522D1*
X1104522D2*
X1155145D1*
X1083522Y1000722D2*
X1089522D1*
X1104522D2*
X1155363D1*
X1083522Y999222D2*
X1089522D1*
X1104522D2*
X1155464D1*
X1083522Y997722D2*
X1089522D1*
X1104522D2*
X1155522D1*
X1104522Y982722D2*
X1107522D1*
X1104522Y981222D2*
X1155522D1*
X1104545Y979722D2*
X1155516D1*
X1104616Y978222D2*
X1155459D1*
X1105319Y976722D2*
X1155227D1*
X1107657Y975222D2*
X1154714D1*
X1110522Y973722D2*
X1154022D1*
X1109028Y972222D2*
X1116817D1*
X1107580Y970722D2*
X1114445D1*
X1106277Y969222D2*
X1112501D1*
X1105195Y967722D2*
X1111002D1*
X1104330Y966222D2*
X1109953D1*
X1103700Y964722D2*
X1109213D1*
X1103333Y963222D2*
X1108593D1*
X1103152Y961722D2*
X1108103D1*
X1103072Y960222D2*
X1107850D1*
X1103040Y958722D2*
X1107886D1*
X1103028Y957222D2*
X1108188D1*
X1103024Y955722D2*
X1108661D1*
X1103028Y954222D2*
X1109236D1*
X1103081Y952722D2*
X1110721D1*
X1103277Y951222D2*
X1112800D1*
X1103695Y949722D2*
X1115322D1*
X1104330Y948222D2*
X1155522D1*
X1105212Y946722D2*
X1155522D1*
X1106459Y945222D2*
X1155522D1*
X1108241Y943722D2*
X1155522D1*
X1110684Y942222D2*
X1155522D1*
X1113522Y940722D2*
X1155522D1*
X1119522Y928722D2*
X1139022D1*
X1116124Y927222D2*
X1142651D1*
X1113316Y925722D2*
X1145825D1*
X1111096Y924222D2*
X1148381D1*
X1109261Y922722D2*
X1150287D1*
X1107675Y921222D2*
X1151659D1*
X1106362Y919722D2*
X1119885D1*
X1123727D2*
X1130022D1*
X1136869D2*
X1152698D1*
X1105398Y918222D2*
X1116312D1*
X1124604D2*
X1130022D1*
X1141367D2*
X1153566D1*
X1104693Y916722D2*
X1113616D1*
X1125107D2*
X1130022D1*
X1144710D2*
X1154316D1*
X1104086Y915222D2*
X1111778D1*
X1125350D2*
X1130022D1*
X1147006D2*
X1154941D1*
X1103595Y913722D2*
X1110509D1*
X1125456D2*
X1130022D1*
X1148544D2*
X1155475D1*
X1103291Y912222D2*
X1109541D1*
X1125498D2*
X1130022D1*
X1149599D2*
X1156006D1*
X1103136Y910722D2*
X1108757D1*
X1125513D2*
X1130022D1*
X1150302D2*
X1156467D1*
X1103067Y909222D2*
X1108170D1*
X1125519D2*
X1130022D1*
X1150696D2*
X1156759D1*
X1103038Y907722D2*
X1107821D1*
X1125521D2*
X1130022D1*
X1150887D2*
X1156910D1*
X1103028Y906222D2*
X1107653D1*
X1125521D2*
X1130022D1*
X1150970D2*
X1156978D1*
X1103024Y904722D2*
X1107629D1*
X1125522D2*
X1130022D1*
X1150997D2*
X1156999D1*
X1103022Y903222D2*
X1107796D1*
X1125522D2*
X1130022D1*
X1150956D2*
X1156957D1*
X1103028Y901722D2*
X1108202D1*
X1125522D2*
X1130022D1*
X1150764D2*
X1156770D1*
X1103080Y900222D2*
X1108832D1*
X1125522D2*
X1130022D1*
X1150348D2*
X1156406D1*
X1103277Y898722D2*
X1109713D1*
X1125522D2*
X1130022D1*
X1149714D2*
X1155969D1*
X1103689Y897222D2*
X1110985D1*
X1125498D2*
X1130022D1*
X1148843D2*
X1155511D1*
X1104271Y895722D2*
X1113031D1*
X1125428D2*
X1130022D1*
X1147716D2*
X1154960D1*
X1104950Y894222D2*
X1116587D1*
X1124725D2*
X1130022D1*
X1146456D2*
X1154315D1*
X1105730Y892722D2*
X1122023D1*
X1122387D2*
X1130022D1*
X1145291D2*
X1153609D1*
X1106723Y891222D2*
X1130022D1*
X1144317D2*
X1152819D1*
X1108137Y889722D2*
X1130022D1*
X1144014D2*
X1151824D1*
X1110132Y888222D2*
X1130022D1*
X1144272D2*
X1150434D1*
X1112780Y886722D2*
X1130022D1*
X1144642D2*
X1148600D1*
X1116005Y885222D2*
X1130022D1*
X1145022D2*
X1146522D1*
X1119522Y883722D2*
X1130022D1*
X1092900Y2435400D2*
X1103400D1*
X1110900D2*
X1116900D1*
X1136400D2*
X1146900D1*
X1175400D2*
X1184400D1*
X1191900D2*
X1197900D1*
X1217400D2*
X1229400D1*
X1091457Y2433900D2*
X1105359D1*
X1110838D2*
X1116207D1*
X1134213D2*
X1149779D1*
X1173213D2*
X1186873D1*
X1191624D2*
X1197900D1*
X1214752D2*
X1231586D1*
X1090155Y2432400D2*
X1106907D1*
X1110605D2*
X1115776D1*
X1132335D2*
X1152087D1*
X1171341D2*
X1189363D1*
X1191097D2*
X1197900D1*
X1212572D2*
X1233464D1*
X1089073Y2430900D2*
X1097757D1*
X1103099D2*
X1108186D1*
X1110092D2*
X1115558D1*
X1130814D2*
X1138252D1*
X1145099D2*
X1153826D1*
X1169867D2*
X1178700D1*
X1184099D2*
X1197900D1*
X1210982D2*
X1219252D1*
X1226099D2*
X1234985D1*
X1088207Y2429400D2*
X1095625D1*
X1105423D2*
X1115462D1*
X1129635D2*
X1136072D1*
X1147423D2*
X1155102D1*
X1168826D2*
X1176382D1*
X1186423D2*
X1197900D1*
X1209820D2*
X1217072D1*
X1228423D2*
X1236164D1*
X1087578Y2427900D2*
X1093972D1*
X1107229D2*
X1115423D1*
X1128724D2*
X1134488D1*
X1149229D2*
X1156046D1*
X1168090D2*
X1174629D1*
X1188229D2*
X1197900D1*
X1208894D2*
X1215488D1*
X1230229D2*
X1237075D1*
X1087211Y2426400D2*
X1093186D1*
X1108555D2*
X1115408D1*
X1128028D2*
X1133379D1*
X1150555D2*
X1156711D1*
X1167471D2*
X1173297D1*
X1189555D2*
X1197900D1*
X1208126D2*
X1214379D1*
X1231555D2*
X1237772D1*
X1087030Y2424900D2*
X1092516D1*
X1109526D2*
X1115402D1*
X1127464D2*
X1132644D1*
X1151526D2*
X1157142D1*
X1166975D2*
X1172833D1*
X1190526D2*
X1197900D1*
X1207544D2*
X1213644D1*
X1232526D2*
X1238335D1*
X1086950Y2423400D2*
X1091993D1*
X1110197D2*
X1115401D1*
X1126921D2*
X1132235D1*
X1152197D2*
X1157518D1*
X1166670D2*
X1172584D1*
X1191197D2*
X1197900D1*
X1207198D2*
X1213235D1*
X1233197D2*
X1238878D1*
X1086918Y2421900D2*
X1091676D1*
X1110580D2*
X1115400D1*
X1126457D2*
X1132038D1*
X1152581D2*
X1157957D1*
X1166514D2*
X1172471D1*
X1191580D2*
X1197900D1*
X1207025D2*
X1213038D1*
X1233580D2*
X1239342D1*
X1086906Y2420400D2*
X1091516D1*
X1110767D2*
X1115400D1*
X1126163D2*
X1131950D1*
X1152777D2*
X1158374D1*
X1166445D2*
X1172426D1*
X1191767D2*
X1197900D1*
X1206949D2*
X1212953D1*
X1233767D2*
X1239636D1*
X1086902Y2418900D2*
X1091445D1*
X1110848D2*
X1115400D1*
X1126012D2*
X1158648D1*
X1166416D2*
X1172409D1*
X1191848D2*
X1197900D1*
X1206918D2*
X1212919D1*
X1233848D2*
X1239787D1*
X1086900Y2417400D2*
X1091417D1*
X1110881D2*
X1115400D1*
X1125941D2*
X1158786D1*
X1166406D2*
X1172403D1*
X1191881D2*
X1197900D1*
X1206906D2*
X1212906D1*
X1233881D2*
X1239849D1*
X1086900Y2415900D2*
X1091406D1*
X1110893D2*
X1115400D1*
X1125900D2*
X1158798D1*
X1166402D2*
X1172401D1*
X1191893D2*
X1197900D1*
X1206902D2*
X1212902D1*
X1233893D2*
X1239824D1*
X1086900Y2414400D2*
X1091402D1*
X1110897D2*
X1115400D1*
X1152894D2*
X1158634D1*
X1166400D2*
X1172400D1*
X1191891D2*
X1197900D1*
X1206906D2*
X1212900D1*
X1233891D2*
X1239644D1*
X1086900Y2412900D2*
X1091400D1*
X1110899D2*
X1115400D1*
X1152841D2*
X1158285D1*
X1166406D2*
X1172400D1*
X1191840D2*
X1197900D1*
X1206958D2*
X1212906D1*
X1233840D2*
X1239289D1*
X1086900Y2411400D2*
X1091400D1*
X1110899D2*
X1115400D1*
X1152644D2*
X1157898D1*
X1166458D2*
X1172405D1*
X1191650D2*
X1197900D1*
X1207149D2*
X1212958D1*
X1233644D2*
X1238899D1*
X1086900Y2409900D2*
X1091400D1*
X1110900D2*
X1115400D1*
X1152226D2*
X1157585D1*
X1166649D2*
X1172464D1*
X1191285D2*
X1197900D1*
X1207514D2*
X1213155D1*
X1233226D2*
X1238586D1*
X1086900Y2408400D2*
X1091400D1*
X1110900D2*
X1115400D1*
X1151586D2*
X1157249D1*
X1167014D2*
X1172720D1*
X1190836D2*
X1197900D1*
X1207958D2*
X1213579D1*
X1232592D2*
X1238250D1*
X1086900Y2406900D2*
X1091400D1*
X1110900D2*
X1115400D1*
X1128900D2*
X1131900D1*
X1150633D2*
X1156768D1*
X1167458D2*
X1173205D1*
X1190242D2*
X1197900D1*
X1208469D2*
X1214301D1*
X1231692D2*
X1237768D1*
X1086900Y2405400D2*
X1091400D1*
X1110900D2*
X1115400D1*
X1128317D2*
X1133761D1*
X1149362D2*
X1156108D1*
X1167969D2*
X1174513D1*
X1189394D2*
X1197900D1*
X1209217D2*
X1215306D1*
X1230544D2*
X1237108D1*
X1086900Y2403900D2*
X1091400D1*
X1110900D2*
X1115400D1*
X1128475D2*
X1136828D1*
X1146258D2*
X1155215D1*
X1168723D2*
X1177576D1*
X1186524D2*
X1197900D1*
X1210280D2*
X1218501D1*
X1227864D2*
X1236221D1*
X1086900Y2402400D2*
X1091400D1*
X1110900D2*
X1115400D1*
X1129542D2*
X1141422D1*
X1141766D2*
X1153964D1*
X1169837D2*
X1182046D1*
X1182172D2*
X1197900D1*
X1211619D2*
X1223409D1*
X1223831D2*
X1235027D1*
X1086900Y2400900D2*
X1091400D1*
X1110900D2*
X1115400D1*
X1131208D2*
X1152181D1*
X1171350D2*
X1188624D1*
X1191900D2*
X1197900D1*
X1213255D2*
X1233476D1*
X1086900Y2399400D2*
X1091400D1*
X1110900D2*
X1115400D1*
X1133595D2*
X1149737D1*
X1173264D2*
X1186597D1*
X1191900D2*
X1197900D1*
X1215228D2*
X1231545D1*
X1086900Y2397900D2*
X1091400D1*
X1110900D2*
X1115400D1*
X1136400D2*
X1146900D1*
X1175400D2*
X1184400D1*
X1191900D2*
X1197900D1*
X1217400D2*
X1229400D1*
X1191900Y2396400D2*
X1197900D1*
X1191900Y2394900D2*
X1197900D1*
X1191900Y2393400D2*
X1197900D1*
X1191900Y2391900D2*
X1197900D1*
X1191900Y2390400D2*
X1197900D1*
X1191900Y2388900D2*
X1197900D1*
X1191900Y2387400D2*
X1197900D1*
X1191900Y2385900D2*
X1197900D1*
X1191900Y2384400D2*
X1197900D1*
X1191900Y2382900D2*
X1197900D1*
X815036Y2436088D2*
X825536D1*
X852536D2*
X863036D1*
X878036D2*
X884036D1*
X890036D2*
X896036D1*
X906536D2*
X912536D1*
X930536D2*
X936536D1*
X956036D2*
X968036D1*
X993536D2*
X1005536D1*
X812849Y2434588D2*
X828415D1*
X850349D2*
X865222D1*
X878036D2*
X885811D1*
X889760D2*
X895804D1*
X906536D2*
X912536D1*
X930536D2*
X936536D1*
X953388D2*
X970222D1*
X991349D2*
X1008357D1*
X810971Y2433088D2*
X830723D1*
X848471D2*
X867100D1*
X878036D2*
X887838D1*
X889234D2*
X895432D1*
X906536D2*
X912536D1*
X930536D2*
X936536D1*
X951208D2*
X972100D1*
X989483D2*
X1010468D1*
X809450Y2431588D2*
X816888D1*
X823735D2*
X832462D1*
X846950D2*
X856188D1*
X859383D2*
X868621D1*
X878036D2*
X895044D1*
X906536D2*
X912536D1*
X930536D2*
X936536D1*
X949618D2*
X957888D1*
X964735D2*
X973621D1*
X987874D2*
X997186D1*
X1003678D2*
X1012034D1*
X808271Y2430088D2*
X814708D1*
X826060D2*
X833738D1*
X845770D2*
X853184D1*
X862393D2*
X869800D1*
X882248D2*
X894781D1*
X906536D2*
X912536D1*
X930536D2*
X936536D1*
X948456D2*
X955708D1*
X967060D2*
X974800D1*
X987054D2*
X994154D1*
X1005798D2*
X1012554D1*
X807361Y2428588D2*
X813124D1*
X827865D2*
X834682D1*
X844851D2*
X850943D1*
X864649D2*
X870705D1*
X885273D2*
X894641D1*
X906536D2*
X912536D1*
X930536D2*
X936536D1*
X947531D2*
X954124D1*
X968865D2*
X975711D1*
X987178D2*
X992094D1*
X1007416D2*
X1012833D1*
X806664Y2427088D2*
X812015D1*
X829191D2*
X835347D1*
X844133D2*
X850145D1*
X865603D2*
X871355D1*
X887495D2*
X894578D1*
X906536D2*
X912536D1*
X930536D2*
X936536D1*
X946762D2*
X953015D1*
X970191D2*
X976408D1*
X987536D2*
X990536D1*
X1007901D2*
X1012951D1*
X806100Y2425588D2*
X811280D1*
X830162D2*
X835778D1*
X843536D2*
X849536D1*
X866360D2*
X871780D1*
X888547D2*
X894551D1*
X906536D2*
X912536D1*
X930536D2*
X936536D1*
X946181D2*
X952280D1*
X971162D2*
X976972D1*
X1007551D2*
X1012942D1*
X805558Y2424088D2*
X810871D1*
X830833D2*
X836154D1*
X866919D2*
X872155D1*
X889282D2*
X894541D1*
X906536D2*
X912536D1*
X930536D2*
X936536D1*
X945834D2*
X951871D1*
X971833D2*
X977514D1*
X1006235D2*
X1012711D1*
X805093Y2422588D2*
X810674D1*
X831217D2*
X836593D1*
X867251D2*
X872594D1*
X889696D2*
X894538D1*
X906536D2*
X912536D1*
X930536D2*
X936536D1*
X945661D2*
X951674D1*
X972216D2*
X977978D1*
X1003345D2*
X1012103D1*
X804799Y2421088D2*
X810586D1*
X831413D2*
X837010D1*
X867416D2*
X873011D1*
X889896D2*
X894536D1*
X906536D2*
X912536D1*
X930536D2*
X936536D1*
X945585D2*
X951589D1*
X972403D2*
X978272D1*
X999669D2*
X1011042D1*
X804648Y2419588D2*
X837284D1*
X867489D2*
X873284D1*
X889982D2*
X894536D1*
X906536D2*
X912536D1*
X930536D2*
X936536D1*
X945554D2*
X951555D1*
X972484D2*
X978423D1*
X995804D2*
X1009426D1*
X804577Y2418088D2*
X837422D1*
X867518D2*
X873422D1*
X890016D2*
X894536D1*
X906536D2*
X912536D1*
X930536D2*
X936536D1*
X945542D2*
X951543D1*
X972517D2*
X978485D1*
X992492D2*
X1006988D1*
X804536Y2416588D2*
X837434D1*
X867530D2*
X873434D1*
X890029D2*
X894536D1*
X906536D2*
X912536D1*
X930536D2*
X936536D1*
X945538D2*
X951538D1*
X972529D2*
X978461D1*
X989982D2*
X1003633D1*
X831530Y2415088D2*
X837270D1*
X867528D2*
X873270D1*
X890033D2*
X894536D1*
X906536D2*
X912536D1*
X930536D2*
X936536D1*
X945542D2*
X951536D1*
X972528D2*
X978280D1*
X988159D2*
X999829D1*
X831477Y2413588D2*
X836921D1*
X867476D2*
X872921D1*
X890035D2*
X894536D1*
X906536D2*
X912542D1*
X930536D2*
X936530D1*
X945594D2*
X951542D1*
X972476D2*
X977925D1*
X986851D2*
X996341D1*
X831280Y2412088D2*
X836534D1*
X867280D2*
X872534D1*
X890035D2*
X894536D1*
X906536D2*
X912594D1*
X930536D2*
X936477D1*
X945785D2*
X951594D1*
X972280D2*
X977536D1*
X985901D2*
X993704D1*
X830862Y2410588D2*
X836221D1*
X866862D2*
X872221D1*
X890036D2*
X894536D1*
X906536D2*
X912791D1*
X930530D2*
X936286D1*
X946151D2*
X951791D1*
X971862D2*
X977222D1*
X985152D2*
X991757D1*
X830222Y2409088D2*
X835886D1*
X843536D2*
X848036D1*
X866222D2*
X871886D1*
X890036D2*
X894536D1*
X906536D2*
X913221D1*
X930465D2*
X935927D1*
X946594D2*
X952215D1*
X971228D2*
X976886D1*
X985068D2*
X991032D1*
X807536Y2407588D2*
X810536D1*
X829269D2*
X835404D1*
X843825D2*
X849161D1*
X865281D2*
X871404D1*
X890036D2*
X894536D1*
X906536D2*
X913820D1*
X930307D2*
X935536D1*
X947105D2*
X952937D1*
X970328D2*
X976404D1*
X985274D2*
X990934D1*
X1010036D2*
X1014536D1*
X806953Y2406088D2*
X812397D1*
X827998D2*
X834744D1*
X844400D2*
X850479D1*
X863785D2*
X870744D1*
X890036D2*
X894536D1*
X906536D2*
X915100D1*
X929478D2*
X935216D1*
X947853D2*
X953942D1*
X969180D2*
X975744D1*
X985649D2*
X991698D1*
X1008802D2*
X1014241D1*
X807111Y2404588D2*
X815464D1*
X824894D2*
X833851D1*
X845266D2*
X853628D1*
X861399D2*
X869857D1*
X890036D2*
X894536D1*
X906536D2*
X918457D1*
X926911D2*
X934821D1*
X948916D2*
X957137D1*
X966500D2*
X974857D1*
X986188D2*
X994756D1*
X1004982D2*
X1013612D1*
X808178Y2403088D2*
X820058D1*
X820402D2*
X832601D1*
X846412D2*
X857983D1*
X857996D2*
X868663D1*
X890036D2*
X894536D1*
X906536D2*
X911036D1*
X914097D2*
X923305D1*
X923100D2*
X934257D1*
X950255D2*
X962045D1*
X962467D2*
X973663D1*
X986951D2*
X999590D1*
X999131D2*
X1012557D1*
X809844Y2401588D2*
X830817D1*
X848022D2*
X867112D1*
X890036D2*
X894536D1*
X906536D2*
X911036D1*
X915830D2*
X932883D1*
X951891D2*
X972112D1*
X988773D2*
X1011070D1*
X812231Y2400088D2*
X828373D1*
X850153D2*
X865181D1*
X890036D2*
X894536D1*
X906536D2*
X911036D1*
X917843D2*
X931085D1*
X953864D2*
X970181D1*
X991043D2*
X1009166D1*
X815036Y2398588D2*
X825536D1*
X852536D2*
X863036D1*
X890036D2*
X894536D1*
X906536D2*
X911036D1*
X920036D2*
X929036D1*
X956036D2*
X968036D1*
X993536D2*
X1007036D1*
X1027564Y2380401D2*
X1033564D1*
X1156564D2*
X1161064D1*
X1027564Y2378901D2*
X1033564D1*
X1156564D2*
X1161064D1*
X1027564Y2377401D2*
X1033564D1*
X1156564D2*
X1161064D1*
X1027564Y2375901D2*
X1033564D1*
X1156564D2*
X1161064D1*
X1027564Y2374401D2*
X1033564D1*
X1156564D2*
X1161064D1*
X1027564Y2372901D2*
X1033564D1*
X1156564D2*
X1161064D1*
X1027564Y2371401D2*
X1033564D1*
X1156564D2*
X1161064D1*
X1027564Y2369901D2*
X1033564D1*
X1156564D2*
X1161064D1*
X1027564Y2368401D2*
X1033570D1*
X1156564D2*
X1161064D1*
X879064Y2366901D2*
X889564D1*
X906064D2*
X912064D1*
X918064D2*
X924064D1*
X943564D2*
X955564D1*
X970564D2*
X975064D1*
X993064D2*
X999064D1*
X1015564D2*
X1021564D1*
X1027564D2*
X1033627D1*
X1041064D2*
X1050064D1*
X1063564D2*
X1069564D1*
X1075564D2*
X1081564D1*
X1101064D2*
X1113064D1*
X1138564D2*
X1149064D1*
X1156559D2*
X1161064D1*
X876878Y2365401D2*
X892443D1*
X906064D2*
X913840D1*
X917789D2*
X923833D1*
X941378D2*
X958032D1*
X970796D2*
X975577D1*
X992552D2*
X999296D1*
X1015507D2*
X1020866D1*
X1027564D2*
X1033859D1*
X1038591D2*
X1052200D1*
X1063564D2*
X1071340D1*
X1075289D2*
X1081333D1*
X1098878D2*
X1115532D1*
X1137122D2*
X1151024D1*
X1156501D2*
X1161064D1*
X875000Y2363901D2*
X894752D1*
X906064D2*
X915867D1*
X917262D2*
X923461D1*
X939506D2*
X959979D1*
X971174D2*
X976030D1*
X992099D2*
X999668D1*
X1015315D2*
X1020383D1*
X1027564D2*
X1034372D1*
X1036101D2*
X1053932D1*
X1063564D2*
X1073367D1*
X1074762D2*
X1080961D1*
X1097006D2*
X1117479D1*
X1135820D2*
X1152572D1*
X1156270D2*
X1161064D1*
X873479Y2362401D2*
X880916D1*
X887764D2*
X896491D1*
X906064D2*
X923072D1*
X938037D2*
X947392D1*
X953709D2*
X961343D1*
X971615D2*
X976367D1*
X991762D2*
X1000062D1*
X1014956D2*
X1019973D1*
X1027564D2*
X1039916D1*
X1046713D2*
X1055232D1*
X1063564D2*
X1080572D1*
X1095537D2*
X1104892D1*
X1111209D2*
X1118843D1*
X1134738D2*
X1143422D1*
X1148764D2*
X1153851D1*
X1155757D2*
X1161064D1*
X872300Y2360901D2*
X878737D1*
X890088D2*
X897767D1*
X910277D2*
X922810D1*
X936885D2*
X944568D1*
X955858D2*
X962220D1*
X972069D2*
X976705D1*
X991424D2*
X1000378D1*
X1014565D2*
X1019518D1*
X1027564D2*
X1037737D1*
X1048892D2*
X1056195D1*
X1067777D2*
X1080310D1*
X1094385D2*
X1102068D1*
X1113358D2*
X1119720D1*
X1133872D2*
X1141290D1*
X1151088D2*
X1161064D1*
X871389Y2359401D2*
X877153D1*
X891894D2*
X898711D1*
X913302D2*
X922670D1*
X936463D2*
X942429D1*
X957382D2*
X962723D1*
X972568D2*
X977130D1*
X990999D2*
X994507D1*
X997570D2*
X1000708D1*
X1014251D2*
X1019088D1*
X1027564D2*
X1036153D1*
X1050476D2*
X1056869D1*
X1070802D2*
X1080170D1*
X1093963D2*
X1099929D1*
X1114882D2*
X1120223D1*
X1133243D2*
X1139637D1*
X1152894D2*
X1161064D1*
X870692Y2357901D2*
X876044D1*
X893219D2*
X899376D1*
X915524D2*
X922607D1*
X936234D2*
X941517D1*
X958564D2*
X963064D1*
X973022D2*
X977548D1*
X990581D2*
X994315D1*
X997623D2*
X1001131D1*
X1013920D2*
X1018759D1*
X1027564D2*
X1035044D1*
X1051585D2*
X1057304D1*
X1073024D2*
X1080107D1*
X1093734D2*
X1099017D1*
X1116064D2*
X1120564D1*
X1132876D2*
X1138851D1*
X1154219D2*
X1161064D1*
X870129Y2356401D2*
X875309D1*
X894190D2*
X899806D1*
X916575D2*
X922580D1*
X936131D2*
X940989D1*
X973363D2*
X977873D1*
X990256D2*
X993956D1*
X997814D2*
X1001548D1*
X1013498D2*
X1018423D1*
X1027564D2*
X1034309D1*
X1052320D2*
X1057681D1*
X1074075D2*
X1080080D1*
X1093631D2*
X1098489D1*
X1132694D2*
X1138181D1*
X1155190D2*
X1161064D1*
X869586Y2354901D2*
X874900D1*
X894862D2*
X900182D1*
X917311D2*
X922570D1*
X936089D2*
X940726D1*
X973703D2*
X978207D1*
X989922D2*
X993565D1*
X998173D2*
X1001873D1*
X1013081D2*
X1017993D1*
X1027564D2*
X1033900D1*
X1052729D2*
X1058122D1*
X1074811D2*
X1080070D1*
X1093589D2*
X1098226D1*
X1132615D2*
X1137658D1*
X1155862D2*
X1161064D1*
X869122Y2353401D2*
X874703D1*
X895246D2*
X900622D1*
X917725D2*
X922566D1*
X936073D2*
X940564D1*
X974135D2*
X978637D1*
X989498D2*
X993251D1*
X998564D2*
X1002207D1*
X1012756D2*
X1017528D1*
X1027564D2*
X1033703D1*
X1052926D2*
X1058539D1*
X1075225D2*
X1080066D1*
X1093573D2*
X1098064D1*
X1132583D2*
X1137341D1*
X1156245D2*
X1161064D1*
X868828Y2351901D2*
X874614D1*
X895442D2*
X901039D1*
X917924D2*
X922565D1*
X936067D2*
X949322D1*
X974600D2*
X979101D1*
X989081D2*
X992920D1*
X998878D2*
X1002631D1*
X1012422D2*
X1017065D1*
X1027564D2*
X1033618D1*
X1053011D2*
X1058813D1*
X1075424D2*
X1080065D1*
X1093567D2*
X1106822D1*
X1132571D2*
X1137181D1*
X1156432D2*
X1161064D1*
X868676Y2350401D2*
X901313D1*
X918010D2*
X922565D1*
X936065D2*
X955586D1*
X975064D2*
X979564D1*
X988756D2*
X992498D1*
X999209D2*
X1003048D1*
X1011998D2*
X1016563D1*
X1027564D2*
X1033584D1*
X1053045D2*
X1058956D1*
X1075510D2*
X1080065D1*
X1093565D2*
X1113086D1*
X1132567D2*
X1137110D1*
X1156513D2*
X1161064D1*
X868606Y2348901D2*
X901451D1*
X918045D2*
X922565D1*
X936065D2*
X959564D1*
X975566D2*
X980066D1*
X988422D2*
X992081D1*
X999631D2*
X1003373D1*
X1011581D2*
X1016108D1*
X1027564D2*
X1033571D1*
X1053058D2*
X1059022D1*
X1075545D2*
X1080065D1*
X1093565D2*
X1117064D1*
X1132565D2*
X1137081D1*
X1156546D2*
X1161064D1*
X868564Y2347401D2*
X901463D1*
X918058D2*
X922564D1*
X936065D2*
X940570D1*
X953764D2*
X962383D1*
X976021D2*
X980521D1*
X987998D2*
X991756D1*
X1000048D2*
X1003707D1*
X1011256D2*
X1015767D1*
X1027564D2*
X1033567D1*
X1053062D2*
X1059043D1*
X1075558D2*
X1080064D1*
X1093565D2*
X1098070D1*
X1111264D2*
X1119883D1*
X1132565D2*
X1137070D1*
X1156558D2*
X1161064D1*
X895559Y2345901D2*
X901299D1*
X918062D2*
X922564D1*
X936064D2*
X940623D1*
X956082D2*
X963686D1*
X976362D2*
X980862D1*
X987581D2*
X991422D1*
X1000373D2*
X1004131D1*
X1010922D2*
X1015426D1*
X1027564D2*
X1033565D1*
X1053064D2*
X1059000D1*
X1075562D2*
X1080064D1*
X1093564D2*
X1098123D1*
X1113582D2*
X1121186D1*
X1132565D2*
X1137067D1*
X1156562D2*
X1161064D1*
X895506Y2344401D2*
X900950D1*
X918064D2*
X922564D1*
X936064D2*
X940820D1*
X957835D2*
X964673D1*
X976703D2*
X981203D1*
X987256D2*
X990998D1*
X1000707D2*
X1004548D1*
X1010498D2*
X1014999D1*
X1027564D2*
X1033571D1*
X1053058D2*
X1058813D1*
X1075564D2*
X1080064D1*
X1093564D2*
X1098320D1*
X1115335D2*
X1122173D1*
X1132564D2*
X1137065D1*
X1156564D2*
X1161064D1*
X895309Y2342901D2*
X900563D1*
X918064D2*
X922564D1*
X936064D2*
X941232D1*
X959167D2*
X965355D1*
X977135D2*
X981629D1*
X986922D2*
X990581D1*
X1001131D2*
X1004873D1*
X1010087D2*
X1014581D1*
X1027564D2*
X1033623D1*
X1053006D2*
X1058455D1*
X1075564D2*
X1080064D1*
X1093564D2*
X1098732D1*
X1116667D2*
X1122855D1*
X1132564D2*
X1137065D1*
X1156564D2*
X1161064D1*
X894891Y2341401D2*
X900250D1*
X918064D2*
X922564D1*
X936059D2*
X941820D1*
X959625D2*
X965737D1*
X977600D2*
X982048D1*
X986492D2*
X990256D1*
X1001548D2*
X1005212D1*
X1009809D2*
X1014256D1*
X1027564D2*
X1033820D1*
X1052809D2*
X1058065D1*
X1075564D2*
X1080064D1*
X1093559D2*
X1099320D1*
X1117125D2*
X1123237D1*
X1132564D2*
X1137065D1*
X1156564D2*
X1161064D1*
X894251Y2339901D2*
X899914D1*
X918064D2*
X922564D1*
X936006D2*
X942558D1*
X959816D2*
X965872D1*
X978064D2*
X982377D1*
X986024D2*
X989922D1*
X1001873D2*
X1005694D1*
X1009609D2*
X1013922D1*
X1027564D2*
X1034250D1*
X1052385D2*
X1057751D1*
X1075564D2*
X1080064D1*
X1093506D2*
X1100058D1*
X1117316D2*
X1123372D1*
X1132564D2*
X1137064D1*
X1156564D2*
X1161064D1*
X871564Y2338401D2*
X874564D1*
X893298D2*
X899433D1*
X918064D2*
X922564D1*
X935815D2*
X943604D1*
X959815D2*
X965757D1*
X978566D2*
X982752D1*
X985519D2*
X989498D1*
X1002207D2*
X1006341D1*
X1009312D2*
X1013492D1*
X1027564D2*
X1034848D1*
X1051675D2*
X1057415D1*
X1075564D2*
X1080064D1*
X1093315D2*
X1101104D1*
X1117315D2*
X1123257D1*
X1132564D2*
X1137064D1*
X1156564D2*
X1161064D1*
X870981Y2336901D2*
X876426D1*
X892027D2*
X898772D1*
X918064D2*
X922564D1*
X935455D2*
X944997D1*
X959174D2*
X965372D1*
X979021D2*
X983332D1*
X984855D2*
X989087D1*
X1002631D2*
X1007149D1*
X1008772D2*
X1013028D1*
X1027564D2*
X1036129D1*
X1050705D2*
X1056933D1*
X1075564D2*
X1080064D1*
X1092955D2*
X1102497D1*
X1116674D2*
X1122872D1*
X1132564D2*
X1137064D1*
X1156564D2*
X1161064D1*
X871140Y2335401D2*
X879493D1*
X888923D2*
X897880D1*
X918064D2*
X922564D1*
X935067D2*
X948358D1*
X957039D2*
X964750D1*
X979362D2*
X988809D1*
X1003048D2*
X1012565D1*
X1027564D2*
X1039486D1*
X1048033D2*
X1056267D1*
X1075564D2*
X1080064D1*
X1092567D2*
X1105858D1*
X1114539D2*
X1122250D1*
X1132564D2*
X1137064D1*
X1156564D2*
X1161064D1*
X872207Y2333901D2*
X884086D1*
X884431D2*
X896629D1*
X918064D2*
X922564D1*
X934782D2*
X940797D1*
X943626D2*
X953044D1*
X953692D2*
X963884D1*
X979704D2*
X988609D1*
X1003377D2*
X1012063D1*
X1027564D2*
X1044333D1*
X1044165D2*
X1055329D1*
X1075564D2*
X1080064D1*
X1092282D2*
X1098297D1*
X1101126D2*
X1110544D1*
X1111192D2*
X1121384D1*
X1132564D2*
X1137064D1*
X1156564D2*
X1161064D1*
X873873Y2332401D2*
X894846D1*
X918064D2*
X922564D1*
X930064D2*
X939682D1*
X945359D2*
X962754D1*
X980143D2*
X988312D1*
X1003752D2*
X1011609D1*
X1027564D2*
X1032064D1*
X1036840D2*
X1053962D1*
X1075564D2*
X1080064D1*
X1087564D2*
X1097182D1*
X1102859D2*
X1120254D1*
X1132564D2*
X1137064D1*
X1156564D2*
X1161064D1*
X876260Y2330901D2*
X892402D1*
X918064D2*
X922564D1*
X930064D2*
X938632D1*
X947372D2*
X961445D1*
X980618D2*
X987772D1*
X1004332D2*
X1011298D1*
X1027564D2*
X1032064D1*
X1038867D2*
X1052138D1*
X1075564D2*
X1080064D1*
X1087564D2*
X1096132D1*
X1104872D2*
X1118945D1*
X1132564D2*
X1137064D1*
X1156564D2*
X1161064D1*
X879064Y2329401D2*
X889564D1*
X918064D2*
X922564D1*
X930064D2*
X937564D1*
X949564D2*
X960064D1*
X981064D2*
X987064D1*
X1005064D2*
X1011064D1*
X1027564D2*
X1032064D1*
X1041064D2*
X1050064D1*
X1075564D2*
X1080064D1*
X1087564D2*
X1095064D1*
X1107064D2*
X1117564D1*
X1132564D2*
X1137064D1*
X1156564D2*
X1161064D1*
X590273Y3558056D2*
X586876Y3556556D1*
X584068Y3555056D1*
X581847Y3553556D1*
X580013Y3552056D1*
X578421Y3550556D1*
X577055Y3549056D1*
X575899Y3547556D1*
X574835Y3546056D1*
X573838Y3544556D1*
X573033Y3543056D1*
X572398Y3541556D1*
X571815Y3540056D1*
X571282Y3538556D1*
X570791Y3537056D1*
X570278Y3535556D1*
X569818Y3534056D1*
X569476Y3532556D1*
X569135Y3531056D1*
X568708Y3529556D1*
X568296Y3528056D1*
X568024Y3526556D1*
X567881Y3525056D1*
X567816Y3523556D1*
X567789Y3522056D1*
X567779Y3520556D1*
X567775Y3519056D1*
X567774Y3517556D1*
X567773Y3516056D1*
Y3514556D1*
Y3513056D1*
Y3511556D1*
Y3510056D1*
Y3508556D1*
Y3507056D1*
Y3505556D1*
Y3504056D1*
Y3502556D1*
Y3501056D1*
Y3499556D1*
X567779Y3498056D1*
X567832Y3496556D1*
X568023Y3495056D1*
X568382Y3493556D1*
X568767Y3492056D1*
X569034Y3490556D1*
X569226Y3489056D1*
X569481Y3487556D1*
X569872Y3486056D1*
X570320Y3484556D1*
X570782Y3483056D1*
X571334Y3481556D1*
X571980Y3480056D1*
X572686Y3478556D1*
X573464Y3477056D1*
X574349Y3475556D1*
X575324Y3474056D1*
X576347Y3472556D1*
X577584Y3471056D1*
X579215Y3469556D1*
X581256Y3468056D1*
X583786Y3466556D1*
X586876Y3465056D1*
X590273Y3463556D1*
X603773Y3558056D2*
X606710Y3556556D1*
X609459Y3555056D1*
X611844Y3553556D1*
X613798Y3552056D1*
X615346Y3550556D1*
X616539Y3549056D1*
X617500Y3547556D1*
X618342Y3546056D1*
X619127Y3544556D1*
X619886Y3543056D1*
X620592Y3541556D1*
X621201Y3540056D1*
X621729Y3538556D1*
X622258Y3537056D1*
X622724Y3535556D1*
X623069Y3534056D1*
X623411Y3532556D1*
X623838Y3531056D1*
X624250Y3529556D1*
X624523Y3528056D1*
X624665Y3526556D1*
X624730Y3525056D1*
X624757Y3523556D1*
X624767Y3522056D1*
X624771Y3520556D1*
X624773Y3519056D1*
X624779Y3517556D1*
X624832Y3516056D1*
X625017Y3514556D1*
X625324Y3513056D1*
X625517Y3511556D1*
X625419Y3510056D1*
X625174Y3508556D1*
X624976Y3507056D1*
X624863Y3505556D1*
X624810Y3504056D1*
X624787Y3502556D1*
X624778Y3501056D1*
X624775Y3499556D1*
X624768Y3498056D1*
X624715Y3496556D1*
X624523Y3495056D1*
X624164Y3493556D1*
X623780Y3492056D1*
X623512Y3490556D1*
X623320Y3489056D1*
X623065Y3487556D1*
X622674Y3486056D1*
X622227Y3484556D1*
X621764Y3483056D1*
X621212Y3481556D1*
X620566Y3480056D1*
X619860Y3478556D1*
X619077Y3477056D1*
X618145Y3475556D1*
X617031Y3474056D1*
X615840Y3472556D1*
X614578Y3471056D1*
X613075Y3469556D1*
X611215Y3468056D1*
X608992Y3466556D1*
X606453Y3465056D1*
X603773Y3463556D1*
X668273Y3558056D2*
X664876Y3556556D1*
X662068Y3555056D1*
X659847Y3553556D1*
X658013Y3552056D1*
X656421Y3550556D1*
X655055Y3549056D1*
X653899Y3547556D1*
X652835Y3546056D1*
X651838Y3544556D1*
X651033Y3543056D1*
X650398Y3541556D1*
X649815Y3540056D1*
X649282Y3538556D1*
X648791Y3537056D1*
X648278Y3535556D1*
X647818Y3534056D1*
X647476Y3532556D1*
X647135Y3531056D1*
X646708Y3529556D1*
X646296Y3528056D1*
X646024Y3526556D1*
X645881Y3525056D1*
X645816Y3523556D1*
X645789Y3522056D1*
X645779Y3520556D1*
X645775Y3519056D1*
X645774Y3517556D1*
X645773Y3516056D1*
Y3514556D1*
Y3513056D1*
Y3511556D1*
Y3510056D1*
Y3508556D1*
Y3507056D1*
Y3505556D1*
Y3504056D1*
Y3502556D1*
Y3501056D1*
Y3499556D1*
X645779Y3498056D1*
X645832Y3496556D1*
X646023Y3495056D1*
X646382Y3493556D1*
X646767Y3492056D1*
X647034Y3490556D1*
X647226Y3489056D1*
X647481Y3487556D1*
X647872Y3486056D1*
X648320Y3484556D1*
X648782Y3483056D1*
X649334Y3481556D1*
X649980Y3480056D1*
X650686Y3478556D1*
X651464Y3477056D1*
X652349Y3475556D1*
X653324Y3474056D1*
X654347Y3472556D1*
X655584Y3471056D1*
X657215Y3469556D1*
X659256Y3468056D1*
X661786Y3466556D1*
X664876Y3465056D1*
X668273Y3463556D1*
X681773Y3558056D2*
X684710Y3556556D1*
X687459Y3555056D1*
X689844Y3553556D1*
X691798Y3552056D1*
X693346Y3550556D1*
X694539Y3549056D1*
X695500Y3547556D1*
X696342Y3546056D1*
X697127Y3544556D1*
X697886Y3543056D1*
X698592Y3541556D1*
X699201Y3540056D1*
X699729Y3538556D1*
X700258Y3537056D1*
X700724Y3535556D1*
X701069Y3534056D1*
X701411Y3532556D1*
X701838Y3531056D1*
X702250Y3529556D1*
X702523Y3528056D1*
X702665Y3526556D1*
X702730Y3525056D1*
X702757Y3523556D1*
X702767Y3522056D1*
X702771Y3520556D1*
X702773Y3519056D1*
X702779Y3517556D1*
X702832Y3516056D1*
X703017Y3514556D1*
X703324Y3513056D1*
X703517Y3511556D1*
X703419Y3510056D1*
X703174Y3508556D1*
X702976Y3507056D1*
X702863Y3505556D1*
X702810Y3504056D1*
X702787Y3502556D1*
X702778Y3501056D1*
X702775Y3499556D1*
X702768Y3498056D1*
X702715Y3496556D1*
X702523Y3495056D1*
X702164Y3493556D1*
X701780Y3492056D1*
X701512Y3490556D1*
X701320Y3489056D1*
X701065Y3487556D1*
X700674Y3486056D1*
X700227Y3484556D1*
X699764Y3483056D1*
X699212Y3481556D1*
X698566Y3480056D1*
X697860Y3478556D1*
X697077Y3477056D1*
X696145Y3475556D1*
X695031Y3474056D1*
X693840Y3472556D1*
X692578Y3471056D1*
X691075Y3469556D1*
X689215Y3468056D1*
X686992Y3466556D1*
X684453Y3465056D1*
X681773Y3463556D1*
X746273Y3558056D2*
X742876Y3556556D1*
X740068Y3555056D1*
X737847Y3553556D1*
X736013Y3552056D1*
X734421Y3550556D1*
X733055Y3549056D1*
X731899Y3547556D1*
X730835Y3546056D1*
X729838Y3544556D1*
X729033Y3543056D1*
X728398Y3541556D1*
X727815Y3540056D1*
X727282Y3538556D1*
X726791Y3537056D1*
X726278Y3535556D1*
X725818Y3534056D1*
X725476Y3532556D1*
X725135Y3531056D1*
X724708Y3529556D1*
X724296Y3528056D1*
X724024Y3526556D1*
X723881Y3525056D1*
X723816Y3523556D1*
X723789Y3522056D1*
X723779Y3520556D1*
X723775Y3519056D1*
X723774Y3517556D1*
X723773Y3516056D1*
Y3514556D1*
Y3513056D1*
Y3511556D1*
Y3510056D1*
Y3508556D1*
Y3507056D1*
Y3505556D1*
Y3504056D1*
Y3502556D1*
Y3501056D1*
Y3499556D1*
X723779Y3498056D1*
X723832Y3496556D1*
X724023Y3495056D1*
X724382Y3493556D1*
X724767Y3492056D1*
X725034Y3490556D1*
X725226Y3489056D1*
X725481Y3487556D1*
X725872Y3486056D1*
X726320Y3484556D1*
X726782Y3483056D1*
X727334Y3481556D1*
X727980Y3480056D1*
X728686Y3478556D1*
X729464Y3477056D1*
X730349Y3475556D1*
X731324Y3474056D1*
X732347Y3472556D1*
X733584Y3471056D1*
X735215Y3469556D1*
X737256Y3468056D1*
X739786Y3466556D1*
X742876Y3465056D1*
X746273Y3463556D1*
X759773Y3558056D2*
X762710Y3556556D1*
X765459Y3555056D1*
X767844Y3553556D1*
X769798Y3552056D1*
X771346Y3550556D1*
X772539Y3549056D1*
X773500Y3547556D1*
X774342Y3546056D1*
X775127Y3544556D1*
X775886Y3543056D1*
X776592Y3541556D1*
X777201Y3540056D1*
X777729Y3538556D1*
X778258Y3537056D1*
X778724Y3535556D1*
X779069Y3534056D1*
X779411Y3532556D1*
X779838Y3531056D1*
X780250Y3529556D1*
X780523Y3528056D1*
X780665Y3526556D1*
X780730Y3525056D1*
X780757Y3523556D1*
X780767Y3522056D1*
X780771Y3520556D1*
X780773Y3519056D1*
X780779Y3517556D1*
X780832Y3516056D1*
X781017Y3514556D1*
X781324Y3513056D1*
X781517Y3511556D1*
X781419Y3510056D1*
X781174Y3508556D1*
X780976Y3507056D1*
X780863Y3505556D1*
X780810Y3504056D1*
X780787Y3502556D1*
X780778Y3501056D1*
X780775Y3499556D1*
X780768Y3498056D1*
X780715Y3496556D1*
X780523Y3495056D1*
X780164Y3493556D1*
X779780Y3492056D1*
X779512Y3490556D1*
X779320Y3489056D1*
X779065Y3487556D1*
X778674Y3486056D1*
X778227Y3484556D1*
X777764Y3483056D1*
X777212Y3481556D1*
X776566Y3480056D1*
X775860Y3478556D1*
X775077Y3477056D1*
X774145Y3475556D1*
X773031Y3474056D1*
X771840Y3472556D1*
X770578Y3471056D1*
X769075Y3469556D1*
X767215Y3468056D1*
X764992Y3466556D1*
X762453Y3465056D1*
X759773Y3463556D1*
X1136273Y3558056D2*
X1132818Y3556556D1*
X1129824Y3555056D1*
X1127297Y3553556D1*
X1125263Y3552056D1*
X1123722Y3550556D1*
X1122469Y3549056D1*
X1121390Y3547556D1*
X1120552Y3546056D1*
X1119905Y3544556D1*
X1119323Y3543056D1*
X1118841Y3541556D1*
X1118541Y3540056D1*
X1118387Y3538556D1*
X1118318Y3537056D1*
X1118290Y3535556D1*
X1118279Y3534056D1*
X1118275Y3532556D1*
X1118274Y3531056D1*
X1118279Y3529556D1*
X1118332Y3528056D1*
X1118523Y3526556D1*
X1118888Y3525056D1*
X1119325Y3523556D1*
X1119784Y3522056D1*
X1120335Y3520556D1*
X1120980Y3519056D1*
X1121686Y3517556D1*
X1122470Y3516056D1*
X1123402Y3514556D1*
X1124509Y3513056D1*
X1125648Y3511556D1*
X1126713Y3510056D1*
X1127798Y3508556D1*
X1129018Y3507056D1*
X1130322Y3505556D1*
X1131566Y3504056D1*
X1132680Y3502556D1*
X1133785Y3501056D1*
X1135020Y3499556D1*
X1136380Y3498056D1*
X1137815Y3496556D1*
X1139289Y3495056D1*
X1140779Y3493556D1*
X1142275Y3492056D1*
X1143774Y3490556D1*
X1145273Y3489056D1*
X1146767Y3487556D1*
X1148215Y3486056D1*
X1149523Y3484556D1*
X1150664Y3483056D1*
X1151780Y3481556D1*
X1153018Y3480056D1*
X1154379Y3478556D1*
X1155815Y3477056D1*
X1157288Y3475556D1*
X1158773Y3474056D1*
X1151273Y3558056D2*
X1154960Y3556556D1*
X1158338Y3555056D1*
X1161353Y3553556D1*
X1163967Y3552056D1*
X1166070Y3550556D1*
X1167722Y3549056D1*
X1168118Y3547556D1*
X1167725Y3546056D1*
X1166998Y3544556D1*
X1165956Y3543056D1*
X1164773Y3541556D1*
X1214273Y3558056D2*
X1210818Y3556556D1*
X1207818Y3555056D1*
X1205244Y3553556D1*
X1203072Y3552056D1*
X1201363Y3550556D1*
X1200079Y3549056D1*
X1199076Y3547556D1*
X1198221Y3546056D1*
X1197482Y3544556D1*
X1196912Y3543056D1*
X1196569Y3541556D1*
X1196398Y3540056D1*
X1196322Y3538556D1*
X1196291Y3537056D1*
X1196280Y3535556D1*
X1196275Y3534056D1*
X1196280Y3532556D1*
X1196332Y3531056D1*
X1196529Y3529556D1*
X1196941Y3528056D1*
X1197522Y3526556D1*
X1198202Y3525056D1*
X1198975Y3523556D1*
X1199915Y3522056D1*
X1201133Y3520556D1*
X1202718Y3519056D1*
X1204808Y3517556D1*
X1207501Y3516056D1*
X1210746Y3514556D1*
X1214273Y3513056D1*
X1210131Y3511556D1*
X1206505Y3510056D1*
X1203612Y3508556D1*
X1201362Y3507056D1*
X1199517Y3505556D1*
X1197928Y3504056D1*
X1196614Y3502556D1*
X1195649Y3501056D1*
X1194944Y3499556D1*
X1194337Y3498056D1*
X1193846Y3496556D1*
X1193542Y3495056D1*
X1193387Y3493556D1*
X1193318Y3492056D1*
X1193290Y3490556D1*
X1193279Y3489056D1*
X1193281Y3487556D1*
X1193332Y3486056D1*
X1193523Y3484556D1*
X1193888Y3483056D1*
X1194325Y3481556D1*
X1194784Y3480056D1*
X1195341Y3478556D1*
X1196039Y3477056D1*
X1196936Y3475556D1*
X1198085Y3474056D1*
X1199460Y3472556D1*
X1201085Y3471056D1*
X1203035Y3469556D1*
X1205464Y3468056D1*
X1208662Y3466556D1*
X1212738Y3465056D1*
X1217273Y3463556D1*
X1230773Y3558056D2*
X1235614Y3556556D1*
X1239724Y3555056D1*
X1243027Y3553556D1*
X1245748Y3552056D1*
X1248100Y3550556D1*
X1250273Y3549056D1*
X1249006Y3547556D1*
X1247891Y3546056D1*
X1246841Y3544556D1*
X1245773Y3543056D1*
X1292273Y3558056D2*
X1288818Y3556556D1*
X1285824Y3555056D1*
X1283297Y3553556D1*
X1281263Y3552056D1*
X1279722Y3550556D1*
X1278469Y3549056D1*
X1277390Y3547556D1*
X1276552Y3546056D1*
X1275905Y3544556D1*
X1275323Y3543056D1*
X1274841Y3541556D1*
X1274541Y3540056D1*
X1274387Y3538556D1*
X1274318Y3537056D1*
X1274290Y3535556D1*
X1274279Y3534056D1*
X1274275Y3532556D1*
X1274274Y3531056D1*
X1274279Y3529556D1*
X1274332Y3528056D1*
X1274523Y3526556D1*
X1274888Y3525056D1*
X1275325Y3523556D1*
X1275784Y3522056D1*
X1276335Y3520556D1*
X1276980Y3519056D1*
X1277686Y3517556D1*
X1278470Y3516056D1*
X1279402Y3514556D1*
X1280509Y3513056D1*
X1281648Y3511556D1*
X1282713Y3510056D1*
X1283798Y3508556D1*
X1285018Y3507056D1*
X1286322Y3505556D1*
X1287566Y3504056D1*
X1288680Y3502556D1*
X1289785Y3501056D1*
X1291020Y3499556D1*
X1292380Y3498056D1*
X1293815Y3496556D1*
X1295289Y3495056D1*
X1296779Y3493556D1*
X1298275Y3492056D1*
X1299774Y3490556D1*
X1301273Y3489056D1*
X1302767Y3487556D1*
X1304215Y3486056D1*
X1305523Y3484556D1*
X1306664Y3483056D1*
X1307780Y3481556D1*
X1309018Y3480056D1*
X1310379Y3478556D1*
X1311815Y3477056D1*
X1313288Y3475556D1*
X1314773Y3474056D1*
X1307273Y3558056D2*
X1310960Y3556556D1*
X1314338Y3555056D1*
X1317353Y3553556D1*
X1319967Y3552056D1*
X1322070Y3550556D1*
X1323722Y3549056D1*
X1324118Y3547556D1*
X1323725Y3546056D1*
X1322998Y3544556D1*
X1321956Y3543056D1*
X1320773Y3541556D1*
X1364273Y3558056D2*
X1358815Y3556556D1*
X1354631Y3555056D1*
X1351553Y3553556D1*
X1350302Y3552056D1*
X1350551Y3550556D1*
X1350882Y3549056D1*
X1351332Y3547556D1*
X1351818Y3546056D1*
X1352273Y3544556D1*
X1383773Y3558056D2*
X1388095Y3556556D1*
X1391706Y3555056D1*
X1394533Y3553556D1*
X1396726Y3552056D1*
X1398497Y3550556D1*
X1399935Y3549056D1*
X1401070Y3547556D1*
X1401961Y3546056D1*
X1402650Y3544556D1*
X1403211Y3543056D1*
X1403752Y3541556D1*
X1404216Y3540056D1*
X1404510Y3538556D1*
X1404661Y3537056D1*
X1404729Y3535556D1*
X1404751Y3534056D1*
X1404709Y3532556D1*
X1404521Y3531056D1*
X1404158Y3529556D1*
X1403721Y3528056D1*
X1403262Y3526556D1*
X1402711Y3525056D1*
X1402066Y3523556D1*
X1401360Y3522056D1*
X1400571Y3520556D1*
X1399580Y3519056D1*
X1398223Y3517556D1*
X1396476Y3516056D1*
X1394417Y3514556D1*
X1392077Y3513056D1*
X1389450Y3511556D1*
X1386577Y3510056D1*
X1383414Y3508556D1*
X1379896Y3507056D1*
X1376164Y3505556D1*
X1372528Y3504056D1*
X1369187Y3502556D1*
X1366235Y3501056D1*
X1363760Y3499556D1*
X1361776Y3498056D1*
X1360261Y3496556D1*
X1359207Y3495056D1*
X1358465Y3493556D1*
X1357845Y3492056D1*
X1357355Y3490556D1*
X1357102Y3489056D1*
X1357137Y3487556D1*
X1357433Y3486056D1*
X1357848Y3484556D1*
X1358349Y3483056D1*
X1359099Y3481556D1*
X1360219Y3480056D1*
X1361808Y3478556D1*
X1364071Y3477056D1*
X1367128Y3475556D1*
X1370816Y3474056D1*
X1374773Y3472556D1*
X980273Y3556556D2*
X975951Y3555056D1*
X972341Y3553556D1*
X969514Y3552056D1*
X967320Y3550556D1*
X965550Y3549056D1*
X964111Y3547556D1*
X962971Y3546056D1*
X962033Y3544556D1*
X961205Y3543056D1*
X960476Y3541556D1*
X959910Y3540056D1*
X959563Y3538556D1*
X959339Y3537056D1*
X959072Y3535556D1*
X958682Y3534056D1*
X958292Y3532556D1*
X958079Y3531056D1*
X958129Y3529556D1*
X958424Y3528056D1*
X958788Y3526556D1*
X959093Y3525056D1*
X959419Y3523556D1*
X959847Y3522056D1*
X960316Y3520556D1*
X960837Y3519056D1*
X961589Y3517556D1*
X962647Y3516056D1*
X963929Y3514556D1*
X965340Y3513056D1*
X966860Y3511556D1*
X968584Y3510056D1*
X970564Y3508556D1*
X972504Y3507056D1*
X974143Y3505556D1*
X974584Y3504056D1*
X974266Y3502556D1*
X973736Y3501056D1*
X973035Y3499556D1*
X972180Y3498056D1*
X971228Y3496556D1*
X970315Y3495056D1*
X969467Y3493556D1*
X968625Y3492056D1*
X967713Y3490556D1*
X966734Y3489056D1*
X965766Y3487556D1*
X964777Y3486056D1*
X963766Y3484556D1*
X962829Y3483056D1*
X961972Y3481556D1*
X961127Y3480056D1*
X960214Y3478556D1*
X959240Y3477056D1*
X958319Y3475556D1*
X957469Y3474056D1*
X956626Y3472556D1*
X955713Y3471056D1*
X954735Y3469556D1*
X953774Y3468056D1*
X952798Y3466556D1*
X951773Y3465056D1*
X1013273Y3556556D2*
Y3555056D1*
Y3553556D1*
Y3552056D1*
Y3550556D1*
Y3549056D1*
Y3547556D1*
Y3546056D1*
Y3544556D1*
Y3543056D1*
Y3541556D1*
Y3540056D1*
Y3538556D1*
Y3537056D1*
Y3535556D1*
Y3534056D1*
Y3532556D1*
Y3531056D1*
Y3529556D1*
Y3528056D1*
Y3526556D1*
Y3525056D1*
Y3523556D1*
Y3522056D1*
Y3520556D1*
Y3519056D1*
Y3517556D1*
Y3516056D1*
Y3514556D1*
Y3513056D1*
Y3511556D1*
Y3510056D1*
Y3508556D1*
Y3507056D1*
Y3505556D1*
Y3504056D1*
Y3502556D1*
Y3501056D1*
Y3499556D1*
Y3498056D1*
Y3496556D1*
Y3495056D1*
Y3493556D1*
Y3492056D1*
Y3490556D1*
Y3489056D1*
Y3487556D1*
Y3486056D1*
Y3484556D1*
Y3483056D1*
Y3481556D1*
Y3480056D1*
Y3478556D1*
Y3477056D1*
Y3475556D1*
Y3474056D1*
Y3472556D1*
Y3471056D1*
Y3469556D1*
Y3468056D1*
Y3466556D1*
Y3465056D1*
X1448273Y3556556D2*
X1443951Y3555056D1*
X1440341Y3553556D1*
X1437514Y3552056D1*
X1435320Y3550556D1*
X1433550Y3549056D1*
X1432111Y3547556D1*
X1430971Y3546056D1*
X1430033Y3544556D1*
X1429205Y3543056D1*
X1428476Y3541556D1*
X1427910Y3540056D1*
X1427563Y3538556D1*
X1427339Y3537056D1*
X1427072Y3535556D1*
X1426682Y3534056D1*
X1426292Y3532556D1*
X1426079Y3531056D1*
X1426129Y3529556D1*
X1426424Y3528056D1*
X1426788Y3526556D1*
X1427093Y3525056D1*
X1427419Y3523556D1*
X1427847Y3522056D1*
X1428316Y3520556D1*
X1428837Y3519056D1*
X1429589Y3517556D1*
X1430647Y3516056D1*
X1431929Y3514556D1*
X1433340Y3513056D1*
X1434860Y3511556D1*
X1436584Y3510056D1*
X1438564Y3508556D1*
X1440504Y3507056D1*
X1442143Y3505556D1*
X1442584Y3504056D1*
X1442266Y3502556D1*
X1441736Y3501056D1*
X1441035Y3499556D1*
X1440180Y3498056D1*
X1439228Y3496556D1*
X1438315Y3495056D1*
X1437467Y3493556D1*
X1436625Y3492056D1*
X1435713Y3490556D1*
X1434734Y3489056D1*
X1433766Y3487556D1*
X1432777Y3486056D1*
X1431766Y3484556D1*
X1430829Y3483056D1*
X1429972Y3481556D1*
X1429127Y3480056D1*
X1428214Y3478556D1*
X1427240Y3477056D1*
X1426319Y3475556D1*
X1425469Y3474056D1*
X1424626Y3472556D1*
X1423713Y3471056D1*
X1422735Y3469556D1*
X1421774Y3468056D1*
X1420798Y3466556D1*
X1419773Y3465056D1*
X1481273Y3556556D2*
Y3555056D1*
Y3553556D1*
Y3552056D1*
Y3550556D1*
Y3549056D1*
Y3547556D1*
Y3546056D1*
Y3544556D1*
Y3543056D1*
Y3541556D1*
Y3540056D1*
Y3538556D1*
Y3537056D1*
Y3535556D1*
Y3534056D1*
Y3532556D1*
Y3531056D1*
Y3529556D1*
Y3528056D1*
Y3526556D1*
Y3525056D1*
Y3523556D1*
Y3522056D1*
Y3520556D1*
Y3519056D1*
Y3517556D1*
Y3516056D1*
Y3514556D1*
Y3513056D1*
Y3511556D1*
Y3510056D1*
Y3508556D1*
Y3507056D1*
Y3505556D1*
Y3504056D1*
Y3502556D1*
Y3501056D1*
Y3499556D1*
Y3498056D1*
Y3496556D1*
Y3495056D1*
Y3493556D1*
Y3492056D1*
Y3490556D1*
Y3489056D1*
Y3487556D1*
Y3486056D1*
Y3484556D1*
Y3483056D1*
Y3481556D1*
Y3480056D1*
Y3478556D1*
Y3477056D1*
Y3475556D1*
Y3474056D1*
Y3472556D1*
Y3471056D1*
Y3469556D1*
Y3468056D1*
Y3466556D1*
Y3465056D1*
X593273Y3549056D2*
X590568Y3547556D1*
X588197Y3546056D1*
X586247Y3544556D1*
X584700Y3543056D1*
X583507Y3541556D1*
X582547Y3540056D1*
X581710Y3538556D1*
X580978Y3537056D1*
X580411Y3535556D1*
X580063Y3534056D1*
X579839Y3532556D1*
X579572Y3531056D1*
X579182Y3529556D1*
X578786Y3528056D1*
X578520Y3526556D1*
X578380Y3525056D1*
X578315Y3523556D1*
X578289Y3522056D1*
X578279Y3520556D1*
X578275Y3519056D1*
X578274Y3517556D1*
X578273Y3516056D1*
Y3514556D1*
Y3513056D1*
Y3511556D1*
Y3510056D1*
Y3508556D1*
Y3507056D1*
Y3505556D1*
Y3504056D1*
Y3502556D1*
Y3501056D1*
Y3499556D1*
X578279Y3498056D1*
X578332Y3496556D1*
X578523Y3495056D1*
X578882Y3493556D1*
X579267Y3492056D1*
X579534Y3490556D1*
X579726Y3489056D1*
X579987Y3487556D1*
X580425Y3486056D1*
X581017Y3484556D1*
X581700Y3483056D1*
X582475Y3481556D1*
X583415Y3480056D1*
X584680Y3478556D1*
X586252Y3477056D1*
X590482Y3475556D1*
X597099Y3474056D1*
X605273Y3472556D1*
X602273Y3549056D2*
X603948Y3547556D1*
X605627Y3546056D1*
X607150Y3544556D1*
X608470Y3543056D1*
X609604Y3541556D1*
X610472Y3540056D1*
X611132Y3538556D1*
X611720Y3537056D1*
X612210Y3535556D1*
X612564Y3534056D1*
X612909Y3532556D1*
X613337Y3531056D1*
X613750Y3529556D1*
X614022Y3528056D1*
X614165Y3526556D1*
X614230Y3525056D1*
X614257Y3523556D1*
X614267Y3522056D1*
X614271Y3520556D1*
X614273Y3519056D1*
Y3517556D1*
Y3516056D1*
Y3514556D1*
Y3513056D1*
Y3511556D1*
Y3510056D1*
Y3508556D1*
Y3507056D1*
Y3505556D1*
Y3504056D1*
Y3502556D1*
Y3501056D1*
Y3499556D1*
Y3498056D1*
X614267Y3496556D1*
X614215Y3495056D1*
X614023Y3493556D1*
X613664Y3492056D1*
X613274Y3490556D1*
X612959Y3489056D1*
X612629Y3487556D1*
X612200Y3486056D1*
X611731Y3484556D1*
X611215Y3483056D1*
X610510Y3481556D1*
X609590Y3480056D1*
X608430Y3478556D1*
X607003Y3477056D1*
X603254Y3475556D1*
X597452Y3474056D1*
X590273Y3472556D1*
X671273Y3549056D2*
X668568Y3547556D1*
X666197Y3546056D1*
X664247Y3544556D1*
X662700Y3543056D1*
X661507Y3541556D1*
X660547Y3540056D1*
X659710Y3538556D1*
X658978Y3537056D1*
X658411Y3535556D1*
X658063Y3534056D1*
X657839Y3532556D1*
X657572Y3531056D1*
X657182Y3529556D1*
X656786Y3528056D1*
X656520Y3526556D1*
X656380Y3525056D1*
X656315Y3523556D1*
X656289Y3522056D1*
X656279Y3520556D1*
X656275Y3519056D1*
X656274Y3517556D1*
X656273Y3516056D1*
Y3514556D1*
Y3513056D1*
Y3511556D1*
Y3510056D1*
Y3508556D1*
Y3507056D1*
Y3505556D1*
Y3504056D1*
Y3502556D1*
Y3501056D1*
Y3499556D1*
X656279Y3498056D1*
X656332Y3496556D1*
X656523Y3495056D1*
X656882Y3493556D1*
X657267Y3492056D1*
X657534Y3490556D1*
X657726Y3489056D1*
X657987Y3487556D1*
X658425Y3486056D1*
X659017Y3484556D1*
X659700Y3483056D1*
X660475Y3481556D1*
X661415Y3480056D1*
X662680Y3478556D1*
X664252Y3477056D1*
X668482Y3475556D1*
X675099Y3474056D1*
X683273Y3472556D1*
X680273Y3549056D2*
X681948Y3547556D1*
X683627Y3546056D1*
X685150Y3544556D1*
X686470Y3543056D1*
X687604Y3541556D1*
X688472Y3540056D1*
X689132Y3538556D1*
X689720Y3537056D1*
X690210Y3535556D1*
X690564Y3534056D1*
X690909Y3532556D1*
X691337Y3531056D1*
X691750Y3529556D1*
X692022Y3528056D1*
X692165Y3526556D1*
X692230Y3525056D1*
X692257Y3523556D1*
X692267Y3522056D1*
X692271Y3520556D1*
X692273Y3519056D1*
Y3517556D1*
Y3516056D1*
Y3514556D1*
Y3513056D1*
Y3511556D1*
Y3510056D1*
Y3508556D1*
Y3507056D1*
Y3505556D1*
Y3504056D1*
Y3502556D1*
Y3501056D1*
Y3499556D1*
Y3498056D1*
X692267Y3496556D1*
X692215Y3495056D1*
X692023Y3493556D1*
X691664Y3492056D1*
X691274Y3490556D1*
X690959Y3489056D1*
X690629Y3487556D1*
X690200Y3486056D1*
X689731Y3484556D1*
X689215Y3483056D1*
X688510Y3481556D1*
X687590Y3480056D1*
X686430Y3478556D1*
X685003Y3477056D1*
X681254Y3475556D1*
X675452Y3474056D1*
X668273Y3472556D1*
X749273Y3549056D2*
X746568Y3547556D1*
X744197Y3546056D1*
X742247Y3544556D1*
X740700Y3543056D1*
X739507Y3541556D1*
X738547Y3540056D1*
X737710Y3538556D1*
X736978Y3537056D1*
X736411Y3535556D1*
X736063Y3534056D1*
X735839Y3532556D1*
X735572Y3531056D1*
X735182Y3529556D1*
X734786Y3528056D1*
X734520Y3526556D1*
X734380Y3525056D1*
X734315Y3523556D1*
X734289Y3522056D1*
X734279Y3520556D1*
X734275Y3519056D1*
X734274Y3517556D1*
X734273Y3516056D1*
Y3514556D1*
Y3513056D1*
Y3511556D1*
Y3510056D1*
Y3508556D1*
Y3507056D1*
Y3505556D1*
Y3504056D1*
Y3502556D1*
Y3501056D1*
Y3499556D1*
X734279Y3498056D1*
X734332Y3496556D1*
X734523Y3495056D1*
X734882Y3493556D1*
X735267Y3492056D1*
X735534Y3490556D1*
X735726Y3489056D1*
X735987Y3487556D1*
X736425Y3486056D1*
X737017Y3484556D1*
X737700Y3483056D1*
X738475Y3481556D1*
X739415Y3480056D1*
X740680Y3478556D1*
X742252Y3477056D1*
X746482Y3475556D1*
X753099Y3474056D1*
X761273Y3472556D1*
X758273Y3549056D2*
X759948Y3547556D1*
X761627Y3546056D1*
X763150Y3544556D1*
X764470Y3543056D1*
X765604Y3541556D1*
X766472Y3540056D1*
X767132Y3538556D1*
X767720Y3537056D1*
X768210Y3535556D1*
X768564Y3534056D1*
X768909Y3532556D1*
X769337Y3531056D1*
X769750Y3529556D1*
X770022Y3528056D1*
X770165Y3526556D1*
X770230Y3525056D1*
X770257Y3523556D1*
X770267Y3522056D1*
X770271Y3520556D1*
X770273Y3519056D1*
Y3517556D1*
Y3516056D1*
Y3514556D1*
Y3513056D1*
Y3511556D1*
Y3510056D1*
Y3508556D1*
Y3507056D1*
Y3505556D1*
Y3504056D1*
Y3502556D1*
Y3501056D1*
Y3499556D1*
Y3498056D1*
X770267Y3496556D1*
X770215Y3495056D1*
X770023Y3493556D1*
X769664Y3492056D1*
X769274Y3490556D1*
X768959Y3489056D1*
X768629Y3487556D1*
X768200Y3486056D1*
X767731Y3484556D1*
X767215Y3483056D1*
X766510Y3481556D1*
X765590Y3480056D1*
X764430Y3478556D1*
X763003Y3477056D1*
X759254Y3475556D1*
X753452Y3474056D1*
X746273Y3472556D1*
X1139273Y3549056D2*
X1136574Y3547556D1*
X1134249Y3546056D1*
X1132444Y3544556D1*
X1131118Y3543056D1*
X1130147Y3541556D1*
X1129476Y3540056D1*
X1129093Y3538556D1*
X1128906Y3537056D1*
X1128825Y3535556D1*
X1128792Y3534056D1*
X1128780Y3532556D1*
X1128775Y3531056D1*
X1128780Y3529556D1*
X1128832Y3528056D1*
X1129029Y3526556D1*
X1129441Y3525056D1*
X1130022Y3523556D1*
X1130696Y3522056D1*
X1131417Y3520556D1*
X1132160Y3519056D1*
X1132960Y3517556D1*
X1133904Y3516056D1*
X1135061Y3514556D1*
X1136338Y3513056D1*
X1137572Y3511556D1*
X1138682Y3510056D1*
X1139786Y3508556D1*
X1141020Y3507056D1*
X1142380Y3505556D1*
X1143810Y3504056D1*
X1145230Y3502556D1*
X1146529Y3501056D1*
X1147666Y3499556D1*
X1148780Y3498056D1*
X1150018Y3496556D1*
X1151379Y3495056D1*
X1152815Y3493556D1*
X1154289Y3492056D1*
X1155779Y3490556D1*
X1157275Y3489056D1*
X1158774Y3487556D1*
X1160273Y3486056D1*
X1161767Y3484556D1*
X1163215Y3483056D1*
X1164523Y3481556D1*
X1165664Y3480056D1*
X1166774Y3478556D1*
X1167954Y3477056D1*
X1169065Y3475556D1*
X1169892Y3474056D1*
X1170372Y3472556D1*
X1170607Y3471056D1*
X1170709Y3469556D1*
X1170750Y3468056D1*
X1170765Y3466556D1*
X1170773Y3465056D1*
X1149773Y3549056D2*
X1152716Y3547556D1*
X1155523Y3546056D1*
X1158151Y3544556D1*
X1160704Y3543056D1*
X1163273Y3541556D1*
X1218773Y3549056D2*
X1215842Y3547556D1*
X1213146Y3546056D1*
X1210952Y3544556D1*
X1209363Y3543056D1*
X1208253Y3541556D1*
X1207518Y3540056D1*
X1207109Y3538556D1*
X1206912Y3537056D1*
X1206827Y3535556D1*
X1206799Y3534056D1*
X1206839Y3532556D1*
X1207031Y3531056D1*
X1207442Y3529556D1*
X1208023Y3528056D1*
X1208708Y3526556D1*
X1209534Y3525056D1*
X1210677Y3523556D1*
X1212406Y3522056D1*
X1215211Y3520556D1*
X1220100Y3519056D1*
X1227669Y3517556D1*
X1236773Y3516056D1*
Y3514556D1*
X1236767Y3513056D1*
X1236710Y3511556D1*
X1236478Y3510056D1*
X1235966Y3508556D1*
X1235273Y3507056D1*
X1227773Y3549056D2*
X1231979Y3547556D1*
X1235861Y3546056D1*
X1239398Y3544556D1*
X1242773Y3543056D1*
X1295273Y3549056D2*
X1292574Y3547556D1*
X1290249Y3546056D1*
X1288444Y3544556D1*
X1287118Y3543056D1*
X1286147Y3541556D1*
X1285476Y3540056D1*
X1285093Y3538556D1*
X1284906Y3537056D1*
X1284825Y3535556D1*
X1284792Y3534056D1*
X1284780Y3532556D1*
X1284775Y3531056D1*
X1284780Y3529556D1*
X1284832Y3528056D1*
X1285029Y3526556D1*
X1285441Y3525056D1*
X1286022Y3523556D1*
X1286696Y3522056D1*
X1287417Y3520556D1*
X1288160Y3519056D1*
X1288960Y3517556D1*
X1289904Y3516056D1*
X1291061Y3514556D1*
X1292338Y3513056D1*
X1293572Y3511556D1*
X1294682Y3510056D1*
X1295786Y3508556D1*
X1297020Y3507056D1*
X1298380Y3505556D1*
X1299810Y3504056D1*
X1301230Y3502556D1*
X1302529Y3501056D1*
X1303666Y3499556D1*
X1304780Y3498056D1*
X1306018Y3496556D1*
X1307379Y3495056D1*
X1308815Y3493556D1*
X1310289Y3492056D1*
X1311779Y3490556D1*
X1313275Y3489056D1*
X1314774Y3487556D1*
X1316273Y3486056D1*
X1317767Y3484556D1*
X1319215Y3483056D1*
X1320523Y3481556D1*
X1321664Y3480056D1*
X1322774Y3478556D1*
X1323954Y3477056D1*
X1325065Y3475556D1*
X1325892Y3474056D1*
X1326372Y3472556D1*
X1326607Y3471056D1*
X1326709Y3469556D1*
X1326750Y3468056D1*
X1326765Y3466556D1*
X1326773Y3465056D1*
X1305773Y3549056D2*
X1308716Y3547556D1*
X1311523Y3546056D1*
X1314151Y3544556D1*
X1316704Y3543056D1*
X1319273Y3541556D1*
X1374773Y3549056D2*
X1367825Y3547556D1*
X1361377Y3546056D1*
X1355273Y3544556D1*
X1379273Y3549056D2*
X1383184Y3547556D1*
X1386438Y3546056D1*
X1388937Y3544556D1*
X1390866Y3543056D1*
X1392327Y3541556D1*
X1393464Y3540056D1*
X1393880Y3538556D1*
X1394106Y3537056D1*
X1394207Y3535556D1*
X1394243Y3534056D1*
X1394200Y3532556D1*
X1393962Y3531056D1*
X1393408Y3529556D1*
X1392600Y3528056D1*
X1391646Y3526556D1*
X1390386Y3525056D1*
X1388581Y3523556D1*
X1386236Y3522056D1*
X1383492Y3520556D1*
X1380382Y3519056D1*
X1376884Y3517556D1*
X1373160Y3516056D1*
X1369521Y3514556D1*
X1366128Y3513056D1*
X1362985Y3511556D1*
X1360145Y3510056D1*
X1357718Y3508556D1*
X1355698Y3507056D1*
X1353954Y3505556D1*
X1352399Y3504056D1*
X1351053Y3502556D1*
X1349955Y3501056D1*
X1349084Y3499556D1*
X1348447Y3498056D1*
X1348026Y3496556D1*
X1347653Y3495056D1*
X1347215Y3493556D1*
X1346798Y3492056D1*
X1346530Y3490556D1*
X1346440Y3489056D1*
X1346566Y3487556D1*
X1346898Y3486056D1*
X1347278Y3484556D1*
X1347589Y3483056D1*
X1347924Y3481556D1*
X1348399Y3480056D1*
X1349007Y3478556D1*
X1349696Y3477056D1*
X1350473Y3475556D1*
X1351415Y3474056D1*
X1352633Y3472556D1*
X1354212Y3471056D1*
X1356257Y3469556D1*
X1358834Y3468056D1*
X1362041Y3466556D1*
X1365953Y3465056D1*
X1370273Y3463556D1*
X986273Y3547556D2*
X982131Y3546056D1*
X978510Y3544556D1*
X975670Y3543056D1*
X973617Y3541556D1*
X972185Y3540056D1*
X971172Y3538556D1*
X970484Y3537056D1*
X970096Y3535556D1*
X969907Y3534056D1*
X969825Y3532556D1*
X969792Y3531056D1*
X969780Y3529556D1*
X969781Y3528056D1*
X969833Y3526556D1*
X970029Y3525056D1*
X970447Y3523556D1*
X971081Y3522056D1*
X971957Y3520556D1*
X973155Y3519056D1*
X974782Y3517556D1*
X977061Y3516056D1*
X980125Y3514556D1*
X983815Y3513056D1*
X987773Y3511556D1*
X1002773Y3547556D2*
Y3546056D1*
Y3544556D1*
Y3543056D1*
Y3541556D1*
Y3540056D1*
Y3538556D1*
Y3537056D1*
Y3535556D1*
Y3534056D1*
Y3532556D1*
Y3531056D1*
Y3529556D1*
Y3528056D1*
Y3526556D1*
Y3525056D1*
Y3523556D1*
Y3522056D1*
Y3520556D1*
Y3519056D1*
Y3517556D1*
Y3516056D1*
Y3514556D1*
Y3513056D1*
Y3511556D1*
X1454273Y3547556D2*
X1450131Y3546056D1*
X1446510Y3544556D1*
X1443670Y3543056D1*
X1441617Y3541556D1*
X1440185Y3540056D1*
X1439172Y3538556D1*
X1438484Y3537056D1*
X1438096Y3535556D1*
X1437907Y3534056D1*
X1437825Y3532556D1*
X1437792Y3531056D1*
X1437780Y3529556D1*
X1437781Y3528056D1*
X1437833Y3526556D1*
X1438029Y3525056D1*
X1438447Y3523556D1*
X1439081Y3522056D1*
X1439957Y3520556D1*
X1441155Y3519056D1*
X1442782Y3517556D1*
X1445061Y3516056D1*
X1448125Y3514556D1*
X1451815Y3513056D1*
X1455773Y3511556D1*
X1470773Y3547556D2*
Y3546056D1*
Y3544556D1*
Y3543056D1*
Y3541556D1*
Y3540056D1*
Y3538556D1*
Y3537056D1*
Y3535556D1*
Y3534056D1*
Y3532556D1*
Y3531056D1*
Y3529556D1*
Y3528056D1*
Y3526556D1*
Y3525056D1*
Y3523556D1*
Y3522056D1*
Y3520556D1*
Y3519056D1*
Y3517556D1*
Y3516056D1*
Y3514556D1*
Y3513056D1*
Y3511556D1*
X900773Y3535556D2*
X896964Y3534056D1*
X893800Y3532556D1*
X891257Y3531056D1*
X889205Y3529556D1*
X887454Y3528056D1*
X885898Y3526556D1*
X884553Y3525056D1*
X883449Y3523556D1*
X882525Y3522056D1*
X881703Y3520556D1*
X880976Y3519056D1*
X880404Y3517556D1*
X880010Y3516056D1*
X879648Y3514556D1*
X879213Y3513056D1*
X878798Y3511556D1*
X878524Y3510056D1*
X878381Y3508556D1*
X878316Y3507056D1*
X878289Y3505556D1*
X878279Y3504056D1*
X878281Y3502556D1*
X878337Y3501056D1*
X878568Y3499556D1*
X879081Y3498056D1*
X879773Y3496556D1*
X914273Y3535556D2*
X917903Y3534056D1*
X921083Y3532556D1*
X923691Y3531056D1*
X925794Y3529556D1*
X927572Y3528056D1*
X929140Y3526556D1*
X930491Y3525056D1*
X931596Y3523556D1*
X932521Y3522056D1*
X933349Y3520556D1*
X934129Y3519056D1*
X934886Y3517556D1*
X935587Y3516056D1*
X936148Y3514556D1*
X936538Y3513056D1*
X936899Y3511556D1*
X937334Y3510056D1*
X937749Y3508556D1*
X938022Y3507056D1*
X938165Y3505556D1*
X938230Y3504056D1*
X938257Y3502556D1*
X938267Y3501056D1*
X938271Y3499556D1*
X938273Y3498056D1*
Y3496556D1*
X938267Y3495056D1*
X938215Y3493556D1*
X938023Y3492056D1*
X937664Y3490556D1*
X937274Y3489056D1*
X936959Y3487556D1*
X936623Y3486056D1*
X936148Y3484556D1*
X935540Y3483056D1*
X934856Y3481556D1*
X934132Y3480056D1*
X933387Y3478556D1*
X932587Y3477056D1*
X931643Y3475556D1*
X930474Y3474056D1*
X929091Y3472556D1*
X927463Y3471056D1*
X925517Y3469556D1*
X923145Y3468056D1*
X920180Y3466556D1*
X916616Y3465056D1*
X912773Y3463556D1*
X797273Y3534056D2*
X797843Y3532556D1*
X798482Y3531056D1*
X799132Y3529556D1*
X799716Y3528056D1*
X800235Y3526556D1*
X800766Y3525056D1*
X801278Y3523556D1*
X801766Y3522056D1*
X802329Y3520556D1*
X802972Y3519056D1*
X803627Y3517556D1*
X804214Y3516056D1*
X804734Y3514556D1*
X805266Y3513056D1*
X805777Y3511556D1*
X806266Y3510056D1*
X806829Y3508556D1*
X807472Y3507056D1*
X808127Y3505556D1*
X808714Y3504056D1*
X809240Y3502556D1*
X809819Y3501056D1*
X810469Y3499556D1*
X811126Y3498056D1*
X811713Y3496556D1*
X812234Y3495056D1*
X812766Y3493556D1*
X813277Y3492056D1*
X813766Y3490556D1*
X814329Y3489056D1*
X814972Y3487556D1*
X815627Y3486056D1*
X816214Y3484556D1*
X816734Y3483056D1*
X817266Y3481556D1*
X817777Y3480056D1*
X818266Y3478556D1*
X818829Y3477056D1*
X819472Y3475556D1*
X820127Y3474056D1*
X820714Y3472556D1*
X821234Y3471056D1*
X821760Y3469556D1*
X822223Y3468056D1*
X822538Y3466556D1*
X822773Y3465056D1*
X807773Y3534056D2*
X808523Y3532556D1*
X809152Y3531056D1*
X809782Y3529556D1*
X810454Y3528056D1*
X811120Y3526556D1*
X811712Y3525056D1*
X812233Y3523556D1*
X812766Y3522056D1*
X813277Y3520556D1*
X813760Y3519056D1*
X814276Y3517556D1*
X814781Y3516056D1*
X815268Y3514556D1*
X815829Y3513056D1*
X816472Y3511556D1*
X817127Y3510056D1*
X817714Y3508556D1*
X818234Y3507056D1*
X818766Y3505556D1*
X819277Y3504056D1*
X819760Y3502556D1*
X820276Y3501056D1*
X820781Y3499556D1*
X821268Y3498056D1*
X821829Y3496556D1*
X822472Y3495056D1*
X823127Y3493556D1*
X823714Y3492056D1*
X824234Y3490556D1*
X824760Y3489056D1*
X825225Y3487556D1*
X825569Y3486056D1*
X825911Y3484556D1*
X826344Y3483056D1*
X826809Y3481556D1*
X827272Y3480056D1*
X827780Y3478556D1*
X828287Y3477056D1*
X828808Y3475556D1*
X829479Y3474056D1*
X830273Y3472556D1*
X852773Y3534056D2*
X852203Y3532556D1*
X851565Y3531056D1*
X850915Y3529556D1*
X850330Y3528056D1*
X849811Y3526556D1*
X849280Y3525056D1*
X848769Y3523556D1*
X848286Y3522056D1*
X847770Y3520556D1*
X847265Y3519056D1*
X846779Y3517556D1*
X846217Y3516056D1*
X845574Y3514556D1*
X844920Y3513056D1*
X844333Y3511556D1*
X843812Y3510056D1*
X843280Y3508556D1*
X842769Y3507056D1*
X842286Y3505556D1*
X841770Y3504056D1*
X841265Y3502556D1*
X840779Y3501056D1*
X840217Y3499556D1*
X839574Y3498056D1*
X838920Y3496556D1*
X838333Y3495056D1*
X837812Y3493556D1*
X837280Y3492056D1*
X836769Y3490556D1*
X836286Y3489056D1*
X835770Y3487556D1*
X835265Y3486056D1*
X834785Y3484556D1*
X834270Y3483056D1*
X833765Y3481556D1*
X833285Y3480056D1*
X832770Y3478556D1*
X832261Y3477056D1*
X831738Y3475556D1*
X831068Y3474056D1*
X830273Y3472556D1*
X863273Y3534056D2*
X862755Y3532556D1*
X862255Y3531056D1*
X861774Y3529556D1*
X861215Y3528056D1*
X860573Y3526556D1*
X859919Y3525056D1*
X859332Y3523556D1*
X858812Y3522056D1*
X858280Y3520556D1*
X857769Y3519056D1*
X857280Y3517556D1*
X856718Y3516056D1*
X856074Y3514556D1*
X855420Y3513056D1*
X854833Y3511556D1*
X854312Y3510056D1*
X853780Y3508556D1*
X853269Y3507056D1*
X852780Y3505556D1*
X852218Y3504056D1*
X851574Y3502556D1*
X850920Y3501056D1*
X850333Y3499556D1*
X849812Y3498056D1*
X849280Y3496556D1*
X848769Y3495056D1*
X848280Y3493556D1*
X847718Y3492056D1*
X847074Y3490556D1*
X846420Y3489056D1*
X845833Y3487556D1*
X845312Y3486056D1*
X844780Y3484556D1*
X844269Y3483056D1*
X843780Y3481556D1*
X843218Y3480056D1*
X842574Y3478556D1*
X841920Y3477056D1*
X841333Y3475556D1*
X840812Y3474056D1*
X840280Y3472556D1*
X839769Y3471056D1*
X839285Y3469556D1*
X838762Y3468056D1*
X838245Y3466556D1*
X837773Y3465056D1*
X902273Y3526556D2*
X899568Y3525056D1*
X897197Y3523556D1*
X895247Y3522056D1*
X893700Y3520556D1*
X892513Y3519056D1*
X891605Y3517556D1*
X890960Y3516056D1*
X890587Y3514556D1*
X890404Y3513056D1*
X890324Y3511556D1*
X890292Y3510056D1*
X890280Y3508556D1*
X890275Y3507056D1*
X890273Y3505556D1*
X912773Y3526556D2*
X915704Y3525056D1*
X918401Y3523556D1*
X920594Y3522056D1*
X922189Y3520556D1*
X923352Y3519056D1*
X924278Y3517556D1*
X925047Y3516056D1*
X925634Y3514556D1*
X926034Y3513056D1*
X926398Y3511556D1*
X926834Y3510056D1*
X927253Y3508556D1*
X927549Y3507056D1*
X927773Y3505556D1*
X1220273Y3507056D2*
X1216312Y3505556D1*
X1212917Y3504056D1*
X1210250Y3502556D1*
X1208290Y3501056D1*
X1206900Y3499556D1*
X1205856Y3498056D1*
X1205034Y3496556D1*
X1204431Y3495056D1*
X1204076Y3493556D1*
X1203900Y3492056D1*
X1203823Y3490556D1*
X1203797Y3489056D1*
X1203838Y3487556D1*
X1204031Y3486056D1*
X1204447Y3484556D1*
X1205081Y3483056D1*
X1205952Y3481556D1*
X1207096Y3480056D1*
X1208532Y3478556D1*
X1210451Y3477056D1*
X1213127Y3475556D1*
X1216533Y3474056D1*
X1220273Y3472556D1*
X987773Y3502556D2*
X986505Y3501056D1*
X985383Y3499556D1*
X984324Y3498056D1*
X983284Y3496556D1*
X982335Y3495056D1*
X981474Y3493556D1*
X980628Y3492056D1*
X979714Y3490556D1*
X978740Y3489056D1*
X977819Y3487556D1*
X976974Y3486056D1*
X976178Y3484556D1*
X975405Y3483056D1*
X974599Y3481556D1*
X973703Y3480056D1*
X972736Y3478556D1*
X971817Y3477056D1*
X970968Y3475556D1*
X970125Y3474056D1*
X969213Y3472556D1*
X968240Y3471056D1*
X967323Y3469556D1*
X966518Y3468056D1*
X965846Y3466556D1*
X965273Y3465056D1*
X1002773Y3502556D2*
Y3501056D1*
Y3499556D1*
Y3498056D1*
Y3496556D1*
Y3495056D1*
Y3493556D1*
Y3492056D1*
Y3490556D1*
Y3489056D1*
Y3487556D1*
Y3486056D1*
Y3484556D1*
Y3483056D1*
Y3481556D1*
Y3480056D1*
Y3478556D1*
Y3477056D1*
Y3475556D1*
Y3474056D1*
Y3472556D1*
Y3471056D1*
Y3469556D1*
Y3468056D1*
Y3466556D1*
Y3465056D1*
X1455773Y3502556D2*
X1454505Y3501056D1*
X1453383Y3499556D1*
X1452324Y3498056D1*
X1451284Y3496556D1*
X1450335Y3495056D1*
X1449474Y3493556D1*
X1448628Y3492056D1*
X1447714Y3490556D1*
X1446740Y3489056D1*
X1445819Y3487556D1*
X1444974Y3486056D1*
X1444178Y3484556D1*
X1443405Y3483056D1*
X1442599Y3481556D1*
X1441703Y3480056D1*
X1440736Y3478556D1*
X1439817Y3477056D1*
X1438968Y3475556D1*
X1438125Y3474056D1*
X1437213Y3472556D1*
X1436240Y3471056D1*
X1435323Y3469556D1*
X1434518Y3468056D1*
X1433846Y3466556D1*
X1433273Y3465056D1*
X1470773Y3502556D2*
Y3501056D1*
Y3499556D1*
Y3498056D1*
Y3496556D1*
Y3495056D1*
Y3493556D1*
Y3492056D1*
Y3490556D1*
Y3489056D1*
Y3487556D1*
Y3486056D1*
Y3484556D1*
Y3483056D1*
Y3481556D1*
Y3480056D1*
Y3478556D1*
Y3477056D1*
Y3475556D1*
Y3474056D1*
Y3472556D1*
Y3471056D1*
Y3469556D1*
Y3468056D1*
Y3466556D1*
Y3465056D1*
X927773Y3496556D2*
X927767Y3495056D1*
X927715Y3493556D1*
X927523Y3492056D1*
X927158Y3490556D1*
X926721Y3489056D1*
X926262Y3487556D1*
X925711Y3486056D1*
X925066Y3484556D1*
X924360Y3483056D1*
X923571Y3481556D1*
X922574Y3480056D1*
X921164Y3478556D1*
X919226Y3477056D1*
X916810Y3475556D1*
X914097Y3474056D1*
X911273Y3472556D1*
X1247273Y3477056D2*
X1242669Y3475556D1*
X1237596Y3474056D1*
X1232273Y3472556D1*
X1250273Y3477056D2*
Y3475556D1*
Y3474056D1*
X1250267Y3472556D1*
X1250197Y3471056D1*
X1250021Y3469556D1*
X1249057Y3468056D1*
X1246328Y3466556D1*
X1242578Y3465056D1*
X1238273Y3463556D1*
X1403273Y3477056D2*
X1397169Y3475556D1*
X1390596Y3474056D1*
X1383773Y3472556D1*
X1406273Y3477056D2*
Y3475556D1*
Y3474056D1*
X1406267Y3472556D1*
X1406197Y3471056D1*
X1406021Y3469556D1*
X1405034Y3468056D1*
X1402043Y3466556D1*
X1397773Y3465056D1*
X1392773Y3463556D1*
X882773Y3475556D2*
Y3474056D1*
X882779Y3472556D1*
X882849Y3471056D1*
X883025Y3469556D1*
X883989Y3468056D1*
X886719Y3466556D1*
X890468Y3465056D1*
X894773Y3463556D1*
X887273Y3475556D2*
X893273Y3474056D1*
X899273Y3472556D1*
X1113773Y3474056D2*
Y3472556D1*
Y3471056D1*
Y3469556D1*
Y3468056D1*
Y3466556D1*
Y3465056D1*
X1269773Y3474056D2*
Y3472556D1*
Y3471056D1*
Y3469556D1*
Y3468056D1*
Y3466556D1*
Y3465056D1*
X1146522Y1164222D2*
Y1162722D1*
Y1161222D1*
Y1159722D1*
Y1158222D1*
Y1156722D1*
Y1155222D1*
X1155522Y1164222D2*
Y1162722D1*
X1155516Y1161222D1*
X1155459Y1159722D1*
X1155227Y1158222D1*
X1154714Y1156722D1*
X1154022Y1155222D1*
X1119522Y1140222D2*
X1116073Y1138722D1*
X1113125Y1137222D1*
X1110737Y1135722D1*
X1108877Y1134222D1*
X1107408Y1132722D1*
X1106171Y1131222D1*
X1105143Y1129722D1*
X1104307Y1128222D1*
X1103691Y1126722D1*
X1103330Y1125222D1*
X1103151Y1123722D1*
X1103072Y1122222D1*
X1103040Y1120722D1*
X1103028Y1119222D1*
X1103024Y1117722D1*
X1103023Y1116222D1*
X1103022Y1114722D1*
X1103028Y1113222D1*
X1103080Y1111722D1*
X1103277Y1110222D1*
X1103689Y1108722D1*
X1104271Y1107222D1*
X1104950Y1105722D1*
X1105724Y1104222D1*
X1106664Y1102722D1*
X1107887Y1101222D1*
X1109542Y1099722D1*
X1111996Y1098222D1*
X1115757Y1096722D1*
X1120986Y1095222D1*
X1127022Y1093722D1*
X1139022Y1140222D2*
X1142651Y1138722D1*
X1145825Y1137222D1*
X1148381Y1135722D1*
X1150287Y1134222D1*
X1151659Y1132722D1*
X1152698Y1131222D1*
X1153566Y1129722D1*
X1154316Y1128222D1*
X1154941Y1126722D1*
X1155475Y1125222D1*
X1156006Y1123722D1*
X1156467Y1122222D1*
X1156759Y1120722D1*
X1156910Y1119222D1*
X1156972Y1117722D1*
X1156947Y1116222D1*
X1156766Y1114722D1*
X1156411Y1113222D1*
X1156022Y1111722D1*
X1155708Y1110222D1*
X1155372Y1108722D1*
X1154890Y1107222D1*
X1154230Y1105722D1*
X1153349Y1104222D1*
X1152207Y1102722D1*
X1150822Y1101222D1*
X1149075Y1099722D1*
X1146577Y1098222D1*
X1142798Y1096722D1*
X1137561Y1095222D1*
X1131522Y1093722D1*
X1127022Y1132722D2*
X1121674Y1131222D1*
X1117177Y1129722D1*
X1113840Y1128222D1*
X1111272Y1126722D1*
X1110111Y1125222D1*
X1109284Y1123722D1*
X1108621Y1122222D1*
X1108108Y1120722D1*
X1107795Y1119222D1*
X1107643Y1117722D1*
X1107626Y1116222D1*
X1107794Y1114722D1*
X1108201Y1113222D1*
X1108832Y1111722D1*
X1109713Y1110222D1*
X1110962Y1108722D1*
X1112779Y1107222D1*
X1115407Y1105722D1*
X1118793Y1104222D1*
X1122522Y1102722D1*
X1131522Y1132722D2*
X1136869Y1131222D1*
X1141367Y1129722D1*
X1144710Y1128222D1*
X1147006Y1126722D1*
X1148544Y1125222D1*
X1149599Y1123722D1*
X1150302Y1122222D1*
X1150696Y1120722D1*
X1150887Y1119222D1*
X1150970Y1117722D1*
X1150997Y1116222D1*
X1150951Y1114722D1*
X1150705Y1113222D1*
X1150098Y1111722D1*
X1149093Y1110222D1*
X1147721Y1108722D1*
X1145828Y1107222D1*
X1143162Y1105722D1*
X1139760Y1104222D1*
X1136022Y1102722D1*
X1104522Y1083222D2*
Y1081722D1*
X1104545Y1080222D1*
X1104616Y1078722D1*
X1105319Y1077222D1*
X1107657Y1075722D1*
X1110522Y1074222D1*
X1109028Y1072722D1*
X1107580Y1071222D1*
X1106277Y1069722D1*
X1105195Y1068222D1*
X1104330Y1066722D1*
X1103700Y1065222D1*
X1103333Y1063722D1*
X1103152Y1062222D1*
X1103072Y1060722D1*
X1103040Y1059222D1*
X1103028Y1057722D1*
X1103024Y1056222D1*
X1103028Y1054722D1*
X1103081Y1053222D1*
X1103277Y1051722D1*
X1103695Y1050222D1*
X1104330Y1048722D1*
X1105212Y1047222D1*
X1106459Y1045722D1*
X1108241Y1044222D1*
X1110684Y1042722D1*
X1113522Y1041222D1*
X1107522Y1083222D2*
Y1081722D1*
X1155522D2*
X1155516Y1080222D1*
X1155459Y1078722D1*
X1155227Y1077222D1*
X1154714Y1075722D1*
X1154022Y1074222D1*
X1119522D2*
X1116817Y1072722D1*
X1114445Y1071222D1*
X1112501Y1069722D1*
X1111002Y1068222D1*
X1109953Y1066722D1*
X1109213Y1065222D1*
X1108593Y1063722D1*
X1108103Y1062222D1*
X1107850Y1060722D1*
X1107886Y1059222D1*
X1108188Y1057722D1*
X1108661Y1056222D1*
X1109236Y1054722D1*
X1110721Y1053222D1*
X1112800Y1051722D1*
X1115322Y1050222D1*
X1118022Y1048722D1*
X1155522D2*
Y1047222D1*
Y1045722D1*
Y1044222D1*
Y1042722D1*
Y1041222D1*
X1083522Y1027722D2*
Y1026222D1*
Y1024722D1*
Y1023222D1*
Y1021722D1*
Y1020222D1*
Y1018722D1*
X1154022Y1027722D2*
X1154714Y1026222D1*
X1155139Y1024722D1*
X1155300Y1023222D1*
X1155165Y1021722D1*
X1154693Y1020222D1*
X1154022Y1018722D1*
X1083522Y1005222D2*
Y1003722D1*
Y1002222D1*
Y1000722D1*
Y999222D1*
Y997722D1*
X1089522Y1005222D2*
Y1003722D1*
Y1002222D1*
Y1000722D1*
Y999222D1*
Y997722D1*
X1104522Y1005222D2*
Y1003722D1*
Y1002222D1*
Y1000722D1*
Y999222D1*
Y997722D1*
X1154022Y1005222D2*
X1154714Y1003722D1*
X1155145Y1002222D1*
X1155363Y1000722D1*
X1155464Y999222D1*
X1155522Y997722D1*
X1104522Y982722D2*
Y981222D1*
X1104545Y979722D1*
X1104616Y978222D1*
X1105319Y976722D1*
X1107657Y975222D1*
X1110522Y973722D1*
X1109028Y972222D1*
X1107580Y970722D1*
X1106277Y969222D1*
X1105195Y967722D1*
X1104330Y966222D1*
X1103700Y964722D1*
X1103333Y963222D1*
X1103152Y961722D1*
X1103072Y960222D1*
X1103040Y958722D1*
X1103028Y957222D1*
X1103024Y955722D1*
X1103028Y954222D1*
X1103081Y952722D1*
X1103277Y951222D1*
X1103695Y949722D1*
X1104330Y948222D1*
X1105212Y946722D1*
X1106459Y945222D1*
X1108241Y943722D1*
X1110684Y942222D1*
X1113522Y940722D1*
X1107522Y982722D2*
Y981222D1*
X1155522D2*
X1155516Y979722D1*
X1155459Y978222D1*
X1155227Y976722D1*
X1154714Y975222D1*
X1154022Y973722D1*
X1119522D2*
X1116817Y972222D1*
X1114445Y970722D1*
X1112501Y969222D1*
X1111002Y967722D1*
X1109953Y966222D1*
X1109213Y964722D1*
X1108593Y963222D1*
X1108103Y961722D1*
X1107850Y960222D1*
X1107886Y958722D1*
X1108188Y957222D1*
X1108661Y955722D1*
X1109236Y954222D1*
X1110721Y952722D1*
X1112800Y951222D1*
X1115322Y949722D1*
X1118022Y948222D1*
X1155522D2*
Y946722D1*
Y945222D1*
Y943722D1*
Y942222D1*
Y940722D1*
X1119522Y928722D2*
X1116124Y927222D1*
X1113316Y925722D1*
X1111096Y924222D1*
X1109261Y922722D1*
X1107675Y921222D1*
X1106362Y919722D1*
X1105398Y918222D1*
X1104693Y916722D1*
X1104086Y915222D1*
X1103595Y913722D1*
X1103291Y912222D1*
X1103136Y910722D1*
X1103067Y909222D1*
X1103038Y907722D1*
X1103028Y906222D1*
X1103024Y904722D1*
X1103022Y903222D1*
X1103028Y901722D1*
X1103080Y900222D1*
X1103277Y898722D1*
X1103689Y897222D1*
X1104271Y895722D1*
X1104950Y894222D1*
X1105730Y892722D1*
X1106723Y891222D1*
X1108137Y889722D1*
X1110132Y888222D1*
X1112780Y886722D1*
X1116005Y885222D1*
X1119522Y883722D1*
X1139022Y928722D2*
X1142651Y927222D1*
X1145825Y925722D1*
X1148381Y924222D1*
X1150287Y922722D1*
X1151659Y921222D1*
X1152698Y919722D1*
X1153566Y918222D1*
X1154316Y916722D1*
X1154941Y915222D1*
X1155475Y913722D1*
X1156006Y912222D1*
X1156467Y910722D1*
X1156759Y909222D1*
X1156910Y907722D1*
X1156978Y906222D1*
X1156999Y904722D1*
X1156957Y903222D1*
X1156770Y901722D1*
X1156406Y900222D1*
X1155969Y898722D1*
X1155511Y897222D1*
X1154960Y895722D1*
X1154315Y894222D1*
X1153609Y892722D1*
X1152819Y891222D1*
X1151824Y889722D1*
X1150434Y888222D1*
X1148600Y886722D1*
X1146522Y885222D1*
X1124022Y921222D2*
X1119885Y919722D1*
X1116312Y918222D1*
X1113616Y916722D1*
X1111778Y915222D1*
X1110509Y913722D1*
X1109541Y912222D1*
X1108757Y910722D1*
X1108170Y909222D1*
X1107821Y907722D1*
X1107653Y906222D1*
X1107629Y904722D1*
X1107796Y903222D1*
X1108202Y901722D1*
X1108832Y900222D1*
X1109713Y898722D1*
X1110985Y897222D1*
X1113031Y895722D1*
X1116587Y894222D1*
X1122023Y892722D1*
X1128522Y891222D1*
X1122522Y921222D2*
X1123727Y919722D1*
X1124604Y918222D1*
X1125107Y916722D1*
X1125350Y915222D1*
X1125456Y913722D1*
X1125498Y912222D1*
X1125513Y910722D1*
X1125519Y909222D1*
X1125521Y907722D1*
Y906222D1*
X1125522Y904722D1*
Y903222D1*
Y901722D1*
Y900222D1*
Y898722D1*
X1125498Y897222D1*
X1125428Y895722D1*
X1124725Y894222D1*
X1122387Y892722D1*
X1119522Y891222D1*
X1130022Y921222D2*
Y919722D1*
Y918222D1*
Y916722D1*
Y915222D1*
Y913722D1*
Y912222D1*
Y910722D1*
Y909222D1*
Y907722D1*
Y906222D1*
Y904722D1*
Y903222D1*
Y901722D1*
Y900222D1*
Y898722D1*
Y897222D1*
Y895722D1*
Y894222D1*
Y892722D1*
Y891222D1*
Y889722D1*
Y888222D1*
Y886722D1*
Y885222D1*
Y883722D1*
X1131522Y921222D2*
X1136869Y919722D1*
X1141367Y918222D1*
X1144710Y916722D1*
X1147006Y915222D1*
X1148544Y913722D1*
X1149599Y912222D1*
X1150302Y910722D1*
X1150696Y909222D1*
X1150887Y907722D1*
X1150970Y906222D1*
X1150997Y904722D1*
X1150956Y903222D1*
X1150764Y901722D1*
X1150348Y900222D1*
X1149714Y898722D1*
X1148843Y897222D1*
X1147716Y895722D1*
X1146456Y894222D1*
X1145291Y892722D1*
X1144317Y891222D1*
X1144014Y889722D1*
X1144272Y888222D1*
X1144642Y886722D1*
X1145022Y885222D1*
X1092900Y2435400D2*
X1091457Y2433900D1*
X1090155Y2432400D1*
X1089073Y2430900D1*
X1088207Y2429400D1*
X1087578Y2427900D1*
X1087211Y2426400D1*
X1087030Y2424900D1*
X1086950Y2423400D1*
X1086918Y2421900D1*
X1086906Y2420400D1*
X1086902Y2418900D1*
X1086900Y2417400D1*
Y2415900D1*
Y2414400D1*
Y2412900D1*
Y2411400D1*
Y2409900D1*
Y2408400D1*
Y2406900D1*
Y2405400D1*
Y2403900D1*
Y2402400D1*
Y2400900D1*
Y2399400D1*
Y2397900D1*
X1103400Y2435400D2*
X1105359Y2433900D1*
X1106907Y2432400D1*
X1108186Y2430900D1*
X1109400Y2429400D1*
X1110900Y2435400D2*
X1110838Y2433900D1*
X1110605Y2432400D1*
X1110092Y2430900D1*
X1109400Y2429400D1*
X1116900Y2435400D2*
X1116207Y2433900D1*
X1115776Y2432400D1*
X1115558Y2430900D1*
X1115462Y2429400D1*
X1115423Y2427900D1*
X1115408Y2426400D1*
X1115402Y2424900D1*
X1115401Y2423400D1*
X1115400Y2421900D1*
Y2420400D1*
Y2418900D1*
Y2417400D1*
Y2415900D1*
Y2414400D1*
Y2412900D1*
Y2411400D1*
Y2409900D1*
Y2408400D1*
Y2406900D1*
Y2405400D1*
Y2403900D1*
Y2402400D1*
Y2400900D1*
Y2399400D1*
Y2397900D1*
X1136400Y2435400D2*
X1134213Y2433900D1*
X1132335Y2432400D1*
X1130814Y2430900D1*
X1129635Y2429400D1*
X1128724Y2427900D1*
X1128028Y2426400D1*
X1127464Y2424900D1*
X1126921Y2423400D1*
X1126457Y2421900D1*
X1126163Y2420400D1*
X1126012Y2418900D1*
X1125941Y2417400D1*
X1125900Y2415900D1*
X1146900Y2435400D2*
X1149779Y2433900D1*
X1152087Y2432400D1*
X1153826Y2430900D1*
X1155102Y2429400D1*
X1156046Y2427900D1*
X1156711Y2426400D1*
X1157142Y2424900D1*
X1157518Y2423400D1*
X1157957Y2421900D1*
X1158374Y2420400D1*
X1158648Y2418900D1*
X1158786Y2417400D1*
X1158798Y2415900D1*
X1158634Y2414400D1*
X1158285Y2412900D1*
X1157898Y2411400D1*
X1157585Y2409900D1*
X1157249Y2408400D1*
X1156768Y2406900D1*
X1156108Y2405400D1*
X1155215Y2403900D1*
X1153964Y2402400D1*
X1152181Y2400900D1*
X1149737Y2399400D1*
X1146900Y2397900D1*
X1175400Y2435400D2*
X1173213Y2433900D1*
X1171341Y2432400D1*
X1169867Y2430900D1*
X1168826Y2429400D1*
X1168090Y2427900D1*
X1167471Y2426400D1*
X1166975Y2424900D1*
X1166670Y2423400D1*
X1166514Y2421900D1*
X1166445Y2420400D1*
X1166416Y2418900D1*
X1166406Y2417400D1*
X1166402Y2415900D1*
X1166400Y2414400D1*
X1166406Y2412900D1*
X1166458Y2411400D1*
X1166649Y2409900D1*
X1167014Y2408400D1*
X1167458Y2406900D1*
X1167969Y2405400D1*
X1168723Y2403900D1*
X1169837Y2402400D1*
X1171350Y2400900D1*
X1173264Y2399400D1*
X1175400Y2397900D1*
X1184400Y2435400D2*
X1186873Y2433900D1*
X1189363Y2432400D1*
X1191900Y2430900D1*
Y2435400D2*
X1191624Y2433900D1*
X1191097Y2432400D1*
X1190400Y2430900D1*
X1197900Y2435400D2*
Y2433900D1*
Y2432400D1*
Y2430900D1*
Y2429400D1*
Y2427900D1*
Y2426400D1*
Y2424900D1*
Y2423400D1*
Y2421900D1*
Y2420400D1*
Y2418900D1*
Y2417400D1*
Y2415900D1*
Y2414400D1*
Y2412900D1*
Y2411400D1*
Y2409900D1*
Y2408400D1*
Y2406900D1*
Y2405400D1*
Y2403900D1*
Y2402400D1*
Y2400900D1*
Y2399400D1*
Y2397900D1*
Y2396400D1*
Y2394900D1*
Y2393400D1*
Y2391900D1*
Y2390400D1*
Y2388900D1*
Y2387400D1*
Y2385900D1*
Y2384400D1*
Y2382900D1*
X1217400Y2435400D2*
X1214752Y2433900D1*
X1212572Y2432400D1*
X1210982Y2430900D1*
X1209820Y2429400D1*
X1208894Y2427900D1*
X1208126Y2426400D1*
X1207544Y2424900D1*
X1207198Y2423400D1*
X1207025Y2421900D1*
X1206949Y2420400D1*
X1206918Y2418900D1*
X1206906Y2417400D1*
X1206902Y2415900D1*
X1206906Y2414400D1*
X1206958Y2412900D1*
X1207149Y2411400D1*
X1207514Y2409900D1*
X1207958Y2408400D1*
X1208469Y2406900D1*
X1209217Y2405400D1*
X1210280Y2403900D1*
X1211619Y2402400D1*
X1213255Y2400900D1*
X1215228Y2399400D1*
X1217400Y2397900D1*
X1229400Y2435400D2*
X1231586Y2433900D1*
X1233464Y2432400D1*
X1234985Y2430900D1*
X1236164Y2429400D1*
X1237075Y2427900D1*
X1237772Y2426400D1*
X1238335Y2424900D1*
X1238878Y2423400D1*
X1239342Y2421900D1*
X1239636Y2420400D1*
X1239787Y2418900D1*
X1239849Y2417400D1*
X1239824Y2415900D1*
X1239644Y2414400D1*
X1239289Y2412900D1*
X1238899Y2411400D1*
X1238586Y2409900D1*
X1238250Y2408400D1*
X1237768Y2406900D1*
X1237108Y2405400D1*
X1236221Y2403900D1*
X1235027Y2402400D1*
X1233476Y2400900D1*
X1231545Y2399400D1*
X1229400Y2397900D1*
X1100400Y2432400D2*
X1097757Y2430900D1*
X1095625Y2429400D1*
X1093972Y2427900D1*
X1093186Y2426400D1*
X1092516Y2424900D1*
X1091993Y2423400D1*
X1091676Y2421900D1*
X1091516Y2420400D1*
X1091445Y2418900D1*
X1091417Y2417400D1*
X1091406Y2415900D1*
X1091402Y2414400D1*
X1091400Y2412900D1*
Y2411400D1*
Y2409900D1*
Y2408400D1*
Y2406900D1*
Y2405400D1*
Y2403900D1*
Y2402400D1*
Y2400900D1*
Y2399400D1*
Y2397900D1*
X1100400Y2432400D2*
X1103099Y2430900D1*
X1105423Y2429400D1*
X1107229Y2427900D1*
X1108555Y2426400D1*
X1109526Y2424900D1*
X1110197Y2423400D1*
X1110580Y2421900D1*
X1110767Y2420400D1*
X1110848Y2418900D1*
X1110881Y2417400D1*
X1110893Y2415900D1*
X1110897Y2414400D1*
X1110899Y2412900D1*
Y2411400D1*
X1110900Y2409900D1*
Y2408400D1*
Y2406900D1*
Y2405400D1*
Y2403900D1*
Y2402400D1*
Y2400900D1*
Y2399400D1*
Y2397900D1*
X1140900Y2432400D2*
X1138252Y2430900D1*
X1136072Y2429400D1*
X1134488Y2427900D1*
X1133379Y2426400D1*
X1132644Y2424900D1*
X1132235Y2423400D1*
X1132038Y2421900D1*
X1131950Y2420400D1*
X1131900Y2418900D1*
X1142400Y2432400D2*
X1145099Y2430900D1*
X1147423Y2429400D1*
X1149229Y2427900D1*
X1150555Y2426400D1*
X1151526Y2424900D1*
X1152197Y2423400D1*
X1152581Y2421900D1*
X1152777Y2420400D1*
X1152900Y2418900D1*
X1181400Y2432400D2*
X1178700Y2430900D1*
X1176382Y2429400D1*
X1174629Y2427900D1*
X1173297Y2426400D1*
X1172833Y2424900D1*
X1172584Y2423400D1*
X1172471Y2421900D1*
X1172426Y2420400D1*
X1172409Y2418900D1*
X1172403Y2417400D1*
X1172401Y2415900D1*
X1172400Y2414400D1*
Y2412900D1*
X1172405Y2411400D1*
X1172464Y2409900D1*
X1172720Y2408400D1*
X1173205Y2406900D1*
X1174513Y2405400D1*
X1177576Y2403900D1*
X1182046Y2402400D1*
X1187400Y2400900D1*
X1181400Y2432400D2*
X1184099Y2430900D1*
X1186423Y2429400D1*
X1188229Y2427900D1*
X1189555Y2426400D1*
X1190526Y2424900D1*
X1191197Y2423400D1*
X1191580Y2421900D1*
X1191767Y2420400D1*
X1191848Y2418900D1*
X1191881Y2417400D1*
X1191893Y2415900D1*
X1191891Y2414400D1*
X1191840Y2412900D1*
X1191650Y2411400D1*
X1191285Y2409900D1*
X1190836Y2408400D1*
X1190242Y2406900D1*
X1189394Y2405400D1*
X1186524Y2403900D1*
X1182172Y2402400D1*
X1176900Y2400900D1*
X1221900Y2432400D2*
X1219252Y2430900D1*
X1217072Y2429400D1*
X1215488Y2427900D1*
X1214379Y2426400D1*
X1213644Y2424900D1*
X1213235Y2423400D1*
X1213038Y2421900D1*
X1212953Y2420400D1*
X1212919Y2418900D1*
X1212906Y2417400D1*
X1212902Y2415900D1*
X1212900Y2414400D1*
X1212906Y2412900D1*
X1212958Y2411400D1*
X1213155Y2409900D1*
X1213579Y2408400D1*
X1214301Y2406900D1*
X1215306Y2405400D1*
X1218501Y2403900D1*
X1223409Y2402400D1*
X1229400Y2400900D1*
X1223400Y2432400D2*
X1226099Y2430900D1*
X1228423Y2429400D1*
X1230229Y2427900D1*
X1231555Y2426400D1*
X1232526Y2424900D1*
X1233197Y2423400D1*
X1233580Y2421900D1*
X1233767Y2420400D1*
X1233848Y2418900D1*
X1233881Y2417400D1*
X1233893Y2415900D1*
X1233891Y2414400D1*
X1233840Y2412900D1*
X1233644Y2411400D1*
X1233226Y2409900D1*
X1232592Y2408400D1*
X1231692Y2406900D1*
X1230544Y2405400D1*
X1227864Y2403900D1*
X1223831Y2402400D1*
X1218900Y2400900D1*
X1152900Y2415900D2*
X1152894Y2414400D1*
X1152841Y2412900D1*
X1152644Y2411400D1*
X1152226Y2409900D1*
X1151586Y2408400D1*
X1150633Y2406900D1*
X1149362Y2405400D1*
X1146258Y2403900D1*
X1141766Y2402400D1*
X1136400Y2400900D1*
X1128900Y2406900D2*
X1128317Y2405400D1*
X1128475Y2403900D1*
X1129542Y2402400D1*
X1131208Y2400900D1*
X1133595Y2399400D1*
X1136400Y2397900D1*
X1131900Y2406900D2*
X1133761Y2405400D1*
X1136828Y2403900D1*
X1141422Y2402400D1*
X1146900Y2400900D1*
X1190400Y2402400D2*
X1188624Y2400900D1*
X1186597Y2399400D1*
X1184400Y2397900D1*
X1191900Y2402400D2*
Y2400900D1*
Y2399400D1*
Y2397900D1*
Y2396400D1*
Y2394900D1*
Y2393400D1*
Y2391900D1*
Y2390400D1*
Y2388900D1*
Y2387400D1*
Y2385900D1*
Y2384400D1*
Y2382900D1*
X815036Y2436088D2*
X812849Y2434588D1*
X810971Y2433088D1*
X809450Y2431588D1*
X808271Y2430088D1*
X807361Y2428588D1*
X806664Y2427088D1*
X806100Y2425588D1*
X805558Y2424088D1*
X805093Y2422588D1*
X804799Y2421088D1*
X804648Y2419588D1*
X804577Y2418088D1*
X804536Y2416588D1*
X825536Y2436088D2*
X828415Y2434588D1*
X830723Y2433088D1*
X832462Y2431588D1*
X833738Y2430088D1*
X834682Y2428588D1*
X835347Y2427088D1*
X835778Y2425588D1*
X836154Y2424088D1*
X836593Y2422588D1*
X837010Y2421088D1*
X837284Y2419588D1*
X837422Y2418088D1*
X837434Y2416588D1*
X837270Y2415088D1*
X836921Y2413588D1*
X836534Y2412088D1*
X836221Y2410588D1*
X835886Y2409088D1*
X835404Y2407588D1*
X834744Y2406088D1*
X833851Y2404588D1*
X832601Y2403088D1*
X830817Y2401588D1*
X828373Y2400088D1*
X825536Y2398588D1*
X852536Y2436088D2*
X850349Y2434588D1*
X848471Y2433088D1*
X846950Y2431588D1*
X845770Y2430088D1*
X844851Y2428588D1*
X844133Y2427088D1*
X843536Y2425588D1*
X863036Y2436088D2*
X865222Y2434588D1*
X867100Y2433088D1*
X868621Y2431588D1*
X869800Y2430088D1*
X870705Y2428588D1*
X871355Y2427088D1*
X871780Y2425588D1*
X872155Y2424088D1*
X872594Y2422588D1*
X873011Y2421088D1*
X873284Y2419588D1*
X873422Y2418088D1*
X873434Y2416588D1*
X873270Y2415088D1*
X872921Y2413588D1*
X872534Y2412088D1*
X872221Y2410588D1*
X871886Y2409088D1*
X871404Y2407588D1*
X870744Y2406088D1*
X869857Y2404588D1*
X868663Y2403088D1*
X867112Y2401588D1*
X865181Y2400088D1*
X863036Y2398588D1*
X878036Y2436088D2*
Y2434588D1*
Y2433088D1*
Y2431588D1*
X882248Y2430088D1*
X885273Y2428588D1*
X887495Y2427088D1*
X888547Y2425588D1*
X889282Y2424088D1*
X889696Y2422588D1*
X889896Y2421088D1*
X889982Y2419588D1*
X890016Y2418088D1*
X890029Y2416588D1*
X890033Y2415088D1*
X890035Y2413588D1*
Y2412088D1*
X890036Y2410588D1*
Y2409088D1*
Y2407588D1*
Y2406088D1*
Y2404588D1*
Y2403088D1*
Y2401588D1*
Y2400088D1*
Y2398588D1*
X884036Y2436088D2*
X885811Y2434588D1*
X887838Y2433088D1*
X890036Y2431588D1*
Y2436088D2*
X889760Y2434588D1*
X889234Y2433088D1*
X888536Y2431588D1*
X896036Y2436088D2*
X895804Y2434588D1*
X895432Y2433088D1*
X895044Y2431588D1*
X894781Y2430088D1*
X894641Y2428588D1*
X894578Y2427088D1*
X894551Y2425588D1*
X894541Y2424088D1*
X894538Y2422588D1*
X894536Y2421088D1*
Y2419588D1*
Y2418088D1*
Y2416588D1*
Y2415088D1*
Y2413588D1*
Y2412088D1*
Y2410588D1*
Y2409088D1*
Y2407588D1*
Y2406088D1*
Y2404588D1*
Y2403088D1*
Y2401588D1*
Y2400088D1*
Y2398588D1*
X906536Y2436088D2*
Y2434588D1*
Y2433088D1*
Y2431588D1*
Y2430088D1*
Y2428588D1*
Y2427088D1*
Y2425588D1*
Y2424088D1*
Y2422588D1*
Y2421088D1*
Y2419588D1*
Y2418088D1*
Y2416588D1*
Y2415088D1*
Y2413588D1*
Y2412088D1*
Y2410588D1*
Y2409088D1*
Y2407588D1*
Y2406088D1*
Y2404588D1*
Y2403088D1*
Y2401588D1*
Y2400088D1*
Y2398588D1*
X912536Y2436088D2*
Y2434588D1*
Y2433088D1*
Y2431588D1*
Y2430088D1*
Y2428588D1*
Y2427088D1*
Y2425588D1*
Y2424088D1*
Y2422588D1*
Y2421088D1*
Y2419588D1*
Y2418088D1*
Y2416588D1*
Y2415088D1*
X912542Y2413588D1*
X912594Y2412088D1*
X912791Y2410588D1*
X913221Y2409088D1*
X913820Y2407588D1*
X915100Y2406088D1*
X918457Y2404588D1*
X923305Y2403088D1*
X929036Y2401588D1*
X930536Y2436088D2*
Y2434588D1*
Y2433088D1*
Y2431588D1*
Y2430088D1*
Y2428588D1*
Y2427088D1*
Y2425588D1*
Y2424088D1*
Y2422588D1*
Y2421088D1*
Y2419588D1*
Y2418088D1*
Y2416588D1*
Y2415088D1*
Y2413588D1*
Y2412088D1*
X930530Y2410588D1*
X930465Y2409088D1*
X930307Y2407588D1*
X929478Y2406088D1*
X926911Y2404588D1*
X923100Y2403088D1*
X918536Y2401588D1*
X936536Y2436088D2*
Y2434588D1*
Y2433088D1*
Y2431588D1*
Y2430088D1*
Y2428588D1*
Y2427088D1*
Y2425588D1*
Y2424088D1*
Y2422588D1*
Y2421088D1*
Y2419588D1*
Y2418088D1*
Y2416588D1*
Y2415088D1*
X936530Y2413588D1*
X936477Y2412088D1*
X936286Y2410588D1*
X935927Y2409088D1*
X935536Y2407588D1*
X935216Y2406088D1*
X934821Y2404588D1*
X934257Y2403088D1*
X932883Y2401588D1*
X931085Y2400088D1*
X929036Y2398588D1*
X956036Y2436088D2*
X953388Y2434588D1*
X951208Y2433088D1*
X949618Y2431588D1*
X948456Y2430088D1*
X947531Y2428588D1*
X946762Y2427088D1*
X946181Y2425588D1*
X945834Y2424088D1*
X945661Y2422588D1*
X945585Y2421088D1*
X945554Y2419588D1*
X945542Y2418088D1*
X945538Y2416588D1*
X945542Y2415088D1*
X945594Y2413588D1*
X945785Y2412088D1*
X946151Y2410588D1*
X946594Y2409088D1*
X947105Y2407588D1*
X947853Y2406088D1*
X948916Y2404588D1*
X950255Y2403088D1*
X951891Y2401588D1*
X953864Y2400088D1*
X956036Y2398588D1*
X968036Y2436088D2*
X970222Y2434588D1*
X972100Y2433088D1*
X973621Y2431588D1*
X974800Y2430088D1*
X975711Y2428588D1*
X976408Y2427088D1*
X976972Y2425588D1*
X977514Y2424088D1*
X977978Y2422588D1*
X978272Y2421088D1*
X978423Y2419588D1*
X978485Y2418088D1*
X978461Y2416588D1*
X978280Y2415088D1*
X977925Y2413588D1*
X977536Y2412088D1*
X977222Y2410588D1*
X976886Y2409088D1*
X976404Y2407588D1*
X975744Y2406088D1*
X974857Y2404588D1*
X973663Y2403088D1*
X972112Y2401588D1*
X970181Y2400088D1*
X968036Y2398588D1*
X993536Y2436088D2*
X991349Y2434588D1*
X989483Y2433088D1*
X987874Y2431588D1*
X987054Y2430088D1*
X987178Y2428588D1*
X987536Y2427088D1*
X1005536Y2436088D2*
X1008357Y2434588D1*
X1010468Y2433088D1*
X1012034Y2431588D1*
X1012554Y2430088D1*
X1012833Y2428588D1*
X1012951Y2427088D1*
X1012942Y2425588D1*
X1012711Y2424088D1*
X1012103Y2422588D1*
X1011042Y2421088D1*
X1009426Y2419588D1*
X1006988Y2418088D1*
X1003633Y2416588D1*
X999829Y2415088D1*
X996341Y2413588D1*
X993704Y2412088D1*
X991757Y2410588D1*
X991032Y2409088D1*
X990934Y2407588D1*
X991698Y2406088D1*
X994756Y2404588D1*
X999590Y2403088D1*
X1005536Y2401588D1*
X819536Y2433088D2*
X816888Y2431588D1*
X814708Y2430088D1*
X813124Y2428588D1*
X812015Y2427088D1*
X811280Y2425588D1*
X810871Y2424088D1*
X810674Y2422588D1*
X810586Y2421088D1*
X810536Y2419588D1*
X821036Y2433088D2*
X823735Y2431588D1*
X826060Y2430088D1*
X827865Y2428588D1*
X829191Y2427088D1*
X830162Y2425588D1*
X830833Y2424088D1*
X831217Y2422588D1*
X831413Y2421088D1*
X831536Y2419588D1*
X860036Y2433088D2*
X856188Y2431588D1*
X853184Y2430088D1*
X850943Y2428588D1*
X850145Y2427088D1*
X849536Y2425588D1*
X855536Y2433088D2*
X859383Y2431588D1*
X862393Y2430088D1*
X864649Y2428588D1*
X865603Y2427088D1*
X866360Y2425588D1*
X866919Y2424088D1*
X867251Y2422588D1*
X867416Y2421088D1*
X867489Y2419588D1*
X867518Y2418088D1*
X867530Y2416588D1*
X867528Y2415088D1*
X867476Y2413588D1*
X867280Y2412088D1*
X866862Y2410588D1*
X866222Y2409088D1*
X865281Y2407588D1*
X863785Y2406088D1*
X861399Y2404588D1*
X857996Y2403088D1*
X854036Y2401588D1*
X960536Y2433088D2*
X957888Y2431588D1*
X955708Y2430088D1*
X954124Y2428588D1*
X953015Y2427088D1*
X952280Y2425588D1*
X951871Y2424088D1*
X951674Y2422588D1*
X951589Y2421088D1*
X951555Y2419588D1*
X951543Y2418088D1*
X951538Y2416588D1*
X951536Y2415088D1*
X951542Y2413588D1*
X951594Y2412088D1*
X951791Y2410588D1*
X952215Y2409088D1*
X952937Y2407588D1*
X953942Y2406088D1*
X957137Y2404588D1*
X962045Y2403088D1*
X968036Y2401588D1*
X962036Y2433088D2*
X964735Y2431588D1*
X967060Y2430088D1*
X968865Y2428588D1*
X970191Y2427088D1*
X971162Y2425588D1*
X971833Y2424088D1*
X972216Y2422588D1*
X972403Y2421088D1*
X972484Y2419588D1*
X972517Y2418088D1*
X972529Y2416588D1*
X972528Y2415088D1*
X972476Y2413588D1*
X972280Y2412088D1*
X971862Y2410588D1*
X971228Y2409088D1*
X970328Y2407588D1*
X969180Y2406088D1*
X966500Y2404588D1*
X962467Y2403088D1*
X957536Y2401588D1*
X1001036Y2433088D2*
X997186Y2431588D1*
X994154Y2430088D1*
X992094Y2428588D1*
X990536Y2427088D1*
X1001036Y2433088D2*
X1003678Y2431588D1*
X1005798Y2430088D1*
X1007416Y2428588D1*
X1007901Y2427088D1*
X1007551Y2425588D1*
X1006235Y2424088D1*
X1003345Y2422588D1*
X999669Y2421088D1*
X995804Y2419588D1*
X992492Y2418088D1*
X989982Y2416588D1*
X988159Y2415088D1*
X986851Y2413588D1*
X985901Y2412088D1*
X985152Y2410588D1*
X985068Y2409088D1*
X985274Y2407588D1*
X985649Y2406088D1*
X986188Y2404588D1*
X986951Y2403088D1*
X988773Y2401588D1*
X991043Y2400088D1*
X993536Y2398588D1*
X831536Y2416588D2*
X831530Y2415088D1*
X831477Y2413588D1*
X831280Y2412088D1*
X830862Y2410588D1*
X830222Y2409088D1*
X829269Y2407588D1*
X827998Y2406088D1*
X824894Y2404588D1*
X820402Y2403088D1*
X815036Y2401588D1*
X843536Y2409088D2*
X843825Y2407588D1*
X844400Y2406088D1*
X845266Y2404588D1*
X846412Y2403088D1*
X848022Y2401588D1*
X850153Y2400088D1*
X852536Y2398588D1*
X848036Y2409088D2*
X849161Y2407588D1*
X850479Y2406088D1*
X853628Y2404588D1*
X857983Y2403088D1*
X863036Y2401588D1*
X807536Y2407588D2*
X806953Y2406088D1*
X807111Y2404588D1*
X808178Y2403088D1*
X809844Y2401588D1*
X812231Y2400088D1*
X815036Y2398588D1*
X810536Y2407588D2*
X812397Y2406088D1*
X815464Y2404588D1*
X820058Y2403088D1*
X825536Y2401588D1*
X1010036Y2407588D2*
X1008802Y2406088D1*
X1004982Y2404588D1*
X999131Y2403088D1*
X992036Y2401588D1*
X1014536Y2407588D2*
X1014241Y2406088D1*
X1013612Y2404588D1*
X1012557Y2403088D1*
X1011070Y2401588D1*
X1009166Y2400088D1*
X1007036Y2398588D1*
X911036Y2404588D2*
Y2403088D1*
Y2401588D1*
Y2400088D1*
Y2398588D1*
X912536Y2404588D2*
X914097Y2403088D1*
X915830Y2401588D1*
X917843Y2400088D1*
X920036Y2398588D1*
X1027564Y2380401D2*
Y2378901D1*
Y2377401D1*
Y2375901D1*
Y2374401D1*
Y2372901D1*
Y2371401D1*
Y2369901D1*
Y2368401D1*
Y2366901D1*
Y2365401D1*
Y2363901D1*
Y2362401D1*
Y2360901D1*
Y2359401D1*
Y2357901D1*
Y2356401D1*
Y2354901D1*
Y2353401D1*
Y2351901D1*
Y2350401D1*
Y2348901D1*
Y2347401D1*
Y2345901D1*
Y2344401D1*
Y2342901D1*
Y2341401D1*
Y2339901D1*
Y2338401D1*
Y2336901D1*
Y2335401D1*
Y2333901D1*
Y2332401D1*
Y2330901D1*
Y2329401D1*
X1033564Y2380401D2*
Y2378901D1*
Y2377401D1*
Y2375901D1*
Y2374401D1*
Y2372901D1*
Y2371401D1*
Y2369901D1*
X1033570Y2368401D1*
X1033627Y2366901D1*
X1033859Y2365401D1*
X1034372Y2363901D1*
X1035064Y2362401D1*
X1156564Y2380401D2*
Y2378901D1*
Y2377401D1*
Y2375901D1*
Y2374401D1*
Y2372901D1*
Y2371401D1*
Y2369901D1*
Y2368401D1*
X1156559Y2366901D1*
X1156501Y2365401D1*
X1156270Y2363901D1*
X1155757Y2362401D1*
X1155064Y2360901D1*
X1161064Y2380401D2*
Y2378901D1*
Y2377401D1*
Y2375901D1*
Y2374401D1*
Y2372901D1*
Y2371401D1*
Y2369901D1*
Y2368401D1*
Y2366901D1*
Y2365401D1*
Y2363901D1*
Y2362401D1*
Y2360901D1*
Y2359401D1*
Y2357901D1*
Y2356401D1*
Y2354901D1*
Y2353401D1*
Y2351901D1*
Y2350401D1*
Y2348901D1*
Y2347401D1*
Y2345901D1*
Y2344401D1*
Y2342901D1*
Y2341401D1*
Y2339901D1*
Y2338401D1*
Y2336901D1*
Y2335401D1*
Y2333901D1*
Y2332401D1*
Y2330901D1*
Y2329401D1*
X879064Y2366901D2*
X876878Y2365401D1*
X875000Y2363901D1*
X873479Y2362401D1*
X872300Y2360901D1*
X871389Y2359401D1*
X870692Y2357901D1*
X870129Y2356401D1*
X869586Y2354901D1*
X869122Y2353401D1*
X868828Y2351901D1*
X868676Y2350401D1*
X868606Y2348901D1*
X868564Y2347401D1*
X889564Y2366901D2*
X892443Y2365401D1*
X894752Y2363901D1*
X896491Y2362401D1*
X897767Y2360901D1*
X898711Y2359401D1*
X899376Y2357901D1*
X899806Y2356401D1*
X900182Y2354901D1*
X900622Y2353401D1*
X901039Y2351901D1*
X901313Y2350401D1*
X901451Y2348901D1*
X901463Y2347401D1*
X901299Y2345901D1*
X900950Y2344401D1*
X900563Y2342901D1*
X900250Y2341401D1*
X899914Y2339901D1*
X899433Y2338401D1*
X898772Y2336901D1*
X897880Y2335401D1*
X896629Y2333901D1*
X894846Y2332401D1*
X892402Y2330901D1*
X889564Y2329401D1*
X906064Y2366901D2*
Y2365401D1*
Y2363901D1*
Y2362401D1*
X910277Y2360901D1*
X913302Y2359401D1*
X915524Y2357901D1*
X916575Y2356401D1*
X917311Y2354901D1*
X917725Y2353401D1*
X917924Y2351901D1*
X918010Y2350401D1*
X918045Y2348901D1*
X918058Y2347401D1*
X918062Y2345901D1*
X918064Y2344401D1*
Y2342901D1*
Y2341401D1*
Y2339901D1*
Y2338401D1*
Y2336901D1*
Y2335401D1*
Y2333901D1*
Y2332401D1*
Y2330901D1*
Y2329401D1*
X912064Y2366901D2*
X913840Y2365401D1*
X915867Y2363901D1*
X918064Y2362401D1*
Y2366901D2*
X917789Y2365401D1*
X917262Y2363901D1*
X916564Y2362401D1*
X924064Y2366901D2*
X923833Y2365401D1*
X923461Y2363901D1*
X923072Y2362401D1*
X922810Y2360901D1*
X922670Y2359401D1*
X922607Y2357901D1*
X922580Y2356401D1*
X922570Y2354901D1*
X922566Y2353401D1*
X922565Y2351901D1*
Y2350401D1*
Y2348901D1*
X922564Y2347401D1*
Y2345901D1*
Y2344401D1*
Y2342901D1*
Y2341401D1*
Y2339901D1*
Y2338401D1*
Y2336901D1*
Y2335401D1*
Y2333901D1*
Y2332401D1*
Y2330901D1*
Y2329401D1*
X943564Y2366901D2*
X941378Y2365401D1*
X939506Y2363901D1*
X938037Y2362401D1*
X936885Y2360901D1*
X936463Y2359401D1*
X936234Y2357901D1*
X936131Y2356401D1*
X936089Y2354901D1*
X936073Y2353401D1*
X936067Y2351901D1*
X936065Y2350401D1*
Y2348901D1*
Y2347401D1*
X936064Y2345901D1*
Y2344401D1*
Y2342901D1*
X936059Y2341401D1*
X936006Y2339901D1*
X935815Y2338401D1*
X935455Y2336901D1*
X935067Y2335401D1*
X934782Y2333901D1*
X934564Y2332401D1*
X930064D1*
Y2330901D1*
Y2329401D1*
X955564Y2366901D2*
X958032Y2365401D1*
X959979Y2363901D1*
X961343Y2362401D1*
X962220Y2360901D1*
X962723Y2359401D1*
X963064Y2357901D1*
X970564Y2366901D2*
X970796Y2365401D1*
X971174Y2363901D1*
X971615Y2362401D1*
X972069Y2360901D1*
X972568Y2359401D1*
X973022Y2357901D1*
X973363Y2356401D1*
X973703Y2354901D1*
X974135Y2353401D1*
X974600Y2351901D1*
X975064Y2350401D1*
X975566Y2348901D1*
X976021Y2347401D1*
X976362Y2345901D1*
X976703Y2344401D1*
X977135Y2342901D1*
X977600Y2341401D1*
X978064Y2339901D1*
X978566Y2338401D1*
X979021Y2336901D1*
X979362Y2335401D1*
X979704Y2333901D1*
X980143Y2332401D1*
X980618Y2330901D1*
X981064Y2329401D1*
X975064Y2366901D2*
X975577Y2365401D1*
X976030Y2363901D1*
X976367Y2362401D1*
X976705Y2360901D1*
X977130Y2359401D1*
X977548Y2357901D1*
X977873Y2356401D1*
X978207Y2354901D1*
X978637Y2353401D1*
X979101Y2351901D1*
X979564Y2350401D1*
X980066Y2348901D1*
X980521Y2347401D1*
X980862Y2345901D1*
X981203Y2344401D1*
X981629Y2342901D1*
X982048Y2341401D1*
X982377Y2339901D1*
X982752Y2338401D1*
X983332Y2336901D1*
X984064Y2335401D1*
X993064Y2366901D2*
X992552Y2365401D1*
X992099Y2363901D1*
X991762Y2362401D1*
X991424Y2360901D1*
X990999Y2359401D1*
X990581Y2357901D1*
X990256Y2356401D1*
X989922Y2354901D1*
X989498Y2353401D1*
X989081Y2351901D1*
X988756Y2350401D1*
X988422Y2348901D1*
X987998Y2347401D1*
X987581Y2345901D1*
X987256Y2344401D1*
X986922Y2342901D1*
X986492Y2341401D1*
X986024Y2339901D1*
X985519Y2338401D1*
X984855Y2336901D1*
X984064Y2335401D1*
X999064Y2366901D2*
X999296Y2365401D1*
X999668Y2363901D1*
X1000062Y2362401D1*
X1000378Y2360901D1*
X1000708Y2359401D1*
X1001131Y2357901D1*
X1001548Y2356401D1*
X1001873Y2354901D1*
X1002207Y2353401D1*
X1002631Y2351901D1*
X1003048Y2350401D1*
X1003373Y2348901D1*
X1003707Y2347401D1*
X1004131Y2345901D1*
X1004548Y2344401D1*
X1004873Y2342901D1*
X1005212Y2341401D1*
X1005694Y2339901D1*
X1006341Y2338401D1*
X1007149Y2336901D1*
X1008064Y2335401D1*
X1015564Y2366901D2*
X1015507Y2365401D1*
X1015315Y2363901D1*
X1014956Y2362401D1*
X1014565Y2360901D1*
X1014251Y2359401D1*
X1013920Y2357901D1*
X1013498Y2356401D1*
X1013081Y2354901D1*
X1012756Y2353401D1*
X1012422Y2351901D1*
X1011998Y2350401D1*
X1011581Y2348901D1*
X1011256Y2347401D1*
X1010922Y2345901D1*
X1010498Y2344401D1*
X1010087Y2342901D1*
X1009809Y2341401D1*
X1009609Y2339901D1*
X1009312Y2338401D1*
X1008772Y2336901D1*
X1008064Y2335401D1*
X1021564Y2366901D2*
X1020866Y2365401D1*
X1020383Y2363901D1*
X1019973Y2362401D1*
X1019518Y2360901D1*
X1019088Y2359401D1*
X1018759Y2357901D1*
X1018423Y2356401D1*
X1017993Y2354901D1*
X1017528Y2353401D1*
X1017065Y2351901D1*
X1016563Y2350401D1*
X1016108Y2348901D1*
X1015767Y2347401D1*
X1015426Y2345901D1*
X1014999Y2344401D1*
X1014581Y2342901D1*
X1014256Y2341401D1*
X1013922Y2339901D1*
X1013492Y2338401D1*
X1013028Y2336901D1*
X1012565Y2335401D1*
X1012063Y2333901D1*
X1011609Y2332401D1*
X1011298Y2330901D1*
X1011064Y2329401D1*
X1041064Y2366901D2*
X1038591Y2365401D1*
X1036101Y2363901D1*
X1033564Y2362401D1*
X1050064Y2366901D2*
X1052200Y2365401D1*
X1053932Y2363901D1*
X1055232Y2362401D1*
X1056195Y2360901D1*
X1056869Y2359401D1*
X1057304Y2357901D1*
X1057681Y2356401D1*
X1058122Y2354901D1*
X1058539Y2353401D1*
X1058813Y2351901D1*
X1058956Y2350401D1*
X1059022Y2348901D1*
X1059043Y2347401D1*
X1059000Y2345901D1*
X1058813Y2344401D1*
X1058455Y2342901D1*
X1058065Y2341401D1*
X1057751Y2339901D1*
X1057415Y2338401D1*
X1056933Y2336901D1*
X1056267Y2335401D1*
X1055329Y2333901D1*
X1053962Y2332401D1*
X1052138Y2330901D1*
X1050064Y2329401D1*
X1063564Y2366901D2*
Y2365401D1*
Y2363901D1*
Y2362401D1*
X1067777Y2360901D1*
X1070802Y2359401D1*
X1073024Y2357901D1*
X1074075Y2356401D1*
X1074811Y2354901D1*
X1075225Y2353401D1*
X1075424Y2351901D1*
X1075510Y2350401D1*
X1075545Y2348901D1*
X1075558Y2347401D1*
X1075562Y2345901D1*
X1075564Y2344401D1*
Y2342901D1*
Y2341401D1*
Y2339901D1*
Y2338401D1*
Y2336901D1*
Y2335401D1*
Y2333901D1*
Y2332401D1*
Y2330901D1*
Y2329401D1*
X1069564Y2366901D2*
X1071340Y2365401D1*
X1073367Y2363901D1*
X1075564Y2362401D1*
Y2366901D2*
X1075289Y2365401D1*
X1074762Y2363901D1*
X1074064Y2362401D1*
X1081564Y2366901D2*
X1081333Y2365401D1*
X1080961Y2363901D1*
X1080572Y2362401D1*
X1080310Y2360901D1*
X1080170Y2359401D1*
X1080107Y2357901D1*
X1080080Y2356401D1*
X1080070Y2354901D1*
X1080066Y2353401D1*
X1080065Y2351901D1*
Y2350401D1*
Y2348901D1*
X1080064Y2347401D1*
Y2345901D1*
Y2344401D1*
Y2342901D1*
Y2341401D1*
Y2339901D1*
Y2338401D1*
Y2336901D1*
Y2335401D1*
Y2333901D1*
Y2332401D1*
Y2330901D1*
Y2329401D1*
X1101064Y2366901D2*
X1098878Y2365401D1*
X1097006Y2363901D1*
X1095537Y2362401D1*
X1094385Y2360901D1*
X1093963Y2359401D1*
X1093734Y2357901D1*
X1093631Y2356401D1*
X1093589Y2354901D1*
X1093573Y2353401D1*
X1093567Y2351901D1*
X1093565Y2350401D1*
Y2348901D1*
Y2347401D1*
X1093564Y2345901D1*
Y2344401D1*
Y2342901D1*
X1093559Y2341401D1*
X1093506Y2339901D1*
X1093315Y2338401D1*
X1092955Y2336901D1*
X1092567Y2335401D1*
X1092282Y2333901D1*
X1092064Y2332401D1*
X1087564D1*
Y2330901D1*
Y2329401D1*
X1113064Y2366901D2*
X1115532Y2365401D1*
X1117479Y2363901D1*
X1118843Y2362401D1*
X1119720Y2360901D1*
X1120223Y2359401D1*
X1120564Y2357901D1*
X1138564Y2366901D2*
X1137122Y2365401D1*
X1135820Y2363901D1*
X1134738Y2362401D1*
X1133872Y2360901D1*
X1133243Y2359401D1*
X1132876Y2357901D1*
X1132694Y2356401D1*
X1132615Y2354901D1*
X1132583Y2353401D1*
X1132571Y2351901D1*
X1132567Y2350401D1*
X1132565Y2348901D1*
Y2347401D1*
Y2345901D1*
X1132564Y2344401D1*
Y2342901D1*
Y2341401D1*
Y2339901D1*
Y2338401D1*
Y2336901D1*
Y2335401D1*
Y2333901D1*
Y2332401D1*
Y2330901D1*
Y2329401D1*
X1149064Y2366901D2*
X1151024Y2365401D1*
X1152572Y2363901D1*
X1153851Y2362401D1*
X1155064Y2360901D1*
X883564Y2363901D2*
X880916Y2362401D1*
X878737Y2360901D1*
X877153Y2359401D1*
X876044Y2357901D1*
X875309Y2356401D1*
X874900Y2354901D1*
X874703Y2353401D1*
X874614Y2351901D1*
X874564Y2350401D1*
X885064Y2363901D2*
X887764Y2362401D1*
X890088Y2360901D1*
X891894Y2359401D1*
X893219Y2357901D1*
X894190Y2356401D1*
X894862Y2354901D1*
X895246Y2353401D1*
X895442Y2351901D1*
X895564Y2350401D1*
X951064Y2363901D2*
X947392Y2362401D1*
X944568Y2360901D1*
X942429Y2359401D1*
X941517Y2357901D1*
X940989Y2356401D1*
X940726Y2354901D1*
X940564Y2353401D1*
X949322Y2351901D1*
X955586Y2350401D1*
X959564Y2348901D1*
X962383Y2347401D1*
X963686Y2345901D1*
X964673Y2344401D1*
X965355Y2342901D1*
X965737Y2341401D1*
X965872Y2339901D1*
X965757Y2338401D1*
X965372Y2336901D1*
X964750Y2335401D1*
X963884Y2333901D1*
X962754Y2332401D1*
X961445Y2330901D1*
X960064Y2329401D1*
X951064Y2363901D2*
X953709Y2362401D1*
X955858Y2360901D1*
X957382Y2359401D1*
X958564Y2357901D1*
X1042564Y2363901D2*
X1039916Y2362401D1*
X1037737Y2360901D1*
X1036153Y2359401D1*
X1035044Y2357901D1*
X1034309Y2356401D1*
X1033900Y2354901D1*
X1033703Y2353401D1*
X1033618Y2351901D1*
X1033584Y2350401D1*
X1033571Y2348901D1*
X1033567Y2347401D1*
X1033565Y2345901D1*
X1033571Y2344401D1*
X1033623Y2342901D1*
X1033820Y2341401D1*
X1034250Y2339901D1*
X1034848Y2338401D1*
X1036129Y2336901D1*
X1039486Y2335401D1*
X1044333Y2333901D1*
X1050064Y2332401D1*
X1044064Y2363901D2*
X1046713Y2362401D1*
X1048892Y2360901D1*
X1050476Y2359401D1*
X1051585Y2357901D1*
X1052320Y2356401D1*
X1052729Y2354901D1*
X1052926Y2353401D1*
X1053011Y2351901D1*
X1053045Y2350401D1*
X1053058Y2348901D1*
X1053062Y2347401D1*
X1053064Y2345901D1*
X1053058Y2344401D1*
X1053006Y2342901D1*
X1052809Y2341401D1*
X1052385Y2339901D1*
X1051675Y2338401D1*
X1050705Y2336901D1*
X1048033Y2335401D1*
X1044165Y2333901D1*
X1039564Y2332401D1*
X1108564Y2363901D2*
X1104892Y2362401D1*
X1102068Y2360901D1*
X1099929Y2359401D1*
X1099017Y2357901D1*
X1098489Y2356401D1*
X1098226Y2354901D1*
X1098064Y2353401D1*
X1106822Y2351901D1*
X1113086Y2350401D1*
X1117064Y2348901D1*
X1119883Y2347401D1*
X1121186Y2345901D1*
X1122173Y2344401D1*
X1122855Y2342901D1*
X1123237Y2341401D1*
X1123372Y2339901D1*
X1123257Y2338401D1*
X1122872Y2336901D1*
X1122250Y2335401D1*
X1121384Y2333901D1*
X1120254Y2332401D1*
X1118945Y2330901D1*
X1117564Y2329401D1*
X1108564Y2363901D2*
X1111209Y2362401D1*
X1113358Y2360901D1*
X1114882Y2359401D1*
X1116064Y2357901D1*
X1146064Y2363901D2*
X1143422Y2362401D1*
X1141290Y2360901D1*
X1139637Y2359401D1*
X1138851Y2357901D1*
X1138181Y2356401D1*
X1137658Y2354901D1*
X1137341Y2353401D1*
X1137181Y2351901D1*
X1137110Y2350401D1*
X1137081Y2348901D1*
X1137070Y2347401D1*
X1137067Y2345901D1*
X1137065Y2344401D1*
Y2342901D1*
Y2341401D1*
X1137064Y2339901D1*
Y2338401D1*
Y2336901D1*
Y2335401D1*
Y2333901D1*
Y2332401D1*
Y2330901D1*
Y2329401D1*
X1146064Y2363901D2*
X1148764Y2362401D1*
X1151088Y2360901D1*
X1152894Y2359401D1*
X1154219Y2357901D1*
X1155190Y2356401D1*
X1155862Y2354901D1*
X1156245Y2353401D1*
X1156432Y2351901D1*
X1156513Y2350401D1*
X1156546Y2348901D1*
X1156558Y2347401D1*
X1156562Y2345901D1*
X1156564Y2344401D1*
Y2342901D1*
Y2341401D1*
Y2339901D1*
Y2338401D1*
Y2336901D1*
Y2335401D1*
Y2333901D1*
Y2332401D1*
Y2330901D1*
Y2329401D1*
X994564Y2360901D2*
X994507Y2359401D1*
X994315Y2357901D1*
X993956Y2356401D1*
X993565Y2354901D1*
X993251Y2353401D1*
X992920Y2351901D1*
X992498Y2350401D1*
X992081Y2348901D1*
X991756Y2347401D1*
X991422Y2345901D1*
X990998Y2344401D1*
X990581Y2342901D1*
X990256Y2341401D1*
X989922Y2339901D1*
X989498Y2338401D1*
X989087Y2336901D1*
X988809Y2335401D1*
X988609Y2333901D1*
X988312Y2332401D1*
X987772Y2330901D1*
X987064Y2329401D1*
X997564Y2360901D2*
X997570Y2359401D1*
X997623Y2357901D1*
X997814Y2356401D1*
X998173Y2354901D1*
X998564Y2353401D1*
X998878Y2351901D1*
X999209Y2350401D1*
X999631Y2348901D1*
X1000048Y2347401D1*
X1000373Y2345901D1*
X1000707Y2344401D1*
X1001131Y2342901D1*
X1001548Y2341401D1*
X1001873Y2339901D1*
X1002207Y2338401D1*
X1002631Y2336901D1*
X1003048Y2335401D1*
X1003377Y2333901D1*
X1003752Y2332401D1*
X1004332Y2330901D1*
X1005064Y2329401D1*
X940564Y2348901D2*
X940570Y2347401D1*
X940623Y2345901D1*
X940820Y2344401D1*
X941232Y2342901D1*
X941820Y2341401D1*
X942558Y2339901D1*
X943604Y2338401D1*
X944997Y2336901D1*
X948358Y2335401D1*
X953044Y2333901D1*
X958564Y2332401D1*
X951064Y2348901D2*
X953764Y2347401D1*
X956082Y2345901D1*
X957835Y2344401D1*
X959167Y2342901D1*
X959625Y2341401D1*
X959816Y2339901D1*
X959815Y2338401D1*
X959174Y2336901D1*
X957039Y2335401D1*
X953692Y2333901D1*
X949564Y2332401D1*
X1098064Y2348901D2*
X1098070Y2347401D1*
X1098123Y2345901D1*
X1098320Y2344401D1*
X1098732Y2342901D1*
X1099320Y2341401D1*
X1100058Y2339901D1*
X1101104Y2338401D1*
X1102497Y2336901D1*
X1105858Y2335401D1*
X1110544Y2333901D1*
X1116064Y2332401D1*
X1108564Y2348901D2*
X1111264Y2347401D1*
X1113582Y2345901D1*
X1115335Y2344401D1*
X1116667Y2342901D1*
X1117125Y2341401D1*
X1117316Y2339901D1*
X1117315Y2338401D1*
X1116674Y2336901D1*
X1114539Y2335401D1*
X1111192Y2333901D1*
X1107064Y2332401D1*
X895564Y2347401D2*
X895559Y2345901D1*
X895506Y2344401D1*
X895309Y2342901D1*
X894891Y2341401D1*
X894251Y2339901D1*
X893298Y2338401D1*
X892027Y2336901D1*
X888923Y2335401D1*
X884431Y2333901D1*
X879064Y2332401D1*
X871564Y2338401D2*
X870981Y2336901D1*
X871140Y2335401D1*
X872207Y2333901D1*
X873873Y2332401D1*
X876260Y2330901D1*
X879064Y2329401D1*
X874564Y2338401D2*
X876426Y2336901D1*
X879493Y2335401D1*
X884086Y2333901D1*
X889564Y2332401D1*
X942064Y2335401D2*
X940797Y2333901D1*
X939682Y2332401D1*
X938632Y2330901D1*
X937564Y2329401D1*
X942064Y2335401D2*
X943626Y2333901D1*
X945359Y2332401D1*
X947372Y2330901D1*
X949564Y2329401D1*
X1099564Y2335401D2*
X1098297Y2333901D1*
X1097182Y2332401D1*
X1096132Y2330901D1*
X1095064Y2329401D1*
X1099564Y2335401D2*
X1101126Y2333901D1*
X1102859Y2332401D1*
X1104872Y2330901D1*
X1107064Y2329401D1*
X1032064Y2333901D2*
Y2332401D1*
Y2330901D1*
Y2329401D1*
X1035064Y2333901D2*
X1036840Y2332401D1*
X1038867Y2330901D1*
X1041064Y2329401D1*
X714829Y1529686D2*
D68*
X744973D1*
X714829Y1539734D2*
Y1519638D1*
X730614Y1510374D2*
Y1497441D1*
X729188Y1493163D1*
X727729Y1491704D1*
X724877Y1490278D1*
X720566D1*
X717714Y1491704D1*
X716255Y1493163D1*
X714829Y1497441D1*
Y1510374D1*
X744973D1*
X720599Y1481015D2*
X719140Y1478130D1*
X714862Y1473819D1*
X744973D1*
X1278591Y718091D2*
D69*
Y720943D1*
X1275739Y726713D1*
X1272887Y729565D1*
X1267117Y732417D1*
X1255643D1*
X1249939Y729565D1*
X1247087Y726713D1*
X1244169Y720943D1*
Y715239D1*
X1247087Y709469D1*
X1252791Y700913D1*
X1281509Y672195D1*
X1241317D1*
X1205546Y732417D2*
X1214168Y729565D1*
X1219938Y720943D1*
X1222790Y706617D1*
Y697995D1*
X1219938Y683669D1*
X1214168Y675047D1*
X1205546Y672195D1*
X1199842D1*
X1191220Y675047D1*
X1185516Y683669D1*
X1182598Y697995D1*
Y706617D1*
X1185516Y720943D1*
X1191220Y729565D1*
X1199842Y732417D1*
X1205546D1*
X1185516Y720943D2*
X1219938Y683669D1*
X1161153Y718091D2*
Y720943D1*
X1158301Y726713D1*
X1155449Y729565D1*
X1149679Y732417D1*
X1138205D1*
X1132501Y729565D1*
X1129649Y726713D1*
X1126731Y720943D1*
Y715239D1*
X1129649Y709469D1*
X1135353Y700913D1*
X1164071Y672195D1*
X1123879D1*
X1070930Y732417D2*
X1099582D1*
X1102433Y706617D1*
X1099582Y709469D1*
X1090960Y712387D1*
X1082404D1*
X1073782Y709469D1*
X1068012Y703765D1*
X1065160Y695143D1*
Y689440D1*
X1068012Y680817D1*
X1073782Y675047D1*
X1082404Y672195D1*
X1090960D1*
X1099582Y675047D1*
X1102433Y677966D1*
X1105352Y683669D1*
X1046633Y702306D2*
X1013471D1*
X977700Y732417D2*
X986322Y729565D1*
X992092Y720943D1*
X994944Y706617D1*
Y697995D1*
X992092Y683669D1*
X986322Y675047D1*
X977700Y672195D1*
X971996D1*
X963374Y675047D1*
X957670Y683669D1*
X954752Y697995D1*
Y706617D1*
X957670Y720943D1*
X963374Y729565D1*
X971996Y732417D1*
X977700D1*
X957670Y720943D2*
X992092Y683669D1*
X930455Y732417D2*
X898951D1*
X916129Y709469D1*
X907507D1*
X901803Y706617D1*
X898951Y703765D1*
X896033Y695143D1*
Y689440D1*
X898951Y680817D1*
X904655Y675047D1*
X913277Y672195D1*
X921899D1*
X930455Y675047D1*
X933306Y677966D1*
X936225Y683669D1*
X877506Y702306D2*
X844344D1*
X808573Y732417D2*
X817195Y729565D1*
X822965Y720943D1*
X825817Y706617D1*
Y697995D1*
X822965Y683669D1*
X817195Y675047D1*
X808573Y672195D1*
X802869D1*
X794247Y675047D1*
X788543Y683669D1*
X785625Y697995D1*
Y706617D1*
X788543Y720943D1*
X794247Y729565D1*
X802869Y732417D1*
X808573D1*
X788543Y720943D2*
X822965Y683669D1*
X767098Y720943D2*
X761328Y723861D1*
X752705Y732417D1*
Y672195D1*
M02*
