G04 DipTrace 3.3.1.3*
G04 TopSilk.gbr*
%MOIN*%
G04 #@! TF.FileFunction,Legend,Top*
G04 #@! TF.Part,Single*
%ADD10C,0.009843*%
%ADD16C,0.005906*%
G04 #@! TA.AperFunction,ComponentDrill*
%ADD68C,0.004632*%
%ADD69C,0.009264*%
%ADD70C,0.006176*%
%FSLAX26Y26*%
G04*
G70*
G90*
G75*
G01*
G04 TopSilk*
%LPD*%
X943176Y2878539D2*
D10*
Y2858861D1*
X685693Y2878539D2*
Y2858861D1*
X412764Y3148021D2*
X1625362D1*
X412764D2*
Y3518411D1*
X1625362Y3148021D2*
Y3518411D1*
X412764Y3518193D2*
X1625362D1*
X1387458Y2717686D2*
X1481198D1*
X1387458Y2955184D2*
X1481198D1*
X1299954Y2717686D2*
Y2955184D1*
X1568703Y2717686D2*
Y2955184D1*
X751838Y899556D2*
Y616091D1*
Y505823D2*
Y395556D1*
X1338483D1*
Y505823D1*
Y616091D2*
Y895587D1*
X1259713D1*
Y962485D1*
X1153391D1*
X843084Y1880643D2*
X826708Y1880715D1*
X843868Y1691586D2*
X826708Y1691693D1*
X825182Y1879929D2*
Y1692443D1*
X1237682Y1879929D2*
Y1817434D1*
Y1754938D2*
Y1692443D1*
Y1879929D2*
X1218913D1*
X1224317Y1849199D2*
X838547D1*
X1224317Y1723209D2*
X838547D1*
Y1849199D2*
Y1723209D1*
X1224317Y1849199D2*
Y1805870D1*
Y1766502D2*
Y1723209D1*
Y1805870D2*
G03X1224317Y1766502I49J-19684D01*
G01*
X1237682Y1692443D2*
X1218913D1*
G36*
X1176017Y2309276D2*
X1188517Y2284276D1*
X1163516D1*
D1*
X1176017Y2309276D1*
G37*
Y2284276D2*
D16*
Y2253027D1*
G36*
X844767Y2309276D2*
X857267Y2284276D1*
X832267D1*
D1*
X844767Y2309276D1*
G37*
Y2284276D2*
D16*
Y2253027D1*
X1190584Y2147331D2*
D68*
X1187732Y2145905D1*
X1184847Y2143020D1*
X1183421Y2140168D1*
Y2134431D1*
X1184847Y2131546D1*
X1187732Y2128694D1*
X1190584Y2127235D1*
X1194895Y2125809D1*
X1202091D1*
X1206369Y2127235D1*
X1209254Y2128694D1*
X1212106Y2131546D1*
X1213565Y2134431D1*
Y2140168D1*
X1212106Y2143020D1*
X1209254Y2145905D1*
X1206369Y2147331D1*
X1189191Y2156595D2*
X1187732Y2159480D1*
X1183454Y2163791D1*
X1213565D1*
X1226191Y1417981D2*
X1223339Y1416555D1*
X1220454Y1413670D1*
X1219028Y1410818D1*
Y1405081D1*
X1220454Y1402196D1*
X1223339Y1399344D1*
X1226191Y1397885D1*
X1230502Y1396459D1*
X1237698D1*
X1241976Y1397885D1*
X1244861Y1399344D1*
X1247713Y1402196D1*
X1249172Y1405081D1*
Y1410818D1*
X1247713Y1413670D1*
X1244861Y1416555D1*
X1241976Y1417981D1*
X1226224Y1428703D2*
X1224799D1*
X1221913Y1430129D1*
X1220487Y1431555D1*
X1219062Y1434440D1*
Y1440177D1*
X1220487Y1443029D1*
X1221913Y1444455D1*
X1224799Y1445914D1*
X1227650D1*
X1230535Y1444455D1*
X1234813Y1441603D1*
X1249172Y1427244D1*
Y1447340D1*
X1126817Y1416266D2*
X1123965Y1414840D1*
X1121080Y1411955D1*
X1119654Y1409103D1*
Y1403366D1*
X1121080Y1400481D1*
X1123965Y1397629D1*
X1126817Y1396170D1*
X1131128Y1394744D1*
X1138324D1*
X1142602Y1396170D1*
X1145487Y1397629D1*
X1148339Y1400481D1*
X1149798Y1403366D1*
Y1409103D1*
X1148339Y1411954D1*
X1145487Y1414840D1*
X1142602Y1416266D1*
X1119688Y1428414D2*
Y1444166D1*
X1131161Y1435577D1*
Y1439888D1*
X1132587Y1442740D1*
X1134013Y1444166D1*
X1138324Y1445625D1*
X1141176D1*
X1145487Y1444166D1*
X1148372Y1441314D1*
X1149798Y1437003D1*
Y1432692D1*
X1148372Y1428414D1*
X1146913Y1426988D1*
X1144061Y1425529D1*
X1177317Y1419057D2*
X1174465Y1417631D1*
X1171580Y1414746D1*
X1170154Y1411894D1*
Y1406157D1*
X1171580Y1403272D1*
X1174465Y1400420D1*
X1177317Y1398961D1*
X1181628Y1397535D1*
X1188824D1*
X1193102Y1398961D1*
X1195987Y1400420D1*
X1198839Y1403272D1*
X1200298Y1406157D1*
Y1411894D1*
X1198839Y1414745D1*
X1195987Y1417631D1*
X1193102Y1419056D1*
X1200298Y1442679D2*
X1170188D1*
X1190250Y1428320D1*
Y1449842D1*
X1124257Y2141515D2*
X1121405Y2140089D1*
X1118520Y2137204D1*
X1117094Y2134352D1*
Y2128615D1*
X1118520Y2125730D1*
X1121405Y2122878D1*
X1124257Y2121419D1*
X1128568Y2119993D1*
X1135764D1*
X1140042Y2121419D1*
X1142927Y2122878D1*
X1145779Y2125730D1*
X1147238Y2128615D1*
Y2134352D1*
X1145779Y2137204D1*
X1142927Y2140089D1*
X1140042Y2141515D1*
X1117127Y2167989D2*
Y2153663D1*
X1130027Y2152238D1*
X1128601Y2153663D1*
X1127142Y2157974D1*
Y2162252D1*
X1128601Y2166563D1*
X1131453Y2169448D1*
X1135764Y2170874D1*
X1138616D1*
X1142927Y2169448D1*
X1145812Y2166563D1*
X1147238Y2162252D1*
Y2157974D1*
X1145812Y2153663D1*
X1144353Y2152237D1*
X1141501Y2150778D1*
X969455Y2882245D2*
Y2852101D1*
X979503D1*
X983814Y2853560D1*
X986699Y2856412D1*
X988125Y2859297D1*
X989551Y2863575D1*
Y2870771D1*
X988125Y2875082D1*
X986699Y2877934D1*
X983814Y2880819D1*
X979503Y2882245D1*
X969455D1*
X998814Y2876475D2*
X1001699Y2877934D1*
X1006010Y2882212D1*
Y2852101D1*
X524271Y2882245D2*
Y2852101D1*
X534319D1*
X538630Y2853560D1*
X541515Y2856412D1*
X542941Y2859297D1*
X544367Y2863575D1*
Y2870771D1*
X542941Y2875082D1*
X541515Y2877934D1*
X538630Y2880819D1*
X534319Y2882245D1*
X524271D1*
X555090Y2875049D2*
Y2876475D1*
X556516Y2879360D1*
X557942Y2880786D1*
X560827Y2882212D1*
X566564D1*
X569416Y2880786D1*
X570842Y2879360D1*
X572301Y2876475D1*
Y2873623D1*
X570842Y2870738D1*
X567990Y2866460D1*
X553631Y2852101D1*
X573727D1*
X1388515Y1587054D2*
X1401415D1*
X1405726Y1588513D1*
X1407185Y1589939D1*
X1408611Y1592791D1*
Y1595676D1*
X1407185Y1598528D1*
X1405726Y1599987D1*
X1401415Y1601413D1*
X1388515D1*
Y1571269D1*
X1398563Y1587054D2*
X1408611Y1571269D1*
X1417875Y1595643D2*
X1420760Y1597102D1*
X1425071Y1601380D1*
Y1571269D1*
X950867Y2924554D2*
X963767D1*
X968078Y2926013D1*
X969537Y2927439D1*
X970963Y2930291D1*
Y2933176D1*
X969537Y2936028D1*
X968078Y2937487D1*
X963767Y2938913D1*
X950867D1*
Y2908769D1*
X960915Y2924554D2*
X970963Y2908769D1*
X981686Y2931717D2*
Y2933143D1*
X983112Y2936028D1*
X984538Y2937454D1*
X987423Y2938880D1*
X993160D1*
X996011Y2937454D1*
X997437Y2936028D1*
X998897Y2933143D1*
Y2930291D1*
X997437Y2927406D1*
X994586Y2923128D1*
X980226Y2908769D1*
X1000322D1*
X1382064Y2187054D2*
X1394964D1*
X1399275Y2188513D1*
X1400734Y2189939D1*
X1402160Y2192791D1*
Y2195676D1*
X1400734Y2198528D1*
X1399275Y2199987D1*
X1394964Y2201413D1*
X1382064D1*
Y2171269D1*
X1392112Y2187054D2*
X1402160Y2171269D1*
X1414308Y2201380D2*
X1430060D1*
X1421471Y2189906D1*
X1425782D1*
X1428634Y2188480D1*
X1430060Y2187054D1*
X1431519Y2182743D1*
Y2179891D1*
X1430060Y2175580D1*
X1427208Y2172695D1*
X1422897Y2171269D1*
X1418586D1*
X1414308Y2172695D1*
X1412882Y2174154D1*
X1411423Y2177006D1*
X1381352Y1380804D2*
X1394252D1*
X1398563Y1382263D1*
X1400022Y1383689D1*
X1401448Y1386541D1*
Y1389426D1*
X1400022Y1392278D1*
X1398563Y1393737D1*
X1394252Y1395163D1*
X1381352D1*
Y1365019D1*
X1391400Y1380804D2*
X1401448Y1365019D1*
X1425071D2*
Y1395130D1*
X1410712Y1375067D1*
X1432234D1*
X524633Y2924556D2*
X537533D1*
X541844Y2926015D1*
X543303Y2927441D1*
X544729Y2930293D1*
Y2933178D1*
X543303Y2936030D1*
X541844Y2937489D1*
X537533Y2938915D1*
X524633D1*
Y2908771D1*
X534681Y2924556D2*
X544729Y2908771D1*
X571204Y2938882D2*
X556878D1*
X555452Y2925982D1*
X556878Y2927408D1*
X561189Y2928867D1*
X565467D1*
X569778Y2927408D1*
X572663Y2924556D1*
X574089Y2920245D1*
Y2917393D1*
X572663Y2913082D1*
X569778Y2910197D1*
X565467Y2908771D1*
X561189D1*
X556878Y2910197D1*
X555452Y2911656D1*
X553993Y2914508D1*
X1387848Y744111D2*
Y757011D1*
X1386389Y761322D1*
X1384963Y762781D1*
X1382111Y764207D1*
X1379226D1*
X1376374Y762781D1*
X1374915Y761322D1*
X1373489Y757011D1*
Y744111D1*
X1403633D1*
X1387848Y754159D2*
X1403633Y764207D1*
X1377800Y790682D2*
X1374948Y789256D1*
X1373522Y784945D1*
Y782093D1*
X1374948Y777782D1*
X1379259Y774897D1*
X1386422Y773471D1*
X1393585D1*
X1399322Y774897D1*
X1402207Y777782D1*
X1403633Y782093D1*
Y783519D1*
X1402207Y787797D1*
X1399322Y790682D1*
X1395011Y792108D1*
X1393585D1*
X1389274Y790682D1*
X1386422Y787797D1*
X1384996Y783519D1*
Y782093D1*
X1386422Y777782D1*
X1389274Y774897D1*
X1393585Y773471D1*
X784589Y1101669D2*
Y1114569D1*
X783130Y1118880D1*
X781704Y1120339D1*
X778853Y1121765D1*
X775967D1*
X773116Y1120339D1*
X771656Y1118880D1*
X770230Y1114569D1*
Y1101669D1*
X800374D1*
X784589Y1111717D2*
X800374Y1121765D1*
Y1136766D2*
X770264Y1151125D1*
Y1131029D1*
X1087848Y1105898D2*
Y1118798D1*
X1086389Y1123109D1*
X1084963Y1124568D1*
X1082111Y1125994D1*
X1079226D1*
X1076374Y1124568D1*
X1074915Y1123109D1*
X1073489Y1118798D1*
Y1105898D1*
X1103633D1*
X1087848Y1115946D2*
X1103633Y1125994D1*
X1073522Y1142421D2*
X1074948Y1138143D1*
X1077800Y1136684D1*
X1080685D1*
X1083537Y1138143D1*
X1084996Y1140995D1*
X1086422Y1146732D1*
X1087848Y1151043D1*
X1090733Y1153895D1*
X1093585Y1155321D1*
X1097896D1*
X1100748Y1153895D1*
X1102207Y1152469D1*
X1103633Y1148158D1*
Y1142421D1*
X1102207Y1138143D1*
X1100748Y1136684D1*
X1097896Y1135258D1*
X1093585D1*
X1090733Y1136684D1*
X1087848Y1139569D1*
X1086422Y1143847D1*
X1084996Y1149584D1*
X1083537Y1152469D1*
X1080685Y1153895D1*
X1077800D1*
X1074948Y1152469D1*
X1073522Y1148158D1*
Y1142421D1*
X519651Y2705099D2*
X532551D1*
X536862Y2706558D1*
X538321Y2707984D1*
X539747Y2710836D1*
Y2713721D1*
X538321Y2716573D1*
X536862Y2718032D1*
X532551Y2719458D1*
X519651D1*
Y2689314D1*
X529699Y2705099D2*
X539747Y2689314D1*
X567680Y2709410D2*
X566221Y2705099D1*
X563369Y2702214D1*
X559058Y2700788D1*
X557632D1*
X553321Y2702214D1*
X550469Y2705099D1*
X549010Y2709410D1*
Y2710836D1*
X550469Y2715147D1*
X553321Y2717999D1*
X557632Y2719425D1*
X559058D1*
X563369Y2717999D1*
X566221Y2715147D1*
X567680Y2709410D1*
Y2702214D1*
X566221Y2695051D1*
X563369Y2690740D1*
X559058Y2689314D1*
X556206D1*
X551895Y2690740D1*
X550469Y2693625D1*
X875886Y2107295D2*
Y2120195D1*
X874427Y2124506D1*
X873001Y2125965D1*
X870149Y2127391D1*
X867264D1*
X864412Y2125965D1*
X862953Y2124506D1*
X861527Y2120195D1*
Y2107295D1*
X891671D1*
X875886Y2117343D2*
X891671Y2127391D1*
X867297Y2136655D2*
X865838Y2139540D1*
X861560Y2143851D1*
X891671D1*
X861560Y2161736D2*
X862986Y2157425D1*
X867297Y2154540D1*
X874460Y2153114D1*
X878771D1*
X885934Y2154540D1*
X890245Y2157425D1*
X891671Y2161736D1*
Y2164588D1*
X890245Y2168899D1*
X885934Y2171751D1*
X878771Y2173210D1*
X874460D1*
X867297Y2171751D1*
X862986Y2168899D1*
X861560Y2164588D1*
Y2161736D1*
X867297Y2171751D2*
X885934Y2154540D1*
X823785Y2115273D2*
Y2128172D1*
X822326Y2132483D1*
X820900Y2133943D1*
X818048Y2135369D1*
X815163D1*
X812311Y2133943D1*
X810852Y2132483D1*
X809426Y2128172D1*
Y2115273D1*
X839570D1*
X823785Y2125321D2*
X839570Y2135368D1*
X815196Y2144632D2*
X813737Y2147517D1*
X809459Y2151828D1*
X839570D1*
X815196Y2161092D2*
X813737Y2163977D1*
X809459Y2168288D1*
X839570D1*
X773235Y2113778D2*
Y2126678D1*
X771776Y2130989D1*
X770350Y2132448D1*
X767498Y2133874D1*
X764613D1*
X761761Y2132448D1*
X760302Y2130989D1*
X758876Y2126678D1*
Y2113778D1*
X789020D1*
X773235Y2123826D2*
X789020Y2133874D1*
X764646Y2143137D2*
X763187Y2146023D1*
X758909Y2150334D1*
X789020Y2150333D1*
X766072Y2161056D2*
X764646D1*
X761761Y2162482D1*
X760335Y2163908D1*
X758909Y2166793D1*
Y2172530D1*
X760335Y2175382D1*
X761761Y2176808D1*
X764646Y2178267D1*
X767498D1*
X770383Y2176808D1*
X774661Y2173956D1*
X789020Y2159597D1*
Y2179693D1*
X1023937Y1041509D2*
X1021085Y1044394D1*
X1016774Y1045820D1*
X1011037D1*
X1006726Y1044394D1*
X1003841Y1041509D1*
Y1038657D1*
X1005300Y1035772D1*
X1006726Y1034346D1*
X1009578Y1032920D1*
X1018200Y1030035D1*
X1021085Y1028609D1*
X1022511Y1027150D1*
X1023937Y1024298D1*
Y1019987D1*
X1021085Y1017135D1*
X1016774Y1015676D1*
X1011037D1*
X1006726Y1017135D1*
X1003841Y1019987D1*
X1033200Y1045820D2*
Y1015676D1*
X1043248D1*
X1047559Y1017135D1*
X1050444Y1019987D1*
X1051870Y1022872D1*
X1053296Y1027150D1*
Y1034346D1*
X1051870Y1038657D1*
X1050444Y1041509D1*
X1047559Y1044394D1*
X1043248Y1045820D1*
X1033200D1*
X1062560Y1040050D2*
X1065445Y1041509D1*
X1069756Y1045787D1*
Y1015676D1*
X1247857Y1761476D2*
X1269379D1*
X1273690Y1762902D1*
X1276542Y1765787D1*
X1278001Y1770098D1*
Y1772950D1*
X1276542Y1777261D1*
X1273690Y1780146D1*
X1269379Y1781572D1*
X1247857D1*
X1255053Y1792295D2*
X1253627D1*
X1250742Y1793721D1*
X1249316Y1795147D1*
X1247890Y1798032D1*
Y1803769D1*
X1249316Y1806621D1*
X1250742Y1808047D1*
X1253627Y1809506D1*
X1256479D1*
X1259364Y1808047D1*
X1263642Y1805195D1*
X1278001Y1790836D1*
Y1810932D1*
X553115Y3031069D2*
D69*
Y2970781D1*
X578981D1*
X587603Y2973699D1*
X590455Y2976551D1*
X593307Y2982255D1*
Y2990877D1*
X590455Y2996647D1*
X587603Y2999499D1*
X578981Y3002351D1*
X587603Y3005269D1*
X590455Y3008121D1*
X593307Y3013825D1*
Y3019595D1*
X590455Y3025299D1*
X587603Y3028217D1*
X578981Y3031069D1*
X553115D1*
Y3002351D2*
X578981D1*
X611834Y3031069D2*
Y2988025D1*
X614686Y2979403D1*
X620456Y2973699D1*
X629078Y2970781D1*
X634782D1*
X643404Y2973699D1*
X649174Y2979403D1*
X652026Y2988025D1*
Y3031069D1*
X710745Y3022447D2*
X705041Y3028217D1*
X696419Y3031069D1*
X684945D1*
X676323Y3028217D1*
X670553Y3022447D1*
Y3016743D1*
X673471Y3010973D1*
X676323Y3008121D1*
X682027Y3005269D1*
X699271Y2999499D1*
X705041Y2996647D1*
X707893Y2993729D1*
X710745Y2988025D1*
Y2979403D1*
X705041Y2973699D1*
X696419Y2970781D1*
X684945D1*
X676323Y2973699D1*
X670553Y2979403D1*
X810597Y3031069D2*
X824989Y2970781D1*
X839315Y3031069D1*
X853640Y2970781D1*
X868033Y3031069D1*
X886560D2*
Y2970781D1*
X942427Y3031069D2*
X905087D1*
Y2970781D1*
Y3002351D2*
X928035D1*
X960954Y3031069D2*
Y2970781D1*
X559364Y2818569D2*
Y2758281D1*
X593786D1*
X649587Y2818569D2*
X612313D1*
Y2758281D1*
X649587D1*
X612313Y2789851D2*
X635261D1*
X668114Y2818569D2*
Y2758281D1*
X688210D1*
X696832Y2761199D1*
X702602Y2766903D1*
X705454Y2772673D1*
X708306Y2781229D1*
Y2795621D1*
X705454Y2804243D1*
X702602Y2809947D1*
X696832Y2815717D1*
X688210Y2818569D1*
X668114D1*
X816846Y2812318D2*
Y2752030D1*
X851268D1*
X907069Y2812318D2*
X869795D1*
Y2752030D1*
X907069D1*
X869795Y2783600D2*
X892743D1*
X925596Y2812318D2*
Y2752030D1*
X945692D1*
X954314Y2754948D1*
X960084Y2760652D1*
X962936Y2766422D1*
X965788Y2774978D1*
Y2789370D1*
X962936Y2797992D1*
X960084Y2803696D1*
X954314Y2809466D1*
X945692Y2812318D1*
X925596D1*
X1368306Y3072447D2*
X1362602Y3078217D1*
X1353980Y3081069D1*
X1342506D1*
X1333884Y3078217D1*
X1328114Y3072447D1*
Y3066743D1*
X1331032Y3060973D1*
X1333884Y3058121D1*
X1339588Y3055269D1*
X1356832Y3049499D1*
X1362602Y3046647D1*
X1365454Y3043729D1*
X1368306Y3038025D1*
Y3029403D1*
X1362602Y3023699D1*
X1353980Y3020781D1*
X1342506D1*
X1333884Y3023699D1*
X1328114Y3029403D1*
X1432795Y3020781D2*
X1409781Y3081069D1*
X1386833Y3020781D1*
X1395455Y3040877D2*
X1424173D1*
X1488662Y3081069D2*
X1451322D1*
Y3020781D1*
Y3052351D2*
X1474270D1*
X1544463Y3081069D2*
X1507189D1*
Y3020781D1*
X1544463D1*
X1507189Y3052351D2*
X1530137D1*
X1303114Y2627351D2*
X1328913D1*
X1337535Y2630269D1*
X1340454Y2633121D1*
X1343306Y2638825D1*
Y2644595D1*
X1340454Y2650299D1*
X1337535Y2653217D1*
X1328913Y2656069D1*
X1303114D1*
Y2595781D1*
X1323210Y2627351D2*
X1343306Y2595781D1*
X1399106Y2656069D2*
X1361833D1*
Y2595781D1*
X1399106D1*
X1361833Y2627351D2*
X1384781D1*
X1457826Y2647447D2*
X1452122Y2653217D1*
X1443500Y2656069D1*
X1432026D1*
X1423404Y2653217D1*
X1417634Y2647447D1*
Y2641743D1*
X1420552Y2635973D1*
X1423404Y2633121D1*
X1429108Y2630269D1*
X1446352Y2624499D1*
X1452122Y2621647D1*
X1454974Y2618729D1*
X1457826Y2613025D1*
Y2604403D1*
X1452122Y2598699D1*
X1443500Y2595781D1*
X1432026D1*
X1423404Y2598699D1*
X1417634Y2604403D1*
X1513626Y2656069D2*
X1476353D1*
Y2595781D1*
X1513626D1*
X1476353Y2627351D2*
X1499301D1*
X1552250Y2656069D2*
Y2595781D1*
X1532154Y2656069D2*
X1572346D1*
X795284Y3472430D2*
Y3412142D1*
X815380D1*
X824002Y3415060D1*
X829772Y3420764D1*
X832624Y3426534D1*
X835476Y3435090D1*
Y3449482D1*
X832624Y3458104D1*
X829772Y3463808D1*
X824002Y3469578D1*
X815380Y3472430D1*
X795284D1*
X854003D2*
Y3412142D1*
X879869D1*
X888492Y3415060D1*
X891343Y3417912D1*
X894195Y3423616D1*
Y3432238D1*
X891343Y3438008D1*
X888492Y3440860D1*
X879869Y3443712D1*
X888492Y3446630D1*
X891343Y3449482D1*
X894195Y3455186D1*
Y3460956D1*
X891343Y3466659D1*
X888492Y3469578D1*
X879869Y3472430D1*
X854003D1*
Y3443712D2*
X879869D1*
X912722Y3442252D2*
X945884D1*
X1001751Y3452334D2*
X998833Y3443712D1*
X993129Y3437941D1*
X984507Y3435090D1*
X981655D1*
X973033Y3437941D1*
X967329Y3443712D1*
X964411Y3452334D1*
Y3455186D1*
X967329Y3463808D1*
X973033Y3469511D1*
X981655Y3472363D1*
X984507D1*
X993129Y3469511D1*
X998833Y3463808D1*
X1001751Y3452334D1*
Y3437941D1*
X998833Y3423616D1*
X993129Y3414994D1*
X984507Y3412142D1*
X978803D1*
X970181Y3414994D1*
X967329Y3420764D1*
X1057619Y3472430D2*
X1020278D1*
Y3412142D1*
Y3443712D2*
X1043226D1*
X1076146Y3442252D2*
X1109307D1*
X1127834Y3443712D2*
X1153634D1*
X1162256Y3446630D1*
X1165175Y3449482D1*
X1168026Y3455186D1*
Y3460956D1*
X1165175Y3466659D1*
X1162256Y3469578D1*
X1153634Y3472430D1*
X1127834D1*
Y3412142D1*
X1147930Y3443712D2*
X1168026Y3412142D1*
X1232516D2*
X1209501Y3472430D1*
X1186554Y3412142D1*
X1195176Y3432238D2*
X1223894D1*
X889968Y1806603D2*
D70*
Y1766411D1*
X876571Y1806603D2*
X903366D1*
X915717Y1787457D2*
X932917D1*
X938665Y1789403D1*
X940610Y1791304D1*
X942512Y1795107D1*
Y1798954D1*
X940610Y1802756D1*
X938665Y1804702D1*
X932917Y1806603D1*
X915717D1*
Y1766411D1*
X929114Y1787457D2*
X942512Y1766411D1*
X981658Y1800855D2*
X977855Y1804702D1*
X972107Y1806603D1*
X964458D1*
X958710Y1804702D1*
X954863Y1800855D1*
Y1797052D1*
X956809Y1793206D1*
X958710Y1791304D1*
X962512Y1789403D1*
X974009Y1785556D1*
X977855Y1783655D1*
X979757Y1781709D1*
X981658Y1777907D1*
Y1772159D1*
X977855Y1768356D1*
X972107Y1766411D1*
X964458D1*
X958710Y1768356D1*
X954863Y1772159D1*
X997856Y1806559D2*
X1018858D1*
X1007407Y1791260D1*
X1013155D1*
X1016957Y1789359D1*
X1018858Y1787457D1*
X1020804Y1781709D1*
Y1777907D1*
X1018858Y1772159D1*
X1015056Y1768312D1*
X1009308Y1766411D1*
X1003560D1*
X997856Y1768312D1*
X995955Y1770258D1*
X994009Y1774060D1*
X1035101Y1797008D2*
Y1798909D1*
X1037002Y1802756D1*
X1038903Y1804657D1*
X1042750Y1806559D1*
X1050399D1*
X1054202Y1804657D1*
X1056103Y1802756D1*
X1058049Y1798909D1*
Y1795107D1*
X1056103Y1791260D1*
X1052301Y1785556D1*
X1033155Y1766411D1*
X1059950D1*
X1076148Y1806559D2*
X1097151D1*
X1085699Y1791260D1*
X1091447D1*
X1095249Y1789359D1*
X1097151Y1787457D1*
X1099096Y1781709D1*
Y1777907D1*
X1097151Y1772159D1*
X1093348Y1768312D1*
X1087600Y1766411D1*
X1081852D1*
X1076148Y1768312D1*
X1074247Y1770258D1*
X1072301Y1774060D1*
X1120998Y1806559D2*
X1115294Y1804657D1*
X1113349Y1800855D1*
Y1797008D1*
X1115294Y1793206D1*
X1119097Y1791260D1*
X1126746Y1789359D1*
X1132494Y1787457D1*
X1136297Y1783611D1*
X1138198Y1779808D1*
Y1774060D1*
X1136297Y1770258D1*
X1134395Y1768312D1*
X1128647Y1766411D1*
X1120998D1*
X1115294Y1768312D1*
X1113349Y1770258D1*
X1111447Y1774060D1*
Y1779808D1*
X1113349Y1783611D1*
X1117195Y1787457D1*
X1122899Y1789359D1*
X1130549Y1791260D1*
X1134395Y1793206D1*
X1136297Y1797008D1*
Y1800855D1*
X1134395Y1804657D1*
X1128647Y1806559D1*
X1120998D1*
X1175398Y1806603D2*
X1150549D1*
Y1766411D1*
X1175398D1*
X1150549Y1787457D2*
X1165848D1*
X832865Y3589444D2*
Y3558847D1*
X830963Y3553099D1*
X829018Y3551198D1*
X825215Y3549252D1*
X821369D1*
X817566Y3551198D1*
X815665Y3553099D1*
X813719Y3558847D1*
Y3562649D1*
X845216Y3589444D2*
Y3549252D1*
X868164D1*
X909211Y3579893D2*
X907310Y3583696D1*
X903463Y3587543D1*
X899661Y3589444D1*
X892011D1*
X888165Y3587543D1*
X884362Y3583696D1*
X882417Y3579893D1*
X880515Y3574145D1*
Y3564551D1*
X882417Y3558847D1*
X884362Y3555000D1*
X888165Y3551198D1*
X892011Y3549252D1*
X899661D1*
X903463Y3551198D1*
X907310Y3555000D1*
X909211Y3558847D1*
X940708Y3589444D2*
Y3558847D1*
X938807Y3553099D1*
X936861Y3551198D1*
X933059Y3549252D1*
X929212D1*
X925409Y3551198D1*
X923508Y3553099D1*
X921563Y3558847D1*
Y3562649D1*
X953059Y3589444D2*
Y3549252D1*
X976007D1*
X1017055Y3579893D2*
X1015153Y3583696D1*
X1011307Y3587543D1*
X1007504Y3589444D1*
X999855D1*
X996008Y3587543D1*
X992206Y3583696D1*
X990260Y3579893D1*
X988359Y3574145D1*
Y3564551D1*
X990260Y3558847D1*
X992206Y3555000D1*
X996008Y3551198D1*
X999855Y3549252D1*
X1007504D1*
X1011307Y3551198D1*
X1015153Y3555000D1*
X1017055Y3558847D1*
X1048551Y3589444D2*
Y3558847D1*
X1046650Y3553099D1*
X1044705Y3551198D1*
X1040902Y3549252D1*
X1037055D1*
X1033253Y3551198D1*
X1031352Y3553099D1*
X1029406Y3558847D1*
Y3562649D1*
X1060903Y3589444D2*
Y3549252D1*
X1083851D1*
X1124898Y3579893D2*
X1122997Y3583696D1*
X1119150Y3587543D1*
X1115348Y3589444D1*
X1107698D1*
X1103851Y3587543D1*
X1100049Y3583696D1*
X1098103Y3579893D1*
X1096202Y3574145D1*
Y3564551D1*
X1098103Y3558847D1*
X1100049Y3555000D1*
X1103851Y3551198D1*
X1107698Y3549252D1*
X1115348D1*
X1119150Y3551198D1*
X1122997Y3555000D1*
X1124898Y3558847D1*
X1156395Y3589444D2*
Y3558847D1*
X1154494Y3553099D1*
X1152548Y3551198D1*
X1148746Y3549252D1*
X1144899D1*
X1141096Y3551198D1*
X1139195Y3553099D1*
X1137250Y3558847D1*
Y3562649D1*
X1168746Y3589444D2*
Y3549252D1*
X1191694D1*
X1232742Y3579893D2*
X1230840Y3583696D1*
X1226994Y3587543D1*
X1223191Y3589444D1*
X1215542D1*
X1211695Y3587543D1*
X1207892Y3583696D1*
X1205947Y3579893D1*
X1204046Y3574145D1*
Y3564551D1*
X1205947Y3558847D1*
X1207892Y3555000D1*
X1211695Y3551198D1*
X1215542Y3549252D1*
X1223191D1*
X1226994Y3551198D1*
X1230840Y3555000D1*
X1232742Y3558847D1*
X611634Y1092743D2*
D69*
Y1055470D1*
X671922D1*
Y1092743D1*
X640352Y1055470D2*
Y1078418D1*
X620256Y1151462D2*
X614486Y1145759D1*
X611634Y1137137D1*
Y1125663D1*
X614486Y1117041D1*
X620256Y1111271D1*
X625960D1*
X631730Y1114189D1*
X634582Y1117041D1*
X637434Y1122744D1*
X643204Y1139989D1*
X646056Y1145759D1*
X648974Y1148611D1*
X654678Y1151462D1*
X663300D1*
X669004Y1145759D1*
X671922Y1137137D1*
Y1125663D1*
X669004Y1117041D1*
X663300Y1111270D1*
X643204Y1169990D2*
Y1195856D1*
X640352Y1204411D1*
X637434Y1207330D1*
X631730Y1210182D1*
X623108D1*
X617404Y1207330D1*
X614486Y1204411D1*
X611634Y1195856D1*
Y1169990D1*
X671922D1*
X611700Y1234479D2*
Y1265982D1*
X634648Y1248805D1*
Y1257427D1*
X637500Y1263131D1*
X640352Y1265982D1*
X648974Y1268901D1*
X654678D1*
X663300Y1265982D1*
X669070Y1260279D1*
X671922Y1251657D1*
Y1243035D1*
X669070Y1234479D1*
X666152Y1231627D1*
X660448Y1228709D1*
X626026Y1290346D2*
X623174D1*
X617404Y1293198D1*
X614552Y1296050D1*
X611700Y1301820D1*
Y1313294D1*
X614552Y1318998D1*
X617404Y1321850D1*
X623174Y1324768D1*
X628878D1*
X634648Y1321850D1*
X643204Y1316146D1*
X671922Y1287428D1*
Y1327620D1*
X641811Y1346147D2*
Y1379309D1*
X611634Y1397836D2*
X671922D1*
Y1417932D1*
X669004Y1426554D1*
X663300Y1432324D1*
X657530Y1435176D1*
X648974Y1438028D1*
X634582D1*
X625960Y1435176D1*
X620256Y1432324D1*
X614486Y1426554D1*
X611634Y1417932D1*
Y1397836D1*
Y1493829D2*
Y1456555D1*
X671922D1*
Y1493829D1*
X640352Y1456555D2*
Y1479503D1*
X611634Y1512356D2*
X671922Y1535304D1*
X611634Y1558251D1*
Y1576779D2*
X671922D1*
X611634Y1616971D2*
X651826Y1576779D1*
X637434Y1591104D2*
X671922Y1616971D1*
X611634Y1635498D2*
X671922D1*
X611634Y1674121D2*
X671922D1*
X611634Y1654025D2*
Y1694217D1*
X625960Y1755788D2*
X620256Y1752936D1*
X614486Y1747166D1*
X611634Y1741462D1*
Y1729988D1*
X614486Y1724218D1*
X620256Y1718514D1*
X625960Y1715596D1*
X634582Y1712744D1*
X648974D1*
X657530Y1715596D1*
X663300Y1718514D1*
X669004Y1724218D1*
X671922Y1729988D1*
Y1741462D1*
X669004Y1747166D1*
X663300Y1752936D1*
X657530Y1755788D1*
X641811Y1774315D2*
Y1807477D1*
X611634Y1826004D2*
X671922Y1848952D1*
X611634Y1871899D1*
Y1927700D2*
Y1890427D1*
X671922D1*
Y1927700D1*
X640352Y1890427D2*
Y1913374D1*
X907989Y2262075D2*
D70*
X892647Y2302267D1*
X877348Y2262075D1*
X883096Y2275472D2*
X902241D1*
X947135Y2302267D2*
Y2262075D1*
X920341Y2302267D1*
Y2262075D1*
X972884Y2302267D2*
Y2262075D1*
X959487Y2302267D2*
X986281D1*
X1023482D2*
X998633D1*
Y2262075D1*
X1023482D1*
X998633Y2283122D2*
X1013931D1*
X1062628Y2302267D2*
Y2262075D1*
X1035833Y2302267D1*
Y2262075D1*
X1101774Y2302267D2*
Y2262075D1*
X1074980Y2302267D1*
Y2262075D1*
X1144767D2*
X1129424Y2302267D1*
X1114126Y2262075D1*
X1119874Y2275472D2*
X1139019D1*
M02*
