G04 DipTrace 3.3.1.3*
G04 TopSilk.gbr*
%MOIN*%
G04 #@! TF.FileFunction,Legend,Top*
G04 #@! TF.Part,Single*
%ADD10C,0.009843*%
%ADD12C,0.003*%
%ADD18C,0.003937*%
%ADD19O,0.032613X0.032485*%
%ADD20C,0.032568*%
%ADD35C,0.004632*%
%ADD36C,0.006176*%
%FSLAX26Y26*%
G04*
G70*
G90*
G75*
G01*
G04 TopSilk*
%LPD*%
X1943719Y543651D2*
D10*
X1919019D1*
Y643751D2*
Y543651D1*
X1943719Y643751D2*
X1919019D1*
X668419Y543651D2*
X643719D1*
X668419Y643751D2*
Y543651D1*
Y643751D2*
X643719D1*
Y768701D2*
Y418701D1*
X1943719Y768701D2*
Y418701D1*
Y768701D2*
X643719D1*
X1374319Y448801D2*
Y418701D1*
Y448801D2*
X1213119D1*
Y418701D1*
X1943719D2*
X1374319D1*
X1213119D2*
X643719D1*
X1281309Y829403D2*
D18*
X1260020Y829542D1*
X1357723Y797168D2*
X1271434D1*
X1344315Y789296D2*
Y876620D1*
X1312971Y767205D2*
Y807534D1*
X1281082Y789449D2*
Y905792D1*
X1318859Y892183D2*
X1238459D1*
X1312835Y844828D2*
X1312971Y900138D1*
X1248243Y874970D2*
Y905792D1*
X1257710Y861098D2*
X1353012D1*
X1379283Y829375D2*
X1344542Y829251D1*
D19*
X1344995Y829389D3*
D20*
X1281196Y829500D3*
X1313038Y797043D3*
X1281286Y861791D3*
X1299291Y829202D2*
D18*
X1299325Y830187D1*
X1299426Y831167D1*
X1299594Y832137D1*
X1299828Y833093D1*
X1300127Y834030D1*
X1300490Y834943D1*
X1300914Y835829D1*
X1301397Y836682D1*
X1301938Y837499D1*
X1302534Y838275D1*
X1303181Y839007D1*
X1303877Y839692D1*
X1304618Y840325D1*
X1305401Y840904D1*
X1306221Y841426D1*
X1307076Y841889D1*
X1307960Y842289D1*
X1308869Y842626D1*
X1309799Y842898D1*
X1310745Y843103D1*
X1311703Y843240D1*
X1312668Y843309D1*
X1313635D1*
X1314601Y843240D1*
X1315559Y843103D1*
X1316505Y842898D1*
X1317435Y842626D1*
X1318344Y842289D1*
X1319228Y841889D1*
X1320082Y841426D1*
X1320902Y840904D1*
X1321685Y840325D1*
X1322426Y839692D1*
X1323122Y839007D1*
X1323769Y838275D1*
X1324365Y837499D1*
X1324906Y836682D1*
X1325390Y835829D1*
X1325814Y834943D1*
X1326176Y834030D1*
X1326475Y833093D1*
X1326709Y832137D1*
X1326877Y831167D1*
X1326978Y830187D1*
X1327012Y829202D1*
X1326978Y828217D1*
X1326877Y827238D1*
X1326709Y826267D1*
X1326475Y825311D1*
X1326176Y824374D1*
X1325814Y823461D1*
X1325390Y822575D1*
X1324906Y821722D1*
X1324365Y820905D1*
X1323769Y820129D1*
X1323122Y819397D1*
X1322426Y818713D1*
X1321685Y818079D1*
X1320902Y817500D1*
X1320082Y816978D1*
X1319228Y816516D1*
X1318344Y816115D1*
X1317435Y815778D1*
X1316505Y815506D1*
X1315559Y815301D1*
X1314601Y815164D1*
X1313635Y815096D1*
X1312668D1*
X1311703Y815164D1*
X1310745Y815301D1*
X1309799Y815506D1*
X1308869Y815778D1*
X1307960Y816115D1*
X1307076Y816516D1*
X1306221Y816978D1*
X1305401Y817500D1*
X1304618Y818079D1*
X1303877Y818713D1*
X1303181Y819397D1*
X1302534Y820129D1*
X1301938Y820905D1*
X1301397Y821722D1*
X1300914Y822575D1*
X1300490Y823461D1*
X1300127Y824374D1*
X1299828Y825311D1*
X1299594Y826267D1*
X1299426Y827238D1*
X1299325Y828217D1*
X1299291Y829202D1*
X1374482Y823028D2*
Y839977D1*
X1109099Y869410D2*
D12*
X1118099D1*
X1140599D2*
X1173599D1*
X1233599D2*
X1242599D1*
X1109099Y867910D2*
X1118099D1*
X1140599D2*
X1173599D1*
X1188599D2*
X1190099D1*
X1233599D2*
X1242599D1*
X1109099Y866410D2*
X1118099D1*
X1140599D2*
X1173599D1*
X1188599D2*
X1191605D1*
X1233599D2*
X1242599D1*
X1109099Y864910D2*
X1118099D1*
X1140599D2*
X1173599D1*
X1188599D2*
X1193158D1*
X1233599D2*
X1242599D1*
X1109099Y863410D2*
X1118099D1*
X1140599D2*
X1173599D1*
X1188599D2*
X1194849D1*
X1233599D2*
X1242599D1*
X1109099Y861910D2*
X1118099D1*
X1140599D2*
X1173599D1*
X1188599D2*
X1196708D1*
X1233599D2*
X1242599D1*
X1109099Y860410D2*
X1118099D1*
X1164599D2*
X1173599D1*
X1188599D2*
X1198593D1*
X1233599D2*
X1242599D1*
X1109099Y858910D2*
X1118099D1*
X1164599D2*
X1173599D1*
X1188599D2*
X1200354D1*
X1233599D2*
X1242599D1*
X1109099Y857410D2*
X1118099D1*
X1164599D2*
X1173599D1*
X1188599D2*
X1201993D1*
X1233599D2*
X1242599D1*
X1109099Y855910D2*
X1118099D1*
X1164599D2*
X1173599D1*
X1188599D2*
X1203557D1*
X1233599D2*
X1242599D1*
X1109099Y854410D2*
X1118099D1*
X1164599D2*
X1173599D1*
X1188599D2*
X1205083D1*
X1233599D2*
X1242599D1*
X1109099Y852910D2*
X1118099D1*
X1164599D2*
X1173599D1*
X1188599D2*
X1206593D1*
X1233599D2*
X1242599D1*
X1109099Y851410D2*
X1118099D1*
X1164599D2*
X1173599D1*
X1188599D2*
X1208103D1*
X1233599D2*
X1242599D1*
X1109099Y849910D2*
X1118099D1*
X1164599D2*
X1173599D1*
X1188599D2*
X1209657D1*
X1233599D2*
X1242599D1*
X1109099Y848410D2*
X1118099D1*
X1164599D2*
X1173599D1*
X1188599D2*
X1196099D1*
X1200599D2*
X1211349D1*
X1233599D2*
X1242599D1*
X1109099Y846910D2*
X1118099D1*
X1164599D2*
X1173599D1*
X1188599D2*
X1196099D1*
X1202099D2*
X1213208D1*
X1233599D2*
X1242599D1*
X1109099Y845410D2*
X1118099D1*
X1164599D2*
X1173599D1*
X1188599D2*
X1196099D1*
X1203599D2*
X1215093D1*
X1233599D2*
X1242599D1*
X1109099Y843910D2*
X1118099D1*
X1164599D2*
X1173599D1*
X1188599D2*
X1196099D1*
X1205099D2*
X1216854D1*
X1233599D2*
X1242599D1*
X1109099Y842410D2*
X1118099D1*
X1164599D2*
X1173599D1*
X1188599D2*
X1196099D1*
X1206599D2*
X1218493D1*
X1233599D2*
X1242599D1*
X1109099Y840910D2*
X1118099D1*
X1140599D2*
X1173599D1*
X1188599D2*
X1196099D1*
X1208099D2*
X1220057D1*
X1233599D2*
X1242599D1*
X1109099Y839410D2*
X1118099D1*
X1140599D2*
X1173599D1*
X1188599D2*
X1196099D1*
X1209599D2*
X1221583D1*
X1233599D2*
X1242599D1*
X1109099Y837910D2*
X1118099D1*
X1140599D2*
X1173599D1*
X1188599D2*
X1196099D1*
X1211099D2*
X1223093D1*
X1233599D2*
X1242599D1*
X1109099Y836410D2*
X1118099D1*
X1140599D2*
X1173599D1*
X1188599D2*
X1196099D1*
X1212599D2*
X1224597D1*
X1233599D2*
X1242599D1*
X1109099Y834910D2*
X1118099D1*
X1140599D2*
X1173599D1*
X1188599D2*
X1196099D1*
X1214099D2*
X1226104D1*
X1233593D2*
X1242599D1*
X1109099Y833410D2*
X1118099D1*
X1140599D2*
X1173599D1*
X1188599D2*
X1196099D1*
X1215599D2*
X1227662D1*
X1233536D2*
X1242599D1*
X1109099Y831910D2*
X1118099D1*
X1164599D2*
X1173599D1*
X1188599D2*
X1196099D1*
X1217099D2*
X1229394D1*
X1233304D2*
X1242599D1*
X1109099Y830410D2*
X1118099D1*
X1164599D2*
X1173599D1*
X1188599D2*
X1196099D1*
X1218599D2*
X1231407D1*
X1232791D2*
X1242599D1*
X1109099Y828910D2*
X1118099D1*
X1164599D2*
X1173599D1*
X1188599D2*
X1196099D1*
X1220099D2*
X1242599D1*
X1109099Y827410D2*
X1118099D1*
X1164599D2*
X1173599D1*
X1188599D2*
X1196099D1*
X1221599D2*
X1242599D1*
X1109099Y825910D2*
X1118099D1*
X1164599D2*
X1173599D1*
X1188599D2*
X1196099D1*
X1223105D2*
X1242599D1*
X1109099Y824410D2*
X1118099D1*
X1164599D2*
X1173599D1*
X1188599D2*
X1196099D1*
X1224658D2*
X1242599D1*
X1109099Y822910D2*
X1118099D1*
X1164599D2*
X1173599D1*
X1188599D2*
X1196099D1*
X1226349D2*
X1242599D1*
X1109099Y821410D2*
X1118099D1*
X1164599D2*
X1173599D1*
X1188599D2*
X1196099D1*
X1228208D2*
X1242599D1*
X1109099Y819910D2*
X1118099D1*
X1164599D2*
X1173599D1*
X1188599D2*
X1196099D1*
X1230093D2*
X1242599D1*
X1109099Y818410D2*
X1118099D1*
X1164599D2*
X1173599D1*
X1188599D2*
X1196099D1*
X1231854D2*
X1242599D1*
X1094099Y816910D2*
X1134599D1*
X1140599D2*
X1173599D1*
X1188599D2*
X1196099D1*
X1233493D2*
X1242599D1*
X1094099Y815410D2*
X1134599D1*
X1140599D2*
X1173599D1*
X1188599D2*
X1196099D1*
X1235057D2*
X1242599D1*
X1094099Y813910D2*
X1134599D1*
X1140599D2*
X1173599D1*
X1188599D2*
X1196099D1*
X1236583D2*
X1242599D1*
X1094099Y812410D2*
X1134599D1*
X1140599D2*
X1173599D1*
X1188599D2*
X1196099D1*
X1238093D2*
X1242599D1*
X1094099Y810910D2*
X1134599D1*
X1140599D2*
X1173599D1*
X1188599D2*
X1196099D1*
X1239597D2*
X1242599D1*
X1094099Y809410D2*
X1134599D1*
X1140599D2*
X1173599D1*
X1188599D2*
X1196099D1*
X1241099D2*
X1242599D1*
X1384429Y872071D2*
X1393429D1*
X1414429D2*
X1424929D1*
X1456429D2*
X1472929D1*
X1525429D2*
X1534429D1*
X1384429Y870571D2*
X1393429D1*
X1412293D2*
X1427565D1*
X1453031D2*
X1476326D1*
X1525429D2*
X1534429D1*
X1384429Y869071D2*
X1393429D1*
X1410561D2*
X1429731D1*
X1450229D2*
X1479134D1*
X1525429D2*
X1534429D1*
X1384429Y867571D2*
X1393429D1*
X1409261D2*
X1431520D1*
X1448061D2*
X1481349D1*
X1525429D2*
X1534429D1*
X1384429Y866071D2*
X1393429D1*
X1408299D2*
X1431315D1*
X1446418D2*
X1483136D1*
X1525429D2*
X1534429D1*
X1384429Y864571D2*
X1393429D1*
X1407630D2*
X1430389D1*
X1445185D2*
X1484584D1*
X1525429D2*
X1534429D1*
X1384429Y863071D2*
X1393429D1*
X1407248D2*
X1417723D1*
X1424929D2*
X1429216D1*
X1444210D2*
X1460018D1*
X1471134D2*
X1485723D1*
X1525429D2*
X1534429D1*
X1384429Y861571D2*
X1393429D1*
X1407061D2*
X1416846D1*
X1426429D2*
X1427929D1*
X1443369D2*
X1456770D1*
X1473505D2*
X1486610D1*
X1525429D2*
X1534429D1*
X1384429Y860071D2*
X1393429D1*
X1406980D2*
X1416344D1*
X1442635D2*
X1454323D1*
X1475455D2*
X1487252D1*
X1525429D2*
X1534429D1*
X1384429Y858571D2*
X1393429D1*
X1406948D2*
X1416100D1*
X1442060D2*
X1452580D1*
X1477001D2*
X1487675D1*
X1525429D2*
X1534429D1*
X1384429Y857071D2*
X1393429D1*
X1406935D2*
X1415995D1*
X1441666D2*
X1451426D1*
X1478189D2*
X1488048D1*
X1525429D2*
X1534429D1*
X1384429Y855571D2*
X1393429D1*
X1406931D2*
X1415953D1*
X1441303D2*
X1450644D1*
X1479097D2*
X1488487D1*
X1525429D2*
X1534429D1*
X1384429Y854071D2*
X1393429D1*
X1406929D2*
X1415937D1*
X1440868D2*
X1450009D1*
X1479742D2*
X1488904D1*
X1525429D2*
X1534429D1*
X1384429Y852571D2*
X1393429D1*
X1406929D2*
X1415932D1*
X1440453D2*
X1449507D1*
X1480115D2*
X1489177D1*
X1525429D2*
X1534429D1*
X1384429Y851071D2*
X1393429D1*
X1406929D2*
X1415930D1*
X1440180D2*
X1449200D1*
X1480298D2*
X1489321D1*
X1525429D2*
X1534429D1*
X1384429Y849571D2*
X1393429D1*
X1406929D2*
X1415929D1*
X1440037D2*
X1449043D1*
X1480378D2*
X1489386D1*
X1525429D2*
X1534429D1*
X1384429Y848071D2*
X1393429D1*
X1406929D2*
X1415929D1*
X1439971D2*
X1448974D1*
X1480410D2*
X1489413D1*
X1525429D2*
X1534429D1*
X1384429Y846571D2*
X1393429D1*
X1406929D2*
X1415929D1*
X1439945D2*
X1448945D1*
X1480422D2*
X1489423D1*
X1525429D2*
X1534429D1*
X1384429Y845071D2*
X1393429D1*
X1406929D2*
X1415929D1*
X1439934D2*
X1448935D1*
X1480426D2*
X1489427D1*
X1525429D2*
X1534429D1*
X1384429Y843571D2*
X1393429D1*
X1406929D2*
X1415929D1*
X1439931D2*
X1448931D1*
X1480428D2*
X1489428D1*
X1501429D2*
X1534429D1*
X1384429Y842071D2*
X1393429D1*
X1406929D2*
X1415929D1*
X1439929D2*
X1448929D1*
X1480428D2*
X1489428D1*
X1501429D2*
X1534429D1*
X1384429Y840571D2*
X1393429D1*
X1406929D2*
X1415929D1*
X1439929D2*
X1448929D1*
X1480429D2*
X1489429D1*
X1501429D2*
X1534429D1*
X1384429Y839071D2*
X1393429D1*
X1406929D2*
X1415929D1*
X1439929D2*
X1448929D1*
X1480429D2*
X1489429D1*
X1501429D2*
X1534429D1*
X1384429Y837571D2*
X1393429D1*
X1406929D2*
X1415929D1*
X1439929D2*
X1448929D1*
X1480429D2*
X1489429D1*
X1501429D2*
X1534429D1*
X1384429Y836071D2*
X1393429D1*
X1406929D2*
X1415929D1*
X1439929D2*
X1448929D1*
X1480429D2*
X1489429D1*
X1501429D2*
X1534429D1*
X1384429Y834571D2*
X1393429D1*
X1406929D2*
X1415929D1*
X1439929D2*
X1448929D1*
X1480429D2*
X1489429D1*
X1525429D2*
X1534429D1*
X1384429Y833071D2*
X1393429D1*
X1406929D2*
X1415929D1*
X1439929D2*
X1448929D1*
X1480429D2*
X1489429D1*
X1525429D2*
X1534429D1*
X1384429Y831571D2*
X1393429D1*
X1406929D2*
X1415929D1*
X1439929D2*
X1448929D1*
X1480429D2*
X1489429D1*
X1525429D2*
X1534429D1*
X1384429Y830071D2*
X1393429D1*
X1406929D2*
X1415929D1*
X1439929D2*
X1448929D1*
X1480429D2*
X1489429D1*
X1525429D2*
X1534429D1*
X1384429Y828571D2*
X1393429D1*
X1406929D2*
X1415929D1*
X1439929D2*
X1448929D1*
X1480429D2*
X1489429D1*
X1525429D2*
X1534429D1*
X1384429Y827071D2*
X1393429D1*
X1406929D2*
X1415929D1*
X1439929D2*
X1448929D1*
X1480429D2*
X1489429D1*
X1525429D2*
X1534429D1*
X1384429Y825571D2*
X1393429D1*
X1406929D2*
X1415929D1*
X1439929D2*
X1448929D1*
X1480429D2*
X1489429D1*
X1525429D2*
X1534429D1*
X1384429Y824071D2*
X1393429D1*
X1406929D2*
X1415929D1*
X1439929D2*
X1448929D1*
X1480429D2*
X1489429D1*
X1525429D2*
X1534429D1*
X1384429Y822571D2*
X1393429D1*
X1406929D2*
X1415929D1*
X1439929D2*
X1448929D1*
X1480429D2*
X1489429D1*
X1525429D2*
X1534429D1*
X1384429Y821071D2*
X1393429D1*
X1406929D2*
X1415929D1*
X1439929D2*
X1448929D1*
X1480429D2*
X1489429D1*
X1525429D2*
X1534429D1*
X1384429Y819571D2*
X1393429D1*
X1406929D2*
X1415929D1*
X1439929D2*
X1448929D1*
X1480429D2*
X1489429D1*
X1501429D2*
X1534429D1*
X1384429Y818071D2*
X1393429D1*
X1406929D2*
X1415929D1*
X1439929D2*
X1448929D1*
X1480429D2*
X1489429D1*
X1501429D2*
X1534429D1*
X1384429Y816571D2*
X1393429D1*
X1406929D2*
X1415929D1*
X1439929D2*
X1448929D1*
X1480429D2*
X1489429D1*
X1501429D2*
X1534429D1*
X1384429Y815071D2*
X1393429D1*
X1406929D2*
X1415929D1*
X1439929D2*
X1448929D1*
X1480429D2*
X1489429D1*
X1501429D2*
X1534429D1*
X1384429Y813571D2*
X1393429D1*
X1406929D2*
X1415929D1*
X1439929D2*
X1448929D1*
X1480429D2*
X1489429D1*
X1501429D2*
X1534429D1*
X1384429Y812071D2*
X1393429D1*
X1406929D2*
X1415929D1*
X1439929D2*
X1448929D1*
X1480429D2*
X1489429D1*
X1501429D2*
X1534429D1*
X1109099Y869410D2*
Y867910D1*
Y866410D1*
Y864910D1*
Y863410D1*
Y861910D1*
Y860410D1*
Y858910D1*
Y857410D1*
Y855910D1*
Y854410D1*
Y852910D1*
Y851410D1*
Y849910D1*
Y848410D1*
Y846910D1*
Y845410D1*
Y843910D1*
Y842410D1*
Y840910D1*
Y839410D1*
Y837910D1*
Y836410D1*
Y834910D1*
Y833410D1*
Y831910D1*
Y830410D1*
Y828910D1*
Y827410D1*
Y825910D1*
Y824410D1*
Y822910D1*
Y821410D1*
Y819910D1*
Y818410D1*
Y816910D1*
X1094099D1*
Y815410D1*
Y813910D1*
Y812410D1*
Y810910D1*
Y809410D1*
X1118099Y869410D2*
Y867910D1*
Y866410D1*
Y864910D1*
Y863410D1*
Y861910D1*
Y860410D1*
Y858910D1*
Y857410D1*
Y855910D1*
Y854410D1*
Y852910D1*
Y851410D1*
Y849910D1*
Y848410D1*
Y846910D1*
Y845410D1*
Y843910D1*
Y842410D1*
Y840910D1*
Y839410D1*
Y837910D1*
Y836410D1*
Y834910D1*
Y833410D1*
Y831910D1*
Y830410D1*
Y828910D1*
Y827410D1*
Y825910D1*
Y824410D1*
Y822910D1*
Y821410D1*
Y819910D1*
Y818410D1*
Y816910D1*
X1134599D1*
Y815410D1*
Y813910D1*
Y812410D1*
Y810910D1*
Y809410D1*
X1140599Y869410D2*
Y867910D1*
Y866410D1*
Y864910D1*
Y863410D1*
Y861910D1*
X1173599Y869410D2*
Y867910D1*
Y866410D1*
Y864910D1*
Y863410D1*
Y861910D1*
Y860410D1*
Y858910D1*
Y857410D1*
Y855910D1*
Y854410D1*
Y852910D1*
Y851410D1*
Y849910D1*
Y848410D1*
Y846910D1*
Y845410D1*
Y843910D1*
Y842410D1*
Y840910D1*
Y839410D1*
Y837910D1*
Y836410D1*
Y834910D1*
Y833410D1*
Y831910D1*
Y830410D1*
Y828910D1*
Y827410D1*
Y825910D1*
Y824410D1*
Y822910D1*
Y821410D1*
Y819910D1*
Y818410D1*
Y816910D1*
Y815410D1*
Y813910D1*
Y812410D1*
Y810910D1*
Y809410D1*
X1233599Y869410D2*
Y867910D1*
Y866410D1*
Y864910D1*
Y863410D1*
Y861910D1*
Y860410D1*
Y858910D1*
Y857410D1*
Y855910D1*
Y854410D1*
Y852910D1*
Y851410D1*
Y849910D1*
Y848410D1*
Y846910D1*
Y845410D1*
Y843910D1*
Y842410D1*
Y840910D1*
Y839410D1*
Y837910D1*
Y836410D1*
X1233593Y834910D1*
X1233536Y833410D1*
X1233304Y831910D1*
X1232791Y830410D1*
X1232099Y828910D1*
X1242599Y869410D2*
Y867910D1*
Y866410D1*
Y864910D1*
Y863410D1*
Y861910D1*
Y860410D1*
Y858910D1*
Y857410D1*
Y855910D1*
Y854410D1*
Y852910D1*
Y851410D1*
Y849910D1*
Y848410D1*
Y846910D1*
Y845410D1*
Y843910D1*
Y842410D1*
Y840910D1*
Y839410D1*
Y837910D1*
Y836410D1*
Y834910D1*
Y833410D1*
Y831910D1*
Y830410D1*
Y828910D1*
Y827410D1*
Y825910D1*
Y824410D1*
Y822910D1*
Y821410D1*
Y819910D1*
Y818410D1*
Y816910D1*
Y815410D1*
Y813910D1*
Y812410D1*
Y810910D1*
Y809410D1*
X1188599Y867910D2*
Y866410D1*
Y864910D1*
Y863410D1*
Y861910D1*
Y860410D1*
Y858910D1*
Y857410D1*
Y855910D1*
Y854410D1*
Y852910D1*
Y851410D1*
Y849910D1*
Y848410D1*
Y846910D1*
Y845410D1*
Y843910D1*
Y842410D1*
Y840910D1*
Y839410D1*
Y837910D1*
Y836410D1*
Y834910D1*
Y833410D1*
Y831910D1*
Y830410D1*
Y828910D1*
Y827410D1*
Y825910D1*
Y824410D1*
Y822910D1*
Y821410D1*
Y819910D1*
Y818410D1*
Y816910D1*
Y815410D1*
Y813910D1*
Y812410D1*
Y810910D1*
Y809410D1*
X1190099Y867910D2*
X1191605Y866410D1*
X1193158Y864910D1*
X1194849Y863410D1*
X1196708Y861910D1*
X1198593Y860410D1*
X1200354Y858910D1*
X1201993Y857410D1*
X1203557Y855910D1*
X1205083Y854410D1*
X1206593Y852910D1*
X1208103Y851410D1*
X1209657Y849910D1*
X1211349Y848410D1*
X1213208Y846910D1*
X1215093Y845410D1*
X1216854Y843910D1*
X1218493Y842410D1*
X1220057Y840910D1*
X1221583Y839410D1*
X1223093Y837910D1*
X1224597Y836410D1*
X1226104Y834910D1*
X1227662Y833410D1*
X1229394Y831910D1*
X1231407Y830410D1*
X1233599Y828910D1*
X1164599Y861910D2*
Y860410D1*
Y858910D1*
Y857410D1*
Y855910D1*
Y854410D1*
Y852910D1*
Y851410D1*
Y849910D1*
Y848410D1*
Y846910D1*
Y845410D1*
Y843910D1*
Y842410D1*
Y840910D1*
X1196099Y849910D2*
Y848410D1*
Y846910D1*
Y845410D1*
Y843910D1*
Y842410D1*
Y840910D1*
Y839410D1*
Y837910D1*
Y836410D1*
Y834910D1*
Y833410D1*
Y831910D1*
Y830410D1*
Y828910D1*
Y827410D1*
Y825910D1*
Y824410D1*
Y822910D1*
Y821410D1*
Y819910D1*
Y818410D1*
Y816910D1*
Y815410D1*
Y813910D1*
Y812410D1*
Y810910D1*
Y809410D1*
X1199099Y849910D2*
X1200599Y848410D1*
X1202099Y846910D1*
X1203599Y845410D1*
X1205099Y843910D1*
X1206599Y842410D1*
X1208099Y840910D1*
X1209599Y839410D1*
X1211099Y837910D1*
X1212599Y836410D1*
X1214099Y834910D1*
X1215599Y833410D1*
X1217099Y831910D1*
X1218599Y830410D1*
X1220099Y828910D1*
X1221599Y827410D1*
X1223105Y825910D1*
X1224658Y824410D1*
X1226349Y822910D1*
X1228208Y821410D1*
X1230093Y819910D1*
X1231854Y818410D1*
X1233493Y816910D1*
X1235057Y815410D1*
X1236583Y813910D1*
X1238093Y812410D1*
X1239597Y810910D1*
X1241099Y809410D1*
X1140599Y840910D2*
Y839410D1*
Y837910D1*
Y836410D1*
Y834910D1*
Y833410D1*
X1164599D2*
Y831910D1*
Y830410D1*
Y828910D1*
Y827410D1*
Y825910D1*
Y824410D1*
Y822910D1*
Y821410D1*
Y819910D1*
Y818410D1*
Y816910D1*
X1140599D2*
Y815410D1*
Y813910D1*
Y812410D1*
Y810910D1*
Y809410D1*
X1384429Y872071D2*
Y870571D1*
Y869071D1*
Y867571D1*
Y866071D1*
Y864571D1*
Y863071D1*
Y861571D1*
Y860071D1*
Y858571D1*
Y857071D1*
Y855571D1*
Y854071D1*
Y852571D1*
Y851071D1*
Y849571D1*
Y848071D1*
Y846571D1*
Y845071D1*
Y843571D1*
Y842071D1*
Y840571D1*
Y839071D1*
Y837571D1*
Y836071D1*
Y834571D1*
Y833071D1*
Y831571D1*
Y830071D1*
Y828571D1*
Y827071D1*
Y825571D1*
Y824071D1*
Y822571D1*
Y821071D1*
Y819571D1*
Y818071D1*
Y816571D1*
Y815071D1*
Y813571D1*
Y812071D1*
X1393429Y872071D2*
Y870571D1*
Y869071D1*
Y867571D1*
Y866071D1*
Y864571D1*
Y863071D1*
Y861571D1*
Y860071D1*
Y858571D1*
Y857071D1*
Y855571D1*
Y854071D1*
Y852571D1*
Y851071D1*
Y849571D1*
Y848071D1*
Y846571D1*
Y845071D1*
Y843571D1*
Y842071D1*
Y840571D1*
Y839071D1*
Y837571D1*
Y836071D1*
Y834571D1*
Y833071D1*
Y831571D1*
Y830071D1*
Y828571D1*
Y827071D1*
Y825571D1*
Y824071D1*
Y822571D1*
Y821071D1*
Y819571D1*
Y818071D1*
Y816571D1*
Y815071D1*
Y813571D1*
Y812071D1*
X1414429Y872071D2*
X1412293Y870571D1*
X1410561Y869071D1*
X1409261Y867571D1*
X1408299Y866071D1*
X1407630Y864571D1*
X1407248Y863071D1*
X1407061Y861571D1*
X1406980Y860071D1*
X1406948Y858571D1*
X1406935Y857071D1*
X1406931Y855571D1*
X1406929Y854071D1*
Y852571D1*
Y851071D1*
Y849571D1*
Y848071D1*
Y846571D1*
Y845071D1*
Y843571D1*
Y842071D1*
Y840571D1*
Y839071D1*
Y837571D1*
Y836071D1*
Y834571D1*
Y833071D1*
Y831571D1*
Y830071D1*
Y828571D1*
Y827071D1*
Y825571D1*
Y824071D1*
Y822571D1*
Y821071D1*
Y819571D1*
Y818071D1*
Y816571D1*
Y815071D1*
Y813571D1*
Y812071D1*
X1424929Y872071D2*
X1427565Y870571D1*
X1429731Y869071D1*
X1431520Y867571D1*
X1431315Y866071D1*
X1430389Y864571D1*
X1429216Y863071D1*
X1427929Y861571D1*
X1456429Y872071D2*
X1453031Y870571D1*
X1450229Y869071D1*
X1448061Y867571D1*
X1446418Y866071D1*
X1445185Y864571D1*
X1444210Y863071D1*
X1443369Y861571D1*
X1442635Y860071D1*
X1442060Y858571D1*
X1441666Y857071D1*
X1441303Y855571D1*
X1440868Y854071D1*
X1440453Y852571D1*
X1440180Y851071D1*
X1440037Y849571D1*
X1439971Y848071D1*
X1439945Y846571D1*
X1439934Y845071D1*
X1439931Y843571D1*
X1439929Y842071D1*
Y840571D1*
Y839071D1*
Y837571D1*
Y836071D1*
Y834571D1*
Y833071D1*
Y831571D1*
Y830071D1*
Y828571D1*
Y827071D1*
Y825571D1*
Y824071D1*
Y822571D1*
Y821071D1*
Y819571D1*
Y818071D1*
Y816571D1*
Y815071D1*
Y813571D1*
Y812071D1*
X1472929Y872071D2*
X1476326Y870571D1*
X1479134Y869071D1*
X1481349Y867571D1*
X1483136Y866071D1*
X1484584Y864571D1*
X1485723Y863071D1*
X1486610Y861571D1*
X1487252Y860071D1*
X1487675Y858571D1*
X1488048Y857071D1*
X1488487Y855571D1*
X1488904Y854071D1*
X1489177Y852571D1*
X1489321Y851071D1*
X1489386Y849571D1*
X1489413Y848071D1*
X1489423Y846571D1*
X1489427Y845071D1*
X1489428Y843571D1*
Y842071D1*
X1489429Y840571D1*
Y839071D1*
Y837571D1*
Y836071D1*
Y834571D1*
Y833071D1*
Y831571D1*
Y830071D1*
Y828571D1*
Y827071D1*
Y825571D1*
Y824071D1*
Y822571D1*
Y821071D1*
Y819571D1*
Y818071D1*
Y816571D1*
Y815071D1*
Y813571D1*
Y812071D1*
X1525429Y872071D2*
Y870571D1*
Y869071D1*
Y867571D1*
Y866071D1*
Y864571D1*
Y863071D1*
Y861571D1*
Y860071D1*
Y858571D1*
Y857071D1*
Y855571D1*
Y854071D1*
Y852571D1*
Y851071D1*
Y849571D1*
Y848071D1*
Y846571D1*
Y845071D1*
Y843571D1*
X1534429Y872071D2*
Y870571D1*
Y869071D1*
Y867571D1*
Y866071D1*
Y864571D1*
Y863071D1*
Y861571D1*
Y860071D1*
Y858571D1*
Y857071D1*
Y855571D1*
Y854071D1*
Y852571D1*
Y851071D1*
Y849571D1*
Y848071D1*
Y846571D1*
Y845071D1*
Y843571D1*
Y842071D1*
Y840571D1*
Y839071D1*
Y837571D1*
Y836071D1*
Y834571D1*
Y833071D1*
Y831571D1*
Y830071D1*
Y828571D1*
Y827071D1*
Y825571D1*
Y824071D1*
Y822571D1*
Y821071D1*
Y819571D1*
Y818071D1*
Y816571D1*
Y815071D1*
Y813571D1*
Y812071D1*
X1418929Y864571D2*
X1417723Y863071D1*
X1416846Y861571D1*
X1416344Y860071D1*
X1416100Y858571D1*
X1415995Y857071D1*
X1415953Y855571D1*
X1415937Y854071D1*
X1415932Y852571D1*
X1415930Y851071D1*
X1415929Y849571D1*
Y848071D1*
Y846571D1*
Y845071D1*
Y843571D1*
Y842071D1*
Y840571D1*
Y839071D1*
Y837571D1*
Y836071D1*
Y834571D1*
Y833071D1*
Y831571D1*
Y830071D1*
Y828571D1*
Y827071D1*
Y825571D1*
Y824071D1*
Y822571D1*
Y821071D1*
Y819571D1*
Y818071D1*
Y816571D1*
Y815071D1*
Y813571D1*
Y812071D1*
X1423429Y864571D2*
X1424929Y863071D1*
X1426429Y861571D1*
X1463929Y864571D2*
X1460018Y863071D1*
X1456770Y861571D1*
X1454323Y860071D1*
X1452580Y858571D1*
X1451426Y857071D1*
X1450644Y855571D1*
X1450009Y854071D1*
X1449507Y852571D1*
X1449200Y851071D1*
X1449043Y849571D1*
X1448974Y848071D1*
X1448945Y846571D1*
X1448935Y845071D1*
X1448931Y843571D1*
X1448929Y842071D1*
Y840571D1*
Y839071D1*
Y837571D1*
Y836071D1*
Y834571D1*
Y833071D1*
Y831571D1*
Y830071D1*
Y828571D1*
Y827071D1*
Y825571D1*
Y824071D1*
Y822571D1*
Y821071D1*
Y819571D1*
Y818071D1*
Y816571D1*
Y815071D1*
Y813571D1*
Y812071D1*
X1468429Y864571D2*
X1471134Y863071D1*
X1473505Y861571D1*
X1475455Y860071D1*
X1477001Y858571D1*
X1478189Y857071D1*
X1479097Y855571D1*
X1479742Y854071D1*
X1480115Y852571D1*
X1480298Y851071D1*
X1480378Y849571D1*
X1480410Y848071D1*
X1480422Y846571D1*
X1480426Y845071D1*
X1480428Y843571D1*
Y842071D1*
X1480429Y840571D1*
Y839071D1*
Y837571D1*
Y836071D1*
Y834571D1*
Y833071D1*
Y831571D1*
Y830071D1*
Y828571D1*
Y827071D1*
Y825571D1*
Y824071D1*
Y822571D1*
Y821071D1*
Y819571D1*
Y818071D1*
Y816571D1*
Y815071D1*
Y813571D1*
Y812071D1*
X1501429Y843571D2*
Y842071D1*
Y840571D1*
Y839071D1*
Y837571D1*
Y836071D1*
X1525429D2*
Y834571D1*
Y833071D1*
Y831571D1*
Y830071D1*
Y828571D1*
Y827071D1*
Y825571D1*
Y824071D1*
Y822571D1*
Y821071D1*
Y819571D1*
X1501429D2*
Y818071D1*
Y816571D1*
Y815071D1*
Y813571D1*
Y812071D1*
X574786Y461201D2*
D35*
X597733D1*
X602044Y459775D1*
X603470Y458316D1*
X604930Y455464D1*
Y452579D1*
X603470Y449727D1*
X602044Y448301D1*
X597733Y446842D1*
X594881D1*
X581982Y471923D2*
X580556D1*
X577671Y473349D1*
X576245Y474775D1*
X574819Y477660D1*
Y483397D1*
X576245Y486249D1*
X577671Y487675D1*
X580556Y489134D1*
X583408D1*
X586293Y487675D1*
X590571Y484823D1*
X604930Y470464D1*
Y490560D1*
X1234351Y916882D2*
D36*
X1236252Y918828D1*
X1234351Y920729D1*
X1232405Y918828D1*
X1234351Y916882D1*
X1210503Y893934D2*
X1214306Y895835D1*
X1218153Y899682D1*
X1220054Y905430D1*
Y909233D1*
X1218153Y914981D1*
X1214306Y918783D1*
X1210503Y920729D1*
X1204755D1*
X1200909Y918783D1*
X1197106Y914981D1*
X1195161Y909233D1*
Y905430D1*
X1197106Y899682D1*
X1200909Y895835D1*
X1204755Y893934D1*
X1210503D1*
X1182809D2*
Y920729D1*
Y901583D2*
X1177061Y895835D1*
X1173214Y893934D1*
X1167511D1*
X1163664Y895835D1*
X1161763Y901583D1*
Y920729D1*
X1149411Y880537D2*
Y920729D1*
X1137060Y880537D2*
X1135159Y882438D1*
X1133213Y880537D1*
X1135159Y878591D1*
X1137060Y880537D1*
X1135159Y893934D2*
Y920729D1*
X1120862Y893934D2*
Y920729D1*
Y901583D2*
X1115114Y895835D1*
X1111267Y893934D1*
X1105563D1*
X1101716Y895835D1*
X1099815Y901583D1*
Y920729D1*
X1087464Y905430D2*
X1064516D1*
Y901583D1*
X1066417Y897737D1*
X1068318Y895835D1*
X1072165Y893934D1*
X1077913D1*
X1081716Y895835D1*
X1085562Y899682D1*
X1087464Y905430D1*
Y909233D1*
X1085562Y914981D1*
X1081716Y918783D1*
X1077913Y920729D1*
X1072165D1*
X1068318Y918783D1*
X1064516Y914981D1*
X2137095Y801718D2*
Y841910D1*
X2123697D1*
X2117949Y839964D1*
X2114103Y836162D1*
X2112201Y832315D1*
X2110300Y826611D1*
Y817017D1*
X2112201Y811269D1*
X2114102Y807466D1*
X2117949Y803619D1*
X2123697Y801718D1*
X2137095D1*
X2097949D2*
Y841910D1*
X2080705D1*
X2074957Y839964D1*
X2073055Y838063D1*
X2071154Y834261D1*
Y828513D1*
X2073055Y824666D1*
X2074956Y822765D1*
X2080705Y820863D1*
X2074956Y818918D1*
X2073055Y817017D1*
X2071154Y813214D1*
Y809367D1*
X2073055Y805565D1*
X2074956Y803619D1*
X2080704Y801718D1*
X2097949D1*
Y820863D2*
X2080705D1*
X2058803Y821836D2*
X2036695D1*
X2024343Y809411D2*
X2020497Y807466D1*
X2014749Y801762D1*
Y841910D1*
X1977504Y815115D2*
X1979449Y820863D1*
X1983252Y824710D1*
X1989000Y826611D1*
X1990901D1*
X1996649Y824710D1*
X2000452Y820863D1*
X2002397Y815115D1*
Y813214D1*
X2000452Y807466D1*
X1996649Y803663D1*
X1990901Y801762D1*
X1989000D1*
X1983252Y803663D1*
X1979449Y807466D1*
X1977504Y815115D1*
Y824710D1*
X1979449Y834261D1*
X1983252Y840009D1*
X1989000Y841910D1*
X1992802D1*
X1998550Y840009D1*
X2000452Y836162D1*
X1934555Y841910D2*
Y801718D1*
X1949854Y841910D1*
X1965152Y801718D1*
Y841910D1*
X2096963Y871816D2*
Y912008D1*
X2084612Y871816D2*
Y912008D1*
X2071215D1*
X2065467Y910063D1*
X2061620Y906260D1*
X2059719Y902414D1*
X2057817Y896710D1*
Y887115D1*
X2059719Y881367D1*
X2061620Y877564D1*
X2065467Y873718D1*
X2071215Y871816D1*
X2084612D1*
X2016770Y881367D2*
X2018671Y877564D1*
X2022518Y873718D1*
X2026321Y871816D1*
X2033970D1*
X2037817Y873718D1*
X2041619Y877564D1*
X2043565Y881367D1*
X2045466Y887115D1*
Y896710D1*
X2043565Y902414D1*
X2041619Y906260D1*
X2037817Y910063D1*
X2033970Y912008D1*
X2026321D1*
X2022518Y910063D1*
X2018671Y906260D1*
X2016770Y902414D1*
X2002473Y881411D2*
Y879510D1*
X2000572Y875663D1*
X1998671Y873762D1*
X1994824Y871861D1*
X1987175D1*
X1983372Y873762D1*
X1981471Y875663D1*
X1979525Y879510D1*
Y883312D1*
X1981471Y887159D1*
X1985273Y892863D1*
X2004419Y912008D1*
X1977624D1*
X1953777Y871861D2*
X1959525Y873762D1*
X1963371Y879510D1*
X1965273Y889060D1*
Y894808D1*
X1963371Y904359D1*
X1959525Y910107D1*
X1953777Y912008D1*
X1949974D1*
X1944226Y910107D1*
X1940423Y904359D1*
X1938478Y894808D1*
Y889060D1*
X1940423Y879510D1*
X1944226Y873762D1*
X1949974Y871861D1*
X1953777D1*
X1940423Y879510D2*
X1963371Y904359D1*
X1895529Y912008D2*
Y871816D1*
X1910828Y912008D1*
X1926127Y871816D1*
Y912008D1*
X1901333Y797419D2*
Y829961D1*
X1899432Y835665D1*
X1895585Y837611D1*
X1891783D1*
X1907081Y810816D2*
X1893684D1*
X1869881D2*
X1873683Y812717D1*
X1877530Y816564D1*
X1879432Y822312D1*
Y826115D1*
X1877530Y831863D1*
X1873684Y835665D1*
X1869881Y837611D1*
X1864133D1*
X1860286Y835665D1*
X1856484Y831863D1*
X1854538Y826115D1*
Y822312D1*
X1856484Y816564D1*
X1860286Y812717D1*
X1864133Y810816D1*
X1869881D1*
X1480590Y701715D2*
Y732313D1*
X1482491Y738061D1*
X1484436Y739962D1*
X1488239Y741907D1*
X1492086D1*
X1495888Y739962D1*
X1497790Y738061D1*
X1499735Y732312D1*
Y728510D1*
X1468238Y701715D2*
Y741907D1*
X1445290D1*
X1404243Y711266D2*
X1406144Y707463D1*
X1409991Y703617D1*
X1413794Y701715D1*
X1421443D1*
X1425290Y703617D1*
X1429092Y707463D1*
X1431038Y711266D1*
X1432939Y717014D1*
Y726609D1*
X1431038Y732313D1*
X1429092Y736159D1*
X1425290Y739962D1*
X1421443Y741907D1*
X1413794D1*
X1409991Y739962D1*
X1406144Y736159D1*
X1404243Y732312D1*
X1372746Y701715D2*
Y732312D1*
X1374648Y738061D1*
X1376593Y739962D1*
X1380396Y741907D1*
X1384242D1*
X1388045Y739962D1*
X1389946Y738061D1*
X1391892Y732312D1*
Y728510D1*
X1360395Y701715D2*
Y741907D1*
X1337447D1*
X1296400Y711266D2*
X1298301Y707463D1*
X1302148Y703617D1*
X1305950Y701715D1*
X1313600D1*
X1317446Y703617D1*
X1321249Y707463D1*
X1323194Y711266D1*
X1325096Y717014D1*
Y726609D1*
X1323194Y732312D1*
X1321249Y736159D1*
X1317446Y739962D1*
X1313600Y741907D1*
X1305950D1*
X1302148Y739962D1*
X1298301Y736159D1*
X1296400Y732312D1*
X1264903Y701715D2*
Y732312D1*
X1266804Y738061D1*
X1268750Y739962D1*
X1272552Y741907D1*
X1276399D1*
X1280202Y739962D1*
X1282103Y738061D1*
X1284048Y732312D1*
Y728510D1*
X1252552Y701715D2*
Y741907D1*
X1229604D1*
X1188556Y711266D2*
X1190458Y707463D1*
X1194304Y703617D1*
X1198107Y701715D1*
X1205756D1*
X1209603Y703617D1*
X1213405Y707463D1*
X1215351Y711266D1*
X1217252Y717014D1*
Y726609D1*
X1215351Y732312D1*
X1213405Y736159D1*
X1209603Y739962D1*
X1205756Y741907D1*
X1198107D1*
X1194304Y739962D1*
X1190458Y736159D1*
X1188556Y732312D1*
X1157060Y701715D2*
Y732312D1*
X1158961Y738060D1*
X1160906Y739962D1*
X1164709Y741907D1*
X1168556D1*
X1172358Y739962D1*
X1174259Y738060D1*
X1176205Y732312D1*
Y728510D1*
X1144708Y701715D2*
Y741907D1*
X1121760D1*
X1080713Y711266D2*
X1082614Y707463D1*
X1086461Y703617D1*
X1090263Y701715D1*
X1097913D1*
X1101760Y703617D1*
X1105562Y707463D1*
X1107508Y711266D1*
X1109409Y717014D1*
Y726609D1*
X1107508Y732312D1*
X1105562Y736159D1*
X1101760Y739962D1*
X1097913Y741907D1*
X1090263D1*
X1086461Y739962D1*
X1082614Y736159D1*
X1080713Y732312D1*
M02*
