M48
INCH
T01C0.0157
T02C0.0394
T03C0.0429
T04C0.0433
T05C0.0492
T06C0.1283
%
T01
X+008976Y+022212
X+009614Y+022208
X+010219Y+022212
X+010812Y+022212
X+010500Y+021512
X+009937Y+021512
X+009353Y+021512
X+011125Y+021512
X+013812Y+021062
X+011375Y+016125
X+008910Y+015968
X+008937Y+011500
X+008687Y+008687
X+009562Y+008437
X+010437Y+008687
X+010875Y+008687
X+011000Y+007999
X+013812Y+015062
X+007375Y+020562
X+005693Y+023679
X+007437Y+029250
X+008562Y+031125
X+009645Y+031281
X+010811Y+030727
T02
X+015260Y+027085
X+013489Y+027085
X+013489Y+029644
X+015260Y+029644
T03
X+008010Y+032063
X+009100Y+032063
X+010191Y+032063
X+011281Y+032063
X+012372Y+032063
X+011826Y+033181
X+010736Y+033181
X+009645Y+033181
X+008555Y+033181
T04
X+015187Y+004437
X+015187Y+005437
X+015187Y+006437
X+015187Y+007437
X+015187Y+008437
X+015187Y+009437
X+015187Y+010437
X+015187Y+011437
X+015187Y+012437
X+015187Y+013437
X+015187Y+014437
X+015187Y+015437
X+015187Y+016437
X+015187Y+017437
X+015187Y+018437
X+015187Y+019437
X+015187Y+020437
X+015187Y+021437
X+015187Y+022437
X+005187Y+022437
X+005187Y+021437
X+005187Y+020437
X+005187Y+019437
X+005187Y+018437
X+005187Y+017437
X+005187Y+016437
X+005187Y+015437
X+005187Y+014437
X+005187Y+013437
X+005187Y+012437
X+005187Y+011437
X+005187Y+010437
X+005187Y+009437
X+005187Y+008437
X+005187Y+007437
X+005187Y+006437
X+005187Y+005437
X+005187Y+004437
T05
X+008486Y+005503
X+011630Y+005503
T06
X+005271Y+032622
X+015110Y+032622
T00
M30
