G04 DipTrace 3.3.1.3*
G04 Top.gbr*
%MOIN*%
G04 #@! TF.FileFunction,Copper,L1,Top*
G04 #@! TF.Part,Single*
G04 #@! TA.AperFunction,Conductor*
%ADD13C,0.007874*%
G04 #@! TA.AperFunction,CopperBalancing*
%ADD14C,0.025*%
%ADD15C,0.00787*%
%ADD17R,0.027559X0.035433*%
%ADD18R,0.035433X0.027559*%
G04 #@! TA.AperFunction,ComponentPad*
%ADD19R,0.066535X0.066535*%
%ADD20C,0.066535*%
%ADD21C,0.187402*%
%ADD22C,0.055118*%
%ADD24R,0.023622X0.07874*%
%ADD25R,0.068898X0.057087*%
%ADD26R,0.068898X0.088583*%
G04 #@! TA.AperFunction,ComponentPad*
%ADD30C,0.066929*%
%ADD31R,0.015748X0.070866*%
G04 #@! TA.AperFunction,ViaPad*
%ADD35C,0.031*%
%FSLAX26Y26*%
G04*
G70*
G90*
G75*
G01*
G04 Top*
%LPD*%
X774196Y2058659D2*
D13*
X824196D1*
X827944Y1151987D2*
X891666D1*
X893702Y1149951D1*
X999873D1*
X1124953D1*
X1131202Y1156200D1*
X999873Y962516D2*
Y1149951D1*
X1381202Y1543700D2*
Y1506200D1*
Y1337449D1*
Y2106200D2*
Y2143700D1*
X1381201D1*
X1134824Y1568764D2*
Y1609822D1*
X1137453Y1612451D1*
X1146589Y1672035D2*
Y1621587D1*
X1137453Y1612451D1*
X518702Y2243700D2*
X531202D1*
X716243Y2058659D1*
X737453D1*
X774196D1*
X737453Y2056200D2*
Y2058659D1*
X1431202Y793700D2*
Y849949D1*
X1387452Y893700D1*
Y981200D1*
X1212452Y1156200D1*
X1131202D1*
X518702Y2243700D2*
Y2661117D1*
X518075Y2661745D1*
Y2832128D1*
X554647Y2868700D1*
X605021D1*
X862504D2*
X780602D1*
X737474Y2825573D1*
X638923D1*
X595796Y2868700D1*
X605021D1*
X656202Y2924951D2*
Y2868700D1*
X967456Y1900381D2*
Y2169737D1*
X960288Y2176905D1*
Y2220825D1*
X961357D1*
X964458Y3128050D2*
Y3234792D1*
X1047757Y3318091D1*
X1073591D1*
X827944Y1100806D2*
Y963815D1*
X826645Y962516D1*
X1131202Y1105019D2*
Y963924D1*
X1129794Y962516D1*
X1095408Y1900381D2*
Y2120896D1*
X1112453Y2137940D1*
Y2151229D1*
X1044227Y1900381D2*
Y2151229D1*
X1049953D1*
X856202Y3112451D2*
Y3317369D1*
X855481Y3318091D1*
X993046Y1900381D2*
Y2150573D1*
X993702Y2151229D1*
X737735Y560833D2*
Y666108D1*
Y925441D1*
X724243Y938934D1*
X1518702Y1643700D2*
X1568702Y1693700D1*
Y1762451D1*
X1537453Y1793700D1*
X1468702D1*
X1299952Y1624949D1*
Y1518699D1*
X1256202Y1474949D1*
X1224953D1*
X1182319Y1517583D1*
X1184824D1*
X1134824D2*
X1184824D1*
X1128456Y2057478D2*
Y2090953D1*
X1238214Y2200712D1*
X1281202Y2243700D1*
X1518702D1*
X1172180Y1900381D2*
Y1858973D1*
X1187453Y1843700D1*
X1218702D1*
X1238214Y1863212D1*
Y2200712D1*
X874196Y2058659D2*
Y2125708D1*
X862453Y2137451D1*
Y2258053D1*
X878798Y2274398D1*
X1281202D1*
Y2243700D1*
X913259Y962516D2*
Y849142D1*
X962452Y799949D1*
X1099953D1*
X1231202D1*
X1313042Y881789D1*
Y938582D1*
X1099953Y799949D2*
D3*
X1349353Y560697D2*
Y625549D1*
X1308794Y666108D1*
X737735D1*
Y560833D2*
Y480917D1*
X781202Y437449D1*
X1306202D1*
X1349353Y480600D1*
Y560697D1*
X1416949D1*
X1449952Y593700D1*
X1543702D1*
X1568702Y618700D1*
Y1593700D1*
X1518702Y1643700D1*
Y2243700D2*
Y2468923D1*
X1526996Y2477217D1*
Y2709443D1*
X1526036Y2708482D1*
Y2964388D1*
Y3018330D1*
X1338086Y3206280D1*
X1237173D1*
X605021Y2924951D2*
X544435D1*
X457484Y2838001D1*
Y1104918D1*
X518702Y1043700D1*
X1018637Y1672035D2*
Y1447330D1*
X627562Y1056255D1*
Y952560D1*
X518702Y843700D1*
X743702Y2924951D2*
X862504D1*
Y2924949D1*
X783337Y962516D2*
Y847815D1*
X888634Y742519D1*
X1431202D1*
X1517521D1*
X1518702Y743700D1*
X956202Y843700D2*
Y962153D1*
X956566Y962516D1*
X1432383Y1543700D2*
X1518702D1*
X868702Y868700D2*
Y961267D1*
X869952Y962516D1*
X1069818Y1672035D2*
Y1435772D1*
X1114037Y1391553D1*
X1272806D1*
X1331202Y1449949D1*
Y1599949D1*
X1474953Y1743700D1*
X1518702D1*
X1095408Y1672035D2*
Y1741657D1*
X1155853Y1802102D1*
X1277104D1*
X1518702Y2043700D1*
X1432382Y2143700D2*
X1518702D1*
X1043702Y868700D2*
Y961994D1*
X1043180Y962516D1*
X967456Y1672035D2*
Y1469754D1*
X841402Y1343700D1*
X518702D1*
X993046Y1672035D2*
Y1459256D1*
X777490Y1243700D1*
X518702D1*
X916274Y1672035D2*
Y1616011D1*
X921688Y1610598D1*
Y1583344D1*
X904731Y1566388D1*
X877242D1*
X799929Y1643700D1*
X518702D1*
X941865Y1672035D2*
Y1570960D1*
X914605Y1543700D1*
X518702D1*
X865093Y1672027D2*
Y1697309D1*
X518702Y2043700D1*
X569259Y2367906D2*
Y2659398D1*
X1299786D1*
X1348870Y2708482D1*
Y2964388D1*
X569256Y2661745D2*
X569259Y2659398D1*
X1044227Y1672035D2*
Y1423350D1*
X1423877Y1043700D1*
X1518702D1*
X1432383Y1337449D2*
X1512452D1*
X1518702Y1343700D1*
X1087453Y868700D2*
Y961550D1*
X1086487Y962516D1*
X1197771Y1900381D2*
Y1964880D1*
X1193702Y1968948D1*
Y2007478D1*
Y2058659D2*
X1169914D1*
X1160268Y2049014D1*
Y1969738D1*
X1146589Y1956060D1*
Y1900381D1*
X1234198Y1568478D2*
Y1584953D1*
X1197771Y1621381D1*
Y1672035D1*
X1120999D2*
Y1721783D1*
X1132500Y1733284D1*
X1239755D1*
X1263071Y1709968D1*
Y1546170D1*
X1234198Y1517297D1*
X774196Y2007478D2*
Y1966096D1*
X839911Y1900381D1*
X865093D1*
X1172180Y1672035D2*
Y1611665D1*
X1184824Y1599020D1*
Y1568764D1*
X1120999Y1900381D2*
Y1959781D1*
X1128456Y1967238D1*
Y2006297D1*
X890684Y1900381D2*
Y1990990D1*
X874196Y2007478D1*
X824196D1*
X890956Y1596763D2*
Y1671763D1*
X890684Y1672035D1*
X916274Y1900381D2*
Y2127377D1*
X899952Y2143700D1*
Y2221250D1*
X897617D1*
X941865Y1900381D2*
Y2151229D1*
X935330D1*
X1069818Y1900381D2*
Y2127982D1*
X1078858Y2137023D1*
Y2218906D1*
X1081202Y2221250D1*
X1081142Y3072720D2*
X954816D1*
X910008Y3117528D1*
Y3206280D1*
X1018637Y1900381D2*
X1021879D1*
Y2221250D1*
X913685Y2924949D2*
Y2868700D1*
D35*
X897617Y2221250D3*
X935330Y2151229D3*
X961357Y2220825D3*
X993702Y2151229D3*
X1021879Y2221250D3*
X1049953Y2151229D3*
X1081202Y2221250D3*
X1112453Y2151229D3*
X890956Y1596763D3*
X1087453Y868700D3*
X1043702D3*
X956202Y843700D3*
X893702Y1149951D3*
X868702Y868700D3*
X1381202Y1506200D3*
Y2106200D3*
X1137453Y1612451D3*
X737453Y2056200D3*
X1099953Y799949D3*
X743702Y2924951D3*
X569259Y2367906D3*
X1081142Y3072720D3*
X856202Y3112451D3*
X964458Y3128050D3*
X427471Y3587582D2*
D14*
X1622438D1*
X427471Y3562713D2*
X1622438D1*
X427471Y3537844D2*
X1622438D1*
X427471Y3512976D2*
X1622438D1*
X427471Y3488107D2*
X1622438D1*
X427471Y3463238D2*
X1622438D1*
X427471Y3438369D2*
X1622438D1*
X427471Y3413501D2*
X1622438D1*
X427471Y3388632D2*
X1622438D1*
X427471Y3363763D2*
X466178D1*
X588089D2*
X819278D1*
X891705D2*
X928330D1*
X1000757D2*
X1037382D1*
X1109809D2*
X1146434D1*
X1218861D2*
X1450015D1*
X1571961D2*
X1622438D1*
X618231Y3338894D2*
X800152D1*
X1237951D2*
X1419872D1*
X1602104D2*
X1622438D1*
X634738Y3314025D2*
X796348D1*
X1241755D2*
X1403365D1*
X643673Y3289157D2*
X804135D1*
X1234004D2*
X1394430D1*
X646831Y3264288D2*
X826276D1*
X1035241D2*
X1052992D1*
X1094199D2*
X1162044D1*
X1203251D2*
X1391308D1*
X644606Y3239419D2*
X741697D1*
X1285749D2*
X1393533D1*
X636712Y3214550D2*
X741697D1*
X1295832D2*
X1401392D1*
X621712Y3189682D2*
X741697D1*
X1293966D2*
X1416427D1*
X1605585D2*
X1622438D1*
X427471Y3164813D2*
X459396D1*
X594871D2*
X741697D1*
X1060324D2*
X1086867D1*
X1169376D2*
X1195919D1*
X1278429D2*
X1443268D1*
X1578707D2*
X1622438D1*
X427471Y3139944D2*
X826024D1*
X1004094D2*
X1622438D1*
X427471Y3115075D2*
X814793D1*
X1003735D2*
X1622438D1*
X427471Y3090207D2*
X821682D1*
X1118493D2*
X1622438D1*
X427471Y3065338D2*
X920902D1*
X1121938D2*
X1622438D1*
X427471Y3040469D2*
X1056724D1*
X1105574D2*
X1622438D1*
X427471Y3015600D2*
X1622438D1*
X427471Y2990731D2*
X1302638D1*
X1395124D2*
X1479798D1*
X1572284D2*
X1622438D1*
X427471Y2965863D2*
X1295318D1*
X1402408D2*
X1472514D1*
X1579569D2*
X1622438D1*
X427471Y2940994D2*
X519179D1*
X957409D2*
X1300988D1*
X1396739D2*
X1478148D1*
X1573935D2*
X1622438D1*
X427471Y2916125D2*
X494311D1*
X957409D2*
X1318930D1*
X1378797D2*
X1506855D1*
X1545192D2*
X1622438D1*
X427471Y2891256D2*
X469443D1*
X699904D2*
X721566D1*
X957409D2*
X1318930D1*
X1378797D2*
X1622438D1*
X427471Y2866388D2*
X444576D1*
X699904D2*
X736996D1*
X957409D2*
X1318930D1*
X1378797D2*
X1622438D1*
X957409Y2841519D2*
X1318930D1*
X1378797D2*
X1622438D1*
X548006Y2816650D2*
X606557D1*
X769842D2*
X1318930D1*
X1378797D2*
X1622438D1*
X548006Y2791781D2*
X1318930D1*
X1378797D2*
X1622438D1*
X548006Y2766913D2*
X1318930D1*
X1378797D2*
X1622438D1*
X548006Y2742044D2*
X1307877D1*
X1389849D2*
X1485073D1*
X1567009D2*
X1622438D1*
X548006Y2717175D2*
X1296071D1*
X1401691D2*
X1473232D1*
X1578851D2*
X1622438D1*
X612956Y2692306D2*
X1291406D1*
X1399789D2*
X1474954D1*
X1577451D2*
X1622438D1*
X1381739Y2667438D2*
X1492681D1*
X1559761D2*
X1622438D1*
X1324253Y2642569D2*
X1622438D1*
X599213Y2617700D2*
X1622438D1*
X599213Y2592831D2*
X1622438D1*
X599213Y2567962D2*
X1622438D1*
X599213Y2543094D2*
X1622438D1*
X599213Y2518225D2*
X1622438D1*
X599213Y2493356D2*
X1622438D1*
X599213Y2468487D2*
X1622438D1*
X599213Y2443619D2*
X1622438D1*
X599213Y2418750D2*
X1622438D1*
X600863Y2393881D2*
X1622438D1*
X610731Y2369012D2*
X1622438D1*
X602693Y2344144D2*
X1622438D1*
X548652Y2319275D2*
X1622438D1*
X548652Y2294406D2*
X1490241D1*
X1547165D2*
X1622438D1*
X571977Y2269537D2*
X1465445D1*
X1571961D2*
X1622438D1*
X578149Y2244669D2*
X863918D1*
X1114904D2*
X1459237D1*
X1578169D2*
X1622438D1*
X596414Y2219800D2*
X856131D1*
X1122691D2*
X1464512D1*
X1572894D2*
X1622438D1*
X621281Y2194931D2*
X866322D1*
X1112500D2*
X1486760D1*
X1550646D2*
X1622438D1*
X646149Y2170062D2*
X870018D1*
X1149102D2*
X1337482D1*
X1571710D2*
X1622438D1*
X671017Y2145193D2*
X870018D1*
X1153480D2*
X1337482D1*
X1578133D2*
X1622438D1*
X573161Y2120325D2*
X613267D1*
X695885D2*
X882040D1*
X1138731D2*
X1337482D1*
X1573145D2*
X1622438D1*
X551487Y2095456D2*
X638135D1*
X720752D2*
X734412D1*
X1233466D2*
X1341214D1*
X1421176D2*
X1485899D1*
X1551507D2*
X1622438D1*
X571438Y2070587D2*
X663003D1*
X1233466D2*
X1362816D1*
X1399609D2*
X1465983D1*
X1571423D2*
X1622438D1*
X578149Y2045718D2*
X687870D1*
X1233466D2*
X1459273D1*
X1578133D2*
X1622438D1*
X582849Y2020850D2*
X718480D1*
X1233466D2*
X1454536D1*
X1573397D2*
X1622438D1*
X607717Y1995981D2*
X734412D1*
X1233466D2*
X1429668D1*
X1552297D2*
X1622438D1*
X632585Y1971112D2*
X734412D1*
X1233466D2*
X1404801D1*
X1571136D2*
X1622438D1*
X657453Y1946243D2*
X752749D1*
X1231636D2*
X1379933D1*
X1578097D2*
X1622438D1*
X682320Y1921375D2*
X777617D1*
X1231636D2*
X1355065D1*
X1437683D2*
X1463794D1*
X1573612D2*
X1622438D1*
X707188Y1896506D2*
X802484D1*
X1231636D2*
X1330197D1*
X1412815D2*
X1484284D1*
X1553086D2*
X1622438D1*
X732056Y1871637D2*
X831228D1*
X1231636D2*
X1305330D1*
X1387947D2*
X1466557D1*
X1570849D2*
X1622438D1*
X756924Y1846768D2*
X831228D1*
X1231636D2*
X1280462D1*
X1363079D2*
X1459309D1*
X1578097D2*
X1622438D1*
X781791Y1821899D2*
X1134341D1*
X1338212D2*
X1463579D1*
X1573827D2*
X1622438D1*
X806659Y1797031D2*
X1109474D1*
X1313344D2*
X1483530D1*
X1553876D2*
X1622438D1*
X831527Y1772162D2*
X1084606D1*
X1167223D2*
X1466844D1*
X1570562D2*
X1622438D1*
X856395Y1747293D2*
X1066054D1*
X1267053D2*
X1437240D1*
X1578061D2*
X1622438D1*
X1290019Y1722424D2*
X1412372D1*
X1574042D2*
X1622438D1*
X1292997Y1697556D2*
X1387504D1*
X1470122D2*
X1482813D1*
X1554593D2*
X1622438D1*
X1292997Y1672687D2*
X1362637D1*
X1445254D2*
X1467167D1*
X1570239D2*
X1622438D1*
X1292997Y1647818D2*
X1337769D1*
X1420386D2*
X1459380D1*
X1578026D2*
X1622438D1*
X1292997Y1622949D2*
X1312901D1*
X1395519D2*
X1463148D1*
X1574258D2*
X1622438D1*
X1370651Y1598081D2*
X1482095D1*
X1555311D2*
X1622438D1*
X1569916Y1573212D2*
X1622438D1*
X1577990Y1548343D2*
X1622438D1*
X1281694Y1523474D2*
X1301275D1*
X1574473D2*
X1622438D1*
X1273979Y1498606D2*
X1301275D1*
X1555993D2*
X1622438D1*
X1099761Y1473737D2*
X1301275D1*
X1569593D2*
X1622438D1*
X1099761Y1448868D2*
X1288823D1*
X1577918D2*
X1622438D1*
X1122906Y1423999D2*
X1263955D1*
X1574652D2*
X1622438D1*
X1011737Y1399130D2*
X1027155D1*
X1556674D2*
X1622438D1*
X986870Y1374262D2*
X1052023D1*
X1569270D2*
X1622438D1*
X962002Y1349393D2*
X1076891D1*
X1577882D2*
X1622438D1*
X937134Y1324524D2*
X1101759D1*
X1574832D2*
X1622438D1*
X912266Y1299655D2*
X1126626D1*
X1557320D2*
X1622438D1*
X887399Y1274787D2*
X1151494D1*
X1568947D2*
X1622438D1*
X862531Y1249918D2*
X1176362D1*
X1577810D2*
X1622438D1*
X837663Y1225049D2*
X1201230D1*
X1575011D2*
X1622438D1*
X557946Y1200180D2*
X730178D1*
X812795D2*
X1226097D1*
X1557966D2*
X1622438D1*
X568603Y1175312D2*
X705310D1*
X1234650D2*
X1250965D1*
X1568588D2*
X1622438D1*
X577754Y1150443D2*
X680442D1*
X763060D2*
X788167D1*
X1259518D2*
X1275833D1*
X1577774D2*
X1622438D1*
X575206Y1125574D2*
X655575D1*
X738192D2*
X788167D1*
X1170991D2*
X1201768D1*
X1284385D2*
X1300700D1*
X1575191D2*
X1622438D1*
X558556Y1100705D2*
X630707D1*
X713324D2*
X788167D1*
X867734D2*
X969920D1*
X1170991D2*
X1226636D1*
X1309253D2*
X1325568D1*
X1558576D2*
X1622438D1*
X427471Y1075836D2*
X445257D1*
X568245D2*
X605839D1*
X688457D2*
X788167D1*
X867734D2*
X969920D1*
X1170991D2*
X1251503D1*
X1334121D2*
X1350436D1*
X1568229D2*
X1622438D1*
X427471Y1050968D2*
X459719D1*
X577718D2*
X597622D1*
X663589D2*
X797999D1*
X857866D2*
X969920D1*
X1161123D2*
X1276371D1*
X1358989D2*
X1375304D1*
X1577703D2*
X1622438D1*
X427471Y1026099D2*
X462015D1*
X575386D2*
X597622D1*
X657489D2*
X797999D1*
X857866D2*
X969920D1*
X1161123D2*
X1301239D1*
X1383856D2*
X1400171D1*
X1575370D2*
X1622438D1*
X427471Y1001230D2*
X478235D1*
X559166D2*
X597622D1*
X657489D2*
X745536D1*
X1167618D2*
X1326107D1*
X1408724D2*
X1478255D1*
X1559151D2*
X1622438D1*
X427471Y976361D2*
X469515D1*
X567886D2*
X597622D1*
X1167618D2*
X1252580D1*
X1417372D2*
X1469536D1*
X1567870D2*
X1622438D1*
X427471Y951493D2*
X459790D1*
X1167618D2*
X1252185D1*
X1417372D2*
X1459775D1*
X1577631D2*
X1622438D1*
X427471Y926624D2*
X461872D1*
X642920D2*
X663792D1*
X1167618D2*
X1252185D1*
X1417372D2*
X1461856D1*
X1575550D2*
X1622438D1*
X427471Y901755D2*
X477661D1*
X618052D2*
X663792D1*
X1167618D2*
X1252580D1*
X1420709D2*
X1477645D1*
X1559761D2*
X1622438D1*
X427471Y876886D2*
X469910D1*
X593184D2*
X753395D1*
X813262D2*
X828070D1*
X909324D2*
X926249D1*
X986152D2*
X1003077D1*
X1128074D2*
X1363283D1*
X1445577D2*
X1469894D1*
X1567512D2*
X1622438D1*
X427471Y852018D2*
X459862D1*
X577539D2*
X753395D1*
X1125203D2*
X1387827D1*
X1577559D2*
X1622438D1*
X427471Y827149D2*
X461692D1*
X575708D2*
X762689D1*
X845306D2*
X918390D1*
X994010D2*
X1391416D1*
X1575693D2*
X1622438D1*
X427471Y802280D2*
X477087D1*
X560314D2*
X787557D1*
X870174D2*
X1391416D1*
X1560299D2*
X1622438D1*
X427471Y777411D2*
X470269D1*
X567132D2*
X812424D1*
X895042D2*
X1391416D1*
X1567117D2*
X1622438D1*
X427471Y752543D2*
X459934D1*
X577467D2*
X837292D1*
X1577487D2*
X1622438D1*
X427471Y727674D2*
X461549D1*
X575852D2*
X862160D1*
X1575873D2*
X1622438D1*
X427471Y702805D2*
X476548D1*
X560852D2*
X1391416D1*
X1560873D2*
X1622438D1*
X427471Y677936D2*
X470663D1*
X566737D2*
X1470684D1*
X1566722D2*
X1622438D1*
X427471Y653067D2*
X460006D1*
X577395D2*
X1460026D1*
X1577380D2*
X1622438D1*
X427471Y628199D2*
X461405D1*
X576031D2*
X677285D1*
X798190D2*
X1288895D1*
X1409801D2*
X1461390D1*
X1576016D2*
X1622438D1*
X427471Y603330D2*
X476010D1*
X561391D2*
X677285D1*
X798190D2*
X814183D1*
X882949D2*
X1128636D1*
X1197402D2*
X1288895D1*
X1409801D2*
X1475995D1*
X1561375D2*
X1622438D1*
X427471Y578461D2*
X471058D1*
X566343D2*
X677285D1*
X906166D2*
X1105455D1*
X1220619D2*
X1288895D1*
X1409801D2*
X1471079D1*
X1566327D2*
X1622438D1*
X427471Y553592D2*
X460113D1*
X577287D2*
X677285D1*
X912840D2*
X1098780D1*
X1227294D2*
X1288895D1*
X1409801D2*
X1460098D1*
X1577308D2*
X1622438D1*
X427471Y528724D2*
X461226D1*
X576175D2*
X677285D1*
X909001D2*
X1102584D1*
X1223454D2*
X1288895D1*
X1409801D2*
X1461246D1*
X1576160D2*
X1622438D1*
X427471Y503855D2*
X475508D1*
X561929D2*
X677285D1*
X891848D2*
X1119737D1*
X1206301D2*
X1288895D1*
X1409801D2*
X1475492D1*
X1561914D2*
X1622438D1*
X427471Y478986D2*
X471489D1*
X565912D2*
X1471473D1*
X1565933D2*
X1622438D1*
X427471Y454117D2*
X460185D1*
X577216D2*
X1460206D1*
X1577200D2*
X1622438D1*
X440820Y429249D2*
X461118D1*
X576319D2*
X1461103D1*
X1576303D2*
X1618634D1*
X1230982Y2017440D2*
Y1966262D1*
X1225205D1*
X1225207Y1964871D1*
X1229145Y1959314D1*
Y1841448D1*
X833719D1*
X833506Y1873702D1*
X829411Y1875033D1*
X825575Y1876987D1*
X822092Y1879518D1*
X754795Y1946695D1*
X751999Y1949969D1*
X749749Y1953640D1*
X748102Y1957618D1*
X747097Y1961804D1*
X746759Y1966105D1*
X736916Y1966261D1*
Y2017181D1*
X731352Y2017680D1*
X725401Y2019109D1*
X719747Y2021451D1*
X714529Y2024648D1*
X709876Y2028623D1*
X705743Y2033311D1*
X701907Y2035265D1*
X698424Y2037796D1*
X625389Y2110711D1*
X571825Y2164276D1*
X574093Y2156998D1*
X575491Y2148169D1*
Y2139231D1*
X574093Y2130402D1*
X571331Y2121901D1*
X567273Y2113936D1*
X562019Y2106704D1*
X555698Y2100384D1*
X548466Y2095130D1*
X545951Y2093721D1*
X552185Y2089785D1*
X558982Y2083980D1*
X564788Y2077183D1*
X569458Y2069561D1*
X572879Y2061303D1*
X574966Y2052611D1*
X575667Y2043700D1*
X574966Y2034789D1*
X573367Y2027829D1*
X870223Y1730981D1*
X973239Y1730932D1*
X1050011D1*
X1067936Y1730968D1*
X1068056Y1743809D1*
X1068729Y1748062D1*
X1070060Y1752156D1*
X1072014Y1755993D1*
X1074545Y1759476D1*
X1136452Y1821503D1*
X1139726Y1824299D1*
X1143397Y1826548D1*
X1147375Y1828196D1*
X1151561Y1829201D1*
X1155853Y1829539D1*
X1265767D1*
X1464019Y2027818D1*
X1462439Y2034789D1*
X1461738Y2043700D1*
X1462439Y2052611D1*
X1464526Y2061303D1*
X1467947Y2069561D1*
X1472617Y2077183D1*
X1478422Y2083980D1*
X1485219Y2089785D1*
X1491454Y2093679D1*
X1485219Y2097615D1*
X1478422Y2103420D1*
X1473601Y2108968D1*
X1473599Y2106420D1*
X1420202Y2106200D1*
X1419722Y2100099D1*
X1418294Y2094148D1*
X1415952Y2088494D1*
X1412754Y2083276D1*
X1408779Y2078623D1*
X1404126Y2074648D1*
X1398908Y2071451D1*
X1393254Y2069109D1*
X1387303Y2067680D1*
X1381202Y2067200D1*
X1375101Y2067680D1*
X1369151Y2069109D1*
X1363497Y2071451D1*
X1358279Y2074648D1*
X1353625Y2078623D1*
X1349651Y2083276D1*
X1346453Y2088494D1*
X1344111Y2094148D1*
X1342682Y2100099D1*
X1342211Y2106427D1*
X1339985Y2106420D1*
Y2180979D1*
X1473599Y2180980D1*
Y2178504D1*
X1478422Y2183980D1*
X1485219Y2189785D1*
X1491454Y2193679D1*
X1485493Y2197417D1*
X1479814Y2202074D1*
X1474782Y2207423D1*
X1470480Y2213375D1*
X1466979Y2219831D1*
X1464339Y2226684D1*
X1462601Y2233820D1*
X1461796Y2241119D1*
X1461937Y2248462D1*
X1463022Y2255725D1*
X1465031Y2262789D1*
X1467933Y2269535D1*
X1471679Y2275852D1*
X1476206Y2281635D1*
X1481440Y2286787D1*
X1487293Y2291223D1*
X1493668Y2294869D1*
X1500459Y2297664D1*
X1507553Y2299563D1*
X1514833Y2300533D1*
X1522177Y2300558D1*
X1529463Y2299639D1*
X1536571Y2297790D1*
X1543381Y2295041D1*
X1549781Y2291440D1*
X1555665Y2287045D1*
X1560934Y2281929D1*
X1565501Y2276178D1*
X1569291Y2269887D1*
X1572239Y2263161D1*
X1574298Y2256112D1*
X1575433Y2248856D1*
X1575637Y2241863D1*
X1574928Y2234553D1*
X1573284Y2227396D1*
X1570733Y2220509D1*
X1567317Y2214008D1*
X1563093Y2208000D1*
X1558131Y2202586D1*
X1552514Y2197855D1*
X1545986Y2193700D1*
X1552185Y2189785D1*
X1558982Y2183980D1*
X1564788Y2177183D1*
X1569458Y2169561D1*
X1572879Y2161303D1*
X1574966Y2152611D1*
X1575667Y2143700D1*
X1574966Y2134789D1*
X1572879Y2126097D1*
X1569458Y2117839D1*
X1564788Y2110217D1*
X1558982Y2103420D1*
X1552185Y2097615D1*
X1545951Y2093721D1*
X1552185Y2089785D1*
X1558982Y2083980D1*
X1564788Y2077183D1*
X1569458Y2069561D1*
X1572879Y2061303D1*
X1574966Y2052611D1*
X1575667Y2043700D1*
X1574966Y2034789D1*
X1572879Y2026097D1*
X1569458Y2017839D1*
X1564788Y2010217D1*
X1558982Y2003420D1*
X1552185Y1997615D1*
X1545951Y1993721D1*
X1552185Y1989785D1*
X1558982Y1983980D1*
X1564788Y1977183D1*
X1569458Y1969561D1*
X1572879Y1961303D1*
X1574966Y1952611D1*
X1575667Y1943700D1*
X1574966Y1934789D1*
X1572879Y1926097D1*
X1569458Y1917839D1*
X1564788Y1910217D1*
X1558982Y1903420D1*
X1552185Y1897615D1*
X1545951Y1893721D1*
X1552185Y1889785D1*
X1558982Y1883980D1*
X1564788Y1877183D1*
X1569458Y1869561D1*
X1572879Y1861303D1*
X1574966Y1852611D1*
X1575667Y1843700D1*
X1574966Y1834789D1*
X1572879Y1826097D1*
X1569458Y1817839D1*
X1564788Y1810217D1*
X1558982Y1803420D1*
X1552185Y1797615D1*
X1545951Y1793721D1*
X1552185Y1789785D1*
X1558982Y1783980D1*
X1564788Y1777183D1*
X1569458Y1769561D1*
X1572879Y1761303D1*
X1574966Y1752611D1*
X1575667Y1743700D1*
X1574966Y1734789D1*
X1572879Y1726097D1*
X1569458Y1717839D1*
X1564788Y1710217D1*
X1558982Y1703420D1*
X1552185Y1697615D1*
X1545951Y1693721D1*
X1551304Y1690413D1*
X1557043Y1685830D1*
X1562145Y1680547D1*
X1566524Y1674652D1*
X1570109Y1668242D1*
X1572839Y1661425D1*
X1574670Y1654312D1*
X1575570Y1647024D1*
X1575548Y1640028D1*
X1574604Y1632745D1*
X1572730Y1625644D1*
X1569958Y1618843D1*
X1566334Y1612456D1*
X1561918Y1606587D1*
X1556784Y1601336D1*
X1551018Y1596789D1*
X1545986Y1593700D1*
X1552185Y1589785D1*
X1558982Y1583980D1*
X1564788Y1577183D1*
X1569458Y1569561D1*
X1572879Y1561303D1*
X1574966Y1552611D1*
X1575667Y1543700D1*
X1574966Y1534789D1*
X1572879Y1526097D1*
X1569458Y1517839D1*
X1564788Y1510217D1*
X1558982Y1503420D1*
X1552185Y1497615D1*
X1545951Y1493721D1*
X1552185Y1489785D1*
X1558982Y1483980D1*
X1564788Y1477183D1*
X1569458Y1469561D1*
X1572879Y1461303D1*
X1574966Y1452611D1*
X1575667Y1443700D1*
X1574966Y1434789D1*
X1572879Y1426097D1*
X1569458Y1417839D1*
X1564788Y1410217D1*
X1558982Y1403420D1*
X1552185Y1397615D1*
X1545951Y1393721D1*
X1552185Y1389785D1*
X1558982Y1383980D1*
X1564788Y1377183D1*
X1569458Y1369561D1*
X1572879Y1361303D1*
X1574966Y1352611D1*
X1575667Y1343700D1*
X1574966Y1334789D1*
X1572879Y1326097D1*
X1569458Y1317839D1*
X1564788Y1310217D1*
X1558982Y1303420D1*
X1552185Y1297615D1*
X1545951Y1293721D1*
X1552185Y1289785D1*
X1558982Y1283980D1*
X1564788Y1277183D1*
X1569458Y1269561D1*
X1572879Y1261303D1*
X1574966Y1252611D1*
X1575667Y1243700D1*
X1574966Y1234789D1*
X1572879Y1226097D1*
X1569458Y1217839D1*
X1564788Y1210217D1*
X1558982Y1203420D1*
X1552185Y1197615D1*
X1545951Y1193721D1*
X1552185Y1189785D1*
X1558982Y1183980D1*
X1564788Y1177183D1*
X1569458Y1169561D1*
X1572879Y1161303D1*
X1574966Y1152611D1*
X1575667Y1143700D1*
X1574966Y1134789D1*
X1572879Y1126097D1*
X1569458Y1117839D1*
X1564788Y1110217D1*
X1558982Y1103420D1*
X1552185Y1097615D1*
X1545951Y1093721D1*
X1552185Y1089785D1*
X1558982Y1083980D1*
X1564788Y1077183D1*
X1569458Y1069561D1*
X1572879Y1061303D1*
X1574966Y1052611D1*
X1575667Y1043700D1*
X1574966Y1034789D1*
X1572879Y1026097D1*
X1569458Y1017839D1*
X1564788Y1010217D1*
X1558982Y1003420D1*
X1552185Y997615D1*
X1545951Y993721D1*
X1552185Y989785D1*
X1558982Y983980D1*
X1564788Y977183D1*
X1569458Y969561D1*
X1572879Y961303D1*
X1574966Y952611D1*
X1575667Y943700D1*
X1574966Y934789D1*
X1572879Y926097D1*
X1569458Y917839D1*
X1564788Y910217D1*
X1558982Y903420D1*
X1552185Y897615D1*
X1545951Y893721D1*
X1552185Y889785D1*
X1558982Y883980D1*
X1564788Y877183D1*
X1569458Y869561D1*
X1572879Y861303D1*
X1574966Y852611D1*
X1575667Y843700D1*
X1574966Y834789D1*
X1572879Y826097D1*
X1569458Y817839D1*
X1564788Y810217D1*
X1558982Y803420D1*
X1552185Y797615D1*
X1545951Y793721D1*
X1552185Y789785D1*
X1558982Y783980D1*
X1564788Y777183D1*
X1569458Y769561D1*
X1572879Y761303D1*
X1574966Y752611D1*
X1575667Y743700D1*
X1574966Y734789D1*
X1572879Y726097D1*
X1569458Y717839D1*
X1564788Y710217D1*
X1558982Y703420D1*
X1552185Y697615D1*
X1545951Y693721D1*
X1552185Y689785D1*
X1558982Y683980D1*
X1564788Y677183D1*
X1569458Y669561D1*
X1572879Y661303D1*
X1574966Y652611D1*
X1575667Y643700D1*
X1574966Y634789D1*
X1572879Y626097D1*
X1569458Y617839D1*
X1564788Y610217D1*
X1558982Y603420D1*
X1552185Y597615D1*
X1545951Y593721D1*
X1552185Y589785D1*
X1558982Y583980D1*
X1564788Y577183D1*
X1569458Y569561D1*
X1572879Y561303D1*
X1574966Y552611D1*
X1575667Y543700D1*
X1574966Y534789D1*
X1572879Y526097D1*
X1569458Y517839D1*
X1564788Y510217D1*
X1558982Y503420D1*
X1552185Y497615D1*
X1545951Y493721D1*
X1552185Y489785D1*
X1558982Y483980D1*
X1564788Y477183D1*
X1569458Y469561D1*
X1572879Y461303D1*
X1574966Y452611D1*
X1575667Y443700D1*
X1574966Y434789D1*
X1572879Y426097D1*
X1572449Y424933D1*
X1618294Y424949D1*
X1624949Y434981D1*
X1624952Y3234796D1*
X1622480Y3226039D1*
X1619307Y3217420D1*
X1615470Y3209077D1*
X1610990Y3201059D1*
X1605897Y3193417D1*
X1600221Y3186197D1*
X1593997Y3179443D1*
X1587263Y3173198D1*
X1580061Y3167499D1*
X1572435Y3162382D1*
X1564432Y3157877D1*
X1556100Y3154013D1*
X1547492Y3150813D1*
X1538659Y3148297D1*
X1529657Y3146480D1*
X1520540Y3145374D1*
X1511364Y3144985D1*
X1502186Y3145316D1*
X1493062Y3146364D1*
X1484048Y3148124D1*
X1475200Y3150584D1*
X1466571Y3153729D1*
X1458215Y3157540D1*
X1450183Y3161994D1*
X1442525Y3167063D1*
X1435287Y3172716D1*
X1428514Y3178919D1*
X1422247Y3185633D1*
X1416526Y3192817D1*
X1411384Y3200426D1*
X1406854Y3208415D1*
X1402963Y3216735D1*
X1399736Y3225333D1*
X1397192Y3234158D1*
X1395347Y3243154D1*
X1394212Y3252268D1*
X1393794Y3261442D1*
X1394096Y3270621D1*
X1395115Y3279749D1*
X1396846Y3288768D1*
X1399278Y3297624D1*
X1402396Y3306263D1*
X1406181Y3314631D1*
X1410609Y3322677D1*
X1415654Y3330351D1*
X1421284Y3337607D1*
X1427465Y3344400D1*
X1434159Y3350687D1*
X1441324Y3356432D1*
X1448918Y3361598D1*
X1456892Y3366153D1*
X1465199Y3370070D1*
X1473787Y3373324D1*
X1482604Y3375896D1*
X1491595Y3377770D1*
X1500705Y3378934D1*
X1509878Y3379381D1*
X1519058Y3379108D1*
X1528188Y3378118D1*
X1537213Y3376416D1*
X1546077Y3374012D1*
X1554725Y3370921D1*
X1563105Y3367163D1*
X1571165Y3362760D1*
X1578855Y3357740D1*
X1586129Y3352133D1*
X1592941Y3345973D1*
X1599250Y3339299D1*
X1605017Y3332152D1*
X1610207Y3324575D1*
X1614788Y3316615D1*
X1618731Y3308320D1*
X1622013Y3299743D1*
X1624947Y3289355D1*
X1624952Y3601004D1*
X1613530Y3612445D1*
X436354Y3612451D1*
X424959Y3601028D1*
X424953Y3319593D1*
X431795Y3330351D1*
X437425Y3337607D1*
X443606Y3344400D1*
X450300Y3350687D1*
X457466Y3356432D1*
X465060Y3361598D1*
X473034Y3366153D1*
X481341Y3370070D1*
X489929Y3373324D1*
X498746Y3375896D1*
X507736Y3377770D1*
X516846Y3378934D1*
X526019Y3379381D1*
X535199Y3379108D1*
X544330Y3378118D1*
X553355Y3376416D1*
X562219Y3374012D1*
X570867Y3370921D1*
X579247Y3367163D1*
X587307Y3362760D1*
X594997Y3357740D1*
X602271Y3352133D1*
X609083Y3345973D1*
X615392Y3339299D1*
X621159Y3332152D1*
X626349Y3324575D1*
X630929Y3316615D1*
X634873Y3308320D1*
X638154Y3299743D1*
X640754Y3290934D1*
X642656Y3281949D1*
X643849Y3272843D1*
X644335Y3262185D1*
X643975Y3253009D1*
X642898Y3243888D1*
X641110Y3234880D1*
X638622Y3226039D1*
X635449Y3217420D1*
X631611Y3209077D1*
X627132Y3201059D1*
X622039Y3193417D1*
X616363Y3186197D1*
X610139Y3179443D1*
X603405Y3173198D1*
X596203Y3167499D1*
X588577Y3162382D1*
X580574Y3157877D1*
X572242Y3154013D1*
X563634Y3150813D1*
X554801Y3148297D1*
X545799Y3146480D1*
X536681Y3145374D1*
X527506Y3144985D1*
X518328Y3145316D1*
X509204Y3146364D1*
X500190Y3148124D1*
X491341Y3150584D1*
X482713Y3153729D1*
X474357Y3157540D1*
X466325Y3161994D1*
X458667Y3167063D1*
X451429Y3172716D1*
X444656Y3178919D1*
X438389Y3185633D1*
X432667Y3192817D1*
X427526Y3200426D1*
X424960Y3204951D1*
X424953Y442616D1*
X442610Y424971D1*
X464904Y424949D1*
X463312Y430402D1*
X461913Y439231D1*
Y448169D1*
X463312Y456998D1*
X466074Y465499D1*
X470132Y473464D1*
X475386Y480696D1*
X481707Y487016D1*
X488938Y492270D1*
X491454Y493679D1*
X485219Y497615D1*
X478422Y503420D1*
X472617Y510217D1*
X467947Y517839D1*
X464526Y526097D1*
X462439Y534789D1*
X461738Y543700D1*
X462439Y552611D1*
X464526Y561303D1*
X467947Y569561D1*
X472617Y577183D1*
X478422Y583980D1*
X485219Y589785D1*
X491454Y593679D1*
X485219Y597615D1*
X478422Y603420D1*
X472617Y610217D1*
X467947Y617839D1*
X464526Y626097D1*
X462439Y634789D1*
X461738Y643700D1*
X462439Y652611D1*
X464526Y661303D1*
X467947Y669561D1*
X472617Y677183D1*
X478422Y683980D1*
X485219Y689785D1*
X491454Y693679D1*
X485219Y697615D1*
X478422Y703420D1*
X472617Y710217D1*
X467947Y717839D1*
X464526Y726097D1*
X462439Y734789D1*
X461738Y743700D1*
X462439Y752611D1*
X464526Y761303D1*
X467947Y769561D1*
X472617Y777183D1*
X478422Y783980D1*
X485219Y789785D1*
X491454Y793679D1*
X485219Y797615D1*
X478422Y803420D1*
X472617Y810217D1*
X467947Y817839D1*
X464526Y826097D1*
X462439Y834789D1*
X461738Y843700D1*
X462439Y852611D1*
X464526Y861303D1*
X467947Y869561D1*
X472617Y877183D1*
X478422Y883980D1*
X485219Y889785D1*
X491454Y893679D1*
X485493Y897417D1*
X479814Y902074D1*
X474782Y907423D1*
X470480Y913375D1*
X466979Y919831D1*
X464339Y926684D1*
X462601Y933820D1*
X461796Y941119D1*
X461937Y948462D1*
X463022Y955725D1*
X465031Y962789D1*
X467933Y969535D1*
X471679Y975852D1*
X476206Y981635D1*
X481440Y986787D1*
X487293Y991223D1*
X491421Y993699D1*
X485219Y997615D1*
X478422Y1003420D1*
X472617Y1010217D1*
X467947Y1017839D1*
X464526Y1026097D1*
X462439Y1034789D1*
X461738Y1043700D1*
X462439Y1052611D1*
X464037Y1059571D1*
X436621Y1087099D1*
X434091Y1090582D1*
X432136Y1094418D1*
X430805Y1098513D1*
X430132Y1102765D1*
X430047Y1205968D1*
X430132Y2840153D1*
X430805Y2844406D1*
X432136Y2848500D1*
X434091Y2852336D1*
X436621Y2855819D1*
X509537Y2928855D1*
X526616Y2945814D1*
X530099Y2948345D1*
X533935Y2950299D1*
X538030Y2951630D1*
X542282Y2952303D1*
X563776Y2952388D1*
X563805Y2962230D1*
X697419D1*
Y2852978D1*
X726086Y2853010D1*
X762783Y2889563D1*
X766266Y2892094D1*
X770102Y2894049D1*
X774196Y2895379D1*
X778449Y2896052D1*
X821258Y2896137D1*
X816572Y2897514D1*
X771279Y2897373D1*
X766626Y2893399D1*
X761408Y2890201D1*
X755754Y2887859D1*
X749803Y2886431D1*
X743702Y2885951D1*
X737601Y2886431D1*
X731651Y2887859D1*
X725997Y2890201D1*
X720779Y2893399D1*
X716125Y2897373D1*
X712151Y2902027D1*
X708953Y2907245D1*
X706611Y2912899D1*
X705182Y2918850D1*
X704702Y2924951D1*
X705182Y2931052D1*
X706611Y2937002D1*
X708953Y2942656D1*
X712151Y2947874D1*
X716125Y2952528D1*
X720779Y2956502D1*
X725997Y2959700D1*
X731651Y2962042D1*
X737601Y2963471D1*
X743702Y2963951D1*
X749803Y2963471D1*
X755754Y2962042D1*
X761408Y2959700D1*
X766626Y2956502D1*
X771401Y2952396D1*
X821320Y2952388D1*
X821288Y2962229D1*
X954902D1*
Y2831420D1*
X821288D1*
Y2841288D1*
X791992Y2841263D1*
X755293Y2804709D1*
X751810Y2802179D1*
X747974Y2800224D1*
X743879Y2798894D1*
X739627Y2798220D1*
X638923Y2798136D1*
X634631Y2798474D1*
X630445Y2799479D1*
X626467Y2801126D1*
X622796Y2803376D1*
X619522Y2806172D1*
X594275Y2831419D1*
X563805Y2831420D1*
Y2839064D1*
X545502Y2820753D1*
X545512Y2699033D1*
X610473Y2699024D1*
Y2686859D1*
X1288414Y2686835D1*
X1299035Y2697449D1*
X1297969Y2704476D1*
Y2712488D1*
X1299222Y2720402D1*
X1301698Y2728022D1*
X1305335Y2735160D1*
X1310045Y2741642D1*
X1315710Y2747308D1*
X1321424Y2751504D1*
X1321433Y2921311D1*
X1315710Y2925562D1*
X1310045Y2931227D1*
X1305335Y2937709D1*
X1301698Y2944848D1*
X1299222Y2952468D1*
X1297969Y2960382D1*
Y2968394D1*
X1299222Y2976307D1*
X1301698Y2983927D1*
X1305335Y2991066D1*
X1310045Y2997548D1*
X1315710Y3003213D1*
X1322192Y3007923D1*
X1329331Y3011560D1*
X1336951Y3014036D1*
X1344864Y3015289D1*
X1352876D1*
X1360790Y3014036D1*
X1368410Y3011560D1*
X1375549Y3007923D1*
X1382031Y3003213D1*
X1387696Y2997548D1*
X1392405Y2991066D1*
X1396043Y2983927D1*
X1398519Y2976307D1*
X1399772Y2968394D1*
Y2960382D1*
X1398519Y2952468D1*
X1396043Y2944848D1*
X1392405Y2937709D1*
X1387696Y2931227D1*
X1382031Y2925562D1*
X1376317Y2921366D1*
X1376307Y2751559D1*
X1382031Y2747308D1*
X1387696Y2741642D1*
X1392405Y2735160D1*
X1396043Y2728022D1*
X1398519Y2720402D1*
X1399772Y2712488D1*
Y2704476D1*
X1398519Y2696563D1*
X1396043Y2688943D1*
X1392405Y2681804D1*
X1387696Y2675322D1*
X1382031Y2669657D1*
X1375549Y2664947D1*
X1368410Y2661310D1*
X1360790Y2658834D1*
X1352876Y2657580D1*
X1344864D1*
X1337857Y2658654D1*
X1317605Y2638535D1*
X1314122Y2636004D1*
X1310286Y2634050D1*
X1306191Y2632719D1*
X1301939Y2632046D1*
X1198736Y2631961D1*
X610487D1*
X610473Y2624465D1*
X596729D1*
X596696Y2395614D1*
X600810Y2390830D1*
X604008Y2385612D1*
X606350Y2379958D1*
X607779Y2374007D1*
X608259Y2367906D1*
X607779Y2361805D1*
X606350Y2355854D1*
X604008Y2350200D1*
X600810Y2344982D1*
X596836Y2340329D1*
X592182Y2336354D1*
X586964Y2333157D1*
X581310Y2330815D1*
X575360Y2329386D1*
X569259Y2328906D1*
X563158Y2329386D1*
X557207Y2330815D1*
X551553Y2333157D1*
X546138Y2336510D1*
X546139Y2293627D1*
X552185Y2289785D1*
X558982Y2283980D1*
X564788Y2277183D1*
X569458Y2269561D1*
X572879Y2261303D1*
X574966Y2252611D1*
X575667Y2243700D1*
X575382Y2238311D1*
X721801Y2091903D1*
X728349Y2094122D1*
X734393Y2095080D1*
X736915Y2095179D1*
X736917Y2099876D1*
X888841D1*
X888837Y2116009D1*
X879088Y2125881D1*
X876558Y2129364D1*
X874603Y2133200D1*
X873273Y2137295D1*
X872599Y2141547D1*
X872514Y2191390D1*
X867961Y2195921D1*
X864364Y2200872D1*
X861586Y2206325D1*
X859695Y2212145D1*
X858737Y2218190D1*
Y2224310D1*
X859695Y2230354D1*
X861586Y2236175D1*
X864364Y2241627D1*
X867961Y2246578D1*
X872289Y2250906D1*
X877240Y2254503D1*
X882692Y2257281D1*
X888513Y2259172D1*
X894557Y2260130D1*
X900677D1*
X906721Y2259172D1*
X912542Y2257281D1*
X917994Y2254503D1*
X922945Y2250906D1*
X927273Y2246578D1*
X929627Y2243487D1*
X933780Y2248402D1*
X938434Y2252376D1*
X943652Y2255574D1*
X949306Y2257916D1*
X955256Y2259345D1*
X961357Y2259825D1*
X967458Y2259345D1*
X973409Y2257916D1*
X979063Y2255574D1*
X984281Y2252376D1*
X988934Y2248402D1*
X991435Y2245618D1*
X996551Y2250906D1*
X1001502Y2254503D1*
X1006955Y2257281D1*
X1012775Y2259172D1*
X1018820Y2260130D1*
X1024939D1*
X1030984Y2259172D1*
X1036804Y2257281D1*
X1042257Y2254503D1*
X1047208Y2250906D1*
X1051546Y2246578D1*
X1055874Y2250906D1*
X1060825Y2254503D1*
X1066278Y2257281D1*
X1072098Y2259172D1*
X1078142Y2260130D1*
X1084262D1*
X1090307Y2259172D1*
X1096127Y2257281D1*
X1101580Y2254503D1*
X1106531Y2250906D1*
X1110858Y2246578D1*
X1114455Y2241627D1*
X1117234Y2236175D1*
X1119125Y2230354D1*
X1120082Y2224310D1*
Y2218190D1*
X1119125Y2212145D1*
X1117234Y2206325D1*
X1114455Y2200872D1*
X1110858Y2195921D1*
X1106296Y2191347D1*
X1106352Y2189749D1*
X1112453Y2190229D1*
X1118554Y2189749D1*
X1124505Y2188320D1*
X1130159Y2185978D1*
X1135377Y2182781D1*
X1140030Y2178806D1*
X1144005Y2174152D1*
X1147202Y2168935D1*
X1149544Y2163281D1*
X1150973Y2157330D1*
X1151453Y2151229D1*
X1150973Y2145128D1*
X1149544Y2139177D1*
X1147202Y2133523D1*
X1144005Y2128305D1*
X1140030Y2123652D1*
X1135377Y2119677D1*
X1129474Y2116164D1*
X1122846Y2109532D1*
Y2098683D1*
X1156421Y2098695D1*
X1156423Y2099876D1*
X1230982D1*
X1230946Y2017443D1*
X1271478Y1515776D2*
Y1476081D1*
X1196919D1*
X1196382Y1476367D1*
X1121168Y1476229D1*
X1097545Y1476367D1*
Y1609981D1*
X1098514D1*
X1098479Y1613108D1*
X1097225Y1613101D1*
X1097255Y1447148D1*
X1125377Y1419015D1*
X1261413Y1418990D1*
X1303772Y1461321D1*
X1303850Y1602102D1*
X1304523Y1606354D1*
X1305854Y1610449D1*
X1307808Y1614285D1*
X1310339Y1617768D1*
X1383254Y1690803D1*
X1457134Y1764563D1*
X1460617Y1767094D1*
X1464453Y1769049D1*
X1466483Y1769797D1*
X1470132Y1773464D1*
X1475386Y1780696D1*
X1481707Y1787016D1*
X1488938Y1792270D1*
X1491454Y1793679D1*
X1485219Y1797615D1*
X1478422Y1803420D1*
X1472617Y1810217D1*
X1467947Y1817839D1*
X1464526Y1826097D1*
X1462439Y1834789D1*
X1461738Y1843700D1*
X1462439Y1852611D1*
X1464526Y1861303D1*
X1467947Y1869561D1*
X1472617Y1877183D1*
X1478422Y1883980D1*
X1485219Y1889785D1*
X1491454Y1893679D1*
X1485219Y1897615D1*
X1478422Y1903420D1*
X1472617Y1910217D1*
X1467947Y1917839D1*
X1464526Y1926097D1*
X1462439Y1934789D1*
X1461738Y1943700D1*
X1461911Y1948117D1*
X1294923Y1781238D1*
X1291440Y1778708D1*
X1287604Y1776753D1*
X1283509Y1775423D1*
X1279257Y1774749D1*
X1176054Y1774664D1*
X1167191D1*
X1153255Y1760701D1*
X1241907Y1760636D1*
X1246160Y1759963D1*
X1250255Y1758632D1*
X1254091Y1756678D1*
X1257574Y1754147D1*
X1282472Y1729369D1*
X1285268Y1726095D1*
X1287518Y1722424D1*
X1289165Y1718446D1*
X1290170Y1714260D1*
X1290508Y1709968D1*
X1290424Y1544017D1*
X1289750Y1539765D1*
X1288420Y1535670D1*
X1286465Y1531834D1*
X1283934Y1528351D1*
X1271485Y1515782D1*
X753372Y3263047D2*
X828765D1*
X825819Y3269689D1*
X818613Y3274924D1*
X812314Y3281223D1*
X807078Y3288430D1*
X803034Y3296367D1*
X800281Y3304839D1*
X798888Y3313637D1*
Y3322545D1*
X800281Y3331343D1*
X803034Y3339815D1*
X807078Y3347752D1*
X812314Y3354959D1*
X818613Y3361257D1*
X825819Y3366493D1*
X833756Y3370538D1*
X842228Y3373290D1*
X851027Y3374684D1*
X859934D1*
X868733Y3373290D1*
X877205Y3370538D1*
X885142Y3366493D1*
X892348Y3361257D1*
X898647Y3354959D1*
X903883Y3347752D1*
X907927Y3339815D1*
X909985Y3333807D1*
X912089Y3339815D1*
X916133Y3347752D1*
X921369Y3354959D1*
X927668Y3361257D1*
X934875Y3366493D1*
X942812Y3370538D1*
X951283Y3373290D1*
X960082Y3374684D1*
X968990D1*
X977788Y3373290D1*
X986260Y3370538D1*
X994197Y3366493D1*
X1001403Y3361257D1*
X1007702Y3354959D1*
X1012938Y3347752D1*
X1016982Y3339815D1*
X1019040Y3333807D1*
X1021144Y3339815D1*
X1025188Y3347752D1*
X1030424Y3354959D1*
X1036723Y3361257D1*
X1043930Y3366493D1*
X1051867Y3370538D1*
X1060339Y3373290D1*
X1069137Y3374684D1*
X1078045D1*
X1086843Y3373290D1*
X1095315Y3370538D1*
X1103252Y3366493D1*
X1110458Y3361257D1*
X1116757Y3354959D1*
X1121993Y3347752D1*
X1126037Y3339815D1*
X1128095Y3333807D1*
X1130199Y3339815D1*
X1134243Y3347752D1*
X1139479Y3354959D1*
X1145778Y3361257D1*
X1152985Y3366493D1*
X1160922Y3370538D1*
X1169394Y3373290D1*
X1178192Y3374684D1*
X1187100D1*
X1195898Y3373290D1*
X1204370Y3370538D1*
X1212307Y3366493D1*
X1219514Y3361257D1*
X1225812Y3354959D1*
X1231048Y3347752D1*
X1235092Y3339815D1*
X1237845Y3331343D1*
X1239239Y3322545D1*
Y3313637D1*
X1237845Y3304839D1*
X1235092Y3296367D1*
X1231048Y3288430D1*
X1225812Y3281223D1*
X1219514Y3274924D1*
X1212307Y3269689D1*
X1204370Y3265644D1*
X1195898Y3262892D1*
X1187100Y3261498D1*
X1178192D1*
X1169394Y3262892D1*
X1160922Y3265644D1*
X1152985Y3269689D1*
X1145778Y3274924D1*
X1139479Y3281223D1*
X1134243Y3288430D1*
X1130199Y3296367D1*
X1128141Y3302375D1*
X1126037Y3296367D1*
X1121993Y3288430D1*
X1116757Y3281223D1*
X1110458Y3274924D1*
X1103252Y3269689D1*
X1095315Y3265644D1*
X1086843Y3262892D1*
X1078045Y3261498D1*
X1069137D1*
X1060339Y3262892D1*
X1051867Y3265644D1*
X1043930Y3269689D1*
X1040470Y3272000D1*
X1030379Y3261910D1*
X1036605Y3260269D1*
X1044835Y3256860D1*
X1052430Y3252206D1*
X1059204Y3246421D1*
X1064989Y3239647D1*
X1069644Y3232052D1*
X1073053Y3223822D1*
X1073568Y3221996D1*
X1075672Y3228004D1*
X1079716Y3235941D1*
X1084952Y3243148D1*
X1091251Y3249446D1*
X1098457Y3254682D1*
X1106394Y3258726D1*
X1114866Y3261479D1*
X1123664Y3262873D1*
X1132572D1*
X1141370Y3261479D1*
X1149842Y3258726D1*
X1157779Y3254682D1*
X1164986Y3249446D1*
X1171285Y3243148D1*
X1176521Y3235941D1*
X1180565Y3228004D1*
X1182623Y3221996D1*
X1185305Y3229351D1*
X1188718Y3235854D1*
X1192941Y3241862D1*
X1197905Y3247275D1*
X1203526Y3252001D1*
X1209710Y3255962D1*
X1216354Y3259092D1*
X1223346Y3261338D1*
X1230569Y3262662D1*
X1237903Y3263043D1*
X1245225Y3262474D1*
X1252412Y3260964D1*
X1259344Y3258539D1*
X1265905Y3255240D1*
X1271986Y3251121D1*
X1277483Y3246251D1*
X1282306Y3240713D1*
X1286373Y3234598D1*
X1289618Y3228010D1*
X1291984Y3221058D1*
X1293433Y3213858D1*
X1293941Y3206280D1*
X1293466Y3198951D1*
X1292049Y3191745D1*
X1289713Y3184783D1*
X1286499Y3178180D1*
X1282458Y3172047D1*
X1277660Y3166488D1*
X1272184Y3161594D1*
X1266122Y3157448D1*
X1259576Y3154120D1*
X1252655Y3151664D1*
X1245474Y3150122D1*
X1238155Y3149521D1*
X1230819Y3149869D1*
X1223590Y3151161D1*
X1216588Y3153376D1*
X1209930Y3156476D1*
X1203729Y3160410D1*
X1198087Y3165112D1*
X1193099Y3170502D1*
X1188849Y3176491D1*
X1185408Y3182979D1*
X1182651Y3190499D1*
X1180565Y3184556D1*
X1176521Y3176619D1*
X1171285Y3169412D1*
X1164986Y3163113D1*
X1157779Y3157878D1*
X1149842Y3153833D1*
X1141370Y3151081D1*
X1132572Y3149687D1*
X1123664D1*
X1114866Y3151081D1*
X1106394Y3153833D1*
X1098457Y3157878D1*
X1091251Y3163113D1*
X1084952Y3169412D1*
X1079716Y3176619D1*
X1075672Y3184556D1*
X1073614Y3190564D1*
X1071510Y3184556D1*
X1067466Y3176619D1*
X1062230Y3169412D1*
X1055931Y3163113D1*
X1048724Y3157878D1*
X1040787Y3153833D1*
X1032315Y3151081D1*
X1023517Y3149687D1*
X1014609D1*
X1005811Y3151081D1*
X997339Y3153833D1*
X991909Y3156474D1*
X992035Y3155628D1*
X996010Y3150974D1*
X999207Y3145756D1*
X1001549Y3140102D1*
X1002978Y3134151D1*
X1003458Y3128050D1*
X1002978Y3121949D1*
X1001549Y3115999D1*
X999207Y3110345D1*
X996010Y3105127D1*
X991693Y3100157D1*
X1053565Y3100297D1*
X1058218Y3104271D1*
X1063436Y3107469D1*
X1069090Y3109811D1*
X1075041Y3111240D1*
X1081142Y3111720D1*
X1087243Y3111240D1*
X1093194Y3109811D1*
X1098848Y3107469D1*
X1104066Y3104271D1*
X1108719Y3100297D1*
X1112694Y3095643D1*
X1115891Y3090425D1*
X1118233Y3084771D1*
X1119662Y3078821D1*
X1120142Y3072720D1*
X1119662Y3066619D1*
X1118233Y3060668D1*
X1115891Y3055014D1*
X1112694Y3049796D1*
X1108719Y3045143D1*
X1104066Y3041168D1*
X1098848Y3037970D1*
X1093194Y3035628D1*
X1087243Y3034200D1*
X1081142Y3033720D1*
X1075041Y3034200D1*
X1069090Y3035628D1*
X1063436Y3037970D1*
X1058218Y3041168D1*
X1053443Y3045274D1*
X952666Y3045367D1*
X948413Y3046041D1*
X944318Y3047371D1*
X940482Y3049326D1*
X936999Y3051856D1*
X891907Y3096828D1*
X889455Y3092073D1*
X885858Y3087122D1*
X881531Y3082795D1*
X876580Y3079198D1*
X871127Y3076419D1*
X865307Y3074528D1*
X859262Y3073571D1*
X853142D1*
X847098Y3074528D1*
X841278Y3076419D1*
X835825Y3079198D1*
X830874Y3082795D1*
X826546Y3087122D1*
X822949Y3092073D1*
X820171Y3097526D1*
X818280Y3103346D1*
X817323Y3109391D1*
Y3115511D1*
X818280Y3121555D1*
X820171Y3127375D1*
X822949Y3132828D1*
X826546Y3137779D1*
X828757Y3140150D1*
X827502Y3145403D1*
X821844Y3144218D1*
X811540Y3142658D1*
X806101Y3142872D1*
X793695Y3144909D1*
X788588Y3146793D1*
X783250Y3149513D1*
X744185Y3149512D1*
Y3263047D1*
X753372D1*
X1358610Y1580979D2*
X1473600D1*
Y1578503D1*
X1478422Y1583980D1*
X1485219Y1589785D1*
X1491454Y1593679D1*
X1485493Y1597417D1*
X1479814Y1602074D1*
X1474782Y1607423D1*
X1470480Y1613375D1*
X1466979Y1619831D1*
X1464339Y1626684D1*
X1462601Y1633820D1*
X1461796Y1641119D1*
X1461937Y1648462D1*
X1463022Y1655725D1*
X1465031Y1662789D1*
X1467933Y1669535D1*
X1471679Y1675852D1*
X1476206Y1681635D1*
X1481440Y1686787D1*
X1487293Y1691223D1*
X1491421Y1693699D1*
X1485219Y1697615D1*
X1478422Y1703420D1*
X1476038Y1705999D1*
X1358629Y1588574D1*
X1358639Y1580967D1*
X1403109Y834916D2*
X1403791D1*
X1398810Y843540D1*
X1366588Y875881D1*
X1364058Y879364D1*
X1362103Y883200D1*
X1361355Y885230D1*
X1359968Y886538D1*
X1255094D1*
X1254981Y907088D1*
X1254696Y910710D1*
X1254767Y968777D1*
X1255094Y974727D1*
Y990625D1*
X1339228D1*
X1201065Y1128785D1*
X1168494Y1128763D1*
X1168482Y1063802D1*
X1158614D1*
X1158788Y1025386D1*
X1165105D1*
Y899646D1*
X1114903D1*
X1115030Y896277D1*
X1119005Y891624D1*
X1122202Y886406D1*
X1124544Y880752D1*
X1125973Y874801D1*
X1126453Y868700D1*
X1125973Y862599D1*
X1124544Y856648D1*
X1122202Y850994D1*
X1119005Y845776D1*
X1115030Y841123D1*
X1110377Y837148D1*
X1105159Y833951D1*
X1099505Y831609D1*
X1093554Y830180D1*
X1087453Y829700D1*
X1081352Y830180D1*
X1075401Y831609D1*
X1069747Y833951D1*
X1065613Y836424D1*
X1061408Y833951D1*
X1055754Y831609D1*
X1049803Y830180D1*
X1043702Y829700D1*
X1037601Y830180D1*
X1031651Y831609D1*
X1025997Y833951D1*
X1020779Y837148D1*
X1016125Y841123D1*
X1012151Y845776D1*
X1008953Y850994D1*
X1006611Y856648D1*
X1005182Y862599D1*
X1004702Y868700D1*
X1005182Y874801D1*
X1006611Y880752D1*
X1008953Y886406D1*
X1012151Y891624D1*
X1016257Y896399D1*
X1014187Y899646D1*
X983618D1*
X983779Y871277D1*
X987754Y866624D1*
X990952Y861406D1*
X993294Y855752D1*
X994722Y849801D1*
X995202Y843700D1*
X994722Y837599D1*
X993294Y831648D1*
X990952Y825994D1*
X987754Y820776D1*
X983779Y816123D1*
X979126Y812148D1*
X973908Y808951D1*
X968254Y806609D1*
X962303Y805180D1*
X956202Y804700D1*
X950101Y805180D1*
X944151Y806609D1*
X938497Y808951D1*
X933279Y812148D1*
X928625Y816123D1*
X924651Y820776D1*
X921453Y825994D1*
X919111Y831648D1*
X917682Y837599D1*
X917202Y843700D1*
X917682Y849801D1*
X919111Y855752D1*
X921453Y861406D1*
X924651Y866624D1*
X928757Y871399D1*
X928765Y899643D1*
X916722Y899462D1*
X896143Y899646D1*
X896279Y896277D1*
X900254Y891624D1*
X903452Y886406D1*
X905794Y880752D1*
X907222Y874801D1*
X907702Y868700D1*
X907222Y862599D1*
X905794Y856648D1*
X903452Y850994D1*
X900254Y845776D1*
X896279Y841123D1*
X891626Y837148D1*
X886408Y833951D1*
X880754Y831609D1*
X874803Y830180D1*
X868702Y829700D1*
X862601Y830180D1*
X856651Y831609D1*
X850997Y833951D1*
X845779Y837148D1*
X841125Y841123D1*
X837151Y845776D1*
X833953Y850994D1*
X831611Y856648D1*
X830182Y862599D1*
X829702Y868700D1*
X830182Y874801D1*
X831611Y880752D1*
X833953Y886406D1*
X837151Y891624D1*
X841257Y896399D1*
X834397Y899646D1*
X810749D1*
X810775Y859206D1*
X899997Y769958D1*
X1393919Y769956D1*
X1393923Y834916D1*
X1403109D1*
X1468482Y816795D2*
Y770566D1*
X1472617Y777183D1*
X1478422Y783980D1*
X1485219Y789785D1*
X1491454Y793679D1*
X1485219Y797615D1*
X1478422Y803420D1*
X1472617Y810217D1*
X1468484Y816878D1*
X1468482Y715089D2*
Y701302D1*
X1393923D1*
Y715046D1*
X886481Y715166D1*
X882229Y715840D1*
X878134Y717170D1*
X874298Y719125D1*
X870815Y721656D1*
X797780Y794571D1*
X762474Y829996D1*
X759943Y833480D1*
X757989Y837316D1*
X756658Y841410D1*
X755985Y845663D1*
X755900Y886893D1*
X666294Y886890D1*
Y990977D1*
X748031D1*
X748027Y1025386D1*
X800525D1*
X800507Y1059590D1*
X790664D1*
Y1180565D1*
X655018Y1044909D1*
X654914Y950407D1*
X654241Y946155D1*
X652911Y942060D1*
X650956Y938224D1*
X648425Y934741D1*
X575510Y861706D1*
X573404Y859600D1*
X574966Y852611D1*
X575667Y843700D1*
X574966Y834789D1*
X572879Y826097D1*
X569458Y817839D1*
X564788Y810217D1*
X558982Y803420D1*
X552185Y797615D1*
X545951Y793721D1*
X552185Y789785D1*
X558982Y783980D1*
X564788Y777183D1*
X569458Y769561D1*
X572879Y761303D1*
X574966Y752611D1*
X575667Y743700D1*
X574966Y734789D1*
X572879Y726097D1*
X569458Y717839D1*
X564788Y710217D1*
X558982Y703420D1*
X552185Y697615D1*
X545951Y693721D1*
X552185Y689785D1*
X558982Y683980D1*
X564788Y677183D1*
X569458Y669561D1*
X572879Y661303D1*
X574966Y652611D1*
X575667Y643700D1*
X574966Y634789D1*
X572879Y626097D1*
X569458Y617839D1*
X564788Y610217D1*
X558982Y603420D1*
X552185Y597615D1*
X545951Y593721D1*
X552185Y589785D1*
X558982Y583980D1*
X564788Y577183D1*
X569458Y569561D1*
X572879Y561303D1*
X574966Y552611D1*
X575667Y543700D1*
X574966Y534789D1*
X572879Y526097D1*
X569458Y517839D1*
X564788Y510217D1*
X558982Y503420D1*
X552185Y497615D1*
X545951Y493721D1*
X552185Y489785D1*
X558982Y483980D1*
X564788Y477183D1*
X569458Y469561D1*
X572879Y461303D1*
X574966Y452611D1*
X575667Y443700D1*
X574966Y434789D1*
X572879Y426097D1*
X572449Y424933D1*
X1464925Y424949D1*
X1463312Y430402D1*
X1461913Y439231D1*
Y448169D1*
X1463312Y456998D1*
X1466074Y465499D1*
X1470132Y473464D1*
X1475386Y480696D1*
X1481707Y487016D1*
X1488938Y492270D1*
X1491454Y493679D1*
X1485219Y497615D1*
X1478422Y503420D1*
X1472617Y510217D1*
X1467947Y517839D1*
X1464526Y526097D1*
X1462439Y534789D1*
X1461738Y543700D1*
X1462439Y552611D1*
X1464526Y561303D1*
X1467947Y569561D1*
X1472617Y577183D1*
X1478422Y583980D1*
X1485219Y589785D1*
X1491454Y593679D1*
X1485219Y597615D1*
X1478422Y603420D1*
X1472617Y610217D1*
X1467947Y617839D1*
X1464526Y626097D1*
X1462439Y634789D1*
X1461738Y643700D1*
X1462439Y652611D1*
X1464526Y661303D1*
X1467947Y669561D1*
X1472617Y677183D1*
X1478422Y683980D1*
X1485219Y689785D1*
X1491454Y693679D1*
X1485219Y697615D1*
X1478422Y703420D1*
X1472617Y710217D1*
X1469492Y715079D1*
X803331Y1193204D2*
X865223D1*
Y1179460D1*
X868374Y1179606D1*
X873325Y1183204D1*
X878778Y1185982D1*
X884598Y1187873D1*
X890642Y1188830D1*
X896762D1*
X902807Y1187873D1*
X908627Y1185982D1*
X914080Y1183204D1*
X919031Y1179606D1*
X921401Y1177396D1*
X1093925Y1177388D1*
X1093923Y1197416D1*
X1168482D1*
Y1183673D1*
X1214604Y1183553D1*
X1218857Y1182879D1*
X1222951Y1181549D1*
X1226788Y1179594D1*
X1230271Y1177063D1*
X1303306Y1104148D1*
X1408315Y999019D1*
X1410846Y995536D1*
X1412800Y991700D1*
X1414131Y987605D1*
X1414804Y983353D1*
X1414889Y905090D1*
X1452066Y867768D1*
X1454596Y864285D1*
X1456551Y860449D1*
X1457881Y856354D1*
X1458555Y852102D1*
X1458639Y834914D1*
X1461913Y839231D1*
Y848169D1*
X1463312Y856998D1*
X1466074Y865499D1*
X1470132Y873464D1*
X1475386Y880696D1*
X1481707Y887016D1*
X1488938Y892270D1*
X1491454Y893679D1*
X1485219Y897615D1*
X1478422Y903420D1*
X1472617Y910217D1*
X1467947Y917839D1*
X1464526Y926097D1*
X1462439Y934789D1*
X1461738Y943700D1*
X1462439Y952611D1*
X1464526Y961303D1*
X1467947Y969561D1*
X1472617Y977183D1*
X1478422Y983980D1*
X1485219Y989785D1*
X1491454Y993679D1*
X1485219Y997615D1*
X1478422Y1003420D1*
X1472617Y1010217D1*
X1468826Y1016268D1*
X1421724Y1016348D1*
X1417472Y1017021D1*
X1413377Y1018351D1*
X1409541Y1020306D1*
X1406058Y1022837D1*
X1333023Y1095752D1*
X1023364Y1405531D1*
X1020829Y1409021D1*
X1018550Y1408442D1*
X803303Y1193195D1*
X865223Y1123327D2*
Y1059590D1*
X855355D1*
X855381Y1025414D1*
X972462Y1025386D1*
X972314Y1122513D1*
X921279Y1122373D1*
X916626Y1118399D1*
X911408Y1115201D1*
X905754Y1112859D1*
X899803Y1111431D1*
X893702Y1110951D1*
X887601Y1111431D1*
X881651Y1112859D1*
X875997Y1115201D1*
X870779Y1118399D1*
X866125Y1122373D1*
X865224Y1123349D1*
X1491932Y2670483D2*
X1492066Y2670350D1*
X1482586Y2681669D2*
X1479145Y2688276D1*
X1477444Y2692386D1*
X1475589Y2700600D1*
X1474935Y2708240D1*
X1475427Y2715247D1*
X1476920Y2722436D1*
X1479430Y2729337D1*
X1482903Y2735806D1*
X1487268Y2741710D1*
X1492435Y2746928D1*
X1498297Y2751349D1*
X1504733Y2754885D1*
X1511609Y2757461D1*
X1518783Y2759024D1*
X1526108Y2759541D1*
X1533431Y2759003D1*
X1540387Y2757479D1*
X1545789Y2755566D1*
X1552338Y2752245D1*
X1557791Y2748590D1*
X1563680Y2742977D1*
X1567703Y2738375D1*
X1571090Y2732507D1*
X1574357Y2725785D1*
X1575835Y2720546D1*
X1577425Y2710050D1*
X1577211Y2704610D1*
X1575480Y2694136D1*
X1573596Y2689029D1*
X1568713Y2679602D1*
X1565338Y2675323D1*
X1557785Y2667871D1*
X1553259Y2664847D1*
X1543768Y2660091D1*
X1538529Y2658614D1*
X1528032Y2657023D1*
X1522593Y2657237D1*
X1512119Y2658968D1*
X1507012Y2660852D1*
X1497585Y2665736D1*
X1493310Y2669106D1*
X1577062Y2962551D2*
X1576271Y2955251D1*
X1574441Y2948140D1*
X1571609Y2941365D1*
X1567836Y2935066D1*
X1563198Y2929373D1*
X1557791Y2924405D1*
X1551728Y2920264D1*
X1545133Y2917035D1*
X1538144Y2914785D1*
X1530904Y2913561D1*
X1523563Y2913389D1*
X1516273Y2914271D1*
X1509186Y2916189D1*
X1502446Y2919104D1*
X1496195Y2922956D1*
X1490561Y2927665D1*
X1485660Y2933133D1*
X1481595Y2939247D1*
X1478448Y2945882D1*
X1476286Y2952899D1*
X1475152Y2960154D1*
X1475071Y2967496D1*
X1476044Y2974774D1*
X1478051Y2981837D1*
X1481050Y2988540D1*
X1484979Y2994742D1*
X1489758Y3000318D1*
X1495287Y3005150D1*
X1501451Y3009139D1*
X1508125Y3012202D1*
X1515168Y3014277D1*
X1522436Y3015320D1*
X1529779Y3015309D1*
X1537044Y3014246D1*
X1544082Y3012151D1*
X1550746Y3009069D1*
X1556900Y3005062D1*
X1562415Y3000215D1*
X1567178Y2994626D1*
X1571090Y2988412D1*
X1574070Y2981701D1*
X1576056Y2974632D1*
X1577009Y2967352D1*
X1577062Y2962551D1*
X1293242Y628489D2*
X1407302D1*
Y492906D1*
X1291405D1*
Y628489D1*
X1293242D1*
X681624Y628624D2*
X795684D1*
X795843Y582654D1*
X801547Y590505D1*
X808409Y597367D1*
X816260Y603071D1*
X824907Y607477D1*
X834137Y610476D1*
X843722Y611994D1*
X853426D1*
X863011Y610476D1*
X872240Y607477D1*
X880887Y603071D1*
X888738Y597367D1*
X895600Y590505D1*
X901304Y582654D1*
X905710Y574007D1*
X908709Y564778D1*
X910227Y555193D1*
Y545488D1*
X908709Y535903D1*
X905710Y526674D1*
X901304Y518027D1*
X895600Y510176D1*
X888738Y503314D1*
X880887Y497610D1*
X872240Y493204D1*
X863011Y490205D1*
X853426Y488687D1*
X843722D1*
X834137Y490205D1*
X824907Y493204D1*
X816260Y497610D1*
X808409Y503314D1*
X801547Y510176D1*
X795686Y518308D1*
X795684Y493041D1*
X679786D1*
Y628624D1*
X681624D1*
X1224676Y545488D2*
X1223158Y535903D1*
X1220159Y526674D1*
X1215753Y518027D1*
X1210049Y510176D1*
X1203187Y503314D1*
X1195336Y497610D1*
X1186689Y493204D1*
X1177460Y490205D1*
X1167875Y488687D1*
X1158170D1*
X1148585Y490205D1*
X1139356Y493204D1*
X1130709Y497610D1*
X1122858Y503314D1*
X1115996Y510176D1*
X1110292Y518027D1*
X1105886Y526674D1*
X1102887Y535903D1*
X1101369Y545488D1*
Y555193D1*
X1102887Y564778D1*
X1105886Y574007D1*
X1110292Y582654D1*
X1115996Y590505D1*
X1122858Y597367D1*
X1130709Y603071D1*
X1139356Y607477D1*
X1148585Y610476D1*
X1158170Y611994D1*
X1167875D1*
X1177460Y610476D1*
X1186689Y607477D1*
X1195336Y603071D1*
X1203187Y597367D1*
X1210049Y590505D1*
X1215753Y582654D1*
X1220159Y574007D1*
X1223158Y564778D1*
X1224676Y555193D1*
Y545488D1*
X568579Y1216268D2*
X564788Y1210217D1*
X558982Y1203420D1*
X552185Y1197615D1*
X545951Y1193721D1*
X552185Y1189785D1*
X558982Y1183980D1*
X564788Y1177183D1*
X569458Y1169561D1*
X572879Y1161303D1*
X574966Y1152611D1*
X575667Y1143700D1*
X574966Y1134789D1*
X572879Y1126097D1*
X569458Y1117839D1*
X564788Y1110217D1*
X558982Y1103420D1*
X552185Y1097615D1*
X545951Y1093721D1*
X552185Y1089785D1*
X558982Y1083980D1*
X564788Y1077183D1*
X569458Y1069561D1*
X572879Y1061303D1*
X574966Y1052611D1*
X575667Y1043700D1*
X574966Y1034789D1*
X572879Y1026097D1*
X569458Y1017839D1*
X564788Y1010217D1*
X558982Y1003420D1*
X552185Y997615D1*
X545951Y993721D1*
X551304Y990413D1*
X557043Y985830D1*
X562145Y980547D1*
X566524Y974652D1*
X570109Y968242D1*
X572839Y961425D1*
X574670Y954312D1*
X575570Y947024D1*
X575489Y939291D1*
X600112Y963912D1*
X600209Y1058408D1*
X600883Y1062660D1*
X602213Y1066755D1*
X604168Y1070591D1*
X606699Y1074074D1*
X679614Y1147109D1*
X748758Y1216253D1*
X568608Y1216263D1*
X1576110Y2718808D2*
X1577208Y2711876D1*
X1573593Y2727443D2*
X1575480Y2722330D1*
X1576110Y2718808D1*
X1487093Y2675323D2*
X1483718Y2679602D1*
X1482589Y2681660D1*
X1097581Y1517583D2*
D15*
X1134824D1*
X1184824D2*
Y1476402D1*
X1128456Y2098659D2*
Y2057478D1*
X1237173Y3263012D2*
Y3149548D1*
Y3206280D2*
X1293905D1*
X874196Y2099840D2*
Y2058659D1*
X1526036Y2759505D2*
Y2708482D1*
X1475012D2*
X1526036D1*
Y3015411D2*
Y2913364D1*
X1475012Y2964388D2*
X1577059D1*
X913259Y1025350D2*
Y962516D1*
X724243Y990941D2*
Y886926D1*
X666330Y938934D2*
X724243D1*
X1313042Y990589D2*
Y886574D1*
X1349353Y628453D2*
Y492942D1*
X1291440Y560697D2*
X1407266D1*
X737735Y628588D2*
Y493077D1*
X679822Y560833D2*
X737735D1*
X1461774Y1643700D2*
X1575631D1*
X1518702Y2300629D2*
Y2243700D1*
X1461774D2*
X1575631D1*
X461774Y943700D2*
X575631D1*
X1172180Y1900381D2*
Y1841484D1*
D17*
X1193702Y2007478D3*
Y2058659D3*
X1234198Y1568478D3*
Y1517297D3*
X1134824Y1568764D3*
Y1517583D3*
X1184824Y1568764D3*
Y1517583D3*
X1128456Y2057478D3*
Y2006297D3*
D18*
X913685Y2868700D3*
X862504D3*
X656202D3*
X605021D3*
D19*
X800953Y3206280D3*
D20*
X910008D3*
X1019063D3*
X1128118D3*
X1237173D3*
X855481Y3318091D3*
X964536D3*
X1073591D3*
X1182646D3*
D21*
X527134Y3262185D3*
X1510992D3*
D18*
X1381202Y1543700D3*
X1432383D3*
X913685Y2924949D3*
X862504D3*
X1381201Y2143700D3*
X1432382D3*
X1381202Y1337449D3*
X1432383D3*
X656202Y2924951D3*
X605021D3*
D17*
X1431202Y793700D3*
Y742519D3*
X827944Y1151987D3*
Y1100806D3*
X1131202Y1156200D3*
Y1105019D3*
D18*
X569256Y2661745D3*
X518075D3*
D17*
X874196Y2007478D3*
Y2058659D3*
X824196Y2007478D3*
Y2058659D3*
X774196Y2007478D3*
Y2058659D3*
D22*
X1526036Y2708482D3*
Y2964388D3*
X1348870D3*
Y2708482D3*
D24*
X783337Y962516D3*
X826645D3*
X869952D3*
X913259D3*
X956566D3*
X999873D3*
X1043180D3*
X1086487D3*
X1129794D3*
D25*
X724243Y938934D3*
X1313042Y938582D3*
D26*
X1349353Y560697D3*
X737735Y560833D3*
D30*
X1518702Y443700D3*
Y543700D3*
Y643700D3*
Y743700D3*
Y843700D3*
Y943700D3*
Y1043700D3*
Y1143700D3*
Y1243700D3*
Y1343700D3*
Y1443700D3*
Y1543700D3*
Y1643700D3*
Y1743700D3*
Y1843700D3*
Y1943700D3*
Y2043700D3*
Y2143700D3*
Y2243700D3*
X518702D3*
Y2143700D3*
Y2043700D3*
Y1943700D3*
Y1843700D3*
Y1743700D3*
Y1643700D3*
Y1543700D3*
Y1443700D3*
Y1343700D3*
Y1243700D3*
Y1143700D3*
Y1043700D3*
Y943700D3*
Y843700D3*
Y743700D3*
Y643700D3*
Y543700D3*
Y443700D3*
D31*
X1197771Y1900381D3*
X1172180D3*
X1146589D3*
X1120999D3*
X1095408D3*
X1069818D3*
X1044227D3*
X1018637D3*
X993046D3*
X967456D3*
X941865D3*
X916274D3*
X890684D3*
X865093D3*
Y1672027D3*
X890684Y1672035D3*
X916274D3*
X941865D3*
X967456D3*
X993046D3*
X1018637D3*
X1044227D3*
X1069818D3*
X1095408D3*
X1120999D3*
X1146589D3*
X1172180D3*
X1197771D3*
M02*
