M48
; DRILL file {KiCad 8.0.4} date 2024-09-19T23:06:29-0500
; FORMAT={-:-/ absolute / inch / decimal}
; #@! TF.CreationDate,2024-09-19T23:06:29-05:00
; #@! TF.GenerationSoftware,Kicad,Pcbnew,8.0.4
; #@! TF.FileFunction,MixedPlating,1,2
FMAT,2
INCH
; #@! TA.AperFunction,Plated,PTH,ViaDrill
T1C0.0118
; #@! TA.AperFunction,Plated,PTH,ViaDrill
T2C0.0157
; #@! TA.AperFunction,Plated,PTH,ComponentDrill
T3C0.0394
%
G90
G05
T1
X5.155Y-3.425
X5.2Y-3.44
X5.35Y-3.625
X5.42Y-3.66
X5.48Y-3.4127
X5.48Y-3.49
T2
X5.085Y-3.8956
X5.1606Y-3.7906
X5.235Y-3.8
X5.3465Y-3.86
X6.635Y-3.625
X6.82Y-3.625
T3
X5.425Y-3.85
X5.425Y-3.95
X5.525Y-3.85
X5.525Y-3.95
X5.575Y-3.525
X5.575Y-3.625
X5.625Y-3.85
X5.625Y-3.95
X5.675Y-3.525
X5.675Y-3.625
X5.725Y-3.85
X5.725Y-3.95
X5.775Y-3.525
X5.775Y-3.625
X5.825Y-3.85
X5.825Y-3.95
X5.875Y-3.525
X5.875Y-3.625
X5.925Y-3.85
X5.925Y-3.95
X5.975Y-3.525
X5.975Y-3.625
X6.025Y-3.85
X6.025Y-3.95
X6.075Y-3.525
X6.075Y-3.625
X6.125Y-3.85
X6.125Y-3.95
X6.175Y-3.525
X6.175Y-3.625
X6.225Y-3.85
X6.225Y-3.95
X6.275Y-3.525
X6.275Y-3.625
X6.325Y-3.85
X6.325Y-3.95
X6.375Y-3.525
X6.375Y-3.625
X6.425Y-3.85
X6.425Y-3.95
X6.475Y-3.525
X6.475Y-3.625
X6.525Y-3.85
X6.525Y-3.95
X6.625Y-3.85
X6.625Y-3.95
M30
