%TF.GenerationSoftware,KiCad,Pcbnew,8.0.4*%
%TF.CreationDate,2024-09-19T23:06:26-05:00*%
%TF.ProjectId,IDC-26-Adapter-Rev1,4944432d-3236-42d4-9164-61707465722d,1.1*%
%TF.SameCoordinates,Original*%
%TF.FileFunction,Legend,Bot*%
%TF.FilePolarity,Positive*%
%FSLAX46Y46*%
G04 Gerber Fmt 4.6, Leading zero omitted, Abs format (unit mm)*
G04 Created by KiCad (PCBNEW 8.0.4) date 2024-09-19 23:06:26*
%MOMM*%
%LPD*%
G01*
G04 APERTURE LIST*
%ADD10C,0.150000*%
%ADD11C,0.250000*%
%ADD12C,0.120000*%
G04 APERTURE END LIST*
D10*
X173367458Y-100803152D02*
X173129363Y-101469819D01*
X173129363Y-101469819D02*
X172891268Y-100803152D01*
X171986506Y-101469819D02*
X172557934Y-101469819D01*
X172272220Y-101469819D02*
X172272220Y-100469819D01*
X172272220Y-100469819D02*
X172367458Y-100612676D01*
X172367458Y-100612676D02*
X172462696Y-100707914D01*
X172462696Y-100707914D02*
X172557934Y-100755533D01*
X171557934Y-101374580D02*
X171510315Y-101422200D01*
X171510315Y-101422200D02*
X171557934Y-101469819D01*
X171557934Y-101469819D02*
X171605553Y-101422200D01*
X171605553Y-101422200D02*
X171557934Y-101374580D01*
X171557934Y-101374580D02*
X171557934Y-101469819D01*
X170891268Y-100469819D02*
X170796030Y-100469819D01*
X170796030Y-100469819D02*
X170700792Y-100517438D01*
X170700792Y-100517438D02*
X170653173Y-100565057D01*
X170653173Y-100565057D02*
X170605554Y-100660295D01*
X170605554Y-100660295D02*
X170557935Y-100850771D01*
X170557935Y-100850771D02*
X170557935Y-101088866D01*
X170557935Y-101088866D02*
X170605554Y-101279342D01*
X170605554Y-101279342D02*
X170653173Y-101374580D01*
X170653173Y-101374580D02*
X170700792Y-101422200D01*
X170700792Y-101422200D02*
X170796030Y-101469819D01*
X170796030Y-101469819D02*
X170891268Y-101469819D01*
X170891268Y-101469819D02*
X170986506Y-101422200D01*
X170986506Y-101422200D02*
X171034125Y-101374580D01*
X171034125Y-101374580D02*
X171081744Y-101279342D01*
X171081744Y-101279342D02*
X171129363Y-101088866D01*
X171129363Y-101088866D02*
X171129363Y-100850771D01*
X171129363Y-100850771D02*
X171081744Y-100660295D01*
X171081744Y-100660295D02*
X171034125Y-100565057D01*
X171034125Y-100565057D02*
X170986506Y-100517438D01*
X170986506Y-100517438D02*
X170891268Y-100469819D01*
X135187142Y-96067257D02*
X135187142Y-95167257D01*
X135187142Y-95167257D02*
X134972856Y-95167257D01*
X134972856Y-95167257D02*
X134844285Y-95210114D01*
X134844285Y-95210114D02*
X134758570Y-95295828D01*
X134758570Y-95295828D02*
X134715713Y-95381542D01*
X134715713Y-95381542D02*
X134672856Y-95552971D01*
X134672856Y-95552971D02*
X134672856Y-95681542D01*
X134672856Y-95681542D02*
X134715713Y-95852971D01*
X134715713Y-95852971D02*
X134758570Y-95938685D01*
X134758570Y-95938685D02*
X134844285Y-96024400D01*
X134844285Y-96024400D02*
X134972856Y-96067257D01*
X134972856Y-96067257D02*
X135187142Y-96067257D01*
X133944285Y-96024400D02*
X134029999Y-96067257D01*
X134029999Y-96067257D02*
X134201428Y-96067257D01*
X134201428Y-96067257D02*
X134287142Y-96024400D01*
X134287142Y-96024400D02*
X134329999Y-95938685D01*
X134329999Y-95938685D02*
X134329999Y-95595828D01*
X134329999Y-95595828D02*
X134287142Y-95510114D01*
X134287142Y-95510114D02*
X134201428Y-95467257D01*
X134201428Y-95467257D02*
X134029999Y-95467257D01*
X134029999Y-95467257D02*
X133944285Y-95510114D01*
X133944285Y-95510114D02*
X133901428Y-95595828D01*
X133901428Y-95595828D02*
X133901428Y-95681542D01*
X133901428Y-95681542D02*
X134329999Y-95767257D01*
X133558570Y-96024400D02*
X133472856Y-96067257D01*
X133472856Y-96067257D02*
X133301427Y-96067257D01*
X133301427Y-96067257D02*
X133215713Y-96024400D01*
X133215713Y-96024400D02*
X133172856Y-95938685D01*
X133172856Y-95938685D02*
X133172856Y-95895828D01*
X133172856Y-95895828D02*
X133215713Y-95810114D01*
X133215713Y-95810114D02*
X133301427Y-95767257D01*
X133301427Y-95767257D02*
X133429999Y-95767257D01*
X133429999Y-95767257D02*
X133515713Y-95724400D01*
X133515713Y-95724400D02*
X133558570Y-95638685D01*
X133558570Y-95638685D02*
X133558570Y-95595828D01*
X133558570Y-95595828D02*
X133515713Y-95510114D01*
X133515713Y-95510114D02*
X133429999Y-95467257D01*
X133429999Y-95467257D02*
X133301427Y-95467257D01*
X133301427Y-95467257D02*
X133215713Y-95510114D01*
X132787142Y-96067257D02*
X132787142Y-95467257D01*
X132787142Y-95167257D02*
X132829999Y-95210114D01*
X132829999Y-95210114D02*
X132787142Y-95252971D01*
X132787142Y-95252971D02*
X132744285Y-95210114D01*
X132744285Y-95210114D02*
X132787142Y-95167257D01*
X132787142Y-95167257D02*
X132787142Y-95252971D01*
X131972857Y-95467257D02*
X131972857Y-96195828D01*
X131972857Y-96195828D02*
X132015714Y-96281542D01*
X132015714Y-96281542D02*
X132058571Y-96324400D01*
X132058571Y-96324400D02*
X132144285Y-96367257D01*
X132144285Y-96367257D02*
X132272857Y-96367257D01*
X132272857Y-96367257D02*
X132358571Y-96324400D01*
X131972857Y-96024400D02*
X132058571Y-96067257D01*
X132058571Y-96067257D02*
X132229999Y-96067257D01*
X132229999Y-96067257D02*
X132315714Y-96024400D01*
X132315714Y-96024400D02*
X132358571Y-95981542D01*
X132358571Y-95981542D02*
X132401428Y-95895828D01*
X132401428Y-95895828D02*
X132401428Y-95638685D01*
X132401428Y-95638685D02*
X132358571Y-95552971D01*
X132358571Y-95552971D02*
X132315714Y-95510114D01*
X132315714Y-95510114D02*
X132229999Y-95467257D01*
X132229999Y-95467257D02*
X132058571Y-95467257D01*
X132058571Y-95467257D02*
X131972857Y-95510114D01*
X131544285Y-95467257D02*
X131544285Y-96067257D01*
X131544285Y-95552971D02*
X131501428Y-95510114D01*
X131501428Y-95510114D02*
X131415713Y-95467257D01*
X131415713Y-95467257D02*
X131287142Y-95467257D01*
X131287142Y-95467257D02*
X131201428Y-95510114D01*
X131201428Y-95510114D02*
X131158571Y-95595828D01*
X131158571Y-95595828D02*
X131158571Y-96067257D01*
X130044285Y-96067257D02*
X130044285Y-95167257D01*
X130044285Y-95510114D02*
X129958571Y-95467257D01*
X129958571Y-95467257D02*
X129787142Y-95467257D01*
X129787142Y-95467257D02*
X129701428Y-95510114D01*
X129701428Y-95510114D02*
X129658571Y-95552971D01*
X129658571Y-95552971D02*
X129615713Y-95638685D01*
X129615713Y-95638685D02*
X129615713Y-95895828D01*
X129615713Y-95895828D02*
X129658571Y-95981542D01*
X129658571Y-95981542D02*
X129701428Y-96024400D01*
X129701428Y-96024400D02*
X129787142Y-96067257D01*
X129787142Y-96067257D02*
X129958571Y-96067257D01*
X129958571Y-96067257D02*
X130044285Y-96024400D01*
X129315713Y-95467257D02*
X129101427Y-96067257D01*
X128887142Y-95467257D02*
X129101427Y-96067257D01*
X129101427Y-96067257D02*
X129187142Y-96281542D01*
X129187142Y-96281542D02*
X129229999Y-96324400D01*
X129229999Y-96324400D02*
X129315713Y-96367257D01*
X135294285Y-96616207D02*
X134780000Y-96616207D01*
X135037142Y-97516207D02*
X135037142Y-96616207D01*
X134480000Y-97516207D02*
X134480000Y-96616207D01*
X134094286Y-97516207D02*
X134094286Y-97044778D01*
X134094286Y-97044778D02*
X134137143Y-96959064D01*
X134137143Y-96959064D02*
X134222857Y-96916207D01*
X134222857Y-96916207D02*
X134351428Y-96916207D01*
X134351428Y-96916207D02*
X134437143Y-96959064D01*
X134437143Y-96959064D02*
X134480000Y-97001921D01*
X133537142Y-97516207D02*
X133622857Y-97473350D01*
X133622857Y-97473350D02*
X133665714Y-97430492D01*
X133665714Y-97430492D02*
X133708571Y-97344778D01*
X133708571Y-97344778D02*
X133708571Y-97087635D01*
X133708571Y-97087635D02*
X133665714Y-97001921D01*
X133665714Y-97001921D02*
X133622857Y-96959064D01*
X133622857Y-96959064D02*
X133537142Y-96916207D01*
X133537142Y-96916207D02*
X133408571Y-96916207D01*
X133408571Y-96916207D02*
X133322857Y-96959064D01*
X133322857Y-96959064D02*
X133280000Y-97001921D01*
X133280000Y-97001921D02*
X133237142Y-97087635D01*
X133237142Y-97087635D02*
X133237142Y-97344778D01*
X133237142Y-97344778D02*
X133280000Y-97430492D01*
X133280000Y-97430492D02*
X133322857Y-97473350D01*
X133322857Y-97473350D02*
X133408571Y-97516207D01*
X133408571Y-97516207D02*
X133537142Y-97516207D01*
X132851428Y-97516207D02*
X132851428Y-96916207D01*
X132851428Y-97087635D02*
X132808571Y-97001921D01*
X132808571Y-97001921D02*
X132765714Y-96959064D01*
X132765714Y-96959064D02*
X132679999Y-96916207D01*
X132679999Y-96916207D02*
X132594285Y-96916207D01*
X132337142Y-97473350D02*
X132251428Y-97516207D01*
X132251428Y-97516207D02*
X132079999Y-97516207D01*
X132079999Y-97516207D02*
X131994285Y-97473350D01*
X131994285Y-97473350D02*
X131951428Y-97387635D01*
X131951428Y-97387635D02*
X131951428Y-97344778D01*
X131951428Y-97344778D02*
X131994285Y-97259064D01*
X131994285Y-97259064D02*
X132079999Y-97216207D01*
X132079999Y-97216207D02*
X132208571Y-97216207D01*
X132208571Y-97216207D02*
X132294285Y-97173350D01*
X132294285Y-97173350D02*
X132337142Y-97087635D01*
X132337142Y-97087635D02*
X132337142Y-97044778D01*
X132337142Y-97044778D02*
X132294285Y-96959064D01*
X132294285Y-96959064D02*
X132208571Y-96916207D01*
X132208571Y-96916207D02*
X132079999Y-96916207D01*
X132079999Y-96916207D02*
X131994285Y-96959064D01*
X131694285Y-96916207D02*
X131351428Y-96916207D01*
X131565714Y-96616207D02*
X131565714Y-97387635D01*
X131565714Y-97387635D02*
X131522857Y-97473350D01*
X131522857Y-97473350D02*
X131437142Y-97516207D01*
X131437142Y-97516207D02*
X131351428Y-97516207D01*
X130708571Y-97473350D02*
X130794285Y-97516207D01*
X130794285Y-97516207D02*
X130965714Y-97516207D01*
X130965714Y-97516207D02*
X131051428Y-97473350D01*
X131051428Y-97473350D02*
X131094285Y-97387635D01*
X131094285Y-97387635D02*
X131094285Y-97044778D01*
X131094285Y-97044778D02*
X131051428Y-96959064D01*
X131051428Y-96959064D02*
X130965714Y-96916207D01*
X130965714Y-96916207D02*
X130794285Y-96916207D01*
X130794285Y-96916207D02*
X130708571Y-96959064D01*
X130708571Y-96959064D02*
X130665714Y-97044778D01*
X130665714Y-97044778D02*
X130665714Y-97130492D01*
X130665714Y-97130492D02*
X131094285Y-97216207D01*
X130279999Y-96916207D02*
X130279999Y-97516207D01*
X130279999Y-97001921D02*
X130237142Y-96959064D01*
X130237142Y-96959064D02*
X130151427Y-96916207D01*
X130151427Y-96916207D02*
X130022856Y-96916207D01*
X130022856Y-96916207D02*
X129937142Y-96959064D01*
X129937142Y-96959064D02*
X129894285Y-97044778D01*
X129894285Y-97044778D02*
X129894285Y-97516207D01*
X129165713Y-97044778D02*
X129037141Y-97087635D01*
X129037141Y-97087635D02*
X128994284Y-97130492D01*
X128994284Y-97130492D02*
X128951427Y-97216207D01*
X128951427Y-97216207D02*
X128951427Y-97344778D01*
X128951427Y-97344778D02*
X128994284Y-97430492D01*
X128994284Y-97430492D02*
X129037141Y-97473350D01*
X129037141Y-97473350D02*
X129122856Y-97516207D01*
X129122856Y-97516207D02*
X129465713Y-97516207D01*
X129465713Y-97516207D02*
X129465713Y-96616207D01*
X129465713Y-96616207D02*
X129165713Y-96616207D01*
X129165713Y-96616207D02*
X129079999Y-96659064D01*
X129079999Y-96659064D02*
X129037141Y-96701921D01*
X129037141Y-96701921D02*
X128994284Y-96787635D01*
X128994284Y-96787635D02*
X128994284Y-96873350D01*
X128994284Y-96873350D02*
X129037141Y-96959064D01*
X129037141Y-96959064D02*
X129079999Y-97001921D01*
X129079999Y-97001921D02*
X129165713Y-97044778D01*
X129165713Y-97044778D02*
X129465713Y-97044778D01*
X134308571Y-98965157D02*
X134308571Y-98065157D01*
X134308571Y-98065157D02*
X133965714Y-98065157D01*
X133965714Y-98065157D02*
X133879999Y-98108014D01*
X133879999Y-98108014D02*
X133837142Y-98150871D01*
X133837142Y-98150871D02*
X133794285Y-98236585D01*
X133794285Y-98236585D02*
X133794285Y-98365157D01*
X133794285Y-98365157D02*
X133837142Y-98450871D01*
X133837142Y-98450871D02*
X133879999Y-98493728D01*
X133879999Y-98493728D02*
X133965714Y-98536585D01*
X133965714Y-98536585D02*
X134308571Y-98536585D01*
X132894285Y-98879442D02*
X132937142Y-98922300D01*
X132937142Y-98922300D02*
X133065714Y-98965157D01*
X133065714Y-98965157D02*
X133151428Y-98965157D01*
X133151428Y-98965157D02*
X133279999Y-98922300D01*
X133279999Y-98922300D02*
X133365714Y-98836585D01*
X133365714Y-98836585D02*
X133408571Y-98750871D01*
X133408571Y-98750871D02*
X133451428Y-98579442D01*
X133451428Y-98579442D02*
X133451428Y-98450871D01*
X133451428Y-98450871D02*
X133408571Y-98279442D01*
X133408571Y-98279442D02*
X133365714Y-98193728D01*
X133365714Y-98193728D02*
X133279999Y-98108014D01*
X133279999Y-98108014D02*
X133151428Y-98065157D01*
X133151428Y-98065157D02*
X133065714Y-98065157D01*
X133065714Y-98065157D02*
X132937142Y-98108014D01*
X132937142Y-98108014D02*
X132894285Y-98150871D01*
X132208571Y-98493728D02*
X132079999Y-98536585D01*
X132079999Y-98536585D02*
X132037142Y-98579442D01*
X132037142Y-98579442D02*
X131994285Y-98665157D01*
X131994285Y-98665157D02*
X131994285Y-98793728D01*
X131994285Y-98793728D02*
X132037142Y-98879442D01*
X132037142Y-98879442D02*
X132079999Y-98922300D01*
X132079999Y-98922300D02*
X132165714Y-98965157D01*
X132165714Y-98965157D02*
X132508571Y-98965157D01*
X132508571Y-98965157D02*
X132508571Y-98065157D01*
X132508571Y-98065157D02*
X132208571Y-98065157D01*
X132208571Y-98065157D02*
X132122857Y-98108014D01*
X132122857Y-98108014D02*
X132079999Y-98150871D01*
X132079999Y-98150871D02*
X132037142Y-98236585D01*
X132037142Y-98236585D02*
X132037142Y-98322300D01*
X132037142Y-98322300D02*
X132079999Y-98408014D01*
X132079999Y-98408014D02*
X132122857Y-98450871D01*
X132122857Y-98450871D02*
X132208571Y-98493728D01*
X132208571Y-98493728D02*
X132508571Y-98493728D01*
X130922857Y-98965157D02*
X130922857Y-98065157D01*
X130922857Y-98408014D02*
X130837143Y-98365157D01*
X130837143Y-98365157D02*
X130665714Y-98365157D01*
X130665714Y-98365157D02*
X130580000Y-98408014D01*
X130580000Y-98408014D02*
X130537143Y-98450871D01*
X130537143Y-98450871D02*
X130494285Y-98536585D01*
X130494285Y-98536585D02*
X130494285Y-98793728D01*
X130494285Y-98793728D02*
X130537143Y-98879442D01*
X130537143Y-98879442D02*
X130580000Y-98922300D01*
X130580000Y-98922300D02*
X130665714Y-98965157D01*
X130665714Y-98965157D02*
X130837143Y-98965157D01*
X130837143Y-98965157D02*
X130922857Y-98922300D01*
X130194285Y-98365157D02*
X129979999Y-98965157D01*
X129765714Y-98365157D02*
X129979999Y-98965157D01*
X129979999Y-98965157D02*
X130065714Y-99179442D01*
X130065714Y-99179442D02*
X130108571Y-99222300D01*
X130108571Y-99222300D02*
X130194285Y-99265157D01*
X133408570Y-100328392D02*
X133451427Y-100371250D01*
X133451427Y-100371250D02*
X133579999Y-100414107D01*
X133579999Y-100414107D02*
X133665713Y-100414107D01*
X133665713Y-100414107D02*
X133794284Y-100371250D01*
X133794284Y-100371250D02*
X133879999Y-100285535D01*
X133879999Y-100285535D02*
X133922856Y-100199821D01*
X133922856Y-100199821D02*
X133965713Y-100028392D01*
X133965713Y-100028392D02*
X133965713Y-99899821D01*
X133965713Y-99899821D02*
X133922856Y-99728392D01*
X133922856Y-99728392D02*
X133879999Y-99642678D01*
X133879999Y-99642678D02*
X133794284Y-99556964D01*
X133794284Y-99556964D02*
X133665713Y-99514107D01*
X133665713Y-99514107D02*
X133579999Y-99514107D01*
X133579999Y-99514107D02*
X133451427Y-99556964D01*
X133451427Y-99556964D02*
X133408570Y-99599821D01*
X133022856Y-100414107D02*
X133022856Y-99514107D01*
X132637142Y-100414107D02*
X132637142Y-99942678D01*
X132637142Y-99942678D02*
X132679999Y-99856964D01*
X132679999Y-99856964D02*
X132765713Y-99814107D01*
X132765713Y-99814107D02*
X132894284Y-99814107D01*
X132894284Y-99814107D02*
X132979999Y-99856964D01*
X132979999Y-99856964D02*
X133022856Y-99899821D01*
X132208570Y-100414107D02*
X132208570Y-99814107D01*
X132208570Y-99985535D02*
X132165713Y-99899821D01*
X132165713Y-99899821D02*
X132122856Y-99856964D01*
X132122856Y-99856964D02*
X132037141Y-99814107D01*
X132037141Y-99814107D02*
X131951427Y-99814107D01*
X131651427Y-100414107D02*
X131651427Y-99814107D01*
X131651427Y-99514107D02*
X131694284Y-99556964D01*
X131694284Y-99556964D02*
X131651427Y-99599821D01*
X131651427Y-99599821D02*
X131608570Y-99556964D01*
X131608570Y-99556964D02*
X131651427Y-99514107D01*
X131651427Y-99514107D02*
X131651427Y-99599821D01*
X131265713Y-100371250D02*
X131179999Y-100414107D01*
X131179999Y-100414107D02*
X131008570Y-100414107D01*
X131008570Y-100414107D02*
X130922856Y-100371250D01*
X130922856Y-100371250D02*
X130879999Y-100285535D01*
X130879999Y-100285535D02*
X130879999Y-100242678D01*
X130879999Y-100242678D02*
X130922856Y-100156964D01*
X130922856Y-100156964D02*
X131008570Y-100114107D01*
X131008570Y-100114107D02*
X131137142Y-100114107D01*
X131137142Y-100114107D02*
X131222856Y-100071250D01*
X131222856Y-100071250D02*
X131265713Y-99985535D01*
X131265713Y-99985535D02*
X131265713Y-99942678D01*
X131265713Y-99942678D02*
X131222856Y-99856964D01*
X131222856Y-99856964D02*
X131137142Y-99814107D01*
X131137142Y-99814107D02*
X131008570Y-99814107D01*
X131008570Y-99814107D02*
X130922856Y-99856964D01*
X134801428Y-100963057D02*
X134287143Y-100963057D01*
X134544285Y-101863057D02*
X134544285Y-100963057D01*
X133644286Y-101820200D02*
X133730000Y-101863057D01*
X133730000Y-101863057D02*
X133901429Y-101863057D01*
X133901429Y-101863057D02*
X133987143Y-101820200D01*
X133987143Y-101820200D02*
X134030000Y-101734485D01*
X134030000Y-101734485D02*
X134030000Y-101391628D01*
X134030000Y-101391628D02*
X133987143Y-101305914D01*
X133987143Y-101305914D02*
X133901429Y-101263057D01*
X133901429Y-101263057D02*
X133730000Y-101263057D01*
X133730000Y-101263057D02*
X133644286Y-101305914D01*
X133644286Y-101305914D02*
X133601429Y-101391628D01*
X133601429Y-101391628D02*
X133601429Y-101477342D01*
X133601429Y-101477342D02*
X134030000Y-101563057D01*
X133215714Y-101863057D02*
X133215714Y-101263057D01*
X133215714Y-101434485D02*
X133172857Y-101348771D01*
X133172857Y-101348771D02*
X133130000Y-101305914D01*
X133130000Y-101305914D02*
X133044285Y-101263057D01*
X133044285Y-101263057D02*
X132958571Y-101263057D01*
X132701428Y-101820200D02*
X132615714Y-101863057D01*
X132615714Y-101863057D02*
X132444285Y-101863057D01*
X132444285Y-101863057D02*
X132358571Y-101820200D01*
X132358571Y-101820200D02*
X132315714Y-101734485D01*
X132315714Y-101734485D02*
X132315714Y-101691628D01*
X132315714Y-101691628D02*
X132358571Y-101605914D01*
X132358571Y-101605914D02*
X132444285Y-101563057D01*
X132444285Y-101563057D02*
X132572857Y-101563057D01*
X132572857Y-101563057D02*
X132658571Y-101520200D01*
X132658571Y-101520200D02*
X132701428Y-101434485D01*
X132701428Y-101434485D02*
X132701428Y-101391628D01*
X132701428Y-101391628D02*
X132658571Y-101305914D01*
X132658571Y-101305914D02*
X132572857Y-101263057D01*
X132572857Y-101263057D02*
X132444285Y-101263057D01*
X132444285Y-101263057D02*
X132358571Y-101305914D01*
X132058571Y-101263057D02*
X131715714Y-101263057D01*
X131930000Y-100963057D02*
X131930000Y-101734485D01*
X131930000Y-101734485D02*
X131887143Y-101820200D01*
X131887143Y-101820200D02*
X131801428Y-101863057D01*
X131801428Y-101863057D02*
X131715714Y-101863057D01*
X131072857Y-101820200D02*
X131158571Y-101863057D01*
X131158571Y-101863057D02*
X131330000Y-101863057D01*
X131330000Y-101863057D02*
X131415714Y-101820200D01*
X131415714Y-101820200D02*
X131458571Y-101734485D01*
X131458571Y-101734485D02*
X131458571Y-101391628D01*
X131458571Y-101391628D02*
X131415714Y-101305914D01*
X131415714Y-101305914D02*
X131330000Y-101263057D01*
X131330000Y-101263057D02*
X131158571Y-101263057D01*
X131158571Y-101263057D02*
X131072857Y-101305914D01*
X131072857Y-101305914D02*
X131030000Y-101391628D01*
X131030000Y-101391628D02*
X131030000Y-101477342D01*
X131030000Y-101477342D02*
X131458571Y-101563057D01*
X130301428Y-101820200D02*
X130387142Y-101863057D01*
X130387142Y-101863057D02*
X130558571Y-101863057D01*
X130558571Y-101863057D02*
X130644285Y-101820200D01*
X130644285Y-101820200D02*
X130687142Y-101734485D01*
X130687142Y-101734485D02*
X130687142Y-101391628D01*
X130687142Y-101391628D02*
X130644285Y-101305914D01*
X130644285Y-101305914D02*
X130558571Y-101263057D01*
X130558571Y-101263057D02*
X130387142Y-101263057D01*
X130387142Y-101263057D02*
X130301428Y-101305914D01*
X130301428Y-101305914D02*
X130258571Y-101391628D01*
X130258571Y-101391628D02*
X130258571Y-101477342D01*
X130258571Y-101477342D02*
X130687142Y-101563057D01*
X129487142Y-101263057D02*
X129487142Y-101991628D01*
X129487142Y-101991628D02*
X129529999Y-102077342D01*
X129529999Y-102077342D02*
X129572856Y-102120200D01*
X129572856Y-102120200D02*
X129658570Y-102163057D01*
X129658570Y-102163057D02*
X129787142Y-102163057D01*
X129787142Y-102163057D02*
X129872856Y-102120200D01*
X129487142Y-101820200D02*
X129572856Y-101863057D01*
X129572856Y-101863057D02*
X129744284Y-101863057D01*
X129744284Y-101863057D02*
X129829999Y-101820200D01*
X129829999Y-101820200D02*
X129872856Y-101777342D01*
X129872856Y-101777342D02*
X129915713Y-101691628D01*
X129915713Y-101691628D02*
X129915713Y-101434485D01*
X129915713Y-101434485D02*
X129872856Y-101348771D01*
X129872856Y-101348771D02*
X129829999Y-101305914D01*
X129829999Y-101305914D02*
X129744284Y-101263057D01*
X129744284Y-101263057D02*
X129572856Y-101263057D01*
X129572856Y-101263057D02*
X129487142Y-101305914D01*
D11*
X163892142Y-87385857D02*
X163177857Y-87385857D01*
X164034999Y-87814428D02*
X163534999Y-86314428D01*
X163534999Y-86314428D02*
X163034999Y-87814428D01*
X162535000Y-86814428D02*
X162535000Y-88314428D01*
X162535000Y-86885857D02*
X162392143Y-86814428D01*
X162392143Y-86814428D02*
X162106428Y-86814428D01*
X162106428Y-86814428D02*
X161963571Y-86885857D01*
X161963571Y-86885857D02*
X161892143Y-86957285D01*
X161892143Y-86957285D02*
X161820714Y-87100142D01*
X161820714Y-87100142D02*
X161820714Y-87528714D01*
X161820714Y-87528714D02*
X161892143Y-87671571D01*
X161892143Y-87671571D02*
X161963571Y-87743000D01*
X161963571Y-87743000D02*
X162106428Y-87814428D01*
X162106428Y-87814428D02*
X162392143Y-87814428D01*
X162392143Y-87814428D02*
X162535000Y-87743000D01*
X161177857Y-86814428D02*
X161177857Y-88314428D01*
X161177857Y-86885857D02*
X161035000Y-86814428D01*
X161035000Y-86814428D02*
X160749285Y-86814428D01*
X160749285Y-86814428D02*
X160606428Y-86885857D01*
X160606428Y-86885857D02*
X160535000Y-86957285D01*
X160535000Y-86957285D02*
X160463571Y-87100142D01*
X160463571Y-87100142D02*
X160463571Y-87528714D01*
X160463571Y-87528714D02*
X160535000Y-87671571D01*
X160535000Y-87671571D02*
X160606428Y-87743000D01*
X160606428Y-87743000D02*
X160749285Y-87814428D01*
X160749285Y-87814428D02*
X161035000Y-87814428D01*
X161035000Y-87814428D02*
X161177857Y-87743000D01*
X159606428Y-87814428D02*
X159749285Y-87743000D01*
X159749285Y-87743000D02*
X159820714Y-87600142D01*
X159820714Y-87600142D02*
X159820714Y-86314428D01*
X158463571Y-87743000D02*
X158606428Y-87814428D01*
X158606428Y-87814428D02*
X158892143Y-87814428D01*
X158892143Y-87814428D02*
X159035000Y-87743000D01*
X159035000Y-87743000D02*
X159106428Y-87600142D01*
X159106428Y-87600142D02*
X159106428Y-87028714D01*
X159106428Y-87028714D02*
X159035000Y-86885857D01*
X159035000Y-86885857D02*
X158892143Y-86814428D01*
X158892143Y-86814428D02*
X158606428Y-86814428D01*
X158606428Y-86814428D02*
X158463571Y-86885857D01*
X158463571Y-86885857D02*
X158392143Y-87028714D01*
X158392143Y-87028714D02*
X158392143Y-87171571D01*
X158392143Y-87171571D02*
X159106428Y-87314428D01*
X156606429Y-87814428D02*
X156606429Y-86314428D01*
X155892143Y-87814428D02*
X155892143Y-86314428D01*
X155177857Y-87814428D02*
X155177857Y-86314428D01*
X153534999Y-86814428D02*
X152963571Y-86814428D01*
X153320714Y-86314428D02*
X153320714Y-87600142D01*
X153320714Y-87600142D02*
X153249285Y-87743000D01*
X153249285Y-87743000D02*
X153106428Y-87814428D01*
X153106428Y-87814428D02*
X152963571Y-87814428D01*
X152249285Y-87814428D02*
X152392142Y-87743000D01*
X152392142Y-87743000D02*
X152463571Y-87671571D01*
X152463571Y-87671571D02*
X152534999Y-87528714D01*
X152534999Y-87528714D02*
X152534999Y-87100142D01*
X152534999Y-87100142D02*
X152463571Y-86957285D01*
X152463571Y-86957285D02*
X152392142Y-86885857D01*
X152392142Y-86885857D02*
X152249285Y-86814428D01*
X152249285Y-86814428D02*
X152034999Y-86814428D01*
X152034999Y-86814428D02*
X151892142Y-86885857D01*
X151892142Y-86885857D02*
X151820714Y-86957285D01*
X151820714Y-86957285D02*
X151749285Y-87100142D01*
X151749285Y-87100142D02*
X151749285Y-87528714D01*
X151749285Y-87528714D02*
X151820714Y-87671571D01*
X151820714Y-87671571D02*
X151892142Y-87743000D01*
X151892142Y-87743000D02*
X152034999Y-87814428D01*
X152034999Y-87814428D02*
X152249285Y-87814428D01*
X149963571Y-87814428D02*
X149963571Y-86314428D01*
X149249285Y-87814428D02*
X149249285Y-86314428D01*
X149249285Y-86314428D02*
X148892142Y-86314428D01*
X148892142Y-86314428D02*
X148677856Y-86385857D01*
X148677856Y-86385857D02*
X148534999Y-86528714D01*
X148534999Y-86528714D02*
X148463570Y-86671571D01*
X148463570Y-86671571D02*
X148392142Y-86957285D01*
X148392142Y-86957285D02*
X148392142Y-87171571D01*
X148392142Y-87171571D02*
X148463570Y-87457285D01*
X148463570Y-87457285D02*
X148534999Y-87600142D01*
X148534999Y-87600142D02*
X148677856Y-87743000D01*
X148677856Y-87743000D02*
X148892142Y-87814428D01*
X148892142Y-87814428D02*
X149249285Y-87814428D01*
X146892142Y-87671571D02*
X146963570Y-87743000D01*
X146963570Y-87743000D02*
X147177856Y-87814428D01*
X147177856Y-87814428D02*
X147320713Y-87814428D01*
X147320713Y-87814428D02*
X147534999Y-87743000D01*
X147534999Y-87743000D02*
X147677856Y-87600142D01*
X147677856Y-87600142D02*
X147749285Y-87457285D01*
X147749285Y-87457285D02*
X147820713Y-87171571D01*
X147820713Y-87171571D02*
X147820713Y-86957285D01*
X147820713Y-86957285D02*
X147749285Y-86671571D01*
X147749285Y-86671571D02*
X147677856Y-86528714D01*
X147677856Y-86528714D02*
X147534999Y-86385857D01*
X147534999Y-86385857D02*
X147320713Y-86314428D01*
X147320713Y-86314428D02*
X147177856Y-86314428D01*
X147177856Y-86314428D02*
X146963570Y-86385857D01*
X146963570Y-86385857D02*
X146892142Y-86457285D01*
X146249285Y-87243000D02*
X145106428Y-87243000D01*
X144463570Y-86457285D02*
X144392142Y-86385857D01*
X144392142Y-86385857D02*
X144249285Y-86314428D01*
X144249285Y-86314428D02*
X143892142Y-86314428D01*
X143892142Y-86314428D02*
X143749285Y-86385857D01*
X143749285Y-86385857D02*
X143677856Y-86457285D01*
X143677856Y-86457285D02*
X143606427Y-86600142D01*
X143606427Y-86600142D02*
X143606427Y-86743000D01*
X143606427Y-86743000D02*
X143677856Y-86957285D01*
X143677856Y-86957285D02*
X144534999Y-87814428D01*
X144534999Y-87814428D02*
X143606427Y-87814428D01*
X142677856Y-86314428D02*
X142534999Y-86314428D01*
X142534999Y-86314428D02*
X142392142Y-86385857D01*
X142392142Y-86385857D02*
X142320714Y-86457285D01*
X142320714Y-86457285D02*
X142249285Y-86600142D01*
X142249285Y-86600142D02*
X142177856Y-86885857D01*
X142177856Y-86885857D02*
X142177856Y-87243000D01*
X142177856Y-87243000D02*
X142249285Y-87528714D01*
X142249285Y-87528714D02*
X142320714Y-87671571D01*
X142320714Y-87671571D02*
X142392142Y-87743000D01*
X142392142Y-87743000D02*
X142534999Y-87814428D01*
X142534999Y-87814428D02*
X142677856Y-87814428D01*
X142677856Y-87814428D02*
X142820714Y-87743000D01*
X142820714Y-87743000D02*
X142892142Y-87671571D01*
X142892142Y-87671571D02*
X142963571Y-87528714D01*
X142963571Y-87528714D02*
X143034999Y-87243000D01*
X143034999Y-87243000D02*
X143034999Y-86885857D01*
X143034999Y-86885857D02*
X142963571Y-86600142D01*
X142963571Y-86600142D02*
X142892142Y-86457285D01*
X142892142Y-86457285D02*
X142820714Y-86385857D01*
X142820714Y-86385857D02*
X142677856Y-86314428D01*
D10*
X136471819Y-88011238D02*
X135471819Y-88011238D01*
X135471819Y-88011238D02*
X135471819Y-88392190D01*
X135471819Y-88392190D02*
X135519438Y-88487428D01*
X135519438Y-88487428D02*
X135567057Y-88535047D01*
X135567057Y-88535047D02*
X135662295Y-88582666D01*
X135662295Y-88582666D02*
X135805152Y-88582666D01*
X135805152Y-88582666D02*
X135900390Y-88535047D01*
X135900390Y-88535047D02*
X135948009Y-88487428D01*
X135948009Y-88487428D02*
X135995628Y-88392190D01*
X135995628Y-88392190D02*
X135995628Y-88011238D01*
X136471819Y-89011238D02*
X135805152Y-89011238D01*
X135471819Y-89011238D02*
X135519438Y-88963619D01*
X135519438Y-88963619D02*
X135567057Y-89011238D01*
X135567057Y-89011238D02*
X135519438Y-89058857D01*
X135519438Y-89058857D02*
X135471819Y-89011238D01*
X135471819Y-89011238D02*
X135567057Y-89011238D01*
X135805152Y-89487428D02*
X136471819Y-89487428D01*
X135900390Y-89487428D02*
X135852771Y-89535047D01*
X135852771Y-89535047D02*
X135805152Y-89630285D01*
X135805152Y-89630285D02*
X135805152Y-89773142D01*
X135805152Y-89773142D02*
X135852771Y-89868380D01*
X135852771Y-89868380D02*
X135948009Y-89915999D01*
X135948009Y-89915999D02*
X136471819Y-89915999D01*
X136471819Y-90915999D02*
X136471819Y-90344571D01*
X136471819Y-90630285D02*
X135471819Y-90630285D01*
X135471819Y-90630285D02*
X135614676Y-90535047D01*
X135614676Y-90535047D02*
X135709914Y-90439809D01*
X135709914Y-90439809D02*
X135757533Y-90344571D01*
X136471819Y-91392190D02*
X136471819Y-91582666D01*
X136471819Y-91582666D02*
X136424200Y-91677904D01*
X136424200Y-91677904D02*
X136376580Y-91725523D01*
X136376580Y-91725523D02*
X136233723Y-91820761D01*
X136233723Y-91820761D02*
X136043247Y-91868380D01*
X136043247Y-91868380D02*
X135662295Y-91868380D01*
X135662295Y-91868380D02*
X135567057Y-91820761D01*
X135567057Y-91820761D02*
X135519438Y-91773142D01*
X135519438Y-91773142D02*
X135471819Y-91677904D01*
X135471819Y-91677904D02*
X135471819Y-91487428D01*
X135471819Y-91487428D02*
X135519438Y-91392190D01*
X135519438Y-91392190D02*
X135567057Y-91344571D01*
X135567057Y-91344571D02*
X135662295Y-91296952D01*
X135662295Y-91296952D02*
X135900390Y-91296952D01*
X135900390Y-91296952D02*
X135995628Y-91344571D01*
X135995628Y-91344571D02*
X136043247Y-91392190D01*
X136043247Y-91392190D02*
X136090866Y-91487428D01*
X136090866Y-91487428D02*
X136090866Y-91677904D01*
X136090866Y-91677904D02*
X136043247Y-91773142D01*
X136043247Y-91773142D02*
X135995628Y-91820761D01*
X135995628Y-91820761D02*
X135900390Y-91868380D01*
X139461666Y-87322819D02*
X139461666Y-86322819D01*
X139461666Y-86322819D02*
X139223571Y-86322819D01*
X139223571Y-86322819D02*
X139080714Y-86370438D01*
X139080714Y-86370438D02*
X138985476Y-86465676D01*
X138985476Y-86465676D02*
X138937857Y-86560914D01*
X138937857Y-86560914D02*
X138890238Y-86751390D01*
X138890238Y-86751390D02*
X138890238Y-86894247D01*
X138890238Y-86894247D02*
X138937857Y-87084723D01*
X138937857Y-87084723D02*
X138985476Y-87179961D01*
X138985476Y-87179961D02*
X139080714Y-87275200D01*
X139080714Y-87275200D02*
X139223571Y-87322819D01*
X139223571Y-87322819D02*
X139461666Y-87322819D01*
X137890238Y-87322819D02*
X138223571Y-86846628D01*
X138461666Y-87322819D02*
X138461666Y-86322819D01*
X138461666Y-86322819D02*
X138080714Y-86322819D01*
X138080714Y-86322819D02*
X137985476Y-86370438D01*
X137985476Y-86370438D02*
X137937857Y-86418057D01*
X137937857Y-86418057D02*
X137890238Y-86513295D01*
X137890238Y-86513295D02*
X137890238Y-86656152D01*
X137890238Y-86656152D02*
X137937857Y-86751390D01*
X137937857Y-86751390D02*
X137985476Y-86799009D01*
X137985476Y-86799009D02*
X138080714Y-86846628D01*
X138080714Y-86846628D02*
X138461666Y-86846628D01*
X137604523Y-86322819D02*
X137271190Y-87322819D01*
X137271190Y-87322819D02*
X136937857Y-86322819D01*
X136699761Y-86322819D02*
X136080714Y-86322819D01*
X136080714Y-86322819D02*
X136414047Y-86703771D01*
X136414047Y-86703771D02*
X136271190Y-86703771D01*
X136271190Y-86703771D02*
X136175952Y-86751390D01*
X136175952Y-86751390D02*
X136128333Y-86799009D01*
X136128333Y-86799009D02*
X136080714Y-86894247D01*
X136080714Y-86894247D02*
X136080714Y-87132342D01*
X136080714Y-87132342D02*
X136128333Y-87227580D01*
X136128333Y-87227580D02*
X136175952Y-87275200D01*
X136175952Y-87275200D02*
X136271190Y-87322819D01*
X136271190Y-87322819D02*
X136556904Y-87322819D01*
X136556904Y-87322819D02*
X136652142Y-87275200D01*
X136652142Y-87275200D02*
X136699761Y-87227580D01*
X139641904Y-93089866D02*
X138880000Y-93089866D01*
X139260952Y-93470819D02*
X139260952Y-92708914D01*
X137880000Y-93470819D02*
X138451428Y-93470819D01*
X138165714Y-93470819D02*
X138165714Y-92470819D01*
X138165714Y-92470819D02*
X138260952Y-92613676D01*
X138260952Y-92613676D02*
X138356190Y-92708914D01*
X138356190Y-92708914D02*
X138451428Y-92756533D01*
X137499047Y-92566057D02*
X137451428Y-92518438D01*
X137451428Y-92518438D02*
X137356190Y-92470819D01*
X137356190Y-92470819D02*
X137118095Y-92470819D01*
X137118095Y-92470819D02*
X137022857Y-92518438D01*
X137022857Y-92518438D02*
X136975238Y-92566057D01*
X136975238Y-92566057D02*
X136927619Y-92661295D01*
X136927619Y-92661295D02*
X136927619Y-92756533D01*
X136927619Y-92756533D02*
X136975238Y-92899390D01*
X136975238Y-92899390D02*
X137546666Y-93470819D01*
X137546666Y-93470819D02*
X136927619Y-93470819D01*
X136641904Y-92470819D02*
X136308571Y-93470819D01*
X136308571Y-93470819D02*
X135975238Y-92470819D01*
X170634819Y-90706429D02*
X169634819Y-90706429D01*
X169634819Y-90706429D02*
X169634819Y-91087381D01*
X169634819Y-91087381D02*
X169682438Y-91182619D01*
X169682438Y-91182619D02*
X169730057Y-91230238D01*
X169730057Y-91230238D02*
X169825295Y-91277857D01*
X169825295Y-91277857D02*
X169968152Y-91277857D01*
X169968152Y-91277857D02*
X170063390Y-91230238D01*
X170063390Y-91230238D02*
X170111009Y-91182619D01*
X170111009Y-91182619D02*
X170158628Y-91087381D01*
X170158628Y-91087381D02*
X170158628Y-90706429D01*
X170634819Y-91706429D02*
X169968152Y-91706429D01*
X169634819Y-91706429D02*
X169682438Y-91658810D01*
X169682438Y-91658810D02*
X169730057Y-91706429D01*
X169730057Y-91706429D02*
X169682438Y-91754048D01*
X169682438Y-91754048D02*
X169634819Y-91706429D01*
X169634819Y-91706429D02*
X169730057Y-91706429D01*
X169968152Y-92182619D02*
X170634819Y-92182619D01*
X170063390Y-92182619D02*
X170015771Y-92230238D01*
X170015771Y-92230238D02*
X169968152Y-92325476D01*
X169968152Y-92325476D02*
X169968152Y-92468333D01*
X169968152Y-92468333D02*
X170015771Y-92563571D01*
X170015771Y-92563571D02*
X170111009Y-92611190D01*
X170111009Y-92611190D02*
X170634819Y-92611190D01*
X169634819Y-93563571D02*
X169634819Y-93087381D01*
X169634819Y-93087381D02*
X170111009Y-93039762D01*
X170111009Y-93039762D02*
X170063390Y-93087381D01*
X170063390Y-93087381D02*
X170015771Y-93182619D01*
X170015771Y-93182619D02*
X170015771Y-93420714D01*
X170015771Y-93420714D02*
X170063390Y-93515952D01*
X170063390Y-93515952D02*
X170111009Y-93563571D01*
X170111009Y-93563571D02*
X170206247Y-93611190D01*
X170206247Y-93611190D02*
X170444342Y-93611190D01*
X170444342Y-93611190D02*
X170539580Y-93563571D01*
X170539580Y-93563571D02*
X170587200Y-93515952D01*
X170587200Y-93515952D02*
X170634819Y-93420714D01*
X170634819Y-93420714D02*
X170634819Y-93182619D01*
X170634819Y-93182619D02*
X170587200Y-93087381D01*
X170587200Y-93087381D02*
X170539580Y-93039762D01*
X172846904Y-94887438D02*
X172942142Y-94839819D01*
X172942142Y-94839819D02*
X173084999Y-94839819D01*
X173084999Y-94839819D02*
X173227856Y-94887438D01*
X173227856Y-94887438D02*
X173323094Y-94982676D01*
X173323094Y-94982676D02*
X173370713Y-95077914D01*
X173370713Y-95077914D02*
X173418332Y-95268390D01*
X173418332Y-95268390D02*
X173418332Y-95411247D01*
X173418332Y-95411247D02*
X173370713Y-95601723D01*
X173370713Y-95601723D02*
X173323094Y-95696961D01*
X173323094Y-95696961D02*
X173227856Y-95792200D01*
X173227856Y-95792200D02*
X173084999Y-95839819D01*
X173084999Y-95839819D02*
X172989761Y-95839819D01*
X172989761Y-95839819D02*
X172846904Y-95792200D01*
X172846904Y-95792200D02*
X172799285Y-95744580D01*
X172799285Y-95744580D02*
X172799285Y-95411247D01*
X172799285Y-95411247D02*
X172989761Y-95411247D01*
X172370713Y-95839819D02*
X172370713Y-94839819D01*
X172370713Y-94839819D02*
X171799285Y-95839819D01*
X171799285Y-95839819D02*
X171799285Y-94839819D01*
X171323094Y-95839819D02*
X171323094Y-94839819D01*
X171323094Y-94839819D02*
X171084999Y-94839819D01*
X171084999Y-94839819D02*
X170942142Y-94887438D01*
X170942142Y-94887438D02*
X170846904Y-94982676D01*
X170846904Y-94982676D02*
X170799285Y-95077914D01*
X170799285Y-95077914D02*
X170751666Y-95268390D01*
X170751666Y-95268390D02*
X170751666Y-95411247D01*
X170751666Y-95411247D02*
X170799285Y-95601723D01*
X170799285Y-95601723D02*
X170846904Y-95696961D01*
X170846904Y-95696961D02*
X170942142Y-95792200D01*
X170942142Y-95792200D02*
X171084999Y-95839819D01*
X171084999Y-95839819D02*
X171323094Y-95839819D01*
X173751666Y-89339819D02*
X173751666Y-88339819D01*
X173751666Y-88339819D02*
X173513571Y-88339819D01*
X173513571Y-88339819D02*
X173370714Y-88387438D01*
X173370714Y-88387438D02*
X173275476Y-88482676D01*
X173275476Y-88482676D02*
X173227857Y-88577914D01*
X173227857Y-88577914D02*
X173180238Y-88768390D01*
X173180238Y-88768390D02*
X173180238Y-88911247D01*
X173180238Y-88911247D02*
X173227857Y-89101723D01*
X173227857Y-89101723D02*
X173275476Y-89196961D01*
X173275476Y-89196961D02*
X173370714Y-89292200D01*
X173370714Y-89292200D02*
X173513571Y-89339819D01*
X173513571Y-89339819D02*
X173751666Y-89339819D01*
X172180238Y-89339819D02*
X172513571Y-88863628D01*
X172751666Y-89339819D02*
X172751666Y-88339819D01*
X172751666Y-88339819D02*
X172370714Y-88339819D01*
X172370714Y-88339819D02*
X172275476Y-88387438D01*
X172275476Y-88387438D02*
X172227857Y-88435057D01*
X172227857Y-88435057D02*
X172180238Y-88530295D01*
X172180238Y-88530295D02*
X172180238Y-88673152D01*
X172180238Y-88673152D02*
X172227857Y-88768390D01*
X172227857Y-88768390D02*
X172275476Y-88816009D01*
X172275476Y-88816009D02*
X172370714Y-88863628D01*
X172370714Y-88863628D02*
X172751666Y-88863628D01*
X171894523Y-88339819D02*
X171561190Y-89339819D01*
X171561190Y-89339819D02*
X171227857Y-88339819D01*
X170942142Y-88435057D02*
X170894523Y-88387438D01*
X170894523Y-88387438D02*
X170799285Y-88339819D01*
X170799285Y-88339819D02*
X170561190Y-88339819D01*
X170561190Y-88339819D02*
X170465952Y-88387438D01*
X170465952Y-88387438D02*
X170418333Y-88435057D01*
X170418333Y-88435057D02*
X170370714Y-88530295D01*
X170370714Y-88530295D02*
X170370714Y-88625533D01*
X170370714Y-88625533D02*
X170418333Y-88768390D01*
X170418333Y-88768390D02*
X170989761Y-89339819D01*
X170989761Y-89339819D02*
X170370714Y-89339819D01*
X154638333Y-98514819D02*
X154638333Y-99229104D01*
X154638333Y-99229104D02*
X154685952Y-99371961D01*
X154685952Y-99371961D02*
X154781190Y-99467200D01*
X154781190Y-99467200D02*
X154924047Y-99514819D01*
X154924047Y-99514819D02*
X155019285Y-99514819D01*
X154209761Y-98610057D02*
X154162142Y-98562438D01*
X154162142Y-98562438D02*
X154066904Y-98514819D01*
X154066904Y-98514819D02*
X153828809Y-98514819D01*
X153828809Y-98514819D02*
X153733571Y-98562438D01*
X153733571Y-98562438D02*
X153685952Y-98610057D01*
X153685952Y-98610057D02*
X153638333Y-98705295D01*
X153638333Y-98705295D02*
X153638333Y-98800533D01*
X153638333Y-98800533D02*
X153685952Y-98943390D01*
X153685952Y-98943390D02*
X154257380Y-99514819D01*
X154257380Y-99514819D02*
X153638333Y-99514819D01*
X130756819Y-88138238D02*
X129756819Y-88138238D01*
X129756819Y-88138238D02*
X129756819Y-88519190D01*
X129756819Y-88519190D02*
X129804438Y-88614428D01*
X129804438Y-88614428D02*
X129852057Y-88662047D01*
X129852057Y-88662047D02*
X129947295Y-88709666D01*
X129947295Y-88709666D02*
X130090152Y-88709666D01*
X130090152Y-88709666D02*
X130185390Y-88662047D01*
X130185390Y-88662047D02*
X130233009Y-88614428D01*
X130233009Y-88614428D02*
X130280628Y-88519190D01*
X130280628Y-88519190D02*
X130280628Y-88138238D01*
X130756819Y-89138238D02*
X130090152Y-89138238D01*
X129756819Y-89138238D02*
X129804438Y-89090619D01*
X129804438Y-89090619D02*
X129852057Y-89138238D01*
X129852057Y-89138238D02*
X129804438Y-89185857D01*
X129804438Y-89185857D02*
X129756819Y-89138238D01*
X129756819Y-89138238D02*
X129852057Y-89138238D01*
X130090152Y-89614428D02*
X130756819Y-89614428D01*
X130185390Y-89614428D02*
X130137771Y-89662047D01*
X130137771Y-89662047D02*
X130090152Y-89757285D01*
X130090152Y-89757285D02*
X130090152Y-89900142D01*
X130090152Y-89900142D02*
X130137771Y-89995380D01*
X130137771Y-89995380D02*
X130233009Y-90042999D01*
X130233009Y-90042999D02*
X130756819Y-90042999D01*
X130756819Y-91042999D02*
X130756819Y-90471571D01*
X130756819Y-90757285D02*
X129756819Y-90757285D01*
X129756819Y-90757285D02*
X129899676Y-90662047D01*
X129899676Y-90662047D02*
X129994914Y-90566809D01*
X129994914Y-90566809D02*
X130042533Y-90471571D01*
X129756819Y-91376333D02*
X129756819Y-92042999D01*
X129756819Y-92042999D02*
X130756819Y-91614428D01*
X133841904Y-93261866D02*
X133080000Y-93261866D01*
X133460952Y-93642819D02*
X133460952Y-92880914D01*
X132080000Y-93642819D02*
X132651428Y-93642819D01*
X132365714Y-93642819D02*
X132365714Y-92642819D01*
X132365714Y-92642819D02*
X132460952Y-92785676D01*
X132460952Y-92785676D02*
X132556190Y-92880914D01*
X132556190Y-92880914D02*
X132651428Y-92928533D01*
X131699047Y-92738057D02*
X131651428Y-92690438D01*
X131651428Y-92690438D02*
X131556190Y-92642819D01*
X131556190Y-92642819D02*
X131318095Y-92642819D01*
X131318095Y-92642819D02*
X131222857Y-92690438D01*
X131222857Y-92690438D02*
X131175238Y-92738057D01*
X131175238Y-92738057D02*
X131127619Y-92833295D01*
X131127619Y-92833295D02*
X131127619Y-92928533D01*
X131127619Y-92928533D02*
X131175238Y-93071390D01*
X131175238Y-93071390D02*
X131746666Y-93642819D01*
X131746666Y-93642819D02*
X131127619Y-93642819D01*
X130841904Y-92642819D02*
X130508571Y-93642819D01*
X130508571Y-93642819D02*
X130175238Y-92642819D01*
X133746666Y-87292819D02*
X133746666Y-86292819D01*
X133746666Y-86292819D02*
X133508571Y-86292819D01*
X133508571Y-86292819D02*
X133365714Y-86340438D01*
X133365714Y-86340438D02*
X133270476Y-86435676D01*
X133270476Y-86435676D02*
X133222857Y-86530914D01*
X133222857Y-86530914D02*
X133175238Y-86721390D01*
X133175238Y-86721390D02*
X133175238Y-86864247D01*
X133175238Y-86864247D02*
X133222857Y-87054723D01*
X133222857Y-87054723D02*
X133270476Y-87149961D01*
X133270476Y-87149961D02*
X133365714Y-87245200D01*
X133365714Y-87245200D02*
X133508571Y-87292819D01*
X133508571Y-87292819D02*
X133746666Y-87292819D01*
X132175238Y-87292819D02*
X132508571Y-86816628D01*
X132746666Y-87292819D02*
X132746666Y-86292819D01*
X132746666Y-86292819D02*
X132365714Y-86292819D01*
X132365714Y-86292819D02*
X132270476Y-86340438D01*
X132270476Y-86340438D02*
X132222857Y-86388057D01*
X132222857Y-86388057D02*
X132175238Y-86483295D01*
X132175238Y-86483295D02*
X132175238Y-86626152D01*
X132175238Y-86626152D02*
X132222857Y-86721390D01*
X132222857Y-86721390D02*
X132270476Y-86769009D01*
X132270476Y-86769009D02*
X132365714Y-86816628D01*
X132365714Y-86816628D02*
X132746666Y-86816628D01*
X131889523Y-86292819D02*
X131556190Y-87292819D01*
X131556190Y-87292819D02*
X131222857Y-86292819D01*
X130937142Y-86388057D02*
X130889523Y-86340438D01*
X130889523Y-86340438D02*
X130794285Y-86292819D01*
X130794285Y-86292819D02*
X130556190Y-86292819D01*
X130556190Y-86292819D02*
X130460952Y-86340438D01*
X130460952Y-86340438D02*
X130413333Y-86388057D01*
X130413333Y-86388057D02*
X130365714Y-86483295D01*
X130365714Y-86483295D02*
X130365714Y-86578533D01*
X130365714Y-86578533D02*
X130413333Y-86721390D01*
X130413333Y-86721390D02*
X130984761Y-87292819D01*
X130984761Y-87292819D02*
X130365714Y-87292819D01*
X150351904Y-94688866D02*
X149590000Y-94688866D01*
X149970952Y-95069819D02*
X149970952Y-94307914D01*
X148590000Y-95069819D02*
X149161428Y-95069819D01*
X148875714Y-95069819D02*
X148875714Y-94069819D01*
X148875714Y-94069819D02*
X148970952Y-94212676D01*
X148970952Y-94212676D02*
X149066190Y-94307914D01*
X149066190Y-94307914D02*
X149161428Y-94355533D01*
X148209047Y-94165057D02*
X148161428Y-94117438D01*
X148161428Y-94117438D02*
X148066190Y-94069819D01*
X148066190Y-94069819D02*
X147828095Y-94069819D01*
X147828095Y-94069819D02*
X147732857Y-94117438D01*
X147732857Y-94117438D02*
X147685238Y-94165057D01*
X147685238Y-94165057D02*
X147637619Y-94260295D01*
X147637619Y-94260295D02*
X147637619Y-94355533D01*
X147637619Y-94355533D02*
X147685238Y-94498390D01*
X147685238Y-94498390D02*
X148256666Y-95069819D01*
X148256666Y-95069819D02*
X147637619Y-95069819D01*
X147351904Y-94069819D02*
X147018571Y-95069819D01*
X147018571Y-95069819D02*
X146685238Y-94069819D01*
X163051904Y-94688866D02*
X162290000Y-94688866D01*
X161290000Y-95069819D02*
X161861428Y-95069819D01*
X161575714Y-95069819D02*
X161575714Y-94069819D01*
X161575714Y-94069819D02*
X161670952Y-94212676D01*
X161670952Y-94212676D02*
X161766190Y-94307914D01*
X161766190Y-94307914D02*
X161861428Y-94355533D01*
X160909047Y-94165057D02*
X160861428Y-94117438D01*
X160861428Y-94117438D02*
X160766190Y-94069819D01*
X160766190Y-94069819D02*
X160528095Y-94069819D01*
X160528095Y-94069819D02*
X160432857Y-94117438D01*
X160432857Y-94117438D02*
X160385238Y-94165057D01*
X160385238Y-94165057D02*
X160337619Y-94260295D01*
X160337619Y-94260295D02*
X160337619Y-94355533D01*
X160337619Y-94355533D02*
X160385238Y-94498390D01*
X160385238Y-94498390D02*
X160956666Y-95069819D01*
X160956666Y-95069819D02*
X160337619Y-95069819D01*
X160051904Y-94069819D02*
X159718571Y-95069819D01*
X159718571Y-95069819D02*
X159385238Y-94069819D01*
D12*
%TO.C,JP5*%
X136795000Y-88566000D02*
G75*
G02*
X137495000Y-87866000I700000J0D01*
G01*
X138095000Y-87866000D02*
G75*
G02*
X138795000Y-88566000I0J-700000D01*
G01*
X137495000Y-91966000D02*
G75*
G02*
X136795000Y-91266000I-1J699999D01*
G01*
X138795000Y-91266000D02*
G75*
G02*
X138095000Y-91966000I-699999J-1D01*
G01*
X137495000Y-87866000D02*
X138095000Y-87866000D01*
X136795000Y-91316000D02*
X136795000Y-88516000D01*
X138795000Y-88516000D02*
X138795000Y-91316000D01*
X138095000Y-91966000D02*
X137495000Y-91966000D01*
%TO.C,JP4*%
X172385000Y-94155000D02*
X171785000Y-94155000D01*
X173085000Y-90705000D02*
X173085000Y-93505000D01*
X171085000Y-93505000D02*
X171085000Y-90705000D01*
X171785000Y-90055000D02*
X172385000Y-90055000D01*
X173085000Y-93455000D02*
G75*
G02*
X172385000Y-94155000I-699999J-1D01*
G01*
X171785000Y-94155000D02*
G75*
G02*
X171085000Y-93455000I-1J699999D01*
G01*
X172385000Y-90055000D02*
G75*
G02*
X173085000Y-90755000I0J-700000D01*
G01*
X171085000Y-90755000D02*
G75*
G02*
X171785000Y-90055000I700000J0D01*
G01*
%TO.C,J2*%
X136465000Y-101660000D02*
X169605000Y-101660000D01*
X169605000Y-99060000D02*
X169605000Y-101660000D01*
X136465000Y-96460000D02*
X136465000Y-101660000D01*
X167005000Y-99060000D02*
X169605000Y-99060000D01*
X167005000Y-96460000D02*
X167005000Y-99060000D01*
X169605000Y-96460000D02*
X169605000Y-97790000D01*
X168275000Y-96460000D02*
X169605000Y-96460000D01*
X136465000Y-96460000D02*
X167005000Y-96460000D01*
%TO.C,JP2*%
X132380000Y-92093000D02*
X131780000Y-92093000D01*
X133080000Y-88643000D02*
X133080000Y-91443000D01*
X131080000Y-91443000D02*
X131080000Y-88643000D01*
X131780000Y-87993000D02*
X132380000Y-87993000D01*
X133080000Y-91393000D02*
G75*
G02*
X132380000Y-92093000I-699999J-1D01*
G01*
X131780000Y-92093000D02*
G75*
G02*
X131080000Y-91393000I-1J699999D01*
G01*
X132380000Y-87993000D02*
G75*
G02*
X133080000Y-88693000I0J-700000D01*
G01*
X131080000Y-88693000D02*
G75*
G02*
X131780000Y-87993000I700000J0D01*
G01*
%TO.C,JP1*%
X153785000Y-94315000D02*
X153785000Y-94915000D01*
X151685000Y-93615000D02*
X153085000Y-93615000D01*
X153085000Y-95615000D02*
X151685000Y-95615000D01*
X150985000Y-94915000D02*
X150985000Y-94315000D01*
X153085000Y-93615000D02*
G75*
G02*
X153785000Y-94315000I1J-699999D01*
G01*
X153785000Y-94915000D02*
G75*
G02*
X153085000Y-95615000I-699999J-1D01*
G01*
X150985000Y-94315000D02*
G75*
G02*
X151685000Y-93615000I700000J0D01*
G01*
X151685000Y-95615000D02*
G75*
G02*
X150985000Y-94915000I0J700000D01*
G01*
%TO.C,JP3*%
X158865000Y-94315000D02*
X158865000Y-94915000D01*
X156765000Y-93615000D02*
X158165000Y-93615000D01*
X158165000Y-95615000D02*
X156765000Y-95615000D01*
X156065000Y-94915000D02*
X156065000Y-94315000D01*
X158165000Y-93615000D02*
G75*
G02*
X158865000Y-94315000I1J-699999D01*
G01*
X158865000Y-94915000D02*
G75*
G02*
X158165000Y-95615000I-699999J-1D01*
G01*
X156065000Y-94315000D02*
G75*
G02*
X156765000Y-93615000I700000J0D01*
G01*
X156765000Y-95615000D02*
G75*
G02*
X156065000Y-94915000I0J700000D01*
G01*
%TD*%
M02*
