%TF.GenerationSoftware,KiCad,Pcbnew,8.0.4*%
%TF.CreationDate,2024-09-19T23:06:26-05:00*%
%TF.ProjectId,IDC-26-Adapter-Rev1,4944432d-3236-42d4-9164-61707465722d,1.1*%
%TF.SameCoordinates,Original*%
%TF.FileFunction,Copper,L2,Bot*%
%TF.FilePolarity,Positive*%
%FSLAX46Y46*%
G04 Gerber Fmt 4.6, Leading zero omitted, Abs format (unit mm)*
G04 Created by KiCad (PCBNEW 8.0.4) date 2024-09-19 23:06:26*
%MOMM*%
%LPD*%
G01*
G04 APERTURE LIST*
G04 Aperture macros list*
%AMRoundRect*
0 Rectangle with rounded corners*
0 $1 Rounding radius*
0 $2 $3 $4 $5 $6 $7 $8 $9 X,Y pos of 4 corners*
0 Add a 4 corners polygon primitive as box body*
4,1,4,$2,$3,$4,$5,$6,$7,$8,$9,$2,$3,0*
0 Add four circle primitives for the rounded corners*
1,1,$1+$1,$2,$3*
1,1,$1+$1,$4,$5*
1,1,$1+$1,$6,$7*
1,1,$1+$1,$8,$9*
0 Add four rect primitives between the rounded corners*
20,1,$1+$1,$2,$3,$4,$5,0*
20,1,$1+$1,$4,$5,$6,$7,0*
20,1,$1+$1,$6,$7,$8,$9,0*
20,1,$1+$1,$8,$9,$2,$3,0*%
%AMFreePoly0*
4,1,19,0.000000,0.744911,0.071157,0.744911,0.207708,0.704816,0.327430,0.627875,0.420627,0.520320,0.479746,0.390866,0.500000,0.250000,0.500000,-0.250000,0.479746,-0.390866,0.420627,-0.520320,0.327430,-0.627875,0.207708,-0.704816,0.071157,-0.744911,0.000000,-0.744911,0.000000,-0.750000,-0.550000,-0.750000,-0.550000,0.750000,0.000000,0.750000,0.000000,0.744911,0.000000,0.744911,
$1*%
%AMFreePoly1*
4,1,19,0.550000,-0.750000,0.000000,-0.750000,0.000000,-0.744911,-0.071157,-0.744911,-0.207708,-0.704816,-0.327430,-0.627875,-0.420627,-0.520320,-0.479746,-0.390866,-0.500000,-0.250000,-0.500000,0.250000,-0.479746,0.390866,-0.420627,0.520320,-0.327430,0.627875,-0.207708,0.704816,-0.071157,0.744911,0.000000,0.744911,0.000000,0.750000,0.550000,0.750000,0.550000,-0.750000,0.550000,-0.750000,
$1*%
%AMFreePoly2*
4,1,19,0.500000,-0.750000,0.000000,-0.750000,0.000000,-0.744911,-0.071157,-0.744911,-0.207708,-0.704816,-0.327430,-0.627875,-0.420627,-0.520320,-0.479746,-0.390866,-0.500000,-0.250000,-0.500000,0.250000,-0.479746,0.390866,-0.420627,0.520320,-0.327430,0.627875,-0.207708,0.704816,-0.071157,0.744911,0.000000,0.744911,0.000000,0.750000,0.500000,0.750000,0.500000,-0.750000,0.500000,-0.750000,
$1*%
%AMFreePoly3*
4,1,19,0.000000,0.744911,0.071157,0.744911,0.207708,0.704816,0.327430,0.627875,0.420627,0.520320,0.479746,0.390866,0.500000,0.250000,0.500000,-0.250000,0.479746,-0.390866,0.420627,-0.520320,0.327430,-0.627875,0.207708,-0.704816,0.071157,-0.744911,0.000000,-0.744911,0.000000,-0.750000,-0.500000,-0.750000,-0.500000,0.750000,0.000000,0.750000,0.000000,0.744911,0.000000,0.744911,
$1*%
G04 Aperture macros list end*
%TA.AperFunction,SMDPad,CuDef*%
%ADD10FreePoly0,90.000000*%
%TD*%
%TA.AperFunction,SMDPad,CuDef*%
%ADD11R,1.500000X1.000000*%
%TD*%
%TA.AperFunction,SMDPad,CuDef*%
%ADD12FreePoly1,90.000000*%
%TD*%
%TA.AperFunction,ComponentPad*%
%ADD13R,1.700000X1.700000*%
%TD*%
%TA.AperFunction,ComponentPad*%
%ADD14O,1.700000X1.700000*%
%TD*%
%TA.AperFunction,SMDPad,CuDef*%
%ADD15FreePoly2,180.000000*%
%TD*%
%TA.AperFunction,SMDPad,CuDef*%
%ADD16FreePoly3,180.000000*%
%TD*%
%TA.AperFunction,ComponentPad*%
%ADD17RoundRect,0.250000X-0.600000X0.600000X-0.600000X-0.600000X0.600000X-0.600000X0.600000X0.600000X0*%
%TD*%
%TA.AperFunction,ComponentPad*%
%ADD18C,1.700000*%
%TD*%
%TA.AperFunction,ViaPad*%
%ADD19C,0.800000*%
%TD*%
%TA.AperFunction,ViaPad*%
%ADD20C,0.600000*%
%TD*%
%TA.AperFunction,Conductor*%
%ADD21C,0.250000*%
%TD*%
%TA.AperFunction,Conductor*%
%ADD22C,0.400000*%
%TD*%
G04 APERTURE END LIST*
D10*
%TO.P,JP5,3,B*%
%TO.N,/IDC20_DRIVE3*%
X137795000Y-88616000D03*
D11*
%TO.P,JP5,2,C*%
%TO.N,/IDC20_PIN19*%
X137795000Y-89916000D03*
D12*
%TO.P,JP5,1,A*%
%TO.N,/IDC20_+12V*%
X137795000Y-91216000D03*
%TD*%
%TO.P,JP4,1,A*%
%TO.N,GND*%
X172085000Y-93405000D03*
D11*
%TO.P,JP4,2,C*%
%TO.N,Net-(JP4-C)*%
X172085000Y-92105000D03*
D10*
%TO.P,JP4,3,B*%
%TO.N,/IDC20_DRIVE2*%
X172085000Y-90805000D03*
%TD*%
D13*
%TO.P,J2,1,Pin_1*%
%TO.N,GND*%
X168275000Y-97790000D03*
D14*
%TO.P,J2,2,Pin_2*%
%TO.N,/A3_PH0*%
X168275000Y-100330000D03*
%TO.P,J2,3,Pin_3*%
%TO.N,GND*%
X165735000Y-97790000D03*
%TO.P,J2,4,Pin_4*%
%TO.N,/A3_PH1*%
X165735000Y-100330000D03*
%TO.P,J2,5,Pin_5*%
%TO.N,GND*%
X163195000Y-97790000D03*
%TO.P,J2,6,Pin_6*%
%TO.N,/A3_PH2*%
X163195000Y-100330000D03*
%TO.P,J2,7,Pin_7*%
%TO.N,GND*%
X160655000Y-97790000D03*
%TO.P,J2,8,Pin_8*%
%TO.N,/A3_PH3*%
X160655000Y-100330000D03*
%TO.P,J2,9,Pin_9*%
%TO.N,/A3_-12V*%
X158115000Y-97790000D03*
%TO.P,J2,10,Pin_10*%
%TO.N,/A3_WREQ*%
X158115000Y-100330000D03*
%TO.P,J2,11,Pin_11*%
%TO.N,/A3_5V*%
X155575000Y-97790000D03*
%TO.P,J2,12,Pin_12*%
%TO.N,/A3_HDSEL*%
X155575000Y-100330000D03*
%TO.P,J2,13,Pin_13*%
%TO.N,/A3_+12V*%
X153035000Y-97790000D03*
%TO.P,J2,14,Pin_14*%
%TO.N,/A3_DRIVE1*%
X153035000Y-100330000D03*
%TO.P,J2,15,Pin_15*%
%TO.N,/A3_+12V*%
X150495000Y-97790000D03*
%TO.P,J2,16,Pin_16*%
%TO.N,/A3_RD_DATA*%
X150495000Y-100330000D03*
%TO.P,J2,17,Pin_17*%
%TO.N,/A3_+12V*%
X147955000Y-97790000D03*
%TO.P,J2,18,Pin_18*%
%TO.N,/A3_WR_DATA*%
X147955000Y-100330000D03*
%TO.P,J2,19,Pin_19*%
%TO.N,/A3_+12V*%
X145415000Y-97790000D03*
%TO.P,J2,20,Pin_20*%
%TO.N,/A3_WPROT*%
X145415000Y-100330000D03*
%TO.P,J2,21,Pin_21*%
%TO.N,/A3_DRIVE3*%
X142875000Y-97790000D03*
%TO.P,J2,22,Pin_22*%
%TO.N,/A3_DRIVE2*%
X142875000Y-100330000D03*
%TO.P,J2,23,Pin_23*%
%TO.N,unconnected-(J2-Pin_23-Pad23)*%
X140335000Y-97790000D03*
%TO.P,J2,24,Pin_24*%
%TO.N,unconnected-(J2-Pin_24-Pad24)*%
X140335000Y-100330000D03*
%TO.P,J2,25,Pin_25*%
%TO.N,unconnected-(J2-Pin_25-Pad25)*%
X137795000Y-97790000D03*
%TO.P,J2,26,Pin_26*%
%TO.N,/A3_INT{slash}EXT*%
X137795000Y-100330000D03*
%TD*%
D12*
%TO.P,JP2,1,A*%
%TO.N,/IDC20_+12V*%
X132080000Y-91343000D03*
D11*
%TO.P,JP2,2,C*%
%TO.N,/IDC20_PIN17*%
X132080000Y-90043000D03*
D10*
%TO.P,JP2,3,B*%
%TO.N,/IDC20_DRIVE2*%
X132080000Y-88743000D03*
%TD*%
D15*
%TO.P,JP1,1,A*%
%TO.N,/A3_+12V*%
X153035000Y-94615000D03*
D16*
%TO.P,JP1,2,B*%
%TO.N,/IDC20_+12V*%
X151735000Y-94615000D03*
%TD*%
D17*
%TO.P,J1,1,Pin_1*%
%TO.N,GND*%
X164465000Y-89535000D03*
D18*
%TO.P,J1,2,Pin_2*%
%TO.N,/A3_PH0*%
X164465000Y-92075000D03*
%TO.P,J1,3,Pin_3*%
%TO.N,GND*%
X161925000Y-89535000D03*
%TO.P,J1,4,Pin_4*%
%TO.N,/A3_PH1*%
X161925000Y-92075000D03*
%TO.P,J1,5,Pin_5*%
%TO.N,/IDC20_PIN5*%
X159385000Y-89535000D03*
%TO.P,J1,6,Pin_6*%
%TO.N,/A3_PH2*%
X159385000Y-92075000D03*
%TO.P,J1,7,Pin_7*%
%TO.N,GND*%
X156845000Y-89535000D03*
%TO.P,J1,8,Pin_8*%
%TO.N,/A3_PH3*%
X156845000Y-92075000D03*
%TO.P,J1,9,Pin_9*%
%TO.N,/IDC20_-12V*%
X154305000Y-89535000D03*
%TO.P,J1,10,Pin_10*%
%TO.N,/A3_WREQ*%
X154305000Y-92075000D03*
%TO.P,J1,11,Pin_11*%
%TO.N,/A3_5V*%
X151765000Y-89535000D03*
%TO.P,J1,12,Pin_12*%
%TO.N,/A3_HDSEL*%
X151765000Y-92075000D03*
%TO.P,J1,13,Pin_13*%
%TO.N,/IDC20_+12V*%
X149225000Y-89535000D03*
%TO.P,J1,14,Pin_14*%
%TO.N,/IDC20_DRIVE1*%
X149225000Y-92075000D03*
%TO.P,J1,15,Pin_15*%
%TO.N,/IDC20_+12V*%
X146685000Y-89535000D03*
%TO.P,J1,16,Pin_16*%
%TO.N,/A3_RD_DATA*%
X146685000Y-92075000D03*
%TO.P,J1,17,Pin_17*%
%TO.N,/IDC20_PIN17*%
X144145000Y-89535000D03*
%TO.P,J1,18,Pin_18*%
%TO.N,/A3_WR_DATA*%
X144145000Y-92075000D03*
%TO.P,J1,19,Pin_19*%
%TO.N,/IDC20_PIN19*%
X141605000Y-89535000D03*
%TO.P,J1,20,Pin_20*%
%TO.N,/A3_WPROT*%
X141605000Y-92075000D03*
%TD*%
D15*
%TO.P,JP3,1,A*%
%TO.N,/A3_-12V*%
X158115000Y-94615000D03*
D16*
%TO.P,JP3,2,B*%
%TO.N,/IDC20_-12V*%
X156815000Y-94615000D03*
%TD*%
D19*
%TO.N,/A3_5V*%
X129159000Y-98947500D03*
D20*
%TO.N,/IDC20_DRIVE3*%
X139192000Y-86682000D03*
X130937000Y-86995000D03*
%TO.N,/IDC20_DRIVE2*%
X132080000Y-87376000D03*
%TO.N,/IDC20_DRIVE1*%
X137668000Y-92964000D03*
X135890000Y-92075000D03*
D19*
%TO.N,/A3_DRIVE2*%
X132969000Y-96520000D03*
%TO.N,/A3_DRIVE3*%
X131079000Y-96281000D03*
%TO.N,/A3_DRIVE1*%
X135800000Y-98044000D03*
D20*
%TO.N,/IDC20_DRIVE3*%
X139192000Y-88646000D03*
D19*
%TO.N,/IDC20_PIN5*%
X168529000Y-92075000D03*
%TO.N,Net-(JP4-C)*%
X173228000Y-92075000D03*
%TD*%
D21*
%TO.N,/A3_DRIVE2*%
X141605000Y-97398299D02*
X141605000Y-99060000D01*
X140726701Y-96520000D02*
X141605000Y-97398299D01*
X141605000Y-99060000D02*
X142875000Y-100330000D01*
X132969000Y-96520000D02*
X140726701Y-96520000D01*
%TO.N,/IDC20_PIN19*%
X141351000Y-89789000D02*
X141575000Y-89565000D01*
X137795000Y-89916000D02*
X137922000Y-89789000D01*
X137922000Y-89789000D02*
X141351000Y-89789000D01*
D22*
%TO.N,/IDC20_+12V*%
X150495000Y-90805000D02*
X149225000Y-89535000D01*
X150495000Y-93375000D02*
X150495000Y-90805000D01*
X151735000Y-94615000D02*
X150495000Y-93375000D01*
%TO.N,/IDC20_-12V*%
X155575000Y-90805000D02*
X154305000Y-89535000D01*
X155575000Y-93375000D02*
X155575000Y-90805000D01*
X156815000Y-94615000D02*
X155575000Y-93375000D01*
D21*
%TO.N,/A3_5V*%
X154305000Y-99060000D02*
X155575000Y-97790000D01*
X154305000Y-100721701D02*
X154305000Y-99060000D01*
X152918701Y-102108000D02*
X154305000Y-100721701D01*
X131769500Y-102108000D02*
X152918701Y-102108000D01*
X129159000Y-99497500D02*
X131769500Y-102108000D01*
X129159000Y-98947500D02*
X129159000Y-99497500D01*
%TO.N,/A3_DRIVE3*%
X140589000Y-95504000D02*
X142875000Y-97790000D01*
X131856000Y-95504000D02*
X140589000Y-95504000D01*
X131079000Y-96281000D02*
X131856000Y-95504000D01*
%TO.N,/A3_DRIVE1*%
X137338299Y-101535000D02*
X151830000Y-101535000D01*
X135800000Y-99996701D02*
X137338299Y-101535000D01*
X135800000Y-98044000D02*
X135800000Y-99996701D01*
X151830000Y-101535000D02*
X153035000Y-100330000D01*
%TO.N,/IDC20_PIN5*%
X160655000Y-90805000D02*
X159385000Y-89535000D01*
X164978351Y-90805000D02*
X160655000Y-90805000D01*
X166248351Y-92075000D02*
X164978351Y-90805000D01*
X168529000Y-92075000D02*
X166248351Y-92075000D01*
%TO.N,Net-(JP4-C)*%
X173228000Y-92075000D02*
X172115000Y-92075000D01*
%TO.N,/IDC20_DRIVE3*%
X139123000Y-86751000D02*
X139192000Y-86682000D01*
X131181000Y-86751000D02*
X139123000Y-86751000D01*
X130937000Y-86995000D02*
X131181000Y-86751000D01*
%TO.N,/IDC20_DRIVE2*%
X133516000Y-87307000D02*
X168587000Y-87307000D01*
X132080000Y-88743000D02*
X133516000Y-87307000D01*
X168587000Y-87307000D02*
X172085000Y-90805000D01*
%TO.N,/IDC20_PIN17*%
X142367000Y-87757000D02*
X144145000Y-89535000D01*
X134888000Y-87757000D02*
X142367000Y-87757000D01*
X132602000Y-90043000D02*
X134888000Y-87757000D01*
%TO.N,/IDC20_DRIVE3*%
X139192000Y-88646000D02*
X139162000Y-88616000D01*
X139162000Y-88616000D02*
X137795000Y-88616000D01*
%TO.N,/IDC20_DRIVE2*%
X132080000Y-87376000D02*
X132080000Y-88743000D01*
D22*
%TO.N,/IDC20_+12V*%
X137698000Y-91313000D02*
X132110000Y-91313000D01*
X141545000Y-94615000D02*
X138146000Y-91216000D01*
X151735000Y-94615000D02*
X141545000Y-94615000D01*
D21*
%TO.N,/IDC20_DRIVE1*%
X136779000Y-92075000D02*
X137668000Y-92964000D01*
X135890000Y-92075000D02*
X136779000Y-92075000D01*
D22*
%TO.N,/IDC20_+12V*%
X149225000Y-89535000D02*
X146685000Y-89535000D01*
D21*
%TO.N,/A3_+12V*%
X145415000Y-97790000D02*
X153035000Y-97790000D01*
D22*
X153035000Y-97790000D02*
X153035000Y-94615000D01*
%TO.N,/A3_-12V*%
X158115000Y-97790000D02*
X158115000Y-94615000D01*
%TD*%
%TA.AperFunction,Conductor*%
%TO.N,GND*%
G36*
X173758061Y-85899097D02*
G01*
X173876317Y-85910744D01*
X173900145Y-85915483D01*
X174008005Y-85948202D01*
X174030453Y-85957501D01*
X174129849Y-86010629D01*
X174150059Y-86024133D01*
X174237179Y-86095630D01*
X174254369Y-86112820D01*
X174325866Y-86199940D01*
X174339370Y-86220150D01*
X174392495Y-86319538D01*
X174401798Y-86341997D01*
X174434514Y-86449848D01*
X174439256Y-86473688D01*
X174450903Y-86591937D01*
X174451500Y-86604092D01*
X174451500Y-101609907D01*
X174450903Y-101622062D01*
X174439256Y-101740311D01*
X174434514Y-101764151D01*
X174401798Y-101872002D01*
X174392495Y-101894461D01*
X174339370Y-101993849D01*
X174325866Y-102014059D01*
X174254369Y-102101179D01*
X174237179Y-102118369D01*
X174150059Y-102189866D01*
X174129849Y-102203370D01*
X174030461Y-102256495D01*
X174008002Y-102265798D01*
X173900151Y-102298514D01*
X173876311Y-102303256D01*
X173789215Y-102311834D01*
X173758060Y-102314903D01*
X173745907Y-102315500D01*
X153906467Y-102315500D01*
X153839428Y-102295815D01*
X153793673Y-102243011D01*
X153783729Y-102173853D01*
X153812754Y-102110297D01*
X153818786Y-102103819D01*
X153935307Y-101987297D01*
X154539432Y-101383171D01*
X154600753Y-101349688D01*
X154670444Y-101354672D01*
X154703272Y-101372999D01*
X154829424Y-101471189D01*
X154829425Y-101471189D01*
X154829427Y-101471191D01*
X154834958Y-101474184D01*
X155027426Y-101578342D01*
X155240365Y-101651444D01*
X155462431Y-101688500D01*
X155687569Y-101688500D01*
X155909635Y-101651444D01*
X156122574Y-101578342D01*
X156320576Y-101471189D01*
X156498240Y-101332906D01*
X156650722Y-101167268D01*
X156741193Y-101028790D01*
X156794338Y-100983437D01*
X156863569Y-100974013D01*
X156926905Y-101003515D01*
X156948804Y-101028787D01*
X157039278Y-101167268D01*
X157039283Y-101167273D01*
X157039284Y-101167276D01*
X157191756Y-101332902D01*
X157191761Y-101332907D01*
X157243273Y-101373001D01*
X157369424Y-101471189D01*
X157369425Y-101471189D01*
X157369427Y-101471191D01*
X157374958Y-101474184D01*
X157567426Y-101578342D01*
X157780365Y-101651444D01*
X158002431Y-101688500D01*
X158227569Y-101688500D01*
X158449635Y-101651444D01*
X158662574Y-101578342D01*
X158860576Y-101471189D01*
X159038240Y-101332906D01*
X159190722Y-101167268D01*
X159281193Y-101028790D01*
X159334338Y-100983437D01*
X159403569Y-100974013D01*
X159466905Y-101003515D01*
X159488804Y-101028787D01*
X159579278Y-101167268D01*
X159579283Y-101167273D01*
X159579284Y-101167276D01*
X159731756Y-101332902D01*
X159731761Y-101332907D01*
X159783273Y-101373001D01*
X159909424Y-101471189D01*
X159909425Y-101471189D01*
X159909427Y-101471191D01*
X159914958Y-101474184D01*
X160107426Y-101578342D01*
X160320365Y-101651444D01*
X160542431Y-101688500D01*
X160767569Y-101688500D01*
X160989635Y-101651444D01*
X161202574Y-101578342D01*
X161400576Y-101471189D01*
X161578240Y-101332906D01*
X161730722Y-101167268D01*
X161821193Y-101028790D01*
X161874338Y-100983437D01*
X161943569Y-100974013D01*
X162006905Y-101003515D01*
X162028804Y-101028787D01*
X162119278Y-101167268D01*
X162119283Y-101167273D01*
X162119284Y-101167276D01*
X162271756Y-101332902D01*
X162271761Y-101332907D01*
X162323273Y-101373001D01*
X162449424Y-101471189D01*
X162449425Y-101471189D01*
X162449427Y-101471191D01*
X162454958Y-101474184D01*
X162647426Y-101578342D01*
X162860365Y-101651444D01*
X163082431Y-101688500D01*
X163307569Y-101688500D01*
X163529635Y-101651444D01*
X163742574Y-101578342D01*
X163940576Y-101471189D01*
X164118240Y-101332906D01*
X164270722Y-101167268D01*
X164361193Y-101028790D01*
X164414338Y-100983437D01*
X164483569Y-100974013D01*
X164546905Y-101003515D01*
X164568804Y-101028787D01*
X164659278Y-101167268D01*
X164659283Y-101167273D01*
X164659284Y-101167276D01*
X164811756Y-101332902D01*
X164811761Y-101332907D01*
X164863273Y-101373001D01*
X164989424Y-101471189D01*
X164989425Y-101471189D01*
X164989427Y-101471191D01*
X164994958Y-101474184D01*
X165187426Y-101578342D01*
X165400365Y-101651444D01*
X165622431Y-101688500D01*
X165847569Y-101688500D01*
X166069635Y-101651444D01*
X166282574Y-101578342D01*
X166480576Y-101471189D01*
X166658240Y-101332906D01*
X166810722Y-101167268D01*
X166901193Y-101028790D01*
X166954338Y-100983437D01*
X167023569Y-100974013D01*
X167086905Y-101003515D01*
X167108804Y-101028787D01*
X167199278Y-101167268D01*
X167199283Y-101167273D01*
X167199284Y-101167276D01*
X167351756Y-101332902D01*
X167351761Y-101332907D01*
X167403273Y-101373001D01*
X167529424Y-101471189D01*
X167529425Y-101471189D01*
X167529427Y-101471191D01*
X167534958Y-101474184D01*
X167727426Y-101578342D01*
X167940365Y-101651444D01*
X168162431Y-101688500D01*
X168387569Y-101688500D01*
X168609635Y-101651444D01*
X168822574Y-101578342D01*
X169020576Y-101471189D01*
X169198240Y-101332906D01*
X169350722Y-101167268D01*
X169473860Y-100978791D01*
X169564296Y-100772616D01*
X169619564Y-100554368D01*
X169632311Y-100400537D01*
X169638156Y-100330005D01*
X169638156Y-100329994D01*
X169619565Y-100105640D01*
X169619563Y-100105628D01*
X169607779Y-100059095D01*
X169564296Y-99887384D01*
X169473860Y-99681209D01*
X169457706Y-99656484D01*
X169374227Y-99528709D01*
X169350722Y-99492732D01*
X169199291Y-99328236D01*
X169168370Y-99265584D01*
X169176230Y-99196158D01*
X169220376Y-99142002D01*
X169247189Y-99128073D01*
X169367086Y-99083354D01*
X169367093Y-99083350D01*
X169482187Y-98997190D01*
X169482190Y-98997187D01*
X169568350Y-98882093D01*
X169568354Y-98882086D01*
X169618596Y-98747379D01*
X169618598Y-98747372D01*
X169624999Y-98687844D01*
X169625000Y-98687827D01*
X169625000Y-98040000D01*
X168708012Y-98040000D01*
X168740925Y-97982993D01*
X168775000Y-97855826D01*
X168775000Y-97724174D01*
X168740925Y-97597007D01*
X168708012Y-97540000D01*
X169625000Y-97540000D01*
X169625000Y-96892172D01*
X169624999Y-96892155D01*
X169618598Y-96832627D01*
X169618596Y-96832620D01*
X169568354Y-96697913D01*
X169568350Y-96697906D01*
X169482190Y-96582812D01*
X169482187Y-96582809D01*
X169367093Y-96496649D01*
X169367086Y-96496645D01*
X169232379Y-96446403D01*
X169232372Y-96446401D01*
X169172844Y-96440000D01*
X168525000Y-96440000D01*
X168525000Y-97356988D01*
X168467993Y-97324075D01*
X168340826Y-97290000D01*
X168209174Y-97290000D01*
X168082007Y-97324075D01*
X168025000Y-97356988D01*
X168025000Y-96440000D01*
X167377155Y-96440000D01*
X167317627Y-96446401D01*
X167317620Y-96446403D01*
X167182913Y-96496645D01*
X167182906Y-96496649D01*
X167067812Y-96582809D01*
X167067809Y-96582812D01*
X166981649Y-96697906D01*
X166981646Y-96697911D01*
X166932385Y-96829987D01*
X166890513Y-96885920D01*
X166825049Y-96910337D01*
X166756776Y-96895485D01*
X166728522Y-96874334D01*
X166606082Y-96751894D01*
X166412578Y-96616399D01*
X166198492Y-96516570D01*
X166198486Y-96516567D01*
X165985000Y-96459364D01*
X165985000Y-97356988D01*
X165927993Y-97324075D01*
X165800826Y-97290000D01*
X165669174Y-97290000D01*
X165542007Y-97324075D01*
X165485000Y-97356988D01*
X165485000Y-96459364D01*
X165484999Y-96459364D01*
X165271513Y-96516567D01*
X165271507Y-96516570D01*
X165057422Y-96616399D01*
X165057420Y-96616400D01*
X164863926Y-96751886D01*
X164863920Y-96751891D01*
X164696891Y-96918920D01*
X164696890Y-96918922D01*
X164566575Y-97105031D01*
X164511998Y-97148655D01*
X164442499Y-97155848D01*
X164380145Y-97124326D01*
X164363425Y-97105031D01*
X164233109Y-96918922D01*
X164233108Y-96918920D01*
X164066082Y-96751894D01*
X163872578Y-96616399D01*
X163658492Y-96516570D01*
X163658486Y-96516567D01*
X163445000Y-96459364D01*
X163445000Y-97356988D01*
X163387993Y-97324075D01*
X163260826Y-97290000D01*
X163129174Y-97290000D01*
X163002007Y-97324075D01*
X162945000Y-97356988D01*
X162945000Y-96459364D01*
X162944999Y-96459364D01*
X162731513Y-96516567D01*
X162731507Y-96516570D01*
X162517422Y-96616399D01*
X162517420Y-96616400D01*
X162323926Y-96751886D01*
X162323920Y-96751891D01*
X162156891Y-96918920D01*
X162156890Y-96918922D01*
X162026575Y-97105031D01*
X161971998Y-97148655D01*
X161902499Y-97155848D01*
X161840145Y-97124326D01*
X161823425Y-97105031D01*
X161693109Y-96918922D01*
X161693108Y-96918920D01*
X161526082Y-96751894D01*
X161332578Y-96616399D01*
X161118492Y-96516570D01*
X161118486Y-96516567D01*
X160905000Y-96459364D01*
X160905000Y-97356988D01*
X160847993Y-97324075D01*
X160720826Y-97290000D01*
X160589174Y-97290000D01*
X160462007Y-97324075D01*
X160405000Y-97356988D01*
X160405000Y-96459364D01*
X160404999Y-96459364D01*
X160191513Y-96516567D01*
X160191507Y-96516570D01*
X159977422Y-96616399D01*
X159977420Y-96616400D01*
X159783926Y-96751886D01*
X159783920Y-96751891D01*
X159616891Y-96918920D01*
X159616890Y-96918922D01*
X159501967Y-97083049D01*
X159447390Y-97126673D01*
X159377891Y-97133866D01*
X159315537Y-97102344D01*
X159286302Y-97060500D01*
X159249941Y-96975098D01*
X158833410Y-95996768D01*
X158823500Y-95948193D01*
X158823500Y-95641255D01*
X158843185Y-95574216D01*
X158853787Y-95560053D01*
X158928022Y-95474379D01*
X158928032Y-95474368D01*
X159007047Y-95351417D01*
X159064019Y-95226665D01*
X159066263Y-95222376D01*
X159066775Y-95220631D01*
X159066776Y-95220631D01*
X159107953Y-95080394D01*
X159128415Y-94938079D01*
X159128415Y-94880683D01*
X159128500Y-94880393D01*
X159128500Y-94350107D01*
X159128415Y-94349317D01*
X159128415Y-94291922D01*
X159107953Y-94149606D01*
X159107952Y-94149601D01*
X159066775Y-94009369D01*
X159066770Y-94009356D01*
X159007053Y-93878594D01*
X159007046Y-93878581D01*
X158973669Y-93826646D01*
X158928032Y-93755632D01*
X158836733Y-93650266D01*
X158835337Y-93648535D01*
X158833877Y-93646968D01*
X158723427Y-93551263D01*
X158723418Y-93551257D01*
X158723416Y-93551255D01*
X158705114Y-93539493D01*
X158644361Y-93500449D01*
X158606182Y-93456388D01*
X158576845Y-93458598D01*
X158551235Y-93450128D01*
X158514824Y-93433500D01*
X158469513Y-93412807D01*
X158382984Y-93387400D01*
X158331562Y-93372301D01*
X158331550Y-93372298D01*
X158186889Y-93351500D01*
X157777927Y-93351500D01*
X157710888Y-93331815D01*
X157665133Y-93279011D01*
X157655189Y-93209853D01*
X157684214Y-93146297D01*
X157701764Y-93129647D01*
X157722509Y-93113500D01*
X157768240Y-93077906D01*
X157920722Y-92912268D01*
X158011193Y-92773790D01*
X158064338Y-92728437D01*
X158133569Y-92719013D01*
X158196905Y-92748515D01*
X158218804Y-92773787D01*
X158309278Y-92912268D01*
X158309283Y-92912273D01*
X158309284Y-92912276D01*
X158461756Y-93077902D01*
X158461760Y-93077906D01*
X158639424Y-93216189D01*
X158661763Y-93228278D01*
X158711011Y-93277157D01*
X158746336Y-93277157D01*
X158770421Y-93287080D01*
X158837426Y-93323342D01*
X159050365Y-93396444D01*
X159272431Y-93433500D01*
X159497569Y-93433500D01*
X159719635Y-93396444D01*
X159932574Y-93323342D01*
X160130576Y-93216189D01*
X160308240Y-93077906D01*
X160460722Y-92912268D01*
X160551193Y-92773790D01*
X160604338Y-92728437D01*
X160673569Y-92719013D01*
X160736905Y-92748515D01*
X160758804Y-92773787D01*
X160849278Y-92912268D01*
X160849283Y-92912273D01*
X160849284Y-92912276D01*
X161001756Y-93077902D01*
X161001760Y-93077906D01*
X161179424Y-93216189D01*
X161179425Y-93216189D01*
X161179427Y-93216191D01*
X161292083Y-93277157D01*
X161377426Y-93323342D01*
X161590365Y-93396444D01*
X161812431Y-93433500D01*
X162037569Y-93433500D01*
X162259635Y-93396444D01*
X162472574Y-93323342D01*
X162670576Y-93216189D01*
X162848240Y-93077906D01*
X163000722Y-92912268D01*
X163091193Y-92773790D01*
X163144338Y-92728437D01*
X163213569Y-92719013D01*
X163276905Y-92748515D01*
X163298804Y-92773787D01*
X163389278Y-92912268D01*
X163389283Y-92912273D01*
X163389284Y-92912276D01*
X163541756Y-93077902D01*
X163541760Y-93077906D01*
X163719424Y-93216189D01*
X163719425Y-93216189D01*
X163719427Y-93216191D01*
X163832083Y-93277157D01*
X163917426Y-93323342D01*
X164130365Y-93396444D01*
X164352431Y-93433500D01*
X164577569Y-93433500D01*
X164799635Y-93396444D01*
X165012574Y-93323342D01*
X165210576Y-93216189D01*
X165388240Y-93077906D01*
X165540722Y-92912268D01*
X165663860Y-92723791D01*
X165698539Y-92644728D01*
X165743492Y-92591245D01*
X165810228Y-92570554D01*
X165877556Y-92589228D01*
X165880985Y-92591438D01*
X165948269Y-92636396D01*
X165948275Y-92636399D01*
X165948276Y-92636400D01*
X166063566Y-92684155D01*
X166185952Y-92708499D01*
X166185956Y-92708500D01*
X166185957Y-92708500D01*
X167599305Y-92708500D01*
X167643149Y-92716510D01*
X168161017Y-92912276D01*
X168183778Y-92920880D01*
X168221010Y-92933065D01*
X168232876Y-92937634D01*
X168246712Y-92943794D01*
X168433513Y-92983500D01*
X168624487Y-92983500D01*
X168811288Y-92943794D01*
X168985752Y-92866118D01*
X169140253Y-92753866D01*
X169268040Y-92611944D01*
X169363527Y-92446556D01*
X169422542Y-92264928D01*
X169442504Y-92075000D01*
X169422542Y-91885072D01*
X169363527Y-91703444D01*
X169268040Y-91538056D01*
X169140253Y-91396134D01*
X168985752Y-91283882D01*
X168811288Y-91206206D01*
X168811286Y-91206205D01*
X168624487Y-91166500D01*
X168433513Y-91166500D01*
X168246715Y-91206205D01*
X168246711Y-91206206D01*
X168218044Y-91218969D01*
X168194508Y-91226736D01*
X168183778Y-91229119D01*
X168183764Y-91229124D01*
X167643148Y-91433489D01*
X167599302Y-91441500D01*
X166562117Y-91441500D01*
X166495078Y-91421815D01*
X166474436Y-91405181D01*
X165732476Y-90663221D01*
X165698991Y-90601898D01*
X165703975Y-90532206D01*
X165714619Y-90510443D01*
X165749353Y-90454130D01*
X165749358Y-90454119D01*
X165804505Y-90287697D01*
X165804506Y-90287690D01*
X165814999Y-90184986D01*
X165815000Y-90184973D01*
X165815000Y-89785000D01*
X164898012Y-89785000D01*
X164930925Y-89727993D01*
X164965000Y-89600826D01*
X164965000Y-89469174D01*
X164930925Y-89342007D01*
X164898012Y-89285000D01*
X165814999Y-89285000D01*
X165814999Y-88885028D01*
X165814998Y-88885013D01*
X165804505Y-88782302D01*
X165749358Y-88615880D01*
X165749356Y-88615875D01*
X165657315Y-88466654D01*
X165533345Y-88342684D01*
X165384124Y-88250643D01*
X165384119Y-88250641D01*
X165217697Y-88195494D01*
X165217690Y-88195493D01*
X165142955Y-88187858D01*
X165078263Y-88161462D01*
X165038112Y-88104281D01*
X165035249Y-88034470D01*
X165070583Y-87974193D01*
X165132896Y-87942588D01*
X165155558Y-87940500D01*
X168273234Y-87940500D01*
X168340273Y-87960185D01*
X168360915Y-87976819D01*
X170819837Y-90435741D01*
X170853322Y-90497064D01*
X170851134Y-90558355D01*
X170842300Y-90588441D01*
X170842298Y-90588449D01*
X170821500Y-90733110D01*
X170821500Y-91355002D01*
X170826726Y-91428077D01*
X170826728Y-91428086D01*
X170829826Y-91438638D01*
X170831158Y-91487799D01*
X170833840Y-91488088D01*
X170826500Y-91556361D01*
X170826500Y-92653654D01*
X170833011Y-92714202D01*
X170833011Y-92714204D01*
X170879536Y-92838938D01*
X170884111Y-92851204D01*
X170971739Y-92968261D01*
X171088796Y-93055889D01*
X171225799Y-93106989D01*
X171253050Y-93109918D01*
X171286345Y-93113499D01*
X171286362Y-93113500D01*
X172883638Y-93113500D01*
X172883654Y-93113499D01*
X172910692Y-93110591D01*
X172944201Y-93106989D01*
X173081204Y-93055889D01*
X173081204Y-93055888D01*
X173081206Y-93055888D01*
X173081206Y-93055887D01*
X173103012Y-93039562D01*
X173144866Y-93008233D01*
X173210330Y-92983816D01*
X173219176Y-92983500D01*
X173323487Y-92983500D01*
X173510288Y-92943794D01*
X173684752Y-92866118D01*
X173839253Y-92753866D01*
X173967040Y-92611944D01*
X174062527Y-92446556D01*
X174121542Y-92264928D01*
X174141504Y-92075000D01*
X174121542Y-91885072D01*
X174062527Y-91703444D01*
X173967040Y-91538056D01*
X173839253Y-91396134D01*
X173684752Y-91283882D01*
X173510288Y-91206206D01*
X173510286Y-91206205D01*
X173446718Y-91192693D01*
X173385236Y-91159500D01*
X173351460Y-91098336D01*
X173348500Y-91071403D01*
X173348500Y-90733114D01*
X173348500Y-90733111D01*
X173327700Y-90588442D01*
X173287193Y-90450487D01*
X173287192Y-90450485D01*
X173287191Y-90450481D01*
X173226483Y-90317549D01*
X173226476Y-90317536D01*
X173152353Y-90202198D01*
X173151533Y-90200758D01*
X173148742Y-90196579D01*
X173138696Y-90184986D01*
X173053029Y-90086122D01*
X173053027Y-90086120D01*
X172944379Y-89991976D01*
X172944371Y-89991970D01*
X172944368Y-89991968D01*
X172882892Y-89952460D01*
X172821418Y-89912953D01*
X172821410Y-89912949D01*
X172696679Y-89855986D01*
X172692380Y-89853737D01*
X172550392Y-89812046D01*
X172431975Y-89795020D01*
X172408079Y-89791585D01*
X172408078Y-89791585D01*
X172350683Y-89791585D01*
X172350394Y-89791500D01*
X172299236Y-89791500D01*
X172018766Y-89791500D01*
X171951727Y-89771815D01*
X171931085Y-89755181D01*
X168990836Y-86814931D01*
X168990832Y-86814928D01*
X168887081Y-86745603D01*
X168887072Y-86745598D01*
X168771785Y-86697845D01*
X168771777Y-86697843D01*
X168649398Y-86673500D01*
X168649394Y-86673500D01*
X140115471Y-86673500D01*
X140048432Y-86653815D01*
X140002677Y-86601011D01*
X139992251Y-86563382D01*
X139985218Y-86500958D01*
X139985217Y-86500953D01*
X139975677Y-86473689D01*
X139925043Y-86328985D01*
X139828111Y-86174719D01*
X139763573Y-86110181D01*
X139730088Y-86048858D01*
X139735072Y-85979166D01*
X139776944Y-85923233D01*
X139842408Y-85898816D01*
X139851254Y-85898500D01*
X173704405Y-85898500D01*
X173745907Y-85898500D01*
X173758061Y-85899097D01*
G37*
%TD.AperFunction*%
%TA.AperFunction,Conductor*%
G36*
X162729075Y-97597007D02*
G01*
X162695000Y-97724174D01*
X162695000Y-97855826D01*
X162729075Y-97982993D01*
X162761988Y-98040000D01*
X161088012Y-98040000D01*
X161120925Y-97982993D01*
X161155000Y-97855826D01*
X161155000Y-97724174D01*
X161120925Y-97597007D01*
X161088012Y-97540000D01*
X162761988Y-97540000D01*
X162729075Y-97597007D01*
G37*
%TD.AperFunction*%
%TA.AperFunction,Conductor*%
G36*
X165269075Y-97597007D02*
G01*
X165235000Y-97724174D01*
X165235000Y-97855826D01*
X165269075Y-97982993D01*
X165301988Y-98040000D01*
X163628012Y-98040000D01*
X163660925Y-97982993D01*
X163695000Y-97855826D01*
X163695000Y-97724174D01*
X163660925Y-97597007D01*
X163628012Y-97540000D01*
X165301988Y-97540000D01*
X165269075Y-97597007D01*
G37*
%TD.AperFunction*%
%TA.AperFunction,Conductor*%
G36*
X167809075Y-97597007D02*
G01*
X167775000Y-97724174D01*
X167775000Y-97855826D01*
X167809075Y-97982993D01*
X167841988Y-98040000D01*
X166168012Y-98040000D01*
X166200925Y-97982993D01*
X166235000Y-97855826D01*
X166235000Y-97724174D01*
X166200925Y-97597007D01*
X166168012Y-97540000D01*
X167841988Y-97540000D01*
X167809075Y-97597007D01*
G37*
%TD.AperFunction*%
%TA.AperFunction,Conductor*%
G36*
X157959925Y-90296373D02*
G01*
X158009868Y-90225048D01*
X158064445Y-90181424D01*
X158133944Y-90174231D01*
X158196298Y-90205753D01*
X158215251Y-90228350D01*
X158309276Y-90372265D01*
X158309284Y-90372276D01*
X158461756Y-90537902D01*
X158461761Y-90537907D01*
X158512907Y-90577716D01*
X158639424Y-90676189D01*
X158639429Y-90676191D01*
X158639431Y-90676193D01*
X158675930Y-90695946D01*
X158725520Y-90745165D01*
X158740628Y-90813382D01*
X158716457Y-90878937D01*
X158675930Y-90914054D01*
X158639431Y-90933806D01*
X158639422Y-90933812D01*
X158461761Y-91072092D01*
X158461756Y-91072097D01*
X158309284Y-91237723D01*
X158309276Y-91237734D01*
X158218808Y-91376206D01*
X158165662Y-91421562D01*
X158096431Y-91430986D01*
X158033095Y-91401484D01*
X158011192Y-91376206D01*
X157920723Y-91237734D01*
X157920715Y-91237723D01*
X157768243Y-91072097D01*
X157768238Y-91072092D01*
X157590577Y-90933812D01*
X157590577Y-90933811D01*
X157547303Y-90910393D01*
X157497713Y-90861173D01*
X157482605Y-90792957D01*
X157506775Y-90727401D01*
X157535198Y-90699763D01*
X157606373Y-90649925D01*
X156974409Y-90017962D01*
X157037993Y-90000925D01*
X157152007Y-89935099D01*
X157245099Y-89842007D01*
X157310925Y-89727993D01*
X157327962Y-89664410D01*
X157959925Y-90296373D01*
G37*
%TD.AperFunction*%
%TA.AperFunction,Conductor*%
G36*
X156807677Y-87960185D02*
G01*
X156846399Y-88004872D01*
X156863083Y-87975439D01*
X156924930Y-87942931D01*
X156949362Y-87940500D01*
X159190243Y-87940500D01*
X159257282Y-87960185D01*
X159303037Y-88012989D01*
X159312981Y-88082147D01*
X159283956Y-88145703D01*
X159225178Y-88183477D01*
X159210652Y-88186809D01*
X159050362Y-88213556D01*
X158837430Y-88286656D01*
X158837419Y-88286661D01*
X158639427Y-88393808D01*
X158639422Y-88393812D01*
X158461761Y-88532092D01*
X158461756Y-88532097D01*
X158309284Y-88697723D01*
X158309280Y-88697729D01*
X158215250Y-88841651D01*
X158162103Y-88887007D01*
X158092872Y-88896430D01*
X158029536Y-88866927D01*
X158009866Y-88844951D01*
X157959924Y-88773626D01*
X157327962Y-89405589D01*
X157310925Y-89342007D01*
X157245099Y-89227993D01*
X157152007Y-89134901D01*
X157037993Y-89069075D01*
X156974410Y-89052037D01*
X157606373Y-88420073D01*
X157606373Y-88420072D01*
X157522583Y-88361402D01*
X157522579Y-88361400D01*
X157308492Y-88261570D01*
X157308483Y-88261566D01*
X157080326Y-88200432D01*
X157080315Y-88200430D01*
X156938555Y-88188028D01*
X156873486Y-88162576D01*
X156844761Y-88122907D01*
X156834351Y-88145703D01*
X156775573Y-88183477D01*
X156751445Y-88188028D01*
X156609684Y-88200430D01*
X156609673Y-88200432D01*
X156381516Y-88261566D01*
X156381507Y-88261570D01*
X156167419Y-88361401D01*
X156083625Y-88420072D01*
X156715590Y-89052037D01*
X156652007Y-89069075D01*
X156537993Y-89134901D01*
X156444901Y-89227993D01*
X156379075Y-89342007D01*
X156362037Y-89405590D01*
X155730072Y-88773625D01*
X155730072Y-88773626D01*
X155680131Y-88844950D01*
X155625555Y-88888575D01*
X155556056Y-88895769D01*
X155493701Y-88864246D01*
X155474748Y-88841649D01*
X155380723Y-88697734D01*
X155380715Y-88697723D01*
X155228243Y-88532097D01*
X155228238Y-88532092D01*
X155071613Y-88410185D01*
X155050576Y-88393811D01*
X155050575Y-88393810D01*
X155050572Y-88393808D01*
X154852580Y-88286661D01*
X154852577Y-88286659D01*
X154852574Y-88286658D01*
X154852571Y-88286657D01*
X154852569Y-88286656D01*
X154639637Y-88213556D01*
X154479348Y-88186809D01*
X154416462Y-88156359D01*
X154380023Y-88096744D01*
X154381598Y-88026892D01*
X154420687Y-87968980D01*
X154484881Y-87941396D01*
X154499757Y-87940500D01*
X156740638Y-87940500D01*
X156807677Y-87960185D01*
G37*
%TD.AperFunction*%
%TA.AperFunction,Conductor*%
G36*
X161887677Y-87960185D02*
G01*
X161926399Y-88004872D01*
X161943083Y-87975439D01*
X162004930Y-87942931D01*
X162029362Y-87940500D01*
X163774451Y-87940500D01*
X163841490Y-87960185D01*
X163887245Y-88012989D01*
X163897189Y-88082147D01*
X163868164Y-88145703D01*
X163809386Y-88183477D01*
X163787053Y-88187858D01*
X163712302Y-88195494D01*
X163545880Y-88250641D01*
X163545875Y-88250643D01*
X163396654Y-88342684D01*
X163272684Y-88466654D01*
X163180643Y-88615875D01*
X163180641Y-88615880D01*
X163156718Y-88688076D01*
X163116945Y-88745521D01*
X163052429Y-88772344D01*
X163041087Y-88772463D01*
X162407961Y-89405588D01*
X162390925Y-89342007D01*
X162325099Y-89227993D01*
X162232007Y-89134901D01*
X162117993Y-89069075D01*
X162054410Y-89052037D01*
X162686373Y-88420073D01*
X162686373Y-88420072D01*
X162602583Y-88361402D01*
X162602579Y-88361400D01*
X162388492Y-88261570D01*
X162388483Y-88261566D01*
X162160326Y-88200432D01*
X162160315Y-88200430D01*
X162018555Y-88188028D01*
X161953486Y-88162576D01*
X161924761Y-88122907D01*
X161914351Y-88145703D01*
X161855573Y-88183477D01*
X161831445Y-88188028D01*
X161689684Y-88200430D01*
X161689673Y-88200432D01*
X161461516Y-88261566D01*
X161461507Y-88261570D01*
X161247419Y-88361401D01*
X161163625Y-88420072D01*
X161795590Y-89052037D01*
X161732007Y-89069075D01*
X161617993Y-89134901D01*
X161524901Y-89227993D01*
X161459075Y-89342007D01*
X161442037Y-89405590D01*
X160810072Y-88773625D01*
X160810072Y-88773626D01*
X160760131Y-88844950D01*
X160705555Y-88888575D01*
X160636056Y-88895769D01*
X160573701Y-88864246D01*
X160554748Y-88841649D01*
X160460723Y-88697734D01*
X160460715Y-88697723D01*
X160308243Y-88532097D01*
X160308238Y-88532092D01*
X160151613Y-88410185D01*
X160130576Y-88393811D01*
X160130575Y-88393810D01*
X160130572Y-88393808D01*
X159932580Y-88286661D01*
X159932577Y-88286659D01*
X159932574Y-88286658D01*
X159932571Y-88286657D01*
X159932569Y-88286656D01*
X159719637Y-88213556D01*
X159559348Y-88186809D01*
X159496462Y-88156359D01*
X159460023Y-88096744D01*
X159461598Y-88026892D01*
X159500687Y-87968980D01*
X159564881Y-87941396D01*
X159579757Y-87940500D01*
X161820638Y-87940500D01*
X161887677Y-87960185D01*
G37*
%TD.AperFunction*%
%TD*%
%TA.AperFunction,Conductor*%
%TO.N,/A3_DRIVE2*%
G36*
X141768251Y-99041968D02*
G01*
X142250027Y-99211102D01*
X143188629Y-99540611D01*
X143195300Y-99546584D01*
X143195792Y-99555526D01*
X143195567Y-99556116D01*
X142877562Y-100326214D01*
X142871237Y-100332553D01*
X142871214Y-100332562D01*
X142101116Y-100650567D01*
X142092161Y-100650558D01*
X142085836Y-100644219D01*
X142085611Y-100643629D01*
X141975755Y-100330707D01*
X141699818Y-99544702D01*
X141586968Y-99223251D01*
X141587460Y-99214309D01*
X141589731Y-99211105D01*
X141756103Y-99044733D01*
X141764375Y-99041307D01*
X141768251Y-99041968D01*
G37*
%TD.AperFunction*%
%TD*%
%TA.AperFunction,Conductor*%
%TO.N,/A3_DRIVE2*%
G36*
X133149696Y-96160890D02*
G01*
X133761437Y-96392141D01*
X133767964Y-96398272D01*
X133769000Y-96403085D01*
X133769000Y-96636914D01*
X133765573Y-96645187D01*
X133761437Y-96647858D01*
X133132655Y-96885551D01*
X133123705Y-96885271D01*
X133117719Y-96879109D01*
X133021306Y-96647858D01*
X132969875Y-96524499D01*
X132969855Y-96515550D01*
X133117719Y-96160889D01*
X133124066Y-96154572D01*
X133132654Y-96154448D01*
X133149696Y-96160890D01*
G37*
%TD.AperFunction*%
%TD*%
%TA.AperFunction,Conductor*%
%TO.N,/IDC20_PIN19*%
G36*
X138551053Y-89419002D02*
G01*
X139038499Y-89660775D01*
X139044388Y-89667522D01*
X139045000Y-89671257D01*
X139045000Y-89908617D01*
X139041573Y-89916890D01*
X139040912Y-89917502D01*
X138551241Y-90336982D01*
X138542728Y-90339762D01*
X138537853Y-90338272D01*
X138535581Y-90336982D01*
X137810525Y-89925381D01*
X137805023Y-89918317D01*
X137806127Y-89909431D01*
X137809816Y-89905469D01*
X138539374Y-89419745D01*
X138548158Y-89418014D01*
X138551053Y-89419002D01*
G37*
%TD.AperFunction*%
%TD*%
%TA.AperFunction,Conductor*%
%TO.N,/IDC20_PIN19*%
G36*
X141010882Y-88940871D02*
G01*
X141600455Y-89529464D01*
X141603889Y-89537734D01*
X141602994Y-89542233D01*
X141283796Y-90310484D01*
X141277457Y-90316809D01*
X141269559Y-90317180D01*
X139963791Y-89916536D01*
X139956887Y-89910833D01*
X139955523Y-89905351D01*
X139955523Y-89670110D01*
X139958950Y-89661837D01*
X139960532Y-89660512D01*
X140995931Y-88939548D01*
X141004678Y-88937634D01*
X141010882Y-88940871D01*
G37*
%TD.AperFunction*%
%TD*%
%TA.AperFunction,Conductor*%
%TO.N,/IDC20_+12V*%
G36*
X150008343Y-89214233D02*
G01*
X150014668Y-89220572D01*
X150014707Y-89220667D01*
X150565613Y-90588485D01*
X150565525Y-90597439D01*
X150563033Y-90601129D01*
X150291129Y-90873033D01*
X150282856Y-90876460D01*
X150278485Y-90875613D01*
X148910667Y-90324707D01*
X148904273Y-90318437D01*
X148904185Y-90309483D01*
X148904224Y-90309388D01*
X149222438Y-89538783D01*
X149228759Y-89532448D01*
X149999388Y-89214224D01*
X150008343Y-89214233D01*
G37*
%TD.AperFunction*%
%TD*%
%TA.AperFunction,Conductor*%
%TO.N,/IDC20_-12V*%
G36*
X155088343Y-89214233D02*
G01*
X155094668Y-89220572D01*
X155094707Y-89220667D01*
X155645613Y-90588485D01*
X155645525Y-90597439D01*
X155643033Y-90601129D01*
X155371129Y-90873033D01*
X155362856Y-90876460D01*
X155358485Y-90875613D01*
X153990667Y-90324707D01*
X153984273Y-90318437D01*
X153984185Y-90309483D01*
X153984224Y-90309388D01*
X154302438Y-89538783D01*
X154308759Y-89532448D01*
X155079388Y-89214224D01*
X155088343Y-89214233D01*
G37*
%TD.AperFunction*%
%TD*%
%TA.AperFunction,Conductor*%
%TO.N,/A3_5V*%
G36*
X154801106Y-97469428D02*
G01*
X155571215Y-97787438D01*
X155577552Y-97793761D01*
X155577562Y-97793785D01*
X155895567Y-98563883D01*
X155895558Y-98572838D01*
X155889219Y-98579163D01*
X155888629Y-98579388D01*
X154468251Y-99078031D01*
X154459309Y-99077539D01*
X154456102Y-99075265D01*
X154289734Y-98908897D01*
X154286307Y-98900624D01*
X154286968Y-98896748D01*
X154398461Y-98579163D01*
X154785612Y-97476368D01*
X154791584Y-97469699D01*
X154800526Y-97469207D01*
X154801106Y-97469428D01*
G37*
%TD.AperFunction*%
%TD*%
%TA.AperFunction,Conductor*%
%TO.N,/A3_5V*%
G36*
X129165536Y-98949801D02*
G01*
X129519552Y-99096835D01*
X129525878Y-99103173D01*
X129526502Y-99110100D01*
X129424890Y-99582514D01*
X129421725Y-99588327D01*
X129257266Y-99752786D01*
X129248993Y-99756213D01*
X129240720Y-99752786D01*
X129239400Y-99751211D01*
X128881746Y-99238358D01*
X128879826Y-99229612D01*
X128883048Y-99223417D01*
X129152759Y-98952353D01*
X129161022Y-98948907D01*
X129165536Y-98949801D01*
G37*
%TD.AperFunction*%
%TD*%
%TA.AperFunction,Conductor*%
%TO.N,/A3_DRIVE3*%
G36*
X141768251Y-96501968D02*
G01*
X142250027Y-96671102D01*
X143188629Y-97000611D01*
X143195300Y-97006584D01*
X143195792Y-97015526D01*
X143195567Y-97016116D01*
X142877562Y-97786214D01*
X142871237Y-97792553D01*
X142871214Y-97792562D01*
X142101116Y-98110567D01*
X142092161Y-98110558D01*
X142085836Y-98104219D01*
X142085611Y-98103629D01*
X141931161Y-97663678D01*
X141930500Y-97659802D01*
X141930500Y-97355445D01*
X141930499Y-97355443D01*
X141908319Y-97272662D01*
X141908317Y-97272658D01*
X141865467Y-97198440D01*
X141865463Y-97198435D01*
X141716895Y-97049867D01*
X141714130Y-97045473D01*
X141586968Y-96683251D01*
X141587460Y-96674309D01*
X141589731Y-96671105D01*
X141756103Y-96504733D01*
X141764375Y-96501307D01*
X141768251Y-96501968D01*
G37*
%TD.AperFunction*%
%TD*%
%TA.AperFunction,Conductor*%
%TO.N,/A3_DRIVE3*%
G36*
X131562014Y-95632643D02*
G01*
X131727356Y-95797985D01*
X131730783Y-95806258D01*
X131729747Y-95811071D01*
X131453206Y-96423760D01*
X131446679Y-96429891D01*
X131438090Y-96429767D01*
X131082804Y-96283563D01*
X131076457Y-96277245D01*
X131076436Y-96277195D01*
X130930232Y-95921909D01*
X130930253Y-95912955D01*
X130936237Y-95906794D01*
X131548928Y-95630251D01*
X131557878Y-95629972D01*
X131562014Y-95632643D01*
G37*
%TD.AperFunction*%
%TD*%
%TA.AperFunction,Conductor*%
%TO.N,/A3_DRIVE1*%
G36*
X136159109Y-98192719D02*
G01*
X136165427Y-98199066D01*
X136165551Y-98207655D01*
X135927859Y-98836437D01*
X135921728Y-98842964D01*
X135916915Y-98844000D01*
X135683085Y-98844000D01*
X135674812Y-98840573D01*
X135672141Y-98836437D01*
X135434448Y-98207655D01*
X135434728Y-98198705D01*
X135440889Y-98192719D01*
X135795500Y-98044875D01*
X135804449Y-98044855D01*
X136159109Y-98192719D01*
G37*
%TD.AperFunction*%
%TD*%
%TA.AperFunction,Conductor*%
%TO.N,/A3_DRIVE1*%
G36*
X152261106Y-100009428D02*
G01*
X153031215Y-100327438D01*
X153037552Y-100333761D01*
X153037562Y-100333785D01*
X153355567Y-101103883D01*
X153355558Y-101112838D01*
X153349219Y-101119163D01*
X153348629Y-101119388D01*
X151928251Y-101618031D01*
X151919309Y-101617539D01*
X151916102Y-101615265D01*
X151749734Y-101448897D01*
X151746307Y-101440624D01*
X151746968Y-101436748D01*
X151858461Y-101119163D01*
X152245612Y-100016368D01*
X152251584Y-100009699D01*
X152260526Y-100009207D01*
X152261106Y-100009428D01*
G37*
%TD.AperFunction*%
%TD*%
%TA.AperFunction,Conductor*%
%TO.N,/IDC20_PIN5*%
G36*
X160167838Y-89214441D02*
G01*
X160174163Y-89220780D01*
X160174388Y-89221370D01*
X160673031Y-90641748D01*
X160672539Y-90650690D01*
X160670265Y-90653897D01*
X160503897Y-90820265D01*
X160495624Y-90823692D01*
X160491748Y-90823031D01*
X159071370Y-90324388D01*
X159064699Y-90318415D01*
X159064207Y-90309473D01*
X159064423Y-90308905D01*
X159382438Y-89538783D01*
X159388759Y-89532448D01*
X160158884Y-89214432D01*
X160167838Y-89214441D01*
G37*
%TD.AperFunction*%
%TD*%
%TA.AperFunction,Conductor*%
%TO.N,/IDC20_PIN5*%
G36*
X168374294Y-91709728D02*
G01*
X168380280Y-91715890D01*
X168528123Y-92070498D01*
X168528144Y-92079452D01*
X168528123Y-92079502D01*
X168380280Y-92434109D01*
X168373933Y-92440427D01*
X168365344Y-92440551D01*
X167736563Y-92202858D01*
X167730036Y-92196727D01*
X167729000Y-92191914D01*
X167729000Y-91958085D01*
X167732427Y-91949812D01*
X167736563Y-91947141D01*
X168365345Y-91709448D01*
X168374294Y-91709728D01*
G37*
%TD.AperFunction*%
%TD*%
%TA.AperFunction,Conductor*%
%TO.N,Net-(JP4-C)*%
G36*
X172841738Y-91610915D02*
G01*
X173224019Y-91946505D01*
X173227975Y-91954539D01*
X173228000Y-91955298D01*
X173228000Y-92195086D01*
X173224573Y-92203359D01*
X173224493Y-92203439D01*
X172841650Y-92578953D01*
X172833344Y-92582299D01*
X172827152Y-92580456D01*
X172099100Y-92114660D01*
X172093977Y-92107314D01*
X172095549Y-92098499D01*
X172098918Y-92095067D01*
X172827537Y-91609968D01*
X172836321Y-91608237D01*
X172841738Y-91610915D01*
G37*
%TD.AperFunction*%
%TD*%
%TA.AperFunction,Conductor*%
%TO.N,Net-(JP4-C)*%
G36*
X173073294Y-91709728D02*
G01*
X173079280Y-91715890D01*
X173227123Y-92070498D01*
X173227144Y-92079452D01*
X173227123Y-92079502D01*
X173079280Y-92434109D01*
X173072933Y-92440427D01*
X173064344Y-92440551D01*
X172435563Y-92202858D01*
X172429036Y-92196727D01*
X172428000Y-92191914D01*
X172428000Y-91958085D01*
X172431427Y-91949812D01*
X172435563Y-91947141D01*
X173064345Y-91709448D01*
X173073294Y-91709728D01*
G37*
%TD.AperFunction*%
%TD*%
%TA.AperFunction,Conductor*%
%TO.N,/IDC20_DRIVE3*%
G36*
X139081698Y-86415645D02*
G01*
X139081902Y-86416103D01*
X139192088Y-86679817D01*
X139192992Y-86684367D01*
X139192046Y-86968042D01*
X139188592Y-86976304D01*
X139180307Y-86979703D01*
X139178264Y-86979516D01*
X138615343Y-86877738D01*
X138607812Y-86872894D01*
X138605725Y-86866225D01*
X138605725Y-86633434D01*
X138609152Y-86625161D01*
X138612453Y-86622843D01*
X139066139Y-86410021D01*
X139075082Y-86409610D01*
X139081698Y-86415645D01*
G37*
%TD.AperFunction*%
%TD*%
%TA.AperFunction,Conductor*%
%TO.N,/IDC20_DRIVE3*%
G36*
X131431294Y-86630100D02*
G01*
X131435822Y-86637826D01*
X131435932Y-86639429D01*
X131435932Y-86871637D01*
X131433076Y-86879297D01*
X131157342Y-87197652D01*
X131149335Y-87201662D01*
X131140838Y-87198836D01*
X131140244Y-87198285D01*
X130939462Y-86998446D01*
X130936016Y-86990181D01*
X130936016Y-86990114D01*
X130936386Y-86879297D01*
X130936966Y-86705158D01*
X130940420Y-86696897D01*
X130947062Y-86693608D01*
X131422630Y-86627839D01*
X131431294Y-86630100D01*
G37*
%TD.AperFunction*%
%TD*%
%TA.AperFunction,Conductor*%
%TO.N,/IDC20_PIN17*%
G36*
X143038251Y-88246968D02*
G01*
X143520027Y-88416102D01*
X144458629Y-88745611D01*
X144465300Y-88751584D01*
X144465792Y-88760526D01*
X144465567Y-88761116D01*
X144147562Y-89531214D01*
X144141237Y-89537553D01*
X144141214Y-89537562D01*
X143371116Y-89855567D01*
X143362161Y-89855558D01*
X143355836Y-89849219D01*
X143355611Y-89848629D01*
X143245755Y-89535707D01*
X142969818Y-88749702D01*
X142856968Y-88428251D01*
X142857460Y-88419309D01*
X142859731Y-88416105D01*
X143026103Y-88249733D01*
X143034375Y-88246307D01*
X143038251Y-88246968D01*
G37*
%TD.AperFunction*%
%TD*%
%TA.AperFunction,Conductor*%
%TO.N,/IDC20_PIN17*%
G36*
X133098022Y-89376097D02*
G01*
X133099334Y-89377228D01*
X133265160Y-89543054D01*
X133268587Y-89551327D01*
X133266624Y-89557814D01*
X132834462Y-90206422D01*
X132827023Y-90211407D01*
X132822149Y-90211348D01*
X132392049Y-90114287D01*
X132086359Y-90045301D01*
X132079045Y-90040138D01*
X132077573Y-90036672D01*
X131959932Y-89555455D01*
X131961296Y-89546606D01*
X131968519Y-89541313D01*
X131969556Y-89541108D01*
X132254094Y-89498627D01*
X132255822Y-89498500D01*
X132830002Y-89498500D01*
X132852864Y-89495924D01*
X132875728Y-89493348D01*
X132958127Y-89453666D01*
X133009710Y-89388982D01*
X133017122Y-89384710D01*
X133089334Y-89373929D01*
X133098022Y-89376097D01*
G37*
%TD.AperFunction*%
%TD*%
%TA.AperFunction,Conductor*%
%TO.N,/IDC20_DRIVE3*%
G36*
X139076266Y-88372608D02*
G01*
X139081089Y-88378157D01*
X139191115Y-88641489D01*
X139191142Y-88650444D01*
X139191115Y-88650511D01*
X139081561Y-88912713D01*
X139075209Y-88919025D01*
X139066608Y-88919139D01*
X138605510Y-88743867D01*
X138598994Y-88737724D01*
X138597967Y-88732930D01*
X138597967Y-88500091D01*
X138601394Y-88491818D01*
X138606776Y-88488754D01*
X139067405Y-88371331D01*
X139076266Y-88372608D01*
G37*
%TD.AperFunction*%
%TD*%
%TA.AperFunction,Conductor*%
%TO.N,/IDC20_DRIVE2*%
G36*
X132347318Y-87486691D02*
G01*
X132353629Y-87493042D01*
X132353970Y-87500987D01*
X132207571Y-87967801D01*
X132201825Y-87974670D01*
X132196407Y-87976000D01*
X131963593Y-87976000D01*
X131955320Y-87972573D01*
X131952429Y-87967801D01*
X131806029Y-87500987D01*
X131806823Y-87492068D01*
X131812679Y-87486692D01*
X132075490Y-87376883D01*
X132084444Y-87376857D01*
X132347318Y-87486691D01*
G37*
%TD.AperFunction*%
%TD*%
%TA.AperFunction,Conductor*%
%TO.N,/IDC20_DRIVE1*%
G36*
X137339736Y-92455325D02*
G01*
X137773346Y-92681893D01*
X137779092Y-92688762D01*
X137778751Y-92696707D01*
X137670563Y-92960184D01*
X137664251Y-92966536D01*
X137664184Y-92966563D01*
X137400707Y-93074751D01*
X137391752Y-93074724D01*
X137385893Y-93069346D01*
X137159325Y-92635737D01*
X137158532Y-92626821D01*
X137161421Y-92622051D01*
X137326050Y-92457422D01*
X137334322Y-92453996D01*
X137339736Y-92455325D01*
G37*
%TD.AperFunction*%
%TD*%
%TA.AperFunction,Conductor*%
%TO.N,/IDC20_DRIVE1*%
G36*
X136481802Y-91947429D02*
G01*
X136488670Y-91953174D01*
X136490000Y-91958592D01*
X136490000Y-92191407D01*
X136486573Y-92199680D01*
X136481801Y-92202571D01*
X136014987Y-92348970D01*
X136006068Y-92348176D01*
X136000691Y-92342318D01*
X135890883Y-92079509D01*
X135890857Y-92070556D01*
X135890862Y-92070542D01*
X136000691Y-91807680D01*
X136007042Y-91801370D01*
X136014986Y-91801029D01*
X136481802Y-91947429D01*
G37*
%TD.AperFunction*%
%TD*%
%TA.AperFunction,Conductor*%
%TO.N,/IDC20_+12V*%
G36*
X148904207Y-88760507D02*
G01*
X148904247Y-88760601D01*
X149224134Y-89530511D01*
X149224143Y-89539466D01*
X149224134Y-89539489D01*
X148904247Y-90309398D01*
X148897908Y-90315723D01*
X148888953Y-90315714D01*
X148888859Y-90315674D01*
X147532117Y-89738030D01*
X147525847Y-89731636D01*
X147525000Y-89727265D01*
X147525000Y-89342734D01*
X147528427Y-89334461D01*
X147532113Y-89331971D01*
X148888860Y-88754324D01*
X148897813Y-88754237D01*
X148904207Y-88760507D01*
G37*
%TD.AperFunction*%
%TD*%
%TA.AperFunction,Conductor*%
%TO.N,/IDC20_+12V*%
G36*
X147021045Y-88754284D02*
G01*
X148377884Y-89331970D01*
X148384153Y-89338363D01*
X148385000Y-89342734D01*
X148385000Y-89727265D01*
X148381573Y-89735538D01*
X148377883Y-89738030D01*
X147021140Y-90315674D01*
X147012186Y-90315762D01*
X147005792Y-90309492D01*
X147005752Y-90309398D01*
X146763883Y-89727265D01*
X146685864Y-89539488D01*
X146685856Y-89530534D01*
X146685865Y-89530511D01*
X146767097Y-89335000D01*
X147005753Y-88760599D01*
X147012091Y-88754276D01*
X147021045Y-88754284D01*
G37*
%TD.AperFunction*%
%TD*%
%TA.AperFunction,Conductor*%
%TO.N,/A3_+12V*%
G36*
X152714199Y-97015530D02*
G01*
X152714457Y-97016107D01*
X153034134Y-97785511D01*
X153034143Y-97794466D01*
X153034134Y-97794489D01*
X152714457Y-98563892D01*
X152708118Y-98570217D01*
X152699163Y-98570208D01*
X152698586Y-98569950D01*
X151341634Y-97918186D01*
X151335661Y-97911515D01*
X151335000Y-97907639D01*
X151335000Y-97672360D01*
X151338427Y-97664087D01*
X151341631Y-97661814D01*
X152698586Y-97010048D01*
X152707528Y-97009557D01*
X152714199Y-97015530D01*
G37*
%TD.AperFunction*%
%TD*%
%TA.AperFunction,Conductor*%
%TO.N,/A3_+12V*%
G36*
X147953450Y-97679375D02*
G01*
X147955000Y-97685195D01*
X147955000Y-97905909D01*
X147951573Y-97914182D01*
X147946191Y-97917246D01*
X147252886Y-98094065D01*
X147244023Y-98092789D01*
X147238658Y-98085619D01*
X147239934Y-98076756D01*
X147244172Y-98072580D01*
X147937481Y-97675044D01*
X147946362Y-97673903D01*
X147953450Y-97679375D01*
G37*
%TD.AperFunction*%
%TD*%
%TA.AperFunction,Conductor*%
%TO.N,/A3_+12V*%
G36*
X150493450Y-97679375D02*
G01*
X150495000Y-97685195D01*
X150495000Y-97905909D01*
X150491573Y-97914182D01*
X150486191Y-97917246D01*
X149792886Y-98094065D01*
X149784023Y-98092789D01*
X149778658Y-98085619D01*
X149779934Y-98076756D01*
X149784172Y-98072580D01*
X150477481Y-97675044D01*
X150486362Y-97673903D01*
X150493450Y-97679375D01*
G37*
%TD.AperFunction*%
%TD*%
%TA.AperFunction,Conductor*%
%TO.N,/A3_+12V*%
G36*
X145750836Y-97009791D02*
G01*
X145751413Y-97010049D01*
X147108366Y-97661814D01*
X147114339Y-97668484D01*
X147115000Y-97672360D01*
X147115000Y-97907639D01*
X147111573Y-97915912D01*
X147108366Y-97918186D01*
X145751413Y-98569950D01*
X145742471Y-98570442D01*
X145735800Y-98564469D01*
X145735542Y-98563892D01*
X145415865Y-97794489D01*
X145415856Y-97785534D01*
X145415865Y-97785511D01*
X145735542Y-97016107D01*
X145741881Y-97009782D01*
X145750836Y-97009791D01*
G37*
%TD.AperFunction*%
%TD*%
%TA.AperFunction,Conductor*%
%TO.N,/A3_+12V*%
G36*
X153235538Y-96093427D02*
G01*
X153238030Y-96097117D01*
X153815674Y-97453859D01*
X153815762Y-97462813D01*
X153809492Y-97469207D01*
X153809398Y-97469247D01*
X153039489Y-97789134D01*
X153030534Y-97789143D01*
X153030511Y-97789134D01*
X152260601Y-97469247D01*
X152254276Y-97462908D01*
X152254284Y-97453954D01*
X152831970Y-96097117D01*
X152838364Y-96090847D01*
X152842735Y-96090000D01*
X153227265Y-96090000D01*
X153235538Y-96093427D01*
G37*
%TD.AperFunction*%
%TD*%
%TA.AperFunction,Conductor*%
%TO.N,/A3_-12V*%
G36*
X158315538Y-96093427D02*
G01*
X158318030Y-96097117D01*
X158895674Y-97453859D01*
X158895762Y-97462813D01*
X158889492Y-97469207D01*
X158889398Y-97469247D01*
X158119489Y-97789134D01*
X158110534Y-97789143D01*
X158110511Y-97789134D01*
X157340601Y-97469247D01*
X157334276Y-97462908D01*
X157334284Y-97453954D01*
X157911970Y-96097117D01*
X157918364Y-96090847D01*
X157922735Y-96090000D01*
X158307265Y-96090000D01*
X158315538Y-96093427D01*
G37*
%TD.AperFunction*%
%TD*%
M02*
