%TF.GenerationSoftware,KiCad,Pcbnew,8.0.4*%
%TF.CreationDate,2024-09-19T23:06:27-05:00*%
%TF.ProjectId,IDC-26-Adapter-Rev1,4944432d-3236-42d4-9164-61707465722d,1.1*%
%TF.SameCoordinates,Original*%
%TF.FileFunction,Soldermask,Top*%
%TF.FilePolarity,Negative*%
%FSLAX46Y46*%
G04 Gerber Fmt 4.6, Leading zero omitted, Abs format (unit mm)*
G04 Created by KiCad (PCBNEW 8.0.4) date 2024-09-19 23:06:27*
%MOMM*%
%LPD*%
G01*
G04 APERTURE LIST*
G04 Aperture macros list*
%AMRoundRect*
0 Rectangle with rounded corners*
0 $1 Rounding radius*
0 $2 $3 $4 $5 $6 $7 $8 $9 X,Y pos of 4 corners*
0 Add a 4 corners polygon primitive as box body*
4,1,4,$2,$3,$4,$5,$6,$7,$8,$9,$2,$3,0*
0 Add four circle primitives for the rounded corners*
1,1,$1+$1,$2,$3*
1,1,$1+$1,$4,$5*
1,1,$1+$1,$6,$7*
1,1,$1+$1,$8,$9*
0 Add four rect primitives between the rounded corners*
20,1,$1+$1,$2,$3,$4,$5,0*
20,1,$1+$1,$4,$5,$6,$7,0*
20,1,$1+$1,$6,$7,$8,$9,0*
20,1,$1+$1,$8,$9,$2,$3,0*%
G04 Aperture macros list end*
%ADD10RoundRect,0.250000X0.450000X-0.350000X0.450000X0.350000X-0.450000X0.350000X-0.450000X-0.350000X0*%
%ADD11RoundRect,0.150000X0.825000X0.150000X-0.825000X0.150000X-0.825000X-0.150000X0.825000X-0.150000X0*%
%ADD12R,1.700000X1.700000*%
%ADD13O,1.700000X1.700000*%
%ADD14RoundRect,0.250000X-0.475000X0.337500X-0.475000X-0.337500X0.475000X-0.337500X0.475000X0.337500X0*%
%ADD15RoundRect,0.250000X-0.600000X0.600000X-0.600000X-0.600000X0.600000X-0.600000X0.600000X0.600000X0*%
%ADD16C,1.700000*%
G04 APERTURE END LIST*
D10*
%TO.C,R4*%
X172085000Y-99155000D03*
X172085000Y-97155000D03*
%TD*%
%TO.C,R3*%
X131064000Y-100060000D03*
X131064000Y-98060000D03*
%TD*%
D11*
%TO.C,U1*%
X134490000Y-94615000D03*
X134490000Y-93345000D03*
X134490000Y-92075000D03*
X134490000Y-90805000D03*
X134490000Y-89535000D03*
X134490000Y-88265000D03*
X134490000Y-86995000D03*
X129540000Y-86995000D03*
X129540000Y-88265000D03*
X129540000Y-89535000D03*
X129540000Y-90805000D03*
X129540000Y-92075000D03*
X129540000Y-93345000D03*
X129540000Y-94615000D03*
%TD*%
D10*
%TO.C,R2*%
X132969000Y-100060000D03*
X132969000Y-98060000D03*
%TD*%
%TO.C,R1*%
X134874000Y-100060000D03*
X134874000Y-98060000D03*
%TD*%
D12*
%TO.C,J2*%
X168275000Y-97790000D03*
D13*
X168275000Y-100330000D03*
X165735000Y-97790000D03*
X165735000Y-100330000D03*
X163195000Y-97790000D03*
X163195000Y-100330000D03*
X160655000Y-97790000D03*
X160655000Y-100330000D03*
X158115000Y-97790000D03*
X158115000Y-100330000D03*
X155575000Y-97790000D03*
X155575000Y-100330000D03*
X153035000Y-97790000D03*
X153035000Y-100330000D03*
X150495000Y-97790000D03*
X150495000Y-100330000D03*
X147955000Y-97790000D03*
X147955000Y-100330000D03*
X145415000Y-97790000D03*
X145415000Y-100330000D03*
X142875000Y-97790000D03*
X142875000Y-100330000D03*
X140335000Y-97790000D03*
X140335000Y-100330000D03*
X137795000Y-97790000D03*
X137795000Y-100330000D03*
%TD*%
D14*
%TO.C,C1*%
X129133600Y-100135000D03*
X129133600Y-98060000D03*
%TD*%
D15*
%TO.C,J1*%
X164465000Y-89535000D03*
D16*
X164465000Y-92075000D03*
X161925000Y-89535000D03*
X161925000Y-92075000D03*
X159385000Y-89535000D03*
X159385000Y-92075000D03*
X156845000Y-89535000D03*
X156845000Y-92075000D03*
X154305000Y-89535000D03*
X154305000Y-92075000D03*
X151765000Y-89535000D03*
X151765000Y-92075000D03*
X149225000Y-89535000D03*
X149225000Y-92075000D03*
X146685000Y-89535000D03*
X146685000Y-92075000D03*
X144145000Y-89535000D03*
X144145000Y-92075000D03*
X141605000Y-89535000D03*
X141605000Y-92075000D03*
%TD*%
M02*
