G04 DipTrace 3.3.1.3*
G04 BottomMask.gbr*
%MOMM*%
G04 #@! TF.FileFunction,Soldermask,Bot*
G04 #@! TF.Part,Single*
%AMOUTLINE1*
4,1,8,
0.6,0.79142,
0.29142,1.1,
-0.29142,1.1,
-0.6,0.79142,
-0.6,-0.79142,
-0.29142,-1.1,
0.29142,-1.1,
0.6,-0.79142,
0.6,0.79142,
0*%
%AMOUTLINE4*
4,1,8,
-0.6,-0.79142,
-0.29142,-1.1,
0.29142,-1.1,
0.6,-0.79142,
0.6,0.79142,
0.29142,1.1,
-0.29142,1.1,
-0.6,0.79142,
-0.6,-0.79142,
0*%
%ADD21R,1.8X1.8*%
%ADD34C,1.4*%
%ADD43C,3.25*%
%ADD44C,2.35*%
%ADD45C,1.25*%
%ADD59C,1.6*%
%ADD60O,2.2X2.7*%
%ADD62C,1.724*%
%ADD64C,1.724*%
%ADD66O,1.2X2.2*%
%ADD75C,1.9*%
%ADD77R,1.9X1.9*%
%ADD79C,2.0*%
%ADD80R,2.0X2.0*%
%ADD81R,1.47X1.47*%
%ADD83C,1.47*%
%ADD85C,1.8*%
%ADD95OUTLINE1*%
%ADD98OUTLINE4*%
%FSLAX35Y35*%
G04*
G71*
G90*
G75*
G01*
G04 BotMask*
%LPD*%
D21*
X3825963Y5651590D3*
D85*
Y5397590D3*
D83*
X2505563Y2649713D3*
D81*
X2251563D3*
D83*
X3870863D3*
D81*
X3616863D3*
D83*
X5299540D3*
D81*
X5045540D3*
D80*
X1749583Y3571963D3*
D79*
Y4676963D3*
D80*
X2149377Y3568583D3*
D79*
Y4673583D3*
D43*
X10191813Y1381213D3*
X1428813Y6175413D3*
Y1381213D3*
X10191813Y6175513D3*
D77*
X5238840Y4603837D3*
D75*
Y4349837D3*
Y4095837D3*
Y3841837D3*
Y3587837D3*
D34*
X5254713Y5810337D3*
X5152713Y5556337D3*
X5050713Y5810337D3*
X4948713Y5556337D3*
X4846713Y5810337D3*
X4744713Y5556337D3*
D44*
X5599713Y6040337D3*
X4399713D3*
D34*
X2889337Y5810337D3*
X2787337Y5556337D3*
X2685337Y5810337D3*
X2583337Y5556337D3*
X2481337Y5810337D3*
X2379337Y5556337D3*
D44*
X3234337Y6040337D3*
X2034337D3*
D45*
X10222763Y2483537D3*
Y3282237D3*
D95*
X3556090Y3889463D3*
D66*
X3429090D3*
X3302090D3*
D98*
X3317963Y4381587D3*
D66*
X3444963D3*
X3571963D3*
D64*
X7889963Y3508460D3*
D62*
X6873963D3*
D64*
X6889837Y5111837D3*
D62*
X7905837D3*
D64*
X7889963Y3095713D3*
D62*
X6873963D3*
D64*
X7905837Y5508717D3*
D62*
X6889837D3*
D64*
Y4318087D3*
D62*
X7905837D3*
D64*
X6889837Y4714960D3*
D62*
X7905837D3*
D64*
Y3921213D3*
D62*
X6889837D3*
D64*
X2889340Y3603713D3*
D62*
Y4619713D3*
D64*
X2524213D3*
D62*
Y3603713D3*
D77*
X9350460Y4254583D3*
D75*
Y4508583D3*
Y4762583D3*
Y5016583D3*
Y5270583D3*
Y5524583D3*
Y5778583D3*
Y6032583D3*
Y6286583D3*
D64*
X4000590Y3619587D3*
D62*
Y4635587D3*
D64*
X4381590Y3619587D3*
D62*
Y4635587D3*
D64*
X4762590D3*
D62*
Y3619587D3*
D60*
X1206590Y3349710D3*
D34*
Y3603733D3*
Y3810083D3*
Y4016460D3*
D60*
Y4270483D3*
D59*
X2603563Y1224717D3*
Y1874717D3*
X2153563D3*
Y1224717D3*
X3968863D3*
Y1874717D3*
X3518863D3*
Y1224717D3*
X5397540D3*
Y1874717D3*
X4947540D3*
Y1224717D3*
D75*
X6127837Y6445340D3*
Y6191340D3*
Y5937340D3*
Y5683340D3*
Y5429340D3*
Y5175340D3*
Y4921340D3*
Y4667340D3*
Y4413340D3*
Y4159340D3*
Y3905340D3*
Y3651340D3*
Y3397340D3*
Y3143340D3*
Y2889340D3*
Y2635340D3*
Y2381340D3*
Y2127340D3*
Y1873340D3*
X8667837D3*
Y2127340D3*
Y2381340D3*
Y2635340D3*
Y2889340D3*
Y3143340D3*
Y3397340D3*
Y3651340D3*
Y3905340D3*
Y4159340D3*
Y4413340D3*
Y4667340D3*
Y4921340D3*
Y5175340D3*
Y5429340D3*
Y5683340D3*
Y5937340D3*
Y6191340D3*
Y6445340D3*
M02*
