M48
METRIC,LZ,000.000
;FILE_FORMAT=3:3
;TYPE=PLATED
;Layer: PTH_Through
;EasyEDA v6.5.42, 2024-04-02 15:41:54
;2b23fd05ff384805b3ab63b0522f50a2,2162b387b2864a4d85882ef8f1f27c6b,10
;Gerber Generator version 0.2
;Holesize 1 = 0.306 mm
T01C0.306
;Holesize 2 = 0.800 mm
T02C0.800
;Holesize 3 = 0.901 mm
T03C0.901
;Holesize 4 = 0.915 mm
T04C0.915
;Holesize 5 = 1.000 mm
T05C1.000
;Holesize 6 = 1.016 mm
T06C1.016
;Holesize 7 = 1.021 mm
T07C1.021
%
G05
G90
T01
X038972Y-112792
X061706Y-084444
X044347Y-072204
X039370Y-072204
X102760Y-098022
X067215Y-081848
X078005Y-081848
X081376Y-087523
X044370Y-075425
X074523Y-087918
X066538Y-089263
X048409Y-090567
X095250Y-092976
X101796Y-096910
X045071Y-070695
X077016Y-098532
X069022Y-100667
X077051Y-111985
X058725Y-078822
X079611Y-079067
X072299Y-099179
X080744Y-085421
X069535Y-088126
X078292Y-103714
X070442Y-098623
X059619Y-077667
T02
X012700Y-087630
X012700Y-090170
X012700Y-096520
X012700Y-099060
X019050Y-083810
X019050Y-076210
X019050Y-096510
X019050Y-088910
X080010Y-108110
X080010Y-100170
X082550Y-108110
X082550Y-100170
X085090Y-108110
X085090Y-100170
X087630Y-108110
X087630Y-100170
X090170Y-108110
X090170Y-100170
X092710Y-108110
X092710Y-100170
X095250Y-108110
X095250Y-100170
X097790Y-108110
X097790Y-100170
X100330Y-108110
X100330Y-100170
X102870Y-108110
X102870Y-100170
T03
X019050Y-106680
X019050Y-101600
X046990Y-106680
X046990Y-101600
X076200Y-088900
X076200Y-083820
X076200Y-106680
X076200Y-101600
X100330Y-090170
X097790Y-090170
X095250Y-090170
X092710Y-090170
X090170Y-090170
X087630Y-090170
X085090Y-090170
X082550Y-090170
X080010Y-090170
X102870Y-090170
X102870Y-082550
X100330Y-082550
X097790Y-082550
X095250Y-082550
X092710Y-082550
X090170Y-082550
X087630Y-082550
X085090Y-082550
X082550Y-082550
X080010Y-082550
T04
X069850Y-068580
X067310Y-068580
X064770Y-068580
X062230Y-068580
X059690Y-068580
X057150Y-068580
X054610Y-068580
X052070Y-068580
X049530Y-068580
X046990Y-068580
X044450Y-068580
X041910Y-068580
X039370Y-068580
X036830Y-068580
X034290Y-068580
X031750Y-068580
X029210Y-068580
X026670Y-068580
X026670Y-093980
X029210Y-093980
X031750Y-093980
X034290Y-093980
X036830Y-093980
X039370Y-093980
X041910Y-093980
X044450Y-093980
X046990Y-093980
X049530Y-093980
X052070Y-093980
X054610Y-093980
X057150Y-093980
X059690Y-093980
X062230Y-093980
X064770Y-093980
X067310Y-093980
X069850Y-093980
X024130Y-093980
X024130Y-068580
T05
X031750Y-083820
X034290Y-083820
X036830Y-083820
X039370Y-083820
X041910Y-083820
X044450Y-083820
X046990Y-083820
X049530Y-083820
X052070Y-083820
X082550Y-078740
X085090Y-078740
X087630Y-078740
X090170Y-078740
X092710Y-078740
X095250Y-078740
X097790Y-078740
X100330Y-078740
X102870Y-078740
X021590Y-108110
X024130Y-108110
X036830Y-108110
X039370Y-108110
X026670Y-108110
X029210Y-108110
X034290Y-108110
X031750Y-108110
X039370Y-100170
X036830Y-100170
X034290Y-100170
X031750Y-100170
X029210Y-100170
X026670Y-100170
X024130Y-100170
X021590Y-100170
X050800Y-108090
X053340Y-108090
X055880Y-108090
X058420Y-108090
X060960Y-108090
X063500Y-108090
X066040Y-108090
X050800Y-100190
X053340Y-100190
X055880Y-100190
X058420Y-100190
X060960Y-100190
X063500Y-100190
X066040Y-100190
T06
X008890Y-114818
X011430Y-114818
X013970Y-114818
X016510Y-114818
X019050Y-114818
X021590Y-114818
X024130Y-114818
X026670Y-114818
X029210Y-114818
X031750Y-114818
X034290Y-114818
X036830Y-114818
X039370Y-114818
X041910Y-114818
X044450Y-114818
X046990Y-114818
X049530Y-114818
X052070Y-114818
X054610Y-114818
X057150Y-114818
X059690Y-114818
X062230Y-114818
X064770Y-114818
X067310Y-114818
X069850Y-114818
X072390Y-114818
X074930Y-114818
X077470Y-114818
X080010Y-114818
X082550Y-114818
X085090Y-114818
X087630Y-114818
X090170Y-114818
X092710Y-114818
X095250Y-114818
X097790Y-114818
X100330Y-114818
X102870Y-114818
X105410Y-114818
T07
X097790Y-072390
X095250Y-072390
X092710Y-072390
X090170Y-072390
X087630Y-072390
X085090Y-072390
M30
