M48
METRIC,LZ,000.000
;FILE_FORMAT=3:3
;TYPE=PLATED
;Layer: PTH_Through_Via
;EasyEDA v6.5.42, 2024-04-02 15:41:54
;2b23fd05ff384805b3ab63b0522f50a2,2162b387b2864a4d85882ef8f1f27c6b,10
;Gerber Generator version 0.2
;Holesize 1 = 0.306 mm
T01C0.306
%
G05
G90
T01
X038972Y-112792
X061706Y-084444
X044347Y-072204
X039370Y-072204
X102760Y-098022
X067215Y-081848
X078005Y-081848
X081376Y-087523
X044370Y-075425
X074523Y-087918
X066538Y-089263
X048409Y-090567
X095250Y-092976
X101796Y-096910
X045071Y-070695
X077016Y-098532
X069022Y-100667
X077051Y-111985
X058725Y-078822
X079611Y-079067
X072299Y-099179
X080744Y-085421
X069535Y-088126
X078292Y-103714
X070442Y-098623
X059619Y-077667
M30
