G04 Layer: BottomSilkscreenLayer*
G04 EasyEDA v6.5.42, 2024-04-02 15:41:54*
G04 2b23fd05ff384805b3ab63b0522f50a2,2162b387b2864a4d85882ef8f1f27c6b,10*
G04 Gerber Generator version 0.2*
G04 Scale: 100 percent, Rotated: No, Reflected: No *
G04 Dimensions in millimeters *
G04 leading zeros omitted , absolute positions ,4 integer and 5 decimal *
%FSLAX45Y45*%
%MOMM*%

%ADD10C,0.2032*%

%LPD*%
D10*
X7238984Y-7037166D02*
G01*
X7238984Y-7228075D01*
X7238984Y-7037166D02*
G01*
X7120803Y-7037166D01*
X7238984Y-7128075D02*
G01*
X7166256Y-7128075D01*
X7060803Y-7100803D02*
G01*
X7060803Y-7191712D01*
X7051713Y-7218984D01*
X7033531Y-7228075D01*
X7006257Y-7228075D01*
X6988075Y-7218984D01*
X6960803Y-7191712D01*
X6960803Y-7100803D02*
G01*
X6960803Y-7228075D01*
X6864438Y-7037166D02*
G01*
X6855348Y-7046257D01*
X6846257Y-7037166D01*
X6855348Y-7028075D01*
X6864438Y-7037166D01*
X6855348Y-7100803D02*
G01*
X6855348Y-7255347D01*
X6864438Y-7282621D01*
X6882622Y-7291712D01*
X6900804Y-7291712D01*
X6786257Y-7037166D02*
G01*
X6777167Y-7046257D01*
X6768076Y-7037166D01*
X6777167Y-7028075D01*
X6786257Y-7037166D01*
X6777167Y-7100803D02*
G01*
X6777167Y-7228075D01*
X6708076Y-7037166D02*
G01*
X6708076Y-7228075D01*
X6708076Y-7037166D02*
G01*
X6580804Y-7228075D01*
X6580804Y-7037166D02*
G01*
X6580804Y-7228075D01*
X6520804Y-7155347D02*
G01*
X6411714Y-7155347D01*
X6411714Y-7137166D01*
X6420805Y-7118985D01*
X6429895Y-7109894D01*
X6448077Y-7100803D01*
X6475349Y-7100803D01*
X6493532Y-7109894D01*
X6511714Y-7128075D01*
X6520804Y-7155347D01*
X6520804Y-7173531D01*
X6511714Y-7200803D01*
X6493532Y-7218984D01*
X6475349Y-7228075D01*
X6448077Y-7228075D01*
X6429895Y-7218984D01*
X6411714Y-7200803D01*
X6324439Y-7037166D02*
G01*
X6324439Y-7191712D01*
X6315349Y-7218984D01*
X6297168Y-7228075D01*
X6278986Y-7228075D01*
X6351714Y-7100803D02*
G01*
X6288077Y-7100803D01*
X7238984Y-7418166D02*
G01*
X7238984Y-7609075D01*
X7238984Y-7418166D02*
G01*
X7175347Y-7418166D01*
X7148075Y-7427257D01*
X7129894Y-7445438D01*
X7120803Y-7463622D01*
X7111712Y-7490894D01*
X7111712Y-7536347D01*
X7120803Y-7563622D01*
X7129894Y-7581803D01*
X7148075Y-7599984D01*
X7175347Y-7609075D01*
X7238984Y-7609075D01*
X7051713Y-7536347D02*
G01*
X6942622Y-7536347D01*
X6942622Y-7518166D01*
X6951713Y-7499985D01*
X6960803Y-7490894D01*
X6978985Y-7481803D01*
X7006257Y-7481803D01*
X7024438Y-7490894D01*
X7042622Y-7509075D01*
X7051713Y-7536347D01*
X7051713Y-7554531D01*
X7042622Y-7581803D01*
X7024438Y-7599984D01*
X7006257Y-7609075D01*
X6978985Y-7609075D01*
X6960803Y-7599984D01*
X6942622Y-7581803D01*
X6782622Y-7509075D02*
G01*
X6791713Y-7490894D01*
X6818985Y-7481803D01*
X6846257Y-7481803D01*
X6873532Y-7490894D01*
X6882622Y-7509075D01*
X6873532Y-7527256D01*
X6855348Y-7536347D01*
X6809894Y-7545438D01*
X6791713Y-7554531D01*
X6782622Y-7572712D01*
X6782622Y-7581803D01*
X6791713Y-7599984D01*
X6818985Y-7609075D01*
X6846257Y-7609075D01*
X6873532Y-7599984D01*
X6882622Y-7581803D01*
X6722623Y-7418166D02*
G01*
X6713532Y-7427257D01*
X6704439Y-7418166D01*
X6713532Y-7409075D01*
X6722623Y-7418166D01*
X6713532Y-7481803D02*
G01*
X6713532Y-7609075D01*
X6535348Y-7481803D02*
G01*
X6535348Y-7627256D01*
X6544439Y-7654531D01*
X6553532Y-7663621D01*
X6571714Y-7672712D01*
X6598986Y-7672712D01*
X6617167Y-7663621D01*
X6535348Y-7509075D02*
G01*
X6553532Y-7490894D01*
X6571714Y-7481803D01*
X6598986Y-7481803D01*
X6617167Y-7490894D01*
X6635348Y-7509075D01*
X6644439Y-7536347D01*
X6644439Y-7554531D01*
X6635348Y-7581803D01*
X6617167Y-7599984D01*
X6598986Y-7609075D01*
X6571714Y-7609075D01*
X6553532Y-7599984D01*
X6535348Y-7581803D01*
X6475349Y-7481803D02*
G01*
X6475349Y-7609075D01*
X6475349Y-7518166D02*
G01*
X6448077Y-7490894D01*
X6429895Y-7481803D01*
X6402623Y-7481803D01*
X6384439Y-7490894D01*
X6375349Y-7518166D01*
X6375349Y-7609075D01*
X6315349Y-7536347D02*
G01*
X6206258Y-7536347D01*
X6206258Y-7518166D01*
X6215349Y-7499985D01*
X6224440Y-7490894D01*
X6242624Y-7481803D01*
X6269896Y-7481803D01*
X6288077Y-7490894D01*
X6306258Y-7509075D01*
X6315349Y-7536347D01*
X6315349Y-7554531D01*
X6306258Y-7581803D01*
X6288077Y-7599984D01*
X6269896Y-7609075D01*
X6242624Y-7609075D01*
X6224440Y-7599984D01*
X6206258Y-7581803D01*
X6037168Y-7418166D02*
G01*
X6037168Y-7609075D01*
X6037168Y-7509075D02*
G01*
X6055349Y-7490894D01*
X6073533Y-7481803D01*
X6100805Y-7481803D01*
X6118986Y-7490894D01*
X6137168Y-7509075D01*
X6146258Y-7536347D01*
X6146258Y-7554531D01*
X6137168Y-7581803D01*
X6118986Y-7599984D01*
X6100805Y-7609075D01*
X6073533Y-7609075D01*
X6055349Y-7599984D01*
X6037168Y-7581803D01*
X5764441Y-7418166D02*
G01*
X5782624Y-7418166D01*
X5800806Y-7427257D01*
X5809896Y-7454531D01*
X5809896Y-7609075D01*
X5837168Y-7481803D02*
G01*
X5773534Y-7481803D01*
X5658987Y-7481803D02*
G01*
X5677169Y-7490894D01*
X5695350Y-7509075D01*
X5704441Y-7536347D01*
X5704441Y-7554531D01*
X5695350Y-7581803D01*
X5677169Y-7599984D01*
X5658987Y-7609075D01*
X5631715Y-7609075D01*
X5613534Y-7599984D01*
X5595350Y-7581803D01*
X5586260Y-7554531D01*
X5586260Y-7536347D01*
X5595350Y-7509075D01*
X5613534Y-7490894D01*
X5631715Y-7481803D01*
X5658987Y-7481803D01*
X5526260Y-7481803D02*
G01*
X5526260Y-7609075D01*
X5526260Y-7536347D02*
G01*
X5517169Y-7509075D01*
X5498988Y-7490894D01*
X5480806Y-7481803D01*
X5453534Y-7481803D01*
X5253535Y-7418166D02*
G01*
X5253535Y-7609075D01*
X5253535Y-7418166D02*
G01*
X5171716Y-7418166D01*
X5144442Y-7427257D01*
X5135351Y-7436347D01*
X5126261Y-7454531D01*
X5126261Y-7472713D01*
X5135351Y-7490894D01*
X5144442Y-7499985D01*
X5171716Y-7509075D01*
X5253535Y-7509075D01*
X5189898Y-7509075D02*
G01*
X5126261Y-7609075D01*
X4929898Y-7463622D02*
G01*
X4938989Y-7445438D01*
X4957170Y-7427257D01*
X4975352Y-7418166D01*
X5011717Y-7418166D01*
X5029898Y-7427257D01*
X5048079Y-7445438D01*
X5057170Y-7463622D01*
X5066261Y-7490894D01*
X5066261Y-7536347D01*
X5057170Y-7563622D01*
X5048079Y-7581803D01*
X5029898Y-7599984D01*
X5011717Y-7609075D01*
X4975352Y-7609075D01*
X4957170Y-7599984D01*
X4938989Y-7581803D01*
X4929898Y-7563622D01*
X4860808Y-7463622D02*
G01*
X4860808Y-7454531D01*
X4851717Y-7436347D01*
X4842626Y-7427257D01*
X4824442Y-7418166D01*
X4788080Y-7418166D01*
X4769899Y-7427257D01*
X4760808Y-7436347D01*
X4751717Y-7454531D01*
X4751717Y-7472713D01*
X4760808Y-7490894D01*
X4778989Y-7518166D01*
X4869898Y-7609075D01*
X4742627Y-7609075D01*
X4628080Y-7418166D02*
G01*
X4655352Y-7427257D01*
X4673536Y-7454531D01*
X4682627Y-7499985D01*
X4682627Y-7527256D01*
X4673536Y-7572712D01*
X4655352Y-7599984D01*
X4628080Y-7609075D01*
X4609899Y-7609075D01*
X4582627Y-7599984D01*
X4564443Y-7572712D01*
X4555352Y-7527256D01*
X4555352Y-7499985D01*
X4564443Y-7454531D01*
X4582627Y-7427257D01*
X4609899Y-7418166D01*
X4628080Y-7418166D01*
X4495352Y-7454531D02*
G01*
X4477171Y-7445438D01*
X4449899Y-7418166D01*
X4449899Y-7609075D01*
X4298990Y-7418166D02*
G01*
X4389899Y-7545438D01*
X4253537Y-7545438D01*
X4298990Y-7418166D02*
G01*
X4298990Y-7609075D01*
X7148075Y-7799163D02*
G01*
X7148075Y-7944619D01*
X7157166Y-7971891D01*
X7166256Y-7980982D01*
X7184438Y-7990072D01*
X7202622Y-7990072D01*
X7220803Y-7980982D01*
X7229894Y-7971891D01*
X7238984Y-7944619D01*
X7238984Y-7926435D01*
X7088075Y-7862801D02*
G01*
X7088075Y-7953710D01*
X7078985Y-7980982D01*
X7060803Y-7990072D01*
X7033531Y-7990072D01*
X7015347Y-7980982D01*
X6988075Y-7953710D01*
X6988075Y-7862801D02*
G01*
X6988075Y-7990072D01*
X6828076Y-7890073D02*
G01*
X6837166Y-7871891D01*
X6864438Y-7862801D01*
X6891713Y-7862801D01*
X6918985Y-7871891D01*
X6928076Y-7890073D01*
X6918985Y-7908254D01*
X6900804Y-7917345D01*
X6855348Y-7926435D01*
X6837166Y-7935528D01*
X6828076Y-7953710D01*
X6828076Y-7962800D01*
X6837166Y-7980982D01*
X6864438Y-7990072D01*
X6891713Y-7990072D01*
X6918985Y-7980982D01*
X6928076Y-7962800D01*
X6740804Y-7799163D02*
G01*
X6740804Y-7953710D01*
X6731713Y-7980982D01*
X6713532Y-7990072D01*
X6695348Y-7990072D01*
X6768076Y-7862801D02*
G01*
X6704439Y-7862801D01*
X6635348Y-7799163D02*
G01*
X6626258Y-7808254D01*
X6617167Y-7799163D01*
X6626258Y-7790073D01*
X6635348Y-7799163D01*
X6626258Y-7862801D02*
G01*
X6626258Y-7990072D01*
X6557167Y-7862801D02*
G01*
X6557167Y-7990072D01*
X6557167Y-7899163D02*
G01*
X6529895Y-7871891D01*
X6511714Y-7862801D01*
X6484439Y-7862801D01*
X6466258Y-7871891D01*
X6457167Y-7899163D01*
X6457167Y-7990072D01*
X6129896Y-7826435D02*
G01*
X6148077Y-7808254D01*
X6175349Y-7799163D01*
X6211714Y-7799163D01*
X6238986Y-7808254D01*
X6257168Y-7826435D01*
X6257168Y-7844619D01*
X6248077Y-7862801D01*
X6238986Y-7871891D01*
X6220805Y-7880982D01*
X6166258Y-7899163D01*
X6148077Y-7908254D01*
X6138986Y-7917345D01*
X6129896Y-7935528D01*
X6129896Y-7962800D01*
X6148077Y-7980982D01*
X6175349Y-7990072D01*
X6211714Y-7990072D01*
X6238986Y-7980982D01*
X6257168Y-7962800D01*
X6069896Y-7799163D02*
G01*
X6069896Y-7990072D01*
X5978987Y-7862801D02*
G01*
X6069896Y-7953710D01*
X6033533Y-7917345D02*
G01*
X5969896Y-7990072D01*
X5909896Y-7799163D02*
G01*
X5900806Y-7808254D01*
X5891715Y-7799163D01*
X5900806Y-7790073D01*
X5909896Y-7799163D01*
X5900806Y-7862801D02*
G01*
X5900806Y-7990072D01*
X5731715Y-7890073D02*
G01*
X5740806Y-7871891D01*
X5768078Y-7862801D01*
X5795350Y-7862801D01*
X5822624Y-7871891D01*
X5831715Y-7890073D01*
X5822624Y-7908254D01*
X5804441Y-7917345D01*
X5758987Y-7926435D01*
X5740806Y-7935528D01*
X5731715Y-7953710D01*
X5731715Y-7962800D01*
X5740806Y-7980982D01*
X5768078Y-7990072D01*
X5795350Y-7990072D01*
X5822624Y-7980982D01*
X5831715Y-7962800D01*
X5644441Y-7799163D02*
G01*
X5644441Y-7953710D01*
X5635350Y-7980982D01*
X5617169Y-7990072D01*
X5598988Y-7990072D01*
X5671715Y-7862801D02*
G01*
X5608078Y-7862801D01*
X5438988Y-7890073D02*
G01*
X5448079Y-7871891D01*
X5475350Y-7862801D01*
X5502625Y-7862801D01*
X5529897Y-7871891D01*
X5538988Y-7890073D01*
X5529897Y-7908254D01*
X5511716Y-7917345D01*
X5466260Y-7926435D01*
X5448079Y-7935528D01*
X5438988Y-7953710D01*
X5438988Y-7962800D01*
X5448079Y-7980982D01*
X5475350Y-7990072D01*
X5502625Y-7990072D01*
X5529897Y-7980982D01*
X5538988Y-7962800D01*
X5238988Y-7908254D02*
G01*
X5075351Y-7908254D01*
X4738989Y-7871891D02*
G01*
X4748080Y-7853710D01*
X4766261Y-7844619D01*
X4793536Y-7844619D01*
X4811717Y-7853710D01*
X4820808Y-7862801D01*
X4829898Y-7890073D01*
X4829898Y-7917345D01*
X4820808Y-7935528D01*
X4802626Y-7944619D01*
X4775352Y-7944619D01*
X4757171Y-7935528D01*
X4748080Y-7917345D01*
X4793536Y-7844619D02*
G01*
X4811717Y-7862801D01*
X4820808Y-7890073D01*
X4820808Y-7917345D01*
X4811717Y-7935528D01*
X4802626Y-7944619D01*
X4738989Y-7844619D02*
G01*
X4748080Y-7917345D01*
X4748080Y-7935528D01*
X4729899Y-7944619D01*
X4711717Y-7944619D01*
X4693536Y-7926435D01*
X4684443Y-7899163D01*
X4684443Y-7880982D01*
X4693536Y-7853710D01*
X4702627Y-7835529D01*
X4720808Y-7817345D01*
X4738989Y-7808254D01*
X4766261Y-7799163D01*
X4793536Y-7799163D01*
X4820808Y-7808254D01*
X4838989Y-7817345D01*
X4857170Y-7835529D01*
X4866261Y-7853710D01*
X4875352Y-7880982D01*
X4875352Y-7908254D01*
X4866261Y-7935528D01*
X4857170Y-7953710D01*
X4838989Y-7971891D01*
X4820808Y-7980982D01*
X4793536Y-7990072D01*
X4766261Y-7990072D01*
X4738989Y-7980982D01*
X4720808Y-7971891D01*
X4711717Y-7962800D01*
X4729899Y-7844619D02*
G01*
X4738989Y-7917345D01*
X4738989Y-7935528D01*
X4729899Y-7944619D01*
X4588080Y-7799163D02*
G01*
X4578990Y-7808254D01*
X4569899Y-7799163D01*
X4578990Y-7790073D01*
X4588080Y-7799163D01*
X4578990Y-7862801D02*
G01*
X4578990Y-8017344D01*
X4588080Y-8044619D01*
X4606262Y-8053710D01*
X4624443Y-8053710D01*
X4409899Y-7890073D02*
G01*
X4418990Y-7871891D01*
X4446262Y-7862801D01*
X4473536Y-7862801D01*
X4500808Y-7871891D01*
X4509899Y-7890073D01*
X4500808Y-7908254D01*
X4482627Y-7917345D01*
X4437171Y-7926435D01*
X4418990Y-7935528D01*
X4409899Y-7953710D01*
X4409899Y-7962800D01*
X4418990Y-7980982D01*
X4446262Y-7990072D01*
X4473536Y-7990072D01*
X4500808Y-7980982D01*
X4509899Y-7962800D01*
X4349899Y-7799163D02*
G01*
X4349899Y-7990072D01*
X4258990Y-7862801D02*
G01*
X4349899Y-7953710D01*
X4313537Y-7917345D02*
G01*
X4249900Y-7990072D01*
X4189900Y-7799163D02*
G01*
X4180809Y-7808254D01*
X4171718Y-7799163D01*
X4180809Y-7790073D01*
X4189900Y-7799163D01*
X4180809Y-7862801D02*
G01*
X4180809Y-7990072D01*
X4011719Y-7890073D02*
G01*
X4020809Y-7871891D01*
X4048081Y-7862801D01*
X4075353Y-7862801D01*
X4102628Y-7871891D01*
X4111718Y-7890073D01*
X4102628Y-7908254D01*
X4084444Y-7917345D01*
X4038991Y-7926435D01*
X4020809Y-7935528D01*
X4011719Y-7953710D01*
X4011719Y-7962800D01*
X4020809Y-7980982D01*
X4048081Y-7990072D01*
X4075353Y-7990072D01*
X4102628Y-7980982D01*
X4111718Y-7962800D01*
X3924444Y-7799163D02*
G01*
X3924444Y-7953710D01*
X3915354Y-7980982D01*
X3897172Y-7990072D01*
X3878991Y-7990072D01*
X3951719Y-7862801D02*
G01*
X3888082Y-7862801D01*
X3718991Y-7890073D02*
G01*
X3728082Y-7871891D01*
X3755354Y-7862801D01*
X3782628Y-7862801D01*
X3809900Y-7871891D01*
X3818991Y-7890073D01*
X3809900Y-7908254D01*
X3791719Y-7917345D01*
X3746263Y-7926435D01*
X3728082Y-7935528D01*
X3718991Y-7953710D01*
X3718991Y-7962800D01*
X3728082Y-7980982D01*
X3755354Y-7990072D01*
X3782628Y-7990072D01*
X3809900Y-7980982D01*
X3818991Y-7962800D01*
X3518992Y-7908254D02*
G01*
X3355355Y-7908254D01*
X3146264Y-7844619D02*
G01*
X3146264Y-7835529D01*
X3137174Y-7817345D01*
X3128083Y-7808254D01*
X3109902Y-7799163D01*
X3073539Y-7799163D01*
X3055355Y-7808254D01*
X3046265Y-7817345D01*
X3037174Y-7835529D01*
X3037174Y-7853710D01*
X3046265Y-7871891D01*
X3064446Y-7899163D01*
X3155355Y-7990072D01*
X3028083Y-7990072D01*
X2913540Y-7799163D02*
G01*
X2940811Y-7808254D01*
X2958993Y-7835529D01*
X2968083Y-7880982D01*
X2968083Y-7908254D01*
X2958993Y-7953710D01*
X2940811Y-7980982D01*
X2913540Y-7990072D01*
X2895356Y-7990072D01*
X2868084Y-7980982D01*
X2849902Y-7953710D01*
X2840812Y-7908254D01*
X2840812Y-7880982D01*
X2849902Y-7835529D01*
X2868084Y-7808254D01*
X2895356Y-7799163D01*
X2913540Y-7799163D01*
X2771721Y-7844619D02*
G01*
X2771721Y-7835529D01*
X2762631Y-7817345D01*
X2753540Y-7808254D01*
X2735356Y-7799163D01*
X2698993Y-7799163D01*
X2680812Y-7808254D01*
X2671721Y-7817345D01*
X2662631Y-7835529D01*
X2662631Y-7853710D01*
X2671721Y-7871891D01*
X2689903Y-7899163D01*
X2780812Y-7990072D01*
X2653540Y-7990072D01*
X2575356Y-7799163D02*
G01*
X2475356Y-7799163D01*
X2529903Y-7871891D01*
X2502631Y-7871891D01*
X2484447Y-7880982D01*
X2475356Y-7890073D01*
X2466266Y-7917345D01*
X2466266Y-7935528D01*
X2475356Y-7962800D01*
X2493540Y-7980982D01*
X2520812Y-7990072D01*
X2548084Y-7990072D01*
X2575356Y-7980982D01*
X2584447Y-7971891D01*
X2593540Y-7953710D01*
X7238984Y-8180163D02*
G01*
X7238984Y-8371072D01*
X7238984Y-8180163D02*
G01*
X7157166Y-8180163D01*
X7129894Y-8189254D01*
X7120803Y-8198345D01*
X7111712Y-8216529D01*
X7111712Y-8234710D01*
X7120803Y-8252891D01*
X7129894Y-8261982D01*
X7157166Y-8271073D01*
X7238984Y-8271073D01*
X7175347Y-8271073D02*
G01*
X7111712Y-8371072D01*
X7051713Y-8298345D02*
G01*
X6942622Y-8298345D01*
X6942622Y-8280163D01*
X6951713Y-8261982D01*
X6960803Y-8252891D01*
X6978985Y-8243801D01*
X7006257Y-8243801D01*
X7024438Y-8252891D01*
X7042622Y-8271073D01*
X7051713Y-8298345D01*
X7051713Y-8316528D01*
X7042622Y-8343800D01*
X7024438Y-8361982D01*
X7006257Y-8371072D01*
X6978985Y-8371072D01*
X6960803Y-8361982D01*
X6942622Y-8343800D01*
X6882622Y-8243801D02*
G01*
X6828076Y-8371072D01*
X6773532Y-8243801D02*
G01*
X6828076Y-8371072D01*
X6518986Y-8180163D02*
G01*
X6546258Y-8189254D01*
X6564439Y-8216529D01*
X6573532Y-8261982D01*
X6573532Y-8289254D01*
X6564439Y-8334710D01*
X6546258Y-8361982D01*
X6518986Y-8371072D01*
X6500804Y-8371072D01*
X6473532Y-8361982D01*
X6455349Y-8334710D01*
X6446258Y-8289254D01*
X6446258Y-8261982D01*
X6455349Y-8216529D01*
X6473532Y-8189254D01*
X6500804Y-8180163D01*
X6518986Y-8180163D01*
X6377167Y-8325619D02*
G01*
X6386258Y-8334710D01*
X6377167Y-8343800D01*
X6368077Y-8334710D01*
X6377167Y-8325619D01*
X6289895Y-8180163D02*
G01*
X6189896Y-8180163D01*
X6244440Y-8252891D01*
X6217168Y-8252891D01*
X6198986Y-8261982D01*
X6189896Y-8271073D01*
X6180805Y-8298345D01*
X6180805Y-8316528D01*
X6189896Y-8343800D01*
X6208077Y-8361982D01*
X6235349Y-8371072D01*
X6262624Y-8371072D01*
X6289895Y-8361982D01*
X6298986Y-8352891D01*
X6308077Y-8334710D01*
M02*
