G04 Layer: BottomLayer*
G04 EasyEDA v6.5.42, 2024-04-02 15:41:54*
G04 2b23fd05ff384805b3ab63b0522f50a2,2162b387b2864a4d85882ef8f1f27c6b,10*
G04 Gerber Generator version 0.2*
G04 Scale: 100 percent, Rotated: No, Reflected: No *
G04 Dimensions in millimeters *
G04 leading zeros omitted , absolute positions ,4 integer and 5 decimal *
%FSLAX45Y45*%
%MOMM*%

%ADD10C,0.4000*%
%ADD11R,1.8796X1.8796*%
%ADD12C,1.8796*%
%ADD13C,1.6000*%
%ADD14C,1.5240*%
%ADD15R,1.8000X1.6000*%
%ADD16C,1.3000*%
%ADD17R,1.6000X1.6000*%
%ADD18O,1.499997X1.9999959999999999*%
%ADD19R,1.5000X2.0000*%
%ADD20O,1.524X1.9999959999999999*%
%ADD21O,1.4619985999999998X1.8275046*%
%ADD22R,1.7000X1.7000*%
%ADD23C,1.7000*%
%ADD24C,0.6100*%
%ADD25C,0.0146*%

%LPD*%
D10*
X3429000Y-10810976D02*
G01*
X3897198Y-11279174D01*
X4434687Y-7220407D02*
G01*
X5658662Y-8444382D01*
X6170574Y-8444382D01*
X2413000Y-6857974D02*
G01*
X2775432Y-7220407D01*
X3937000Y-7220407D01*
X2413000Y-6857974D02*
G01*
X2159000Y-7111974D01*
X2159000Y-10016972D01*
X4699000Y-10159974D02*
G01*
X4546777Y-10312196D01*
X4546777Y-10821593D01*
X5207000Y-11481815D01*
X7619974Y-10159974D02*
G01*
X7203135Y-9743135D01*
X5355843Y-9743135D01*
X5080000Y-10018979D01*
X8254974Y-7873974D02*
G01*
X8254974Y-8024037D01*
X8254974Y-8024037D02*
G01*
X8231911Y-8024037D01*
X8000974Y-8254974D01*
X2159000Y-10016972D02*
G01*
X2048002Y-10016972D01*
X1905000Y-10159974D01*
X8762974Y-9016974D02*
G01*
X8938564Y-9192564D01*
X9823780Y-9192564D01*
X10287000Y-9655784D01*
X10287000Y-9791192D01*
X10275976Y-9802215D01*
X8762974Y-10810976D02*
G01*
X8343341Y-11230610D01*
X8252206Y-11230610D01*
X8001000Y-11481815D01*
X7800543Y-8184845D02*
G01*
X7800543Y-8415223D01*
X8137601Y-8752281D01*
X5461000Y-6857974D02*
G01*
X5461000Y-6924370D01*
X6721475Y-8184845D01*
X3175000Y-8381974D02*
G01*
X4014444Y-7542529D01*
X4436999Y-7542529D01*
X7452309Y-8791803D02*
G01*
X7452309Y-8269223D01*
X8290433Y-7431100D01*
X8824849Y-7431100D01*
X9016974Y-7238974D01*
X6731000Y-9397974D02*
G01*
X6653758Y-9320733D01*
X6653758Y-8926321D01*
X4699000Y-8381974D02*
G01*
X4840884Y-8523859D01*
X4840884Y-9056700D01*
X4699000Y-9397974D02*
G01*
X4445000Y-9143974D01*
X4445000Y-8381974D01*
X9778974Y-10016972D02*
G01*
X9395586Y-9633585D01*
X8132749Y-9633585D01*
X7351649Y-8852484D01*
X7351649Y-8240623D01*
X5969000Y-6857974D01*
X9778974Y-10810976D02*
G01*
X10431246Y-10158704D01*
X10431246Y-9669246D01*
X9778974Y-9016974D01*
X9017000Y-11481815D02*
G01*
X9268206Y-11230610D01*
X9359341Y-11230610D01*
X9778974Y-10810976D01*
X8254974Y-10016972D02*
G01*
X8242249Y-10016972D01*
X7054189Y-8828912D01*
X7054189Y-8705164D01*
X5207000Y-6857974D01*
X8762974Y-10016972D02*
G01*
X8566861Y-9820859D01*
X8173618Y-9820859D01*
X7144334Y-8791575D01*
X7144334Y-8287308D01*
X5715000Y-6857974D01*
X10179608Y-9691014D02*
G01*
X9918395Y-9691014D01*
X9524974Y-9297593D01*
X8763000Y-11481815D02*
G01*
X9014206Y-11230610D01*
X9105341Y-11230610D01*
X9524974Y-10810976D01*
X4507052Y-7069480D02*
G01*
X5633948Y-8196376D01*
X6066180Y-8196376D01*
X7701584Y-9831781D01*
X7701584Y-9853244D01*
X7705115Y-11198479D02*
G01*
X6902221Y-10395585D01*
X6902221Y-10066731D01*
X8509000Y-11481815D02*
G01*
X8760206Y-11230610D01*
X8851341Y-11230610D01*
X9270974Y-10810976D01*
X2159000Y-10810976D02*
G01*
X2638018Y-11289995D01*
X3237179Y-11289995D01*
X3429000Y-11481815D01*
X2413000Y-10810976D02*
G01*
X2757144Y-11155121D01*
X3356305Y-11155121D01*
X3683000Y-11481815D01*
X4445000Y-6857974D02*
G01*
X5469254Y-7882229D01*
X5872530Y-7882229D01*
X10286974Y-7873974D02*
G01*
X10120122Y-7707121D01*
X8160689Y-7707121D01*
X7961122Y-7906689D01*
X10286974Y-8254974D02*
G01*
X10286974Y-7873974D01*
X7229856Y-9917887D02*
G01*
X7229856Y-9983444D01*
X7672019Y-10425607D01*
X7741081Y-10425607D01*
X7787487Y-10472013D01*
X8644940Y-10472013D01*
X8989059Y-10816107D01*
X9016974Y-10810976D02*
G01*
X9011818Y-10816132D01*
X8989059Y-10816132D01*
X8989059Y-10816107D01*
X8255000Y-11481815D02*
G01*
X8506206Y-11230610D01*
X8574557Y-11230610D01*
X8989059Y-10816107D01*
X5461000Y-9397974D02*
G01*
X5461000Y-8415934D01*
X4257700Y-7212634D01*
X4071594Y-7212634D01*
X3716934Y-6857974D01*
X3683000Y-6857974D01*
X3937000Y-10810976D02*
G01*
X4282160Y-10810976D01*
X4953000Y-11481815D01*
X6985000Y-9397974D02*
G01*
X6838619Y-9544354D01*
X5607380Y-9544354D01*
X5461000Y-9397974D01*
X9778974Y-7238974D02*
G01*
X9865436Y-7238974D01*
X10448975Y-7822514D01*
X10448975Y-8854973D01*
X10286974Y-9016974D01*
X5461000Y-9397974D02*
G01*
X4867706Y-9991267D01*
X4867706Y-10280700D01*
X4699000Y-10449407D01*
X4699000Y-10667974D01*
X8000974Y-9016974D02*
G01*
X7746974Y-9016974D01*
X7619974Y-8889974D01*
X5842000Y-10808970D02*
G01*
X5661355Y-10989614D01*
X5514644Y-10989614D01*
X5334000Y-10808970D01*
X6604000Y-10808970D02*
G01*
X6432905Y-10637875D01*
X6267094Y-10637875D01*
X6096000Y-10808970D01*
X6096000Y-10018979D02*
G01*
X6985000Y-10907979D01*
X6985000Y-11481815D01*
X9778974Y-8254974D02*
G01*
X9778974Y-7873974D01*
X9524974Y-8254974D02*
G01*
X9524974Y-7873974D01*
X9270974Y-8254974D02*
G01*
X9270974Y-7873974D01*
X9016974Y-8254974D02*
G01*
X9016974Y-7873974D01*
X8762974Y-8254974D02*
G01*
X8762974Y-7873974D01*
X10032974Y-9016974D02*
G01*
X10522483Y-9506483D01*
X10522483Y-10321467D01*
X10032974Y-10810976D01*
X10032974Y-10810976D02*
G01*
X9613341Y-11230610D01*
X9522206Y-11230610D01*
X9271000Y-11481815D01*
X5334000Y-10018979D02*
G01*
X4934000Y-10418978D01*
X4934000Y-10957179D01*
X5249925Y-11273104D01*
X6522288Y-11273104D01*
X6731000Y-11481815D01*
X10032974Y-8254974D02*
G01*
X10032974Y-7873974D01*
X1905000Y-8380984D02*
G01*
X1270000Y-9015984D01*
X1270000Y-9016974D01*
X6350000Y-10018979D02*
G01*
X6165722Y-9834702D01*
X5772277Y-9834702D01*
X5588000Y-10018979D01*
X3175000Y-9397974D02*
G01*
X4191000Y-8381974D01*
X4953000Y-9397974D02*
G01*
X4953000Y-8381974D01*
X8074406Y-8542121D02*
G01*
X8254974Y-8722690D01*
X8254974Y-9016974D01*
X7829168Y-10371353D02*
G01*
X7829168Y-9757359D01*
X6953529Y-8881719D01*
X6953529Y-8812555D01*
X7493000Y-11481815D02*
G01*
X7675676Y-11299139D01*
X7766811Y-11299139D01*
X8254974Y-10810976D01*
X7044156Y-9862337D02*
G01*
X7044156Y-9926040D01*
X7635900Y-10517784D01*
X7705775Y-10517784D01*
X7750149Y-10562158D01*
X8227085Y-10562158D01*
X8481059Y-10816107D01*
X8508974Y-10810976D02*
G01*
X8503818Y-10816132D01*
X8481059Y-10816132D01*
X8481059Y-10816107D01*
X7747000Y-11481815D02*
G01*
X7998206Y-11230610D01*
X8066557Y-11230610D01*
X8481059Y-10816107D01*
X4699000Y-6857974D02*
G01*
X5607684Y-7766659D01*
X5961938Y-7766659D01*
X8508974Y-8254974D02*
G01*
X8508974Y-7873974D01*
X2667000Y-10810976D02*
G01*
X2846171Y-10990148D01*
X3445332Y-10990148D01*
X3937000Y-11481815D01*
X5207000Y-9397974D02*
G01*
X5207000Y-8381974D01*
D11*
G01*
X889000Y-11481815D03*
D12*
G01*
X1143000Y-11481815D03*
G01*
X1397000Y-11481815D03*
G01*
X1651000Y-11481815D03*
G01*
X1905000Y-11481815D03*
G01*
X2159000Y-11481815D03*
G01*
X2413000Y-11481815D03*
G01*
X2667000Y-11481815D03*
G01*
X2921000Y-11481815D03*
G01*
X3175000Y-11481815D03*
G01*
X3429000Y-11481815D03*
G01*
X3683000Y-11481815D03*
G01*
X3937000Y-11481815D03*
G01*
X4191000Y-11481815D03*
G01*
X4445000Y-11481815D03*
G01*
X4699000Y-11481815D03*
G01*
X4953000Y-11481815D03*
G01*
X5207000Y-11481815D03*
G01*
X5461000Y-11481815D03*
G01*
X5715000Y-11481815D03*
G01*
X5969000Y-11481815D03*
G01*
X6223000Y-11481815D03*
G01*
X6477000Y-11481815D03*
G01*
X6731000Y-11481815D03*
G01*
X6985000Y-11481815D03*
G01*
X7239000Y-11481815D03*
G01*
X7493000Y-11481815D03*
G01*
X7747000Y-11481815D03*
G01*
X8001000Y-11481815D03*
G01*
X8255000Y-11481815D03*
G01*
X8509000Y-11481815D03*
G01*
X8763000Y-11481815D03*
G01*
X9017000Y-11481815D03*
G01*
X9271000Y-11481815D03*
G01*
X9525000Y-11481815D03*
G01*
X9779000Y-11481815D03*
G01*
X10033000Y-11481815D03*
G01*
X10287000Y-11481815D03*
G01*
X10541000Y-11481815D03*
D13*
G01*
X1905000Y-10667974D03*
G01*
X1905000Y-10159974D03*
G01*
X4699000Y-10667974D03*
G01*
X4699000Y-10159974D03*
G01*
X7619974Y-8889974D03*
G01*
X7619974Y-8381974D03*
G01*
X7619974Y-10667974D03*
G01*
X7619974Y-10159974D03*
D14*
G01*
X1270000Y-8762974D03*
G01*
X1270000Y-9016974D03*
G01*
X1270000Y-9651974D03*
G01*
X1270000Y-9905974D03*
D13*
G01*
X9778974Y-7238974D03*
G01*
X9524974Y-7238974D03*
G01*
X9270974Y-7238974D03*
G01*
X9016974Y-7238974D03*
G01*
X8762974Y-7238974D03*
D15*
G01*
X8508974Y-7238974D03*
D16*
G01*
X1905000Y-8380984D03*
G01*
X1905000Y-7620965D03*
G01*
X1905000Y-9650984D03*
G01*
X1905000Y-8890965D03*
D17*
G01*
X3175000Y-8381974D03*
D13*
G01*
X3429000Y-8381974D03*
G01*
X3683000Y-8381974D03*
G01*
X3937000Y-8381974D03*
G01*
X4191000Y-8381974D03*
G01*
X4445000Y-8381974D03*
G01*
X4699000Y-8381974D03*
G01*
X4953000Y-8381974D03*
G01*
X5207000Y-8381974D03*
D17*
G01*
X8254974Y-7873974D03*
D13*
G01*
X8508974Y-7873974D03*
G01*
X8762974Y-7873974D03*
G01*
X9016974Y-7873974D03*
G01*
X9270974Y-7873974D03*
G01*
X9524974Y-7873974D03*
G01*
X9778974Y-7873974D03*
G01*
X10032974Y-7873974D03*
G01*
X10286974Y-7873974D03*
D14*
G01*
X6985000Y-6858000D03*
G01*
X6731000Y-6858000D03*
G01*
X6477000Y-6858000D03*
G01*
X6223000Y-6858000D03*
G01*
X5969000Y-6858000D03*
G01*
X5715000Y-6858000D03*
G01*
X5461000Y-6858000D03*
G01*
X5207000Y-6858000D03*
G01*
X4953000Y-6858000D03*
G01*
X4699000Y-6858000D03*
G01*
X4445000Y-6858000D03*
G01*
X4191000Y-6858000D03*
G01*
X3937000Y-6858000D03*
G01*
X3683000Y-6858000D03*
G01*
X3429000Y-6858000D03*
G01*
X3175000Y-6858000D03*
G01*
X2921000Y-6858000D03*
G01*
X2667000Y-6858000D03*
G01*
X2667000Y-9398000D03*
G01*
X2921000Y-9398000D03*
G01*
X3175000Y-9398000D03*
G01*
X3429000Y-9398000D03*
G01*
X3683000Y-9398000D03*
G01*
X3937000Y-9398000D03*
G01*
X4191000Y-9398000D03*
G01*
X4445000Y-9398000D03*
G01*
X4699000Y-9398000D03*
G01*
X4953000Y-9398000D03*
G01*
X5207000Y-9398000D03*
G01*
X5461000Y-9398000D03*
G01*
X5715000Y-9398000D03*
G01*
X5969000Y-9398000D03*
G01*
X6223000Y-9398000D03*
G01*
X6477000Y-9398000D03*
G01*
X6731000Y-9398000D03*
G01*
X6985000Y-9398000D03*
G01*
X2413000Y-9398000D03*
G01*
X2413000Y-6858000D03*
D18*
G01*
X10032974Y-9016974D03*
G01*
X9778974Y-9016974D03*
G01*
X9524974Y-9016974D03*
G01*
X9270974Y-9016974D03*
G01*
X9016974Y-9016974D03*
G01*
X8762974Y-9016974D03*
G01*
X8508974Y-9016974D03*
G01*
X8254974Y-9016974D03*
D19*
G01*
X8000974Y-9016974D03*
D20*
G01*
X10286974Y-9016974D03*
G01*
X10286974Y-8254974D03*
G01*
X10032974Y-8254974D03*
G01*
X9778974Y-8254974D03*
G01*
X9524974Y-8254974D03*
G01*
X9270974Y-8254974D03*
G01*
X9016974Y-8254974D03*
G01*
X8762974Y-8254974D03*
G01*
X8508974Y-8254974D03*
G01*
X8254974Y-8254974D03*
G01*
X8000974Y-8254974D03*
D21*
G01*
X8000974Y-10810976D03*
G01*
X8000974Y-10016972D03*
G01*
X8254974Y-10810976D03*
G01*
X8254974Y-10016972D03*
G01*
X8508974Y-10810976D03*
G01*
X8508974Y-10016972D03*
G01*
X8762974Y-10810976D03*
G01*
X8762974Y-10016972D03*
G01*
X9016974Y-10810976D03*
G01*
X9016974Y-10016972D03*
G01*
X9270974Y-10810976D03*
G01*
X9270974Y-10016972D03*
G01*
X9524974Y-10810976D03*
G01*
X9524974Y-10016972D03*
G01*
X9778974Y-10810976D03*
G01*
X9778974Y-10016972D03*
G01*
X10032974Y-10810976D03*
G01*
X10032974Y-10016972D03*
G01*
X10286974Y-10810976D03*
G01*
X10286974Y-10016972D03*
D22*
G01*
X2159000Y-10810976D03*
D23*
G01*
X2413000Y-10810976D03*
G01*
X3683000Y-10810976D03*
G01*
X3937000Y-10810976D03*
G01*
X2667000Y-10810976D03*
G01*
X2921000Y-10810976D03*
G01*
X3429000Y-10810976D03*
G01*
X3175000Y-10810976D03*
G01*
X3937000Y-10016972D03*
G01*
X3683000Y-10016972D03*
G01*
X3429000Y-10016972D03*
G01*
X3175000Y-10016972D03*
G01*
X2921000Y-10016972D03*
G01*
X2667000Y-10016972D03*
G01*
X2413000Y-10016972D03*
G01*
X2159000Y-10016972D03*
D19*
G01*
X5080000Y-10808970D03*
D18*
G01*
X5334000Y-10808970D03*
G01*
X5588000Y-10808970D03*
G01*
X5842000Y-10808970D03*
G01*
X6096000Y-10808970D03*
G01*
X6350000Y-10808970D03*
G01*
X6604000Y-10808970D03*
G01*
X5080000Y-10018979D03*
G01*
X5334000Y-10018979D03*
G01*
X5588000Y-10018979D03*
G01*
X5842000Y-10018979D03*
G01*
X6096000Y-10018979D03*
G01*
X6350000Y-10018979D03*
G01*
X6604000Y-10018979D03*
D24*
G01*
X3897198Y-11279174D03*
G01*
X6170574Y-8444382D03*
G01*
X4434687Y-7220407D03*
G01*
X3937000Y-7220407D03*
G01*
X10275976Y-9802215D03*
G01*
X6721475Y-8184845D03*
G01*
X7800543Y-8184845D03*
G01*
X8137601Y-8752281D03*
G01*
X4436999Y-7542529D03*
G01*
X7452309Y-8791803D03*
G01*
X6653758Y-8926321D03*
G01*
X4840884Y-9056700D03*
G01*
X9524974Y-9297593D03*
G01*
X10179608Y-9691014D03*
G01*
X4507052Y-7069480D03*
G01*
X7701584Y-9853244D03*
G01*
X6902221Y-10066731D03*
G01*
X7705115Y-11198479D03*
G01*
X5872530Y-7882229D03*
G01*
X7961122Y-7906689D03*
G01*
X7229856Y-9917887D03*
G01*
X8074406Y-8542121D03*
G01*
X6953529Y-8812555D03*
G01*
X7829168Y-10371353D03*
G01*
X7044156Y-9862337D03*
G01*
X5961938Y-7766659D03*
M02*
