G04 Layer: TopLayer*
G04 EasyEDA v6.5.42, 2024-04-02 15:41:54*
G04 2b23fd05ff384805b3ab63b0522f50a2,2162b387b2864a4d85882ef8f1f27c6b,10*
G04 Gerber Generator version 0.2*
G04 Scale: 100 percent, Rotated: No, Reflected: No *
G04 Dimensions in millimeters *
G04 leading zeros omitted , absolute positions ,4 integer and 5 decimal *
%FSLAX45Y45*%
%MOMM*%

%ADD10C,0.4000*%
%ADD11R,1.8796X1.8796*%
%ADD12C,1.8796*%
%ADD13C,1.6000*%
%ADD14C,1.5240*%
%ADD15R,1.8000X1.6000*%
%ADD16C,1.3000*%
%ADD17R,1.6000X1.6000*%
%ADD18O,1.499997X1.9999959999999999*%
%ADD19R,1.5000X2.0000*%
%ADD20O,1.524X1.9999959999999999*%
%ADD21O,1.4619985999999998X1.8275046*%
%ADD22R,1.7000X1.7000*%
%ADD23C,1.7000*%
%ADD24C,0.6100*%
%ADD25C,0.0104*%

%LPD*%
D10*
X5461000Y-11481815D02*
G01*
X5258358Y-11279174D01*
X3897198Y-11279174D01*
X6619113Y-8381974D02*
G01*
X6232982Y-8381974D01*
X6170574Y-8444382D01*
X7619974Y-8381974D02*
G01*
X6619113Y-8381974D01*
X8000974Y-8254974D02*
G01*
X8000974Y-8242909D01*
X7842250Y-8084185D01*
X6666026Y-8084185D01*
X6619113Y-8131098D01*
X6619113Y-8381974D01*
X3937000Y-7220407D02*
G01*
X4434687Y-7220407D01*
X1905000Y-10159974D02*
G01*
X1922856Y-10177830D01*
X4681143Y-10177830D01*
X4699000Y-10159974D01*
X8000974Y-10016972D02*
G01*
X7762976Y-10016972D01*
X7619974Y-10159974D01*
X5080000Y-10018979D02*
G01*
X4839995Y-10018979D01*
X4699000Y-10159974D01*
X10275976Y-9802215D02*
G01*
X10297718Y-9802215D01*
X10438942Y-9943439D01*
X10438942Y-10101808D01*
X10133482Y-10407269D01*
X9166682Y-10407269D01*
X8762974Y-10810976D01*
X8137601Y-8752281D02*
G01*
X8150047Y-8739835D01*
X10244632Y-8739835D01*
X10433354Y-8928557D01*
X10433354Y-9294926D01*
X10032974Y-9695306D01*
X10032974Y-10016972D01*
X7800543Y-8184845D02*
G01*
X6721475Y-8184845D01*
X1542770Y-9035745D02*
G01*
X1270000Y-8762974D01*
X3024936Y-8381974D02*
G01*
X2371166Y-9035745D01*
X1542770Y-9035745D01*
X1542770Y-9035745D02*
G01*
X1542770Y-9379204D01*
X1270000Y-9651974D01*
X7134555Y-7088911D02*
G01*
X6984847Y-7238619D01*
X4740909Y-7238619D01*
X4436999Y-7542529D01*
X6985000Y-6857974D02*
G01*
X7134555Y-7007529D01*
X7134555Y-7088911D01*
X7134555Y-7088911D02*
G01*
X8508974Y-7088911D01*
X3175000Y-8381974D02*
G01*
X3024936Y-8381974D01*
X8508974Y-7238974D02*
G01*
X8508974Y-7088911D01*
X6653758Y-8926321D02*
G01*
X7317790Y-8926321D01*
X7452309Y-8791803D01*
X6731000Y-9397974D02*
G01*
X6389725Y-9056700D01*
X4840884Y-9056700D01*
X8762974Y-7238974D02*
G01*
X8762974Y-7270064D01*
X8623985Y-7409053D01*
X5417921Y-7409053D01*
X4445000Y-8381974D01*
X3429000Y-8381974D02*
G01*
X4667961Y-7143013D01*
X5937961Y-7143013D01*
X6223000Y-6857974D01*
X3175000Y-11481815D02*
G01*
X2921000Y-11227815D01*
X2921000Y-10810976D01*
X9524974Y-9016974D02*
G01*
X9524974Y-9297593D01*
X9524974Y-10810976D02*
G01*
X9730663Y-10605287D01*
X10075900Y-10605287D01*
X10541558Y-10139629D01*
X10541558Y-9918522D01*
X10314050Y-9691014D01*
X10179608Y-9691014D01*
X8508974Y-10016972D02*
G01*
X8345246Y-9853244D01*
X7701584Y-9853244D01*
X4507052Y-7069480D02*
G01*
X4523689Y-7052843D01*
X4758131Y-7052843D01*
X4953000Y-6857974D01*
X6902221Y-10066731D02*
G01*
X7345476Y-10066731D01*
X7999349Y-9412859D01*
X8875090Y-9412859D01*
X9270974Y-9016974D01*
X8509000Y-11481815D02*
G01*
X8225663Y-11198479D01*
X7705115Y-11198479D01*
X6604000Y-10018979D02*
G01*
X6705269Y-10018979D01*
X8081467Y-8642781D01*
X8116112Y-8642781D01*
X8254974Y-8503920D01*
X8254974Y-8254974D01*
X7961122Y-7906689D02*
G01*
X7936661Y-7882229D01*
X5872530Y-7882229D01*
X7229856Y-9917887D02*
G01*
X7866786Y-9280956D01*
X8752992Y-9280956D01*
X9016974Y-9016974D01*
X8000974Y-9016974D02*
G01*
X8015274Y-9016974D01*
X8202244Y-8830005D01*
X10100005Y-8830005D01*
X10286974Y-9016974D01*
X6985000Y-9397974D02*
G01*
X7111974Y-9397974D01*
X7619974Y-8889974D01*
X6604000Y-10808970D02*
G01*
X6770293Y-10975263D01*
X10122687Y-10975263D01*
X10286974Y-10810976D01*
X1905000Y-10667974D02*
G01*
X1922398Y-10650575D01*
X3776599Y-10650575D01*
X3937000Y-10810976D01*
X7619974Y-10739475D02*
G01*
X6673494Y-10739475D01*
X6604000Y-10808970D01*
X8000974Y-10810976D02*
G01*
X7691475Y-10810976D01*
X7619974Y-10739475D01*
X7619974Y-10739475D02*
G01*
X7619974Y-10667974D01*
X3937000Y-10810976D02*
G01*
X4555997Y-10810976D01*
X4699000Y-10667974D01*
X5080000Y-10808970D02*
G01*
X4839995Y-10808970D01*
X4699000Y-10667974D01*
X5334000Y-10808970D02*
G01*
X5080000Y-10808970D01*
X6096000Y-10808970D02*
G01*
X5842000Y-10808970D01*
X10032974Y-7873974D02*
G01*
X9871963Y-8034985D01*
X7920532Y-8034985D01*
X7869021Y-7983473D01*
X6462928Y-7983473D01*
X5840222Y-8606180D01*
X4728794Y-8606180D01*
X3937000Y-9397974D01*
X5588000Y-10018979D02*
G01*
X5409768Y-9840747D01*
X3351225Y-9840747D01*
X3175000Y-10016972D01*
X9270974Y-7238974D02*
G01*
X8999600Y-7510348D01*
X5824626Y-7510348D01*
X4953000Y-8381974D01*
X6953529Y-8812555D02*
G01*
X7223963Y-8542121D01*
X8074406Y-8542121D01*
X8254974Y-10810976D02*
G01*
X8254974Y-10797159D01*
X7829168Y-10371353D01*
X7044156Y-9862337D02*
G01*
X7717536Y-9188958D01*
X8336991Y-9188958D01*
X8508974Y-9016974D01*
X8508974Y-7873974D02*
G01*
X8508974Y-7855178D01*
X8372500Y-7718704D01*
X6009893Y-7718704D01*
X5961938Y-7766659D01*
X1905000Y-9650984D02*
G01*
X1524990Y-9650984D01*
X1270000Y-9905974D01*
X3175000Y-10810976D02*
G01*
X3514547Y-11150523D01*
X6907707Y-11150523D01*
X7239000Y-11481815D01*
X3937000Y-6857974D02*
G01*
X3174009Y-7620965D01*
X1905000Y-7620965D01*
X4191000Y-6857974D02*
G01*
X4157090Y-6857974D01*
X2124100Y-8890965D01*
X1905000Y-8890965D01*
X10286974Y-10016972D02*
G01*
X10033254Y-10270693D01*
X7787487Y-10270693D01*
X7741081Y-10317099D01*
X6140119Y-10317099D01*
X5842000Y-10018979D01*
X9524974Y-7238974D02*
G01*
X9163456Y-7600492D01*
X5985763Y-7600492D01*
X5207000Y-8379256D01*
X5207000Y-8381974D01*
D11*
G01*
X889000Y-11481815D03*
D12*
G01*
X1143000Y-11481815D03*
G01*
X1397000Y-11481815D03*
G01*
X1651000Y-11481815D03*
G01*
X1905000Y-11481815D03*
G01*
X2159000Y-11481815D03*
G01*
X2413000Y-11481815D03*
G01*
X2667000Y-11481815D03*
G01*
X2921000Y-11481815D03*
G01*
X3175000Y-11481815D03*
G01*
X3429000Y-11481815D03*
G01*
X3683000Y-11481815D03*
G01*
X3937000Y-11481815D03*
G01*
X4191000Y-11481815D03*
G01*
X4445000Y-11481815D03*
G01*
X4699000Y-11481815D03*
G01*
X4953000Y-11481815D03*
G01*
X5207000Y-11481815D03*
G01*
X5461000Y-11481815D03*
G01*
X5715000Y-11481815D03*
G01*
X5969000Y-11481815D03*
G01*
X6223000Y-11481815D03*
G01*
X6477000Y-11481815D03*
G01*
X6731000Y-11481815D03*
G01*
X6985000Y-11481815D03*
G01*
X7239000Y-11481815D03*
G01*
X7493000Y-11481815D03*
G01*
X7747000Y-11481815D03*
G01*
X8001000Y-11481815D03*
G01*
X8255000Y-11481815D03*
G01*
X8509000Y-11481815D03*
G01*
X8763000Y-11481815D03*
G01*
X9017000Y-11481815D03*
G01*
X9271000Y-11481815D03*
G01*
X9525000Y-11481815D03*
G01*
X9779000Y-11481815D03*
G01*
X10033000Y-11481815D03*
G01*
X10287000Y-11481815D03*
G01*
X10541000Y-11481815D03*
D13*
G01*
X1905000Y-10667974D03*
G01*
X1905000Y-10159974D03*
G01*
X4699000Y-10667974D03*
G01*
X4699000Y-10159974D03*
G01*
X7619974Y-8889974D03*
G01*
X7619974Y-8381974D03*
G01*
X7619974Y-10667974D03*
G01*
X7619974Y-10159974D03*
D14*
G01*
X1270000Y-8762974D03*
G01*
X1270000Y-9016974D03*
G01*
X1270000Y-9651974D03*
G01*
X1270000Y-9905974D03*
D13*
G01*
X9778974Y-7238974D03*
G01*
X9524974Y-7238974D03*
G01*
X9270974Y-7238974D03*
G01*
X9016974Y-7238974D03*
G01*
X8762974Y-7238974D03*
D15*
G01*
X8508974Y-7238974D03*
D16*
G01*
X1905000Y-8380984D03*
G01*
X1905000Y-7620965D03*
G01*
X1905000Y-9650984D03*
G01*
X1905000Y-8890965D03*
D17*
G01*
X3175000Y-8381974D03*
D13*
G01*
X3429000Y-8381974D03*
G01*
X3683000Y-8381974D03*
G01*
X3937000Y-8381974D03*
G01*
X4191000Y-8381974D03*
G01*
X4445000Y-8381974D03*
G01*
X4699000Y-8381974D03*
G01*
X4953000Y-8381974D03*
G01*
X5207000Y-8381974D03*
D17*
G01*
X8254974Y-7873974D03*
D13*
G01*
X8508974Y-7873974D03*
G01*
X8762974Y-7873974D03*
G01*
X9016974Y-7873974D03*
G01*
X9270974Y-7873974D03*
G01*
X9524974Y-7873974D03*
G01*
X9778974Y-7873974D03*
G01*
X10032974Y-7873974D03*
G01*
X10286974Y-7873974D03*
D14*
G01*
X6985000Y-6858000D03*
G01*
X6731000Y-6858000D03*
G01*
X6477000Y-6858000D03*
G01*
X6223000Y-6858000D03*
G01*
X5969000Y-6858000D03*
G01*
X5715000Y-6858000D03*
G01*
X5461000Y-6858000D03*
G01*
X5207000Y-6858000D03*
G01*
X4953000Y-6858000D03*
G01*
X4699000Y-6858000D03*
G01*
X4445000Y-6858000D03*
G01*
X4191000Y-6858000D03*
G01*
X3937000Y-6858000D03*
G01*
X3683000Y-6858000D03*
G01*
X3429000Y-6858000D03*
G01*
X3175000Y-6858000D03*
G01*
X2921000Y-6858000D03*
G01*
X2667000Y-6858000D03*
G01*
X2667000Y-9398000D03*
G01*
X2921000Y-9398000D03*
G01*
X3175000Y-9398000D03*
G01*
X3429000Y-9398000D03*
G01*
X3683000Y-9398000D03*
G01*
X3937000Y-9398000D03*
G01*
X4191000Y-9398000D03*
G01*
X4445000Y-9398000D03*
G01*
X4699000Y-9398000D03*
G01*
X4953000Y-9398000D03*
G01*
X5207000Y-9398000D03*
G01*
X5461000Y-9398000D03*
G01*
X5715000Y-9398000D03*
G01*
X5969000Y-9398000D03*
G01*
X6223000Y-9398000D03*
G01*
X6477000Y-9398000D03*
G01*
X6731000Y-9398000D03*
G01*
X6985000Y-9398000D03*
G01*
X2413000Y-9398000D03*
G01*
X2413000Y-6858000D03*
D18*
G01*
X10032974Y-9016974D03*
G01*
X9778974Y-9016974D03*
G01*
X9524974Y-9016974D03*
G01*
X9270974Y-9016974D03*
G01*
X9016974Y-9016974D03*
G01*
X8762974Y-9016974D03*
G01*
X8508974Y-9016974D03*
G01*
X8254974Y-9016974D03*
D19*
G01*
X8000974Y-9016974D03*
D20*
G01*
X10286974Y-9016974D03*
G01*
X10286974Y-8254974D03*
G01*
X10032974Y-8254974D03*
G01*
X9778974Y-8254974D03*
G01*
X9524974Y-8254974D03*
G01*
X9270974Y-8254974D03*
G01*
X9016974Y-8254974D03*
G01*
X8762974Y-8254974D03*
G01*
X8508974Y-8254974D03*
G01*
X8254974Y-8254974D03*
G01*
X8000974Y-8254974D03*
D21*
G01*
X8000974Y-10810976D03*
G01*
X8000974Y-10016972D03*
G01*
X8254974Y-10810976D03*
G01*
X8254974Y-10016972D03*
G01*
X8508974Y-10810976D03*
G01*
X8508974Y-10016972D03*
G01*
X8762974Y-10810976D03*
G01*
X8762974Y-10016972D03*
G01*
X9016974Y-10810976D03*
G01*
X9016974Y-10016972D03*
G01*
X9270974Y-10810976D03*
G01*
X9270974Y-10016972D03*
G01*
X9524974Y-10810976D03*
G01*
X9524974Y-10016972D03*
G01*
X9778974Y-10810976D03*
G01*
X9778974Y-10016972D03*
G01*
X10032974Y-10810976D03*
G01*
X10032974Y-10016972D03*
G01*
X10286974Y-10810976D03*
G01*
X10286974Y-10016972D03*
D22*
G01*
X2159000Y-10810976D03*
D23*
G01*
X2413000Y-10810976D03*
G01*
X3683000Y-10810976D03*
G01*
X3937000Y-10810976D03*
G01*
X2667000Y-10810976D03*
G01*
X2921000Y-10810976D03*
G01*
X3429000Y-10810976D03*
G01*
X3175000Y-10810976D03*
G01*
X3937000Y-10016972D03*
G01*
X3683000Y-10016972D03*
G01*
X3429000Y-10016972D03*
G01*
X3175000Y-10016972D03*
G01*
X2921000Y-10016972D03*
G01*
X2667000Y-10016972D03*
G01*
X2413000Y-10016972D03*
G01*
X2159000Y-10016972D03*
D19*
G01*
X5080000Y-10808970D03*
D18*
G01*
X5334000Y-10808970D03*
G01*
X5588000Y-10808970D03*
G01*
X5842000Y-10808970D03*
G01*
X6096000Y-10808970D03*
G01*
X6350000Y-10808970D03*
G01*
X6604000Y-10808970D03*
G01*
X5080000Y-10018979D03*
G01*
X5334000Y-10018979D03*
G01*
X5588000Y-10018979D03*
G01*
X5842000Y-10018979D03*
G01*
X6096000Y-10018979D03*
G01*
X6350000Y-10018979D03*
G01*
X6604000Y-10018979D03*
D24*
G01*
X3897198Y-11279174D03*
G01*
X6170574Y-8444382D03*
G01*
X4434687Y-7220407D03*
G01*
X3937000Y-7220407D03*
G01*
X10275976Y-9802215D03*
G01*
X6721475Y-8184845D03*
G01*
X7800543Y-8184845D03*
G01*
X8137601Y-8752281D03*
G01*
X4436999Y-7542529D03*
G01*
X7452309Y-8791803D03*
G01*
X6653758Y-8926321D03*
G01*
X4840884Y-9056700D03*
G01*
X9524974Y-9297593D03*
G01*
X10179608Y-9691014D03*
G01*
X4507052Y-7069480D03*
G01*
X7701584Y-9853244D03*
G01*
X6902221Y-10066731D03*
G01*
X7705115Y-11198479D03*
G01*
X5872530Y-7882229D03*
G01*
X7961122Y-7906689D03*
G01*
X7229856Y-9917887D03*
G01*
X8074406Y-8542121D03*
G01*
X6953529Y-8812555D03*
G01*
X7829168Y-10371353D03*
G01*
X7044156Y-9862337D03*
G01*
X5961938Y-7766659D03*
M02*
