G04 Layer: TopSolderMaskLayer*
G04 EasyEDA v6.5.42, 2024-04-02 15:41:54*
G04 2b23fd05ff384805b3ab63b0522f50a2,2162b387b2864a4d85882ef8f1f27c6b,10*
G04 Gerber Generator version 0.2*
G04 Scale: 100 percent, Rotated: No, Reflected: No *
G04 Dimensions in millimeters *
G04 leading zeros omitted , absolute positions ,4 integer and 5 decimal *
%FSLAX45Y45*%
%MOMM*%

%AMMACRO1*1,1,$1,$2,$3*1,1,$1,$4,$5*1,1,$1,0-$2,0-$3*1,1,$1,0-$4,0-$5*20,1,$1,$2,$3,$4,$5,0*20,1,$1,$4,$5,0-$2,0-$3,0*20,1,$1,0-$2,0-$3,0-$4,0-$5,0*20,1,$1,0-$4,0-$5,$2,$3,0*4,1,4,$2,$3,$4,$5,0-$2,0-$3,0-$4,0-$5,$2,$3,0*%
%ADD10R,1.9812X1.9812*%
%ADD11C,1.9812*%
%ADD12C,1.7016*%
%ADD13C,1.6240*%
%ADD14MACRO1,0.1016X-0.9X0.8X0.9X0.8*%
%ADD15C,1.4000*%
%ADD16MACRO1,0.1016X-0.8X0.8X0.8X0.8*%
%ADD17C,1.6256*%
%ADD18O,1.6015970000000002X2.1015960000000002*%
%ADD19R,1.6016X2.1016*%
%ADD20O,1.6256000000000002X2.1015960000000002*%
%ADD21O,1.5635986X1.9291046*%
%ADD22R,1.8016X1.8016*%
%ADD23C,1.8016*%

%LPD*%
D10*
G01*
X889000Y-11481815D03*
D11*
G01*
X1143000Y-11481815D03*
G01*
X1397000Y-11481815D03*
G01*
X1651000Y-11481815D03*
G01*
X1905000Y-11481815D03*
G01*
X2159000Y-11481815D03*
G01*
X2413000Y-11481815D03*
G01*
X2667000Y-11481815D03*
G01*
X2921000Y-11481815D03*
G01*
X3175000Y-11481815D03*
G01*
X3429000Y-11481815D03*
G01*
X3683000Y-11481815D03*
G01*
X3937000Y-11481815D03*
G01*
X4191000Y-11481815D03*
G01*
X4445000Y-11481815D03*
G01*
X4699000Y-11481815D03*
G01*
X4953000Y-11481815D03*
G01*
X5207000Y-11481815D03*
G01*
X5461000Y-11481815D03*
G01*
X5715000Y-11481815D03*
G01*
X5969000Y-11481815D03*
G01*
X6223000Y-11481815D03*
G01*
X6477000Y-11481815D03*
G01*
X6731000Y-11481815D03*
G01*
X6985000Y-11481815D03*
G01*
X7239000Y-11481815D03*
G01*
X7493000Y-11481815D03*
G01*
X7747000Y-11481815D03*
G01*
X8001000Y-11481815D03*
G01*
X8255000Y-11481815D03*
G01*
X8509000Y-11481815D03*
G01*
X8763000Y-11481815D03*
G01*
X9017000Y-11481815D03*
G01*
X9271000Y-11481815D03*
G01*
X9525000Y-11481815D03*
G01*
X9779000Y-11481815D03*
G01*
X10033000Y-11481815D03*
G01*
X10287000Y-11481815D03*
G01*
X10541000Y-11481815D03*
D12*
G01*
X1905000Y-10667974D03*
G01*
X1905000Y-10159974D03*
G01*
X4699000Y-10667974D03*
G01*
X4699000Y-10159974D03*
G01*
X7619974Y-8889974D03*
G01*
X7619974Y-8381974D03*
G01*
X7619974Y-10667974D03*
G01*
X7619974Y-10159974D03*
D13*
G01*
X1270000Y-8762974D03*
G01*
X1270000Y-9016974D03*
G01*
X1270000Y-9651974D03*
G01*
X1270000Y-9905974D03*
D12*
G01*
X9778974Y-7238974D03*
G01*
X9524974Y-7238974D03*
G01*
X9270974Y-7238974D03*
G01*
X9016974Y-7238974D03*
G01*
X8762974Y-7238974D03*
D14*
G01*
X8508982Y-7238984D03*
D15*
G01*
X1905000Y-8380984D03*
G01*
X1905000Y-7620965D03*
G01*
X1905000Y-9650984D03*
G01*
X1905000Y-8890965D03*
D16*
G01*
X3174992Y-8381982D03*
D12*
G01*
X3429000Y-8381974D03*
G01*
X3683000Y-8381974D03*
G01*
X3937000Y-8381974D03*
G01*
X4191000Y-8381974D03*
G01*
X4445000Y-8381974D03*
G01*
X4699000Y-8381974D03*
G01*
X4953000Y-8381974D03*
G01*
X5207000Y-8381974D03*
D16*
G01*
X8254982Y-7873984D03*
D12*
G01*
X8508974Y-7873974D03*
G01*
X8762974Y-7873974D03*
G01*
X9016974Y-7873974D03*
G01*
X9270974Y-7873974D03*
G01*
X9524974Y-7873974D03*
G01*
X9778974Y-7873974D03*
G01*
X10032974Y-7873974D03*
G01*
X10286974Y-7873974D03*
D17*
G01*
X6985000Y-6858000D03*
G01*
X6731000Y-6858000D03*
G01*
X6477000Y-6858000D03*
G01*
X6223000Y-6858000D03*
G01*
X5969000Y-6858000D03*
G01*
X5715000Y-6858000D03*
G01*
X5461000Y-6858000D03*
G01*
X5207000Y-6858000D03*
G01*
X4953000Y-6858000D03*
G01*
X4699000Y-6858000D03*
G01*
X4445000Y-6858000D03*
G01*
X4191000Y-6858000D03*
G01*
X3937000Y-6858000D03*
G01*
X3683000Y-6858000D03*
G01*
X3429000Y-6858000D03*
G01*
X3175000Y-6858000D03*
G01*
X2921000Y-6858000D03*
G01*
X2667000Y-6858000D03*
G01*
X2667000Y-9398000D03*
G01*
X2921000Y-9398000D03*
G01*
X3175000Y-9398000D03*
G01*
X3429000Y-9398000D03*
G01*
X3683000Y-9398000D03*
G01*
X3937000Y-9398000D03*
G01*
X4191000Y-9398000D03*
G01*
X4445000Y-9398000D03*
G01*
X4699000Y-9398000D03*
G01*
X4953000Y-9398000D03*
G01*
X5207000Y-9398000D03*
G01*
X5461000Y-9398000D03*
G01*
X5715000Y-9398000D03*
G01*
X5969000Y-9398000D03*
G01*
X6223000Y-9398000D03*
G01*
X6477000Y-9398000D03*
G01*
X6731000Y-9398000D03*
G01*
X6985000Y-9398000D03*
G01*
X2413000Y-9398000D03*
G01*
X2413000Y-6858000D03*
D18*
G01*
X10032974Y-9016974D03*
G01*
X9778974Y-9016974D03*
G01*
X9524974Y-9016974D03*
G01*
X9270974Y-9016974D03*
G01*
X9016974Y-9016974D03*
G01*
X8762974Y-9016974D03*
G01*
X8508974Y-9016974D03*
G01*
X8254974Y-9016974D03*
D19*
G01*
X8000974Y-9016974D03*
D20*
G01*
X10286974Y-9016974D03*
G01*
X10286974Y-8254974D03*
G01*
X10032974Y-8254974D03*
G01*
X9778974Y-8254974D03*
G01*
X9524974Y-8254974D03*
G01*
X9270974Y-8254974D03*
G01*
X9016974Y-8254974D03*
G01*
X8762974Y-8254974D03*
G01*
X8508974Y-8254974D03*
G01*
X8254974Y-8254974D03*
G01*
X8000974Y-8254974D03*
D21*
G01*
X8000974Y-10810976D03*
G01*
X8000974Y-10016972D03*
G01*
X8254974Y-10810976D03*
G01*
X8254974Y-10016972D03*
G01*
X8508974Y-10810976D03*
G01*
X8508974Y-10016972D03*
G01*
X8762974Y-10810976D03*
G01*
X8762974Y-10016972D03*
G01*
X9016974Y-10810976D03*
G01*
X9016974Y-10016972D03*
G01*
X9270974Y-10810976D03*
G01*
X9270974Y-10016972D03*
G01*
X9524974Y-10810976D03*
G01*
X9524974Y-10016972D03*
G01*
X9778974Y-10810976D03*
G01*
X9778974Y-10016972D03*
G01*
X10032974Y-10810976D03*
G01*
X10032974Y-10016972D03*
G01*
X10286974Y-10810976D03*
G01*
X10286974Y-10016972D03*
D22*
G01*
X2159000Y-10810976D03*
D23*
G01*
X2413000Y-10810976D03*
G01*
X3683000Y-10810976D03*
G01*
X3937000Y-10810976D03*
G01*
X2667000Y-10810976D03*
G01*
X2921000Y-10810976D03*
G01*
X3429000Y-10810976D03*
G01*
X3175000Y-10810976D03*
G01*
X3937000Y-10016972D03*
G01*
X3683000Y-10016972D03*
G01*
X3429000Y-10016972D03*
G01*
X3175000Y-10016972D03*
G01*
X2921000Y-10016972D03*
G01*
X2667000Y-10016972D03*
G01*
X2413000Y-10016972D03*
G01*
X2159000Y-10016972D03*
D19*
G01*
X5080000Y-10808970D03*
D18*
G01*
X5334000Y-10808970D03*
G01*
X5588000Y-10808970D03*
G01*
X5842000Y-10808970D03*
G01*
X6096000Y-10808970D03*
G01*
X6350000Y-10808970D03*
G01*
X6604000Y-10808970D03*
G01*
X5080000Y-10018979D03*
G01*
X5334000Y-10018979D03*
G01*
X5588000Y-10018979D03*
G01*
X5842000Y-10018979D03*
G01*
X6096000Y-10018979D03*
G01*
X6350000Y-10018979D03*
G01*
X6604000Y-10018979D03*
M02*
