G04 DipTrace 3.3.1.3*
G04 BottomMask.gbr*
%MOIN*%
G04 #@! TF.FileFunction,Soldermask,Bot*
G04 #@! TF.Part,Single*
%AMOUTLINE0*
4,1,14,
-0.01642,-0.014815,
-0.011571,-0.022199,
-0.00397,-0.027295,
0.005709,-0.029016,
0.019547,-0.029022,
0.019547,0.029022,
0.005512,0.029016,
-0.002975,0.027685,
-0.010255,0.024241,
-0.016113,0.017575,
-0.018537,0.011514,
-0.019547,0.003232,
-0.019547,-0.003232,
-0.018537,-0.009293,
-0.01642,-0.014815,
0*%
%AMOUTLINE1*
4,1,14,
0.01642,0.014815,
0.011571,0.022199,
0.00397,0.027295,
-0.005709,0.029016,
-0.019547,0.029022,
-0.019547,-0.029022,
-0.005512,-0.029016,
0.002975,-0.027685,
0.010255,-0.024241,
0.016113,-0.017575,
0.018537,-0.011514,
0.019547,-0.003232,
0.019547,0.003232,
0.018537,0.009293,
0.01642,0.014815,
0*%
%ADD22C,0.125984*%
%ADD25R,0.074803X0.074803*%
%ADD27C,0.074803*%
%ADD29C,0.07874*%
%ADD33OUTLINE0*%
%ADD34OUTLINE1*%
%FSLAX26Y26*%
G04*
G70*
G90*
G75*
G01*
G04 BotMask*
%LPD*%
D29*
X1784467Y976762D3*
X1729940Y1088573D3*
X1675412Y976762D3*
X1620885Y1088573D3*
X1566357Y976762D3*
X1511830Y1088573D3*
X1457302Y976762D3*
X1402774Y1088573D3*
X1348247Y976762D3*
X1293719Y1088573D3*
X1239192Y976762D3*
X1184664Y1088573D3*
X1130137Y976762D3*
X1075609Y1088573D3*
X1021082Y976762D3*
X966554Y1088573D3*
X912026Y976762D3*
X857499Y1088573D3*
X802971Y976762D3*
D22*
X2049625Y1032668D3*
X537814D3*
D27*
X1743719Y643701D3*
Y543701D3*
X1643719Y643701D3*
Y543701D3*
X1543719Y643701D3*
Y543701D3*
X1443719Y643701D3*
Y543701D3*
X1343719Y643701D3*
Y543701D3*
X1243719Y643701D3*
Y543701D3*
X1143719Y643701D3*
Y543701D3*
X1043719Y643701D3*
Y543701D3*
X943719Y643701D3*
Y543701D3*
D25*
X843719Y643701D3*
D27*
Y543701D3*
D33*
X1231288Y725039D3*
D34*
X1288608D3*
X1715007Y725034D3*
D33*
X1657687D3*
D34*
X1552411Y725039D3*
D33*
X1495091D3*
M02*
