G04 DipTrace 3.3.1.3*
G04 Bottom.gbr*
%MOIN*%
G04 #@! TF.FileFunction,Copper,L2,Bot*
G04 #@! TF.Part,Single*
%AMOUTLINE0*
4,1,14,
-0.01642,-0.014815,
-0.011571,-0.022199,
-0.00397,-0.027295,
0.005709,-0.029016,
0.019547,-0.029022,
0.019547,0.029022,
0.005512,0.029016,
-0.002975,0.027685,
-0.010255,0.024241,
-0.016113,0.017575,
-0.018537,0.011514,
-0.019547,0.003232,
-0.019547,-0.003232,
-0.018537,-0.009293,
-0.01642,-0.014815,
0*%
%AMOUTLINE1*
4,1,14,
0.01642,0.014815,
0.011571,0.022199,
0.00397,0.027295,
-0.005709,0.029016,
-0.019547,0.029022,
-0.019547,-0.029022,
-0.005512,-0.029016,
0.002975,-0.027685,
0.010255,-0.024241,
0.016113,-0.017575,
0.018537,-0.011514,
0.019547,-0.003232,
0.019547,0.003232,
0.018537,0.009293,
0.01642,0.014815,
0*%
G04 #@! TA.AperFunction,Conductor*
%ADD13C,0.023622*%
%ADD14C,0.015748*%
%ADD15C,0.007874*%
G04 #@! TA.AperFunction,ComponentPad*
%ADD16C,0.070866*%
%ADD17C,0.066929*%
%ADD18R,0.066929X0.066929*%
%ADD33OUTLINE0*%
%ADD34OUTLINE1*%
%FSLAX26Y26*%
G04*
G70*
G90*
G75*
G01*
G04 Bottom*
%LPD*%
X1343719Y643701D2*
D13*
Y972235D1*
X1348247Y976762D1*
X1566357D2*
Y738986D1*
X1552411Y725039D1*
X1457302Y976762D2*
X1566357D1*
X1231288Y725039D2*
Y968858D1*
X1239192Y976762D1*
X1715007Y725034D2*
D14*
Y793235D1*
X1675412Y832829D1*
Y976762D1*
X1643719Y643701D2*
X1657687D1*
Y725034D1*
D15*
X1715007D1*
X1130137Y976762D2*
D13*
X1133240D1*
Y654180D1*
X1143719Y643701D1*
X802971Y976762D2*
Y684449D1*
X843719Y643701D1*
X912026Y976762D2*
Y675394D1*
X943719Y643701D1*
X1021082Y976762D2*
X1028449D1*
Y658971D1*
X1043719Y643701D1*
X1543719D2*
X1443719D1*
X1543719D2*
D14*
Y636802D1*
X1585877Y594644D1*
X1694663D1*
X1743719Y643701D1*
X1495091Y725039D2*
D13*
X1468147D1*
X1443719Y700612D1*
Y643701D1*
X1243719D2*
X1253272D1*
X1288608Y679037D1*
Y725039D1*
D16*
X1784467Y976762D3*
X1729940Y1088573D3*
X1675412Y976762D3*
X1620885Y1088573D3*
X1566357Y976762D3*
X1511830Y1088573D3*
X1457302Y976762D3*
X1402774Y1088573D3*
X1348247Y976762D3*
X1293719Y1088573D3*
X1239192Y976762D3*
X1184664Y1088573D3*
X1130137Y976762D3*
X1075609Y1088573D3*
X1021082Y976762D3*
X966554Y1088573D3*
X912026Y976762D3*
X857499Y1088573D3*
X802971Y976762D3*
D17*
X1743719Y643701D3*
Y543701D3*
X1643719Y643701D3*
Y543701D3*
X1543719Y643701D3*
Y543701D3*
X1443719Y643701D3*
Y543701D3*
X1343719Y643701D3*
Y543701D3*
X1243719Y643701D3*
Y543701D3*
X1143719Y643701D3*
Y543701D3*
X1043719Y643701D3*
Y543701D3*
X943719Y643701D3*
Y543701D3*
D18*
X843719Y643701D3*
D17*
Y543701D3*
D33*
X1231288Y725039D3*
D34*
X1288608D3*
X1715007Y725034D3*
D33*
X1657687D3*
D34*
X1552411Y725039D3*
D33*
X1495091D3*
M02*
