G04 DipTrace 3.3.1.3*
G04 TopMask.gbr*
%MOIN*%
G04 #@! TF.FileFunction,Soldermask,Top*
G04 #@! TF.Part,Single*
%ADD22C,0.125984*%
%ADD25R,0.074803X0.074803*%
%ADD27C,0.074803*%
%ADD29C,0.07874*%
%FSLAX26Y26*%
G04*
G70*
G90*
G75*
G01*
G04 TopMask*
%LPD*%
D29*
X1784467Y976762D3*
X1729940Y1088573D3*
X1675412Y976762D3*
X1620885Y1088573D3*
X1566357Y976762D3*
X1511830Y1088573D3*
X1457302Y976762D3*
X1402774Y1088573D3*
X1348247Y976762D3*
X1293719Y1088573D3*
X1239192Y976762D3*
X1184664Y1088573D3*
X1130137Y976762D3*
X1075609Y1088573D3*
X1021082Y976762D3*
X966554Y1088573D3*
X912026Y976762D3*
X857499Y1088573D3*
X802971Y976762D3*
D22*
X2049625Y1032668D3*
X537814D3*
D27*
X1743719Y643701D3*
Y543701D3*
X1643719Y643701D3*
Y543701D3*
X1543719Y643701D3*
Y543701D3*
X1443719Y643701D3*
Y543701D3*
X1343719Y643701D3*
Y543701D3*
X1243719Y643701D3*
Y543701D3*
X1143719Y643701D3*
Y543701D3*
X1043719Y643701D3*
Y543701D3*
X943719Y643701D3*
Y543701D3*
D25*
X843719Y643701D3*
D27*
Y543701D3*
M02*
