G04 DipTrace 3.3.1.3*
G04 TopSilk.gbr*
%MOIN*%
G04 #@! TF.FileFunction,Legend,Top*
G04 #@! TF.Part,Single*
%ADD10C,0.009843*%
%ADD32C,0.006176*%
%FSLAX26Y26*%
G04*
G70*
G90*
G75*
G01*
G04 TopSilk*
%LPD*%
X1884270Y475591D2*
D10*
X703168D1*
Y711801D1*
X1884270D1*
Y475591D1*
G36*
X1372499Y712450D2*
X1214940D1*
Y758071D1*
X1372499D1*
Y712450D1*
G37*
X2137095Y801718D2*
D32*
Y841910D1*
X2123697D1*
X2117949Y839964D1*
X2114103Y836162D1*
X2112201Y832315D1*
X2110300Y826611D1*
Y817017D1*
X2112201Y811269D1*
X2114102Y807466D1*
X2117949Y803619D1*
X2123697Y801718D1*
X2137095D1*
X2097949D2*
Y841910D1*
X2080705D1*
X2074957Y839964D1*
X2073055Y838063D1*
X2071154Y834261D1*
Y828513D1*
X2073055Y824666D1*
X2074956Y822765D1*
X2080705Y820863D1*
X2074956Y818918D1*
X2073055Y817017D1*
X2071154Y813214D1*
Y809367D1*
X2073055Y805565D1*
X2074956Y803619D1*
X2080704Y801718D1*
X2097949D1*
Y820863D2*
X2080705D1*
X2058803Y821836D2*
X2036695D1*
X2024343Y809411D2*
X2020497Y807466D1*
X2014749Y801762D1*
Y841910D1*
X1977504Y815115D2*
X1979449Y820863D1*
X1983252Y824710D1*
X1989000Y826611D1*
X1990901D1*
X1996649Y824710D1*
X2000452Y820863D1*
X2002397Y815115D1*
Y813214D1*
X2000452Y807466D1*
X1996649Y803663D1*
X1990901Y801762D1*
X1989000D1*
X1983252Y803663D1*
X1979449Y807466D1*
X1977504Y815115D1*
Y824710D1*
X1979449Y834261D1*
X1983252Y840009D1*
X1989000Y841910D1*
X1992802D1*
X1998550Y840009D1*
X2000452Y836162D1*
X1934555Y841910D2*
Y801718D1*
X1949854Y841910D1*
X1965152Y801718D1*
Y841910D1*
X2096963Y871816D2*
Y912008D1*
X2084612Y871816D2*
Y912008D1*
X2071215D1*
X2065467Y910063D1*
X2061620Y906260D1*
X2059719Y902414D1*
X2057817Y896710D1*
Y887115D1*
X2059719Y881367D1*
X2061620Y877564D1*
X2065467Y873718D1*
X2071215Y871816D1*
X2084612D1*
X2016770Y881367D2*
X2018671Y877564D1*
X2022518Y873718D1*
X2026321Y871816D1*
X2033970D1*
X2037817Y873718D1*
X2041619Y877564D1*
X2043565Y881367D1*
X2045466Y887115D1*
Y896710D1*
X2043565Y902414D1*
X2041619Y906260D1*
X2037817Y910063D1*
X2033970Y912008D1*
X2026321D1*
X2022518Y910063D1*
X2018671Y906260D1*
X2016770Y902414D1*
X2002473Y881411D2*
Y879510D1*
X2000572Y875663D1*
X1998671Y873762D1*
X1994824Y871861D1*
X1987175D1*
X1983372Y873762D1*
X1981471Y875663D1*
X1979525Y879510D1*
Y883312D1*
X1981471Y887159D1*
X1985273Y892863D1*
X2004419Y912008D1*
X1977624D1*
X1953777Y871861D2*
X1959525Y873762D1*
X1963371Y879510D1*
X1965273Y889060D1*
Y894808D1*
X1963371Y904359D1*
X1959525Y910107D1*
X1953777Y912008D1*
X1949974D1*
X1944226Y910107D1*
X1940423Y904359D1*
X1938478Y894808D1*
Y889060D1*
X1940423Y879510D1*
X1944226Y873762D1*
X1949974Y871861D1*
X1953777D1*
X1940423Y879510D2*
X1963371Y904359D1*
X1901233Y871816D2*
X1926127D1*
Y912008D1*
Y890962D2*
X1910828D1*
X1901333Y797419D2*
Y829961D1*
X1899432Y835665D1*
X1895585Y837611D1*
X1891783D1*
X1907081Y810816D2*
X1893684D1*
X1869881D2*
X1873683Y812717D1*
X1877530Y816564D1*
X1879432Y822312D1*
Y826115D1*
X1877530Y831863D1*
X1873684Y835665D1*
X1869881Y837611D1*
X1864133D1*
X1860286Y835665D1*
X1856484Y831863D1*
X1854538Y826115D1*
Y822312D1*
X1856484Y816564D1*
X1860286Y812717D1*
X1864133Y810816D1*
X1869881D1*
X1954526Y637369D2*
X1950679Y635423D1*
X1944931Y629719D1*
Y669867D1*
X1907686Y643072D2*
X1909632Y648820D1*
X1913434Y652667D1*
X1919182Y654568D1*
X1921084D1*
X1926832Y652667D1*
X1930634Y648820D1*
X1932580Y643072D1*
Y641171D1*
X1930634Y635423D1*
X1926832Y631621D1*
X1921084Y629719D1*
X1919182D1*
X1913434Y631621D1*
X1909632Y635423D1*
X1907686Y643072D1*
Y652667D1*
X1909632Y662218D1*
X1913434Y667966D1*
X1919182Y669867D1*
X1922985D1*
X1928733Y667966D1*
X1930634Y664119D1*
X676045Y528295D2*
Y526394D1*
X674143Y522547D1*
X672242Y520645D1*
X668395Y518744D1*
X660746D1*
X656943Y520646D1*
X655042Y522547D1*
X653097Y526394D1*
Y530196D1*
X655042Y534043D1*
X658845Y539747D1*
X677990Y558892D1*
X651195D1*
X1468528Y833574D2*
Y831672D1*
X1466627Y827826D1*
X1464726Y825924D1*
X1460879Y824023D1*
X1453230D1*
X1449427Y825924D1*
X1447526Y827826D1*
X1445581Y831672D1*
Y835475D1*
X1447526Y839322D1*
X1451329Y845025D1*
X1470474Y864171D1*
X1443679D1*
X1419832Y824023D2*
X1425580Y825924D1*
X1429427Y831672D1*
X1431328Y841223D1*
Y846971D1*
X1429427Y856521D1*
X1425580Y862270D1*
X1419832Y864171D1*
X1416029D1*
X1410281Y862270D1*
X1406479Y856521D1*
X1404533Y846971D1*
Y841223D1*
X1406479Y831672D1*
X1410281Y825924D1*
X1416029Y824023D1*
X1419832D1*
X1406479Y831672D2*
X1429427Y856521D1*
X1390236Y833574D2*
Y831672D1*
X1388335Y827826D1*
X1386434Y825924D1*
X1382587Y824023D1*
X1374938D1*
X1371135Y825924D1*
X1369234Y827826D1*
X1367289Y831672D1*
Y835475D1*
X1369234Y839322D1*
X1373037Y845025D1*
X1392182Y864171D1*
X1365387D1*
X1349189Y824023D2*
X1328187D1*
X1339639Y839322D1*
X1333891D1*
X1330088Y841223D1*
X1328187Y843124D1*
X1326241Y848872D1*
Y852675D1*
X1328187Y858423D1*
X1331989Y862269D1*
X1337737Y864171D1*
X1343485D1*
X1349189Y862269D1*
X1351090Y860324D1*
X1353036Y856521D1*
X1313890Y844097D2*
X1291782D1*
X1279431Y831672D2*
X1275584Y829727D1*
X1269836Y824023D1*
Y864171D1*
X1255539Y833574D2*
Y831672D1*
X1253638Y827826D1*
X1251736Y825924D1*
X1247890Y824023D1*
X1240240D1*
X1236438Y825924D1*
X1234537Y827826D1*
X1232591Y831672D1*
Y835475D1*
X1234537Y839322D1*
X1238339Y845025D1*
X1257484Y864171D1*
X1230690D1*
X1218338Y844097D2*
X1196231D1*
X1172383Y824023D2*
X1178131Y825924D1*
X1181978Y831672D1*
X1183879Y841223D1*
Y846971D1*
X1181978Y856521D1*
X1178131Y862269D1*
X1172383Y864171D1*
X1168581D1*
X1162833Y862269D1*
X1159030Y856521D1*
X1157084Y846971D1*
Y841223D1*
X1159030Y831672D1*
X1162833Y825924D1*
X1168581Y824023D1*
X1172383D1*
X1159030Y831672D2*
X1181978Y856521D1*
X1125588Y864171D2*
Y824023D1*
X1144733Y850773D1*
X1116037D1*
X671148Y632899D2*
X667302Y630953D1*
X661554Y625249D1*
Y665397D1*
X1973003Y527832D2*
Y525931D1*
X1971102Y522084D1*
X1969201Y520183D1*
X1965354Y518282D1*
X1957705D1*
X1953902Y520183D1*
X1952001Y522084D1*
X1950056Y525931D1*
Y529734D1*
X1952001Y533580D1*
X1955804Y539284D1*
X1974949Y558430D1*
X1948154D1*
X1924307Y518282D2*
X1930055Y520183D1*
X1933902Y525931D1*
X1935803Y535482D1*
Y541230D1*
X1933902Y550780D1*
X1930055Y556528D1*
X1924307Y558430D1*
X1920504D1*
X1914756Y556528D1*
X1910954Y550780D1*
X1909008Y541230D1*
Y535482D1*
X1910954Y525931D1*
X1914756Y520183D1*
X1920504Y518282D1*
X1924307D1*
X1910954Y525931D2*
X1933902Y550780D1*
X791296Y882680D2*
X787449Y880735D1*
X781701Y875031D1*
Y915179D1*
X1743778Y1156256D2*
X1739931Y1154310D1*
X1734183Y1148606D1*
Y1188754D1*
X1696939Y1161959D2*
X1698884Y1167707D1*
X1702687Y1171554D1*
X1708435Y1173455D1*
X1710336D1*
X1716084Y1171554D1*
X1719887Y1167707D1*
X1721832Y1161959D1*
Y1160058D1*
X1719887Y1154310D1*
X1716084Y1150508D1*
X1710336Y1148606D1*
X1708435D1*
X1702687Y1150508D1*
X1698884Y1154310D1*
X1696939Y1161959D1*
Y1171554D1*
X1698884Y1181105D1*
X1702687Y1186853D1*
X1708435Y1188754D1*
X1712237D1*
X1717985Y1186853D1*
X1719887Y1183006D1*
X1800690Y882413D2*
X1796843Y880468D1*
X1791095Y874764D1*
Y914912D1*
X1767247Y874764D2*
X1772995Y876665D1*
X1776842Y882413D1*
X1778743Y891964D1*
Y897712D1*
X1776842Y907262D1*
X1772995Y913010D1*
X1767247Y914912D1*
X1763445D1*
X1757697Y913010D1*
X1753894Y907262D1*
X1751949Y897712D1*
Y891964D1*
X1753894Y882413D1*
X1757697Y876665D1*
X1763445Y874764D1*
X1767247D1*
X1753894Y882413D2*
X1776842Y907262D1*
X859754Y1151918D2*
X855907Y1149973D1*
X850159Y1144269D1*
Y1184417D1*
X837808Y1151918D2*
X833961Y1149973D1*
X828213Y1144269D1*
Y1184417D1*
M02*
