G04 DipTrace 3.3.1.3*
G04 BottomMask.gbr*
%MOMM*%
G04 #@! TF.FileFunction,Soldermask,Bot*
G04 #@! TF.Part,Single*
%AMOUTLINE1*
4,1,4,
-0.0707,-0.70712,
-0.70712,-0.0707,
0.0707,0.70712,
0.70712,0.0707,
-0.0707,-0.70712,
0*%
%AMOUTLINE3*
4,1,11,
0.0,0.72562,
-0.00938,0.735,
-0.5064,0.735,
-0.5064,-0.735,
0.1508,-0.735,
0.1508,-0.281,
-0.1032,-0.281,
-0.1032,0.1286,
0.5064,0.1286,
0.5064,0.735,
0.00938,0.735,
0.0,0.72562,
0*%
%AMOUTLINE6*
4,1,11,
0.0,-0.72562,
0.00938,-0.735,
0.5064,-0.735,
0.5064,0.735,
-0.1508,0.735,
-0.1508,0.281,
0.1032,0.281,
0.1032,-0.1286,
-0.5064,-0.1286,
-0.5064,-0.735,
-0.00938,-0.735,
0.0,-0.72562,
0*%
%ADD21R,1.2X1.2*%
%ADD42C,1.9*%
%ADD60C,6.0*%
%ADD69R,1.3X0.8*%
%ADD71R,3.7X3.7*%
%ADD73O,0.5X1.05*%
%ADD75O,1.05X0.5*%
%ADD77R,5.2X3.2*%
%ADD79R,2.2X1.1*%
%ADD81R,3.2X1.9*%
%ADD83C,2.1*%
%ADD84C,1.8*%
%ADD86R,0.75X0.7*%
%ADD88R,0.5X0.87*%
%ADD90C,1.75*%
%ADD92C,1.45*%
%ADD94R,1.55X0.6*%
%ADD96C,1.2*%
%ADD99R,1.2X1.65*%
%ADD101R,1.7X1.0*%
%ADD103R,1.6X1.0*%
%ADD105R,1.75X1.2*%
%ADD107R,1.7X1.7*%
%ADD109R,1.7X1.5*%
%ADD111R,1.95X0.9*%
%ADD114R,1.4X1.4*%
%ADD115R,1.1X0.9*%
%ADD117R,0.9X1.1*%
%ADD123OUTLINE1*%
%ADD125OUTLINE3*%
%ADD128OUTLINE6*%
%FSLAX35Y35*%
G04*
G71*
G90*
G75*
G01*
G04 BotMask*
%LPD*%
D117*
X5286257Y6683257D3*
Y6813257D3*
X2111260Y6000633D3*
Y6130633D3*
D115*
X5448087Y5549167D3*
X5318087D3*
X5319543Y5350567D3*
X5449543D3*
D117*
X2524003Y5064007D3*
Y5194007D3*
X1650880Y4762380D3*
Y4632380D3*
X2143007Y3889257D3*
Y3759257D3*
X2746257Y3936880D3*
Y3806880D3*
D114*
X2301757Y4571880D3*
X2021757D3*
X2301757Y4333757D3*
X2021757D3*
X2511853Y4453663D3*
X2791853D3*
X2968507Y5540257D3*
Y5260257D3*
D42*
X2662507Y1434880D3*
X2840507Y1739880D3*
X3018507Y1434880D3*
X3196507Y1739880D3*
X3374507Y1434880D3*
X3552507Y1739880D3*
X3730507Y1434880D3*
X3908507Y1739880D3*
X4086507Y1434880D3*
X4264507Y1739880D3*
X4442507Y1434880D3*
X4620507Y1739880D3*
X4798507Y1434880D3*
D111*
X6318133Y4619507D3*
Y4509407D3*
Y4399507D3*
X6318167Y4289440D3*
Y4179440D3*
Y4069473D3*
Y3959440D3*
X6318133Y3849507D3*
D109*
X6306133Y4739407D3*
D107*
Y3604407D3*
D105*
X5237667Y3610440D3*
D103*
X5480667Y3569473D3*
D101*
X5545733Y4764407D3*
D99*
X5395733Y4732507D3*
D42*
X4798507Y2530257D3*
X4620507Y2835257D3*
X4442507Y2530257D3*
X4264507Y2835257D3*
X4086507Y2530257D3*
X3908507Y2835257D3*
X3730507Y2530257D3*
X3552507Y2835257D3*
X3374507Y2530257D3*
X3196507Y2835257D3*
X3018507Y2530257D3*
X2840507Y2835257D3*
X2662507Y2530257D3*
D21*
X3794007Y3873357D3*
D96*
Y4000357D3*
X3667007Y3873357D3*
Y4000357D3*
X3540007Y3873357D3*
Y4000357D3*
X3413007Y3873357D3*
Y4000357D3*
X3286007Y3873357D3*
Y4000357D3*
D94*
X1404713Y5033883D3*
Y5098883D3*
Y5163883D3*
Y5228883D3*
Y5293883D3*
D92*
Y4913883D3*
Y5413883D3*
D90*
X1134713Y4813883D3*
Y5513883D3*
D107*
Y5063883D3*
Y5263883D3*
D88*
X2270006Y6127633D3*
X2320006D3*
X2370006D3*
Y6002633D3*
X2320006D3*
X2270006D3*
D117*
X5270380Y5921257D3*
Y6051257D3*
Y6318130D3*
Y6188130D3*
D115*
X2368547Y5804617D3*
X2238547D3*
D117*
X2492257Y6000633D3*
Y6130633D3*
D115*
X5448007Y5667257D3*
X5318007D3*
X1861803Y6599717D3*
X1991803D3*
D123*
X2365257Y4778257D3*
X2457183Y4870183D3*
X5665487Y6680743D3*
X5573560Y6588817D3*
D115*
X2267243Y6665247D3*
X2397243D3*
X2888703Y6485123D3*
X3018703D3*
D86*
X4365507Y3936880D3*
X4445507D3*
X4525507D3*
X4605507D3*
X4685507D3*
X4765507D3*
X4845507D3*
X4925507D3*
Y3806880D3*
X4845507D3*
X4765507D3*
X4685507D3*
X4605507D3*
X4525507D3*
X4445507D3*
X4365507D3*
D84*
X2349380Y7270630D3*
X2799380D3*
D83*
X2224380Y7020630D3*
X2924380D3*
D84*
X5699007Y7270657D3*
X6149007D3*
D83*
X5574007Y7020657D3*
X6274007D3*
D84*
X1317507Y7270657D3*
X1767507D3*
D83*
X1192507Y7020657D3*
X1892507D3*
D42*
X1561253Y4234213D3*
Y3984213D3*
Y3734213D3*
D81*
X1212003Y4365263D3*
Y3603263D3*
D125*
X1968383Y4000380D3*
D128*
Y3944500D3*
D79*
X5008923Y6819107D3*
X5009923Y6692107D3*
Y6565107D3*
Y6438107D3*
Y6311107D3*
Y6184107D3*
Y6057107D3*
Y5930107D3*
Y5803107D3*
Y5676107D3*
Y5549107D3*
Y5422107D3*
Y5295107D3*
Y5168107D3*
X3287717Y5169073D3*
Y5296073D3*
Y5423073D3*
Y5550070D3*
Y5677073D3*
Y4534073D3*
Y4661073D3*
Y4788073D3*
Y4915073D3*
Y5042073D3*
X3287723Y5803207D3*
Y5930207D3*
Y6057207D3*
Y6184207D3*
Y6311207D3*
Y6438207D3*
Y6565207D3*
Y6692207D3*
Y6819207D3*
D77*
X4246923Y6188907D3*
D79*
X5009913Y5041970D3*
Y4914970D3*
Y4787970D3*
Y4660970D3*
Y4533970D3*
D75*
X2270003Y5302130D3*
Y5252130D3*
Y5202130D3*
Y5152130D3*
Y5102130D3*
Y5052130D3*
Y5002130D3*
D73*
X2170003Y4902130D3*
X2120003D3*
X2070003D3*
X2020003D3*
X1970003D3*
X1920003D3*
X1870003D3*
D75*
X1770003Y5002130D3*
Y5052130D3*
Y5102130D3*
Y5152130D3*
Y5202130D3*
Y5252130D3*
Y5302130D3*
D73*
X1870003Y5402130D3*
X1920003D3*
X1970003D3*
X2020003D3*
X2070003D3*
X2120003D3*
X2170003D3*
D71*
X2020003Y5152130D3*
D69*
X2285880Y3889257D3*
Y3984257D3*
Y4079257D3*
X2555880D3*
Y3889257D3*
D60*
X5921257Y6238757D3*
X1539757D3*
X5658507Y1548757D3*
X1802507D3*
M02*
