M48
METRIC,0000.00
T01C0.4
T02C0.6
T03C0.85
T04C1.0
T05C1.1
T06C1.15
T07C1.3
T08C6.0
%
T01
X+002020Y+004213
X+002095Y+004794
X+002238Y+004794
X+002127Y+005032
X+001921Y+005032
X+001921Y+005255
X+002127Y+005255
X+002381Y+005175
X+002381Y+005080
X+002169Y+005524
X+001953Y+005524
X+002302Y+005905
X+002397Y+005905
X+002667Y+005874
X+002667Y+005778
X+002778Y+006001
X+002381Y+006239
X+002030Y+006490
X+001756Y+006786
X+002338Y+006858
X+002510Y+006666
X+002905Y+006683
X+002937Y+006794
X+003019Y+006588
X+003127Y+006413
X+003127Y+006318
X+003911Y+006401
X+004064Y+006286
X+004064Y+006080
X+004239Y+006175
X+004429Y+006080
X+004429Y+006286
X+004842Y+006175
X+005175Y+005921
X+005382Y+005953
X+005448Y+005452
X+004858Y+005540
X+004842Y+005286
X+004840Y+005169
X+004842Y+005048
X+004762Y+004985
X+004842Y+004905
X+004842Y+004556
X+005239Y+004429
X+005524Y+003873
X+005233Y+003760
X+005101Y+003690
X+006066Y+004029
X+006175Y+004175
X+006175Y+004397
X+004159Y+004635
X+004081Y+004556
X+003999Y+004469
X+003540Y+004731
X+003699Y+004905
X+003619Y+005064
X+003604Y+005366
X+003889Y+005286
X+004199Y+005533
X+004366Y+005540
X+004858Y+006683
X+005413Y+006890
X+005490Y+006494
X+005839Y+006912
X+003127Y+005255
X+003080Y+005032
X+002921Y+005048
X+002793Y+004317
X+001556Y+005080
X+001556Y+005175
T02
X+003794Y+003873
X+003667Y+003873
X+003667Y+004000
X+003794Y+004000
X+003540Y+004000
X+003540Y+003873
X+003413Y+003873
X+003286Y+003873
X+003286Y+004000
X+003413Y+004000
T03
X+001405Y+004914
X+001405Y+005414
T04
X+002349Y+007271
X+002799Y+007271
X+001768Y+007271
X+001318Y+007271
X+005699Y+007271
X+006149Y+007271
T05
X+002663Y+001435
X+002841Y+001740
X+003019Y+001435
X+003197Y+001740
X+003375Y+001435
X+003553Y+001740
X+003731Y+001435
X+003909Y+001740
X+004087Y+001435
X+004265Y+001740
X+004443Y+001435
X+004621Y+001740
X+004799Y+001435
X+004799Y+002530
X+004621Y+002835
X+004443Y+002530
X+004265Y+002835
X+004087Y+002530
X+003909Y+002835
X+003731Y+002530
X+003553Y+002835
X+003375Y+002530
X+003197Y+002835
X+003019Y+002530
X+002841Y+002835
X+002663Y+002530
X+001561Y+003734
X+001561Y+003984
X+001561Y+004234
T06
X+001135Y+004814
X+001135Y+005514
T07
X+002224Y+007021
X+001893Y+007021
X+001193Y+007021
X+002924Y+007021
X+005574Y+007021
X+006274Y+007021
T08
X+005921Y+006239
X+001540Y+006239
X+001803Y+001549
X+005659Y+001549
T00
M30
