G04 DipTrace 3.3.1.3*
G04 TopMask.gbr*
%MOMM*%
G04 #@! TF.FileFunction,Soldermask,Top*
G04 #@! TF.Part,Single*
%ADD21R,1.2X1.2*%
%ADD42C,1.9*%
%ADD60C,6.0*%
%ADD83C,2.1*%
%ADD84C,1.8*%
%ADD90C,1.75*%
%ADD92C,1.45*%
%ADD96C,1.2*%
%ADD117R,0.9X1.1*%
%FSLAX35Y35*%
G04*
G71*
G90*
G75*
G01*
G04 TopMask*
%LPD*%
D117*
X1603257Y6857880D3*
Y6987880D3*
X5984757Y6857880D3*
Y6987880D3*
X2635133Y6857883D3*
Y6987883D3*
D42*
X2662507Y1434880D3*
X2840507Y1739880D3*
X3018507Y1434880D3*
X3196507Y1739880D3*
X3374507Y1434880D3*
X3552507Y1739880D3*
X3730507Y1434880D3*
X3908507Y1739880D3*
X4086507Y1434880D3*
X4264507Y1739880D3*
X4442507Y1434880D3*
X4620507Y1739880D3*
X4798507Y1434880D3*
Y2530257D3*
X4620507Y2835257D3*
X4442507Y2530257D3*
X4264507Y2835257D3*
X4086507Y2530257D3*
X3908507Y2835257D3*
X3730507Y2530257D3*
X3552507Y2835257D3*
X3374507Y2530257D3*
X3196507Y2835257D3*
X3018507Y2530257D3*
X2840507Y2835257D3*
X2662507Y2530257D3*
D21*
X3794007Y3873357D3*
D96*
Y4000357D3*
X3667007Y3873357D3*
Y4000357D3*
X3540007Y3873357D3*
Y4000357D3*
X3413007Y3873357D3*
Y4000357D3*
X3286007Y3873357D3*
Y4000357D3*
D92*
X1404713Y4913883D3*
Y5413883D3*
D90*
X1134713Y4813883D3*
Y5513883D3*
D84*
X2349380Y7270630D3*
X2799380D3*
D83*
X2224380Y7020630D3*
X2924380D3*
D84*
X5699007Y7270657D3*
X6149007D3*
D83*
X5574007Y7020657D3*
X6274007D3*
D84*
X1317507Y7270657D3*
X1767507D3*
D83*
X1192507Y7020657D3*
X1892507D3*
D42*
X1561253Y4234213D3*
Y3984213D3*
Y3734213D3*
D60*
X5921257Y6238757D3*
X1539757D3*
X5658507Y1548757D3*
X1802507D3*
M02*
