G04 DipTrace 3.3.1.3*
G04 BottomSilk.gbr*
%MOMM*%
G04 #@! TF.FileFunction,Legend,Bot*
G04 #@! TF.Part,Single*
%ADD10C,0.25*%
%ADD14C,0.2*%
%ADD17C,0.1*%
%ADD19C,0.35*%
%ADD24O,0.40037X0.39994*%
%ADD27C,0.15*%
%ADD28O,0.50018X0.49973*%
%ADD41C,0.31758*%
%ADD43O,0.39172X0.39127*%
%ADD58O,0.41029X0.39013*%
%ADD64O,0.39103X0.39118*%
%ADD140C,0.11765*%
%ADD141C,0.15686*%
%ADD142C,0.19608*%
%FSLAX35Y35*%
G04*
G71*
G90*
G75*
G01*
G04 BotSilk*
%LPD*%
X1661754Y5172757D2*
D17*
X1781747D1*
X1661754Y5272757D2*
X1781747D1*
D14*
X1601758Y5222757D3*
X1661754Y5045757D2*
D17*
X1781747D1*
X1661754Y5145757D2*
X1781747D1*
D14*
X1601758Y5095757D3*
X1661754Y4918757D2*
D17*
X1781747D1*
X1661754Y5018757D2*
X1781747D1*
D14*
X1601758Y4968757D3*
X2003035Y4631895D2*
D10*
X1883065D1*
X2003035Y4451905D2*
X1883065D1*
D24*
X2188035Y4541900D3*
X2003035Y4393772D2*
D10*
X1883065D1*
X2003035Y4213782D2*
X1883065D1*
D24*
X2188035Y4303777D3*
D28*
X1529704Y4978915D3*
X1224701Y4763917D2*
D27*
X1434697D1*
Y4833896D1*
X1224701Y5573857D2*
X1434697D1*
Y5493916D1*
X1054732Y4763917D2*
X1014705D1*
X1054732Y5573857D2*
X1014705D1*
X5969855Y1951138D2*
D14*
X5955754Y1961350D1*
X5952836Y1966813D1*
X5947001Y1977975D1*
X5926579Y2016450D1*
X5900808Y2064663D1*
X5347456Y3101825D1*
Y3439550D1*
X5329951D1*
X5169974D1*
X4482904D1*
X3556598D1*
X2702257D1*
X2272899D1*
X2102712D1*
Y3115838D1*
X1542066Y2064663D1*
X1535258Y2052075D1*
X1523588Y2029750D1*
X1516294Y2016450D1*
X1495872Y1977975D1*
X1490037Y1966813D1*
X1487119Y1961350D1*
X1474963Y1952563D1*
X1473018Y1951138D1*
X1436550Y1918125D1*
X1403485Y1881788D1*
X1374310Y1842363D1*
X1349025Y1800325D1*
X1328116Y1755913D1*
X1311583Y1709600D1*
X1299913Y1662100D1*
X1292620Y1613650D1*
X1292133Y1606763D1*
X1290188Y1564488D1*
X1292620Y1515563D1*
X1299913Y1467113D1*
X1311583Y1419375D1*
X1328116Y1373300D1*
X1349025Y1328888D1*
X1374310Y1286850D1*
X1403485Y1247425D1*
X1415641Y1234363D1*
X1436550Y1210850D1*
X1451623Y1197075D1*
X1473018Y1178075D1*
X1512404Y1148863D1*
X1554708Y1123450D1*
X1598957Y1102550D1*
X1645151Y1086163D1*
X1692803Y1074050D1*
X1741428Y1066925D1*
X1790053Y1064550D1*
X1839164Y1066925D1*
X1887789Y1074050D1*
X1914047Y1080700D1*
X1935442Y1086163D1*
X1981635Y1102550D1*
X2025884Y1123450D1*
X2068188Y1148863D1*
X2107574Y1178075D1*
X2128483Y1197075D1*
X2143557Y1210850D1*
X2164952Y1234363D1*
X2176622Y1247425D1*
X2205796Y1286850D1*
X2231081Y1328888D1*
X2238861Y1344800D1*
X2247614Y1355725D1*
X2290404Y1410113D1*
X2737754Y1979638D1*
X4705120D1*
X5152469Y1410113D1*
X5190883Y1361425D1*
X5195259Y1355725D1*
X5204012Y1344800D1*
X5211792Y1328888D1*
X5237077Y1286850D1*
X5266252Y1247425D1*
X5299317Y1210850D1*
X5314391Y1197075D1*
X5329951Y1182825D1*
X5335299Y1178075D1*
X5374686Y1148863D1*
X5416989Y1123450D1*
X5461238Y1102550D1*
X5507432Y1086163D1*
X5555084Y1074050D1*
X5603709Y1066925D1*
X5652820Y1064550D1*
X5701445Y1066925D1*
X5750070Y1074050D1*
X5797723Y1086163D1*
X5843916Y1102550D1*
X5888165Y1123450D1*
X5930469Y1148863D1*
X5969855Y1178075D1*
X5991250Y1197075D1*
X6006324Y1210850D1*
X6010214Y1215363D1*
X6039389Y1247425D1*
X6068564Y1286850D1*
X6093849Y1328888D1*
X6114758Y1373300D1*
X6131290Y1419375D1*
X6142960Y1467113D1*
X6150254Y1515563D1*
X6152685Y1564488D1*
X6151226Y1595125D1*
X6150254Y1613650D1*
X6142960Y1662100D1*
X6131290Y1709600D1*
X6114758Y1755913D1*
X6093849Y1800325D1*
X6068564Y1842363D1*
X6039389Y1881788D1*
X6010214Y1913613D1*
X6006324Y1918125D1*
X5969855Y1951138D1*
X6208878Y4789699D2*
D10*
X5647157D1*
X5320836D2*
X5191304D1*
Y3687581D1*
X5577409Y3589360D2*
X6205141D1*
X2256496Y6065133D2*
X2383510D1*
D41*
X2218680Y6144333D3*
D43*
X2645396Y4017274D3*
X2772756Y4040644D2*
D10*
Y4340630D1*
X2822757D1*
Y4040644D1*
X2772756D1*
D43*
X2751867Y3951736D3*
X2624507Y3928366D2*
D10*
Y3628380D1*
X2574506D1*
Y3928366D1*
X2624507D1*
X2161598Y7145666D2*
Y7526676D1*
X2987162Y7145666D2*
X2987073Y7526676D1*
X2161598D2*
X2987162D1*
X2161598Y6923399D2*
Y6859877D1*
X2987162D1*
Y6923399D1*
X5511225Y7147082D2*
Y7528093D1*
X6336789Y7147082D2*
X6336700Y7528093D1*
X5511225D2*
X6336789D1*
X5511225Y6924816D2*
Y6861293D1*
X6336789D1*
Y6924816D1*
X1129725Y7145692D2*
Y7526703D1*
X1955289Y7145692D2*
X1955200Y7526703D1*
X1129725D2*
X1955289D1*
X1129725Y6923426D2*
Y6859903D1*
X1955289D1*
Y6923426D1*
X1433960Y4412803D2*
X1369697Y4412920D1*
X1036310Y4174785D2*
X1116456Y4174668D1*
Y3793698D1*
X1036310Y3793815D1*
X1116456Y3984183D2*
X1036310Y3984300D1*
X1037039Y4412803D2*
X1036310Y3555680D1*
X1433960Y4412803D2*
X1433231Y3555680D1*
X1116456Y3555563D2*
X1036310Y3555680D1*
X1116456Y4412803D2*
X1036310Y4412920D1*
X1433960Y3555563D2*
X1369697Y3555680D1*
X5056486Y7581078D2*
X3230966D1*
Y6930204D1*
X5056486D1*
Y7581078D1*
Y4470534D2*
Y4407034D1*
X3437219Y4406082D1*
X3246728Y4407034D2*
Y4470534D1*
Y4407034D2*
X3484890D1*
X2308368Y5299511D2*
X2278420Y5329503D1*
X2308368Y4929510D2*
X2278420D1*
X2308368D2*
Y4959503D1*
X1908217Y4929510D2*
Y4959503D1*
Y4929510D2*
X1938270D1*
X1908217Y5329503D2*
Y5299511D1*
Y5329503D2*
X1938270D1*
D58*
X2377856Y5254010D3*
X3890643Y3759362D2*
D10*
X3030617D1*
X3890643Y4019398D2*
X3030617D1*
Y3759362D2*
Y4019398D1*
X3890643Y3759362D2*
Y3839356D1*
Y3939404D2*
Y4019398D1*
Y3839356D2*
G02X3890643Y3939404I-30J50024D01*
G01*
X4970143Y3759362D2*
X4110117D1*
X4970143Y4019398D2*
X4110117D1*
Y3759362D2*
Y4019398D1*
X4970143Y3759362D2*
Y3839356D1*
Y3939404D2*
Y4019398D1*
Y3839356D2*
G02X4970143Y3939404I-30J50024D01*
G01*
D64*
X1926152Y3757396D3*
X2063478Y3770762D2*
D10*
Y4070757D1*
X2143464Y3770762D2*
Y4070757D1*
X2063478D2*
X2143464D1*
X2063478Y3770762D2*
X2143464D1*
X2190633Y4587757D2*
D19*
Y4492507D1*
Y4349630D2*
Y4254380D1*
X2222383Y6159380D2*
D10*
Y5984757D1*
X5390904Y6768868D2*
D140*
X5394526Y6776112D1*
X5401854Y6783440D1*
X5409098Y6787062D1*
X5423670D1*
X5430998Y6783440D1*
X5438242Y6776112D1*
X5441948Y6768868D1*
X5445570Y6757918D1*
Y6739640D1*
X5441948Y6728774D1*
X5438242Y6721446D1*
X5430998Y6714202D1*
X5423670Y6710496D1*
X5409098D1*
X5401854Y6714202D1*
X5394526Y6721446D1*
X5390904Y6728774D1*
X5367375Y6772405D2*
X5360047Y6776112D1*
X5349097Y6786977D1*
Y6710496D1*
X1982862Y6075587D2*
X1975618Y6079209D1*
X1968290Y6086537D1*
X1964668Y6093781D1*
Y6108353D1*
X1968290Y6115681D1*
X1975618Y6122925D1*
X1982862Y6126631D1*
X1993812Y6130253D1*
X2012090D1*
X2022956Y6126631D1*
X2030284Y6122925D1*
X2037528Y6115681D1*
X2041234Y6108353D1*
Y6093781D1*
X2037528Y6086537D1*
X2030284Y6079209D1*
X2022956Y6075587D1*
X1982946Y6048352D2*
X1979324D1*
X1971996Y6044730D1*
X1968374Y6041108D1*
X1964752Y6033780D1*
Y6019208D1*
X1968374Y6011964D1*
X1971996Y6008342D1*
X1979324Y6004636D1*
X1986568D1*
X1993896Y6008342D1*
X2004762Y6015586D1*
X2041234Y6052058D1*
Y6001014D1*
X5647154Y5494890D2*
X5650776Y5502134D1*
X5658104Y5509462D1*
X5665348Y5513084D1*
X5679920D1*
X5687248Y5509462D1*
X5694491Y5502134D1*
X5698198Y5494890D1*
X5701820Y5483940D1*
Y5465662D1*
X5698198Y5454796D1*
X5694491Y5447468D1*
X5687248Y5440224D1*
X5679920Y5436518D1*
X5665348D1*
X5658104Y5440224D1*
X5650776Y5447468D1*
X5647154Y5454796D1*
X5616296Y5512999D2*
X5576287D1*
X5598102Y5483856D1*
X5587152D1*
X5579909Y5480234D1*
X5576287Y5476612D1*
X5572581Y5465662D1*
Y5458418D1*
X5576287Y5447468D1*
X5583531Y5440140D1*
X5594481Y5436518D1*
X5605431D1*
X5616296Y5440140D1*
X5619918Y5443846D1*
X5623624Y5451090D1*
X2661795Y5324965D2*
X2654552Y5328587D1*
X2647223Y5335915D1*
X2643602Y5343159D1*
Y5357731D1*
X2647223Y5365059D1*
X2654552Y5372303D1*
X2661795Y5376009D1*
X2672745Y5379631D1*
X2691023D1*
X2701889Y5376009D1*
X2709217Y5372302D1*
X2716461Y5365059D1*
X2720167Y5357731D1*
Y5343159D1*
X2716461Y5335915D1*
X2709217Y5328587D1*
X2701889Y5324965D1*
X2720167Y5264964D2*
X2643686D1*
X2694645Y5301435D1*
Y5246770D1*
X2544822Y5322537D2*
X2537578Y5326159D1*
X2530250Y5333487D1*
X2526628Y5340731D1*
Y5355303D1*
X2530250Y5362631D1*
X2537578Y5369875D1*
X2544822Y5373581D1*
X2555772Y5377203D1*
X2574050D1*
X2584916Y5373581D1*
X2592244Y5369875D1*
X2599488Y5362631D1*
X2603194Y5355303D1*
Y5340731D1*
X2599488Y5333487D1*
X2592244Y5326159D1*
X2584916Y5322537D1*
X2526712Y5255292D2*
Y5291680D1*
X2559478Y5295302D1*
X2555856Y5291680D1*
X2552150Y5280730D1*
Y5269864D1*
X2555856Y5258914D1*
X2563100Y5251586D1*
X2574050Y5247964D1*
X2581294D1*
X2592244Y5251586D1*
X2599572Y5258914D1*
X2603194Y5269864D1*
Y5280730D1*
X2599572Y5291680D1*
X2595866Y5295302D1*
X2588622Y5299008D1*
X3996504Y4327631D2*
X4000126Y4334875D1*
X4007454Y4342203D1*
X4014698Y4345825D1*
X4029270D1*
X4036598Y4342203D1*
X4043842Y4334875D1*
X4047548Y4327631D1*
X4051170Y4316681D1*
Y4298403D1*
X4047548Y4287537D1*
X4043842Y4280209D1*
X4036598Y4272965D1*
X4029270Y4269259D1*
X4014698D1*
X4007454Y4272965D1*
X4000126Y4280209D1*
X3996504Y4287537D1*
X3929259Y4334875D2*
X3932881Y4342119D1*
X3943831Y4345741D1*
X3951075D1*
X3962025Y4342119D1*
X3969353Y4331169D1*
X3972975Y4312975D1*
Y4294781D1*
X3969353Y4280209D1*
X3962025Y4272881D1*
X3951075Y4269259D1*
X3947453D1*
X3936587Y4272881D1*
X3929259Y4280209D1*
X3925637Y4291159D1*
Y4294781D1*
X3929259Y4305731D1*
X3936587Y4312975D1*
X3947453Y4316597D1*
X3951075D1*
X3962025Y4312975D1*
X3969353Y4305731D1*
X3972975Y4294781D1*
X2589820Y4785298D2*
X2593442Y4792542D1*
X2600770Y4799870D1*
X2608014Y4803492D1*
X2622586D1*
X2629914Y4799870D1*
X2637158Y4792542D1*
X2640864Y4785298D1*
X2644486Y4774348D1*
Y4756070D1*
X2640864Y4745204D1*
X2637158Y4737876D1*
X2629914Y4730632D1*
X2622586Y4726926D1*
X2608014D1*
X2600770Y4730632D1*
X2593442Y4737876D1*
X2589820Y4745204D1*
X2551719Y4726926D2*
X2515247Y4803408D1*
X2566291D1*
X2586638Y4667875D2*
X2590260Y4675119D1*
X2597588Y4682447D1*
X2604832Y4686069D1*
X2619404D1*
X2626732Y4682447D1*
X2633976Y4675119D1*
X2637682Y4667875D1*
X2641304Y4656925D1*
Y4638647D1*
X2637682Y4627781D1*
X2633976Y4620453D1*
X2626732Y4613209D1*
X2619404Y4609503D1*
X2604832D1*
X2597588Y4613209D1*
X2590260Y4620453D1*
X2586638Y4627781D1*
X2544915Y4685984D2*
X2555781Y4682363D1*
X2559487Y4675119D1*
Y4667791D1*
X2555781Y4660547D1*
X2548537Y4656841D1*
X2533965Y4653219D1*
X2523015Y4649597D1*
X2515771Y4642269D1*
X2512149Y4635025D1*
Y4624075D1*
X2515771Y4616831D1*
X2519393Y4613125D1*
X2530343Y4609503D1*
X2544915D1*
X2555781Y4613125D1*
X2559487Y4616831D1*
X2563109Y4624075D1*
Y4635025D1*
X2559487Y4642269D1*
X2552159Y4649597D1*
X2541293Y4653219D1*
X2526721Y4656841D1*
X2519393Y4660547D1*
X2515771Y4667791D1*
Y4675119D1*
X2519393Y4682363D1*
X2530343Y4685984D1*
X2544915D1*
X5075366Y4332941D2*
X5078988Y4340185D1*
X5086316Y4347513D1*
X5093560Y4351135D1*
X5108132D1*
X5115460Y4347513D1*
X5122704Y4340185D1*
X5126410Y4332941D1*
X5130032Y4321991D1*
Y4303713D1*
X5126410Y4292848D1*
X5122704Y4285520D1*
X5115460Y4278276D1*
X5108132Y4274570D1*
X5093560D1*
X5086316Y4278276D1*
X5078988Y4285520D1*
X5075366Y4292848D1*
X5004415Y4325613D2*
X5008121Y4314663D1*
X5015365Y4307335D1*
X5026315Y4303713D1*
X5029937D1*
X5040887Y4307335D1*
X5048131Y4314663D1*
X5051837Y4325613D1*
Y4329235D1*
X5048131Y4340185D1*
X5040887Y4347429D1*
X5029937Y4351051D1*
X5026315D1*
X5015365Y4347429D1*
X5008121Y4340185D1*
X5004415Y4325613D1*
Y4307335D1*
X5008121Y4289141D1*
X5015365Y4278191D1*
X5026315Y4274570D1*
X5033559D1*
X5044509Y4278191D1*
X5048131Y4285520D1*
X1856364Y3590868D2*
X1859986Y3598112D1*
X1867314Y3605440D1*
X1874558Y3609062D1*
X1889130D1*
X1896458Y3605440D1*
X1903702Y3598112D1*
X1907408Y3590868D1*
X1911030Y3579918D1*
Y3561640D1*
X1907408Y3550774D1*
X1903702Y3543446D1*
X1896458Y3536202D1*
X1889130Y3532496D1*
X1874558D1*
X1867314Y3536202D1*
X1859986Y3543446D1*
X1856364Y3550774D1*
X1832835Y3594405D2*
X1825507Y3598112D1*
X1814557Y3608977D1*
Y3532496D1*
X1769127Y3608977D2*
X1780077Y3605355D1*
X1787405Y3594405D1*
X1791027Y3576212D1*
Y3565262D1*
X1787405Y3547068D1*
X1780077Y3536118D1*
X1769127Y3532496D1*
X1761883D1*
X1750933Y3536118D1*
X1743690Y3547068D1*
X1739983Y3565262D1*
Y3576212D1*
X1743690Y3594405D1*
X1750933Y3605355D1*
X1761883Y3608977D1*
X1769127D1*
X1743690Y3594405D2*
X1787405Y3547068D1*
X2124231Y3589031D2*
X2127853Y3596275D1*
X2135181Y3603603D1*
X2142425Y3607225D1*
X2156997D1*
X2164325Y3603603D1*
X2171569Y3596275D1*
X2175275Y3589031D1*
X2178897Y3578081D1*
Y3559803D1*
X2175275Y3548938D1*
X2171569Y3541610D1*
X2164325Y3534366D1*
X2156997Y3530660D1*
X2142425D1*
X2135181Y3534366D1*
X2127853Y3541610D1*
X2124231Y3548938D1*
X2100702Y3592569D2*
X2093374Y3596275D1*
X2082424Y3607141D1*
Y3530660D1*
X2058894Y3592569D2*
X2051566Y3596275D1*
X2040616Y3607141D1*
Y3530660D1*
X1768876Y5605062D2*
Y5528496D1*
X1743354D1*
X1732404Y5532202D1*
X1725076Y5539446D1*
X1721454Y5546774D1*
X1717832Y5557640D1*
Y5575918D1*
X1721454Y5586868D1*
X1725076Y5594112D1*
X1732404Y5601440D1*
X1743354Y5605062D1*
X1768876D1*
X1657831Y5528496D2*
Y5604978D1*
X1694303Y5554018D1*
X1639637D1*
X1767065Y5491575D2*
Y5415010D1*
X1741543D1*
X1730593Y5418716D1*
X1723265Y5425960D1*
X1719643Y5433288D1*
X1716021Y5444153D1*
Y5462431D1*
X1719643Y5473381D1*
X1723265Y5480625D1*
X1730593Y5487953D1*
X1741543Y5491575D1*
X1767065D1*
X1648776Y5491491D2*
X1685164D1*
X1688786Y5458725D1*
X1685164Y5462347D1*
X1674214Y5466053D1*
X1663348D1*
X1652398Y5462347D1*
X1645070Y5455103D1*
X1641448Y5444153D1*
Y5436910D1*
X1645070Y5425960D1*
X1652398Y5418631D1*
X1663348Y5415010D1*
X1674214D1*
X1685164Y5418631D1*
X1688786Y5422338D1*
X1692492Y5429581D1*
X1767466Y5378089D2*
Y5301523D1*
X1741944D1*
X1730994Y5305229D1*
X1723666Y5312473D1*
X1720044Y5319801D1*
X1716422Y5330667D1*
Y5348945D1*
X1720044Y5359895D1*
X1723666Y5367139D1*
X1730994Y5374467D1*
X1741944Y5378089D1*
X1767466D1*
X1649176Y5367139D2*
X1652798Y5374383D1*
X1663748Y5378004D1*
X1670992D1*
X1681942Y5374383D1*
X1689270Y5363433D1*
X1692892Y5345239D1*
Y5327045D1*
X1689270Y5312473D1*
X1681942Y5305145D1*
X1670992Y5301523D1*
X1667370D1*
X1656505Y5305145D1*
X1649176Y5312473D1*
X1645555Y5323423D1*
Y5327045D1*
X1649176Y5337995D1*
X1656505Y5345239D1*
X1667370Y5348861D1*
X1670992D1*
X1681942Y5345239D1*
X1689270Y5337995D1*
X1692892Y5327045D1*
X2365315Y4567397D2*
Y4490831D1*
X2339793D1*
X2328843Y4494537D1*
X2321515Y4501781D1*
X2317893Y4509109D1*
X2314271Y4519975D1*
Y4538253D1*
X2317893Y4549203D1*
X2321515Y4556447D1*
X2328843Y4563775D1*
X2339793Y4567397D1*
X2365315D1*
X2276170Y4490831D2*
X2239698Y4567313D1*
X2290742D1*
X2362796Y4341204D2*
Y4264638D1*
X2337275D1*
X2326325Y4268344D1*
X2318996Y4275588D1*
X2315375Y4282916D1*
X2311753Y4293782D1*
Y4312060D1*
X2315375Y4323010D1*
X2318996Y4330254D1*
X2326325Y4337582D1*
X2337275Y4341204D1*
X2362796D1*
X2270029Y4341119D2*
X2280895Y4337498D1*
X2284601Y4330254D1*
Y4322926D1*
X2280895Y4315682D1*
X2273651Y4311976D1*
X2259079Y4308354D1*
X2248129Y4304732D1*
X2240886Y4297404D1*
X2237264Y4290160D1*
Y4279210D1*
X2240886Y4271966D1*
X2244507Y4268260D1*
X2255457Y4264638D1*
X2270029D1*
X2280895Y4268260D1*
X2284601Y4271966D1*
X2288223Y4279210D1*
Y4290160D1*
X2284601Y4297404D1*
X2277273Y4304732D1*
X2266407Y4308354D1*
X2251836Y4311976D1*
X2244507Y4315682D1*
X2240886Y4322926D1*
Y4330254D1*
X2244507Y4337498D1*
X2255457Y4341119D1*
X2270029D1*
X1242957Y5685449D2*
Y5627161D1*
X1246579Y5616211D1*
X1250285Y5612589D1*
X1257529Y5608883D1*
X1264857D1*
X1272101Y5612589D1*
X1275723Y5616211D1*
X1279429Y5627161D1*
Y5634405D1*
X1215722Y5667171D2*
Y5670793D1*
X1212100Y5678121D1*
X1208478Y5681743D1*
X1201150Y5685364D1*
X1186578D1*
X1179334Y5681743D1*
X1175712Y5678121D1*
X1172006Y5670793D1*
Y5663549D1*
X1175712Y5656221D1*
X1182956Y5645355D1*
X1219428Y5608883D1*
X1168384D1*
X5486737Y3376519D2*
Y3318231D1*
X5490359Y3307281D1*
X5494065Y3303659D1*
X5501309Y3299953D1*
X5508637D1*
X5515881Y3303659D1*
X5519503Y3307281D1*
X5523209Y3318231D1*
Y3325475D1*
X5455880Y3376434D2*
X5415870D1*
X5437686Y3347291D1*
X5426736D1*
X5419492Y3343669D1*
X5415870Y3340047D1*
X5412164Y3329097D1*
Y3321853D1*
X5415870Y3310903D1*
X5423114Y3303575D1*
X5434064Y3299953D1*
X5445014D1*
X5455880Y3303575D1*
X5459502Y3307281D1*
X5463208Y3314525D1*
X6073652Y4916599D2*
Y4858311D1*
X6077274Y4847361D1*
X6080980Y4843739D1*
X6088224Y4840033D1*
X6095552D1*
X6102796Y4843739D1*
X6106417Y4847361D1*
X6110124Y4858311D1*
Y4865555D1*
X6013650Y4840033D2*
Y4916514D1*
X6050122Y4865555D1*
X5995456D1*
X2258590Y6288602D2*
X2265834Y6285064D1*
X2273162Y6277736D1*
X2276784Y6270408D1*
X2280490Y6259458D1*
Y6241264D1*
X2276784Y6230314D1*
X2273162Y6223070D1*
X2265834Y6215742D1*
X2258590Y6212120D1*
X2244018D1*
X2236690Y6215742D1*
X2229446Y6223070D1*
X2225824Y6230314D1*
X2222118Y6241264D1*
Y6259458D1*
X2225824Y6270408D1*
X2229446Y6277736D1*
X2236690Y6285064D1*
X2244018Y6288602D1*
X2258590D1*
X2247640Y6226692D2*
X2225824Y6204792D1*
X2198588Y6273946D2*
X2191260Y6277652D1*
X2180310Y6288518D1*
Y6212036D1*
X2845583Y4473759D2*
X2852826Y4470221D1*
X2860155Y4462893D1*
X2863776Y4455565D1*
X2867483Y4444615D1*
Y4426421D1*
X2863776Y4415471D1*
X2860155Y4408227D1*
X2852826Y4400899D1*
X2845583Y4397277D1*
X2831011D1*
X2823683Y4400899D1*
X2816439Y4408227D1*
X2812817Y4415471D1*
X2809111Y4426421D1*
Y4444615D1*
X2812817Y4455565D1*
X2816439Y4462893D1*
X2823683Y4470221D1*
X2831011Y4473759D1*
X2845583D1*
X2834633Y4411849D2*
X2812817Y4389949D1*
X2781875Y4455481D2*
Y4459103D1*
X2778253Y4466431D1*
X2774631Y4470053D1*
X2767303Y4473674D1*
X2752731D1*
X2745487Y4470053D1*
X2741866Y4466431D1*
X2738159Y4459103D1*
Y4451859D1*
X2741866Y4444531D1*
X2749109Y4433665D1*
X2785581Y4397193D1*
X2734537D1*
X2512656Y3632239D2*
X2519900Y3628701D1*
X2527228Y3621373D1*
X2530850Y3614045D1*
X2534556Y3603095D1*
Y3584901D1*
X2530850Y3573951D1*
X2527228Y3566707D1*
X2519900Y3559379D1*
X2512656Y3555757D1*
X2498084D1*
X2490756Y3559379D1*
X2483512Y3566707D1*
X2479890Y3573951D1*
X2476184Y3584901D1*
Y3603095D1*
X2479890Y3614045D1*
X2483512Y3621373D1*
X2490756Y3628701D1*
X2498084Y3632239D1*
X2512656D1*
X2501706Y3570329D2*
X2479890Y3548429D1*
X2445327Y3632154D2*
X2405317D1*
X2427133Y3603011D1*
X2416183D1*
X2408939Y3599389D1*
X2405317Y3595767D1*
X2401611Y3584817D1*
Y3577573D1*
X2405317Y3566623D1*
X2412561Y3559295D1*
X2423511Y3555673D1*
X2434461D1*
X2445327Y3559295D1*
X2448948Y3563001D1*
X2452655Y3570245D1*
X3000129Y6387806D2*
X2967363D1*
X2956413Y6391513D1*
X2952707Y6395134D1*
X2949085Y6402378D1*
Y6409706D1*
X2952707Y6416950D1*
X2956413Y6420656D1*
X2967363Y6424278D1*
X3000129D1*
Y6347713D1*
X2974607Y6387806D2*
X2949085Y6347713D1*
X2925556Y6409622D2*
X2918228Y6413328D1*
X2907278Y6424194D1*
Y6347713D1*
X5485549Y6419283D2*
X5452783D1*
X5441833Y6422989D1*
X5438127Y6426611D1*
X5434505Y6433855D1*
Y6441183D1*
X5438127Y6448427D1*
X5441833Y6452133D1*
X5452783Y6455755D1*
X5485549D1*
Y6379189D1*
X5460027Y6419283D2*
X5434505Y6379189D1*
X5407269Y6437477D2*
Y6441099D1*
X5403647Y6448427D1*
X5400025Y6452049D1*
X5392697Y6455671D1*
X5378125D1*
X5370881Y6452049D1*
X5367260Y6448427D1*
X5363553Y6441099D1*
Y6433855D1*
X5367260Y6426527D1*
X5374503Y6415661D1*
X5410975Y6379189D1*
X5359931D1*
X5259957Y7321719D2*
Y7288953D1*
X5256251Y7278003D1*
X5252629Y7274297D1*
X5245385Y7270675D1*
X5238057D1*
X5230813Y7274297D1*
X5227107Y7278003D1*
X5223485Y7288953D1*
Y7321719D1*
X5300051D1*
X5259957Y7296197D2*
X5300051Y7270675D1*
X5223569Y7239818D2*
Y7199808D1*
X5252713Y7221624D1*
Y7210674D1*
X5256335Y7203430D1*
X5259957Y7199808D1*
X5270907Y7196102D1*
X5278150D1*
X5289101Y7199808D1*
X5296429Y7207052D1*
X5300051Y7218002D1*
Y7228952D1*
X5296429Y7239817D1*
X5292723Y7243439D1*
X5285479Y7247145D1*
X5189360Y5984403D2*
Y5951637D1*
X5185654Y5940687D1*
X5182032Y5936981D1*
X5174788Y5933359D1*
X5167460D1*
X5160216Y5936981D1*
X5156510Y5940687D1*
X5152888Y5951637D1*
Y5984403D1*
X5229454D1*
X5189360Y5958881D2*
X5229454Y5933359D1*
Y5873358D2*
X5152972D1*
X5203932Y5909830D1*
Y5855164D1*
X2366355Y5707300D2*
X2333589D1*
X2322639Y5711006D1*
X2318933Y5714628D1*
X2315311Y5721872D1*
Y5729200D1*
X2318933Y5736444D1*
X2322639Y5740150D1*
X2333589Y5743772D1*
X2366355D1*
Y5667206D1*
X2340833Y5707300D2*
X2315311Y5667206D1*
X2248066Y5743687D2*
X2284454D1*
X2288076Y5710922D1*
X2284454Y5714544D1*
X2273504Y5718250D1*
X2262638D1*
X2251688Y5714544D1*
X2244360Y5707300D1*
X2240738Y5696350D1*
Y5689106D1*
X2244360Y5678156D1*
X2251688Y5670828D1*
X2262638Y5667206D1*
X2273504D1*
X2284454Y5670828D1*
X2288076Y5674534D1*
X2291782Y5681778D1*
X2589574Y6126589D2*
Y6093823D1*
X2585868Y6082873D1*
X2582246Y6079167D1*
X2575002Y6075545D1*
X2567674D1*
X2560430Y6079167D1*
X2556724Y6082873D1*
X2553102Y6093823D1*
Y6126589D1*
X2629668D1*
X2589574Y6101067D2*
X2629668Y6075545D1*
X2564052Y6008300D2*
X2556808Y6011922D1*
X2553186Y6022872D1*
Y6030116D1*
X2556808Y6041066D1*
X2567758Y6048394D1*
X2585952Y6052016D1*
X2604146D1*
X2618718Y6048394D1*
X2626046Y6041066D1*
X2629668Y6030116D1*
Y6026494D1*
X2626046Y6015628D1*
X2618718Y6008300D1*
X2607768Y6004678D1*
X2604146D1*
X2593196Y6008300D1*
X2585952Y6015628D1*
X2582330Y6026494D1*
Y6030116D1*
X2585952Y6041066D1*
X2593196Y6048394D1*
X2604146Y6052016D1*
X5495227Y5991012D2*
Y5958246D1*
X5491521Y5947296D1*
X5487899Y5943590D1*
X5480655Y5939968D1*
X5473327D1*
X5466083Y5943590D1*
X5462377Y5947296D1*
X5458755Y5958246D1*
Y5991012D1*
X5535321D1*
X5495227Y5965490D2*
X5535321Y5939968D1*
Y5901867D2*
X5458839Y5865395D1*
Y5916439D1*
X5588313Y5646842D2*
X5555547D1*
X5544597Y5650548D1*
X5540891Y5654170D1*
X5537269Y5661414D1*
Y5668742D1*
X5540891Y5675986D1*
X5544597Y5679692D1*
X5555547Y5683314D1*
X5588313D1*
Y5606748D1*
X5562791Y5646842D2*
X5537269Y5606748D1*
X5495546Y5683229D2*
X5506412Y5679608D1*
X5510118Y5672364D1*
Y5665036D1*
X5506412Y5657792D1*
X5499168Y5654086D1*
X5484596Y5650464D1*
X5473646Y5646842D1*
X5466402Y5639514D1*
X5462780Y5632270D1*
Y5621320D1*
X5466402Y5614076D1*
X5470024Y5610370D1*
X5480974Y5606748D1*
X5495546D1*
X5506412Y5610370D1*
X5510118Y5614076D1*
X5513740Y5621320D1*
Y5632270D1*
X5510118Y5639514D1*
X5502790Y5646842D1*
X5491924Y5650464D1*
X5477352Y5654086D1*
X5470024Y5657792D1*
X5466402Y5665036D1*
Y5672364D1*
X5470024Y5679608D1*
X5480974Y5683229D1*
X5495546D1*
X1644204Y4847113D2*
X1611439D1*
X1600489Y4850820D1*
X1596782Y4854441D1*
X1593160Y4861685D1*
Y4869013D1*
X1596782Y4876257D1*
X1600489Y4879963D1*
X1611439Y4883585D1*
X1644204D1*
Y4807020D1*
X1618682Y4847113D2*
X1593160Y4807020D1*
X1522209Y4858063D2*
X1525915Y4847113D1*
X1533159Y4839785D1*
X1544109Y4836163D1*
X1547731D1*
X1558681Y4839785D1*
X1565925Y4847113D1*
X1569631Y4858063D1*
Y4861685D1*
X1565925Y4872635D1*
X1558681Y4879879D1*
X1547731Y4883501D1*
X1544109D1*
X1533159Y4879879D1*
X1525915Y4872635D1*
X1522209Y4858063D1*
Y4839785D1*
X1525915Y4821591D1*
X1533159Y4810641D1*
X1544109Y4807020D1*
X1551353D1*
X1562303Y4810641D1*
X1565925Y4817970D1*
X2862782Y4893063D2*
X2830017D1*
X2819067Y4896770D1*
X2815360Y4900391D1*
X2811738Y4907635D1*
Y4914963D1*
X2815360Y4922207D1*
X2819067Y4925913D1*
X2830017Y4929535D1*
X2862782D1*
Y4852970D1*
X2837260Y4893063D2*
X2811738Y4852970D1*
X2788209Y4914879D2*
X2780881Y4918585D1*
X2769931Y4929451D1*
Y4852970D1*
X2724502Y4929451D2*
X2735452Y4925829D1*
X2742780Y4914879D1*
X2746402Y4896685D1*
Y4885735D1*
X2742780Y4867541D1*
X2735452Y4856591D1*
X2724502Y4852970D1*
X2717258D1*
X2706308Y4856591D1*
X2699064Y4867541D1*
X2695358Y4885735D1*
Y4896685D1*
X2699064Y4914879D1*
X2706308Y4925829D1*
X2717258Y4929451D1*
X2724502D1*
X2699064Y4914879D2*
X2742780Y4867541D1*
X1651446Y4722410D2*
X1618680D1*
X1607730Y4726116D1*
X1604024Y4729738D1*
X1600402Y4736982D1*
Y4744310D1*
X1604024Y4751554D1*
X1607730Y4755260D1*
X1618680Y4758882D1*
X1651446D1*
Y4682316D1*
X1625924Y4722410D2*
X1600402Y4682316D1*
X1576873Y4744226D2*
X1569545Y4747932D1*
X1558595Y4758798D1*
Y4682316D1*
X1535065Y4744226D2*
X1527737Y4747932D1*
X1516787Y4758798D1*
Y4682316D1*
X5512842Y6241063D2*
X5480077D1*
X5469127Y6244769D1*
X5465420Y6248391D1*
X5461798Y6255635D1*
Y6262963D1*
X5465420Y6270207D1*
X5469127Y6273913D1*
X5480077Y6277535D1*
X5512842D1*
Y6200969D1*
X5487320Y6241063D2*
X5461798Y6200969D1*
X5438269Y6262879D2*
X5430941Y6266585D1*
X5419991Y6277451D1*
Y6200969D1*
X5392755Y6259257D2*
Y6262879D1*
X5389134Y6270207D1*
X5385512Y6273829D1*
X5378184Y6277451D1*
X5363612D1*
X5356368Y6273829D1*
X5352746Y6270207D1*
X5349040Y6262879D1*
Y6255635D1*
X5352746Y6248307D1*
X5359990Y6237441D1*
X5396462Y6200969D1*
X5345418D1*
X2004109Y6593380D2*
X1971343D1*
X1960393Y6597086D1*
X1956687Y6600708D1*
X1953065Y6607952D1*
Y6615280D1*
X1956687Y6622524D1*
X1960393Y6626230D1*
X1971343Y6629852D1*
X2004109D1*
Y6553286D1*
X1978587Y6593380D2*
X1953065Y6553286D1*
X1929536Y6615195D2*
X1922208Y6618902D1*
X1911258Y6629767D1*
Y6553286D1*
X1880400Y6629767D2*
X1840391D1*
X1862206Y6600624D1*
X1851256D1*
X1844012Y6597002D1*
X1840391Y6593380D1*
X1836684Y6582430D1*
Y6575186D1*
X1840391Y6564236D1*
X1847634Y6556908D1*
X1858584Y6553286D1*
X1869534D1*
X1880400Y6556908D1*
X1884022Y6560614D1*
X1887728Y6567858D1*
X2401240Y6585160D2*
X2368474D1*
X2357524Y6588866D1*
X2353818Y6592488D1*
X2350196Y6599732D1*
Y6607060D1*
X2353818Y6614304D1*
X2357524Y6618010D1*
X2368474Y6621632D1*
X2401240D1*
Y6545066D1*
X2375718Y6585160D2*
X2350196Y6545066D1*
X2326667Y6606976D2*
X2319339Y6610682D1*
X2308389Y6621548D1*
Y6545066D1*
X2248387D2*
Y6621548D1*
X2284859Y6570588D1*
X2230193D1*
X5915899Y6651425D2*
X5883133D1*
X5872183Y6655131D1*
X5868477Y6658753D1*
X5864855Y6665997D1*
Y6673325D1*
X5868477Y6680569D1*
X5872183Y6684275D1*
X5883133Y6687897D1*
X5915899D1*
Y6611331D1*
X5890377Y6651425D2*
X5864855Y6611331D1*
X5841326Y6673241D2*
X5833998Y6676947D1*
X5823048Y6687813D1*
Y6611331D1*
X5755802Y6687813D2*
X5792190D1*
X5795812Y6655047D1*
X5792190Y6658669D1*
X5781240Y6662375D1*
X5770374D1*
X5759424Y6658669D1*
X5752096Y6651425D1*
X5748474Y6640475D1*
Y6633231D1*
X5752096Y6622281D1*
X5759424Y6614953D1*
X5770374Y6611331D1*
X5781240D1*
X5792190Y6614953D1*
X5795812Y6618659D1*
X5799518Y6625903D1*
X4076119Y3557620D2*
X4043353D1*
X4032403Y3561326D1*
X4028697Y3564948D1*
X4025075Y3572192D1*
Y3579520D1*
X4028697Y3586764D1*
X4032403Y3590470D1*
X4043353Y3594092D1*
X4076119D1*
Y3517526D1*
X4050597Y3557620D2*
X4025075Y3517526D1*
X4001546Y3579435D2*
X3994218Y3583142D1*
X3983268Y3594007D1*
Y3517526D1*
X3916023Y3583142D2*
X3919645Y3590385D1*
X3930595Y3594007D1*
X3937839D1*
X3948789Y3590385D1*
X3956117Y3579435D1*
X3959739Y3561242D1*
Y3543048D1*
X3956117Y3528476D1*
X3948789Y3521148D1*
X3937839Y3517526D1*
X3934217D1*
X3923351Y3521148D1*
X3916023Y3528476D1*
X3912401Y3539426D1*
Y3543048D1*
X3916023Y3553998D1*
X3923351Y3561242D1*
X3934217Y3564864D1*
X3937839D1*
X3948789Y3561242D1*
X3956117Y3553998D1*
X3959739Y3543048D1*
X3069449Y6032147D2*
X3036683D1*
X3025733Y6035853D1*
X3022027Y6039475D1*
X3018405Y6046719D1*
Y6054047D1*
X3022027Y6061291D1*
X3025733Y6064997D1*
X3036683Y6068619D1*
X3069449D1*
Y5992053D1*
X3043927Y6032147D2*
X3018405Y5992053D1*
X2994876Y6053963D2*
X2987548Y6057669D1*
X2976598Y6068534D1*
Y5992053D1*
X2938496D2*
X2902024Y6068534D1*
X2953068D1*
X5837617Y5460524D2*
Y5427758D1*
X5833911Y5416808D1*
X5830289Y5413102D1*
X5823045Y5409480D1*
X5815717D1*
X5808473Y5413102D1*
X5804767Y5416808D1*
X5801145Y5427758D1*
Y5460524D1*
X5877711D1*
X5837617Y5435002D2*
X5877711Y5409480D1*
X5815801Y5385950D2*
X5812095Y5378622D1*
X5801229Y5367672D1*
X5877711D1*
X5801229Y5325949D2*
X5804851Y5336815D1*
X5812095Y5340521D1*
X5819423D1*
X5826667Y5336815D1*
X5830373Y5329571D1*
X5833995Y5314999D1*
X5837617Y5304049D1*
X5844945Y5296805D1*
X5852189Y5293184D1*
X5863139D1*
X5870382Y5296805D1*
X5874089Y5300427D1*
X5877711Y5311377D1*
Y5325949D1*
X5874089Y5336815D1*
X5870383Y5340521D1*
X5863139Y5344143D1*
X5852189D1*
X5844945Y5340521D1*
X5837617Y5333193D1*
X5833995Y5322327D1*
X5830373Y5307755D1*
X5826667Y5300427D1*
X5819423Y5296805D1*
X5812095D1*
X5804851Y5300427D1*
X5801229Y5311377D1*
Y5325949D1*
X3072145Y5791770D2*
X3039379D1*
X3028429Y5795476D1*
X3024723Y5799098D1*
X3021101Y5806342D1*
Y5813670D1*
X3024723Y5820914D1*
X3028429Y5824620D1*
X3039379Y5828242D1*
X3072145D1*
Y5751676D1*
X3046623Y5791770D2*
X3021101Y5751676D1*
X2997571Y5813586D2*
X2990243Y5817292D1*
X2979293Y5828158D1*
Y5751676D1*
X2908342Y5802720D2*
X2912048Y5791770D1*
X2919292Y5784442D1*
X2930242Y5780820D1*
X2933864D1*
X2944814Y5784442D1*
X2952058Y5791770D1*
X2955764Y5802720D1*
Y5806342D1*
X2952058Y5817292D1*
X2944814Y5824536D1*
X2933864Y5828158D1*
X2930242D1*
X2919292Y5824536D1*
X2912048Y5817292D1*
X2908342Y5802720D1*
Y5784442D1*
X2912048Y5766248D1*
X2919292Y5755298D1*
X2930242Y5751676D1*
X2937486D1*
X2948436Y5755298D1*
X2952058Y5762626D1*
X2429760Y4292472D2*
Y4259706D1*
X2426054Y4248756D1*
X2422432Y4245050D1*
X2415188Y4241428D1*
X2407860D1*
X2400616Y4245050D1*
X2396910Y4248756D1*
X2393288Y4259706D1*
Y4292472D1*
X2469854D1*
X2429760Y4266950D2*
X2469854Y4241428D1*
X2411566Y4214193D2*
X2407944D1*
X2400616Y4210571D1*
X2396994Y4206949D1*
X2393372Y4199621D1*
Y4185049D1*
X2396994Y4177805D1*
X2400616Y4174183D1*
X2407944Y4170477D1*
X2415188D1*
X2422516Y4174183D1*
X2433382Y4181427D1*
X2469854Y4217899D1*
Y4166855D1*
X2393372Y4121426D2*
X2396994Y4132376D1*
X2407944Y4139704D1*
X2426138Y4143326D1*
X2437088D1*
X2455282Y4139704D1*
X2466232Y4132375D1*
X2469854Y4121426D1*
Y4114182D1*
X2466232Y4103232D1*
X2455282Y4095988D1*
X2437088Y4092282D1*
X2426138D1*
X2407944Y4095988D1*
X2396994Y4103232D1*
X2393372Y4114182D1*
Y4121426D1*
X2407944Y4095988D2*
X2455282Y4139704D1*
X2954697Y3863346D2*
Y3830580D1*
X2950991Y3819630D1*
X2947369Y3815924D1*
X2940125Y3812302D1*
X2932797D1*
X2925553Y3815924D1*
X2921847Y3819630D1*
X2918225Y3830580D1*
Y3863346D1*
X2994791D1*
X2954697Y3837824D2*
X2994791Y3812302D1*
X2936503Y3785066D2*
X2932881D1*
X2925553Y3781445D1*
X2921931Y3777823D1*
X2918309Y3770495D1*
Y3755923D1*
X2921931Y3748679D1*
X2925553Y3745057D1*
X2932881Y3741351D1*
X2940125D1*
X2947453Y3745057D1*
X2958319Y3752301D1*
X2994791Y3788772D1*
Y3737729D1*
X2932881Y3714199D2*
X2929175Y3706871D1*
X2918309Y3695921D1*
X2994791D1*
X1572510Y3956102D2*
Y3923336D1*
X1568804Y3912386D1*
X1565182Y3908680D1*
X1557938Y3905058D1*
X1550610D1*
X1543366Y3908680D1*
X1539660Y3912386D1*
X1536038Y3923336D1*
Y3956102D1*
X1612604D1*
X1572510Y3930580D2*
X1612604Y3905058D1*
X1554316Y3877823D2*
X1550694D1*
X1543366Y3874201D1*
X1539744Y3870579D1*
X1536122Y3863251D1*
Y3848679D1*
X1539744Y3841435D1*
X1543366Y3837813D1*
X1550694Y3834107D1*
X1557938D1*
X1565266Y3837813D1*
X1576132Y3845057D1*
X1612604Y3881529D1*
Y3830485D1*
X1554316Y3803249D2*
X1550694D1*
X1543366Y3799628D1*
X1539744Y3796006D1*
X1536122Y3788678D1*
Y3774106D1*
X1539744Y3766862D1*
X1543366Y3763240D1*
X1550694Y3759534D1*
X1557938D1*
X1565266Y3763240D1*
X1576132Y3770484D1*
X1612604Y3806955D1*
Y3755912D1*
X5641852Y4950813D2*
X5609086D1*
X5598136Y4954519D1*
X5594430Y4958141D1*
X5590808Y4965385D1*
Y4972713D1*
X5594430Y4979957D1*
X5598136Y4983663D1*
X5609086Y4987285D1*
X5641852D1*
Y4910719D1*
X5616330Y4950813D2*
X5590808Y4910719D1*
X5563572Y4969007D2*
Y4972629D1*
X5559951Y4979957D1*
X5556329Y4983579D1*
X5549001Y4987201D1*
X5534429D1*
X5527185Y4983579D1*
X5523563Y4979957D1*
X5519857Y4972629D1*
Y4965385D1*
X5523563Y4958057D1*
X5530807Y4947191D1*
X5567279Y4910719D1*
X5516235D1*
X5485377Y4987201D2*
X5445368D1*
X5467183Y4958057D1*
X5456233D1*
X5448990Y4954435D1*
X5445368Y4950813D1*
X5441662Y4939863D1*
Y4932619D1*
X5445368Y4921669D1*
X5452612Y4914341D1*
X5463562Y4910719D1*
X5474512D1*
X5485377Y4914341D1*
X5488999Y4918047D1*
X5492705Y4925291D1*
X3559133Y1207303D2*
X3526367D1*
X3515417Y1211010D1*
X3511711Y1214631D1*
X3508089Y1221875D1*
Y1229203D1*
X3511711Y1236447D1*
X3515417Y1240153D1*
X3526367Y1243775D1*
X3559133D1*
Y1167210D1*
X3533611Y1207303D2*
X3508089Y1167210D1*
X3480853Y1225497D2*
Y1229119D1*
X3477232Y1236447D1*
X3473610Y1240069D1*
X3466282Y1243691D1*
X3451710D1*
X3444466Y1240069D1*
X3440844Y1236447D1*
X3437138Y1229119D1*
Y1221875D1*
X3440844Y1214547D1*
X3448088Y1203681D1*
X3484560Y1167210D1*
X3433516D1*
X3373514D2*
Y1243691D1*
X3409986Y1192731D1*
X3355321D1*
X2569762Y7039899D2*
X2577006Y7047227D1*
X2587956Y7050849D1*
X2602528D1*
X2613478Y7047227D1*
X2620806Y7039899D1*
Y7032655D1*
X2617100Y7025327D1*
X2613478Y7021705D1*
X2606234Y7018083D1*
X2584334Y7010755D1*
X2577006Y7007133D1*
X2573384Y7003427D1*
X2569762Y6996183D1*
Y6985233D1*
X2577006Y6977989D1*
X2587956Y6974283D1*
X2602528D1*
X2613478Y6977989D1*
X2620806Y6985233D1*
X2546232Y7036193D2*
X2538904Y7039899D1*
X2527954Y7050764D1*
Y6974283D1*
X2788961Y6834032D2*
Y6757466D1*
X2756111D1*
X2745161Y6761172D1*
X2741539Y6764794D1*
X2737917Y6772038D1*
Y6782988D1*
X2741539Y6790316D1*
X2745161Y6793938D1*
X2756111Y6797560D1*
X2745161Y6801266D1*
X2741539Y6804888D1*
X2737917Y6812132D1*
Y6819460D1*
X2741539Y6826704D1*
X2745161Y6830410D1*
X2756111Y6834032D1*
X2788961D1*
Y6797560D2*
X2756111D1*
X2714388Y6808510D2*
Y6772038D1*
X2710766Y6761172D1*
X2703438Y6757466D1*
X2692488D1*
X2685244Y6761172D1*
X2674294Y6772038D1*
Y6808510D2*
Y6757466D1*
X2639814Y6834032D2*
Y6772038D1*
X2636192Y6761172D1*
X2628864Y6757466D1*
X2621620D1*
X2650764Y6808510D2*
X2625242D1*
X2587141Y6834032D2*
Y6772038D1*
X2583519Y6761172D1*
X2576191Y6757466D1*
X2568947D1*
X2598091Y6808510D2*
X2572569D1*
X2527224D2*
X2534468Y6804888D1*
X2541796Y6797560D1*
X2545418Y6786610D1*
Y6779366D1*
X2541796Y6768416D1*
X2534468Y6761172D1*
X2527224Y6757466D1*
X2516274D1*
X2508946Y6761172D1*
X2501702Y6768416D1*
X2497996Y6779366D1*
Y6786610D1*
X2501702Y6797560D1*
X2508946Y6804888D1*
X2516274Y6808510D1*
X2527224D1*
X2474466D2*
Y6757466D1*
Y6793938D2*
X2463516Y6804888D1*
X2456188Y6808510D1*
X2445323D1*
X2437994Y6804888D1*
X2434373Y6793938D1*
Y6757466D1*
X2410843Y6834032D2*
Y6757466D1*
X2377993D1*
X2367043Y6761172D1*
X2363421Y6764794D1*
X2359799Y6772038D1*
Y6782988D1*
X2363421Y6790316D1*
X2367043Y6793938D1*
X2377993Y6797560D1*
X2367043Y6801266D1*
X2363421Y6804888D1*
X2359799Y6812132D1*
Y6819460D1*
X2363421Y6826704D1*
X2367043Y6830410D1*
X2377993Y6834032D1*
X2410843D1*
Y6797560D2*
X2377993D1*
X5928338Y7003142D2*
X5935582Y7010470D1*
X5946532Y7014092D1*
X5961104D1*
X5972054Y7010470D1*
X5979382Y7003142D1*
Y6995898D1*
X5975676Y6988570D1*
X5972054Y6984948D1*
X5964810Y6981326D1*
X5942910Y6973998D1*
X5935582Y6970376D1*
X5931960Y6966670D1*
X5928338Y6959426D1*
Y6948476D1*
X5935582Y6941232D1*
X5946532Y6937526D1*
X5961104D1*
X5972054Y6941232D1*
X5979382Y6948476D1*
X5901103Y6995814D2*
Y6999436D1*
X5897481Y7006764D1*
X5893859Y7010386D1*
X5886531Y7014008D1*
X5871959D1*
X5864715Y7010386D1*
X5861093Y7006764D1*
X5857387Y6999436D1*
Y6992192D1*
X5861093Y6984864D1*
X5868337Y6973998D1*
X5904809Y6937526D1*
X5853765D1*
X1561532Y7026095D2*
X1568776Y7033423D1*
X1579726Y7037045D1*
X1594298D1*
X1605248Y7033423D1*
X1612576Y7026095D1*
Y7018851D1*
X1608870Y7011523D1*
X1605248Y7007901D1*
X1598004Y7004280D1*
X1576104Y6996951D1*
X1568776Y6993330D1*
X1565154Y6989623D1*
X1561532Y6982380D1*
Y6971430D1*
X1568776Y6964186D1*
X1579726Y6960480D1*
X1594298D1*
X1605248Y6964186D1*
X1612576Y6971430D1*
X1501531Y6960480D2*
Y7036961D1*
X1538003Y6986001D1*
X1483337D1*
X1760751Y6834058D2*
Y6757493D1*
X1727901D1*
X1716951Y6761199D1*
X1713330Y6764821D1*
X1709708Y6772064D1*
Y6783014D1*
X1713330Y6790343D1*
X1716951Y6793964D1*
X1727901Y6797586D1*
X1716951Y6801293D1*
X1713330Y6804914D1*
X1709708Y6812158D1*
Y6819486D1*
X1713330Y6826730D1*
X1716951Y6830436D1*
X1727901Y6834058D1*
X1760751D1*
Y6797586D2*
X1727901D1*
X1686178Y6808536D2*
Y6772064D1*
X1682556Y6761199D1*
X1675228Y6757493D1*
X1664278D1*
X1657034Y6761199D1*
X1646084Y6772064D1*
Y6808536D2*
Y6757493D1*
X1611605Y6834058D2*
Y6772064D1*
X1607983Y6761199D1*
X1600655Y6757493D1*
X1593411D1*
X1622555Y6808536D2*
X1597033D1*
X1558932Y6834058D2*
Y6772064D1*
X1555310Y6761199D1*
X1547982Y6757493D1*
X1540738D1*
X1569882Y6808536D2*
X1544360D1*
X1499015D2*
X1506258Y6804914D1*
X1513587Y6797586D1*
X1517208Y6786636D1*
Y6779393D1*
X1513587Y6768443D1*
X1506258Y6761199D1*
X1499015Y6757493D1*
X1488065D1*
X1480737Y6761199D1*
X1473493Y6768443D1*
X1469787Y6779393D1*
Y6786636D1*
X1473493Y6797586D1*
X1480737Y6804914D1*
X1488065Y6808536D1*
X1499015D1*
X1446257D2*
Y6757493D1*
Y6793964D2*
X1435307Y6804914D1*
X1427979Y6808536D1*
X1417113D1*
X1409785Y6804914D1*
X1406163Y6793964D1*
Y6757493D1*
X1324262D2*
X1353490Y6834058D1*
X1382634Y6757493D1*
X1371684Y6783014D2*
X1335212D1*
X1151661Y3320955D2*
X1158905Y3328283D1*
X1169855Y3331905D1*
X1184427D1*
X1195377Y3328283D1*
X1202705Y3320955D1*
Y3313711D1*
X1198999Y3306383D1*
X1195377Y3302761D1*
X1188133Y3299140D1*
X1166233Y3291811D1*
X1158905Y3288190D1*
X1155283Y3284483D1*
X1151661Y3277240D1*
Y3266290D1*
X1158905Y3259046D1*
X1169855Y3255340D1*
X1184427D1*
X1195377Y3259046D1*
X1202705Y3266290D1*
X1084416Y3331821D2*
X1120804D1*
X1124426Y3299055D1*
X1120804Y3302677D1*
X1109854Y3306383D1*
X1098988D1*
X1088038Y3302677D1*
X1080710Y3295433D1*
X1077088Y3284483D1*
Y3277240D1*
X1080710Y3266290D1*
X1088038Y3258961D1*
X1098988Y3255340D1*
X1109854D1*
X1120804Y3258961D1*
X1124426Y3262668D1*
X1128132Y3269911D1*
X2168099Y5489475D2*
Y5434810D1*
X2164477Y5423860D1*
X2157149Y5416616D1*
X2146199Y5412910D1*
X2138955D1*
X2128005Y5416616D1*
X2120677Y5423860D1*
X2117055Y5434810D1*
Y5489475D1*
X2089819Y5471197D2*
Y5474819D1*
X2086197Y5482147D1*
X2082575Y5485769D1*
X2075247Y5489391D1*
X2060675D1*
X2053431Y5485769D1*
X2049810Y5482147D1*
X2046103Y5474819D1*
Y5467575D1*
X2049810Y5460247D1*
X2057053Y5449381D1*
X2093525Y5412910D1*
X2042481D1*
X3523439Y4370972D2*
Y4316306D1*
X3519817Y4305356D1*
X3512489Y4298112D1*
X3501539Y4294406D1*
X3494295D1*
X3483345Y4298112D1*
X3476017Y4305356D1*
X3472395Y4316306D1*
Y4370972D1*
X3441537Y4370888D2*
X3401528D1*
X3423343Y4341744D1*
X3412393D1*
X3405150Y4338122D1*
X3401528Y4334500D1*
X3397821Y4323550D1*
Y4316306D1*
X3401528Y4305356D1*
X3408771Y4298028D1*
X3419721Y4294406D1*
X3430671D1*
X3441537Y4298028D1*
X3445159Y4301734D1*
X3448865Y4308978D1*
X4604750Y4370972D2*
Y4316306D1*
X4601128Y4305356D1*
X4593800Y4298112D1*
X4582850Y4294406D1*
X4575606D1*
X4564656Y4298112D1*
X4557328Y4305356D1*
X4553706Y4316306D1*
Y4370972D1*
X4493704Y4294406D2*
Y4370888D1*
X4530176Y4319928D1*
X4475511D1*
X2305672Y4182345D2*
Y4127680D1*
X2302050Y4116730D1*
X2294722Y4109486D1*
X2283772Y4105780D1*
X2276528D1*
X2265578Y4109486D1*
X2258250Y4116730D1*
X2254628Y4127680D1*
Y4182345D1*
X2187383Y4182261D2*
X2223771D1*
X2227393Y4149495D1*
X2223771Y4153117D1*
X2212821Y4156823D1*
X2201955D1*
X2191005Y4153117D1*
X2183677Y4145873D1*
X2180055Y4134923D1*
Y4127680D1*
X2183677Y4116730D1*
X2191005Y4109401D1*
X2201955Y4105780D1*
X2212821D1*
X2223771Y4109401D1*
X2227393Y4113108D1*
X2231099Y4120351D1*
X4795226Y3839926D2*
D141*
X4746597Y3941901D1*
X4814655D1*
X4666595Y3839926D2*
Y3941901D1*
X4715224Y3873955D1*
X4642336D1*
X4610964Y3942013D2*
Y3839926D1*
X4552676D1*
X4453245Y3927413D2*
X4462904Y3937184D1*
X4477504Y3942013D1*
X4496933D1*
X4511533Y3937184D1*
X4521304Y3927413D1*
Y3917755D1*
X4516362Y3907984D1*
X4511533Y3903155D1*
X4501874Y3898326D1*
X4472674Y3888555D1*
X4462904Y3883726D1*
X4458074Y3878784D1*
X4453245Y3869126D1*
Y3854526D1*
X4462904Y3844867D1*
X4477504Y3839926D1*
X4496933D1*
X4511533Y3844867D1*
X4521304Y3854526D1*
X4392673Y3941901D2*
X4407273Y3937072D1*
X4417043Y3922472D1*
X4421873Y3898213D1*
Y3883613D1*
X4417043Y3859355D1*
X4407273Y3844755D1*
X4392673Y3839926D1*
X4383014D1*
X4368414Y3844755D1*
X4358756Y3859355D1*
X4353814Y3883613D1*
Y3898213D1*
X4358756Y3922472D1*
X4368414Y3937072D1*
X4383014Y3941901D1*
X4392673D1*
X4358756Y3922472D2*
X4417043Y3859355D1*
X4303012Y3839926D2*
X4254383Y3941901D1*
X4322442D1*
X4687012Y6597053D2*
X4750129D1*
Y6494966D1*
X4687012D1*
X4750129Y6548424D2*
X4711270D1*
X4587581Y6582453D2*
X4597239Y6592224D1*
X4611839Y6597053D1*
X4631268D1*
X4645868Y6592224D1*
X4655639Y6582453D1*
Y6572795D1*
X4650698Y6563024D1*
X4645868Y6558195D1*
X4636210Y6553366D1*
X4607010Y6543595D1*
X4597239Y6538766D1*
X4592410Y6533824D1*
X4587581Y6524166D1*
Y6509566D1*
X4597239Y6499907D1*
X4611839Y6494966D1*
X4631268D1*
X4645868Y6499907D1*
X4655639Y6509566D1*
X4556208Y6543595D2*
X4512408D1*
X4497920Y6548424D1*
X4492979Y6553366D1*
X4488150Y6563024D1*
Y6577624D1*
X4492979Y6587283D1*
X4497920Y6592224D1*
X4512408Y6597053D1*
X4556208D1*
Y6494966D1*
X4447006Y6596941D2*
X4393660D1*
X4422748Y6558083D1*
X4408148D1*
X4398489Y6553253D1*
X4393660Y6548424D1*
X4388719Y6533824D1*
Y6524166D1*
X4393660Y6509566D1*
X4403319Y6499795D1*
X4417919Y6494966D1*
X4432519D1*
X4447006Y6499795D1*
X4451836Y6504736D1*
X4456777Y6514395D1*
X4352405Y6572683D2*
Y6577512D1*
X4347575Y6587283D1*
X4342746Y6592112D1*
X4332975Y6596941D1*
X4313546D1*
X4303888Y6592112D1*
X4299058Y6587283D1*
X4294117Y6577512D1*
Y6567853D1*
X4299058Y6558083D1*
X4308717Y6543595D1*
X4357346Y6494966D1*
X4289288D1*
X4257915Y6545953D2*
X4201761D1*
X4170389Y6597053D2*
X4146018Y6494966D1*
X4121760Y6597053D1*
X4097501Y6494966D1*
X4073130Y6597053D1*
X4041758Y6548424D2*
X3998070D1*
X3983470Y6553366D1*
X3978528Y6558195D1*
X3973699Y6567853D1*
Y6577624D1*
X3978528Y6587283D1*
X3983470Y6592224D1*
X3998070Y6597053D1*
X4041758D1*
Y6494966D1*
X4007728Y6548424D2*
X3973699Y6494966D1*
X3913127Y6597053D2*
X3922897Y6592224D1*
X3932556Y6582453D1*
X3937497Y6572795D1*
X3942327Y6558195D1*
Y6533824D1*
X3937497Y6519336D1*
X3932556Y6509566D1*
X3922897Y6499907D1*
X3913127Y6494966D1*
X3893697D1*
X3884039Y6499907D1*
X3874268Y6509566D1*
X3869439Y6519336D1*
X3864610Y6533824D1*
Y6558195D1*
X3869439Y6572795D1*
X3874268Y6582453D1*
X3884039Y6592224D1*
X3893697Y6597053D1*
X3913127D1*
X3833237D2*
X3794379Y6494966D1*
X3755520Y6597053D1*
X3661031D2*
X3724148D1*
Y6494966D1*
X3661031D1*
X3724148Y6548424D2*
X3685289D1*
X3629658D2*
X3585971D1*
X3571371Y6553366D1*
X3566429Y6558195D1*
X3561600Y6567853D1*
Y6577624D1*
X3566429Y6587283D1*
X3571371Y6592224D1*
X3585971Y6597053D1*
X3629658D1*
Y6494966D1*
X3595629Y6548424D2*
X3561600Y6494966D1*
X3715726Y3839926D2*
X3667097Y3941901D1*
X3735155D1*
X3587095Y3839926D2*
Y3941901D1*
X3635724Y3873955D1*
X3562836D1*
X3531464Y3942013D2*
Y3839926D1*
X3473176D1*
X3373745Y3927413D2*
X3383404Y3937184D1*
X3398004Y3942013D1*
X3417433D1*
X3432033Y3937184D1*
X3441804Y3927413D1*
Y3917755D1*
X3436862Y3907984D1*
X3432033Y3903155D1*
X3422374Y3898326D1*
X3393174Y3888555D1*
X3383404Y3883726D1*
X3378574Y3878784D1*
X3373745Y3869126D1*
Y3854526D1*
X3383404Y3844867D1*
X3398004Y3839926D1*
X3417433D1*
X3432033Y3844867D1*
X3441804Y3854526D1*
X3313173Y3941901D2*
X3327773Y3937072D1*
X3337543Y3922472D1*
X3342373Y3898213D1*
Y3883613D1*
X3337543Y3859355D1*
X3327773Y3844755D1*
X3313173Y3839926D1*
X3303514D1*
X3288914Y3844755D1*
X3279256Y3859355D1*
X3274314Y3883613D1*
Y3898213D1*
X3279256Y3922472D1*
X3288914Y3937072D1*
X3303514Y3941901D1*
X3313173D1*
X3279256Y3922472D2*
X3337543Y3859355D1*
X3223512Y3839926D2*
X3174883Y3941901D1*
X3242942D1*
X6355450Y2092214D2*
X6253362D1*
X6355450Y2160272D2*
X6253362D1*
X6306821Y2092214D2*
Y2160272D1*
X6321421Y2249933D2*
X6253362D1*
X6306821D2*
X6316591Y2240274D1*
X6321421Y2230503D1*
Y2216016D1*
X6316591Y2206245D1*
X6306821Y2196587D1*
X6292221Y2191645D1*
X6282562D1*
X6267962Y2196587D1*
X6258304Y2206245D1*
X6253362Y2216016D1*
Y2230503D1*
X6258304Y2240274D1*
X6267962Y2249933D1*
X6321421Y2281305D2*
X6253362D1*
X6292221D2*
X6306821Y2286247D1*
X6316591Y2295905D1*
X6321421Y2305676D1*
Y2320276D1*
X6355450Y2409936D2*
X6253362D1*
X6306821D2*
X6316591Y2400278D1*
X6321421Y2390507D1*
Y2375907D1*
X6316591Y2366249D1*
X6306821Y2356478D1*
X6292221Y2351649D1*
X6282562D1*
X6267962Y2356478D1*
X6258304Y2366249D1*
X6253362Y2375907D1*
Y2390507D1*
X6258304Y2400278D1*
X6267962Y2409936D1*
X6321421Y2441309D2*
X6253362Y2460738D1*
X6321421Y2480167D1*
X6253362Y2499597D1*
X6321421Y2519026D1*
Y2608686D2*
X6253362D1*
X6306821D2*
X6316591Y2599028D1*
X6321421Y2589257D1*
Y2574769D1*
X6316591Y2564998D1*
X6306821Y2555340D1*
X6292221Y2550398D1*
X6282562D1*
X6267962Y2555340D1*
X6258304Y2564998D1*
X6253362Y2574769D1*
Y2589257D1*
X6258304Y2599028D1*
X6267962Y2608686D1*
X6321421Y2640059D2*
X6253362D1*
X6292221D2*
X6306821Y2645000D1*
X6316591Y2654659D1*
X6321421Y2664429D1*
Y2679029D1*
X6292221Y2710402D2*
Y2768690D1*
X6301991D1*
X6311762Y2763860D1*
X6316591Y2759031D1*
X6321421Y2749260D1*
Y2734660D1*
X6316591Y2725002D1*
X6306821Y2715231D1*
X6292221Y2710402D1*
X6282562D1*
X6267962Y2715231D1*
X6258304Y2725002D1*
X6253362Y2734660D1*
Y2749260D1*
X6258304Y2759031D1*
X6267962Y2768690D1*
X6355450Y2898819D2*
X6253362D1*
Y2932849D1*
X6258304Y2947449D1*
X6267962Y2957219D1*
X6277733Y2962048D1*
X6292221Y2966878D1*
X6316591D1*
X6331191Y2962048D1*
X6340850Y2957219D1*
X6350621Y2947448D1*
X6355450Y2932848D1*
Y2898819D1*
X6292221Y2998250D2*
Y3056538D1*
X6301991D1*
X6311762Y3051709D1*
X6316591Y3046879D1*
X6321421Y3037109D1*
Y3022509D1*
X6316591Y3012850D1*
X6306821Y3003079D1*
X6292221Y2998250D1*
X6282562D1*
X6267962Y3003080D1*
X6258304Y3012850D1*
X6253362Y3022509D1*
Y3037109D1*
X6258304Y3046880D1*
X6267962Y3056538D1*
X6306821Y3141369D2*
X6316591Y3136540D1*
X6321421Y3121940D1*
Y3107340D1*
X6316591Y3092740D1*
X6306821Y3087910D1*
X6297162Y3092740D1*
X6292221Y3102511D1*
X6287391Y3126769D1*
X6282562Y3136540D1*
X6272791Y3141369D1*
X6267962D1*
X6258304Y3136540D1*
X6253362Y3121940D1*
Y3107340D1*
X6258304Y3092740D1*
X6267962Y3087911D1*
X6355450Y3172741D2*
X6350621Y3177571D1*
X6355450Y3182512D1*
X6360391Y3177571D1*
X6355450Y3172741D1*
X6321421Y3177571D2*
X6253362D1*
X6316591Y3272172D2*
X6238762Y3272173D1*
X6224275Y3267343D1*
X6219333Y3262514D1*
X6214504Y3252743D1*
Y3238143D1*
X6219333Y3228485D1*
X6301991Y3272172D2*
X6311650Y3262514D1*
X6316591Y3252743D1*
Y3238143D1*
X6311650Y3228485D1*
X6301991Y3218714D1*
X6287391Y3213885D1*
X6277621D1*
X6263133Y3218714D1*
X6253362Y3228485D1*
X6248533Y3238143D1*
Y3252743D1*
X6253362Y3262514D1*
X6263133Y3272172D1*
X6321421Y3303545D2*
X6253362D1*
X6301991D2*
X6316591Y3318145D1*
X6321421Y3327916D1*
Y3342403D1*
X6316591Y3352174D1*
X6301992Y3357003D1*
X6253362D1*
X6115061Y2415923D2*
D142*
Y2397673D1*
X6109025Y2385600D1*
X6102988Y2379423D1*
X6090775Y2373386D1*
X6066488D1*
X6060452Y2379423D1*
Y2391636D1*
X6066488Y2415923D1*
X6054415Y2421959D1*
Y2427996D1*
X6066488Y2440209D1*
X6096811Y2446246D1*
X6115061Y2440209D1*
X6127275Y2434173D1*
X6139348Y2421959D1*
X6145385Y2409886D1*
Y2385600D1*
X6139348Y2373386D1*
X6127275Y2361313D1*
X6115061Y2355136D1*
X6096811Y2349100D1*
X6066488D1*
X6048238Y2355136D1*
X6036165Y2361313D1*
X6023952Y2373386D1*
X6017915Y2385600D1*
Y2409886D1*
X6023952Y2421959D1*
X6036165Y2434173D1*
X6121098Y2415923D2*
X6066488D1*
X6102988Y2485462D2*
X6017915D1*
X6078702D2*
X6096952Y2503712D1*
X6102988Y2515925D1*
Y2534035D1*
X6096952Y2546248D1*
X6078702Y2552285D1*
X6017915D1*
X6078702D2*
X6096952Y2570535D1*
X6102988Y2582748D1*
Y2600858D1*
X6096952Y2613071D1*
X6078702Y2619248D1*
X6017915D1*
X6102988Y2688787D2*
X6096952Y2676714D1*
X6084738Y2664500D1*
X6066488Y2658464D1*
X6054415D1*
X6036165Y2664500D1*
X6024092Y2676714D1*
X6017915Y2688787D1*
Y2707037D1*
X6024092Y2719250D1*
X6036165Y2731324D1*
X6054415Y2737500D1*
X6066488D1*
X6084738Y2731324D1*
X6096952Y2719250D1*
X6102988Y2707037D1*
Y2688787D1*
Y2776716D2*
Y2843539D1*
X6017915Y2776716D1*
Y2843539D1*
X6102988Y2882755D2*
Y2949578D1*
X6017915Y2882755D1*
Y2949578D1*
X6102988Y2988794D2*
X6017915Y3013080D1*
X6102988Y3037367D1*
X6017915Y3061653D1*
X6102988Y3085940D1*
Y3198015D2*
X6017915D1*
X6084738D2*
X6096952Y3185942D1*
X6102988Y3173728D1*
Y3155619D1*
X6096952Y3143405D1*
X6084738Y3131332D1*
X6066488Y3125155D1*
X6054415D1*
X6036165Y3131332D1*
X6024092Y3143405D1*
X6017915Y3155619D1*
Y3173729D1*
X6024092Y3185942D1*
X6036165Y3198015D1*
X6145525Y3237231D2*
X6017915D1*
X6145525Y3349306D2*
X6017915D1*
X6084738D2*
X6096952Y3337233D1*
X6102988Y3325019D1*
Y3306769D1*
X6096952Y3294696D1*
X6084738Y3282483D1*
X6066488Y3276446D1*
X6054415D1*
X6036165Y3282483D1*
X6024092Y3294696D1*
X6017915Y3306769D1*
Y3325019D1*
X6024092Y3337233D1*
X6036165Y3349306D1*
X1154964Y2990440D2*
D141*
X1150135D1*
X1140364Y2985611D1*
X1135535Y2980782D1*
X1130706Y2971011D1*
Y2951582D1*
X1135535Y2941924D1*
X1140364Y2937094D1*
X1150135Y2932153D1*
X1159793D1*
X1169564Y2937094D1*
X1184052Y2946753D1*
X1232681Y2995382D1*
Y2927324D1*
X1130706Y2866751D2*
X1135535Y2881351D1*
X1150135Y2891122D1*
X1174393Y2895951D1*
X1188993D1*
X1213252Y2891122D1*
X1227852Y2881351D1*
X1232681Y2866751D1*
Y2857093D1*
X1227852Y2842493D1*
X1213252Y2832834D1*
X1188993Y2827893D1*
X1174393D1*
X1150135Y2832834D1*
X1135535Y2842493D1*
X1130706Y2857093D1*
Y2866751D1*
X1150135Y2832834D2*
X1213252Y2891122D1*
X1154964Y2791578D2*
X1150135D1*
X1140364Y2786749D1*
X1135535Y2781920D1*
X1130706Y2772149D1*
Y2752720D1*
X1135535Y2743062D1*
X1140364Y2738232D1*
X1150135Y2733291D1*
X1159793D1*
X1169564Y2738232D1*
X1184052Y2747891D1*
X1232681Y2796520D1*
Y2728462D1*
X1150135Y2697089D2*
X1145193Y2687318D1*
X1130706Y2672718D1*
X1232681D1*
X1181693Y2641346D2*
Y2585192D1*
X1130706Y2524619D2*
X1135535Y2539219D1*
X1150135Y2548990D1*
X1174393Y2553819D1*
X1188993D1*
X1213252Y2548990D1*
X1227852Y2539219D1*
X1232681Y2524619D1*
Y2514961D1*
X1227852Y2500361D1*
X1213252Y2490702D1*
X1188993Y2485761D1*
X1174394D1*
X1150135Y2490702D1*
X1135535Y2500361D1*
X1130706Y2514961D1*
Y2524619D1*
X1150135Y2490702D2*
X1213252Y2548990D1*
X1164623Y2391159D2*
X1179223Y2396101D1*
X1188994Y2405759D1*
X1193823Y2420359D1*
Y2425188D1*
X1188994Y2439788D1*
X1179223Y2449447D1*
X1164623Y2454388D1*
X1159794D1*
X1145194Y2449447D1*
X1135535Y2439788D1*
X1130706Y2425188D1*
Y2420359D1*
X1135535Y2405759D1*
X1145194Y2396101D1*
X1164623Y2391159D1*
X1188994D1*
X1213252Y2396101D1*
X1227852Y2405759D1*
X1232681Y2420359D1*
Y2430017D1*
X1227852Y2444617D1*
X1218081Y2449447D1*
X1181694Y2359787D2*
Y2303633D1*
X1154964Y2267319D2*
X1150135D1*
X1140364Y2262489D1*
X1135535Y2257660D1*
X1130706Y2247889D1*
Y2228460D1*
X1135535Y2218802D1*
X1140364Y2213973D1*
X1150135Y2209031D1*
X1159794D1*
X1169564Y2213973D1*
X1184052Y2223631D1*
X1232681Y2272260D1*
Y2204202D1*
X1164623Y2109600D2*
X1179223Y2114542D1*
X1188993Y2124200D1*
X1193823Y2138800D1*
Y2143629D1*
X1188994Y2158229D1*
X1179223Y2167888D1*
X1164623Y2172829D1*
X1159794D1*
X1145194Y2167888D1*
X1135535Y2158229D1*
X1130706Y2143629D1*
Y2138800D1*
X1135535Y2124200D1*
X1145193Y2114542D1*
X1164623Y2109600D1*
X1188993D1*
X1213252Y2114542D1*
X1227852Y2124200D1*
X1232681Y2138800D1*
Y2148458D1*
X1227852Y2163058D1*
X1218081Y2167888D1*
X6150116Y2094794D2*
X6048029D1*
X6101487D2*
X6111258Y2104565D1*
X6116087Y2114223D1*
Y2128823D1*
X6111258Y2138482D1*
X6101487Y2148252D1*
X6086887Y2153082D1*
X6077229D1*
X6062629Y2148252D1*
X6052970Y2138482D1*
X6048029Y2128823D1*
Y2114223D1*
X6052970Y2104565D1*
X6062629Y2094794D1*
X6116087Y2189396D2*
X6048029Y2218483D1*
X6028600Y2208825D1*
X6018829Y2199054D1*
X6014000Y2189396D1*
Y2184454D1*
X6116087Y2247683D2*
X6048029Y2218483D1*
X6274129Y6800965D2*
D140*
X6281373Y6808293D1*
X6292323Y6811915D1*
X6306895D1*
X6317845Y6808293D1*
X6325173Y6800965D1*
Y6793721D1*
X6321467Y6786393D1*
X6317845Y6782771D1*
X6310601Y6779149D1*
X6288701Y6771821D1*
X6281373Y6768199D1*
X6277751Y6764493D1*
X6274129Y6757249D1*
Y6746299D1*
X6281373Y6739055D1*
X6292323Y6735349D1*
X6306895D1*
X6317845Y6739055D1*
X6325173Y6746299D1*
X6206884Y6786393D2*
Y6735349D1*
Y6775443D2*
X6214128Y6782771D1*
X6221456Y6786393D1*
X6232322D1*
X6239650Y6782771D1*
X6246894Y6775443D1*
X6250600Y6764493D1*
Y6757249D1*
X6246894Y6746299D1*
X6239650Y6739055D1*
X6232322Y6735349D1*
X6221456D1*
X6214128Y6739055D1*
X6206884Y6746299D1*
X6154211Y6811915D2*
X6161455D1*
X6168783Y6808293D1*
X6172405Y6797343D1*
Y6735349D1*
X6183355Y6786393D2*
X6157833D1*
X6130681Y6764493D2*
X6086966D1*
Y6771821D1*
X6090588Y6779149D1*
X6094210Y6782771D1*
X6101538Y6786393D1*
X6112488D1*
X6119731Y6782771D1*
X6127060Y6775443D1*
X6130681Y6764493D1*
Y6757249D1*
X6127060Y6746299D1*
X6119731Y6739055D1*
X6112488Y6735349D1*
X6101538D1*
X6094210Y6739055D1*
X6086966Y6746299D1*
X6355640Y6677563D2*
X6322874D1*
X6311924Y6681269D1*
X6308218Y6684891D1*
X6304596Y6692135D1*
Y6699463D1*
X6308218Y6706707D1*
X6311924Y6710413D1*
X6322874Y6714035D1*
X6355640D1*
Y6637469D1*
X6330118Y6677563D2*
X6304596Y6637469D1*
X6281067Y6666613D2*
X6237351D1*
Y6673941D1*
X6240973Y6681269D1*
X6244595Y6684891D1*
X6251923Y6688513D1*
X6262873D1*
X6270117Y6684891D1*
X6277445Y6677563D1*
X6281067Y6666613D1*
Y6659369D1*
X6277445Y6648419D1*
X6270117Y6641175D1*
X6262873Y6637469D1*
X6251923D1*
X6244595Y6641175D1*
X6237351Y6648419D1*
X6173727Y6677563D2*
X6177349Y6684891D1*
X6188299Y6688513D1*
X6199249D1*
X6210199Y6684891D1*
X6213821Y6677563D1*
X6210199Y6670319D1*
X6202871Y6666613D1*
X6184677Y6662991D1*
X6177349Y6659369D1*
X6173727Y6652041D1*
Y6648419D1*
X6177349Y6641175D1*
X6188299Y6637469D1*
X6199249D1*
X6210199Y6641175D1*
X6213821Y6648419D1*
X6150198Y6666613D2*
X6106482D1*
Y6673941D1*
X6110104Y6681269D1*
X6113726Y6684891D1*
X6121054Y6688513D1*
X6132004D1*
X6139248Y6684891D1*
X6146576Y6677563D1*
X6150198Y6666613D1*
Y6659369D1*
X6146576Y6648419D1*
X6139248Y6641175D1*
X6132004Y6637469D1*
X6121054D1*
X6113726Y6641175D1*
X6106482Y6648419D1*
X6072003Y6714035D2*
Y6652041D1*
X6068381Y6641175D1*
X6061053Y6637469D1*
X6053809D1*
X6082953Y6688513D2*
X6057431D1*
X4435610Y3280917D2*
X4442854Y3288246D1*
X4453804Y3291867D1*
X4468376D1*
X4479326Y3288246D1*
X4486654Y3280917D1*
Y3273674D1*
X4482948Y3266346D1*
X4479326Y3262724D1*
X4472082Y3259102D1*
X4450182Y3251774D1*
X4442854Y3248152D1*
X4439232Y3244446D1*
X4435610Y3237202D1*
Y3226252D1*
X4442854Y3219008D1*
X4453804Y3215302D1*
X4468376D1*
X4479326Y3219008D1*
X4486654Y3226252D1*
X4412081Y3291867D2*
Y3215302D1*
X4366651Y3291867D2*
X4373979Y3288246D1*
X4381223Y3280917D1*
X4384929Y3273674D1*
X4388551Y3262724D1*
Y3244446D1*
X4384929Y3233580D1*
X4381223Y3226252D1*
X4373979Y3219008D1*
X4366651Y3215302D1*
X4352079D1*
X4344835Y3219008D1*
X4337507Y3226252D1*
X4333885Y3233580D1*
X4330263Y3244446D1*
Y3262724D1*
X4333885Y3273674D1*
X4337507Y3280917D1*
X4344835Y3288246D1*
X4352079Y3291867D1*
X4366651D1*
X4232666Y3255396D2*
X4199900D1*
X4188950Y3259102D1*
X4185244Y3262724D1*
X4181622Y3269967D1*
Y3277296D1*
X4185244Y3284539D1*
X4188950Y3288246D1*
X4199900Y3291867D1*
X4232666D1*
Y3215302D1*
X4207144Y3255396D2*
X4181622Y3215302D1*
X4110755Y3291867D2*
X4158093D1*
Y3215302D1*
X4110755D1*
X4158093Y3255396D2*
X4128949D1*
X4032560Y3273674D2*
X4036182Y3280917D1*
X4043510Y3288246D1*
X4050754Y3291867D1*
X4065326D1*
X4072654Y3288246D1*
X4079898Y3280917D1*
X4083604Y3273674D1*
X4087226Y3262724D1*
Y3244446D1*
X4083604Y3233580D1*
X4079898Y3226252D1*
X4072654Y3219008D1*
X4065326Y3215302D1*
X4050754D1*
X4043510Y3219008D1*
X4036182Y3226252D1*
X4032560Y3233580D1*
X3961693Y3291867D2*
X4009031D1*
Y3215302D1*
X3961693D1*
X4009031Y3255396D2*
X3979887D1*
X3938164Y3251774D2*
X3905314D1*
X3894448Y3255396D1*
X3890742Y3259102D1*
X3887120Y3266346D1*
Y3277296D1*
X3890742Y3284539D1*
X3894448Y3288246D1*
X3905314Y3291867D1*
X3938164D1*
Y3215302D1*
X3838068Y3291867D2*
Y3215302D1*
X3863590Y3291867D2*
X3812546D1*
X3730645Y3215302D2*
X3759873Y3291867D1*
X3789017Y3215302D1*
X3778067Y3240824D2*
X3741595D1*
X3652450Y3273674D2*
X3656072Y3280917D1*
X3663400Y3288246D1*
X3670644Y3291867D1*
X3685216D1*
X3692544Y3288246D1*
X3699788Y3280917D1*
X3703494Y3273674D1*
X3707116Y3262724D1*
Y3244446D1*
X3703494Y3233580D1*
X3699788Y3226252D1*
X3692544Y3219008D1*
X3685216Y3215302D1*
X3670644D1*
X3663400Y3219008D1*
X3656072Y3226252D1*
X3652450Y3233580D1*
X3628920Y3291867D2*
Y3215302D1*
X3585205D1*
X3514338Y3291867D2*
X3561675D1*
Y3215302D1*
X3514338D1*
X3561675Y3255396D2*
X3532531D1*
X3391218Y3291867D2*
Y3215302D1*
X3416740Y3291867D2*
X3365696D1*
X3342167D2*
Y3215302D1*
X3291123Y3291867D2*
Y3215302D1*
X3342167Y3255396D2*
X3291123D1*
X3267594Y3291867D2*
Y3215302D1*
X3193021Y3280917D2*
X3200264Y3288246D1*
X3211214Y3291867D1*
X3225786D1*
X3236736Y3288246D1*
X3244064Y3280917D1*
Y3273674D1*
X3240358Y3266346D1*
X3236736Y3262724D1*
X3229492Y3259102D1*
X3207592Y3251774D1*
X3200264Y3248152D1*
X3196642Y3244446D1*
X3193021Y3237202D1*
Y3226252D1*
X3200264Y3219008D1*
X3211214Y3215302D1*
X3225786D1*
X3236736Y3219008D1*
X3244064Y3226252D1*
X3044379Y3280917D2*
X3051623Y3288246D1*
X3062573Y3291867D1*
X3077145D1*
X3088095Y3288246D1*
X3095423Y3280917D1*
Y3273674D1*
X3091717Y3266346D1*
X3088095Y3262724D1*
X3080851Y3259102D1*
X3058951Y3251774D1*
X3051623Y3248152D1*
X3048001Y3244446D1*
X3044379Y3237202D1*
Y3226252D1*
X3051623Y3219008D1*
X3062573Y3215302D1*
X3077145D1*
X3088095Y3219008D1*
X3095423Y3226252D1*
X3020850Y3291867D2*
Y3215302D1*
X2997321Y3291867D2*
Y3215302D1*
X2971799D1*
X2960849Y3219008D1*
X2953521Y3226252D1*
X2949899Y3233580D1*
X2946277Y3244446D1*
Y3262724D1*
X2949899Y3273674D1*
X2953521Y3280917D1*
X2960849Y3288246D1*
X2971799Y3291867D1*
X2997321D1*
X2875410D2*
X2922747D1*
Y3215302D1*
X2875410D1*
X2922747Y3255396D2*
X2893603D1*
M02*
