G04 DipTrace 3.3.1.3*
G04 BottomMask.gbr*
%MOIN*%
G04 #@! TF.FileFunction,Soldermask,Bot*
G04 #@! TF.Part,Single*
%AMOUTLINE1*
4,1,4,
0.0,-0.052893,
-0.052893,0.0,
0.0,0.052893,
0.052893,0.0,
0.0,-0.052893,
0*%
%ADD21R,0.070866X0.070866*%
%ADD27R,0.066929X0.066929*%
%ADD28C,0.066929*%
%ADD37R,0.029528X0.062992*%
%ADD45C,0.127953*%
%ADD46C,0.049213*%
%ADD66C,0.062992*%
%ADD68C,0.067874*%
%ADD72C,0.074803*%
%ADD73R,0.074803X0.074803*%
%ADD74C,0.067874*%
%ADD76R,0.067874X0.067874*%
%ADD78R,0.057874X0.057874*%
%ADD80C,0.057874*%
%ADD82C,0.07874*%
%ADD83R,0.07874X0.07874*%
%ADD84C,0.070866*%
%ADD94OUTLINE1*%
%FSLAX26Y26*%
G04*
G70*
G90*
G75*
G01*
G04 BotMask*
%LPD*%
D21*
X1068701Y543702D3*
D84*
Y643702D3*
X1693701Y2243702D3*
D21*
X1593701D3*
D84*
X1016773Y1321851D3*
D21*
Y1421851D3*
D83*
X1768701Y543702D3*
D82*
X1333661D3*
D80*
X3252075Y690430D3*
D78*
Y590430D3*
D80*
X3259953Y2166876D3*
D78*
Y2066876D3*
D45*
X543701Y2218702D3*
Y543702D3*
X3918701D3*
Y2218702D3*
D76*
X555643Y1818702D3*
D74*
Y1718702D3*
Y1618702D3*
Y1518702D3*
Y1418702D3*
Y1318702D3*
Y1218702D3*
Y1118702D3*
Y1018702D3*
Y918702D3*
X655643D3*
Y1018702D3*
Y1118702D3*
Y1218702D3*
Y1318702D3*
Y1418702D3*
Y1518702D3*
Y1618702D3*
Y1718702D3*
Y1818702D3*
D73*
X1239126Y2243380D3*
D72*
X1139126D3*
D27*
X1039126D3*
D28*
X939126D3*
D73*
X1551316Y1718702D3*
D72*
X1651316D3*
X1551316Y1618702D3*
X1651316D3*
X1551316Y1518702D3*
X1651316D3*
X1551316Y1418702D3*
X1651316D3*
X1551316Y1318702D3*
X1651316D3*
X1551316Y1218702D3*
X1651316D3*
X1551316Y1118702D3*
X1651316D3*
X1551316Y1018702D3*
X1651316D3*
D94*
X3431280Y942117D3*
D72*
X3360568Y1012829D3*
X3289857Y1083540D3*
D73*
X2461941Y1923025D3*
D72*
Y1823025D3*
Y1723025D3*
Y1623025D3*
Y1523025D3*
Y1423025D3*
Y1323025D3*
Y1223025D3*
Y1123025D3*
D74*
X2668701Y940107D3*
D68*
X2268701D3*
D74*
Y777607D3*
D68*
X2668701D3*
D74*
X2268701Y611168D3*
D68*
X2668701D3*
D74*
X2228933Y1870144D3*
D68*
Y1470144D3*
D74*
X2268701Y2107229D3*
D68*
X2668701D3*
D66*
X3709395Y533538D3*
Y789443D3*
X3532230D3*
Y533538D3*
X3709629Y2000124D3*
Y2256030D3*
X3532463D3*
Y2000124D3*
D46*
X3902636Y1185710D3*
Y1500158D3*
D37*
X2425690Y691577D3*
X2466441D3*
X2507192D3*
D72*
X2968701Y468702D3*
Y568702D3*
Y668702D3*
Y768702D3*
Y868702D3*
Y968702D3*
Y1068702D3*
Y1168702D3*
Y1268702D3*
Y1368702D3*
Y1468702D3*
Y1568702D3*
Y1668702D3*
Y1768702D3*
Y1868702D3*
Y1968702D3*
Y2068702D3*
Y2168702D3*
Y2268702D3*
X1968701D3*
Y2168702D3*
Y2068702D3*
Y1968702D3*
Y1868702D3*
Y1768702D3*
Y1668702D3*
Y1568702D3*
Y1468702D3*
Y1368702D3*
Y1268702D3*
Y1168702D3*
Y1068702D3*
Y968702D3*
Y868702D3*
Y768702D3*
Y668702D3*
Y568702D3*
Y468702D3*
M02*
