%TF.GenerationSoftware,KiCad,Pcbnew,8.0.4*%
%TF.CreationDate,2024-08-25T21:49:16-05:00*%
%TF.ProjectId,CoCo-FujiNet-Rev0000,436f436f-2d46-4756-9a69-4e65742d5265,Rev 0000*%
%TF.SameCoordinates,Original*%
%TF.FileFunction,Legend,Bot*%
%TF.FilePolarity,Positive*%
%FSLAX46Y46*%
G04 Gerber Fmt 4.6, Leading zero omitted, Abs format (unit mm)*
G04 Created by KiCad (PCBNEW 8.0.4) date 2024-08-25 21:49:16*
%MOMM*%
%LPD*%
G01*
G04 APERTURE LIST*
%ADD10C,0.150000*%
%ADD11C,0.300000*%
%ADD12C,0.000000*%
G04 APERTURE END LIST*
D10*
X149208180Y-64936041D02*
X149684371Y-65269374D01*
X149208180Y-65507469D02*
X150208180Y-65507469D01*
X150208180Y-65507469D02*
X150208180Y-65126517D01*
X150208180Y-65126517D02*
X150160561Y-65031279D01*
X150160561Y-65031279D02*
X150112942Y-64983660D01*
X150112942Y-64983660D02*
X150017704Y-64936041D01*
X150017704Y-64936041D02*
X149874847Y-64936041D01*
X149874847Y-64936041D02*
X149779609Y-64983660D01*
X149779609Y-64983660D02*
X149731990Y-65031279D01*
X149731990Y-65031279D02*
X149684371Y-65126517D01*
X149684371Y-65126517D02*
X149684371Y-65507469D01*
X150208180Y-64602707D02*
X149208180Y-63936041D01*
X150208180Y-63936041D02*
X149208180Y-64602707D01*
D11*
X120485944Y-101034999D02*
X120414516Y-101106427D01*
X120414516Y-101106427D02*
X120343087Y-101320713D01*
X120343087Y-101320713D02*
X120343087Y-101463570D01*
X120343087Y-101463570D02*
X120414516Y-101677856D01*
X120414516Y-101677856D02*
X120557373Y-101820713D01*
X120557373Y-101820713D02*
X120700230Y-101892142D01*
X120700230Y-101892142D02*
X120985944Y-101963570D01*
X120985944Y-101963570D02*
X121200230Y-101963570D01*
X121200230Y-101963570D02*
X121485944Y-101892142D01*
X121485944Y-101892142D02*
X121628801Y-101820713D01*
X121628801Y-101820713D02*
X121771658Y-101677856D01*
X121771658Y-101677856D02*
X121843087Y-101463570D01*
X121843087Y-101463570D02*
X121843087Y-101320713D01*
X121843087Y-101320713D02*
X121771658Y-101106427D01*
X121771658Y-101106427D02*
X121700230Y-101034999D01*
X120343087Y-100177856D02*
X120414516Y-100320713D01*
X120414516Y-100320713D02*
X120485944Y-100392142D01*
X120485944Y-100392142D02*
X120628801Y-100463570D01*
X120628801Y-100463570D02*
X121057373Y-100463570D01*
X121057373Y-100463570D02*
X121200230Y-100392142D01*
X121200230Y-100392142D02*
X121271658Y-100320713D01*
X121271658Y-100320713D02*
X121343087Y-100177856D01*
X121343087Y-100177856D02*
X121343087Y-99963570D01*
X121343087Y-99963570D02*
X121271658Y-99820713D01*
X121271658Y-99820713D02*
X121200230Y-99749285D01*
X121200230Y-99749285D02*
X121057373Y-99677856D01*
X121057373Y-99677856D02*
X120628801Y-99677856D01*
X120628801Y-99677856D02*
X120485944Y-99749285D01*
X120485944Y-99749285D02*
X120414516Y-99820713D01*
X120414516Y-99820713D02*
X120343087Y-99963570D01*
X120343087Y-99963570D02*
X120343087Y-100177856D01*
X120485944Y-98177856D02*
X120414516Y-98249284D01*
X120414516Y-98249284D02*
X120343087Y-98463570D01*
X120343087Y-98463570D02*
X120343087Y-98606427D01*
X120343087Y-98606427D02*
X120414516Y-98820713D01*
X120414516Y-98820713D02*
X120557373Y-98963570D01*
X120557373Y-98963570D02*
X120700230Y-99034999D01*
X120700230Y-99034999D02*
X120985944Y-99106427D01*
X120985944Y-99106427D02*
X121200230Y-99106427D01*
X121200230Y-99106427D02*
X121485944Y-99034999D01*
X121485944Y-99034999D02*
X121628801Y-98963570D01*
X121628801Y-98963570D02*
X121771658Y-98820713D01*
X121771658Y-98820713D02*
X121843087Y-98606427D01*
X121843087Y-98606427D02*
X121843087Y-98463570D01*
X121843087Y-98463570D02*
X121771658Y-98249284D01*
X121771658Y-98249284D02*
X121700230Y-98177856D01*
X120343087Y-97320713D02*
X120414516Y-97463570D01*
X120414516Y-97463570D02*
X120485944Y-97534999D01*
X120485944Y-97534999D02*
X120628801Y-97606427D01*
X120628801Y-97606427D02*
X121057373Y-97606427D01*
X121057373Y-97606427D02*
X121200230Y-97534999D01*
X121200230Y-97534999D02*
X121271658Y-97463570D01*
X121271658Y-97463570D02*
X121343087Y-97320713D01*
X121343087Y-97320713D02*
X121343087Y-97106427D01*
X121343087Y-97106427D02*
X121271658Y-96963570D01*
X121271658Y-96963570D02*
X121200230Y-96892142D01*
X121200230Y-96892142D02*
X121057373Y-96820713D01*
X121057373Y-96820713D02*
X120628801Y-96820713D01*
X120628801Y-96820713D02*
X120485944Y-96892142D01*
X120485944Y-96892142D02*
X120414516Y-96963570D01*
X120414516Y-96963570D02*
X120343087Y-97106427D01*
X120343087Y-97106427D02*
X120343087Y-97320713D01*
X121128801Y-94534999D02*
X121128801Y-95034999D01*
X120343087Y-95034999D02*
X121843087Y-95034999D01*
X121843087Y-95034999D02*
X121843087Y-94320713D01*
X121343087Y-93106428D02*
X120343087Y-93106428D01*
X121343087Y-93749285D02*
X120557373Y-93749285D01*
X120557373Y-93749285D02*
X120414516Y-93677856D01*
X120414516Y-93677856D02*
X120343087Y-93534999D01*
X120343087Y-93534999D02*
X120343087Y-93320713D01*
X120343087Y-93320713D02*
X120414516Y-93177856D01*
X120414516Y-93177856D02*
X120485944Y-93106428D01*
X121343087Y-92392142D02*
X120057373Y-92392142D01*
X120057373Y-92392142D02*
X119914516Y-92463570D01*
X119914516Y-92463570D02*
X119843087Y-92606427D01*
X119843087Y-92606427D02*
X119843087Y-92677856D01*
X121843087Y-92392142D02*
X121771658Y-92463570D01*
X121771658Y-92463570D02*
X121700230Y-92392142D01*
X121700230Y-92392142D02*
X121771658Y-92320713D01*
X121771658Y-92320713D02*
X121843087Y-92392142D01*
X121843087Y-92392142D02*
X121700230Y-92392142D01*
X120343087Y-91677856D02*
X121343087Y-91677856D01*
X121843087Y-91677856D02*
X121771658Y-91749284D01*
X121771658Y-91749284D02*
X121700230Y-91677856D01*
X121700230Y-91677856D02*
X121771658Y-91606427D01*
X121771658Y-91606427D02*
X121843087Y-91677856D01*
X121843087Y-91677856D02*
X121700230Y-91677856D01*
X120343087Y-90963570D02*
X121843087Y-90963570D01*
X121843087Y-90963570D02*
X120343087Y-90106427D01*
X120343087Y-90106427D02*
X121843087Y-90106427D01*
X120414516Y-88820712D02*
X120343087Y-88963569D01*
X120343087Y-88963569D02*
X120343087Y-89249284D01*
X120343087Y-89249284D02*
X120414516Y-89392141D01*
X120414516Y-89392141D02*
X120557373Y-89463569D01*
X120557373Y-89463569D02*
X121128801Y-89463569D01*
X121128801Y-89463569D02*
X121271658Y-89392141D01*
X121271658Y-89392141D02*
X121343087Y-89249284D01*
X121343087Y-89249284D02*
X121343087Y-88963569D01*
X121343087Y-88963569D02*
X121271658Y-88820712D01*
X121271658Y-88820712D02*
X121128801Y-88749284D01*
X121128801Y-88749284D02*
X120985944Y-88749284D01*
X120985944Y-88749284D02*
X120843087Y-89463569D01*
X121343087Y-88320712D02*
X121343087Y-87749284D01*
X121843087Y-88106427D02*
X120557373Y-88106427D01*
X120557373Y-88106427D02*
X120414516Y-88034998D01*
X120414516Y-88034998D02*
X120343087Y-87892141D01*
X120343087Y-87892141D02*
X120343087Y-87749284D01*
X120343087Y-85249284D02*
X121057373Y-85749284D01*
X120343087Y-86106427D02*
X121843087Y-86106427D01*
X121843087Y-86106427D02*
X121843087Y-85534998D01*
X121843087Y-85534998D02*
X121771658Y-85392141D01*
X121771658Y-85392141D02*
X121700230Y-85320712D01*
X121700230Y-85320712D02*
X121557373Y-85249284D01*
X121557373Y-85249284D02*
X121343087Y-85249284D01*
X121343087Y-85249284D02*
X121200230Y-85320712D01*
X121200230Y-85320712D02*
X121128801Y-85392141D01*
X121128801Y-85392141D02*
X121057373Y-85534998D01*
X121057373Y-85534998D02*
X121057373Y-86106427D01*
X120414516Y-84034998D02*
X120343087Y-84177855D01*
X120343087Y-84177855D02*
X120343087Y-84463570D01*
X120343087Y-84463570D02*
X120414516Y-84606427D01*
X120414516Y-84606427D02*
X120557373Y-84677855D01*
X120557373Y-84677855D02*
X121128801Y-84677855D01*
X121128801Y-84677855D02*
X121271658Y-84606427D01*
X121271658Y-84606427D02*
X121343087Y-84463570D01*
X121343087Y-84463570D02*
X121343087Y-84177855D01*
X121343087Y-84177855D02*
X121271658Y-84034998D01*
X121271658Y-84034998D02*
X121128801Y-83963570D01*
X121128801Y-83963570D02*
X120985944Y-83963570D01*
X120985944Y-83963570D02*
X120843087Y-84677855D01*
X121343087Y-83463570D02*
X120343087Y-83106427D01*
X120343087Y-83106427D02*
X121343087Y-82749284D01*
X121843087Y-81892141D02*
X121843087Y-81749284D01*
X121843087Y-81749284D02*
X121771658Y-81606427D01*
X121771658Y-81606427D02*
X121700230Y-81534999D01*
X121700230Y-81534999D02*
X121557373Y-81463570D01*
X121557373Y-81463570D02*
X121271658Y-81392141D01*
X121271658Y-81392141D02*
X120914516Y-81392141D01*
X120914516Y-81392141D02*
X120628801Y-81463570D01*
X120628801Y-81463570D02*
X120485944Y-81534999D01*
X120485944Y-81534999D02*
X120414516Y-81606427D01*
X120414516Y-81606427D02*
X120343087Y-81749284D01*
X120343087Y-81749284D02*
X120343087Y-81892141D01*
X120343087Y-81892141D02*
X120414516Y-82034999D01*
X120414516Y-82034999D02*
X120485944Y-82106427D01*
X120485944Y-82106427D02*
X120628801Y-82177856D01*
X120628801Y-82177856D02*
X120914516Y-82249284D01*
X120914516Y-82249284D02*
X121271658Y-82249284D01*
X121271658Y-82249284D02*
X121557373Y-82177856D01*
X121557373Y-82177856D02*
X121700230Y-82106427D01*
X121700230Y-82106427D02*
X121771658Y-82034999D01*
X121771658Y-82034999D02*
X121843087Y-81892141D01*
X121843087Y-80463570D02*
X121843087Y-80320713D01*
X121843087Y-80320713D02*
X121771658Y-80177856D01*
X121771658Y-80177856D02*
X121700230Y-80106428D01*
X121700230Y-80106428D02*
X121557373Y-80034999D01*
X121557373Y-80034999D02*
X121271658Y-79963570D01*
X121271658Y-79963570D02*
X120914516Y-79963570D01*
X120914516Y-79963570D02*
X120628801Y-80034999D01*
X120628801Y-80034999D02*
X120485944Y-80106428D01*
X120485944Y-80106428D02*
X120414516Y-80177856D01*
X120414516Y-80177856D02*
X120343087Y-80320713D01*
X120343087Y-80320713D02*
X120343087Y-80463570D01*
X120343087Y-80463570D02*
X120414516Y-80606428D01*
X120414516Y-80606428D02*
X120485944Y-80677856D01*
X120485944Y-80677856D02*
X120628801Y-80749285D01*
X120628801Y-80749285D02*
X120914516Y-80820713D01*
X120914516Y-80820713D02*
X121271658Y-80820713D01*
X121271658Y-80820713D02*
X121557373Y-80749285D01*
X121557373Y-80749285D02*
X121700230Y-80677856D01*
X121700230Y-80677856D02*
X121771658Y-80606428D01*
X121771658Y-80606428D02*
X121843087Y-80463570D01*
X121843087Y-79034999D02*
X121843087Y-78892142D01*
X121843087Y-78892142D02*
X121771658Y-78749285D01*
X121771658Y-78749285D02*
X121700230Y-78677857D01*
X121700230Y-78677857D02*
X121557373Y-78606428D01*
X121557373Y-78606428D02*
X121271658Y-78534999D01*
X121271658Y-78534999D02*
X120914516Y-78534999D01*
X120914516Y-78534999D02*
X120628801Y-78606428D01*
X120628801Y-78606428D02*
X120485944Y-78677857D01*
X120485944Y-78677857D02*
X120414516Y-78749285D01*
X120414516Y-78749285D02*
X120343087Y-78892142D01*
X120343087Y-78892142D02*
X120343087Y-79034999D01*
X120343087Y-79034999D02*
X120414516Y-79177857D01*
X120414516Y-79177857D02*
X120485944Y-79249285D01*
X120485944Y-79249285D02*
X120628801Y-79320714D01*
X120628801Y-79320714D02*
X120914516Y-79392142D01*
X120914516Y-79392142D02*
X121271658Y-79392142D01*
X121271658Y-79392142D02*
X121557373Y-79320714D01*
X121557373Y-79320714D02*
X121700230Y-79249285D01*
X121700230Y-79249285D02*
X121771658Y-79177857D01*
X121771658Y-79177857D02*
X121843087Y-79034999D01*
X121843087Y-77606428D02*
X121843087Y-77463571D01*
X121843087Y-77463571D02*
X121771658Y-77320714D01*
X121771658Y-77320714D02*
X121700230Y-77249286D01*
X121700230Y-77249286D02*
X121557373Y-77177857D01*
X121557373Y-77177857D02*
X121271658Y-77106428D01*
X121271658Y-77106428D02*
X120914516Y-77106428D01*
X120914516Y-77106428D02*
X120628801Y-77177857D01*
X120628801Y-77177857D02*
X120485944Y-77249286D01*
X120485944Y-77249286D02*
X120414516Y-77320714D01*
X120414516Y-77320714D02*
X120343087Y-77463571D01*
X120343087Y-77463571D02*
X120343087Y-77606428D01*
X120343087Y-77606428D02*
X120414516Y-77749286D01*
X120414516Y-77749286D02*
X120485944Y-77820714D01*
X120485944Y-77820714D02*
X120628801Y-77892143D01*
X120628801Y-77892143D02*
X120914516Y-77963571D01*
X120914516Y-77963571D02*
X121271658Y-77963571D01*
X121271658Y-77963571D02*
X121557373Y-77892143D01*
X121557373Y-77892143D02*
X121700230Y-77820714D01*
X121700230Y-77820714D02*
X121771658Y-77749286D01*
X121771658Y-77749286D02*
X121843087Y-77606428D01*
X118928171Y-100142144D02*
X118928171Y-99570716D01*
X117928171Y-99927859D02*
X119213885Y-99927859D01*
X119213885Y-99927859D02*
X119356742Y-99856430D01*
X119356742Y-99856430D02*
X119428171Y-99713573D01*
X119428171Y-99713573D02*
X119428171Y-99570716D01*
X118928171Y-98427859D02*
X117928171Y-98427859D01*
X118928171Y-99070716D02*
X118142457Y-99070716D01*
X118142457Y-99070716D02*
X117999600Y-98999287D01*
X117999600Y-98999287D02*
X117928171Y-98856430D01*
X117928171Y-98856430D02*
X117928171Y-98642144D01*
X117928171Y-98642144D02*
X117999600Y-98499287D01*
X117999600Y-98499287D02*
X118071028Y-98427859D01*
X118928171Y-97713573D02*
X117642457Y-97713573D01*
X117642457Y-97713573D02*
X117499600Y-97785001D01*
X117499600Y-97785001D02*
X117428171Y-97927858D01*
X117428171Y-97927858D02*
X117428171Y-97999287D01*
X119428171Y-97713573D02*
X119356742Y-97785001D01*
X119356742Y-97785001D02*
X119285314Y-97713573D01*
X119285314Y-97713573D02*
X119356742Y-97642144D01*
X119356742Y-97642144D02*
X119428171Y-97713573D01*
X119428171Y-97713573D02*
X119285314Y-97713573D01*
X117928171Y-96999287D02*
X118928171Y-96999287D01*
X119428171Y-96999287D02*
X119356742Y-97070715D01*
X119356742Y-97070715D02*
X119285314Y-96999287D01*
X119285314Y-96999287D02*
X119356742Y-96927858D01*
X119356742Y-96927858D02*
X119428171Y-96999287D01*
X119428171Y-96999287D02*
X119285314Y-96999287D01*
X118928171Y-96285001D02*
X117928171Y-96285001D01*
X118785314Y-96285001D02*
X118856742Y-96213572D01*
X118856742Y-96213572D02*
X118928171Y-96070715D01*
X118928171Y-96070715D02*
X118928171Y-95856429D01*
X118928171Y-95856429D02*
X118856742Y-95713572D01*
X118856742Y-95713572D02*
X118713885Y-95642144D01*
X118713885Y-95642144D02*
X117928171Y-95642144D01*
X117999600Y-94356429D02*
X117928171Y-94499286D01*
X117928171Y-94499286D02*
X117928171Y-94785001D01*
X117928171Y-94785001D02*
X117999600Y-94927858D01*
X117999600Y-94927858D02*
X118142457Y-94999286D01*
X118142457Y-94999286D02*
X118713885Y-94999286D01*
X118713885Y-94999286D02*
X118856742Y-94927858D01*
X118856742Y-94927858D02*
X118928171Y-94785001D01*
X118928171Y-94785001D02*
X118928171Y-94499286D01*
X118928171Y-94499286D02*
X118856742Y-94356429D01*
X118856742Y-94356429D02*
X118713885Y-94285001D01*
X118713885Y-94285001D02*
X118571028Y-94285001D01*
X118571028Y-94285001D02*
X118428171Y-94999286D01*
X118928171Y-93856429D02*
X118928171Y-93285001D01*
X119428171Y-93642144D02*
X118142457Y-93642144D01*
X118142457Y-93642144D02*
X117999600Y-93570715D01*
X117999600Y-93570715D02*
X117928171Y-93427858D01*
X117928171Y-93427858D02*
X117928171Y-93285001D01*
X118928171Y-92927858D02*
X117928171Y-92642144D01*
X117928171Y-92642144D02*
X118642457Y-92356429D01*
X118642457Y-92356429D02*
X117928171Y-92070715D01*
X117928171Y-92070715D02*
X118928171Y-91785001D01*
X117928171Y-91213572D02*
X118928171Y-91213572D01*
X119428171Y-91213572D02*
X119356742Y-91285000D01*
X119356742Y-91285000D02*
X119285314Y-91213572D01*
X119285314Y-91213572D02*
X119356742Y-91142143D01*
X119356742Y-91142143D02*
X119428171Y-91213572D01*
X119428171Y-91213572D02*
X119285314Y-91213572D01*
X118928171Y-90713571D02*
X118928171Y-90142143D01*
X117928171Y-90499286D02*
X119213885Y-90499286D01*
X119213885Y-90499286D02*
X119356742Y-90427857D01*
X119356742Y-90427857D02*
X119428171Y-90285000D01*
X119428171Y-90285000D02*
X119428171Y-90142143D01*
X117928171Y-89642143D02*
X118928171Y-89642143D01*
X119428171Y-89642143D02*
X119356742Y-89713571D01*
X119356742Y-89713571D02*
X119285314Y-89642143D01*
X119285314Y-89642143D02*
X119356742Y-89570714D01*
X119356742Y-89570714D02*
X119428171Y-89642143D01*
X119428171Y-89642143D02*
X119285314Y-89642143D01*
X118071028Y-88927857D02*
X117999600Y-88856428D01*
X117999600Y-88856428D02*
X117928171Y-88927857D01*
X117928171Y-88927857D02*
X117999600Y-88999285D01*
X117999600Y-88999285D02*
X118071028Y-88927857D01*
X118071028Y-88927857D02*
X117928171Y-88927857D01*
X118928171Y-87570714D02*
X117713885Y-87570714D01*
X117713885Y-87570714D02*
X117571028Y-87642142D01*
X117571028Y-87642142D02*
X117499600Y-87713571D01*
X117499600Y-87713571D02*
X117428171Y-87856428D01*
X117428171Y-87856428D02*
X117428171Y-88070714D01*
X117428171Y-88070714D02*
X117499600Y-88213571D01*
X117999600Y-87570714D02*
X117928171Y-87713571D01*
X117928171Y-87713571D02*
X117928171Y-87999285D01*
X117928171Y-87999285D02*
X117999600Y-88142142D01*
X117999600Y-88142142D02*
X118071028Y-88213571D01*
X118071028Y-88213571D02*
X118213885Y-88284999D01*
X118213885Y-88284999D02*
X118642457Y-88284999D01*
X118642457Y-88284999D02*
X118785314Y-88213571D01*
X118785314Y-88213571D02*
X118856742Y-88142142D01*
X118856742Y-88142142D02*
X118928171Y-87999285D01*
X118928171Y-87999285D02*
X118928171Y-87713571D01*
X118928171Y-87713571D02*
X118856742Y-87570714D01*
X117928171Y-86856428D02*
X118928171Y-86856428D01*
X119428171Y-86856428D02*
X119356742Y-86927856D01*
X119356742Y-86927856D02*
X119285314Y-86856428D01*
X119285314Y-86856428D02*
X119356742Y-86784999D01*
X119356742Y-86784999D02*
X119428171Y-86856428D01*
X119428171Y-86856428D02*
X119285314Y-86856428D01*
X118928171Y-86356427D02*
X118928171Y-85784999D01*
X119428171Y-86142142D02*
X118142457Y-86142142D01*
X118142457Y-86142142D02*
X117999600Y-86070713D01*
X117999600Y-86070713D02*
X117928171Y-85927856D01*
X117928171Y-85927856D02*
X117928171Y-85784999D01*
X117928171Y-85284999D02*
X119428171Y-85284999D01*
X117928171Y-84642142D02*
X118713885Y-84642142D01*
X118713885Y-84642142D02*
X118856742Y-84713570D01*
X118856742Y-84713570D02*
X118928171Y-84856427D01*
X118928171Y-84856427D02*
X118928171Y-85070713D01*
X118928171Y-85070713D02*
X118856742Y-85213570D01*
X118856742Y-85213570D02*
X118785314Y-85284999D01*
X118928171Y-83284999D02*
X117928171Y-83284999D01*
X118928171Y-83927856D02*
X118142457Y-83927856D01*
X118142457Y-83927856D02*
X117999600Y-83856427D01*
X117999600Y-83856427D02*
X117928171Y-83713570D01*
X117928171Y-83713570D02*
X117928171Y-83499284D01*
X117928171Y-83499284D02*
X117999600Y-83356427D01*
X117999600Y-83356427D02*
X118071028Y-83284999D01*
X117928171Y-82570713D02*
X119428171Y-82570713D01*
X118856742Y-82570713D02*
X118928171Y-82427856D01*
X118928171Y-82427856D02*
X118928171Y-82142141D01*
X118928171Y-82142141D02*
X118856742Y-81999284D01*
X118856742Y-81999284D02*
X118785314Y-81927856D01*
X118785314Y-81927856D02*
X118642457Y-81856427D01*
X118642457Y-81856427D02*
X118213885Y-81856427D01*
X118213885Y-81856427D02*
X118071028Y-81927856D01*
X118071028Y-81927856D02*
X117999600Y-81999284D01*
X117999600Y-81999284D02*
X117928171Y-82142141D01*
X117928171Y-82142141D02*
X117928171Y-82427856D01*
X117928171Y-82427856D02*
X117999600Y-82570713D01*
X118071028Y-81213570D02*
X117999600Y-81142141D01*
X117999600Y-81142141D02*
X117928171Y-81213570D01*
X117928171Y-81213570D02*
X117999600Y-81284998D01*
X117999600Y-81284998D02*
X118071028Y-81213570D01*
X118071028Y-81213570D02*
X117928171Y-81213570D01*
X117928171Y-80499284D02*
X118928171Y-80499284D01*
X119428171Y-80499284D02*
X119356742Y-80570712D01*
X119356742Y-80570712D02*
X119285314Y-80499284D01*
X119285314Y-80499284D02*
X119356742Y-80427855D01*
X119356742Y-80427855D02*
X119428171Y-80499284D01*
X119428171Y-80499284D02*
X119285314Y-80499284D01*
X117928171Y-79570712D02*
X117999600Y-79713569D01*
X117999600Y-79713569D02*
X118071028Y-79784998D01*
X118071028Y-79784998D02*
X118213885Y-79856426D01*
X118213885Y-79856426D02*
X118642457Y-79856426D01*
X118642457Y-79856426D02*
X118785314Y-79784998D01*
X118785314Y-79784998D02*
X118856742Y-79713569D01*
X118856742Y-79713569D02*
X118928171Y-79570712D01*
X118928171Y-79570712D02*
X118928171Y-79356426D01*
X118928171Y-79356426D02*
X118856742Y-79213569D01*
X118856742Y-79213569D02*
X118785314Y-79142141D01*
X118785314Y-79142141D02*
X118642457Y-79070712D01*
X118642457Y-79070712D02*
X118213885Y-79070712D01*
X118213885Y-79070712D02*
X118071028Y-79142141D01*
X118071028Y-79142141D02*
X117999600Y-79213569D01*
X117999600Y-79213569D02*
X117928171Y-79356426D01*
X117928171Y-79356426D02*
X117928171Y-79570712D01*
D10*
X152700561Y-64738911D02*
X152748180Y-64834149D01*
X152748180Y-64834149D02*
X152748180Y-64977006D01*
X152748180Y-64977006D02*
X152700561Y-65119863D01*
X152700561Y-65119863D02*
X152605323Y-65215101D01*
X152605323Y-65215101D02*
X152510085Y-65262720D01*
X152510085Y-65262720D02*
X152319609Y-65310339D01*
X152319609Y-65310339D02*
X152176752Y-65310339D01*
X152176752Y-65310339D02*
X151986276Y-65262720D01*
X151986276Y-65262720D02*
X151891038Y-65215101D01*
X151891038Y-65215101D02*
X151795800Y-65119863D01*
X151795800Y-65119863D02*
X151748180Y-64977006D01*
X151748180Y-64977006D02*
X151748180Y-64881768D01*
X151748180Y-64881768D02*
X151795800Y-64738911D01*
X151795800Y-64738911D02*
X151843419Y-64691292D01*
X151843419Y-64691292D02*
X152176752Y-64691292D01*
X152176752Y-64691292D02*
X152176752Y-64881768D01*
X151748180Y-64262720D02*
X152748180Y-64262720D01*
X152748180Y-64262720D02*
X151748180Y-63691292D01*
X151748180Y-63691292D02*
X152748180Y-63691292D01*
X151748180Y-63215101D02*
X152748180Y-63215101D01*
X152748180Y-63215101D02*
X152748180Y-62977006D01*
X152748180Y-62977006D02*
X152700561Y-62834149D01*
X152700561Y-62834149D02*
X152605323Y-62738911D01*
X152605323Y-62738911D02*
X152510085Y-62691292D01*
X152510085Y-62691292D02*
X152319609Y-62643673D01*
X152319609Y-62643673D02*
X152176752Y-62643673D01*
X152176752Y-62643673D02*
X151986276Y-62691292D01*
X151986276Y-62691292D02*
X151891038Y-62738911D01*
X151891038Y-62738911D02*
X151795800Y-62834149D01*
X151795800Y-62834149D02*
X151748180Y-62977006D01*
X151748180Y-62977006D02*
X151748180Y-63215101D01*
X156923419Y-64729660D02*
X156875800Y-64777279D01*
X156875800Y-64777279D02*
X156828180Y-64920136D01*
X156828180Y-64920136D02*
X156828180Y-65015374D01*
X156828180Y-65015374D02*
X156875800Y-65158231D01*
X156875800Y-65158231D02*
X156971038Y-65253469D01*
X156971038Y-65253469D02*
X157066276Y-65301088D01*
X157066276Y-65301088D02*
X157256752Y-65348707D01*
X157256752Y-65348707D02*
X157399609Y-65348707D01*
X157399609Y-65348707D02*
X157590085Y-65301088D01*
X157590085Y-65301088D02*
X157685323Y-65253469D01*
X157685323Y-65253469D02*
X157780561Y-65158231D01*
X157780561Y-65158231D02*
X157828180Y-65015374D01*
X157828180Y-65015374D02*
X157828180Y-64920136D01*
X157828180Y-64920136D02*
X157780561Y-64777279D01*
X157780561Y-64777279D02*
X157732942Y-64729660D01*
X156828180Y-64301088D02*
X157828180Y-64301088D01*
X157828180Y-64301088D02*
X157828180Y-64062993D01*
X157828180Y-64062993D02*
X157780561Y-63920136D01*
X157780561Y-63920136D02*
X157685323Y-63824898D01*
X157685323Y-63824898D02*
X157590085Y-63777279D01*
X157590085Y-63777279D02*
X157399609Y-63729660D01*
X157399609Y-63729660D02*
X157256752Y-63729660D01*
X157256752Y-63729660D02*
X157066276Y-63777279D01*
X157066276Y-63777279D02*
X156971038Y-63824898D01*
X156971038Y-63824898D02*
X156875800Y-63920136D01*
X156875800Y-63920136D02*
X156828180Y-64062993D01*
X156828180Y-64062993D02*
X156828180Y-64301088D01*
X155288180Y-65412231D02*
X155288180Y-64840803D01*
X154288180Y-65126517D02*
X155288180Y-65126517D01*
X155288180Y-64602707D02*
X154288180Y-63936041D01*
X155288180Y-63936041D02*
X154288180Y-64602707D01*
X108607152Y-113794035D02*
X109273819Y-113794035D01*
X108226200Y-113555940D02*
X108940485Y-113317845D01*
X108940485Y-113317845D02*
X108940485Y-113936892D01*
X108273819Y-114508321D02*
X108273819Y-114603559D01*
X108273819Y-114603559D02*
X108321438Y-114698797D01*
X108321438Y-114698797D02*
X108369057Y-114746416D01*
X108369057Y-114746416D02*
X108464295Y-114794035D01*
X108464295Y-114794035D02*
X108654771Y-114841654D01*
X108654771Y-114841654D02*
X108892866Y-114841654D01*
X108892866Y-114841654D02*
X109083342Y-114794035D01*
X109083342Y-114794035D02*
X109178580Y-114746416D01*
X109178580Y-114746416D02*
X109226200Y-114698797D01*
X109226200Y-114698797D02*
X109273819Y-114603559D01*
X109273819Y-114603559D02*
X109273819Y-114508321D01*
X109273819Y-114508321D02*
X109226200Y-114413083D01*
X109226200Y-114413083D02*
X109178580Y-114365464D01*
X109178580Y-114365464D02*
X109083342Y-114317845D01*
X109083342Y-114317845D02*
X108892866Y-114270226D01*
X108892866Y-114270226D02*
X108654771Y-114270226D01*
X108654771Y-114270226D02*
X108464295Y-114317845D01*
X108464295Y-114317845D02*
X108369057Y-114365464D01*
X108369057Y-114365464D02*
X108321438Y-114413083D01*
X108321438Y-114413083D02*
X108273819Y-114508321D01*
X108369057Y-65534036D02*
X108321438Y-65581655D01*
X108321438Y-65581655D02*
X108273819Y-65676893D01*
X108273819Y-65676893D02*
X108273819Y-65914988D01*
X108273819Y-65914988D02*
X108321438Y-66010226D01*
X108321438Y-66010226D02*
X108369057Y-66057845D01*
X108369057Y-66057845D02*
X108464295Y-66105464D01*
X108464295Y-66105464D02*
X108559533Y-66105464D01*
X108559533Y-66105464D02*
X108702390Y-66057845D01*
X108702390Y-66057845D02*
X109273819Y-65486417D01*
X109273819Y-65486417D02*
X109273819Y-66105464D01*
D12*
%TO.C,G\u002A\u002A\u002A*%
G36*
X145884347Y-91781121D02*
G01*
X145884347Y-91919165D01*
X144795338Y-91919165D01*
X143706328Y-91919165D01*
X143706328Y-91781121D01*
X143706328Y-91643078D01*
X144795338Y-91643078D01*
X145884347Y-91643078D01*
X145884347Y-91781121D01*
G37*
G36*
X145884347Y-82576459D02*
G01*
X145884347Y-83329793D01*
X145746304Y-83329793D01*
X145608260Y-83329793D01*
X145608260Y-83023029D01*
X145608260Y-82716266D01*
X144655530Y-82716266D01*
X143702800Y-82716266D01*
X143712233Y-82585892D01*
X143721666Y-82455517D01*
X144663858Y-82447406D01*
X145606049Y-82439296D01*
X145614824Y-82140643D01*
X145623599Y-81841991D01*
X145753973Y-81832558D01*
X145884347Y-81823125D01*
X145884347Y-82576459D01*
G37*
G36*
X145025410Y-96060469D02*
G01*
X145025410Y-96489938D01*
X145332173Y-96489938D01*
X145638937Y-96489938D01*
X145638937Y-96060469D01*
X145638937Y-95631000D01*
X145761642Y-95631000D01*
X145884347Y-95631000D01*
X145884347Y-96198512D01*
X145884347Y-96766024D01*
X144793574Y-96766024D01*
X143702800Y-96766024D01*
X143712233Y-96635650D01*
X143721666Y-96505276D01*
X144250833Y-96496882D01*
X144780000Y-96488489D01*
X144780000Y-96059745D01*
X144780000Y-95631000D01*
X144902705Y-95631000D01*
X145025410Y-95631000D01*
X145025410Y-96060469D01*
G37*
G36*
X144911227Y-83519798D02*
G01*
X145040748Y-83529189D01*
X145049267Y-83967466D01*
X145057785Y-84405744D01*
X145340692Y-84396935D01*
X145623599Y-84388126D01*
X145632110Y-83950988D01*
X145640621Y-83513851D01*
X145762484Y-83513851D01*
X145884347Y-83513851D01*
X145884347Y-84096701D01*
X145884347Y-84679551D01*
X144815789Y-84679551D01*
X144603765Y-84679146D01*
X144369644Y-84677688D01*
X144161190Y-84675299D01*
X143985540Y-84672112D01*
X143849829Y-84668260D01*
X143761197Y-84663878D01*
X143726779Y-84659100D01*
X143720555Y-84626088D01*
X143714860Y-84541088D01*
X143710356Y-84414407D01*
X143707394Y-84256107D01*
X143706328Y-84076250D01*
X143706328Y-83513851D01*
X143844372Y-83513851D01*
X143982415Y-83513851D01*
X143982415Y-83959574D01*
X143982415Y-84405297D01*
X144373538Y-84396712D01*
X144764661Y-84388126D01*
X144773183Y-83949266D01*
X144781705Y-83510406D01*
X144911227Y-83519798D01*
G37*
G36*
X145884347Y-85292568D02*
G01*
X145884347Y-85414764D01*
X145086552Y-85422943D01*
X144288757Y-85431121D01*
X145117228Y-86191075D01*
X145121045Y-86194577D01*
X145309652Y-86368417D01*
X145483042Y-86529773D01*
X145636186Y-86673848D01*
X145764053Y-86795844D01*
X145861615Y-86890962D01*
X145923840Y-86954405D01*
X145945700Y-86981374D01*
X145944385Y-86983298D01*
X145901516Y-86991470D01*
X145799426Y-86997778D01*
X145639855Y-87002186D01*
X145424546Y-87004660D01*
X145155241Y-87005165D01*
X144833683Y-87003666D01*
X143721666Y-86995614D01*
X143712258Y-86865752D01*
X143702851Y-86735891D01*
X144496489Y-86727709D01*
X145290127Y-86719527D01*
X144467551Y-85956985D01*
X144463671Y-85953388D01*
X144276425Y-85779478D01*
X144104286Y-85618988D01*
X143952249Y-85476620D01*
X143825307Y-85357077D01*
X143728451Y-85265059D01*
X143666677Y-85205269D01*
X143644975Y-85182408D01*
X143644987Y-85182353D01*
X143675667Y-85179613D01*
X143760767Y-85177094D01*
X143893491Y-85174869D01*
X144067040Y-85173011D01*
X144274617Y-85171594D01*
X144509423Y-85170690D01*
X144764661Y-85170372D01*
X145884347Y-85170372D01*
X145884347Y-85292568D01*
G37*
G36*
X145878442Y-92540360D02*
G01*
X145869009Y-92670735D01*
X144945701Y-92686073D01*
X144936785Y-92686221D01*
X144660982Y-92691431D01*
X144440664Y-92697072D01*
X144270126Y-92703480D01*
X144143667Y-92710992D01*
X144055582Y-92719944D01*
X144000170Y-92730672D01*
X143971728Y-92743513D01*
X143943326Y-92780467D01*
X143923135Y-92869009D01*
X143936425Y-92970821D01*
X143982415Y-93062559D01*
X143984683Y-93065459D01*
X144026489Y-93125894D01*
X144043768Y-93164417D01*
X144025180Y-93203702D01*
X143975727Y-93259853D01*
X143917251Y-93309128D01*
X143871789Y-93330276D01*
X143868951Y-93330098D01*
X143822914Y-93301138D01*
X143766445Y-93234849D01*
X143712444Y-93148808D01*
X143673815Y-93060589D01*
X143670275Y-93048160D01*
X143658615Y-92941020D01*
X143665911Y-92812429D01*
X143689111Y-92689726D01*
X143725167Y-92600248D01*
X143728243Y-92595698D01*
X143789363Y-92530193D01*
X143869046Y-92469989D01*
X143869151Y-92469925D01*
X143900021Y-92453175D01*
X143936236Y-92439876D01*
X143984797Y-92429630D01*
X144052704Y-92422042D01*
X144146960Y-92416715D01*
X144274564Y-92413254D01*
X144442517Y-92411262D01*
X144657821Y-92410343D01*
X144927476Y-92410101D01*
X145887875Y-92409986D01*
X145878442Y-92540360D01*
G37*
G36*
X145884347Y-93711472D02*
G01*
X145884347Y-93847257D01*
X145079094Y-93857184D01*
X145060113Y-93857419D01*
X144818427Y-93860761D01*
X144629696Y-93864454D01*
X144486068Y-93869115D01*
X144379691Y-93875358D01*
X144302716Y-93883799D01*
X144247289Y-93895054D01*
X144205561Y-93909737D01*
X144169680Y-93928464D01*
X144116618Y-93961860D01*
X144027119Y-94038599D01*
X143971985Y-94130454D01*
X143944113Y-94252368D01*
X143936401Y-94419285D01*
X143938486Y-94515549D01*
X143956458Y-94658233D01*
X143998674Y-94762309D01*
X144072122Y-94841645D01*
X144183791Y-94910107D01*
X144220941Y-94927207D01*
X144267242Y-94942430D01*
X144326279Y-94954093D01*
X144406155Y-94962823D01*
X144514973Y-94969252D01*
X144660835Y-94974009D01*
X144851844Y-94977724D01*
X145096103Y-94981026D01*
X145887690Y-94990593D01*
X145878349Y-95119070D01*
X145869009Y-95247546D01*
X145056087Y-95247546D01*
X144804728Y-95247014D01*
X144584444Y-95244502D01*
X144410473Y-95238812D01*
X144274997Y-95228750D01*
X144170203Y-95213120D01*
X144088275Y-95190727D01*
X144021396Y-95160377D01*
X143961752Y-95120875D01*
X143901526Y-95071025D01*
X143824688Y-94994008D01*
X143732429Y-94850286D01*
X143675163Y-94670021D01*
X143665615Y-94610489D01*
X143658372Y-94453165D01*
X143668526Y-94281077D01*
X143693956Y-94119264D01*
X143732541Y-93992765D01*
X143747499Y-93962743D01*
X143817413Y-93858546D01*
X143900175Y-93768730D01*
X143930583Y-93742969D01*
X143999167Y-93693610D01*
X144074643Y-93654865D01*
X144164786Y-93625492D01*
X144277372Y-93604247D01*
X144420178Y-93589887D01*
X144600979Y-93581169D01*
X144827550Y-93576850D01*
X145107669Y-93575686D01*
X145884347Y-93575686D01*
X145884347Y-93711472D01*
G37*
G36*
X143001083Y-86681260D02*
G01*
X143016041Y-86750551D01*
X143025244Y-86849901D01*
X143034376Y-87041628D01*
X143324338Y-87041628D01*
X143381223Y-87042102D01*
X143504389Y-87047412D01*
X143585242Y-87057814D01*
X143614299Y-87072305D01*
X143609655Y-87078419D01*
X143559069Y-87091403D01*
X143460335Y-87099921D01*
X143322874Y-87102981D01*
X143031449Y-87102981D01*
X143031449Y-87625880D01*
X143031449Y-88148779D01*
X143235540Y-88139709D01*
X143439631Y-88130638D01*
X143481796Y-88008521D01*
X143490127Y-87986129D01*
X143578834Y-87836613D01*
X143707144Y-87717205D01*
X143859175Y-87643276D01*
X143922754Y-87623705D01*
X143975868Y-87595136D01*
X143998373Y-87547418D01*
X144007134Y-87459617D01*
X144012246Y-87409297D01*
X144029472Y-87346867D01*
X144050018Y-87340536D01*
X144067228Y-87387713D01*
X144074444Y-87485808D01*
X144074721Y-87520104D01*
X144082407Y-87588491D01*
X144109738Y-87621987D01*
X144168752Y-87640317D01*
X144250080Y-87672685D01*
X144359205Y-87747950D01*
X144456412Y-87844395D01*
X144519945Y-87943256D01*
X144557722Y-88033101D01*
X144611399Y-87919985D01*
X144659387Y-87837775D01*
X144776258Y-87724105D01*
X144937535Y-87650286D01*
X145009200Y-87623804D01*
X145047156Y-87587498D01*
X145056087Y-87527594D01*
X145065427Y-87467621D01*
X145102101Y-87440421D01*
X145134397Y-87459387D01*
X145148115Y-87532450D01*
X145158277Y-87598864D01*
X145195352Y-87624479D01*
X145277194Y-87644589D01*
X145378369Y-87696317D01*
X145475849Y-87765856D01*
X145547040Y-87839399D01*
X145547684Y-87840306D01*
X145603158Y-87937797D01*
X145643442Y-88040748D01*
X145673192Y-88148493D01*
X145909144Y-88139565D01*
X146145096Y-88130638D01*
X146154368Y-87969587D01*
X146160101Y-87907326D01*
X146174165Y-87836220D01*
X146191111Y-87808537D01*
X146202455Y-87821129D01*
X146217949Y-87879583D01*
X146227853Y-87969587D01*
X146237125Y-88130638D01*
X146367500Y-88140071D01*
X146380391Y-88141103D01*
X146467106Y-88156480D01*
X146493862Y-88177849D01*
X146460660Y-88198878D01*
X146367500Y-88213234D01*
X146237125Y-88222667D01*
X146228103Y-88445514D01*
X146225319Y-88558461D01*
X146230159Y-88630740D01*
X146245550Y-88668635D01*
X146274118Y-88685856D01*
X146340007Y-88708067D01*
X146478901Y-88769607D01*
X146578917Y-88843686D01*
X146656340Y-88941180D01*
X146686287Y-88992749D01*
X146727229Y-89082843D01*
X146743285Y-89148963D01*
X146744015Y-89169983D01*
X146754434Y-89197650D01*
X146787540Y-89212510D01*
X146856219Y-89218523D01*
X146973357Y-89219648D01*
X147061676Y-89220702D01*
X147147825Y-89227144D01*
X147191378Y-89241391D01*
X147203429Y-89265662D01*
X147198526Y-89282848D01*
X147166950Y-89300363D01*
X147096415Y-89309223D01*
X146975794Y-89311677D01*
X146748159Y-89311677D01*
X146727584Y-89405358D01*
X146725754Y-89412974D01*
X146674038Y-89519367D01*
X146582857Y-89626332D01*
X146469726Y-89716700D01*
X146352161Y-89773305D01*
X146221787Y-89812209D01*
X146221787Y-90037426D01*
X146221787Y-90262643D01*
X146359830Y-90262643D01*
X146418380Y-90264514D01*
X146479808Y-90278329D01*
X146497874Y-90308657D01*
X146492261Y-90328174D01*
X146450817Y-90348650D01*
X146359830Y-90354672D01*
X146221787Y-90354672D01*
X146221787Y-90569406D01*
X146221787Y-90569615D01*
X146217720Y-90679722D01*
X146206847Y-90755767D01*
X146191111Y-90784140D01*
X146191081Y-90784140D01*
X146175351Y-90755675D01*
X146164488Y-90679560D01*
X146160434Y-90569406D01*
X146160434Y-90354672D01*
X145916206Y-90354672D01*
X145671978Y-90354672D01*
X145639312Y-90475982D01*
X145619763Y-90533634D01*
X145545373Y-90664308D01*
X145443322Y-90773482D01*
X145327299Y-90848366D01*
X145210992Y-90876169D01*
X145193688Y-90877091D01*
X145168936Y-90889212D01*
X145155230Y-90925393D01*
X145149359Y-90998060D01*
X145148115Y-91119636D01*
X145148115Y-91363103D01*
X145247814Y-91372716D01*
X145312666Y-91385157D01*
X145344050Y-91410070D01*
X145318222Y-91437851D01*
X145236205Y-91460733D01*
X145203798Y-91464805D01*
X145104489Y-91469152D01*
X144989420Y-91466543D01*
X144874013Y-91458300D01*
X144773691Y-91445747D01*
X144703876Y-91430208D01*
X144679990Y-91413005D01*
X144703283Y-91398171D01*
X144773031Y-91382707D01*
X144871717Y-91373196D01*
X145056087Y-91364063D01*
X145056087Y-91120116D01*
X145055844Y-91052398D01*
X145052700Y-90956677D01*
X145043347Y-90903674D01*
X145024583Y-90880977D01*
X144993210Y-90876169D01*
X144945677Y-90871144D01*
X144827824Y-90822204D01*
X144715950Y-90731504D01*
X144623742Y-90611833D01*
X144564890Y-90475982D01*
X144532224Y-90354672D01*
X144303334Y-90354672D01*
X144074444Y-90354672D01*
X144074444Y-90475567D01*
X144073884Y-90498906D01*
X144063376Y-90575199D01*
X144043768Y-90615421D01*
X144035090Y-90616490D01*
X144018969Y-90580389D01*
X144015672Y-90532874D01*
X144013091Y-90495677D01*
X144013091Y-90356974D01*
X143736835Y-90348154D01*
X143682542Y-90345882D01*
X143567246Y-90336649D01*
X143489249Y-90323667D01*
X143460578Y-90308657D01*
X143465430Y-90302474D01*
X143515429Y-90288075D01*
X143609906Y-90276397D01*
X143736835Y-90269161D01*
X144013091Y-90260341D01*
X144013091Y-89787160D01*
X144074444Y-89787160D01*
X144074444Y-90262643D01*
X144319855Y-90262643D01*
X144350329Y-90262587D01*
X144462334Y-90260128D01*
X144527523Y-90252117D01*
X144557877Y-90235934D01*
X144565380Y-90208959D01*
X144566483Y-90193703D01*
X144595139Y-90110172D01*
X144652642Y-90015674D01*
X144725605Y-89926991D01*
X144800640Y-89860904D01*
X144864359Y-89834195D01*
X144872757Y-89833710D01*
X144900878Y-89816592D01*
X144887640Y-89796728D01*
X145300257Y-89796728D01*
X145412209Y-89865917D01*
X145511509Y-89953848D01*
X145599135Y-90098875D01*
X145674111Y-90262643D01*
X145917272Y-90262643D01*
X146160434Y-90262643D01*
X146160434Y-90037426D01*
X146160434Y-89812209D01*
X146041883Y-89776690D01*
X145939615Y-89736514D01*
X145798006Y-89634069D01*
X145701849Y-89491588D01*
X145649764Y-89375251D01*
X145638937Y-89399791D01*
X145595199Y-89498926D01*
X145581010Y-89526974D01*
X145508829Y-89626707D01*
X145420445Y-89709664D01*
X145300257Y-89796728D01*
X144887640Y-89796728D01*
X144874689Y-89777294D01*
X144795679Y-89718328D01*
X144716094Y-89647312D01*
X144641681Y-89549038D01*
X144586714Y-89445589D01*
X144565265Y-89358913D01*
X144556667Y-89336654D01*
X144520381Y-89321345D01*
X144445165Y-89313736D01*
X144319855Y-89311677D01*
X144074444Y-89311677D01*
X144074444Y-89787160D01*
X144013091Y-89787160D01*
X144013091Y-89786009D01*
X144013091Y-89311677D01*
X143524214Y-89311677D01*
X143035336Y-89311677D01*
X143025723Y-89411375D01*
X143024926Y-89418773D01*
X143008921Y-89484203D01*
X142985434Y-89511073D01*
X142983132Y-89510799D01*
X142959961Y-89479285D01*
X142945145Y-89411375D01*
X142936487Y-89356429D01*
X142908716Y-89319708D01*
X142845447Y-89311677D01*
X142782705Y-89302250D01*
X142755362Y-89265662D01*
X142774328Y-89233367D01*
X142847391Y-89219648D01*
X142939420Y-89219648D01*
X142939420Y-88713488D01*
X142939420Y-88712087D01*
X143031449Y-88712087D01*
X143031449Y-89219648D01*
X143523560Y-89219648D01*
X144015672Y-89219648D01*
X144006713Y-88985028D01*
X143997753Y-88750408D01*
X143940325Y-88733701D01*
X144074444Y-88733701D01*
X144074444Y-88976674D01*
X144074444Y-89219648D01*
X144319855Y-89219648D01*
X144334003Y-89219635D01*
X144452772Y-89217464D01*
X144523087Y-89209869D01*
X144556675Y-89194413D01*
X144565265Y-89168659D01*
X144567097Y-89148656D01*
X144600060Y-89059579D01*
X144663398Y-88959060D01*
X144742753Y-88867321D01*
X144823767Y-88804582D01*
X144848077Y-88790992D01*
X144908989Y-88751238D01*
X144933381Y-88725572D01*
X145270821Y-88725572D01*
X145273638Y-88731576D01*
X145311982Y-88763289D01*
X145380889Y-88804827D01*
X145398767Y-88815428D01*
X145487213Y-88890067D01*
X145557278Y-88980286D01*
X145575905Y-89011854D01*
X145615903Y-89071965D01*
X145638937Y-89095274D01*
X145646392Y-89089102D01*
X145676197Y-89043483D01*
X145716058Y-88968272D01*
X145722959Y-88955070D01*
X145813066Y-88845366D01*
X145946740Y-88751309D01*
X146108104Y-88684397D01*
X146135838Y-88668965D01*
X146151676Y-88632896D01*
X146156895Y-88562953D01*
X146154118Y-88445514D01*
X146145096Y-88222667D01*
X145909144Y-88213740D01*
X145673192Y-88204813D01*
X145642536Y-88315838D01*
X145632418Y-88348095D01*
X145565037Y-88482546D01*
X145470584Y-88595339D01*
X145364717Y-88666700D01*
X145357546Y-88669729D01*
X145296061Y-88701524D01*
X145270821Y-88725572D01*
X144933381Y-88725572D01*
X144933108Y-88723933D01*
X144903373Y-88698534D01*
X144839485Y-88666700D01*
X144825660Y-88660375D01*
X144730616Y-88590497D01*
X144642885Y-88488029D01*
X144582847Y-88376049D01*
X144566840Y-88341630D01*
X144549349Y-88348447D01*
X144521424Y-88407295D01*
X144474061Y-88486306D01*
X144381462Y-88586046D01*
X144272523Y-88667820D01*
X144168752Y-88712988D01*
X144074444Y-88733701D01*
X143940325Y-88733701D01*
X143859175Y-88710093D01*
X143837201Y-88703095D01*
X143687490Y-88621845D01*
X143563721Y-88497278D01*
X143481796Y-88344785D01*
X143439631Y-88222667D01*
X143235540Y-88213596D01*
X143031449Y-88204526D01*
X143031449Y-88712087D01*
X142939420Y-88712087D01*
X142939420Y-88207329D01*
X142678671Y-88207329D01*
X142645065Y-88207120D01*
X142526074Y-88202171D01*
X142446760Y-88191592D01*
X142417922Y-88176653D01*
X142419697Y-88172699D01*
X142461763Y-88158700D01*
X142551687Y-88149369D01*
X142678671Y-88145976D01*
X142939420Y-88145976D01*
X142939420Y-87624479D01*
X142939420Y-87102981D01*
X142709347Y-87102981D01*
X142698558Y-87102952D01*
X142585100Y-87098535D01*
X142507823Y-87087762D01*
X142479275Y-87072305D01*
X142479452Y-87070996D01*
X142512141Y-87055812D01*
X142592500Y-87045457D01*
X142707884Y-87041628D01*
X142936492Y-87041628D01*
X142945625Y-86849901D01*
X142953650Y-86758969D01*
X142968208Y-86686111D01*
X142985434Y-86658174D01*
X143001083Y-86681260D01*
G37*
%TD*%
M02*
