%TF.GenerationSoftware,KiCad,Pcbnew,8.0.4*%
%TF.CreationDate,2024-08-25T21:49:16-05:00*%
%TF.ProjectId,CoCo-FujiNet-Rev0000,436f436f-2d46-4756-9a69-4e65742d5265,Rev 0000*%
%TF.SameCoordinates,Original*%
%TF.FileFunction,Legend,Top*%
%TF.FilePolarity,Positive*%
%FSLAX46Y46*%
G04 Gerber Fmt 4.6, Leading zero omitted, Abs format (unit mm)*
G04 Created by KiCad (PCBNEW 8.0.4) date 2024-08-25 21:49:16*
%MOMM*%
%LPD*%
G01*
G04 APERTURE LIST*
%ADD10C,0.150000*%
%ADD11C,0.300000*%
%ADD12C,0.120000*%
%ADD13C,0.127000*%
%ADD14C,0.200000*%
%ADD15C,0.000000*%
G04 APERTURE END LIST*
D10*
X115681666Y-82574748D02*
X115634047Y-82622368D01*
X115634047Y-82622368D02*
X115491190Y-82669987D01*
X115491190Y-82669987D02*
X115395952Y-82669987D01*
X115395952Y-82669987D02*
X115253095Y-82622368D01*
X115253095Y-82622368D02*
X115157857Y-82527129D01*
X115157857Y-82527129D02*
X115110238Y-82431891D01*
X115110238Y-82431891D02*
X115062619Y-82241415D01*
X115062619Y-82241415D02*
X115062619Y-82098558D01*
X115062619Y-82098558D02*
X115110238Y-81908082D01*
X115110238Y-81908082D02*
X115157857Y-81812844D01*
X115157857Y-81812844D02*
X115253095Y-81717606D01*
X115253095Y-81717606D02*
X115395952Y-81669987D01*
X115395952Y-81669987D02*
X115491190Y-81669987D01*
X115491190Y-81669987D02*
X115634047Y-81717606D01*
X115634047Y-81717606D02*
X115681666Y-81765225D01*
X116110238Y-82669987D02*
X116110238Y-81669987D01*
X116538809Y-82669987D02*
X116538809Y-82146177D01*
X116538809Y-82146177D02*
X116491190Y-82050939D01*
X116491190Y-82050939D02*
X116395952Y-82003320D01*
X116395952Y-82003320D02*
X116253095Y-82003320D01*
X116253095Y-82003320D02*
X116157857Y-82050939D01*
X116157857Y-82050939D02*
X116110238Y-82098558D01*
X117395952Y-82622368D02*
X117300714Y-82669987D01*
X117300714Y-82669987D02*
X117110238Y-82669987D01*
X117110238Y-82669987D02*
X117015000Y-82622368D01*
X117015000Y-82622368D02*
X116967381Y-82527129D01*
X116967381Y-82527129D02*
X116967381Y-82146177D01*
X116967381Y-82146177D02*
X117015000Y-82050939D01*
X117015000Y-82050939D02*
X117110238Y-82003320D01*
X117110238Y-82003320D02*
X117300714Y-82003320D01*
X117300714Y-82003320D02*
X117395952Y-82050939D01*
X117395952Y-82050939D02*
X117443571Y-82146177D01*
X117443571Y-82146177D02*
X117443571Y-82241415D01*
X117443571Y-82241415D02*
X116967381Y-82336653D01*
X118300714Y-82622368D02*
X118205476Y-82669987D01*
X118205476Y-82669987D02*
X118015000Y-82669987D01*
X118015000Y-82669987D02*
X117919762Y-82622368D01*
X117919762Y-82622368D02*
X117872143Y-82574748D01*
X117872143Y-82574748D02*
X117824524Y-82479510D01*
X117824524Y-82479510D02*
X117824524Y-82193796D01*
X117824524Y-82193796D02*
X117872143Y-82098558D01*
X117872143Y-82098558D02*
X117919762Y-82050939D01*
X117919762Y-82050939D02*
X118015000Y-82003320D01*
X118015000Y-82003320D02*
X118205476Y-82003320D01*
X118205476Y-82003320D02*
X118300714Y-82050939D01*
X118729286Y-82669987D02*
X118729286Y-81669987D01*
X118824524Y-82289034D02*
X119110238Y-82669987D01*
X119110238Y-82003320D02*
X118729286Y-82384272D01*
X120300715Y-82146177D02*
X120634048Y-82146177D01*
X120776905Y-82669987D02*
X120300715Y-82669987D01*
X120300715Y-82669987D02*
X120300715Y-81669987D01*
X120300715Y-81669987D02*
X120776905Y-81669987D01*
X121205477Y-82669987D02*
X121205477Y-81669987D01*
X121205477Y-81669987D02*
X121586429Y-81669987D01*
X121586429Y-81669987D02*
X121681667Y-81717606D01*
X121681667Y-81717606D02*
X121729286Y-81765225D01*
X121729286Y-81765225D02*
X121776905Y-81860463D01*
X121776905Y-81860463D02*
X121776905Y-82003320D01*
X121776905Y-82003320D02*
X121729286Y-82098558D01*
X121729286Y-82098558D02*
X121681667Y-82146177D01*
X121681667Y-82146177D02*
X121586429Y-82193796D01*
X121586429Y-82193796D02*
X121205477Y-82193796D01*
X122776905Y-82669987D02*
X122443572Y-82193796D01*
X122205477Y-82669987D02*
X122205477Y-81669987D01*
X122205477Y-81669987D02*
X122586429Y-81669987D01*
X122586429Y-81669987D02*
X122681667Y-81717606D01*
X122681667Y-81717606D02*
X122729286Y-81765225D01*
X122729286Y-81765225D02*
X122776905Y-81860463D01*
X122776905Y-81860463D02*
X122776905Y-82003320D01*
X122776905Y-82003320D02*
X122729286Y-82098558D01*
X122729286Y-82098558D02*
X122681667Y-82146177D01*
X122681667Y-82146177D02*
X122586429Y-82193796D01*
X122586429Y-82193796D02*
X122205477Y-82193796D01*
X123395953Y-81669987D02*
X123586429Y-81669987D01*
X123586429Y-81669987D02*
X123681667Y-81717606D01*
X123681667Y-81717606D02*
X123776905Y-81812844D01*
X123776905Y-81812844D02*
X123824524Y-82003320D01*
X123824524Y-82003320D02*
X123824524Y-82336653D01*
X123824524Y-82336653D02*
X123776905Y-82527129D01*
X123776905Y-82527129D02*
X123681667Y-82622368D01*
X123681667Y-82622368D02*
X123586429Y-82669987D01*
X123586429Y-82669987D02*
X123395953Y-82669987D01*
X123395953Y-82669987D02*
X123300715Y-82622368D01*
X123300715Y-82622368D02*
X123205477Y-82527129D01*
X123205477Y-82527129D02*
X123157858Y-82336653D01*
X123157858Y-82336653D02*
X123157858Y-82003320D01*
X123157858Y-82003320D02*
X123205477Y-81812844D01*
X123205477Y-81812844D02*
X123300715Y-81717606D01*
X123300715Y-81717606D02*
X123395953Y-81669987D01*
X124253096Y-82669987D02*
X124253096Y-81669987D01*
X124253096Y-81669987D02*
X124586429Y-82384272D01*
X124586429Y-82384272D02*
X124919762Y-81669987D01*
X124919762Y-81669987D02*
X124919762Y-82669987D01*
X116324523Y-83279931D02*
X116514999Y-83279931D01*
X116514999Y-83279931D02*
X116610237Y-83327550D01*
X116610237Y-83327550D02*
X116705475Y-83422788D01*
X116705475Y-83422788D02*
X116753094Y-83613264D01*
X116753094Y-83613264D02*
X116753094Y-83946597D01*
X116753094Y-83946597D02*
X116705475Y-84137073D01*
X116705475Y-84137073D02*
X116610237Y-84232312D01*
X116610237Y-84232312D02*
X116514999Y-84279931D01*
X116514999Y-84279931D02*
X116324523Y-84279931D01*
X116324523Y-84279931D02*
X116229285Y-84232312D01*
X116229285Y-84232312D02*
X116134047Y-84137073D01*
X116134047Y-84137073D02*
X116086428Y-83946597D01*
X116086428Y-83946597D02*
X116086428Y-83613264D01*
X116086428Y-83613264D02*
X116134047Y-83422788D01*
X116134047Y-83422788D02*
X116229285Y-83327550D01*
X116229285Y-83327550D02*
X116324523Y-83279931D01*
X117181666Y-84279931D02*
X117181666Y-83613264D01*
X117181666Y-83803740D02*
X117229285Y-83708502D01*
X117229285Y-83708502D02*
X117276904Y-83660883D01*
X117276904Y-83660883D02*
X117372142Y-83613264D01*
X117372142Y-83613264D02*
X117467380Y-83613264D01*
X117800714Y-84279931D02*
X117800714Y-83613264D01*
X117800714Y-83279931D02*
X117753095Y-83327550D01*
X117753095Y-83327550D02*
X117800714Y-83375169D01*
X117800714Y-83375169D02*
X117848333Y-83327550D01*
X117848333Y-83327550D02*
X117800714Y-83279931D01*
X117800714Y-83279931D02*
X117800714Y-83375169D01*
X118657856Y-84232312D02*
X118562618Y-84279931D01*
X118562618Y-84279931D02*
X118372142Y-84279931D01*
X118372142Y-84279931D02*
X118276904Y-84232312D01*
X118276904Y-84232312D02*
X118229285Y-84137073D01*
X118229285Y-84137073D02*
X118229285Y-83756121D01*
X118229285Y-83756121D02*
X118276904Y-83660883D01*
X118276904Y-83660883D02*
X118372142Y-83613264D01*
X118372142Y-83613264D02*
X118562618Y-83613264D01*
X118562618Y-83613264D02*
X118657856Y-83660883D01*
X118657856Y-83660883D02*
X118705475Y-83756121D01*
X118705475Y-83756121D02*
X118705475Y-83851359D01*
X118705475Y-83851359D02*
X118229285Y-83946597D01*
X119134047Y-83613264D02*
X119134047Y-84279931D01*
X119134047Y-83708502D02*
X119181666Y-83660883D01*
X119181666Y-83660883D02*
X119276904Y-83613264D01*
X119276904Y-83613264D02*
X119419761Y-83613264D01*
X119419761Y-83613264D02*
X119514999Y-83660883D01*
X119514999Y-83660883D02*
X119562618Y-83756121D01*
X119562618Y-83756121D02*
X119562618Y-84279931D01*
X119895952Y-83613264D02*
X120276904Y-83613264D01*
X120038809Y-83279931D02*
X120038809Y-84137073D01*
X120038809Y-84137073D02*
X120086428Y-84232312D01*
X120086428Y-84232312D02*
X120181666Y-84279931D01*
X120181666Y-84279931D02*
X120276904Y-84279931D01*
X121038809Y-84279931D02*
X121038809Y-83756121D01*
X121038809Y-83756121D02*
X120991190Y-83660883D01*
X120991190Y-83660883D02*
X120895952Y-83613264D01*
X120895952Y-83613264D02*
X120705476Y-83613264D01*
X120705476Y-83613264D02*
X120610238Y-83660883D01*
X121038809Y-84232312D02*
X120943571Y-84279931D01*
X120943571Y-84279931D02*
X120705476Y-84279931D01*
X120705476Y-84279931D02*
X120610238Y-84232312D01*
X120610238Y-84232312D02*
X120562619Y-84137073D01*
X120562619Y-84137073D02*
X120562619Y-84041835D01*
X120562619Y-84041835D02*
X120610238Y-83946597D01*
X120610238Y-83946597D02*
X120705476Y-83898978D01*
X120705476Y-83898978D02*
X120943571Y-83898978D01*
X120943571Y-83898978D02*
X121038809Y-83851359D01*
X121372143Y-83613264D02*
X121753095Y-83613264D01*
X121515000Y-83279931D02*
X121515000Y-84137073D01*
X121515000Y-84137073D02*
X121562619Y-84232312D01*
X121562619Y-84232312D02*
X121657857Y-84279931D01*
X121657857Y-84279931D02*
X121753095Y-84279931D01*
X122086429Y-84279931D02*
X122086429Y-83613264D01*
X122086429Y-83279931D02*
X122038810Y-83327550D01*
X122038810Y-83327550D02*
X122086429Y-83375169D01*
X122086429Y-83375169D02*
X122134048Y-83327550D01*
X122134048Y-83327550D02*
X122086429Y-83279931D01*
X122086429Y-83279931D02*
X122086429Y-83375169D01*
X122705476Y-84279931D02*
X122610238Y-84232312D01*
X122610238Y-84232312D02*
X122562619Y-84184692D01*
X122562619Y-84184692D02*
X122515000Y-84089454D01*
X122515000Y-84089454D02*
X122515000Y-83803740D01*
X122515000Y-83803740D02*
X122562619Y-83708502D01*
X122562619Y-83708502D02*
X122610238Y-83660883D01*
X122610238Y-83660883D02*
X122705476Y-83613264D01*
X122705476Y-83613264D02*
X122848333Y-83613264D01*
X122848333Y-83613264D02*
X122943571Y-83660883D01*
X122943571Y-83660883D02*
X122991190Y-83708502D01*
X122991190Y-83708502D02*
X123038809Y-83803740D01*
X123038809Y-83803740D02*
X123038809Y-84089454D01*
X123038809Y-84089454D02*
X122991190Y-84184692D01*
X122991190Y-84184692D02*
X122943571Y-84232312D01*
X122943571Y-84232312D02*
X122848333Y-84279931D01*
X122848333Y-84279931D02*
X122705476Y-84279931D01*
X123467381Y-83613264D02*
X123467381Y-84279931D01*
X123467381Y-83708502D02*
X123515000Y-83660883D01*
X123515000Y-83660883D02*
X123610238Y-83613264D01*
X123610238Y-83613264D02*
X123753095Y-83613264D01*
X123753095Y-83613264D02*
X123848333Y-83660883D01*
X123848333Y-83660883D02*
X123895952Y-83756121D01*
X123895952Y-83756121D02*
X123895952Y-84279931D01*
X120015000Y-86223208D02*
X120015000Y-84794636D01*
X119776905Y-86833152D02*
X120015000Y-87499819D01*
X120015000Y-87499819D02*
X120253095Y-86833152D01*
X133696104Y-92039839D02*
X133696104Y-91563649D01*
X133981819Y-92135077D02*
X132981819Y-91801744D01*
X132981819Y-91801744D02*
X133981819Y-91468411D01*
X133315152Y-91135077D02*
X133981819Y-91135077D01*
X133410390Y-91135077D02*
X133362771Y-91087458D01*
X133362771Y-91087458D02*
X133315152Y-90992220D01*
X133315152Y-90992220D02*
X133315152Y-90849363D01*
X133315152Y-90849363D02*
X133362771Y-90754125D01*
X133362771Y-90754125D02*
X133458009Y-90706506D01*
X133458009Y-90706506D02*
X133981819Y-90706506D01*
X133315152Y-90373172D02*
X133315152Y-89992220D01*
X132981819Y-90230315D02*
X133838961Y-90230315D01*
X133838961Y-90230315D02*
X133934200Y-90182696D01*
X133934200Y-90182696D02*
X133981819Y-90087458D01*
X133981819Y-90087458D02*
X133981819Y-89992220D01*
X133934200Y-89277934D02*
X133981819Y-89373172D01*
X133981819Y-89373172D02*
X133981819Y-89563648D01*
X133981819Y-89563648D02*
X133934200Y-89658886D01*
X133934200Y-89658886D02*
X133838961Y-89706505D01*
X133838961Y-89706505D02*
X133458009Y-89706505D01*
X133458009Y-89706505D02*
X133362771Y-89658886D01*
X133362771Y-89658886D02*
X133315152Y-89563648D01*
X133315152Y-89563648D02*
X133315152Y-89373172D01*
X133315152Y-89373172D02*
X133362771Y-89277934D01*
X133362771Y-89277934D02*
X133458009Y-89230315D01*
X133458009Y-89230315D02*
X133553247Y-89230315D01*
X133553247Y-89230315D02*
X133648485Y-89706505D01*
X133315152Y-88801743D02*
X133981819Y-88801743D01*
X133410390Y-88801743D02*
X133362771Y-88754124D01*
X133362771Y-88754124D02*
X133315152Y-88658886D01*
X133315152Y-88658886D02*
X133315152Y-88516029D01*
X133315152Y-88516029D02*
X133362771Y-88420791D01*
X133362771Y-88420791D02*
X133458009Y-88373172D01*
X133458009Y-88373172D02*
X133981819Y-88373172D01*
X133315152Y-87896981D02*
X133981819Y-87896981D01*
X133410390Y-87896981D02*
X133362771Y-87849362D01*
X133362771Y-87849362D02*
X133315152Y-87754124D01*
X133315152Y-87754124D02*
X133315152Y-87611267D01*
X133315152Y-87611267D02*
X133362771Y-87516029D01*
X133362771Y-87516029D02*
X133458009Y-87468410D01*
X133458009Y-87468410D02*
X133981819Y-87468410D01*
X133981819Y-86563648D02*
X133458009Y-86563648D01*
X133458009Y-86563648D02*
X133362771Y-86611267D01*
X133362771Y-86611267D02*
X133315152Y-86706505D01*
X133315152Y-86706505D02*
X133315152Y-86896981D01*
X133315152Y-86896981D02*
X133362771Y-86992219D01*
X133934200Y-86563648D02*
X133981819Y-86658886D01*
X133981819Y-86658886D02*
X133981819Y-86896981D01*
X133981819Y-86896981D02*
X133934200Y-86992219D01*
X133934200Y-86992219D02*
X133838961Y-87039838D01*
X133838961Y-87039838D02*
X133743723Y-87039838D01*
X133743723Y-87039838D02*
X133648485Y-86992219D01*
X133648485Y-86992219D02*
X133600866Y-86896981D01*
X133600866Y-86896981D02*
X133600866Y-86658886D01*
X133600866Y-86658886D02*
X133553247Y-86563648D01*
X162108151Y-101390433D02*
X161346247Y-101390433D01*
X161727199Y-101009480D02*
X161727199Y-101771385D01*
X168103779Y-92706866D02*
X168865684Y-92706866D01*
X168484731Y-93087819D02*
X168484731Y-92325914D01*
X152968560Y-116830504D02*
X153444750Y-116830504D01*
X152873322Y-117116219D02*
X153206655Y-116116219D01*
X153206655Y-116116219D02*
X153539988Y-117116219D01*
X154397131Y-117116219D02*
X153825703Y-117116219D01*
X154111417Y-117116219D02*
X154111417Y-116116219D01*
X154111417Y-116116219D02*
X154016179Y-116259076D01*
X154016179Y-116259076D02*
X153920941Y-116354314D01*
X153920941Y-116354314D02*
X153825703Y-116401933D01*
X155254274Y-116449552D02*
X155254274Y-117116219D01*
X155016179Y-116068600D02*
X154778084Y-116782885D01*
X154778084Y-116782885D02*
X155397131Y-116782885D01*
X156492370Y-116830504D02*
X156968560Y-116830504D01*
X156397132Y-117116219D02*
X156730465Y-116116219D01*
X156730465Y-116116219D02*
X157063798Y-117116219D01*
X157920941Y-117116219D02*
X157349513Y-117116219D01*
X157635227Y-117116219D02*
X157635227Y-116116219D01*
X157635227Y-116116219D02*
X157539989Y-116259076D01*
X157539989Y-116259076D02*
X157444751Y-116354314D01*
X157444751Y-116354314D02*
X157349513Y-116401933D01*
X158825703Y-116116219D02*
X158349513Y-116116219D01*
X158349513Y-116116219D02*
X158301894Y-116592409D01*
X158301894Y-116592409D02*
X158349513Y-116544790D01*
X158349513Y-116544790D02*
X158444751Y-116497171D01*
X158444751Y-116497171D02*
X158682846Y-116497171D01*
X158682846Y-116497171D02*
X158778084Y-116544790D01*
X158778084Y-116544790D02*
X158825703Y-116592409D01*
X158825703Y-116592409D02*
X158873322Y-116687647D01*
X158873322Y-116687647D02*
X158873322Y-116925742D01*
X158873322Y-116925742D02*
X158825703Y-117020980D01*
X158825703Y-117020980D02*
X158778084Y-117068600D01*
X158778084Y-117068600D02*
X158682846Y-117116219D01*
X158682846Y-117116219D02*
X158444751Y-117116219D01*
X158444751Y-117116219D02*
X158349513Y-117068600D01*
X158349513Y-117068600D02*
X158301894Y-117020980D01*
X157762580Y-64662160D02*
X157810200Y-64709779D01*
X157810200Y-64709779D02*
X157857819Y-64852636D01*
X157857819Y-64852636D02*
X157857819Y-64947874D01*
X157857819Y-64947874D02*
X157810200Y-65090731D01*
X157810200Y-65090731D02*
X157714961Y-65185969D01*
X157714961Y-65185969D02*
X157619723Y-65233588D01*
X157619723Y-65233588D02*
X157429247Y-65281207D01*
X157429247Y-65281207D02*
X157286390Y-65281207D01*
X157286390Y-65281207D02*
X157095914Y-65233588D01*
X157095914Y-65233588D02*
X157000676Y-65185969D01*
X157000676Y-65185969D02*
X156905438Y-65090731D01*
X156905438Y-65090731D02*
X156857819Y-64947874D01*
X156857819Y-64947874D02*
X156857819Y-64852636D01*
X156857819Y-64852636D02*
X156905438Y-64709779D01*
X156905438Y-64709779D02*
X156953057Y-64662160D01*
X157857819Y-64233588D02*
X156857819Y-64233588D01*
X156857819Y-64233588D02*
X156857819Y-63995493D01*
X156857819Y-63995493D02*
X156905438Y-63852636D01*
X156905438Y-63852636D02*
X157000676Y-63757398D01*
X157000676Y-63757398D02*
X157095914Y-63709779D01*
X157095914Y-63709779D02*
X157286390Y-63662160D01*
X157286390Y-63662160D02*
X157429247Y-63662160D01*
X157429247Y-63662160D02*
X157619723Y-63709779D01*
X157619723Y-63709779D02*
X157714961Y-63757398D01*
X157714961Y-63757398D02*
X157810200Y-63852636D01*
X157810200Y-63852636D02*
X157857819Y-63995493D01*
X157857819Y-63995493D02*
X157857819Y-64233588D01*
X151825438Y-64798411D02*
X151777819Y-64893649D01*
X151777819Y-64893649D02*
X151777819Y-65036506D01*
X151777819Y-65036506D02*
X151825438Y-65179363D01*
X151825438Y-65179363D02*
X151920676Y-65274601D01*
X151920676Y-65274601D02*
X152015914Y-65322220D01*
X152015914Y-65322220D02*
X152206390Y-65369839D01*
X152206390Y-65369839D02*
X152349247Y-65369839D01*
X152349247Y-65369839D02*
X152539723Y-65322220D01*
X152539723Y-65322220D02*
X152634961Y-65274601D01*
X152634961Y-65274601D02*
X152730200Y-65179363D01*
X152730200Y-65179363D02*
X152777819Y-65036506D01*
X152777819Y-65036506D02*
X152777819Y-64941268D01*
X152777819Y-64941268D02*
X152730200Y-64798411D01*
X152730200Y-64798411D02*
X152682580Y-64750792D01*
X152682580Y-64750792D02*
X152349247Y-64750792D01*
X152349247Y-64750792D02*
X152349247Y-64941268D01*
X152777819Y-64322220D02*
X151777819Y-64322220D01*
X151777819Y-64322220D02*
X152777819Y-63750792D01*
X152777819Y-63750792D02*
X151777819Y-63750792D01*
X152777819Y-63274601D02*
X151777819Y-63274601D01*
X151777819Y-63274601D02*
X151777819Y-63036506D01*
X151777819Y-63036506D02*
X151825438Y-62893649D01*
X151825438Y-62893649D02*
X151920676Y-62798411D01*
X151920676Y-62798411D02*
X152015914Y-62750792D01*
X152015914Y-62750792D02*
X152206390Y-62703173D01*
X152206390Y-62703173D02*
X152349247Y-62703173D01*
X152349247Y-62703173D02*
X152539723Y-62750792D01*
X152539723Y-62750792D02*
X152634961Y-62798411D01*
X152634961Y-62798411D02*
X152730200Y-62893649D01*
X152730200Y-62893649D02*
X152777819Y-63036506D01*
X152777819Y-63036506D02*
X152777819Y-63274601D01*
X150237819Y-64995541D02*
X149761628Y-65328874D01*
X150237819Y-65566969D02*
X149237819Y-65566969D01*
X149237819Y-65566969D02*
X149237819Y-65186017D01*
X149237819Y-65186017D02*
X149285438Y-65090779D01*
X149285438Y-65090779D02*
X149333057Y-65043160D01*
X149333057Y-65043160D02*
X149428295Y-64995541D01*
X149428295Y-64995541D02*
X149571152Y-64995541D01*
X149571152Y-64995541D02*
X149666390Y-65043160D01*
X149666390Y-65043160D02*
X149714009Y-65090779D01*
X149714009Y-65090779D02*
X149761628Y-65186017D01*
X149761628Y-65186017D02*
X149761628Y-65566969D01*
X149237819Y-64662207D02*
X150237819Y-63995541D01*
X149237819Y-63995541D02*
X150237819Y-64662207D01*
X176669819Y-94246506D02*
X177384104Y-94246506D01*
X177384104Y-94246506D02*
X177526961Y-94294125D01*
X177526961Y-94294125D02*
X177622200Y-94389363D01*
X177622200Y-94389363D02*
X177669819Y-94532220D01*
X177669819Y-94532220D02*
X177669819Y-94627458D01*
X177669819Y-93294125D02*
X177669819Y-93770315D01*
X177669819Y-93770315D02*
X176669819Y-93770315D01*
X177574580Y-92389363D02*
X177622200Y-92436982D01*
X177622200Y-92436982D02*
X177669819Y-92579839D01*
X177669819Y-92579839D02*
X177669819Y-92675077D01*
X177669819Y-92675077D02*
X177622200Y-92817934D01*
X177622200Y-92817934D02*
X177526961Y-92913172D01*
X177526961Y-92913172D02*
X177431723Y-92960791D01*
X177431723Y-92960791D02*
X177241247Y-93008410D01*
X177241247Y-93008410D02*
X177098390Y-93008410D01*
X177098390Y-93008410D02*
X176907914Y-92960791D01*
X176907914Y-92960791D02*
X176812676Y-92913172D01*
X176812676Y-92913172D02*
X176717438Y-92817934D01*
X176717438Y-92817934D02*
X176669819Y-92675077D01*
X176669819Y-92675077D02*
X176669819Y-92579839D01*
X176669819Y-92579839D02*
X176717438Y-92436982D01*
X176717438Y-92436982D02*
X176765057Y-92389363D01*
X176669819Y-91675077D02*
X177384104Y-91675077D01*
X177384104Y-91675077D02*
X177526961Y-91722696D01*
X177526961Y-91722696D02*
X177622200Y-91817934D01*
X177622200Y-91817934D02*
X177669819Y-91960791D01*
X177669819Y-91960791D02*
X177669819Y-92056029D01*
X177669819Y-90722696D02*
X177669819Y-91198886D01*
X177669819Y-91198886D02*
X176669819Y-91198886D01*
X177574580Y-89817934D02*
X177622200Y-89865553D01*
X177622200Y-89865553D02*
X177669819Y-90008410D01*
X177669819Y-90008410D02*
X177669819Y-90103648D01*
X177669819Y-90103648D02*
X177622200Y-90246505D01*
X177622200Y-90246505D02*
X177526961Y-90341743D01*
X177526961Y-90341743D02*
X177431723Y-90389362D01*
X177431723Y-90389362D02*
X177241247Y-90436981D01*
X177241247Y-90436981D02*
X177098390Y-90436981D01*
X177098390Y-90436981D02*
X176907914Y-90389362D01*
X176907914Y-90389362D02*
X176812676Y-90341743D01*
X176812676Y-90341743D02*
X176717438Y-90246505D01*
X176717438Y-90246505D02*
X176669819Y-90103648D01*
X176669819Y-90103648D02*
X176669819Y-90008410D01*
X176669819Y-90008410D02*
X176717438Y-89865553D01*
X176717438Y-89865553D02*
X176765057Y-89817934D01*
X176669819Y-89103648D02*
X177384104Y-89103648D01*
X177384104Y-89103648D02*
X177526961Y-89151267D01*
X177526961Y-89151267D02*
X177622200Y-89246505D01*
X177622200Y-89246505D02*
X177669819Y-89389362D01*
X177669819Y-89389362D02*
X177669819Y-89484600D01*
X177669819Y-88151267D02*
X177669819Y-88627457D01*
X177669819Y-88627457D02*
X176669819Y-88627457D01*
X177574580Y-87246505D02*
X177622200Y-87294124D01*
X177622200Y-87294124D02*
X177669819Y-87436981D01*
X177669819Y-87436981D02*
X177669819Y-87532219D01*
X177669819Y-87532219D02*
X177622200Y-87675076D01*
X177622200Y-87675076D02*
X177526961Y-87770314D01*
X177526961Y-87770314D02*
X177431723Y-87817933D01*
X177431723Y-87817933D02*
X177241247Y-87865552D01*
X177241247Y-87865552D02*
X177098390Y-87865552D01*
X177098390Y-87865552D02*
X176907914Y-87817933D01*
X176907914Y-87817933D02*
X176812676Y-87770314D01*
X176812676Y-87770314D02*
X176717438Y-87675076D01*
X176717438Y-87675076D02*
X176669819Y-87532219D01*
X176669819Y-87532219D02*
X176669819Y-87436981D01*
X176669819Y-87436981D02*
X176717438Y-87294124D01*
X176717438Y-87294124D02*
X176765057Y-87246505D01*
X176669819Y-86532219D02*
X177384104Y-86532219D01*
X177384104Y-86532219D02*
X177526961Y-86579838D01*
X177526961Y-86579838D02*
X177622200Y-86675076D01*
X177622200Y-86675076D02*
X177669819Y-86817933D01*
X177669819Y-86817933D02*
X177669819Y-86913171D01*
X177669819Y-85579838D02*
X177669819Y-86056028D01*
X177669819Y-86056028D02*
X176669819Y-86056028D01*
X177574580Y-84675076D02*
X177622200Y-84722695D01*
X177622200Y-84722695D02*
X177669819Y-84865552D01*
X177669819Y-84865552D02*
X177669819Y-84960790D01*
X177669819Y-84960790D02*
X177622200Y-85103647D01*
X177622200Y-85103647D02*
X177526961Y-85198885D01*
X177526961Y-85198885D02*
X177431723Y-85246504D01*
X177431723Y-85246504D02*
X177241247Y-85294123D01*
X177241247Y-85294123D02*
X177098390Y-85294123D01*
X177098390Y-85294123D02*
X176907914Y-85246504D01*
X176907914Y-85246504D02*
X176812676Y-85198885D01*
X176812676Y-85198885D02*
X176717438Y-85103647D01*
X176717438Y-85103647D02*
X176669819Y-84960790D01*
X176669819Y-84960790D02*
X176669819Y-84865552D01*
X176669819Y-84865552D02*
X176717438Y-84722695D01*
X176717438Y-84722695D02*
X176765057Y-84675076D01*
D11*
X122061653Y-64570828D02*
X121561653Y-63856542D01*
X121204510Y-64570828D02*
X121204510Y-63070828D01*
X121204510Y-63070828D02*
X121775939Y-63070828D01*
X121775939Y-63070828D02*
X121918796Y-63142257D01*
X121918796Y-63142257D02*
X121990225Y-63213685D01*
X121990225Y-63213685D02*
X122061653Y-63356542D01*
X122061653Y-63356542D02*
X122061653Y-63570828D01*
X122061653Y-63570828D02*
X121990225Y-63713685D01*
X121990225Y-63713685D02*
X121918796Y-63785114D01*
X121918796Y-63785114D02*
X121775939Y-63856542D01*
X121775939Y-63856542D02*
X121204510Y-63856542D01*
X123275939Y-64499400D02*
X123133082Y-64570828D01*
X123133082Y-64570828D02*
X122847368Y-64570828D01*
X122847368Y-64570828D02*
X122704510Y-64499400D01*
X122704510Y-64499400D02*
X122633082Y-64356542D01*
X122633082Y-64356542D02*
X122633082Y-63785114D01*
X122633082Y-63785114D02*
X122704510Y-63642257D01*
X122704510Y-63642257D02*
X122847368Y-63570828D01*
X122847368Y-63570828D02*
X123133082Y-63570828D01*
X123133082Y-63570828D02*
X123275939Y-63642257D01*
X123275939Y-63642257D02*
X123347368Y-63785114D01*
X123347368Y-63785114D02*
X123347368Y-63927971D01*
X123347368Y-63927971D02*
X122633082Y-64070828D01*
X123847367Y-63570828D02*
X124204510Y-64570828D01*
X124204510Y-64570828D02*
X124561653Y-63570828D01*
X125418796Y-63070828D02*
X125561653Y-63070828D01*
X125561653Y-63070828D02*
X125704510Y-63142257D01*
X125704510Y-63142257D02*
X125775939Y-63213685D01*
X125775939Y-63213685D02*
X125847367Y-63356542D01*
X125847367Y-63356542D02*
X125918796Y-63642257D01*
X125918796Y-63642257D02*
X125918796Y-63999400D01*
X125918796Y-63999400D02*
X125847367Y-64285114D01*
X125847367Y-64285114D02*
X125775939Y-64427971D01*
X125775939Y-64427971D02*
X125704510Y-64499400D01*
X125704510Y-64499400D02*
X125561653Y-64570828D01*
X125561653Y-64570828D02*
X125418796Y-64570828D01*
X125418796Y-64570828D02*
X125275939Y-64499400D01*
X125275939Y-64499400D02*
X125204510Y-64427971D01*
X125204510Y-64427971D02*
X125133081Y-64285114D01*
X125133081Y-64285114D02*
X125061653Y-63999400D01*
X125061653Y-63999400D02*
X125061653Y-63642257D01*
X125061653Y-63642257D02*
X125133081Y-63356542D01*
X125133081Y-63356542D02*
X125204510Y-63213685D01*
X125204510Y-63213685D02*
X125275939Y-63142257D01*
X125275939Y-63142257D02*
X125418796Y-63070828D01*
X126847367Y-63070828D02*
X126990224Y-63070828D01*
X126990224Y-63070828D02*
X127133081Y-63142257D01*
X127133081Y-63142257D02*
X127204510Y-63213685D01*
X127204510Y-63213685D02*
X127275938Y-63356542D01*
X127275938Y-63356542D02*
X127347367Y-63642257D01*
X127347367Y-63642257D02*
X127347367Y-63999400D01*
X127347367Y-63999400D02*
X127275938Y-64285114D01*
X127275938Y-64285114D02*
X127204510Y-64427971D01*
X127204510Y-64427971D02*
X127133081Y-64499400D01*
X127133081Y-64499400D02*
X126990224Y-64570828D01*
X126990224Y-64570828D02*
X126847367Y-64570828D01*
X126847367Y-64570828D02*
X126704510Y-64499400D01*
X126704510Y-64499400D02*
X126633081Y-64427971D01*
X126633081Y-64427971D02*
X126561652Y-64285114D01*
X126561652Y-64285114D02*
X126490224Y-63999400D01*
X126490224Y-63999400D02*
X126490224Y-63642257D01*
X126490224Y-63642257D02*
X126561652Y-63356542D01*
X126561652Y-63356542D02*
X126633081Y-63213685D01*
X126633081Y-63213685D02*
X126704510Y-63142257D01*
X126704510Y-63142257D02*
X126847367Y-63070828D01*
X128275938Y-63070828D02*
X128418795Y-63070828D01*
X128418795Y-63070828D02*
X128561652Y-63142257D01*
X128561652Y-63142257D02*
X128633081Y-63213685D01*
X128633081Y-63213685D02*
X128704509Y-63356542D01*
X128704509Y-63356542D02*
X128775938Y-63642257D01*
X128775938Y-63642257D02*
X128775938Y-63999400D01*
X128775938Y-63999400D02*
X128704509Y-64285114D01*
X128704509Y-64285114D02*
X128633081Y-64427971D01*
X128633081Y-64427971D02*
X128561652Y-64499400D01*
X128561652Y-64499400D02*
X128418795Y-64570828D01*
X128418795Y-64570828D02*
X128275938Y-64570828D01*
X128275938Y-64570828D02*
X128133081Y-64499400D01*
X128133081Y-64499400D02*
X128061652Y-64427971D01*
X128061652Y-64427971D02*
X127990223Y-64285114D01*
X127990223Y-64285114D02*
X127918795Y-63999400D01*
X127918795Y-63999400D02*
X127918795Y-63642257D01*
X127918795Y-63642257D02*
X127990223Y-63356542D01*
X127990223Y-63356542D02*
X128061652Y-63213685D01*
X128061652Y-63213685D02*
X128133081Y-63142257D01*
X128133081Y-63142257D02*
X128275938Y-63070828D01*
X129704509Y-63070828D02*
X129847366Y-63070828D01*
X129847366Y-63070828D02*
X129990223Y-63142257D01*
X129990223Y-63142257D02*
X130061652Y-63213685D01*
X130061652Y-63213685D02*
X130133080Y-63356542D01*
X130133080Y-63356542D02*
X130204509Y-63642257D01*
X130204509Y-63642257D02*
X130204509Y-63999400D01*
X130204509Y-63999400D02*
X130133080Y-64285114D01*
X130133080Y-64285114D02*
X130061652Y-64427971D01*
X130061652Y-64427971D02*
X129990223Y-64499400D01*
X129990223Y-64499400D02*
X129847366Y-64570828D01*
X129847366Y-64570828D02*
X129704509Y-64570828D01*
X129704509Y-64570828D02*
X129561652Y-64499400D01*
X129561652Y-64499400D02*
X129490223Y-64427971D01*
X129490223Y-64427971D02*
X129418794Y-64285114D01*
X129418794Y-64285114D02*
X129347366Y-63999400D01*
X129347366Y-63999400D02*
X129347366Y-63642257D01*
X129347366Y-63642257D02*
X129418794Y-63356542D01*
X129418794Y-63356542D02*
X129490223Y-63213685D01*
X129490223Y-63213685D02*
X129561652Y-63142257D01*
X129561652Y-63142257D02*
X129704509Y-63070828D01*
D10*
X154317819Y-65344731D02*
X154317819Y-64773303D01*
X155317819Y-65059017D02*
X154317819Y-65059017D01*
X154317819Y-64535207D02*
X155317819Y-63868541D01*
X154317819Y-63868541D02*
X155317819Y-64535207D01*
X119111095Y-109929319D02*
X119111095Y-110738842D01*
X119111095Y-110738842D02*
X119158714Y-110834080D01*
X119158714Y-110834080D02*
X119206333Y-110881700D01*
X119206333Y-110881700D02*
X119301571Y-110929319D01*
X119301571Y-110929319D02*
X119492047Y-110929319D01*
X119492047Y-110929319D02*
X119587285Y-110881700D01*
X119587285Y-110881700D02*
X119634904Y-110834080D01*
X119634904Y-110834080D02*
X119682523Y-110738842D01*
X119682523Y-110738842D02*
X119682523Y-109929319D01*
X120682523Y-110929319D02*
X120111095Y-110929319D01*
X120396809Y-110929319D02*
X120396809Y-109929319D01*
X120396809Y-109929319D02*
X120301571Y-110072176D01*
X120301571Y-110072176D02*
X120206333Y-110167414D01*
X120206333Y-110167414D02*
X120111095Y-110215033D01*
X117324524Y-93022057D02*
X117372143Y-92974438D01*
X117372143Y-92974438D02*
X117467381Y-92926819D01*
X117467381Y-92926819D02*
X117705476Y-92926819D01*
X117705476Y-92926819D02*
X117800714Y-92974438D01*
X117800714Y-92974438D02*
X117848333Y-93022057D01*
X117848333Y-93022057D02*
X117895952Y-93117295D01*
X117895952Y-93117295D02*
X117895952Y-93212533D01*
X117895952Y-93212533D02*
X117848333Y-93355390D01*
X117848333Y-93355390D02*
X117276905Y-93926819D01*
X117276905Y-93926819D02*
X117895952Y-93926819D01*
X118229286Y-92926819D02*
X118895952Y-92926819D01*
X118895952Y-92926819D02*
X118467381Y-93926819D01*
X119848333Y-93831580D02*
X119800714Y-93879200D01*
X119800714Y-93879200D02*
X119657857Y-93926819D01*
X119657857Y-93926819D02*
X119562619Y-93926819D01*
X119562619Y-93926819D02*
X119419762Y-93879200D01*
X119419762Y-93879200D02*
X119324524Y-93783961D01*
X119324524Y-93783961D02*
X119276905Y-93688723D01*
X119276905Y-93688723D02*
X119229286Y-93498247D01*
X119229286Y-93498247D02*
X119229286Y-93355390D01*
X119229286Y-93355390D02*
X119276905Y-93164914D01*
X119276905Y-93164914D02*
X119324524Y-93069676D01*
X119324524Y-93069676D02*
X119419762Y-92974438D01*
X119419762Y-92974438D02*
X119562619Y-92926819D01*
X119562619Y-92926819D02*
X119657857Y-92926819D01*
X119657857Y-92926819D02*
X119800714Y-92974438D01*
X119800714Y-92974438D02*
X119848333Y-93022057D01*
X120753095Y-92926819D02*
X120276905Y-92926819D01*
X120276905Y-92926819D02*
X120229286Y-93403009D01*
X120229286Y-93403009D02*
X120276905Y-93355390D01*
X120276905Y-93355390D02*
X120372143Y-93307771D01*
X120372143Y-93307771D02*
X120610238Y-93307771D01*
X120610238Y-93307771D02*
X120705476Y-93355390D01*
X120705476Y-93355390D02*
X120753095Y-93403009D01*
X120753095Y-93403009D02*
X120800714Y-93498247D01*
X120800714Y-93498247D02*
X120800714Y-93736342D01*
X120800714Y-93736342D02*
X120753095Y-93831580D01*
X120753095Y-93831580D02*
X120705476Y-93879200D01*
X120705476Y-93879200D02*
X120610238Y-93926819D01*
X120610238Y-93926819D02*
X120372143Y-93926819D01*
X120372143Y-93926819D02*
X120276905Y-93879200D01*
X120276905Y-93879200D02*
X120229286Y-93831580D01*
X121753095Y-93926819D02*
X121181667Y-93926819D01*
X121467381Y-93926819D02*
X121467381Y-92926819D01*
X121467381Y-92926819D02*
X121372143Y-93069676D01*
X121372143Y-93069676D02*
X121276905Y-93164914D01*
X121276905Y-93164914D02*
X121181667Y-93212533D01*
X122134048Y-93022057D02*
X122181667Y-92974438D01*
X122181667Y-92974438D02*
X122276905Y-92926819D01*
X122276905Y-92926819D02*
X122515000Y-92926819D01*
X122515000Y-92926819D02*
X122610238Y-92974438D01*
X122610238Y-92974438D02*
X122657857Y-93022057D01*
X122657857Y-93022057D02*
X122705476Y-93117295D01*
X122705476Y-93117295D02*
X122705476Y-93212533D01*
X122705476Y-93212533D02*
X122657857Y-93355390D01*
X122657857Y-93355390D02*
X122086429Y-93926819D01*
X122086429Y-93926819D02*
X122705476Y-93926819D01*
X174968819Y-115864794D02*
X173968819Y-115864794D01*
X173968819Y-115864794D02*
X173968819Y-115626699D01*
X173968819Y-115626699D02*
X174016438Y-115483842D01*
X174016438Y-115483842D02*
X174111676Y-115388604D01*
X174111676Y-115388604D02*
X174206914Y-115340985D01*
X174206914Y-115340985D02*
X174397390Y-115293366D01*
X174397390Y-115293366D02*
X174540247Y-115293366D01*
X174540247Y-115293366D02*
X174730723Y-115340985D01*
X174730723Y-115340985D02*
X174825961Y-115388604D01*
X174825961Y-115388604D02*
X174921200Y-115483842D01*
X174921200Y-115483842D02*
X174968819Y-115626699D01*
X174968819Y-115626699D02*
X174968819Y-115864794D01*
X174064057Y-114912413D02*
X174016438Y-114864794D01*
X174016438Y-114864794D02*
X173968819Y-114769556D01*
X173968819Y-114769556D02*
X173968819Y-114531461D01*
X173968819Y-114531461D02*
X174016438Y-114436223D01*
X174016438Y-114436223D02*
X174064057Y-114388604D01*
X174064057Y-114388604D02*
X174159295Y-114340985D01*
X174159295Y-114340985D02*
X174254533Y-114340985D01*
X174254533Y-114340985D02*
X174397390Y-114388604D01*
X174397390Y-114388604D02*
X174968819Y-114960032D01*
X174968819Y-114960032D02*
X174968819Y-114340985D01*
X170972819Y-115832651D02*
X171972819Y-115594556D01*
X171972819Y-115594556D02*
X171258533Y-115404080D01*
X171258533Y-115404080D02*
X171972819Y-115213604D01*
X171972819Y-115213604D02*
X170972819Y-114975509D01*
X171972819Y-114594556D02*
X170972819Y-114594556D01*
X171449009Y-113785033D02*
X171449009Y-114118366D01*
X171972819Y-114118366D02*
X170972819Y-114118366D01*
X170972819Y-114118366D02*
X170972819Y-113642176D01*
X171972819Y-113261223D02*
X170972819Y-113261223D01*
X172068057Y-113023129D02*
X172068057Y-112261224D01*
X170972819Y-112118366D02*
X171972819Y-111880271D01*
X171972819Y-111880271D02*
X171258533Y-111689795D01*
X171258533Y-111689795D02*
X171972819Y-111499319D01*
X171972819Y-111499319D02*
X170972819Y-111261224D01*
X171972819Y-110880271D02*
X170972819Y-110880271D01*
X171449009Y-110880271D02*
X171449009Y-110308843D01*
X171972819Y-110308843D02*
X170972819Y-110308843D01*
X171972819Y-109832652D02*
X170972819Y-109832652D01*
X170972819Y-109499319D02*
X170972819Y-108927891D01*
X171972819Y-109213605D02*
X170972819Y-109213605D01*
X171449009Y-108594557D02*
X171449009Y-108261224D01*
X171972819Y-108118367D02*
X171972819Y-108594557D01*
X171972819Y-108594557D02*
X170972819Y-108594557D01*
X170972819Y-108594557D02*
X170972819Y-108118367D01*
X179956200Y-112570532D02*
X180003819Y-112427675D01*
X180003819Y-112427675D02*
X180003819Y-112189580D01*
X180003819Y-112189580D02*
X179956200Y-112094342D01*
X179956200Y-112094342D02*
X179908580Y-112046723D01*
X179908580Y-112046723D02*
X179813342Y-111999104D01*
X179813342Y-111999104D02*
X179718104Y-111999104D01*
X179718104Y-111999104D02*
X179622866Y-112046723D01*
X179622866Y-112046723D02*
X179575247Y-112094342D01*
X179575247Y-112094342D02*
X179527628Y-112189580D01*
X179527628Y-112189580D02*
X179480009Y-112380056D01*
X179480009Y-112380056D02*
X179432390Y-112475294D01*
X179432390Y-112475294D02*
X179384771Y-112522913D01*
X179384771Y-112522913D02*
X179289533Y-112570532D01*
X179289533Y-112570532D02*
X179194295Y-112570532D01*
X179194295Y-112570532D02*
X179099057Y-112522913D01*
X179099057Y-112522913D02*
X179051438Y-112475294D01*
X179051438Y-112475294D02*
X179003819Y-112380056D01*
X179003819Y-112380056D02*
X179003819Y-112141961D01*
X179003819Y-112141961D02*
X179051438Y-111999104D01*
X179003819Y-111665770D02*
X180003819Y-111427675D01*
X180003819Y-111427675D02*
X179289533Y-111237199D01*
X179289533Y-111237199D02*
X180003819Y-111046723D01*
X180003819Y-111046723D02*
X179003819Y-110808628D01*
X179099057Y-110475294D02*
X179051438Y-110427675D01*
X179051438Y-110427675D02*
X179003819Y-110332437D01*
X179003819Y-110332437D02*
X179003819Y-110094342D01*
X179003819Y-110094342D02*
X179051438Y-109999104D01*
X179051438Y-109999104D02*
X179099057Y-109951485D01*
X179099057Y-109951485D02*
X179194295Y-109903866D01*
X179194295Y-109903866D02*
X179289533Y-109903866D01*
X179289533Y-109903866D02*
X179432390Y-109951485D01*
X179432390Y-109951485D02*
X180003819Y-110522913D01*
X180003819Y-110522913D02*
X180003819Y-109903866D01*
X176969009Y-113613914D02*
X177016628Y-113471057D01*
X177016628Y-113471057D02*
X177064247Y-113423438D01*
X177064247Y-113423438D02*
X177159485Y-113375819D01*
X177159485Y-113375819D02*
X177302342Y-113375819D01*
X177302342Y-113375819D02*
X177397580Y-113423438D01*
X177397580Y-113423438D02*
X177445200Y-113471057D01*
X177445200Y-113471057D02*
X177492819Y-113566295D01*
X177492819Y-113566295D02*
X177492819Y-113947247D01*
X177492819Y-113947247D02*
X176492819Y-113947247D01*
X176492819Y-113947247D02*
X176492819Y-113613914D01*
X176492819Y-113613914D02*
X176540438Y-113518676D01*
X176540438Y-113518676D02*
X176588057Y-113471057D01*
X176588057Y-113471057D02*
X176683295Y-113423438D01*
X176683295Y-113423438D02*
X176778533Y-113423438D01*
X176778533Y-113423438D02*
X176873771Y-113471057D01*
X176873771Y-113471057D02*
X176921390Y-113518676D01*
X176921390Y-113518676D02*
X176969009Y-113613914D01*
X176969009Y-113613914D02*
X176969009Y-113947247D01*
X176826152Y-112518676D02*
X177492819Y-112518676D01*
X176826152Y-112947247D02*
X177349961Y-112947247D01*
X177349961Y-112947247D02*
X177445200Y-112899628D01*
X177445200Y-112899628D02*
X177492819Y-112804390D01*
X177492819Y-112804390D02*
X177492819Y-112661533D01*
X177492819Y-112661533D02*
X177445200Y-112566295D01*
X177445200Y-112566295D02*
X177397580Y-112518676D01*
X176826152Y-112185342D02*
X176826152Y-111804390D01*
X176492819Y-112042485D02*
X177349961Y-112042485D01*
X177349961Y-112042485D02*
X177445200Y-111994866D01*
X177445200Y-111994866D02*
X177492819Y-111899628D01*
X177492819Y-111899628D02*
X177492819Y-111804390D01*
X176826152Y-111613913D02*
X176826152Y-111232961D01*
X176492819Y-111471056D02*
X177349961Y-111471056D01*
X177349961Y-111471056D02*
X177445200Y-111423437D01*
X177445200Y-111423437D02*
X177492819Y-111328199D01*
X177492819Y-111328199D02*
X177492819Y-111232961D01*
X177492819Y-110756770D02*
X177445200Y-110852008D01*
X177445200Y-110852008D02*
X177397580Y-110899627D01*
X177397580Y-110899627D02*
X177302342Y-110947246D01*
X177302342Y-110947246D02*
X177016628Y-110947246D01*
X177016628Y-110947246D02*
X176921390Y-110899627D01*
X176921390Y-110899627D02*
X176873771Y-110852008D01*
X176873771Y-110852008D02*
X176826152Y-110756770D01*
X176826152Y-110756770D02*
X176826152Y-110613913D01*
X176826152Y-110613913D02*
X176873771Y-110518675D01*
X176873771Y-110518675D02*
X176921390Y-110471056D01*
X176921390Y-110471056D02*
X177016628Y-110423437D01*
X177016628Y-110423437D02*
X177302342Y-110423437D01*
X177302342Y-110423437D02*
X177397580Y-110471056D01*
X177397580Y-110471056D02*
X177445200Y-110518675D01*
X177445200Y-110518675D02*
X177492819Y-110613913D01*
X177492819Y-110613913D02*
X177492819Y-110756770D01*
X176826152Y-109994865D02*
X177492819Y-109994865D01*
X176921390Y-109994865D02*
X176873771Y-109947246D01*
X176873771Y-109947246D02*
X176826152Y-109852008D01*
X176826152Y-109852008D02*
X176826152Y-109709151D01*
X176826152Y-109709151D02*
X176873771Y-109613913D01*
X176873771Y-109613913D02*
X176969009Y-109566294D01*
X176969009Y-109566294D02*
X177492819Y-109566294D01*
X177207104Y-109137722D02*
X177207104Y-108661532D01*
X177492819Y-109232960D02*
X176492819Y-108899627D01*
X176492819Y-108899627D02*
X177492819Y-108566294D01*
X151571600Y-112051932D02*
X151619219Y-111909075D01*
X151619219Y-111909075D02*
X151619219Y-111670980D01*
X151619219Y-111670980D02*
X151571600Y-111575742D01*
X151571600Y-111575742D02*
X151523980Y-111528123D01*
X151523980Y-111528123D02*
X151428742Y-111480504D01*
X151428742Y-111480504D02*
X151333504Y-111480504D01*
X151333504Y-111480504D02*
X151238266Y-111528123D01*
X151238266Y-111528123D02*
X151190647Y-111575742D01*
X151190647Y-111575742D02*
X151143028Y-111670980D01*
X151143028Y-111670980D02*
X151095409Y-111861456D01*
X151095409Y-111861456D02*
X151047790Y-111956694D01*
X151047790Y-111956694D02*
X151000171Y-112004313D01*
X151000171Y-112004313D02*
X150904933Y-112051932D01*
X150904933Y-112051932D02*
X150809695Y-112051932D01*
X150809695Y-112051932D02*
X150714457Y-112004313D01*
X150714457Y-112004313D02*
X150666838Y-111956694D01*
X150666838Y-111956694D02*
X150619219Y-111861456D01*
X150619219Y-111861456D02*
X150619219Y-111623361D01*
X150619219Y-111623361D02*
X150666838Y-111480504D01*
X150619219Y-111147170D02*
X151619219Y-110909075D01*
X151619219Y-110909075D02*
X150904933Y-110718599D01*
X150904933Y-110718599D02*
X151619219Y-110528123D01*
X151619219Y-110528123D02*
X150619219Y-110290028D01*
X151619219Y-109385266D02*
X151619219Y-109956694D01*
X151619219Y-109670980D02*
X150619219Y-109670980D01*
X150619219Y-109670980D02*
X150762076Y-109766218D01*
X150762076Y-109766218D02*
X150857314Y-109861456D01*
X150857314Y-109861456D02*
X150904933Y-109956694D01*
X153505476Y-104770809D02*
X153838809Y-104770809D01*
X153981666Y-105294619D02*
X153505476Y-105294619D01*
X153505476Y-105294619D02*
X153505476Y-104294619D01*
X153505476Y-104294619D02*
X153981666Y-104294619D01*
X154410238Y-105294619D02*
X154410238Y-104294619D01*
X154410238Y-104294619D02*
X154791190Y-104294619D01*
X154791190Y-104294619D02*
X154886428Y-104342238D01*
X154886428Y-104342238D02*
X154934047Y-104389857D01*
X154934047Y-104389857D02*
X154981666Y-104485095D01*
X154981666Y-104485095D02*
X154981666Y-104627952D01*
X154981666Y-104627952D02*
X154934047Y-104723190D01*
X154934047Y-104723190D02*
X154886428Y-104770809D01*
X154886428Y-104770809D02*
X154791190Y-104818428D01*
X154791190Y-104818428D02*
X154410238Y-104818428D01*
X155981666Y-105294619D02*
X155648333Y-104818428D01*
X155410238Y-105294619D02*
X155410238Y-104294619D01*
X155410238Y-104294619D02*
X155791190Y-104294619D01*
X155791190Y-104294619D02*
X155886428Y-104342238D01*
X155886428Y-104342238D02*
X155934047Y-104389857D01*
X155934047Y-104389857D02*
X155981666Y-104485095D01*
X155981666Y-104485095D02*
X155981666Y-104627952D01*
X155981666Y-104627952D02*
X155934047Y-104723190D01*
X155934047Y-104723190D02*
X155886428Y-104770809D01*
X155886428Y-104770809D02*
X155791190Y-104818428D01*
X155791190Y-104818428D02*
X155410238Y-104818428D01*
X156600714Y-104294619D02*
X156791190Y-104294619D01*
X156791190Y-104294619D02*
X156886428Y-104342238D01*
X156886428Y-104342238D02*
X156981666Y-104437476D01*
X156981666Y-104437476D02*
X157029285Y-104627952D01*
X157029285Y-104627952D02*
X157029285Y-104961285D01*
X157029285Y-104961285D02*
X156981666Y-105151761D01*
X156981666Y-105151761D02*
X156886428Y-105247000D01*
X156886428Y-105247000D02*
X156791190Y-105294619D01*
X156791190Y-105294619D02*
X156600714Y-105294619D01*
X156600714Y-105294619D02*
X156505476Y-105247000D01*
X156505476Y-105247000D02*
X156410238Y-105151761D01*
X156410238Y-105151761D02*
X156362619Y-104961285D01*
X156362619Y-104961285D02*
X156362619Y-104627952D01*
X156362619Y-104627952D02*
X156410238Y-104437476D01*
X156410238Y-104437476D02*
X156505476Y-104342238D01*
X156505476Y-104342238D02*
X156600714Y-104294619D01*
X157457857Y-105294619D02*
X157457857Y-104294619D01*
X157457857Y-104294619D02*
X157791190Y-105008904D01*
X157791190Y-105008904D02*
X158124523Y-104294619D01*
X158124523Y-104294619D02*
X158124523Y-105294619D01*
D12*
X153450755Y-109582648D02*
X153412660Y-109658838D01*
X153412660Y-109658838D02*
X153374564Y-109696933D01*
X153374564Y-109696933D02*
X153298374Y-109735029D01*
X153298374Y-109735029D02*
X153069802Y-109735029D01*
X153069802Y-109735029D02*
X152993612Y-109696933D01*
X152993612Y-109696933D02*
X152955517Y-109658838D01*
X152955517Y-109658838D02*
X152917421Y-109582648D01*
X152917421Y-109582648D02*
X152917421Y-109468362D01*
X152917421Y-109468362D02*
X152955517Y-109392171D01*
X152955517Y-109392171D02*
X152993612Y-109354076D01*
X152993612Y-109354076D02*
X153069802Y-109315981D01*
X153069802Y-109315981D02*
X153298374Y-109315981D01*
X153298374Y-109315981D02*
X153374564Y-109354076D01*
X153374564Y-109354076D02*
X153412660Y-109392171D01*
X153412660Y-109392171D02*
X153450755Y-109468362D01*
X153450755Y-109468362D02*
X153450755Y-109582648D01*
X152917421Y-108973123D02*
X153450755Y-108973123D01*
X152993612Y-108973123D02*
X152955517Y-108935028D01*
X152955517Y-108935028D02*
X152917421Y-108858838D01*
X152917421Y-108858838D02*
X152917421Y-108744552D01*
X152917421Y-108744552D02*
X152955517Y-108668361D01*
X152955517Y-108668361D02*
X153031707Y-108630266D01*
X153031707Y-108630266D02*
X153450755Y-108630266D01*
D10*
X146837819Y-67797833D02*
X147552104Y-67797833D01*
X147552104Y-67797833D02*
X147694961Y-67845452D01*
X147694961Y-67845452D02*
X147790200Y-67940690D01*
X147790200Y-67940690D02*
X147837819Y-68083547D01*
X147837819Y-68083547D02*
X147837819Y-68178785D01*
X147837819Y-66797833D02*
X147837819Y-67369261D01*
X147837819Y-67083547D02*
X146837819Y-67083547D01*
X146837819Y-67083547D02*
X146980676Y-67178785D01*
X146980676Y-67178785D02*
X147075914Y-67274023D01*
X147075914Y-67274023D02*
X147123533Y-67369261D01*
X149638237Y-70638200D02*
X149781094Y-70685819D01*
X149781094Y-70685819D02*
X150019189Y-70685819D01*
X150019189Y-70685819D02*
X150114427Y-70638200D01*
X150114427Y-70638200D02*
X150162046Y-70590580D01*
X150162046Y-70590580D02*
X150209665Y-70495342D01*
X150209665Y-70495342D02*
X150209665Y-70400104D01*
X150209665Y-70400104D02*
X150162046Y-70304866D01*
X150162046Y-70304866D02*
X150114427Y-70257247D01*
X150114427Y-70257247D02*
X150019189Y-70209628D01*
X150019189Y-70209628D02*
X149828713Y-70162009D01*
X149828713Y-70162009D02*
X149733475Y-70114390D01*
X149733475Y-70114390D02*
X149685856Y-70066771D01*
X149685856Y-70066771D02*
X149638237Y-69971533D01*
X149638237Y-69971533D02*
X149638237Y-69876295D01*
X149638237Y-69876295D02*
X149685856Y-69781057D01*
X149685856Y-69781057D02*
X149733475Y-69733438D01*
X149733475Y-69733438D02*
X149828713Y-69685819D01*
X149828713Y-69685819D02*
X150066808Y-69685819D01*
X150066808Y-69685819D02*
X150209665Y-69733438D01*
X151019189Y-70638200D02*
X150923951Y-70685819D01*
X150923951Y-70685819D02*
X150733475Y-70685819D01*
X150733475Y-70685819D02*
X150638237Y-70638200D01*
X150638237Y-70638200D02*
X150590618Y-70542961D01*
X150590618Y-70542961D02*
X150590618Y-70162009D01*
X150590618Y-70162009D02*
X150638237Y-70066771D01*
X150638237Y-70066771D02*
X150733475Y-70019152D01*
X150733475Y-70019152D02*
X150923951Y-70019152D01*
X150923951Y-70019152D02*
X151019189Y-70066771D01*
X151019189Y-70066771D02*
X151066808Y-70162009D01*
X151066808Y-70162009D02*
X151066808Y-70257247D01*
X151066808Y-70257247D02*
X150590618Y-70352485D01*
X151495380Y-70685819D02*
X151495380Y-70019152D01*
X151495380Y-70209628D02*
X151542999Y-70114390D01*
X151542999Y-70114390D02*
X151590618Y-70066771D01*
X151590618Y-70066771D02*
X151685856Y-70019152D01*
X151685856Y-70019152D02*
X151781094Y-70019152D01*
X152114428Y-70685819D02*
X152114428Y-70019152D01*
X152114428Y-69685819D02*
X152066809Y-69733438D01*
X152066809Y-69733438D02*
X152114428Y-69781057D01*
X152114428Y-69781057D02*
X152162047Y-69733438D01*
X152162047Y-69733438D02*
X152114428Y-69685819D01*
X152114428Y-69685819D02*
X152114428Y-69781057D01*
X153019189Y-70685819D02*
X153019189Y-70162009D01*
X153019189Y-70162009D02*
X152971570Y-70066771D01*
X152971570Y-70066771D02*
X152876332Y-70019152D01*
X152876332Y-70019152D02*
X152685856Y-70019152D01*
X152685856Y-70019152D02*
X152590618Y-70066771D01*
X153019189Y-70638200D02*
X152923951Y-70685819D01*
X152923951Y-70685819D02*
X152685856Y-70685819D01*
X152685856Y-70685819D02*
X152590618Y-70638200D01*
X152590618Y-70638200D02*
X152542999Y-70542961D01*
X152542999Y-70542961D02*
X152542999Y-70447723D01*
X152542999Y-70447723D02*
X152590618Y-70352485D01*
X152590618Y-70352485D02*
X152685856Y-70304866D01*
X152685856Y-70304866D02*
X152923951Y-70304866D01*
X152923951Y-70304866D02*
X153019189Y-70257247D01*
X153638237Y-70685819D02*
X153542999Y-70638200D01*
X153542999Y-70638200D02*
X153495380Y-70542961D01*
X153495380Y-70542961D02*
X153495380Y-69685819D01*
X154781095Y-70685819D02*
X154781095Y-69685819D01*
X154781095Y-69685819D02*
X155162047Y-69685819D01*
X155162047Y-69685819D02*
X155257285Y-69733438D01*
X155257285Y-69733438D02*
X155304904Y-69781057D01*
X155304904Y-69781057D02*
X155352523Y-69876295D01*
X155352523Y-69876295D02*
X155352523Y-70019152D01*
X155352523Y-70019152D02*
X155304904Y-70114390D01*
X155304904Y-70114390D02*
X155257285Y-70162009D01*
X155257285Y-70162009D02*
X155162047Y-70209628D01*
X155162047Y-70209628D02*
X154781095Y-70209628D01*
X155923952Y-70685819D02*
X155828714Y-70638200D01*
X155828714Y-70638200D02*
X155781095Y-70590580D01*
X155781095Y-70590580D02*
X155733476Y-70495342D01*
X155733476Y-70495342D02*
X155733476Y-70209628D01*
X155733476Y-70209628D02*
X155781095Y-70114390D01*
X155781095Y-70114390D02*
X155828714Y-70066771D01*
X155828714Y-70066771D02*
X155923952Y-70019152D01*
X155923952Y-70019152D02*
X156066809Y-70019152D01*
X156066809Y-70019152D02*
X156162047Y-70066771D01*
X156162047Y-70066771D02*
X156209666Y-70114390D01*
X156209666Y-70114390D02*
X156257285Y-70209628D01*
X156257285Y-70209628D02*
X156257285Y-70495342D01*
X156257285Y-70495342D02*
X156209666Y-70590580D01*
X156209666Y-70590580D02*
X156162047Y-70638200D01*
X156162047Y-70638200D02*
X156066809Y-70685819D01*
X156066809Y-70685819D02*
X155923952Y-70685819D01*
X156685857Y-70685819D02*
X156685857Y-70019152D01*
X156685857Y-70209628D02*
X156733476Y-70114390D01*
X156733476Y-70114390D02*
X156781095Y-70066771D01*
X156781095Y-70066771D02*
X156876333Y-70019152D01*
X156876333Y-70019152D02*
X156971571Y-70019152D01*
X157162048Y-70019152D02*
X157543000Y-70019152D01*
X157304905Y-69685819D02*
X157304905Y-70542961D01*
X157304905Y-70542961D02*
X157352524Y-70638200D01*
X157352524Y-70638200D02*
X157447762Y-70685819D01*
X157447762Y-70685819D02*
X157543000Y-70685819D01*
X174952819Y-65508094D02*
X173952819Y-65508094D01*
X173952819Y-65508094D02*
X173952819Y-65269999D01*
X173952819Y-65269999D02*
X174000438Y-65127142D01*
X174000438Y-65127142D02*
X174095676Y-65031904D01*
X174095676Y-65031904D02*
X174190914Y-64984285D01*
X174190914Y-64984285D02*
X174381390Y-64936666D01*
X174381390Y-64936666D02*
X174524247Y-64936666D01*
X174524247Y-64936666D02*
X174714723Y-64984285D01*
X174714723Y-64984285D02*
X174809961Y-65031904D01*
X174809961Y-65031904D02*
X174905200Y-65127142D01*
X174905200Y-65127142D02*
X174952819Y-65269999D01*
X174952819Y-65269999D02*
X174952819Y-65508094D01*
X173952819Y-64603332D02*
X173952819Y-63984285D01*
X173952819Y-63984285D02*
X174333771Y-64317618D01*
X174333771Y-64317618D02*
X174333771Y-64174761D01*
X174333771Y-64174761D02*
X174381390Y-64079523D01*
X174381390Y-64079523D02*
X174429009Y-64031904D01*
X174429009Y-64031904D02*
X174524247Y-63984285D01*
X174524247Y-63984285D02*
X174762342Y-63984285D01*
X174762342Y-63984285D02*
X174857580Y-64031904D01*
X174857580Y-64031904D02*
X174905200Y-64079523D01*
X174905200Y-64079523D02*
X174952819Y-64174761D01*
X174952819Y-64174761D02*
X174952819Y-64460475D01*
X174952819Y-64460475D02*
X174905200Y-64555713D01*
X174905200Y-64555713D02*
X174857580Y-64603332D01*
X171449009Y-71131095D02*
X171496628Y-70988238D01*
X171496628Y-70988238D02*
X171544247Y-70940619D01*
X171544247Y-70940619D02*
X171639485Y-70893000D01*
X171639485Y-70893000D02*
X171782342Y-70893000D01*
X171782342Y-70893000D02*
X171877580Y-70940619D01*
X171877580Y-70940619D02*
X171925200Y-70988238D01*
X171925200Y-70988238D02*
X171972819Y-71083476D01*
X171972819Y-71083476D02*
X171972819Y-71464428D01*
X171972819Y-71464428D02*
X170972819Y-71464428D01*
X170972819Y-71464428D02*
X170972819Y-71131095D01*
X170972819Y-71131095D02*
X171020438Y-71035857D01*
X171020438Y-71035857D02*
X171068057Y-70988238D01*
X171068057Y-70988238D02*
X171163295Y-70940619D01*
X171163295Y-70940619D02*
X171258533Y-70940619D01*
X171258533Y-70940619D02*
X171353771Y-70988238D01*
X171353771Y-70988238D02*
X171401390Y-71035857D01*
X171401390Y-71035857D02*
X171449009Y-71131095D01*
X171449009Y-71131095D02*
X171449009Y-71464428D01*
X170972819Y-70464428D02*
X171782342Y-70464428D01*
X171782342Y-70464428D02*
X171877580Y-70416809D01*
X171877580Y-70416809D02*
X171925200Y-70369190D01*
X171925200Y-70369190D02*
X171972819Y-70273952D01*
X171972819Y-70273952D02*
X171972819Y-70083476D01*
X171972819Y-70083476D02*
X171925200Y-69988238D01*
X171925200Y-69988238D02*
X171877580Y-69940619D01*
X171877580Y-69940619D02*
X171782342Y-69893000D01*
X171782342Y-69893000D02*
X170972819Y-69893000D01*
X171925200Y-69464428D02*
X171972819Y-69321571D01*
X171972819Y-69321571D02*
X171972819Y-69083476D01*
X171972819Y-69083476D02*
X171925200Y-68988238D01*
X171925200Y-68988238D02*
X171877580Y-68940619D01*
X171877580Y-68940619D02*
X171782342Y-68893000D01*
X171782342Y-68893000D02*
X171687104Y-68893000D01*
X171687104Y-68893000D02*
X171591866Y-68940619D01*
X171591866Y-68940619D02*
X171544247Y-68988238D01*
X171544247Y-68988238D02*
X171496628Y-69083476D01*
X171496628Y-69083476D02*
X171449009Y-69273952D01*
X171449009Y-69273952D02*
X171401390Y-69369190D01*
X171401390Y-69369190D02*
X171353771Y-69416809D01*
X171353771Y-69416809D02*
X171258533Y-69464428D01*
X171258533Y-69464428D02*
X171163295Y-69464428D01*
X171163295Y-69464428D02*
X171068057Y-69416809D01*
X171068057Y-69416809D02*
X171020438Y-69369190D01*
X171020438Y-69369190D02*
X170972819Y-69273952D01*
X170972819Y-69273952D02*
X170972819Y-69035857D01*
X170972819Y-69035857D02*
X171020438Y-68893000D01*
X172068057Y-68702524D02*
X172068057Y-67940619D01*
X170972819Y-67512047D02*
X170972819Y-67321571D01*
X170972819Y-67321571D02*
X171020438Y-67226333D01*
X171020438Y-67226333D02*
X171115676Y-67131095D01*
X171115676Y-67131095D02*
X171306152Y-67083476D01*
X171306152Y-67083476D02*
X171639485Y-67083476D01*
X171639485Y-67083476D02*
X171829961Y-67131095D01*
X171829961Y-67131095D02*
X171925200Y-67226333D01*
X171925200Y-67226333D02*
X171972819Y-67321571D01*
X171972819Y-67321571D02*
X171972819Y-67512047D01*
X171972819Y-67512047D02*
X171925200Y-67607285D01*
X171925200Y-67607285D02*
X171829961Y-67702523D01*
X171829961Y-67702523D02*
X171639485Y-67750142D01*
X171639485Y-67750142D02*
X171306152Y-67750142D01*
X171306152Y-67750142D02*
X171115676Y-67702523D01*
X171115676Y-67702523D02*
X171020438Y-67607285D01*
X171020438Y-67607285D02*
X170972819Y-67512047D01*
X171972819Y-66083476D02*
X171496628Y-66416809D01*
X171972819Y-66654904D02*
X170972819Y-66654904D01*
X170972819Y-66654904D02*
X170972819Y-66273952D01*
X170972819Y-66273952D02*
X171020438Y-66178714D01*
X171020438Y-66178714D02*
X171068057Y-66131095D01*
X171068057Y-66131095D02*
X171163295Y-66083476D01*
X171163295Y-66083476D02*
X171306152Y-66083476D01*
X171306152Y-66083476D02*
X171401390Y-66131095D01*
X171401390Y-66131095D02*
X171449009Y-66178714D01*
X171449009Y-66178714D02*
X171496628Y-66273952D01*
X171496628Y-66273952D02*
X171496628Y-66654904D01*
X171687104Y-65702523D02*
X171687104Y-65226333D01*
X171972819Y-65797761D02*
X170972819Y-65464428D01*
X170972819Y-65464428D02*
X171972819Y-65131095D01*
X171972819Y-64797761D02*
X170972819Y-64797761D01*
X170972819Y-64797761D02*
X171972819Y-64226333D01*
X171972819Y-64226333D02*
X170972819Y-64226333D01*
X171020438Y-63226333D02*
X170972819Y-63321571D01*
X170972819Y-63321571D02*
X170972819Y-63464428D01*
X170972819Y-63464428D02*
X171020438Y-63607285D01*
X171020438Y-63607285D02*
X171115676Y-63702523D01*
X171115676Y-63702523D02*
X171210914Y-63750142D01*
X171210914Y-63750142D02*
X171401390Y-63797761D01*
X171401390Y-63797761D02*
X171544247Y-63797761D01*
X171544247Y-63797761D02*
X171734723Y-63750142D01*
X171734723Y-63750142D02*
X171829961Y-63702523D01*
X171829961Y-63702523D02*
X171925200Y-63607285D01*
X171925200Y-63607285D02*
X171972819Y-63464428D01*
X171972819Y-63464428D02*
X171972819Y-63369190D01*
X171972819Y-63369190D02*
X171925200Y-63226333D01*
X171925200Y-63226333D02*
X171877580Y-63178714D01*
X171877580Y-63178714D02*
X171544247Y-63178714D01*
X171544247Y-63178714D02*
X171544247Y-63369190D01*
X171449009Y-62750142D02*
X171449009Y-62416809D01*
X171972819Y-62273952D02*
X171972819Y-62750142D01*
X171972819Y-62750142D02*
X170972819Y-62750142D01*
X170972819Y-62750142D02*
X170972819Y-62273952D01*
X137501333Y-116913819D02*
X137168000Y-116437628D01*
X136929905Y-116913819D02*
X136929905Y-115913819D01*
X136929905Y-115913819D02*
X137310857Y-115913819D01*
X137310857Y-115913819D02*
X137406095Y-115961438D01*
X137406095Y-115961438D02*
X137453714Y-116009057D01*
X137453714Y-116009057D02*
X137501333Y-116104295D01*
X137501333Y-116104295D02*
X137501333Y-116247152D01*
X137501333Y-116247152D02*
X137453714Y-116342390D01*
X137453714Y-116342390D02*
X137406095Y-116390009D01*
X137406095Y-116390009D02*
X137310857Y-116437628D01*
X137310857Y-116437628D02*
X136929905Y-116437628D01*
X138453714Y-116913819D02*
X137882286Y-116913819D01*
X138168000Y-116913819D02*
X138168000Y-115913819D01*
X138168000Y-115913819D02*
X138072762Y-116056676D01*
X138072762Y-116056676D02*
X137977524Y-116151914D01*
X137977524Y-116151914D02*
X137882286Y-116199533D01*
X137970419Y-111307476D02*
X137970419Y-111878904D01*
X137970419Y-111593190D02*
X136970419Y-111593190D01*
X136970419Y-111593190D02*
X137113276Y-111688428D01*
X137113276Y-111688428D02*
X137208514Y-111783666D01*
X137208514Y-111783666D02*
X137256133Y-111878904D01*
X136970419Y-110688428D02*
X136970419Y-110593190D01*
X136970419Y-110593190D02*
X137018038Y-110497952D01*
X137018038Y-110497952D02*
X137065657Y-110450333D01*
X137065657Y-110450333D02*
X137160895Y-110402714D01*
X137160895Y-110402714D02*
X137351371Y-110355095D01*
X137351371Y-110355095D02*
X137589466Y-110355095D01*
X137589466Y-110355095D02*
X137779942Y-110402714D01*
X137779942Y-110402714D02*
X137875180Y-110450333D01*
X137875180Y-110450333D02*
X137922800Y-110497952D01*
X137922800Y-110497952D02*
X137970419Y-110593190D01*
X137970419Y-110593190D02*
X137970419Y-110688428D01*
X137970419Y-110688428D02*
X137922800Y-110783666D01*
X137922800Y-110783666D02*
X137875180Y-110831285D01*
X137875180Y-110831285D02*
X137779942Y-110878904D01*
X137779942Y-110878904D02*
X137589466Y-110926523D01*
X137589466Y-110926523D02*
X137351371Y-110926523D01*
X137351371Y-110926523D02*
X137160895Y-110878904D01*
X137160895Y-110878904D02*
X137065657Y-110831285D01*
X137065657Y-110831285D02*
X137018038Y-110783666D01*
X137018038Y-110783666D02*
X136970419Y-110688428D01*
X137970419Y-109926523D02*
X136970419Y-109926523D01*
X137970419Y-109355095D02*
X137398990Y-109783666D01*
X136970419Y-109355095D02*
X137541847Y-109926523D01*
X146393819Y-90296904D02*
X147203342Y-90296904D01*
X147203342Y-90296904D02*
X147298580Y-90249285D01*
X147298580Y-90249285D02*
X147346200Y-90201666D01*
X147346200Y-90201666D02*
X147393819Y-90106428D01*
X147393819Y-90106428D02*
X147393819Y-89915952D01*
X147393819Y-89915952D02*
X147346200Y-89820714D01*
X147346200Y-89820714D02*
X147298580Y-89773095D01*
X147298580Y-89773095D02*
X147203342Y-89725476D01*
X147203342Y-89725476D02*
X146393819Y-89725476D01*
X146489057Y-89296904D02*
X146441438Y-89249285D01*
X146441438Y-89249285D02*
X146393819Y-89154047D01*
X146393819Y-89154047D02*
X146393819Y-88915952D01*
X146393819Y-88915952D02*
X146441438Y-88820714D01*
X146441438Y-88820714D02*
X146489057Y-88773095D01*
X146489057Y-88773095D02*
X146584295Y-88725476D01*
X146584295Y-88725476D02*
X146679533Y-88725476D01*
X146679533Y-88725476D02*
X146822390Y-88773095D01*
X146822390Y-88773095D02*
X147393819Y-89344523D01*
X147393819Y-89344523D02*
X147393819Y-88725476D01*
X151061009Y-95995237D02*
X151061009Y-95661904D01*
X151584819Y-95519047D02*
X151584819Y-95995237D01*
X151584819Y-95995237D02*
X150584819Y-95995237D01*
X150584819Y-95995237D02*
X150584819Y-95519047D01*
X151537200Y-95138094D02*
X151584819Y-94995237D01*
X151584819Y-94995237D02*
X151584819Y-94757142D01*
X151584819Y-94757142D02*
X151537200Y-94661904D01*
X151537200Y-94661904D02*
X151489580Y-94614285D01*
X151489580Y-94614285D02*
X151394342Y-94566666D01*
X151394342Y-94566666D02*
X151299104Y-94566666D01*
X151299104Y-94566666D02*
X151203866Y-94614285D01*
X151203866Y-94614285D02*
X151156247Y-94661904D01*
X151156247Y-94661904D02*
X151108628Y-94757142D01*
X151108628Y-94757142D02*
X151061009Y-94947618D01*
X151061009Y-94947618D02*
X151013390Y-95042856D01*
X151013390Y-95042856D02*
X150965771Y-95090475D01*
X150965771Y-95090475D02*
X150870533Y-95138094D01*
X150870533Y-95138094D02*
X150775295Y-95138094D01*
X150775295Y-95138094D02*
X150680057Y-95090475D01*
X150680057Y-95090475D02*
X150632438Y-95042856D01*
X150632438Y-95042856D02*
X150584819Y-94947618D01*
X150584819Y-94947618D02*
X150584819Y-94709523D01*
X150584819Y-94709523D02*
X150632438Y-94566666D01*
X151584819Y-94138094D02*
X150584819Y-94138094D01*
X150584819Y-94138094D02*
X150584819Y-93757142D01*
X150584819Y-93757142D02*
X150632438Y-93661904D01*
X150632438Y-93661904D02*
X150680057Y-93614285D01*
X150680057Y-93614285D02*
X150775295Y-93566666D01*
X150775295Y-93566666D02*
X150918152Y-93566666D01*
X150918152Y-93566666D02*
X151013390Y-93614285D01*
X151013390Y-93614285D02*
X151061009Y-93661904D01*
X151061009Y-93661904D02*
X151108628Y-93757142D01*
X151108628Y-93757142D02*
X151108628Y-94138094D01*
X150584819Y-93233332D02*
X150584819Y-92614285D01*
X150584819Y-92614285D02*
X150965771Y-92947618D01*
X150965771Y-92947618D02*
X150965771Y-92804761D01*
X150965771Y-92804761D02*
X151013390Y-92709523D01*
X151013390Y-92709523D02*
X151061009Y-92661904D01*
X151061009Y-92661904D02*
X151156247Y-92614285D01*
X151156247Y-92614285D02*
X151394342Y-92614285D01*
X151394342Y-92614285D02*
X151489580Y-92661904D01*
X151489580Y-92661904D02*
X151537200Y-92709523D01*
X151537200Y-92709523D02*
X151584819Y-92804761D01*
X151584819Y-92804761D02*
X151584819Y-93090475D01*
X151584819Y-93090475D02*
X151537200Y-93185713D01*
X151537200Y-93185713D02*
X151489580Y-93233332D01*
X150680057Y-92233332D02*
X150632438Y-92185713D01*
X150632438Y-92185713D02*
X150584819Y-92090475D01*
X150584819Y-92090475D02*
X150584819Y-91852380D01*
X150584819Y-91852380D02*
X150632438Y-91757142D01*
X150632438Y-91757142D02*
X150680057Y-91709523D01*
X150680057Y-91709523D02*
X150775295Y-91661904D01*
X150775295Y-91661904D02*
X150870533Y-91661904D01*
X150870533Y-91661904D02*
X151013390Y-91709523D01*
X151013390Y-91709523D02*
X151584819Y-92280951D01*
X151584819Y-92280951D02*
X151584819Y-91661904D01*
X151203866Y-91233332D02*
X151203866Y-90471428D01*
X151584819Y-89995237D02*
X150584819Y-89995237D01*
X150584819Y-89995237D02*
X150584819Y-89757142D01*
X150584819Y-89757142D02*
X150632438Y-89614285D01*
X150632438Y-89614285D02*
X150727676Y-89519047D01*
X150727676Y-89519047D02*
X150822914Y-89471428D01*
X150822914Y-89471428D02*
X151013390Y-89423809D01*
X151013390Y-89423809D02*
X151156247Y-89423809D01*
X151156247Y-89423809D02*
X151346723Y-89471428D01*
X151346723Y-89471428D02*
X151441961Y-89519047D01*
X151441961Y-89519047D02*
X151537200Y-89614285D01*
X151537200Y-89614285D02*
X151584819Y-89757142D01*
X151584819Y-89757142D02*
X151584819Y-89995237D01*
X151537200Y-88614285D02*
X151584819Y-88709523D01*
X151584819Y-88709523D02*
X151584819Y-88899999D01*
X151584819Y-88899999D02*
X151537200Y-88995237D01*
X151537200Y-88995237D02*
X151441961Y-89042856D01*
X151441961Y-89042856D02*
X151061009Y-89042856D01*
X151061009Y-89042856D02*
X150965771Y-88995237D01*
X150965771Y-88995237D02*
X150918152Y-88899999D01*
X150918152Y-88899999D02*
X150918152Y-88709523D01*
X150918152Y-88709523D02*
X150965771Y-88614285D01*
X150965771Y-88614285D02*
X151061009Y-88566666D01*
X151061009Y-88566666D02*
X151156247Y-88566666D01*
X151156247Y-88566666D02*
X151251485Y-89042856D01*
X150918152Y-88233332D02*
X151584819Y-87995237D01*
X151584819Y-87995237D02*
X150918152Y-87757142D01*
X151584819Y-87376189D02*
X150584819Y-87376189D01*
X151584819Y-86804761D02*
X151013390Y-87233332D01*
X150584819Y-86804761D02*
X151156247Y-87376189D01*
X151584819Y-86376189D02*
X150918152Y-86376189D01*
X150584819Y-86376189D02*
X150632438Y-86423808D01*
X150632438Y-86423808D02*
X150680057Y-86376189D01*
X150680057Y-86376189D02*
X150632438Y-86328570D01*
X150632438Y-86328570D02*
X150584819Y-86376189D01*
X150584819Y-86376189D02*
X150680057Y-86376189D01*
X150918152Y-86042856D02*
X150918152Y-85661904D01*
X150584819Y-85899999D02*
X151441961Y-85899999D01*
X151441961Y-85899999D02*
X151537200Y-85852380D01*
X151537200Y-85852380D02*
X151584819Y-85757142D01*
X151584819Y-85757142D02*
X151584819Y-85661904D01*
X151489580Y-84757142D02*
X151537200Y-84804761D01*
X151537200Y-84804761D02*
X151584819Y-84947618D01*
X151584819Y-84947618D02*
X151584819Y-85042856D01*
X151584819Y-85042856D02*
X151537200Y-85185713D01*
X151537200Y-85185713D02*
X151441961Y-85280951D01*
X151441961Y-85280951D02*
X151346723Y-85328570D01*
X151346723Y-85328570D02*
X151156247Y-85376189D01*
X151156247Y-85376189D02*
X151013390Y-85376189D01*
X151013390Y-85376189D02*
X150822914Y-85328570D01*
X150822914Y-85328570D02*
X150727676Y-85280951D01*
X150727676Y-85280951D02*
X150632438Y-85185713D01*
X150632438Y-85185713D02*
X150584819Y-85042856D01*
X150584819Y-85042856D02*
X150584819Y-84947618D01*
X150584819Y-84947618D02*
X150632438Y-84804761D01*
X150632438Y-84804761D02*
X150680057Y-84757142D01*
X151203866Y-84328570D02*
X151203866Y-83566666D01*
X150584819Y-83233332D02*
X151584819Y-82899999D01*
X151584819Y-82899999D02*
X150584819Y-82566666D01*
X151061009Y-82233332D02*
X151061009Y-81899999D01*
X151584819Y-81757142D02*
X151584819Y-82233332D01*
X151584819Y-82233332D02*
X150584819Y-82233332D01*
X150584819Y-82233332D02*
X150584819Y-81757142D01*
X164044333Y-106626819D02*
X163711000Y-106150628D01*
X163472905Y-106626819D02*
X163472905Y-105626819D01*
X163472905Y-105626819D02*
X163853857Y-105626819D01*
X163853857Y-105626819D02*
X163949095Y-105674438D01*
X163949095Y-105674438D02*
X163996714Y-105722057D01*
X163996714Y-105722057D02*
X164044333Y-105817295D01*
X164044333Y-105817295D02*
X164044333Y-105960152D01*
X164044333Y-105960152D02*
X163996714Y-106055390D01*
X163996714Y-106055390D02*
X163949095Y-106103009D01*
X163949095Y-106103009D02*
X163853857Y-106150628D01*
X163853857Y-106150628D02*
X163472905Y-106150628D01*
X164377667Y-105626819D02*
X164996714Y-105626819D01*
X164996714Y-105626819D02*
X164663381Y-106007771D01*
X164663381Y-106007771D02*
X164806238Y-106007771D01*
X164806238Y-106007771D02*
X164901476Y-106055390D01*
X164901476Y-106055390D02*
X164949095Y-106103009D01*
X164949095Y-106103009D02*
X164996714Y-106198247D01*
X164996714Y-106198247D02*
X164996714Y-106436342D01*
X164996714Y-106436342D02*
X164949095Y-106531580D01*
X164949095Y-106531580D02*
X164901476Y-106579200D01*
X164901476Y-106579200D02*
X164806238Y-106626819D01*
X164806238Y-106626819D02*
X164520524Y-106626819D01*
X164520524Y-106626819D02*
X164425286Y-106579200D01*
X164425286Y-106579200D02*
X164377667Y-106531580D01*
X170219714Y-106626819D02*
X169648286Y-106626819D01*
X169934000Y-106626819D02*
X169934000Y-105626819D01*
X169934000Y-105626819D02*
X169838762Y-105769676D01*
X169838762Y-105769676D02*
X169743524Y-105864914D01*
X169743524Y-105864914D02*
X169648286Y-105912533D01*
X170648286Y-106626819D02*
X170648286Y-105626819D01*
X171219714Y-106626819D02*
X170791143Y-106055390D01*
X171219714Y-105626819D02*
X170648286Y-106198247D01*
X133163333Y-63904580D02*
X133115714Y-63952200D01*
X133115714Y-63952200D02*
X132972857Y-63999819D01*
X132972857Y-63999819D02*
X132877619Y-63999819D01*
X132877619Y-63999819D02*
X132734762Y-63952200D01*
X132734762Y-63952200D02*
X132639524Y-63856961D01*
X132639524Y-63856961D02*
X132591905Y-63761723D01*
X132591905Y-63761723D02*
X132544286Y-63571247D01*
X132544286Y-63571247D02*
X132544286Y-63428390D01*
X132544286Y-63428390D02*
X132591905Y-63237914D01*
X132591905Y-63237914D02*
X132639524Y-63142676D01*
X132639524Y-63142676D02*
X132734762Y-63047438D01*
X132734762Y-63047438D02*
X132877619Y-62999819D01*
X132877619Y-62999819D02*
X132972857Y-62999819D01*
X132972857Y-62999819D02*
X133115714Y-63047438D01*
X133115714Y-63047438D02*
X133163333Y-63095057D01*
X133544286Y-63095057D02*
X133591905Y-63047438D01*
X133591905Y-63047438D02*
X133687143Y-62999819D01*
X133687143Y-62999819D02*
X133925238Y-62999819D01*
X133925238Y-62999819D02*
X134020476Y-63047438D01*
X134020476Y-63047438D02*
X134068095Y-63095057D01*
X134068095Y-63095057D02*
X134115714Y-63190295D01*
X134115714Y-63190295D02*
X134115714Y-63285533D01*
X134115714Y-63285533D02*
X134068095Y-63428390D01*
X134068095Y-63428390D02*
X133496667Y-63999819D01*
X133496667Y-63999819D02*
X134115714Y-63999819D01*
X130020475Y-72799819D02*
X129449047Y-72799819D01*
X129734761Y-72799819D02*
X129734761Y-71799819D01*
X129734761Y-71799819D02*
X129639523Y-71942676D01*
X129639523Y-71942676D02*
X129544285Y-72037914D01*
X129544285Y-72037914D02*
X129449047Y-72085533D01*
X130639523Y-71799819D02*
X130734761Y-71799819D01*
X130734761Y-71799819D02*
X130829999Y-71847438D01*
X130829999Y-71847438D02*
X130877618Y-71895057D01*
X130877618Y-71895057D02*
X130925237Y-71990295D01*
X130925237Y-71990295D02*
X130972856Y-72180771D01*
X130972856Y-72180771D02*
X130972856Y-72418866D01*
X130972856Y-72418866D02*
X130925237Y-72609342D01*
X130925237Y-72609342D02*
X130877618Y-72704580D01*
X130877618Y-72704580D02*
X130829999Y-72752200D01*
X130829999Y-72752200D02*
X130734761Y-72799819D01*
X130734761Y-72799819D02*
X130639523Y-72799819D01*
X130639523Y-72799819D02*
X130544285Y-72752200D01*
X130544285Y-72752200D02*
X130496666Y-72704580D01*
X130496666Y-72704580D02*
X130449047Y-72609342D01*
X130449047Y-72609342D02*
X130401428Y-72418866D01*
X130401428Y-72418866D02*
X130401428Y-72180771D01*
X130401428Y-72180771D02*
X130449047Y-71990295D01*
X130449047Y-71990295D02*
X130496666Y-71895057D01*
X130496666Y-71895057D02*
X130544285Y-71847438D01*
X130544285Y-71847438D02*
X130639523Y-71799819D01*
X131591904Y-71799819D02*
X131687142Y-71799819D01*
X131687142Y-71799819D02*
X131782380Y-71847438D01*
X131782380Y-71847438D02*
X131829999Y-71895057D01*
X131829999Y-71895057D02*
X131877618Y-71990295D01*
X131877618Y-71990295D02*
X131925237Y-72180771D01*
X131925237Y-72180771D02*
X131925237Y-72418866D01*
X131925237Y-72418866D02*
X131877618Y-72609342D01*
X131877618Y-72609342D02*
X131829999Y-72704580D01*
X131829999Y-72704580D02*
X131782380Y-72752200D01*
X131782380Y-72752200D02*
X131687142Y-72799819D01*
X131687142Y-72799819D02*
X131591904Y-72799819D01*
X131591904Y-72799819D02*
X131496666Y-72752200D01*
X131496666Y-72752200D02*
X131449047Y-72704580D01*
X131449047Y-72704580D02*
X131401428Y-72609342D01*
X131401428Y-72609342D02*
X131353809Y-72418866D01*
X131353809Y-72418866D02*
X131353809Y-72180771D01*
X131353809Y-72180771D02*
X131401428Y-71990295D01*
X131401428Y-71990295D02*
X131449047Y-71895057D01*
X131449047Y-71895057D02*
X131496666Y-71847438D01*
X131496666Y-71847438D02*
X131591904Y-71799819D01*
X132782380Y-72133152D02*
X132782380Y-72799819D01*
X132353809Y-72133152D02*
X132353809Y-72656961D01*
X132353809Y-72656961D02*
X132401428Y-72752200D01*
X132401428Y-72752200D02*
X132496666Y-72799819D01*
X132496666Y-72799819D02*
X132639523Y-72799819D01*
X132639523Y-72799819D02*
X132734761Y-72752200D01*
X132734761Y-72752200D02*
X132782380Y-72704580D01*
X133591904Y-72276009D02*
X133258571Y-72276009D01*
X133258571Y-72799819D02*
X133258571Y-71799819D01*
X133258571Y-71799819D02*
X133734761Y-71799819D01*
X135401428Y-72799819D02*
X134830000Y-72799819D01*
X135115714Y-72799819D02*
X135115714Y-71799819D01*
X135115714Y-71799819D02*
X135020476Y-71942676D01*
X135020476Y-71942676D02*
X134925238Y-72037914D01*
X134925238Y-72037914D02*
X134830000Y-72085533D01*
X136020476Y-71799819D02*
X136115714Y-71799819D01*
X136115714Y-71799819D02*
X136210952Y-71847438D01*
X136210952Y-71847438D02*
X136258571Y-71895057D01*
X136258571Y-71895057D02*
X136306190Y-71990295D01*
X136306190Y-71990295D02*
X136353809Y-72180771D01*
X136353809Y-72180771D02*
X136353809Y-72418866D01*
X136353809Y-72418866D02*
X136306190Y-72609342D01*
X136306190Y-72609342D02*
X136258571Y-72704580D01*
X136258571Y-72704580D02*
X136210952Y-72752200D01*
X136210952Y-72752200D02*
X136115714Y-72799819D01*
X136115714Y-72799819D02*
X136020476Y-72799819D01*
X136020476Y-72799819D02*
X135925238Y-72752200D01*
X135925238Y-72752200D02*
X135877619Y-72704580D01*
X135877619Y-72704580D02*
X135830000Y-72609342D01*
X135830000Y-72609342D02*
X135782381Y-72418866D01*
X135782381Y-72418866D02*
X135782381Y-72180771D01*
X135782381Y-72180771D02*
X135830000Y-71990295D01*
X135830000Y-71990295D02*
X135877619Y-71895057D01*
X135877619Y-71895057D02*
X135925238Y-71847438D01*
X135925238Y-71847438D02*
X136020476Y-71799819D01*
X136639524Y-71799819D02*
X136972857Y-72799819D01*
X136972857Y-72799819D02*
X137306190Y-71799819D01*
X130935505Y-114348419D02*
X130935505Y-113348419D01*
X130935505Y-113348419D02*
X131173600Y-113348419D01*
X131173600Y-113348419D02*
X131316457Y-113396038D01*
X131316457Y-113396038D02*
X131411695Y-113491276D01*
X131411695Y-113491276D02*
X131459314Y-113586514D01*
X131459314Y-113586514D02*
X131506933Y-113776990D01*
X131506933Y-113776990D02*
X131506933Y-113919847D01*
X131506933Y-113919847D02*
X131459314Y-114110323D01*
X131459314Y-114110323D02*
X131411695Y-114205561D01*
X131411695Y-114205561D02*
X131316457Y-114300800D01*
X131316457Y-114300800D02*
X131173600Y-114348419D01*
X131173600Y-114348419D02*
X130935505Y-114348419D01*
X132459314Y-114348419D02*
X131887886Y-114348419D01*
X132173600Y-114348419D02*
X132173600Y-113348419D01*
X132173600Y-113348419D02*
X132078362Y-113491276D01*
X132078362Y-113491276D02*
X131983124Y-113586514D01*
X131983124Y-113586514D02*
X131887886Y-113634133D01*
X132103019Y-108670457D02*
X132103019Y-109241885D01*
X132103019Y-108956171D02*
X131103019Y-108956171D01*
X131103019Y-108956171D02*
X131245876Y-109051409D01*
X131245876Y-109051409D02*
X131341114Y-109146647D01*
X131341114Y-109146647D02*
X131388733Y-109241885D01*
X132103019Y-108241885D02*
X131103019Y-108241885D01*
X131103019Y-108241885D02*
X132103019Y-107670457D01*
X132103019Y-107670457D02*
X131103019Y-107670457D01*
X131103019Y-106718076D02*
X131103019Y-107194266D01*
X131103019Y-107194266D02*
X131579209Y-107241885D01*
X131579209Y-107241885D02*
X131531590Y-107194266D01*
X131531590Y-107194266D02*
X131483971Y-107099028D01*
X131483971Y-107099028D02*
X131483971Y-106860933D01*
X131483971Y-106860933D02*
X131531590Y-106765695D01*
X131531590Y-106765695D02*
X131579209Y-106718076D01*
X131579209Y-106718076D02*
X131674447Y-106670457D01*
X131674447Y-106670457D02*
X131912542Y-106670457D01*
X131912542Y-106670457D02*
X132007780Y-106718076D01*
X132007780Y-106718076D02*
X132055400Y-106765695D01*
X132055400Y-106765695D02*
X132103019Y-106860933D01*
X132103019Y-106860933D02*
X132103019Y-107099028D01*
X132103019Y-107099028D02*
X132055400Y-107194266D01*
X132055400Y-107194266D02*
X132007780Y-107241885D01*
X131531590Y-106099028D02*
X131483971Y-106194266D01*
X131483971Y-106194266D02*
X131436352Y-106241885D01*
X131436352Y-106241885D02*
X131341114Y-106289504D01*
X131341114Y-106289504D02*
X131293495Y-106289504D01*
X131293495Y-106289504D02*
X131198257Y-106241885D01*
X131198257Y-106241885D02*
X131150638Y-106194266D01*
X131150638Y-106194266D02*
X131103019Y-106099028D01*
X131103019Y-106099028D02*
X131103019Y-105908552D01*
X131103019Y-105908552D02*
X131150638Y-105813314D01*
X131150638Y-105813314D02*
X131198257Y-105765695D01*
X131198257Y-105765695D02*
X131293495Y-105718076D01*
X131293495Y-105718076D02*
X131341114Y-105718076D01*
X131341114Y-105718076D02*
X131436352Y-105765695D01*
X131436352Y-105765695D02*
X131483971Y-105813314D01*
X131483971Y-105813314D02*
X131531590Y-105908552D01*
X131531590Y-105908552D02*
X131531590Y-106099028D01*
X131531590Y-106099028D02*
X131579209Y-106194266D01*
X131579209Y-106194266D02*
X131626828Y-106241885D01*
X131626828Y-106241885D02*
X131722066Y-106289504D01*
X131722066Y-106289504D02*
X131912542Y-106289504D01*
X131912542Y-106289504D02*
X132007780Y-106241885D01*
X132007780Y-106241885D02*
X132055400Y-106194266D01*
X132055400Y-106194266D02*
X132103019Y-106099028D01*
X132103019Y-106099028D02*
X132103019Y-105908552D01*
X132103019Y-105908552D02*
X132055400Y-105813314D01*
X132055400Y-105813314D02*
X132007780Y-105765695D01*
X132007780Y-105765695D02*
X131912542Y-105718076D01*
X131912542Y-105718076D02*
X131722066Y-105718076D01*
X131722066Y-105718076D02*
X131626828Y-105765695D01*
X131626828Y-105765695D02*
X131579209Y-105813314D01*
X131579209Y-105813314D02*
X131531590Y-105908552D01*
X132103019Y-104765695D02*
X132103019Y-105337123D01*
X132103019Y-105051409D02*
X131103019Y-105051409D01*
X131103019Y-105051409D02*
X131245876Y-105146647D01*
X131245876Y-105146647D02*
X131341114Y-105241885D01*
X131341114Y-105241885D02*
X131388733Y-105337123D01*
X131103019Y-104432361D02*
X131103019Y-103765695D01*
X131103019Y-103765695D02*
X132103019Y-104194266D01*
X130003019Y-111869504D02*
X129003019Y-111869504D01*
X130003019Y-111298076D02*
X129431590Y-111726647D01*
X129003019Y-111298076D02*
X129574447Y-111869504D01*
X121213666Y-66256819D02*
X121213666Y-66971104D01*
X121213666Y-66971104D02*
X121166047Y-67113961D01*
X121166047Y-67113961D02*
X121070809Y-67209200D01*
X121070809Y-67209200D02*
X120927952Y-67256819D01*
X120927952Y-67256819D02*
X120832714Y-67256819D01*
X121689857Y-67256819D02*
X121689857Y-66256819D01*
X121689857Y-66256819D02*
X122070809Y-66256819D01*
X122070809Y-66256819D02*
X122166047Y-66304438D01*
X122166047Y-66304438D02*
X122213666Y-66352057D01*
X122213666Y-66352057D02*
X122261285Y-66447295D01*
X122261285Y-66447295D02*
X122261285Y-66590152D01*
X122261285Y-66590152D02*
X122213666Y-66685390D01*
X122213666Y-66685390D02*
X122166047Y-66733009D01*
X122166047Y-66733009D02*
X122070809Y-66780628D01*
X122070809Y-66780628D02*
X121689857Y-66780628D01*
X123213666Y-67256819D02*
X122642238Y-67256819D01*
X122927952Y-67256819D02*
X122927952Y-66256819D01*
X122927952Y-66256819D02*
X122832714Y-66399676D01*
X122832714Y-66399676D02*
X122737476Y-66494914D01*
X122737476Y-66494914D02*
X122642238Y-66542533D01*
X121587951Y-69130104D02*
X122064141Y-69130104D01*
X121492713Y-69415819D02*
X121826046Y-68415819D01*
X121826046Y-68415819D02*
X122159379Y-69415819D01*
X122921284Y-68749152D02*
X122921284Y-69415819D01*
X122492713Y-68749152D02*
X122492713Y-69272961D01*
X122492713Y-69272961D02*
X122540332Y-69368200D01*
X122540332Y-69368200D02*
X122635570Y-69415819D01*
X122635570Y-69415819D02*
X122778427Y-69415819D01*
X122778427Y-69415819D02*
X122873665Y-69368200D01*
X122873665Y-69368200D02*
X122921284Y-69320580D01*
X123254618Y-68749152D02*
X123635570Y-68749152D01*
X123397475Y-68415819D02*
X123397475Y-69272961D01*
X123397475Y-69272961D02*
X123445094Y-69368200D01*
X123445094Y-69368200D02*
X123540332Y-69415819D01*
X123540332Y-69415819D02*
X123635570Y-69415819D01*
X124111761Y-69415819D02*
X124016523Y-69368200D01*
X124016523Y-69368200D02*
X123968904Y-69320580D01*
X123968904Y-69320580D02*
X123921285Y-69225342D01*
X123921285Y-69225342D02*
X123921285Y-68939628D01*
X123921285Y-68939628D02*
X123968904Y-68844390D01*
X123968904Y-68844390D02*
X124016523Y-68796771D01*
X124016523Y-68796771D02*
X124111761Y-68749152D01*
X124111761Y-68749152D02*
X124254618Y-68749152D01*
X124254618Y-68749152D02*
X124349856Y-68796771D01*
X124349856Y-68796771D02*
X124397475Y-68844390D01*
X124397475Y-68844390D02*
X124445094Y-68939628D01*
X124445094Y-68939628D02*
X124445094Y-69225342D01*
X124445094Y-69225342D02*
X124397475Y-69320580D01*
X124397475Y-69320580D02*
X124349856Y-69368200D01*
X124349856Y-69368200D02*
X124254618Y-69415819D01*
X124254618Y-69415819D02*
X124111761Y-69415819D01*
X125587952Y-69368200D02*
X125730809Y-69415819D01*
X125730809Y-69415819D02*
X125968904Y-69415819D01*
X125968904Y-69415819D02*
X126064142Y-69368200D01*
X126064142Y-69368200D02*
X126111761Y-69320580D01*
X126111761Y-69320580D02*
X126159380Y-69225342D01*
X126159380Y-69225342D02*
X126159380Y-69130104D01*
X126159380Y-69130104D02*
X126111761Y-69034866D01*
X126111761Y-69034866D02*
X126064142Y-68987247D01*
X126064142Y-68987247D02*
X125968904Y-68939628D01*
X125968904Y-68939628D02*
X125778428Y-68892009D01*
X125778428Y-68892009D02*
X125683190Y-68844390D01*
X125683190Y-68844390D02*
X125635571Y-68796771D01*
X125635571Y-68796771D02*
X125587952Y-68701533D01*
X125587952Y-68701533D02*
X125587952Y-68606295D01*
X125587952Y-68606295D02*
X125635571Y-68511057D01*
X125635571Y-68511057D02*
X125683190Y-68463438D01*
X125683190Y-68463438D02*
X125778428Y-68415819D01*
X125778428Y-68415819D02*
X126016523Y-68415819D01*
X126016523Y-68415819D02*
X126159380Y-68463438D01*
X126445095Y-68749152D02*
X126826047Y-68749152D01*
X126587952Y-68415819D02*
X126587952Y-69272961D01*
X126587952Y-69272961D02*
X126635571Y-69368200D01*
X126635571Y-69368200D02*
X126730809Y-69415819D01*
X126730809Y-69415819D02*
X126826047Y-69415819D01*
X127587952Y-69415819D02*
X127587952Y-68892009D01*
X127587952Y-68892009D02*
X127540333Y-68796771D01*
X127540333Y-68796771D02*
X127445095Y-68749152D01*
X127445095Y-68749152D02*
X127254619Y-68749152D01*
X127254619Y-68749152D02*
X127159381Y-68796771D01*
X127587952Y-69368200D02*
X127492714Y-69415819D01*
X127492714Y-69415819D02*
X127254619Y-69415819D01*
X127254619Y-69415819D02*
X127159381Y-69368200D01*
X127159381Y-69368200D02*
X127111762Y-69272961D01*
X127111762Y-69272961D02*
X127111762Y-69177723D01*
X127111762Y-69177723D02*
X127159381Y-69082485D01*
X127159381Y-69082485D02*
X127254619Y-69034866D01*
X127254619Y-69034866D02*
X127492714Y-69034866D01*
X127492714Y-69034866D02*
X127587952Y-68987247D01*
X128064143Y-69415819D02*
X128064143Y-68749152D01*
X128064143Y-68939628D02*
X128111762Y-68844390D01*
X128111762Y-68844390D02*
X128159381Y-68796771D01*
X128159381Y-68796771D02*
X128254619Y-68749152D01*
X128254619Y-68749152D02*
X128349857Y-68749152D01*
X128540334Y-68749152D02*
X128921286Y-68749152D01*
X128683191Y-68415819D02*
X128683191Y-69272961D01*
X128683191Y-69272961D02*
X128730810Y-69368200D01*
X128730810Y-69368200D02*
X128826048Y-69415819D01*
X128826048Y-69415819D02*
X128921286Y-69415819D01*
X161504333Y-91164580D02*
X161456714Y-91212200D01*
X161456714Y-91212200D02*
X161313857Y-91259819D01*
X161313857Y-91259819D02*
X161218619Y-91259819D01*
X161218619Y-91259819D02*
X161075762Y-91212200D01*
X161075762Y-91212200D02*
X160980524Y-91116961D01*
X160980524Y-91116961D02*
X160932905Y-91021723D01*
X160932905Y-91021723D02*
X160885286Y-90831247D01*
X160885286Y-90831247D02*
X160885286Y-90688390D01*
X160885286Y-90688390D02*
X160932905Y-90497914D01*
X160932905Y-90497914D02*
X160980524Y-90402676D01*
X160980524Y-90402676D02*
X161075762Y-90307438D01*
X161075762Y-90307438D02*
X161218619Y-90259819D01*
X161218619Y-90259819D02*
X161313857Y-90259819D01*
X161313857Y-90259819D02*
X161456714Y-90307438D01*
X161456714Y-90307438D02*
X161504333Y-90355057D01*
X161837667Y-90259819D02*
X162456714Y-90259819D01*
X162456714Y-90259819D02*
X162123381Y-90640771D01*
X162123381Y-90640771D02*
X162266238Y-90640771D01*
X162266238Y-90640771D02*
X162361476Y-90688390D01*
X162361476Y-90688390D02*
X162409095Y-90736009D01*
X162409095Y-90736009D02*
X162456714Y-90831247D01*
X162456714Y-90831247D02*
X162456714Y-91069342D01*
X162456714Y-91069342D02*
X162409095Y-91164580D01*
X162409095Y-91164580D02*
X162361476Y-91212200D01*
X162361476Y-91212200D02*
X162266238Y-91259819D01*
X162266238Y-91259819D02*
X161980524Y-91259819D01*
X161980524Y-91259819D02*
X161885286Y-91212200D01*
X161885286Y-91212200D02*
X161837667Y-91164580D01*
X140803333Y-116888419D02*
X140470000Y-116412228D01*
X140231905Y-116888419D02*
X140231905Y-115888419D01*
X140231905Y-115888419D02*
X140612857Y-115888419D01*
X140612857Y-115888419D02*
X140708095Y-115936038D01*
X140708095Y-115936038D02*
X140755714Y-115983657D01*
X140755714Y-115983657D02*
X140803333Y-116078895D01*
X140803333Y-116078895D02*
X140803333Y-116221752D01*
X140803333Y-116221752D02*
X140755714Y-116316990D01*
X140755714Y-116316990D02*
X140708095Y-116364609D01*
X140708095Y-116364609D02*
X140612857Y-116412228D01*
X140612857Y-116412228D02*
X140231905Y-116412228D01*
X141184286Y-115983657D02*
X141231905Y-115936038D01*
X141231905Y-115936038D02*
X141327143Y-115888419D01*
X141327143Y-115888419D02*
X141565238Y-115888419D01*
X141565238Y-115888419D02*
X141660476Y-115936038D01*
X141660476Y-115936038D02*
X141708095Y-115983657D01*
X141708095Y-115983657D02*
X141755714Y-116078895D01*
X141755714Y-116078895D02*
X141755714Y-116174133D01*
X141755714Y-116174133D02*
X141708095Y-116316990D01*
X141708095Y-116316990D02*
X141136667Y-116888419D01*
X141136667Y-116888419D02*
X141755714Y-116888419D01*
X141551819Y-111561476D02*
X141551819Y-112132904D01*
X141551819Y-111847190D02*
X140551819Y-111847190D01*
X140551819Y-111847190D02*
X140694676Y-111942428D01*
X140694676Y-111942428D02*
X140789914Y-112037666D01*
X140789914Y-112037666D02*
X140837533Y-112132904D01*
X140551819Y-110942428D02*
X140551819Y-110847190D01*
X140551819Y-110847190D02*
X140599438Y-110751952D01*
X140599438Y-110751952D02*
X140647057Y-110704333D01*
X140647057Y-110704333D02*
X140742295Y-110656714D01*
X140742295Y-110656714D02*
X140932771Y-110609095D01*
X140932771Y-110609095D02*
X141170866Y-110609095D01*
X141170866Y-110609095D02*
X141361342Y-110656714D01*
X141361342Y-110656714D02*
X141456580Y-110704333D01*
X141456580Y-110704333D02*
X141504200Y-110751952D01*
X141504200Y-110751952D02*
X141551819Y-110847190D01*
X141551819Y-110847190D02*
X141551819Y-110942428D01*
X141551819Y-110942428D02*
X141504200Y-111037666D01*
X141504200Y-111037666D02*
X141456580Y-111085285D01*
X141456580Y-111085285D02*
X141361342Y-111132904D01*
X141361342Y-111132904D02*
X141170866Y-111180523D01*
X141170866Y-111180523D02*
X140932771Y-111180523D01*
X140932771Y-111180523D02*
X140742295Y-111132904D01*
X140742295Y-111132904D02*
X140647057Y-111085285D01*
X140647057Y-111085285D02*
X140599438Y-111037666D01*
X140599438Y-111037666D02*
X140551819Y-110942428D01*
X141551819Y-110180523D02*
X140551819Y-110180523D01*
X141551819Y-109609095D02*
X140980390Y-110037666D01*
X140551819Y-109609095D02*
X141123247Y-110180523D01*
X164552333Y-73860819D02*
X164219000Y-73384628D01*
X163980905Y-73860819D02*
X163980905Y-72860819D01*
X163980905Y-72860819D02*
X164361857Y-72860819D01*
X164361857Y-72860819D02*
X164457095Y-72908438D01*
X164457095Y-72908438D02*
X164504714Y-72956057D01*
X164504714Y-72956057D02*
X164552333Y-73051295D01*
X164552333Y-73051295D02*
X164552333Y-73194152D01*
X164552333Y-73194152D02*
X164504714Y-73289390D01*
X164504714Y-73289390D02*
X164457095Y-73337009D01*
X164457095Y-73337009D02*
X164361857Y-73384628D01*
X164361857Y-73384628D02*
X163980905Y-73384628D01*
X165409476Y-73194152D02*
X165409476Y-73860819D01*
X165171381Y-72813200D02*
X164933286Y-73527485D01*
X164933286Y-73527485D02*
X165552333Y-73527485D01*
X170473714Y-73860819D02*
X169902286Y-73860819D01*
X170188000Y-73860819D02*
X170188000Y-72860819D01*
X170188000Y-72860819D02*
X170092762Y-73003676D01*
X170092762Y-73003676D02*
X169997524Y-73098914D01*
X169997524Y-73098914D02*
X169902286Y-73146533D01*
X170902286Y-73860819D02*
X170902286Y-72860819D01*
X171473714Y-73860819D02*
X171045143Y-73289390D01*
X171473714Y-72860819D02*
X170902286Y-73432247D01*
X144613333Y-94604819D02*
X144280000Y-94128628D01*
X144041905Y-94604819D02*
X144041905Y-93604819D01*
X144041905Y-93604819D02*
X144422857Y-93604819D01*
X144422857Y-93604819D02*
X144518095Y-93652438D01*
X144518095Y-93652438D02*
X144565714Y-93700057D01*
X144565714Y-93700057D02*
X144613333Y-93795295D01*
X144613333Y-93795295D02*
X144613333Y-93938152D01*
X144613333Y-93938152D02*
X144565714Y-94033390D01*
X144565714Y-94033390D02*
X144518095Y-94081009D01*
X144518095Y-94081009D02*
X144422857Y-94128628D01*
X144422857Y-94128628D02*
X144041905Y-94128628D01*
X145518095Y-93604819D02*
X145041905Y-93604819D01*
X145041905Y-93604819D02*
X144994286Y-94081009D01*
X144994286Y-94081009D02*
X145041905Y-94033390D01*
X145041905Y-94033390D02*
X145137143Y-93985771D01*
X145137143Y-93985771D02*
X145375238Y-93985771D01*
X145375238Y-93985771D02*
X145470476Y-94033390D01*
X145470476Y-94033390D02*
X145518095Y-94081009D01*
X145518095Y-94081009D02*
X145565714Y-94176247D01*
X145565714Y-94176247D02*
X145565714Y-94414342D01*
X145565714Y-94414342D02*
X145518095Y-94509580D01*
X145518095Y-94509580D02*
X145470476Y-94557200D01*
X145470476Y-94557200D02*
X145375238Y-94604819D01*
X145375238Y-94604819D02*
X145137143Y-94604819D01*
X145137143Y-94604819D02*
X145041905Y-94557200D01*
X145041905Y-94557200D02*
X144994286Y-94509580D01*
X144565714Y-96974819D02*
X143994286Y-96974819D01*
X144280000Y-96974819D02*
X144280000Y-95974819D01*
X144280000Y-95974819D02*
X144184762Y-96117676D01*
X144184762Y-96117676D02*
X144089524Y-96212914D01*
X144089524Y-96212914D02*
X143994286Y-96260533D01*
X144994286Y-96974819D02*
X144994286Y-95974819D01*
X145565714Y-96974819D02*
X145137143Y-96403390D01*
X145565714Y-95974819D02*
X144994286Y-96546247D01*
X179956200Y-69797832D02*
X180003819Y-69654975D01*
X180003819Y-69654975D02*
X180003819Y-69416880D01*
X180003819Y-69416880D02*
X179956200Y-69321642D01*
X179956200Y-69321642D02*
X179908580Y-69274023D01*
X179908580Y-69274023D02*
X179813342Y-69226404D01*
X179813342Y-69226404D02*
X179718104Y-69226404D01*
X179718104Y-69226404D02*
X179622866Y-69274023D01*
X179622866Y-69274023D02*
X179575247Y-69321642D01*
X179575247Y-69321642D02*
X179527628Y-69416880D01*
X179527628Y-69416880D02*
X179480009Y-69607356D01*
X179480009Y-69607356D02*
X179432390Y-69702594D01*
X179432390Y-69702594D02*
X179384771Y-69750213D01*
X179384771Y-69750213D02*
X179289533Y-69797832D01*
X179289533Y-69797832D02*
X179194295Y-69797832D01*
X179194295Y-69797832D02*
X179099057Y-69750213D01*
X179099057Y-69750213D02*
X179051438Y-69702594D01*
X179051438Y-69702594D02*
X179003819Y-69607356D01*
X179003819Y-69607356D02*
X179003819Y-69369261D01*
X179003819Y-69369261D02*
X179051438Y-69226404D01*
X179003819Y-68893070D02*
X180003819Y-68654975D01*
X180003819Y-68654975D02*
X179289533Y-68464499D01*
X179289533Y-68464499D02*
X180003819Y-68274023D01*
X180003819Y-68274023D02*
X179003819Y-68035928D01*
X179003819Y-67750213D02*
X179003819Y-67131166D01*
X179003819Y-67131166D02*
X179384771Y-67464499D01*
X179384771Y-67464499D02*
X179384771Y-67321642D01*
X179384771Y-67321642D02*
X179432390Y-67226404D01*
X179432390Y-67226404D02*
X179480009Y-67178785D01*
X179480009Y-67178785D02*
X179575247Y-67131166D01*
X179575247Y-67131166D02*
X179813342Y-67131166D01*
X179813342Y-67131166D02*
X179908580Y-67178785D01*
X179908580Y-67178785D02*
X179956200Y-67226404D01*
X179956200Y-67226404D02*
X180003819Y-67321642D01*
X180003819Y-67321642D02*
X180003819Y-67607356D01*
X180003819Y-67607356D02*
X179956200Y-67702594D01*
X179956200Y-67702594D02*
X179908580Y-67750213D01*
X177318200Y-72460952D02*
X177365819Y-72318095D01*
X177365819Y-72318095D02*
X177365819Y-72080000D01*
X177365819Y-72080000D02*
X177318200Y-71984762D01*
X177318200Y-71984762D02*
X177270580Y-71937143D01*
X177270580Y-71937143D02*
X177175342Y-71889524D01*
X177175342Y-71889524D02*
X177080104Y-71889524D01*
X177080104Y-71889524D02*
X176984866Y-71937143D01*
X176984866Y-71937143D02*
X176937247Y-71984762D01*
X176937247Y-71984762D02*
X176889628Y-72080000D01*
X176889628Y-72080000D02*
X176842009Y-72270476D01*
X176842009Y-72270476D02*
X176794390Y-72365714D01*
X176794390Y-72365714D02*
X176746771Y-72413333D01*
X176746771Y-72413333D02*
X176651533Y-72460952D01*
X176651533Y-72460952D02*
X176556295Y-72460952D01*
X176556295Y-72460952D02*
X176461057Y-72413333D01*
X176461057Y-72413333D02*
X176413438Y-72365714D01*
X176413438Y-72365714D02*
X176365819Y-72270476D01*
X176365819Y-72270476D02*
X176365819Y-72032381D01*
X176365819Y-72032381D02*
X176413438Y-71889524D01*
X177365819Y-71032381D02*
X176842009Y-71032381D01*
X176842009Y-71032381D02*
X176746771Y-71080000D01*
X176746771Y-71080000D02*
X176699152Y-71175238D01*
X176699152Y-71175238D02*
X176699152Y-71365714D01*
X176699152Y-71365714D02*
X176746771Y-71460952D01*
X177318200Y-71032381D02*
X177365819Y-71127619D01*
X177365819Y-71127619D02*
X177365819Y-71365714D01*
X177365819Y-71365714D02*
X177318200Y-71460952D01*
X177318200Y-71460952D02*
X177222961Y-71508571D01*
X177222961Y-71508571D02*
X177127723Y-71508571D01*
X177127723Y-71508571D02*
X177032485Y-71460952D01*
X177032485Y-71460952D02*
X176984866Y-71365714D01*
X176984866Y-71365714D02*
X176984866Y-71127619D01*
X176984866Y-71127619D02*
X176937247Y-71032381D01*
X176699152Y-70699047D02*
X176699152Y-70318095D01*
X177365819Y-70556190D02*
X176508676Y-70556190D01*
X176508676Y-70556190D02*
X176413438Y-70508571D01*
X176413438Y-70508571D02*
X176365819Y-70413333D01*
X176365819Y-70413333D02*
X176365819Y-70318095D01*
X177318200Y-69603809D02*
X177365819Y-69699047D01*
X177365819Y-69699047D02*
X177365819Y-69889523D01*
X177365819Y-69889523D02*
X177318200Y-69984761D01*
X177318200Y-69984761D02*
X177222961Y-70032380D01*
X177222961Y-70032380D02*
X176842009Y-70032380D01*
X176842009Y-70032380D02*
X176746771Y-69984761D01*
X176746771Y-69984761D02*
X176699152Y-69889523D01*
X176699152Y-69889523D02*
X176699152Y-69699047D01*
X176699152Y-69699047D02*
X176746771Y-69603809D01*
X176746771Y-69603809D02*
X176842009Y-69556190D01*
X176842009Y-69556190D02*
X176937247Y-69556190D01*
X176937247Y-69556190D02*
X177032485Y-70032380D01*
X177365819Y-67794285D02*
X176889628Y-68127618D01*
X177365819Y-68365713D02*
X176365819Y-68365713D01*
X176365819Y-68365713D02*
X176365819Y-67984761D01*
X176365819Y-67984761D02*
X176413438Y-67889523D01*
X176413438Y-67889523D02*
X176461057Y-67841904D01*
X176461057Y-67841904D02*
X176556295Y-67794285D01*
X176556295Y-67794285D02*
X176699152Y-67794285D01*
X176699152Y-67794285D02*
X176794390Y-67841904D01*
X176794390Y-67841904D02*
X176842009Y-67889523D01*
X176842009Y-67889523D02*
X176889628Y-67984761D01*
X176889628Y-67984761D02*
X176889628Y-68365713D01*
X177318200Y-66984761D02*
X177365819Y-67079999D01*
X177365819Y-67079999D02*
X177365819Y-67270475D01*
X177365819Y-67270475D02*
X177318200Y-67365713D01*
X177318200Y-67365713D02*
X177222961Y-67413332D01*
X177222961Y-67413332D02*
X176842009Y-67413332D01*
X176842009Y-67413332D02*
X176746771Y-67365713D01*
X176746771Y-67365713D02*
X176699152Y-67270475D01*
X176699152Y-67270475D02*
X176699152Y-67079999D01*
X176699152Y-67079999D02*
X176746771Y-66984761D01*
X176746771Y-66984761D02*
X176842009Y-66937142D01*
X176842009Y-66937142D02*
X176937247Y-66937142D01*
X176937247Y-66937142D02*
X177032485Y-67413332D01*
X177318200Y-66556189D02*
X177365819Y-66460951D01*
X177365819Y-66460951D02*
X177365819Y-66270475D01*
X177365819Y-66270475D02*
X177318200Y-66175237D01*
X177318200Y-66175237D02*
X177222961Y-66127618D01*
X177222961Y-66127618D02*
X177175342Y-66127618D01*
X177175342Y-66127618D02*
X177080104Y-66175237D01*
X177080104Y-66175237D02*
X177032485Y-66270475D01*
X177032485Y-66270475D02*
X177032485Y-66413332D01*
X177032485Y-66413332D02*
X176984866Y-66508570D01*
X176984866Y-66508570D02*
X176889628Y-66556189D01*
X176889628Y-66556189D02*
X176842009Y-66556189D01*
X176842009Y-66556189D02*
X176746771Y-66508570D01*
X176746771Y-66508570D02*
X176699152Y-66413332D01*
X176699152Y-66413332D02*
X176699152Y-66270475D01*
X176699152Y-66270475D02*
X176746771Y-66175237D01*
X177318200Y-65318094D02*
X177365819Y-65413332D01*
X177365819Y-65413332D02*
X177365819Y-65603808D01*
X177365819Y-65603808D02*
X177318200Y-65699046D01*
X177318200Y-65699046D02*
X177222961Y-65746665D01*
X177222961Y-65746665D02*
X176842009Y-65746665D01*
X176842009Y-65746665D02*
X176746771Y-65699046D01*
X176746771Y-65699046D02*
X176699152Y-65603808D01*
X176699152Y-65603808D02*
X176699152Y-65413332D01*
X176699152Y-65413332D02*
X176746771Y-65318094D01*
X176746771Y-65318094D02*
X176842009Y-65270475D01*
X176842009Y-65270475D02*
X176937247Y-65270475D01*
X176937247Y-65270475D02*
X177032485Y-65746665D01*
X176699152Y-64984760D02*
X176699152Y-64603808D01*
X176365819Y-64841903D02*
X177222961Y-64841903D01*
X177222961Y-64841903D02*
X177318200Y-64794284D01*
X177318200Y-64794284D02*
X177365819Y-64699046D01*
X177365819Y-64699046D02*
X177365819Y-64603808D01*
X139644523Y-71828819D02*
X139311190Y-71352628D01*
X139073095Y-71828819D02*
X139073095Y-70828819D01*
X139073095Y-70828819D02*
X139454047Y-70828819D01*
X139454047Y-70828819D02*
X139549285Y-70876438D01*
X139549285Y-70876438D02*
X139596904Y-70924057D01*
X139596904Y-70924057D02*
X139644523Y-71019295D01*
X139644523Y-71019295D02*
X139644523Y-71162152D01*
X139644523Y-71162152D02*
X139596904Y-71257390D01*
X139596904Y-71257390D02*
X139549285Y-71305009D01*
X139549285Y-71305009D02*
X139454047Y-71352628D01*
X139454047Y-71352628D02*
X139073095Y-71352628D01*
X140073095Y-71828819D02*
X140073095Y-70828819D01*
X140073095Y-70828819D02*
X140644523Y-71828819D01*
X140644523Y-71828819D02*
X140644523Y-70828819D01*
X141644523Y-71828819D02*
X141073095Y-71828819D01*
X141358809Y-71828819D02*
X141358809Y-70828819D01*
X141358809Y-70828819D02*
X141263571Y-70971676D01*
X141263571Y-70971676D02*
X141168333Y-71066914D01*
X141168333Y-71066914D02*
X141073095Y-71114533D01*
X143454523Y-71828819D02*
X142883095Y-71828819D01*
X143168809Y-71828819D02*
X143168809Y-70828819D01*
X143168809Y-70828819D02*
X143073571Y-70971676D01*
X143073571Y-70971676D02*
X142978333Y-71066914D01*
X142978333Y-71066914D02*
X142883095Y-71114533D01*
X144073571Y-70828819D02*
X144168809Y-70828819D01*
X144168809Y-70828819D02*
X144264047Y-70876438D01*
X144264047Y-70876438D02*
X144311666Y-70924057D01*
X144311666Y-70924057D02*
X144359285Y-71019295D01*
X144359285Y-71019295D02*
X144406904Y-71209771D01*
X144406904Y-71209771D02*
X144406904Y-71447866D01*
X144406904Y-71447866D02*
X144359285Y-71638342D01*
X144359285Y-71638342D02*
X144311666Y-71733580D01*
X144311666Y-71733580D02*
X144264047Y-71781200D01*
X144264047Y-71781200D02*
X144168809Y-71828819D01*
X144168809Y-71828819D02*
X144073571Y-71828819D01*
X144073571Y-71828819D02*
X143978333Y-71781200D01*
X143978333Y-71781200D02*
X143930714Y-71733580D01*
X143930714Y-71733580D02*
X143883095Y-71638342D01*
X143883095Y-71638342D02*
X143835476Y-71447866D01*
X143835476Y-71447866D02*
X143835476Y-71209771D01*
X143835476Y-71209771D02*
X143883095Y-71019295D01*
X143883095Y-71019295D02*
X143930714Y-70924057D01*
X143930714Y-70924057D02*
X143978333Y-70876438D01*
X143978333Y-70876438D02*
X144073571Y-70828819D01*
X144835476Y-71828819D02*
X144835476Y-70828819D01*
X145406904Y-71828819D02*
X144978333Y-71257390D01*
X145406904Y-70828819D02*
X144835476Y-71400247D01*
X122896333Y-114278580D02*
X122848714Y-114326200D01*
X122848714Y-114326200D02*
X122705857Y-114373819D01*
X122705857Y-114373819D02*
X122610619Y-114373819D01*
X122610619Y-114373819D02*
X122467762Y-114326200D01*
X122467762Y-114326200D02*
X122372524Y-114230961D01*
X122372524Y-114230961D02*
X122324905Y-114135723D01*
X122324905Y-114135723D02*
X122277286Y-113945247D01*
X122277286Y-113945247D02*
X122277286Y-113802390D01*
X122277286Y-113802390D02*
X122324905Y-113611914D01*
X122324905Y-113611914D02*
X122372524Y-113516676D01*
X122372524Y-113516676D02*
X122467762Y-113421438D01*
X122467762Y-113421438D02*
X122610619Y-113373819D01*
X122610619Y-113373819D02*
X122705857Y-113373819D01*
X122705857Y-113373819D02*
X122848714Y-113421438D01*
X122848714Y-113421438D02*
X122896333Y-113469057D01*
X123848714Y-114373819D02*
X123277286Y-114373819D01*
X123563000Y-114373819D02*
X123563000Y-113373819D01*
X123563000Y-113373819D02*
X123467762Y-113516676D01*
X123467762Y-113516676D02*
X123372524Y-113611914D01*
X123372524Y-113611914D02*
X123277286Y-113659533D01*
X124563380Y-111960819D02*
X123991952Y-111960819D01*
X124277666Y-111960819D02*
X124277666Y-110960819D01*
X124277666Y-110960819D02*
X124182428Y-111103676D01*
X124182428Y-111103676D02*
X124087190Y-111198914D01*
X124087190Y-111198914D02*
X123991952Y-111246533D01*
X125182428Y-110960819D02*
X125277666Y-110960819D01*
X125277666Y-110960819D02*
X125372904Y-111008438D01*
X125372904Y-111008438D02*
X125420523Y-111056057D01*
X125420523Y-111056057D02*
X125468142Y-111151295D01*
X125468142Y-111151295D02*
X125515761Y-111341771D01*
X125515761Y-111341771D02*
X125515761Y-111579866D01*
X125515761Y-111579866D02*
X125468142Y-111770342D01*
X125468142Y-111770342D02*
X125420523Y-111865580D01*
X125420523Y-111865580D02*
X125372904Y-111913200D01*
X125372904Y-111913200D02*
X125277666Y-111960819D01*
X125277666Y-111960819D02*
X125182428Y-111960819D01*
X125182428Y-111960819D02*
X125087190Y-111913200D01*
X125087190Y-111913200D02*
X125039571Y-111865580D01*
X125039571Y-111865580D02*
X124991952Y-111770342D01*
X124991952Y-111770342D02*
X124944333Y-111579866D01*
X124944333Y-111579866D02*
X124944333Y-111341771D01*
X124944333Y-111341771D02*
X124991952Y-111151295D01*
X124991952Y-111151295D02*
X125039571Y-111056057D01*
X125039571Y-111056057D02*
X125087190Y-111008438D01*
X125087190Y-111008438D02*
X125182428Y-110960819D01*
X126134809Y-110960819D02*
X126230047Y-110960819D01*
X126230047Y-110960819D02*
X126325285Y-111008438D01*
X126325285Y-111008438D02*
X126372904Y-111056057D01*
X126372904Y-111056057D02*
X126420523Y-111151295D01*
X126420523Y-111151295D02*
X126468142Y-111341771D01*
X126468142Y-111341771D02*
X126468142Y-111579866D01*
X126468142Y-111579866D02*
X126420523Y-111770342D01*
X126420523Y-111770342D02*
X126372904Y-111865580D01*
X126372904Y-111865580D02*
X126325285Y-111913200D01*
X126325285Y-111913200D02*
X126230047Y-111960819D01*
X126230047Y-111960819D02*
X126134809Y-111960819D01*
X126134809Y-111960819D02*
X126039571Y-111913200D01*
X126039571Y-111913200D02*
X125991952Y-111865580D01*
X125991952Y-111865580D02*
X125944333Y-111770342D01*
X125944333Y-111770342D02*
X125896714Y-111579866D01*
X125896714Y-111579866D02*
X125896714Y-111341771D01*
X125896714Y-111341771D02*
X125944333Y-111151295D01*
X125944333Y-111151295D02*
X125991952Y-111056057D01*
X125991952Y-111056057D02*
X126039571Y-111008438D01*
X126039571Y-111008438D02*
X126134809Y-110960819D01*
X126896714Y-111294152D02*
X126896714Y-111960819D01*
X126896714Y-111389390D02*
X126944333Y-111341771D01*
X126944333Y-111341771D02*
X127039571Y-111294152D01*
X127039571Y-111294152D02*
X127182428Y-111294152D01*
X127182428Y-111294152D02*
X127277666Y-111341771D01*
X127277666Y-111341771D02*
X127325285Y-111437009D01*
X127325285Y-111437009D02*
X127325285Y-111960819D01*
X128134809Y-111437009D02*
X127801476Y-111437009D01*
X127801476Y-111960819D02*
X127801476Y-110960819D01*
X127801476Y-110960819D02*
X128277666Y-110960819D01*
X137699761Y-64685057D02*
X137604523Y-64637438D01*
X137604523Y-64637438D02*
X137509285Y-64542200D01*
X137509285Y-64542200D02*
X137366428Y-64399342D01*
X137366428Y-64399342D02*
X137271190Y-64351723D01*
X137271190Y-64351723D02*
X137175952Y-64351723D01*
X137223571Y-64589819D02*
X137128333Y-64542200D01*
X137128333Y-64542200D02*
X137033095Y-64446961D01*
X137033095Y-64446961D02*
X136985476Y-64256485D01*
X136985476Y-64256485D02*
X136985476Y-63923152D01*
X136985476Y-63923152D02*
X137033095Y-63732676D01*
X137033095Y-63732676D02*
X137128333Y-63637438D01*
X137128333Y-63637438D02*
X137223571Y-63589819D01*
X137223571Y-63589819D02*
X137414047Y-63589819D01*
X137414047Y-63589819D02*
X137509285Y-63637438D01*
X137509285Y-63637438D02*
X137604523Y-63732676D01*
X137604523Y-63732676D02*
X137652142Y-63923152D01*
X137652142Y-63923152D02*
X137652142Y-64256485D01*
X137652142Y-64256485D02*
X137604523Y-64446961D01*
X137604523Y-64446961D02*
X137509285Y-64542200D01*
X137509285Y-64542200D02*
X137414047Y-64589819D01*
X137414047Y-64589819D02*
X137223571Y-64589819D01*
X138604523Y-64589819D02*
X138033095Y-64589819D01*
X138318809Y-64589819D02*
X138318809Y-63589819D01*
X138318809Y-63589819D02*
X138223571Y-63732676D01*
X138223571Y-63732676D02*
X138128333Y-63827914D01*
X138128333Y-63827914D02*
X138033095Y-63875533D01*
X110113866Y-91076332D02*
X108713866Y-91076332D01*
X108713866Y-91076332D02*
X108713866Y-90542999D01*
X108713866Y-90542999D02*
X108780533Y-90409666D01*
X108780533Y-90409666D02*
X108847200Y-90342999D01*
X108847200Y-90342999D02*
X108980533Y-90276332D01*
X108980533Y-90276332D02*
X109180533Y-90276332D01*
X109180533Y-90276332D02*
X109313866Y-90342999D01*
X109313866Y-90342999D02*
X109380533Y-90409666D01*
X109380533Y-90409666D02*
X109447200Y-90542999D01*
X109447200Y-90542999D02*
X109447200Y-91076332D01*
X110113866Y-88942999D02*
X110113866Y-89742999D01*
X110113866Y-89342999D02*
X108713866Y-89342999D01*
X108713866Y-89342999D02*
X108913866Y-89476332D01*
X108913866Y-89476332D02*
X109047200Y-89609666D01*
X109047200Y-89609666D02*
X109113866Y-89742999D01*
X109273819Y-65534035D02*
X109273819Y-66105463D01*
X109273819Y-65819749D02*
X108273819Y-65819749D01*
X108273819Y-65819749D02*
X108416676Y-65914987D01*
X108416676Y-65914987D02*
X108511914Y-66010225D01*
X108511914Y-66010225D02*
X108559533Y-66105463D01*
X108273819Y-114889273D02*
X108273819Y-114270226D01*
X108273819Y-114270226D02*
X108654771Y-114603559D01*
X108654771Y-114603559D02*
X108654771Y-114460702D01*
X108654771Y-114460702D02*
X108702390Y-114365464D01*
X108702390Y-114365464D02*
X108750009Y-114317845D01*
X108750009Y-114317845D02*
X108845247Y-114270226D01*
X108845247Y-114270226D02*
X109083342Y-114270226D01*
X109083342Y-114270226D02*
X109178580Y-114317845D01*
X109178580Y-114317845D02*
X109226200Y-114365464D01*
X109226200Y-114365464D02*
X109273819Y-114460702D01*
X109273819Y-114460702D02*
X109273819Y-114746416D01*
X109273819Y-114746416D02*
X109226200Y-114841654D01*
X109226200Y-114841654D02*
X109178580Y-114889273D01*
X109273819Y-113794035D02*
X109273819Y-113603559D01*
X109273819Y-113603559D02*
X109226200Y-113508321D01*
X109226200Y-113508321D02*
X109178580Y-113460702D01*
X109178580Y-113460702D02*
X109035723Y-113365464D01*
X109035723Y-113365464D02*
X108845247Y-113317845D01*
X108845247Y-113317845D02*
X108464295Y-113317845D01*
X108464295Y-113317845D02*
X108369057Y-113365464D01*
X108369057Y-113365464D02*
X108321438Y-113413083D01*
X108321438Y-113413083D02*
X108273819Y-113508321D01*
X108273819Y-113508321D02*
X108273819Y-113698797D01*
X108273819Y-113698797D02*
X108321438Y-113794035D01*
X108321438Y-113794035D02*
X108369057Y-113841654D01*
X108369057Y-113841654D02*
X108464295Y-113889273D01*
X108464295Y-113889273D02*
X108702390Y-113889273D01*
X108702390Y-113889273D02*
X108797628Y-113841654D01*
X108797628Y-113841654D02*
X108845247Y-113794035D01*
X108845247Y-113794035D02*
X108892866Y-113698797D01*
X108892866Y-113698797D02*
X108892866Y-113508321D01*
X108892866Y-113508321D02*
X108845247Y-113413083D01*
X108845247Y-113413083D02*
X108797628Y-113365464D01*
X108797628Y-113365464D02*
X108702390Y-113317845D01*
X182826819Y-91924094D02*
X181826819Y-91924094D01*
X181826819Y-91924094D02*
X181826819Y-91543142D01*
X181826819Y-91543142D02*
X181874438Y-91447904D01*
X181874438Y-91447904D02*
X181922057Y-91400285D01*
X181922057Y-91400285D02*
X182017295Y-91352666D01*
X182017295Y-91352666D02*
X182160152Y-91352666D01*
X182160152Y-91352666D02*
X182255390Y-91400285D01*
X182255390Y-91400285D02*
X182303009Y-91447904D01*
X182303009Y-91447904D02*
X182350628Y-91543142D01*
X182350628Y-91543142D02*
X182350628Y-91924094D01*
X181922057Y-90971713D02*
X181874438Y-90924094D01*
X181874438Y-90924094D02*
X181826819Y-90828856D01*
X181826819Y-90828856D02*
X181826819Y-90590761D01*
X181826819Y-90590761D02*
X181874438Y-90495523D01*
X181874438Y-90495523D02*
X181922057Y-90447904D01*
X181922057Y-90447904D02*
X182017295Y-90400285D01*
X182017295Y-90400285D02*
X182112533Y-90400285D01*
X182112533Y-90400285D02*
X182255390Y-90447904D01*
X182255390Y-90447904D02*
X182826819Y-91019332D01*
X182826819Y-91019332D02*
X182826819Y-90400285D01*
X144613333Y-84739819D02*
X144280000Y-84263628D01*
X144041905Y-84739819D02*
X144041905Y-83739819D01*
X144041905Y-83739819D02*
X144422857Y-83739819D01*
X144422857Y-83739819D02*
X144518095Y-83787438D01*
X144518095Y-83787438D02*
X144565714Y-83835057D01*
X144565714Y-83835057D02*
X144613333Y-83930295D01*
X144613333Y-83930295D02*
X144613333Y-84073152D01*
X144613333Y-84073152D02*
X144565714Y-84168390D01*
X144565714Y-84168390D02*
X144518095Y-84216009D01*
X144518095Y-84216009D02*
X144422857Y-84263628D01*
X144422857Y-84263628D02*
X144041905Y-84263628D01*
X145470476Y-83739819D02*
X145280000Y-83739819D01*
X145280000Y-83739819D02*
X145184762Y-83787438D01*
X145184762Y-83787438D02*
X145137143Y-83835057D01*
X145137143Y-83835057D02*
X145041905Y-83977914D01*
X145041905Y-83977914D02*
X144994286Y-84168390D01*
X144994286Y-84168390D02*
X144994286Y-84549342D01*
X144994286Y-84549342D02*
X145041905Y-84644580D01*
X145041905Y-84644580D02*
X145089524Y-84692200D01*
X145089524Y-84692200D02*
X145184762Y-84739819D01*
X145184762Y-84739819D02*
X145375238Y-84739819D01*
X145375238Y-84739819D02*
X145470476Y-84692200D01*
X145470476Y-84692200D02*
X145518095Y-84644580D01*
X145518095Y-84644580D02*
X145565714Y-84549342D01*
X145565714Y-84549342D02*
X145565714Y-84311247D01*
X145565714Y-84311247D02*
X145518095Y-84216009D01*
X145518095Y-84216009D02*
X145470476Y-84168390D01*
X145470476Y-84168390D02*
X145375238Y-84120771D01*
X145375238Y-84120771D02*
X145184762Y-84120771D01*
X145184762Y-84120771D02*
X145089524Y-84168390D01*
X145089524Y-84168390D02*
X145041905Y-84216009D01*
X145041905Y-84216009D02*
X144994286Y-84311247D01*
X144565714Y-82369819D02*
X143994286Y-82369819D01*
X144280000Y-82369819D02*
X144280000Y-81369819D01*
X144280000Y-81369819D02*
X144184762Y-81512676D01*
X144184762Y-81512676D02*
X144089524Y-81607914D01*
X144089524Y-81607914D02*
X143994286Y-81655533D01*
X144994286Y-82369819D02*
X144994286Y-81369819D01*
X145565714Y-82369819D02*
X145137143Y-81798390D01*
X145565714Y-81369819D02*
X144994286Y-81941247D01*
D12*
%TO.C,U1*%
X113413000Y-73794500D02*
X113413000Y-109474500D01*
X113413000Y-109474500D02*
X118873000Y-109474500D01*
X120873000Y-109474500D02*
X126333000Y-109474500D01*
X126333000Y-73794500D02*
X113413000Y-73794500D01*
X126333000Y-109474500D02*
X126333000Y-73794500D01*
X118873000Y-109474500D02*
G75*
G02*
X120873000Y-109474500I1000000J0D01*
G01*
%TO.C,D2*%
X173398000Y-109697200D02*
X173242000Y-109697200D01*
X175714000Y-109697200D02*
X175558000Y-109697200D01*
X173398163Y-112298330D02*
G75*
G02*
X173398000Y-110216239I1079837J1041130D01*
G01*
X173399392Y-112929535D02*
G75*
G02*
X173242484Y-109697200I1078608J1672335D01*
G01*
X175558000Y-110216239D02*
G75*
G02*
X175557837Y-112298330I-1080000J-1040961D01*
G01*
X175713516Y-109697200D02*
G75*
G02*
X175556608Y-112929535I-1235516J-1560000D01*
G01*
%TO.C,SW2*%
X176919000Y-107377200D02*
X176919000Y-107897200D01*
X176919000Y-114577200D02*
X176919000Y-115097200D01*
X177429000Y-107377200D02*
X176919000Y-107377200D01*
X177429000Y-107897200D02*
X176919000Y-107897200D01*
X177429000Y-114577200D02*
X176919000Y-114577200D01*
X177429000Y-115097200D02*
X176919000Y-115097200D01*
X180259000Y-107897200D02*
X180029000Y-107897200D01*
X180259000Y-107897200D02*
X180259000Y-108437200D01*
X180259000Y-109537200D02*
X180259000Y-112937200D01*
X180259000Y-114037200D02*
X180259000Y-114577200D01*
X180259000Y-114577200D02*
X180029000Y-114577200D01*
X183929000Y-107377200D02*
X180029000Y-107377200D01*
X183929000Y-107377200D02*
X183929000Y-115097200D01*
X183929000Y-115097200D02*
X180029000Y-115097200D01*
%TO.C,SW1*%
X151924400Y-115908600D02*
X151924400Y-114524600D01*
X151924400Y-115908600D02*
X153307400Y-115908600D01*
X152164400Y-105768600D02*
X159544400Y-105768600D01*
X152164400Y-115668600D02*
X152164400Y-105768600D01*
X152164400Y-115668600D02*
X159544400Y-115668600D01*
X153949400Y-108688600D02*
X153949400Y-112748600D01*
X153949400Y-111395267D02*
X155219400Y-111395267D01*
X153949400Y-112748600D02*
X155219400Y-112748600D01*
X154069400Y-112748600D02*
X154069400Y-111395267D01*
X154189400Y-112748600D02*
X154189400Y-111395267D01*
X154309400Y-112748600D02*
X154309400Y-111395267D01*
X154429400Y-112748600D02*
X154429400Y-111395267D01*
X154549400Y-112748600D02*
X154549400Y-111395267D01*
X154669400Y-112748600D02*
X154669400Y-111395267D01*
X154789400Y-112748600D02*
X154789400Y-111395267D01*
X154909400Y-112748600D02*
X154909400Y-111395267D01*
X155029400Y-112748600D02*
X155029400Y-111395267D01*
X155149400Y-112748600D02*
X155149400Y-111395267D01*
X155219400Y-108688600D02*
X153949400Y-108688600D01*
X155219400Y-112748600D02*
X155219400Y-108688600D01*
X156489400Y-108688600D02*
X156489400Y-112748600D01*
X156489400Y-111395267D02*
X157759400Y-111395267D01*
X156489400Y-112748600D02*
X157759400Y-112748600D01*
X156609400Y-112748600D02*
X156609400Y-111395267D01*
X156729400Y-112748600D02*
X156729400Y-111395267D01*
X156849400Y-112748600D02*
X156849400Y-111395267D01*
X156969400Y-112748600D02*
X156969400Y-111395267D01*
X157089400Y-112748600D02*
X157089400Y-111395267D01*
X157209400Y-112748600D02*
X157209400Y-111395267D01*
X157329400Y-112748600D02*
X157329400Y-111395267D01*
X157449400Y-112748600D02*
X157449400Y-111395267D01*
X157569400Y-112748600D02*
X157569400Y-111395267D01*
X157689400Y-112748600D02*
X157689400Y-111395267D01*
X157759400Y-108688600D02*
X156489400Y-108688600D01*
X157759400Y-112748600D02*
X157759400Y-108688600D01*
X159544400Y-115668600D02*
X159544400Y-105768600D01*
%TO.C,J1*%
X148383000Y-68794500D02*
X148383000Y-67464500D01*
X149713000Y-68794500D02*
X148383000Y-68794500D01*
X150983000Y-66134500D02*
X158663000Y-66134500D01*
X150983000Y-68794500D02*
X150983000Y-66134500D01*
X150983000Y-68794500D02*
X158663000Y-68794500D01*
X158663000Y-68794500D02*
X158663000Y-66134500D01*
%TO.C,D3*%
X173398000Y-66924500D02*
X173242000Y-66924500D01*
X175714000Y-66924500D02*
X175558000Y-66924500D01*
X173398163Y-69525630D02*
G75*
G02*
X173398000Y-67443539I1079837J1041130D01*
G01*
X173399392Y-70156835D02*
G75*
G02*
X173242484Y-66924500I1078608J1672335D01*
G01*
X175558000Y-67443539D02*
G75*
G02*
X175557837Y-69525630I-1080000J-1040961D01*
G01*
X175713516Y-66924500D02*
G75*
G02*
X175556608Y-70156835I-1235516J-1560000D01*
G01*
%TO.C,R1*%
X136145600Y-107347000D02*
X136145600Y-113887000D01*
X136145600Y-113887000D02*
X136475600Y-113887000D01*
X136475600Y-107347000D02*
X136145600Y-107347000D01*
X138555600Y-107347000D02*
X138885600Y-107347000D01*
X138885600Y-107347000D02*
X138885600Y-113887000D01*
X138885600Y-113887000D02*
X138555600Y-113887000D01*
D13*
%TO.C,U2*%
X129075000Y-80662000D02*
X135275000Y-80662000D01*
X129075000Y-98662000D02*
X129075000Y-80662000D01*
X135275000Y-75712000D02*
X135275000Y-80662000D01*
X135275000Y-98662000D02*
X129075000Y-98662000D01*
X135275000Y-98662000D02*
X135275000Y-103612000D01*
X135275000Y-103612000D02*
X183475000Y-103612000D01*
X183475000Y-75712000D02*
X135275000Y-75712000D01*
X183475000Y-85602000D02*
X183475000Y-75712000D01*
X183475000Y-93732000D02*
X184375000Y-93732000D01*
X183475000Y-103612000D02*
X183475000Y-93732000D01*
X184375000Y-85602000D02*
X183475000Y-85602000D01*
X184375000Y-93732000D02*
X184375000Y-85602000D01*
D14*
X136505000Y-104232000D02*
G75*
G02*
X136305000Y-104232000I-100000J0D01*
G01*
X136305000Y-104232000D02*
G75*
G02*
X136505000Y-104232000I100000J0D01*
G01*
D12*
%TO.C,R3*%
X167164000Y-104802000D02*
X167164000Y-105132000D01*
X167164000Y-107542000D02*
X167164000Y-107212000D01*
X173704000Y-104802000D02*
X167164000Y-104802000D01*
X173704000Y-105132000D02*
X173704000Y-104802000D01*
X173704000Y-107212000D02*
X173704000Y-107542000D01*
X173704000Y-107542000D02*
X167164000Y-107542000D01*
%TO.C,C2*%
X129829759Y-66106000D02*
X130459759Y-66106000D01*
X130144759Y-65791000D02*
X130144759Y-66421000D01*
X133330000Y-64715000D02*
X133330000Y-71175000D01*
X133370000Y-64715000D02*
X133370000Y-71175000D01*
X133410000Y-64715000D02*
X133410000Y-71175000D01*
X133450000Y-64717000D02*
X133450000Y-71173000D01*
X133490000Y-64718000D02*
X133490000Y-71172000D01*
X133530000Y-64721000D02*
X133530000Y-71169000D01*
X133570000Y-64723000D02*
X133570000Y-66905000D01*
X133570000Y-68985000D02*
X133570000Y-71167000D01*
X133610000Y-64727000D02*
X133610000Y-66905000D01*
X133610000Y-68985000D02*
X133610000Y-71163000D01*
X133650000Y-64730000D02*
X133650000Y-66905000D01*
X133650000Y-68985000D02*
X133650000Y-71160000D01*
X133690000Y-64734000D02*
X133690000Y-66905000D01*
X133690000Y-68985000D02*
X133690000Y-71156000D01*
X133730000Y-64739000D02*
X133730000Y-66905000D01*
X133730000Y-68985000D02*
X133730000Y-71151000D01*
X133770000Y-64744000D02*
X133770000Y-66905000D01*
X133770000Y-68985000D02*
X133770000Y-71146000D01*
X133810000Y-64750000D02*
X133810000Y-66905000D01*
X133810000Y-68985000D02*
X133810000Y-71140000D01*
X133850000Y-64756000D02*
X133850000Y-66905000D01*
X133850000Y-68985000D02*
X133850000Y-71134000D01*
X133890000Y-64763000D02*
X133890000Y-66905000D01*
X133890000Y-68985000D02*
X133890000Y-71127000D01*
X133930000Y-64770000D02*
X133930000Y-66905000D01*
X133930000Y-68985000D02*
X133930000Y-71120000D01*
X133970000Y-64778000D02*
X133970000Y-66905000D01*
X133970000Y-68985000D02*
X133970000Y-71112000D01*
X134010000Y-64786000D02*
X134010000Y-66905000D01*
X134010000Y-68985000D02*
X134010000Y-71104000D01*
X134051000Y-64795000D02*
X134051000Y-66905000D01*
X134051000Y-68985000D02*
X134051000Y-71095000D01*
X134091000Y-64804000D02*
X134091000Y-66905000D01*
X134091000Y-68985000D02*
X134091000Y-71086000D01*
X134131000Y-64814000D02*
X134131000Y-66905000D01*
X134131000Y-68985000D02*
X134131000Y-71076000D01*
X134171000Y-64824000D02*
X134171000Y-66905000D01*
X134171000Y-68985000D02*
X134171000Y-71066000D01*
X134211000Y-64835000D02*
X134211000Y-66905000D01*
X134211000Y-68985000D02*
X134211000Y-71055000D01*
X134251000Y-64847000D02*
X134251000Y-66905000D01*
X134251000Y-68985000D02*
X134251000Y-71043000D01*
X134291000Y-64859000D02*
X134291000Y-66905000D01*
X134291000Y-68985000D02*
X134291000Y-71031000D01*
X134331000Y-64871000D02*
X134331000Y-66905000D01*
X134331000Y-68985000D02*
X134331000Y-71019000D01*
X134371000Y-64884000D02*
X134371000Y-66905000D01*
X134371000Y-68985000D02*
X134371000Y-71006000D01*
X134411000Y-64898000D02*
X134411000Y-66905000D01*
X134411000Y-68985000D02*
X134411000Y-70992000D01*
X134451000Y-64912000D02*
X134451000Y-66905000D01*
X134451000Y-68985000D02*
X134451000Y-70978000D01*
X134491000Y-64927000D02*
X134491000Y-66905000D01*
X134491000Y-68985000D02*
X134491000Y-70963000D01*
X134531000Y-64943000D02*
X134531000Y-66905000D01*
X134531000Y-68985000D02*
X134531000Y-70947000D01*
X134571000Y-64959000D02*
X134571000Y-66905000D01*
X134571000Y-68985000D02*
X134571000Y-70931000D01*
X134611000Y-64975000D02*
X134611000Y-66905000D01*
X134611000Y-68985000D02*
X134611000Y-70915000D01*
X134651000Y-64993000D02*
X134651000Y-66905000D01*
X134651000Y-68985000D02*
X134651000Y-70897000D01*
X134691000Y-65011000D02*
X134691000Y-66905000D01*
X134691000Y-68985000D02*
X134691000Y-70879000D01*
X134731000Y-65029000D02*
X134731000Y-66905000D01*
X134731000Y-68985000D02*
X134731000Y-70861000D01*
X134771000Y-65049000D02*
X134771000Y-66905000D01*
X134771000Y-68985000D02*
X134771000Y-70841000D01*
X134811000Y-65069000D02*
X134811000Y-66905000D01*
X134811000Y-68985000D02*
X134811000Y-70821000D01*
X134851000Y-65089000D02*
X134851000Y-66905000D01*
X134851000Y-68985000D02*
X134851000Y-70801000D01*
X134891000Y-65111000D02*
X134891000Y-66905000D01*
X134891000Y-68985000D02*
X134891000Y-70779000D01*
X134931000Y-65133000D02*
X134931000Y-66905000D01*
X134931000Y-68985000D02*
X134931000Y-70757000D01*
X134971000Y-65155000D02*
X134971000Y-66905000D01*
X134971000Y-68985000D02*
X134971000Y-70735000D01*
X135011000Y-65179000D02*
X135011000Y-66905000D01*
X135011000Y-68985000D02*
X135011000Y-70711000D01*
X135051000Y-65203000D02*
X135051000Y-66905000D01*
X135051000Y-68985000D02*
X135051000Y-70687000D01*
X135091000Y-65229000D02*
X135091000Y-66905000D01*
X135091000Y-68985000D02*
X135091000Y-70661000D01*
X135131000Y-65255000D02*
X135131000Y-66905000D01*
X135131000Y-68985000D02*
X135131000Y-70635000D01*
X135171000Y-65281000D02*
X135171000Y-66905000D01*
X135171000Y-68985000D02*
X135171000Y-70609000D01*
X135211000Y-65309000D02*
X135211000Y-66905000D01*
X135211000Y-68985000D02*
X135211000Y-70581000D01*
X135251000Y-65338000D02*
X135251000Y-66905000D01*
X135251000Y-68985000D02*
X135251000Y-70552000D01*
X135291000Y-65367000D02*
X135291000Y-66905000D01*
X135291000Y-68985000D02*
X135291000Y-70523000D01*
X135331000Y-65397000D02*
X135331000Y-66905000D01*
X135331000Y-68985000D02*
X135331000Y-70493000D01*
X135371000Y-65429000D02*
X135371000Y-66905000D01*
X135371000Y-68985000D02*
X135371000Y-70461000D01*
X135411000Y-65461000D02*
X135411000Y-66905000D01*
X135411000Y-68985000D02*
X135411000Y-70429000D01*
X135451000Y-65495000D02*
X135451000Y-66905000D01*
X135451000Y-68985000D02*
X135451000Y-70395000D01*
X135491000Y-65529000D02*
X135491000Y-66905000D01*
X135491000Y-68985000D02*
X135491000Y-70361000D01*
X135531000Y-65565000D02*
X135531000Y-66905000D01*
X135531000Y-68985000D02*
X135531000Y-70325000D01*
X135571000Y-65602000D02*
X135571000Y-66905000D01*
X135571000Y-68985000D02*
X135571000Y-70288000D01*
X135611000Y-65640000D02*
X135611000Y-66905000D01*
X135611000Y-68985000D02*
X135611000Y-70250000D01*
X135651000Y-65680000D02*
X135651000Y-70210000D01*
X135691000Y-65721000D02*
X135691000Y-70169000D01*
X135731000Y-65763000D02*
X135731000Y-70127000D01*
X135771000Y-65808000D02*
X135771000Y-70082000D01*
X135811000Y-65853000D02*
X135811000Y-70037000D01*
X135851000Y-65901000D02*
X135851000Y-69989000D01*
X135891000Y-65950000D02*
X135891000Y-69940000D01*
X135931000Y-66001000D02*
X135931000Y-69889000D01*
X135971000Y-66055000D02*
X135971000Y-69835000D01*
X136011000Y-66111000D02*
X136011000Y-69779000D01*
X136051000Y-66169000D02*
X136051000Y-69721000D01*
X136091000Y-66231000D02*
X136091000Y-69659000D01*
X136131000Y-66295000D02*
X136131000Y-69595000D01*
X136171000Y-66364000D02*
X136171000Y-69526000D01*
X136211000Y-66436000D02*
X136211000Y-69454000D01*
X136251000Y-66513000D02*
X136251000Y-69377000D01*
X136291000Y-66595000D02*
X136291000Y-69295000D01*
X136331000Y-66683000D02*
X136331000Y-69207000D01*
X136371000Y-66780000D02*
X136371000Y-69110000D01*
X136411000Y-66886000D02*
X136411000Y-69004000D01*
X136451000Y-67005000D02*
X136451000Y-68885000D01*
X136491000Y-67143000D02*
X136491000Y-68747000D01*
X136531000Y-67312000D02*
X136531000Y-68578000D01*
X136571000Y-67543000D02*
X136571000Y-68347000D01*
X136600000Y-67945000D02*
G75*
G02*
X130060000Y-67945000I-3270000J0D01*
G01*
X130060000Y-67945000D02*
G75*
G02*
X136600000Y-67945000I3270000J0D01*
G01*
%TO.C,D1*%
X130178200Y-103807600D02*
X130178200Y-109247600D01*
X130178200Y-108227600D02*
X133118200Y-108227600D01*
X130178200Y-108347600D02*
X133118200Y-108347600D01*
X130178200Y-108467600D02*
X133118200Y-108467600D01*
X130178200Y-109247600D02*
X133118200Y-109247600D01*
X131648200Y-102787600D02*
X131648200Y-103807600D01*
X131648200Y-110267600D02*
X131648200Y-109247600D01*
X133118200Y-103807600D02*
X130178200Y-103807600D01*
X133118200Y-109247600D02*
X133118200Y-103807600D01*
%TO.C,JP1*%
X123807000Y-67102000D02*
X123807000Y-66502000D01*
X124507000Y-65802000D02*
X125907000Y-65802000D01*
X125907000Y-67802000D02*
X124507000Y-67802000D01*
X126607000Y-66502000D02*
X126607000Y-67102000D01*
X123807000Y-66502000D02*
G75*
G02*
X124507000Y-65802000I700000J0D01*
G01*
X124507000Y-67802000D02*
G75*
G02*
X123807000Y-67102000I0J700000D01*
G01*
X125907000Y-65802000D02*
G75*
G02*
X126607000Y-66502000I1J-699999D01*
G01*
X126607000Y-67102000D02*
G75*
G02*
X125907000Y-67802000I-699999J-1D01*
G01*
%TO.C,C3*%
X163731000Y-92315000D02*
X168116000Y-92315000D01*
X168116000Y-89295000D02*
X163731000Y-89295000D01*
X168116000Y-92315000D02*
X168116000Y-89295000D01*
%TO.C,R2*%
X139727000Y-107347000D02*
X139727000Y-113887000D01*
X139727000Y-113887000D02*
X140057000Y-113887000D01*
X140057000Y-107347000D02*
X139727000Y-107347000D01*
X142137000Y-107347000D02*
X142467000Y-107347000D01*
X142467000Y-107347000D02*
X142467000Y-113887000D01*
X142467000Y-113887000D02*
X142137000Y-113887000D01*
%TO.C,R4*%
X167418000Y-72036000D02*
X167418000Y-72366000D01*
X167418000Y-74776000D02*
X167418000Y-74446000D01*
X173958000Y-72036000D02*
X167418000Y-72036000D01*
X173958000Y-72366000D02*
X173958000Y-72036000D01*
X173958000Y-74446000D02*
X173958000Y-74776000D01*
X173958000Y-74776000D02*
X167418000Y-74776000D01*
%TO.C,R5*%
X141510000Y-95150000D02*
X148050000Y-95150000D01*
X141510000Y-95480000D02*
X141510000Y-95150000D01*
X141510000Y-97560000D02*
X141510000Y-97890000D01*
X141510000Y-97890000D02*
X148050000Y-97890000D01*
X148050000Y-95150000D02*
X148050000Y-95480000D01*
X148050000Y-97890000D02*
X148050000Y-97560000D01*
%TO.C,SW3*%
X176919000Y-64604500D02*
X176919000Y-65124500D01*
X176919000Y-71804500D02*
X176919000Y-72324500D01*
X177429000Y-64604500D02*
X176919000Y-64604500D01*
X177429000Y-65124500D02*
X176919000Y-65124500D01*
X177429000Y-71804500D02*
X176919000Y-71804500D01*
X177429000Y-72324500D02*
X176919000Y-72324500D01*
X180259000Y-65124500D02*
X180029000Y-65124500D01*
X180259000Y-65124500D02*
X180259000Y-65664500D01*
X180259000Y-66764500D02*
X180259000Y-70164500D01*
X180259000Y-71264500D02*
X180259000Y-71804500D01*
X180259000Y-71804500D02*
X180029000Y-71804500D01*
X183929000Y-64604500D02*
X180029000Y-64604500D01*
X183929000Y-64604500D02*
X183929000Y-72324500D01*
X183929000Y-72324500D02*
X180029000Y-72324500D01*
%TO.C,RN1*%
X138895000Y-72260000D02*
X138895000Y-75060000D01*
X138895000Y-75060000D02*
X162095000Y-75060000D01*
X141605000Y-72260000D02*
X141605000Y-75060000D01*
X162095000Y-72260000D02*
X138895000Y-72260000D01*
X162095000Y-75060000D02*
X162095000Y-72260000D01*
%TO.C,C1*%
X123260000Y-110136000D02*
X123260000Y-110451000D01*
X123260000Y-110136000D02*
X128200000Y-110136000D01*
X123260000Y-112561000D02*
X123260000Y-112876000D01*
X123260000Y-112876000D02*
X128200000Y-112876000D01*
X128200000Y-110136000D02*
X128200000Y-110451000D01*
X128200000Y-112561000D02*
X128200000Y-112876000D01*
%TO.C,Q1*%
X139805000Y-67890000D02*
X143405000Y-67890000D01*
X139793125Y-67881741D02*
G75*
G02*
X140785000Y-63590000I1811875J1841741D01*
G01*
X142385000Y-63590000D02*
G75*
G02*
X143413445Y-67867684I-780000J-2450000D01*
G01*
D15*
%TO.C,G\u002A\u002A\u002A*%
G36*
X138868672Y-92035121D02*
G01*
X138868672Y-92173165D01*
X137779662Y-92173165D01*
X136690653Y-92173165D01*
X136690653Y-92035121D01*
X136690653Y-91897078D01*
X137779662Y-91897078D01*
X138868672Y-91897078D01*
X138868672Y-92035121D01*
G37*
G36*
X136821027Y-82086558D02*
G01*
X136951401Y-82095991D01*
X136960176Y-82394643D01*
X136968951Y-82693296D01*
X137911142Y-82701406D01*
X138853334Y-82709517D01*
X138862767Y-82839892D01*
X138872200Y-82970266D01*
X137919470Y-82970266D01*
X136966740Y-82970266D01*
X136966740Y-83277029D01*
X136966740Y-83583793D01*
X136828696Y-83583793D01*
X136690653Y-83583793D01*
X136690653Y-82830459D01*
X136690653Y-82077125D01*
X136821027Y-82086558D01*
G37*
G36*
X136936063Y-96314469D02*
G01*
X136936063Y-96743938D01*
X137242827Y-96743938D01*
X137549590Y-96743938D01*
X137549590Y-96314469D01*
X137549590Y-95885000D01*
X137672295Y-95885000D01*
X137795000Y-95885000D01*
X137795000Y-96313745D01*
X137795000Y-96742489D01*
X138324167Y-96750882D01*
X138853334Y-96759276D01*
X138862767Y-96889650D01*
X138872200Y-97020024D01*
X137781426Y-97020024D01*
X136690653Y-97020024D01*
X136690653Y-96452512D01*
X136690653Y-95885000D01*
X136813358Y-95885000D01*
X136936063Y-95885000D01*
X136936063Y-96314469D01*
G37*
G36*
X137801817Y-84203266D02*
G01*
X137810339Y-84642126D01*
X138201462Y-84650712D01*
X138592585Y-84659297D01*
X138592585Y-84213574D01*
X138592585Y-83767851D01*
X138730628Y-83767851D01*
X138868672Y-83767851D01*
X138868672Y-84330250D01*
X138867606Y-84510107D01*
X138864644Y-84668407D01*
X138860140Y-84795088D01*
X138854445Y-84880088D01*
X138848221Y-84913100D01*
X138813803Y-84917878D01*
X138725171Y-84922260D01*
X138589460Y-84926112D01*
X138413810Y-84929299D01*
X138205356Y-84931688D01*
X137971235Y-84933146D01*
X137759211Y-84933551D01*
X136690653Y-84933551D01*
X136690653Y-84350701D01*
X136690653Y-83767851D01*
X136812516Y-83767851D01*
X136934379Y-83767851D01*
X136942890Y-84204988D01*
X136951401Y-84642126D01*
X137234308Y-84650935D01*
X137517215Y-84659744D01*
X137525733Y-84221466D01*
X137534252Y-83783189D01*
X137663773Y-83773798D01*
X137793295Y-83764406D01*
X137801817Y-84203266D01*
G37*
G36*
X138065577Y-85424690D02*
G01*
X138300383Y-85425594D01*
X138507960Y-85427011D01*
X138681509Y-85428869D01*
X138814233Y-85431094D01*
X138899333Y-85433613D01*
X138930013Y-85436353D01*
X138930025Y-85436408D01*
X138908323Y-85459269D01*
X138846549Y-85519059D01*
X138749693Y-85611077D01*
X138622751Y-85730620D01*
X138470714Y-85872988D01*
X138298575Y-86033478D01*
X138111329Y-86207388D01*
X138107449Y-86210985D01*
X137284873Y-86973527D01*
X138078511Y-86981709D01*
X138872149Y-86989891D01*
X138862742Y-87119752D01*
X138853334Y-87249614D01*
X137741317Y-87257666D01*
X137419759Y-87259165D01*
X137150454Y-87258660D01*
X136935145Y-87256186D01*
X136775574Y-87251778D01*
X136673484Y-87245470D01*
X136630615Y-87237298D01*
X136629300Y-87235374D01*
X136651160Y-87208405D01*
X136713385Y-87144962D01*
X136810947Y-87049844D01*
X136938814Y-86927848D01*
X137091958Y-86783773D01*
X137265348Y-86622417D01*
X137453955Y-86448577D01*
X137457772Y-86445075D01*
X138286243Y-85685121D01*
X137488448Y-85676943D01*
X136690653Y-85668764D01*
X136690653Y-85546568D01*
X136690653Y-85424372D01*
X137810339Y-85424372D01*
X138065577Y-85424690D01*
G37*
G36*
X137647524Y-92664101D02*
G01*
X137917179Y-92664343D01*
X138132483Y-92665262D01*
X138300436Y-92667254D01*
X138428040Y-92670715D01*
X138522296Y-92676042D01*
X138590203Y-92683630D01*
X138638764Y-92693876D01*
X138674979Y-92707175D01*
X138705849Y-92723925D01*
X138705954Y-92723989D01*
X138785637Y-92784193D01*
X138846757Y-92849698D01*
X138849833Y-92854248D01*
X138885889Y-92943726D01*
X138909089Y-93066429D01*
X138916385Y-93195020D01*
X138904725Y-93302160D01*
X138901185Y-93314589D01*
X138862556Y-93402808D01*
X138808555Y-93488849D01*
X138752086Y-93555138D01*
X138706049Y-93584098D01*
X138703211Y-93584276D01*
X138657749Y-93563128D01*
X138599273Y-93513853D01*
X138549820Y-93457702D01*
X138531232Y-93418417D01*
X138548511Y-93379894D01*
X138590317Y-93319459D01*
X138592585Y-93316559D01*
X138638575Y-93224821D01*
X138651865Y-93123009D01*
X138631674Y-93034467D01*
X138603272Y-92997513D01*
X138574830Y-92984672D01*
X138519418Y-92973944D01*
X138431333Y-92964992D01*
X138304874Y-92957480D01*
X138134336Y-92951072D01*
X137914018Y-92945431D01*
X137638215Y-92940221D01*
X137629299Y-92940073D01*
X136705991Y-92924735D01*
X136696558Y-92794360D01*
X136687125Y-92663986D01*
X137647524Y-92664101D01*
G37*
G36*
X137747450Y-93830850D02*
G01*
X137974021Y-93835169D01*
X138154822Y-93843887D01*
X138297628Y-93858247D01*
X138410214Y-93879492D01*
X138500357Y-93908865D01*
X138575833Y-93947610D01*
X138644417Y-93996969D01*
X138674825Y-94022730D01*
X138757587Y-94112546D01*
X138827501Y-94216743D01*
X138842459Y-94246765D01*
X138881044Y-94373264D01*
X138906474Y-94535077D01*
X138916628Y-94707165D01*
X138909385Y-94864489D01*
X138899837Y-94924021D01*
X138842571Y-95104286D01*
X138750312Y-95248008D01*
X138673474Y-95325025D01*
X138613248Y-95374875D01*
X138553604Y-95414377D01*
X138486725Y-95444727D01*
X138404797Y-95467120D01*
X138300003Y-95482750D01*
X138164527Y-95492812D01*
X137990556Y-95498502D01*
X137770272Y-95501014D01*
X137518913Y-95501546D01*
X136705991Y-95501546D01*
X136696651Y-95373070D01*
X136687310Y-95244593D01*
X137478897Y-95235026D01*
X137723156Y-95231724D01*
X137914165Y-95228009D01*
X138060027Y-95223252D01*
X138168845Y-95216823D01*
X138248721Y-95208093D01*
X138307758Y-95196430D01*
X138354059Y-95181207D01*
X138391209Y-95164107D01*
X138502878Y-95095645D01*
X138576326Y-95016309D01*
X138618542Y-94912233D01*
X138636514Y-94769549D01*
X138638599Y-94673285D01*
X138630887Y-94506368D01*
X138603015Y-94384454D01*
X138547881Y-94292599D01*
X138458382Y-94215860D01*
X138405320Y-94182464D01*
X138369439Y-94163737D01*
X138327711Y-94149054D01*
X138272284Y-94137799D01*
X138195309Y-94129358D01*
X138088932Y-94123115D01*
X137945304Y-94118454D01*
X137756573Y-94114761D01*
X137514887Y-94111419D01*
X137495906Y-94111184D01*
X136690653Y-94101257D01*
X136690653Y-93965472D01*
X136690653Y-93829686D01*
X137467331Y-93829686D01*
X137747450Y-93830850D01*
G37*
G36*
X139606792Y-86940111D02*
G01*
X139621350Y-87012969D01*
X139629375Y-87103901D01*
X139638508Y-87295628D01*
X139867116Y-87295628D01*
X139982500Y-87299457D01*
X140062859Y-87309812D01*
X140095548Y-87324996D01*
X140095725Y-87326305D01*
X140067177Y-87341762D01*
X139989900Y-87352535D01*
X139876442Y-87356952D01*
X139865653Y-87356981D01*
X139635580Y-87356981D01*
X139635580Y-87878479D01*
X139635580Y-88399976D01*
X139896329Y-88399976D01*
X140023313Y-88403369D01*
X140113237Y-88412700D01*
X140155303Y-88426699D01*
X140157078Y-88430653D01*
X140128240Y-88445592D01*
X140048926Y-88456171D01*
X139929935Y-88461120D01*
X139896329Y-88461329D01*
X139635580Y-88461329D01*
X139635580Y-88967488D01*
X139635580Y-89473648D01*
X139727609Y-89473648D01*
X139800672Y-89487367D01*
X139819638Y-89519662D01*
X139792295Y-89556250D01*
X139729553Y-89565677D01*
X139666284Y-89573708D01*
X139638513Y-89610429D01*
X139629855Y-89665375D01*
X139615039Y-89733285D01*
X139591868Y-89764799D01*
X139589566Y-89765073D01*
X139566079Y-89738203D01*
X139550074Y-89672773D01*
X139549277Y-89665375D01*
X139539664Y-89565677D01*
X139050786Y-89565677D01*
X138561909Y-89565677D01*
X138561909Y-90040009D01*
X138561909Y-90514341D01*
X138838165Y-90523161D01*
X138965094Y-90530397D01*
X139059571Y-90542075D01*
X139109570Y-90556474D01*
X139114422Y-90562657D01*
X139085751Y-90577667D01*
X139007754Y-90590649D01*
X138892458Y-90599882D01*
X138838165Y-90602154D01*
X138561909Y-90610974D01*
X138561909Y-90749677D01*
X138559328Y-90786874D01*
X138556031Y-90834389D01*
X138539910Y-90870490D01*
X138531232Y-90869421D01*
X138511624Y-90829199D01*
X138501116Y-90752906D01*
X138500556Y-90729567D01*
X138500556Y-90608672D01*
X138271666Y-90608672D01*
X138042776Y-90608672D01*
X138010110Y-90729982D01*
X137951258Y-90865833D01*
X137859050Y-90985504D01*
X137747176Y-91076204D01*
X137629323Y-91125144D01*
X137581790Y-91130169D01*
X137550417Y-91134977D01*
X137531653Y-91157674D01*
X137522300Y-91210677D01*
X137519156Y-91306398D01*
X137518913Y-91374116D01*
X137518913Y-91618063D01*
X137703283Y-91627196D01*
X137801969Y-91636707D01*
X137871717Y-91652171D01*
X137895010Y-91667005D01*
X137871124Y-91684208D01*
X137801309Y-91699747D01*
X137700987Y-91712300D01*
X137585580Y-91720543D01*
X137470511Y-91723152D01*
X137371202Y-91718805D01*
X137338795Y-91714733D01*
X137256778Y-91691851D01*
X137230950Y-91664070D01*
X137262334Y-91639157D01*
X137327186Y-91626716D01*
X137426885Y-91617103D01*
X137426885Y-91373636D01*
X137425641Y-91252060D01*
X137419770Y-91179393D01*
X137406064Y-91143212D01*
X137381312Y-91131091D01*
X137364008Y-91130169D01*
X137247701Y-91102366D01*
X137131678Y-91027482D01*
X137029627Y-90918308D01*
X136955237Y-90787634D01*
X136935688Y-90729982D01*
X136903022Y-90608672D01*
X136658794Y-90608672D01*
X136414566Y-90608672D01*
X136414566Y-90823406D01*
X136410512Y-90933560D01*
X136399649Y-91009675D01*
X136383919Y-91038140D01*
X136383889Y-91038140D01*
X136368153Y-91009767D01*
X136357280Y-90933722D01*
X136353213Y-90823615D01*
X136353213Y-90823406D01*
X136353213Y-90608672D01*
X136215170Y-90608672D01*
X136124183Y-90602650D01*
X136082739Y-90582174D01*
X136077126Y-90562657D01*
X136095192Y-90532329D01*
X136156620Y-90518514D01*
X136215170Y-90516643D01*
X136353213Y-90516643D01*
X136353213Y-90291426D01*
X136353213Y-90066209D01*
X136414566Y-90066209D01*
X136414566Y-90291426D01*
X136414566Y-90516643D01*
X136657728Y-90516643D01*
X136900889Y-90516643D01*
X136975865Y-90352875D01*
X137063491Y-90207848D01*
X137162791Y-90119917D01*
X137242602Y-90070592D01*
X137674122Y-90070592D01*
X137702243Y-90087710D01*
X137710641Y-90088195D01*
X137774360Y-90114904D01*
X137849395Y-90180991D01*
X137922358Y-90269674D01*
X137979861Y-90364172D01*
X138008517Y-90447703D01*
X138009620Y-90462959D01*
X138017123Y-90489934D01*
X138047477Y-90506117D01*
X138112666Y-90514128D01*
X138224671Y-90516587D01*
X138255145Y-90516643D01*
X138500556Y-90516643D01*
X138500556Y-90041160D01*
X138500556Y-89565677D01*
X138255145Y-89565677D01*
X138129835Y-89567736D01*
X138054619Y-89575345D01*
X138018333Y-89590654D01*
X138009735Y-89612913D01*
X137988286Y-89699589D01*
X137933319Y-89803038D01*
X137858906Y-89901312D01*
X137779321Y-89972328D01*
X137700311Y-90031294D01*
X137674122Y-90070592D01*
X137242602Y-90070592D01*
X137274743Y-90050728D01*
X137154555Y-89963664D01*
X137066171Y-89880707D01*
X136993990Y-89780974D01*
X136979801Y-89752926D01*
X136936063Y-89653791D01*
X136925236Y-89629251D01*
X136873151Y-89745588D01*
X136776994Y-89888069D01*
X136635385Y-89990514D01*
X136533117Y-90030690D01*
X136414566Y-90066209D01*
X136353213Y-90066209D01*
X136222839Y-90027305D01*
X136105274Y-89970700D01*
X135992143Y-89880332D01*
X135900962Y-89773367D01*
X135849246Y-89666974D01*
X135847416Y-89659358D01*
X135826841Y-89565677D01*
X135599206Y-89565677D01*
X135478585Y-89563223D01*
X135408050Y-89554363D01*
X135376474Y-89536848D01*
X135371571Y-89519662D01*
X135383622Y-89495391D01*
X135427175Y-89481144D01*
X135513324Y-89474702D01*
X135601643Y-89473648D01*
X135718781Y-89472523D01*
X135787460Y-89466510D01*
X135820566Y-89451650D01*
X135830985Y-89423983D01*
X135831715Y-89402963D01*
X135847771Y-89336843D01*
X135888713Y-89246749D01*
X135918660Y-89195180D01*
X135996083Y-89097686D01*
X136096099Y-89023607D01*
X136234993Y-88962067D01*
X136300882Y-88939856D01*
X136329450Y-88922635D01*
X136344841Y-88884740D01*
X136349380Y-88816953D01*
X136418105Y-88816953D01*
X136423324Y-88886896D01*
X136439162Y-88922965D01*
X136466896Y-88938397D01*
X136628260Y-89005309D01*
X136761934Y-89099366D01*
X136852041Y-89209070D01*
X136858942Y-89222272D01*
X136898803Y-89297483D01*
X136928608Y-89343102D01*
X136936063Y-89349274D01*
X136959097Y-89325965D01*
X136999095Y-89265854D01*
X137017722Y-89234286D01*
X137087787Y-89144067D01*
X137176233Y-89069428D01*
X137194111Y-89058827D01*
X137263018Y-89017289D01*
X137301362Y-88985576D01*
X137304179Y-88979572D01*
X137641619Y-88979572D01*
X137666011Y-89005238D01*
X137726923Y-89044992D01*
X137751233Y-89058582D01*
X137832247Y-89121321D01*
X137911602Y-89213060D01*
X137974940Y-89313579D01*
X138007903Y-89402656D01*
X138009735Y-89422659D01*
X138018325Y-89448413D01*
X138051913Y-89463869D01*
X138122228Y-89471464D01*
X138240997Y-89473635D01*
X138255145Y-89473648D01*
X138500556Y-89473648D01*
X138559328Y-89473648D01*
X139051440Y-89473648D01*
X139543551Y-89473648D01*
X139543551Y-88966087D01*
X139543551Y-88458526D01*
X139339460Y-88467596D01*
X139135369Y-88476667D01*
X139093204Y-88598785D01*
X139011279Y-88751278D01*
X138887510Y-88875845D01*
X138737799Y-88957095D01*
X138715825Y-88964093D01*
X138577247Y-89004408D01*
X138568287Y-89239028D01*
X138559328Y-89473648D01*
X138500556Y-89473648D01*
X138500556Y-89230674D01*
X138500556Y-88987701D01*
X138406248Y-88966988D01*
X138302477Y-88921820D01*
X138193538Y-88840046D01*
X138100939Y-88740306D01*
X138053576Y-88661295D01*
X138025651Y-88602447D01*
X138008160Y-88595630D01*
X137992153Y-88630049D01*
X137932115Y-88742029D01*
X137844384Y-88844497D01*
X137749340Y-88914375D01*
X137735515Y-88920700D01*
X137671627Y-88952534D01*
X137641892Y-88977933D01*
X137641619Y-88979572D01*
X137304179Y-88979572D01*
X137278939Y-88955524D01*
X137217454Y-88923729D01*
X137210283Y-88920700D01*
X137104416Y-88849339D01*
X137009963Y-88736546D01*
X136942582Y-88602095D01*
X136932464Y-88569838D01*
X136901808Y-88458813D01*
X136665856Y-88467740D01*
X136429904Y-88476667D01*
X136420882Y-88699514D01*
X136418105Y-88816953D01*
X136349380Y-88816953D01*
X136349681Y-88812461D01*
X136346897Y-88699514D01*
X136337875Y-88476667D01*
X136207500Y-88467234D01*
X136114340Y-88452878D01*
X136081138Y-88431849D01*
X136107894Y-88410480D01*
X136194609Y-88395103D01*
X136207500Y-88394071D01*
X136337875Y-88384638D01*
X136347147Y-88223587D01*
X136357051Y-88133583D01*
X136372545Y-88075129D01*
X136383889Y-88062537D01*
X136400835Y-88090220D01*
X136414899Y-88161326D01*
X136420632Y-88223587D01*
X136429904Y-88384638D01*
X136665856Y-88393565D01*
X136901808Y-88402493D01*
X136931558Y-88294748D01*
X136971842Y-88191797D01*
X137027316Y-88094306D01*
X137027960Y-88093399D01*
X137099151Y-88019856D01*
X137196631Y-87950317D01*
X137297806Y-87898589D01*
X137379648Y-87878479D01*
X137416723Y-87852864D01*
X137426885Y-87786450D01*
X137440603Y-87713387D01*
X137472899Y-87694421D01*
X137509573Y-87721621D01*
X137518913Y-87781594D01*
X137527844Y-87841498D01*
X137565800Y-87877804D01*
X137637465Y-87904286D01*
X137798742Y-87978105D01*
X137915613Y-88091775D01*
X137963601Y-88173985D01*
X138017278Y-88287101D01*
X138055055Y-88197256D01*
X138118588Y-88098395D01*
X138215795Y-88001950D01*
X138324920Y-87926685D01*
X138406248Y-87894317D01*
X138465262Y-87875987D01*
X138492593Y-87842491D01*
X138500279Y-87774104D01*
X138500556Y-87739808D01*
X138507772Y-87641713D01*
X138524982Y-87594536D01*
X138545528Y-87600867D01*
X138562754Y-87663297D01*
X138567866Y-87713617D01*
X138576627Y-87801418D01*
X138599132Y-87849136D01*
X138652246Y-87877705D01*
X138715825Y-87897276D01*
X138867856Y-87971205D01*
X138996166Y-88090613D01*
X139084873Y-88240129D01*
X139093204Y-88262521D01*
X139135369Y-88384638D01*
X139339460Y-88393709D01*
X139543551Y-88402779D01*
X139543551Y-87879880D01*
X139543551Y-87356981D01*
X139252126Y-87356981D01*
X139114665Y-87353921D01*
X139015931Y-87345403D01*
X138965345Y-87332419D01*
X138960701Y-87326305D01*
X138989758Y-87311814D01*
X139070611Y-87301412D01*
X139193777Y-87296102D01*
X139250662Y-87295628D01*
X139540624Y-87295628D01*
X139549756Y-87103901D01*
X139558959Y-87004551D01*
X139573917Y-86935260D01*
X139589566Y-86912174D01*
X139606792Y-86940111D01*
G37*
D13*
%TO.C,P2*%
X170748000Y-83936500D02*
X170748000Y-87036500D01*
X184718000Y-90459600D02*
X184718000Y-97393500D01*
X185734000Y-82407500D02*
X185734000Y-84938600D01*
X184718000Y-90459600D02*
G75*
G02*
X185550001Y-85938500I12700060J-40D01*
G01*
X185734000Y-84938600D02*
G75*
G02*
X185550015Y-85938506I-2809100J0D01*
G01*
D12*
%TO.C,R6*%
X141510000Y-80545000D02*
X141510000Y-80875000D01*
X141510000Y-83285000D02*
X141510000Y-82955000D01*
X148050000Y-80545000D02*
X141510000Y-80545000D01*
X148050000Y-80875000D02*
X148050000Y-80545000D01*
X148050000Y-82955000D02*
X148050000Y-83285000D01*
X148050000Y-83285000D02*
X141510000Y-83285000D01*
%TD*%
M02*
