G04 DipTrace 3.3.1.3*
G04 BottomSilk.gbr*
%MOMM*%
G04 #@! TF.FileFunction,Legend,Bot*
G04 #@! TF.Part,Single*
%ADD10C,0.25*%
%ADD14C,0.2*%
%ADD20O,0.40037X0.39994*%
%ADD22O,0.39994X0.40037*%
%ADD33C,0.15*%
%ADD34C,0.50018*%
%ADD38C,0.31758*%
%ADD44C,0.1524*%
%ADD48O,0.29906X0.3001*%
%ADD53O,0.39103X0.39118*%
%ADD119C,0.11765*%
%ADD120C,0.15686*%
%FSLAX35Y35*%
G04*
G71*
G90*
G75*
G01*
G04 BotSilk*
%LPD*%
X2221738Y4661872D2*
D10*
X2101768D1*
X2221738Y4481882D2*
X2101768D1*
D20*
X2406738Y4571877D3*
X2221738Y4423748D2*
D10*
X2101768D1*
X2221738Y4243758D2*
X2101768D1*
D20*
X2406738Y4333753D3*
X2591872Y4363672D2*
D10*
X2711842D1*
X2591872Y4543662D2*
X2711842D1*
D20*
X2406872Y4453667D3*
X2878515Y5460238D2*
D10*
Y5340268D1*
X3058505Y5460238D2*
Y5340268D1*
D22*
X2968510Y5645238D3*
X6208878Y4789699D2*
D10*
X5647157D1*
X5320836D2*
X5191304D1*
Y3687581D1*
X5577409Y3589360D2*
X6205141D1*
X5969855Y1951138D2*
D14*
X5955754Y1961350D1*
X5952836Y1966813D1*
X5947001Y1977975D1*
X5926579Y2016450D1*
X5900808Y2064663D1*
X5347456Y3101825D1*
Y3439550D1*
X5329951D1*
X5169974D1*
X4482904D1*
X3556598D1*
X2702257D1*
X2272899D1*
X2102712D1*
Y3115838D1*
X1542066Y2064663D1*
X1535258Y2052075D1*
X1523588Y2029750D1*
X1516294Y2016450D1*
X1495872Y1977975D1*
X1490037Y1966813D1*
X1487119Y1961350D1*
X1474963Y1952563D1*
X1473018Y1951138D1*
X1436550Y1918125D1*
X1403485Y1881788D1*
X1374310Y1842363D1*
X1349025Y1800325D1*
X1328116Y1755913D1*
X1311583Y1709600D1*
X1299913Y1662100D1*
X1292620Y1613650D1*
X1292133Y1606763D1*
X1290188Y1564488D1*
X1292620Y1515563D1*
X1299913Y1467113D1*
X1311583Y1419375D1*
X1328116Y1373300D1*
X1349025Y1328888D1*
X1374310Y1286850D1*
X1403485Y1247425D1*
X1415641Y1234363D1*
X1436550Y1210850D1*
X1451623Y1197075D1*
X1473018Y1178075D1*
X1512404Y1148863D1*
X1554708Y1123450D1*
X1598957Y1102550D1*
X1645151Y1086163D1*
X1692803Y1074050D1*
X1741428Y1066925D1*
X1790053Y1064550D1*
X1839164Y1066925D1*
X1887789Y1074050D1*
X1914047Y1080700D1*
X1935442Y1086163D1*
X1981635Y1102550D1*
X2025884Y1123450D1*
X2068188Y1148863D1*
X2107574Y1178075D1*
X2128483Y1197075D1*
X2143557Y1210850D1*
X2164952Y1234363D1*
X2176622Y1247425D1*
X2205796Y1286850D1*
X2231081Y1328888D1*
X2238861Y1344800D1*
X2247614Y1355725D1*
X2290404Y1410113D1*
X2737754Y1979638D1*
X4705120D1*
X5152469Y1410113D1*
X5190883Y1361425D1*
X5195259Y1355725D1*
X5204012Y1344800D1*
X5211792Y1328888D1*
X5237077Y1286850D1*
X5266252Y1247425D1*
X5299317Y1210850D1*
X5314391Y1197075D1*
X5329951Y1182825D1*
X5335299Y1178075D1*
X5374686Y1148863D1*
X5416989Y1123450D1*
X5461238Y1102550D1*
X5507432Y1086163D1*
X5555084Y1074050D1*
X5603709Y1066925D1*
X5652820Y1064550D1*
X5701445Y1066925D1*
X5750070Y1074050D1*
X5797723Y1086163D1*
X5843916Y1102550D1*
X5888165Y1123450D1*
X5930469Y1148863D1*
X5969855Y1178075D1*
X5991250Y1197075D1*
X6006324Y1210850D1*
X6010214Y1215363D1*
X6039389Y1247425D1*
X6068564Y1286850D1*
X6093849Y1328888D1*
X6114758Y1373300D1*
X6131290Y1419375D1*
X6142960Y1467113D1*
X6150254Y1515563D1*
X6152685Y1564488D1*
X6151226Y1595125D1*
X6150254Y1613650D1*
X6142960Y1662100D1*
X6131290Y1709600D1*
X6114758Y1755913D1*
X6093849Y1800325D1*
X6068564Y1842363D1*
X6039389Y1881788D1*
X6010214Y1913613D1*
X6006324Y1918125D1*
X5969855Y1951138D1*
X4175007Y3682857D2*
D10*
Y4190857D1*
X2905007D1*
Y3682857D2*
Y4190857D1*
X4175007Y3682857D2*
X3667007D1*
X3381257D2*
X2905007D1*
X3667007D2*
Y3746357D1*
X3381257D1*
Y3682857D1*
D34*
X1529698Y4978904D3*
X1224694Y4763914D2*
D33*
X1434690D1*
Y4833853D1*
X1224694Y5573856D2*
X1434690D1*
Y5493913D1*
X1054725Y4763914D2*
X1014698D1*
X1054725Y5573856D2*
X1014698D1*
X2256496Y6065133D2*
D10*
X2383510D1*
D38*
X2218680Y6144333D3*
X4312797Y3750372D2*
D10*
X4982770D1*
Y3993188D1*
X4312797D1*
Y3750372D1*
X2161598Y7145666D2*
Y7526676D1*
X2987162Y7145666D2*
X2987073Y7526676D1*
X2161598D2*
X2987162D1*
X2161598Y6923399D2*
Y6859877D1*
X2987162D1*
Y6923399D1*
X5511225Y7145692D2*
Y7526703D1*
X6336789Y7145692D2*
X6336700Y7526703D1*
X5511225D2*
X6336789D1*
X5511225Y6923426D2*
Y6859903D1*
X6336789D1*
Y6923426D1*
X1129725Y7145692D2*
Y7526703D1*
X1955289Y7145692D2*
X1955200Y7526703D1*
X1129725D2*
X1955289D1*
X1129725Y6923426D2*
Y6859903D1*
X1955289D1*
Y6923426D1*
X1688253Y4444578D2*
X1386577D1*
X1037440Y4174671D2*
X1196149D1*
Y3793669D1*
X1037440D1*
X1196149Y3984170D2*
X1037440D1*
X1021463Y4444578D2*
Y3523855D1*
X1688253Y4444578D2*
Y3523855D1*
X1386577D1*
X1907423Y4043562D2*
D44*
G03X1907423Y3901318I158336J-71122D01*
G01*
X2029343D2*
G03X2029343Y4043562I-158336J71122D01*
G01*
X5056486Y7581078D2*
D10*
X3230966D1*
Y6930204D1*
X5056486D1*
Y7581078D1*
Y4470534D2*
Y4407034D1*
X3437219Y4406082D1*
X3246728Y4407034D2*
Y4470534D1*
Y4407034D2*
X3484890D1*
X1819939Y5402159D2*
X1769991D1*
Y5352142D1*
X1819939Y4902101D2*
X1769991D1*
Y4952119D2*
Y4902101D1*
X2269913D2*
X2219902D1*
X2269913Y4952119D2*
Y4902101D1*
D48*
X2344804Y5302153D3*
X2219902Y5402159D2*
D10*
X2269913Y5352142D1*
D53*
X2243652Y3820896D3*
X2380978Y3834262D2*
D10*
Y4134257D1*
X2460964Y3834262D2*
Y4134257D1*
X2380978D2*
X2460964D1*
X2380978Y3834262D2*
X2460964D1*
X5364235Y6725951D2*
D119*
X5356992Y6729573D1*
X5349663Y6736901D1*
X5346042Y6744145D1*
Y6758717D1*
X5349663Y6766045D1*
X5356992Y6773289D1*
X5364235Y6776995D1*
X5375185Y6780617D1*
X5393463D1*
X5404329Y6776995D1*
X5411657Y6773289D1*
X5418901Y6766045D1*
X5422607Y6758717D1*
Y6744145D1*
X5418901Y6736901D1*
X5411657Y6729573D1*
X5404329Y6725951D1*
X5360698Y6702422D2*
X5356991Y6695094D1*
X5346126Y6684144D1*
X5422607D1*
X1982862Y6075587D2*
X1975618Y6079209D1*
X1968290Y6086537D1*
X1964668Y6093781D1*
Y6108353D1*
X1968290Y6115681D1*
X1975618Y6122925D1*
X1982862Y6126631D1*
X1993812Y6130253D1*
X2012090D1*
X2022956Y6126631D1*
X2030284Y6122925D1*
X2037528Y6115681D1*
X2041234Y6108353D1*
Y6093781D1*
X2037528Y6086537D1*
X2030284Y6079209D1*
X2022956Y6075587D1*
X1982946Y6048352D2*
X1979324D1*
X1971996Y6044730D1*
X1968374Y6041108D1*
X1964752Y6033780D1*
Y6019208D1*
X1968374Y6011964D1*
X1971996Y6008342D1*
X1979324Y6004636D1*
X1986568D1*
X1993896Y6008342D1*
X2004762Y6015586D1*
X2041234Y6052058D1*
Y6001014D1*
X5615290Y5566438D2*
X5618912Y5573682D1*
X5626240Y5581010D1*
X5633484Y5584632D1*
X5648056D1*
X5655384Y5581010D1*
X5662628Y5573682D1*
X5666334Y5566438D1*
X5669956Y5555488D1*
Y5537210D1*
X5666334Y5526344D1*
X5662628Y5519016D1*
X5655384Y5511772D1*
X5648056Y5508066D1*
X5633484D1*
X5626240Y5511772D1*
X5618912Y5519016D1*
X5615290Y5526344D1*
X5584433Y5584548D2*
X5544423D1*
X5566239Y5555404D1*
X5555289D1*
X5548045Y5551782D1*
X5544423Y5548160D1*
X5540717Y5537210D1*
Y5529966D1*
X5544423Y5519016D1*
X5551667Y5511688D1*
X5562617Y5508066D1*
X5573567D1*
X5584433Y5511688D1*
X5588055Y5515394D1*
X5591761Y5522638D1*
X5618558Y5367841D2*
X5622180Y5375085D1*
X5629508Y5382413D1*
X5636752Y5386035D1*
X5651324D1*
X5658652Y5382413D1*
X5665896Y5375085D1*
X5669602Y5367841D1*
X5673224Y5356891D1*
Y5338613D1*
X5669602Y5327748D1*
X5665896Y5320420D1*
X5658652Y5313176D1*
X5651324Y5309470D1*
X5636752D1*
X5629508Y5313176D1*
X5622180Y5320420D1*
X5618558Y5327748D1*
X5558557Y5309470D2*
Y5385951D1*
X5595029Y5334991D1*
X5540363D1*
X2605005Y5129644D2*
X2597762Y5133266D1*
X2590433Y5140594D1*
X2586812Y5147838D1*
Y5162410D1*
X2590433Y5169738D1*
X2597762Y5176982D1*
X2605005Y5180688D1*
X2615955Y5184310D1*
X2634233D1*
X2645099Y5180688D1*
X2652427Y5176982D1*
X2659671Y5169738D1*
X2663377Y5162410D1*
Y5147838D1*
X2659671Y5140594D1*
X2652427Y5133266D1*
X2645099Y5129644D1*
X2586896Y5062399D2*
Y5098787D1*
X2619662Y5102408D1*
X2616040Y5098787D1*
X2612333Y5087837D1*
Y5076971D1*
X2616040Y5066021D1*
X2623283Y5058693D1*
X2634233Y5055071D1*
X2641477D1*
X2652427Y5058693D1*
X2659755Y5066021D1*
X2663377Y5076971D1*
Y5087836D1*
X2659755Y5098786D1*
X2656049Y5102408D1*
X2648805Y5106115D1*
X1514859Y4703851D2*
X1507615Y4707473D1*
X1500287Y4714801D1*
X1496665Y4722045D1*
Y4736617D1*
X1500287Y4743945D1*
X1507615Y4751189D1*
X1514859Y4754895D1*
X1525809Y4758517D1*
X1544087D1*
X1554953Y4754895D1*
X1562281Y4751188D1*
X1569524Y4743945D1*
X1573231Y4736616D1*
Y4722045D1*
X1569524Y4714801D1*
X1562281Y4707473D1*
X1554953Y4703851D1*
X1507615Y4636606D2*
X1500371Y4640228D1*
X1496749Y4651178D1*
Y4658422D1*
X1500371Y4669372D1*
X1511321Y4676700D1*
X1529515Y4680322D1*
X1547709Y4680321D1*
X1562281Y4676700D1*
X1569609Y4669371D1*
X1573231Y4658421D1*
Y4654800D1*
X1569609Y4643934D1*
X1562281Y4636606D1*
X1551330Y4632984D1*
X1547709D1*
X1536759Y4636606D1*
X1529515Y4643934D1*
X1525893Y4654800D1*
Y4658422D1*
X1529515Y4669372D1*
X1536759Y4676700D1*
X1547709Y4680321D1*
X2152960Y3654368D2*
X2156582Y3661612D1*
X2163910Y3668940D1*
X2171154Y3672562D1*
X2185726D1*
X2193054Y3668940D1*
X2200298Y3661612D1*
X2204004Y3654368D1*
X2207626Y3643418D1*
Y3625140D1*
X2204004Y3614274D1*
X2200298Y3606946D1*
X2193054Y3599702D1*
X2185726Y3595996D1*
X2171154D1*
X2163910Y3599702D1*
X2156582Y3606946D1*
X2152960Y3614274D1*
X2114859Y3595996D2*
X2078387Y3672477D1*
X2129431D1*
X2728982Y4104042D2*
X2721738Y4107664D1*
X2714410Y4114992D1*
X2710788Y4122236D1*
Y4136808D1*
X2714410Y4144136D1*
X2721738Y4151379D1*
X2728982Y4155086D1*
X2739932Y4158708D1*
X2758210Y4158707D1*
X2769076Y4155086D1*
X2776404Y4151379D1*
X2783648Y4144136D1*
X2787354Y4136807D1*
Y4122236D1*
X2783648Y4114992D1*
X2776404Y4107664D1*
X2769076Y4104042D1*
X2710872Y4062319D2*
X2714494Y4073184D1*
X2721738Y4076891D1*
X2729066D1*
X2736310Y4073184D1*
X2740016Y4065941D1*
X2743638Y4051369D1*
X2747260Y4040419D1*
X2754588Y4033175D1*
X2761832Y4029553D1*
X2772782D1*
X2780026Y4033175D1*
X2783732Y4036797D1*
X2787354Y4047747D1*
Y4062319D1*
X2783732Y4073184D1*
X2780026Y4076890D1*
X2772782Y4080512D1*
X2761832D1*
X2754588Y4076891D1*
X2747260Y4069562D1*
X2743638Y4058697D1*
X2740016Y4044125D1*
X2736310Y4036797D1*
X2729066Y4033175D1*
X2721738D1*
X2714494Y4036797D1*
X2710872Y4047747D1*
Y4062319D1*
X1941376Y4614714D2*
Y4538148D1*
X1915854D1*
X1904904Y4541854D1*
X1897576Y4549098D1*
X1893954Y4556426D1*
X1890332Y4567292D1*
Y4585570D1*
X1893954Y4596520D1*
X1897576Y4603764D1*
X1904904Y4611092D1*
X1915854Y4614714D1*
X1941376D1*
X1830331Y4538148D2*
Y4614629D1*
X1866803Y4563670D1*
X1812137D1*
X1939565Y4376590D2*
Y4300025D1*
X1914043D1*
X1903093Y4303731D1*
X1895765Y4310975D1*
X1892143Y4318303D1*
X1888521Y4329168D1*
Y4347446D1*
X1892143Y4358396D1*
X1895765Y4365640D1*
X1903093Y4372968D1*
X1914043Y4376590D1*
X1939565D1*
X1821276Y4376506D2*
X1857664D1*
X1861286Y4343740D1*
X1857664Y4347362D1*
X1846714Y4351068D1*
X1835848D1*
X1824898Y4347362D1*
X1817570Y4340118D1*
X1813948Y4329168D1*
Y4321925D1*
X1817570Y4310975D1*
X1824898Y4303646D1*
X1835848Y4300025D1*
X1846714D1*
X1857664Y4303646D1*
X1861286Y4307353D1*
X1864992Y4314596D1*
X3013686Y4496504D2*
Y4419938D1*
X2988164D1*
X2977214Y4423644D1*
X2969886Y4430888D1*
X2966264Y4438216D1*
X2962642Y4449082D1*
Y4467360D1*
X2966264Y4478310D1*
X2969886Y4485554D1*
X2977214Y4492882D1*
X2988164Y4496504D1*
X3013686D1*
X2895396Y4485554D2*
X2899018Y4492798D1*
X2909968Y4496419D1*
X2917212D1*
X2928162Y4492798D1*
X2935490Y4481848D1*
X2939112Y4463654D1*
Y4445460D1*
X2935490Y4430888D1*
X2928162Y4423560D1*
X2917212Y4419938D1*
X2913590D1*
X2902725Y4423560D1*
X2895396Y4430888D1*
X2891775Y4441838D1*
Y4445460D1*
X2895396Y4456410D1*
X2902725Y4463654D1*
X2913590Y4467276D1*
X2917212D1*
X2928162Y4463654D1*
X2935490Y4456410D1*
X2939112Y4445460D1*
X2766923Y5495565D2*
X2843489D1*
Y5470043D1*
X2839783Y5459093D1*
X2832539Y5451765D1*
X2825211Y5448143D1*
X2814345Y5444522D1*
X2796067D1*
X2785117Y5448144D1*
X2777873Y5451765D1*
X2770545Y5459094D1*
X2766923Y5470044D1*
Y5495565D1*
X2843489Y5406420D2*
X2767007Y5369948D1*
Y5420992D1*
X5801967Y4916599D2*
Y4858311D1*
X5805589Y4847361D1*
X5809295Y4843739D1*
X5816539Y4840033D1*
X5823867D1*
X5831111Y4843739D1*
X5834733Y4847361D1*
X5838439Y4858311D1*
Y4865555D1*
X5774732Y4898321D2*
Y4901943D1*
X5771110Y4909271D1*
X5767488Y4912893D1*
X5760160Y4916514D1*
X5745588D1*
X5738344Y4912893D1*
X5734722Y4909271D1*
X5731016Y4901943D1*
Y4894699D1*
X5734722Y4887371D1*
X5741966Y4876505D1*
X5778438Y4840033D1*
X5727394D1*
X5486737Y3376519D2*
Y3318231D1*
X5490359Y3307281D1*
X5494065Y3303659D1*
X5501309Y3299953D1*
X5508637D1*
X5515881Y3303659D1*
X5519503Y3307281D1*
X5523209Y3318231D1*
Y3325475D1*
X5455880Y3376434D2*
X5415870D1*
X5437686Y3347291D1*
X5426736D1*
X5419492Y3343669D1*
X5415870Y3340047D1*
X5412164Y3329097D1*
Y3321853D1*
X5415870Y3310903D1*
X5423114Y3303575D1*
X5434064Y3299953D1*
X5445014D1*
X5455880Y3303575D1*
X5459502Y3307281D1*
X5463208Y3314525D1*
X3639106Y4302449D2*
Y4244161D1*
X3642728Y4233211D1*
X3646434Y4229589D1*
X3653678Y4225883D1*
X3661006D1*
X3668249Y4229589D1*
X3671871Y4233211D1*
X3675578Y4244161D1*
Y4251405D1*
X3590054Y4302449D2*
Y4225883D1*
X3615576Y4302449D2*
X3564532D1*
X3482631Y4225883D2*
X3511859Y4302449D1*
X3541003Y4225883D1*
X3530053Y4251405D2*
X3493581D1*
X3404436Y4284255D2*
X3408058Y4291499D1*
X3415386Y4298827D1*
X3422630Y4302449D1*
X3437202D1*
X3444530Y4298827D1*
X3451774Y4291499D1*
X3455480Y4284255D1*
X3459102Y4273305D1*
Y4255027D1*
X3455480Y4244161D1*
X3451774Y4236833D1*
X3444530Y4229589D1*
X3437202Y4225883D1*
X3422630D1*
X3415386Y4229589D1*
X3408058Y4236833D1*
X3404436Y4244161D1*
Y4255027D1*
X3422630D1*
X3865988Y4301662D2*
Y4243374D1*
X3869610Y4232424D1*
X3873316Y4228802D1*
X3880560Y4225096D1*
X3887888D1*
X3895132Y4228802D1*
X3898754Y4232424D1*
X3902460Y4243374D1*
Y4250618D1*
X3805987Y4225096D2*
Y4301577D1*
X3842459Y4250618D1*
X3787793D1*
X1242951Y5702975D2*
Y5644688D1*
X1246573Y5633738D1*
X1250279Y5630116D1*
X1257523Y5626410D1*
X1264851D1*
X1272095Y5630116D1*
X1275716Y5633738D1*
X1279423Y5644688D1*
Y5651931D1*
X1175706Y5702891D2*
X1212093D1*
X1215715Y5670125D1*
X1212093Y5673747D1*
X1201143Y5677453D1*
X1190277D1*
X1179327Y5673747D1*
X1171999Y5666503D1*
X1168377Y5655553D1*
Y5648310D1*
X1171999Y5637360D1*
X1179327Y5630031D1*
X1190277Y5626410D1*
X1201143D1*
X1212093Y5630031D1*
X1215715Y5633738D1*
X1219421Y5640981D1*
X2258590Y6288602D2*
X2265834Y6285064D1*
X2273162Y6277736D1*
X2276784Y6270408D1*
X2280490Y6259458D1*
Y6241264D1*
X2276784Y6230314D1*
X2273162Y6223070D1*
X2265834Y6215742D1*
X2258590Y6212120D1*
X2244018D1*
X2236690Y6215742D1*
X2229446Y6223070D1*
X2225824Y6230314D1*
X2222118Y6241264D1*
Y6259458D1*
X2225824Y6270408D1*
X2229446Y6277736D1*
X2236690Y6285064D1*
X2244018Y6288602D1*
X2258590D1*
X2247640Y6226692D2*
X2225824Y6204792D1*
X2198588Y6273946D2*
X2191260Y6277652D1*
X2180310Y6288518D1*
Y6212036D1*
X5379900Y6029716D2*
Y5996950D1*
X5376194Y5986000D1*
X5372572Y5982294D1*
X5365328Y5978672D1*
X5358000D1*
X5350756Y5982294D1*
X5347050Y5986000D1*
X5343428Y5996950D1*
Y6029716D1*
X5419994D1*
X5379900Y6004194D2*
X5419994Y5978672D1*
X5358084Y5955143D2*
X5354378Y5947815D1*
X5343512Y5936865D1*
X5419994D1*
X5381947Y6304575D2*
Y6271810D1*
X5378241Y6260860D1*
X5374619Y6257153D1*
X5367375Y6253532D1*
X5360047D1*
X5352803Y6257154D1*
X5349097Y6260860D1*
X5345475Y6271810D1*
Y6304575D1*
X5422041D1*
X5381947Y6279053D2*
X5422041Y6253531D1*
X5363753Y6226296D2*
X5360131D1*
X5352803Y6222674D1*
X5349181Y6219052D1*
X5345559Y6211724D1*
Y6197152D1*
X5349181Y6189908D1*
X5352803Y6186287D1*
X5360131Y6182580D1*
X5367375D1*
X5374703Y6186287D1*
X5385569Y6193530D1*
X5422041Y6230002D1*
X5422040Y6178958D1*
X2366355Y5707300D2*
X2333589D1*
X2322639Y5711006D1*
X2318933Y5714628D1*
X2315311Y5721872D1*
Y5729200D1*
X2318933Y5736444D1*
X2322639Y5740150D1*
X2333589Y5743772D1*
X2366355D1*
Y5667206D1*
X2340833Y5707300D2*
X2315311Y5667206D1*
X2284454Y5743687D2*
X2244444D1*
X2266260Y5714544D1*
X2255310D1*
X2248066Y5710922D1*
X2244444Y5707300D1*
X2240738Y5696350D1*
Y5689106D1*
X2244444Y5678156D1*
X2251688Y5670828D1*
X2262638Y5667206D1*
X2273588D1*
X2284454Y5670828D1*
X2288076Y5674534D1*
X2291782Y5681778D1*
X2589574Y6130253D2*
Y6097487D1*
X2585868Y6086537D1*
X2582246Y6082831D1*
X2575002Y6079209D1*
X2567674D1*
X2560430Y6082831D1*
X2556724Y6086537D1*
X2553102Y6097487D1*
Y6130253D1*
X2629668D1*
X2589574Y6104731D2*
X2629668Y6079209D1*
Y6019208D2*
X2553186D1*
X2604146Y6055680D1*
Y6001014D1*
X5668065Y5666253D2*
X5635299D1*
X5624349Y5669960D1*
X5620643Y5673581D1*
X5617021Y5680825D1*
Y5688153D1*
X5620643Y5695397D1*
X5624349Y5699103D1*
X5635299Y5702725D1*
X5668065D1*
Y5626160D1*
X5642543Y5666253D2*
X5617021Y5626160D1*
X5549776Y5702641D2*
X5586164D1*
X5589786Y5669875D1*
X5586164Y5673497D1*
X5575214Y5677203D1*
X5564348D1*
X5553398Y5673497D1*
X5546070Y5666253D1*
X5542448Y5655303D1*
Y5648060D1*
X5546070Y5637110D1*
X5553398Y5629781D1*
X5564348Y5626160D1*
X5575214D1*
X5586164Y5629781D1*
X5589786Y5633488D1*
X5593492Y5640731D1*
X1985899Y6702393D2*
X1953133D1*
X1942183Y6706100D1*
X1938477Y6709721D1*
X1934855Y6716965D1*
Y6724293D1*
X1938477Y6731537D1*
X1942183Y6735243D1*
X1953133Y6738865D1*
X1985899D1*
Y6662300D1*
X1960377Y6702393D2*
X1934855Y6662300D1*
X1867610Y6727915D2*
X1871232Y6735159D1*
X1882182Y6738781D1*
X1889426D1*
X1900376Y6735159D1*
X1907704Y6724209D1*
X1911326Y6706015D1*
Y6687821D1*
X1907704Y6673250D1*
X1900376Y6665921D1*
X1889426Y6662300D1*
X1885804D1*
X1874938Y6665921D1*
X1867610Y6673250D1*
X1863988Y6684200D1*
Y6687821D1*
X1867610Y6698771D1*
X1874938Y6706015D1*
X1885804Y6709637D1*
X1889426D1*
X1900376Y6706015D1*
X1907704Y6698771D1*
X1911326Y6687821D1*
X2601029Y4779622D2*
X2568263D1*
X2557313Y4783328D1*
X2553607Y4786950D1*
X2549985Y4794194D1*
Y4801522D1*
X2553607Y4808766D1*
X2557313Y4812472D1*
X2568263Y4816094D1*
X2601029D1*
Y4739528D1*
X2575507Y4779622D2*
X2549985Y4739528D1*
X2511883D2*
X2475411Y4816009D1*
X2526455D1*
X5622446Y6774052D2*
X5589681D1*
X5578731Y6777758D1*
X5575025Y6781380D1*
X5571403Y6788624D1*
Y6795952D1*
X5575025Y6803196D1*
X5578731Y6806902D1*
X5589681Y6810524D1*
X5622446D1*
Y6733958D1*
X5596925Y6774052D2*
X5571403Y6733958D1*
X5529679Y6810439D2*
X5540545Y6806818D1*
X5544251Y6799574D1*
Y6792246D1*
X5540545Y6785002D1*
X5533301Y6781296D1*
X5518729Y6777674D1*
X5507779Y6774052D1*
X5500536Y6766724D1*
X5496914Y6759480D1*
Y6748530D1*
X5500536Y6741286D1*
X5504157Y6737580D1*
X5515107Y6733958D1*
X5529679D1*
X5540545Y6737580D1*
X5544251Y6741286D1*
X5547873Y6748530D1*
Y6759480D1*
X5544251Y6766724D1*
X5536923Y6774052D1*
X5526057Y6777674D1*
X5511486Y6781296D1*
X5504157Y6785002D1*
X5500536Y6792246D1*
Y6799574D1*
X5504157Y6806818D1*
X5515107Y6810439D1*
X5529679D1*
X2402548Y6565050D2*
X2369782D1*
X2358832Y6568756D1*
X2355126Y6572378D1*
X2351504Y6579622D1*
Y6586950D1*
X2355126Y6594194D1*
X2358832Y6597900D1*
X2369782Y6601522D1*
X2402548D1*
Y6524956D1*
X2377026Y6565050D2*
X2351504Y6524956D1*
X2280552Y6576000D2*
X2284259Y6565050D1*
X2291502Y6557722D1*
X2302452Y6554100D1*
X2306074D1*
X2317024Y6557722D1*
X2324268Y6565050D1*
X2327974Y6576000D1*
Y6579622D1*
X2324268Y6590572D1*
X2317024Y6597816D1*
X2306074Y6601438D1*
X2302452D1*
X2291502Y6597816D1*
X2284259Y6590572D1*
X2280552Y6576000D1*
Y6557722D1*
X2284259Y6539528D1*
X2291502Y6528578D1*
X2302452Y6524956D1*
X2309696D1*
X2320646Y6528578D1*
X2324268Y6535906D1*
X3037416Y6387806D2*
X3004650D1*
X2993700Y6391513D1*
X2989994Y6395134D1*
X2986372Y6402378D1*
Y6409706D1*
X2989994Y6416950D1*
X2993700Y6420656D1*
X3004650Y6424278D1*
X3037416D1*
Y6347713D1*
X3011894Y6387806D2*
X2986372Y6347713D1*
X2962842Y6409622D2*
X2955514Y6413328D1*
X2944564Y6424194D1*
Y6347713D1*
X2899135Y6424194D2*
X2910085Y6420572D1*
X2917413Y6409622D1*
X2921035Y6391428D1*
Y6380478D1*
X2917413Y6362284D1*
X2910085Y6351334D1*
X2899135Y6347713D1*
X2891891D1*
X2880941Y6351334D1*
X2873697Y6362284D1*
X2869991Y6380478D1*
Y6391428D1*
X2873697Y6409622D1*
X2880941Y6420572D1*
X2891891Y6424194D1*
X2899135D1*
X2873697Y6409622D2*
X2917413Y6362284D1*
X4731496Y4068308D2*
X4698730D1*
X4687780Y4072015D1*
X4684074Y4075636D1*
X4680452Y4082880D1*
Y4090208D1*
X4684074Y4097452D1*
X4687780Y4101158D1*
X4698730Y4104780D1*
X4731496D1*
Y4028215D1*
X4705974Y4068308D2*
X4680452Y4028215D1*
X4605879Y4104780D2*
Y4028215D1*
X4656922Y4104780D1*
Y4028215D1*
X4582349Y4090124D2*
X4575021Y4093830D1*
X4564071Y4104696D1*
Y4028215D1*
X2699773Y6834032D2*
X2707102Y6830410D1*
X2714345Y6823082D1*
X2718052Y6815838D1*
X2721673Y6804888D1*
Y6786610D1*
X2718052Y6775744D1*
X2714345Y6768416D1*
X2707102Y6761172D1*
X2699773Y6757466D1*
X2685202D1*
X2677958Y6761172D1*
X2670630Y6768416D1*
X2667008Y6775744D1*
X2663386Y6786610D1*
Y6804888D1*
X2667008Y6815838D1*
X2670630Y6823082D1*
X2677958Y6830410D1*
X2685202Y6834032D1*
X2699773D1*
X2628906D2*
Y6772038D1*
X2625284Y6761172D1*
X2617956Y6757466D1*
X2610713D1*
X2639856Y6808510D2*
X2614334D1*
X2587183Y6834032D2*
Y6757466D1*
Y6793938D2*
X2576233Y6804888D1*
X2568905Y6808510D1*
X2557955D1*
X2550711Y6804888D1*
X2547089Y6793938D1*
Y6757466D1*
X2523560Y6786610D2*
X2479844D1*
Y6793938D1*
X2483466Y6801266D1*
X2487088Y6804888D1*
X2494416Y6808510D1*
X2505366D1*
X2512610Y6804888D1*
X2519938Y6797560D1*
X2523560Y6786610D1*
Y6779366D1*
X2519938Y6768416D1*
X2512610Y6761172D1*
X2505366Y6757466D1*
X2494416D1*
X2487088Y6761172D1*
X2479844Y6768416D1*
X2456315Y6808510D2*
Y6757466D1*
Y6786610D2*
X2452609Y6797560D1*
X2445365Y6804888D1*
X2438037Y6808510D1*
X2427087D1*
X6074922Y6797586D2*
X6042156D1*
X6031206Y6801293D1*
X6027500Y6804914D1*
X6023878Y6812158D1*
Y6819486D1*
X6027500Y6826730D1*
X6031206Y6830436D1*
X6042156Y6834058D1*
X6074922D1*
Y6757493D1*
X6049400Y6797586D2*
X6023878Y6757493D1*
X6000349Y6786636D2*
X5956633D1*
Y6793964D1*
X5960255Y6801293D1*
X5963877Y6804914D1*
X5971205Y6808536D1*
X5982155D1*
X5989399Y6804914D1*
X5996727Y6797586D1*
X6000349Y6786636D1*
Y6779393D1*
X5996727Y6768443D1*
X5989399Y6761199D1*
X5982155Y6757493D1*
X5971205D1*
X5963877Y6761199D1*
X5956633Y6768443D1*
X5893010Y6797586D2*
X5896632Y6804914D1*
X5907582Y6808536D1*
X5918532D1*
X5929482Y6804914D1*
X5933104Y6797586D1*
X5929482Y6790343D1*
X5922154Y6786636D1*
X5903960Y6783014D1*
X5896632Y6779393D1*
X5893010Y6772064D1*
Y6768443D1*
X5896632Y6761199D1*
X5907582Y6757493D1*
X5918532D1*
X5929482Y6761199D1*
X5933104Y6768443D1*
X5869480Y6786636D2*
X5825765D1*
Y6793964D1*
X5829387Y6801293D1*
X5833008Y6804914D1*
X5840337Y6808536D1*
X5851287D1*
X5858530Y6804914D1*
X5865858Y6797586D1*
X5869480Y6786636D1*
Y6779393D1*
X5865858Y6768443D1*
X5858530Y6761199D1*
X5851287Y6757493D1*
X5840337D1*
X5833008Y6761199D1*
X5825765Y6768443D1*
X5791285Y6834058D2*
Y6772064D1*
X5787663Y6761199D1*
X5780335Y6757493D1*
X5773091D1*
X5802235Y6808536D2*
X5776713D1*
X1627806Y6834058D2*
X1675228D1*
Y6757493D1*
Y6797586D2*
X1646084D1*
X1604277Y6834058D2*
Y6757493D1*
X1537032Y6808536D2*
Y6757493D1*
Y6797586D2*
X1544276Y6804914D1*
X1551604Y6808536D1*
X1562469D1*
X1569797Y6804914D1*
X1577041Y6797586D1*
X1580747Y6786636D1*
Y6779393D1*
X1577041Y6768443D1*
X1569797Y6761199D1*
X1562469Y6757493D1*
X1551604D1*
X1544276Y6761199D1*
X1537032Y6768443D1*
X1473408Y6797586D2*
X1477030Y6804914D1*
X1487980Y6808536D1*
X1498930D1*
X1509880Y6804914D1*
X1513502Y6797586D1*
X1509880Y6790343D1*
X1502552Y6786636D1*
X1484358Y6783014D1*
X1477030Y6779393D1*
X1473408Y6772064D1*
Y6768443D1*
X1477030Y6761199D1*
X1487980Y6757493D1*
X1498930D1*
X1509880Y6761199D1*
X1513502Y6768443D1*
X1449879Y6834058D2*
Y6757493D1*
Y6793964D2*
X1438929Y6804914D1*
X1431601Y6808536D1*
X1420651D1*
X1413407Y6804914D1*
X1409785Y6793964D1*
Y6757493D1*
X1114452Y4550905D2*
X1121696Y4558233D1*
X1132646Y4561855D1*
X1147218D1*
X1158168Y4558233D1*
X1165496Y4550905D1*
Y4543661D1*
X1161790Y4536333D1*
X1158168Y4532711D1*
X1150924Y4529090D1*
X1129024Y4521761D1*
X1121696Y4518140D1*
X1118074Y4514433D1*
X1114452Y4507190D1*
Y4496240D1*
X1121696Y4488996D1*
X1132646Y4485290D1*
X1147218D1*
X1158168Y4488996D1*
X1165496Y4496240D1*
X1054451Y4485290D2*
Y4561771D1*
X1090923Y4510811D1*
X1036257D1*
X1993766Y3844205D2*
X2001010Y3851533D1*
X2011960Y3855155D1*
X2026532D1*
X2037482Y3851533D1*
X2044810Y3844205D1*
Y3836961D1*
X2041104Y3829633D1*
X2037482Y3826011D1*
X2030238Y3822389D1*
X2008338Y3815061D1*
X2001010Y3811439D1*
X1997388Y3807733D1*
X1993766Y3800489D1*
Y3789539D1*
X2001010Y3782295D1*
X2011960Y3778589D1*
X2026532D1*
X2037482Y3782295D1*
X2044810Y3789539D1*
X1933765Y3855155D2*
Y3796867D1*
X1937386Y3785917D1*
X1941093Y3782295D1*
X1948336Y3778589D1*
X1955665D1*
X1962908Y3782295D1*
X1966530Y3785917D1*
X1970236Y3796867D1*
Y3804111D1*
X1910235Y3840499D2*
X1902907Y3844205D1*
X1891957Y3855071D1*
Y3778589D1*
X2423939Y5492722D2*
Y5438056D1*
X2420317Y5427106D1*
X2412989Y5419862D1*
X2402039Y5416156D1*
X2394795D1*
X2383845Y5419862D1*
X2376517Y5427106D1*
X2372895Y5438056D1*
Y5492722D1*
X2345659Y5474444D2*
Y5478066D1*
X2342037Y5485394D1*
X2338415Y5489016D1*
X2331087Y5492638D1*
X2316515D1*
X2309271Y5489016D1*
X2305650Y5485394D1*
X2301943Y5478066D1*
Y5470822D1*
X2305650Y5463494D1*
X2312893Y5452628D1*
X2349365Y5416156D1*
X2298321D1*
X2623172Y4245845D2*
Y4191180D1*
X2619550Y4180230D1*
X2612222Y4172986D1*
X2601272Y4169280D1*
X2594028D1*
X2583078Y4172986D1*
X2575750Y4180230D1*
X2572128Y4191180D1*
Y4245845D1*
X2541271Y4245761D2*
X2501261D1*
X2523077Y4216617D1*
X2512127D1*
X2504883Y4212995D1*
X2501261Y4209373D1*
X2497555Y4198423D1*
Y4191180D1*
X2501261Y4180230D1*
X2508505Y4172901D1*
X2519455Y4169280D1*
X2530405D1*
X2541271Y4172901D1*
X2544893Y4176608D1*
X2548599Y4183851D1*
X1815074Y3322112D2*
X1822318Y3329440D1*
X1833268Y3333062D1*
X1847840D1*
X1858790Y3329440D1*
X1866118Y3322112D1*
Y3314868D1*
X1862412Y3307540D1*
X1858790Y3303918D1*
X1851546Y3300296D1*
X1829646Y3292968D1*
X1822318Y3289346D1*
X1818696Y3285640D1*
X1815074Y3278396D1*
Y3267446D1*
X1822318Y3260202D1*
X1833268Y3256496D1*
X1847840D1*
X1858790Y3260202D1*
X1866118Y3267446D1*
X1755073Y3333062D2*
Y3274774D1*
X1758695Y3263824D1*
X1762401Y3260202D1*
X1769645Y3256496D1*
X1776973D1*
X1784217Y3260202D1*
X1787839Y3263824D1*
X1791545Y3274774D1*
Y3282018D1*
X1731544Y3318405D2*
X1724215Y3322112D1*
X1713265Y3332977D1*
Y3256496D1*
X1686030Y3307540D2*
X1689736Y3303834D1*
X1686030Y3300212D1*
X1682408Y3303834D1*
X1686030Y3307540D1*
Y3263824D2*
X1689736Y3260118D1*
X1686030Y3256496D1*
X1682408Y3260118D1*
X1686030Y3263824D1*
X1584811Y3292968D2*
X1551961D1*
X1541095Y3296590D1*
X1537389Y3300296D1*
X1533767Y3307540D1*
Y3318490D1*
X1537389Y3325734D1*
X1541095Y3329440D1*
X1551961Y3333062D1*
X1584811D1*
Y3256496D1*
X1492044Y3307540D2*
X1499287Y3303918D1*
X1506615Y3296590D1*
X1510237Y3285640D1*
Y3278396D1*
X1506615Y3267446D1*
X1499287Y3260202D1*
X1492044Y3256496D1*
X1481094D1*
X1473765Y3260202D1*
X1466522Y3267446D1*
X1462815Y3278396D1*
Y3285640D1*
X1466522Y3296590D1*
X1473765Y3303918D1*
X1481094Y3307540D1*
X1492044D1*
X1439286D2*
X1424714Y3256496D1*
X1410142Y3307540D1*
X1395570Y3256496D1*
X1380998Y3307540D1*
X1357469Y3285640D2*
X1313753D1*
Y3292968D1*
X1317375Y3300296D1*
X1320997Y3303918D1*
X1328325Y3307540D1*
X1339275D1*
X1346519Y3303918D1*
X1353847Y3296590D1*
X1357469Y3285640D1*
Y3278396D1*
X1353847Y3267446D1*
X1346519Y3260202D1*
X1339275Y3256496D1*
X1328325D1*
X1320997Y3260202D1*
X1313753Y3267446D1*
X1290224Y3307540D2*
Y3256496D1*
Y3285640D2*
X1286518Y3296590D1*
X1279274Y3303918D1*
X1271946Y3307540D1*
X1260996D1*
X4679945Y5840747D2*
D120*
X4743062D1*
Y5738659D1*
X4679945D1*
X4743062Y5792117D2*
X4704204D1*
X4580514Y5826147D2*
X4590173Y5835917D1*
X4604773Y5840747D1*
X4624202D1*
X4638802Y5835917D1*
X4648573Y5826147D1*
Y5816488D1*
X4643631Y5806717D1*
X4638802Y5801888D1*
X4629143Y5797059D1*
X4599943Y5787288D1*
X4590173Y5782459D1*
X4585343Y5777517D1*
X4580514Y5767859D1*
Y5753259D1*
X4590173Y5743600D1*
X4604773Y5738659D1*
X4624202D1*
X4638802Y5743600D1*
X4648573Y5753259D1*
X4549141Y5787288D2*
X4505341D1*
X4490854Y5792117D1*
X4485912Y5797059D1*
X4481083Y5806717D1*
Y5821317D1*
X4485912Y5830976D1*
X4490854Y5835917D1*
X4505341Y5840747D1*
X4549141D1*
Y5738659D1*
X4439940Y5840634D2*
X4386594D1*
X4415681Y5801776D1*
X4401081D1*
X4391423Y5796947D1*
X4386594Y5792117D1*
X4381652Y5777517D1*
Y5767859D1*
X4386594Y5753259D1*
X4396252Y5743488D1*
X4410852Y5738659D1*
X4425452D1*
X4439940Y5743488D1*
X4444769Y5748430D1*
X4449710Y5758088D1*
X4345338Y5816376D2*
Y5821205D1*
X4340509Y5830976D1*
X4335679Y5835805D1*
X4325909Y5840634D1*
X4306479D1*
X4296821Y5835805D1*
X4291992Y5830976D1*
X4287050Y5821205D1*
Y5811547D1*
X4291992Y5801776D1*
X4301650Y5787288D1*
X4350279Y5738659D1*
X4282221D1*
X4250848Y5789647D2*
X4194695D1*
X4163322Y5840747D2*
X4138951Y5738659D1*
X4114693Y5840747D1*
X4090434Y5738659D1*
X4066064Y5840747D1*
X4034691Y5792117D2*
X3991003D1*
X3976403Y5797059D1*
X3971462Y5801888D1*
X3966633Y5811547D1*
Y5821317D1*
X3971462Y5830976D1*
X3976403Y5835917D1*
X3991003Y5840747D1*
X4034691D1*
Y5738659D1*
X4000662Y5792117D2*
X3966633Y5738659D1*
X3906060Y5840747D2*
X3915831Y5835917D1*
X3925489Y5826147D1*
X3930431Y5816488D1*
X3935260Y5801888D1*
Y5777517D1*
X3930431Y5763030D1*
X3925489Y5753259D1*
X3915831Y5743600D1*
X3906060Y5738659D1*
X3886631D1*
X3876972Y5743600D1*
X3867202Y5753259D1*
X3862372Y5763030D1*
X3857543Y5777517D1*
Y5801888D1*
X3862372Y5816488D1*
X3867202Y5826147D1*
X3876972Y5835917D1*
X3886631Y5840747D1*
X3906060D1*
X3826171D2*
X3787312Y5738659D1*
X3748454Y5840747D1*
X3653964D2*
X3717081D1*
Y5738659D1*
X3653964D1*
X3717081Y5792117D2*
X3678223D1*
X3622592D2*
X3578904D1*
X3564304Y5797059D1*
X3559362Y5801888D1*
X3554533Y5811547D1*
Y5821317D1*
X3559362Y5830976D1*
X3564304Y5835917D1*
X3578904Y5840747D1*
X3622592D1*
Y5738659D1*
X3588562Y5792117D2*
X3554533Y5738659D1*
X3760787Y4265713D2*
X3704633D1*
X1771797Y3081873D2*
D119*
X1801025Y3158438D1*
X1830169Y3081873D1*
X1819219Y3107394D2*
X1782747D1*
X1748267Y3158438D2*
Y3081873D1*
X1724738Y3132916D2*
X1710166Y3081873D1*
X1695594Y3132916D1*
X1681022Y3081873D1*
X1666450Y3132916D1*
X1599205D2*
Y3081873D1*
Y3121966D2*
X1606449Y3129294D1*
X1613777Y3132916D1*
X1624643D1*
X1631971Y3129294D1*
X1639215Y3121966D1*
X1642921Y3111016D1*
Y3103773D1*
X1639215Y3092823D1*
X1631971Y3085579D1*
X1624643Y3081873D1*
X1613777D1*
X1606449Y3085579D1*
X1599205Y3092823D1*
X1571970Y3132916D2*
X1550154Y3081873D1*
X1557398Y3067301D1*
X1564726Y3059973D1*
X1571970Y3056351D1*
X1575676D1*
X1528254Y3132916D2*
X1550154Y3081873D1*
X1464631Y3121966D2*
X1468253Y3129294D1*
X1479203Y3132916D1*
X1490153D1*
X1501103Y3129294D1*
X1504724Y3121966D1*
X1501103Y3114723D1*
X1493774Y3111016D1*
X1475581Y3107394D1*
X1468253Y3103773D1*
X1464631Y3096444D1*
Y3092823D1*
X1468253Y3085579D1*
X1479203Y3081873D1*
X1490153D1*
X1501103Y3085579D1*
X1504724Y3092823D1*
X1345133Y3158438D2*
X1352461Y3154816D1*
X1359705Y3147488D1*
X1363411Y3140244D1*
X1367033Y3129294D1*
Y3111016D1*
X1363411Y3100151D1*
X1359705Y3092823D1*
X1352461Y3085579D1*
X1345133Y3081873D1*
X1330561D1*
X1323318Y3085579D1*
X1315989Y3092823D1*
X1312368Y3100151D1*
X1308746Y3111016D1*
Y3129294D1*
X1312368Y3140244D1*
X1315989Y3147488D1*
X1323318Y3154816D1*
X1330561Y3158438D1*
X1345133D1*
X1285216Y3132916D2*
Y3081873D1*
Y3118344D2*
X1274266Y3129294D1*
X1266938Y3132916D1*
X1256072D1*
X1248744Y3129294D1*
X1245122Y3118344D1*
Y3081873D1*
X4435610Y3280917D2*
X4442854Y3288246D1*
X4453804Y3291867D1*
X4468376D1*
X4479326Y3288246D1*
X4486654Y3280917D1*
Y3273674D1*
X4482948Y3266346D1*
X4479326Y3262724D1*
X4472082Y3259102D1*
X4450182Y3251774D1*
X4442854Y3248152D1*
X4439232Y3244446D1*
X4435610Y3237202D1*
Y3226252D1*
X4442854Y3219008D1*
X4453804Y3215302D1*
X4468376D1*
X4479326Y3219008D1*
X4486654Y3226252D1*
X4412081Y3291867D2*
Y3215302D1*
X4366651Y3291867D2*
X4373979Y3288246D1*
X4381223Y3280917D1*
X4384929Y3273674D1*
X4388551Y3262724D1*
Y3244446D1*
X4384929Y3233580D1*
X4381223Y3226252D1*
X4373979Y3219008D1*
X4366651Y3215302D1*
X4352079D1*
X4344835Y3219008D1*
X4337507Y3226252D1*
X4333885Y3233580D1*
X4330263Y3244446D1*
Y3262724D1*
X4333885Y3273674D1*
X4337507Y3280917D1*
X4344835Y3288246D1*
X4352079Y3291867D1*
X4366651D1*
X4232666Y3255396D2*
X4199900D1*
X4188950Y3259102D1*
X4185244Y3262724D1*
X4181622Y3269967D1*
Y3277296D1*
X4185244Y3284539D1*
X4188950Y3288246D1*
X4199900Y3291867D1*
X4232666D1*
Y3215302D1*
X4207144Y3255396D2*
X4181622Y3215302D1*
X4110755Y3291867D2*
X4158093D1*
Y3215302D1*
X4110755D1*
X4158093Y3255396D2*
X4128949D1*
X4032560Y3273674D2*
X4036182Y3280917D1*
X4043510Y3288246D1*
X4050754Y3291867D1*
X4065326D1*
X4072654Y3288246D1*
X4079898Y3280917D1*
X4083604Y3273674D1*
X4087226Y3262724D1*
Y3244446D1*
X4083604Y3233580D1*
X4079898Y3226252D1*
X4072654Y3219008D1*
X4065326Y3215302D1*
X4050754D1*
X4043510Y3219008D1*
X4036182Y3226252D1*
X4032560Y3233580D1*
X3961693Y3291867D2*
X4009031D1*
Y3215302D1*
X3961693D1*
X4009031Y3255396D2*
X3979887D1*
X3938164Y3251774D2*
X3905314D1*
X3894448Y3255396D1*
X3890742Y3259102D1*
X3887120Y3266346D1*
Y3277296D1*
X3890742Y3284539D1*
X3894448Y3288246D1*
X3905314Y3291867D1*
X3938164D1*
Y3215302D1*
X3838068Y3291867D2*
Y3215302D1*
X3863590Y3291867D2*
X3812546D1*
X3730645Y3215302D2*
X3759873Y3291867D1*
X3789017Y3215302D1*
X3778067Y3240824D2*
X3741595D1*
X3652450Y3273674D2*
X3656072Y3280917D1*
X3663400Y3288246D1*
X3670644Y3291867D1*
X3685216D1*
X3692544Y3288246D1*
X3699788Y3280917D1*
X3703494Y3273674D1*
X3707116Y3262724D1*
Y3244446D1*
X3703494Y3233580D1*
X3699788Y3226252D1*
X3692544Y3219008D1*
X3685216Y3215302D1*
X3670644D1*
X3663400Y3219008D1*
X3656072Y3226252D1*
X3652450Y3233580D1*
X3628920Y3291867D2*
Y3215302D1*
X3585205D1*
X3514338Y3291867D2*
X3561675D1*
Y3215302D1*
X3514338D1*
X3561675Y3255396D2*
X3532531D1*
X3391218Y3291867D2*
Y3215302D1*
X3416740Y3291867D2*
X3365696D1*
X3342167D2*
Y3215302D1*
X3291123Y3291867D2*
Y3215302D1*
X3342167Y3255396D2*
X3291123D1*
X3267594Y3291867D2*
Y3215302D1*
X3193021Y3280917D2*
X3200264Y3288246D1*
X3211214Y3291867D1*
X3225786D1*
X3236736Y3288246D1*
X3244064Y3280917D1*
Y3273674D1*
X3240358Y3266346D1*
X3236736Y3262724D1*
X3229492Y3259102D1*
X3207592Y3251774D1*
X3200264Y3248152D1*
X3196642Y3244446D1*
X3193021Y3237202D1*
Y3226252D1*
X3200264Y3219008D1*
X3211214Y3215302D1*
X3225786D1*
X3236736Y3219008D1*
X3244064Y3226252D1*
X3044379Y3280917D2*
X3051623Y3288246D1*
X3062573Y3291867D1*
X3077145D1*
X3088095Y3288246D1*
X3095423Y3280917D1*
Y3273674D1*
X3091717Y3266346D1*
X3088095Y3262724D1*
X3080851Y3259102D1*
X3058951Y3251774D1*
X3051623Y3248152D1*
X3048001Y3244446D1*
X3044379Y3237202D1*
Y3226252D1*
X3051623Y3219008D1*
X3062573Y3215302D1*
X3077145D1*
X3088095Y3219008D1*
X3095423Y3226252D1*
X3020850Y3291867D2*
Y3215302D1*
X2997321Y3291867D2*
Y3215302D1*
X2971799D1*
X2960849Y3219008D1*
X2953521Y3226252D1*
X2949899Y3233580D1*
X2946277Y3244446D1*
Y3262724D1*
X2949899Y3273674D1*
X2953521Y3280917D1*
X2960849Y3288246D1*
X2971799Y3291867D1*
X2997321D1*
X2875410D2*
X2922747D1*
Y3215302D1*
X2875410D1*
X2922747Y3255396D2*
X2893603D1*
M02*
