G04 DipTrace 3.3.1.3*
G04 TopMask.gbr*
%MOIN*%
G04 #@! TF.FileFunction,Soldermask,Top*
G04 #@! TF.Part,Single*
%ADD37C,0.049213*%
%ADD44R,0.023628X0.106305*%
%ADD46C,0.074809*%
%ADD50R,0.076778X0.096463*%
%ADD52R,0.076778X0.064967*%
%ADD54R,0.031502X0.08662*%
%ADD56C,0.062998*%
%ADD58C,0.195282*%
%ADD60C,0.074415*%
%ADD62R,0.074415X0.074415*%
%ADD64R,0.043313X0.035439*%
%ADD66R,0.035439X0.043313*%
%FSLAX26Y26*%
G04*
G70*
G90*
G75*
G01*
G04 TopMask*
%LPD*%
D66*
X1199952Y2037451D3*
Y2088632D3*
X1234198Y1532077D3*
Y1480896D3*
X1134824Y1532363D3*
Y1481182D3*
X1184824Y1532363D3*
Y1481182D3*
X1131202Y2087449D3*
Y2036268D3*
D64*
X913685Y2868700D3*
X862504D3*
X656202D3*
X605021D3*
D62*
X800953Y3206293D3*
D60*
X910008D3*
X1019063D3*
X1128118D3*
X1237173D3*
X855481Y3318104D3*
X964536D3*
X1073591D3*
X1182646D3*
D58*
X527134Y3262199D3*
X1510992D3*
D64*
X1381202Y1543700D3*
X1432383D3*
X913685Y2924949D3*
X862504D3*
X1381201Y2143700D3*
X1432382D3*
X1381202Y1337449D3*
X1432383D3*
X656202Y2924951D3*
X605021D3*
D66*
X1431202Y793700D3*
Y742519D3*
X827944Y1151987D3*
Y1100806D3*
X1131202Y1156200D3*
Y1105019D3*
D64*
X569256Y2661745D3*
X518075D3*
D66*
X874196Y2032504D3*
Y2083686D3*
X824196Y2032504D3*
Y2083686D3*
X774196Y2032504D3*
Y2083686D3*
D56*
X1526036Y2708482D3*
Y2964388D3*
X1348870D3*
Y2708482D3*
D54*
X783337Y962516D3*
X826645D3*
X869952D3*
X913259D3*
X956566D3*
X999873D3*
X1043180D3*
X1086487D3*
X1129794D3*
D52*
X724243Y938934D3*
X1313042Y938582D3*
D50*
X1349353Y560697D3*
X737735Y560833D3*
D37*
X848574Y550340D3*
X1163023D3*
D46*
X1518702Y443700D3*
Y543700D3*
Y643700D3*
Y743700D3*
Y843700D3*
Y943700D3*
Y1043700D3*
Y1143700D3*
Y1243700D3*
Y1343700D3*
Y1443700D3*
Y1543700D3*
Y1643700D3*
Y1743700D3*
Y1843700D3*
Y1943700D3*
Y2043700D3*
Y2143700D3*
Y2243700D3*
X518702D3*
Y2143700D3*
Y2043700D3*
Y1943700D3*
Y1843700D3*
Y1743700D3*
Y1643700D3*
Y1543700D3*
Y1443700D3*
Y1343700D3*
Y1243700D3*
Y1143700D3*
Y1043700D3*
Y943700D3*
Y843700D3*
Y743700D3*
Y643700D3*
Y543700D3*
Y443700D3*
D44*
X1197771Y1915448D3*
X1172180Y1915428D3*
X1146589Y1915432D3*
X1120999D3*
X1095408D3*
X1069818D3*
X1044227D3*
X1018637D3*
X993046D3*
X967456D3*
X941865D3*
X916274D3*
X890684D3*
X865093D3*
Y1656960D3*
X890684Y1656968D3*
X916274D3*
X941865D3*
X967456D3*
X993046D3*
X1018637D3*
X1044227D3*
X1069818D3*
X1095408D3*
X1120999D3*
X1146589D3*
X1172180Y1656964D3*
X1197771D3*
M02*
