G04 DipTrace 3.3.1.3*
G04 TopPaste.gbr*
%MOIN*%
G04 #@! TF.FileFunction,Paste,Top*
G04 #@! TF.Part,Single*
%ADD45R,0.007868X0.090545*%
%ADD51R,0.061018X0.080703*%
%ADD53R,0.061018X0.049207*%
%ADD55R,0.015742X0.07086*%
%ADD65R,0.027553X0.019679*%
%ADD67R,0.019679X0.027553*%
%FSLAX26Y26*%
G04*
G70*
G90*
G75*
G01*
G04 TopPaste*
%LPD*%
D67*
X1199952Y2037451D3*
Y2088632D3*
X1234198Y1532077D3*
Y1480896D3*
X1134824Y1532363D3*
Y1481182D3*
X1184824Y1532363D3*
Y1481182D3*
X1131202Y2087449D3*
Y2036268D3*
D65*
X913685Y2868700D3*
X862504D3*
X656202D3*
X605021D3*
X1381202Y1543700D3*
X1432383D3*
X913685Y2924949D3*
X862504D3*
X1381201Y2143700D3*
X1432382D3*
X1381202Y1337449D3*
X1432383D3*
X656202Y2924951D3*
X605021D3*
D67*
X1431202Y793700D3*
Y742519D3*
X827944Y1151987D3*
Y1100806D3*
X1131202Y1156200D3*
Y1105019D3*
D65*
X569256Y2661745D3*
X518075D3*
D67*
X874196Y2032504D3*
Y2083686D3*
X824196Y2032504D3*
Y2083686D3*
X774196Y2032504D3*
Y2083686D3*
D55*
X783337Y962516D3*
X826645D3*
X869952D3*
X913259D3*
X956566D3*
X999873D3*
X1043180D3*
X1086487D3*
X1129794D3*
D53*
X724243Y938934D3*
X1313042Y938582D3*
D51*
X1349353Y560697D3*
X737735Y560833D3*
D45*
X1197771Y1915448D3*
X1172180Y1915428D3*
X1146589Y1915432D3*
X1120999D3*
X1095408D3*
X1069818D3*
X1044227D3*
X1018637D3*
X993046D3*
X967456D3*
X941865D3*
X916274D3*
X890684D3*
X865093D3*
Y1656960D3*
X890684Y1656968D3*
X916274D3*
X941865D3*
X967456D3*
X993046D3*
X1018637D3*
X1044227D3*
X1069818D3*
X1095408D3*
X1120999D3*
X1146589D3*
X1172180Y1656964D3*
X1197771D3*
M02*
