G04 DipTrace 3.3.1.3*
G04 BottomMask.gbr*
%MOMM*%
G04 #@! TF.FileFunction,Soldermask,Bot*
G04 #@! TF.Part,Single*
%AMOUTLINE1*
4,1,4,
-0.70712,0.0707,
-0.0707,0.70712,
0.70712,-0.0707,
0.0707,-0.70712,
-0.70712,0.0707,
0*%
%AMOUTLINE3*
4,1,4,
-0.0707,-0.70712,
-0.70712,-0.0707,
0.0707,0.70712,
0.70712,0.0707,
-0.0707,-0.70712,
0*%
%ADD18C,0.63497*%
%ADD43C,1.9*%
%ADD66C,6.0*%
%ADD75R,1.3X0.8*%
%ADD77R,0.8X2.2*%
%ADD79R,2.65X2.65*%
%ADD81O,0.5X1.05*%
%ADD83O,1.05X0.5*%
%ADD85R,5.2X3.2*%
%ADD87R,2.2X1.1*%
%ADD89C,1.4*%
%ADD91O,2.2X2.7*%
%ADD97C,2.1*%
%ADD98C,1.8*%
%ADD99R,1.25X0.85*%
%ADD101R,0.5X0.87*%
%ADD103R,1.2X1.65*%
%ADD105R,1.7X1.0*%
%ADD107R,1.6X1.0*%
%ADD109R,1.75X1.2*%
%ADD111R,1.7X1.5*%
%ADD113R,1.95X0.9*%
%ADD115R,1.7X1.7*%
%ADD117C,1.75*%
%ADD119C,1.45*%
%ADD121R,1.55X0.6*%
%ADD124R,1.4X1.4*%
%ADD125R,1.1X0.9*%
%ADD127R,0.9X1.1*%
%ADD134OUTLINE1*%
%ADD136OUTLINE3*%
%FSLAX35Y35*%
G04*
G71*
G90*
G75*
G01*
G04 BotMask*
%LPD*%
D127*
X5286257Y6683257D3*
Y6813257D3*
X2111260Y6000633D3*
Y6130633D3*
D134*
X5553253Y5375383D3*
X5461327Y5467310D3*
D127*
X2524003Y5026780D3*
Y5156780D3*
X1650880Y4762380D3*
Y4632380D3*
X4000380Y3968633D3*
Y3838633D3*
X1825507Y3825757D3*
Y3695757D3*
D125*
X2174757Y3667007D3*
X2044757D3*
D124*
X2143007Y4571880D3*
X1863007D3*
X2143007Y4333757D3*
X1863007D3*
D66*
X5921257Y6238757D3*
X1539757D3*
X5658507Y1548757D3*
X1802507D3*
D43*
X2662507Y1434880D3*
X2840507Y1739880D3*
X3018507Y1434880D3*
X3196507Y1739880D3*
X3374507Y1434880D3*
X3552507Y1739880D3*
X3730507Y1434880D3*
X3908507Y1739880D3*
X4086507Y1434880D3*
X4264507Y1739880D3*
X4442507Y1434880D3*
X4620507Y1739880D3*
X4798507Y1434880D3*
Y2530257D3*
X4620507Y2835257D3*
X4442507Y2530257D3*
X4264507Y2835257D3*
X4086507Y2530257D3*
X3908507Y2835257D3*
X3730507Y2530257D3*
X3552507Y2835257D3*
X3374507Y2530257D3*
X3196507Y2835257D3*
X3018507Y2530257D3*
X2840507Y2835257D3*
X2662507Y2530257D3*
D121*
X1404713Y5033883D3*
Y5098883D3*
Y5163883D3*
Y5228883D3*
Y5293883D3*
D119*
Y4913883D3*
Y5413883D3*
D117*
X1134713Y4813883D3*
Y5513883D3*
D115*
Y5063883D3*
Y5263883D3*
D113*
X6318133Y4619507D3*
Y4509407D3*
Y4399507D3*
X6318167Y4289440D3*
Y4179440D3*
Y4069473D3*
Y3959440D3*
X6318133Y3849507D3*
D111*
X6306133Y4739407D3*
D115*
Y3604407D3*
D109*
X5237667Y3610440D3*
D107*
X5480667Y3569473D3*
D105*
X5545733Y4764407D3*
D103*
X5395733Y4732507D3*
D101*
X2270006Y6127633D3*
X2320006D3*
X2370006D3*
Y6002633D3*
X2320006D3*
X2270006D3*
D99*
X2682757Y4095630D3*
Y4285630D3*
X2912757Y4190630D3*
X2714507Y3873380D3*
Y3683380D3*
X2484507Y3778380D3*
D125*
X2888703Y6485123D3*
X3018703D3*
D127*
X5286260Y6413383D3*
Y6543383D3*
X5370077Y7193910D3*
Y7323910D3*
X5286253Y5857757D3*
Y5987757D3*
X5397383Y5858703D3*
Y5988703D3*
D125*
X2368547Y5804617D3*
X2238547D3*
D127*
X2492257Y6000633D3*
Y6130633D3*
D134*
X5367277Y5559123D3*
X5275350Y5651050D3*
D136*
X2375653Y4799607D3*
X2467580Y4891533D3*
D125*
X1857257Y6683257D3*
X1987257D3*
D127*
X5286253Y6157880D3*
Y6287880D3*
D136*
X5665487Y6680743D3*
X5573560Y6588817D3*
D125*
X2254133Y6683257D3*
X2384133D3*
D127*
X2539880Y4127380D3*
Y4257380D3*
X1682630Y3921007D3*
Y3791007D3*
X2857380Y3714633D3*
Y3844633D3*
D98*
X2349380Y7270630D3*
X2799380D3*
D97*
X2224380Y7020630D3*
X2924380D3*
D98*
X5699007Y7272047D3*
X6149007D3*
D97*
X5574007Y7022047D3*
X6274007D3*
D98*
X1317507Y7270657D3*
X1767507D3*
D97*
X1192507Y7020657D3*
X1892507D3*
D91*
X1242710Y4444687D3*
D89*
Y4190663D3*
Y3984313D3*
Y3777937D3*
D91*
Y3523913D3*
D87*
X5008923Y6819107D3*
X5009923Y6692107D3*
Y6565107D3*
Y6438107D3*
Y6311107D3*
Y6184107D3*
Y6057107D3*
Y5930107D3*
Y5803107D3*
Y5676107D3*
Y5549107D3*
Y5422107D3*
Y5295107D3*
Y5168107D3*
X3287717Y5169073D3*
Y5296073D3*
Y5423073D3*
Y5550070D3*
Y5677073D3*
Y4534073D3*
Y4661073D3*
Y4788073D3*
Y4915073D3*
Y5042073D3*
X3287723Y5803207D3*
Y5930207D3*
Y6057207D3*
Y6184207D3*
Y6311207D3*
Y6438207D3*
Y6565207D3*
Y6692207D3*
Y6819207D3*
D85*
X4246923Y6188907D3*
D87*
X5009913Y5041970D3*
Y4914970D3*
Y4787970D3*
Y4660970D3*
Y4533970D3*
D83*
X2238256Y5254507D3*
Y5204507D3*
Y5154507D3*
Y5104507D3*
Y5054507D3*
Y5004507D3*
D81*
X2173256Y4939507D3*
X2123256D3*
X2073256D3*
X2023256D3*
X1973256D3*
X1923256D3*
D83*
X1858256Y5004507D3*
Y5054507D3*
Y5104507D3*
Y5154507D3*
Y5204507D3*
Y5254507D3*
D81*
X1923256Y5319507D3*
X1973256D3*
X2023256D3*
X2073256D3*
X2123256D3*
X2173256D3*
D79*
X2048256Y5129507D3*
D77*
X3841630Y3619380D3*
X3714630D3*
X3587630D3*
X3460630D3*
X3333630D3*
X3206630D3*
X3079630D3*
Y4159380D3*
X3206630D3*
X3333630D3*
X3460630D3*
X3587630D3*
X3714630D3*
X3841630D3*
X4921130Y3619380D3*
X4794130D3*
X4667130D3*
X4540130D3*
X4413130D3*
X4286130D3*
X4159130D3*
Y4159380D3*
X4286130D3*
X4413130D3*
X4540130D3*
X4667130D3*
X4794130D3*
X4921130D3*
D75*
X1968380Y3825757D3*
Y3920757D3*
Y4015757D3*
X2238380D3*
Y3825757D3*
D18*
X5175132Y6476882D3*
M02*
