G04 DipTrace 3.3.1.3*
G04 Bottom.gbr*
%MOIN*%
G04 #@! TF.FileFunction,Copper,L2,Bot*
G04 #@! TF.Part,Single*
G04 #@! TA.AperFunction,Conductor*
%ADD14C,0.007874*%
%ADD15C,0.015748*%
%ADD16C,0.011811*%
%ADD17C,0.019685*%
G04 #@! TA.AperFunction,CopperBalancing*
%ADD18C,0.025*%
%ADD19C,0.012992*%
%ADD21R,0.035433X0.027559*%
G04 #@! TA.AperFunction,ComponentPad*
%ADD28R,0.06X0.06*%
%ADD29C,0.06*%
%ADD32O,0.070866X0.035433*%
%ADD33O,0.082677X0.035433*%
%ADD36C,0.055118*%
%ADD38R,0.07874X0.023622*%
%ADD39R,0.057087X0.068898*%
%ADD40R,0.088583X0.068898*%
%ADD49R,0.011024X0.033465*%
%ADD50R,0.033465X0.011024*%
%ADD51R,0.080709X0.080709*%
G04 #@! TA.AperFunction,ViaPad*
%ADD61C,0.031*%
%FSLAX26Y26*%
G04*
G70*
G90*
G75*
G01*
G04 Bottom*
%LPD*%
X1431613Y2764665D2*
D16*
X1653987D1*
X1656201Y2762451D1*
X1129231Y3174173D2*
X1180009Y3224951D1*
X1643701D1*
X1477657Y1686566D2*
D14*
X1432087D1*
X1412451Y1706201D1*
X1674951Y1618701D2*
Y1668701D1*
X1692816Y1686566D1*
X1740159D1*
X490159Y2592815D2*
Y2690993D1*
X487451Y2693701D1*
X1431613Y2764665D2*
D16*
X1370209D1*
X1353673Y2781201D1*
X1318701D1*
Y2831201D1*
X1318702D1*
X1349951Y1106201D2*
D14*
Y1168701D1*
X1599951Y1418701D1*
X1718702D1*
X1768702Y1468701D1*
Y1589125D1*
X1049951Y1006201D2*
X1099951Y1056201D1*
Y1212450D1*
X1312451Y1424950D1*
X1468701D1*
X1506201Y1462450D1*
Y1589125D1*
X1565256D2*
Y1452756D1*
X1481201Y1368701D1*
X1331201D1*
X1249951Y1287451D1*
Y1106201D1*
X518702Y2495374D2*
Y1862451D1*
X493701Y1837450D1*
Y1137451D1*
X524951Y1106201D1*
X749951D1*
X538387Y2495374D2*
Y1857136D1*
X512451Y1831201D1*
Y1187450D1*
X549951Y1149950D1*
X806202D1*
X849951Y1106201D1*
X558072Y2495374D2*
Y1847812D1*
X531201Y1820941D1*
Y1212451D1*
X562451Y1181201D1*
X874951D1*
X949951Y1106201D1*
X577757Y2495374D2*
Y1840256D1*
X549951Y1812450D1*
Y1249951D1*
X587451Y1212451D1*
X943701D1*
X1049951Y1106201D1*
X1449951D2*
Y1218701D1*
X1624951Y1393701D1*
X1737451D1*
X1788387Y1444636D1*
Y1589125D1*
X1649951Y1106201D2*
Y1281201D1*
X1718702Y1349951D1*
X1768702D1*
X1827757Y1409007D1*
Y1589125D1*
X1549951Y1106201D2*
Y1243701D1*
X1674951Y1368701D1*
X1749951D1*
X1808072Y1426822D1*
Y1589125D1*
X1525886D2*
Y1450886D1*
X1474951Y1399951D1*
X1318702D1*
X1149951Y1231201D1*
Y1106201D1*
X1643701Y2856201D2*
X1645348Y2857848D1*
Y2924850D1*
X1632304Y2937894D1*
X1431613D1*
Y2634744D2*
X1583322D1*
X1612451Y2605614D1*
X1024951Y3074951D2*
Y2968701D1*
X1181201Y2812451D1*
Y2737450D1*
X1137451Y2693701D1*
X906201D1*
X868701Y2656201D1*
Y1743702D1*
X918702Y1693701D1*
X1224951Y2968701D2*
X1287451D1*
X1359046Y3040295D1*
X1455196D1*
X1937451Y3512106D2*
Y3256201D1*
X1649951Y2462451D2*
X1638996Y2451496D1*
X1455547D1*
X639597Y3256201D2*
Y3512106D1*
X1455196Y3040295D2*
Y3163587D1*
X1485310Y3193701D1*
X1668702D1*
X1699951Y3224950D1*
Y3256201D1*
X1833508Y2480778D2*
Y2481201D1*
X1833432D1*
Y2415185D1*
X1833297Y3026803D2*
X1924951D1*
Y2480778D1*
X1833508D1*
X1937451Y3256201D2*
Y3187455D1*
X1833297Y3083301D1*
Y3026803D1*
X1431613Y2851280D2*
X1386122D1*
X1268701Y2968701D1*
X1224951D1*
X1124951Y1487450D2*
X968701D1*
X956201Y1474950D1*
Y1412453D1*
X981202Y1387451D1*
X1212451D1*
X1337451Y1512451D1*
X444194Y1417224D2*
Y1036958D1*
X474951Y1006201D1*
X749951D1*
X608761Y1757382D2*
D15*
Y1778642D1*
X624951Y1762451D1*
Y1433415D1*
X608761Y1417224D1*
X444194Y1757382D2*
D14*
Y1417224D1*
X1613484Y1686566D2*
X1655316D1*
X1699951Y1731201D1*
Y1787451D1*
X1613484Y1686566D2*
X1575098D1*
X1545571Y1657038D1*
X1875986Y1686566D2*
X1837600D1*
X1808072Y1657038D1*
X1875986Y1686566D2*
Y2298861D1*
X1833432Y2341415D1*
Y2415185D1*
X625986Y2592815D2*
X587600D1*
X558072Y2563287D1*
X625986Y2592815D2*
Y2713453D1*
X674951Y2762419D1*
X764446Y2851913D1*
X814469D1*
X840432Y2825950D1*
Y2785824D1*
X799951Y2745344D1*
Y2556201D1*
X1099951Y3043701D2*
Y3092324D1*
X1053962Y3138314D1*
X681025D1*
X657421Y3114710D1*
Y3066323D1*
X684566Y3039178D1*
X814386D1*
X840432Y3013133D1*
Y2825950D1*
X557671Y2563492D2*
X558072Y2563287D1*
X674951Y2762451D2*
Y2762419D1*
X1267520Y2781201D2*
Y2831201D1*
X1224951Y2968701D2*
Y2916552D1*
X1267520Y2873984D1*
Y2831201D1*
X462432Y3512106D2*
Y3256201D1*
X517148Y3201484D1*
X938986D1*
X987451Y3249950D1*
X1306201Y1737451D2*
Y1837451D1*
X1256202Y1887450D1*
X1093702D1*
X1049951Y1931201D1*
Y2174949D1*
X1274951Y2399949D1*
Y2643701D1*
X1281202D1*
X924951Y2606201D2*
X1181202D1*
X1280129Y2705127D1*
X1344776D1*
X1374951Y2674951D1*
Y2587450D1*
X1399951Y2562450D1*
Y2412451D1*
X1418702Y2393701D1*
X1649951D1*
X1565256Y1724951D2*
Y2128396D1*
X1562451Y2131201D1*
X1788387Y1724951D2*
Y1880264D1*
X1781201Y1887450D1*
X1431613Y2981201D2*
X1617524D1*
X1684261Y2914463D1*
Y2579862D1*
X1610730Y2506331D1*
X1606202Y2856201D2*
X1557974Y2807972D1*
X1431613D1*
Y2894587D2*
X1582088D1*
X1593702Y2906201D1*
X1612451D1*
X1124951Y2787451D2*
Y2824951D1*
X874951Y3074951D1*
X699951D1*
X1624951Y3006201D2*
X1707865Y2923287D1*
Y1920365D1*
X1599951Y1812451D1*
X1601711Y3081220D2*
X1606182D1*
X1731202Y2956201D1*
Y2362450D1*
X1808072Y2285580D1*
Y1724951D1*
X1318702Y2739297D2*
X1360605D1*
X1378543Y2721358D1*
X1431613D1*
X1875986Y1627510D2*
X1899967D1*
X1922407Y1649950D1*
X1613484Y1627510D2*
Y1567668D1*
X1643701Y1537451D1*
X625986Y2533760D2*
X671261D1*
X687451Y2549950D1*
Y2699951D1*
X793701Y2806201D1*
X1525886Y1724951D2*
Y2205266D1*
X1524951Y2206201D1*
X1827757Y1724951D2*
Y1840256D1*
X1843702Y1856201D1*
X518702Y2631201D2*
Y2812451D1*
X612451Y2906201D1*
X538387Y2631201D2*
Y2763386D1*
X631202Y2856201D1*
X558072Y2631201D2*
Y2733072D1*
X668701Y2843701D1*
Y2993699D1*
X681202Y3006201D1*
X793701D1*
X577757Y2631201D2*
Y2721508D1*
X693701Y2837451D1*
Y2943701D1*
X706201Y2956201D1*
X793701D1*
X1768702Y1724951D2*
Y1818701D1*
X1749951Y1837451D1*
Y2281201D1*
X1506201Y1724951D2*
Y2174953D1*
X1456202Y2224951D1*
Y2299951D1*
X1760286Y3256201D2*
X1762451D1*
Y2737450D1*
X1756202Y2731201D1*
X1762451D1*
X1760286Y3256201D2*
Y3512106D1*
X1431613Y2678051D2*
X1596802D1*
X1612451Y2693701D1*
X687451Y1681201D2*
D17*
Y1491587D1*
Y1681201D2*
D16*
X799951D1*
X827259Y1653894D1*
X1173513D1*
X1233012Y1713392D1*
Y1749953D1*
X731157Y1559469D2*
D14*
Y1561652D1*
X1161652D1*
X1162451Y1562451D1*
X731157Y1596967D2*
X1159469D1*
X1162451Y1599950D1*
X1314654Y2674043D2*
Y2578999D1*
X1337451Y2556201D1*
Y1656201D1*
X1137451Y1456201D1*
X987451D1*
X1343701Y2637451D2*
Y2581202D1*
X1368701Y2556202D1*
Y1643699D1*
X1143702Y1418701D1*
X1012453D1*
X718411Y1968442D2*
Y1774660D1*
X649951Y1706201D1*
Y1474951D1*
X768702Y1356201D1*
X1218702D1*
X1412451Y1549950D1*
Y1624950D1*
Y1627510D1*
X1477657D1*
X1412451Y1624950D2*
D3*
X1674951Y1581201D2*
X1718702D1*
X1740159Y1602657D1*
Y1627510D1*
X718411Y1968442D2*
Y2162741D1*
X643701Y2237451D1*
X489925Y2426488D2*
Y2533526D1*
X490159Y2533760D1*
X962451Y1856201D2*
X968013D1*
X1129047Y1695167D1*
D61*
X731157Y1559469D3*
Y1596967D3*
X687451Y1681201D3*
Y1491587D3*
X1162451Y1599950D3*
Y1562451D3*
X962451Y1856201D3*
X1129047Y1695167D3*
X987451Y1456201D3*
X1012453Y1418701D3*
X1314654Y2674043D3*
X1343701Y2637451D3*
X1337451Y1512451D3*
X1318702Y2739297D3*
X718411Y1968442D3*
X1643701Y2856201D3*
X1612451Y2605614D3*
X1162451Y3006201D3*
X1099951Y3043701D3*
Y2968701D3*
X1224951Y3043701D3*
Y2968701D3*
X1612451Y2693701D3*
X1624951Y3006201D3*
X1612451Y2906201D3*
X1656201Y2762451D3*
X1610730Y2506331D3*
X1843702Y1856201D3*
X699951Y3074951D3*
X1124951Y2787451D3*
X987451Y3249950D3*
X1762451Y2731201D3*
X1781201Y1887450D3*
X1281202Y2643701D3*
X799951Y2556201D3*
X1699951Y1787451D3*
X1749951Y2281201D3*
X1562451Y2131201D3*
X1524951Y2206201D3*
X1456202Y2299951D3*
X631202Y2856201D3*
X1124951Y1487450D3*
X612451Y2906201D3*
X793701Y2956201D3*
Y3006201D3*
X924951Y2606201D3*
X1649951Y2393701D3*
X793701Y2806201D3*
X557671Y2563492D3*
X1599951Y1812451D3*
X1412451Y1624950D3*
Y1706201D3*
X1674951Y1618701D3*
Y1581201D3*
X1922407Y1649950D3*
X1643701Y1537451D3*
X487451Y2693701D3*
X643701Y2237451D3*
X489925Y2426488D3*
X674951Y2762451D3*
X1643701Y3224951D3*
X1129231Y3174173D3*
X1024951Y3074951D3*
X918702Y1693701D3*
X1699951Y3256201D3*
X1649951Y2462451D3*
X1833508Y2480778D3*
X1306201Y1737451D3*
X1606202Y2856201D3*
X1601711Y3081220D3*
X1233012Y1749953D3*
X519340Y3237581D2*
D18*
X591850D1*
X687349D2*
X936804D1*
X1024697D2*
X1151571D1*
X1680839D2*
X1712549D1*
X1808048D2*
X1889709D1*
X988525Y3212713D2*
X1126703D1*
X1680983D2*
X1734653D1*
X1790250D2*
X1912531D1*
X433720Y3187844D2*
X492486D1*
X963658D2*
X1092470D1*
X1183987D2*
X1734653D1*
X1790250D2*
X1959934D1*
X433720Y3162975D2*
X1091609D1*
X1166870D2*
X1734653D1*
X1790250D2*
X1959934D1*
X433720Y3138106D2*
X1119060D1*
X1139425D2*
X1734653D1*
X1790250D2*
X1959934D1*
X433720Y3113238D2*
X1580925D1*
X1622491D2*
X1734653D1*
X1790250D2*
X1959934D1*
X433720Y3088369D2*
X663116D1*
X899820D2*
X988119D1*
X1061801D2*
X1402796D1*
X1507626D2*
X1563019D1*
X1640398D2*
X1734653D1*
X1790250D2*
X1959934D1*
X433720Y3063500D2*
X662398D1*
X924687D2*
X987401D1*
X1062519D2*
X1402796D1*
X1507626D2*
X1566859D1*
X1662215D2*
X1734653D1*
X1901455D2*
X1959934D1*
X433720Y3038631D2*
X691069D1*
X708802D2*
X773639D1*
X813734D2*
X872966D1*
X949555D2*
X997126D1*
X1052758D2*
X1402796D1*
X1507626D2*
X1604896D1*
X1687083D2*
X1734653D1*
X1901455D2*
X1959934D1*
X520309Y3013762D2*
X650484D1*
X832286D2*
X897834D1*
X974423D2*
X997126D1*
X1052758D2*
X1368383D1*
X1507626D2*
X1586344D1*
X1711951D2*
X1734653D1*
X1901455D2*
X1959934D1*
X543849Y2988894D2*
X640903D1*
X828769D2*
X922702D1*
X1052758D2*
X1368383D1*
X1901455D2*
X1959934D1*
X554291Y2964025D2*
X640903D1*
X832250D2*
X947569D1*
X1067937D2*
X1368383D1*
X1885199D2*
X1959934D1*
X556623Y2939156D2*
X593393D1*
X631478D2*
X640903D1*
X828913D2*
X972437D1*
X1092805D2*
X1368383D1*
X1903608D2*
X1959934D1*
X551528Y2914287D2*
X573979D1*
X721511D2*
X997305D1*
X1117673D2*
X1368383D1*
X1908094D2*
X1959934D1*
X537318Y2889419D2*
X557365D1*
X721511D2*
X1022173D1*
X1142540D2*
X1368383D1*
X1902137D2*
X1959934D1*
X503658Y2864550D2*
X532497D1*
X721511D2*
X1047040D1*
X1167408D2*
X1225923D1*
X1360286D2*
X1368383D1*
X1494851D2*
X1567792D1*
X1790250D2*
X1806924D1*
X1880642D2*
X1959934D1*
X433720Y2839681D2*
X507629D1*
X721511D2*
X775756D1*
X811652D2*
X1071944D1*
X1192276D2*
X1225923D1*
X1360286D2*
X1368383D1*
X1494851D2*
X1551393D1*
X1790250D2*
X1959934D1*
X433720Y2814812D2*
X491015D1*
X709346D2*
X755338D1*
X832070D2*
X1096812D1*
X1208890D2*
X1225923D1*
X1360286D2*
X1368383D1*
X1603114D2*
X1656462D1*
X1790250D2*
X1959934D1*
X433720Y2789944D2*
X490907D1*
X684479D2*
X739154D1*
X829307D2*
X1085652D1*
X1208998D2*
X1225923D1*
X1790250D2*
X1959934D1*
X433720Y2765075D2*
X490907D1*
X659611D2*
X714286D1*
X790875D2*
X1093152D1*
X1208998D2*
X1225923D1*
X1790250D2*
X1959934D1*
X433720Y2740206D2*
X490907D1*
X634743D2*
X689419D1*
X766008D2*
X1145650D1*
X1208998D2*
X1279355D1*
X1800692D2*
X1959934D1*
X433720Y2715337D2*
X455095D1*
X609876D2*
X664838D1*
X741140D2*
X890550D1*
X1197371D2*
X1252047D1*
X1494851D2*
X1580100D1*
X1644811D2*
X1656462D1*
X1798252D2*
X1959934D1*
X433720Y2690469D2*
X448205D1*
X605569D2*
X659635D1*
X716272D2*
X864677D1*
X1172504D2*
X1227179D1*
X1759031D2*
X1959934D1*
X433720Y2665600D2*
X461088D1*
X631944D2*
X659635D1*
X715267D2*
X842716D1*
X916398D2*
X1202311D1*
X1638819D2*
X1656462D1*
X1759031D2*
X1959934D1*
X433720Y2640731D2*
X462344D1*
X631944D2*
X659635D1*
X715267D2*
X840886D1*
X896518D2*
X909532D1*
X940405D2*
X1177444D1*
X1626187D2*
X1656462D1*
X1759031D2*
X1793467D1*
X1894099D2*
X1959934D1*
X433720Y2615862D2*
X449569D1*
X715267D2*
X840886D1*
X1229165D2*
X1247131D1*
X1759031D2*
X1781123D1*
X1906443D2*
X1959934D1*
X433720Y2590993D2*
X449569D1*
X715267D2*
X840886D1*
X1204297D2*
X1247131D1*
X1409698D2*
X1576117D1*
X1648794D2*
X1656479D1*
X1759031D2*
X1780334D1*
X1907232D2*
X1959934D1*
X433720Y2566125D2*
X449569D1*
X715267D2*
X840886D1*
X896518D2*
X1247131D1*
X1427497D2*
X1632240D1*
X1759031D2*
X1790561D1*
X1897005D2*
X1959934D1*
X433720Y2541256D2*
X449569D1*
X713724D2*
X840886D1*
X896518D2*
X1247131D1*
X1427748D2*
X1596391D1*
X1759031D2*
X1827378D1*
X1860188D2*
X1959934D1*
X433720Y2516387D2*
X449569D1*
X692194D2*
X840886D1*
X896518D2*
X1247131D1*
X1427748D2*
X1572744D1*
X1659093D2*
X1680038D1*
X1759031D2*
X1959934D1*
X433720Y2491518D2*
X462128D1*
X631944D2*
X840886D1*
X896518D2*
X1247131D1*
X1507949D2*
X1574466D1*
X1647000D2*
X1680038D1*
X1759031D2*
X1959934D1*
X433720Y2466650D2*
X462128D1*
X631944D2*
X840886D1*
X896518D2*
X1247131D1*
X1507949D2*
X1680038D1*
X1901599D2*
X1959934D1*
X433720Y2441781D2*
X453875D1*
X605569D2*
X840886D1*
X896518D2*
X1247131D1*
X1507949D2*
X1680038D1*
X1901599D2*
X1959934D1*
X433720Y2416912D2*
X451829D1*
X605569D2*
X840886D1*
X896518D2*
X1247131D1*
X1901599D2*
X1959934D1*
X433720Y2392043D2*
X474257D1*
X605569D2*
X840886D1*
X896518D2*
X1228758D1*
X1301507D2*
X1309629D1*
X1901599D2*
X1959934D1*
X433720Y2367175D2*
X490907D1*
X605569D2*
X840886D1*
X896518D2*
X1203890D1*
X1280479D2*
X1309641D1*
X1396529D2*
X1621833D1*
X1901599D2*
X1959934D1*
X433720Y2342306D2*
X490907D1*
X605569D2*
X840886D1*
X896518D2*
X1179022D1*
X1255611D2*
X1309641D1*
X1396529D2*
X1680038D1*
X1789640D2*
X1959934D1*
X433720Y2317437D2*
X490907D1*
X605569D2*
X840886D1*
X896518D2*
X1154155D1*
X1230744D2*
X1309641D1*
X1396529D2*
X1421241D1*
X1491155D2*
X1680038D1*
X1814508D2*
X1959934D1*
X433720Y2292568D2*
X490907D1*
X605569D2*
X840886D1*
X896518D2*
X1129287D1*
X1205876D2*
X1309641D1*
X1396529D2*
X1417581D1*
X1494815D2*
X1680038D1*
X1834890D2*
X1959934D1*
X433720Y2267699D2*
X490907D1*
X605569D2*
X620126D1*
X667290D2*
X840886D1*
X896518D2*
X1104419D1*
X1181008D2*
X1309641D1*
X1396529D2*
X1428382D1*
X1484014D2*
X1680038D1*
X1835895D2*
X1959934D1*
X433720Y2242831D2*
X490907D1*
X682685D2*
X840886D1*
X896518D2*
X1079552D1*
X1156140D2*
X1309641D1*
X1396529D2*
X1428382D1*
X1484014D2*
X1518200D1*
X1531667D2*
X1680038D1*
X1835895D2*
X1959934D1*
X433720Y2217962D2*
X490907D1*
X701488D2*
X840886D1*
X896518D2*
X1054684D1*
X1131273D2*
X1309641D1*
X1396529D2*
X1429386D1*
X1562385D2*
X1680038D1*
X1835895D2*
X1959934D1*
X433720Y2193093D2*
X490907D1*
X605569D2*
X649767D1*
X726356D2*
X840886D1*
X896518D2*
X1029816D1*
X1106405D2*
X1309641D1*
X1396529D2*
X1449769D1*
X1561919D2*
X1680038D1*
X1835895D2*
X1959934D1*
X433720Y2168224D2*
X490907D1*
X605569D2*
X674634D1*
X745625D2*
X840886D1*
X896518D2*
X1022137D1*
X1081537D2*
X1309641D1*
X1396529D2*
X1474636D1*
X1553701D2*
X1680038D1*
X1835895D2*
X1959934D1*
X433720Y2143356D2*
X490907D1*
X605569D2*
X690603D1*
X746235D2*
X840886D1*
X896518D2*
X1022137D1*
X1077769D2*
X1130256D1*
X1269642D2*
X1309641D1*
X1396529D2*
X1478404D1*
X1599777D2*
X1680038D1*
X1835895D2*
X1959934D1*
X433720Y2118487D2*
X490907D1*
X605569D2*
X690603D1*
X746235D2*
X840886D1*
X896518D2*
X1022137D1*
X1077769D2*
X1100113D1*
X1299785D2*
X1309635D1*
X1396529D2*
X1478404D1*
X1599561D2*
X1680038D1*
X1835895D2*
X1959934D1*
X433720Y2093618D2*
X490907D1*
X605569D2*
X690603D1*
X746235D2*
X840886D1*
X896518D2*
X1022137D1*
X1396529D2*
X1478404D1*
X1593066D2*
X1680038D1*
X1835895D2*
X1959934D1*
X433720Y2068749D2*
X490907D1*
X605569D2*
X690603D1*
X746235D2*
X840886D1*
X896518D2*
X1022137D1*
X1396529D2*
X1478404D1*
X1593066D2*
X1680038D1*
X1835895D2*
X1959934D1*
X433720Y2043881D2*
X490907D1*
X605569D2*
X690603D1*
X746235D2*
X840886D1*
X896518D2*
X1022137D1*
X1396529D2*
X1478404D1*
X1593066D2*
X1680038D1*
X1835895D2*
X1959934D1*
X433720Y2019012D2*
X490907D1*
X605569D2*
X690603D1*
X746235D2*
X840886D1*
X896518D2*
X1022137D1*
X1396529D2*
X1478404D1*
X1593066D2*
X1680038D1*
X1835895D2*
X1959934D1*
X433720Y1994143D2*
X490907D1*
X605569D2*
X689455D1*
X747348D2*
X840886D1*
X896518D2*
X1022137D1*
X1396529D2*
X1478404D1*
X1593066D2*
X1680038D1*
X1835895D2*
X1959934D1*
X433720Y1969274D2*
X490907D1*
X605569D2*
X679048D1*
X757790D2*
X840886D1*
X896518D2*
X1022137D1*
X1396529D2*
X1478404D1*
X1593066D2*
X1680038D1*
X1835895D2*
X1959934D1*
X433720Y1944406D2*
X490907D1*
X605569D2*
X687947D1*
X748891D2*
X840886D1*
X896518D2*
X1022137D1*
X1077769D2*
X1099683D1*
X1300215D2*
X1309661D1*
X1396529D2*
X1478404D1*
X1593066D2*
X1680038D1*
X1835895D2*
X1959934D1*
X433720Y1919537D2*
X490907D1*
X605569D2*
X690603D1*
X746235D2*
X840886D1*
X896518D2*
X1024972D1*
X1099910D2*
X1129431D1*
X1270467D2*
X1309641D1*
X1396529D2*
X1478404D1*
X1593066D2*
X1668734D1*
X1835895D2*
X1959934D1*
X433720Y1894668D2*
X490907D1*
X605569D2*
X690603D1*
X746235D2*
X840886D1*
X896518D2*
X1048189D1*
X1287297D2*
X1309641D1*
X1396529D2*
X1478404D1*
X1593066D2*
X1643866D1*
X1835895D2*
X1959934D1*
X433720Y1869799D2*
X487750D1*
X605569D2*
X690603D1*
X746235D2*
X840886D1*
X896518D2*
X925680D1*
X999219D2*
X1073056D1*
X1396529D2*
X1478404D1*
X1593066D2*
X1618999D1*
X1695587D2*
X1722130D1*
X1880463D2*
X1959934D1*
X433720Y1844930D2*
X467008D1*
X605569D2*
X690603D1*
X746235D2*
X840886D1*
X896518D2*
X924855D1*
X1017592D2*
X1260444D1*
X1396529D2*
X1478404D1*
X1670720D2*
X1722130D1*
X1881324D2*
X1959934D1*
X433720Y1820062D2*
X465896D1*
X595845D2*
X690603D1*
X746235D2*
X840886D1*
X896518D2*
X952629D1*
X1042459D2*
X1278386D1*
X1396529D2*
X1478404D1*
X1645852D2*
X1729055D1*
X1855559D2*
X1959934D1*
X644791Y1795193D2*
X690603D1*
X746235D2*
X840886D1*
X896518D2*
X990738D1*
X1067327D2*
X1278386D1*
X1396529D2*
X1478404D1*
X1635051D2*
X1740897D1*
X1855559D2*
X1959934D1*
X745841Y1770324D2*
X840886D1*
X896518D2*
X1015606D1*
X1092195D2*
X1199764D1*
X1266233D2*
X1278386D1*
X1396529D2*
X1478404D1*
X1593066D2*
X1740897D1*
X1855559D2*
X1959934D1*
X727504Y1745455D2*
X840886D1*
X905238D2*
X1040474D1*
X1117063D2*
X1193914D1*
X1396529D2*
X1476825D1*
X1619441D2*
X1739318D1*
X1881934D2*
X1959934D1*
X702636Y1720587D2*
X853517D1*
X946433D2*
X1065341D1*
X1158258D2*
X1199118D1*
X1262788D2*
X1270930D1*
X1448920D2*
X1476825D1*
X1619441D2*
X1739318D1*
X1881934D2*
X1959934D1*
X433720Y1695718D2*
X465896D1*
X826508D2*
X878385D1*
X958024D2*
X1089671D1*
X1256293D2*
X1309641D1*
X1654105D2*
X1663674D1*
X1916598D2*
X1959934D1*
X433720Y1670849D2*
X465896D1*
X1231533D2*
X1309641D1*
X433720Y1645980D2*
X465896D1*
X577759D2*
X622136D1*
X721152D2*
X794093D1*
X1206665D2*
X1288936D1*
X433720Y1621112D2*
X465896D1*
X577759D2*
X622136D1*
X1195147D2*
X1264068D1*
X1947889D2*
X1959934D1*
X433720Y1596243D2*
X465896D1*
X577759D2*
X622136D1*
X1201642D2*
X1239200D1*
X1359532D2*
X1384639D1*
X1440271D2*
X1476825D1*
X1881934D2*
X1959934D1*
X433720Y1571374D2*
X465896D1*
X577759D2*
X622136D1*
X1200745D2*
X1214333D1*
X1334664D2*
X1384639D1*
X1440271D2*
X1476825D1*
X1881934D2*
X1959934D1*
X433720Y1546505D2*
X465896D1*
X577759D2*
X622136D1*
X1309797D2*
X1370716D1*
X1440020D2*
X1478404D1*
X1689954D2*
X1740897D1*
X1881934D2*
X1959934D1*
X433720Y1521636D2*
X465896D1*
X577759D2*
X622136D1*
X721152D2*
X1164597D1*
X1284929D2*
X1345848D1*
X1422437D2*
X1478404D1*
X1593066D2*
X1607874D1*
X1679511D2*
X1740897D1*
X1855559D2*
X1959934D1*
X433720Y1496768D2*
X465896D1*
X726463D2*
X1139729D1*
X1260061D2*
X1320980D1*
X1397569D2*
X1478404D1*
X1593066D2*
X1740897D1*
X1855559D2*
X1959934D1*
X433720Y1471899D2*
X465896D1*
X721116D2*
X951589D1*
X1235193D2*
X1296113D1*
X1372702D2*
X1477364D1*
X1593066D2*
X1733613D1*
X1855559D2*
X1959934D1*
X716164Y1447030D2*
X949220D1*
X1210326D2*
X1271245D1*
X1592420D2*
X1708745D1*
X1855559D2*
X1888022D1*
X741032Y1422161D2*
X970787D1*
X1185458D2*
X1246377D1*
X668510Y1397293D2*
X689311D1*
X765900D2*
X979937D1*
X1159693D2*
X1221509D1*
X433720Y1372424D2*
X465896D1*
X577759D2*
X714179D1*
X433720Y1347555D2*
X465896D1*
X577759D2*
X739046D1*
X1804604D2*
X1839543D1*
X433720Y1322686D2*
X465896D1*
X577759D2*
X1171882D1*
X1323468D2*
X1465629D1*
X1729749D2*
X1850308D1*
X433720Y1297818D2*
X465896D1*
X577759D2*
X1147014D1*
X1298601D2*
X1440762D1*
X1704846D2*
X1874530D1*
X433720Y1272949D2*
X465896D1*
X577759D2*
X1122146D1*
X1277752D2*
X1415894D1*
X1679978D2*
X1959934D1*
X433720Y1248080D2*
X465896D1*
X590103D2*
X1097278D1*
X1205122D2*
X1222155D1*
X1277752D2*
X1391026D1*
X1592636D2*
X1622156D1*
X1677753D2*
X1959934D1*
X433720Y1223211D2*
X465896D1*
X971229D2*
X1074528D1*
X1180255D2*
X1222155D1*
X1277752D2*
X1366159D1*
X1492770D2*
X1522147D1*
X1577780D2*
X1622156D1*
X1677753D2*
X1959934D1*
X433720Y1198343D2*
X465896D1*
X996097D2*
X1072124D1*
X1177779D2*
X1222155D1*
X1277752D2*
X1341291D1*
X1477770D2*
X1522147D1*
X1577780D2*
X1622156D1*
X1677753D2*
X1959934D1*
X433720Y1173474D2*
X465896D1*
X920991D2*
X944376D1*
X1020965D2*
X1072124D1*
X1177779D2*
X1222155D1*
X1277752D2*
X1322595D1*
X1393012D2*
X1422138D1*
X1477770D2*
X1522147D1*
X1577780D2*
X1622156D1*
X1677753D2*
X1959934D1*
X433720Y1148605D2*
X465896D1*
X1181439D2*
X1218459D1*
X1281448D2*
X1318433D1*
X1381457D2*
X1418442D1*
X1481467D2*
X1518451D1*
X1581440D2*
X1618460D1*
X1681449D2*
X1959934D1*
X433720Y1123736D2*
X469915D1*
X1700755D2*
X1959934D1*
X433720Y1098867D2*
X493993D1*
X1703303D2*
X1959934D1*
X433720Y1073999D2*
X707433D1*
X792490D2*
X807406D1*
X892463D2*
X907415D1*
X992473D2*
X1007424D1*
X1192491D2*
X1207407D1*
X1292465D2*
X1307416D1*
X1392474D2*
X1407425D1*
X1492483D2*
X1507435D1*
X1592492D2*
X1607408D1*
X1692466D2*
X1959934D1*
X433720Y1049130D2*
X696093D1*
X803830D2*
X819248D1*
X880658D2*
X919221D1*
X980667D2*
X1019230D1*
X1189190D2*
X1219249D1*
X1280659D2*
X1310717D1*
X1389172D2*
X1410727D1*
X1489182D2*
X1519240D1*
X1580686D2*
X1610745D1*
X1689164D2*
X1959934D1*
X433720Y1024261D2*
X696093D1*
X1705994D2*
X1959934D1*
X433720Y999392D2*
X696093D1*
X1708542D2*
X1959934D1*
X433720Y974524D2*
X696093D1*
X892894D2*
X907020D1*
X992903D2*
X1006994D1*
X1092913D2*
X1100687D1*
X1199237D2*
X1207001D1*
X1292895D2*
X1300693D1*
X1499229D2*
X1507004D1*
X1592887D2*
X1600681D1*
X1699212D2*
X1959934D1*
X433720Y949655D2*
X1959934D1*
X433720Y924786D2*
X1959934D1*
X433720Y899917D2*
X1959934D1*
X433720Y875049D2*
X1959934D1*
X433720Y850180D2*
X1959934D1*
X433720Y825311D2*
X1959934D1*
X433720Y800442D2*
X1959934D1*
X433720Y775573D2*
X1959934D1*
X433720Y750705D2*
X1959934D1*
X502654Y725836D2*
X1897244D1*
X531612Y700967D2*
X1868286D1*
X551600Y676098D2*
X1851062D1*
X560427Y651230D2*
X1840189D1*
X563980Y626361D2*
X1836062D1*
X562257Y601492D2*
X1837641D1*
X558023Y576623D2*
X1841875D1*
X543095Y551755D2*
X1856803D1*
X522067Y526886D2*
X1877831D1*
X478791Y502017D2*
X1921143D1*
X433720Y477148D2*
X1959934D1*
X434689Y452280D2*
X1958965D1*
X1288797Y2866354D2*
X1357791D1*
X1357941Y2808145D1*
X1362103Y2807145D1*
X1366058Y2805507D1*
X1369714Y2803265D1*
X1370869Y2811533D1*
Y3014386D1*
X1405282D1*
X1405279Y3096118D1*
X1505113D1*
Y3006515D1*
X1588104Y3006512D1*
X1588531Y3011969D1*
X1589882Y3017595D1*
X1592096Y3022941D1*
X1595120Y3027875D1*
X1598878Y3032275D1*
X1603277Y3036032D1*
X1608211Y3039056D1*
X1611212Y3040405D1*
X1606911Y3044696D1*
X1601711Y3044346D1*
X1595943Y3044800D1*
X1590317Y3046151D1*
X1584971Y3048365D1*
X1580037Y3051389D1*
X1575637Y3055147D1*
X1571880Y3059546D1*
X1568856Y3064480D1*
X1566642Y3069826D1*
X1565291Y3075452D1*
X1564837Y3081220D1*
X1565291Y3086989D1*
X1566642Y3092615D1*
X1568856Y3097961D1*
X1571880Y3102894D1*
X1575637Y3107294D1*
X1580037Y3111052D1*
X1584971Y3114075D1*
X1590317Y3116290D1*
X1595943Y3117641D1*
X1601711Y3118094D1*
X1607480Y3117641D1*
X1613106Y3116290D1*
X1618452Y3114075D1*
X1623385Y3111052D1*
X1627785Y3107294D1*
X1631543Y3102894D1*
X1634566Y3097961D1*
X1636781Y3092615D1*
X1638131Y3086989D1*
X1638391Y3084799D1*
X1737121Y2986077D1*
X1737140Y3213095D1*
X1731524Y3216613D1*
X1725685Y3221600D1*
X1720698Y3227439D1*
X1716686Y3233986D1*
X1713748Y3241080D1*
X1711955Y3248546D1*
X1711353Y3256201D1*
X1711788Y3262440D1*
X1022119Y3262450D1*
X1023307Y3258558D1*
X1024212Y3252843D1*
Y3247057D1*
X1023307Y3241342D1*
X1021519Y3235839D1*
X1018892Y3230684D1*
X1015491Y3226002D1*
X1011399Y3221911D1*
X1006718Y3218510D1*
X1001563Y3215883D1*
X996060Y3214095D1*
X990345Y3213190D1*
X986423Y3213117D1*
X955424Y3182238D1*
X952211Y3179903D1*
X948672Y3178100D1*
X944894Y3176872D1*
X940971Y3176251D1*
X819563Y3176173D1*
X515162Y3176251D1*
X511240Y3176872D1*
X507462Y3178100D1*
X503923Y3179903D1*
X500710Y3182238D1*
X474156Y3208681D1*
X466271Y3207419D1*
X458593D1*
X451009Y3208620D1*
X443706Y3210993D1*
X436864Y3214478D1*
X431206Y3218555D1*
X431202Y3020567D1*
X442267Y3025061D1*
X448731Y3026884D1*
X455320Y3028195D1*
X461990Y3028984D1*
X468702Y3029248D1*
X475414Y3028984D1*
X482085Y3028195D1*
X488673Y3026884D1*
X495138Y3025061D1*
X501440Y3022736D1*
X507540Y3019924D1*
X513400Y3016642D1*
X518986Y3012910D1*
X524261Y3008751D1*
X529193Y3004192D1*
X533753Y2999259D1*
X537911Y2993984D1*
X541643Y2988399D1*
X544925Y2982538D1*
X547737Y2976438D1*
X550062Y2970136D1*
X551886Y2963671D1*
X553196Y2957083D1*
X553986Y2950413D1*
X554249Y2943701D1*
X553986Y2936989D1*
X553196Y2930318D1*
X551886Y2923730D1*
X550062Y2917265D1*
X547737Y2910963D1*
X544925Y2904863D1*
X541643Y2899002D1*
X537911Y2893417D1*
X533753Y2888142D1*
X529193Y2883210D1*
X524261Y2878650D1*
X518986Y2874492D1*
X513400Y2870760D1*
X507540Y2867478D1*
X501440Y2864665D1*
X495138Y2862341D1*
X488673Y2860517D1*
X482085Y2859207D1*
X475414Y2858417D1*
X468702Y2858154D1*
X461990Y2858417D1*
X455320Y2859207D1*
X448731Y2860517D1*
X442267Y2862341D1*
X435965Y2864665D1*
X431223Y2866851D1*
X431202Y1796486D1*
X465099Y1796342D1*
X468394Y1795924D1*
X468468Y1839436D1*
X469089Y1843359D1*
X470316Y1847136D1*
X472119Y1850675D1*
X474454Y1853888D1*
X493387Y1872932D1*
X493391Y2389770D1*
X487032Y2389728D1*
X481317Y2390633D1*
X475814Y2392421D1*
X470659Y2395048D1*
X465977Y2398449D1*
X461886Y2402540D1*
X458485Y2407222D1*
X455858Y2412377D1*
X454070Y2417880D1*
X453165Y2423595D1*
Y2429381D1*
X454070Y2435096D1*
X455858Y2440599D1*
X458485Y2445755D1*
X461886Y2450436D1*
X464607Y2453261D1*
X464614Y2506905D1*
X452053Y2506874D1*
Y2560645D1*
X496370D1*
X496344Y2565928D1*
X452053Y2565929D1*
Y2619701D1*
X464863D1*
X464848Y2664547D1*
X461378Y2667627D1*
X457620Y2672027D1*
X454596Y2676960D1*
X452382Y2682306D1*
X451031Y2687932D1*
X450577Y2693701D1*
X451031Y2699469D1*
X452382Y2705095D1*
X454596Y2710441D1*
X457620Y2715375D1*
X461378Y2719775D1*
X465777Y2723532D1*
X470711Y2726556D1*
X476057Y2728770D1*
X481683Y2730121D1*
X487451Y2730575D1*
X493386Y2730088D1*
X493469Y2814437D1*
X494090Y2818360D1*
X495318Y2822138D1*
X497121Y2825676D1*
X499455Y2828890D1*
X575581Y2905126D1*
X576031Y2911969D1*
X577382Y2917595D1*
X579596Y2922941D1*
X582620Y2927875D1*
X586378Y2932275D1*
X590777Y2936032D1*
X595711Y2939056D1*
X601057Y2941270D1*
X606683Y2942621D1*
X612451Y2943075D1*
X618220Y2942621D1*
X623846Y2941270D1*
X629192Y2939056D1*
X634125Y2936032D1*
X638525Y2932275D1*
X642283Y2927875D1*
X643390Y2926378D1*
X643468Y2995685D1*
X644089Y2999608D1*
X645316Y3003386D1*
X647120Y3006925D1*
X649454Y3010138D1*
X664764Y3025448D1*
X667977Y3027782D1*
X671516Y3029585D1*
X675293Y3030813D1*
X679216Y3031434D1*
X766858Y3031512D1*
X772027Y3036032D1*
X776960Y3039056D1*
X782306Y3041270D1*
X787932Y3042621D1*
X793701Y3043075D1*
X799469Y3042621D1*
X805095Y3041270D1*
X810441Y3039056D1*
X815375Y3036032D1*
X819775Y3032275D1*
X823532Y3027875D1*
X826556Y3022941D1*
X828770Y3017595D1*
X830121Y3011969D1*
X830575Y3006201D1*
X830121Y3000432D1*
X828770Y2994806D1*
X826556Y2989460D1*
X823532Y2984527D1*
X820780Y2981215D1*
X823532Y2977875D1*
X826556Y2972941D1*
X828770Y2967595D1*
X830121Y2961969D1*
X830575Y2956201D1*
X830121Y2950432D1*
X828770Y2944806D1*
X826556Y2939460D1*
X823532Y2934527D1*
X819775Y2930127D1*
X815375Y2926369D1*
X810441Y2923346D1*
X805095Y2921132D1*
X799469Y2919781D1*
X793701Y2919327D1*
X787932Y2919781D1*
X782306Y2921132D1*
X776960Y2923346D1*
X772027Y2926369D1*
X766928Y2930883D1*
X719026Y2930890D1*
X718934Y2835466D1*
X718313Y2831543D1*
X717085Y2827765D1*
X715282Y2824226D1*
X712948Y2821013D1*
X627154Y2735109D1*
X603074Y2711029D1*
X603068Y2674392D1*
X629446Y2674425D1*
Y2619702D1*
X662138Y2619701D1*
X662218Y2701937D1*
X662840Y2705860D1*
X664067Y2709638D1*
X665870Y2713176D1*
X668205Y2716390D1*
X756866Y2805161D1*
X757281Y2811969D1*
X758632Y2817595D1*
X760846Y2822941D1*
X763869Y2827875D1*
X767627Y2832275D1*
X772027Y2836032D1*
X776960Y2839056D1*
X782306Y2841270D1*
X787932Y2842621D1*
X793701Y2843075D1*
X799469Y2842621D1*
X805095Y2841270D1*
X810441Y2839056D1*
X815375Y2836032D1*
X819775Y2832275D1*
X823532Y2827875D1*
X826556Y2822941D1*
X828770Y2817595D1*
X830121Y2811969D1*
X830575Y2806201D1*
X830121Y2800432D1*
X828770Y2794806D1*
X826556Y2789460D1*
X823532Y2784527D1*
X819775Y2780127D1*
X815375Y2776369D1*
X810441Y2773346D1*
X805095Y2771132D1*
X799469Y2769781D1*
X792672Y2769367D1*
X712767Y2689472D1*
X712685Y2547964D1*
X712063Y2544041D1*
X710836Y2540264D1*
X709033Y2536725D1*
X706698Y2533512D1*
X687699Y2514513D1*
X684486Y2512179D1*
X680947Y2510375D1*
X677170Y2509148D1*
X673247Y2508527D1*
X671253Y2508449D1*
X664092Y2506874D1*
X629464D1*
X629446Y2452149D1*
X603071D1*
X602990Y1838270D1*
X602369Y1834347D1*
X601142Y1830570D1*
X599338Y1827031D1*
X597004Y1823818D1*
X575280Y1801983D1*
X575569Y1795283D1*
X580990Y1796252D1*
X590651Y1796472D1*
X635572Y1796342D1*
X641015Y1795508D1*
X646288Y1793916D1*
X651284Y1791600D1*
X655905Y1788604D1*
X660059Y1784988D1*
X663664Y1780825D1*
X666649Y1776196D1*
X668953Y1771194D1*
X670531Y1765918D1*
X671045Y1763087D1*
X693078Y1785123D1*
X693100Y1941629D1*
X688579Y1946768D1*
X685556Y1951702D1*
X683341Y1957048D1*
X681991Y1962674D1*
X681537Y1968442D1*
X681991Y1974211D1*
X683341Y1979837D1*
X685556Y1985183D1*
X688579Y1990116D1*
X693093Y1995215D1*
X693100Y2152277D1*
X644767Y2200590D1*
X637932Y2201031D1*
X632306Y2202382D1*
X626960Y2204596D1*
X622027Y2207620D1*
X617627Y2211378D1*
X613869Y2215777D1*
X610846Y2220711D1*
X608632Y2226057D1*
X607281Y2231683D1*
X606827Y2237451D1*
X607281Y2243220D1*
X608632Y2248846D1*
X610846Y2254192D1*
X613869Y2259125D1*
X617627Y2263525D1*
X622027Y2267283D1*
X626960Y2270306D1*
X632306Y2272521D1*
X637932Y2273871D1*
X643701Y2274325D1*
X649469Y2273871D1*
X655095Y2272521D1*
X660441Y2270306D1*
X665375Y2267283D1*
X669775Y2263525D1*
X673532Y2259125D1*
X676556Y2254192D1*
X678770Y2248846D1*
X680121Y2243220D1*
X680534Y2236423D1*
X737657Y2179180D1*
X739992Y2175966D1*
X741795Y2172428D1*
X743022Y2168650D1*
X743644Y2164727D1*
X743722Y2043319D1*
Y1995270D1*
X748242Y1990116D1*
X751266Y1985183D1*
X753480Y1979837D1*
X754831Y1974211D1*
X755285Y1968442D1*
X754831Y1962674D1*
X753480Y1957048D1*
X751266Y1951702D1*
X748242Y1946768D1*
X743729Y1941670D1*
X743644Y1772674D1*
X743023Y1768751D1*
X741795Y1764974D1*
X739992Y1761435D1*
X737657Y1758222D1*
X696497Y1716951D1*
X701563Y1715268D1*
X706718Y1712641D1*
X712221Y1708480D1*
X802092Y1708396D1*
X806320Y1707727D1*
X810391Y1706404D1*
X814205Y1704461D1*
X817668Y1701944D1*
X838551Y1681181D1*
X883991Y1681173D1*
X882282Y1687932D1*
X881868Y1694729D1*
X849454Y1727264D1*
X847120Y1730477D1*
X845316Y1734016D1*
X844089Y1737793D1*
X843468Y1741716D1*
X843390Y1863125D1*
X843468Y2658187D1*
X844089Y2662110D1*
X845316Y2665887D1*
X847120Y2669426D1*
X849454Y2672639D1*
X888303Y2711598D1*
X891323Y2714178D1*
X894710Y2716253D1*
X898379Y2717773D1*
X902241Y2718700D1*
X906209Y2719012D1*
X1126996D1*
X1155915Y2747959D1*
X1155890Y2767413D1*
X1152991Y2763504D1*
X1148899Y2759412D1*
X1144218Y2756011D1*
X1139063Y2753384D1*
X1133560Y2751596D1*
X1127845Y2750691D1*
X1122058D1*
X1116343Y2751596D1*
X1110840Y2753384D1*
X1105685Y2756011D1*
X1101004Y2759412D1*
X1096912Y2763504D1*
X1093511Y2768185D1*
X1090884Y2773340D1*
X1089096Y2778843D1*
X1088191Y2784558D1*
Y2790345D1*
X1089096Y2796060D1*
X1090884Y2801563D1*
X1093511Y2806718D1*
X1096912Y2811399D1*
X1099633Y2814224D1*
X1074575Y2839532D1*
X864453Y3049654D1*
X726786Y3049640D1*
X721625Y3045120D1*
X716692Y3042096D1*
X711346Y3039882D1*
X705720Y3038531D1*
X699951Y3038077D1*
X694183Y3038531D1*
X688557Y3039882D1*
X683211Y3042096D1*
X678277Y3045120D1*
X673878Y3048878D1*
X670120Y3053277D1*
X667096Y3058211D1*
X664882Y3063557D1*
X663531Y3069183D1*
X663077Y3074951D1*
X663531Y3080720D1*
X664882Y3086346D1*
X667096Y3091692D1*
X670120Y3096625D1*
X673878Y3101025D1*
X678277Y3104783D1*
X683211Y3107806D1*
X688557Y3110021D1*
X694183Y3111371D1*
X699951Y3111825D1*
X705720Y3111371D1*
X711346Y3110021D1*
X716692Y3107806D1*
X721625Y3104783D1*
X726724Y3100270D1*
X876937Y3100184D1*
X880860Y3099563D1*
X884638Y3098336D1*
X888176Y3096533D1*
X891390Y3094198D1*
X977294Y3008405D1*
X999648Y2986050D1*
X999640Y3048112D1*
X995120Y3053277D1*
X992096Y3058211D1*
X989882Y3063557D1*
X988531Y3069183D1*
X988077Y3074951D1*
X988531Y3080720D1*
X989882Y3086346D1*
X992096Y3091692D1*
X995120Y3096625D1*
X998878Y3101025D1*
X1003277Y3104783D1*
X1008211Y3107806D1*
X1013557Y3110021D1*
X1019183Y3111371D1*
X1024951Y3111825D1*
X1030720Y3111371D1*
X1036346Y3110021D1*
X1041692Y3107806D1*
X1046625Y3104783D1*
X1051025Y3101025D1*
X1054783Y3096625D1*
X1057806Y3091692D1*
X1060021Y3086346D1*
X1061371Y3080720D1*
X1061825Y3074951D1*
X1061371Y3069183D1*
X1060021Y3063557D1*
X1057806Y3058211D1*
X1054783Y3053277D1*
X1050270Y3048179D1*
X1050262Y2979177D1*
X1200447Y2828890D1*
X1202782Y2825676D1*
X1204585Y2822138D1*
X1205812Y2818360D1*
X1206434Y2814437D1*
X1206512Y2737450D1*
X1206200Y2733491D1*
X1205273Y2729629D1*
X1203753Y2725959D1*
X1201678Y2722573D1*
X1199098Y2719553D1*
X1153890Y2674454D1*
X1150676Y2672120D1*
X1147138Y2670316D1*
X1143360Y2669089D1*
X1139437Y2668468D1*
X1018029Y2668390D1*
X916656D1*
X894030Y2645735D1*
X894012Y2626237D1*
X896912Y2630149D1*
X901004Y2634240D1*
X905685Y2637641D1*
X910840Y2640268D1*
X916343Y2642056D1*
X922058Y2642961D1*
X927845D1*
X933560Y2642056D1*
X939063Y2640268D1*
X944218Y2637641D1*
X948899Y2634240D1*
X951724Y2631519D1*
X1170722Y2631512D1*
X1263690Y2724374D1*
X1266904Y2726709D1*
X1270442Y2728512D1*
X1274220Y2729739D1*
X1278143Y2730360D1*
X1282892Y2730438D1*
X1281942Y2736403D1*
Y2742190D1*
X1282478Y2746052D1*
X1228429Y2746047D1*
Y2866354D1*
X1288797D1*
X1962459Y1291873D2*
X1957669Y1289665D1*
X1951367Y1287341D1*
X1944902Y1285517D1*
X1938314Y1284207D1*
X1931644Y1283417D1*
X1924932Y1283154D1*
X1918220Y1283417D1*
X1911549Y1284207D1*
X1904961Y1285517D1*
X1898496Y1287341D1*
X1892194Y1289665D1*
X1886094Y1292478D1*
X1880233Y1295760D1*
X1874648Y1299492D1*
X1869373Y1303650D1*
X1864441Y1308210D1*
X1859881Y1313142D1*
X1855723Y1318417D1*
X1851991Y1324002D1*
X1848709Y1329863D1*
X1845896Y1335963D1*
X1843571Y1342265D1*
X1841748Y1348730D1*
X1840438Y1355318D1*
X1839648Y1361989D1*
X1839385Y1368701D1*
X1839648Y1375413D1*
X1841385Y1386844D1*
X1785140Y1330705D1*
X1781927Y1328370D1*
X1778388Y1326567D1*
X1774611Y1325340D1*
X1770688Y1324718D1*
X1729194Y1324640D1*
X1675271Y1270725D1*
X1675262Y1150905D1*
X1680148Y1147763D1*
X1686278Y1142528D1*
X1691514Y1136398D1*
X1695726Y1129524D1*
X1698811Y1122076D1*
X1700693Y1114237D1*
X1701325Y1106201D1*
X1700693Y1098164D1*
X1698811Y1090325D1*
X1695726Y1082877D1*
X1691514Y1076004D1*
X1686278Y1069874D1*
X1680148Y1064638D1*
X1673275Y1060426D1*
X1670112Y1058968D1*
X1675598Y1056536D1*
X1683157Y1051904D1*
X1689897Y1046147D1*
X1695655Y1039406D1*
X1700286Y1031848D1*
X1703679Y1023658D1*
X1705748Y1015038D1*
X1706444Y1006201D1*
X1705748Y997363D1*
X1703679Y988744D1*
X1700286Y980554D1*
X1695655Y972996D1*
X1689897Y966255D1*
X1683157Y960498D1*
X1675598Y955866D1*
X1667408Y952474D1*
X1658789Y950404D1*
X1649951Y949709D1*
X1641114Y950404D1*
X1632494Y952474D1*
X1624305Y955866D1*
X1616746Y960498D1*
X1610005Y966255D1*
X1604248Y972996D1*
X1599617Y980554D1*
X1597214Y986061D1*
X1593755Y979358D1*
X1589017Y972836D1*
X1583316Y967136D1*
X1576794Y962397D1*
X1569611Y958737D1*
X1561944Y956246D1*
X1553982Y954985D1*
X1545921D1*
X1537958Y956246D1*
X1530291Y958737D1*
X1523109Y962397D1*
X1516587Y967136D1*
X1510886Y972836D1*
X1506148Y979358D1*
X1502719Y986040D1*
X1500286Y980554D1*
X1495655Y972996D1*
X1489897Y966255D1*
X1483157Y960498D1*
X1475598Y955866D1*
X1467408Y952474D1*
X1458789Y950404D1*
X1449951Y949709D1*
X1441114Y950404D1*
X1432494Y952474D1*
X1424305Y955866D1*
X1416746Y960498D1*
X1410005Y966255D1*
X1404248Y972996D1*
X1399964Y979934D1*
X1395655Y972996D1*
X1389897Y966255D1*
X1383157Y960498D1*
X1375598Y955866D1*
X1367408Y952474D1*
X1358789Y950404D1*
X1349951Y949709D1*
X1341114Y950404D1*
X1332494Y952474D1*
X1324305Y955866D1*
X1316746Y960498D1*
X1310005Y966255D1*
X1304248Y972996D1*
X1299617Y980554D1*
X1297214Y986061D1*
X1293755Y979358D1*
X1289017Y972836D1*
X1283316Y967136D1*
X1276794Y962397D1*
X1269611Y958737D1*
X1261944Y956246D1*
X1253982Y954985D1*
X1245921D1*
X1237958Y956246D1*
X1230291Y958737D1*
X1223109Y962397D1*
X1216587Y967136D1*
X1210886Y972836D1*
X1206148Y979358D1*
X1202719Y986040D1*
X1200286Y980554D1*
X1195655Y972996D1*
X1189897Y966255D1*
X1183157Y960498D1*
X1175598Y955866D1*
X1167408Y952474D1*
X1158789Y950404D1*
X1149951Y949709D1*
X1141114Y950404D1*
X1132494Y952474D1*
X1124305Y955866D1*
X1116746Y960498D1*
X1110005Y966255D1*
X1104248Y972996D1*
X1099617Y980554D1*
X1097214Y986061D1*
X1093755Y979358D1*
X1089017Y972836D1*
X1083316Y967136D1*
X1076794Y962397D1*
X1069611Y958737D1*
X1061944Y956246D1*
X1053982Y954985D1*
X1045921D1*
X1037958Y956246D1*
X1030291Y958737D1*
X1023109Y962397D1*
X1016587Y967136D1*
X1010886Y972836D1*
X1006148Y979358D1*
X1002488Y986541D1*
X999957Y994409D1*
X998075Y988217D1*
X995020Y981540D1*
X991044Y975367D1*
X986228Y969824D1*
X980672Y965024D1*
X974488Y961065D1*
X967802Y958028D1*
X960752Y955975D1*
X953481Y954948D1*
X946139Y954968D1*
X938874Y956035D1*
X931835Y958127D1*
X925167Y961201D1*
X919004Y965194D1*
X913474Y970025D1*
X908690Y975594D1*
X904748Y981789D1*
X901729Y988483D1*
X899956Y994413D1*
X898075Y988217D1*
X895020Y981540D1*
X891044Y975367D1*
X886228Y969824D1*
X880672Y965024D1*
X874488Y961065D1*
X867802Y958028D1*
X860752Y955975D1*
X853481Y954948D1*
X846139Y954968D1*
X838874Y956035D1*
X831835Y958127D1*
X825167Y961201D1*
X819004Y965194D1*
X813474Y970025D1*
X808690Y975594D1*
X804748Y981789D1*
X801729Y988483D1*
X801326Y989596D1*
Y954827D1*
X698578D1*
Y1057575D1*
X733378D1*
X726628Y1060426D1*
X719755Y1064638D1*
X713625Y1069874D1*
X708389Y1076004D1*
X705293Y1080884D1*
X522966Y1080968D1*
X519043Y1081589D1*
X515265Y1082816D1*
X511726Y1084619D1*
X508513Y1086954D1*
X475803Y1119554D1*
X473224Y1122574D1*
X471148Y1125960D1*
X469628Y1129630D1*
X468701Y1133492D1*
X468390Y1137459D1*
X468169Y1378638D1*
X461911Y1378134D1*
X431202D1*
Y737472D1*
X470658Y737296D1*
X472568Y736837D1*
X506352Y723187D1*
X508685Y721393D1*
X534459Y695567D1*
X554751Y668295D1*
X555810Y665554D1*
X562426Y619492D1*
X562396Y617527D1*
X555557Y577242D1*
X554790Y575433D1*
X534532Y541922D1*
X508070Y515445D1*
X505626Y513812D1*
X472420Y500516D1*
X469527Y499977D1*
X431203Y499950D1*
X431202Y453728D1*
X440223Y440204D1*
X453734Y431202D1*
X1939900Y431201D1*
X1953448Y440222D1*
X1962450Y453733D1*
X1962451Y499937D1*
X1929245Y500104D1*
X1927334Y500563D1*
X1893550Y514213D1*
X1891218Y516007D1*
X1864839Y542603D1*
X1845012Y575631D1*
X1844020Y578401D1*
X1837452Y618600D1*
X1839132Y629817D1*
X1844345Y660160D1*
X1845113Y661969D1*
X1865371Y695480D1*
X1891834Y721955D1*
X1894277Y723588D1*
X1927483Y736885D1*
X1930376Y737423D1*
X1962456Y737450D1*
X1962451Y1291813D1*
X1853055Y1414992D2*
X1859881Y1424259D1*
X1864441Y1429192D1*
X1869373Y1433751D1*
X1874648Y1437910D1*
X1880233Y1441642D1*
X1886094Y1444924D1*
X1892194Y1447736D1*
X1898496Y1450061D1*
X1904961Y1451884D1*
X1911549Y1453195D1*
X1918220Y1453984D1*
X1924932Y1454248D1*
X1931644Y1453984D1*
X1938314Y1453195D1*
X1944902Y1451884D1*
X1951367Y1450061D1*
X1957669Y1447736D1*
X1962459Y1445528D1*
X1962451Y3214128D1*
X1956815Y3211262D1*
X1949873Y3208871D1*
X1942652Y3207545D1*
X1935313Y3207314D1*
X1928023Y3208185D1*
X1920945Y3210136D1*
X1914238Y3213124D1*
X1908054Y3217082D1*
X1902532Y3221921D1*
X1897796Y3227532D1*
X1893953Y3233788D1*
X1891089Y3240548D1*
X1889269Y3247661D1*
X1888534Y3254967D1*
X1888922Y3262449D1*
X1808844Y3262450D1*
X1809219Y3256201D1*
X1808617Y3248546D1*
X1806824Y3241080D1*
X1803886Y3233986D1*
X1799874Y3227439D1*
X1794887Y3221600D1*
X1789048Y3216613D1*
X1787763Y3215754D1*
X1787841Y3082626D1*
X1898962D1*
Y2970980D1*
X1872042D1*
X1880140Y2965997D1*
X1887519Y2959695D1*
X1893821Y2952315D1*
X1898892Y2944041D1*
X1902606Y2935075D1*
X1904871Y2925639D1*
X1905633Y2915965D1*
X1904871Y2906290D1*
X1902606Y2896854D1*
X1898892Y2887888D1*
X1893821Y2879614D1*
X1887519Y2872234D1*
X1880140Y2865932D1*
X1871865Y2860861D1*
X1862900Y2857148D1*
X1853463Y2854882D1*
X1843789Y2854121D1*
X1834114Y2854882D1*
X1824678Y2857148D1*
X1815712Y2860861D1*
X1807438Y2865932D1*
X1800059Y2872234D1*
X1793756Y2879614D1*
X1788685Y2887888D1*
X1787756Y2889904D1*
X1787763Y2758021D1*
X1792283Y2752875D1*
X1795306Y2747941D1*
X1797521Y2742595D1*
X1798871Y2736969D1*
X1799325Y2731201D1*
X1798871Y2725432D1*
X1797521Y2719806D1*
X1795306Y2714460D1*
X1792283Y2709527D1*
X1788525Y2705127D1*
X1784125Y2701369D1*
X1779192Y2698346D1*
X1773846Y2696132D1*
X1768220Y2694781D1*
X1762451Y2694327D1*
X1756517Y2694814D1*
X1756513Y2372903D1*
X1767750Y2361698D1*
X1767766Y2471008D1*
X1899097D1*
Y2359362D1*
X1770079D1*
X1827319Y2302018D1*
X1829653Y2298805D1*
X1831457Y2295266D1*
X1832684Y2291489D1*
X1833305Y2287566D1*
X1833383Y2166157D1*
Y1891608D1*
X1837934Y1892621D1*
X1843702Y1893075D1*
X1849470Y1892621D1*
X1855097Y1891270D1*
X1860443Y1889056D1*
X1865376Y1886032D1*
X1869776Y1882275D1*
X1873534Y1877875D1*
X1876557Y1872941D1*
X1878771Y1867595D1*
X1880122Y1861969D1*
X1880576Y1856201D1*
X1880122Y1850432D1*
X1878771Y1844806D1*
X1876557Y1839460D1*
X1873534Y1834527D1*
X1869776Y1830127D1*
X1865376Y1826369D1*
X1860443Y1823346D1*
X1855097Y1821132D1*
X1853061Y1820557D1*
X1853068Y1768165D1*
X1879446Y1768176D1*
Y1713452D1*
X1914092Y1713451D1*
Y1685871D1*
X1919514Y1686710D1*
X1925300D1*
X1931015Y1685805D1*
X1936518Y1684017D1*
X1941673Y1681390D1*
X1946355Y1677989D1*
X1950446Y1673898D1*
X1953847Y1669217D1*
X1956474Y1664061D1*
X1958262Y1658558D1*
X1959167Y1652843D1*
Y1647057D1*
X1958262Y1641342D1*
X1956474Y1635839D1*
X1953847Y1630684D1*
X1950446Y1626002D1*
X1946355Y1621911D1*
X1941673Y1618510D1*
X1936518Y1615883D1*
X1931015Y1614095D1*
X1925300Y1613190D1*
X1921378Y1613117D1*
X1914838Y1607029D1*
X1914092Y1600625D1*
X1879464D1*
X1879446Y1545900D1*
X1853072D1*
X1853068Y1415122D1*
X1312146Y1964217D2*
X1305411Y1953925D1*
X1299726Y1946712D1*
X1293548Y1939915D1*
X1286908Y1933570D1*
X1279839Y1927706D1*
X1272376Y1922352D1*
X1264556Y1917536D1*
X1255200Y1912750D1*
X1260162Y1912450D1*
X1264024Y1911522D1*
X1267693Y1910003D1*
X1271080Y1907927D1*
X1274105Y1905342D1*
X1312140Y1867487D1*
Y1964051D1*
X1144791Y1912753D2*
X1133057Y1918869D1*
X1125336Y1923842D1*
X1117983Y1929346D1*
X1111034Y1935352D1*
X1104524Y1941831D1*
X1098486Y1948751D1*
X1092948Y1956078D1*
X1087937Y1963775D1*
X1083480Y1971806D1*
X1079598Y1980129D1*
X1075252Y1992171D1*
X1075263Y1941666D1*
X1104210Y1912738D1*
X1144550Y1912761D1*
X1075254Y2070442D2*
X1078133Y2078672D1*
X1081766Y2087107D1*
X1085982Y2095266D1*
X1090761Y2103109D1*
X1096079Y2110598D1*
X1101910Y2117694D1*
X1108224Y2124364D1*
X1114991Y2130574D1*
X1122177Y2136293D1*
X1129747Y2141494D1*
X1137663Y2146151D1*
X1145887Y2150240D1*
X1154378Y2153742D1*
X1163093Y2156639D1*
X1171991Y2158917D1*
X1181026Y2160565D1*
X1190155Y2161575D1*
X1199332Y2161941D1*
X1208513Y2161662D1*
X1217651Y2160739D1*
X1226701Y2159177D1*
X1235620Y2156983D1*
X1244362Y2154168D1*
X1252886Y2150747D1*
X1261148Y2146736D1*
X1269108Y2142154D1*
X1276727Y2137025D1*
X1283967Y2131374D1*
X1290793Y2125229D1*
X1297170Y2118619D1*
X1303067Y2111578D1*
X1308456Y2104140D1*
X1312152Y2098201D1*
X1312140Y2545734D1*
X1300244Y2557613D1*
X1300185Y2397963D1*
X1299563Y2394040D1*
X1298336Y2390263D1*
X1296533Y2386724D1*
X1294198Y2383511D1*
X1208405Y2297607D1*
X1075268Y2164469D1*
X1075263Y2070490D1*
X766535Y1057575D2*
X801326D1*
Y1022774D1*
X804158Y1029487D1*
X807946Y1035778D1*
X812591Y1041464D1*
X818000Y1046430D1*
X824062Y1050574D1*
X830652Y1053812D1*
X837637Y1056077D1*
X837958Y1056246D1*
X830291Y1058737D1*
X823109Y1062397D1*
X816587Y1067136D1*
X810886Y1072836D1*
X806148Y1079358D1*
X802488Y1086541D1*
X799957Y1094409D1*
X797415Y1086541D1*
X793755Y1079358D1*
X789017Y1072836D1*
X783316Y1067136D1*
X776794Y1062397D1*
X769611Y1058737D1*
X766463Y1057576D1*
X861745Y1056197D2*
X868333Y1054174D1*
X874984Y1051063D1*
X881124Y1047036D1*
X886628Y1042175D1*
X891382Y1036579D1*
X895289Y1030362D1*
X898271Y1023652D1*
X899948Y1017992D1*
X901928Y1024450D1*
X905020Y1031110D1*
X909030Y1037261D1*
X913876Y1042777D1*
X919459Y1047547D1*
X925665Y1051472D1*
X932367Y1054472D1*
X938162Y1056197D1*
X930291Y1058737D1*
X923109Y1062397D1*
X916587Y1067136D1*
X910886Y1072836D1*
X906148Y1079358D1*
X902488Y1086541D1*
X899957Y1094409D1*
X897415Y1086541D1*
X893755Y1079358D1*
X889017Y1072836D1*
X883316Y1067136D1*
X876794Y1062397D1*
X869611Y1058737D1*
X861744Y1056206D1*
X961745Y1056197D2*
X968333Y1054174D1*
X974984Y1051063D1*
X981124Y1047036D1*
X986628Y1042175D1*
X991382Y1036579D1*
X995289Y1030362D1*
X998271Y1023652D1*
X999948Y1017992D1*
X1002488Y1025861D1*
X1006148Y1033044D1*
X1010886Y1039566D1*
X1016587Y1045266D1*
X1023109Y1050004D1*
X1030291Y1053664D1*
X1038159Y1056195D1*
X1030291Y1058737D1*
X1023109Y1062397D1*
X1016587Y1067136D1*
X1010886Y1072836D1*
X1006148Y1079358D1*
X1002488Y1086541D1*
X999957Y1094409D1*
X997415Y1086541D1*
X993755Y1079358D1*
X989017Y1072836D1*
X983316Y1067136D1*
X976794Y1062397D1*
X969611Y1058737D1*
X961744Y1056206D1*
X1061744Y1056195D2*
X1063628Y1055681D1*
X1065065Y1057110D1*
X1061744Y1056206D1*
X1170091Y1058938D2*
X1175598Y1056536D1*
X1183157Y1051904D1*
X1189897Y1046147D1*
X1195655Y1039406D1*
X1200286Y1031848D1*
X1202689Y1026340D1*
X1206148Y1033044D1*
X1210886Y1039566D1*
X1216587Y1045266D1*
X1223109Y1050004D1*
X1230291Y1053664D1*
X1238159Y1056195D1*
X1230291Y1058737D1*
X1223109Y1062397D1*
X1216587Y1067136D1*
X1210886Y1072836D1*
X1206148Y1079358D1*
X1202488Y1086541D1*
X1199957Y1094409D1*
X1197415Y1086541D1*
X1193755Y1079358D1*
X1189017Y1072836D1*
X1183316Y1067136D1*
X1176794Y1062397D1*
X1170112Y1058968D1*
X1261744Y1056195D2*
X1269611Y1053664D1*
X1276794Y1050004D1*
X1283316Y1045266D1*
X1289017Y1039566D1*
X1293755Y1033044D1*
X1297184Y1026362D1*
X1299617Y1031848D1*
X1304248Y1039406D1*
X1310005Y1046147D1*
X1316746Y1051904D1*
X1324305Y1056536D1*
X1329812Y1058938D1*
X1323109Y1062397D1*
X1316587Y1067136D1*
X1310886Y1072836D1*
X1306148Y1079358D1*
X1302488Y1086541D1*
X1299957Y1094409D1*
X1297415Y1086541D1*
X1293755Y1079358D1*
X1289017Y1072836D1*
X1283316Y1067136D1*
X1276794Y1062397D1*
X1269611Y1058737D1*
X1261744Y1056206D1*
X1370091Y1058938D2*
X1375598Y1056536D1*
X1383157Y1051904D1*
X1389897Y1046147D1*
X1395655Y1039406D1*
X1399939Y1032468D1*
X1404248Y1039406D1*
X1410005Y1046147D1*
X1416746Y1051904D1*
X1424305Y1056536D1*
X1429812Y1058938D1*
X1423109Y1062397D1*
X1416587Y1067136D1*
X1410886Y1072836D1*
X1406148Y1079358D1*
X1402488Y1086541D1*
X1399957Y1094409D1*
X1397415Y1086541D1*
X1393755Y1079358D1*
X1389017Y1072836D1*
X1383316Y1067136D1*
X1376794Y1062397D1*
X1370112Y1058968D1*
X1470091Y1058938D2*
X1475598Y1056536D1*
X1483157Y1051904D1*
X1489897Y1046147D1*
X1495655Y1039406D1*
X1500286Y1031848D1*
X1502689Y1026340D1*
X1506148Y1033044D1*
X1510886Y1039566D1*
X1516587Y1045266D1*
X1523109Y1050004D1*
X1530291Y1053664D1*
X1538159Y1056195D1*
X1530291Y1058737D1*
X1523109Y1062397D1*
X1516587Y1067136D1*
X1510886Y1072836D1*
X1506148Y1079358D1*
X1502488Y1086541D1*
X1499957Y1094409D1*
X1497415Y1086541D1*
X1493755Y1079358D1*
X1489017Y1072836D1*
X1483316Y1067136D1*
X1476794Y1062397D1*
X1470112Y1058968D1*
X1561744Y1056195D2*
X1569611Y1053664D1*
X1576794Y1050004D1*
X1583316Y1045266D1*
X1589017Y1039566D1*
X1593755Y1033044D1*
X1597184Y1026362D1*
X1599617Y1031848D1*
X1604248Y1039406D1*
X1610005Y1046147D1*
X1616746Y1051904D1*
X1624305Y1056536D1*
X1629812Y1058938D1*
X1623109Y1062397D1*
X1616587Y1067136D1*
X1610886Y1072836D1*
X1606148Y1079358D1*
X1602488Y1086541D1*
X1599957Y1094409D1*
X1597415Y1086541D1*
X1593755Y1079358D1*
X1589017Y1072836D1*
X1583316Y1067136D1*
X1576794Y1062397D1*
X1569611Y1058737D1*
X1561744Y1056206D1*
X1599957Y1117993D2*
X1602488Y1125861D1*
X1606148Y1133044D1*
X1610886Y1139566D1*
X1616587Y1145266D1*
X1623109Y1150004D1*
X1624635Y1150859D1*
X1624641Y1281209D1*
X1621396Y1279350D1*
X1575241Y1233195D1*
X1575263Y1150940D1*
X1580148Y1147763D1*
X1586278Y1142528D1*
X1591514Y1136398D1*
X1595726Y1129524D1*
X1598811Y1122076D1*
X1599946Y1117993D1*
X1499957D2*
X1502488Y1125861D1*
X1506148Y1133044D1*
X1510886Y1139566D1*
X1516587Y1145266D1*
X1523109Y1150004D1*
X1524635Y1150859D1*
X1524718Y1245687D1*
X1525340Y1249610D1*
X1526567Y1253387D1*
X1528370Y1256926D1*
X1530705Y1260139D1*
X1616498Y1346043D1*
X1638853Y1368397D1*
X1635433Y1368390D1*
X1475254Y1208208D1*
X1475263Y1150916D1*
X1480148Y1147763D1*
X1486278Y1142528D1*
X1491514Y1136398D1*
X1495726Y1129524D1*
X1498811Y1122076D1*
X1499946Y1117993D1*
X1399957D2*
X1402488Y1125861D1*
X1406148Y1133044D1*
X1410886Y1139566D1*
X1416587Y1145266D1*
X1423109Y1150004D1*
X1424635Y1150859D1*
X1424640Y1207574D1*
X1375249Y1158203D1*
X1376794Y1150004D1*
X1383316Y1145266D1*
X1389017Y1139566D1*
X1393755Y1133044D1*
X1397415Y1125861D1*
X1399946Y1117993D1*
X1299957D2*
X1302488Y1125861D1*
X1306148Y1133044D1*
X1310886Y1139566D1*
X1316587Y1145266D1*
X1323109Y1150004D1*
X1324635Y1150859D1*
X1324718Y1170687D1*
X1325340Y1174610D1*
X1326567Y1178387D1*
X1328370Y1181926D1*
X1330705Y1185139D1*
X1416498Y1271043D1*
X1490717Y1345262D1*
X1487110Y1344089D1*
X1483187Y1343468D1*
X1361778Y1343390D1*
X1341719D1*
X1275286Y1276990D1*
X1275263Y1150912D1*
X1280148Y1147763D1*
X1286278Y1142528D1*
X1291514Y1136398D1*
X1295726Y1129524D1*
X1298811Y1122076D1*
X1299946Y1117993D1*
X1199957D2*
X1202488Y1125861D1*
X1206148Y1133044D1*
X1210886Y1139566D1*
X1216587Y1145266D1*
X1223109Y1150004D1*
X1224635Y1150859D1*
X1224640Y1270084D1*
X1175247Y1220701D1*
X1175263Y1150928D1*
X1180148Y1147763D1*
X1186278Y1142528D1*
X1191514Y1136398D1*
X1195726Y1129524D1*
X1198811Y1122076D1*
X1199946Y1117993D1*
X999957D2*
X1000472Y1119877D1*
X999042Y1121315D1*
X999946Y1117993D1*
X1036275Y1155681D2*
X1041915Y1156942D1*
X1049951Y1157575D1*
X1057988Y1156942D1*
X1065827Y1155060D1*
X1073275Y1151975D1*
X1074636Y1151213D1*
X1074718Y1214436D1*
X1075340Y1218359D1*
X1076567Y1222136D1*
X1078370Y1225675D1*
X1080705Y1228888D1*
X1166498Y1314792D1*
X1182611Y1330905D1*
X766716Y1330968D1*
X762793Y1331589D1*
X759016Y1332816D1*
X755477Y1334619D1*
X752264Y1336954D1*
X671460Y1417647D1*
X671086Y1411731D1*
X669930Y1406346D1*
X668029Y1401178D1*
X665420Y1396328D1*
X662155Y1391892D1*
X658300Y1387960D1*
X653930Y1384608D1*
X649132Y1381904D1*
X644002Y1379900D1*
X638642Y1378638D1*
X632384Y1378134D1*
X582241Y1378241D1*
X576791Y1379036D1*
X575264Y1379407D1*
X575263Y1260444D1*
X597917Y1237781D1*
X945687Y1237685D1*
X949610Y1237063D1*
X953387Y1235836D1*
X956926Y1234033D1*
X960139Y1231698D1*
X1036223Y1155724D1*
X899957Y1117993D2*
X900472Y1119877D1*
X899042Y1121315D1*
X899946Y1117993D1*
X936275Y1155681D2*
X941915Y1156942D1*
X949951Y1157575D1*
X957988Y1156942D1*
X965084Y1155270D1*
X933222Y1187135D1*
X904838Y1187140D1*
X936213Y1155734D1*
X799957Y1117993D2*
X800472Y1119877D1*
X799042Y1121315D1*
X799946Y1117993D1*
X468388Y1718836D2*
X461911Y1718291D1*
X431201D1*
X431202Y1456304D1*
X465099Y1456185D1*
X468394Y1455767D1*
X468390Y1718811D1*
X624642Y1684461D2*
X622574Y1680555D1*
X618951Y1675568D1*
X614592Y1671208D1*
X609604Y1667585D1*
X604111Y1664786D1*
X598248Y1662881D1*
X592159Y1661916D1*
X585994D1*
X579905Y1662881D1*
X575251Y1664340D1*
X575263Y1510269D1*
X579905Y1511726D1*
X585994Y1512690D1*
X592159D1*
X598248Y1511726D1*
X604111Y1509820D1*
X609604Y1507022D1*
X614592Y1503398D1*
X618951Y1499039D1*
X622574Y1494051D1*
X624642Y1490145D1*
X624640Y1684407D1*
X688496Y3254364D2*
X687670Y3247068D1*
X685763Y3239978D1*
X682816Y3233253D1*
X678896Y3227045D1*
X678707Y3226801D1*
X928489Y3226795D1*
X950598Y3248892D1*
X951031Y3255718D1*
X952793Y3262459D1*
X688145Y3262328D1*
X688530Y3256201D1*
X688496Y3254364D1*
X600498Y3226792D2*
X596971Y3232171D1*
X593855Y3238819D1*
X591769Y3245859D1*
X590760Y3253131D1*
X590851Y3260473D1*
X591067Y3262449D1*
X510984Y3262450D1*
X511365Y3256201D1*
X510762Y3248546D1*
X509935Y3244503D1*
X527652Y3226776D1*
X600507Y3226795D1*
X1492357Y2869271D2*
Y2833299D1*
X1547483Y2833284D1*
X1569332Y2855126D1*
X1569782Y2861969D1*
X1571133Y2867595D1*
X1571755Y2869283D1*
X1492342Y2869275D1*
X1492357Y2737355D2*
Y2703377D1*
X1576836Y2703362D1*
X1579596Y2710441D1*
X1582620Y2715375D1*
X1586378Y2719775D1*
X1590777Y2723532D1*
X1595711Y2726556D1*
X1601057Y2728770D1*
X1606683Y2730121D1*
X1612451Y2730575D1*
X1618220Y2730121D1*
X1623846Y2728770D1*
X1629192Y2726556D1*
X1634125Y2723532D1*
X1638525Y2719775D1*
X1642283Y2715375D1*
X1645306Y2710441D1*
X1647521Y2705095D1*
X1648871Y2699469D1*
X1649325Y2693701D1*
X1648871Y2687932D1*
X1647521Y2682306D1*
X1645306Y2676960D1*
X1642283Y2672027D1*
X1638525Y2667627D1*
X1634125Y2663869D1*
X1629192Y2660846D1*
X1623846Y2658632D1*
X1618220Y2657281D1*
X1612451Y2656827D1*
X1610700Y2656896D1*
X1606488Y2654667D1*
X1602703Y2653438D1*
X1601224Y2652636D1*
X1611394Y2642467D1*
X1618220Y2642034D1*
X1623846Y2640683D1*
X1629192Y2638469D1*
X1634125Y2635446D1*
X1638525Y2631688D1*
X1642283Y2627288D1*
X1645306Y2622355D1*
X1647521Y2617009D1*
X1648871Y2611383D1*
X1649325Y2605614D1*
X1648871Y2599846D1*
X1647521Y2594219D1*
X1645306Y2588874D1*
X1642283Y2583940D1*
X1638525Y2579540D1*
X1634125Y2575782D1*
X1629192Y2572759D1*
X1623846Y2570545D1*
X1618220Y2569194D1*
X1612451Y2568740D1*
X1606683Y2569194D1*
X1601057Y2570545D1*
X1595711Y2572759D1*
X1590777Y2575782D1*
X1586378Y2579540D1*
X1582620Y2583940D1*
X1579596Y2588874D1*
X1577382Y2594219D1*
X1576031Y2599846D1*
X1575618Y2606643D1*
X1572859Y2609411D1*
X1492355Y2609433D1*
X1492357Y2601559D1*
X1400262Y2601461D1*
Y2597908D1*
X1419198Y2578888D1*
X1421533Y2575675D1*
X1423336Y2572136D1*
X1424563Y2568359D1*
X1425184Y2564436D1*
X1425263Y2507296D1*
X1505465Y2507319D1*
Y2419008D1*
X1623134Y2419012D1*
X1628277Y2423532D1*
X1633211Y2426556D1*
X1638557Y2428770D1*
X1644183Y2430121D1*
X1649951Y2430575D1*
X1655720Y2430121D1*
X1661346Y2428770D1*
X1666692Y2426556D1*
X1671625Y2423532D1*
X1676025Y2419775D1*
X1679783Y2415375D1*
X1682558Y2410885D1*
X1682554Y2542345D1*
X1647579Y2507385D1*
X1647150Y2500562D1*
X1645799Y2494936D1*
X1643585Y2489590D1*
X1640561Y2484657D1*
X1636804Y2480257D1*
X1632404Y2476499D1*
X1627470Y2473476D1*
X1622124Y2471261D1*
X1616498Y2469911D1*
X1610730Y2469457D1*
X1604961Y2469911D1*
X1599335Y2471261D1*
X1593989Y2473476D1*
X1589056Y2476499D1*
X1584656Y2480257D1*
X1580898Y2484657D1*
X1577875Y2489590D1*
X1575660Y2494936D1*
X1574310Y2500562D1*
X1573856Y2506331D1*
X1574310Y2512099D1*
X1575660Y2517725D1*
X1577875Y2523071D1*
X1580898Y2528005D1*
X1584656Y2532405D1*
X1589056Y2536162D1*
X1593989Y2539186D1*
X1599335Y2541400D1*
X1604961Y2542751D1*
X1611758Y2543164D1*
X1658931Y2590328D1*
X1658950Y2725660D1*
X1653308Y2725691D1*
X1647593Y2726596D1*
X1642090Y2728384D1*
X1636934Y2731011D1*
X1632253Y2734412D1*
X1629198Y2737382D1*
X1492329Y2737386D1*
X1905442Y2596664D2*
X1903924Y2587079D1*
X1900925Y2577849D1*
X1896519Y2569202D1*
X1890815Y2561351D1*
X1883953Y2554489D1*
X1876102Y2548785D1*
X1867455Y2544379D1*
X1858226Y2541381D1*
X1848641Y2539863D1*
X1838937D1*
X1829352Y2541381D1*
X1820122Y2544379D1*
X1811475Y2548785D1*
X1803624Y2554489D1*
X1796762Y2561351D1*
X1791058Y2569202D1*
X1786652Y2577849D1*
X1783654Y2587079D1*
X1782136Y2596664D1*
Y2606368D1*
X1783654Y2615953D1*
X1786652Y2625182D1*
X1791058Y2633829D1*
X1796762Y2641680D1*
X1803624Y2648542D1*
X1811475Y2654246D1*
X1820122Y2658652D1*
X1829352Y2661651D1*
X1838937Y2663169D1*
X1848641D1*
X1858226Y2661651D1*
X1867455Y2658652D1*
X1876102Y2654246D1*
X1883953Y2648542D1*
X1890815Y2641680D1*
X1896519Y2633829D1*
X1900925Y2625182D1*
X1903924Y2615953D1*
X1905442Y2606368D1*
Y2596664D1*
X759848Y1536347D2*
X755105Y1531429D1*
X750424Y1528028D1*
X745269Y1525401D1*
X739766Y1523613D1*
X734051Y1522708D1*
X728264D1*
X722549Y1523613D1*
X718670Y1524802D1*
X718892Y1510853D1*
X721519Y1505698D1*
X723307Y1500195D1*
X724212Y1494480D1*
Y1488694D1*
X723307Y1482979D1*
X721519Y1477476D1*
X718892Y1472320D1*
X715491Y1467639D1*
X711399Y1463547D1*
X706718Y1460146D1*
X702662Y1458026D1*
X779165Y1381534D1*
X1208247Y1381512D1*
X1387125Y1560419D1*
X1387140Y1598143D1*
X1382620Y1603276D1*
X1379596Y1608210D1*
X1377382Y1613555D1*
X1376716Y1615918D1*
X1160140Y1399454D1*
X1156927Y1397120D1*
X1153388Y1395316D1*
X1149611Y1394089D1*
X1145688Y1393468D1*
X1039243Y1393390D1*
X1034127Y1388869D1*
X1029193Y1385846D1*
X1023847Y1383632D1*
X1018221Y1382281D1*
X1012453Y1381827D1*
X1006684Y1382281D1*
X1001058Y1383632D1*
X995712Y1385846D1*
X990779Y1388869D1*
X986379Y1392627D1*
X982621Y1397027D1*
X979598Y1401960D1*
X977383Y1407306D1*
X976033Y1412932D1*
X975579Y1418701D1*
X975680Y1421266D1*
X970711Y1423346D1*
X965777Y1426369D1*
X961378Y1430127D1*
X957620Y1434527D1*
X954596Y1439460D1*
X952382Y1444806D1*
X951031Y1450432D1*
X950577Y1456201D1*
X951031Y1461969D1*
X952382Y1467595D1*
X954596Y1472941D1*
X957620Y1477875D1*
X961378Y1482275D1*
X965777Y1486032D1*
X970711Y1489056D1*
X976057Y1491270D1*
X981683Y1492621D1*
X987451Y1493075D1*
X993220Y1492621D1*
X998846Y1491270D1*
X1004192Y1489056D1*
X1009125Y1486032D1*
X1014224Y1481519D1*
X1126933Y1481512D1*
X1172408Y1526952D1*
X1165345Y1525691D1*
X1159558D1*
X1153843Y1526596D1*
X1148340Y1528384D1*
X1143185Y1531011D1*
X1138504Y1534412D1*
X1136419Y1536339D1*
X759857Y1536341D1*
X718670Y1631633D2*
X722549Y1632822D1*
X728264Y1633728D1*
X734051D1*
X739766Y1632822D1*
X745269Y1631034D1*
X750424Y1628407D1*
X755105Y1625006D1*
X757930Y1622285D1*
X1133096Y1622278D1*
X1137017Y1626615D1*
X825118Y1626698D1*
X820890Y1627368D1*
X816819Y1628691D1*
X813005Y1630634D1*
X809542Y1633150D1*
X788659Y1653914D1*
X718674Y1653921D1*
X718668Y1631645D1*
X1199212Y1597057D2*
X1198307Y1591342D1*
X1196519Y1585839D1*
X1194196Y1581226D1*
X1196519Y1576563D1*
X1198307Y1571060D1*
X1199212Y1565345D1*
Y1559558D1*
X1198307Y1553843D1*
X1197917Y1552461D1*
X1312117Y1666661D1*
X1311969Y1701031D1*
X1306201Y1700577D1*
X1300432Y1701031D1*
X1294806Y1702382D1*
X1289460Y1704596D1*
X1284527Y1707620D1*
X1280127Y1711378D1*
X1276369Y1715777D1*
X1273346Y1720711D1*
X1271132Y1726057D1*
X1269781Y1731683D1*
X1269327Y1737451D1*
X1269781Y1743220D1*
X1271132Y1748846D1*
X1273346Y1754192D1*
X1276369Y1759125D1*
X1280883Y1764224D1*
X1280890Y1826982D1*
X1245700Y1862157D1*
X1091716Y1862217D1*
X1087793Y1862838D1*
X1084016Y1864066D1*
X1080477Y1865869D1*
X1077264Y1868203D1*
X1032054Y1913303D1*
X1029474Y1916323D1*
X1027399Y1919710D1*
X1025879Y1923379D1*
X1024952Y1927241D1*
X1024640Y1931201D1*
X1024718Y2176935D1*
X1025340Y2180858D1*
X1026567Y2184635D1*
X1028370Y2188174D1*
X1030705Y2191387D1*
X1116498Y2277291D1*
X1249635Y2410428D1*
X1249640Y2624620D1*
X1247135Y2629590D1*
X1245467Y2634668D1*
X1197640Y2586954D1*
X1194427Y2584620D1*
X1190888Y2582816D1*
X1187111Y2581589D1*
X1183188Y2580968D1*
X1061780Y2580890D1*
X951794D1*
X946625Y2576369D1*
X941692Y2573346D1*
X936346Y2571132D1*
X930720Y2569781D1*
X924951Y2569327D1*
X919183Y2569781D1*
X913557Y2571132D1*
X908211Y2573346D1*
X903277Y2576369D1*
X898878Y2580127D1*
X895120Y2584527D1*
X894008Y2586191D1*
X894012Y1754180D1*
X917631Y1730567D1*
X924470Y1730121D1*
X930097Y1728770D1*
X935443Y1726556D1*
X940376Y1723532D1*
X944776Y1719775D1*
X948534Y1715375D1*
X951557Y1710441D1*
X953771Y1705095D1*
X955122Y1699469D1*
X955576Y1693701D1*
X955122Y1687932D1*
X953771Y1682306D1*
X953353Y1681171D1*
X1094919Y1681173D1*
X1093192Y1686559D1*
X1092287Y1692274D1*
X1092214Y1696195D1*
X968573Y1819845D1*
X962451Y1819327D1*
X956683Y1819781D1*
X951057Y1821132D1*
X945711Y1823346D1*
X940777Y1826369D1*
X936378Y1830127D1*
X932620Y1834527D1*
X929596Y1839460D1*
X927382Y1844806D1*
X926031Y1850432D1*
X925577Y1856201D1*
X926031Y1861969D1*
X927382Y1867595D1*
X929596Y1872941D1*
X932620Y1877875D1*
X936378Y1882275D1*
X940777Y1886032D1*
X945711Y1889056D1*
X951057Y1891270D1*
X956683Y1892621D1*
X962451Y1893075D1*
X968220Y1892621D1*
X973846Y1891270D1*
X979192Y1889056D1*
X984125Y1886032D1*
X988525Y1882275D1*
X992283Y1877875D1*
X995306Y1872941D1*
X997521Y1867595D1*
X998982Y1861037D1*
X1127980Y1732030D1*
X1134816Y1731587D1*
X1140442Y1730236D1*
X1145788Y1728022D1*
X1150721Y1724998D1*
X1155121Y1721241D1*
X1158879Y1716841D1*
X1161902Y1711907D1*
X1164117Y1706561D1*
X1165467Y1700935D1*
X1165921Y1695167D1*
X1165467Y1689398D1*
X1163713Y1682679D1*
X1205707Y1724667D1*
X1201572Y1730686D1*
X1198945Y1735842D1*
X1197157Y1741345D1*
X1196251Y1747060D1*
Y1752846D1*
X1197157Y1758561D1*
X1198945Y1764064D1*
X1201572Y1769219D1*
X1204973Y1773901D1*
X1209064Y1777992D1*
X1213745Y1781393D1*
X1218901Y1784020D1*
X1224404Y1785808D1*
X1230119Y1786713D1*
X1235905D1*
X1241620Y1785808D1*
X1247123Y1784020D1*
X1252278Y1781393D1*
X1256960Y1777992D1*
X1261051Y1773901D1*
X1264452Y1769219D1*
X1267079Y1764064D1*
X1268867Y1758561D1*
X1269772Y1752846D1*
Y1747060D1*
X1268867Y1741345D1*
X1267079Y1735842D1*
X1264452Y1730686D1*
X1260291Y1725183D1*
X1260207Y1711252D1*
X1259538Y1707024D1*
X1258215Y1702953D1*
X1256272Y1699139D1*
X1253755Y1695676D1*
X1192803Y1634604D1*
X1189548Y1631824D1*
X1185890Y1629584D1*
X1186399Y1627989D1*
X1190491Y1623898D1*
X1193892Y1619217D1*
X1196519Y1614061D1*
X1198307Y1608558D1*
X1199212Y1602843D1*
Y1597057D1*
X1658952Y2822659D2*
X1655095Y2821132D1*
X1649469Y2819781D1*
X1643701Y2819327D1*
X1637932Y2819781D1*
X1632306Y2821132D1*
X1626960Y2823346D1*
X1624977Y2824457D1*
X1620313Y2822134D1*
X1614810Y2820346D1*
X1609095Y2819440D1*
X1605174Y2819367D1*
X1577735Y2791939D1*
X1634036Y2791945D1*
X1639460Y2795306D1*
X1644806Y2797521D1*
X1650432Y2798871D1*
X1656201Y2799325D1*
X1658947Y2799218D1*
X1658950Y2822619D1*
X1775266Y1923837D2*
X1781201Y1924324D1*
X1782772Y1924262D1*
X1782761Y2264398D1*
X1779783Y2259527D1*
X1775270Y2254428D1*
X1775262Y1923830D1*
X1599212Y2128308D2*
X1598307Y2122593D1*
X1596519Y2117090D1*
X1593892Y2111934D1*
X1590568Y2107351D1*
X1590567Y1848105D1*
X1597058Y1849212D1*
X1600980Y1849285D1*
X1682560Y1930855D1*
X1682554Y2376489D1*
X1679783Y2372027D1*
X1676025Y2367627D1*
X1671625Y2363869D1*
X1666692Y2360846D1*
X1661346Y2358632D1*
X1655720Y2357281D1*
X1649951Y2356827D1*
X1644183Y2357281D1*
X1638557Y2358632D1*
X1633211Y2360846D1*
X1628277Y2363869D1*
X1623179Y2368383D1*
X1416716Y2368468D1*
X1412793Y2369089D1*
X1409016Y2370316D1*
X1405477Y2372120D1*
X1402264Y2374454D1*
X1394030Y2382578D1*
X1394012Y1738150D1*
X1398340Y1740268D1*
X1403843Y1742056D1*
X1409558Y1742961D1*
X1415345D1*
X1421060Y1742056D1*
X1426563Y1740268D1*
X1431718Y1737641D1*
X1436399Y1734240D1*
X1440491Y1730149D1*
X1443892Y1725467D1*
X1446519Y1720312D1*
X1448307Y1714809D1*
X1448738Y1713451D1*
X1479347D1*
X1479315Y1763057D1*
X1480858D1*
X1480890Y2164497D1*
X1436955Y2208513D1*
X1434621Y2211726D1*
X1432818Y2215265D1*
X1431590Y2219043D1*
X1430969Y2222966D1*
X1430891Y2273144D1*
X1426370Y2278277D1*
X1423347Y2283211D1*
X1421133Y2288557D1*
X1419782Y2294183D1*
X1419328Y2299951D1*
X1419782Y2305720D1*
X1421133Y2311346D1*
X1423347Y2316692D1*
X1426370Y2321625D1*
X1430128Y2326025D1*
X1434528Y2329783D1*
X1439462Y2332806D1*
X1444807Y2335021D1*
X1450434Y2336371D1*
X1456202Y2336825D1*
X1461970Y2336371D1*
X1467597Y2335021D1*
X1472943Y2332806D1*
X1477876Y2329783D1*
X1482276Y2326025D1*
X1486034Y2321625D1*
X1489057Y2316692D1*
X1491271Y2311346D1*
X1492622Y2305720D1*
X1493076Y2299951D1*
X1492622Y2294183D1*
X1491271Y2288557D1*
X1489057Y2283211D1*
X1486034Y2278277D1*
X1481520Y2273179D1*
X1481513Y2235468D1*
X1492750Y2224199D1*
X1496912Y2230149D1*
X1501004Y2234240D1*
X1505685Y2237641D1*
X1510840Y2240268D1*
X1516343Y2242056D1*
X1522058Y2242961D1*
X1527845D1*
X1533560Y2242056D1*
X1539063Y2240268D1*
X1544218Y2237641D1*
X1548899Y2234240D1*
X1552991Y2230149D1*
X1556392Y2225467D1*
X1559019Y2220312D1*
X1560807Y2214809D1*
X1561712Y2209094D1*
Y2203308D1*
X1560807Y2197593D1*
X1559019Y2192090D1*
X1556392Y2186934D1*
X1552991Y2182253D1*
X1551202Y2180318D1*
X1551197Y2166332D1*
X1556683Y2167621D1*
X1562451Y2168075D1*
X1568220Y2167621D1*
X1573846Y2166270D1*
X1579192Y2164056D1*
X1584125Y2161032D1*
X1588525Y2157275D1*
X1592283Y2152875D1*
X1595306Y2147941D1*
X1597521Y2142595D1*
X1598871Y2136969D1*
X1599325Y2131201D1*
X1599212Y2128308D1*
X1636712Y1809558D2*
X1635807Y1803843D1*
X1634019Y1798340D1*
X1631392Y1793185D1*
X1627991Y1788504D1*
X1623899Y1784412D1*
X1619218Y1781011D1*
X1614063Y1778384D1*
X1608560Y1776596D1*
X1602845Y1775691D1*
X1597058D1*
X1590571Y1776814D1*
X1590567Y1768155D1*
X1616945Y1768176D1*
Y1713452D1*
X1651591Y1713451D1*
Y1678450D1*
X1654474Y1683578D1*
X1657054Y1686598D1*
X1676378Y1705812D1*
X1679591Y1708147D1*
X1683130Y1709950D1*
X1686908Y1711177D1*
X1690830Y1711799D1*
X1702039Y1711877D1*
X1702053Y1713451D1*
X1741848D1*
X1741816Y1763058D1*
X1743359D1*
X1743391Y1808239D1*
X1730705Y1821013D1*
X1728370Y1824226D1*
X1726567Y1827765D1*
X1725340Y1831543D1*
X1724718Y1835466D1*
X1724640Y1901361D1*
X1636827Y1813531D1*
X1636712Y1809558D1*
X1440145Y1600629D2*
X1437770Y1598178D1*
X1437685Y1547964D1*
X1437063Y1544041D1*
X1435836Y1540264D1*
X1434033Y1536725D1*
X1431698Y1533512D1*
X1348569Y1450272D1*
X1458249Y1450261D1*
X1480871Y1472916D1*
X1480890Y1551048D1*
X1479315Y1551018D1*
Y1600646D1*
X1440157Y1600625D1*
X1394004Y1656849D2*
X1398340Y1659017D1*
X1403843Y1660805D1*
X1409558Y1661710D1*
X1415345D1*
X1421060Y1660805D1*
X1426563Y1659017D1*
X1431718Y1656390D1*
X1436574Y1652828D1*
X1439551Y1654396D1*
X1483868D1*
X1483843Y1659679D1*
X1439551Y1659680D1*
Y1661223D1*
X1428127Y1661566D1*
X1424265Y1662493D1*
X1420596Y1664013D1*
X1417209Y1666089D1*
X1413504Y1669353D1*
X1406683Y1669781D1*
X1401057Y1671132D1*
X1395711Y1673346D1*
X1394004Y1674302D1*
X1394012Y1656909D1*
X1700270Y1645473D2*
X1702046Y1643670D1*
X1702052Y1654396D1*
X1746369D1*
X1746344Y1659679D1*
X1702053Y1659680D1*
X1700263Y1650328D1*
Y1645484D1*
X1701724Y1555883D2*
X1696625Y1551369D1*
X1691692Y1548346D1*
X1686346Y1546132D1*
X1679855Y1544678D1*
X1680461Y1540345D1*
Y1534558D1*
X1679556Y1528843D1*
X1677768Y1523340D1*
X1675141Y1518185D1*
X1671740Y1513504D1*
X1667649Y1509412D1*
X1662967Y1506011D1*
X1657812Y1503384D1*
X1652309Y1501596D1*
X1646594Y1500691D1*
X1640808D1*
X1635093Y1501596D1*
X1629590Y1503384D1*
X1624434Y1506011D1*
X1619753Y1509412D1*
X1615662Y1513504D1*
X1612261Y1518185D1*
X1609634Y1523340D1*
X1607846Y1528843D1*
X1606940Y1534558D1*
X1606867Y1538480D1*
X1599473Y1545884D1*
X1590570Y1545900D1*
X1590489Y1450770D1*
X1589868Y1446847D1*
X1588640Y1443070D1*
X1587804Y1441258D1*
X1590265Y1442085D1*
X1594043Y1443312D1*
X1597966Y1443934D1*
X1708214Y1444012D1*
X1743407Y1479201D1*
X1743391Y1550983D1*
X1741817Y1551018D1*
Y1568494D1*
X1735140Y1561954D1*
X1731927Y1559620D1*
X1728388Y1557816D1*
X1724611Y1556589D1*
X1720688Y1555968D1*
X1701801Y1555890D1*
X1607279Y1654396D2*
X1649645D1*
X1649640Y1659645D1*
X1607302Y1659680D1*
X1607299Y1654397D1*
X1680461Y3222058D2*
X1679556Y3216343D1*
X1677768Y3210840D1*
X1675141Y3205685D1*
X1671740Y3201004D1*
X1667649Y3196912D1*
X1662967Y3193511D1*
X1657812Y3190884D1*
X1652309Y3189096D1*
X1646594Y3188191D1*
X1640808D1*
X1635093Y3189096D1*
X1629590Y3190884D1*
X1624434Y3193511D1*
X1618931Y3197672D1*
X1191309D1*
X1166084Y3172447D1*
X1165086Y3165565D1*
X1163298Y3160062D1*
X1160671Y3154907D1*
X1157270Y3150225D1*
X1153179Y3146134D1*
X1148498Y3142733D1*
X1143342Y3140106D1*
X1137839Y3138318D1*
X1132124Y3137413D1*
X1126338D1*
X1120623Y3138318D1*
X1115120Y3140106D1*
X1109964Y3142733D1*
X1105283Y3146134D1*
X1101192Y3150225D1*
X1097791Y3154907D1*
X1095164Y3160062D1*
X1093376Y3165565D1*
X1092471Y3171280D1*
Y3177066D1*
X1093376Y3182781D1*
X1095164Y3188284D1*
X1097791Y3193440D1*
X1101192Y3198121D1*
X1105283Y3202212D1*
X1109964Y3205613D1*
X1115120Y3208240D1*
X1120623Y3210028D1*
X1127457Y3210978D1*
X1162293Y3245695D1*
X1165756Y3248211D1*
X1169570Y3250154D1*
X1173641Y3251477D1*
X1177869Y3252147D1*
X1281059Y3252231D1*
X1618909D1*
X1624434Y3256392D1*
X1629590Y3259019D1*
X1635093Y3260807D1*
X1640808Y3261712D1*
X1646594D1*
X1652309Y3260807D1*
X1657812Y3259019D1*
X1662967Y3256392D1*
X1667649Y3252991D1*
X1671740Y3248899D1*
X1675141Y3244218D1*
X1677768Y3239063D1*
X1679556Y3233560D1*
X1680461Y3227845D1*
Y3222058D1*
X1267520Y2866318D2*
D19*
Y2831201D1*
X1228465D2*
X1267520D1*
Y2781201D2*
Y2746083D1*
X1228465Y2781201D2*
X1267520D1*
X749951Y1006201D2*
Y954863D1*
X698613Y1006201D2*
X749951D1*
X849951Y1057539D2*
Y954863D1*
Y1006201D2*
X901290D1*
X949951Y1057539D2*
Y954863D1*
Y1006201D2*
X1001290D1*
X444195Y1796437D2*
Y1718327D1*
Y1456279D2*
Y1378170D1*
X608761Y1796437D2*
Y1757382D1*
X671438D1*
X608761Y1417224D2*
Y1378170D1*
Y1417224D2*
X671438D1*
X1937451Y3256201D2*
Y3207304D1*
X1888554Y3256201D2*
X1937451D1*
X590700D2*
X688494D1*
X1370905Y2851280D2*
X1492321D1*
X1455196Y3096082D2*
Y3040295D1*
X1405314D2*
X1505077D1*
X1455547Y2507283D2*
Y2451496D1*
X1505429D1*
X1833432Y2470972D2*
Y2359398D1*
X1767802Y2415185D2*
X1899061D1*
X1833297Y3082590D2*
Y3026803D1*
X1898926D1*
X625986Y2619665D2*
Y2592815D1*
X496380Y2563287D2*
X558072D1*
X1613484Y1713415D2*
Y1659716D1*
Y1686566D2*
X1651555D1*
X1483879Y1657038D2*
X1607263D1*
X1875986Y1713416D2*
Y1686566D1*
X1914056D1*
X1746380Y1657038D2*
X1808072D1*
D21*
X1318701Y2831201D3*
X1267520D3*
X1318701Y2781201D3*
X1267520D3*
D28*
X749951Y1006201D3*
D29*
X849951D3*
X949951D3*
X1049951D3*
X1149951D3*
X1249951D3*
X1349951D3*
X1449951D3*
X1549951D3*
X1649951D3*
Y1106201D3*
X1549951D3*
X1449951D3*
X1349951D3*
X1249951D3*
X1149951D3*
X1049951D3*
X949951D3*
X849951D3*
X749951D3*
D32*
X444195Y1757382D3*
Y1417224D3*
D33*
X608761Y1757382D3*
Y1417224D3*
D36*
X1937451Y3256201D3*
Y3512106D3*
X1760286D3*
Y3256201D3*
X639597D3*
Y3512106D3*
X462432D3*
Y3256201D3*
D38*
X1431613Y2981201D3*
Y2937894D3*
Y2894587D3*
Y2851280D3*
Y2807972D3*
Y2764665D3*
Y2721358D3*
Y2678051D3*
Y2634744D3*
D39*
X1455196Y3040295D3*
X1455547Y2451496D3*
D40*
X1833432Y2415185D3*
X1833297Y3026803D3*
D49*
X518702Y2631201D3*
X538387D3*
X558072D3*
X577757D3*
X597442D3*
Y2495374D3*
X577757D3*
X558072D3*
X538387D3*
X518702D3*
D50*
X490159Y2533760D3*
Y2592815D3*
X625986Y2533760D3*
Y2592815D3*
D51*
X558072Y2563287D3*
D49*
X1506201Y1724951D3*
X1525886D3*
X1545571D3*
X1565256D3*
X1584941D3*
Y1589125D3*
X1565256D3*
X1545571D3*
X1525886D3*
X1506201D3*
D50*
X1477657Y1627510D3*
Y1686566D3*
X1613484Y1627510D3*
Y1686566D3*
D51*
X1545571Y1657038D3*
D49*
X1768702Y1724951D3*
X1788387D3*
X1808072D3*
X1827757D3*
X1847442D3*
Y1589125D3*
X1827757D3*
X1808072D3*
X1788387D3*
X1768702D3*
D50*
X1740159Y1627510D3*
Y1686566D3*
X1875986Y1627510D3*
Y1686566D3*
D51*
X1808072Y1657038D3*
M02*
