G04 DipTrace 3.3.1.3*
G04 TopMask.gbr*
%MOIN*%
G04 #@! TF.FileFunction,Soldermask,Top*
G04 #@! TF.Part,Single*
%ADD19R,0.070866X0.070866*%
%ADD27R,0.066929X0.066929*%
%ADD28C,0.066929*%
%ADD43C,0.127953*%
%ADD44C,0.049213*%
%ADD54R,0.031496X0.051181*%
%ADD56R,0.096457X0.076772*%
%ADD58R,0.064961X0.076772*%
%ADD60R,0.086614X0.031496*%
%ADD62C,0.062992*%
%ADD64C,0.067874*%
%ADD66C,0.074803*%
%ADD67R,0.074803X0.074803*%
%ADD70C,0.067874*%
%ADD72R,0.067874X0.067874*%
%ADD74R,0.057874X0.057874*%
%ADD76C,0.057874*%
%ADD78C,0.07874*%
%ADD79R,0.07874X0.07874*%
%ADD80C,0.070866*%
%FSLAX26Y26*%
G04*
G70*
G90*
G75*
G01*
G04 TopMask*
%LPD*%
D19*
X1068701Y543702D3*
D80*
Y643702D3*
X1693701Y2243702D3*
D19*
X1593701D3*
D80*
X1016773Y1321851D3*
D19*
Y1421851D3*
D79*
X1768701Y543702D3*
D78*
X1333661D3*
D76*
X3252075Y690430D3*
D74*
Y590430D3*
D76*
X3259953Y2166876D3*
D74*
Y2066876D3*
D43*
X543701Y2218702D3*
Y543702D3*
X3918701D3*
Y2218702D3*
D72*
X555643Y1818702D3*
D70*
Y1718702D3*
Y1618702D3*
Y1518702D3*
Y1418702D3*
Y1318702D3*
Y1218702D3*
Y1118702D3*
Y1018702D3*
Y918702D3*
X655643D3*
Y1018702D3*
Y1118702D3*
Y1218702D3*
Y1318702D3*
Y1418702D3*
Y1518702D3*
Y1618702D3*
Y1718702D3*
Y1818702D3*
D27*
X993701Y2243702D3*
D28*
X893701D3*
D67*
X1343701D3*
D66*
X1243701D3*
D67*
X1551316Y1718702D3*
D66*
X1651316D3*
X1551316Y1618702D3*
X1651316D3*
X1551316Y1518702D3*
X1651316D3*
X1551316Y1418702D3*
X1651316D3*
X1551316Y1318702D3*
X1651316D3*
X1551316Y1218702D3*
X1651316D3*
X1551316Y1118702D3*
X1651316D3*
X1551316Y1018702D3*
X1651316D3*
D70*
X2668701Y1868702D3*
D64*
X2268701D3*
D70*
X2668701Y2193702D3*
D64*
X2268701D3*
D70*
X2668701Y1368702D3*
D64*
X2268701D3*
D70*
X2668701Y543702D3*
D64*
X2268701D3*
D70*
X2668701Y881202D3*
D64*
X2268701D3*
D70*
X2668701Y1531202D3*
D64*
X2268701D3*
D70*
X2668701Y1206202D3*
D64*
X2268701D3*
D70*
Y706202D3*
D64*
X2668701D3*
D70*
X2268701Y2031202D3*
D64*
X2668701D3*
D70*
X2268701Y1693702D3*
D64*
X2668701D3*
D70*
X2268701Y1043702D3*
D64*
X2668701D3*
D62*
X3709395Y533538D3*
Y789443D3*
X3532230D3*
Y533538D3*
X3709629Y2000124D3*
Y2256030D3*
X3532463D3*
Y2000124D3*
D60*
X3490461Y1120473D3*
Y1163781D3*
Y1207088D3*
Y1250395D3*
Y1293702D3*
Y1337009D3*
Y1380316D3*
Y1423623D3*
Y1466930D3*
D58*
X3514043Y1061379D3*
X3514395Y1650178D3*
D56*
X3892280Y1686489D3*
X3892144Y1074871D3*
D44*
X3902636Y1185710D3*
Y1500158D3*
D66*
X2968701Y468702D3*
Y568702D3*
Y668702D3*
Y768702D3*
Y868702D3*
Y968702D3*
Y1068702D3*
Y1168702D3*
Y1268702D3*
Y1368702D3*
Y1468702D3*
Y1568702D3*
Y1668702D3*
Y1768702D3*
Y1868702D3*
Y1968702D3*
Y2068702D3*
Y2168702D3*
Y2268702D3*
X1968701D3*
Y2168702D3*
Y2068702D3*
Y1968702D3*
Y1868702D3*
Y1768702D3*
Y1668702D3*
Y1568702D3*
Y1468702D3*
Y1368702D3*
Y1268702D3*
Y1168702D3*
Y1068702D3*
Y968702D3*
Y868702D3*
Y768702D3*
Y668702D3*
Y568702D3*
Y468702D3*
D54*
X1166773Y1318702D3*
X1204175D3*
X1241576D3*
Y1425001D3*
X1166773D3*
M02*
