G04 DipTrace 5.1.0.3*
G04 2 - Bottom.gbr*
%MOIN*%
G04 #@! TF.FileFunction,Copper,L2,Bot*
G04 #@! TF.Part,Single*
G04 #@! TA.AperFunction,Conductor*
%ADD15C,0.007874*%
%ADD16C,0.015748*%
G04 #@! TA.AperFunction,CopperBalancing*
%ADD17C,0.025*%
%ADD18C,0.012992*%
G04 #@! TA.AperFunction,Nonconductor*
%ADD21C,0.035433*%
G04 #@! TA.AperFunction,ComponentPad*
%ADD28O,0.035433X0.070866*%
%ADD29O,0.035433X0.082677*%
%ADD30R,0.066929X0.029528*%
%ADD31R,0.059055X0.066929*%
%ADD32R,0.051181X0.051181*%
%ADD33R,0.03937X0.051181*%
%ADD34R,0.059055X0.062992*%
%ADD35R,0.066929X0.059055*%
%ADD36R,0.07874X0.19685*%
%ADD37R,0.027559X0.011811*%
%ADD41C,0.07874*%
%ADD42C,0.027559*%
G04 #@! TA.AperFunction,ViaPad*
%ADD47C,0.031*%
%FSLAX26Y26*%
G04*
G70*
G90*
G75*
G01*
G04 Bottom*
%LPD*%
X906201Y2424950D2*
D15*
X1018701D1*
X1037470Y2443719D1*
Y2608682D1*
X818701Y2437450D2*
Y2608024D1*
X819360Y2608682D1*
X943701Y2462450D2*
X1006201D1*
X1271808Y1831199D2*
Y1959343D1*
X1173671Y2057480D1*
Y2174344D1*
Y2362844D1*
X1117654D1*
X631201Y1906199D2*
X681201D1*
X721702Y1865698D1*
X821949D1*
X856201Y1899950D1*
Y2174692D1*
Y2331201D1*
X887844Y2362844D1*
X1117654D1*
X811262Y615748D2*
Y529756D1*
Y525344D1*
Y451181D1*
X1151420Y615748D2*
Y525344D1*
Y521776D1*
Y451181D1*
X460604Y565957D2*
X631201D1*
X673235D1*
X709436Y529756D1*
X811262D1*
Y525344D2*
X1151420D1*
Y521776D2*
X1365526D1*
X1387450Y543699D1*
Y908182D1*
X1271530Y1024102D1*
X631201Y899950D2*
Y565957D1*
X903530Y2174692D2*
X856201D1*
X1056386Y2174344D2*
X1173671D1*
X631201Y1906199D2*
X767535Y1769865D1*
X1087751D1*
X1164192Y1693424D1*
Y1608613D1*
X1160211Y1604633D1*
X1007077Y1519556D2*
X852840D1*
X852552Y1519844D1*
X910335Y1232262D2*
Y1197105D1*
X930512Y1176928D1*
X1007186D1*
X1011014Y1173100D1*
X906398Y1135580D2*
Y1128862D1*
X1008539D1*
X1306201Y831201D1*
Y624950D1*
X1343701Y587450D1*
X1097224Y1466835D2*
X1101005D1*
Y1445433D1*
X1100109Y1444537D1*
Y1442549D1*
X1060252Y1347749D2*
X1008499D1*
X1007077Y1346328D1*
X943597D1*
Y1337346D1*
X918701Y1312450D1*
X733766D1*
Y1346092D1*
X1097223Y1506205D2*
X1078829D1*
X1065056Y1492432D1*
Y1451719D1*
X1063878Y1450541D1*
X1062450Y1387450D2*
X1030672D1*
X1027701Y1390421D1*
X1007864D1*
X1007077Y1389635D1*
X941516D1*
X918701Y1412450D1*
X818701D1*
X634744Y1495282D2*
X726533D1*
X818701Y1587450D1*
X474951Y968699D2*
X474768D1*
Y780362D1*
X473735Y781395D1*
Y872407D1*
X1097220Y1565260D2*
X1009474D1*
X1007077Y1562864D1*
X851783D1*
X687845Y1398925D1*
X655409D1*
X655319Y1399016D1*
X634744D1*
X1010236Y1234290D2*
X1039178D1*
X1060017Y1213451D1*
Y1121134D1*
X1343701Y837450D1*
Y743699D1*
X1097222Y1525890D2*
X1057739D1*
X1052364Y1520514D1*
Y1501749D1*
X1037243Y1486629D1*
X1017457D1*
X1007077Y1476249D1*
X634744Y1302059D2*
X653659D1*
X827849Y1476249D1*
X1007077D1*
X964573Y1947190D2*
X978357D1*
X1184273Y1741274D1*
Y1596000D1*
X1187450Y1592823D1*
Y1356199D1*
X1015979Y1947217D2*
Y1944167D1*
X1206201Y1753945D1*
Y1612450D1*
X1218701Y1599950D1*
Y1333453D1*
X1206937Y1321689D1*
X1097219Y1604630D2*
Y1677177D1*
X1056615Y1717781D1*
X959239D1*
X946054Y1704596D1*
X737828D1*
X634744Y1601512D1*
X774950Y1993701D2*
X798902Y2017652D1*
Y2189421D1*
X818077Y2208597D1*
Y2210358D1*
X731201Y2012450D2*
X768701Y2049950D1*
Y2312449D1*
X824951Y2368699D1*
X980360Y2174521D2*
X987450D1*
Y2143167D1*
X1008088Y2083919D1*
X1171424Y1928478D1*
Y1831047D1*
X843701Y2406199D2*
X858298Y2391602D1*
X1060353D1*
X1146525Y2477774D1*
Y2608682D1*
X928415D2*
Y2497164D1*
X906201Y2474950D1*
X1097220Y1584945D2*
X1075829D1*
X1054526Y1606248D1*
X1007155D1*
X1007077Y1606171D1*
X1097223Y1486520D2*
X1119631D1*
X1131201Y1474950D1*
Y1434950D1*
X1153701Y1412450D1*
X1156201D1*
X1059521Y1303601D2*
X1007657D1*
X1007077Y1303021D1*
X990949Y582627D2*
Y583951D1*
X838115Y736785D1*
Y976810D1*
Y1136785D1*
X806201Y1168699D1*
Y1237450D1*
X837144Y976810D2*
X838115D1*
X950917Y582626D2*
Y592734D1*
X795479Y748172D1*
Y976112D1*
Y1155362D1*
X765466Y1185375D1*
Y1237450D1*
X756201D1*
X795915Y976112D2*
X795479D1*
X1221188Y1831199D2*
D16*
Y1801105D1*
X1237450Y1784843D1*
Y1674951D1*
X1160213Y1584948D2*
D15*
Y1565262D1*
X1160215Y1506207D2*
Y1486522D1*
X593701Y987450D2*
D16*
X705610Y1099360D1*
Y1241879D1*
X733169Y1269438D1*
X1149257D1*
X1202073D1*
X1237450Y1304815D1*
Y1674951D1*
X1007077Y1432942D2*
D15*
Y1422982D1*
X1070669D1*
X1149257Y1344394D1*
Y1269438D1*
X1160213Y1565262D2*
Y1545577D1*
X1160214D1*
X1142934D1*
X1131201Y1533844D1*
Y1517343D1*
X1142336Y1506207D1*
X1160215D1*
Y1486522D2*
Y1466837D1*
X1160217D1*
X1160213Y1584948D2*
X1145175D1*
X1130088Y1600034D1*
Y1671484D1*
X631161Y1856580D2*
Y1848657D1*
Y1856580D2*
X741930Y1745811D1*
X1061917D1*
X1130088Y1677640D1*
Y1671484D1*
X654715Y1704596D2*
X617636D1*
X603168Y1719064D1*
Y1828587D1*
X631161Y1856580D1*
D47*
X1237450Y1674951D3*
D3*
X943701Y2462450D3*
X1006201D3*
X906201Y2424950D3*
Y2474950D3*
X843701Y2406199D3*
X818701Y2437450D3*
X824951Y2368699D3*
X818077Y2210358D3*
X990949Y582627D3*
X950917Y582626D3*
X756201Y1237450D3*
X806201D3*
X964573Y1947190D3*
X1015979Y1947217D3*
X631161Y1856580D3*
X1063878Y1450541D3*
X774950Y1993701D3*
X731201Y2012450D3*
X631201Y1906199D3*
X1062450Y1387450D3*
X1100109Y1442549D3*
X1060252Y1347749D3*
X1059521Y1303601D3*
X1156201Y1412450D3*
X1130088Y1671484D3*
X634744Y1601512D3*
X1221188Y1831199D3*
X1271808D3*
X1117654Y2362844D3*
X1187450Y1356199D3*
X1206937Y1321689D3*
X795915Y976112D3*
X837144Y976810D3*
X593701Y987450D3*
X634744Y1399016D3*
Y1302059D3*
X631201Y899950D3*
X1010236Y1234290D3*
X1343701Y743699D3*
X1271530Y1024102D3*
X460604Y565957D3*
X818701Y1412450D3*
X733766Y1346092D3*
X634744Y1549004D3*
X1343701Y587450D3*
X906398Y1135580D3*
X634744Y1495282D3*
X473735Y872407D3*
X1171424Y1831047D3*
X818701Y1587450D3*
X474951Y968699D3*
X926093Y1649965D3*
X910335Y1367521D3*
X852552Y1519844D3*
X910335Y1232262D3*
X1160116Y2446636D2*
D17*
X1237847D1*
X1135248Y2421768D2*
X1237847D1*
X1110380Y2396899D2*
X1237847D1*
X1085513Y2372030D2*
X1237847D1*
X862833Y2347161D2*
X1237847D1*
X823271Y2322293D2*
X1237847D1*
X801059Y2297424D2*
X1237847D1*
X801059Y2272555D2*
X905003D1*
X1054581D2*
X1237847D1*
X838540Y2247686D2*
X880494D1*
X1079107D2*
X1237847D1*
X1093748Y2222818D2*
X1237847D1*
X1101284Y2197949D2*
X1237847D1*
X838647Y2173080D2*
X856290D1*
X1103257D2*
X1237847D1*
X831255Y2148211D2*
X859466D1*
X1100100D2*
X1237847D1*
X831255Y2123343D2*
X868168D1*
X1091416D2*
X1237847D1*
X831255Y2098474D2*
X883652D1*
X1075950D2*
X1237847D1*
X831255Y2073605D2*
X911965D1*
X1064736D2*
X1237847D1*
X831255Y2048736D2*
X999235D1*
X1090877D2*
X1237847D1*
X831255Y2023867D2*
X1025377D1*
X1117001D2*
X1251878D1*
X824724Y1998999D2*
X1051500D1*
X1143143D2*
X1276745D1*
X813959Y1974130D2*
X930606D1*
X1049969D2*
X1077642D1*
X1169266D2*
X1283133D1*
X684112Y1949261D2*
X920702D1*
X1059855D2*
X1103766D1*
X1195372D2*
X1283133D1*
X655853Y1924392D2*
X927485D1*
X1080489D2*
X1129907D1*
X1203787D2*
X1283133D1*
X627595Y1899524D2*
X981293D1*
X1105357D2*
X1139058D1*
X1203787D2*
X1283133D1*
X670943Y1874655D2*
X1006161D1*
X1203787D2*
X1283133D1*
X682695Y1849786D2*
X1031028D1*
X1260717D2*
X1283133D1*
X542836Y1824917D2*
X570814D1*
X707562D2*
X1055896D1*
X1264629D2*
X1283133D1*
X514577Y1800049D2*
X570814D1*
X732430D2*
X1080764D1*
X1270137D2*
X1283133D1*
X486319Y1775180D2*
X570814D1*
X1069831D2*
X1105632D1*
X488256Y1750311D2*
X570814D1*
X1102145D2*
X1130499D1*
X488256Y1725442D2*
X570814D1*
X1127013D2*
X1151904D1*
X488328Y1700573D2*
X577219D1*
X488328Y1675705D2*
X606608D1*
X488328Y1650836D2*
X639335D1*
X728806D2*
X953070D1*
X488328Y1625967D2*
X598803D1*
X703938D2*
X800957D1*
X836441D2*
X945193D1*
X488328Y1601098D2*
X590819D1*
X679070D2*
X777094D1*
X860321D2*
X945193D1*
X488328Y1576230D2*
X599431D1*
X670064D2*
X762740D1*
X488328Y1551361D2*
X590891D1*
X678604D2*
X737873D1*
X488328Y1526492D2*
X597476D1*
X672019D2*
X713005D1*
X860142D2*
X945193D1*
X488328Y1501623D2*
X591304D1*
X488328Y1476755D2*
X595197D1*
X488328Y1451886D2*
X696067D1*
X488328Y1427017D2*
X601710D1*
X488328Y1402148D2*
X590945D1*
X488328Y1377280D2*
X596973D1*
X773607D2*
X794318D1*
X843097D2*
X909148D1*
X488328Y1352411D2*
X659286D1*
X777214D2*
X911857D1*
X488328Y1327542D2*
X599593D1*
X488328Y1302673D2*
X590819D1*
X488328Y1277804D2*
X598660D1*
X673580D2*
X691241D1*
X1260735D2*
X1283133D1*
X488328Y1252936D2*
X671164D1*
X1235867D2*
X1283133D1*
X488328Y1228067D2*
X669316D1*
X849054D2*
X953070D1*
X1088563D2*
X1283133D1*
X488328Y1203198D2*
X669316D1*
X838558D2*
X953070D1*
X1092385D2*
X1283133D1*
X488256Y1178329D2*
X669316D1*
X841303D2*
X953070D1*
X1092385D2*
X1283133D1*
X488256Y1153461D2*
X669316D1*
X1092385D2*
X1283133D1*
X488256Y1128592D2*
X669316D1*
X741904D2*
X763117D1*
X1097283D2*
X1283133D1*
X443060Y1103723D2*
X659681D1*
X741904D2*
X763117D1*
X1122168D2*
X1283133D1*
X443060Y1078854D2*
X634813D1*
X734978D2*
X763117D1*
X870477D2*
X1013822D1*
X1147036D2*
X1283133D1*
X443060Y1053986D2*
X609945D1*
X710541D2*
X763117D1*
X870477D2*
X1038690D1*
X1171904D2*
X1283133D1*
X443060Y1029117D2*
X585060D1*
X685673D2*
X763117D1*
X870477D2*
X1063557D1*
X1196772D2*
X1283133D1*
X498717Y1004248D2*
X553338D1*
X660805D2*
X763009D1*
X870674D2*
X1088425D1*
X1221639D2*
X1525261D1*
X517484Y979379D2*
X550575D1*
X636835D2*
X752119D1*
X880991D2*
X929422D1*
X1032978D2*
X1113293D1*
X1246507D2*
X1525261D1*
X516372Y954510D2*
X566077D1*
X621315D2*
X758075D1*
X874550D2*
X893179D1*
X1069221D2*
X1138161D1*
X1271375D2*
X1525261D1*
X507131Y929642D2*
X763117D1*
X1088419D2*
X1163028D1*
X1296243D2*
X1525261D1*
X507131Y904773D2*
X763117D1*
X1099364D2*
X1187896D1*
X1321110D2*
X1525261D1*
X516982Y879904D2*
X763117D1*
X1104334D2*
X1212764D1*
X1345978D2*
X1525261D1*
X513842Y855035D2*
X763117D1*
X1104083D2*
X1237632D1*
X1370343D2*
X1525261D1*
X507131Y830167D2*
X763117D1*
X1098575D2*
X1262499D1*
X1376067D2*
X1525261D1*
X507131Y805298D2*
X763117D1*
X1086948D2*
X1273839D1*
X1376067D2*
X1525261D1*
X507131Y780429D2*
X763117D1*
X870477D2*
X895691D1*
X1066709D2*
X1273839D1*
X1376067D2*
X1525261D1*
X443060Y755560D2*
X455643D1*
X493908D2*
X763117D1*
X870477D2*
X935325D1*
X1027075D2*
X1273839D1*
X1385899D2*
X1525261D1*
X443060Y730692D2*
X768769D1*
X888939D2*
X1273839D1*
X1385522D2*
X1525261D1*
X443060Y705823D2*
X793098D1*
X913807D2*
X1273839D1*
X1362969D2*
X1525261D1*
X443060Y680954D2*
X795520D1*
X938675D2*
X1135685D1*
X1167167D2*
X1273839D1*
X1338568D2*
X1525261D1*
X443060Y656085D2*
X768446D1*
X963542D2*
X1108610D1*
X1194242D2*
X1273839D1*
X1338568D2*
X1525261D1*
X443060Y631217D2*
X765127D1*
X988410D2*
X1076386D1*
X1197561D2*
X1273839D1*
X1344668D2*
X1525261D1*
X443060Y606348D2*
X765127D1*
X1027416D2*
X1055286D1*
X1197561D2*
X1280334D1*
X1383064D2*
X1525261D1*
X443060Y581479D2*
X766436D1*
X1034862D2*
X1056757D1*
X1196251D2*
X1300214D1*
X1387191D2*
X1525261D1*
X443060Y556610D2*
X783392D1*
X839132D2*
X916181D1*
X1025694D2*
X1123556D1*
X1179278D2*
X1313545D1*
X1373860D2*
X1525261D1*
X443060Y531741D2*
X1525261D1*
X443060Y506873D2*
X787249D1*
X835274D2*
X1127413D1*
X1175421D2*
X1525261D1*
X443060Y482004D2*
X482252D1*
X530707D2*
X549176D1*
X597631D2*
X767136D1*
X855387D2*
X1107300D1*
X1195552D2*
X1364769D1*
X1413225D2*
X1431693D1*
X1480149D2*
X1525261D1*
X443060Y457135D2*
X465171D1*
X614712D2*
X765127D1*
X857397D2*
X1105273D1*
X1197561D2*
X1347688D1*
X1497230D2*
X1525261D1*
X443060Y432266D2*
X467862D1*
X612021D2*
X765145D1*
X857379D2*
X1105291D1*
X1197543D2*
X1350380D1*
X1494539D2*
X1525261D1*
X1195062Y636417D2*
Y592126D1*
X1194954Y589066D1*
X1194633Y586022D1*
X1194098Y583007D1*
X1193354Y580038D1*
X1192403Y577128D1*
X1191251Y574291D1*
X1189903Y571543D1*
X1188365Y568895D1*
X1186646Y566362D1*
X1184753Y563956D1*
X1182696Y561689D1*
X1180485Y559571D1*
X1178131Y557613D1*
X1175646Y555826D1*
X1173041Y554217D1*
X1170330Y552794D1*
X1167526Y551565D1*
X1164643Y550536D1*
X1161695Y549711D1*
X1158696Y549095D1*
X1155661Y548691D1*
X1152606Y548500D1*
X1149544Y548525D1*
X1146492Y548763D1*
X1143464Y549216D1*
X1140475Y549879D1*
X1137540Y550750D1*
X1134674Y551825D1*
X1131890Y553098D1*
X1129202Y554563D1*
X1126623Y556214D1*
X1124166Y558040D1*
X1121844Y560035D1*
X1119666Y562187D1*
X1117604Y564542D1*
X1117257Y564294D1*
X1109011Y559920D1*
X1099958Y557646D1*
X1090623Y557605D1*
X1081550Y559798D1*
X1073266Y564100D1*
X1066252Y570259D1*
X1060915Y577918D1*
X1057567Y586631D1*
X1056401Y595892D1*
X1057485Y605163D1*
X1060756Y613906D1*
X1066025Y621611D1*
X1072985Y627832D1*
X1081231Y632206D1*
X1090284Y634480D1*
X1099618Y634521D1*
X1107779Y632548D1*
X1107778Y639370D1*
X1107886Y642430D1*
X1108207Y645474D1*
X1108741Y648489D1*
X1109486Y651458D1*
X1110436Y654369D1*
X1111589Y657205D1*
X1112937Y659953D1*
X1114475Y662601D1*
X1116194Y665134D1*
X1118087Y667540D1*
X1120144Y669807D1*
X1122355Y671925D1*
X1124709Y673883D1*
X1127194Y675670D1*
X1129799Y677280D1*
X1132510Y678702D1*
X1135314Y679931D1*
X1138197Y680960D1*
X1141145Y681785D1*
X1144144Y682401D1*
X1147179Y682805D1*
X1150234Y682996D1*
X1153296Y682972D1*
X1156348Y682733D1*
X1159376Y682281D1*
X1162365Y681617D1*
X1165299Y680746D1*
X1168166Y679671D1*
X1170950Y678398D1*
X1173638Y676933D1*
X1176217Y675283D1*
X1178674Y673456D1*
X1180996Y671461D1*
X1183173Y669309D1*
X1185194Y667009D1*
X1187049Y664573D1*
X1188728Y662013D1*
X1190224Y659342D1*
X1191528Y656572D1*
X1192636Y653718D1*
X1193540Y650793D1*
X1194237Y647812D1*
X1194724Y644790D1*
X1194997Y641740D1*
X1195062Y639370D1*
Y636417D1*
X947688Y1506118D2*
Y1533002D1*
X864144Y1533001D1*
X837268Y1506116D1*
X947684Y1506112D1*
X947688Y1592732D2*
Y1646859D1*
X955555D1*
X955562Y1653084D1*
X894538Y1653080D1*
Y1674727D1*
X762837Y1674733D1*
X750197D1*
X676157Y1600693D1*
X675155Y1592401D1*
X672114Y1583637D1*
X667200Y1575769D1*
X666746Y1575313D1*
X667063Y1574918D1*
X672019Y1567076D1*
X675106Y1558329D1*
X676169Y1549004D1*
X675155Y1539893D1*
X672114Y1531129D1*
X668376Y1525144D1*
X714157D1*
X777281Y1588262D1*
X778290Y1596561D1*
X781331Y1605325D1*
X786245Y1613193D1*
X792787Y1619769D1*
X800629Y1624725D1*
X809376Y1627812D1*
X818591Y1628875D1*
X827812Y1627861D1*
X836576Y1624820D1*
X844443Y1619906D1*
X851020Y1613364D1*
X855976Y1605522D1*
X859063Y1596775D1*
X859529Y1592734D1*
X906343Y1592726D1*
X947690D1*
X709255Y1293323D2*
X681711Y1265779D1*
X678370Y1261888D1*
X673998Y1253840D1*
X671948Y1244906D1*
X671811Y1241855D1*
Y1113360D1*
X586509Y1028058D1*
X584376Y1027812D1*
X575629Y1024725D1*
X567787Y1019769D1*
X561245Y1013193D1*
X556331Y1005325D1*
X553290Y996561D1*
X552276Y987341D1*
X553339Y978125D1*
X556426Y969378D1*
X561382Y961536D1*
X567958Y954994D1*
X575826Y950080D1*
X584590Y947039D1*
X593810Y946025D1*
X603025Y947088D1*
X611773Y950175D1*
X619614Y955131D1*
X626156Y961708D1*
X631071Y969575D1*
X634112Y978339D1*
X634327Y980270D1*
X729492Y1075442D1*
X734538Y1081878D1*
X738169Y1090286D1*
X739409Y1099360D1*
Y1170793D1*
X742264Y1166578D1*
X744366Y1164243D1*
X765617Y1142991D1*
X765612Y1004018D1*
X763459Y1001854D1*
X758545Y993987D1*
X755504Y985223D1*
X754490Y976002D1*
X755553Y966787D1*
X758640Y958039D1*
X763596Y950198D1*
X765619Y948185D1*
X765617Y748172D1*
X765680Y746222D1*
X767670Y737290D1*
X772277Y729375D1*
X774381Y727038D1*
X819127Y682294D1*
X816190Y682733D1*
X813138Y682972D1*
X810077Y682996D1*
X807021Y682805D1*
X803987Y682401D1*
X800988Y681785D1*
X798039Y680960D1*
X795156Y679931D1*
X792352Y678702D1*
X789641Y677280D1*
X787037Y675670D1*
X784551Y673883D1*
X782198Y671925D1*
X779987Y669807D1*
X777930Y667540D1*
X776037Y665134D1*
X774317Y662601D1*
X772780Y659953D1*
X771431Y657205D1*
X770279Y654369D1*
X769328Y651458D1*
X768584Y648489D1*
X768050Y645474D1*
X767728Y642430D1*
X767621Y639370D1*
Y592126D1*
X767685Y589756D1*
X767959Y586706D1*
X768445Y583684D1*
X769142Y580703D1*
X770047Y577778D1*
X771154Y574924D1*
X772459Y572154D1*
X773954Y569483D1*
X775634Y566923D1*
X777488Y564487D1*
X779509Y562187D1*
X781686Y560035D1*
X784009Y558040D1*
X786465Y556214D1*
X789044Y554563D1*
X791732Y553098D1*
X794516Y551825D1*
X797383Y550750D1*
X800318Y549879D1*
X803307Y549216D1*
X806334Y548763D1*
X809387Y548525D1*
X812448Y548500D1*
X815504Y548691D1*
X818538Y549095D1*
X821537Y549711D1*
X824486Y550536D1*
X827369Y551565D1*
X830173Y552794D1*
X832884Y554217D1*
X835488Y555826D1*
X837974Y557613D1*
X840327Y559571D1*
X842538Y561689D1*
X844595Y563956D1*
X845138Y564599D1*
X845707Y564100D1*
X853991Y559798D1*
X863064Y557605D1*
X872399Y557646D1*
X881452Y559920D1*
X889698Y564294D1*
X896657Y570515D1*
X901926Y578220D1*
X905198Y586963D1*
X906267Y595152D1*
X910424Y590990D1*
X909492Y582517D1*
X910555Y573301D1*
X913642Y564554D1*
X918598Y556712D1*
X925175Y550170D1*
X933042Y545256D1*
X941806Y542215D1*
X951027Y541201D1*
X960242Y542264D1*
X968990Y545351D1*
X971130Y546471D1*
X973074Y545257D1*
X981838Y542217D1*
X991058Y541202D1*
X1000273Y542265D1*
X1009021Y545352D1*
X1016862Y550308D1*
X1023404Y556885D1*
X1028319Y564752D1*
X1031360Y573516D1*
X1032374Y582737D1*
X1031311Y591952D1*
X1028224Y600700D1*
X1023268Y608541D1*
X1016691Y615083D1*
X1008824Y619997D1*
X1000060Y623038D1*
X993135Y623997D1*
X867978Y749160D1*
X867980Y825752D1*
X870385Y819702D1*
X874407Y811461D1*
X879041Y803549D1*
X884260Y796009D1*
X890034Y788886D1*
X896331Y782219D1*
X903114Y776048D1*
X910344Y770408D1*
X917980Y765331D1*
X925978Y760845D1*
X934292Y756978D1*
X942875Y753750D1*
X951678Y751181D1*
X960649Y749285D1*
X969739Y748072D1*
X978894Y747551D1*
X988062Y747723D1*
X997191Y748589D1*
X1006228Y750142D1*
X1015122Y752374D1*
X1023822Y755273D1*
X1032277Y758821D1*
X1040440Y762998D1*
X1048264Y767781D1*
X1055704Y773142D1*
X1062716Y779050D1*
X1069262Y785472D1*
X1075304Y792370D1*
X1080806Y799706D1*
X1085738Y807437D1*
X1090071Y815518D1*
X1093781Y823904D1*
X1096846Y832547D1*
X1099248Y841396D1*
X1100974Y850402D1*
X1102014Y859513D1*
X1102362Y868690D1*
X1102016Y877839D1*
X1100978Y886950D1*
X1099254Y895957D1*
X1096854Y904807D1*
X1093791Y913450D1*
X1090084Y921837D1*
X1085753Y929919D1*
X1080823Y937651D1*
X1075322Y944988D1*
X1069282Y951888D1*
X1062738Y958311D1*
X1055726Y964221D1*
X1048288Y969583D1*
X1040465Y974368D1*
X1032303Y978548D1*
X1023849Y982098D1*
X1015150Y984998D1*
X1006256Y987233D1*
X997219Y988788D1*
X988090Y989656D1*
X978922Y989830D1*
X969767Y989311D1*
X960677Y988101D1*
X951705Y986207D1*
X942902Y983639D1*
X934318Y980414D1*
X926003Y976548D1*
X918004Y972065D1*
X910367Y966989D1*
X903136Y961351D1*
X896351Y955181D1*
X890053Y948516D1*
X884277Y941394D1*
X879056Y933856D1*
X874420Y925944D1*
X870396Y917705D1*
X867976Y911622D1*
X867984Y949442D1*
X869600Y951067D1*
X874515Y958935D1*
X877555Y967698D1*
X878569Y976919D1*
X877506Y986134D1*
X874420Y994882D1*
X869464Y1002723D1*
X867980Y1004199D1*
Y1120745D1*
X869122Y1117508D1*
X874078Y1109666D1*
X880655Y1103124D1*
X888523Y1098210D1*
X897286Y1095169D1*
X906507Y1094155D1*
X915722Y1095218D1*
X924470Y1098305D1*
X925565Y1098997D1*
X996170Y1099000D1*
X1276338Y818833D1*
Y624978D1*
X1276770Y619894D1*
X1279682Y611219D1*
X1285085Y603834D1*
X1302366Y586558D1*
X1303339Y578125D1*
X1306426Y569378D1*
X1311382Y561536D1*
X1317958Y554994D1*
X1325826Y550080D1*
X1334590Y547039D1*
X1343810Y546025D1*
X1353025Y547088D1*
X1361773Y550175D1*
X1369614Y555131D1*
X1376156Y561708D1*
X1381071Y569575D1*
X1384112Y578339D1*
X1385126Y587560D1*
X1384063Y596775D1*
X1380976Y605522D1*
X1376020Y613364D1*
X1369443Y619906D1*
X1361576Y624820D1*
X1352812Y627861D1*
X1344509Y628873D1*
X1336063Y637318D1*
X1336057Y703127D1*
X1343810Y702274D1*
X1353025Y703337D1*
X1361773Y706424D1*
X1369614Y711380D1*
X1376156Y717957D1*
X1381071Y725824D1*
X1384112Y734588D1*
X1385126Y743809D1*
X1384063Y753024D1*
X1380976Y761772D1*
X1376020Y769613D1*
X1373560Y772060D1*
X1373563Y837450D1*
X1373499Y839400D1*
X1371510Y848332D1*
X1366903Y856247D1*
X1364804Y858579D1*
X1089879Y1133501D1*
Y1213451D1*
X1089816Y1215402D1*
X1087826Y1224333D1*
X1083219Y1232249D1*
X1081119Y1234581D1*
X1080061Y1235639D1*
X1202048D1*
X1210167Y1236622D1*
X1218680Y1240000D1*
X1225973Y1245539D1*
X1261333Y1280898D1*
X1266378Y1287334D1*
X1270009Y1295741D1*
X1271249Y1304815D1*
X1271245Y1651352D1*
X1274820Y1657076D1*
X1277861Y1665840D1*
X1278875Y1674951D1*
X1278813Y1677225D1*
X1277270Y1686372D1*
X1273730Y1694947D1*
X1271249Y1698902D1*
Y1784843D1*
X1270860Y1789956D1*
X1268261Y1798738D1*
X1263393Y1806505D1*
X1261336Y1808756D1*
X1257872Y1812226D1*
X1258558Y1813324D1*
X1261598Y1822088D1*
X1262613Y1831309D1*
X1261550Y1840524D1*
X1258463Y1849272D1*
X1253507Y1857113D1*
X1246930Y1863655D1*
X1239063Y1868570D1*
X1230299Y1871610D1*
X1221078Y1872625D1*
X1211863Y1871562D1*
X1203115Y1868475D1*
X1201285Y1867318D1*
X1201286Y1928478D1*
X1201222Y1930428D1*
X1199233Y1939359D1*
X1194626Y1947275D1*
X1191999Y1950121D1*
X1054929Y2080562D1*
X1059492Y2084190D1*
X1069548Y2094078D1*
X1071608Y2096249D1*
X1074691Y2100153D1*
X1082782Y2111690D1*
X1086735Y2118588D1*
X1092602Y2131400D1*
X1095240Y2138900D1*
X1098689Y2152562D1*
X1099925Y2160417D1*
X1100842Y2174478D1*
X1100635Y2182426D1*
X1099005Y2196296D1*
X1097352Y2204180D1*
X1093193Y2217665D1*
X1090167Y2225017D1*
X1083643Y2237507D1*
X1079335Y2244190D1*
X1070657Y2255292D1*
X1065210Y2261084D1*
X1054664Y2270429D1*
X1048258Y2275139D1*
X1036194Y2282419D1*
X1029040Y2285890D1*
X1015857Y2290865D1*
X1008193Y2292983D1*
X994327Y2295487D1*
X986406Y2296182D1*
X972315Y2296133D1*
X964400Y2295381D1*
X950551Y2292780D1*
X942903Y2290606D1*
X929762Y2285544D1*
X923747Y2282681D1*
X916632Y2278343D1*
X910613Y2274653D1*
X904241Y2269897D1*
X893761Y2260478D1*
X888356Y2254646D1*
X879755Y2243485D1*
X875496Y2236771D1*
X869060Y2224236D1*
X866087Y2216861D1*
X862028Y2203368D1*
X860441Y2195577D1*
X858893Y2181571D1*
X858743Y2173622D1*
X859758Y2159567D1*
X861051Y2151722D1*
X864595Y2138084D1*
X867288Y2130603D1*
X873244Y2117833D1*
X877247Y2110963D1*
X885418Y2099483D1*
X890600Y2093452D1*
X900624Y2083729D1*
X906886Y2078661D1*
X918628Y2070835D1*
X925618Y2067046D1*
X938565Y2061484D1*
X946126Y2059024D1*
X959858Y2055901D1*
X968273Y2054832D1*
X977416Y2055530D1*
X986211Y2058124D1*
X990005Y2059904D1*
X1141562Y1915681D1*
X1141563Y1860814D1*
X1057179Y1945197D1*
X1057404Y1947326D1*
X1056341Y1956541D1*
X1053254Y1965289D1*
X1048298Y1973130D1*
X1041722Y1979672D1*
X1033854Y1984587D1*
X1025090Y1987627D1*
X1015870Y1988642D1*
X1006654Y1987579D1*
X997907Y1984492D1*
X990247Y1979689D1*
X982449Y1984560D1*
X973685Y1987601D1*
X964464Y1988615D1*
X955249Y1987552D1*
X946501Y1984465D1*
X938660Y1979509D1*
X932118Y1972933D1*
X927203Y1965065D1*
X924163Y1956302D1*
X923148Y1947081D1*
X924211Y1937866D1*
X927298Y1929118D1*
X932254Y1921277D1*
X938831Y1914735D1*
X946698Y1909820D1*
X955462Y1906779D1*
X964683Y1905765D1*
X973898Y1906828D1*
X975820Y1907506D1*
X1007320Y1875995D1*
X1154411Y1728907D1*
X1154409Y1704828D1*
X1147963Y1708854D1*
X1139199Y1711895D1*
X1137930Y1712035D1*
X1083033Y1766927D1*
X1081609Y1768261D1*
X1073887Y1773169D1*
X1065032Y1775509D1*
X1061894Y1775673D1*
X754300D1*
X672496Y1857472D1*
X671524Y1865905D1*
X668437Y1874652D1*
X663481Y1882494D1*
X656904Y1889036D1*
X649036Y1893950D1*
X640273Y1896991D1*
X631052Y1898005D1*
X622224Y1896987D1*
X711935Y1975949D1*
X713326Y1975080D1*
X722090Y1972039D1*
X731310Y1971025D1*
X739993Y1971961D1*
X742631Y1967787D1*
X749208Y1961245D1*
X757075Y1956331D1*
X765839Y1953290D1*
X775060Y1952276D1*
X784275Y1953339D1*
X793022Y1956426D1*
X800864Y1961382D1*
X807406Y1967958D1*
X812320Y1975826D1*
X815361Y1984590D1*
X816273Y1992784D1*
X820003Y1996522D1*
X823288Y2000417D1*
X827362Y2008610D1*
X828764Y2017652D1*
X828760Y2170475D1*
X836150Y2173083D1*
X843991Y2178039D1*
X850533Y2184616D1*
X855448Y2192483D1*
X858488Y2201247D1*
X859502Y2210468D1*
X858440Y2219683D1*
X855353Y2228431D1*
X850397Y2236272D1*
X843820Y2242814D1*
X835952Y2247728D1*
X827189Y2250769D1*
X817968Y2251783D1*
X808753Y2250720D1*
X800005Y2247633D1*
X798563Y2246903D1*
X798569Y2300085D1*
X825844Y2327365D1*
X834276Y2328337D1*
X843024Y2331424D1*
X850865Y2336380D1*
X857407Y2342957D1*
X862322Y2350824D1*
X865362Y2359588D1*
X865601Y2361733D1*
X885814Y2361740D1*
X1060326D1*
X1065410Y2362171D1*
X1074084Y2365084D1*
X1081469Y2370487D1*
X1167623Y2456640D1*
X1170911Y2460539D1*
X1174985Y2468732D1*
X1175701Y2471428D1*
X1240354Y2471491D1*
Y2052247D1*
X1240926Y2039323D1*
X1244015Y2034221D1*
X1285630Y1992614D1*
Y1042259D1*
X1285728Y1031653D1*
X1287865Y1026085D1*
X1292338Y1022140D1*
X1298130Y1020718D1*
X1527756Y1020709D1*
X1527751Y427608D1*
X1489204Y427602D1*
X1491431Y430997D1*
X1494572Y439664D1*
X1495630Y448822D1*
X1494547Y457977D1*
X1491383Y466636D1*
X1486306Y474332D1*
X1479592Y480649D1*
X1471602Y485248D1*
X1462767Y487880D1*
X1453563Y488403D1*
X1444487Y486790D1*
X1436027Y483128D1*
X1428639Y477613D1*
X1422723Y470543D1*
X1422307Y469890D1*
X1419377Y474332D1*
X1412663Y480649D1*
X1404673Y485248D1*
X1395838Y487880D1*
X1386634Y488403D1*
X1377558Y486790D1*
X1369098Y483128D1*
X1361710Y477613D1*
X1355794Y470543D1*
X1351668Y462299D1*
X1349554Y453325D1*
X1349566Y444107D1*
X1351704Y435139D1*
X1355399Y427608D1*
X1194659Y427607D1*
X1194954Y430405D1*
X1195062Y433465D1*
Y468898D1*
X1194997Y471268D1*
X1194724Y474317D1*
X1194237Y477340D1*
X1193540Y480321D1*
X1192636Y483246D1*
X1191528Y486100D1*
X1190224Y488869D1*
X1188728Y491541D1*
X1187049Y494101D1*
X1185194Y496536D1*
X1183173Y498836D1*
X1180996Y500989D1*
X1178674Y502983D1*
X1176217Y504810D1*
X1173638Y506460D1*
X1170950Y507925D1*
X1168166Y509199D1*
X1165300Y510273D1*
X1162365Y511145D1*
X1159376Y511808D1*
X1156348Y512260D1*
X1153296Y512499D1*
X1150234Y512523D1*
X1147179Y512333D1*
X1144144Y511929D1*
X1141145Y511313D1*
X1138197Y510488D1*
X1135314Y509459D1*
X1132510Y508230D1*
X1129799Y506807D1*
X1127194Y505198D1*
X1124709Y503410D1*
X1122355Y501453D1*
X1120144Y499335D1*
X1118087Y497067D1*
X1116194Y494661D1*
X1114475Y492128D1*
X1112937Y489481D1*
X1111589Y486732D1*
X1110436Y483896D1*
X1109486Y480986D1*
X1108741Y478016D1*
X1108207Y475002D1*
X1107886Y471957D1*
X1107778Y468898D1*
Y433465D1*
X1107843Y431094D1*
X1108175Y427608D1*
X854501Y427607D1*
X854797Y430405D1*
X854904Y433465D1*
Y468898D1*
X854840Y471268D1*
X854566Y474317D1*
X854080Y477340D1*
X853383Y480321D1*
X852478Y483246D1*
X851371Y486100D1*
X850066Y488869D1*
X848571Y491541D1*
X846891Y494101D1*
X845037Y496536D1*
X843016Y498836D1*
X840839Y500989D1*
X838516Y502983D1*
X836060Y504810D1*
X833481Y506460D1*
X830793Y507925D1*
X828009Y509199D1*
X825142Y510273D1*
X822207Y511145D1*
X819218Y511808D1*
X816190Y512260D1*
X813138Y512499D1*
X810077Y512523D1*
X807021Y512333D1*
X803987Y511929D1*
X800988Y511313D1*
X798039Y510488D1*
X795156Y509459D1*
X792352Y508230D1*
X789641Y506807D1*
X787037Y505198D1*
X784551Y503410D1*
X782198Y501453D1*
X779987Y499335D1*
X777930Y497067D1*
X776037Y494661D1*
X774317Y492128D1*
X772780Y489481D1*
X771431Y486732D1*
X770279Y483896D1*
X769328Y480986D1*
X768584Y478016D1*
X768050Y475002D1*
X767728Y471957D1*
X767621Y468898D1*
Y433465D1*
X767685Y431094D1*
X767959Y428045D1*
X768011Y427608D1*
X606684Y427602D1*
X608911Y430997D1*
X612052Y439664D1*
X613110Y448822D1*
X612028Y457977D1*
X608863Y466636D1*
X603787Y474332D1*
X597073Y480649D1*
X589083Y485248D1*
X580248Y487880D1*
X571044Y488403D1*
X561967Y486790D1*
X553507Y483128D1*
X546120Y477613D1*
X540203Y470543D1*
X539974Y470084D1*
X539787Y469890D1*
X536858Y474332D1*
X530144Y480649D1*
X522154Y485248D1*
X513318Y487880D1*
X504114Y488403D1*
X495038Y486790D1*
X486578Y483128D1*
X479191Y477613D1*
X473274Y470543D1*
X469148Y462299D1*
X467034Y453325D1*
X467046Y444107D1*
X469184Y435139D1*
X472980Y427606D1*
X440551D1*
X440549Y847864D1*
X441416Y846493D1*
X443876Y844046D1*
X443873Y781395D1*
X443936Y779445D1*
X445926Y770514D1*
X450533Y762598D1*
X452633Y760266D1*
X453584Y759315D1*
X458338Y755426D1*
X466660Y751621D1*
X475743Y750516D1*
X484735Y752212D1*
X492791Y756552D1*
X499154Y763127D1*
X503228Y771320D1*
X504630Y780362D1*
X504625Y845091D1*
X506191Y846664D1*
X511105Y854532D1*
X514146Y863296D1*
X515160Y872516D1*
X514097Y881731D1*
X511010Y890479D1*
X506054Y898320D1*
X504630Y900006D1*
X504628Y940163D1*
X507407Y942957D1*
X512322Y950824D1*
X515362Y959588D1*
X516376Y968809D1*
X515314Y978024D1*
X512227Y986772D1*
X507271Y994613D1*
X500694Y1001155D1*
X492826Y1006070D1*
X484063Y1009110D1*
X474842Y1010125D1*
X465627Y1009062D1*
X456879Y1005975D1*
X449038Y1001019D1*
X442496Y994442D1*
X440551Y991777D1*
X440554Y1117647D1*
X485759D1*
Y1191807D1*
X485827Y1196604D1*
Y1689608D1*
X485759Y1699879D1*
Y1760048D1*
X466638Y1760052D1*
X592547Y1870869D1*
X590751Y1865691D1*
X589850Y1857506D1*
X582052Y1849702D1*
X580718Y1848278D1*
X575810Y1840556D1*
X573470Y1831701D1*
X573306Y1828562D1*
Y1719064D1*
X573369Y1717114D1*
X575359Y1708183D1*
X579966Y1700267D1*
X582066Y1697935D1*
X596521Y1683480D1*
X597945Y1682146D1*
X605667Y1677237D1*
X609105Y1675983D1*
Y1653080D1*
X644081Y1653081D1*
X633852Y1642847D1*
X625419Y1641874D1*
X616672Y1638787D1*
X608830Y1633831D1*
X602288Y1627254D1*
X597374Y1619387D1*
X594333Y1610623D1*
X593319Y1601402D1*
X594382Y1592187D1*
X597469Y1583440D1*
X602425Y1575598D1*
X602727Y1575298D1*
X602742Y1575202D1*
X602288Y1574746D1*
X597374Y1566879D1*
X594333Y1558115D1*
X593319Y1548894D1*
X594382Y1539679D1*
X597469Y1530932D1*
X602425Y1523090D1*
X603291Y1522033D1*
X602288Y1521025D1*
X597374Y1513157D1*
X594333Y1504393D1*
X593319Y1495173D1*
X594382Y1485958D1*
X597469Y1477210D1*
X602425Y1469368D1*
X609002Y1462827D1*
X616869Y1457912D1*
X625633Y1454871D1*
X634854Y1453857D1*
X644069Y1454920D1*
X652816Y1458007D1*
X660658Y1462963D1*
X663447Y1465420D1*
X712104Y1465416D1*
X675477Y1428787D1*
X663191Y1428782D1*
X660487Y1431471D1*
X652619Y1436386D1*
X643855Y1439427D1*
X634635Y1440441D1*
X625419Y1439378D1*
X616672Y1436291D1*
X608830Y1431335D1*
X602288Y1424758D1*
X597374Y1416891D1*
X594333Y1408127D1*
X593319Y1398906D1*
X594382Y1389691D1*
X597469Y1380943D1*
X602425Y1373102D1*
X609002Y1366560D1*
X616869Y1361646D1*
X625633Y1358605D1*
X634854Y1357591D1*
X644069Y1358654D1*
X652816Y1361741D1*
X660658Y1366697D1*
X663015Y1369066D1*
X678430Y1369062D1*
X649786Y1340412D1*
X643855Y1342470D1*
X634635Y1343484D1*
X625419Y1342421D1*
X616672Y1339334D1*
X608830Y1334378D1*
X602288Y1327802D1*
X597374Y1319934D1*
X594333Y1311170D1*
X593319Y1301950D1*
X594382Y1292734D1*
X597469Y1283987D1*
X602425Y1276145D1*
X609002Y1269603D1*
X616869Y1264689D1*
X625633Y1261648D1*
X634854Y1260634D1*
X644069Y1261697D1*
X652816Y1264784D1*
X660658Y1269740D1*
X665571Y1274679D1*
X672442Y1278846D1*
X680350Y1286519D1*
X674845Y1281014D1*
X703993Y1310161D1*
X705962Y1301561D1*
X709255Y1293323D1*
X847061Y1382591D2*
X844614Y1380131D1*
X836773Y1375175D1*
X828025Y1372088D1*
X818810Y1371025D1*
X809590Y1372039D1*
X800826Y1375080D1*
X792958Y1379994D1*
X786382Y1386536D1*
X784054Y1390220D1*
X765969Y1372137D1*
X770897Y1364459D1*
X774053Y1355736D1*
X775189Y1346530D1*
X775192Y1346092D1*
X774771Y1342310D1*
X906331Y1342312D1*
X913952Y1349933D1*
X915137Y1355370D1*
X919217Y1363570D1*
X921824Y1367185D1*
X920400Y1368519D1*
X906329Y1382590D1*
X847418Y1382588D1*
X866483Y1146121D2*
X869027Y1153455D1*
X873942Y1161323D1*
X880484Y1167899D1*
X888325Y1172855D1*
X897073Y1175942D1*
X906288Y1177005D1*
X915509Y1175991D1*
X924273Y1172950D1*
X932140Y1168036D1*
X938717Y1161494D1*
X940464Y1158729D1*
X955562Y1158723D1*
Y1232489D1*
X968848D1*
X968811Y1234181D1*
X968971Y1235630D1*
X910553Y1235639D1*
X847585D1*
X846612Y1228339D1*
X843571Y1219575D1*
X838656Y1211708D1*
X836069Y1209106D1*
X836063Y1181068D1*
X859231Y1157901D1*
X864637Y1150507D1*
X866483Y1146121D1*
X1271244Y1698459D2*
X1273730Y1694947D1*
X1277270Y1686372D1*
X1278813Y1677225D1*
X1278875Y1674951D1*
X1277861Y1665840D1*
X1274820Y1657076D1*
X1271245Y1651352D1*
X811262Y512510D2*
D18*
Y451181D1*
X767589D2*
X854936D1*
X1151420Y512510D2*
Y451181D1*
X1107746D2*
X1195094D1*
X811262Y682983D2*
Y548514D1*
X767640Y615748D2*
X811262D1*
X1151420Y682983D2*
Y548514D1*
Y615748D2*
X1195043D1*
X1007077Y1519556D2*
X947723D1*
X1011014Y1173100D2*
X955536D1*
D28*
X811262Y451181D3*
X1151420D3*
D29*
X811262Y615748D3*
X1151420D3*
D30*
X1007077Y1303021D3*
Y1346328D3*
Y1389635D3*
Y1432942D3*
Y1476249D3*
Y1519556D3*
Y1562864D3*
Y1606171D3*
D31*
X1011014Y1173100D3*
D32*
X946054Y1704596D3*
D33*
X654715D3*
D34*
X1011014Y1671131D3*
D35*
X426369Y1704596D3*
Y1173100D3*
D36*
X1146525Y2608682D3*
X1037470D3*
X928415D3*
X819360D3*
D37*
X1160212Y1604632D3*
Y1584947D3*
X1160213Y1565262D3*
X1160214Y1545577D3*
Y1525892D3*
X1160215Y1506207D3*
X1160216Y1486522D3*
Y1466837D3*
X1097224Y1466835D3*
X1097223Y1486520D3*
Y1506205D3*
X1097222Y1525890D3*
X1097221Y1545575D3*
Y1565260D3*
X1097220Y1584945D3*
Y1604630D3*
D41*
X980360Y2174521D3*
D42*
X903530Y2174692D3*
X1056386Y2174344D3*
X969538Y2098455D2*
D21*
G02X1028894Y2115308I10250J76851D01*
G01*
M02*
