G04 DipTrace 5.1.0.3*
G04 BottomMask.gbr*
%MOIN*%
G04 #@! TF.FileFunction,Soldermask,Bot*
G04 #@! TF.Part,Single*
%ADD40C,0.03937*%
%ADD48C,0.137795*%
%ADD49C,0.025591*%
%ADD50C,0.027559*%
%ADD62C,0.035433*%
%ADD64C,0.086614*%
%ADD70R,0.035433X0.019685*%
%ADD72R,0.086614X0.204724*%
%ADD74R,0.074803X0.066929*%
%ADD76R,0.066929X0.070866*%
%ADD78R,0.047244X0.059055*%
%ADD80R,0.059055X0.059055*%
%ADD82R,0.066929X0.074803*%
%ADD84R,0.074803X0.037402*%
%ADD86O,0.043307X0.090551*%
%ADD88O,0.043307X0.07874*%
%FSLAX26Y26*%
G04*
G70*
G90*
G75*
G01*
G04 BotMask*
%LPD*%
D48*
X981201Y868690D3*
D88*
X811262Y451181D3*
X1151420D3*
D86*
X811262Y615748D3*
X1151420D3*
D49*
X867562Y596063D3*
X1095121D3*
D84*
X1007077Y1303021D3*
Y1346328D3*
Y1389635D3*
Y1432942D3*
Y1476249D3*
Y1519556D3*
Y1562864D3*
Y1606171D3*
D82*
X1011014Y1173100D3*
D80*
X946054Y1704596D3*
D78*
X654715D3*
D76*
X1011014Y1671131D3*
D74*
X426369Y1704596D3*
Y1173100D3*
D72*
X1146525Y2608682D3*
X1037470D3*
X928415D3*
X819360D3*
D70*
X1160212Y1604632D3*
Y1584947D3*
X1160213Y1565262D3*
X1160214Y1545577D3*
Y1525892D3*
X1160215Y1506207D3*
X1160216Y1486522D3*
Y1466837D3*
X1097224Y1466835D3*
X1097223Y1486520D3*
Y1506205D3*
X1097222Y1525890D3*
X1097221Y1545575D3*
Y1565260D3*
X1097220Y1584945D3*
Y1604630D3*
D50*
X573406Y448769D3*
X506476D3*
X1455925D3*
X1388996D3*
X969291Y2098589D2*
D40*
G02X1028669Y2115466I10241J76863D01*
G01*
G36*
X1033226Y2174710D2*
X1032760Y2167598D1*
X1031369Y2160608D1*
X1029078Y2153859D1*
X1025926Y2147467D1*
X1021966Y2141540D1*
X1017267Y2136182D1*
X1011908Y2131483D1*
X1005982Y2127523D1*
X999590Y2124371D1*
X992841Y2122080D1*
X985851Y2120689D1*
X978739Y2120223D1*
X971627Y2120689D1*
X964637Y2122080D1*
X957888Y2124371D1*
X951495Y2127523D1*
X945569Y2131483D1*
X940211Y2136182D1*
X935511Y2141540D1*
X931552Y2147467D1*
X928400Y2153859D1*
X926109Y2160608D1*
X924718Y2167598D1*
X924252Y2174710D1*
Y2175944D1*
X924718Y2183056D1*
X926109Y2190046D1*
X928400Y2196795D1*
X931552Y2203187D1*
X935511Y2209113D1*
X940211Y2214472D1*
X945569Y2219171D1*
X951495Y2223131D1*
X957888Y2226283D1*
X964637Y2228574D1*
X971627Y2229964D1*
X978739Y2230430D1*
X985851Y2229964D1*
X992841Y2228574D1*
X999590Y2226283D1*
X1005982Y2223131D1*
X1011908Y2219171D1*
X1017267Y2214472D1*
X1021966Y2209113D1*
X1025926Y2203187D1*
X1029078Y2196795D1*
X1031369Y2190046D1*
X1032760Y2183056D1*
X1033226Y2175944D1*
Y2174710D1*
G37*
D64*
X980360Y2174521D3*
D62*
X903530Y2174692D3*
X1056386Y2174344D3*
M02*
