M48
INCH
T01C0.0157
T02C0.0197
T03C0.0256
T04C0.0276
T05C0.1378
%
T01
X+009437Y+024625
X+009062Y+024750
X+009062Y+024250
X+008437Y+024062
X+008187Y+024375
X+008250Y+023687
X+008181Y+022104
X+007312Y+020125
X+007750Y+019937
X+006312Y+019062
X+006312Y+018566
X+006347Y+016015
X+006347Y+015490
X+006347Y+014953
X+006347Y+013990
X+006347Y+013021
X+007338Y+013461
X+008187Y+014125
X+009103Y+013675
X+009103Y+012323
X+009064Y+011356
X+008062Y+012375
X+007562Y+012375
X+010102Y+012343
X+010595Y+013036
X+010603Y+013477
X+010625Y+013875
X+010639Y+014505
X+011001Y+014425
X+011562Y+014125
X+011875Y+013562
X+012069Y+013217
X+012715Y+010241
X+013437Y+007437
X+013437Y+005875
X+009909Y+005826
X+009509Y+005826
X+008371Y+009768
X+007959Y+009761
X+006312Y+009000
X+005937Y+009875
X+004750Y+009687
X+004737Y+008724
X+004606Y+005660
X+008526Y+015198
X+008187Y+015875
X+009261Y+016500
X+011301Y+016715
X+012375Y+016750
X+012212Y+018312
X+011714Y+018310
X+012718Y+018312
X+010160Y+019472
X+009646Y+019472
X+011177Y+023628
X+010062Y+024625
T02
X+008113Y+004669G85X+008113Y+004354
X+008113Y+006374G85X+008113Y+005941
X+011514Y+006374G85X+011514Y+005941
X+011514Y+004669G85X+011514Y+004354
T03
X+008676Y+005961
X+010951Y+005961
T04
X+005734Y+004488
X+005065Y+004488
X+013890Y+004488
X+014559Y+004488
T05
X+009812Y+008687
T00
M30
