G04 DipTrace 5.1.0.3*
G04 TopMask.gbr*
%MOIN*%
G04 #@! TF.FileFunction,Soldermask,Top*
G04 #@! TF.Part,Single*
%ADD48C,0.137795*%
%ADD49C,0.025591*%
%ADD50C,0.027559*%
%ADD54R,0.023622X0.106299*%
%ADD56R,0.165354X0.165354*%
%ADD58R,0.066929X0.043307*%
%ADD60R,0.043307X0.066929*%
%ADD66R,0.047244X0.051181*%
%ADD68R,0.031496X0.051181*%
%ADD72R,0.086614X0.204724*%
%ADD86O,0.043307X0.090551*%
%ADD88O,0.043307X0.07874*%
%ADD90R,0.031496X0.052756*%
%ADD92R,0.019685X0.052756*%
%ADD94R,0.031496X0.03937*%
%ADD96R,0.043307X0.035433*%
%ADD98R,0.035433X0.043307*%
%FSLAX26Y26*%
G04*
G70*
G90*
G75*
G01*
G04 TopMask*
%LPD*%
D98*
X1193701Y2374950D3*
Y2323769D3*
X1224951Y2049950D3*
Y2101131D3*
D96*
X1218702Y1931201D3*
X1269883D3*
X1219293Y1981790D3*
X1270474D3*
X1118701Y2399950D3*
X1067520D3*
X1218701Y1881201D3*
X1269882D3*
D98*
X724951Y831201D3*
Y882382D3*
X537451Y937450D3*
Y886269D3*
D94*
X837451Y943699D3*
Y900392D3*
X787451Y943699D3*
Y900392D3*
X812450Y724950D3*
Y768257D3*
D98*
X1424950Y643109D3*
Y694290D3*
X543701Y643110D3*
Y694291D3*
D48*
X981201Y868690D3*
D92*
X912444Y638189D3*
X932129D3*
X951814D3*
X971499D3*
X991184D3*
X1010869D3*
X1030554D3*
X1050239D3*
D90*
X1075829D3*
X1107325D3*
X855357D3*
X886853D3*
D88*
X811262Y451181D3*
X1151420D3*
D86*
X811262Y615748D3*
X1151420D3*
D49*
X867562Y596063D3*
X1095121D3*
D72*
X1199311Y2608688D3*
X1090256D3*
X981201D3*
X872146D3*
X763091D3*
D98*
X724941Y587450D3*
Y536269D3*
X1237451Y593699D3*
Y542518D3*
X618701Y694290D3*
Y643109D3*
X1343701D3*
Y694290D3*
X474950Y643110D3*
Y694291D3*
X1499951Y694290D3*
Y643109D3*
X1149951Y1874950D3*
Y1926131D3*
D96*
X731201Y1956199D3*
X680020D3*
X731201Y1906201D3*
X680020D3*
X731201Y1856199D3*
X680020D3*
D68*
X602933Y499950D3*
X476949D3*
D66*
X638366Y431052D3*
X441516D3*
D50*
X573406Y448769D3*
X506476D3*
D68*
X1485453Y499950D3*
X1359469D3*
D66*
X1520886Y431052D3*
X1324035D3*
D50*
X1455925Y448769D3*
X1388996D3*
D60*
X1271575Y1770538D3*
X1221575D3*
X1171575D3*
X1121575D3*
X1071575D3*
X1021575D3*
X971575D3*
X921575D3*
X871575D3*
X821575D3*
X771575D3*
X721575D3*
X671575D3*
X621575D3*
D58*
X573822Y1700723D3*
Y1650723D3*
Y1600723D3*
Y1550723D3*
Y1500723D3*
Y1450723D3*
Y1400723D3*
Y1350723D3*
Y1300723D3*
Y1250723D3*
D60*
X621614Y1081562D3*
X671614D3*
X721614D3*
X771614D3*
X821614D3*
X871614D3*
X921614D3*
X971614D3*
X1021614D3*
X1071614D3*
X1121614D3*
X1171614D3*
X1221614D3*
X1271614D3*
D56*
X959094Y1488570D3*
D58*
X573822Y1200723D3*
Y1150723D3*
D54*
X1143701Y2287450D3*
X1118110Y2287430D3*
X1092520Y2287434D3*
X1066929D3*
X1041339D3*
X1015748D3*
X990157D3*
X964567D3*
X938976D3*
X913386D3*
X887795D3*
X862205D3*
X836614D3*
X811024D3*
Y2028962D3*
X836614Y2028970D3*
X862205D3*
X887795D3*
X913386D3*
X938976D3*
X964567D3*
X990157D3*
X1015748D3*
X1041339D3*
X1066929D3*
X1092520D3*
X1118110Y2028966D3*
X1143701D3*
D68*
X593701Y831201D3*
X631102D3*
X668504D3*
Y937500D3*
X593701D3*
M02*
