G04 DipTrace 5.1.0.3*
G04 TopSilk.gbr*
%MOIN*%
G04 #@! TF.FileFunction,Legend,Top*
G04 #@! TF.Part,Single*
%ADD10C,0.009843*%
%ADD24C,0.003937*%
%ADD100C,0.004632*%
%ADD101C,0.00772*%
%ADD103C,0.006176*%
%FSLAX26Y26*%
G04*
G70*
G90*
G75*
G01*
G04 TopSilk*
%LPD*%
X857136Y945669D2*
D24*
Y898428D1*
X817766Y945669D2*
Y898428D1*
G36*
X833514Y969290D2*
X833548Y969804D1*
X833649Y970309D1*
X833814Y970797D1*
X834042Y971259D1*
X834328Y971687D1*
X834668Y972074D1*
X835055Y972413D1*
X835483Y972700D1*
X835945Y972927D1*
X836432Y973093D1*
X836938Y973193D1*
X837451Y973227D1*
X837965Y973193D1*
X838470Y973093D1*
X838958Y972927D1*
X839420Y972700D1*
X839848Y972413D1*
X840235Y972074D1*
X840575Y971687D1*
X840861Y971259D1*
X841089Y970797D1*
X841254Y970309D1*
X841355Y969804D1*
X841388Y969290D1*
Y969289D1*
X841355Y968775D1*
X841254Y968270D1*
X841089Y967782D1*
X840861Y967320D1*
X840575Y966892D1*
X840235Y966505D1*
X839848Y966165D1*
X839420Y965879D1*
X838958Y965651D1*
X838470Y965486D1*
X837965Y965385D1*
X837451Y965352D1*
X836938Y965385D1*
X836432Y965486D1*
X835945Y965651D1*
X835483Y965879D1*
X835055Y966165D1*
X834668Y966505D1*
X834328Y966892D1*
X834042Y967320D1*
X833814Y967782D1*
X833649Y968270D1*
X833548Y968775D1*
X833514Y969289D1*
Y969290D1*
G37*
X807136Y945669D2*
D24*
Y898428D1*
X767766Y945669D2*
Y898428D1*
G36*
X783514Y969290D2*
X783548Y969804D1*
X783649Y970309D1*
X783814Y970797D1*
X784042Y971259D1*
X784328Y971687D1*
X784668Y972074D1*
X785055Y972413D1*
X785483Y972700D1*
X785945Y972927D1*
X786432Y973093D1*
X786938Y973193D1*
X787451Y973227D1*
X787965Y973193D1*
X788470Y973093D1*
X788958Y972927D1*
X789420Y972700D1*
X789848Y972413D1*
X790235Y972074D1*
X790575Y971687D1*
X790861Y971259D1*
X791089Y970797D1*
X791254Y970309D1*
X791355Y969804D1*
X791388Y969290D1*
Y969289D1*
X791355Y968775D1*
X791254Y968270D1*
X791089Y967782D1*
X790861Y967320D1*
X790575Y966892D1*
X790235Y966505D1*
X789848Y966165D1*
X789420Y965879D1*
X788958Y965651D1*
X788470Y965486D1*
X787965Y965385D1*
X787451Y965352D1*
X786938Y965385D1*
X786432Y965486D1*
X785945Y965651D1*
X785483Y965879D1*
X785055Y966165D1*
X784668Y966505D1*
X784328Y966892D1*
X784042Y967320D1*
X783814Y967782D1*
X783649Y968270D1*
X783548Y968775D1*
X783514Y969289D1*
Y969290D1*
G37*
X792765Y722980D2*
D24*
Y770222D1*
X832135Y722980D2*
Y770222D1*
G36*
X816387Y699360D2*
X816353Y698846D1*
X816253Y698341D1*
X816087Y697853D1*
X815860Y697391D1*
X815574Y696963D1*
X815234Y696576D1*
X814847Y696236D1*
X814419Y695950D1*
X813957Y695722D1*
X813469Y695557D1*
X812964Y695456D1*
X812450Y695423D1*
X811936Y695456D1*
X811431Y695557D1*
X810943Y695722D1*
X810482Y695950D1*
X810053Y696236D1*
X809666Y696576D1*
X809327Y696963D1*
X809041Y697391D1*
X808813Y697853D1*
X808647Y698341D1*
X808547Y698846D1*
X808513Y699360D1*
Y699361D1*
X808547Y699875D1*
X808647Y700380D1*
X808813Y700868D1*
X809041Y701329D1*
X809327Y701758D1*
X809666Y702145D1*
X810053Y702484D1*
X810482Y702770D1*
X810943Y702998D1*
X811431Y703164D1*
X811936Y703264D1*
X812450Y703298D1*
X812964Y703264D1*
X813469Y703164D1*
X813957Y702998D1*
X814419Y702770D1*
X814847Y702484D1*
X815234Y702145D1*
X815574Y701758D1*
X815860Y701329D1*
X816087Y700868D1*
X816253Y700380D1*
X816353Y699875D1*
X816387Y699361D1*
Y699360D1*
G37*
X1434789Y613618D2*
D10*
X1415112D1*
X553539Y613619D2*
X533862D1*
X646193Y461265D2*
Y511262D1*
X433689Y461265D2*
Y511262D1*
X579311Y517513D2*
X500571Y517509D1*
X1528713Y461265D2*
Y511262D1*
X1316209Y461265D2*
Y511262D1*
X1461831Y517513D2*
X1383091Y517509D1*
X1565315Y1780392D2*
X1327825D1*
Y1071707D1*
X1565315D1*
Y1780392D1*
X590341Y1782337D2*
X559098Y1782262D1*
Y1738577D1*
Y1063554D2*
X590341D1*
X559098D2*
Y1113522D1*
X789014Y2252646D2*
X772639Y2252717D1*
X789798Y2063588D2*
X772639Y2063696D1*
X771113Y2251932D2*
Y2064445D1*
X1183612Y2251932D2*
Y2189436D1*
Y2126941D2*
Y2064445D1*
Y2251932D2*
X1164844D1*
X1170247Y2221201D2*
X784478D1*
X1170247Y2095211D2*
X784478D1*
Y2221201D2*
Y2095211D1*
X1170247Y2221201D2*
Y2177871D1*
Y2138504D2*
Y2095211D1*
Y2177871D2*
G03X1170247Y2138504I49J-19684D01*
G01*
X1183612Y2064445D2*
X1164844D1*
G36*
X566784Y806878D2*
X565779Y806944D1*
X564792Y807140D1*
X563838Y807464D1*
X562935Y807909D1*
X562098Y808469D1*
X561341Y809133D1*
X560677Y809890D1*
X560118Y810727D1*
X559673Y811630D1*
X559349Y812583D1*
X559152Y813571D1*
X559087Y814575D1*
X559152Y815580D1*
X559349Y816568D1*
X559673Y817521D1*
X560118Y818424D1*
X560677Y819261D1*
X561341Y820018D1*
X562098Y820682D1*
X562935Y821242D1*
X563838Y821687D1*
X564792Y822011D1*
X565779Y822207D1*
X566784Y822273D1*
X566789D1*
X567794Y822207D1*
X568782Y822011D1*
X569735Y821687D1*
X570638Y821242D1*
X571475Y820682D1*
X572232Y820018D1*
X572896Y819261D1*
X573456Y818424D1*
X573901Y817521D1*
X574225Y816568D1*
X574421Y815580D1*
X574487Y814575D1*
X574421Y813571D1*
X574225Y812583D1*
X573901Y811630D1*
X573456Y810727D1*
X572896Y809890D1*
X572232Y809133D1*
X571475Y808469D1*
X570638Y807909D1*
X569735Y807464D1*
X568782Y807140D1*
X567794Y806944D1*
X566789Y806878D1*
X566784D1*
G37*
X572050Y868640D2*
D10*
X690157D1*
X572050Y900131D2*
X690157D1*
Y868640D2*
Y900131D1*
X572050Y868640D2*
Y900131D1*
X1343978Y932046D2*
D24*
X1365266Y931907D1*
X1267563Y964281D2*
X1353852D1*
X1280971Y972152D2*
Y884829D1*
X1312315Y994243D2*
Y953915D1*
X1344203Y972000D2*
Y855657D1*
X1306427Y869266D2*
X1386827D1*
X1312451Y916621D2*
X1312315Y861311D1*
X1377043Y886479D2*
Y855657D1*
X1367576Y900350D2*
X1272274D1*
X1246003Y932073D2*
X1280744Y932198D1*
G36*
X1280228Y915818D2*
X1278108Y915957D1*
X1276024Y916371D1*
X1274012Y917054D1*
X1272107Y917994D1*
X1270340Y919174D1*
X1268743Y920575D1*
X1267342Y922172D1*
X1266162Y923939D1*
X1265222Y925844D1*
X1264539Y927856D1*
X1264125Y929940D1*
X1263986Y932060D1*
X1264125Y934180D1*
X1264539Y936263D1*
X1265222Y938275D1*
X1266162Y940181D1*
X1267342Y941947D1*
X1268743Y943545D1*
X1270340Y944945D1*
X1272107Y946126D1*
X1274012Y947065D1*
X1276024Y947748D1*
X1278108Y948163D1*
X1280228Y948302D1*
X1280356D1*
X1282476Y948163D1*
X1284560Y947748D1*
X1286572Y947065D1*
X1288477Y946126D1*
X1290244Y944945D1*
X1291841Y943545D1*
X1293242Y941947D1*
X1294422Y940181D1*
X1295362Y938275D1*
X1296045Y936263D1*
X1296459Y934180D1*
X1296598Y932060D1*
X1296459Y929940D1*
X1296045Y927856D1*
X1295362Y925844D1*
X1294422Y923939D1*
X1293242Y922172D1*
X1291841Y920575D1*
X1290244Y919174D1*
X1288477Y917994D1*
X1286572Y917054D1*
X1284560Y916371D1*
X1282476Y915957D1*
X1280356Y915818D1*
X1280228D1*
G37*
G36*
X1344050Y915706D2*
X1341930Y915845D1*
X1339846Y916259D1*
X1337834Y916942D1*
X1335928Y917882D1*
X1334162Y919063D1*
X1332564Y920463D1*
X1331164Y922061D1*
X1329983Y923827D1*
X1329043Y925733D1*
X1328361Y927745D1*
X1327946Y929829D1*
X1327807Y931949D1*
X1327946Y934069D1*
X1328361Y936153D1*
X1329043Y938165D1*
X1329983Y940070D1*
X1331164Y941837D1*
X1332564Y943434D1*
X1334162Y944835D1*
X1335928Y946015D1*
X1337834Y946955D1*
X1339846Y947638D1*
X1341930Y948053D1*
X1344050Y948192D1*
X1344131D1*
X1346251Y948053D1*
X1348335Y947638D1*
X1350347Y946955D1*
X1352253Y946015D1*
X1354019Y944835D1*
X1355617Y943434D1*
X1357017Y941837D1*
X1358198Y940070D1*
X1359138Y938165D1*
X1359821Y936153D1*
X1360235Y934069D1*
X1360374Y931949D1*
X1360235Y929829D1*
X1359821Y927745D1*
X1359138Y925733D1*
X1358198Y923827D1*
X1357018Y922061D1*
X1355617Y920463D1*
X1354019Y919063D1*
X1352253Y917882D1*
X1350347Y916942D1*
X1348335Y916259D1*
X1346251Y915845D1*
X1344131Y915706D1*
X1344050D1*
G37*
G36*
X1312205Y948164D2*
X1310085Y948303D1*
X1308002Y948717D1*
X1305990Y949400D1*
X1304084Y950340D1*
X1302318Y951520D1*
X1300720Y952921D1*
X1299320Y954519D1*
X1298139Y956285D1*
X1297200Y958191D1*
X1296517Y960202D1*
X1296102Y962286D1*
X1295963Y964406D1*
X1296102Y966526D1*
X1296517Y968610D1*
X1297200Y970622D1*
X1298139Y972527D1*
X1299320Y974294D1*
X1300720Y975891D1*
X1302318Y977292D1*
X1304084Y978472D1*
X1305990Y979412D1*
X1308002Y980095D1*
X1310085Y980509D1*
X1312205Y980648D1*
X1312289D1*
X1314409Y980509D1*
X1316493Y980095D1*
X1318505Y979412D1*
X1320410Y978472D1*
X1322177Y977292D1*
X1323774Y975891D1*
X1325175Y974294D1*
X1326355Y972527D1*
X1327295Y970622D1*
X1327978Y968610D1*
X1328393Y966526D1*
X1328531Y964406D1*
X1328393Y962286D1*
X1327978Y960202D1*
X1327295Y958191D1*
X1326355Y956285D1*
X1325175Y954519D1*
X1323774Y952921D1*
X1322177Y951520D1*
X1320410Y950340D1*
X1318505Y949400D1*
X1316493Y948717D1*
X1314409Y948303D1*
X1312289Y948164D1*
X1312205D1*
G37*
G36*
X1343959Y883416D2*
X1341839Y883555D1*
X1339755Y883969D1*
X1337743Y884652D1*
X1335838Y885592D1*
X1334071Y886772D1*
X1332474Y888173D1*
X1331073Y889771D1*
X1329893Y891537D1*
X1328953Y893443D1*
X1328270Y895454D1*
X1327855Y897538D1*
X1327717Y899658D1*
X1327855Y901778D1*
X1328270Y903862D1*
X1328953Y905874D1*
X1329893Y907779D1*
X1331073Y909546D1*
X1332474Y911143D1*
X1334071Y912544D1*
X1335838Y913724D1*
X1337743Y914664D1*
X1339755Y915347D1*
X1341839Y915761D1*
X1343959Y915900D1*
X1344041D1*
X1346161Y915761D1*
X1348245Y915347D1*
X1350257Y914664D1*
X1352162Y913724D1*
X1353929Y912544D1*
X1355526Y911143D1*
X1356927Y909546D1*
X1358107Y907779D1*
X1359047Y905874D1*
X1359730Y903862D1*
X1360145Y901778D1*
X1360283Y899658D1*
X1360145Y897538D1*
X1359730Y895454D1*
X1359047Y893443D1*
X1358107Y891537D1*
X1356927Y889771D1*
X1355526Y888173D1*
X1353929Y886772D1*
X1352162Y885592D1*
X1350257Y884652D1*
X1348245Y883969D1*
X1346161Y883555D1*
X1344041Y883416D1*
X1343959D1*
G37*
X1298274Y932502D2*
D24*
Y931991D1*
G03X1325995Y931991I13860J0D01*
G01*
Y932502D1*
G03X1298274Y932502I-13860J0D01*
G01*
X1250804Y938421D2*
Y921471D1*
G36*
X1380454Y961576D2*
Y899372D1*
X1387540D1*
Y947403D1*
X1388129Y947909D1*
X1388527Y947843D1*
X1388975Y947192D1*
X1389115Y946616D1*
X1420611Y899372D1*
X1428485D1*
Y961576D1*
X1421399D1*
Y913545D1*
X1420564Y912690D1*
X1420158Y912816D1*
X1419652Y913683D1*
X1419824Y914332D1*
X1388328Y961576D1*
X1380454D1*
G37*
G36*
X1443446D2*
Y899372D1*
X1489115D1*
Y905671D1*
X1451320Y906458D1*
Y927718D1*
X1485178Y928506D1*
Y934805D1*
X1451320Y935592D1*
Y954490D1*
X1487540Y955277D1*
Y961576D1*
X1443446D1*
G37*
G36*
X1497777D2*
Y955277D1*
X1518249Y954490D1*
Y899372D1*
X1525336D1*
Y954490D1*
X1545808Y955277D1*
Y961576D1*
X1497777D1*
G37*
G36*
X1087540Y958427D2*
Y896222D1*
X1094627D1*
Y923781D1*
X1123761Y924569D1*
Y930868D1*
X1094627Y931655D1*
Y951340D1*
X1128485Y952128D1*
Y958427D1*
X1087540D1*
G37*
G36*
X1140296D2*
Y916695D1*
X1141084Y911183D1*
X1142659Y906458D1*
X1143446Y904884D1*
X1145021Y902521D1*
X1147383Y900159D1*
X1149745Y898584D1*
X1152895Y897010D1*
X1155257Y896222D1*
X1159194Y895435D1*
X1169430D1*
X1173367Y896222D1*
X1175729Y897010D1*
X1178879Y898584D1*
X1181241Y900159D1*
X1184391Y903309D1*
X1185966Y905671D1*
X1186753Y907246D1*
X1187540Y909608D1*
X1188328Y913545D1*
Y958427D1*
X1181241D1*
X1180454Y915907D1*
X1179666Y911970D1*
X1178879Y909608D1*
Y908821D1*
X1175729Y905671D1*
X1172580Y904096D1*
X1169430Y903309D1*
X1166018Y902521D1*
X1162606D1*
X1159194Y903309D1*
X1156044Y904096D1*
X1154470Y904884D1*
X1153682Y905671D1*
X1152107Y906458D1*
X1150533Y908033D1*
Y908821D1*
X1149745Y910395D1*
X1148958Y912758D1*
X1148170Y920632D1*
X1147383Y958427D1*
X1140296D1*
G37*
G36*
X1225336D2*
Y908821D1*
X1224548Y908033D1*
Y906458D1*
X1222186Y904096D1*
X1219037Y902521D1*
X1216674Y901734D1*
X1214312D1*
X1211950Y902521D1*
X1208800Y904096D1*
X1207866Y904981D1*
X1208013Y905671D1*
X1207225Y907246D1*
X1206438Y910395D1*
X1205651Y914332D1*
X1204076D1*
X1199351Y913545D1*
Y907246D1*
X1200139Y904884D1*
X1201714Y901734D1*
X1205651Y897797D1*
X1208800Y896222D1*
X1211950Y895435D1*
X1219037D1*
X1222186Y896222D1*
X1224548Y897010D1*
X1226911Y898584D1*
X1230060Y901734D1*
X1231635Y904884D1*
X1232422Y908033D1*
X1233210Y916695D1*
Y958427D1*
X1225336D1*
G37*
G36*
X1248958D2*
Y896222D1*
X1256044D1*
Y958427D1*
X1248958D1*
G37*
X670903Y1653211D2*
D101*
X639841D1*
Y1602971D1*
X670903D1*
X639841Y1629279D2*
X658965D1*
X719836Y1646026D2*
X715082Y1650834D1*
X707897Y1653211D1*
X698336D1*
X691151Y1650834D1*
X686342Y1646026D1*
Y1641272D1*
X688774Y1636464D1*
X691151Y1634087D1*
X695904Y1631711D1*
X710274Y1626902D1*
X715082Y1624526D1*
X717459Y1622094D1*
X719836Y1617341D1*
Y1610156D1*
X715082Y1605402D1*
X707897Y1602971D1*
X698336D1*
X691151Y1605402D1*
X686342Y1610156D1*
X735275Y1626902D2*
X756830D1*
X763960Y1629279D1*
X766391Y1631711D1*
X768768Y1636464D1*
Y1643649D1*
X766391Y1648402D1*
X763960Y1650834D1*
X756830Y1653211D1*
X735275D1*
Y1602971D1*
X789016Y1653155D2*
X815269D1*
X800954Y1634032D1*
X808139D1*
X812892Y1631655D1*
X815269Y1629279D1*
X817701Y1622094D1*
Y1617341D1*
X815269Y1610156D1*
X810516Y1605347D1*
X803331Y1602971D1*
X796146D1*
X789016Y1605347D1*
X786639Y1607779D1*
X784207Y1612532D1*
X835572Y1641217D2*
Y1643594D1*
X837948Y1648402D1*
X840325Y1650779D1*
X845133Y1653155D1*
X854695D1*
X859448Y1650779D1*
X861825Y1648402D1*
X864257Y1643594D1*
Y1638841D1*
X861825Y1634032D1*
X857072Y1626902D1*
X833140Y1602971D1*
X866633D1*
X882072Y1628063D2*
X909707D1*
X958640Y1646026D2*
X953887Y1650834D1*
X946702Y1653211D1*
X937140D1*
X929955Y1650834D1*
X925147Y1646026D1*
Y1641272D1*
X927578Y1636464D1*
X929955Y1634087D1*
X934708Y1631711D1*
X949078Y1626902D1*
X953887Y1624526D1*
X956263Y1622094D1*
X958640Y1617341D1*
Y1610156D1*
X953887Y1605402D1*
X946702Y1602971D1*
X937140D1*
X929955Y1605402D1*
X925147Y1610156D1*
X978888Y1653155D2*
X1005141D1*
X990826Y1634032D1*
X998011D1*
X1002764Y1631655D1*
X1005141Y1629279D1*
X1007572Y1622094D1*
Y1617341D1*
X1005141Y1610156D1*
X1000387Y1605347D1*
X993202Y1602971D1*
X986017D1*
X978888Y1605347D1*
X976511Y1607779D1*
X974079Y1612532D1*
X1023012Y1628063D2*
X1050646D1*
X1099579Y1653211D2*
Y1602971D1*
X1066086Y1653211D1*
Y1602971D1*
X1115018Y1643594D2*
X1119827Y1646026D1*
X1127012Y1653155D1*
Y1602971D1*
X1171136Y1646026D2*
X1168759Y1650779D1*
X1161574Y1653155D1*
X1156821D1*
X1149636Y1650779D1*
X1144828Y1643594D1*
X1142451Y1631655D1*
Y1619717D1*
X1144828Y1610156D1*
X1149636Y1605347D1*
X1156821Y1602971D1*
X1159198D1*
X1166327Y1605347D1*
X1171136Y1610156D1*
X1173512Y1617341D1*
Y1619717D1*
X1171136Y1626902D1*
X1166327Y1631655D1*
X1159198Y1634032D1*
X1156821D1*
X1149636Y1631655D1*
X1144828Y1626902D1*
X1142451Y1619717D1*
X1188952Y1629279D2*
X1210452D1*
X1217637Y1631711D1*
X1220068Y1634087D1*
X1222445Y1638841D1*
Y1643649D1*
X1220068Y1648402D1*
X1217637Y1650834D1*
X1210452Y1653211D1*
X1188952D1*
Y1602971D1*
X1205698Y1629279D2*
X1222445Y1602971D1*
X1249823Y1653155D2*
X1242693Y1650779D1*
X1240261Y1646026D1*
Y1641217D1*
X1242693Y1636464D1*
X1247446Y1634032D1*
X1257008Y1631655D1*
X1264193Y1629279D1*
X1268946Y1624470D1*
X1271322Y1619717D1*
Y1612532D1*
X1268946Y1607779D1*
X1266569Y1605347D1*
X1259384Y1602971D1*
X1249823D1*
X1242693Y1605347D1*
X1240261Y1607779D1*
X1237884Y1612532D1*
Y1619717D1*
X1240261Y1624470D1*
X1245069Y1629279D1*
X1252199Y1631655D1*
X1261761Y1634032D1*
X1266569Y1636464D1*
X1268946Y1641217D1*
Y1646026D1*
X1266569Y1650779D1*
X1259384Y1653155D1*
X1249823D1*
X711164Y1205600D2*
Y1167354D1*
X708788Y1160169D1*
X706356Y1157792D1*
X701603Y1155360D1*
X696794D1*
X692041Y1157792D1*
X689664Y1160169D1*
X687233Y1167354D1*
Y1172107D1*
X726603Y1205600D2*
Y1155360D1*
X755288D1*
X806598Y1193662D2*
X804221Y1198415D1*
X799412Y1203224D1*
X794659Y1205600D1*
X785098D1*
X780289Y1203224D1*
X775536Y1198415D1*
X773104Y1193662D1*
X770728Y1186477D1*
Y1174484D1*
X773104Y1167354D1*
X775536Y1162545D1*
X780289Y1157792D1*
X785098Y1155360D1*
X794659D1*
X799412Y1157792D1*
X804221Y1162545D1*
X806598Y1167354D1*
X845968Y1205600D2*
Y1167354D1*
X843592Y1160169D1*
X841160Y1157792D1*
X836407Y1155360D1*
X831598D1*
X826845Y1157792D1*
X824469Y1160169D1*
X822037Y1167354D1*
Y1172107D1*
X861408Y1205600D2*
Y1155360D1*
X890093D1*
X941402Y1193662D2*
X939025Y1198415D1*
X934217Y1203224D1*
X929464Y1205600D1*
X919902D1*
X915093Y1203224D1*
X910340Y1198415D1*
X907908Y1193662D1*
X905532Y1186477D1*
Y1174484D1*
X907908Y1167354D1*
X910340Y1162545D1*
X915093Y1157792D1*
X919902Y1155360D1*
X929464D1*
X934217Y1157792D1*
X939025Y1162545D1*
X941402Y1167354D1*
X980773Y1205600D2*
Y1167354D1*
X978396Y1160169D1*
X975964Y1157792D1*
X971211Y1155360D1*
X966403D1*
X961649Y1157792D1*
X959273Y1160169D1*
X956841Y1167354D1*
Y1172107D1*
X996212Y1205600D2*
Y1155360D1*
X1024897D1*
X1076206Y1193662D2*
X1073829Y1198415D1*
X1069021Y1203224D1*
X1064268Y1205600D1*
X1054706D1*
X1049898Y1203224D1*
X1045145Y1198415D1*
X1042713Y1193662D1*
X1040336Y1186477D1*
Y1174484D1*
X1042713Y1167354D1*
X1045145Y1162545D1*
X1049898Y1157792D1*
X1054706Y1155360D1*
X1064268D1*
X1069021Y1157792D1*
X1073829Y1162545D1*
X1076206Y1167354D1*
X1115577Y1205600D2*
Y1167354D1*
X1113200Y1160169D1*
X1110769Y1157792D1*
X1106015Y1155360D1*
X1101207D1*
X1096454Y1157792D1*
X1094077Y1160169D1*
X1091645Y1167354D1*
Y1172107D1*
X1131016Y1205600D2*
Y1155360D1*
X1159701D1*
X1211010Y1193662D2*
X1208634Y1198415D1*
X1203825Y1203224D1*
X1199072Y1205600D1*
X1189510D1*
X1184702Y1203224D1*
X1179949Y1198415D1*
X1177517Y1193662D1*
X1175140Y1186477D1*
Y1174484D1*
X1177517Y1167354D1*
X1179949Y1162545D1*
X1184702Y1157792D1*
X1189510Y1155360D1*
X1199072D1*
X1203825Y1157792D1*
X1208634Y1162545D1*
X1211010Y1167354D1*
X1438460Y541410D2*
D103*
X1423117Y581602D1*
X1407819Y541410D1*
X1413567Y554808D2*
X1432712D1*
X451569Y562457D2*
X468769D1*
X474517Y564402D1*
X476463Y566304D1*
X478364Y570106D1*
Y573953D1*
X476463Y577756D1*
X474517Y579701D1*
X468769Y581602D1*
X451569D1*
Y541410D1*
X464967Y562457D2*
X478364Y541410D1*
X515565Y581602D2*
X490716D1*
Y541410D1*
X515565D1*
X490716Y562457D2*
X506014D1*
X554711Y575854D2*
X550908Y579701D1*
X545160Y581602D1*
X537511D1*
X531763Y579701D1*
X527916Y575854D1*
Y572052D1*
X529862Y568205D1*
X531763Y566304D1*
X535565Y564402D1*
X547061Y560556D1*
X550908Y558654D1*
X552810Y556709D1*
X554711Y552906D1*
Y547158D1*
X550908Y543356D1*
X545160Y541410D1*
X537511D1*
X531763Y543356D1*
X527916Y547158D1*
X591911Y581602D2*
X567062D1*
Y541410D1*
X591911D1*
X567062Y562457D2*
X582361D1*
X617660Y581602D2*
Y541410D1*
X604263Y581602D2*
X631057D1*
X1196232Y2429438D2*
D100*
X1194806Y2432289D1*
X1191921Y2435175D1*
X1189069Y2436601D1*
X1183332D1*
X1180447Y2435175D1*
X1177595Y2432289D1*
X1176136Y2429438D1*
X1174710Y2425127D1*
Y2417930D1*
X1176136Y2413653D1*
X1177595Y2410768D1*
X1180447Y2407916D1*
X1183332Y2406457D1*
X1189069D1*
X1191921Y2407916D1*
X1194806Y2410768D1*
X1196232Y2413653D1*
X1205495Y2430830D2*
X1208381Y2432289D1*
X1212692Y2436567D1*
Y2406457D1*
X1218152Y2152873D2*
X1215300Y2151447D1*
X1212415Y2148562D1*
X1210989Y2145710D1*
Y2139973D1*
X1212415Y2137088D1*
X1215300Y2134236D1*
X1218152Y2132777D1*
X1222463Y2131351D1*
X1229659D1*
X1233937Y2132777D1*
X1236822Y2134236D1*
X1239674Y2137088D1*
X1241133Y2139973D1*
Y2145710D1*
X1239674Y2148562D1*
X1236822Y2151447D1*
X1233937Y2152873D1*
X1218185Y2163595D2*
X1216759D1*
X1213874Y2165021D1*
X1212448Y2166447D1*
X1211022Y2169332D1*
Y2175069D1*
X1212448Y2177921D1*
X1213874Y2179347D1*
X1216759Y2180806D1*
X1219611D1*
X1222496Y2179347D1*
X1226774Y2176495D1*
X1241133Y2162136D1*
Y2182232D1*
X1321625Y1912583D2*
X1320199Y1915435D1*
X1317313Y1918320D1*
X1314462Y1919746D1*
X1308725D1*
X1305840Y1918320D1*
X1302988Y1915435D1*
X1301529Y1912583D1*
X1300103Y1908272D1*
Y1901076D1*
X1301529Y1896798D1*
X1302988Y1893913D1*
X1305840Y1891061D1*
X1308725Y1889602D1*
X1314462D1*
X1317313Y1891061D1*
X1320199Y1893913D1*
X1321625Y1896798D1*
X1333773Y1919713D2*
X1349525D1*
X1340936Y1908239D1*
X1345247D1*
X1348099Y1906813D1*
X1349525Y1905387D1*
X1350984Y1901076D1*
Y1898224D1*
X1349525Y1893913D1*
X1346673Y1891028D1*
X1342362Y1889602D1*
X1338051D1*
X1333773Y1891028D1*
X1332347Y1892487D1*
X1330888Y1895339D1*
X1321522Y1957331D2*
X1320096Y1960183D1*
X1317211Y1963068D1*
X1314359Y1964494D1*
X1308622D1*
X1305737Y1963068D1*
X1302885Y1960183D1*
X1301426Y1957331D1*
X1300000Y1953020D1*
Y1945824D1*
X1301426Y1941546D1*
X1302885Y1938661D1*
X1305737Y1935809D1*
X1308622Y1934350D1*
X1314359D1*
X1317211Y1935809D1*
X1320096Y1938661D1*
X1321522Y1941546D1*
X1345144Y1934350D2*
Y1964461D1*
X1330785Y1944398D1*
X1352307D1*
X1089191Y2450501D2*
X1087765Y2453352D1*
X1084880Y2456238D1*
X1082029Y2457664D1*
X1076292D1*
X1073406Y2456238D1*
X1070555Y2453352D1*
X1069095Y2450501D1*
X1067669Y2446190D1*
Y2438993D1*
X1069095Y2434716D1*
X1070555Y2431831D1*
X1073406Y2428979D1*
X1076292Y2427520D1*
X1082029D1*
X1084880Y2428979D1*
X1087765Y2431831D1*
X1089191Y2434716D1*
X1115666Y2457630D2*
X1101340D1*
X1099914Y2444730D1*
X1101340Y2446156D1*
X1105651Y2447616D1*
X1109929D1*
X1114240Y2446156D1*
X1117125Y2443304D1*
X1118551Y2438993D1*
Y2436142D1*
X1117125Y2431831D1*
X1114240Y2428945D1*
X1109929Y2427520D1*
X1105651D1*
X1101340Y2428945D1*
X1099914Y2430405D1*
X1098455Y2433256D1*
X1322353Y1869251D2*
X1320927Y1872103D1*
X1318042Y1874988D1*
X1315190Y1876414D1*
X1309453D1*
X1306568Y1874988D1*
X1303716Y1872103D1*
X1302257Y1869251D1*
X1300831Y1864940D1*
Y1857744D1*
X1302257Y1853466D1*
X1303716Y1850581D1*
X1306568Y1847729D1*
X1309453Y1846270D1*
X1315190D1*
X1318042Y1847729D1*
X1320927Y1850581D1*
X1322353Y1853466D1*
X1348827Y1872103D2*
X1347401Y1874955D1*
X1343090Y1876381D1*
X1340238D1*
X1335927Y1874955D1*
X1333042Y1870644D1*
X1331616Y1863481D1*
Y1856318D1*
X1333042Y1850581D1*
X1335927Y1847696D1*
X1340238Y1846270D1*
X1341664D1*
X1345942Y1847696D1*
X1348827Y1850581D1*
X1350253Y1854892D1*
Y1856318D1*
X1348827Y1860629D1*
X1345942Y1863481D1*
X1341664Y1864907D1*
X1340238D1*
X1335927Y1863481D1*
X1333042Y1860629D1*
X1331616Y1856318D1*
X711901Y750892D2*
X709049Y749466D1*
X706164Y746581D1*
X704738Y743729D1*
Y737992D1*
X706164Y735107D1*
X709049Y732255D1*
X711901Y730796D1*
X716212Y729370D1*
X723408D1*
X727686Y730796D1*
X730571Y732255D1*
X733423Y735107D1*
X734882Y737992D1*
Y743729D1*
X733423Y746581D1*
X730571Y749466D1*
X727686Y750892D1*
X710508Y760156D2*
X709049Y763041D1*
X704771Y767352D1*
X734882D1*
X704771Y785237D2*
X706197Y780926D1*
X710508Y778041D1*
X717671Y776615D1*
X721982D1*
X729145Y778041D1*
X733456Y780926D1*
X734882Y785237D1*
Y788089D1*
X733456Y792400D1*
X729145Y795252D1*
X721982Y796711D1*
X717671D1*
X710508Y795252D1*
X706197Y792400D1*
X704771Y788089D1*
Y785237D1*
X710508Y795252D2*
X729145Y778041D1*
X486901Y906161D2*
X484049Y904735D1*
X481164Y901850D1*
X479738Y898998D1*
Y893261D1*
X481164Y890376D1*
X484049Y887524D1*
X486901Y886065D1*
X491212Y884639D1*
X498408D1*
X502686Y886065D1*
X505571Y887524D1*
X508423Y890376D1*
X509882Y893261D1*
Y898998D1*
X508423Y901850D1*
X505571Y904735D1*
X502686Y906161D1*
X485508Y915424D2*
X484049Y918310D1*
X479771Y922621D1*
X509882D1*
X485508Y931884D2*
X484049Y934769D1*
X479771Y939080D1*
X509882D1*
X817583Y823158D2*
X847727D1*
Y833206D1*
X846268Y837517D1*
X843416Y840402D1*
X840531Y841828D1*
X836253Y843254D1*
X829057D1*
X824746Y841828D1*
X821894Y840402D1*
X819009Y837517D1*
X817583Y833206D1*
Y823158D1*
X823353Y852517D2*
X821894Y855402D1*
X817616Y859714D1*
X847727D1*
X773833Y822957D2*
X803977D1*
Y833005D1*
X802517Y837316D1*
X799666Y840201D1*
X796780Y841627D1*
X792503Y843053D1*
X785307D1*
X780995Y841627D1*
X778144Y840201D1*
X775259Y837316D1*
X773833Y833005D1*
Y822957D1*
X781029Y853776D2*
X779603D1*
X776718Y855202D1*
X775292Y856628D1*
X773866Y859513D1*
Y865250D1*
X775292Y868102D1*
X776718Y869528D1*
X779603Y870987D1*
X782455D1*
X785340Y869528D1*
X789618Y866676D1*
X803977Y852317D1*
Y872413D1*
X848831Y727486D2*
X878975D1*
Y737534D1*
X877516Y741845D1*
X874664Y744730D1*
X871779Y746156D1*
X867501Y747582D1*
X860305D1*
X855994Y746156D1*
X853142Y744730D1*
X850257Y741845D1*
X848831Y737534D1*
Y727486D1*
X848864Y759731D2*
Y775483D1*
X860338Y766894D1*
Y771205D1*
X861764Y774057D1*
X863190Y775483D1*
X867501Y776942D1*
X870353D1*
X874664Y775483D1*
X877549Y772631D1*
X878975Y768320D1*
Y764009D1*
X877549Y759731D1*
X876090Y758305D1*
X873238Y756846D1*
X1410986Y731121D2*
X1441130D1*
Y741169D1*
X1439671Y745480D1*
X1436819Y748365D1*
X1433934Y749791D1*
X1429656Y751217D1*
X1422460D1*
X1418149Y749791D1*
X1415297Y748365D1*
X1412412Y745480D1*
X1410986Y741169D1*
Y731121D1*
X1441130Y774840D2*
X1411019D1*
X1431082Y760480D1*
Y782002D1*
X529738Y731835D2*
X559882D1*
Y741883D1*
X558423Y746194D1*
X555571Y749079D1*
X552686Y750505D1*
X548408Y751931D1*
X541212D1*
X536901Y750505D1*
X534049Y749079D1*
X531164Y746194D1*
X529738Y741883D1*
Y731835D1*
X529771Y778406D2*
Y764080D1*
X542671Y762654D1*
X541245Y764080D1*
X539786Y768391D1*
Y772669D1*
X541245Y776980D1*
X544097Y779865D1*
X548408Y781291D1*
X551260D1*
X555571Y779865D1*
X558456Y776980D1*
X559882Y772669D1*
Y768391D1*
X558456Y764080D1*
X556997Y762654D1*
X554145Y761195D1*
X1204019Y448314D2*
Y425367D1*
X1202593Y421055D1*
X1201134Y419630D1*
X1198282Y418170D1*
X1195397D1*
X1192545Y419630D1*
X1191119Y421055D1*
X1189660Y425367D1*
Y428218D1*
X1213283Y442544D2*
X1216168Y444003D1*
X1220479Y448281D1*
Y418170D1*
X973701Y2500082D2*
Y2477134D1*
X972275Y2472823D1*
X970815Y2471397D1*
X967964Y2469938D1*
X965078D1*
X962227Y2471397D1*
X960801Y2472823D1*
X959341Y2477134D1*
Y2479986D1*
X985849Y2500049D2*
X1001601D1*
X993012Y2488575D1*
X997323D1*
X1000175Y2487149D1*
X1001601Y2485723D1*
X1003060Y2481412D1*
Y2478560D1*
X1001601Y2474249D1*
X998749Y2471364D1*
X994438Y2469938D1*
X990127D1*
X985849Y2471364D1*
X984423Y2472823D1*
X982964Y2475675D1*
X719087Y631082D2*
Y643982D1*
X717627Y648293D1*
X716202Y649752D1*
X713350Y651178D1*
X710465D1*
X707613Y649752D1*
X706154Y648293D1*
X704728Y643982D1*
Y631082D1*
X734872D1*
X719087Y641130D2*
X734872Y651178D1*
X710498Y660441D2*
X709039Y663326D1*
X704761Y667637D1*
X734872D1*
X1237846Y630881D2*
Y643781D1*
X1236387Y648092D1*
X1234961Y649551D1*
X1232109Y650977D1*
X1229224D1*
X1226372Y649551D1*
X1224913Y648092D1*
X1223487Y643781D1*
Y630881D1*
X1253631D1*
X1237846Y640929D2*
X1253631Y650977D1*
X1230684Y661700D2*
X1229258D1*
X1226372Y663126D1*
X1224947Y664552D1*
X1223521Y667437D1*
Y673174D1*
X1224947Y676026D1*
X1226372Y677452D1*
X1229258Y678911D1*
X1232109D1*
X1234995Y677452D1*
X1239272Y674600D1*
X1253631Y660241D1*
Y680337D1*
X619097Y731470D2*
Y744370D1*
X617638Y748681D1*
X616212Y750140D1*
X613360Y751566D1*
X610475D1*
X607623Y750140D1*
X606164Y748681D1*
X604738Y744370D1*
Y731470D1*
X634882D1*
X619097Y741518D2*
X634882Y751566D1*
X604771Y763715D2*
Y779467D1*
X616245Y770878D1*
Y775189D1*
X617671Y778041D1*
X619097Y779467D1*
X623408Y780926D1*
X626260D1*
X630571Y779467D1*
X633456Y776615D1*
X634882Y772304D1*
Y767993D1*
X633456Y763715D1*
X631997Y762289D1*
X629145Y760830D1*
X1344096Y730759D2*
Y743659D1*
X1342637Y747970D1*
X1341211Y749429D1*
X1338359Y750855D1*
X1335474D1*
X1332622Y749429D1*
X1331163Y747970D1*
X1329737Y743659D1*
Y730759D1*
X1359881D1*
X1344096Y740807D2*
X1359881Y750855D1*
Y774477D2*
X1329770D1*
X1349833Y760118D1*
Y781640D1*
X474724Y733993D2*
Y746893D1*
X473265Y751204D1*
X471839Y752663D1*
X468987Y754089D1*
X466102D1*
X463250Y752663D1*
X461791Y751204D1*
X460365Y746893D1*
Y733993D1*
X490509D1*
X474724Y744041D2*
X490509Y754089D1*
X460399Y780563D2*
Y766237D1*
X473298Y764811D1*
X471872Y766237D1*
X470413Y770548D1*
Y774826D1*
X471872Y779137D1*
X474724Y782022D1*
X479035Y783448D1*
X481887D1*
X486198Y782022D1*
X489083Y779137D1*
X490509Y774826D1*
Y770548D1*
X489083Y766237D1*
X487624Y764811D1*
X484772Y763352D1*
X1500035Y733478D2*
Y746378D1*
X1498576Y750689D1*
X1497150Y752148D1*
X1494298Y753574D1*
X1491413D1*
X1488561Y752148D1*
X1487102Y750689D1*
X1485676Y746378D1*
Y733478D1*
X1515820D1*
X1500035Y743526D2*
X1515820Y753574D1*
X1489987Y780049D2*
X1487136Y778623D1*
X1485710Y774312D1*
Y771460D1*
X1487136Y767149D1*
X1491447Y764264D1*
X1498609Y762838D1*
X1505772D1*
X1511509Y764264D1*
X1514394Y767149D1*
X1515820Y771460D1*
Y772886D1*
X1514394Y777164D1*
X1511509Y780049D1*
X1507198Y781475D1*
X1505772D1*
X1501461Y780049D1*
X1498609Y777164D1*
X1497184Y772886D1*
Y771460D1*
X1498609Y767149D1*
X1501461Y764264D1*
X1505772Y762838D1*
X1106597Y1875829D2*
Y1888729D1*
X1105138Y1893040D1*
X1103712Y1894500D1*
X1100860Y1895925D1*
X1097975D1*
X1095123Y1894500D1*
X1093664Y1893040D1*
X1092238Y1888729D1*
Y1875829D1*
X1122382D1*
X1106597Y1885877D2*
X1122382Y1895925D1*
X1092271Y1912352D2*
X1093697Y1908074D1*
X1096549Y1906615D1*
X1099434D1*
X1102286Y1908074D1*
X1103745Y1910926D1*
X1105171Y1916663D1*
X1106597Y1920974D1*
X1109482Y1923826D1*
X1112334Y1925252D1*
X1116645D1*
X1119497Y1923826D1*
X1120956Y1922400D1*
X1122382Y1918089D1*
Y1912352D1*
X1120956Y1908074D1*
X1119497Y1906615D1*
X1116645Y1905189D1*
X1112334D1*
X1109482Y1906615D1*
X1106597Y1909500D1*
X1105171Y1913778D1*
X1103745Y1919515D1*
X1102286Y1922400D1*
X1099434Y1923826D1*
X1096549D1*
X1093697Y1922400D1*
X1092271Y1918089D1*
Y1912352D1*
X772653Y1955804D2*
X785553D1*
X789864Y1957264D1*
X791323Y1958690D1*
X792749Y1961541D1*
Y1964427D1*
X791323Y1967278D1*
X789864Y1968738D1*
X785553Y1970164D1*
X772653D1*
Y1940020D1*
X782701Y1955804D2*
X792749Y1940020D1*
X802012Y1964393D2*
X804897Y1965852D1*
X809208Y1970130D1*
Y1940020D1*
X827094Y1970130D2*
X822783Y1968704D1*
X819898Y1964393D1*
X818472Y1957230D1*
Y1952919D1*
X819898Y1945756D1*
X822783Y1941445D1*
X827094Y1940020D1*
X829946D1*
X834257Y1941445D1*
X837109Y1945756D1*
X838568Y1952919D1*
Y1957230D1*
X837109Y1964393D1*
X834257Y1968704D1*
X829946Y1970130D1*
X827094D1*
X837109Y1964393D2*
X819898Y1945756D1*
X772853Y1905806D2*
X785753D1*
X790064Y1907265D1*
X791523Y1908691D1*
X792949Y1911543D1*
Y1914428D1*
X791523Y1917280D1*
X790064Y1918739D1*
X785753Y1920165D1*
X772853D1*
Y1890021D1*
X782901Y1905806D2*
X792949Y1890021D1*
X802213Y1914395D2*
X805098Y1915854D1*
X809409Y1920132D1*
Y1890021D1*
X818672Y1914395D2*
X821558Y1915854D1*
X825869Y1920132D1*
Y1890021D1*
X772653Y1855803D2*
X785553D1*
X789864Y1857262D1*
X791323Y1858688D1*
X792749Y1861540D1*
Y1864425D1*
X791323Y1867277D1*
X789864Y1868736D1*
X785553Y1870162D1*
X772653D1*
Y1840018D1*
X782701Y1855803D2*
X792749Y1840018D1*
X802012Y1864392D2*
X804897Y1865851D1*
X809208Y1870129D1*
Y1840018D1*
X819931Y1862966D2*
Y1864392D1*
X821357Y1867277D1*
X822783Y1868703D1*
X825668Y1870129D1*
X831405D1*
X834257Y1868703D1*
X835683Y1867277D1*
X837142Y1864392D1*
Y1861540D1*
X835683Y1858655D1*
X832831Y1854377D1*
X818472Y1840018D1*
X838568D1*
X694708Y445666D2*
X691823Y442814D1*
X690397Y438503D1*
Y432766D1*
X691823Y428455D1*
X694708Y425570D1*
X697560D1*
X700445Y427029D1*
X701871Y428455D1*
X703297Y431307D1*
X706182Y439929D1*
X707608Y442814D1*
X709067Y444240D1*
X711919Y445666D1*
X716230D1*
X719082Y442814D1*
X720541Y438503D1*
Y432766D1*
X719082Y428455D1*
X716230Y425570D1*
X696167Y454929D2*
X694708Y457815D1*
X690430Y462126D1*
X720541D1*
X1261308Y445467D2*
X1258423Y442615D1*
X1256997Y438304D1*
Y432567D1*
X1258423Y428256D1*
X1261308Y425371D1*
X1264160D1*
X1267045Y426830D1*
X1268471Y428256D1*
X1269897Y431108D1*
X1272782Y439730D1*
X1274208Y442615D1*
X1275667Y444041D1*
X1278519Y445467D1*
X1282830D1*
X1285682Y442615D1*
X1287141Y438304D1*
Y432567D1*
X1285682Y428256D1*
X1282830Y425371D1*
X1264193Y456189D2*
X1262767D1*
X1259882Y457615D1*
X1258456Y459041D1*
X1257030Y461926D1*
Y467663D1*
X1258456Y470515D1*
X1259882Y471941D1*
X1262767Y473400D1*
X1265619D1*
X1268504Y471941D1*
X1272782Y469089D1*
X1287141Y454730D1*
Y474826D1*
X1423025Y1835951D2*
Y1814429D1*
X1424451Y1810118D1*
X1427336Y1807266D1*
X1431647Y1805807D1*
X1434499D1*
X1438810Y1807266D1*
X1441695Y1810118D1*
X1443121Y1814429D1*
Y1835951D1*
X1452385Y1830181D2*
X1455270Y1831640D1*
X1459581Y1835918D1*
Y1805807D1*
X952634Y2380597D2*
Y2359075D1*
X954060Y2354764D1*
X956945Y2351912D1*
X961256Y2350453D1*
X964108D1*
X968419Y2351912D1*
X971304Y2354764D1*
X972730Y2359075D1*
Y2380597D1*
X983453Y2373400D2*
Y2374826D1*
X984879Y2377712D1*
X986305Y2379137D1*
X989190Y2380563D1*
X994927D1*
X997779Y2379137D1*
X999205Y2377712D1*
X1000664Y2374826D1*
Y2371975D1*
X999205Y2369089D1*
X996353Y2364812D1*
X981994Y2350453D1*
X1002090D1*
X693645Y959338D2*
Y937816D1*
X695071Y933505D1*
X697956Y930653D1*
X702267Y929194D1*
X705119D1*
X709430Y930653D1*
X712315Y933505D1*
X713741Y937816D1*
Y959338D1*
X740215Y959305D2*
X725890D1*
X724464Y946405D1*
X725890Y947831D1*
X730201Y949290D1*
X734478D1*
X738789Y947831D1*
X741675Y944979D1*
X743100Y940668D1*
Y937816D1*
X741675Y933505D1*
X738789Y930620D1*
X734478Y929194D1*
X730201D1*
X725890Y930620D1*
X724464Y932079D1*
X723004Y934931D1*
M02*
