#VRML V2.0 utf8
Shape { appearance Appearance { material Material { diffuseColor 0.95 0.95 0.92 transparency 0 } }
 geometry IndexedFaceSet { coord Coordinate { point [ -0.3937 -0.3937 0.0000, 0.3937 -0.3937 0.0000, 0.3937 0.3937 0.0000, -0.3937 0.3937 0.0000, -0.3937 -0.3937 0.2520, 0.3937 -0.3937 0.2520, 0.3937 0.3937 0.2520, -0.3937 0.3937 0.2520 ] } coordIndex [ 0,3,2,1,-1, 4,5,6,7,-1, 0,1,5,4,-1, 1,2,6,5,-1, 2,3,7,6,-1, 3,0,4,7,-1 ] } }
Shape { appearance Appearance { material Material { diffuseColor 0.25 0.25 0.28 transparency 0.2 } }
 geometry IndexedFaceSet { coord Coordinate { point [ -0.3150 -0.3150 0.2520, 0.3150 -0.3150 0.2520, 0.3150 0.3150 0.2520, -0.3150 0.3150 0.2520, -0.3150 -0.3150 0.3307, 0.3150 -0.3150 0.3307, 0.3150 0.3150 0.3307, -0.3150 0.3150 0.3307 ] } coordIndex [ 0,3,2,1,-1, 4,5,6,7,-1, 0,1,5,4,-1, 1,2,6,5,-1, 2,3,7,6,-1, 3,0,4,7,-1 ] } }
