G04 DipTrace 3.3.1.3*
G04 Bottom.gbr*
%MOIN*%
G04 #@! TF.FileFunction,Copper,L2,Bot*
G04 #@! TF.Part,Single*
G04 #@! TA.AperFunction,CopperBalancing*
%ADD13C,0.007874*%
%ADD14C,0.025*%
G04 #@! TA.AperFunction,ComponentPad*
%ADD18R,0.07X0.07*%
%ADD19C,0.07*%
%ADD20C,0.22626*%
%ADD21C,0.055118*%
%ADD26C,0.049213*%
G04 #@! TA.AperFunction,ComponentPad*
%ADD29C,0.066929*%
G04 #@! TA.AperFunction,ViaPad*
%ADD34C,0.031*%
%FSLAX26Y26*%
G04*
G70*
G90*
G75*
G01*
G04 Bottom*
%LPD*%
X893702Y1149951D2*
D13*
X1024953D1*
X1381202Y1506200D1*
Y1612451D1*
Y2106200D1*
X1137453Y1612451D2*
X1381202D1*
X737453Y2056200D2*
Y2012451D1*
X1137453Y1612451D1*
X961357Y2200804D2*
Y3098855D1*
X973729Y3111226D1*
Y3312277D1*
X1112453Y2151229D2*
X1119982D1*
X1168628Y2199875D1*
Y3008973D1*
X1243702Y3084048D1*
Y3200283D1*
X1245736D1*
X1191734Y3312277D2*
Y3088501D1*
X1121891Y3018658D1*
Y2200552D1*
X1072568Y2151229D1*
X1049953D1*
X993702D2*
X972135D1*
X931202Y2192162D1*
Y3200283D1*
X918729D1*
X1518702Y2243700D2*
X1514024D1*
X1462452Y2192128D1*
Y1699951D1*
X1518702Y1643700D1*
X1099953Y799949D2*
X662453D1*
X518702Y943700D1*
X809726Y3200283D2*
Y3373941D1*
X840969Y3405184D1*
X1294156D1*
X1342544Y3356797D1*
Y3147880D1*
X1526036Y2964388D1*
Y2708482D1*
Y2498108D1*
X1521187Y2493259D1*
Y2246184D1*
X1518702Y2243700D1*
Y1643700D2*
Y1642330D1*
X1435079Y1558707D1*
Y1504183D1*
X953449Y1022553D1*
X597555D1*
X518702Y943700D1*
X743702Y2924951D2*
Y2919533D1*
X448751Y2624582D1*
Y1213651D1*
X518702Y1143700D1*
X956202Y843700D2*
Y881200D1*
X1518702Y1443700D1*
X868702Y868700D2*
Y893700D1*
X1518702Y1543700D1*
X1043702Y868700D2*
Y937449D1*
X1499953Y1393700D1*
X1543702D1*
X1568702Y1418700D1*
Y2093700D1*
X1518702Y2143700D1*
X518702Y1943700D2*
X624952Y2049949D1*
Y2624949D1*
X1087453Y868700D2*
X1418702Y1199949D1*
Y1243700D1*
X1518702Y1343700D1*
X794196Y1506776D2*
X850528D1*
X890956Y1547204D1*
Y1596763D1*
X897617Y2201229D2*
Y3089785D1*
X864726Y3122676D1*
Y3312277D1*
X1082731D2*
Y3095050D1*
X1053822Y3066141D1*
Y2193553D1*
X1022719Y2162451D1*
Y2131350D1*
X1007516Y2116146D1*
X970412D1*
X935330Y2151229D1*
X1081202Y2201229D2*
Y3038029D1*
X1136734Y3093561D1*
Y3200283D1*
X1021879Y2201229D2*
Y3194431D1*
X1027731Y3200283D1*
D34*
X897617Y2201229D3*
X935330Y2151229D3*
X961357Y2200804D3*
X993702Y2151229D3*
X1021879Y2201229D3*
X1049953Y2151229D3*
X1081202Y2201229D3*
X1112453Y2151229D3*
X890956Y1596763D3*
X1087453Y868700D3*
X1043702D3*
X956202Y843700D3*
X893702Y1149951D3*
X868702Y868700D3*
X1381202Y1506200D3*
Y2106200D3*
X1137453Y1612451D3*
X737453Y2056200D3*
X1099953Y799949D3*
X743702Y2924951D3*
X624952Y2624949D3*
X427471Y3587582D2*
D14*
X1622438D1*
X427471Y3562713D2*
X1622438D1*
X427471Y3537844D2*
X1622438D1*
X427471Y3512976D2*
X1622438D1*
X427471Y3488107D2*
X1622438D1*
X427471Y3463238D2*
X1622438D1*
X427471Y3438369D2*
X1622438D1*
X427471Y3413501D2*
X1622438D1*
X427471Y3388632D2*
X499299D1*
X572156D2*
X1483315D1*
X1556172D2*
X1622438D1*
X427471Y3363763D2*
X448882D1*
X622573D2*
X834457D1*
X895006D2*
X943438D1*
X1004022D2*
X1052454D1*
X1113002D2*
X1161470D1*
X1222019D2*
X1432898D1*
X1606589D2*
X1622438D1*
X647046Y3338894D2*
X810128D1*
X1246312D2*
X1408425D1*
X662046Y3314025D2*
X803740D1*
X1252700D2*
X1393425D1*
X670837Y3289157D2*
X808477D1*
X1247963D2*
X1384634D1*
X674605Y3264288D2*
X828788D1*
X900676D2*
X937768D1*
X1009692D2*
X1046784D1*
X1118672D2*
X1155764D1*
X1227688D2*
X1380830D1*
X673816Y3239419D2*
X763730D1*
X1306741D2*
X1381655D1*
X668326Y3214550D2*
X750488D1*
X1306741D2*
X1387145D1*
X657524Y3189682D2*
X749699D1*
X1306741D2*
X1397947D1*
X639726Y3164813D2*
X760715D1*
X1306741D2*
X1415745D1*
X427471Y3139944D2*
X461585D1*
X609870D2*
X834780D1*
X1273656D2*
X1445601D1*
X1593886D2*
X1622438D1*
X427471Y3115075D2*
X835857D1*
X1273656D2*
X1622438D1*
X427471Y3090207D2*
X855880D1*
X1273656D2*
X1622438D1*
X427471Y3065338D2*
X867686D1*
X1266264D2*
X1622438D1*
X427471Y3040469D2*
X867686D1*
X1241432D2*
X1622438D1*
X427471Y3015600D2*
X867686D1*
X1216564D2*
X1520132D1*
X1532148D2*
X1622438D1*
X427471Y2990731D2*
X867686D1*
X1198550D2*
X1302638D1*
X1395124D2*
X1479798D1*
X1572284D2*
X1622438D1*
X427471Y2965863D2*
X867686D1*
X1198550D2*
X1295318D1*
X1402408D2*
X1472514D1*
X1579569D2*
X1622438D1*
X427471Y2940994D2*
X705669D1*
X781755D2*
X867686D1*
X1198550D2*
X1300988D1*
X1396739D2*
X1478148D1*
X1573935D2*
X1622438D1*
X427471Y2916125D2*
X698994D1*
X784196D2*
X867686D1*
X1198550D2*
X1329695D1*
X1368031D2*
X1506102D1*
X1546196D2*
X1622438D1*
X427471Y2891256D2*
X674127D1*
X765859D2*
X867686D1*
X1198550D2*
X1622438D1*
X427471Y2866388D2*
X649259D1*
X731841D2*
X867686D1*
X1198550D2*
X1622438D1*
X427471Y2841519D2*
X624391D1*
X706973D2*
X867686D1*
X1198550D2*
X1622438D1*
X427471Y2816650D2*
X599523D1*
X682105D2*
X867686D1*
X1198550D2*
X1622438D1*
X427471Y2791781D2*
X574656D1*
X657237D2*
X867686D1*
X1198550D2*
X1622438D1*
X427471Y2766913D2*
X549788D1*
X632370D2*
X867686D1*
X1198550D2*
X1622438D1*
X427471Y2742044D2*
X524920D1*
X607502D2*
X867686D1*
X1198550D2*
X1307877D1*
X1389849D2*
X1485073D1*
X1567009D2*
X1622438D1*
X427471Y2717175D2*
X500053D1*
X582634D2*
X867686D1*
X1198550D2*
X1296071D1*
X1401691D2*
X1473232D1*
X1578851D2*
X1622438D1*
X427471Y2692306D2*
X475185D1*
X557766D2*
X867686D1*
X1198550D2*
X1297937D1*
X1399789D2*
X1475098D1*
X1576949D2*
X1622438D1*
X427471Y2667438D2*
X450317D1*
X532899D2*
X867686D1*
X1198550D2*
X1315987D1*
X1381739D2*
X1493147D1*
X1558971D2*
X1622438D1*
X508031Y2642569D2*
X587646D1*
X662261D2*
X867686D1*
X1198550D2*
X1622438D1*
X483163Y2617700D2*
X584129D1*
X665778D2*
X867686D1*
X1198550D2*
X1622438D1*
X478678Y2592831D2*
X595002D1*
X654905D2*
X867686D1*
X1198550D2*
X1622438D1*
X478678Y2567962D2*
X595002D1*
X654905D2*
X867686D1*
X1198550D2*
X1622438D1*
X478678Y2543094D2*
X595002D1*
X654905D2*
X867686D1*
X1198550D2*
X1622438D1*
X478678Y2518225D2*
X595002D1*
X654905D2*
X867686D1*
X1198550D2*
X1622438D1*
X478678Y2493356D2*
X595002D1*
X654905D2*
X867686D1*
X1198550D2*
X1622438D1*
X478678Y2468487D2*
X595002D1*
X654905D2*
X867686D1*
X1198550D2*
X1622438D1*
X478678Y2443619D2*
X595002D1*
X654905D2*
X867686D1*
X1198550D2*
X1622438D1*
X478678Y2418750D2*
X595002D1*
X654905D2*
X867686D1*
X1198550D2*
X1622438D1*
X478678Y2393881D2*
X595002D1*
X654905D2*
X867686D1*
X1198550D2*
X1622438D1*
X478678Y2369012D2*
X595002D1*
X654905D2*
X867686D1*
X1198550D2*
X1622438D1*
X478678Y2344144D2*
X595002D1*
X654905D2*
X867686D1*
X1198550D2*
X1622438D1*
X478678Y2319275D2*
X595002D1*
X654905D2*
X867686D1*
X1198550D2*
X1622438D1*
X478678Y2294406D2*
X490256D1*
X547145D2*
X595002D1*
X654905D2*
X867686D1*
X1198550D2*
X1490241D1*
X1547165D2*
X1622438D1*
X571977Y2269537D2*
X595002D1*
X654905D2*
X867686D1*
X1198550D2*
X1465445D1*
X1571961D2*
X1622438D1*
X578149Y2244669D2*
X595002D1*
X654905D2*
X867686D1*
X1198550D2*
X1459237D1*
X1578169D2*
X1622438D1*
X572910Y2219800D2*
X595002D1*
X654905D2*
X860832D1*
X1198550D2*
X1464512D1*
X1572894D2*
X1622438D1*
X550625Y2194931D2*
X595002D1*
X654905D2*
X856634D1*
X1198120D2*
X1486760D1*
X1550646D2*
X1622438D1*
X571689Y2170062D2*
X595002D1*
X654905D2*
X871669D1*
X1180106D2*
X1465696D1*
X1571710D2*
X1622438D1*
X578149Y2145193D2*
X595002D1*
X654905D2*
X894312D1*
X1155238D2*
X1459273D1*
X1578133D2*
X1622438D1*
X573161Y2120325D2*
X595002D1*
X654905D2*
X909025D1*
X1076257D2*
X1086149D1*
X1138731D2*
X1342362D1*
X1420063D2*
X1464261D1*
X1583372D2*
X1622438D1*
X551487Y2095456D2*
X595002D1*
X654905D2*
X949897D1*
X1028029D2*
X1341214D1*
X1421176D2*
X1485899D1*
X1598587D2*
X1622438D1*
X571438Y2070587D2*
X595002D1*
X654905D2*
X698707D1*
X776193D2*
X1351261D1*
X1411128D2*
X1465983D1*
X1598623D2*
X1622438D1*
X654546Y2045718D2*
X697380D1*
X777521D2*
X1351261D1*
X1411128D2*
X1459273D1*
X1598623D2*
X1622438D1*
X637142Y2020850D2*
X707499D1*
X770344D2*
X1351261D1*
X1411128D2*
X1464009D1*
X1598623D2*
X1622438D1*
X612274Y1995981D2*
X713025D1*
X795212D2*
X1351261D1*
X1411128D2*
X1485109D1*
X1598623D2*
X1622438D1*
X587407Y1971112D2*
X737498D1*
X820080D2*
X1351261D1*
X1411128D2*
X1466270D1*
X1598623D2*
X1622438D1*
X578113Y1946243D2*
X762366D1*
X844948D2*
X1351261D1*
X1411128D2*
X1459309D1*
X1598623D2*
X1622438D1*
X573627Y1921375D2*
X787234D1*
X869815D2*
X1351261D1*
X1411128D2*
X1463794D1*
X1598623D2*
X1622438D1*
X553101Y1896506D2*
X812101D1*
X894683D2*
X1351261D1*
X1411128D2*
X1484284D1*
X1598623D2*
X1622438D1*
X570828Y1871637D2*
X836969D1*
X919551D2*
X1351261D1*
X1411128D2*
X1466557D1*
X1598623D2*
X1622438D1*
X578077Y1846768D2*
X861837D1*
X944454D2*
X1351261D1*
X1411128D2*
X1459309D1*
X1598623D2*
X1622438D1*
X573843Y1821899D2*
X886705D1*
X969322D2*
X1351261D1*
X1411128D2*
X1463579D1*
X1598623D2*
X1622438D1*
X553855Y1797031D2*
X911572D1*
X994190D2*
X1351261D1*
X1411128D2*
X1483530D1*
X1598623D2*
X1622438D1*
X570541Y1772162D2*
X936440D1*
X1019058D2*
X1351261D1*
X1411128D2*
X1466844D1*
X1598623D2*
X1622438D1*
X578041Y1747293D2*
X961308D1*
X1043925D2*
X1351261D1*
X1411128D2*
X1459344D1*
X1598623D2*
X1622438D1*
X574058Y1722424D2*
X986176D1*
X1068793D2*
X1351261D1*
X1411128D2*
X1463363D1*
X1598623D2*
X1622438D1*
X554609Y1697556D2*
X1011043D1*
X1093661D2*
X1351261D1*
X1411128D2*
X1482813D1*
X1598623D2*
X1622438D1*
X570254Y1672687D2*
X1035911D1*
X1118529D2*
X1351261D1*
X1411128D2*
X1467167D1*
X1598623D2*
X1622438D1*
X578005Y1647818D2*
X1060779D1*
X1156386D2*
X1351261D1*
X1411128D2*
X1459380D1*
X1598623D2*
X1622438D1*
X574237Y1622949D2*
X859540D1*
X922350D2*
X1085647D1*
X1411128D2*
X1463148D1*
X1598623D2*
X1622438D1*
X555326Y1598081D2*
X849493D1*
X932433D2*
X1098708D1*
X1411128D2*
X1482095D1*
X1598623D2*
X1622438D1*
X569931Y1573212D2*
X857387D1*
X924539D2*
X1351261D1*
X1411128D2*
X1467490D1*
X1598623D2*
X1622438D1*
X577969Y1548343D2*
X767497D1*
X820905D2*
X850785D1*
X920878D2*
X1351261D1*
X1411128D2*
X1459416D1*
X1598623D2*
X1622438D1*
X574453Y1523474D2*
X746577D1*
X908534D2*
X1343726D1*
X1418664D2*
X1457191D1*
X1598623D2*
X1622438D1*
X556008Y1498606D2*
X744280D1*
X883667D2*
X1332314D1*
X1421965D2*
X1432296D1*
X1598623D2*
X1622438D1*
X569608Y1473737D2*
X756732D1*
X831670D2*
X1307447D1*
X1598623D2*
X1622438D1*
X577933Y1448868D2*
X1282579D1*
X1365161D2*
X1382552D1*
X1598623D2*
X1622438D1*
X574668Y1423999D2*
X1257711D1*
X1340293D2*
X1357685D1*
X1440302D2*
X1457694D1*
X1598623D2*
X1622438D1*
X556690Y1399130D2*
X1232843D1*
X1315425D2*
X1332817D1*
X1415434D2*
X1432826D1*
X1590442D2*
X1622438D1*
X569285Y1374262D2*
X1207976D1*
X1290557D2*
X1307949D1*
X1390567D2*
X1407958D1*
X1569270D2*
X1622438D1*
X577897Y1349393D2*
X1183108D1*
X1265690D2*
X1283081D1*
X1365699D2*
X1383091D1*
X1577882D2*
X1622438D1*
X574847Y1324524D2*
X1158240D1*
X1240822D2*
X1258214D1*
X1340831D2*
X1358223D1*
X1574832D2*
X1622438D1*
X557336Y1299655D2*
X1133373D1*
X1215954D2*
X1233346D1*
X1315963D2*
X1333355D1*
X1557320D2*
X1622438D1*
X568926Y1274787D2*
X1108505D1*
X1191086D2*
X1208478D1*
X1291096D2*
X1308487D1*
X1568947D2*
X1622438D1*
X577826Y1249918D2*
X1083601D1*
X1166219D2*
X1183610D1*
X1266228D2*
X1283620D1*
X1577810D2*
X1622438D1*
X575027Y1225049D2*
X1058733D1*
X1141351D2*
X1158743D1*
X1241360D2*
X1258752D1*
X1372589D2*
X1388760D1*
X1448627D2*
X1462395D1*
X1575011D2*
X1622438D1*
X557946Y1200180D2*
X1033866D1*
X1116483D2*
X1133875D1*
X1216492D2*
X1233884D1*
X1347721D2*
X1377636D1*
X1448627D2*
X1479440D1*
X1557966D2*
X1622438D1*
X427471Y1175312D2*
X445796D1*
X568603D2*
X861586D1*
X1091615D2*
X1109007D1*
X1191625D2*
X1209016D1*
X1322853D2*
X1352768D1*
X1435350D2*
X1468818D1*
X1568588D2*
X1622438D1*
X427471Y1150443D2*
X459647D1*
X577754D2*
X852220D1*
X1066748D2*
X1084139D1*
X1166757D2*
X1184149D1*
X1297985D2*
X1327901D1*
X1410482D2*
X1459632D1*
X1577774D2*
X1622438D1*
X427471Y1125574D2*
X462195D1*
X575206D2*
X860760D1*
X1040050D2*
X1059272D1*
X1141889D2*
X1159281D1*
X1273118D2*
X1303033D1*
X1385615D2*
X1462215D1*
X1575191D2*
X1622438D1*
X427471Y1100705D2*
X478845D1*
X558556D2*
X1034404D1*
X1117021D2*
X1134413D1*
X1248250D2*
X1278165D1*
X1360747D2*
X1478830D1*
X1558576D2*
X1622438D1*
X427471Y1075836D2*
X469156D1*
X568245D2*
X1009536D1*
X1092154D2*
X1109545D1*
X1223382D2*
X1253297D1*
X1335879D2*
X1469177D1*
X1568229D2*
X1622438D1*
X427471Y1050968D2*
X459719D1*
X577718D2*
X984668D1*
X1067286D2*
X1084678D1*
X1198514D2*
X1228430D1*
X1311011D2*
X1459703D1*
X1577703D2*
X1622438D1*
X427471Y1026099D2*
X462015D1*
X575386D2*
X959801D1*
X1042418D2*
X1059810D1*
X1173647D2*
X1203562D1*
X1286144D2*
X1462036D1*
X1575370D2*
X1622438D1*
X427471Y1001230D2*
X478235D1*
X559166D2*
X934933D1*
X1017550D2*
X1034942D1*
X1148779D2*
X1178694D1*
X1261276D2*
X1478255D1*
X1559150D2*
X1622438D1*
X427471Y976361D2*
X469515D1*
X567886D2*
X910065D1*
X992683D2*
X1010074D1*
X1123911D2*
X1153827D1*
X1236408D2*
X1469536D1*
X1567870D2*
X1622438D1*
X427471Y951493D2*
X459790D1*
X577646D2*
X885197D1*
X967779D2*
X985207D1*
X1099043D2*
X1128959D1*
X1211540D2*
X1459775D1*
X1577631D2*
X1622438D1*
X427471Y926624D2*
X461872D1*
X575565D2*
X860330D1*
X942911D2*
X960339D1*
X1074176D2*
X1104091D1*
X1186673D2*
X1461856D1*
X1575550D2*
X1622438D1*
X427471Y901755D2*
X477661D1*
X559740D2*
X839983D1*
X918044D2*
X935471D1*
X1161805D2*
X1477645D1*
X1559761D2*
X1622438D1*
X427471Y876886D2*
X469910D1*
X567491D2*
X828070D1*
X909324D2*
X926249D1*
X993185D2*
X1003077D1*
X1136937D2*
X1469894D1*
X1567512D2*
X1622438D1*
X427471Y852018D2*
X459862D1*
X577539D2*
X830941D1*
X906453D2*
X915617D1*
X996809D2*
X1005948D1*
X1125203D2*
X1459847D1*
X1577559D2*
X1622438D1*
X427471Y827149D2*
X461692D1*
X575708D2*
X918390D1*
X994010D2*
X1461713D1*
X1575693D2*
X1622438D1*
X427471Y802280D2*
X477087D1*
X560314D2*
X1477107D1*
X1560299D2*
X1622438D1*
X427471Y777411D2*
X470269D1*
X567132D2*
X1470289D1*
X1567117D2*
X1622438D1*
X427471Y752543D2*
X459934D1*
X577467D2*
X1459919D1*
X1577487D2*
X1622438D1*
X427471Y727674D2*
X461549D1*
X575852D2*
X1461533D1*
X1575873D2*
X1622438D1*
X427471Y702805D2*
X476548D1*
X560852D2*
X1476533D1*
X1560873D2*
X1622438D1*
X427471Y677936D2*
X470663D1*
X566737D2*
X1470684D1*
X1566722D2*
X1622438D1*
X427471Y653067D2*
X460006D1*
X577395D2*
X1460026D1*
X1577380D2*
X1622438D1*
X427471Y628199D2*
X461405D1*
X576031D2*
X1461390D1*
X1576016D2*
X1622438D1*
X427471Y603330D2*
X476010D1*
X561391D2*
X814183D1*
X882949D2*
X1128636D1*
X1197402D2*
X1475995D1*
X1561375D2*
X1622438D1*
X427471Y578461D2*
X471058D1*
X566343D2*
X791001D1*
X906166D2*
X1105455D1*
X1220619D2*
X1471079D1*
X1566327D2*
X1622438D1*
X427471Y553592D2*
X460113D1*
X577287D2*
X784327D1*
X912840D2*
X1098780D1*
X1227294D2*
X1460098D1*
X1577308D2*
X1622438D1*
X427471Y528724D2*
X461226D1*
X576175D2*
X788131D1*
X909001D2*
X1102584D1*
X1223454D2*
X1461246D1*
X1576160D2*
X1622438D1*
X427471Y503855D2*
X475508D1*
X561929D2*
X805283D1*
X891848D2*
X1119737D1*
X1206301D2*
X1475492D1*
X1561914D2*
X1622438D1*
X427471Y478986D2*
X471489D1*
X565912D2*
X1471473D1*
X1565933D2*
X1622438D1*
X427471Y454117D2*
X460185D1*
X577216D2*
X1460206D1*
X1577200D2*
X1622438D1*
X440820Y429249D2*
X461118D1*
X576319D2*
X1461103D1*
X1576303D2*
X1618634D1*
X1219137Y3258783D2*
X1304236D1*
Y3141783D1*
X1271115D1*
X1271055Y3081895D1*
X1270381Y3077643D1*
X1269051Y3073548D1*
X1267096Y3069712D1*
X1264566Y3066229D1*
X1196040Y2997583D1*
X1195980Y2197722D1*
X1195307Y2193469D1*
X1193976Y2189375D1*
X1192021Y2185539D1*
X1189491Y2182056D1*
X1150602Y2143047D1*
X1148484Y2136304D1*
X1145706Y2130851D1*
X1142109Y2125900D1*
X1137781Y2121573D1*
X1132830Y2117976D1*
X1127378Y2115198D1*
X1121557Y2113306D1*
X1115513Y2112349D1*
X1109393D1*
X1103349Y2113306D1*
X1097528Y2115198D1*
X1092076Y2117976D1*
X1087124Y2121573D1*
X1082886Y2125804D1*
X1078965Y2124548D1*
X1072877Y2119677D1*
X1067659Y2116480D1*
X1062005Y2114138D1*
X1056054Y2112709D1*
X1049953Y2112229D1*
X1042996Y2112879D1*
X1025335Y2095283D1*
X1021852Y2092752D1*
X1018016Y2090798D1*
X1013921Y2089467D1*
X1009669Y2088794D1*
X970412Y2088709D1*
X966120Y2089047D1*
X961934Y2090052D1*
X957956Y2091700D1*
X954285Y2093949D1*
X951011Y2096745D1*
X935330Y2112229D1*
X929229Y2112709D1*
X923278Y2114138D1*
X917624Y2116480D1*
X912406Y2119677D1*
X907752Y2123652D1*
X903778Y2128305D1*
X900580Y2133523D1*
X898238Y2139177D1*
X896810Y2145128D1*
X896330Y2151229D1*
X896810Y2157330D1*
X897943Y2162233D1*
X891516Y2162709D1*
X885565Y2164138D1*
X879911Y2166480D1*
X874693Y2169677D1*
X870040Y2173652D1*
X866065Y2178305D1*
X862868Y2183523D1*
X860526Y2189177D1*
X859097Y2195128D1*
X858617Y2201229D1*
X859097Y2207330D1*
X860526Y2213281D1*
X862868Y2218935D1*
X866065Y2224152D1*
X870172Y2228928D1*
X870180Y3078418D1*
X843863Y3104857D1*
X841332Y3108341D1*
X839377Y3112177D1*
X838047Y3116271D1*
X837373Y3120524D1*
X837289Y3148692D1*
X831281Y3145899D1*
X824297Y3143626D1*
X817084Y3142247D1*
X809754Y3141783D1*
X802424Y3142240D1*
X795209Y3143612D1*
X788223Y3145878D1*
X781576Y3149001D1*
X775372Y3152932D1*
X769710Y3157610D1*
X764679Y3162960D1*
X760357Y3168898D1*
X756814Y3175331D1*
X754105Y3182157D1*
X752272Y3189269D1*
X751345Y3196555D1*
X751338Y3203899D1*
X752251Y3211186D1*
X754070Y3218301D1*
X756766Y3225133D1*
X760297Y3231573D1*
X764607Y3237519D1*
X769628Y3242879D1*
X775281Y3247567D1*
X781477Y3251510D1*
X788119Y3254646D1*
X795100Y3256925D1*
X802313Y3258311D1*
X809642Y3258783D1*
X816972Y3258332D1*
X824188Y3256967D1*
X831177Y3254708D1*
X837287Y3251876D1*
X837289Y3260579D1*
X830340Y3264950D1*
X823360Y3270912D1*
X817398Y3277892D1*
X812602Y3285719D1*
X809089Y3294200D1*
X806946Y3303126D1*
X806226Y3312277D1*
X806946Y3321429D1*
X809089Y3330355D1*
X812602Y3338836D1*
X817398Y3346663D1*
X823360Y3353643D1*
X830340Y3359605D1*
X838167Y3364401D1*
X846648Y3367914D1*
X855575Y3370057D1*
X864726Y3370777D1*
X873877Y3370057D1*
X882803Y3367914D1*
X891284Y3364401D1*
X899111Y3359605D1*
X906092Y3353643D1*
X912053Y3346663D1*
X916850Y3338836D1*
X919214Y3333469D1*
X921605Y3338836D1*
X926401Y3346663D1*
X932363Y3353643D1*
X939343Y3359605D1*
X947170Y3364401D1*
X955651Y3367914D1*
X964577Y3370057D1*
X973729Y3370777D1*
X982880Y3370057D1*
X991806Y3367914D1*
X1000287Y3364401D1*
X1008114Y3359605D1*
X1015094Y3353643D1*
X1021056Y3346663D1*
X1025852Y3338836D1*
X1028216Y3333469D1*
X1030607Y3338836D1*
X1035404Y3346663D1*
X1041365Y3353643D1*
X1048346Y3359605D1*
X1056173Y3364401D1*
X1064654Y3367914D1*
X1073580Y3370057D1*
X1082731Y3370777D1*
X1091883Y3370057D1*
X1100809Y3367914D1*
X1109290Y3364401D1*
X1117117Y3359605D1*
X1124097Y3353643D1*
X1130059Y3346663D1*
X1134855Y3338836D1*
X1137219Y3333469D1*
X1139610Y3338836D1*
X1144406Y3346663D1*
X1150368Y3353643D1*
X1157348Y3359605D1*
X1165175Y3364401D1*
X1173656Y3367914D1*
X1182582Y3370057D1*
X1191734Y3370777D1*
X1200885Y3370057D1*
X1209811Y3367914D1*
X1218292Y3364401D1*
X1226119Y3359605D1*
X1233100Y3353643D1*
X1239061Y3346663D1*
X1243858Y3338836D1*
X1247371Y3330355D1*
X1249514Y3321429D1*
X1250234Y3312277D1*
X1249514Y3303126D1*
X1247371Y3294200D1*
X1243858Y3285719D1*
X1239061Y3277892D1*
X1233100Y3270912D1*
X1226119Y3264950D1*
X1219185Y3260653D1*
X1110160Y3252398D2*
X1118656Y3255919D1*
X1127582Y3258062D1*
X1136734Y3258783D1*
X1145885Y3258062D1*
X1154811Y3255919D1*
X1163292Y3252407D1*
X1164310Y3251837D1*
X1164297Y3260637D1*
X1157348Y3264950D1*
X1150368Y3270912D1*
X1144406Y3277892D1*
X1139610Y3285719D1*
X1137246Y3291086D1*
X1134855Y3285719D1*
X1130059Y3277892D1*
X1124097Y3270912D1*
X1117117Y3264950D1*
X1110182Y3260653D1*
X1110168Y3252387D1*
X1001157Y3252398D2*
X1009654Y3255919D1*
X1018580Y3258062D1*
X1027731Y3258783D1*
X1036883Y3258062D1*
X1045809Y3255919D1*
X1054290Y3252407D1*
X1055307Y3251837D1*
X1055294Y3260584D1*
X1048346Y3264950D1*
X1041365Y3270912D1*
X1035404Y3277892D1*
X1030607Y3285719D1*
X1028243Y3291086D1*
X1025852Y3285719D1*
X1021056Y3277892D1*
X1015094Y3270912D1*
X1008114Y3264950D1*
X1001179Y3260653D1*
X1001166Y3252387D1*
X892154Y3252398D2*
X900651Y3255919D1*
X909577Y3258062D1*
X918729Y3258783D1*
X927880Y3258062D1*
X936806Y3255919D1*
X945287Y3252407D1*
X946305Y3251837D1*
X946291Y3260612D1*
X939343Y3264950D1*
X932363Y3270912D1*
X926401Y3277892D1*
X921605Y3285719D1*
X919241Y3291086D1*
X916850Y3285719D1*
X912053Y3277892D1*
X906092Y3270912D1*
X899111Y3264950D1*
X892177Y3260653D1*
X892163Y3252387D1*
X1624933Y3169190D2*
X1620674Y3164194D1*
X1614259Y3157621D1*
X1607417Y3151493D1*
X1600179Y3145839D1*
X1592577Y3140684D1*
X1584646Y3136052D1*
X1576422Y3131963D1*
X1567942Y3128436D1*
X1559244Y3125486D1*
X1550367Y3123127D1*
X1541352Y3121370D1*
X1532240Y3120223D1*
X1523070Y3119691D1*
X1513886Y3119776D1*
X1504728Y3120477D1*
X1495638Y3121793D1*
X1486657Y3123716D1*
X1477826Y3126238D1*
X1469184Y3129347D1*
X1460770Y3133031D1*
X1452623Y3137271D1*
X1444779Y3142049D1*
X1437274Y3147343D1*
X1430141Y3153130D1*
X1423413Y3159383D1*
X1417121Y3166073D1*
X1411292Y3173171D1*
X1405954Y3180645D1*
X1401129Y3188461D1*
X1396841Y3196583D1*
X1393108Y3204974D1*
X1389947Y3213598D1*
X1387373Y3222414D1*
X1385397Y3231384D1*
X1384027Y3240466D1*
X1383272Y3249619D1*
X1383132Y3258803D1*
X1383611Y3267975D1*
X1384704Y3277094D1*
X1386407Y3286120D1*
X1388713Y3295010D1*
X1391612Y3303725D1*
X1395089Y3312226D1*
X1399129Y3320475D1*
X1403714Y3328433D1*
X1408824Y3336065D1*
X1414435Y3343336D1*
X1420522Y3350214D1*
X1427057Y3356668D1*
X1434011Y3362668D1*
X1441352Y3368187D1*
X1449048Y3373201D1*
X1457063Y3377686D1*
X1465361Y3381623D1*
X1473905Y3384993D1*
X1482656Y3387781D1*
X1491575Y3389976D1*
X1500621Y3391566D1*
X1509753Y3392545D1*
X1518930Y3392908D1*
X1528111Y3392653D1*
X1537255Y3391783D1*
X1546319Y3390300D1*
X1555263Y3388211D1*
X1564046Y3385526D1*
X1572630Y3382258D1*
X1580974Y3378419D1*
X1589041Y3374029D1*
X1596796Y3369107D1*
X1604202Y3363675D1*
X1611226Y3357758D1*
X1617837Y3351382D1*
X1624962Y3343367D1*
X1624952Y3601004D1*
X1613530Y3612445D1*
X436354Y3612451D1*
X424959Y3601028D1*
X424953Y3336243D1*
X430419Y3343336D1*
X436506Y3350214D1*
X443041Y3356668D1*
X449995Y3362668D1*
X457336Y3368187D1*
X465032Y3373201D1*
X473047Y3377686D1*
X481345Y3381623D1*
X489889Y3384993D1*
X498640Y3387781D1*
X507559Y3389976D1*
X516605Y3391566D1*
X525737Y3392545D1*
X534915Y3392908D1*
X544096Y3392653D1*
X553239Y3391783D1*
X562303Y3390300D1*
X571247Y3388211D1*
X580031Y3385526D1*
X588614Y3382258D1*
X596958Y3378419D1*
X605026Y3374029D1*
X612780Y3369107D1*
X620186Y3363675D1*
X627211Y3357758D1*
X633822Y3351382D1*
X639989Y3344577D1*
X645686Y3337372D1*
X650886Y3329801D1*
X655565Y3321898D1*
X659703Y3313698D1*
X663280Y3305239D1*
X666281Y3296558D1*
X668692Y3287696D1*
X670503Y3278691D1*
X671704Y3269586D1*
X672353Y3256280D1*
X672045Y3247101D1*
X671120Y3237963D1*
X669583Y3228907D1*
X667442Y3219976D1*
X664705Y3211209D1*
X661386Y3202645D1*
X657498Y3194323D1*
X653060Y3186282D1*
X648093Y3178557D1*
X642617Y3171183D1*
X636658Y3164194D1*
X630243Y3157621D1*
X623401Y3151493D1*
X616163Y3145839D1*
X608561Y3140684D1*
X600631Y3136052D1*
X592407Y3131963D1*
X583926Y3128436D1*
X575228Y3125486D1*
X566352Y3123127D1*
X557337Y3121370D1*
X548224Y3120223D1*
X539055Y3119691D1*
X529870Y3119776D1*
X520713Y3120477D1*
X511623Y3121793D1*
X502642Y3123716D1*
X493810Y3126238D1*
X485168Y3129347D1*
X476754Y3133031D1*
X468607Y3137271D1*
X460763Y3142049D1*
X453258Y3147343D1*
X446125Y3153130D1*
X439398Y3159383D1*
X433105Y3166073D1*
X424962Y3176412D1*
X424953Y2638224D1*
X427888Y2642401D1*
X500803Y2715436D1*
X705038Y2919671D1*
X704702Y2924951D1*
X705182Y2931052D1*
X706611Y2937002D1*
X708953Y2942656D1*
X712151Y2947874D1*
X716125Y2952528D1*
X720779Y2956502D1*
X725997Y2959700D1*
X731651Y2962042D1*
X737601Y2963471D1*
X743702Y2963951D1*
X749803Y2963471D1*
X755754Y2962042D1*
X761408Y2959700D1*
X766626Y2956502D1*
X771279Y2952528D1*
X775254Y2947874D1*
X778452Y2942656D1*
X780794Y2937002D1*
X782222Y2931052D1*
X782702Y2924951D1*
X782222Y2918850D1*
X780794Y2912899D1*
X778452Y2907245D1*
X775254Y2902027D1*
X771279Y2897373D1*
X766626Y2893399D1*
X761408Y2890201D1*
X755754Y2887859D1*
X749340Y2886376D1*
X476200Y2613229D1*
X476188Y2281637D1*
X481707Y2287016D1*
X488938Y2292270D1*
X496903Y2296328D1*
X505404Y2299091D1*
X514233Y2300489D1*
X523172D1*
X532000Y2299091D1*
X540502Y2296328D1*
X548466Y2292270D1*
X555698Y2287016D1*
X562019Y2280696D1*
X567273Y2273464D1*
X571331Y2265499D1*
X574093Y2256998D1*
X575491Y2248169D1*
Y2239231D1*
X574093Y2230402D1*
X571331Y2221901D1*
X567273Y2213936D1*
X562019Y2206704D1*
X555698Y2200384D1*
X548466Y2195130D1*
X545951Y2193721D1*
X552185Y2189785D1*
X558982Y2183980D1*
X564788Y2177183D1*
X569458Y2169561D1*
X572879Y2161303D1*
X574966Y2152611D1*
X575667Y2143700D1*
X574966Y2134789D1*
X572879Y2126097D1*
X569458Y2117839D1*
X564788Y2110217D1*
X558982Y2103420D1*
X552185Y2097615D1*
X545951Y2093721D1*
X552185Y2089785D1*
X558982Y2083980D1*
X564788Y2077183D1*
X569458Y2069561D1*
X572879Y2061303D1*
X574966Y2052611D1*
X575667Y2043700D1*
X575493Y2039283D1*
X597524Y2061324D1*
X597374Y2597372D1*
X593400Y2602026D1*
X590202Y2607244D1*
X587860Y2612898D1*
X586432Y2618848D1*
X585952Y2624949D1*
X586432Y2631050D1*
X587860Y2637001D1*
X590202Y2642655D1*
X593400Y2647873D1*
X597374Y2652527D1*
X602028Y2656501D1*
X607246Y2659699D1*
X612900Y2662041D1*
X618851Y2663469D1*
X624952Y2663949D1*
X631053Y2663469D1*
X637003Y2662041D1*
X642657Y2659699D1*
X647875Y2656501D1*
X652529Y2652527D1*
X656503Y2647873D1*
X659701Y2642655D1*
X662043Y2637001D1*
X663471Y2631050D1*
X663952Y2624949D1*
X663471Y2618848D1*
X662043Y2612898D1*
X659701Y2607244D1*
X656503Y2602026D1*
X652397Y2597250D1*
X652304Y2047797D1*
X651631Y2043544D1*
X650300Y2039450D1*
X648346Y2035613D1*
X645815Y2032130D1*
X573382Y1959577D1*
X574966Y1952611D1*
X575667Y1943700D1*
X574966Y1934789D1*
X572879Y1926097D1*
X569458Y1917839D1*
X564788Y1910217D1*
X558982Y1903420D1*
X552185Y1897615D1*
X545951Y1893721D1*
X552185Y1889785D1*
X558982Y1883980D1*
X564788Y1877183D1*
X569458Y1869561D1*
X572879Y1861303D1*
X574966Y1852611D1*
X575667Y1843700D1*
X574966Y1834789D1*
X572879Y1826097D1*
X569458Y1817839D1*
X564788Y1810217D1*
X558982Y1803420D1*
X552185Y1797615D1*
X545951Y1793721D1*
X552185Y1789785D1*
X558982Y1783980D1*
X564788Y1777183D1*
X569458Y1769561D1*
X572879Y1761303D1*
X574966Y1752611D1*
X575667Y1743700D1*
X574966Y1734789D1*
X572879Y1726097D1*
X569458Y1717839D1*
X564788Y1710217D1*
X558982Y1703420D1*
X552185Y1697615D1*
X545951Y1693721D1*
X552185Y1689785D1*
X558982Y1683980D1*
X564788Y1677183D1*
X569458Y1669561D1*
X572879Y1661303D1*
X574966Y1652611D1*
X575667Y1643700D1*
X574966Y1634789D1*
X572879Y1626097D1*
X569458Y1617839D1*
X564788Y1610217D1*
X558982Y1603420D1*
X552185Y1597615D1*
X545951Y1593721D1*
X552185Y1589785D1*
X558982Y1583980D1*
X564788Y1577183D1*
X569458Y1569561D1*
X572879Y1561303D1*
X574966Y1552611D1*
X575667Y1543700D1*
X574966Y1534789D1*
X572879Y1526097D1*
X569458Y1517839D1*
X564788Y1510217D1*
X558982Y1503420D1*
X552185Y1497615D1*
X545951Y1493721D1*
X552185Y1489785D1*
X558982Y1483980D1*
X564788Y1477183D1*
X569458Y1469561D1*
X572879Y1461303D1*
X574966Y1452611D1*
X575667Y1443700D1*
X574966Y1434789D1*
X572879Y1426097D1*
X569458Y1417839D1*
X564788Y1410217D1*
X558982Y1403420D1*
X552185Y1397615D1*
X545951Y1393721D1*
X552185Y1389785D1*
X558982Y1383980D1*
X564788Y1377183D1*
X569458Y1369561D1*
X572879Y1361303D1*
X574966Y1352611D1*
X575667Y1343700D1*
X574966Y1334789D1*
X572879Y1326097D1*
X569458Y1317839D1*
X564788Y1310217D1*
X558982Y1303420D1*
X552185Y1297615D1*
X545951Y1293721D1*
X552185Y1289785D1*
X558982Y1283980D1*
X564788Y1277183D1*
X569458Y1269561D1*
X572879Y1261303D1*
X574966Y1252611D1*
X575667Y1243700D1*
X574966Y1234789D1*
X572879Y1226097D1*
X569458Y1217839D1*
X564788Y1210217D1*
X558982Y1203420D1*
X552185Y1197615D1*
X545951Y1193721D1*
X552185Y1189785D1*
X558982Y1183980D1*
X564788Y1177183D1*
X569458Y1169561D1*
X572879Y1161303D1*
X574966Y1152611D1*
X575667Y1143700D1*
X574966Y1134789D1*
X572879Y1126097D1*
X569458Y1117839D1*
X564788Y1110217D1*
X558982Y1103420D1*
X552185Y1097615D1*
X545951Y1093721D1*
X552185Y1089785D1*
X558982Y1083980D1*
X564788Y1077183D1*
X569458Y1069561D1*
X572879Y1061303D1*
X574966Y1052611D1*
X575667Y1043700D1*
X574966Y1034789D1*
X572879Y1026097D1*
X569458Y1017839D1*
X564788Y1010217D1*
X558982Y1003420D1*
X552185Y997615D1*
X545951Y993721D1*
X551304Y990413D1*
X557043Y985830D1*
X562145Y980547D1*
X566524Y974652D1*
X570109Y968242D1*
X572839Y961425D1*
X574670Y954312D1*
X575570Y947024D1*
X575548Y940028D1*
X574604Y932745D1*
X572730Y925644D1*
X569958Y918843D1*
X566334Y912456D1*
X561918Y906587D1*
X556784Y901336D1*
X551018Y896789D1*
X545986Y893700D1*
X552185Y889785D1*
X558982Y883980D1*
X564788Y877183D1*
X569458Y869561D1*
X572879Y861303D1*
X574966Y852611D1*
X575667Y843700D1*
X574966Y834789D1*
X572879Y826097D1*
X569458Y817839D1*
X564788Y810217D1*
X558982Y803420D1*
X552185Y797615D1*
X545951Y793721D1*
X552185Y789785D1*
X558982Y783980D1*
X564788Y777183D1*
X569458Y769561D1*
X572879Y761303D1*
X574966Y752611D1*
X575667Y743700D1*
X574966Y734789D1*
X572879Y726097D1*
X569458Y717839D1*
X564788Y710217D1*
X558982Y703420D1*
X552185Y697615D1*
X545951Y693721D1*
X552185Y689785D1*
X558982Y683980D1*
X564788Y677183D1*
X569458Y669561D1*
X572879Y661303D1*
X574966Y652611D1*
X575667Y643700D1*
X574966Y634789D1*
X572879Y626097D1*
X569458Y617839D1*
X564788Y610217D1*
X558982Y603420D1*
X552185Y597615D1*
X545951Y593721D1*
X552185Y589785D1*
X558982Y583980D1*
X564788Y577183D1*
X569458Y569561D1*
X572879Y561303D1*
X574966Y552611D1*
X575667Y543700D1*
X574966Y534789D1*
X572879Y526097D1*
X569458Y517839D1*
X564788Y510217D1*
X558982Y503420D1*
X552185Y497615D1*
X545951Y493721D1*
X552185Y489785D1*
X558982Y483980D1*
X564788Y477183D1*
X569458Y469561D1*
X572879Y461303D1*
X574966Y452611D1*
X575667Y443700D1*
X574966Y434789D1*
X572879Y426097D1*
X572449Y424933D1*
X1464925Y424949D1*
X1463312Y430402D1*
X1461913Y439231D1*
Y448169D1*
X1463312Y456998D1*
X1466074Y465499D1*
X1470132Y473464D1*
X1475386Y480696D1*
X1481707Y487016D1*
X1488938Y492270D1*
X1491454Y493679D1*
X1485219Y497615D1*
X1478422Y503420D1*
X1472617Y510217D1*
X1467947Y517839D1*
X1464526Y526097D1*
X1462439Y534789D1*
X1461738Y543700D1*
X1462439Y552611D1*
X1464526Y561303D1*
X1467947Y569561D1*
X1472617Y577183D1*
X1478422Y583980D1*
X1485219Y589785D1*
X1491454Y593679D1*
X1485219Y597615D1*
X1478422Y603420D1*
X1472617Y610217D1*
X1467947Y617839D1*
X1464526Y626097D1*
X1462439Y634789D1*
X1461738Y643700D1*
X1462439Y652611D1*
X1464526Y661303D1*
X1467947Y669561D1*
X1472617Y677183D1*
X1478422Y683980D1*
X1485219Y689785D1*
X1491454Y693679D1*
X1485219Y697615D1*
X1478422Y703420D1*
X1472617Y710217D1*
X1467947Y717839D1*
X1464526Y726097D1*
X1462439Y734789D1*
X1461738Y743700D1*
X1462439Y752611D1*
X1464526Y761303D1*
X1467947Y769561D1*
X1472617Y777183D1*
X1478422Y783980D1*
X1485219Y789785D1*
X1491454Y793679D1*
X1485219Y797615D1*
X1478422Y803420D1*
X1472617Y810217D1*
X1467947Y817839D1*
X1464526Y826097D1*
X1462439Y834789D1*
X1461738Y843700D1*
X1462439Y852611D1*
X1464526Y861303D1*
X1467947Y869561D1*
X1472617Y877183D1*
X1478422Y883980D1*
X1485219Y889785D1*
X1491454Y893679D1*
X1485219Y897615D1*
X1478422Y903420D1*
X1472617Y910217D1*
X1467947Y917839D1*
X1464526Y926097D1*
X1462439Y934789D1*
X1461738Y943700D1*
X1462439Y952611D1*
X1464526Y961303D1*
X1467947Y969561D1*
X1472617Y977183D1*
X1478422Y983980D1*
X1485219Y989785D1*
X1491454Y993679D1*
X1485219Y997615D1*
X1478422Y1003420D1*
X1472617Y1010217D1*
X1467947Y1017839D1*
X1464526Y1026097D1*
X1462439Y1034789D1*
X1461738Y1043700D1*
X1462439Y1052611D1*
X1464526Y1061303D1*
X1467947Y1069561D1*
X1472617Y1077183D1*
X1478422Y1083980D1*
X1485219Y1089785D1*
X1491454Y1093679D1*
X1485219Y1097615D1*
X1478422Y1103420D1*
X1472617Y1110217D1*
X1467947Y1117839D1*
X1464526Y1126097D1*
X1462439Y1134789D1*
X1461738Y1143700D1*
X1462439Y1152611D1*
X1464526Y1161303D1*
X1467947Y1169561D1*
X1472617Y1177183D1*
X1478422Y1183980D1*
X1485219Y1189785D1*
X1491454Y1193679D1*
X1485219Y1197615D1*
X1478422Y1203420D1*
X1472617Y1210217D1*
X1467947Y1217839D1*
X1464526Y1226097D1*
X1462439Y1234789D1*
X1461738Y1243700D1*
X1461911Y1248117D1*
X1446123Y1232319D1*
X1446055Y1197797D1*
X1445381Y1193544D1*
X1444051Y1189450D1*
X1442096Y1185614D1*
X1439566Y1182130D1*
X1366650Y1109095D1*
X1126453Y868700D1*
X1125973Y862599D1*
X1124544Y856648D1*
X1122202Y850994D1*
X1119005Y845776D1*
X1115030Y841123D1*
X1110377Y837148D1*
X1105159Y833951D1*
X1099505Y831609D1*
X1093554Y830180D1*
X1087453Y829700D1*
X1081352Y830180D1*
X1075401Y831609D1*
X1069747Y833951D1*
X1065613Y836424D1*
X1061408Y833951D1*
X1055754Y831609D1*
X1049803Y830180D1*
X1043702Y829700D1*
X1037601Y830180D1*
X1031651Y831609D1*
X1025997Y833951D1*
X1020779Y837148D1*
X1016125Y841123D1*
X1012151Y845776D1*
X1008953Y850994D1*
X1006611Y856648D1*
X1005182Y862599D1*
X1004702Y868700D1*
X1005182Y874801D1*
X1006611Y880752D1*
X1008953Y886406D1*
X1012151Y891624D1*
X1016257Y896399D1*
X1011949Y898145D1*
X984418Y870614D1*
X987754Y866624D1*
X990952Y861406D1*
X993294Y855752D1*
X994722Y849801D1*
X995202Y843700D1*
X994722Y837599D1*
X993294Y831648D1*
X990952Y825994D1*
X987754Y820776D1*
X983779Y816123D1*
X979126Y812148D1*
X973908Y808951D1*
X968254Y806609D1*
X962303Y805180D1*
X956202Y804700D1*
X950101Y805180D1*
X944151Y806609D1*
X938497Y808951D1*
X933279Y812148D1*
X928625Y816123D1*
X924651Y820776D1*
X921453Y825994D1*
X919111Y831648D1*
X917682Y837599D1*
X917202Y843700D1*
X917682Y849801D1*
X919111Y855752D1*
X921453Y861406D1*
X924651Y866624D1*
X928757Y871399D1*
X928850Y883353D1*
X929523Y887605D1*
X930854Y891700D1*
X932808Y895536D1*
X935339Y899019D1*
X1008254Y972054D1*
X1463996Y1427796D1*
X1462439Y1434789D1*
X1461738Y1443700D1*
X1461911Y1448117D1*
X902308Y888504D1*
X904734Y883625D1*
X906625Y877804D1*
X907582Y871760D1*
Y865640D1*
X906625Y859596D1*
X904734Y853775D1*
X901955Y848323D1*
X898358Y843372D1*
X894031Y839044D1*
X889080Y835447D1*
X883627Y832669D1*
X877807Y830778D1*
X871762Y829820D1*
X865642D1*
X859598Y830778D1*
X853778Y832669D1*
X848325Y835447D1*
X843374Y839044D1*
X839046Y843372D1*
X835449Y848323D1*
X832671Y853775D1*
X830780Y859596D1*
X829823Y865640D1*
Y871760D1*
X830780Y877804D1*
X832671Y883625D1*
X835449Y889077D1*
X839046Y894028D1*
X841415Y896545D1*
X842608Y902179D1*
X844256Y906156D1*
X846505Y909827D1*
X849301Y913101D1*
X1463985Y1527785D1*
X1462439Y1534789D1*
X1461738Y1543700D1*
X1462439Y1552611D1*
X1464526Y1561303D1*
X1467947Y1569561D1*
X1472617Y1577183D1*
X1478422Y1583980D1*
X1485219Y1589785D1*
X1491454Y1593679D1*
X1485493Y1597417D1*
X1479814Y1602074D1*
X1474782Y1607423D1*
X1470480Y1613375D1*
X1466979Y1619831D1*
X1464339Y1626684D1*
X1462601Y1633820D1*
X1461796Y1641119D1*
X1461937Y1648462D1*
X1463022Y1655725D1*
X1465031Y1662789D1*
X1467933Y1669535D1*
X1471679Y1675852D1*
X1476206Y1681635D1*
X1481440Y1686787D1*
X1487293Y1691223D1*
X1491421Y1693699D1*
X1485219Y1697615D1*
X1478422Y1703420D1*
X1472617Y1710217D1*
X1467947Y1717839D1*
X1464526Y1726097D1*
X1462439Y1734789D1*
X1461738Y1743700D1*
X1462439Y1752611D1*
X1464526Y1761303D1*
X1467947Y1769561D1*
X1472617Y1777183D1*
X1478422Y1783980D1*
X1485219Y1789785D1*
X1491454Y1793679D1*
X1485219Y1797615D1*
X1478422Y1803420D1*
X1472617Y1810217D1*
X1467947Y1817839D1*
X1464526Y1826097D1*
X1462439Y1834789D1*
X1461738Y1843700D1*
X1462439Y1852611D1*
X1464526Y1861303D1*
X1467947Y1869561D1*
X1472617Y1877183D1*
X1478422Y1883980D1*
X1485219Y1889785D1*
X1491454Y1893679D1*
X1485219Y1897615D1*
X1478422Y1903420D1*
X1472617Y1910217D1*
X1467947Y1917839D1*
X1464526Y1926097D1*
X1462439Y1934789D1*
X1461738Y1943700D1*
X1462439Y1952611D1*
X1464526Y1961303D1*
X1467947Y1969561D1*
X1472617Y1977183D1*
X1478422Y1983980D1*
X1485219Y1989785D1*
X1491454Y1993679D1*
X1485219Y1997615D1*
X1478422Y2003420D1*
X1472617Y2010217D1*
X1467947Y2017839D1*
X1464526Y2026097D1*
X1462439Y2034789D1*
X1461738Y2043700D1*
X1462439Y2052611D1*
X1464526Y2061303D1*
X1467947Y2069561D1*
X1472617Y2077183D1*
X1478422Y2083980D1*
X1485219Y2089785D1*
X1491454Y2093679D1*
X1485219Y2097615D1*
X1478422Y2103420D1*
X1472617Y2110217D1*
X1467947Y2117839D1*
X1464526Y2126097D1*
X1462439Y2134789D1*
X1461738Y2143700D1*
X1462439Y2152611D1*
X1464526Y2161303D1*
X1467947Y2169561D1*
X1472617Y2177183D1*
X1478422Y2183980D1*
X1485219Y2189785D1*
X1491454Y2193679D1*
X1485493Y2197417D1*
X1479814Y2202074D1*
X1474782Y2207423D1*
X1470480Y2213375D1*
X1466979Y2219831D1*
X1464339Y2226684D1*
X1462601Y2233820D1*
X1461796Y2241119D1*
X1461937Y2248462D1*
X1463022Y2255725D1*
X1465031Y2262789D1*
X1467933Y2269535D1*
X1471679Y2275852D1*
X1476206Y2281635D1*
X1481440Y2286787D1*
X1487293Y2291223D1*
X1493668Y2294869D1*
X1500459Y2297664D1*
X1507553Y2299563D1*
X1514833Y2300533D1*
X1522177Y2300558D1*
X1529463Y2299639D1*
X1536570Y2297790D1*
X1543381Y2295041D1*
X1549781Y2291440D1*
X1555665Y2287045D1*
X1560934Y2281929D1*
X1565501Y2276178D1*
X1569291Y2269887D1*
X1572239Y2263161D1*
X1574298Y2256112D1*
X1575433Y2248856D1*
X1575637Y2241863D1*
X1574928Y2234553D1*
X1573284Y2227396D1*
X1570733Y2220509D1*
X1567317Y2214008D1*
X1563093Y2208000D1*
X1558131Y2202586D1*
X1552514Y2197855D1*
X1545986Y2193700D1*
X1552185Y2189785D1*
X1558982Y2183980D1*
X1564788Y2177183D1*
X1569458Y2169561D1*
X1572879Y2161303D1*
X1574966Y2152611D1*
X1575667Y2143700D1*
X1574966Y2134789D1*
X1573367Y2127829D1*
X1589566Y2111519D1*
X1592096Y2108036D1*
X1594051Y2104200D1*
X1595381Y2100105D1*
X1596055Y2095853D1*
X1596139Y1992650D1*
X1596055Y1416547D1*
X1595381Y1412295D1*
X1594051Y1408200D1*
X1592096Y1404364D1*
X1589566Y1400881D1*
X1565278Y1376474D1*
X1569458Y1369561D1*
X1572879Y1361303D1*
X1574966Y1352611D1*
X1575667Y1343700D1*
X1574966Y1334789D1*
X1572879Y1326097D1*
X1569458Y1317839D1*
X1564788Y1310217D1*
X1558982Y1303420D1*
X1552185Y1297615D1*
X1545951Y1293721D1*
X1552185Y1289785D1*
X1558982Y1283980D1*
X1564788Y1277183D1*
X1569458Y1269561D1*
X1572879Y1261303D1*
X1574966Y1252611D1*
X1575667Y1243700D1*
X1574966Y1234789D1*
X1572879Y1226097D1*
X1569458Y1217839D1*
X1564788Y1210217D1*
X1558982Y1203420D1*
X1552185Y1197615D1*
X1545951Y1193721D1*
X1552185Y1189785D1*
X1558982Y1183980D1*
X1564788Y1177183D1*
X1569458Y1169561D1*
X1572879Y1161303D1*
X1574966Y1152611D1*
X1575667Y1143700D1*
X1574966Y1134789D1*
X1572879Y1126097D1*
X1569458Y1117839D1*
X1564788Y1110217D1*
X1558982Y1103420D1*
X1552185Y1097615D1*
X1545951Y1093721D1*
X1552185Y1089785D1*
X1558982Y1083980D1*
X1564788Y1077183D1*
X1569458Y1069561D1*
X1572879Y1061303D1*
X1574966Y1052611D1*
X1575667Y1043700D1*
X1574966Y1034789D1*
X1572879Y1026097D1*
X1569458Y1017839D1*
X1564788Y1010217D1*
X1558982Y1003420D1*
X1552185Y997615D1*
X1545951Y993721D1*
X1552185Y989785D1*
X1558982Y983980D1*
X1564788Y977183D1*
X1569458Y969561D1*
X1572879Y961303D1*
X1574966Y952611D1*
X1575667Y943700D1*
X1574966Y934789D1*
X1572879Y926097D1*
X1569458Y917839D1*
X1564788Y910217D1*
X1558982Y903420D1*
X1552185Y897615D1*
X1545951Y893721D1*
X1552185Y889785D1*
X1558982Y883980D1*
X1564788Y877183D1*
X1569458Y869561D1*
X1572879Y861303D1*
X1574966Y852611D1*
X1575667Y843700D1*
X1574966Y834789D1*
X1572879Y826097D1*
X1569458Y817839D1*
X1564788Y810217D1*
X1558982Y803420D1*
X1552185Y797615D1*
X1545951Y793721D1*
X1552185Y789785D1*
X1558982Y783980D1*
X1564788Y777183D1*
X1569458Y769561D1*
X1572879Y761303D1*
X1574966Y752611D1*
X1575667Y743700D1*
X1574966Y734789D1*
X1572879Y726097D1*
X1569458Y717839D1*
X1564788Y710217D1*
X1558982Y703420D1*
X1552185Y697615D1*
X1545951Y693721D1*
X1552185Y689785D1*
X1558982Y683980D1*
X1564788Y677183D1*
X1569458Y669561D1*
X1572879Y661303D1*
X1574966Y652611D1*
X1575667Y643700D1*
X1574966Y634789D1*
X1572879Y626097D1*
X1569458Y617839D1*
X1564788Y610217D1*
X1558982Y603420D1*
X1552185Y597615D1*
X1545951Y593721D1*
X1552185Y589785D1*
X1558982Y583980D1*
X1564788Y577183D1*
X1569458Y569561D1*
X1572879Y561303D1*
X1574966Y552611D1*
X1575667Y543700D1*
X1574966Y534789D1*
X1572879Y526097D1*
X1569458Y517839D1*
X1564788Y510217D1*
X1558982Y503420D1*
X1552185Y497615D1*
X1545951Y493721D1*
X1552185Y489785D1*
X1558982Y483980D1*
X1564788Y477183D1*
X1569458Y469561D1*
X1572879Y461303D1*
X1574966Y452611D1*
X1575667Y443700D1*
X1574966Y434789D1*
X1572879Y426097D1*
X1572449Y424933D1*
X1618294Y424949D1*
X1624949Y434981D1*
X1624952Y3169128D1*
X1577062Y2706645D2*
X1576271Y2699345D1*
X1574441Y2692234D1*
X1571609Y2685459D1*
X1567836Y2679160D1*
X1563198Y2673468D1*
X1557791Y2668500D1*
X1553299Y2665311D1*
X1546824Y2661847D1*
X1541814Y2659704D1*
X1534546Y2658137D1*
X1527821Y2657232D1*
X1522383Y2657466D1*
X1513760Y2658865D1*
X1508529Y2660396D1*
X1500833Y2664077D1*
X1494724Y2668151D1*
X1489263Y2673059D1*
X1484562Y2678700D1*
X1480719Y2684957D1*
X1477813Y2691700D1*
X1475905Y2698791D1*
X1475033Y2706082D1*
X1475216Y2713422D1*
X1476450Y2720660D1*
X1478710Y2727647D1*
X1481948Y2734237D1*
X1486098Y2740294D1*
X1491074Y2745694D1*
X1496773Y2750324D1*
X1503077Y2754089D1*
X1510366Y2757192D1*
X1518783Y2759024D1*
X1526176Y2759729D1*
X1533431Y2759003D1*
X1540200Y2757659D1*
X1545789Y2755566D1*
X1552338Y2752245D1*
X1558343Y2748020D1*
X1563680Y2742977D1*
X1568239Y2737221D1*
X1571925Y2730870D1*
X1574661Y2724057D1*
X1576393Y2716921D1*
X1577082Y2709611D1*
X1577062Y2706645D1*
Y2962551D2*
X1576271Y2955251D1*
X1574441Y2948140D1*
X1571609Y2941365D1*
X1567836Y2935066D1*
X1563198Y2929373D1*
X1557561Y2924036D1*
X1553073Y2920956D1*
X1543606Y2916081D1*
X1538374Y2914578D1*
X1527856Y2912952D1*
X1522418Y2913192D1*
X1511971Y2914984D1*
X1506888Y2916931D1*
X1499251Y2920918D1*
X1494684Y2924083D1*
X1489263Y2928965D1*
X1484562Y2934606D1*
X1480719Y2940863D1*
X1477813Y2947606D1*
X1475905Y2954696D1*
X1475033Y2961987D1*
X1475216Y2969328D1*
X1476450Y2976566D1*
X1478710Y2983552D1*
X1481948Y2990142D1*
X1486098Y2996200D1*
X1491074Y3001599D1*
X1496151Y3005864D1*
X1503077Y3009994D1*
X1510395Y3013314D1*
X1515623Y3014456D1*
X1524442Y3015805D1*
X1529880Y3015566D1*
X1540327Y3013773D1*
X1545410Y3011826D1*
X1554703Y3006859D1*
X1559745Y3002738D1*
X1564897Y2997506D1*
X1569245Y2991590D1*
X1572700Y2985110D1*
X1575190Y2978203D1*
X1576664Y2971009D1*
X1577095Y2964388D1*
X1577062Y2962551D1*
X1399772Y2960382D2*
X1398519Y2952468D1*
X1396043Y2944848D1*
X1392405Y2937709D1*
X1387696Y2931227D1*
X1382030Y2925562D1*
X1375549Y2920853D1*
X1368410Y2917215D1*
X1360790Y2914739D1*
X1352876Y2913486D1*
X1344864D1*
X1336951Y2914739D1*
X1329331Y2917215D1*
X1322192Y2920853D1*
X1315710Y2925562D1*
X1310045Y2931227D1*
X1305335Y2937709D1*
X1301698Y2944848D1*
X1299222Y2952468D1*
X1297969Y2960382D1*
Y2968394D1*
X1299222Y2976307D1*
X1301698Y2983927D1*
X1305335Y2991066D1*
X1310045Y2997548D1*
X1315710Y3003213D1*
X1322192Y3007923D1*
X1329331Y3011560D1*
X1336951Y3014036D1*
X1344864Y3015289D1*
X1352876D1*
X1360790Y3014036D1*
X1368410Y3011560D1*
X1375549Y3007923D1*
X1382030Y3003213D1*
X1387696Y2997548D1*
X1392405Y2991066D1*
X1396043Y2983927D1*
X1398519Y2976307D1*
X1399772Y2968394D1*
Y2960382D1*
Y2704476D2*
X1398519Y2696563D1*
X1396043Y2688943D1*
X1392405Y2681804D1*
X1387696Y2675322D1*
X1382030Y2669657D1*
X1375549Y2664947D1*
X1368410Y2661310D1*
X1360790Y2658834D1*
X1352876Y2657580D1*
X1344864D1*
X1336951Y2658834D1*
X1329331Y2661310D1*
X1322192Y2664947D1*
X1315710Y2669657D1*
X1310045Y2675322D1*
X1305335Y2681804D1*
X1301698Y2688943D1*
X1299222Y2696563D1*
X1297969Y2704476D1*
Y2712488D1*
X1299222Y2720402D1*
X1301698Y2728022D1*
X1305335Y2735160D1*
X1310045Y2741642D1*
X1315710Y2747308D1*
X1322192Y2752017D1*
X1329331Y2755655D1*
X1336951Y2758130D1*
X1344864Y2759384D1*
X1352876D1*
X1360790Y2758130D1*
X1368410Y2755655D1*
X1375549Y2752017D1*
X1382030Y2747308D1*
X1387696Y2741642D1*
X1392405Y2735160D1*
X1396043Y2728022D1*
X1398519Y2720402D1*
X1399772Y2712488D1*
Y2704476D1*
X910227Y545488D2*
X908709Y535903D1*
X905710Y526674D1*
X901304Y518027D1*
X895600Y510176D1*
X888738Y503314D1*
X880887Y497610D1*
X872240Y493204D1*
X863011Y490205D1*
X853426Y488687D1*
X843721D1*
X834137Y490205D1*
X824907Y493204D1*
X816260Y497610D1*
X808409Y503314D1*
X801547Y510176D1*
X795843Y518027D1*
X791437Y526674D1*
X788439Y535903D1*
X786921Y545488D1*
Y555193D1*
X788439Y564778D1*
X791437Y574007D1*
X795843Y582654D1*
X801547Y590505D1*
X808409Y597367D1*
X816260Y603071D1*
X824907Y607477D1*
X834137Y610476D1*
X843721Y611994D1*
X853426D1*
X863011Y610476D1*
X872240Y607477D1*
X880887Y603071D1*
X888738Y597367D1*
X895600Y590505D1*
X901304Y582654D1*
X905710Y574007D1*
X908709Y564778D1*
X910227Y555193D1*
Y545488D1*
X1224676D2*
X1223158Y535903D1*
X1220159Y526674D1*
X1215753Y518027D1*
X1210049Y510176D1*
X1203187Y503314D1*
X1195336Y497610D1*
X1186689Y493204D1*
X1177460Y490205D1*
X1167875Y488687D1*
X1158170D1*
X1148585Y490205D1*
X1139356Y493204D1*
X1130709Y497610D1*
X1122858Y503314D1*
X1115996Y510176D1*
X1110292Y518027D1*
X1105886Y526674D1*
X1102887Y535903D1*
X1101369Y545488D1*
Y555193D1*
X1102887Y564778D1*
X1105886Y574007D1*
X1110292Y582654D1*
X1115996Y590505D1*
X1122858Y597367D1*
X1130709Y603071D1*
X1139356Y607477D1*
X1148585Y610476D1*
X1158170Y611994D1*
X1167875D1*
X1177460Y610476D1*
X1186689Y607477D1*
X1195336Y603071D1*
X1203187Y597367D1*
X1210049Y590505D1*
X1215753Y582654D1*
X1220159Y574007D1*
X1223158Y564778D1*
X1224676Y555193D1*
Y545488D1*
X833680Y1479346D2*
X830776Y1475534D1*
X825438Y1470196D1*
X819331Y1465759D1*
X812605Y1462332D1*
X805426Y1459999D1*
X797970Y1458818D1*
X790421D1*
X782966Y1459999D1*
X775786Y1462332D1*
X769060Y1465759D1*
X762953Y1470196D1*
X757615Y1475534D1*
X753178Y1481641D1*
X749751Y1488367D1*
X747419Y1495546D1*
X746238Y1503002D1*
Y1510550D1*
X747419Y1518006D1*
X749751Y1525186D1*
X753178Y1531912D1*
X757615Y1538019D1*
X762953Y1543356D1*
X769060Y1547793D1*
X775786Y1551221D1*
X782966Y1553553D1*
X790421Y1554734D1*
X797970D1*
X805426Y1553553D1*
X812605Y1551221D1*
X819331Y1547793D1*
X825438Y1543356D1*
X830776Y1538019D1*
X833680Y1534206D1*
X844118Y1539169D1*
X863529Y1558580D1*
X863378Y1569186D1*
X859404Y1573839D1*
X856206Y1579057D1*
X853864Y1584711D1*
X852436Y1590662D1*
X851956Y1596763D1*
X852436Y1602864D1*
X853864Y1608815D1*
X856206Y1614469D1*
X859404Y1619687D1*
X863378Y1624340D1*
X868032Y1628315D1*
X873250Y1631512D1*
X878904Y1633854D1*
X884855Y1635283D1*
X890956Y1635763D1*
X897057Y1635283D1*
X903007Y1633854D1*
X908661Y1631512D1*
X913879Y1628315D1*
X918533Y1624340D1*
X922507Y1619687D1*
X925705Y1614469D1*
X928047Y1608815D1*
X929475Y1602864D1*
X929956Y1596763D1*
X929475Y1590662D1*
X928047Y1584711D1*
X925705Y1579057D1*
X922507Y1573839D1*
X918401Y1569064D1*
X918308Y1545051D1*
X917635Y1540799D1*
X916304Y1536704D1*
X914350Y1532868D1*
X911819Y1529385D1*
X869929Y1487375D1*
X866655Y1484579D1*
X862984Y1482330D1*
X859006Y1480682D1*
X854820Y1479677D1*
X850519Y1479339D1*
X833698D1*
X491454Y1093721D2*
X485219Y1097615D1*
X478422Y1103420D1*
X472617Y1110217D1*
X467947Y1117839D1*
X464526Y1126097D1*
X462439Y1134789D1*
X461738Y1143700D1*
X462439Y1152611D1*
X464037Y1159571D1*
X427888Y1195832D1*
X425353Y1199323D1*
X424953Y1199376D1*
Y442616D1*
X442609Y424971D1*
X464904Y424949D1*
X463312Y430402D1*
X461913Y439231D1*
Y448169D1*
X463312Y456998D1*
X466074Y465499D1*
X470132Y473464D1*
X475386Y480696D1*
X481707Y487016D1*
X488938Y492270D1*
X491454Y493679D1*
X485219Y497615D1*
X478422Y503420D1*
X472617Y510217D1*
X467947Y517839D1*
X464526Y526097D1*
X462439Y534789D1*
X461738Y543700D1*
X462439Y552611D1*
X464526Y561303D1*
X467947Y569561D1*
X472617Y577183D1*
X478422Y583980D1*
X485219Y589785D1*
X491454Y593679D1*
X485219Y597615D1*
X478422Y603420D1*
X472617Y610217D1*
X467947Y617839D1*
X464526Y626097D1*
X462439Y634789D1*
X461738Y643700D1*
X462439Y652611D1*
X464526Y661303D1*
X467947Y669561D1*
X472617Y677183D1*
X478422Y683980D1*
X485219Y689785D1*
X491454Y693679D1*
X485219Y697615D1*
X478422Y703420D1*
X472617Y710217D1*
X467947Y717839D1*
X464526Y726097D1*
X462439Y734789D1*
X461738Y743700D1*
X462439Y752611D1*
X464526Y761303D1*
X467947Y769561D1*
X472617Y777183D1*
X478422Y783980D1*
X485219Y789785D1*
X491454Y793679D1*
X485219Y797615D1*
X478422Y803420D1*
X472617Y810217D1*
X467947Y817839D1*
X464526Y826097D1*
X462439Y834789D1*
X461738Y843700D1*
X462439Y852611D1*
X464526Y861303D1*
X467947Y869561D1*
X472617Y877183D1*
X478422Y883980D1*
X485219Y889785D1*
X491454Y893679D1*
X485493Y897417D1*
X479814Y902074D1*
X474782Y907423D1*
X470480Y913375D1*
X466979Y919831D1*
X464339Y926684D1*
X462601Y933820D1*
X461796Y941119D1*
X461937Y948462D1*
X463022Y955725D1*
X465031Y962789D1*
X467933Y969535D1*
X471679Y975852D1*
X476206Y981635D1*
X481440Y986787D1*
X487293Y991223D1*
X491421Y993699D1*
X485219Y997615D1*
X478422Y1003420D1*
X472617Y1010217D1*
X467947Y1017839D1*
X464526Y1026097D1*
X462439Y1034789D1*
X461738Y1043700D1*
X462439Y1052611D1*
X464526Y1061303D1*
X467947Y1069561D1*
X472617Y1077183D1*
X478422Y1083980D1*
X485219Y1089785D1*
X491454Y1093679D1*
X988803Y2228503D2*
X991435Y2225597D1*
X994434Y2228928D1*
X994442Y3093202D1*
X988790Y3087486D1*
X988794Y2228556D1*
X1071149Y904095D2*
X1075401Y905791D1*
X1081352Y907220D1*
X1087632Y907693D1*
X1391240Y1211289D1*
X1391351Y1245861D1*
X1389439Y1244384D1*
X1071123Y926068D1*
X1071139Y904113D1*
X921401Y1122505D2*
X916626Y1118399D1*
X911408Y1115201D1*
X905754Y1112859D1*
X899803Y1111431D1*
X893702Y1110951D1*
X887601Y1111431D1*
X881651Y1112859D1*
X875997Y1115201D1*
X870779Y1118399D1*
X866125Y1122373D1*
X862151Y1127027D1*
X858953Y1132245D1*
X856611Y1137899D1*
X855182Y1143850D1*
X854702Y1149951D1*
X855182Y1156052D1*
X856611Y1162002D1*
X858953Y1167656D1*
X862151Y1172874D1*
X866125Y1177528D1*
X870779Y1181502D1*
X875997Y1184700D1*
X881651Y1187042D1*
X887601Y1188471D1*
X893702Y1188951D1*
X899803Y1188471D1*
X905754Y1187042D1*
X911408Y1184700D1*
X916626Y1181502D1*
X921401Y1177396D1*
X1013591Y1177388D1*
X1342202Y1506200D1*
X1342682Y1512301D1*
X1344111Y1518252D1*
X1346453Y1523906D1*
X1349651Y1529124D1*
X1353757Y1533899D1*
X1353643Y1585014D1*
X1165030Y1584873D1*
X1160377Y1580899D1*
X1155159Y1577701D1*
X1149505Y1575359D1*
X1143554Y1573931D1*
X1137453Y1573451D1*
X1131352Y1573931D1*
X1125401Y1575359D1*
X1119747Y1577701D1*
X1114529Y1580899D1*
X1109876Y1584873D1*
X1105901Y1589527D1*
X1102704Y1594745D1*
X1100362Y1600399D1*
X1098933Y1606350D1*
X1098460Y1612630D1*
X716590Y1994632D1*
X714059Y1998115D1*
X712104Y2001951D1*
X710774Y2006046D1*
X710100Y2010298D1*
X710016Y2028491D1*
X705901Y2033276D1*
X702704Y2038494D1*
X700362Y2044148D1*
X698933Y2050099D1*
X698453Y2056200D1*
X698933Y2062301D1*
X700362Y2068252D1*
X702704Y2073906D1*
X705901Y2079124D1*
X709876Y2083777D1*
X714529Y2087752D1*
X719747Y2090949D1*
X725401Y2093291D1*
X731352Y2094720D1*
X737453Y2095200D1*
X743554Y2094720D1*
X749505Y2093291D1*
X755159Y2090949D1*
X760377Y2087752D1*
X765030Y2083777D1*
X769005Y2079124D1*
X772202Y2073906D1*
X774544Y2068252D1*
X775973Y2062301D1*
X776453Y2056200D1*
X775973Y2050099D1*
X774544Y2044148D1*
X772202Y2038494D1*
X769005Y2033276D1*
X764898Y2028501D1*
X769845Y2018860D1*
X1137453Y1651451D1*
X1143554Y1650971D1*
X1149505Y1649542D1*
X1155159Y1647200D1*
X1160377Y1644002D1*
X1165152Y1639896D1*
X1353765Y1640010D1*
X1353625Y2078623D1*
X1349651Y2083276D1*
X1346453Y2088494D1*
X1344111Y2094148D1*
X1342682Y2100099D1*
X1342202Y2106200D1*
X1342682Y2112301D1*
X1344111Y2118252D1*
X1346453Y2123906D1*
X1349651Y2129124D1*
X1353625Y2133777D1*
X1358279Y2137752D1*
X1363497Y2140949D1*
X1369151Y2143291D1*
X1375101Y2144720D1*
X1381202Y2145200D1*
X1387303Y2144720D1*
X1393254Y2143291D1*
X1398908Y2140949D1*
X1404126Y2137752D1*
X1408779Y2133777D1*
X1412754Y2129124D1*
X1415952Y2123906D1*
X1418294Y2118252D1*
X1419722Y2112301D1*
X1420202Y2106200D1*
X1419722Y2100099D1*
X1418294Y2094148D1*
X1415952Y2088494D1*
X1412754Y2083276D1*
X1408648Y2078501D1*
X1408779Y1533777D1*
X1412754Y1529124D1*
X1415952Y1523906D1*
X1418294Y1518252D1*
X1419722Y1512301D1*
X1420202Y1506200D1*
X1419722Y1500099D1*
X1418294Y1494148D1*
X1415952Y1488494D1*
X1412754Y1483276D1*
X1408779Y1478623D1*
X1404126Y1474648D1*
X1398908Y1471451D1*
X1393254Y1469109D1*
X1387303Y1467680D1*
X1381023Y1467207D1*
X1042772Y1129087D1*
X1039289Y1126557D1*
X1035453Y1124602D1*
X1031358Y1123272D1*
X1027106Y1122598D1*
X923903Y1122514D1*
X921427D1*
X809726Y3258747D2*
D13*
Y3141819D1*
X751262Y3200283D2*
X809726D1*
X1526036Y2759505D2*
Y2657459D1*
X1475012Y2708482D2*
X1577059D1*
X1475012Y2964388D2*
X1577059D1*
X1461774Y1643700D2*
X1518702D1*
Y2300629D2*
Y2243700D1*
X1461774D2*
X1575631D1*
X461774Y943700D2*
X575631D1*
D18*
X1245736Y3200283D3*
D19*
X1136734D3*
X1027731D3*
X918729D3*
X809726D3*
X1191734Y3312277D3*
X1082731D3*
X973729D3*
X864726D3*
D20*
X1519739Y3256280D3*
X535723D3*
D21*
X1526036Y2708482D3*
Y2964388D3*
X1348870D3*
Y2708482D3*
D26*
X794196Y1506776D3*
D29*
X1518702Y443700D3*
Y543700D3*
Y643700D3*
Y743700D3*
Y843700D3*
Y943700D3*
Y1043700D3*
Y1143700D3*
Y1243700D3*
Y1343700D3*
Y1443700D3*
Y1543700D3*
Y1643700D3*
Y1743700D3*
Y1843700D3*
Y1943700D3*
Y2043700D3*
Y2143700D3*
Y2243700D3*
X518702D3*
Y2143700D3*
Y2043700D3*
Y1943700D3*
Y1843700D3*
Y1743700D3*
Y1643700D3*
Y1543700D3*
Y1443700D3*
Y1343700D3*
Y1243700D3*
Y1143700D3*
Y1043700D3*
Y943700D3*
Y843700D3*
Y743700D3*
Y643700D3*
Y543700D3*
Y443700D3*
M02*
