G04 DipTrace 3.3.1.3*
G04 BottomSilk.gbr*
%MOIN*%
G04 #@! TF.FileFunction,Legend,Bot*
G04 #@! TF.Part,Single*
%ADD12C,0.003*%
%ADD39C,0.005906*%
%ADD41O,0.074027X0.074711*%
%ADD42O,0.073993X0.074711*%
%ADD43O,0.073959X0.074711*%
G04 #@! TA.AperFunction,ComponentDrill*
%ADD96C,0.004632*%
%ADD98C,0.009264*%
%FSLAX26Y26*%
G04*
G70*
G90*
G75*
G01*
G04 BotSilk*
%LPD*%
G36*
X1181710Y1371835D2*
X1039896D1*
Y1388766D1*
X1181710D1*
Y1371835D1*
G37*
G36*
X1182185Y1938421D2*
Y2035870D1*
X1165806D1*
Y1995709D1*
X1039794D1*
Y1978483D1*
X1165806D1*
Y1938421D1*
X1182185D1*
G37*
G36*
Y1850224D2*
Y1925427D1*
X1166077D1*
Y1867450D1*
X1125656D1*
Y1925427D1*
X1110125D1*
Y1867154D1*
X1055325D1*
Y1925427D1*
X1039794D1*
Y1850224D1*
X1182185D1*
G37*
G36*
X1039862Y1696667D2*
X1188424D1*
X1074044Y1800810D1*
X1182490D1*
Y1816953D1*
X1033012D1*
X1146782Y1712810D1*
X1039862D1*
Y1696667D1*
G37*
G36*
X1181439Y1321732D2*
Y1338761D1*
X1068686D1*
X1059327Y1337777D1*
X1052477Y1335710D1*
X1047187Y1332855D1*
X1043389Y1329706D1*
X1040031Y1325079D1*
X1037759Y1319764D1*
X1036674Y1313464D1*
X1035962Y1305688D1*
Y1300274D1*
X1037285Y1295057D1*
X1040981Y1287576D1*
X1044474Y1282556D1*
X1049832Y1277634D1*
X1061361Y1289151D1*
X1057292Y1292694D1*
X1054749Y1296041D1*
X1052375Y1300766D1*
X1051527Y1303128D1*
X1051154Y1305983D1*
X1051391Y1310216D1*
X1051968Y1312578D1*
X1052782Y1314350D1*
X1054172Y1316417D1*
X1056478Y1318484D1*
X1059225Y1320059D1*
X1061192Y1320945D1*
X1063599Y1321240D1*
X1066346Y1321634D1*
X1068448Y1321831D1*
X1181439Y1321732D1*
G37*
G36*
X1181540Y1151442D2*
Y1168668D1*
X1090287D1*
X1082081Y1169160D1*
X1073060Y1171227D1*
X1065464Y1174672D1*
X1061429Y1177724D1*
X1057699Y1182153D1*
X1054308Y1188847D1*
X1052104Y1198395D1*
X1051697Y1206466D1*
X1052782Y1217688D1*
X1055223Y1225661D1*
X1058682Y1231567D1*
X1061429Y1234618D1*
X1067126Y1238753D1*
X1075638Y1242099D1*
X1088998Y1244068D1*
X1101884D1*
X1181608D1*
Y1261294D1*
X1093373D1*
X1077943Y1260113D1*
X1066312Y1257258D1*
X1057563Y1253124D1*
X1050645Y1247809D1*
X1045152Y1241410D1*
X1040879Y1233634D1*
X1037692Y1223594D1*
X1035996Y1208730D1*
Y1204891D1*
X1036945Y1192390D1*
X1039828Y1181267D1*
X1043829Y1172999D1*
X1049052Y1166109D1*
X1056173Y1160301D1*
X1064854Y1155773D1*
X1076723Y1152623D1*
X1093271Y1151343D1*
X1181540Y1151442D1*
G37*
X1130980Y1400086D2*
D39*
Y1509741D1*
X1222844Y1477849D2*
X1021381D1*
X1146307Y1405007D2*
X1104529D1*
X1202124Y1448023D2*
Y1642528D1*
X1269505Y1547048D2*
X1168214D1*
X1220232Y1619003D2*
X954407D1*
X991064Y1531692D2*
X991709Y1715566D1*
D41*
X1202718Y1547884D3*
G36*
X1181846Y1126637D2*
Y1051531D1*
X1038980D1*
Y1068856D1*
X1109955D1*
Y1126637D1*
X1125452D1*
Y1068364D1*
X1165942D1*
Y1126637D1*
X1181846D1*
G37*
D42*
X1130098Y1476126D3*
Y1618264D3*
D43*
X1058292D3*
X1096459Y1546309D2*
D39*
X1096545Y1548737D1*
X1096803Y1551152D1*
X1097231Y1553544D1*
X1097828Y1555900D1*
X1098591Y1558210D1*
X1099515Y1560462D1*
X1100597Y1562645D1*
X1101830Y1564749D1*
X1103210Y1566762D1*
X1104729Y1568676D1*
X1106381Y1570481D1*
X1108155Y1572168D1*
X1110046Y1573729D1*
X1112042Y1575157D1*
X1114135Y1576444D1*
X1116313Y1577584D1*
X1118567Y1578572D1*
X1120886Y1579403D1*
X1123258Y1580072D1*
X1125672Y1580577D1*
X1128115Y1580915D1*
X1130577Y1581084D1*
X1133044D1*
X1135506Y1580915D1*
X1137949Y1580577D1*
X1140363Y1580072D1*
X1142735Y1579403D1*
X1145054Y1578572D1*
X1147308Y1577584D1*
X1149486Y1576444D1*
X1151579Y1575157D1*
X1153575Y1573729D1*
X1155465Y1572168D1*
X1157240Y1570481D1*
X1158892Y1568676D1*
X1160411Y1566762D1*
X1161791Y1564749D1*
X1163024Y1562645D1*
X1164106Y1560462D1*
X1165030Y1558210D1*
X1165793Y1555900D1*
X1166390Y1553544D1*
X1166818Y1551152D1*
X1167076Y1548737D1*
X1167162Y1546309D1*
X1167076Y1543882D1*
X1166818Y1541467D1*
X1166390Y1539075D1*
X1165793Y1536718D1*
X1165030Y1534408D1*
X1164106Y1532156D1*
X1163024Y1529973D1*
X1161791Y1527870D1*
X1160411Y1525856D1*
X1158892Y1523943D1*
X1157240Y1522138D1*
X1155465Y1520451D1*
X1153575Y1518889D1*
X1151579Y1517462D1*
X1149486Y1516175D1*
X1147308Y1515035D1*
X1145054Y1514047D1*
X1142735Y1513216D1*
X1140363Y1512547D1*
X1137949Y1512042D1*
X1135506Y1511704D1*
X1133044Y1511534D1*
X1130577D1*
X1128115Y1511704D1*
X1125672Y1512042D1*
X1123258Y1512547D1*
X1120886Y1513216D1*
X1118567Y1514047D1*
X1116313Y1515035D1*
X1114135Y1516175D1*
X1112042Y1517462D1*
X1110046Y1518889D1*
X1108155Y1520451D1*
X1106381Y1522138D1*
X1104729Y1523943D1*
X1103210Y1525856D1*
X1101830Y1527870D1*
X1100597Y1529973D1*
X1099515Y1532156D1*
X1098591Y1534408D1*
X1097828Y1536718D1*
X1097231Y1539075D1*
X1096803Y1541467D1*
X1096545Y1543882D1*
X1096459Y1546309D1*
X1031011Y1690958D2*
X959731D1*
X1060988Y1457768D2*
Y1675602D1*
X1130946Y1667629D2*
Y1588980D1*
X1094967Y1547048D2*
X977704Y1547638D1*
X976897Y2021944D2*
D12*
X984397D1*
X964897Y2020444D2*
X967897D1*
X976897D2*
X987795D1*
X963116Y2018944D2*
X968656D1*
X976897D2*
X990603D1*
X961547Y2017444D2*
X968874D1*
X976897D2*
X992817D1*
X960204Y2015944D2*
X968323D1*
X976897D2*
X994605D1*
X959017Y2014444D2*
X966880D1*
X976897D2*
X996052D1*
X958008Y2012944D2*
X965283D1*
X976897D2*
X981397D1*
X988897D2*
X997191D1*
X957179Y2011444D2*
X963827D1*
X976897D2*
X981397D1*
X990391D2*
X998084D1*
X956565Y2009944D2*
X962650D1*
X976897D2*
X981397D1*
X991833D2*
X998773D1*
X956205Y2008444D2*
X961738D1*
X976897D2*
X981397D1*
X993089D2*
X999334D1*
X956026Y2006944D2*
X961088D1*
X976897D2*
X981397D1*
X994032D2*
X999876D1*
X955947Y2005444D2*
X960713D1*
X976897D2*
X981397D1*
X994730D2*
X1000340D1*
X955916Y2003944D2*
X960529D1*
X976897D2*
X981397D1*
X995328D2*
X1000634D1*
X955904Y2002444D2*
X960448D1*
X976897D2*
X981397D1*
X995766D2*
X1000785D1*
X955899Y2000944D2*
X960422D1*
X976897D2*
X981397D1*
X996004D2*
X1000847D1*
X955898Y1999444D2*
X960462D1*
X976897D2*
X981397D1*
X995699D2*
X1000822D1*
X955903Y1997944D2*
X960655D1*
X976897D2*
X981397D1*
X995302D2*
X1000641D1*
X955956Y1996444D2*
X961071D1*
X976897D2*
X981397D1*
X994813D2*
X1000280D1*
X956153Y1994944D2*
X961705D1*
X976897D2*
X981397D1*
X994074D2*
X999844D1*
X956565Y1993444D2*
X962593D1*
X976891D2*
X981397D1*
X993009D2*
X999386D1*
X957146Y1991944D2*
X963907D1*
X976827D2*
X981403D1*
X991605D2*
X998829D1*
X957826Y1990444D2*
X966032D1*
X976669D2*
X981460D1*
X989646D2*
X998131D1*
X958599Y1988944D2*
X969495D1*
X975917D2*
X981692D1*
X986745D2*
X997234D1*
X959539Y1987444D2*
X974353D1*
X974271D2*
X982205D1*
X982828D2*
X996086D1*
X960757Y1985944D2*
X994705D1*
X962335Y1984444D2*
X993033D1*
X964363Y1982944D2*
X990961D1*
X966791Y1981444D2*
X988514D1*
X969397Y1979944D2*
X985897D1*
X955897Y1967944D2*
X985897D1*
X955897Y1966444D2*
X989981D1*
X955897Y1964944D2*
X993167D1*
X955897Y1963444D2*
X995409D1*
X955897Y1961944D2*
X996928D1*
X955897Y1960444D2*
X997983D1*
X988596Y1958944D2*
X998737D1*
X990915Y1957444D2*
X999322D1*
X992674Y1955944D2*
X999871D1*
X993861Y1954444D2*
X1000339D1*
X994664Y1952944D2*
X1000633D1*
X995304Y1951444D2*
X1000779D1*
X995757Y1949944D2*
X1000794D1*
X996002Y1948444D2*
X1000631D1*
X995699Y1946944D2*
X1000276D1*
X995308Y1945444D2*
X999843D1*
X994871Y1943944D2*
X999386D1*
X994318Y1942444D2*
X998829D1*
X993553Y1940944D2*
X998131D1*
X992570Y1939444D2*
X997234D1*
X990110Y1937944D2*
X996093D1*
X986537Y1936444D2*
X994779D1*
X981942Y1934944D2*
X993397D1*
X955897Y1933444D2*
X996167D1*
X955897Y1931944D2*
X998218D1*
X955897Y1930444D2*
X998846D1*
X955897Y1928944D2*
X999186D1*
X955897Y1927444D2*
X999397D1*
X1020397Y1912444D2*
X1023397D1*
X955897Y1910944D2*
X999397D1*
X1019012D2*
X1024315D1*
X955897Y1909444D2*
X999391D1*
X1017987D2*
X1025065D1*
X955897Y1907944D2*
X999334D1*
X1017685D2*
X1025637D1*
X955897Y1906444D2*
X999102D1*
X1017637D2*
X1025458D1*
X955897Y1904944D2*
X998590D1*
X1017821D2*
X1024986D1*
X955897Y1903444D2*
X997897D1*
X1018975D2*
X1024263D1*
X1020397Y1901944D2*
X1023397D1*
X955897Y1886944D2*
X1030897D1*
X955897Y1885444D2*
X1030891D1*
X955897Y1883944D2*
X1030834D1*
X955897Y1882444D2*
X1030602D1*
X955897Y1880944D2*
X1030090D1*
X955897Y1879444D2*
X1029397D1*
X955897Y1864444D2*
X985897D1*
X955897Y1862944D2*
X989981D1*
X955897Y1861444D2*
X993167D1*
X955897Y1859944D2*
X995409D1*
X955897Y1858444D2*
X996928D1*
X955897Y1856944D2*
X997983D1*
X988596Y1855444D2*
X998737D1*
X990915Y1853944D2*
X999322D1*
X992674Y1852444D2*
X999871D1*
X993861Y1850944D2*
X1000339D1*
X994664Y1849444D2*
X1000633D1*
X995304Y1847944D2*
X1000779D1*
X995757Y1846444D2*
X1000794D1*
X996002Y1844944D2*
X1000631D1*
X995699Y1843444D2*
X1000276D1*
X995308Y1841944D2*
X999843D1*
X994871Y1840444D2*
X999386D1*
X994318Y1838944D2*
X998829D1*
X993553Y1837444D2*
X998131D1*
X992570Y1835944D2*
X997234D1*
X990110Y1834444D2*
X996093D1*
X986537Y1832944D2*
X994779D1*
X981942Y1831444D2*
X993397D1*
X955897Y1829944D2*
X996167D1*
X955897Y1828444D2*
X998218D1*
X955897Y1826944D2*
X998846D1*
X955897Y1825444D2*
X999186D1*
X955897Y1823944D2*
X999397D1*
X970897Y1810444D2*
X984397D1*
X968192Y1808944D2*
X987282D1*
X965820Y1807444D2*
X989644D1*
X963871Y1805944D2*
X991580D1*
X962318Y1804444D2*
X993267D1*
X961078Y1802944D2*
X974255D1*
X982307D2*
X994793D1*
X959974Y1801444D2*
X970628D1*
X985562D2*
X996125D1*
X958916Y1799944D2*
X967741D1*
X988067D2*
X997218D1*
X957968Y1798444D2*
X965544D1*
X990048D2*
X998087D1*
X957164Y1796944D2*
X963891D1*
X991700D2*
X998724D1*
X956560Y1795444D2*
X962661D1*
X993034D2*
X999144D1*
X956203Y1793944D2*
X961738D1*
X993963D2*
X999517D1*
X956025Y1792444D2*
X961087D1*
X994533D2*
X999956D1*
X955947Y1790944D2*
X960712D1*
X994967D2*
X1000372D1*
X955916Y1789444D2*
X960528D1*
X995381D2*
X1000646D1*
X955904Y1787944D2*
X960448D1*
X995616D2*
X1000783D1*
X955899Y1786444D2*
X960422D1*
X995535D2*
X1000796D1*
X955904Y1784944D2*
X960462D1*
X995289D2*
X1000631D1*
X955956Y1783444D2*
X960655D1*
X995034D2*
X1000277D1*
X956147Y1781944D2*
X961071D1*
X994673D2*
X999843D1*
X956512Y1780444D2*
X961705D1*
X994010D2*
X999386D1*
X956955Y1778944D2*
X962581D1*
X992988D2*
X998835D1*
X957461Y1777444D2*
X963779D1*
X991660D2*
X998190D1*
X958156Y1775944D2*
X965429D1*
X989930D2*
X997484D1*
X959022Y1774444D2*
X967937D1*
X987384D2*
X996701D1*
X959944Y1772944D2*
X971928D1*
X983377D2*
X995763D1*
X960970Y1771444D2*
X977669D1*
X977628D2*
X994597D1*
X962229Y1769944D2*
X993209D1*
X963824Y1768444D2*
X991535D1*
X965859Y1766944D2*
X989462D1*
X968290Y1765444D2*
X987014D1*
X970897Y1763944D2*
X984397D1*
X957397Y1748944D2*
X960397D1*
X956192Y1747444D2*
X962014D1*
X955315Y1745944D2*
X963241D1*
X954818Y1744444D2*
X964185D1*
X954632Y1742944D2*
X964417D1*
X954758Y1741444D2*
X963879D1*
X955228Y1739944D2*
X962978D1*
X955897Y1738444D2*
X961897D1*
X976897Y2021944D2*
Y2020444D1*
Y2018944D1*
Y2017444D1*
Y2015944D1*
Y2014444D1*
Y2012944D1*
Y2011444D1*
Y2009944D1*
Y2008444D1*
Y2006944D1*
Y2005444D1*
Y2003944D1*
Y2002444D1*
Y2000944D1*
Y1999444D1*
Y1997944D1*
Y1996444D1*
Y1994944D1*
X976891Y1993444D1*
X976827Y1991944D1*
X976669Y1990444D1*
X975917Y1988944D1*
X974271Y1987444D1*
X972397Y1985944D1*
X984397Y2021944D2*
X987795Y2020444D1*
X990603Y2018944D1*
X992817Y2017444D1*
X994605Y2015944D1*
X996052Y2014444D1*
X997191Y2012944D1*
X998084Y2011444D1*
X998773Y2009944D1*
X999334Y2008444D1*
X999876Y2006944D1*
X1000340Y2005444D1*
X1000634Y2003944D1*
X1000785Y2002444D1*
X1000847Y2000944D1*
X1000822Y1999444D1*
X1000641Y1997944D1*
X1000280Y1996444D1*
X999844Y1994944D1*
X999386Y1993444D1*
X998829Y1991944D1*
X998131Y1990444D1*
X997234Y1988944D1*
X996086Y1987444D1*
X994705Y1985944D1*
X993033Y1984444D1*
X990961Y1982944D1*
X988514Y1981444D1*
X985897Y1979944D1*
X964897Y2020444D2*
X963116Y2018944D1*
X961547Y2017444D1*
X960204Y2015944D1*
X959017Y2014444D1*
X958008Y2012944D1*
X957179Y2011444D1*
X956565Y2009944D1*
X956205Y2008444D1*
X956026Y2006944D1*
X955947Y2005444D1*
X955916Y2003944D1*
X955904Y2002444D1*
X955899Y2000944D1*
X955898Y1999444D1*
X955903Y1997944D1*
X955956Y1996444D1*
X956153Y1994944D1*
X956565Y1993444D1*
X957146Y1991944D1*
X957826Y1990444D1*
X958599Y1988944D1*
X959539Y1987444D1*
X960757Y1985944D1*
X962335Y1984444D1*
X964363Y1982944D1*
X966791Y1981444D1*
X969397Y1979944D1*
X967897Y2020444D2*
X968656Y2018944D1*
X968874Y2017444D1*
X968323Y2015944D1*
X966880Y2014444D1*
X965283Y2012944D1*
X963827Y2011444D1*
X962650Y2009944D1*
X961738Y2008444D1*
X961088Y2006944D1*
X960713Y2005444D1*
X960529Y2003944D1*
X960448Y2002444D1*
X960422Y2000944D1*
X960462Y1999444D1*
X960655Y1997944D1*
X961071Y1996444D1*
X961705Y1994944D1*
X962593Y1993444D1*
X963907Y1991944D1*
X966032Y1990444D1*
X969495Y1988944D1*
X974353Y1987444D1*
X979897Y1985944D1*
X981397Y2014444D2*
Y2012944D1*
Y2011444D1*
Y2009944D1*
Y2008444D1*
Y2006944D1*
Y2005444D1*
Y2003944D1*
Y2002444D1*
Y2000944D1*
Y1999444D1*
Y1997944D1*
Y1996444D1*
Y1994944D1*
Y1993444D1*
X981403Y1991944D1*
X981460Y1990444D1*
X981692Y1988944D1*
X982205Y1987444D1*
X982897Y1985944D1*
X987397Y2014444D2*
X988897Y2012944D1*
X990391Y2011444D1*
X991833Y2009944D1*
X993089Y2008444D1*
X994032Y2006944D1*
X994730Y2005444D1*
X995328Y2003944D1*
X995766Y2002444D1*
X996004Y2000944D1*
X995699Y1999444D1*
X995302Y1997944D1*
X994813Y1996444D1*
X994074Y1994944D1*
X993009Y1993444D1*
X991605Y1991944D1*
X989646Y1990444D1*
X986745Y1988944D1*
X982828Y1987444D1*
X978397Y1985944D1*
X955897Y1967944D2*
Y1966444D1*
Y1964944D1*
Y1963444D1*
Y1961944D1*
Y1960444D1*
X985897Y1967944D2*
X989981Y1966444D1*
X993167Y1964944D1*
X995409Y1963444D1*
X996928Y1961944D1*
X997983Y1960444D1*
X998737Y1958944D1*
X999322Y1957444D1*
X999871Y1955944D1*
X1000339Y1954444D1*
X1000633Y1952944D1*
X1000779Y1951444D1*
X1000794Y1949944D1*
X1000631Y1948444D1*
X1000276Y1946944D1*
X999843Y1945444D1*
X999386Y1943944D1*
X998829Y1942444D1*
X998131Y1940944D1*
X997234Y1939444D1*
X996093Y1937944D1*
X994779Y1936444D1*
X993397Y1934944D1*
X996167Y1933444D1*
X998218Y1931944D1*
X998846Y1930444D1*
X999186Y1928944D1*
X999397Y1927444D1*
X985897Y1960444D2*
X988596Y1958944D1*
X990915Y1957444D1*
X992674Y1955944D1*
X993861Y1954444D1*
X994664Y1952944D1*
X995304Y1951444D1*
X995757Y1949944D1*
X996002Y1948444D1*
X995699Y1946944D1*
X995308Y1945444D1*
X994871Y1943944D1*
X994318Y1942444D1*
X993553Y1940944D1*
X992570Y1939444D1*
X990110Y1937944D1*
X986537Y1936444D1*
X981942Y1934944D1*
X976897Y1933444D1*
X955897D2*
Y1931944D1*
Y1930444D1*
Y1928944D1*
Y1927444D1*
X1020397Y1912444D2*
X1019012Y1910944D1*
X1017987Y1909444D1*
X1017685Y1907944D1*
X1017637Y1906444D1*
X1017821Y1904944D1*
X1018975Y1903444D1*
X1020397Y1901944D1*
X1023397Y1912444D2*
X1024315Y1910944D1*
X1025065Y1909444D1*
X1025637Y1907944D1*
X1025458Y1906444D1*
X1024986Y1904944D1*
X1024263Y1903444D1*
X1023397Y1901944D1*
X955897Y1910944D2*
Y1909444D1*
Y1907944D1*
Y1906444D1*
Y1904944D1*
Y1903444D1*
X999397Y1910944D2*
X999391Y1909444D1*
X999334Y1907944D1*
X999102Y1906444D1*
X998590Y1904944D1*
X997897Y1903444D1*
X955897Y1886944D2*
Y1885444D1*
Y1883944D1*
Y1882444D1*
Y1880944D1*
Y1879444D1*
X1030897Y1886944D2*
X1030891Y1885444D1*
X1030834Y1883944D1*
X1030602Y1882444D1*
X1030090Y1880944D1*
X1029397Y1879444D1*
X955897Y1864444D2*
Y1862944D1*
Y1861444D1*
Y1859944D1*
Y1858444D1*
Y1856944D1*
X985897Y1864444D2*
X989981Y1862944D1*
X993167Y1861444D1*
X995409Y1859944D1*
X996928Y1858444D1*
X997983Y1856944D1*
X998737Y1855444D1*
X999322Y1853944D1*
X999871Y1852444D1*
X1000339Y1850944D1*
X1000633Y1849444D1*
X1000779Y1847944D1*
X1000794Y1846444D1*
X1000631Y1844944D1*
X1000276Y1843444D1*
X999843Y1841944D1*
X999386Y1840444D1*
X998829Y1838944D1*
X998131Y1837444D1*
X997234Y1835944D1*
X996093Y1834444D1*
X994779Y1832944D1*
X993397Y1831444D1*
X996167Y1829944D1*
X998218Y1828444D1*
X998846Y1826944D1*
X999186Y1825444D1*
X999397Y1823944D1*
X985897Y1856944D2*
X988596Y1855444D1*
X990915Y1853944D1*
X992674Y1852444D1*
X993861Y1850944D1*
X994664Y1849444D1*
X995304Y1847944D1*
X995757Y1846444D1*
X996002Y1844944D1*
X995699Y1843444D1*
X995308Y1841944D1*
X994871Y1840444D1*
X994318Y1838944D1*
X993553Y1837444D1*
X992570Y1835944D1*
X990110Y1834444D1*
X986537Y1832944D1*
X981942Y1831444D1*
X976897Y1829944D1*
X955897D2*
Y1828444D1*
Y1826944D1*
Y1825444D1*
Y1823944D1*
X970897Y1810444D2*
X968192Y1808944D1*
X965820Y1807444D1*
X963871Y1805944D1*
X962318Y1804444D1*
X961078Y1802944D1*
X959974Y1801444D1*
X958916Y1799944D1*
X957968Y1798444D1*
X957164Y1796944D1*
X956560Y1795444D1*
X956203Y1793944D1*
X956025Y1792444D1*
X955947Y1790944D1*
X955916Y1789444D1*
X955904Y1787944D1*
X955899Y1786444D1*
X955904Y1784944D1*
X955956Y1783444D1*
X956147Y1781944D1*
X956512Y1780444D1*
X956955Y1778944D1*
X957461Y1777444D1*
X958156Y1775944D1*
X959022Y1774444D1*
X959944Y1772944D1*
X960970Y1771444D1*
X962229Y1769944D1*
X963824Y1768444D1*
X965859Y1766944D1*
X968290Y1765444D1*
X970897Y1763944D1*
X984397Y1810444D2*
X987282Y1808944D1*
X989644Y1807444D1*
X991580Y1805944D1*
X993267Y1804444D1*
X994793Y1802944D1*
X996125Y1801444D1*
X997218Y1799944D1*
X998087Y1798444D1*
X998724Y1796944D1*
X999144Y1795444D1*
X999517Y1793944D1*
X999956Y1792444D1*
X1000372Y1790944D1*
X1000646Y1789444D1*
X1000783Y1787944D1*
X1000796Y1786444D1*
X1000631Y1784944D1*
X1000277Y1783444D1*
X999843Y1781944D1*
X999386Y1780444D1*
X998835Y1778944D1*
X998190Y1777444D1*
X997484Y1775944D1*
X996701Y1774444D1*
X995763Y1772944D1*
X994597Y1771444D1*
X993209Y1769944D1*
X991535Y1768444D1*
X989462Y1766944D1*
X987014Y1765444D1*
X984397Y1763944D1*
X978397Y1804444D2*
X974255Y1802944D1*
X970628Y1801444D1*
X967741Y1799944D1*
X965544Y1798444D1*
X963891Y1796944D1*
X962661Y1795444D1*
X961738Y1793944D1*
X961087Y1792444D1*
X960712Y1790944D1*
X960528Y1789444D1*
X960448Y1787944D1*
X960422Y1786444D1*
X960462Y1784944D1*
X960655Y1783444D1*
X961071Y1781944D1*
X961705Y1780444D1*
X962581Y1778944D1*
X963779Y1777444D1*
X965429Y1775944D1*
X967937Y1774444D1*
X971928Y1772944D1*
X977669Y1771444D1*
X984397Y1769944D1*
X978397Y1804444D2*
X982307Y1802944D1*
X985562Y1801444D1*
X988067Y1799944D1*
X990048Y1798444D1*
X991700Y1796944D1*
X993034Y1795444D1*
X993963Y1793944D1*
X994533Y1792444D1*
X994967Y1790944D1*
X995381Y1789444D1*
X995616Y1787944D1*
X995535Y1786444D1*
X995289Y1784944D1*
X995034Y1783444D1*
X994673Y1781944D1*
X994010Y1780444D1*
X992988Y1778944D1*
X991660Y1777444D1*
X989930Y1775944D1*
X987384Y1774444D1*
X983377Y1772944D1*
X977628Y1771444D1*
X970897Y1769944D1*
X957397Y1748944D2*
X956192Y1747444D1*
X955315Y1745944D1*
X954818Y1744444D1*
X954632Y1742944D1*
X954758Y1741444D1*
X955228Y1739944D1*
X955897Y1738444D1*
X960397Y1748944D2*
X962014Y1747444D1*
X963241Y1745944D1*
X964185Y1744444D1*
X964417Y1742944D1*
X963879Y1741444D1*
X962978Y1739944D1*
X961897Y1738444D1*
X590079Y1715065D2*
D96*
Y1692117D1*
X591505Y1687806D1*
X592964Y1686380D1*
X595816Y1684921D1*
X598701D1*
X601553Y1686380D1*
X602979Y1687806D1*
X604438Y1692117D1*
Y1694969D1*
X579356Y1707869D2*
Y1709295D1*
X577930Y1712180D1*
X576504Y1713606D1*
X573619Y1715032D1*
X567882D1*
X565030Y1713606D1*
X563605Y1712180D1*
X562145Y1709295D1*
Y1706443D1*
X563605Y1703558D1*
X566456Y1699280D1*
X580815Y1684921D1*
X560719D1*
X1104768Y2329120D2*
Y2298976D1*
X1084672Y2329120D2*
Y2298976D1*
X1104768Y2314761D2*
X1084672D1*
X1058197Y2319072D2*
Y2298976D1*
Y2314761D2*
X1061049Y2317646D1*
X1063934Y2319072D1*
X1068212D1*
X1071097Y2317646D1*
X1073949Y2314761D1*
X1075408Y2310450D1*
Y2307598D1*
X1073949Y2303287D1*
X1071097Y2300435D1*
X1068212Y2298976D1*
X1063934D1*
X1061049Y2300435D1*
X1058197Y2303287D1*
X1048934Y2319072D2*
Y2298976D1*
Y2310450D2*
X1047475Y2314761D1*
X1044623Y2317646D1*
X1041738Y2319072D1*
X1037427D1*
X1010952Y2329120D2*
Y2298976D1*
Y2314761D2*
X1013804Y2317646D1*
X1016689Y2319072D1*
X1021000D1*
X1023852Y2317646D1*
X1026737Y2314761D1*
X1028163Y2310450D1*
Y2307598D1*
X1026737Y2303287D1*
X1023852Y2300435D1*
X1021000Y2298976D1*
X1016689D1*
X1013804Y2300435D1*
X1010952Y2303287D1*
X972528Y2314761D2*
X959628D1*
X955317Y2316220D1*
X953858Y2317646D1*
X952432Y2320498D1*
Y2323383D1*
X953858Y2326235D1*
X955317Y2327694D1*
X959628Y2329120D1*
X972528D1*
Y2298976D1*
X962480Y2314761D2*
X952432Y2298976D1*
X943168Y2310450D2*
X925957D1*
Y2313335D1*
X927383Y2316220D1*
X928809Y2317646D1*
X931694Y2319072D1*
X936005D1*
X938857Y2317646D1*
X941742Y2314761D1*
X943168Y2310450D1*
Y2307598D1*
X941742Y2303287D1*
X938857Y2300435D1*
X936005Y2298976D1*
X931694D1*
X928809Y2300435D1*
X925957Y2303287D1*
X900909Y2314761D2*
X902335Y2317646D1*
X906646Y2319072D1*
X910957D1*
X915268Y2317646D1*
X916694Y2314761D1*
X915268Y2311909D1*
X912383Y2310450D1*
X905220Y2309024D1*
X902335Y2307598D1*
X900909Y2304713D1*
Y2303287D1*
X902335Y2300435D1*
X906646Y2298976D1*
X910957D1*
X915268Y2300435D1*
X916694Y2303287D1*
X891645Y2310450D2*
X874434D1*
Y2313335D1*
X875860Y2316220D1*
X877286Y2317646D1*
X880171Y2319072D1*
X884482D1*
X887334Y2317646D1*
X890219Y2314761D1*
X891645Y2310450D1*
Y2307598D1*
X890219Y2303287D1*
X887334Y2300435D1*
X884482Y2298976D1*
X880171D1*
X877286Y2300435D1*
X874434Y2303287D1*
X860860Y2329120D2*
Y2304713D1*
X859434Y2300435D1*
X856549Y2298976D1*
X853697D1*
X865171Y2319072D2*
X855123D1*
X696214Y546751D2*
D98*
Y572551D1*
X699132Y581173D1*
X701984Y584092D1*
X707688Y586943D1*
X713458D1*
X719162Y584092D1*
X722080Y581173D1*
X724932Y572551D1*
Y546751D1*
X664644D1*
X696214Y566847D2*
X664644Y586943D1*
X716310Y645663D2*
X722080Y639959D1*
X724932Y631337D1*
Y619863D1*
X722080Y611241D1*
X716310Y605471D1*
X710606D1*
X704836Y608389D1*
X701984Y611241D1*
X699132Y616945D1*
X693362Y634189D1*
X690510Y639959D1*
X687592Y642811D1*
X681888Y645663D1*
X673266D1*
X667562Y639959D1*
X664644Y631337D1*
Y619863D1*
X667562Y611241D1*
X673266Y605471D1*
X710540Y667108D2*
X713391D1*
X719162Y669960D1*
X722013Y672812D1*
X724865Y678582D1*
Y690056D1*
X722013Y695760D1*
X719162Y698612D1*
X713391Y701530D1*
X707688D1*
X701917Y698612D1*
X693362Y692908D1*
X664644Y664190D1*
Y704382D1*
X724865Y728679D2*
Y760183D1*
X701917Y743005D1*
Y751627D1*
X699066Y757331D1*
X696214Y760183D1*
X687592Y763101D1*
X681888D1*
X673266Y760183D1*
X667496Y754479D1*
X664644Y745857D1*
Y737235D1*
X667496Y728679D1*
X670414Y725827D1*
X676118Y722909D1*
X710540Y784546D2*
X713391D1*
X719162Y787398D1*
X722013Y790250D1*
X724865Y796020D1*
Y807494D1*
X722013Y813198D1*
X719162Y816050D1*
X713391Y818968D1*
X707688D1*
X701917Y816050D1*
X693362Y810346D1*
X664644Y781628D1*
Y821820D1*
X694755Y840347D2*
Y873509D1*
X696214Y892036D2*
Y917836D1*
X699132Y926458D1*
X701984Y929376D1*
X707688Y932228D1*
X713458D1*
X719162Y929376D1*
X722080Y926458D1*
X724932Y917836D1*
Y892036D1*
X664644D1*
X696214Y912132D2*
X664644Y932228D1*
X724932Y988029D2*
Y950755D1*
X664644D1*
Y988029D1*
X696214Y950755D2*
Y973703D1*
X724932Y1006556D2*
X664644Y1029504D1*
X724932Y1052451D1*
X713391Y1070979D2*
X716310Y1076749D1*
X724865Y1085371D1*
X664644D1*
X585540Y533686D2*
X588391D1*
X594162Y536538D1*
X597013Y539390D1*
X599865Y545160D1*
Y556634D1*
X597013Y562337D1*
X594162Y565189D1*
X588391Y568108D1*
X582688D1*
X576917Y565189D1*
X568362Y559486D1*
X539644Y530768D1*
Y570960D1*
X599865Y606731D2*
X597013Y598109D1*
X588391Y592339D1*
X574066Y589487D1*
X565444D1*
X551118Y592339D1*
X542496Y598109D1*
X539644Y606731D1*
Y612435D1*
X542496Y621057D1*
X551118Y626760D1*
X565444Y629679D1*
X574066D1*
X588391Y626760D1*
X597013Y621057D1*
X599865Y612435D1*
Y606731D1*
X588391Y626760D2*
X551118Y592339D1*
X585540Y651124D2*
X588391D1*
X594162Y653976D1*
X597013Y656828D1*
X599865Y662598D1*
Y674072D1*
X597013Y679776D1*
X594162Y682628D1*
X588391Y685546D1*
X582688D1*
X576917Y682628D1*
X568362Y676924D1*
X539644Y648206D1*
Y688398D1*
X599865Y741347D2*
Y712695D1*
X574066Y709843D1*
X576917Y712695D1*
X579836Y721317D1*
Y729873D1*
X576917Y738495D1*
X571214Y744265D1*
X562592Y747117D1*
X556888D1*
X548266Y744265D1*
X542496Y738495D1*
X539644Y729873D1*
Y721317D1*
X542496Y712695D1*
X545414Y709843D1*
X551118Y706925D1*
X569755Y765644D2*
Y798806D1*
X599865Y834577D2*
X597013Y825955D1*
X588391Y820185D1*
X574066Y817333D1*
X565444D1*
X551118Y820185D1*
X542496Y825955D1*
X539644Y834577D1*
Y840281D1*
X542496Y848903D1*
X551118Y854606D1*
X565444Y857525D1*
X574066D1*
X588391Y854606D1*
X597013Y848903D1*
X599865Y840281D1*
Y834577D1*
X588391Y854606D2*
X551118Y820185D1*
X599865Y910474D2*
Y881822D1*
X574066Y878970D1*
X576917Y881822D1*
X579836Y890444D1*
Y899000D1*
X576917Y907622D1*
X571214Y913392D1*
X562592Y916244D1*
X556888D1*
X548266Y913392D1*
X542496Y907622D1*
X539644Y899000D1*
Y890444D1*
X542496Y881822D1*
X545414Y878970D1*
X551118Y876052D1*
X569755Y934771D2*
Y967933D1*
X585539Y989378D2*
X588391D1*
X594162Y992230D1*
X597013Y995082D1*
X599865Y1000852D1*
Y1012326D1*
X597013Y1018030D1*
X594162Y1020882D1*
X588391Y1023800D1*
X582688D1*
X576917Y1020882D1*
X568362Y1015178D1*
X539644Y986460D1*
Y1026652D1*
X585539Y1048097D2*
X588391D1*
X594162Y1050949D1*
X597013Y1053801D1*
X599865Y1059571D1*
Y1071045D1*
X597013Y1076749D1*
X594162Y1079601D1*
X588391Y1082519D1*
X582688D1*
X576917Y1079601D1*
X568362Y1073897D1*
X539644Y1045179D1*
Y1085371D1*
M02*
