G04 DipTrace 3.3.1.3*
G04 Bottom.gbr*
%MOIN*%
G04 #@! TF.FileFunction,Copper,L2,Bot*
G04 #@! TF.Part,Single*
G04 #@! TA.AperFunction,Conductor*
%ADD13C,0.007874*%
%ADD14C,0.015748*%
G04 #@! TA.AperFunction,CopperBalancing*
%ADD16C,0.025*%
%ADD17C,0.012992*%
G04 #@! TA.AperFunction,Nonconductor*
%ADD19C,0.035433*%
G04 #@! TA.AperFunction,ComponentPad*
%ADD26O,0.035433X0.070866*%
%ADD27O,0.035433X0.082677*%
%ADD28R,0.03937X0.019685*%
%ADD29R,0.047244X0.037402*%
%ADD30R,0.07874X0.19685*%
%ADD49C,0.07874*%
%ADD50C,0.027559*%
G04 #@! TA.AperFunction,ViaPad*
%ADD51C,0.031*%
%FSLAX26Y26*%
G04*
G70*
G90*
G75*
G01*
G04 Bottom*
%LPD*%
X906201Y2424950D2*
D13*
X1018701D1*
X1037470Y2443719D1*
Y2608682D1*
X818701Y2437450D2*
Y2608024D1*
X819360Y2608683D1*
X943701Y2462450D2*
X1006201D1*
X1271808Y1831199D2*
Y1959343D1*
X1173670Y2057481D1*
Y2181435D1*
Y2362844D1*
X1117654D1*
X631201Y1906199D2*
X681201D1*
X743701Y1843699D1*
X799950D1*
X856201Y1899950D1*
Y2181783D1*
Y2331201D1*
X887844Y2362844D1*
X1117654D1*
X811263Y615748D2*
Y529756D1*
Y525344D1*
Y451181D1*
X1151420Y615748D2*
Y525344D1*
Y521776D1*
Y451181D1*
X460604Y565957D2*
X631201D1*
X673235D1*
X709436Y529756D1*
X811263D1*
Y525344D2*
X1151420D1*
Y521776D2*
X1365526D1*
X1387450Y543699D1*
Y908182D1*
X1271530Y1024102D1*
X631201Y899950D2*
Y565957D1*
Y1906199D2*
X593701Y1868699D1*
Y1806199D1*
X675098Y1724802D1*
Y1652430D1*
X850295Y1199675D2*
Y1212794D1*
X899951Y1262450D1*
X1033182D1*
X1271530Y1024102D1*
X850295Y1652430D2*
X928720D1*
X931201Y1649950D1*
X455879Y1232155D2*
Y1160801D1*
Y1000272D1*
X556201Y899950D1*
X631201D1*
X455879Y1232155D2*
Y1293379D1*
X474950Y1312450D1*
X543701D1*
X592343Y1361092D1*
X606201D1*
X455879Y1160801D2*
X586698D1*
X625572Y1199675D1*
X675098D1*
X903530Y2174692D2*
X856201D1*
Y2181783D1*
X1056386Y2174344D2*
X1173670D1*
Y2181435D1*
X924951Y1143701D2*
X993701D1*
X1306201Y831201D1*
Y624950D1*
X1343701Y587450D1*
X606201Y1534320D2*
X648564D1*
X664196Y1549951D1*
X606201Y1491013D2*
X655259D1*
X664196Y1499950D1*
Y1443701D2*
X691130Y1416766D1*
Y1296860D1*
X640159Y1245888D1*
X552531D1*
X497608Y1190965D1*
X606201Y1317785D2*
X645487D1*
X664196Y1336493D1*
Y1399950D1*
X931201Y1199950D2*
X981201D1*
X1343701Y837450D1*
Y743699D1*
X606201Y1404399D2*
X523150D1*
X506201Y1387450D1*
Y1343699D1*
X656201Y1137450D2*
X506199D1*
X487450Y1118701D1*
X964573Y1947190D2*
Y1348949D1*
X970694Y1342828D1*
X1015979Y1947217D2*
Y1347113D1*
X1020521Y1342571D1*
X606201Y1433927D2*
X478474D1*
X462450Y1449950D1*
Y1574950D1*
X487450Y1599950D1*
X774950Y1993701D2*
X798901Y2017652D1*
Y2189421D1*
X818077Y2208597D1*
Y2210358D1*
X731201Y2012450D2*
X768701Y2049950D1*
Y2312449D1*
X824951Y2368699D1*
X980360Y2174521D2*
X987451D1*
Y2143167D1*
X1008088Y2083919D1*
X1171424Y1928477D1*
Y1831047D1*
X843701Y2406199D2*
X858298Y2391602D1*
X1060353D1*
X1146525Y2477774D1*
Y2608682D1*
X928415D2*
Y2497164D1*
X906201Y2474950D1*
X499950Y1274950D2*
X606201D1*
Y1274478D1*
X506201Y1562450D2*
X521378Y1577627D1*
X606201D1*
X990949Y582627D2*
X992273D1*
X824950Y749950D1*
Y999950D1*
Y1149950D1*
X792282Y1182618D1*
Y1249950D1*
X799953D1*
X837451Y999950D2*
X824950D1*
X950917Y582626D2*
X961025D1*
X806201Y737450D1*
Y999950D1*
Y1144640D1*
X765466Y1185375D1*
Y1249950D1*
X756201D1*
X793701Y999950D2*
X806201D1*
X606201Y1461486D2*
X639875D1*
X650454Y1472064D1*
X756201D1*
Y1593474D1*
Y1724950D1*
X631201Y1849950D1*
X1221244Y1699950D2*
X1221188D1*
D14*
Y1831199D1*
X424950Y1356199D2*
D13*
Y1631199D1*
X437450Y1643699D1*
X610836D1*
X661062Y1593474D1*
X756201D1*
X593701Y987450D2*
D14*
X724950Y1118699D1*
Y1274949D1*
X756201Y1306199D1*
X1187450D1*
X1221244Y1339993D1*
Y1699950D1*
X756201Y1472064D2*
D13*
Y1306199D1*
D51*
X943701Y2462450D3*
X1006201D3*
X906201Y2424950D3*
Y2474950D3*
X843701Y2406199D3*
X818701Y2437450D3*
X824951Y2368699D3*
X818077Y2210358D3*
X990949Y582627D3*
X950917Y582626D3*
X756201Y1249950D3*
X799953D3*
X964573Y1947190D3*
X1015979Y1947217D3*
X499950Y1274950D3*
X506201Y1562450D3*
X774950Y1993701D3*
X731201Y2012450D3*
X631201Y1906199D3*
Y1849950D3*
X664196Y1549951D3*
Y1499950D3*
Y1443701D3*
Y1399950D3*
X487450Y1599950D3*
X506201Y1343699D3*
X1221188Y1831199D3*
X1271808D3*
X1117654Y2362844D3*
X970694Y1342828D3*
X1020521Y1342571D3*
X793701Y999950D3*
X837451D3*
X593701Y987450D3*
X1221244Y1699950D3*
X497608Y1190965D3*
X631201Y899950D3*
X931201Y1199950D3*
X1343701Y743699D3*
X1271530Y1024102D3*
X460604Y565957D3*
X931201Y1649950D3*
X455879Y1232155D3*
X424950Y1356199D3*
X1343701Y587450D3*
X924951Y1143701D3*
X656201Y1137450D3*
X487450Y1118701D3*
X1171424Y1831047D3*
X1164357Y2450081D2*
D16*
X1222441D1*
X1139489Y2425213D2*
X1222441D1*
X1114621Y2400344D2*
X1222441D1*
X1089753Y2375475D2*
X1222441D1*
X865334Y2350606D2*
X1222441D1*
X827512Y2325738D2*
X1222441D1*
X802644Y2300869D2*
X1222441D1*
X801639Y2276000D2*
X909208D1*
X1050424D2*
X1222441D1*
X830634Y2251131D2*
X882438D1*
X1077122D2*
X1222441D1*
X1092660Y2226262D2*
X1222441D1*
X1101200Y2201394D2*
X1222441D1*
X1103999Y2176525D2*
X1222441D1*
X831818Y2151656D2*
X857965D1*
X1101559D2*
X1222441D1*
X831818Y2126787D2*
X865932D1*
X1093629D2*
X1222441D1*
X831818Y2101919D2*
X880501D1*
X1079132D2*
X1222441D1*
X831818Y2077050D2*
X905799D1*
X1061943D2*
X1222441D1*
X831818Y2052181D2*
X994792D1*
X1088067D2*
X1222441D1*
X831818Y2027312D2*
X1020915D1*
X1114226D2*
X1233673D1*
X827763Y2002444D2*
X1047075D1*
X1140350D2*
X1258541D1*
X678162Y1977575D2*
X705314D1*
X816208D2*
X933071D1*
X1047482D2*
X1073199D1*
X1166474D2*
X1266184D1*
X649849Y1952706D2*
X763339D1*
X786532D2*
X920440D1*
X1060113D2*
X1099322D1*
X1192598D2*
X1266184D1*
X621501Y1927837D2*
X924818D1*
X1055735D2*
X1125446D1*
X1204368D2*
X1266184D1*
X593152Y1902969D2*
X931636D1*
X1048917D2*
X1138508D1*
X1204368D2*
X1266184D1*
X564804Y1878100D2*
X597554D1*
X664849D2*
X931636D1*
X1048917D2*
X1138508D1*
X1204368D2*
X1266184D1*
X536491Y1853231D2*
X586824D1*
X675578D2*
X931636D1*
X1048917D2*
X1133269D1*
X508143Y1828362D2*
X592674D1*
X698329D2*
X931636D1*
X1048917D2*
X1127025D1*
X479794Y1803493D2*
X632110D1*
X723196D2*
X931636D1*
X1048917D2*
X1137252D1*
X451446Y1778625D2*
X656978D1*
X748064D2*
X931636D1*
X1048917D2*
X1184332D1*
X433719Y1753756D2*
X681846D1*
X772932D2*
X931636D1*
X1048917D2*
X1184332D1*
X433719Y1728887D2*
X706714D1*
X788865D2*
X931636D1*
X1048917D2*
X1184332D1*
X433719Y1704018D2*
X723256D1*
X789116D2*
X931636D1*
X1048917D2*
X1176940D1*
X433719Y1679150D2*
X622493D1*
X902904D2*
X931636D1*
X1048917D2*
X1182251D1*
X902904Y1654281D2*
X931636D1*
X1048917D2*
X1184368D1*
X902904Y1629412D2*
X931636D1*
X1048917D2*
X1184368D1*
X789116Y1604543D2*
X931636D1*
X1048917D2*
X1184368D1*
X789116Y1579675D2*
X931636D1*
X1048917D2*
X1184368D1*
X789116Y1554806D2*
X931636D1*
X1048917D2*
X1184368D1*
X789116Y1529937D2*
X931636D1*
X1048917D2*
X1184368D1*
X789116Y1505068D2*
X931636D1*
X1048917D2*
X1184368D1*
X789116Y1480199D2*
X931636D1*
X1048917D2*
X1184368D1*
X789116Y1455331D2*
X931636D1*
X1048917D2*
X1184368D1*
X789116Y1430462D2*
X931636D1*
X1048917D2*
X1184368D1*
X789116Y1405593D2*
X931636D1*
X1048917D2*
X1184368D1*
X789116Y1380724D2*
X931636D1*
X1048917D2*
X1184368D1*
X789116Y1355856D2*
X928262D1*
X1062840D2*
X1184368D1*
X433719Y1306118D2*
X469304D1*
X530606D2*
X557507D1*
X1238457D2*
X1266184D1*
X433719Y1281249D2*
X455919D1*
X1213590D2*
X1266184D1*
X433719Y1256381D2*
X459794D1*
X843947D2*
X1266184D1*
X433719Y1231512D2*
X484196D1*
X961396D2*
X1266184D1*
X433719Y1206643D2*
X456170D1*
X558811D2*
X622493D1*
X1020030D2*
X1266184D1*
X433719Y1181774D2*
X454125D1*
X541084D2*
X622493D1*
X1044898D2*
X1266184D1*
X433719Y1156906D2*
X467510D1*
X1069766D2*
X1266184D1*
X857870Y1132037D2*
X882115D1*
X1094634D2*
X1266184D1*
X759834Y1107168D2*
X773279D1*
X857870D2*
X901744D1*
X948154D2*
X984708D1*
X1119501D2*
X1266184D1*
X433719Y1082299D2*
X464029D1*
X510870D2*
X637457D1*
X739667D2*
X773279D1*
X857870D2*
X1009576D1*
X1144369D2*
X1266184D1*
X433719Y1057430D2*
X612589D1*
X714800D2*
X773279D1*
X857870D2*
X1034444D1*
X1169237D2*
X1266184D1*
X433719Y1032562D2*
X587722D1*
X689896D2*
X764738D1*
X866410D2*
X1059312D1*
X1194141D2*
X1266184D1*
X433719Y1007693D2*
X554421D1*
X665028D2*
X749918D1*
X881230D2*
X1084179D1*
X1219008D2*
X1290765D1*
X433719Y982824D2*
X549469D1*
X640160D2*
X752861D1*
X878288D2*
X938812D1*
X1023583D2*
X1109047D1*
X1243876D2*
X1315632D1*
X433719Y957955D2*
X561311D1*
X626094D2*
X773279D1*
X857870D2*
X897151D1*
X1065245D2*
X1133915D1*
X1268744D2*
X1340500D1*
X433719Y933087D2*
X773279D1*
X857870D2*
X876374D1*
X1086021D2*
X1158783D1*
X1293611D2*
X1365404D1*
X433719Y908218D2*
X773279D1*
X1097971D2*
X1183650D1*
X1318479D2*
X1384961D1*
X433719Y883349D2*
X773279D1*
X1103712D2*
X1208518D1*
X1343347D2*
X1384961D1*
X433719Y858480D2*
X773279D1*
X1104179D2*
X1233386D1*
X1368179D2*
X1384961D1*
X433719Y833612D2*
X773279D1*
X1099406D2*
X1258253D1*
X433719Y808743D2*
X773279D1*
X857870D2*
X873719D1*
X1088677D2*
X1273289D1*
X433719Y783874D2*
X773279D1*
X857870D2*
X892558D1*
X1069874D2*
X1273289D1*
X433719Y759005D2*
X773279D1*
X861422D2*
X927868D1*
X1034564D2*
X1273289D1*
X433719Y734136D2*
X773458D1*
X886290D2*
X1273289D1*
X433719Y709268D2*
X788852D1*
X911158D2*
X1273289D1*
X1370224D2*
X1384961D1*
X433719Y684399D2*
X813720D1*
X936026D2*
X1273289D1*
X1339113D2*
X1384961D1*
X433719Y659530D2*
X769403D1*
X960893D2*
X1109585D1*
X1193279D2*
X1273289D1*
X1339113D2*
X1384961D1*
X433719Y634661D2*
X764559D1*
X985761D2*
X1085292D1*
X1198124D2*
X1273289D1*
X1342019D2*
X1384961D1*
X433719Y609793D2*
X764559D1*
X1025485D2*
X1055795D1*
X1198124D2*
X1277308D1*
X433719Y584924D2*
X765133D1*
X1035389D2*
X1054934D1*
X1197550D2*
X1299269D1*
X433719Y560055D2*
X778338D1*
X885788D2*
X913012D1*
X1028858D2*
X1076895D1*
X1184344D2*
X1309388D1*
X433719Y535186D2*
X1384961D1*
X433719Y510318D2*
X793302D1*
X829234D2*
X1133484D1*
X1169380D2*
X1384961D1*
X433719Y485449D2*
X487353D1*
X525618D2*
X554277D1*
X592542D2*
X767753D1*
X854748D2*
X1107935D1*
X1194930D2*
X1369853D1*
X433719Y460580D2*
X465464D1*
X614396D2*
X764559D1*
X857977D2*
X1104705D1*
X1198124D2*
X1348000D1*
X433719Y435711D2*
X465895D1*
X614001D2*
X764559D1*
X857977D2*
X1104705D1*
X1198124D2*
X1348395D1*
X767063Y468891D2*
X767496Y475136D1*
X769132Y482292D1*
X771929Y489079D1*
X775811Y495309D1*
X780670Y500811D1*
X786372Y505434D1*
X792761Y509049D1*
X799660Y511557D1*
X806879Y512889D1*
X814218Y513008D1*
X821476Y511911D1*
X828453Y509628D1*
X834956Y506222D1*
X840805Y501787D1*
X845840Y496445D1*
X849921Y490344D1*
X852937Y483651D1*
X854804Y476552D1*
X855470Y469241D1*
X855407Y431206D1*
X1107282Y431200D1*
X1107218Y469645D1*
X1107951Y476949D1*
X1109882Y484031D1*
X1112959Y490696D1*
X1117096Y496759D1*
X1122179Y502055D1*
X1128069Y506436D1*
X1134603Y509783D1*
X1141600Y512002D1*
X1148868Y513033D1*
X1156206Y512847D1*
X1163412Y511449D1*
X1170288Y508878D1*
X1176643Y505205D1*
X1182303Y500531D1*
X1187112Y494984D1*
X1190937Y488719D1*
X1193672Y481907D1*
X1195242Y474736D1*
X1195629Y468898D1*
X1195564Y431206D1*
X1352730Y431200D1*
X1350695Y436324D1*
X1349220Y442469D1*
X1348724Y448769D1*
X1349220Y455069D1*
X1350695Y461214D1*
X1353114Y467052D1*
X1356416Y472440D1*
X1360520Y477245D1*
X1365325Y481349D1*
X1370713Y484651D1*
X1376551Y487070D1*
X1382696Y488545D1*
X1387453Y488980D1*
X1387451Y913507D1*
X1271088Y1030103D1*
X1269652Y1032667D1*
X1268855Y1035495D1*
X1268701Y1046636D1*
Y1994778D1*
X1227339Y2036352D1*
X1225903Y2038916D1*
X1225105Y2041744D1*
X1224951Y2052886D1*
Y2474920D1*
X1176843Y2474950D1*
X1175465Y2468371D1*
X1173638Y2463960D1*
X1171143Y2459888D1*
X1168035Y2456251D1*
X1080115Y2368464D1*
X1076252Y2365657D1*
X1071998Y2363489D1*
X1067457Y2362014D1*
X1062740Y2361267D1*
X986862Y2361173D1*
X866261D1*
X864888Y2355723D1*
X862367Y2349635D1*
X858924Y2344017D1*
X854644Y2339007D1*
X849634Y2334727D1*
X844015Y2331284D1*
X837928Y2328763D1*
X831520Y2327224D1*
X826045Y2326750D1*
X799146Y2299860D1*
X799130Y2247821D1*
X805101Y2250295D1*
X811508Y2251833D1*
X818077Y2252350D1*
X824646Y2251833D1*
X831054Y2250295D1*
X837141Y2247773D1*
X842760Y2244330D1*
X847770Y2240051D1*
X852050Y2235040D1*
X855493Y2229422D1*
X858014Y2223334D1*
X859552Y2216927D1*
X860069Y2210358D1*
X859552Y2203789D1*
X858014Y2197382D1*
X855493Y2191294D1*
X852050Y2185676D1*
X847770Y2180665D1*
X842760Y2176386D1*
X837141Y2172943D1*
X831054Y2170421D1*
X829331Y2169935D1*
X829237Y2015265D1*
X828490Y2010548D1*
X827014Y2006007D1*
X824846Y2001753D1*
X822040Y1997890D1*
X820411Y1996129D1*
X816813Y1990406D1*
X815782Y1983898D1*
X813746Y1977631D1*
X810754Y1971760D1*
X806881Y1966429D1*
X802222Y1961770D1*
X796891Y1957897D1*
X791020Y1954905D1*
X784753Y1952869D1*
X778245Y1951838D1*
X771655D1*
X765147Y1952869D1*
X758880Y1954905D1*
X753009Y1957897D1*
X747678Y1961770D1*
X743019Y1966429D1*
X739468Y1971278D1*
X734495Y1970587D1*
X727906D1*
X721398Y1971618D1*
X715131Y1973654D1*
X709260Y1976646D1*
X703929Y1980519D1*
X699270Y1985178D1*
X695397Y1990509D1*
X693759Y1993445D1*
X431196Y1763034D1*
X431201Y1673499D1*
X437450Y1674129D1*
X613223Y1674035D1*
X617940Y1673288D1*
X622481Y1671812D1*
X624659Y1670808D1*
X624984Y1671542D1*
Y1697623D1*
X725213D1*
X725366Y1623903D1*
X725761D1*
X725772Y1712358D1*
X630169Y1807949D1*
X624632Y1808475D1*
X618225Y1810013D1*
X612137Y1812535D1*
X606518Y1815978D1*
X601508Y1820257D1*
X597228Y1825268D1*
X593786Y1830886D1*
X591264Y1836974D1*
X589726Y1843381D1*
X589209Y1849950D1*
X589726Y1856519D1*
X591264Y1862926D1*
X593786Y1869014D1*
X597228Y1874632D1*
X601508Y1879643D1*
X606518Y1883922D1*
X612137Y1887365D1*
X618225Y1889887D1*
X624632Y1891425D1*
X631201Y1891942D1*
X637770Y1891425D1*
X644177Y1889887D1*
X650265Y1887365D1*
X655883Y1883922D1*
X660894Y1879643D1*
X665173Y1874632D1*
X668616Y1869014D1*
X671138Y1862926D1*
X672676Y1856519D1*
X673150Y1851044D1*
X779339Y1744712D1*
X782146Y1740849D1*
X784314Y1736595D1*
X785789Y1732054D1*
X786536Y1727338D1*
X786630Y1651459D1*
Y1340549D1*
X928768Y1340566D1*
X928832Y1346123D1*
X929862Y1352631D1*
X931899Y1358898D1*
X934141Y1363432D1*
X934144Y1918251D1*
X930601Y1922508D1*
X927158Y1928126D1*
X924637Y1934214D1*
X923098Y1940621D1*
X922581Y1947190D1*
X923098Y1953759D1*
X924637Y1960167D1*
X927158Y1966254D1*
X930601Y1971873D1*
X934881Y1976883D1*
X939891Y1981163D1*
X945509Y1984606D1*
X951597Y1987127D1*
X958004Y1988665D1*
X964573Y1989182D1*
X971143Y1988665D1*
X977550Y1987127D1*
X983638Y1984606D1*
X989256Y1981163D1*
X990237Y1980389D1*
X994038Y1983021D1*
X999909Y1986012D1*
X1006176Y1988048D1*
X1012684Y1989079D1*
X1019274D1*
X1025782Y1988048D1*
X1032049Y1986012D1*
X1037920Y1983021D1*
X1043251Y1979148D1*
X1047910Y1974488D1*
X1051783Y1969157D1*
X1054775Y1963286D1*
X1056811Y1957019D1*
X1057842Y1950511D1*
Y1943922D1*
X1056811Y1937414D1*
X1054775Y1931147D1*
X1051783Y1925276D1*
X1047910Y1919945D1*
X1046415Y1918328D1*
X1046408Y1375617D1*
X1050214Y1372264D1*
X1054493Y1367253D1*
X1057936Y1361635D1*
X1060458Y1355547D1*
X1061996Y1349140D1*
X1062513Y1342571D1*
X1062435Y1340576D1*
X1173211Y1340566D1*
X1186874Y1354225D1*
X1186878Y1675834D1*
X1183829Y1680886D1*
X1181307Y1686974D1*
X1179769Y1693381D1*
X1179252Y1699950D1*
X1179769Y1706519D1*
X1181307Y1712926D1*
X1183829Y1719014D1*
X1186821Y1723958D1*
Y1791993D1*
X1181227Y1790215D1*
X1174719Y1789185D1*
X1168129D1*
X1161621Y1790215D1*
X1155354Y1792252D1*
X1149483Y1795243D1*
X1144152Y1799116D1*
X1139493Y1803776D1*
X1135620Y1809106D1*
X1132628Y1814978D1*
X1130592Y1821244D1*
X1129561Y1827753D1*
Y1834342D1*
X1130592Y1840850D1*
X1132628Y1847117D1*
X1135620Y1852988D1*
X1139493Y1858319D1*
X1140988Y1859936D1*
X1140995Y1915411D1*
X989901Y2059220D1*
X983700Y2056577D1*
X976975Y2054877D1*
X970066Y2054250D1*
X963144Y2054711D1*
X944902Y2058736D1*
X938333Y2060966D1*
X921268Y2068556D1*
X905656Y2078816D1*
X900313Y2083241D1*
X887073Y2096414D1*
X876142Y2111563D1*
X872726Y2117601D1*
X865047Y2134627D1*
X860232Y2152676D1*
X859191Y2159535D1*
X858084Y2178180D1*
X860015Y2196760D1*
X861487Y2203540D1*
X867095Y2221355D1*
X875520Y2238028D1*
X879311Y2243838D1*
X890899Y2258486D1*
X904712Y2271063D1*
X910323Y2275141D1*
X926370Y2284699D1*
X943758Y2291529D1*
X950454Y2293340D1*
X968853Y2296553D1*
X987533Y2296739D1*
X994436Y2296045D1*
X1012772Y2292491D1*
X1030292Y2286010D1*
X1036494Y2282902D1*
X1051468Y2273705D1*
X1061380Y2265236D1*
X1068866Y2258284D1*
X1080467Y2243641D1*
X1084150Y2237763D1*
X1092585Y2221099D1*
X1098207Y2203284D1*
X1099555Y2196479D1*
X1101499Y2177903D1*
X1100404Y2159254D1*
X1099238Y2152416D1*
X1094436Y2134366D1*
X1086768Y2117331D1*
X1083242Y2111357D1*
X1072324Y2096203D1*
X1059890Y2083786D1*
X1055938Y2080380D1*
X1194562Y1948239D1*
X1197369Y1944376D1*
X1199537Y1940122D1*
X1201012Y1935581D1*
X1201759Y1930864D1*
X1201853Y1868443D1*
X1208211Y1871136D1*
X1214619Y1872675D1*
X1221188Y1873192D1*
X1227757Y1872675D1*
X1234164Y1871136D1*
X1240252Y1868615D1*
X1245870Y1865172D1*
X1250881Y1860892D1*
X1255160Y1855882D1*
X1258603Y1850264D1*
X1261125Y1844176D1*
X1262663Y1837768D1*
X1263180Y1831199D1*
X1262663Y1824630D1*
X1261125Y1818223D1*
X1258603Y1812135D1*
X1255554Y1807106D1*
Y1724157D1*
X1258659Y1719014D1*
X1261181Y1712926D1*
X1262719Y1706519D1*
X1263236Y1699950D1*
X1262719Y1693381D1*
X1261181Y1686974D1*
X1258659Y1680886D1*
X1255610Y1675857D1*
X1255504Y1337297D1*
X1254661Y1331971D1*
X1252994Y1326842D1*
X1250546Y1322037D1*
X1247376Y1317674D1*
X1211751Y1281899D1*
X1207650Y1278397D1*
X1203052Y1275579D1*
X1198070Y1273515D1*
X1192826Y1272256D1*
X1187440Y1271834D1*
X835821Y1271833D1*
X838748Y1266020D1*
X840785Y1259753D1*
X841815Y1253245D1*
Y1246655D1*
X841605Y1244878D1*
X900410Y1244867D1*
Y1228497D1*
X903929Y1231881D1*
X909260Y1235754D1*
X915131Y1238746D1*
X921398Y1240782D1*
X927906Y1241813D1*
X934495D1*
X941004Y1240782D1*
X947270Y1238746D1*
X953142Y1235754D1*
X958472Y1231881D1*
X960090Y1230386D1*
X983588Y1230286D1*
X988304Y1229539D1*
X992846Y1228063D1*
X997100Y1225895D1*
X1000963Y1223089D1*
X1054683Y1169501D1*
X1366839Y857212D1*
X1369646Y853349D1*
X1371814Y849095D1*
X1373289Y844554D1*
X1374036Y839838D1*
X1374130Y772607D1*
X1377673Y768382D1*
X1381116Y762764D1*
X1383638Y756676D1*
X1385176Y750268D1*
X1385693Y743699D1*
X1385176Y737130D1*
X1383638Y730723D1*
X1381116Y724635D1*
X1377673Y719017D1*
X1373394Y714007D1*
X1368383Y709727D1*
X1362765Y706284D1*
X1356677Y703763D1*
X1350270Y702224D1*
X1343701Y701707D1*
X1336639Y702322D1*
X1336630Y637534D1*
X1344743Y629441D1*
X1350270Y628925D1*
X1356677Y627387D1*
X1362765Y624865D1*
X1368383Y621422D1*
X1373394Y617143D1*
X1377673Y612132D1*
X1381116Y606514D1*
X1383638Y600426D1*
X1385176Y594019D1*
X1385693Y587450D1*
X1385176Y580881D1*
X1383638Y574474D1*
X1381116Y568386D1*
X1377673Y562768D1*
X1373394Y557757D1*
X1368383Y553478D1*
X1362765Y550035D1*
X1356677Y547513D1*
X1350270Y545975D1*
X1343701Y545458D1*
X1337132Y545975D1*
X1330725Y547513D1*
X1324637Y550035D1*
X1319018Y553478D1*
X1314008Y557757D1*
X1309728Y562768D1*
X1306286Y568386D1*
X1303764Y574474D1*
X1302226Y580881D1*
X1301752Y586356D1*
X1283062Y605188D1*
X1280256Y609051D1*
X1278088Y613305D1*
X1276612Y617847D1*
X1275865Y622563D1*
X1275772Y698441D1*
Y818617D1*
X981085Y1113283D1*
X953905Y1113272D1*
X949634Y1109728D1*
X944015Y1106286D1*
X937928Y1103764D1*
X931520Y1102226D1*
X924951Y1101709D1*
X918382Y1102226D1*
X911975Y1103764D1*
X905887Y1106286D1*
X900269Y1109728D1*
X895259Y1114008D1*
X890979Y1119018D1*
X887536Y1124637D1*
X885015Y1130725D1*
X883476Y1137132D1*
X882959Y1143701D1*
X883476Y1150270D1*
X884396Y1154483D1*
X855045Y1154481D1*
X855379Y1149941D1*
Y1037956D1*
X862134Y1033922D1*
X867144Y1029643D1*
X871424Y1024632D1*
X874867Y1019014D1*
X877388Y1012926D1*
X878927Y1006519D1*
X879444Y999950D1*
X878927Y993381D1*
X877388Y986974D1*
X874867Y980886D1*
X871424Y975268D1*
X867144Y970257D1*
X862134Y965978D1*
X856515Y962535D1*
X855381Y962012D1*
X855379Y762576D1*
X993407Y624526D1*
X1000752Y623459D1*
X1007019Y621423D1*
X1012890Y618431D1*
X1018221Y614558D1*
X1022880Y609899D1*
X1026753Y604568D1*
X1029744Y598697D1*
X1031781Y592430D1*
X1032811Y585922D1*
Y579333D1*
X1031781Y572824D1*
X1029744Y566558D1*
X1026753Y560686D1*
X1022880Y555356D1*
X1018221Y550696D1*
X1012890Y546823D1*
X1007019Y543832D1*
X1000752Y541795D1*
X994243Y540765D1*
X987654D1*
X981146Y541795D1*
X974879Y543832D1*
X970975Y545722D1*
X963894Y542689D1*
X957486Y541151D1*
X950917Y540634D1*
X944348Y541151D1*
X937941Y542689D1*
X931853Y545211D1*
X926235Y548654D1*
X921224Y552933D1*
X916945Y557944D1*
X913502Y563562D1*
X910980Y569650D1*
X909442Y576057D1*
X908925Y582626D1*
X909442Y589195D1*
X909771Y590850D1*
X906801Y593816D1*
X905764Y586892D1*
X903859Y581029D1*
X901060Y575536D1*
X897436Y570548D1*
X893077Y566189D1*
X888090Y562565D1*
X882597Y559766D1*
X876733Y557861D1*
X870644Y556897D1*
X864480D1*
X858391Y557861D1*
X852527Y559766D1*
X847034Y562565D1*
X845201Y563790D1*
X841060Y559468D1*
X835245Y554988D1*
X828769Y551531D1*
X821810Y549194D1*
X814561Y548041D1*
X807220Y548103D1*
X799992Y549379D1*
X793073Y551833D1*
X786657Y555398D1*
X780918Y559976D1*
X776017Y565441D1*
X772087Y571641D1*
X769237Y578406D1*
X767546Y585549D1*
X767063Y592120D1*
X767130Y641953D1*
X768165Y649220D1*
X770389Y656216D1*
X773740Y662747D1*
X778126Y668634D1*
X783425Y673714D1*
X789491Y677847D1*
X796158Y680919D1*
X803242Y682845D1*
X810546Y683573D1*
X817479Y683133D1*
X783062Y717688D1*
X780256Y721551D1*
X778088Y725805D1*
X776612Y730347D1*
X775865Y735063D1*
X775772Y810941D1*
Y961977D1*
X769018Y965978D1*
X764008Y970257D1*
X759728Y975268D1*
X756286Y980886D1*
X753764Y986974D1*
X752226Y993381D1*
X751709Y999950D1*
X752226Y1006519D1*
X753764Y1012926D1*
X756286Y1019014D1*
X759728Y1024632D1*
X764008Y1029643D1*
X769018Y1033922D1*
X774637Y1037365D1*
X775771Y1037888D1*
X775772Y1132040D1*
X759335Y1148472D1*
X759210Y1116003D1*
X758367Y1110677D1*
X756700Y1105548D1*
X754252Y1100743D1*
X751082Y1096380D1*
X710276Y1055424D1*
X635043Y980191D1*
X633638Y974474D1*
X631116Y968386D1*
X627673Y962768D1*
X623394Y957757D1*
X618383Y953478D1*
X612765Y950035D1*
X606677Y947513D1*
X600270Y945975D1*
X593701Y945458D1*
X587132Y945975D1*
X580725Y947513D1*
X574637Y950035D1*
X569018Y953478D1*
X564008Y957757D1*
X559728Y962768D1*
X556286Y968386D1*
X553764Y974474D1*
X552226Y980881D1*
X551709Y987450D1*
X552226Y994019D1*
X553764Y1000426D1*
X556286Y1006514D1*
X559728Y1012132D1*
X564008Y1017143D1*
X569018Y1021422D1*
X574637Y1024865D1*
X580725Y1027387D1*
X586437Y1028787D1*
X653210Y1095561D1*
X646398Y1096618D1*
X640131Y1098654D1*
X634260Y1101646D1*
X628929Y1105519D1*
X627312Y1107014D1*
X527771Y1107021D1*
X526246Y1102631D1*
X523254Y1096760D1*
X519381Y1091429D1*
X514722Y1086770D1*
X509391Y1082897D1*
X503520Y1079905D1*
X497253Y1077869D1*
X490745Y1076838D1*
X484155D1*
X477647Y1077869D1*
X471380Y1079905D1*
X465509Y1082897D1*
X460178Y1086770D1*
X455519Y1091429D1*
X451646Y1096760D1*
X448654Y1102631D1*
X446618Y1108898D1*
X445587Y1115406D1*
Y1121995D1*
X446618Y1128504D1*
X448654Y1134770D1*
X451646Y1140642D1*
X455519Y1145972D1*
X460178Y1150632D1*
X465509Y1154505D1*
X471973Y1157715D1*
X467915Y1161272D1*
X463635Y1166282D1*
X460192Y1171901D1*
X457671Y1177988D1*
X456132Y1184396D1*
X455615Y1190965D1*
X456132Y1197534D1*
X457671Y1203941D1*
X460192Y1210029D1*
X463635Y1215647D1*
X467915Y1220657D1*
X472925Y1224937D1*
X478544Y1228380D1*
X484631Y1230901D1*
X491039Y1232440D1*
X496514Y1232914D1*
X490147Y1234118D1*
X483880Y1236154D1*
X478009Y1239146D1*
X472678Y1243019D1*
X468019Y1247678D1*
X464146Y1253009D1*
X461154Y1258880D1*
X459118Y1265147D1*
X458087Y1271655D1*
Y1278245D1*
X459118Y1284753D1*
X461154Y1291020D1*
X464146Y1296891D1*
X468019Y1302222D1*
X472678Y1306881D1*
X478009Y1310754D1*
X479279Y1311465D1*
X474270Y1316428D1*
X470397Y1321759D1*
X467405Y1327630D1*
X465369Y1333897D1*
X464338Y1340405D1*
X464294Y1341524D1*
X462365Y1337135D1*
X458922Y1331517D1*
X454643Y1326507D1*
X449632Y1322227D1*
X444014Y1318784D1*
X437926Y1316263D1*
X431199Y1314686D1*
X431201Y431188D1*
X470266Y431200D1*
X468176Y436324D1*
X466701Y442469D1*
X466205Y448769D1*
X466701Y455069D1*
X468176Y461214D1*
X470594Y467052D1*
X473896Y472440D1*
X478000Y477245D1*
X482805Y481349D1*
X488193Y484651D1*
X494032Y487070D1*
X500177Y488545D1*
X506476Y489041D1*
X512776Y488545D1*
X518921Y487070D1*
X524759Y484651D1*
X530147Y481349D1*
X534953Y477245D1*
X539057Y472440D1*
X539928Y471136D1*
X542783Y474923D1*
X547251Y479392D1*
X552364Y483106D1*
X557994Y485975D1*
X564004Y487928D1*
X570246Y488917D1*
X576565D1*
X582807Y487928D1*
X588817Y485975D1*
X594447Y483106D1*
X599560Y479392D1*
X604028Y474923D1*
X607743Y469811D1*
X610612Y464180D1*
X612564Y458170D1*
X613553Y451929D1*
Y445609D1*
X612564Y439368D1*
X610612Y433358D1*
X609614Y431193D1*
X767100Y431200D1*
X767054Y468863D1*
X1107221Y639364D2*
X1107654Y645608D1*
X1109289Y652764D1*
X1112087Y659551D1*
X1115968Y665782D1*
X1120827Y671284D1*
X1126530Y675906D1*
X1132918Y679521D1*
X1139817Y682029D1*
X1147036Y683361D1*
X1154376Y683480D1*
X1161634Y682383D1*
X1168610Y680100D1*
X1175113Y676694D1*
X1180963Y672259D1*
X1185997Y666917D1*
X1190079Y660816D1*
X1193095Y654123D1*
X1194961Y647024D1*
X1195628Y639714D1*
X1195476Y588456D1*
X1194262Y581217D1*
X1191866Y574278D1*
X1188355Y567831D1*
X1183826Y562055D1*
X1178403Y557107D1*
X1172236Y553125D1*
X1165496Y550218D1*
X1158367Y548467D1*
X1151047Y547919D1*
X1143737Y548590D1*
X1136639Y550462D1*
X1129948Y553482D1*
X1123850Y557568D1*
X1118512Y562606D1*
X1117505Y563776D1*
X1112957Y561058D1*
X1107262Y558699D1*
X1101267Y557260D1*
X1095121Y556776D1*
X1088975Y557260D1*
X1082981Y558699D1*
X1077285Y561058D1*
X1072029Y564279D1*
X1067341Y568283D1*
X1063337Y572971D1*
X1060116Y578227D1*
X1057757Y583923D1*
X1056317Y589917D1*
X1055834Y596063D1*
X1056317Y602209D1*
X1057757Y608204D1*
X1060116Y613899D1*
X1063337Y619156D1*
X1067341Y623844D1*
X1072029Y627847D1*
X1077285Y631069D1*
X1082981Y633428D1*
X1088975Y634867D1*
X1095121Y635351D1*
X1101267Y634867D1*
X1107204Y633444D1*
X1107212Y639293D1*
X560024Y1305356D2*
Y1373969D1*
X536621Y1373970D1*
X538132Y1370971D1*
X542005Y1365640D1*
X544996Y1359769D1*
X547033Y1353502D1*
X548063Y1346994D1*
Y1340405D1*
X547033Y1333897D1*
X544996Y1327630D1*
X542005Y1321759D1*
X538132Y1316428D1*
X533472Y1311768D1*
X528142Y1307895D1*
X526872Y1307184D1*
X528839Y1305386D1*
X560056Y1305379D1*
X624984Y1167881D2*
Y1215463D1*
X565125Y1215459D1*
X539565Y1189889D1*
X539083Y1184396D1*
X537544Y1177988D1*
X535023Y1171901D1*
X532646Y1167878D1*
X625012Y1167879D1*
X802019Y1697623D2*
X900410D1*
Y1607237D1*
X800181D1*
Y1697623D1*
X802019D1*
X1101751Y859513D2*
X1100706Y850388D1*
X1098972Y841369D1*
X1096558Y832508D1*
X1093479Y823856D1*
X1089752Y815462D1*
X1085398Y807375D1*
X1080443Y799642D1*
X1074915Y792308D1*
X1068846Y785415D1*
X1062272Y779002D1*
X1055230Y773106D1*
X1047760Y767763D1*
X1039907Y763001D1*
X1031714Y758850D1*
X1023231Y755332D1*
X1014504Y752469D1*
X1005586Y750276D1*
X996526Y748767D1*
X987379Y747949D1*
X978195Y747829D1*
X969029Y748406D1*
X959934Y749677D1*
X950961Y751634D1*
X942162Y754268D1*
X933589Y757561D1*
X925290Y761496D1*
X917314Y766050D1*
X909707Y771196D1*
X902513Y776904D1*
X895772Y783142D1*
X889525Y789874D1*
X883806Y797060D1*
X878650Y804660D1*
X874085Y812630D1*
X870139Y820923D1*
X866833Y829492D1*
X864187Y838286D1*
X862217Y847257D1*
X860933Y856351D1*
X860344Y865516D1*
X860451Y874699D1*
X861256Y883848D1*
X862753Y892910D1*
X864933Y901831D1*
X867784Y910561D1*
X871290Y919050D1*
X875430Y927248D1*
X880180Y935108D1*
X885513Y942585D1*
X891399Y949636D1*
X897803Y956219D1*
X904688Y962297D1*
X912014Y967836D1*
X919740Y972801D1*
X927821Y977167D1*
X936209Y980906D1*
X944857Y983997D1*
X953715Y986423D1*
X962732Y988170D1*
X971855Y989227D1*
X981032Y989589D1*
X990210Y989253D1*
X999336Y988221D1*
X1008357Y986500D1*
X1017222Y984098D1*
X1025878Y981031D1*
X1034277Y977315D1*
X1042370Y972973D1*
X1050110Y968029D1*
X1057452Y962511D1*
X1064354Y956452D1*
X1070776Y949887D1*
X1076681Y942853D1*
X1082035Y935391D1*
X1086808Y927544D1*
X1090971Y919357D1*
X1094500Y910879D1*
X1097376Y902156D1*
X1099581Y893241D1*
X1101103Y884184D1*
X1101933Y875037D1*
X1102100Y868690D1*
X1101751Y859513D1*
X466884Y1358355D2*
X468786Y1362764D1*
X472228Y1368382D1*
X475765Y1372588D1*
X475865Y1389838D1*
X476612Y1394554D1*
X478088Y1399095D1*
X480261Y1403357D1*
X473714Y1403872D1*
X469071Y1404987D1*
X464659Y1406814D1*
X460588Y1409309D1*
X455359Y1414008D1*
X455379Y1385142D1*
X458922Y1380882D1*
X462365Y1375264D1*
X464887Y1369176D1*
X466425Y1362768D1*
X466857Y1358374D1*
X811263Y513071D2*
D17*
Y451181D1*
X767090D2*
X855436D1*
X1151420Y513071D2*
Y451181D1*
X1107247D2*
X1195593D1*
X811263Y683543D2*
Y547954D1*
X767090Y615748D2*
X811263D1*
X1151420Y683543D2*
Y547954D1*
Y615748D2*
X1195593D1*
X560060Y1361092D2*
X606201D1*
X625020Y1199675D2*
X675098D1*
Y1697587D2*
Y1652430D1*
X725177D1*
X850295Y1244831D2*
Y1154517D1*
Y1697587D2*
Y1607273D1*
X800217Y1652430D2*
X900374D1*
D26*
X811263Y451181D3*
X1151420D3*
D27*
X811263Y615748D3*
X1151420D3*
D28*
X606201Y1274478D3*
Y1317785D3*
Y1361092D3*
Y1404399D3*
Y1433927D3*
Y1461486D3*
Y1491013D3*
Y1534320D3*
Y1577627D3*
D29*
X675098Y1199675D3*
Y1652430D3*
X850295Y1199675D3*
Y1652430D3*
D30*
X1146525Y2608683D3*
X1037470D3*
X928415D3*
X819360D3*
D49*
X980360Y2174521D3*
D50*
X903530Y2174692D3*
X1056386Y2174344D3*
X969538Y2098455D2*
D19*
G02X1028894Y2115308I10250J76851D01*
G01*
M02*
