M48
INCH
T01C0.0157
T02C0.0197
T03C0.0256
T04C0.0276
T05C0.1378
%
T01
X+009437Y+024625
X+009062Y+024750
X+009062Y+024250
X+008437Y+024062
X+008187Y+024375
X+008250Y+023687
X+008181Y+022104
X+007312Y+020125
X+007750Y+019937
X+006312Y+019062
X+006312Y+018500
X+004875Y+016000
X+005062Y+015625
X+006642Y+015500
X+006642Y+015000
X+006642Y+014437
X+006642Y+014000
X+005062Y+013437
X+005000Y+012750
X+004559Y+012322
X+004976Y+011910
X+004875Y+011187
X+005937Y+009875
X+006312Y+009000
X+007937Y+010000
X+008375Y+010000
X+009250Y+011437
X+009312Y+012000
X+008000Y+012500
X+007562Y+012500
X+006562Y+011375
X+004250Y+013562
X+009707Y+013428
X+010205Y+013426
X+009312Y+016500
X+012212Y+017000
X+012212Y+018312
X+011714Y+018310
X+012718Y+018312
X+010160Y+019472
X+009646Y+019472
X+011177Y+023628
X+010062Y+024625
X+012715Y+010241
X+013437Y+007437
X+013437Y+005875
X+009909Y+005826
X+009509Y+005826
X+004606Y+005660
T02
X+008113Y+004354G85X+008113Y+004669
X+008113Y+005941G85X+008113Y+006374
X+011514Y+005941G85X+011514Y+006374
X+011514Y+004354G85X+011514Y+004669
T03
X+008676Y+005961
X+010951Y+005961
T04
X+005734Y+004488
X+005065Y+004488
X+013890Y+004488
X+014559Y+004488
T05
X+009812Y+008687
T00
M30
