G04 DipTrace 3.3.1.3*
G04 TopPaste.gbr*
%MOIN*%
G04 #@! TF.FileFunction,Paste,Top*
G04 #@! TF.Part,Single*
%ADD63R,0.019685X0.003937*%
%ADD65R,0.007874X0.090551*%
%ADD67R,0.149606X0.149606*%
%ADD69R,0.051181X0.027559*%
%ADD71R,0.027559X0.051181*%
%ADD73R,0.031496X0.035433*%
%ADD75R,0.015748X0.035433*%
%ADD77R,0.070866X0.188976*%
%ADD87R,0.015748X0.037008*%
%ADD89R,0.003937X0.037008*%
%ADD91R,0.015748X0.023622*%
%ADD93R,0.027559X0.019685*%
%ADD95R,0.019685X0.027559*%
%FSLAX26Y26*%
G04*
G70*
G90*
G75*
G01*
G04 TopPaste*
%LPD*%
D95*
X1193701Y2374950D3*
Y2323769D3*
X1224951Y2049950D3*
Y2101131D3*
D93*
X1218702Y1931201D3*
X1269883D3*
X1219293Y1981790D3*
X1270474D3*
X1118701Y2399950D3*
X1067520D3*
D95*
X724951Y831201D3*
Y882382D3*
X537451Y937450D3*
Y886269D3*
D91*
X837451Y943699D3*
Y900392D3*
X787451Y943699D3*
Y900392D3*
X812450Y724950D3*
Y768257D3*
D95*
X1424950Y643109D3*
Y694290D3*
X543701Y643110D3*
Y694291D3*
D89*
X912444Y638189D3*
X932129D3*
X951814D3*
X971499D3*
X991184D3*
X1010869D3*
X1030554D3*
X1050239D3*
D87*
X1075830D3*
X1107326D3*
X855357D3*
X886853D3*
D77*
X1199311Y2608688D3*
X1090256D3*
X981201D3*
X872146D3*
X763091D3*
D95*
X724941Y587450D3*
Y536269D3*
X1237451Y593699D3*
Y542518D3*
X618701Y694290D3*
Y643109D3*
X1343701D3*
Y694290D3*
X474950Y643110D3*
Y694291D3*
X1499951Y694290D3*
Y643109D3*
D93*
X731201Y1956199D3*
X680020D3*
X731201Y1906201D3*
X680020D3*
X731201Y1856199D3*
X680020D3*
D75*
X618681Y499950D3*
X461201D3*
D73*
X638366Y431052D3*
X441516D3*
D71*
X1271574Y1770538D3*
X1221574D3*
X1171574D3*
X1121574D3*
X1071574D3*
X1021574D3*
X971574D3*
X921574D3*
X871574D3*
X821574D3*
X771574D3*
X721574D3*
X671574D3*
X621574D3*
D69*
X573821Y1700723D3*
Y1650723D3*
Y1600723D3*
Y1550723D3*
Y1500723D3*
Y1450723D3*
Y1400723D3*
Y1350723D3*
Y1300723D3*
Y1250723D3*
D71*
X621614Y1081562D3*
X671614D3*
X721614D3*
X771614D3*
X821614D3*
X871614D3*
X921614D3*
X971614D3*
X1021614D3*
X1071614D3*
X1121614D3*
X1171614D3*
X1221614D3*
X1271614D3*
D67*
X959094Y1488570D3*
D69*
X573821Y1200723D3*
Y1150723D3*
D65*
X1143701Y2287450D3*
X1118110Y2287430D3*
X1092520Y2287434D3*
X1066929D3*
X1041339D3*
X1015748D3*
X990157D3*
X964567D3*
X938976D3*
X913386D3*
X887795D3*
X862205D3*
X836614D3*
X811024D3*
Y2028962D3*
X836614Y2028970D3*
X862205D3*
X887795D3*
X913386D3*
X938976D3*
X964567D3*
X990157D3*
X1015748D3*
X1041339D3*
X1066929D3*
X1092520D3*
X1118110Y2028966D3*
X1143701D3*
D75*
X593701Y831201D3*
X631102D3*
X668504D3*
Y937500D3*
X593701D3*
X1501201Y499950D3*
X1343720D3*
D73*
X1520886Y431052D3*
X1324035D3*
D63*
X431201Y1524950D3*
Y1505265D3*
Y1485580D3*
Y1465895D3*
Y1446210D3*
Y1426525D3*
Y1406840D3*
Y1387155D3*
X494193D3*
Y1406840D3*
Y1426525D3*
Y1446210D3*
Y1465895D3*
Y1485580D3*
Y1505265D3*
Y1524950D3*
D95*
X1149951Y1874950D3*
Y1926131D3*
D93*
X1218701Y1881201D3*
X1269882D3*
M02*
