G04 DipTrace 3.3.1.3*
G04 TopSilk.gbr*
%MOIN*%
G04 #@! TF.FileFunction,Legend,Top*
G04 #@! TF.Part,Single*
%ADD10C,0.009843*%
%ADD12C,0.003*%
%ADD13C,0.007874*%
%ADD22C,0.003937*%
%ADD43C,0.015401*%
%ADD49O,0.032613X0.032485*%
%ADD50C,0.032568*%
%ADD96C,0.004632*%
%ADD97C,0.00772*%
%ADD99C,0.006176*%
%FSLAX26Y26*%
G04*
G70*
G90*
G75*
G01*
G04 TopSilk*
%LPD*%
X857136Y945669D2*
D22*
Y898428D1*
X817766Y945669D2*
Y898428D1*
D13*
X837451Y969290D3*
X807136Y945669D2*
D22*
Y898428D1*
X767766Y945669D2*
Y898428D1*
D13*
X787451Y969290D3*
X792765Y722981D2*
D22*
Y770222D1*
X832135Y722981D2*
Y770222D1*
D13*
X812450Y699360D3*
X1434789Y613618D2*
D10*
X1415112D1*
X553539Y613619D2*
X533862D1*
X646193Y461265D2*
Y511262D1*
X433689Y461265D2*
Y511262D1*
X596185Y517514D2*
X483697D1*
X1528713Y461265D2*
Y511262D1*
X1316209Y461265D2*
Y511262D1*
X1478705Y517514D2*
X1366217D1*
X1565315Y1780392D2*
X1327825D1*
Y1071707D1*
X1565315D1*
Y1780392D1*
X590341Y1782337D2*
X559098Y1782262D1*
Y1738577D1*
Y1063554D2*
X590341D1*
X559098D2*
Y1113522D1*
X789015Y2252645D2*
X772638Y2252717D1*
X789798Y2063588D2*
X772638Y2063695D1*
X771112Y2251931D2*
Y2064445D1*
X1183612Y2251931D2*
Y2189436D1*
Y2126940D2*
Y2064445D1*
Y2251931D2*
X1164843D1*
X1170247Y2221201D2*
X784477D1*
X1170247Y2095211D2*
X784477D1*
Y2221201D2*
Y2095211D1*
X1170247Y2221201D2*
Y2177872D1*
Y2138504D2*
Y2095211D1*
Y2177872D2*
G03X1170247Y2138504I49J-19684D01*
G01*
X1183612Y2064445D2*
X1164843D1*
D43*
X566787Y814575D3*
X572050Y868641D2*
D10*
X690157D1*
X572050Y900132D2*
X690157D1*
Y868641D2*
Y900132D1*
X572050Y868641D2*
Y900132D1*
X1343977Y932046D2*
D22*
X1365266Y931907D1*
X1267564Y964281D2*
X1353852D1*
X1280971Y972153D2*
Y884829D1*
X1312316Y994243D2*
Y953915D1*
X1344204Y972000D2*
Y855657D1*
X1306427Y869266D2*
X1386827D1*
X1312452Y916621D2*
X1312316Y861311D1*
X1377043Y886478D2*
Y855657D1*
X1367576Y900351D2*
X1272274D1*
X1246003Y932073D2*
X1280745Y932198D1*
D49*
X1280292Y932060D3*
D50*
X1344091Y931949D3*
X1312248Y964406D3*
X1344000Y899658D3*
X1298274Y932247D2*
D22*
X1298308Y933231D1*
X1298409Y934211D1*
X1298577Y935181D1*
X1298811Y936137D1*
X1299110Y937074D1*
X1299472Y937988D1*
X1299896Y938873D1*
X1300380Y939727D1*
X1300921Y940543D1*
X1301517Y941320D1*
X1302164Y942052D1*
X1302860Y942736D1*
X1303601Y943370D1*
X1304384Y943949D1*
X1305204Y944471D1*
X1306058Y944933D1*
X1306942Y945334D1*
X1307851Y945671D1*
X1308781Y945942D1*
X1309728Y946147D1*
X1310686Y946284D1*
X1311651Y946353D1*
X1312618D1*
X1313583Y946284D1*
X1314541Y946147D1*
X1315488Y945942D1*
X1316418Y945671D1*
X1317327Y945334D1*
X1318211Y944933D1*
X1319065Y944471D1*
X1319885Y943949D1*
X1320668Y943370D1*
X1321409Y942736D1*
X1322105Y942052D1*
X1322752Y941320D1*
X1323348Y940543D1*
X1323889Y939727D1*
X1324373Y938873D1*
X1324797Y937988D1*
X1325159Y937074D1*
X1325458Y936137D1*
X1325692Y935181D1*
X1325860Y934211D1*
X1325961Y933231D1*
X1325995Y932247D1*
X1325961Y931262D1*
X1325860Y930282D1*
X1325692Y929312D1*
X1325458Y928356D1*
X1325159Y927419D1*
X1324797Y926506D1*
X1324373Y925620D1*
X1323889Y924767D1*
X1323348Y923950D1*
X1322752Y923174D1*
X1322105Y922442D1*
X1321409Y921757D1*
X1320668Y921124D1*
X1319885Y920545D1*
X1319065Y920023D1*
X1318211Y919560D1*
X1317327Y919159D1*
X1316418Y918823D1*
X1315488Y918551D1*
X1314541Y918346D1*
X1313583Y918209D1*
X1312618Y918140D1*
X1311651D1*
X1310686Y918209D1*
X1309728Y918346D1*
X1308781Y918551D1*
X1307851Y918823D1*
X1306942Y919159D1*
X1306058Y919560D1*
X1305204Y920023D1*
X1304384Y920545D1*
X1303601Y921124D1*
X1302860Y921757D1*
X1302164Y922442D1*
X1301517Y923174D1*
X1300921Y923950D1*
X1300380Y924767D1*
X1299896Y925620D1*
X1299472Y926506D1*
X1299110Y927419D1*
X1298811Y928356D1*
X1298577Y929312D1*
X1298409Y930282D1*
X1298308Y931262D1*
X1298274Y932247D1*
X1250804Y938421D2*
Y921472D1*
X1380738Y955213D2*
D12*
X1382238D1*
X1425738D2*
X1434738D1*
X1449738D2*
X1482738D1*
X1488738D2*
X1529238D1*
X1380738Y953713D2*
X1383738D1*
X1425738D2*
X1434738D1*
X1449738D2*
X1482738D1*
X1488738D2*
X1529238D1*
X1380738Y952213D2*
X1385238D1*
X1425738D2*
X1434738D1*
X1449738D2*
X1482738D1*
X1488738D2*
X1529238D1*
X1380738Y950713D2*
X1386738D1*
X1425738D2*
X1434738D1*
X1449738D2*
X1482738D1*
X1488738D2*
X1529238D1*
X1380738Y949213D2*
X1388238D1*
X1425738D2*
X1434738D1*
X1449738D2*
X1482738D1*
X1488738D2*
X1529238D1*
X1380738Y947713D2*
X1389738D1*
X1425738D2*
X1434738D1*
X1449738D2*
X1482738D1*
X1488738D2*
X1529238D1*
X1380738Y946213D2*
X1391238D1*
X1425738D2*
X1434738D1*
X1449738D2*
X1458738D1*
X1503738D2*
X1512738D1*
X1380738Y944713D2*
X1392738D1*
X1425738D2*
X1434738D1*
X1449738D2*
X1458738D1*
X1503738D2*
X1512738D1*
X1380738Y943213D2*
X1394238D1*
X1425738D2*
X1434738D1*
X1449738D2*
X1458738D1*
X1503738D2*
X1512738D1*
X1380738Y941713D2*
X1395738D1*
X1425738D2*
X1434738D1*
X1449738D2*
X1458738D1*
X1503738D2*
X1512738D1*
X1380738Y940213D2*
X1397244D1*
X1425738D2*
X1434738D1*
X1449738D2*
X1458738D1*
X1503738D2*
X1512738D1*
X1380738Y938713D2*
X1398797D1*
X1425738D2*
X1434738D1*
X1449738D2*
X1458738D1*
X1503738D2*
X1512738D1*
X1380738Y937213D2*
X1400488D1*
X1425738D2*
X1434738D1*
X1449738D2*
X1458738D1*
X1503738D2*
X1512738D1*
X1380738Y935713D2*
X1388238D1*
X1391007D2*
X1402347D1*
X1425738D2*
X1434738D1*
X1449738D2*
X1458738D1*
X1503738D2*
X1512738D1*
X1380738Y934213D2*
X1388238D1*
X1392135D2*
X1404232D1*
X1425738D2*
X1434738D1*
X1449738D2*
X1458738D1*
X1503738D2*
X1512738D1*
X1380738Y932713D2*
X1388238D1*
X1393252D2*
X1405994D1*
X1425738D2*
X1434738D1*
X1449738D2*
X1458738D1*
X1503738D2*
X1512738D1*
X1380738Y931213D2*
X1388238D1*
X1394542D2*
X1407633D1*
X1425738D2*
X1434738D1*
X1449738D2*
X1482738D1*
X1503738D2*
X1512738D1*
X1380738Y929713D2*
X1388238D1*
X1396094D2*
X1409196D1*
X1425738D2*
X1434738D1*
X1449738D2*
X1482738D1*
X1503738D2*
X1512738D1*
X1380738Y928213D2*
X1388238D1*
X1397889D2*
X1410723D1*
X1425738D2*
X1434738D1*
X1449738D2*
X1482738D1*
X1503738D2*
X1512738D1*
X1380738Y926713D2*
X1388238D1*
X1399748D2*
X1412233D1*
X1425738D2*
X1434738D1*
X1449738D2*
X1482738D1*
X1503738D2*
X1512738D1*
X1380738Y925213D2*
X1388238D1*
X1401499D2*
X1413736D1*
X1425738D2*
X1434738D1*
X1449738D2*
X1482738D1*
X1503738D2*
X1512738D1*
X1380738Y923713D2*
X1388238D1*
X1403135D2*
X1415238D1*
X1425738D2*
X1434738D1*
X1449738D2*
X1482738D1*
X1503738D2*
X1512738D1*
X1380738Y922213D2*
X1388238D1*
X1404697D2*
X1416738D1*
X1425738D2*
X1434738D1*
X1449738D2*
X1458738D1*
X1503738D2*
X1512738D1*
X1380738Y920713D2*
X1388238D1*
X1406223D2*
X1418244D1*
X1425733D2*
X1434738D1*
X1449738D2*
X1458738D1*
X1503738D2*
X1512738D1*
X1380738Y919213D2*
X1388238D1*
X1407739D2*
X1419801D1*
X1425675D2*
X1434738D1*
X1449738D2*
X1458738D1*
X1503738D2*
X1512738D1*
X1380738Y917713D2*
X1388238D1*
X1409295D2*
X1421533D1*
X1425444D2*
X1434738D1*
X1449738D2*
X1458738D1*
X1503738D2*
X1512738D1*
X1380738Y916213D2*
X1388238D1*
X1410987D2*
X1423546D1*
X1424931D2*
X1434738D1*
X1449738D2*
X1458738D1*
X1503738D2*
X1512738D1*
X1380738Y914713D2*
X1388238D1*
X1412847D2*
X1434738D1*
X1449738D2*
X1458738D1*
X1503738D2*
X1512738D1*
X1380738Y913213D2*
X1388238D1*
X1414732D2*
X1434738D1*
X1449738D2*
X1458738D1*
X1503738D2*
X1512738D1*
X1380738Y911713D2*
X1388238D1*
X1416494D2*
X1434738D1*
X1449738D2*
X1458738D1*
X1503738D2*
X1512738D1*
X1380738Y910213D2*
X1388238D1*
X1418133D2*
X1434738D1*
X1449738D2*
X1458738D1*
X1503738D2*
X1512738D1*
X1380738Y908713D2*
X1388238D1*
X1419696D2*
X1434738D1*
X1449738D2*
X1458738D1*
X1503738D2*
X1512738D1*
X1380738Y907213D2*
X1388238D1*
X1421223D2*
X1434738D1*
X1449738D2*
X1458738D1*
X1503738D2*
X1512738D1*
X1380738Y905713D2*
X1388238D1*
X1422733D2*
X1434738D1*
X1449738D2*
X1458738D1*
X1503738D2*
X1512738D1*
X1380738Y904213D2*
X1388238D1*
X1424242D2*
X1434738D1*
X1449738D2*
X1458738D1*
X1503738D2*
X1512738D1*
X1380738Y902713D2*
X1388238D1*
X1425796D2*
X1434738D1*
X1449738D2*
X1482738D1*
X1503738D2*
X1512738D1*
X1380738Y901213D2*
X1388238D1*
X1427489D2*
X1434738D1*
X1449738D2*
X1482738D1*
X1503738D2*
X1512738D1*
X1380738Y899713D2*
X1388238D1*
X1429361D2*
X1434738D1*
X1449738D2*
X1482738D1*
X1503738D2*
X1512738D1*
X1380738Y898213D2*
X1388238D1*
X1431308D2*
X1434738D1*
X1449738D2*
X1482738D1*
X1503738D2*
X1512738D1*
X1380738Y896713D2*
X1388238D1*
X1433238D2*
X1434738D1*
X1449738D2*
X1482738D1*
X1503738D2*
X1512738D1*
X1380738Y895213D2*
X1388238D1*
X1449738D2*
X1482738D1*
X1503738D2*
X1512738D1*
X1087222Y952552D2*
X1120222D1*
X1132222D2*
X1139722D1*
X1172722D2*
X1180222D1*
X1205722D2*
X1214722D1*
X1228222D2*
X1237222D1*
X1087222Y951052D2*
X1120222D1*
X1132222D2*
X1139722D1*
X1172722D2*
X1180222D1*
X1205722D2*
X1214722D1*
X1228222D2*
X1237222D1*
X1087222Y949552D2*
X1120222D1*
X1132222D2*
X1139722D1*
X1172722D2*
X1180222D1*
X1205722D2*
X1214722D1*
X1228222D2*
X1237222D1*
X1087222Y948052D2*
X1120222D1*
X1132222D2*
X1139722D1*
X1172722D2*
X1180222D1*
X1205722D2*
X1214722D1*
X1228222D2*
X1237222D1*
X1087222Y946552D2*
X1120222D1*
X1132222D2*
X1139722D1*
X1172722D2*
X1180222D1*
X1205722D2*
X1214722D1*
X1228222D2*
X1237222D1*
X1087222Y945052D2*
X1120222D1*
X1132222D2*
X1139722D1*
X1172722D2*
X1180222D1*
X1205722D2*
X1214722D1*
X1228222D2*
X1237222D1*
X1087222Y943552D2*
X1096222D1*
X1132222D2*
X1139722D1*
X1172722D2*
X1180222D1*
X1205722D2*
X1214722D1*
X1228222D2*
X1237222D1*
X1087222Y942052D2*
X1096222D1*
X1132222D2*
X1139722D1*
X1172722D2*
X1180222D1*
X1205722D2*
X1214722D1*
X1228222D2*
X1237222D1*
X1087222Y940552D2*
X1096222D1*
X1132222D2*
X1139722D1*
X1172722D2*
X1180222D1*
X1205722D2*
X1214722D1*
X1228222D2*
X1237222D1*
X1087222Y939052D2*
X1096222D1*
X1132222D2*
X1139722D1*
X1172722D2*
X1180222D1*
X1205722D2*
X1214722D1*
X1228222D2*
X1237222D1*
X1087222Y937552D2*
X1096222D1*
X1132222D2*
X1139722D1*
X1172722D2*
X1180222D1*
X1205722D2*
X1214722D1*
X1228222D2*
X1237222D1*
X1087222Y936052D2*
X1096222D1*
X1132222D2*
X1139722D1*
X1172722D2*
X1180222D1*
X1205722D2*
X1214722D1*
X1228222D2*
X1237222D1*
X1087222Y934552D2*
X1096222D1*
X1132222D2*
X1139722D1*
X1172722D2*
X1180222D1*
X1205722D2*
X1214722D1*
X1228222D2*
X1237222D1*
X1087222Y933052D2*
X1096222D1*
X1132222D2*
X1139722D1*
X1172722D2*
X1180222D1*
X1205722D2*
X1214722D1*
X1228222D2*
X1237222D1*
X1087222Y931552D2*
X1096222D1*
X1132222D2*
X1139722D1*
X1172722D2*
X1180222D1*
X1205722D2*
X1214722D1*
X1228222D2*
X1237222D1*
X1087222Y930052D2*
X1096222D1*
X1132222D2*
X1139722D1*
X1172722D2*
X1180222D1*
X1205722D2*
X1214722D1*
X1228222D2*
X1237222D1*
X1087222Y928552D2*
X1120222D1*
X1132222D2*
X1139722D1*
X1172722D2*
X1180222D1*
X1205722D2*
X1214722D1*
X1228222D2*
X1237222D1*
X1087222Y927052D2*
X1120222D1*
X1132222D2*
X1139722D1*
X1172722D2*
X1180222D1*
X1205722D2*
X1214722D1*
X1228222D2*
X1237222D1*
X1087222Y925552D2*
X1120222D1*
X1132222D2*
X1139722D1*
X1172722D2*
X1180222D1*
X1205722D2*
X1214722D1*
X1228222D2*
X1237222D1*
X1087222Y924052D2*
X1120222D1*
X1132222D2*
X1139722D1*
X1172722D2*
X1180222D1*
X1205722D2*
X1214722D1*
X1228222D2*
X1237222D1*
X1087222Y922552D2*
X1120222D1*
X1132222D2*
X1139722D1*
X1172722D2*
X1180222D1*
X1205722D2*
X1214722D1*
X1228222D2*
X1237222D1*
X1087222Y921052D2*
X1120222D1*
X1132222D2*
X1139728D1*
X1172722D2*
X1180222D1*
X1205722D2*
X1214722D1*
X1228222D2*
X1237222D1*
X1087222Y919552D2*
X1096222D1*
X1132222D2*
X1139781D1*
X1172717D2*
X1180222D1*
X1205722D2*
X1214722D1*
X1228222D2*
X1237222D1*
X1087222Y918052D2*
X1096222D1*
X1132222D2*
X1139972D1*
X1172664D2*
X1180222D1*
X1205722D2*
X1214722D1*
X1228222D2*
X1237222D1*
X1087222Y916552D2*
X1096222D1*
X1132222D2*
X1140331D1*
X1172473D2*
X1180222D1*
X1205722D2*
X1214722D1*
X1228222D2*
X1237222D1*
X1087222Y915052D2*
X1096222D1*
X1132222D2*
X1140716D1*
X1172113D2*
X1180222D1*
X1205722D2*
X1214722D1*
X1228222D2*
X1237222D1*
X1087222Y913552D2*
X1096222D1*
X1132222D2*
X1140984D1*
X1171723D2*
X1180222D1*
X1205722D2*
X1214722D1*
X1228222D2*
X1237222D1*
X1087222Y912052D2*
X1096222D1*
X1132228D2*
X1141175D1*
X1171409D2*
X1180217D1*
X1205722D2*
X1214722D1*
X1228222D2*
X1237222D1*
X1087222Y910552D2*
X1096222D1*
X1132281D2*
X1141436D1*
X1171073D2*
X1180164D1*
X1205722D2*
X1214722D1*
X1228222D2*
X1237222D1*
X1087222Y909052D2*
X1096222D1*
X1132472D2*
X1141886D1*
X1170585D2*
X1179973D1*
X1205717D2*
X1214722D1*
X1228222D2*
X1237222D1*
X1087222Y907552D2*
X1096222D1*
X1132837D2*
X1142589D1*
X1169866D2*
X1179608D1*
X1205658D2*
X1214722D1*
X1228222D2*
X1237222D1*
X1087222Y906052D2*
X1096222D1*
X1133280D2*
X1143510D1*
X1168937D2*
X1179164D1*
X1205391D2*
X1214717D1*
X1228222D2*
X1237222D1*
X1087222Y904552D2*
X1096222D1*
X1133786D2*
X1145836D1*
X1166610D2*
X1178659D1*
X1204870D2*
X1214664D1*
X1228222D2*
X1237222D1*
X1087222Y903052D2*
X1096222D1*
X1134481D2*
X1149815D1*
X1162630D2*
X1177964D1*
X1193722D2*
X1195222D1*
X1202988D2*
X1214467D1*
X1228222D2*
X1237222D1*
X1087222Y901552D2*
X1096222D1*
X1135353D2*
X1156078D1*
X1156367D2*
X1177092D1*
X1192291D2*
X1198832D1*
X1200157D2*
X1214055D1*
X1228222D2*
X1237222D1*
X1087222Y900052D2*
X1096222D1*
X1136334D2*
X1176111D1*
X1191101D2*
X1213473D1*
X1228222D2*
X1237222D1*
X1087222Y898552D2*
X1096222D1*
X1137610D2*
X1174835D1*
X1190210D2*
X1212788D1*
X1228222D2*
X1237222D1*
X1087222Y897052D2*
X1096222D1*
X1139476D2*
X1172969D1*
X1190366D2*
X1211958D1*
X1228222D2*
X1237222D1*
X1087222Y895552D2*
X1096222D1*
X1142046D2*
X1170399D1*
X1191818D2*
X1210796D1*
X1228222D2*
X1237222D1*
X1087222Y894052D2*
X1096222D1*
X1145231D2*
X1167214D1*
X1194038D2*
X1209150D1*
X1228222D2*
X1237222D1*
X1087222Y892552D2*
X1096222D1*
X1148722D2*
X1163722D1*
X1196722D2*
X1207222D1*
X1228222D2*
X1237222D1*
X1380738Y955213D2*
Y953713D1*
Y952213D1*
Y950713D1*
Y949213D1*
Y947713D1*
Y946213D1*
Y944713D1*
Y943213D1*
Y941713D1*
Y940213D1*
Y938713D1*
Y937213D1*
Y935713D1*
Y934213D1*
Y932713D1*
Y931213D1*
Y929713D1*
Y928213D1*
Y926713D1*
Y925213D1*
Y923713D1*
Y922213D1*
Y920713D1*
Y919213D1*
Y917713D1*
Y916213D1*
Y914713D1*
Y913213D1*
Y911713D1*
Y910213D1*
Y908713D1*
Y907213D1*
Y905713D1*
Y904213D1*
Y902713D1*
Y901213D1*
Y899713D1*
Y898213D1*
Y896713D1*
Y895213D1*
X1382238Y955213D2*
X1383738Y953713D1*
X1385238Y952213D1*
X1386738Y950713D1*
X1388238Y949213D1*
X1389738Y947713D1*
X1391238Y946213D1*
X1392738Y944713D1*
X1394238Y943213D1*
X1395738Y941713D1*
X1397244Y940213D1*
X1398797Y938713D1*
X1400488Y937213D1*
X1402347Y935713D1*
X1404232Y934213D1*
X1405994Y932713D1*
X1407633Y931213D1*
X1409196Y929713D1*
X1410723Y928213D1*
X1412233Y926713D1*
X1413736Y925213D1*
X1415238Y923713D1*
X1416738Y922213D1*
X1418244Y920713D1*
X1419801Y919213D1*
X1421533Y917713D1*
X1423546Y916213D1*
X1425738Y914713D1*
Y955213D2*
Y953713D1*
Y952213D1*
Y950713D1*
Y949213D1*
Y947713D1*
Y946213D1*
Y944713D1*
Y943213D1*
Y941713D1*
Y940213D1*
Y938713D1*
Y937213D1*
Y935713D1*
Y934213D1*
Y932713D1*
Y931213D1*
Y929713D1*
Y928213D1*
Y926713D1*
Y925213D1*
Y923713D1*
Y922213D1*
X1425733Y920713D1*
X1425675Y919213D1*
X1425444Y917713D1*
X1424931Y916213D1*
X1424238Y914713D1*
X1434738Y955213D2*
Y953713D1*
Y952213D1*
Y950713D1*
Y949213D1*
Y947713D1*
Y946213D1*
Y944713D1*
Y943213D1*
Y941713D1*
Y940213D1*
Y938713D1*
Y937213D1*
Y935713D1*
Y934213D1*
Y932713D1*
Y931213D1*
Y929713D1*
Y928213D1*
Y926713D1*
Y925213D1*
Y923713D1*
Y922213D1*
Y920713D1*
Y919213D1*
Y917713D1*
Y916213D1*
Y914713D1*
Y913213D1*
Y911713D1*
Y910213D1*
Y908713D1*
Y907213D1*
Y905713D1*
Y904213D1*
Y902713D1*
Y901213D1*
Y899713D1*
Y898213D1*
Y896713D1*
X1449738Y955213D2*
Y953713D1*
Y952213D1*
Y950713D1*
Y949213D1*
Y947713D1*
Y946213D1*
Y944713D1*
Y943213D1*
Y941713D1*
Y940213D1*
Y938713D1*
Y937213D1*
Y935713D1*
Y934213D1*
Y932713D1*
Y931213D1*
Y929713D1*
Y928213D1*
Y926713D1*
Y925213D1*
Y923713D1*
Y922213D1*
Y920713D1*
Y919213D1*
Y917713D1*
Y916213D1*
Y914713D1*
Y913213D1*
Y911713D1*
Y910213D1*
Y908713D1*
Y907213D1*
Y905713D1*
Y904213D1*
Y902713D1*
Y901213D1*
Y899713D1*
Y898213D1*
Y896713D1*
Y895213D1*
X1482738Y955213D2*
Y953713D1*
Y952213D1*
Y950713D1*
Y949213D1*
Y947713D1*
X1488738Y955213D2*
Y953713D1*
Y952213D1*
Y950713D1*
Y949213D1*
Y947713D1*
Y946213D1*
X1503738D1*
Y944713D1*
Y943213D1*
Y941713D1*
Y940213D1*
Y938713D1*
Y937213D1*
Y935713D1*
Y934213D1*
Y932713D1*
Y931213D1*
Y929713D1*
Y928213D1*
Y926713D1*
Y925213D1*
Y923713D1*
Y922213D1*
Y920713D1*
Y919213D1*
Y917713D1*
Y916213D1*
Y914713D1*
Y913213D1*
Y911713D1*
Y910213D1*
Y908713D1*
Y907213D1*
Y905713D1*
Y904213D1*
Y902713D1*
Y901213D1*
Y899713D1*
Y898213D1*
Y896713D1*
Y895213D1*
X1529238Y955213D2*
Y953713D1*
Y952213D1*
Y950713D1*
Y949213D1*
Y947713D1*
Y946213D1*
X1512738D1*
Y944713D1*
Y943213D1*
Y941713D1*
Y940213D1*
Y938713D1*
Y937213D1*
Y935713D1*
Y934213D1*
Y932713D1*
Y931213D1*
Y929713D1*
Y928213D1*
Y926713D1*
Y925213D1*
Y923713D1*
Y922213D1*
Y920713D1*
Y919213D1*
Y917713D1*
Y916213D1*
Y914713D1*
Y913213D1*
Y911713D1*
Y910213D1*
Y908713D1*
Y907213D1*
Y905713D1*
Y904213D1*
Y902713D1*
Y901213D1*
Y899713D1*
Y898213D1*
Y896713D1*
Y895213D1*
X1458738Y947713D2*
Y946213D1*
Y944713D1*
Y943213D1*
Y941713D1*
Y940213D1*
Y938713D1*
Y937213D1*
Y935713D1*
Y934213D1*
Y932713D1*
Y931213D1*
X1388238Y937213D2*
Y935713D1*
Y934213D1*
Y932713D1*
Y931213D1*
Y929713D1*
Y928213D1*
Y926713D1*
Y925213D1*
Y923713D1*
Y922213D1*
Y920713D1*
Y919213D1*
Y917713D1*
Y916213D1*
Y914713D1*
Y913213D1*
Y911713D1*
Y910213D1*
Y908713D1*
Y907213D1*
Y905713D1*
Y904213D1*
Y902713D1*
Y901213D1*
Y899713D1*
Y898213D1*
Y896713D1*
Y895213D1*
X1389738Y937213D2*
X1391007Y935713D1*
X1392135Y934213D1*
X1393252Y932713D1*
X1394542Y931213D1*
X1396094Y929713D1*
X1397889Y928213D1*
X1399748Y926713D1*
X1401499Y925213D1*
X1403135Y923713D1*
X1404697Y922213D1*
X1406223Y920713D1*
X1407739Y919213D1*
X1409295Y917713D1*
X1410987Y916213D1*
X1412847Y914713D1*
X1414732Y913213D1*
X1416494Y911713D1*
X1418133Y910213D1*
X1419696Y908713D1*
X1421223Y907213D1*
X1422733Y905713D1*
X1424242Y904213D1*
X1425796Y902713D1*
X1427489Y901213D1*
X1429361Y899713D1*
X1431308Y898213D1*
X1433238Y896713D1*
X1482738Y931213D2*
Y929713D1*
Y928213D1*
Y926713D1*
Y925213D1*
Y923713D1*
X1458738D2*
Y922213D1*
Y920713D1*
Y919213D1*
Y917713D1*
Y916213D1*
Y914713D1*
Y913213D1*
Y911713D1*
Y910213D1*
Y908713D1*
Y907213D1*
Y905713D1*
Y904213D1*
Y902713D1*
X1482738D2*
Y901213D1*
Y899713D1*
Y898213D1*
Y896713D1*
Y895213D1*
X1087222Y952552D2*
Y951052D1*
Y949552D1*
Y948052D1*
Y946552D1*
Y945052D1*
Y943552D1*
Y942052D1*
Y940552D1*
Y939052D1*
Y937552D1*
Y936052D1*
Y934552D1*
Y933052D1*
Y931552D1*
Y930052D1*
Y928552D1*
Y927052D1*
Y925552D1*
Y924052D1*
Y922552D1*
Y921052D1*
Y919552D1*
Y918052D1*
Y916552D1*
Y915052D1*
Y913552D1*
Y912052D1*
Y910552D1*
Y909052D1*
Y907552D1*
Y906052D1*
Y904552D1*
Y903052D1*
Y901552D1*
Y900052D1*
Y898552D1*
Y897052D1*
Y895552D1*
Y894052D1*
Y892552D1*
X1120222Y952552D2*
Y951052D1*
Y949552D1*
Y948052D1*
Y946552D1*
Y945052D1*
X1132222Y952552D2*
Y951052D1*
Y949552D1*
Y948052D1*
Y946552D1*
Y945052D1*
Y943552D1*
Y942052D1*
Y940552D1*
Y939052D1*
Y937552D1*
Y936052D1*
Y934552D1*
Y933052D1*
Y931552D1*
Y930052D1*
Y928552D1*
Y927052D1*
Y925552D1*
Y924052D1*
Y922552D1*
Y921052D1*
Y919552D1*
Y918052D1*
Y916552D1*
Y915052D1*
Y913552D1*
X1132228Y912052D1*
X1132281Y910552D1*
X1132472Y909052D1*
X1132837Y907552D1*
X1133280Y906052D1*
X1133786Y904552D1*
X1134481Y903052D1*
X1135353Y901552D1*
X1136334Y900052D1*
X1137610Y898552D1*
X1139476Y897052D1*
X1142046Y895552D1*
X1145231Y894052D1*
X1148722Y892552D1*
X1139722Y952552D2*
Y951052D1*
Y949552D1*
Y948052D1*
Y946552D1*
Y945052D1*
Y943552D1*
Y942052D1*
Y940552D1*
Y939052D1*
Y937552D1*
Y936052D1*
Y934552D1*
Y933052D1*
Y931552D1*
Y930052D1*
Y928552D1*
Y927052D1*
Y925552D1*
Y924052D1*
Y922552D1*
X1139728Y921052D1*
X1139781Y919552D1*
X1139972Y918052D1*
X1140331Y916552D1*
X1140716Y915052D1*
X1140984Y913552D1*
X1141175Y912052D1*
X1141436Y910552D1*
X1141886Y909052D1*
X1142589Y907552D1*
X1143510Y906052D1*
X1145836Y904552D1*
X1149815Y903052D1*
X1156078Y901552D1*
X1163722Y900052D1*
X1172722Y952552D2*
Y951052D1*
Y949552D1*
Y948052D1*
Y946552D1*
Y945052D1*
Y943552D1*
Y942052D1*
Y940552D1*
Y939052D1*
Y937552D1*
Y936052D1*
Y934552D1*
Y933052D1*
Y931552D1*
Y930052D1*
Y928552D1*
Y927052D1*
Y925552D1*
Y924052D1*
Y922552D1*
Y921052D1*
X1172717Y919552D1*
X1172664Y918052D1*
X1172473Y916552D1*
X1172113Y915052D1*
X1171723Y913552D1*
X1171409Y912052D1*
X1171073Y910552D1*
X1170585Y909052D1*
X1169866Y907552D1*
X1168937Y906052D1*
X1166610Y904552D1*
X1162630Y903052D1*
X1156367Y901552D1*
X1148722Y900052D1*
X1180222Y952552D2*
Y951052D1*
Y949552D1*
Y948052D1*
Y946552D1*
Y945052D1*
Y943552D1*
Y942052D1*
Y940552D1*
Y939052D1*
Y937552D1*
Y936052D1*
Y934552D1*
Y933052D1*
Y931552D1*
Y930052D1*
Y928552D1*
Y927052D1*
Y925552D1*
Y924052D1*
Y922552D1*
Y921052D1*
Y919552D1*
Y918052D1*
Y916552D1*
Y915052D1*
Y913552D1*
X1180217Y912052D1*
X1180164Y910552D1*
X1179973Y909052D1*
X1179608Y907552D1*
X1179164Y906052D1*
X1178659Y904552D1*
X1177964Y903052D1*
X1177092Y901552D1*
X1176111Y900052D1*
X1174835Y898552D1*
X1172969Y897052D1*
X1170399Y895552D1*
X1167214Y894052D1*
X1163722Y892552D1*
X1205722Y952552D2*
Y951052D1*
Y949552D1*
Y948052D1*
Y946552D1*
Y945052D1*
Y943552D1*
Y942052D1*
Y940552D1*
Y939052D1*
Y937552D1*
Y936052D1*
Y934552D1*
Y933052D1*
Y931552D1*
Y930052D1*
Y928552D1*
Y927052D1*
Y925552D1*
Y924052D1*
Y922552D1*
Y921052D1*
Y919552D1*
Y918052D1*
Y916552D1*
Y915052D1*
Y913552D1*
Y912052D1*
Y910552D1*
X1205717Y909052D1*
X1205658Y907552D1*
X1205391Y906052D1*
X1204870Y904552D1*
X1202988Y903052D1*
X1200157Y901552D1*
X1196722Y900052D1*
X1214722Y952552D2*
Y951052D1*
Y949552D1*
Y948052D1*
Y946552D1*
Y945052D1*
Y943552D1*
Y942052D1*
Y940552D1*
Y939052D1*
Y937552D1*
Y936052D1*
Y934552D1*
Y933052D1*
Y931552D1*
Y930052D1*
Y928552D1*
Y927052D1*
Y925552D1*
Y924052D1*
Y922552D1*
Y921052D1*
Y919552D1*
Y918052D1*
Y916552D1*
Y915052D1*
Y913552D1*
Y912052D1*
Y910552D1*
Y909052D1*
Y907552D1*
X1214717Y906052D1*
X1214664Y904552D1*
X1214467Y903052D1*
X1214055Y901552D1*
X1213473Y900052D1*
X1212788Y898552D1*
X1211958Y897052D1*
X1210796Y895552D1*
X1209150Y894052D1*
X1207222Y892552D1*
X1228222Y952552D2*
Y951052D1*
Y949552D1*
Y948052D1*
Y946552D1*
Y945052D1*
Y943552D1*
Y942052D1*
Y940552D1*
Y939052D1*
Y937552D1*
Y936052D1*
Y934552D1*
Y933052D1*
Y931552D1*
Y930052D1*
Y928552D1*
Y927052D1*
Y925552D1*
Y924052D1*
Y922552D1*
Y921052D1*
Y919552D1*
Y918052D1*
Y916552D1*
Y915052D1*
Y913552D1*
Y912052D1*
Y910552D1*
Y909052D1*
Y907552D1*
Y906052D1*
Y904552D1*
Y903052D1*
Y901552D1*
Y900052D1*
Y898552D1*
Y897052D1*
Y895552D1*
Y894052D1*
Y892552D1*
X1237222Y952552D2*
Y951052D1*
Y949552D1*
Y948052D1*
Y946552D1*
Y945052D1*
Y943552D1*
Y942052D1*
Y940552D1*
Y939052D1*
Y937552D1*
Y936052D1*
Y934552D1*
Y933052D1*
Y931552D1*
Y930052D1*
Y928552D1*
Y927052D1*
Y925552D1*
Y924052D1*
Y922552D1*
Y921052D1*
Y919552D1*
Y918052D1*
Y916552D1*
Y915052D1*
Y913552D1*
Y912052D1*
Y910552D1*
Y909052D1*
Y907552D1*
Y906052D1*
Y904552D1*
Y903052D1*
Y901552D1*
Y900052D1*
Y898552D1*
Y897052D1*
Y895552D1*
Y894052D1*
Y892552D1*
X1096222Y945052D2*
Y943552D1*
Y942052D1*
Y940552D1*
Y939052D1*
Y937552D1*
Y936052D1*
Y934552D1*
Y933052D1*
Y931552D1*
Y930052D1*
Y928552D1*
X1120222D2*
Y927052D1*
Y925552D1*
Y924052D1*
Y922552D1*
Y921052D1*
X1096222D2*
Y919552D1*
Y918052D1*
Y916552D1*
Y915052D1*
Y913552D1*
Y912052D1*
Y910552D1*
Y909052D1*
Y907552D1*
Y906052D1*
Y904552D1*
Y903052D1*
Y901552D1*
Y900052D1*
Y898552D1*
Y897052D1*
Y895552D1*
Y894052D1*
Y892552D1*
X1193722Y903052D2*
X1192291Y901552D1*
X1191101Y900052D1*
X1190210Y898552D1*
X1190366Y897052D1*
X1191818Y895552D1*
X1194038Y894052D1*
X1196722Y892552D1*
X1195222Y903052D2*
X1198832Y901552D1*
X1202722Y900052D1*
X1196232Y2429438D2*
D96*
X1194806Y2432289D1*
X1191921Y2435175D1*
X1189069Y2436601D1*
X1183332D1*
X1180447Y2435175D1*
X1177595Y2432289D1*
X1176136Y2429438D1*
X1174710Y2425127D1*
Y2417930D1*
X1176136Y2413653D1*
X1177595Y2410768D1*
X1180447Y2407916D1*
X1183332Y2406457D1*
X1189069D1*
X1191921Y2407916D1*
X1194806Y2410768D1*
X1196232Y2413653D1*
X1205495Y2430830D2*
X1208381Y2432289D1*
X1212692Y2436567D1*
Y2406457D1*
X1218152Y2152873D2*
X1215300Y2151447D1*
X1212415Y2148562D1*
X1210989Y2145710D1*
Y2139973D1*
X1212415Y2137088D1*
X1215300Y2134236D1*
X1218152Y2132777D1*
X1222463Y2131351D1*
X1229659D1*
X1233937Y2132777D1*
X1236822Y2134236D1*
X1239674Y2137088D1*
X1241133Y2139973D1*
Y2145710D1*
X1239674Y2148562D1*
X1236822Y2151447D1*
X1233937Y2152873D1*
X1218185Y2163595D2*
X1216759D1*
X1213874Y2165021D1*
X1212448Y2166447D1*
X1211022Y2169332D1*
Y2175069D1*
X1212448Y2177921D1*
X1213874Y2179347D1*
X1216759Y2180806D1*
X1219611D1*
X1222496Y2179347D1*
X1226774Y2176495D1*
X1241133Y2162136D1*
Y2182232D1*
X1321625Y1912583D2*
X1320199Y1915435D1*
X1317313Y1918320D1*
X1314462Y1919746D1*
X1308725D1*
X1305840Y1918320D1*
X1302988Y1915435D1*
X1301529Y1912583D1*
X1300103Y1908272D1*
Y1901076D1*
X1301529Y1896798D1*
X1302988Y1893913D1*
X1305840Y1891061D1*
X1308725Y1889602D1*
X1314462D1*
X1317313Y1891061D1*
X1320199Y1893913D1*
X1321625Y1896798D1*
X1333773Y1919713D2*
X1349525D1*
X1340936Y1908239D1*
X1345247D1*
X1348099Y1906813D1*
X1349525Y1905387D1*
X1350984Y1901076D1*
Y1898224D1*
X1349525Y1893913D1*
X1346673Y1891028D1*
X1342362Y1889602D1*
X1338051D1*
X1333773Y1891028D1*
X1332347Y1892487D1*
X1330888Y1895339D1*
X1321522Y1957331D2*
X1320096Y1960183D1*
X1317211Y1963068D1*
X1314359Y1964494D1*
X1308622D1*
X1305737Y1963068D1*
X1302885Y1960183D1*
X1301426Y1957331D1*
X1300000Y1953020D1*
Y1945824D1*
X1301426Y1941546D1*
X1302885Y1938661D1*
X1305737Y1935809D1*
X1308622Y1934350D1*
X1314359D1*
X1317211Y1935809D1*
X1320096Y1938661D1*
X1321522Y1941546D1*
X1345144Y1934350D2*
Y1964461D1*
X1330785Y1944398D1*
X1352307D1*
X1089191Y2450501D2*
X1087765Y2453352D1*
X1084880Y2456238D1*
X1082029Y2457664D1*
X1076292D1*
X1073406Y2456238D1*
X1070555Y2453352D1*
X1069095Y2450501D1*
X1067669Y2446190D1*
Y2438993D1*
X1069095Y2434716D1*
X1070555Y2431831D1*
X1073406Y2428979D1*
X1076292Y2427520D1*
X1082029D1*
X1084880Y2428979D1*
X1087765Y2431831D1*
X1089191Y2434716D1*
X1115666Y2457630D2*
X1101340D1*
X1099914Y2444730D1*
X1101340Y2446156D1*
X1105651Y2447616D1*
X1109929D1*
X1114240Y2446156D1*
X1117125Y2443304D1*
X1118551Y2438993D1*
Y2436142D1*
X1117125Y2431831D1*
X1114240Y2428945D1*
X1109929Y2427520D1*
X1105651D1*
X1101340Y2428945D1*
X1099914Y2430405D1*
X1098455Y2433256D1*
X1322353Y1869251D2*
X1320927Y1872103D1*
X1318042Y1874988D1*
X1315190Y1876414D1*
X1309453D1*
X1306568Y1874988D1*
X1303716Y1872103D1*
X1302257Y1869251D1*
X1300831Y1864940D1*
Y1857744D1*
X1302257Y1853466D1*
X1303716Y1850581D1*
X1306568Y1847729D1*
X1309453Y1846270D1*
X1315190D1*
X1318042Y1847729D1*
X1320927Y1850581D1*
X1322353Y1853466D1*
X1348827Y1872103D2*
X1347401Y1874955D1*
X1343090Y1876381D1*
X1340238D1*
X1335927Y1874955D1*
X1333042Y1870644D1*
X1331616Y1863481D1*
Y1856318D1*
X1333042Y1850581D1*
X1335927Y1847696D1*
X1340238Y1846270D1*
X1341664D1*
X1345942Y1847696D1*
X1348827Y1850581D1*
X1350253Y1854892D1*
Y1856318D1*
X1348827Y1860629D1*
X1345942Y1863481D1*
X1341664Y1864907D1*
X1340238D1*
X1335927Y1863481D1*
X1333042Y1860629D1*
X1331616Y1856318D1*
X711901Y750892D2*
X709049Y749466D1*
X706164Y746581D1*
X704738Y743729D1*
Y737992D1*
X706164Y735107D1*
X709049Y732255D1*
X711901Y730796D1*
X716212Y729370D1*
X723408D1*
X727686Y730796D1*
X730571Y732255D1*
X733423Y735107D1*
X734882Y737992D1*
Y743729D1*
X733423Y746581D1*
X730571Y749466D1*
X727686Y750892D1*
X710508Y760156D2*
X709049Y763041D1*
X704771Y767352D1*
X734882D1*
X704771Y785237D2*
X706197Y780926D1*
X710508Y778041D1*
X717671Y776615D1*
X721982D1*
X729145Y778041D1*
X733456Y780926D1*
X734882Y785237D1*
Y788089D1*
X733456Y792400D1*
X729145Y795252D1*
X721982Y796711D1*
X717671D1*
X710508Y795252D1*
X706197Y792400D1*
X704771Y788089D1*
Y785237D1*
X710508Y795252D2*
X729145Y778041D1*
X486901Y906161D2*
X484049Y904735D1*
X481164Y901850D1*
X479738Y898998D1*
Y893261D1*
X481164Y890376D1*
X484049Y887524D1*
X486901Y886065D1*
X491212Y884639D1*
X498408D1*
X502686Y886065D1*
X505571Y887524D1*
X508423Y890376D1*
X509882Y893261D1*
Y898998D1*
X508423Y901850D1*
X505571Y904735D1*
X502686Y906161D1*
X485508Y915425D2*
X484049Y918310D1*
X479771Y922621D1*
X509882D1*
X485508Y931884D2*
X484049Y934769D1*
X479771Y939080D1*
X509882D1*
X817583Y823158D2*
X847727D1*
Y833206D1*
X846268Y837517D1*
X843416Y840402D1*
X840531Y841828D1*
X836253Y843254D1*
X829057D1*
X824746Y841828D1*
X821894Y840402D1*
X819009Y837517D1*
X817583Y833206D1*
Y823158D1*
X823353Y852518D2*
X821894Y855403D1*
X817616Y859714D1*
X847727D1*
X773833Y822957D2*
X803977D1*
Y833005D1*
X802518Y837316D1*
X799666Y840201D1*
X796781Y841627D1*
X792503Y843053D1*
X785307D1*
X780996Y841627D1*
X778144Y840201D1*
X775259Y837316D1*
X773833Y833005D1*
Y822957D1*
X781029Y853776D2*
X779603D1*
X776718Y855202D1*
X775292Y856628D1*
X773866Y859513D1*
Y865250D1*
X775292Y868102D1*
X776718Y869528D1*
X779603Y870987D1*
X782455D1*
X785340Y869528D1*
X789618Y866676D1*
X803977Y852317D1*
Y872413D1*
X848831Y727486D2*
X878975D1*
Y737534D1*
X877516Y741845D1*
X874664Y744730D1*
X871779Y746156D1*
X867501Y747582D1*
X860305D1*
X855994Y746156D1*
X853142Y744730D1*
X850257Y741845D1*
X848831Y737534D1*
Y727486D1*
X848864Y759731D2*
Y775483D1*
X860338Y766894D1*
Y771205D1*
X861764Y774057D1*
X863190Y775483D1*
X867501Y776942D1*
X870353D1*
X874664Y775483D1*
X877549Y772631D1*
X878975Y768320D1*
Y764009D1*
X877549Y759731D1*
X876090Y758305D1*
X873238Y756846D1*
X1410986Y731121D2*
X1441130D1*
Y741169D1*
X1439671Y745480D1*
X1436819Y748365D1*
X1433934Y749791D1*
X1429656Y751217D1*
X1422460D1*
X1418149Y749791D1*
X1415297Y748365D1*
X1412412Y745480D1*
X1410986Y741169D1*
Y731121D1*
X1441130Y774840D2*
X1411019D1*
X1431082Y760481D1*
Y782002D1*
X529738Y731835D2*
X559882D1*
Y741883D1*
X558423Y746194D1*
X555571Y749079D1*
X552686Y750505D1*
X548408Y751931D1*
X541212D1*
X536901Y750505D1*
X534049Y749079D1*
X531164Y746194D1*
X529738Y741883D1*
Y731835D1*
X529771Y778406D2*
Y764080D1*
X542671Y762654D1*
X541245Y764080D1*
X539786Y768391D1*
Y772669D1*
X541245Y776980D1*
X544097Y779865D1*
X548408Y781291D1*
X551260D1*
X555571Y779865D1*
X558456Y776980D1*
X559882Y772669D1*
Y768391D1*
X558456Y764080D1*
X556997Y762654D1*
X554145Y761195D1*
X1204019Y448313D2*
Y425366D1*
X1202593Y421055D1*
X1201134Y419629D1*
X1198282Y418169D1*
X1195397D1*
X1192545Y419629D1*
X1191119Y421055D1*
X1189660Y425366D1*
Y428217D1*
X1213283Y442543D2*
X1216168Y444002D1*
X1220479Y448280D1*
Y418169D1*
X973701Y2500082D2*
Y2477134D1*
X972275Y2472823D1*
X970815Y2471397D1*
X967964Y2469938D1*
X965078D1*
X962227Y2471397D1*
X960801Y2472823D1*
X959341Y2477134D1*
Y2479986D1*
X985849Y2500049D2*
X1001601D1*
X993012Y2488575D1*
X997323D1*
X1000175Y2487149D1*
X1001601Y2485723D1*
X1003060Y2481412D1*
Y2478560D1*
X1001601Y2474249D1*
X998749Y2471364D1*
X994438Y2469938D1*
X990127D1*
X985849Y2471364D1*
X984423Y2472823D1*
X982964Y2475675D1*
X719087Y631082D2*
Y643982D1*
X717628Y648293D1*
X716202Y649752D1*
X713350Y651178D1*
X710465D1*
X707613Y649752D1*
X706154Y648293D1*
X704728Y643982D1*
Y631082D1*
X734872D1*
X719087Y641130D2*
X734872Y651178D1*
X710498Y660441D2*
X709039Y663326D1*
X704761Y667637D1*
X734872D1*
X1237846Y630881D2*
Y643781D1*
X1236387Y648092D1*
X1234961Y649551D1*
X1232110Y650977D1*
X1229224D1*
X1226373Y649551D1*
X1224913Y648092D1*
X1223487Y643781D1*
Y630881D1*
X1253631D1*
X1237846Y640929D2*
X1253631Y650977D1*
X1230684Y661700D2*
X1229258D1*
X1226373Y663126D1*
X1224947Y664552D1*
X1223521Y667437D1*
Y673174D1*
X1224947Y676026D1*
X1226373Y677452D1*
X1229258Y678911D1*
X1232110D1*
X1234995Y677452D1*
X1239272Y674600D1*
X1253631Y660241D1*
Y680337D1*
X619097Y731471D2*
Y744370D1*
X617638Y748681D1*
X616212Y750141D1*
X613360Y751566D1*
X610475D1*
X607623Y750141D1*
X606164Y748681D1*
X604738Y744370D1*
Y731471D1*
X634882D1*
X619097Y741519D2*
X634882Y751566D1*
X604771Y763715D2*
Y779467D1*
X616245Y770878D1*
Y775189D1*
X617671Y778041D1*
X619097Y779467D1*
X623408Y780926D1*
X626260D1*
X630571Y779467D1*
X633456Y776615D1*
X634882Y772304D1*
Y767993D1*
X633456Y763715D1*
X631997Y762289D1*
X629145Y760830D1*
X1344096Y730759D2*
Y743659D1*
X1342637Y747970D1*
X1341211Y749429D1*
X1338359Y750855D1*
X1335474D1*
X1332622Y749429D1*
X1331163Y747970D1*
X1329737Y743659D1*
Y730759D1*
X1359881D1*
X1344096Y740807D2*
X1359881Y750855D1*
Y774477D2*
X1329770D1*
X1349833Y760118D1*
Y781640D1*
X474724Y733993D2*
Y746893D1*
X473265Y751204D1*
X471839Y752663D1*
X468987Y754089D1*
X466102D1*
X463250Y752663D1*
X461791Y751204D1*
X460365Y746893D1*
Y733993D1*
X490509D1*
X474724Y744041D2*
X490509Y754089D1*
X460399Y780563D2*
Y766237D1*
X473299Y764811D1*
X471873Y766237D1*
X470413Y770548D1*
Y774826D1*
X471873Y779137D1*
X474724Y782022D1*
X479035Y783448D1*
X481887D1*
X486198Y782022D1*
X489083Y779137D1*
X490509Y774826D1*
Y770548D1*
X489083Y766237D1*
X487624Y764811D1*
X484772Y763352D1*
X1500035Y733478D2*
Y746378D1*
X1498576Y750689D1*
X1497150Y752148D1*
X1494298Y753574D1*
X1491413D1*
X1488562Y752148D1*
X1487102Y750689D1*
X1485676Y746378D1*
Y733478D1*
X1515820D1*
X1500035Y743526D2*
X1515820Y753574D1*
X1489987Y780049D2*
X1487136Y778623D1*
X1485710Y774312D1*
Y771460D1*
X1487136Y767149D1*
X1491447Y764264D1*
X1498610Y762838D1*
X1505772D1*
X1511509Y764264D1*
X1514394Y767149D1*
X1515820Y771460D1*
Y772886D1*
X1514394Y777164D1*
X1511509Y780049D1*
X1507198Y781475D1*
X1505772D1*
X1501461Y780049D1*
X1498610Y777164D1*
X1497184Y772886D1*
Y771460D1*
X1498610Y767149D1*
X1501461Y764264D1*
X1505772Y762838D1*
X437969Y1560430D2*
X450869D1*
X455180Y1561890D1*
X456639Y1563316D1*
X458065Y1566167D1*
Y1569053D1*
X456639Y1571904D1*
X455180Y1573364D1*
X450869Y1574789D1*
X437969D1*
Y1544645D1*
X448017Y1560430D2*
X458065Y1544645D1*
X473066D2*
X487425Y1574756D1*
X467329D1*
X1106597Y1875830D2*
Y1888730D1*
X1105138Y1893041D1*
X1103712Y1894500D1*
X1100860Y1895926D1*
X1097975D1*
X1095123Y1894500D1*
X1093664Y1893041D1*
X1092238Y1888730D1*
Y1875830D1*
X1122382D1*
X1106597Y1885878D2*
X1122382Y1895926D1*
X1092271Y1912352D2*
X1093697Y1908074D1*
X1096549Y1906615D1*
X1099434D1*
X1102286Y1908074D1*
X1103745Y1910926D1*
X1105171Y1916663D1*
X1106597Y1920974D1*
X1109482Y1923826D1*
X1112334Y1925252D1*
X1116645D1*
X1119497Y1923826D1*
X1120956Y1922400D1*
X1122382Y1918089D1*
Y1912352D1*
X1120956Y1908074D1*
X1119497Y1906615D1*
X1116645Y1905189D1*
X1112334D1*
X1109482Y1906615D1*
X1106597Y1909500D1*
X1105171Y1913778D1*
X1103745Y1919515D1*
X1102286Y1922400D1*
X1099434Y1923826D1*
X1096549D1*
X1093697Y1922400D1*
X1092271Y1918089D1*
Y1912352D1*
X772653Y1955804D2*
X785553D1*
X789864Y1957264D1*
X791323Y1958690D1*
X792749Y1961541D1*
Y1964427D1*
X791323Y1967278D1*
X789864Y1968738D1*
X785553Y1970164D1*
X772653D1*
Y1940020D1*
X782701Y1955804D2*
X792749Y1940020D1*
X802012Y1964393D2*
X804897Y1965852D1*
X809208Y1970130D1*
Y1940020D1*
X827094Y1970130D2*
X822783Y1968704D1*
X819898Y1964393D1*
X818472Y1957230D1*
Y1952919D1*
X819898Y1945756D1*
X822783Y1941445D1*
X827094Y1940020D1*
X829946D1*
X834257Y1941445D1*
X837109Y1945756D1*
X838568Y1952919D1*
Y1957230D1*
X837109Y1964393D1*
X834257Y1968704D1*
X829946Y1970130D1*
X827094D1*
X837109Y1964393D2*
X819898Y1945756D1*
X772853Y1905806D2*
X785753D1*
X790064Y1907265D1*
X791523Y1908691D1*
X792949Y1911543D1*
Y1914428D1*
X791523Y1917280D1*
X790064Y1918739D1*
X785753Y1920165D1*
X772853D1*
Y1890021D1*
X782901Y1905806D2*
X792949Y1890021D1*
X802213Y1914395D2*
X805098Y1915854D1*
X809409Y1920132D1*
Y1890021D1*
X818672Y1914395D2*
X821558Y1915854D1*
X825869Y1920132D1*
Y1890021D1*
X772653Y1855803D2*
X785553D1*
X789864Y1857262D1*
X791323Y1858688D1*
X792749Y1861540D1*
Y1864425D1*
X791323Y1867277D1*
X789864Y1868736D1*
X785553Y1870162D1*
X772653D1*
Y1840018D1*
X782701Y1855803D2*
X792749Y1840018D1*
X802012Y1864392D2*
X804897Y1865851D1*
X809208Y1870129D1*
Y1840018D1*
X819931Y1862966D2*
Y1864392D1*
X821357Y1867277D1*
X822783Y1868703D1*
X825668Y1870129D1*
X831405D1*
X834257Y1868703D1*
X835683Y1867277D1*
X837142Y1864392D1*
Y1861540D1*
X835683Y1858655D1*
X832831Y1854377D1*
X818472Y1840018D1*
X838568D1*
X694708Y445666D2*
X691823Y442814D1*
X690397Y438503D1*
Y432766D1*
X691823Y428455D1*
X694708Y425570D1*
X697560D1*
X700445Y427029D1*
X701871Y428455D1*
X703297Y431307D1*
X706182Y439929D1*
X707608Y442814D1*
X709067Y444240D1*
X711919Y445666D1*
X716230D1*
X719082Y442814D1*
X720541Y438503D1*
Y432766D1*
X719082Y428455D1*
X716230Y425570D1*
X696167Y454930D2*
X694708Y457815D1*
X690430Y462126D1*
X720541D1*
X1261308Y445467D2*
X1258423Y442615D1*
X1256997Y438304D1*
Y432567D1*
X1258423Y428256D1*
X1261308Y425371D1*
X1264160D1*
X1267045Y426830D1*
X1268471Y428256D1*
X1269897Y431108D1*
X1272782Y439730D1*
X1274208Y442615D1*
X1275667Y444041D1*
X1278519Y445467D1*
X1282830D1*
X1285682Y442615D1*
X1287141Y438304D1*
Y432567D1*
X1285682Y428256D1*
X1282830Y425371D1*
X1264193Y456189D2*
X1262767D1*
X1259882Y457615D1*
X1258456Y459041D1*
X1257030Y461926D1*
Y467663D1*
X1258456Y470515D1*
X1259882Y471941D1*
X1262767Y473400D1*
X1265619D1*
X1268504Y471941D1*
X1272782Y469089D1*
X1287141Y454730D1*
Y474826D1*
X1423025Y1835951D2*
Y1814429D1*
X1424451Y1810118D1*
X1427336Y1807266D1*
X1431647Y1805807D1*
X1434499D1*
X1438810Y1807266D1*
X1441695Y1810118D1*
X1443121Y1814429D1*
Y1835951D1*
X1452385Y1830181D2*
X1455270Y1831640D1*
X1459581Y1835918D1*
Y1805807D1*
X952634Y2380597D2*
Y2359075D1*
X954060Y2354764D1*
X956945Y2351912D1*
X961256Y2350453D1*
X964108D1*
X968419Y2351912D1*
X971304Y2354764D1*
X972730Y2359075D1*
Y2380597D1*
X983453Y2373400D2*
Y2374826D1*
X984879Y2377712D1*
X986305Y2379137D1*
X989190Y2380563D1*
X994927D1*
X997779Y2379137D1*
X999205Y2377712D1*
X1000664Y2374826D1*
Y2371975D1*
X999205Y2369089D1*
X996353Y2364812D1*
X981994Y2350453D1*
X1002090D1*
X693645Y959338D2*
Y937816D1*
X695071Y933505D1*
X697956Y930653D1*
X702267Y929194D1*
X705119D1*
X709430Y930653D1*
X712315Y933505D1*
X713741Y937816D1*
Y959338D1*
X725890Y959305D2*
X741641D1*
X733052Y947831D1*
X737364D1*
X740215Y946405D1*
X741641Y944979D1*
X743100Y940668D1*
Y937816D1*
X741641Y933505D1*
X738789Y930620D1*
X734478Y929194D1*
X730167D1*
X725890Y930620D1*
X724464Y932079D1*
X723004Y934931D1*
X670903Y1653211D2*
D97*
X639841D1*
Y1602971D1*
X670903D1*
X639841Y1629279D2*
X658965D1*
X719836Y1646026D2*
X715082Y1650834D1*
X707897Y1653211D1*
X698336D1*
X691151Y1650834D1*
X686342Y1646026D1*
Y1641272D1*
X688774Y1636464D1*
X691151Y1634087D1*
X695904Y1631711D1*
X710274Y1626902D1*
X715082Y1624526D1*
X717459Y1622094D1*
X719836Y1617341D1*
Y1610156D1*
X715082Y1605402D1*
X707897Y1602971D1*
X698336D1*
X691151Y1605402D1*
X686342Y1610156D1*
X735275Y1626902D2*
X756830D1*
X763960Y1629279D1*
X766391Y1631711D1*
X768768Y1636464D1*
Y1643649D1*
X766391Y1648402D1*
X763960Y1650834D1*
X756830Y1653211D1*
X735275D1*
Y1602971D1*
X789016Y1653155D2*
X815269D1*
X800954Y1634032D1*
X808139D1*
X812892Y1631655D1*
X815269Y1629279D1*
X817701Y1622094D1*
Y1617341D1*
X815269Y1610156D1*
X810516Y1605347D1*
X803331Y1602971D1*
X796146D1*
X789016Y1605347D1*
X786639Y1607779D1*
X784207Y1612532D1*
X835572Y1641217D2*
Y1643594D1*
X837948Y1648402D1*
X840325Y1650779D1*
X845133Y1653155D1*
X854695D1*
X859448Y1650779D1*
X861825Y1648402D1*
X864257Y1643594D1*
Y1638841D1*
X861825Y1634032D1*
X857072Y1626902D1*
X833140Y1602971D1*
X866633D1*
X882072Y1628063D2*
X909707D1*
X958640Y1646026D2*
X953887Y1650834D1*
X946702Y1653211D1*
X937140D1*
X929955Y1650834D1*
X925147Y1646026D1*
Y1641272D1*
X927578Y1636464D1*
X929955Y1634087D1*
X934708Y1631711D1*
X949078Y1626902D1*
X953887Y1624526D1*
X956263Y1622094D1*
X958640Y1617341D1*
Y1610156D1*
X953887Y1605402D1*
X946702Y1602971D1*
X937140D1*
X929955Y1605402D1*
X925147Y1610156D1*
X978888Y1653155D2*
X1005141D1*
X990826Y1634032D1*
X998011D1*
X1002764Y1631655D1*
X1005141Y1629279D1*
X1007572Y1622094D1*
Y1617341D1*
X1005141Y1610156D1*
X1000387Y1605347D1*
X993202Y1602971D1*
X986017D1*
X978888Y1605347D1*
X976511Y1607779D1*
X974079Y1612532D1*
X1023012Y1628063D2*
X1050646D1*
X1099579Y1653211D2*
Y1602971D1*
X1066086Y1653211D1*
Y1602971D1*
X1115018Y1643594D2*
X1119827Y1646026D1*
X1127012Y1653155D1*
Y1602971D1*
X1171136Y1646026D2*
X1168759Y1650779D1*
X1161574Y1653155D1*
X1156821D1*
X1149636Y1650779D1*
X1144828Y1643594D1*
X1142451Y1631655D1*
Y1619717D1*
X1144828Y1610156D1*
X1149636Y1605347D1*
X1156821Y1602971D1*
X1159198D1*
X1166327Y1605347D1*
X1171136Y1610156D1*
X1173512Y1617341D1*
Y1619717D1*
X1171136Y1626902D1*
X1166327Y1631655D1*
X1159198Y1634032D1*
X1156821D1*
X1149636Y1631655D1*
X1144828Y1626902D1*
X1142451Y1619717D1*
X1188952Y1629279D2*
X1210452D1*
X1217637Y1631711D1*
X1220068Y1634087D1*
X1222445Y1638841D1*
Y1643649D1*
X1220068Y1648402D1*
X1217637Y1650834D1*
X1210452Y1653211D1*
X1188952D1*
Y1602971D1*
X1205698Y1629279D2*
X1222445Y1602971D1*
X1249823Y1653155D2*
X1242693Y1650779D1*
X1240261Y1646026D1*
Y1641217D1*
X1242693Y1636464D1*
X1247446Y1634032D1*
X1257008Y1631655D1*
X1264193Y1629279D1*
X1268946Y1624470D1*
X1271322Y1619717D1*
Y1612532D1*
X1268946Y1607779D1*
X1266569Y1605347D1*
X1259384Y1602971D1*
X1249823D1*
X1242693Y1605347D1*
X1240261Y1607779D1*
X1237884Y1612532D1*
Y1619717D1*
X1240261Y1624470D1*
X1245069Y1629279D1*
X1252199Y1631655D1*
X1261761Y1634032D1*
X1266569Y1636464D1*
X1268946Y1641217D1*
Y1646026D1*
X1266569Y1650779D1*
X1259384Y1653155D1*
X1249823D1*
X713773Y1228211D2*
Y1189964D1*
X711397Y1182779D1*
X708965Y1180402D1*
X704212Y1177971D1*
X699403D1*
X694650Y1180402D1*
X692273Y1182779D1*
X689841Y1189964D1*
Y1194717D1*
X729212Y1228211D2*
Y1177971D1*
X757897D1*
X809206Y1216272D2*
X806830Y1221026D1*
X802021Y1225834D1*
X797268Y1228211D1*
X787707D1*
X782898Y1225834D1*
X778145Y1221026D1*
X775713Y1216272D1*
X773337Y1209087D1*
Y1197094D1*
X775713Y1189964D1*
X778145Y1185156D1*
X782898Y1180402D1*
X787707Y1177971D1*
X797268D1*
X802021Y1180402D1*
X806830Y1185156D1*
X809206Y1189964D1*
X848577Y1228211D2*
Y1189964D1*
X846201Y1182779D1*
X843769Y1180402D1*
X839016Y1177971D1*
X834207D1*
X829454Y1180402D1*
X827078Y1182779D1*
X824646Y1189964D1*
Y1194717D1*
X864017Y1228211D2*
Y1177971D1*
X892702D1*
X944011Y1216272D2*
X941634Y1221026D1*
X936826Y1225834D1*
X932072Y1228211D1*
X922511D1*
X917702Y1225834D1*
X912949Y1221026D1*
X910517Y1216272D1*
X908141Y1209087D1*
Y1197094D1*
X910517Y1189964D1*
X912949Y1185156D1*
X917702Y1180402D1*
X922511Y1177971D1*
X932072D1*
X936826Y1180402D1*
X941634Y1185156D1*
X944011Y1189964D1*
X983382Y1228211D2*
Y1189964D1*
X981005Y1182779D1*
X978573Y1180402D1*
X973820Y1177971D1*
X969012D1*
X964258Y1180402D1*
X961882Y1182779D1*
X959450Y1189964D1*
Y1194717D1*
X998821Y1228211D2*
Y1177971D1*
X1027506D1*
X1078815Y1216272D2*
X1076438Y1221026D1*
X1071630Y1225834D1*
X1066877Y1228211D1*
X1057315D1*
X1052507Y1225834D1*
X1047754Y1221026D1*
X1045322Y1216272D1*
X1042945Y1209087D1*
Y1197094D1*
X1045322Y1189964D1*
X1047754Y1185156D1*
X1052507Y1180402D1*
X1057315Y1177971D1*
X1066877D1*
X1071630Y1180402D1*
X1076438Y1185156D1*
X1078815Y1189964D1*
X1118186Y1228211D2*
Y1189964D1*
X1115809Y1182779D1*
X1113377Y1180402D1*
X1108624Y1177971D1*
X1103816D1*
X1099063Y1180402D1*
X1096686Y1182779D1*
X1094254Y1189964D1*
Y1194717D1*
X1133625Y1228211D2*
Y1177971D1*
X1162310D1*
X1213619Y1216272D2*
X1211243Y1221026D1*
X1206434Y1225834D1*
X1201681Y1228211D1*
X1192119D1*
X1187311Y1225834D1*
X1182558Y1221026D1*
X1180126Y1216272D1*
X1177749Y1209087D1*
Y1197094D1*
X1180126Y1189964D1*
X1182558Y1185156D1*
X1187311Y1180402D1*
X1192119Y1177971D1*
X1201681D1*
X1206434Y1180402D1*
X1211243Y1185156D1*
X1213619Y1189964D1*
X1438460Y541410D2*
D99*
X1423117Y581602D1*
X1407819Y541410D1*
X1413567Y554808D2*
X1432712D1*
X451569Y562457D2*
X468769D1*
X474517Y564402D1*
X476463Y566304D1*
X478364Y570106D1*
Y573953D1*
X476463Y577756D1*
X474517Y579701D1*
X468769Y581602D1*
X451569D1*
Y541410D1*
X464967Y562457D2*
X478364Y541410D1*
X515565Y581602D2*
X490716D1*
Y541410D1*
X515565D1*
X490716Y562457D2*
X506014D1*
X554711Y575854D2*
X550908Y579701D1*
X545160Y581602D1*
X537511D1*
X531763Y579701D1*
X527916Y575854D1*
Y572052D1*
X529862Y568205D1*
X531763Y566304D1*
X535565Y564402D1*
X547061Y560556D1*
X550908Y558654D1*
X552810Y556709D1*
X554711Y552906D1*
Y547158D1*
X550908Y543356D1*
X545160Y541410D1*
X537511D1*
X531763Y543356D1*
X527916Y547158D1*
X591911Y581602D2*
X567062D1*
Y541410D1*
X591911D1*
X567062Y562457D2*
X582361D1*
X617660Y581602D2*
Y541410D1*
X604263Y581602D2*
X631057D1*
M02*
