G04 DipTrace 3.3.1.3*
G04 Top.gbr*
%MOIN*%
G04 #@! TF.FileFunction,Copper,L1,Top*
G04 #@! TF.Part,Single*
G04 #@! TA.AperFunction,Conductor*
%ADD14C,0.015748*%
G04 #@! TA.AperFunction,ComponentPad*
%ADD15C,0.070866*%
%ADD16R,0.06X0.06*%
%ADD17C,0.06*%
%FSLAX26Y26*%
G04*
G70*
G90*
G75*
G01*
G04 Top*
%LPD*%
X1511830Y1088577D2*
D14*
Y711811D1*
X1443719Y643701D1*
X857499Y1088577D2*
Y657480D1*
X843719Y643701D1*
X966554Y1088577D2*
Y666535D1*
X943719Y643701D1*
X1075609Y1088577D2*
Y675591D1*
X1043719Y643701D1*
X1184664Y1088577D2*
Y684646D1*
X1143719Y643701D1*
X1620885Y1088577D2*
Y720866D1*
X1543719Y643701D1*
X1402774Y1088577D2*
Y702756D1*
X1343719Y643701D1*
X1729940Y1088577D2*
Y729921D1*
X1643719Y643701D1*
X1293719Y1088577D2*
Y693701D1*
X1243719Y643701D1*
X1784467Y976766D2*
Y684449D1*
X1743719Y643701D1*
D15*
X1784467Y976766D3*
X1729940Y1088577D3*
X1675412Y976766D3*
X1620885Y1088577D3*
X1566357Y976766D3*
X1511830Y1088577D3*
X1457302Y976766D3*
X1402774Y1088577D3*
X1348247Y976766D3*
X1293719Y1088577D3*
X1239192Y976766D3*
X1184664Y1088577D3*
X1130137Y976766D3*
X1075609Y1088577D3*
X1021082Y976766D3*
X966554Y1088577D3*
X912026Y976766D3*
X857499Y1088577D3*
X802971Y976766D3*
D16*
X843719Y543701D3*
D17*
X943719D3*
X1043719D3*
X1143719D3*
X1243719D3*
X1343719D3*
X1443719D3*
X1543719D3*
X1643719D3*
X1743719D3*
Y643701D3*
X1643719D3*
X1543719D3*
X1443719D3*
X1343719D3*
X1243719D3*
X1143719D3*
X1043719D3*
X943719D3*
X843719D3*
M02*
