G04 DipTrace 3.3.1.3*
G04 BottomSilk.gbr*
%MOIN*%
G04 #@! TF.FileFunction,Legend,Bot*
G04 #@! TF.Part,Single*
%ADD12C,0.003*%
%ADD13C,0.007874*%
%ADD15C,0.005906*%
%ADD31O,0.074027X0.074711*%
%ADD32O,0.073993X0.074711*%
%ADD33O,0.073959X0.074711*%
%ADD68C,0.004632*%
%ADD69C,0.009264*%
%FSLAX26Y26*%
G04*
G70*
G90*
G75*
G01*
G04 BotSilk*
%LPD*%
X758763Y1506776D2*
D13*
G02X758763Y1506776I35433J0D01*
G01*
G36*
X932788Y1528899D2*
X1074602D1*
Y1511968D1*
X932788D1*
Y1528899D1*
G37*
G36*
X932313Y962314D2*
Y864864D1*
X948692D1*
Y905025D1*
X1074704D1*
Y922251D1*
X948692D1*
Y962314D1*
X932313D1*
G37*
G36*
Y1050510D2*
Y975307D1*
X948420D1*
Y1033284D1*
X988842D1*
Y975307D1*
X1004373D1*
Y1033580D1*
X1059173D1*
Y975307D1*
X1074704D1*
Y1050510D1*
X932313D1*
G37*
G36*
X1074636Y1204067D2*
X926073D1*
X1040454Y1099924D1*
X932008D1*
Y1083781D1*
X1081486D1*
X967716Y1187924D1*
X1074636D1*
Y1204067D1*
G37*
G36*
X933059Y1579002D2*
Y1561973D1*
X1045812D1*
X1055171Y1562957D1*
X1062021Y1565024D1*
X1067311Y1567879D1*
X1071109Y1571029D1*
X1074466Y1575655D1*
X1076738Y1580970D1*
X1077823Y1587270D1*
X1078535Y1595046D1*
Y1600460D1*
X1077213Y1605677D1*
X1073517Y1613158D1*
X1070024Y1618178D1*
X1064666Y1623100D1*
X1053136Y1611583D1*
X1057206Y1608040D1*
X1059749Y1604693D1*
X1062123Y1599968D1*
X1062971Y1597606D1*
X1063344Y1594751D1*
X1063106Y1590518D1*
X1062530Y1588156D1*
X1061716Y1586384D1*
X1060325Y1584317D1*
X1058020Y1582250D1*
X1055273Y1580675D1*
X1053306Y1579789D1*
X1050898Y1579494D1*
X1048152Y1579100D1*
X1046049Y1578903D1*
X933059Y1579002D1*
G37*
G36*
X932957Y1749292D2*
Y1732066D1*
X1024211D1*
X1032417Y1731574D1*
X1041437Y1729507D1*
X1049033Y1726062D1*
X1053069Y1723010D1*
X1056799Y1718581D1*
X1060190Y1711887D1*
X1062394Y1702339D1*
X1062801Y1694268D1*
X1061716Y1683046D1*
X1059274Y1675073D1*
X1055815Y1669167D1*
X1053069Y1666116D1*
X1047372Y1661981D1*
X1038860Y1658635D1*
X1025499Y1656666D1*
X1012613D1*
X932889D1*
Y1639440D1*
X1021125D1*
X1036554Y1640621D1*
X1048185Y1643476D1*
X1056934Y1647610D1*
X1063852Y1652926D1*
X1069346Y1659324D1*
X1073618Y1667100D1*
X1076806Y1677140D1*
X1078502Y1692004D1*
Y1695843D1*
X1077552Y1708344D1*
X1074670Y1719467D1*
X1070668Y1727735D1*
X1065446Y1734626D1*
X1058325Y1740433D1*
X1049644Y1744961D1*
X1037775Y1748111D1*
X1021227Y1749391D1*
X932957Y1749292D1*
G37*
X983518Y1500648D2*
D15*
Y1390993D1*
X891654Y1422886D2*
X1093117D1*
X968190Y1495727D2*
X1009968D1*
X912373Y1452711D2*
Y1258206D1*
X844993Y1353687D2*
X946284D1*
X894265Y1281731D2*
X1160091D1*
X1123433Y1369042D2*
X1122789Y1185168D1*
D31*
X911780Y1352850D3*
G36*
X932652Y1774098D2*
Y1849203D1*
X1075517D1*
Y1831878D1*
X1004543D1*
Y1774098D1*
X989045D1*
Y1832370D1*
X948556D1*
Y1774098D1*
X932652D1*
G37*
D32*
X984400Y1424608D3*
Y1282470D3*
D33*
X1056205D3*
X947335Y1354425D2*
D15*
X947421Y1356852D1*
X947679Y1359268D1*
X948108Y1361659D1*
X948705Y1364016D1*
X949467Y1366326D1*
X950392Y1368578D1*
X951473Y1370761D1*
X952707Y1372864D1*
X954087Y1374878D1*
X955606Y1376792D1*
X957257Y1378596D1*
X959032Y1380284D1*
X960922Y1381845D1*
X962919Y1383272D1*
X965011Y1384559D1*
X967190Y1385700D1*
X969444Y1386687D1*
X971763Y1387518D1*
X974135Y1388188D1*
X976548Y1388693D1*
X978992Y1389031D1*
X981453Y1389200D1*
X983921D1*
X986382Y1389031D1*
X988826Y1388693D1*
X991239Y1388188D1*
X993611Y1387518D1*
X995930Y1386687D1*
X998184Y1385700D1*
X1000363Y1384559D1*
X1002456Y1383272D1*
X1004452Y1381845D1*
X1006342Y1380284D1*
X1008117Y1378596D1*
X1009768Y1376792D1*
X1011287Y1374878D1*
X1012667Y1372864D1*
X1013901Y1370761D1*
X1014983Y1368578D1*
X1015907Y1366326D1*
X1016669Y1364016D1*
X1017266Y1361659D1*
X1017695Y1359268D1*
X1017953Y1356852D1*
X1018039Y1354425D1*
X1017953Y1351998D1*
X1017695Y1349582D1*
X1017266Y1347190D1*
X1016669Y1344834D1*
X1015907Y1342524D1*
X1014983Y1340272D1*
X1013901Y1338089D1*
X1012667Y1335986D1*
X1011287Y1333972D1*
X1009768Y1332058D1*
X1008117Y1330253D1*
X1006342Y1328566D1*
X1004452Y1327005D1*
X1002456Y1325577D1*
X1000363Y1324290D1*
X998184Y1323150D1*
X995930Y1322162D1*
X993611Y1321332D1*
X991239Y1320662D1*
X988826Y1320157D1*
X986382Y1319819D1*
X983921Y1319650D1*
X981453D1*
X978992Y1319819D1*
X976548Y1320157D1*
X974135Y1320662D1*
X971763Y1321332D1*
X969444Y1322162D1*
X967190Y1323150D1*
X965011Y1324290D1*
X962919Y1325577D1*
X960922Y1327005D1*
X959032Y1328566D1*
X957257Y1330253D1*
X955606Y1332058D1*
X954087Y1333972D1*
X952707Y1335986D1*
X951473Y1338089D1*
X950392Y1340272D1*
X949467Y1342524D1*
X948705Y1344834D1*
X948108Y1347190D1*
X947679Y1349582D1*
X947421Y1351998D1*
X947335Y1354425D1*
X1083486Y1209776D2*
X1154767D1*
X1053509Y1442966D2*
Y1225132D1*
X983552Y1233105D2*
Y1311754D1*
X1019531Y1353687D2*
X1136794Y1353096D1*
G36*
X1084021Y2577292D2*
X1066856Y2570226D1*
X1064630Y2571282D1*
X1035068Y2643818D1*
X1035568Y2645699D1*
X1041744Y2648911D1*
X1047329Y2653040D1*
X1052506Y2657858D1*
X1057546Y2664419D1*
X1060544Y2670888D1*
X1063223Y2678550D1*
X1064494Y2685569D1*
X1064767Y2693874D1*
X1063631Y2701306D1*
X1062224Y2706399D1*
X1059317Y2713052D1*
X1055367Y2719337D1*
X1050508Y2725027D1*
X1044559Y2730073D1*
X1038338Y2733744D1*
X1030936Y2736910D1*
X1023398Y2738699D1*
X1016314Y2739295D1*
X1010864Y2738882D1*
X1003099Y2737460D1*
X995788Y2734799D1*
X989476Y2731175D1*
X983800Y2726999D1*
X978078Y2720943D1*
X974082Y2715116D1*
X970449Y2707684D1*
X968496Y2700756D1*
X967770Y2695434D1*
X967497Y2688047D1*
X968269Y2680844D1*
X970358Y2673319D1*
X973809Y2665703D1*
X978169Y2659739D1*
X982937Y2654600D1*
X989067Y2649920D1*
X996061Y2645975D1*
X996969Y2644690D1*
X996787Y2643084D1*
X967270Y2570915D1*
X965091Y2570180D1*
X947744Y2577338D1*
X910870Y2552700D1*
X909917D1*
X878402Y2583945D1*
X878311Y2585275D1*
X903151Y2621933D1*
X887802Y2659051D1*
X843481Y2667676D1*
X843572Y2713281D1*
X888029Y2721861D1*
X903196Y2758519D1*
X877766Y2796325D1*
X910280Y2828578D1*
X947562Y2803436D1*
X984526Y2818485D1*
X993154Y2862851D1*
X1038837Y2862943D1*
X1047647Y2818531D1*
X1084384Y2803344D1*
X1121802Y2828487D1*
X1154180Y2796325D1*
X1129023Y2758932D1*
X1144190Y2721953D1*
X1188601Y2713327D1*
Y2667584D1*
X1144190Y2658821D1*
X1129113Y2622576D1*
X1154089Y2584862D1*
X1121893Y2552241D1*
X1084974Y2577246D1*
X1084021Y2577292D1*
G37*
X680255Y2057645D2*
D12*
X693755D1*
X1070255D2*
X1085255D1*
X1148255D2*
X1164755D1*
X1226255D2*
X1241255D1*
X1298255D2*
X1317755D1*
X676857Y2056145D2*
X696692D1*
X914255D2*
X947255D1*
X1066800D2*
X1088941D1*
X1144800D2*
X1169595D1*
X1222800D2*
X1244941D1*
X1292797D2*
X1322077D1*
X1382255D2*
X1415255D1*
X674049Y2054645D2*
X699441D1*
X909933D2*
X947255D1*
X1063806D2*
X1092319D1*
X1141800D2*
X1173705D1*
X1219806D2*
X1248319D1*
X1288612D2*
X1325687D1*
X1377933D2*
X1415255D1*
X671829Y2053145D2*
X701826D1*
X906322D2*
X947255D1*
X1061278D2*
X1095335D1*
X1139226D2*
X1177009D1*
X1217278D2*
X1251335D1*
X1285535D2*
X1328514D1*
X1374322D2*
X1415255D1*
X669994Y2051645D2*
X703779D1*
X903495D2*
X947255D1*
X1059245D2*
X1097949D1*
X1137053D2*
X1179729D1*
X1215245D2*
X1253949D1*
X1284283D2*
X1330708D1*
X1371495D2*
X1415255D1*
X668403Y2050145D2*
X705327D1*
X901302D2*
X947255D1*
X1057704D2*
X1100051D1*
X1135344D2*
X1182082D1*
X1213704D2*
X1256051D1*
X1284532D2*
X1332478D1*
X1369302D2*
X1415255D1*
X667037Y2048645D2*
X706521D1*
X899531D2*
X947255D1*
X1056451D2*
X1101703D1*
X1134060D2*
X1184255D1*
X1212451D2*
X1257703D1*
X1284863D2*
X1333917D1*
X1367531D2*
X1415255D1*
X665881Y2047145D2*
X680550D1*
X693929D2*
X707481D1*
X898093D2*
X947255D1*
X1055372D2*
X1070555D1*
X1086698D2*
X1102100D1*
X1133057D2*
X1149824D1*
X1165960D2*
X1182988D1*
X1211372D2*
X1226555D1*
X1242698D2*
X1258100D1*
X1285314D2*
X1301806D1*
X1317165D2*
X1335052D1*
X1366093D2*
X1415255D1*
X664817Y2045645D2*
X678178D1*
X695609D2*
X708323D1*
X896952D2*
X916113D1*
X936755D2*
X947255D1*
X1054533D2*
X1068231D1*
X1089504D2*
X1101707D1*
X1132203D2*
X1147127D1*
X1169843D2*
X1181872D1*
X1210533D2*
X1224231D1*
X1245504D2*
X1257707D1*
X1285800D2*
X1295359D1*
X1320420D2*
X1335942D1*
X1364952D2*
X1384113D1*
X1404755D2*
X1415255D1*
X663820Y2044145D2*
X676229D1*
X697132D2*
X709108D1*
X896014D2*
X912492D1*
X936755D2*
X947255D1*
X1053887D2*
X1066426D1*
X1092132D2*
X1100979D1*
X1131464D2*
X1144934D1*
X1173380D2*
X1180822D1*
X1209887D2*
X1222426D1*
X1248132D2*
X1256979D1*
X1286255D2*
X1289255D1*
X1322919D2*
X1336631D1*
X1364014D2*
X1380492D1*
X1404755D2*
X1415255D1*
X663014Y2042645D2*
X674682D1*
X698452D2*
X709867D1*
X895187D2*
X909652D1*
X936755D2*
X947255D1*
X1053304D2*
X1065100D1*
X1094686D2*
X1099938D1*
X1130894D2*
X1143345D1*
X1176755D2*
X1179755D1*
X1209304D2*
X1221100D1*
X1250686D2*
X1255938D1*
X1324847D2*
X1337192D1*
X1363187D2*
X1377652D1*
X1404755D2*
X1415255D1*
X662380Y2041145D2*
X673489D1*
X699585D2*
X710574D1*
X894458D2*
X907599D1*
X936755D2*
X947255D1*
X1052823D2*
X1064129D1*
X1097255D2*
X1098755D1*
X1130551D2*
X1142235D1*
X1208823D2*
X1220129D1*
X1253255D2*
X1254755D1*
X1326308D2*
X1337733D1*
X1362458D2*
X1375599D1*
X1404755D2*
X1415255D1*
X661796Y2039645D2*
X672528D1*
X700454D2*
X711183D1*
X893892D2*
X906166D1*
X936755D2*
X947255D1*
X1052522D2*
X1063457D1*
X1130379D2*
X1141500D1*
X1208522D2*
X1219457D1*
X1327446D2*
X1338198D1*
X1361892D2*
X1374166D1*
X1404755D2*
X1415255D1*
X661263Y2038145D2*
X671692D1*
X701114D2*
X711711D1*
X893544D2*
X905153D1*
X936755D2*
X947255D1*
X1052368D2*
X1063074D1*
X1130304D2*
X1141090D1*
X1208368D2*
X1219074D1*
X1327862D2*
X1338491D1*
X1361544D2*
X1373153D1*
X1404755D2*
X1415255D1*
X660772Y2036645D2*
X670960D1*
X701702D2*
X712240D1*
X893321D2*
X904466D1*
X936755D2*
X947255D1*
X1052300D2*
X1062888D1*
X1130273D2*
X1140893D1*
X1208300D2*
X1218888D1*
X1328087D2*
X1338643D1*
X1361321D2*
X1372466D1*
X1404755D2*
X1415255D1*
X660259Y2035145D2*
X670392D1*
X702192D2*
X712706D1*
X834755D2*
X848255D1*
X893054D2*
X904077D1*
X936755D2*
X947255D1*
X1052271D2*
X1062806D1*
X1130261D2*
X1140808D1*
X1208271D2*
X1218806D1*
X1328189D2*
X1338710D1*
X1361054D2*
X1372077D1*
X1404755D2*
X1415255D1*
X659806Y2033645D2*
X670045D1*
X702546D2*
X713051D1*
X731255D2*
X741755D1*
X786755D2*
X797255D1*
X830946D2*
X851884D1*
X892664D2*
X903889D1*
X936755D2*
X947255D1*
X1052261D2*
X1062774D1*
X1130257D2*
X1140780D1*
X1208261D2*
X1218774D1*
X1328225D2*
X1338732D1*
X1360664D2*
X1371889D1*
X1404755D2*
X1415255D1*
X659510Y2032145D2*
X669821D1*
X702891D2*
X713393D1*
X731825D2*
X742504D1*
X786185D2*
X796736D1*
X827781D2*
X855064D1*
X892273D2*
X903807D1*
X936755D2*
X947255D1*
X1052257D2*
X1062761D1*
X1130261D2*
X1140820D1*
X1208257D2*
X1218761D1*
X1328182D2*
X1338690D1*
X1360273D2*
X1371807D1*
X1404755D2*
X1415255D1*
X659308Y2030645D2*
X669554D1*
X703319D2*
X713820D1*
X732463D2*
X743133D1*
X785546D2*
X796237D1*
X825239D2*
X857673D1*
X892060D2*
X903774D1*
X936755D2*
X947255D1*
X1052255D2*
X1062757D1*
X1130314D2*
X1141013D1*
X1208255D2*
X1218757D1*
X1327944D2*
X1338503D1*
X1360060D2*
X1371774D1*
X1404755D2*
X1415255D1*
X659049Y2029145D2*
X669164D1*
X703732D2*
X714232D1*
X733113D2*
X743764D1*
X784896D2*
X795756D1*
X823186D2*
X859776D1*
X892111D2*
X903762D1*
X936755D2*
X947255D1*
X1052261D2*
X1062761D1*
X1130510D2*
X1141423D1*
X1208261D2*
X1218761D1*
X1327389D2*
X1338139D1*
X1360111D2*
X1371762D1*
X1404755D2*
X1415255D1*
X658662Y2027645D2*
X668768D1*
X704004D2*
X714504D1*
X733697D2*
X744436D1*
X784312D2*
X795197D1*
X821435D2*
X861554D1*
X892406D2*
X903763D1*
X936755D2*
X947255D1*
X1052313D2*
X1062814D1*
X1130922D2*
X1142004D1*
X1208313D2*
X1218814D1*
X1326582D2*
X1337702D1*
X1360406D2*
X1371763D1*
X1404755D2*
X1415255D1*
X658267Y2026145D2*
X668502D1*
X704147D2*
X714647D1*
X734217D2*
X745102D1*
X783793D2*
X794555D1*
X819880D2*
X863122D1*
X892770D2*
X903814D1*
X936755D2*
X947255D1*
X1052505D2*
X1063010D1*
X1131504D2*
X1142689D1*
X1208505D2*
X1219010D1*
X1325627D2*
X1337244D1*
X1360770D2*
X1371814D1*
X1404755D2*
X1415255D1*
X658002Y2024645D2*
X668361D1*
X704212D2*
X714712D1*
X734748D2*
X745693D1*
X783262D2*
X793901D1*
X818534D2*
X833550D1*
X849686D2*
X864472D1*
X893074D2*
X904011D1*
X936755D2*
X947255D1*
X1052870D2*
X1063422D1*
X1132183D2*
X1143516D1*
X1208870D2*
X1219422D1*
X1324368D2*
X1336693D1*
X1361074D2*
X1372011D1*
X1404755D2*
X1415255D1*
X657861Y2023145D2*
X668297D1*
X704239D2*
X714739D1*
X735259D2*
X746215D1*
X782750D2*
X793314D1*
X817431D2*
X831178D1*
X852382D2*
X865578D1*
X893401D2*
X904428D1*
X936755D2*
X947255D1*
X1053307D2*
X1064004D1*
X1132957D2*
X1144659D1*
X1209307D2*
X1220004D1*
X1322563D2*
X1336048D1*
X1361401D2*
X1372428D1*
X1404755D2*
X1415255D1*
X657797Y2021645D2*
X668271D1*
X704249D2*
X714749D1*
X735748D2*
X746747D1*
X782268D2*
X792794D1*
X816507D2*
X829229D1*
X854576D2*
X866502D1*
X893828D2*
X905063D1*
X936755D2*
X947255D1*
X1053766D2*
X1064678D1*
X1133897D2*
X1146388D1*
X1209766D2*
X1220678D1*
X1320218D2*
X1335342D1*
X1361828D2*
X1373063D1*
X1404755D2*
X1415255D1*
X657771Y2020145D2*
X668260D1*
X704253D2*
X714753D1*
X736310D2*
X747259D1*
X781752D2*
X792262D1*
X815684D2*
X827682D1*
X856170D2*
X867331D1*
X894297D2*
X905939D1*
X936755D2*
X947255D1*
X1054317D2*
X1065398D1*
X1135115D2*
X1149192D1*
X1210317D2*
X1221398D1*
X1317473D2*
X1334552D1*
X1362297D2*
X1373939D1*
X1404755D2*
X1415255D1*
X657760Y2018645D2*
X668257D1*
X704254D2*
X714754D1*
X736954D2*
X747742D1*
X781247D2*
X791751D1*
X814957D2*
X826494D1*
X857334D2*
X868111D1*
X894819D2*
X907136D1*
X936755D2*
X947255D1*
X1054962D2*
X1066141D1*
X1136699D2*
X1154081D1*
X1210962D2*
X1222141D1*
X1314363D2*
X1333562D1*
X1362819D2*
X1375136D1*
X1404755D2*
X1415255D1*
X657757Y2017145D2*
X668255D1*
X704255D2*
X714760D1*
X737608D2*
X748258D1*
X780760D2*
X791262D1*
X814385D2*
X825587D1*
X858260D2*
X868868D1*
X895570D2*
X908763D1*
X936755D2*
X947255D1*
X1055668D2*
X1066941D1*
X1138790D2*
X1161651D1*
X1211668D2*
X1222941D1*
X1310866D2*
X1332204D1*
X1363570D2*
X1376763D1*
X1404755D2*
X1415255D1*
X657755Y2015645D2*
X668255D1*
X704255D2*
X714813D1*
X738195D2*
X748763D1*
X780199D2*
X790699D1*
X813992D2*
X824942D1*
X859028D2*
X869568D1*
X896629D2*
X911042D1*
X936755D2*
X947255D1*
X1056451D2*
X1067886D1*
X1141483D2*
X1170755D1*
X1212451D2*
X1223886D1*
X1307142D2*
X1330457D1*
X1364629D2*
X1379042D1*
X1404755D2*
X1415255D1*
X657755Y2014145D2*
X668255D1*
X704255D2*
X714999D1*
X738716D2*
X749249D1*
X779556D2*
X790056D1*
X813629D2*
X824569D1*
X859616D2*
X870130D1*
X897911D2*
X914106D1*
X936755D2*
X947255D1*
X1057383D2*
X1069042D1*
X1144727D2*
X1170755D1*
X1213383D2*
X1225042D1*
X1303502D2*
X1328398D1*
X1365911D2*
X1382106D1*
X1404755D2*
X1415255D1*
X657755Y2012645D2*
X668255D1*
X704255D2*
X715305D1*
X739248D2*
X749811D1*
X778901D2*
X789401D1*
X813194D2*
X824386D1*
X860015D2*
X870520D1*
X899321D2*
X917797D1*
X936755D2*
X947255D1*
X1058491D2*
X1070320D1*
X1148255D2*
X1170749D1*
X1214491D2*
X1226320D1*
X1300110D2*
X1326058D1*
X1367321D2*
X1385797D1*
X1404755D2*
X1415255D1*
X657755Y2011145D2*
X668255D1*
X704255D2*
X715499D1*
X739759D2*
X750454D1*
X778314D2*
X788814D1*
X812779D2*
X824306D1*
X860379D2*
X870881D1*
X900842D2*
X947255D1*
X1059629D2*
X1071553D1*
X1144113D2*
X1170692D1*
X1215629D2*
X1227553D1*
X1296967D2*
X1323431D1*
X1368842D2*
X1415255D1*
X657755Y2009645D2*
X668255D1*
X704255D2*
X715401D1*
X740248D2*
X751108D1*
X777794D2*
X788294D1*
X812506D2*
X824274D1*
X860815D2*
X871315D1*
X902565D2*
X947255D1*
X1060694D2*
X1072664D1*
X1140486D2*
X1170460D1*
X1216694D2*
X1228664D1*
X1294127D2*
X1320558D1*
X1370565D2*
X1415255D1*
X657755Y2008145D2*
X668255D1*
X704255D2*
X715156D1*
X740810D2*
X751695D1*
X777262D2*
X787762D1*
X812363D2*
X824261D1*
X861234D2*
X871730D1*
X904546D2*
X947255D1*
X1061779D2*
X1073768D1*
X1137593D2*
X1169947D1*
X1217779D2*
X1229768D1*
X1291699D2*
X1317395D1*
X1372546D2*
X1415255D1*
X657755Y2006645D2*
X668255D1*
X704255D2*
X714958D1*
X741454D2*
X752216D1*
X776751D2*
X787251D1*
X812298D2*
X824257D1*
X861531D2*
X872004D1*
X906485D2*
X947255D1*
X1063000D2*
X1075002D1*
X1135343D2*
X1169255D1*
X1219000D2*
X1231002D1*
X1289679D2*
X1313877D1*
X1374485D2*
X1415255D1*
X657755Y2005145D2*
X668255D1*
X704255D2*
X714845D1*
X742108D2*
X752748D1*
X776268D2*
X786762D1*
X812271D2*
X872147D1*
X908124D2*
X947255D1*
X1064304D2*
X1076361D1*
X1133499D2*
X1150293D1*
X1220304D2*
X1232361D1*
X1287935D2*
X1310146D1*
X1376124D2*
X1415255D1*
X657755Y2003645D2*
X668255D1*
X704255D2*
X714791D1*
X742695D2*
X753259D1*
X775752D2*
X786199D1*
X812261D2*
X872212D1*
X908566D2*
X947255D1*
X1065548D2*
X1077791D1*
X1131910D2*
X1146899D1*
X1221548D2*
X1233791D1*
X1286381D2*
X1306510D1*
X1376566D2*
X1415255D1*
X657755Y2002145D2*
X668255D1*
X704255D2*
X714769D1*
X743222D2*
X753742D1*
X775247D2*
X785556D1*
X812263D2*
X872239D1*
X908247D2*
X947255D1*
X1066662D2*
X1079212D1*
X1130596D2*
X1144232D1*
X1222662D2*
X1235212D1*
X1285035D2*
X1303169D1*
X1376247D2*
X1415255D1*
X657755Y2000645D2*
X668255D1*
X704255D2*
X714760D1*
X743800D2*
X754258D1*
X774760D2*
X784901D1*
X812318D2*
X872249D1*
X907717D2*
X920487D1*
X936755D2*
X947255D1*
X1067767D2*
X1080511D1*
X1129631D2*
X1142272D1*
X1223767D2*
X1236511D1*
X1283937D2*
X1300217D1*
X1375717D2*
X1388487D1*
X1404755D2*
X1415255D1*
X657755Y1999145D2*
X668255D1*
X704255D2*
X714757D1*
X744450D2*
X754763D1*
X774199D2*
X784314D1*
X812550D2*
X872253D1*
X907017D2*
X919364D1*
X936755D2*
X947255D1*
X1069002D2*
X1081648D1*
X1128926D2*
X1140881D1*
X1225002D2*
X1237648D1*
X1283066D2*
X1297742D1*
X1375017D2*
X1387364D1*
X1404755D2*
X1415255D1*
X657761Y1997645D2*
X668261D1*
X704255D2*
X714750D1*
X745107D2*
X755249D1*
X773556D2*
X783794D1*
X813062D2*
X872254D1*
X906162D2*
X918305D1*
X936755D2*
X947255D1*
X1070361D2*
X1082762D1*
X1128319D2*
X1139838D1*
X1226361D2*
X1238762D1*
X1282428D2*
X1295757D1*
X1374162D2*
X1386305D1*
X1404755D2*
X1415255D1*
X657813Y1996145D2*
X668313D1*
X704249D2*
X714696D1*
X745695D2*
X755811D1*
X772901D2*
X783262D1*
X813755D2*
X872255D1*
X905210D2*
X917265D1*
X936755D2*
X947255D1*
X1071797D2*
X1084000D1*
X1127828D2*
X1139016D1*
X1227797D2*
X1240000D1*
X1282008D2*
X1294243D1*
X1373210D2*
X1385265D1*
X1404755D2*
X1415255D1*
X658005Y1994645D2*
X668505D1*
X704196D2*
X714505D1*
X746216D2*
X756454D1*
X772314D2*
X782751D1*
X861749D2*
X872249D1*
X904296D2*
X916317D1*
X936755D2*
X947255D1*
X1073271D2*
X1085361D1*
X1127524D2*
X1138413D1*
X1229271D2*
X1241361D1*
X1281635D2*
X1293188D1*
X1372296D2*
X1384317D1*
X1404755D2*
X1415255D1*
X658364Y1993145D2*
X668864D1*
X704005D2*
X714146D1*
X746748D2*
X757108D1*
X771794D2*
X782262D1*
X861696D2*
X872196D1*
X903449D2*
X915456D1*
X936755D2*
X947255D1*
X1074760D2*
X1086797D1*
X1127369D2*
X1138058D1*
X1230760D2*
X1242797D1*
X1281196D2*
X1292447D1*
X1371449D2*
X1383456D1*
X1404755D2*
X1415255D1*
X658748Y1991645D2*
X669248D1*
X703646D2*
X713761D1*
X747259D2*
X757695D1*
X771262D2*
X781699D1*
X861505D2*
X872005D1*
X902607D2*
X914609D1*
X936755D2*
X947255D1*
X1076257D2*
X1088271D1*
X1127300D2*
X1137882D1*
X1232257D2*
X1244271D1*
X1280780D2*
X1291827D1*
X1370607D2*
X1382609D1*
X1404755D2*
X1415255D1*
X659016Y1990145D2*
X669516D1*
X703255D2*
X713494D1*
X747748D2*
X758216D1*
X770751D2*
X781056D1*
X861140D2*
X871646D1*
X901695D2*
X913696D1*
X936755D2*
X947255D1*
X1077755D2*
X1089760D1*
X1127272D2*
X1137804D1*
X1233755D2*
X1245760D1*
X1280512D2*
X1291336D1*
X1369695D2*
X1381696D1*
X1404755D2*
X1415255D1*
X659208Y1988645D2*
X669708D1*
X702941D2*
X713302D1*
X748310D2*
X758742D1*
X770268D2*
X780401D1*
X860703D2*
X871255D1*
X900716D2*
X912722D1*
X936755D2*
X947255D1*
X1079255D2*
X1091257D1*
X1127261D2*
X1137779D1*
X1235255D2*
X1247257D1*
X1280421D2*
X1291083D1*
X1368716D2*
X1380722D1*
X1404755D2*
X1415255D1*
X659462Y1987145D2*
X669968D1*
X702611D2*
X713047D1*
X748954D2*
X759206D1*
X769752D2*
X779814D1*
X860244D2*
X870941D1*
X899747D2*
X911800D1*
X936755D2*
X947255D1*
X1080749D2*
X1092755D1*
X1127263D2*
X1137820D1*
X1236749D2*
X1248755D1*
X1280547D2*
X1291119D1*
X1367747D2*
X1379800D1*
X1404755D2*
X1415255D1*
X659854Y1985645D2*
X670407D1*
X702182D2*
X712656D1*
X749608D2*
X759551D1*
X769247D2*
X779294D1*
X859693D2*
X870605D1*
X898759D2*
X910956D1*
X936755D2*
X947255D1*
X1082196D2*
X1094255D1*
X1127314D2*
X1138013D1*
X1238196D2*
X1250255D1*
X1280880D2*
X1291415D1*
X1366759D2*
X1378956D1*
X1404755D2*
X1415255D1*
X660301Y1984145D2*
X670998D1*
X701713D2*
X712208D1*
X750195D2*
X759893D1*
X768766D2*
X778762D1*
X859048D2*
X870129D1*
X897748D2*
X910160D1*
X936755D2*
X947255D1*
X1083505D2*
X1095749D1*
X1127505D2*
X1138429D1*
X1239505D2*
X1251749D1*
X1281260D2*
X1291830D1*
X1365748D2*
X1378160D1*
X1404755D2*
X1415255D1*
X660764Y1982645D2*
X671682D1*
X701197D2*
X711746D1*
X750716D2*
X760325D1*
X768251D2*
X778251D1*
X858342D2*
X869521D1*
X896810D2*
X909386D1*
X936755D2*
X947255D1*
X1084646D2*
X1097196D1*
X1127870D2*
X1139063D1*
X1240646D2*
X1253196D1*
X1281571D2*
X1292330D1*
X1364810D2*
X1377386D1*
X1404755D2*
X1415255D1*
X661316Y1981145D2*
X672456D1*
X700492D2*
X711194D1*
X751248D2*
X760791D1*
X767747D2*
X777762D1*
X857552D2*
X868838D1*
X895954D2*
X908581D1*
X936755D2*
X947255D1*
X1085761D2*
X1098505D1*
X1128307D2*
X1139933D1*
X1241761D2*
X1254505D1*
X1281905D2*
X1293080D1*
X1363954D2*
X1376581D1*
X1404755D2*
X1415255D1*
X661962Y1979645D2*
X673397D1*
X699572D2*
X710548D1*
X751759D2*
X761254D1*
X767266D2*
X777199D1*
X856556D2*
X868113D1*
X895108D2*
X907685D1*
X936755D2*
X947255D1*
X1087000D2*
X1099646D1*
X1128766D2*
X1141078D1*
X1243000D2*
X1255646D1*
X1282381D2*
X1294201D1*
X1363108D2*
X1375685D1*
X1404755D2*
X1415255D1*
X662668Y1978145D2*
X674661D1*
X698411D2*
X709842D1*
X752248D2*
X761762D1*
X766751D2*
X776556D1*
X855146D2*
X867369D1*
X894195D2*
X906718D1*
X936755D2*
X947255D1*
X1088360D2*
X1100755D1*
X1129323D2*
X1142514D1*
X1244360D2*
X1256755D1*
X1282988D2*
X1295790D1*
X1362195D2*
X1374718D1*
X1404755D2*
X1415255D1*
X663445Y1976645D2*
X676233D1*
X696985D2*
X709058D1*
X752810D2*
X762269D1*
X766242D2*
X775901D1*
X853208D2*
X866569D1*
X893222D2*
X905799D1*
X936755D2*
X947255D1*
X1089797D2*
X1101935D1*
X1130021D2*
X1144433D1*
X1181255D2*
X1184255D1*
X1245797D2*
X1257935D1*
X1283678D2*
X1298053D1*
X1337255D2*
X1340255D1*
X1361222D2*
X1373799D1*
X1404755D2*
X1415255D1*
X664331Y1975145D2*
X680463D1*
X693235D2*
X708126D1*
X753454D2*
X762790D1*
X765720D2*
X775314D1*
X816755D2*
X821255D1*
X850791D2*
X865624D1*
X892300D2*
X904950D1*
X936755D2*
X947255D1*
X1091270D2*
X1103046D1*
X1130917D2*
X1147108D1*
X1176651D2*
X1184255D1*
X1247270D2*
X1259046D1*
X1284455D2*
X1301110D1*
X1331151D2*
X1340255D1*
X1360300D2*
X1372950D1*
X1404755D2*
X1415255D1*
X665306Y1973645D2*
X687080D1*
X687434D2*
X707013D1*
X754108D2*
X763460D1*
X765049D2*
X774794D1*
X816755D2*
X827255D1*
X848079D2*
X864456D1*
X891450D2*
X904107D1*
X936755D2*
X947255D1*
X1047755D2*
X1103874D1*
X1132066D2*
X1150515D1*
X1171578D2*
X1184255D1*
X1203755D2*
X1259874D1*
X1285396D2*
X1304798D1*
X1324578D2*
X1340255D1*
X1359450D2*
X1372107D1*
X1404755D2*
X1415255D1*
X666329Y1972145D2*
X705822D1*
X754695D2*
X774262D1*
X816761D2*
X863073D1*
X890607D2*
X903195D1*
X936755D2*
X947255D1*
X1047755D2*
X1104354D1*
X1133441D2*
X1184249D1*
X1203755D2*
X1260354D1*
X1286614D2*
X1340249D1*
X1358607D2*
X1371195D1*
X1404755D2*
X1415255D1*
X667565Y1970645D2*
X704560D1*
X755216D2*
X773751D1*
X816831D2*
X861445D1*
X889695D2*
X902221D1*
X936755D2*
X947255D1*
X1047755D2*
X1104588D1*
X1135066D2*
X1184179D1*
X1203755D2*
X1260588D1*
X1288193D2*
X1340179D1*
X1357695D2*
X1370221D1*
X1404755D2*
X1415255D1*
X669197Y1969145D2*
X703057D1*
X755742D2*
X773266D1*
X817007D2*
X859499D1*
X888717D2*
X901305D1*
X936755D2*
X947255D1*
X1047755D2*
X1104690D1*
X1137017D2*
X1184003D1*
X1203755D2*
X1260690D1*
X1290238D2*
X1340003D1*
X1356717D2*
X1369305D1*
X1404755D2*
X1415255D1*
X671237Y1967645D2*
X701196D1*
X756205D2*
X772744D1*
X817971D2*
X857127D1*
X887756D2*
X900499D1*
X936755D2*
X947255D1*
X1047755D2*
X1104731D1*
X1139446D2*
X1183039D1*
X1203755D2*
X1260731D1*
X1292816D2*
X1339016D1*
X1355756D2*
X1368499D1*
X1404755D2*
X1415255D1*
X673768Y1966145D2*
X698973D1*
X756520D2*
X772227D1*
X820700D2*
X854161D1*
X886779D2*
X899828D1*
X936755D2*
X947255D1*
X1047755D2*
X1104747D1*
X1142643D2*
X1180309D1*
X1203755D2*
X1260747D1*
X1296022D2*
X1336024D1*
X1354779D2*
X1367828D1*
X1404755D2*
X1415255D1*
X676858Y1964645D2*
X696435D1*
X756755D2*
X771755D1*
X824450D2*
X850597D1*
X885755D2*
X899255D1*
X936755D2*
X947255D1*
X1047755D2*
X1104755D1*
X1146720D2*
X1176560D1*
X1203755D2*
X1260755D1*
X1299934D2*
X1331755D1*
X1353755D2*
X1367255D1*
X1404755D2*
X1415255D1*
X680255Y1963145D2*
X693755D1*
X828755D2*
X846755D1*
X1151255D2*
X1172255D1*
X1304255D2*
X1326755D1*
X1155522Y1166847D2*
X1160022D1*
X1154137Y1165347D2*
X1161221D1*
X1153111Y1163847D2*
X1162218D1*
X1152861Y1162347D2*
X1162526D1*
X1152804Y1160847D2*
X1162160D1*
X1153446Y1159347D2*
X1161550D1*
X1154404Y1157847D2*
X1160147D1*
X1155522Y1156347D2*
X1158522D1*
X1131522Y1141347D2*
X1145022D1*
X1128817Y1139847D2*
X1147727D1*
X1126439Y1138347D2*
X1150104D1*
X1124443Y1136847D2*
X1152101D1*
X1122752Y1135347D2*
X1153792D1*
X1121344Y1133847D2*
X1134880D1*
X1141664D2*
X1155200D1*
X1120214Y1132347D2*
X1131253D1*
X1145290D2*
X1156330D1*
X1119279Y1130847D2*
X1128366D1*
X1148183D2*
X1157264D1*
X1118453Y1129347D2*
X1126169D1*
X1150428D2*
X1158090D1*
X1117725Y1127847D2*
X1124516D1*
X1152219D2*
X1158825D1*
X1117158Y1126347D2*
X1123286D1*
X1153617D2*
X1159444D1*
X1116817Y1124847D2*
X1122362D1*
X1154572D2*
X1159976D1*
X1116646Y1123347D2*
X1121712D1*
X1155152D2*
X1160506D1*
X1116570Y1121847D2*
X1121337D1*
X1155590D2*
X1160967D1*
X1116540Y1120347D2*
X1121153D1*
X1156005D2*
X1161259D1*
X1116528Y1118847D2*
X1121073D1*
X1156241D2*
X1161404D1*
X1116524Y1117347D2*
X1121046D1*
X1156159D2*
X1161419D1*
X1116522Y1115847D2*
X1121087D1*
X1155914D2*
X1161256D1*
X1116528Y1114347D2*
X1121280D1*
X1155659D2*
X1160901D1*
X1116580Y1112847D2*
X1121696D1*
X1155297D2*
X1160468D1*
X1116777Y1111347D2*
X1122330D1*
X1154635D2*
X1160010D1*
X1117189Y1109847D2*
X1123206D1*
X1153619D2*
X1159460D1*
X1117771Y1108347D2*
X1124403D1*
X1152343D2*
X1158815D1*
X1118450Y1106847D2*
X1126060D1*
X1150799D2*
X1158109D1*
X1119224Y1105347D2*
X1128624D1*
X1148555D2*
X1157325D1*
X1120158Y1103847D2*
X1132847D1*
X1144704D2*
X1156387D1*
X1121323Y1102347D2*
X1139102D1*
X1138728D2*
X1155227D1*
X1122711Y1100847D2*
X1153886D1*
X1124384Y1099347D2*
X1152347D1*
X1126457Y1097847D2*
X1150414D1*
X1128905Y1096347D2*
X1147901D1*
X1131522Y1094847D2*
X1145022D1*
X1118022Y1081347D2*
X1161522D1*
X1118039Y1079847D2*
X1161522D1*
X1118211Y1078347D2*
X1161522D1*
X1118619Y1076847D2*
X1161522D1*
X1120373Y1075347D2*
X1161522D1*
X1122522Y1073847D2*
X1133906D1*
X1121259Y1072347D2*
X1129780D1*
X1120184Y1070847D2*
X1126826D1*
X1119269Y1069347D2*
X1124792D1*
X1118450Y1067847D2*
X1123394D1*
X1117724Y1066347D2*
X1122402D1*
X1117158Y1064847D2*
X1121726D1*
X1116817Y1063347D2*
X1121342D1*
X1116646Y1061847D2*
X1121155D1*
X1116570Y1060347D2*
X1121079D1*
X1116540Y1058847D2*
X1121099D1*
X1116528Y1057347D2*
X1121284D1*
X1116524Y1055847D2*
X1121703D1*
X1116528Y1054347D2*
X1122395D1*
X1116586Y1052847D2*
X1123514D1*
X1116830Y1051347D2*
X1125249D1*
X1117386Y1049847D2*
X1127518D1*
X1118195Y1048347D2*
X1161522D1*
X1119161Y1046847D2*
X1161516D1*
X1120534Y1045347D2*
X1161459D1*
X1122797Y1043847D2*
X1161227D1*
X1126119Y1042347D2*
X1160714D1*
X1130022Y1040847D2*
X1160022D1*
X1086522Y1025847D2*
X1160022D1*
X1086522Y1024347D2*
X1160714D1*
X1086522Y1022847D2*
X1161145D1*
X1086522Y1021347D2*
X1161363D1*
X1086522Y1019847D2*
X1161464D1*
X1086522Y1018347D2*
X1161522D1*
X1094022Y1003347D2*
X1097022D1*
X1092817Y1001847D2*
X1097940D1*
X1118022D2*
X1160022D1*
X1091939Y1000347D2*
X1098690D1*
X1118022D2*
X1160714D1*
X1091449Y998847D2*
X1099262D1*
X1118022D2*
X1161145D1*
X1091184Y997347D2*
X1099083D1*
X1118022D2*
X1161363D1*
X1091460Y995847D2*
X1098611D1*
X1118022D2*
X1161464D1*
X1092606Y994347D2*
X1097888D1*
X1118022D2*
X1161522D1*
X1094022Y992847D2*
X1097022D1*
X1118022Y977847D2*
X1161522D1*
X1118039Y976347D2*
X1161522D1*
X1118211Y974847D2*
X1161522D1*
X1118619Y973347D2*
X1161522D1*
X1120373Y971847D2*
X1161522D1*
X1122522Y970347D2*
X1133906D1*
X1121259Y968847D2*
X1129780D1*
X1120184Y967347D2*
X1126826D1*
X1119269Y965847D2*
X1124792D1*
X1118450Y964347D2*
X1123394D1*
X1117724Y962847D2*
X1122402D1*
X1117158Y961347D2*
X1121726D1*
X1116817Y959847D2*
X1121342D1*
X1116646Y958347D2*
X1121155D1*
X1116570Y956847D2*
X1121079D1*
X1116540Y955347D2*
X1121099D1*
X1116528Y953847D2*
X1121284D1*
X1116524Y952347D2*
X1121703D1*
X1116528Y950847D2*
X1122395D1*
X1116586Y949347D2*
X1123514D1*
X1116830Y947847D2*
X1125249D1*
X1117386Y946347D2*
X1127518D1*
X1118195Y944847D2*
X1161522D1*
X1119161Y943347D2*
X1161516D1*
X1120534Y941847D2*
X1161459D1*
X1122797Y940347D2*
X1161227D1*
X1126119Y938847D2*
X1160714D1*
X1130022Y937347D2*
X1160022D1*
X1130022Y925347D2*
X1146522D1*
X1127317Y923847D2*
X1149227D1*
X1124945Y922347D2*
X1151604D1*
X1122996Y920847D2*
X1153601D1*
X1121449Y919347D2*
X1155292D1*
X1120256Y917847D2*
X1140522D1*
X1144432D2*
X1156700D1*
X1119295Y916347D2*
X1128822D1*
X1136022D2*
X1140522D1*
X1147687D2*
X1157824D1*
X1118459Y914847D2*
X1126498D1*
X1136022D2*
X1140522D1*
X1150186D2*
X1158705D1*
X1117727Y913347D2*
X1124693D1*
X1136022D2*
X1140522D1*
X1152114D2*
X1159346D1*
X1117159Y911847D2*
X1123367D1*
X1136022D2*
X1140522D1*
X1153575D2*
X1159768D1*
X1116817Y910347D2*
X1122396D1*
X1136022D2*
X1140522D1*
X1154713D2*
X1160141D1*
X1116646Y908847D2*
X1121724D1*
X1136022D2*
X1140522D1*
X1155186D2*
X1160580D1*
X1116570Y907347D2*
X1121341D1*
X1136022D2*
X1140522D1*
X1155598D2*
X1160997D1*
X1116540Y905847D2*
X1121155D1*
X1136022D2*
X1140522D1*
X1156006D2*
X1161270D1*
X1116528Y904347D2*
X1121079D1*
X1136022D2*
X1140522D1*
X1156241D2*
X1161408D1*
X1116524Y902847D2*
X1121099D1*
X1136022D2*
X1140522D1*
X1156154D2*
X1161420D1*
X1116528Y901347D2*
X1121284D1*
X1136022D2*
X1140522D1*
X1155861D2*
X1161256D1*
X1116581Y899847D2*
X1121697D1*
X1136022D2*
X1140522D1*
X1155468D2*
X1160901D1*
X1116777Y898347D2*
X1122336D1*
X1136022D2*
X1140522D1*
X1154938D2*
X1160468D1*
X1117189Y896847D2*
X1123288D1*
X1135998D2*
X1140522D1*
X1154250D2*
X1160010D1*
X1117771Y895347D2*
X1124559D1*
X1135928D2*
X1140522D1*
X1153351D2*
X1159460D1*
X1118450Y893847D2*
X1127663D1*
X1135225D2*
X1140522D1*
X1152163D2*
X1158815D1*
X1119230Y892347D2*
X1132155D1*
X1132887D2*
X1140522D1*
X1150714D2*
X1158109D1*
X1120223Y890847D2*
X1140522D1*
X1149236D2*
X1157325D1*
X1121631Y889347D2*
X1140522D1*
X1147943D2*
X1156387D1*
X1123569Y887847D2*
X1140522D1*
X1147612D2*
X1155228D1*
X1125985Y886347D2*
X1140522D1*
X1147798D2*
X1153908D1*
X1128698Y884847D2*
X1140522D1*
X1148022D2*
X1152522D1*
X1131522Y883347D2*
X1140522D1*
X1074363Y2528958D2*
X1081863D1*
X1119363D2*
X1128363D1*
X1161363D2*
X1170363D1*
X1206363D2*
X1216863D1*
X1072233Y2527458D2*
X1084117D1*
X1090863D2*
X1095363D1*
X1116715D2*
X1131248D1*
X1159407D2*
X1172836D1*
X1177863D2*
X1182363D1*
X1204176D2*
X1219511D1*
X1070548Y2525958D2*
X1086282D1*
X1090587D2*
X1095363D1*
X1114536D2*
X1133603D1*
X1157659D2*
X1175327D1*
X1177160D2*
X1182363D1*
X1202298D2*
X1221690D1*
X1069386Y2524458D2*
X1088524D1*
X1090061D2*
X1095363D1*
X1112946D2*
X1135487D1*
X1156287D2*
X1182363D1*
X1200777D2*
X1223280D1*
X1068592Y2522958D2*
X1075926D1*
X1084857D2*
X1095363D1*
X1111784D2*
X1119715D1*
X1128062D2*
X1136983D1*
X1155221D2*
X1162869D1*
X1171857D2*
X1182363D1*
X1199593D2*
X1208215D1*
X1216857D2*
X1224442D1*
X1067949Y2521458D2*
X1074677D1*
X1086298D2*
X1095363D1*
X1110858D2*
X1117536D1*
X1130387D2*
X1138143D1*
X1154335D2*
X1161427D1*
X1173298D2*
X1182363D1*
X1198635D2*
X1206036D1*
X1218298D2*
X1225368D1*
X1067444Y2519958D2*
X1073780D1*
X1087554D2*
X1095363D1*
X1110089D2*
X1115951D1*
X1132192D2*
X1139045D1*
X1153581D2*
X1160177D1*
X1174554D2*
X1182363D1*
X1197800D2*
X1204451D1*
X1219554D2*
X1226136D1*
X1067135Y2518458D2*
X1073221D1*
X1088498D2*
X1095363D1*
X1109508D2*
X1114842D1*
X1133518D2*
X1139737D1*
X1153005D2*
X1159280D1*
X1175498D2*
X1182363D1*
X1197068D2*
X1203342D1*
X1220498D2*
X1226718D1*
X1066978Y2516958D2*
X1072785D1*
X1089196D2*
X1095363D1*
X1109161D2*
X1114107D1*
X1134489D2*
X1140300D1*
X1152660D2*
X1158721D1*
X1176196D2*
X1182363D1*
X1196500D2*
X1202607D1*
X1221196D2*
X1227070D1*
X1066908Y2515458D2*
X1072320D1*
X1089800D2*
X1095363D1*
X1108982D2*
X1113697D1*
X1135165D2*
X1140841D1*
X1152488D2*
X1158285D1*
X1176800D2*
X1182363D1*
X1196158D2*
X1202198D1*
X1221800D2*
X1227296D1*
X1066880Y2513958D2*
X1071894D1*
X1090290D2*
X1095363D1*
X1108853D2*
X1113491D1*
X1135575D2*
X1141306D1*
X1152412D2*
X1157820D1*
X1177290D2*
X1182363D1*
X1195987D2*
X1202001D1*
X1222290D2*
X1227564D1*
X1066869Y2512458D2*
X1071616D1*
X1090594D2*
X1095363D1*
X1108630D2*
X1141599D1*
X1152381D2*
X1157394D1*
X1177594D2*
X1182363D1*
X1195912D2*
X1201916D1*
X1222594D2*
X1227954D1*
X1066865Y2510958D2*
X1071471D1*
X1090749D2*
X1095363D1*
X1108246D2*
X1141751D1*
X1152369D2*
X1157116D1*
X1177749D2*
X1182363D1*
X1195881D2*
X1201882D1*
X1222749D2*
X1228344D1*
X1066864Y2509458D2*
X1071406D1*
X1090818D2*
X1095363D1*
X1107796D2*
X1141819D1*
X1152365D2*
X1156977D1*
X1177818D2*
X1182363D1*
X1195869D2*
X1201870D1*
X1222818D2*
X1228557D1*
X1066863Y2507958D2*
X1071379D1*
X1090846D2*
X1095363D1*
X1107363D2*
X1141840D1*
X1152364D2*
X1156964D1*
X1177840D2*
X1182363D1*
X1195865D2*
X1201865D1*
X1222840D2*
X1228507D1*
X1066863Y2506458D2*
X1071369D1*
X1090857D2*
X1095363D1*
X1135857D2*
X1141798D1*
X1152363D2*
X1157129D1*
X1177798D2*
X1182363D1*
X1195864D2*
X1201864D1*
X1222798D2*
X1228212D1*
X1066863Y2504958D2*
X1071365D1*
X1090861D2*
X1095363D1*
X1135804D2*
X1141611D1*
X1152363D2*
X1157478D1*
X1177611D2*
X1182363D1*
X1195869D2*
X1201869D1*
X1222611D2*
X1227853D1*
X1066863Y2503458D2*
X1071363D1*
X1090862D2*
X1095363D1*
X1135607D2*
X1141247D1*
X1152369D2*
X1157864D1*
X1177247D2*
X1182363D1*
X1195921D2*
X1201922D1*
X1222247D2*
X1227596D1*
X1066863Y2501958D2*
X1071363D1*
X1090863D2*
X1095363D1*
X1135189D2*
X1140810D1*
X1152421D2*
X1158183D1*
X1176805D2*
X1182363D1*
X1196118D2*
X1202118D1*
X1221805D2*
X1227408D1*
X1066863Y2500458D2*
X1071363D1*
X1090863D2*
X1095363D1*
X1134549D2*
X1140352D1*
X1152618D2*
X1158572D1*
X1176293D2*
X1182363D1*
X1196530D2*
X1202542D1*
X1221293D2*
X1227149D1*
X1066863Y2498958D2*
X1071363D1*
X1090863D2*
X1095363D1*
X1133585D2*
X1139795D1*
X1153030D2*
X1159273D1*
X1175516D2*
X1182363D1*
X1197112D2*
X1203264D1*
X1220516D2*
X1226711D1*
X1066863Y2497458D2*
X1071363D1*
X1090863D2*
X1095363D1*
X1132279D2*
X1139097D1*
X1153612D2*
X1160285D1*
X1174458D2*
X1182363D1*
X1197792D2*
X1204269D1*
X1219458D2*
X1226119D1*
X1066863Y2495958D2*
X1071363D1*
X1090863D2*
X1095363D1*
X1108863D2*
X1113363D1*
X1128652D2*
X1138200D1*
X1154297D2*
X1162929D1*
X1171804D2*
X1182363D1*
X1198565D2*
X1207464D1*
X1216804D2*
X1225430D1*
X1066863Y2494458D2*
X1071363D1*
X1090863D2*
X1095363D1*
X1109085D2*
X1122082D1*
X1123119D2*
X1137046D1*
X1155124D2*
X1166943D1*
X1167786D2*
X1182363D1*
X1199505D2*
X1212372D1*
X1212786D2*
X1224597D1*
X1066863Y2492958D2*
X1071363D1*
X1090863D2*
X1095363D1*
X1109872D2*
X1135609D1*
X1156250D2*
X1182363D1*
X1200721D2*
X1223413D1*
X1066863Y2491458D2*
X1071363D1*
X1090863D2*
X1095363D1*
X1111917D2*
X1133723D1*
X1157780D2*
X1174587D1*
X1177863D2*
X1182363D1*
X1202282D2*
X1221651D1*
X1066863Y2489958D2*
X1071363D1*
X1090863D2*
X1095363D1*
X1114688D2*
X1131230D1*
X1159546D2*
X1172561D1*
X1177863D2*
X1182363D1*
X1204216D2*
X1219372D1*
X1117863Y2488458D2*
X1128363D1*
X1161363D2*
X1170363D1*
X1177863D2*
X1182363D1*
X1206363D2*
X1216863D1*
X1177863Y2486958D2*
X1182363D1*
X1177863Y2485458D2*
X1182363D1*
X1177863Y2483958D2*
X1182363D1*
X1177863Y2482458D2*
X1182363D1*
X1177863Y2480958D2*
X1182363D1*
X1177863Y2479458D2*
X1182363D1*
X1177863Y2477958D2*
X1182363D1*
X1177863Y2476458D2*
X1182363D1*
X1177863Y2474958D2*
X1182363D1*
X794999Y2529646D2*
X803999D1*
X833999D2*
X845999D1*
X872999D2*
X881999D1*
X968999D2*
X979499D1*
X1010999D2*
X1022999D1*
X792351Y2528146D2*
X806884D1*
X832101D2*
X848366D1*
X871101D2*
X884253D1*
X890999D2*
X895499D1*
X916499D2*
X920999D1*
X940499D2*
X944999D1*
X966812D2*
X982147D1*
X1009101D2*
X1025466D1*
X790172Y2526646D2*
X809239D1*
X830574D2*
X850476D1*
X869573D2*
X886418D1*
X890723D2*
X895499D1*
X916499D2*
X920999D1*
X940499D2*
X944999D1*
X964934D2*
X984326D1*
X1007574D2*
X1027419D1*
X788582Y2525146D2*
X811123D1*
X830016D2*
X852217D1*
X868967D2*
X888660D1*
X890197D2*
X895499D1*
X916499D2*
X920999D1*
X940499D2*
X944999D1*
X963413D2*
X985916D1*
X1007016D2*
X1028836D1*
X787420Y2523646D2*
X795351D1*
X803698D2*
X812619D1*
X829702D2*
X833999D1*
X844198D2*
X853634D1*
X868499D2*
X872999D1*
X881879D2*
X895499D1*
X916499D2*
X920999D1*
X940499D2*
X944999D1*
X962229D2*
X970851D1*
X979493D2*
X987078D1*
X1006702D2*
X1010999D1*
X1021141D2*
X1029899D1*
X786494Y2522146D2*
X793172D1*
X806023D2*
X813780D1*
X829499D2*
X830999D1*
X846523D2*
X854807D1*
X884430D2*
X895499D1*
X916499D2*
X920999D1*
X940499D2*
X944999D1*
X961271D2*
X968672D1*
X980934D2*
X988004D1*
X1006499D2*
D3*
X1023268D2*
X1030731D1*
X785725Y2520646D2*
X791587D1*
X807828D2*
X814681D1*
X848328D2*
X855690D1*
X886402D2*
X895499D1*
X916499D2*
X920999D1*
X940499D2*
X944999D1*
X960436D2*
X967087D1*
X982191D2*
X988773D1*
X1024903D2*
X1031332D1*
X785144Y2519146D2*
X790478D1*
X809154D2*
X815374D1*
X849654D2*
X856355D1*
X887780D2*
X895499D1*
X916499D2*
X920999D1*
X940499D2*
X944999D1*
X959704D2*
X965978D1*
X983134D2*
X989354D1*
X1025546D2*
X1031636D1*
X784797Y2517646D2*
X789743D1*
X810125D2*
X815936D1*
X850625D2*
X856945D1*
X888707D2*
X895499D1*
X916499D2*
X920999D1*
X940499D2*
X944999D1*
X959136D2*
X965244D1*
X983832D2*
X989706D1*
X1025591D2*
X1031616D1*
X784618Y2516146D2*
X789333D1*
X810801D2*
X816477D1*
X851296D2*
X857430D1*
X889371D2*
X895499D1*
X916499D2*
X920999D1*
X940499D2*
X944999D1*
X958795D2*
X964834D1*
X984436D2*
X989932D1*
X1024706D2*
X1031276D1*
X784489Y2514646D2*
X789127D1*
X811211D2*
X816942D1*
X851679D2*
X857731D1*
X889954D2*
X895499D1*
X916499D2*
X920999D1*
X940499D2*
X944999D1*
X958623D2*
X964637D1*
X984926D2*
X990200D1*
X1021883D2*
X1030673D1*
X784266Y2513146D2*
X817235D1*
X851866D2*
X857885D1*
X890433D2*
X895499D1*
X916499D2*
X920999D1*
X940499D2*
X944999D1*
X958548D2*
X964552D1*
X985230D2*
X990590D1*
X1018119D2*
X1029802D1*
X783883Y2511646D2*
X817387D1*
X851947D2*
X857954D1*
X890733D2*
X895499D1*
X916499D2*
X920999D1*
X940499D2*
X944999D1*
X958517D2*
X964518D1*
X985385D2*
X990980D1*
X1014151D2*
X1028545D1*
X783432Y2510146D2*
X817455D1*
X851980D2*
X857982D1*
X890886D2*
X895499D1*
X916499D2*
X921005D1*
X940499D2*
X944999D1*
X958505D2*
X964506D1*
X985454D2*
X991193D1*
X1010819D2*
X1026628D1*
X782999Y2508646D2*
X817477D1*
X851992D2*
X857993D1*
X890954D2*
X895499D1*
X916499D2*
X921057D1*
X940499D2*
X944999D1*
X958501D2*
X964501D1*
X985476D2*
X991143D1*
X1008422D2*
X1023672D1*
X811493Y2507146D2*
X817434D1*
X851991D2*
X857991D1*
X890982D2*
X895499D1*
X916499D2*
X921249D1*
X940493D2*
X944999D1*
X958500D2*
X964500D1*
X985434D2*
X990848D1*
X1006848D2*
X1019813D1*
X811440Y2505646D2*
X817247D1*
X851940D2*
X857940D1*
X890993D2*
X895499D1*
X916499D2*
X921608D1*
X940440D2*
X944999D1*
X958505D2*
X964505D1*
X985247D2*
X990489D1*
X1005840D2*
X1015963D1*
X811243Y2504146D2*
X816883D1*
X851743D2*
X857749D1*
X890997D2*
X895499D1*
X916499D2*
X921998D1*
X940249D2*
X944999D1*
X958558D2*
X964558D1*
X984883D2*
X990232D1*
X1005150D2*
X1013008D1*
X810825Y2502646D2*
X816446D1*
X851325D2*
X857384D1*
X890998D2*
X895499D1*
X916499D2*
X922319D1*
X939884D2*
X944999D1*
X958755D2*
X964755D1*
X984441D2*
X990044D1*
X1004609D2*
X1010835D1*
X810185Y2501146D2*
X815988D1*
X850685D2*
X856941D1*
X890999D2*
X895499D1*
X916499D2*
X922707D1*
X939441D2*
X944993D1*
X959167D2*
X965178D1*
X983929D2*
X989785D1*
X1004185D2*
X1010037D1*
X809221Y2499646D2*
X815431D1*
X849721D2*
X856435D1*
X890999D2*
X895499D1*
X916499D2*
X923409D1*
X938900D2*
X944940D1*
X959748D2*
X965900D1*
X983152D2*
X989347D1*
X1004348D2*
X1009912D1*
X807915Y2498146D2*
X814733D1*
X829499D2*
D3*
X848415D2*
X855734D1*
X890999D2*
X895499D1*
X916499D2*
X924421D1*
X938175D2*
X944743D1*
X960428D2*
X966905D1*
X982094D2*
X988755D1*
X1004662D2*
X1010689D1*
X784499Y2496646D2*
X788999D1*
X804288D2*
X813836D1*
X829511D2*
X830999D1*
X844788D2*
X854815D1*
X890999D2*
X895499D1*
X916499D2*
X927065D1*
X935729D2*
X944325D1*
X961201D2*
X970100D1*
X979440D2*
X988066D1*
X1005111D2*
X1014006D1*
X1030499D2*
X1031999D1*
X784722Y2495146D2*
X797718D1*
X798755D2*
X812682D1*
X829628D2*
X838218D1*
X839255D2*
X853696D1*
X890999D2*
X895499D1*
X916499D2*
X931079D1*
X931836D2*
X943685D1*
X962141D2*
X975008D1*
X975422D2*
X987233D1*
X1005838D2*
X1019360D1*
X1020280D2*
X1031918D1*
X785508Y2493646D2*
X811245D1*
X829909D2*
X852260D1*
X890999D2*
X895499D1*
X916499D2*
X942758D1*
X963357D2*
X986049D1*
X1006942D2*
X1031724D1*
X787554Y2492146D2*
X809359D1*
X831280D2*
X850441D1*
X890999D2*
X895499D1*
X916499D2*
X920999D1*
X925775D2*
X941394D1*
X964918D2*
X984287D1*
X1008452D2*
X1030620D1*
X790324Y2490646D2*
X806866D1*
X833239D2*
X848305D1*
X890999D2*
X895499D1*
X916499D2*
X920999D1*
X927801D2*
X939572D1*
X966852D2*
X982008D1*
X1010364D2*
X1027805D1*
X793499Y2489146D2*
X803999D1*
X835499D2*
X845999D1*
X929999D2*
X937499D1*
X968999D2*
X979499D1*
X1012499D2*
X1024499D1*
X1024028Y2473958D2*
X1030028D1*
X1178528D2*
X1183028D1*
X1024028Y2472458D2*
X1030028D1*
X1178528D2*
X1183028D1*
X1024028Y2470958D2*
X1030028D1*
X1178528D2*
X1183028D1*
X1024028Y2469458D2*
X1030028D1*
X1178528D2*
X1183028D1*
X1024028Y2467958D2*
X1030028D1*
X1178528D2*
X1183028D1*
X1024028Y2466458D2*
X1030028D1*
X1178528D2*
X1183028D1*
X1024028Y2464958D2*
X1030028D1*
X1178528D2*
X1183028D1*
X1024028Y2463458D2*
X1030028D1*
X1178528D2*
X1183028D1*
X1024028Y2461958D2*
X1030034D1*
X1178528D2*
X1183028D1*
X859028Y2460458D2*
X868028D1*
X893528D2*
X902528D1*
X946028D2*
X958028D1*
X1024028D2*
X1030091D1*
X1036028D2*
X1045028D1*
X1067528D2*
X1076528D1*
X1120028D2*
X1132028D1*
X1162028D2*
X1169528D1*
X1178522D2*
X1183028D1*
X856380Y2458958D2*
X870913D1*
X891630D2*
X904782D1*
X911528D2*
X916028D1*
X943835D2*
X961310D1*
X974528D2*
X979028D1*
X1010528D2*
X1016528D1*
X1024028D2*
X1030322D1*
X1034252D2*
X1047214D1*
X1065636D2*
X1078782D1*
X1085528D2*
X1090028D1*
X1117835D2*
X1135310D1*
X1159898D2*
X1171782D1*
X1178465D2*
X1183028D1*
X854200Y2457458D2*
X873268D1*
X890101D2*
X906947D1*
X911252D2*
X916028D1*
X941910D2*
X963863D1*
X974585D2*
X979540D1*
X1010471D2*
X1015829D1*
X1024028D2*
X1030835D1*
X1032226D2*
X1049092D1*
X1064127D2*
X1080947D1*
X1085252D2*
X1090028D1*
X1115910D2*
X1137863D1*
X1158212D2*
X1173947D1*
X1178233D2*
X1183028D1*
X852610Y2455958D2*
X875152D1*
X889496D2*
X909189D1*
X910726D2*
X916028D1*
X940251D2*
X964885D1*
X974777D2*
X979993D1*
X1010278D2*
X1015346D1*
X1024028D2*
X1050613D1*
X1063650D2*
X1083189D1*
X1084726D2*
X1090028D1*
X1114251D2*
X1138885D1*
X1157051D2*
X1176189D1*
X1177720D2*
X1183028D1*
X851448Y2454458D2*
X859380D1*
X867727D2*
X876648D1*
X889028D2*
X893528D1*
X902408D2*
X916028D1*
X938904D2*
X947880D1*
X959528D2*
X965257D1*
X975137D2*
X980330D1*
X1009919D2*
X1014937D1*
X1024028D2*
X1036380D1*
X1042995D2*
X1051792D1*
X1063991D2*
X1067528D1*
X1076408D2*
X1090028D1*
X1112904D2*
X1121880D1*
X1133528D2*
X1139257D1*
X1156257D2*
X1163591D1*
X1172522D2*
X1183028D1*
X850523Y2452958D2*
X857200D1*
X870052D2*
X877808D1*
X904959D2*
X916028D1*
X937974D2*
X945700D1*
X964028D2*
X965528D1*
X975527D2*
X980668D1*
X1009528D2*
X1014481D1*
X1024028D2*
X1034200D1*
X1044948D2*
X1052703D1*
X1064528D2*
D3*
X1078959D2*
X1090028D1*
X1111974D2*
X1119700D1*
X1138028D2*
X1139528D1*
X1155614D2*
X1162342D1*
X1173963D2*
X1183028D1*
X849754Y2451458D2*
X855616D1*
X871857D2*
X878710D1*
X906931D2*
X916028D1*
X937453D2*
X944115D1*
X975841D2*
X981093D1*
X1009214D2*
X1014057D1*
X1024028D2*
X1032616D1*
X1046365D2*
X1053400D1*
X1080931D2*
X1090028D1*
X1111453D2*
X1118115D1*
X1155109D2*
X1161445D1*
X1175219D2*
X1183028D1*
X849173Y2449958D2*
X854507D1*
X873183D2*
X879402D1*
X908309D2*
X916028D1*
X937202D2*
X942991D1*
X976172D2*
X981505D1*
X1008884D2*
X1013775D1*
X1024028D2*
X1031507D1*
X1047428D2*
X1053964D1*
X1082309D2*
X1090028D1*
X1111202D2*
X1116991D1*
X1154800D2*
X1160886D1*
X1176163D2*
X1183028D1*
X848826Y2448458D2*
X853772D1*
X874154D2*
X879964D1*
X909236D2*
X916028D1*
X937095D2*
X942179D1*
X976595D2*
X981783D1*
X1008461D2*
X1013578D1*
X1024028D2*
X1030772D1*
X1048259D2*
X1054506D1*
X1083236D2*
X1090028D1*
X1111095D2*
X1116179D1*
X1154643D2*
X1160450D1*
X1176861D2*
X1183028D1*
X848647Y2446958D2*
X853362D1*
X874830D2*
X880506D1*
X909900D2*
X916028D1*
X937052D2*
X941528D1*
X977011D2*
X981979D1*
X992528D2*
X997028D1*
X1008050D2*
X1013321D1*
X1024028D2*
X1030363D1*
X1048867D2*
X1054970D1*
X1083900D2*
X1090028D1*
X1111052D2*
X1115528D1*
X1154573D2*
X1159985D1*
X1177465D2*
X1183028D1*
X848518Y2445458D2*
X853155D1*
X875239D2*
X880971D1*
X910482D2*
X916028D1*
X937036D2*
X950696D1*
X977336D2*
X982235D1*
X992296D2*
X997726D1*
X1007772D2*
X1012935D1*
X1024028D2*
X1030166D1*
X1049224D2*
X1055264D1*
X1084482D2*
X1090028D1*
X1111036D2*
X1124696D1*
X1154544D2*
X1159558D1*
X1177955D2*
X1183028D1*
X848295Y2443958D2*
X881264D1*
X910962D2*
X916028D1*
X937031D2*
X957317D1*
X977670D2*
X982621D1*
X991918D2*
X998210D1*
X1007577D2*
X1012534D1*
X1024028D2*
X1030081D1*
X1049400D2*
X1055415D1*
X1084962D2*
X1090028D1*
X1111031D2*
X1131317D1*
X1154534D2*
X1159281D1*
X1178259D2*
X1183028D1*
X847911Y2442458D2*
X881415D1*
X911261D2*
X916028D1*
X937029D2*
X961611D1*
X978094D2*
X983016D1*
X991477D2*
X998619D1*
X1007321D2*
X1012216D1*
X1024028D2*
X1030047D1*
X1049478D2*
X1055483D1*
X1085261D2*
X1090028D1*
X1111029D2*
X1135611D1*
X1154530D2*
X1159136D1*
X1178413D2*
X1183028D1*
X847461Y2440958D2*
X881483D1*
X911414D2*
X916028D1*
X937028D2*
X964663D1*
X978511D2*
X983287D1*
X991023D2*
X999080D1*
X1006935D2*
X1011884D1*
X1024028D2*
X1030035D1*
X1049509D2*
X1055511D1*
X1085414D2*
X1090028D1*
X1111028D2*
X1138663D1*
X1154528D2*
X1159071D1*
X1178483D2*
X1183028D1*
X847028Y2439458D2*
X881505D1*
X911483D2*
X916028D1*
X937028D2*
X941585D1*
X956227D2*
X965889D1*
X978836D2*
X983480D1*
X990525D2*
X993796D1*
X997034D2*
X999557D1*
X1006540D2*
X1011461D1*
X1024028D2*
X1030030D1*
X1049521D2*
X1055516D1*
X1085483D2*
X1090028D1*
X1111028D2*
X1115585D1*
X1130227D2*
X1139889D1*
X1154528D2*
X1159044D1*
X1178511D2*
X1183028D1*
X875522Y2437958D2*
X881463D1*
X911511D2*
X916028D1*
X937028D2*
X941777D1*
X958546D2*
X966747D1*
X979170D2*
X983735D1*
X990070D2*
X993418D1*
X997086D2*
X1000025D1*
X1006269D2*
X1011044D1*
X1024028D2*
X1030028D1*
X1049520D2*
X1055467D1*
X1085511D2*
X1090028D1*
X1111028D2*
X1115777D1*
X1132546D2*
X1140747D1*
X1154528D2*
X1159033D1*
X1178522D2*
X1183028D1*
X875469Y2436458D2*
X881276D1*
X911522D2*
X916028D1*
X937028D2*
X942142D1*
X960298D2*
X967422D1*
X979594D2*
X984121D1*
X989730D2*
X992977D1*
X997277D2*
X1000528D1*
X1006075D2*
X1010720D1*
X1024028D2*
X1030034D1*
X1049468D2*
X1055277D1*
X1085522D2*
X1090028D1*
X1111028D2*
X1116142D1*
X1134298D2*
X1141422D1*
X1154528D2*
X1159030D1*
X1178526D2*
X1183028D1*
X875272Y2434958D2*
X880912D1*
X911526D2*
X916028D1*
X937028D2*
X942580D1*
X961630D2*
X967934D1*
X980005D2*
X984522D1*
X989383D2*
X992523D1*
X997643D2*
X1000984D1*
X1005814D2*
X1010386D1*
X1024028D2*
X1030086D1*
X1049272D2*
X1054918D1*
X1085526D2*
X1090028D1*
X1111028D2*
X1116580D1*
X1135630D2*
X1141934D1*
X1154528D2*
X1159028D1*
X1178527D2*
X1183028D1*
X874854Y2433458D2*
X880475D1*
X911527D2*
X916028D1*
X937028D2*
X943039D1*
X962088D2*
X968195D1*
X980283D2*
X984844D1*
X988899D2*
X992019D1*
X998080D2*
X1001330D1*
X1005371D2*
X1009961D1*
X1024028D2*
X1030283D1*
X1048860D2*
X1054528D1*
X1085527D2*
X1090028D1*
X1111028D2*
X1117039D1*
X1136088D2*
X1142195D1*
X1154528D2*
X1159028D1*
X1178527D2*
X1183028D1*
X874214Y2431958D2*
X880017D1*
X911527D2*
X916028D1*
X937028D2*
X943601D1*
X962273D2*
X968162D1*
X980479D2*
X985216D1*
X988252D2*
X991518D1*
X998533D2*
X1001711D1*
X1004741D2*
X1009544D1*
X1024028D2*
X1030707D1*
X1048273D2*
X1054214D1*
X1085527D2*
X1090028D1*
X1111028D2*
X1117601D1*
X1136273D2*
X1142162D1*
X1154528D2*
X1159028D1*
X1178528D2*
X1183028D1*
X873250Y2430458D2*
X879460D1*
X911528D2*
X916028D1*
X937028D2*
X944387D1*
X962255D2*
X967867D1*
X980735D2*
X985796D1*
X987444D2*
X991038D1*
X999037D2*
X1002294D1*
X1003940D2*
X1009220D1*
X1024028D2*
X1031423D1*
X1047511D2*
X1053878D1*
X1085528D2*
X1090028D1*
X1111028D2*
X1118387D1*
X1136255D2*
X1141867D1*
X1154528D2*
X1159028D1*
X1178528D2*
X1183028D1*
X871943Y2428958D2*
X878762D1*
X911528D2*
X916028D1*
X937028D2*
X945425D1*
X961409D2*
X967453D1*
X981121D2*
X990530D1*
X999538D2*
X1008886D1*
X1024028D2*
X1032410D1*
X1046567D2*
X1053396D1*
X1085528D2*
X1090028D1*
X1111028D2*
X1119425D1*
X1135409D2*
X1141453D1*
X1154528D2*
X1159028D1*
X1178528D2*
X1183028D1*
X848528Y2427458D2*
X853028D1*
X868316D2*
X877865D1*
X911528D2*
X916028D1*
X937028D2*
X948625D1*
X958327D2*
X966952D1*
X981521D2*
X990072D1*
X1000017D2*
X1008461D1*
X1024028D2*
X1035344D1*
X1043876D2*
X1052736D1*
X1085528D2*
X1090028D1*
X1111028D2*
X1122625D1*
X1132327D2*
X1140952D1*
X1154528D2*
X1159028D1*
X1178528D2*
X1183028D1*
X848750Y2425958D2*
X861746D1*
X862784D2*
X876710D1*
X911528D2*
X916028D1*
X937028D2*
X953536D1*
X953480D2*
X966202D1*
X981844D2*
X989726D1*
X1000526D2*
X1008050D1*
X1024028D2*
X1039732D1*
X1039675D2*
X1051849D1*
X1085528D2*
X1090028D1*
X1111028D2*
X1127536D1*
X1127480D2*
X1140202D1*
X1154528D2*
X1159028D1*
X1178528D2*
X1183028D1*
X849537Y2424458D2*
X875274D1*
X911528D2*
X916028D1*
X937028D2*
X941528D1*
X944589D2*
X965089D1*
X982216D2*
X989344D1*
X1000981D2*
X1007777D1*
X1024028D2*
X1050656D1*
X1085528D2*
X1090028D1*
X1111028D2*
X1115528D1*
X1118589D2*
X1139089D1*
X1154528D2*
X1159028D1*
X1178528D2*
X1183028D1*
X851582Y2422958D2*
X873388D1*
X911528D2*
X916028D1*
X937028D2*
X941528D1*
X946322D2*
X963577D1*
X982796D2*
X988761D1*
X1001294D2*
X1007626D1*
X1024028D2*
X1030028D1*
X1033028D2*
X1049104D1*
X1085528D2*
X1090028D1*
X1111028D2*
X1115528D1*
X1120322D2*
X1137577D1*
X1154528D2*
X1159028D1*
X1178528D2*
X1183028D1*
X854353Y2421458D2*
X870895D1*
X911528D2*
X916028D1*
X937028D2*
X941528D1*
X948335D2*
X961663D1*
X983528D2*
X988028D1*
X1001528D2*
X1007528D1*
X1024028D2*
X1030028D1*
X1034528D2*
X1047173D1*
X1085528D2*
X1090028D1*
X1111028D2*
X1115528D1*
X1122335D2*
X1135663D1*
X1154528D2*
X1159028D1*
X1178528D2*
X1183028D1*
X857528Y2419958D2*
X868028D1*
X950528D2*
X959528D1*
X1036028D2*
X1045028D1*
X1124528D2*
X1133528D1*
X680255Y2057645D2*
X676857Y2056145D1*
X674049Y2054645D1*
X671829Y2053145D1*
X669994Y2051645D1*
X668403Y2050145D1*
X667037Y2048645D1*
X665881Y2047145D1*
X664817Y2045645D1*
X663820Y2044145D1*
X663014Y2042645D1*
X662380Y2041145D1*
X661796Y2039645D1*
X661263Y2038145D1*
X660772Y2036645D1*
X660259Y2035145D1*
X659806Y2033645D1*
X659510Y2032145D1*
X659308Y2030645D1*
X659049Y2029145D1*
X658662Y2027645D1*
X658267Y2026145D1*
X658002Y2024645D1*
X657861Y2023145D1*
X657797Y2021645D1*
X657771Y2020145D1*
X657760Y2018645D1*
X657757Y2017145D1*
X657755Y2015645D1*
Y2014145D1*
Y2012645D1*
Y2011145D1*
Y2009645D1*
Y2008145D1*
Y2006645D1*
Y2005145D1*
Y2003645D1*
Y2002145D1*
Y2000645D1*
Y1999145D1*
X657761Y1997645D1*
X657813Y1996145D1*
X658005Y1994645D1*
X658364Y1993145D1*
X658748Y1991645D1*
X659016Y1990145D1*
X659208Y1988645D1*
X659462Y1987145D1*
X659854Y1985645D1*
X660301Y1984145D1*
X660764Y1982645D1*
X661316Y1981145D1*
X661962Y1979645D1*
X662668Y1978145D1*
X663445Y1976645D1*
X664331Y1975145D1*
X665306Y1973645D1*
X666329Y1972145D1*
X667565Y1970645D1*
X669197Y1969145D1*
X671237Y1967645D1*
X673768Y1966145D1*
X676858Y1964645D1*
X680255Y1963145D1*
X693755Y2057645D2*
X696692Y2056145D1*
X699441Y2054645D1*
X701826Y2053145D1*
X703779Y2051645D1*
X705327Y2050145D1*
X706521Y2048645D1*
X707481Y2047145D1*
X708323Y2045645D1*
X709108Y2044145D1*
X709867Y2042645D1*
X710574Y2041145D1*
X711183Y2039645D1*
X711711Y2038145D1*
X712240Y2036645D1*
X712706Y2035145D1*
X713051Y2033645D1*
X713393Y2032145D1*
X713820Y2030645D1*
X714232Y2029145D1*
X714504Y2027645D1*
X714647Y2026145D1*
X714712Y2024645D1*
X714739Y2023145D1*
X714749Y2021645D1*
X714753Y2020145D1*
X714754Y2018645D1*
X714760Y2017145D1*
X714813Y2015645D1*
X714999Y2014145D1*
X715305Y2012645D1*
X715499Y2011145D1*
X715401Y2009645D1*
X715156Y2008145D1*
X714958Y2006645D1*
X714845Y2005145D1*
X714791Y2003645D1*
X714769Y2002145D1*
X714760Y2000645D1*
X714757Y1999145D1*
X714750Y1997645D1*
X714696Y1996145D1*
X714505Y1994645D1*
X714146Y1993145D1*
X713761Y1991645D1*
X713494Y1990145D1*
X713302Y1988645D1*
X713047Y1987145D1*
X712656Y1985645D1*
X712208Y1984145D1*
X711746Y1982645D1*
X711194Y1981145D1*
X710548Y1979645D1*
X709842Y1978145D1*
X709058Y1976645D1*
X708126Y1975145D1*
X707013Y1973645D1*
X705822Y1972145D1*
X704560Y1970645D1*
X703057Y1969145D1*
X701196Y1967645D1*
X698973Y1966145D1*
X696435Y1964645D1*
X693755Y1963145D1*
X1070255Y2057645D2*
X1066800Y2056145D1*
X1063806Y2054645D1*
X1061278Y2053145D1*
X1059245Y2051645D1*
X1057704Y2050145D1*
X1056451Y2048645D1*
X1055372Y2047145D1*
X1054533Y2045645D1*
X1053887Y2044145D1*
X1053304Y2042645D1*
X1052823Y2041145D1*
X1052522Y2039645D1*
X1052368Y2038145D1*
X1052300Y2036645D1*
X1052271Y2035145D1*
X1052261Y2033645D1*
X1052257Y2032145D1*
X1052255Y2030645D1*
X1052261Y2029145D1*
X1052313Y2027645D1*
X1052505Y2026145D1*
X1052870Y2024645D1*
X1053307Y2023145D1*
X1053766Y2021645D1*
X1054317Y2020145D1*
X1054962Y2018645D1*
X1055668Y2017145D1*
X1056451Y2015645D1*
X1057383Y2014145D1*
X1058491Y2012645D1*
X1059629Y2011145D1*
X1060694Y2009645D1*
X1061779Y2008145D1*
X1063000Y2006645D1*
X1064304Y2005145D1*
X1065548Y2003645D1*
X1066662Y2002145D1*
X1067767Y2000645D1*
X1069002Y1999145D1*
X1070361Y1997645D1*
X1071797Y1996145D1*
X1073271Y1994645D1*
X1074760Y1993145D1*
X1076257Y1991645D1*
X1077755Y1990145D1*
X1079255Y1988645D1*
X1080749Y1987145D1*
X1082196Y1985645D1*
X1083505Y1984145D1*
X1084646Y1982645D1*
X1085761Y1981145D1*
X1087000Y1979645D1*
X1088360Y1978145D1*
X1089797Y1976645D1*
X1091270Y1975145D1*
X1092755Y1973645D1*
X1085255Y2057645D2*
X1088941Y2056145D1*
X1092319Y2054645D1*
X1095335Y2053145D1*
X1097949Y2051645D1*
X1100051Y2050145D1*
X1101703Y2048645D1*
X1102100Y2047145D1*
X1101707Y2045645D1*
X1100979Y2044145D1*
X1099938Y2042645D1*
X1098755Y2041145D1*
X1148255Y2057645D2*
X1144800Y2056145D1*
X1141800Y2054645D1*
X1139226Y2053145D1*
X1137053Y2051645D1*
X1135344Y2050145D1*
X1134060Y2048645D1*
X1133057Y2047145D1*
X1132203Y2045645D1*
X1131464Y2044145D1*
X1130894Y2042645D1*
X1130551Y2041145D1*
X1130379Y2039645D1*
X1130304Y2038145D1*
X1130273Y2036645D1*
X1130261Y2035145D1*
X1130257Y2033645D1*
X1130261Y2032145D1*
X1130314Y2030645D1*
X1130510Y2029145D1*
X1130922Y2027645D1*
X1131504Y2026145D1*
X1132183Y2024645D1*
X1132957Y2023145D1*
X1133897Y2021645D1*
X1135115Y2020145D1*
X1136699Y2018645D1*
X1138790Y2017145D1*
X1141483Y2015645D1*
X1144727Y2014145D1*
X1148255Y2012645D1*
X1144113Y2011145D1*
X1140486Y2009645D1*
X1137593Y2008145D1*
X1135343Y2006645D1*
X1133499Y2005145D1*
X1131910Y2003645D1*
X1130596Y2002145D1*
X1129631Y2000645D1*
X1128926Y1999145D1*
X1128319Y1997645D1*
X1127828Y1996145D1*
X1127524Y1994645D1*
X1127369Y1993145D1*
X1127300Y1991645D1*
X1127272Y1990145D1*
X1127261Y1988645D1*
X1127263Y1987145D1*
X1127314Y1985645D1*
X1127505Y1984145D1*
X1127870Y1982645D1*
X1128307Y1981145D1*
X1128766Y1979645D1*
X1129323Y1978145D1*
X1130021Y1976645D1*
X1130917Y1975145D1*
X1132066Y1973645D1*
X1133441Y1972145D1*
X1135066Y1970645D1*
X1137017Y1969145D1*
X1139446Y1967645D1*
X1142643Y1966145D1*
X1146720Y1964645D1*
X1151255Y1963145D1*
X1164755Y2057645D2*
X1169595Y2056145D1*
X1173705Y2054645D1*
X1177009Y2053145D1*
X1179729Y2051645D1*
X1182082Y2050145D1*
X1184255Y2048645D1*
X1182988Y2047145D1*
X1181872Y2045645D1*
X1180822Y2044145D1*
X1179755Y2042645D1*
X1226255Y2057645D2*
X1222800Y2056145D1*
X1219806Y2054645D1*
X1217278Y2053145D1*
X1215245Y2051645D1*
X1213704Y2050145D1*
X1212451Y2048645D1*
X1211372Y2047145D1*
X1210533Y2045645D1*
X1209887Y2044145D1*
X1209304Y2042645D1*
X1208823Y2041145D1*
X1208522Y2039645D1*
X1208368Y2038145D1*
X1208300Y2036645D1*
X1208271Y2035145D1*
X1208261Y2033645D1*
X1208257Y2032145D1*
X1208255Y2030645D1*
X1208261Y2029145D1*
X1208313Y2027645D1*
X1208505Y2026145D1*
X1208870Y2024645D1*
X1209307Y2023145D1*
X1209766Y2021645D1*
X1210317Y2020145D1*
X1210962Y2018645D1*
X1211668Y2017145D1*
X1212451Y2015645D1*
X1213383Y2014145D1*
X1214491Y2012645D1*
X1215629Y2011145D1*
X1216694Y2009645D1*
X1217779Y2008145D1*
X1219000Y2006645D1*
X1220304Y2005145D1*
X1221548Y2003645D1*
X1222662Y2002145D1*
X1223767Y2000645D1*
X1225002Y1999145D1*
X1226361Y1997645D1*
X1227797Y1996145D1*
X1229271Y1994645D1*
X1230760Y1993145D1*
X1232257Y1991645D1*
X1233755Y1990145D1*
X1235255Y1988645D1*
X1236749Y1987145D1*
X1238196Y1985645D1*
X1239505Y1984145D1*
X1240646Y1982645D1*
X1241761Y1981145D1*
X1243000Y1979645D1*
X1244360Y1978145D1*
X1245797Y1976645D1*
X1247270Y1975145D1*
X1248755Y1973645D1*
X1241255Y2057645D2*
X1244941Y2056145D1*
X1248319Y2054645D1*
X1251335Y2053145D1*
X1253949Y2051645D1*
X1256051Y2050145D1*
X1257703Y2048645D1*
X1258100Y2047145D1*
X1257707Y2045645D1*
X1256979Y2044145D1*
X1255938Y2042645D1*
X1254755Y2041145D1*
X1298255Y2057645D2*
X1292797Y2056145D1*
X1288612Y2054645D1*
X1285535Y2053145D1*
X1284283Y2051645D1*
X1284532Y2050145D1*
X1284863Y2048645D1*
X1285314Y2047145D1*
X1285800Y2045645D1*
X1286255Y2044145D1*
X1317755Y2057645D2*
X1322077Y2056145D1*
X1325687Y2054645D1*
X1328514Y2053145D1*
X1330708Y2051645D1*
X1332478Y2050145D1*
X1333917Y2048645D1*
X1335052Y2047145D1*
X1335942Y2045645D1*
X1336631Y2044145D1*
X1337192Y2042645D1*
X1337733Y2041145D1*
X1338198Y2039645D1*
X1338491Y2038145D1*
X1338643Y2036645D1*
X1338710Y2035145D1*
X1338732Y2033645D1*
X1338690Y2032145D1*
X1338503Y2030645D1*
X1338139Y2029145D1*
X1337702Y2027645D1*
X1337244Y2026145D1*
X1336693Y2024645D1*
X1336048Y2023145D1*
X1335342Y2021645D1*
X1334552Y2020145D1*
X1333562Y2018645D1*
X1332204Y2017145D1*
X1330457Y2015645D1*
X1328398Y2014145D1*
X1326058Y2012645D1*
X1323431Y2011145D1*
X1320558Y2009645D1*
X1317395Y2008145D1*
X1313877Y2006645D1*
X1310146Y2005145D1*
X1306510Y2003645D1*
X1303169Y2002145D1*
X1300217Y2000645D1*
X1297742Y1999145D1*
X1295757Y1997645D1*
X1294243Y1996145D1*
X1293188Y1994645D1*
X1292447Y1993145D1*
X1291827Y1991645D1*
X1291336Y1990145D1*
X1291083Y1988645D1*
X1291119Y1987145D1*
X1291415Y1985645D1*
X1291830Y1984145D1*
X1292330Y1982645D1*
X1293080Y1981145D1*
X1294201Y1979645D1*
X1295790Y1978145D1*
X1298053Y1976645D1*
X1301110Y1975145D1*
X1304798Y1973645D1*
X1308755Y1972145D1*
X914255Y2056145D2*
X909933Y2054645D1*
X906322Y2053145D1*
X903495Y2051645D1*
X901302Y2050145D1*
X899531Y2048645D1*
X898093Y2047145D1*
X896952Y2045645D1*
X896014Y2044145D1*
X895187Y2042645D1*
X894458Y2041145D1*
X893892Y2039645D1*
X893544Y2038145D1*
X893321Y2036645D1*
X893054Y2035145D1*
X892664Y2033645D1*
X892273Y2032145D1*
X892060Y2030645D1*
X892111Y2029145D1*
X892406Y2027645D1*
X892770Y2026145D1*
X893074Y2024645D1*
X893401Y2023145D1*
X893828Y2021645D1*
X894297Y2020145D1*
X894819Y2018645D1*
X895570Y2017145D1*
X896629Y2015645D1*
X897911Y2014145D1*
X899321Y2012645D1*
X900842Y2011145D1*
X902565Y2009645D1*
X904546Y2008145D1*
X906485Y2006645D1*
X908124Y2005145D1*
X908566Y2003645D1*
X908247Y2002145D1*
X907717Y2000645D1*
X907017Y1999145D1*
X906162Y1997645D1*
X905210Y1996145D1*
X904296Y1994645D1*
X903449Y1993145D1*
X902607Y1991645D1*
X901695Y1990145D1*
X900716Y1988645D1*
X899747Y1987145D1*
X898759Y1985645D1*
X897748Y1984145D1*
X896810Y1982645D1*
X895954Y1981145D1*
X895108Y1979645D1*
X894195Y1978145D1*
X893222Y1976645D1*
X892300Y1975145D1*
X891450Y1973645D1*
X890607Y1972145D1*
X889695Y1970645D1*
X888717Y1969145D1*
X887756Y1967645D1*
X886779Y1966145D1*
X885755Y1964645D1*
X947255Y2056145D2*
Y2054645D1*
Y2053145D1*
Y2051645D1*
Y2050145D1*
Y2048645D1*
Y2047145D1*
Y2045645D1*
Y2044145D1*
Y2042645D1*
Y2041145D1*
Y2039645D1*
Y2038145D1*
Y2036645D1*
Y2035145D1*
Y2033645D1*
Y2032145D1*
Y2030645D1*
Y2029145D1*
Y2027645D1*
Y2026145D1*
Y2024645D1*
Y2023145D1*
Y2021645D1*
Y2020145D1*
Y2018645D1*
Y2017145D1*
Y2015645D1*
Y2014145D1*
Y2012645D1*
Y2011145D1*
Y2009645D1*
Y2008145D1*
Y2006645D1*
Y2005145D1*
Y2003645D1*
Y2002145D1*
Y2000645D1*
Y1999145D1*
Y1997645D1*
Y1996145D1*
Y1994645D1*
Y1993145D1*
Y1991645D1*
Y1990145D1*
Y1988645D1*
Y1987145D1*
Y1985645D1*
Y1984145D1*
Y1982645D1*
Y1981145D1*
Y1979645D1*
Y1978145D1*
Y1976645D1*
Y1975145D1*
Y1973645D1*
Y1972145D1*
Y1970645D1*
Y1969145D1*
Y1967645D1*
Y1966145D1*
Y1964645D1*
X1382255Y2056145D2*
X1377933Y2054645D1*
X1374322Y2053145D1*
X1371495Y2051645D1*
X1369302Y2050145D1*
X1367531Y2048645D1*
X1366093Y2047145D1*
X1364952Y2045645D1*
X1364014Y2044145D1*
X1363187Y2042645D1*
X1362458Y2041145D1*
X1361892Y2039645D1*
X1361544Y2038145D1*
X1361321Y2036645D1*
X1361054Y2035145D1*
X1360664Y2033645D1*
X1360273Y2032145D1*
X1360060Y2030645D1*
X1360111Y2029145D1*
X1360406Y2027645D1*
X1360770Y2026145D1*
X1361074Y2024645D1*
X1361401Y2023145D1*
X1361828Y2021645D1*
X1362297Y2020145D1*
X1362819Y2018645D1*
X1363570Y2017145D1*
X1364629Y2015645D1*
X1365911Y2014145D1*
X1367321Y2012645D1*
X1368842Y2011145D1*
X1370565Y2009645D1*
X1372546Y2008145D1*
X1374485Y2006645D1*
X1376124Y2005145D1*
X1376566Y2003645D1*
X1376247Y2002145D1*
X1375717Y2000645D1*
X1375017Y1999145D1*
X1374162Y1997645D1*
X1373210Y1996145D1*
X1372296Y1994645D1*
X1371449Y1993145D1*
X1370607Y1991645D1*
X1369695Y1990145D1*
X1368716Y1988645D1*
X1367747Y1987145D1*
X1366759Y1985645D1*
X1365748Y1984145D1*
X1364810Y1982645D1*
X1363954Y1981145D1*
X1363108Y1979645D1*
X1362195Y1978145D1*
X1361222Y1976645D1*
X1360300Y1975145D1*
X1359450Y1973645D1*
X1358607Y1972145D1*
X1357695Y1970645D1*
X1356717Y1969145D1*
X1355756Y1967645D1*
X1354779Y1966145D1*
X1353755Y1964645D1*
X1415255Y2056145D2*
Y2054645D1*
Y2053145D1*
Y2051645D1*
Y2050145D1*
Y2048645D1*
Y2047145D1*
Y2045645D1*
Y2044145D1*
Y2042645D1*
Y2041145D1*
Y2039645D1*
Y2038145D1*
Y2036645D1*
Y2035145D1*
Y2033645D1*
Y2032145D1*
Y2030645D1*
Y2029145D1*
Y2027645D1*
Y2026145D1*
Y2024645D1*
Y2023145D1*
Y2021645D1*
Y2020145D1*
Y2018645D1*
Y2017145D1*
Y2015645D1*
Y2014145D1*
Y2012645D1*
Y2011145D1*
Y2009645D1*
Y2008145D1*
Y2006645D1*
Y2005145D1*
Y2003645D1*
Y2002145D1*
Y2000645D1*
Y1999145D1*
Y1997645D1*
Y1996145D1*
Y1994645D1*
Y1993145D1*
Y1991645D1*
Y1990145D1*
Y1988645D1*
Y1987145D1*
Y1985645D1*
Y1984145D1*
Y1982645D1*
Y1981145D1*
Y1979645D1*
Y1978145D1*
Y1976645D1*
Y1975145D1*
Y1973645D1*
Y1972145D1*
Y1970645D1*
Y1969145D1*
Y1967645D1*
Y1966145D1*
Y1964645D1*
X683255Y2048645D2*
X680550Y2047145D1*
X678178Y2045645D1*
X676229Y2044145D1*
X674682Y2042645D1*
X673489Y2041145D1*
X672528Y2039645D1*
X671692Y2038145D1*
X670960Y2036645D1*
X670392Y2035145D1*
X670045Y2033645D1*
X669821Y2032145D1*
X669554Y2030645D1*
X669164Y2029145D1*
X668768Y2027645D1*
X668502Y2026145D1*
X668361Y2024645D1*
X668297Y2023145D1*
X668271Y2021645D1*
X668260Y2020145D1*
X668257Y2018645D1*
X668255Y2017145D1*
Y2015645D1*
Y2014145D1*
Y2012645D1*
Y2011145D1*
Y2009645D1*
Y2008145D1*
Y2006645D1*
Y2005145D1*
Y2003645D1*
Y2002145D1*
Y2000645D1*
Y1999145D1*
X668261Y1997645D1*
X668313Y1996145D1*
X668505Y1994645D1*
X668864Y1993145D1*
X669248Y1991645D1*
X669516Y1990145D1*
X669708Y1988645D1*
X669968Y1987145D1*
X670407Y1985645D1*
X670998Y1984145D1*
X671682Y1982645D1*
X672456Y1981145D1*
X673397Y1979645D1*
X674661Y1978145D1*
X676233Y1976645D1*
X680463Y1975145D1*
X687080Y1973645D1*
X695255Y1972145D1*
X692255Y2048645D2*
X693929Y2047145D1*
X695609Y2045645D1*
X697132Y2044145D1*
X698452Y2042645D1*
X699585Y2041145D1*
X700454Y2039645D1*
X701114Y2038145D1*
X701702Y2036645D1*
X702192Y2035145D1*
X702546Y2033645D1*
X702891Y2032145D1*
X703319Y2030645D1*
X703732Y2029145D1*
X704004Y2027645D1*
X704147Y2026145D1*
X704212Y2024645D1*
X704239Y2023145D1*
X704249Y2021645D1*
X704253Y2020145D1*
X704254Y2018645D1*
X704255Y2017145D1*
Y2015645D1*
Y2014145D1*
Y2012645D1*
Y2011145D1*
Y2009645D1*
Y2008145D1*
Y2006645D1*
Y2005145D1*
Y2003645D1*
Y2002145D1*
Y2000645D1*
Y1999145D1*
Y1997645D1*
X704249Y1996145D1*
X704196Y1994645D1*
X704005Y1993145D1*
X703646Y1991645D1*
X703255Y1990145D1*
X702941Y1988645D1*
X702611Y1987145D1*
X702182Y1985645D1*
X701713Y1984145D1*
X701197Y1982645D1*
X700492Y1981145D1*
X699572Y1979645D1*
X698411Y1978145D1*
X696985Y1976645D1*
X693235Y1975145D1*
X687434Y1973645D1*
X680255Y1972145D1*
X1073255Y2048645D2*
X1070555Y2047145D1*
X1068231Y2045645D1*
X1066426Y2044145D1*
X1065100Y2042645D1*
X1064129Y2041145D1*
X1063457Y2039645D1*
X1063074Y2038145D1*
X1062888Y2036645D1*
X1062806Y2035145D1*
X1062774Y2033645D1*
X1062761Y2032145D1*
X1062757Y2030645D1*
X1062761Y2029145D1*
X1062814Y2027645D1*
X1063010Y2026145D1*
X1063422Y2024645D1*
X1064004Y2023145D1*
X1064678Y2021645D1*
X1065398Y2020145D1*
X1066141Y2018645D1*
X1066941Y2017145D1*
X1067886Y2015645D1*
X1069042Y2014145D1*
X1070320Y2012645D1*
X1071553Y2011145D1*
X1072664Y2009645D1*
X1073768Y2008145D1*
X1075002Y2006645D1*
X1076361Y2005145D1*
X1077791Y2003645D1*
X1079212Y2002145D1*
X1080511Y2000645D1*
X1081648Y1999145D1*
X1082762Y1997645D1*
X1084000Y1996145D1*
X1085361Y1994645D1*
X1086797Y1993145D1*
X1088271Y1991645D1*
X1089760Y1990145D1*
X1091257Y1988645D1*
X1092755Y1987145D1*
X1094255Y1985645D1*
X1095749Y1984145D1*
X1097196Y1982645D1*
X1098505Y1981145D1*
X1099646Y1979645D1*
X1100755Y1978145D1*
X1101935Y1976645D1*
X1103046Y1975145D1*
X1103874Y1973645D1*
X1104354Y1972145D1*
X1104588Y1970645D1*
X1104690Y1969145D1*
X1104731Y1967645D1*
X1104747Y1966145D1*
X1104755Y1964645D1*
X1083755Y2048645D2*
X1086698Y2047145D1*
X1089504Y2045645D1*
X1092132Y2044145D1*
X1094686Y2042645D1*
X1097255Y2041145D1*
X1152755Y2048645D2*
X1149824Y2047145D1*
X1147127Y2045645D1*
X1144934Y2044145D1*
X1143345Y2042645D1*
X1142235Y2041145D1*
X1141500Y2039645D1*
X1141090Y2038145D1*
X1140893Y2036645D1*
X1140808Y2035145D1*
X1140780Y2033645D1*
X1140820Y2032145D1*
X1141013Y2030645D1*
X1141423Y2029145D1*
X1142004Y2027645D1*
X1142689Y2026145D1*
X1143516Y2024645D1*
X1144659Y2023145D1*
X1146388Y2021645D1*
X1149192Y2020145D1*
X1154081Y2018645D1*
X1161651Y2017145D1*
X1170755Y2015645D1*
Y2014145D1*
X1170749Y2012645D1*
X1170692Y2011145D1*
X1170460Y2009645D1*
X1169947Y2008145D1*
X1169255Y2006645D1*
X1161755Y2048645D2*
X1165960Y2047145D1*
X1169843Y2045645D1*
X1173380Y2044145D1*
X1176755Y2042645D1*
X1229255Y2048645D2*
X1226555Y2047145D1*
X1224231Y2045645D1*
X1222426Y2044145D1*
X1221100Y2042645D1*
X1220129Y2041145D1*
X1219457Y2039645D1*
X1219074Y2038145D1*
X1218888Y2036645D1*
X1218806Y2035145D1*
X1218774Y2033645D1*
X1218761Y2032145D1*
X1218757Y2030645D1*
X1218761Y2029145D1*
X1218814Y2027645D1*
X1219010Y2026145D1*
X1219422Y2024645D1*
X1220004Y2023145D1*
X1220678Y2021645D1*
X1221398Y2020145D1*
X1222141Y2018645D1*
X1222941Y2017145D1*
X1223886Y2015645D1*
X1225042Y2014145D1*
X1226320Y2012645D1*
X1227553Y2011145D1*
X1228664Y2009645D1*
X1229768Y2008145D1*
X1231002Y2006645D1*
X1232361Y2005145D1*
X1233791Y2003645D1*
X1235212Y2002145D1*
X1236511Y2000645D1*
X1237648Y1999145D1*
X1238762Y1997645D1*
X1240000Y1996145D1*
X1241361Y1994645D1*
X1242797Y1993145D1*
X1244271Y1991645D1*
X1245760Y1990145D1*
X1247257Y1988645D1*
X1248755Y1987145D1*
X1250255Y1985645D1*
X1251749Y1984145D1*
X1253196Y1982645D1*
X1254505Y1981145D1*
X1255646Y1979645D1*
X1256755Y1978145D1*
X1257935Y1976645D1*
X1259046Y1975145D1*
X1259874Y1973645D1*
X1260354Y1972145D1*
X1260588Y1970645D1*
X1260690Y1969145D1*
X1260731Y1967645D1*
X1260747Y1966145D1*
X1260755Y1964645D1*
X1239755Y2048645D2*
X1242698Y2047145D1*
X1245504Y2045645D1*
X1248132Y2044145D1*
X1250686Y2042645D1*
X1253255Y2041145D1*
X1308755Y2048645D2*
X1301806Y2047145D1*
X1295359Y2045645D1*
X1289255Y2044145D1*
X1313255Y2048645D2*
X1317165Y2047145D1*
X1320420Y2045645D1*
X1322919Y2044145D1*
X1324847Y2042645D1*
X1326308Y2041145D1*
X1327446Y2039645D1*
X1327862Y2038145D1*
X1328087Y2036645D1*
X1328189Y2035145D1*
X1328225Y2033645D1*
X1328182Y2032145D1*
X1327944Y2030645D1*
X1327389Y2029145D1*
X1326582Y2027645D1*
X1325627Y2026145D1*
X1324368Y2024645D1*
X1322563Y2023145D1*
X1320218Y2021645D1*
X1317473Y2020145D1*
X1314363Y2018645D1*
X1310866Y2017145D1*
X1307142Y2015645D1*
X1303502Y2014145D1*
X1300110Y2012645D1*
X1296967Y2011145D1*
X1294127Y2009645D1*
X1291699Y2008145D1*
X1289679Y2006645D1*
X1287935Y2005145D1*
X1286381Y2003645D1*
X1285035Y2002145D1*
X1283937Y2000645D1*
X1283066Y1999145D1*
X1282428Y1997645D1*
X1282008Y1996145D1*
X1281635Y1994645D1*
X1281196Y1993145D1*
X1280780Y1991645D1*
X1280512Y1990145D1*
X1280421Y1988645D1*
X1280547Y1987145D1*
X1280880Y1985645D1*
X1281260Y1984145D1*
X1281571Y1982645D1*
X1281905Y1981145D1*
X1282381Y1979645D1*
X1282988Y1978145D1*
X1283678Y1976645D1*
X1284455Y1975145D1*
X1285396Y1973645D1*
X1286614Y1972145D1*
X1288193Y1970645D1*
X1290238Y1969145D1*
X1292816Y1967645D1*
X1296022Y1966145D1*
X1299934Y1964645D1*
X1304255Y1963145D1*
X920255Y2047145D2*
X916113Y2045645D1*
X912492Y2044145D1*
X909652Y2042645D1*
X907599Y2041145D1*
X906166Y2039645D1*
X905153Y2038145D1*
X904466Y2036645D1*
X904077Y2035145D1*
X903889Y2033645D1*
X903807Y2032145D1*
X903774Y2030645D1*
X903762Y2029145D1*
X903763Y2027645D1*
X903814Y2026145D1*
X904011Y2024645D1*
X904428Y2023145D1*
X905063Y2021645D1*
X905939Y2020145D1*
X907136Y2018645D1*
X908763Y2017145D1*
X911042Y2015645D1*
X914106Y2014145D1*
X917797Y2012645D1*
X921755Y2011145D1*
X936755Y2047145D2*
Y2045645D1*
Y2044145D1*
Y2042645D1*
Y2041145D1*
Y2039645D1*
Y2038145D1*
Y2036645D1*
Y2035145D1*
Y2033645D1*
Y2032145D1*
Y2030645D1*
Y2029145D1*
Y2027645D1*
Y2026145D1*
Y2024645D1*
Y2023145D1*
Y2021645D1*
Y2020145D1*
Y2018645D1*
Y2017145D1*
Y2015645D1*
Y2014145D1*
Y2012645D1*
Y2011145D1*
X1388255Y2047145D2*
X1384113Y2045645D1*
X1380492Y2044145D1*
X1377652Y2042645D1*
X1375599Y2041145D1*
X1374166Y2039645D1*
X1373153Y2038145D1*
X1372466Y2036645D1*
X1372077Y2035145D1*
X1371889Y2033645D1*
X1371807Y2032145D1*
X1371774Y2030645D1*
X1371762Y2029145D1*
X1371763Y2027645D1*
X1371814Y2026145D1*
X1372011Y2024645D1*
X1372428Y2023145D1*
X1373063Y2021645D1*
X1373939Y2020145D1*
X1375136Y2018645D1*
X1376763Y2017145D1*
X1379042Y2015645D1*
X1382106Y2014145D1*
X1385797Y2012645D1*
X1389755Y2011145D1*
X1404755Y2047145D2*
Y2045645D1*
Y2044145D1*
Y2042645D1*
Y2041145D1*
Y2039645D1*
Y2038145D1*
Y2036645D1*
Y2035145D1*
Y2033645D1*
Y2032145D1*
Y2030645D1*
Y2029145D1*
Y2027645D1*
Y2026145D1*
Y2024645D1*
Y2023145D1*
Y2021645D1*
Y2020145D1*
Y2018645D1*
Y2017145D1*
Y2015645D1*
Y2014145D1*
Y2012645D1*
Y2011145D1*
X834755Y2035145D2*
X830946Y2033645D1*
X827781Y2032145D1*
X825239Y2030645D1*
X823186Y2029145D1*
X821435Y2027645D1*
X819880Y2026145D1*
X818534Y2024645D1*
X817431Y2023145D1*
X816507Y2021645D1*
X815684Y2020145D1*
X814957Y2018645D1*
X814385Y2017145D1*
X813992Y2015645D1*
X813629Y2014145D1*
X813194Y2012645D1*
X812779Y2011145D1*
X812506Y2009645D1*
X812363Y2008145D1*
X812298Y2006645D1*
X812271Y2005145D1*
X812261Y2003645D1*
X812263Y2002145D1*
X812318Y2000645D1*
X812550Y1999145D1*
X813062Y1997645D1*
X813755Y1996145D1*
X848255Y2035145D2*
X851884Y2033645D1*
X855064Y2032145D1*
X857673Y2030645D1*
X859776Y2029145D1*
X861554Y2027645D1*
X863122Y2026145D1*
X864472Y2024645D1*
X865578Y2023145D1*
X866502Y2021645D1*
X867331Y2020145D1*
X868111Y2018645D1*
X868868Y2017145D1*
X869568Y2015645D1*
X870130Y2014145D1*
X870520Y2012645D1*
X870881Y2011145D1*
X871315Y2009645D1*
X871730Y2008145D1*
X872004Y2006645D1*
X872147Y2005145D1*
X872212Y2003645D1*
X872239Y2002145D1*
X872249Y2000645D1*
X872253Y1999145D1*
X872254Y1997645D1*
X872255Y1996145D1*
X872249Y1994645D1*
X872196Y1993145D1*
X872005Y1991645D1*
X871646Y1990145D1*
X871255Y1988645D1*
X870941Y1987145D1*
X870605Y1985645D1*
X870129Y1984145D1*
X869521Y1982645D1*
X868838Y1981145D1*
X868113Y1979645D1*
X867369Y1978145D1*
X866569Y1976645D1*
X865624Y1975145D1*
X864456Y1973645D1*
X863073Y1972145D1*
X861445Y1970645D1*
X859499Y1969145D1*
X857127Y1967645D1*
X854161Y1966145D1*
X850597Y1964645D1*
X846755Y1963145D1*
X731255Y2033645D2*
X731825Y2032145D1*
X732463Y2030645D1*
X733113Y2029145D1*
X733697Y2027645D1*
X734217Y2026145D1*
X734748Y2024645D1*
X735259Y2023145D1*
X735748Y2021645D1*
X736310Y2020145D1*
X736954Y2018645D1*
X737608Y2017145D1*
X738195Y2015645D1*
X738716Y2014145D1*
X739248Y2012645D1*
X739759Y2011145D1*
X740248Y2009645D1*
X740810Y2008145D1*
X741454Y2006645D1*
X742108Y2005145D1*
X742695Y2003645D1*
X743222Y2002145D1*
X743800Y2000645D1*
X744450Y1999145D1*
X745107Y1997645D1*
X745695Y1996145D1*
X746216Y1994645D1*
X746748Y1993145D1*
X747259Y1991645D1*
X747748Y1990145D1*
X748310Y1988645D1*
X748954Y1987145D1*
X749608Y1985645D1*
X750195Y1984145D1*
X750716Y1982645D1*
X751248Y1981145D1*
X751759Y1979645D1*
X752248Y1978145D1*
X752810Y1976645D1*
X753454Y1975145D1*
X754108Y1973645D1*
X754695Y1972145D1*
X755216Y1970645D1*
X755742Y1969145D1*
X756205Y1967645D1*
X756520Y1966145D1*
X756755Y1964645D1*
X741755Y2033645D2*
X742504Y2032145D1*
X743133Y2030645D1*
X743764Y2029145D1*
X744436Y2027645D1*
X745102Y2026145D1*
X745693Y2024645D1*
X746215Y2023145D1*
X746747Y2021645D1*
X747259Y2020145D1*
X747742Y2018645D1*
X748258Y2017145D1*
X748763Y2015645D1*
X749249Y2014145D1*
X749811Y2012645D1*
X750454Y2011145D1*
X751108Y2009645D1*
X751695Y2008145D1*
X752216Y2006645D1*
X752748Y2005145D1*
X753259Y2003645D1*
X753742Y2002145D1*
X754258Y2000645D1*
X754763Y1999145D1*
X755249Y1997645D1*
X755811Y1996145D1*
X756454Y1994645D1*
X757108Y1993145D1*
X757695Y1991645D1*
X758216Y1990145D1*
X758742Y1988645D1*
X759206Y1987145D1*
X759551Y1985645D1*
X759893Y1984145D1*
X760325Y1982645D1*
X760791Y1981145D1*
X761254Y1979645D1*
X761762Y1978145D1*
X762269Y1976645D1*
X762790Y1975145D1*
X763460Y1973645D1*
X764255Y1972145D1*
X786755Y2033645D2*
X786185Y2032145D1*
X785546Y2030645D1*
X784896Y2029145D1*
X784312Y2027645D1*
X783793Y2026145D1*
X783262Y2024645D1*
X782750Y2023145D1*
X782268Y2021645D1*
X781752Y2020145D1*
X781247Y2018645D1*
X780760Y2017145D1*
X780199Y2015645D1*
X779556Y2014145D1*
X778901Y2012645D1*
X778314Y2011145D1*
X777794Y2009645D1*
X777262Y2008145D1*
X776751Y2006645D1*
X776268Y2005145D1*
X775752Y2003645D1*
X775247Y2002145D1*
X774760Y2000645D1*
X774199Y1999145D1*
X773556Y1997645D1*
X772901Y1996145D1*
X772314Y1994645D1*
X771794Y1993145D1*
X771262Y1991645D1*
X770751Y1990145D1*
X770268Y1988645D1*
X769752Y1987145D1*
X769247Y1985645D1*
X768766Y1984145D1*
X768251Y1982645D1*
X767747Y1981145D1*
X767266Y1979645D1*
X766751Y1978145D1*
X766242Y1976645D1*
X765720Y1975145D1*
X765049Y1973645D1*
X764255Y1972145D1*
X797255Y2033645D2*
X796736Y2032145D1*
X796237Y2030645D1*
X795756Y2029145D1*
X795197Y2027645D1*
X794555Y2026145D1*
X793901Y2024645D1*
X793314Y2023145D1*
X792794Y2021645D1*
X792262Y2020145D1*
X791751Y2018645D1*
X791262Y2017145D1*
X790699Y2015645D1*
X790056Y2014145D1*
X789401Y2012645D1*
X788814Y2011145D1*
X788294Y2009645D1*
X787762Y2008145D1*
X787251Y2006645D1*
X786762Y2005145D1*
X786199Y2003645D1*
X785556Y2002145D1*
X784901Y2000645D1*
X784314Y1999145D1*
X783794Y1997645D1*
X783262Y1996145D1*
X782751Y1994645D1*
X782262Y1993145D1*
X781699Y1991645D1*
X781056Y1990145D1*
X780401Y1988645D1*
X779814Y1987145D1*
X779294Y1985645D1*
X778762Y1984145D1*
X778251Y1982645D1*
X777762Y1981145D1*
X777199Y1979645D1*
X776556Y1978145D1*
X775901Y1976645D1*
X775314Y1975145D1*
X774794Y1973645D1*
X774262Y1972145D1*
X773751Y1970645D1*
X773266Y1969145D1*
X772744Y1967645D1*
X772227Y1966145D1*
X771755Y1964645D1*
X836255Y2026145D2*
X833550Y2024645D1*
X831178Y2023145D1*
X829229Y2021645D1*
X827682Y2020145D1*
X826494Y2018645D1*
X825587Y2017145D1*
X824942Y2015645D1*
X824569Y2014145D1*
X824386Y2012645D1*
X824306Y2011145D1*
X824274Y2009645D1*
X824261Y2008145D1*
X824257Y2006645D1*
X824255Y2005145D1*
X846755Y2026145D2*
X849686Y2024645D1*
X852382Y2023145D1*
X854576Y2021645D1*
X856170Y2020145D1*
X857334Y2018645D1*
X858260Y2017145D1*
X859028Y2015645D1*
X859616Y2014145D1*
X860015Y2012645D1*
X860379Y2011145D1*
X860815Y2009645D1*
X861234Y2008145D1*
X861531Y2006645D1*
X861755Y2005145D1*
X1154255Y2006645D2*
X1150293Y2005145D1*
X1146899Y2003645D1*
X1144232Y2002145D1*
X1142272Y2000645D1*
X1140881Y1999145D1*
X1139838Y1997645D1*
X1139016Y1996145D1*
X1138413Y1994645D1*
X1138058Y1993145D1*
X1137882Y1991645D1*
X1137804Y1990145D1*
X1137779Y1988645D1*
X1137820Y1987145D1*
X1138013Y1985645D1*
X1138429Y1984145D1*
X1139063Y1982645D1*
X1139933Y1981145D1*
X1141078Y1979645D1*
X1142514Y1978145D1*
X1144433Y1976645D1*
X1147108Y1975145D1*
X1150515Y1973645D1*
X1154255Y1972145D1*
X921755Y2002145D2*
X920487Y2000645D1*
X919364Y1999145D1*
X918305Y1997645D1*
X917265Y1996145D1*
X916317Y1994645D1*
X915456Y1993145D1*
X914609Y1991645D1*
X913696Y1990145D1*
X912722Y1988645D1*
X911800Y1987145D1*
X910956Y1985645D1*
X910160Y1984145D1*
X909386Y1982645D1*
X908581Y1981145D1*
X907685Y1979645D1*
X906718Y1978145D1*
X905799Y1976645D1*
X904950Y1975145D1*
X904107Y1973645D1*
X903195Y1972145D1*
X902221Y1970645D1*
X901305Y1969145D1*
X900499Y1967645D1*
X899828Y1966145D1*
X899255Y1964645D1*
X936755Y2002145D2*
Y2000645D1*
Y1999145D1*
Y1997645D1*
Y1996145D1*
Y1994645D1*
Y1993145D1*
Y1991645D1*
Y1990145D1*
Y1988645D1*
Y1987145D1*
Y1985645D1*
Y1984145D1*
Y1982645D1*
Y1981145D1*
Y1979645D1*
Y1978145D1*
Y1976645D1*
Y1975145D1*
Y1973645D1*
Y1972145D1*
Y1970645D1*
Y1969145D1*
Y1967645D1*
Y1966145D1*
Y1964645D1*
X1389755Y2002145D2*
X1388487Y2000645D1*
X1387364Y1999145D1*
X1386305Y1997645D1*
X1385265Y1996145D1*
X1384317Y1994645D1*
X1383456Y1993145D1*
X1382609Y1991645D1*
X1381696Y1990145D1*
X1380722Y1988645D1*
X1379800Y1987145D1*
X1378956Y1985645D1*
X1378160Y1984145D1*
X1377386Y1982645D1*
X1376581Y1981145D1*
X1375685Y1979645D1*
X1374718Y1978145D1*
X1373799Y1976645D1*
X1372950Y1975145D1*
X1372107Y1973645D1*
X1371195Y1972145D1*
X1370221Y1970645D1*
X1369305Y1969145D1*
X1368499Y1967645D1*
X1367828Y1966145D1*
X1367255Y1964645D1*
X1404755Y2002145D2*
Y2000645D1*
Y1999145D1*
Y1997645D1*
Y1996145D1*
Y1994645D1*
Y1993145D1*
Y1991645D1*
Y1990145D1*
Y1988645D1*
Y1987145D1*
Y1985645D1*
Y1984145D1*
Y1982645D1*
Y1981145D1*
Y1979645D1*
Y1978145D1*
Y1976645D1*
Y1975145D1*
Y1973645D1*
Y1972145D1*
Y1970645D1*
Y1969145D1*
Y1967645D1*
Y1966145D1*
Y1964645D1*
X861755Y1996145D2*
X861749Y1994645D1*
X861696Y1993145D1*
X861505Y1991645D1*
X861140Y1990145D1*
X860703Y1988645D1*
X860244Y1987145D1*
X859693Y1985645D1*
X859048Y1984145D1*
X858342Y1982645D1*
X857552Y1981145D1*
X856556Y1979645D1*
X855146Y1978145D1*
X853208Y1976645D1*
X850791Y1975145D1*
X848079Y1973645D1*
X845255Y1972145D1*
X1181255Y1976645D2*
X1176651Y1975145D1*
X1171578Y1973645D1*
X1166255Y1972145D1*
X1184255Y1976645D2*
Y1975145D1*
Y1973645D1*
X1184249Y1972145D1*
X1184179Y1970645D1*
X1184003Y1969145D1*
X1183039Y1967645D1*
X1180309Y1966145D1*
X1176560Y1964645D1*
X1172255Y1963145D1*
X1337255Y1976645D2*
X1331151Y1975145D1*
X1324578Y1973645D1*
X1317755Y1972145D1*
X1340255Y1976645D2*
Y1975145D1*
Y1973645D1*
X1340249Y1972145D1*
X1340179Y1970645D1*
X1340003Y1969145D1*
X1339016Y1967645D1*
X1336024Y1966145D1*
X1331755Y1964645D1*
X1326755Y1963145D1*
X816755Y1975145D2*
Y1973645D1*
X816761Y1972145D1*
X816831Y1970645D1*
X817007Y1969145D1*
X817971Y1967645D1*
X820700Y1966145D1*
X824450Y1964645D1*
X828755Y1963145D1*
X821255Y1975145D2*
X827255Y1973645D1*
X833255Y1972145D1*
X1047755Y1973645D2*
Y1972145D1*
Y1970645D1*
Y1969145D1*
Y1967645D1*
Y1966145D1*
Y1964645D1*
X1203755Y1973645D2*
Y1972145D1*
Y1970645D1*
Y1969145D1*
Y1967645D1*
Y1966145D1*
Y1964645D1*
X1155522Y1166847D2*
X1154137Y1165347D1*
X1153111Y1163847D1*
X1152861Y1162347D1*
X1152804Y1160847D1*
X1153446Y1159347D1*
X1154404Y1157847D1*
X1155522Y1156347D1*
X1160022Y1166847D2*
X1161221Y1165347D1*
X1162218Y1163847D1*
X1162526Y1162347D1*
X1162160Y1160847D1*
X1161550Y1159347D1*
X1160147Y1157847D1*
X1158522Y1156347D1*
X1131522Y1141347D2*
X1128817Y1139847D1*
X1126439Y1138347D1*
X1124443Y1136847D1*
X1122752Y1135347D1*
X1121344Y1133847D1*
X1120214Y1132347D1*
X1119279Y1130847D1*
X1118453Y1129347D1*
X1117725Y1127847D1*
X1117158Y1126347D1*
X1116817Y1124847D1*
X1116646Y1123347D1*
X1116570Y1121847D1*
X1116540Y1120347D1*
X1116528Y1118847D1*
X1116524Y1117347D1*
X1116522Y1115847D1*
X1116528Y1114347D1*
X1116580Y1112847D1*
X1116777Y1111347D1*
X1117189Y1109847D1*
X1117771Y1108347D1*
X1118450Y1106847D1*
X1119224Y1105347D1*
X1120158Y1103847D1*
X1121323Y1102347D1*
X1122711Y1100847D1*
X1124384Y1099347D1*
X1126457Y1097847D1*
X1128905Y1096347D1*
X1131522Y1094847D1*
X1145022Y1141347D2*
X1147727Y1139847D1*
X1150104Y1138347D1*
X1152101Y1136847D1*
X1153792Y1135347D1*
X1155200Y1133847D1*
X1156330Y1132347D1*
X1157264Y1130847D1*
X1158090Y1129347D1*
X1158825Y1127847D1*
X1159444Y1126347D1*
X1159976Y1124847D1*
X1160506Y1123347D1*
X1160967Y1121847D1*
X1161259Y1120347D1*
X1161404Y1118847D1*
X1161419Y1117347D1*
X1161256Y1115847D1*
X1160901Y1114347D1*
X1160468Y1112847D1*
X1160010Y1111347D1*
X1159460Y1109847D1*
X1158815Y1108347D1*
X1158109Y1106847D1*
X1157325Y1105347D1*
X1156387Y1103847D1*
X1155227Y1102347D1*
X1153886Y1100847D1*
X1152347Y1099347D1*
X1150414Y1097847D1*
X1147901Y1096347D1*
X1145022Y1094847D1*
X1139022Y1135347D2*
X1134880Y1133847D1*
X1131253Y1132347D1*
X1128366Y1130847D1*
X1126169Y1129347D1*
X1124516Y1127847D1*
X1123286Y1126347D1*
X1122362Y1124847D1*
X1121712Y1123347D1*
X1121337Y1121847D1*
X1121153Y1120347D1*
X1121073Y1118847D1*
X1121046Y1117347D1*
X1121087Y1115847D1*
X1121280Y1114347D1*
X1121696Y1112847D1*
X1122330Y1111347D1*
X1123206Y1109847D1*
X1124403Y1108347D1*
X1126060Y1106847D1*
X1128624Y1105347D1*
X1132847Y1103847D1*
X1139102Y1102347D1*
X1146522Y1100847D1*
X1137522Y1135347D2*
X1141664Y1133847D1*
X1145290Y1132347D1*
X1148183Y1130847D1*
X1150428Y1129347D1*
X1152219Y1127847D1*
X1153617Y1126347D1*
X1154572Y1124847D1*
X1155152Y1123347D1*
X1155590Y1121847D1*
X1156005Y1120347D1*
X1156241Y1118847D1*
X1156159Y1117347D1*
X1155914Y1115847D1*
X1155659Y1114347D1*
X1155297Y1112847D1*
X1154635Y1111347D1*
X1153619Y1109847D1*
X1152343Y1108347D1*
X1150799Y1106847D1*
X1148555Y1105347D1*
X1144704Y1103847D1*
X1138728Y1102347D1*
X1131522Y1100847D1*
X1118022Y1081347D2*
X1118039Y1079847D1*
X1118211Y1078347D1*
X1118619Y1076847D1*
X1120373Y1075347D1*
X1122522Y1073847D1*
X1121259Y1072347D1*
X1120184Y1070847D1*
X1119269Y1069347D1*
X1118450Y1067847D1*
X1117724Y1066347D1*
X1117158Y1064847D1*
X1116817Y1063347D1*
X1116646Y1061847D1*
X1116570Y1060347D1*
X1116540Y1058847D1*
X1116528Y1057347D1*
X1116524Y1055847D1*
X1116528Y1054347D1*
X1116586Y1052847D1*
X1116830Y1051347D1*
X1117386Y1049847D1*
X1118195Y1048347D1*
X1119161Y1046847D1*
X1120534Y1045347D1*
X1122797Y1043847D1*
X1126119Y1042347D1*
X1130022Y1040847D1*
X1161522Y1081347D2*
Y1079847D1*
Y1078347D1*
Y1076847D1*
Y1075347D1*
X1139022D2*
X1133906Y1073847D1*
X1129780Y1072347D1*
X1126826Y1070847D1*
X1124792Y1069347D1*
X1123394Y1067847D1*
X1122402Y1066347D1*
X1121726Y1064847D1*
X1121342Y1063347D1*
X1121155Y1061847D1*
X1121079Y1060347D1*
X1121099Y1058847D1*
X1121284Y1057347D1*
X1121703Y1055847D1*
X1122395Y1054347D1*
X1123514Y1052847D1*
X1125249Y1051347D1*
X1127518Y1049847D1*
X1130022Y1048347D1*
X1161522D2*
X1161516Y1046847D1*
X1161459Y1045347D1*
X1161227Y1043847D1*
X1160714Y1042347D1*
X1160022Y1040847D1*
X1086522Y1025847D2*
Y1024347D1*
Y1022847D1*
Y1021347D1*
Y1019847D1*
Y1018347D1*
X1160022Y1025847D2*
X1160714Y1024347D1*
X1161145Y1022847D1*
X1161363Y1021347D1*
X1161464Y1019847D1*
X1161522Y1018347D1*
X1094022Y1003347D2*
X1092817Y1001847D1*
X1091939Y1000347D1*
X1091449Y998847D1*
X1091184Y997347D1*
X1091460Y995847D1*
X1092606Y994347D1*
X1094022Y992847D1*
X1097022Y1003347D2*
X1097940Y1001847D1*
X1098690Y1000347D1*
X1099262Y998847D1*
X1099083Y997347D1*
X1098611Y995847D1*
X1097888Y994347D1*
X1097022Y992847D1*
X1118022Y1001847D2*
Y1000347D1*
Y998847D1*
Y997347D1*
Y995847D1*
Y994347D1*
X1160022Y1001847D2*
X1160714Y1000347D1*
X1161145Y998847D1*
X1161363Y997347D1*
X1161464Y995847D1*
X1161522Y994347D1*
X1118022Y977847D2*
X1118039Y976347D1*
X1118211Y974847D1*
X1118619Y973347D1*
X1120373Y971847D1*
X1122522Y970347D1*
X1121259Y968847D1*
X1120184Y967347D1*
X1119269Y965847D1*
X1118450Y964347D1*
X1117724Y962847D1*
X1117158Y961347D1*
X1116817Y959847D1*
X1116646Y958347D1*
X1116570Y956847D1*
X1116540Y955347D1*
X1116528Y953847D1*
X1116524Y952347D1*
X1116528Y950847D1*
X1116586Y949347D1*
X1116830Y947847D1*
X1117386Y946347D1*
X1118195Y944847D1*
X1119161Y943347D1*
X1120534Y941847D1*
X1122797Y940347D1*
X1126119Y938847D1*
X1130022Y937347D1*
X1161522Y977847D2*
Y976347D1*
Y974847D1*
Y973347D1*
Y971847D1*
X1139022D2*
X1133906Y970347D1*
X1129780Y968847D1*
X1126826Y967347D1*
X1124792Y965847D1*
X1123394Y964347D1*
X1122402Y962847D1*
X1121726Y961347D1*
X1121342Y959847D1*
X1121155Y958347D1*
X1121079Y956847D1*
X1121099Y955347D1*
X1121284Y953847D1*
X1121703Y952347D1*
X1122395Y950847D1*
X1123514Y949347D1*
X1125249Y947847D1*
X1127518Y946347D1*
X1130022Y944847D1*
X1161522D2*
X1161516Y943347D1*
X1161459Y941847D1*
X1161227Y940347D1*
X1160714Y938847D1*
X1160022Y937347D1*
X1130022Y925347D2*
X1127317Y923847D1*
X1124945Y922347D1*
X1122996Y920847D1*
X1121449Y919347D1*
X1120256Y917847D1*
X1119295Y916347D1*
X1118459Y914847D1*
X1117727Y913347D1*
X1117159Y911847D1*
X1116817Y910347D1*
X1116646Y908847D1*
X1116570Y907347D1*
X1116540Y905847D1*
X1116528Y904347D1*
X1116524Y902847D1*
X1116528Y901347D1*
X1116581Y899847D1*
X1116777Y898347D1*
X1117189Y896847D1*
X1117771Y895347D1*
X1118450Y893847D1*
X1119230Y892347D1*
X1120223Y890847D1*
X1121631Y889347D1*
X1123569Y887847D1*
X1125985Y886347D1*
X1128698Y884847D1*
X1131522Y883347D1*
X1146522Y925347D2*
X1149227Y923847D1*
X1151604Y922347D1*
X1153601Y920847D1*
X1155292Y919347D1*
X1156700Y917847D1*
X1157824Y916347D1*
X1158705Y914847D1*
X1159346Y913347D1*
X1159768Y911847D1*
X1160141Y910347D1*
X1160580Y908847D1*
X1160997Y907347D1*
X1161270Y905847D1*
X1161408Y904347D1*
X1161420Y902847D1*
X1161256Y901347D1*
X1160901Y899847D1*
X1160468Y898347D1*
X1160010Y896847D1*
X1159460Y895347D1*
X1158815Y893847D1*
X1158109Y892347D1*
X1157325Y890847D1*
X1156387Y889347D1*
X1155228Y887847D1*
X1153908Y886347D1*
X1152522Y884847D1*
X1140522Y919347D2*
Y917847D1*
Y916347D1*
Y914847D1*
Y913347D1*
Y911847D1*
Y910347D1*
Y908847D1*
Y907347D1*
Y905847D1*
Y904347D1*
Y902847D1*
Y901347D1*
Y899847D1*
Y898347D1*
Y896847D1*
Y895347D1*
Y893847D1*
Y892347D1*
Y890847D1*
Y889347D1*
Y887847D1*
Y886347D1*
Y884847D1*
Y883347D1*
Y919347D2*
X1144432Y917847D1*
X1147687Y916347D1*
X1150186Y914847D1*
X1152114Y913347D1*
X1153575Y911847D1*
X1154713Y910347D1*
X1155186Y908847D1*
X1155598Y907347D1*
X1156006Y905847D1*
X1156241Y904347D1*
X1156154Y902847D1*
X1155861Y901347D1*
X1155468Y899847D1*
X1154938Y898347D1*
X1154250Y896847D1*
X1153351Y895347D1*
X1152163Y893847D1*
X1150714Y892347D1*
X1149236Y890847D1*
X1147943Y889347D1*
X1147612Y887847D1*
X1147798Y886347D1*
X1148022Y884847D1*
X1131522Y917847D2*
X1128822Y916347D1*
X1126498Y914847D1*
X1124693Y913347D1*
X1123367Y911847D1*
X1122396Y910347D1*
X1121724Y908847D1*
X1121341Y907347D1*
X1121155Y905847D1*
X1121079Y904347D1*
X1121099Y902847D1*
X1121284Y901347D1*
X1121697Y899847D1*
X1122336Y898347D1*
X1123288Y896847D1*
X1124559Y895347D1*
X1127663Y893847D1*
X1132155Y892347D1*
X1137522Y890847D1*
X1136022Y917847D2*
Y916347D1*
Y914847D1*
Y913347D1*
Y911847D1*
Y910347D1*
Y908847D1*
Y907347D1*
Y905847D1*
Y904347D1*
Y902847D1*
Y901347D1*
Y899847D1*
Y898347D1*
X1135998Y896847D1*
X1135928Y895347D1*
X1135225Y893847D1*
X1132887Y892347D1*
X1130022Y890847D1*
X1074363Y2528958D2*
X1072233Y2527458D1*
X1070548Y2525958D1*
X1069386Y2524458D1*
X1068592Y2522958D1*
X1067949Y2521458D1*
X1067444Y2519958D1*
X1067135Y2518458D1*
X1066978Y2516958D1*
X1066908Y2515458D1*
X1066880Y2513958D1*
X1066869Y2512458D1*
X1066865Y2510958D1*
X1066864Y2509458D1*
X1066863Y2507958D1*
Y2506458D1*
Y2504958D1*
Y2503458D1*
Y2501958D1*
Y2500458D1*
Y2498958D1*
Y2497458D1*
Y2495958D1*
Y2494458D1*
Y2492958D1*
Y2491458D1*
Y2489958D1*
X1081863Y2528958D2*
X1084117Y2527458D1*
X1086282Y2525958D1*
X1088524Y2524458D1*
X1090863Y2522958D1*
X1119363Y2528958D2*
X1116715Y2527458D1*
X1114536Y2525958D1*
X1112946Y2524458D1*
X1111784Y2522958D1*
X1110858Y2521458D1*
X1110089Y2519958D1*
X1109508Y2518458D1*
X1109161Y2516958D1*
X1108982Y2515458D1*
X1108853Y2513958D1*
X1108630Y2512458D1*
X1108246Y2510958D1*
X1107796Y2509458D1*
X1107363Y2507958D1*
X1128363Y2528958D2*
X1131248Y2527458D1*
X1133603Y2525958D1*
X1135487Y2524458D1*
X1136983Y2522958D1*
X1138143Y2521458D1*
X1139045Y2519958D1*
X1139737Y2518458D1*
X1140300Y2516958D1*
X1140841Y2515458D1*
X1141306Y2513958D1*
X1141599Y2512458D1*
X1141751Y2510958D1*
X1141819Y2509458D1*
X1141840Y2507958D1*
X1141798Y2506458D1*
X1141611Y2504958D1*
X1141247Y2503458D1*
X1140810Y2501958D1*
X1140352Y2500458D1*
X1139795Y2498958D1*
X1139097Y2497458D1*
X1138200Y2495958D1*
X1137046Y2494458D1*
X1135609Y2492958D1*
X1133723Y2491458D1*
X1131230Y2489958D1*
X1128363Y2488458D1*
X1161363Y2528958D2*
X1159407Y2527458D1*
X1157659Y2525958D1*
X1156287Y2524458D1*
X1155221Y2522958D1*
X1154335Y2521458D1*
X1153581Y2519958D1*
X1153005Y2518458D1*
X1152660Y2516958D1*
X1152488Y2515458D1*
X1152412Y2513958D1*
X1152381Y2512458D1*
X1152369Y2510958D1*
X1152365Y2509458D1*
X1152364Y2507958D1*
X1152363Y2506458D1*
Y2504958D1*
X1152369Y2503458D1*
X1152421Y2501958D1*
X1152618Y2500458D1*
X1153030Y2498958D1*
X1153612Y2497458D1*
X1154297Y2495958D1*
X1155124Y2494458D1*
X1156250Y2492958D1*
X1157780Y2491458D1*
X1159546Y2489958D1*
X1161363Y2488458D1*
X1170363Y2528958D2*
X1172836Y2527458D1*
X1175327Y2525958D1*
X1177863Y2524458D1*
X1206363Y2528958D2*
X1204176Y2527458D1*
X1202298Y2525958D1*
X1200777Y2524458D1*
X1199593Y2522958D1*
X1198635Y2521458D1*
X1197800Y2519958D1*
X1197068Y2518458D1*
X1196500Y2516958D1*
X1196158Y2515458D1*
X1195987Y2513958D1*
X1195912Y2512458D1*
X1195881Y2510958D1*
X1195869Y2509458D1*
X1195865Y2507958D1*
X1195864Y2506458D1*
X1195869Y2504958D1*
X1195921Y2503458D1*
X1196118Y2501958D1*
X1196530Y2500458D1*
X1197112Y2498958D1*
X1197792Y2497458D1*
X1198565Y2495958D1*
X1199505Y2494458D1*
X1200721Y2492958D1*
X1202282Y2491458D1*
X1204216Y2489958D1*
X1206363Y2488458D1*
X1216863Y2528958D2*
X1219511Y2527458D1*
X1221690Y2525958D1*
X1223280Y2524458D1*
X1224442Y2522958D1*
X1225368Y2521458D1*
X1226136Y2519958D1*
X1226718Y2518458D1*
X1227070Y2516958D1*
X1227296Y2515458D1*
X1227564Y2513958D1*
X1227954Y2512458D1*
X1228344Y2510958D1*
X1228557Y2509458D1*
X1228507Y2507958D1*
X1228212Y2506458D1*
X1227853Y2504958D1*
X1227596Y2503458D1*
X1227408Y2501958D1*
X1227149Y2500458D1*
X1226711Y2498958D1*
X1226119Y2497458D1*
X1225430Y2495958D1*
X1224597Y2494458D1*
X1223413Y2492958D1*
X1221651Y2491458D1*
X1219372Y2489958D1*
X1216863Y2488458D1*
X1090863Y2527458D2*
X1090587Y2525958D1*
X1090061Y2524458D1*
X1089363Y2522958D1*
X1095363Y2527458D2*
Y2525958D1*
Y2524458D1*
Y2522958D1*
Y2521458D1*
Y2519958D1*
Y2518458D1*
Y2516958D1*
Y2515458D1*
Y2513958D1*
Y2512458D1*
Y2510958D1*
Y2509458D1*
Y2507958D1*
Y2506458D1*
Y2504958D1*
Y2503458D1*
Y2501958D1*
Y2500458D1*
Y2498958D1*
Y2497458D1*
Y2495958D1*
Y2494458D1*
Y2492958D1*
Y2491458D1*
Y2489958D1*
X1177863Y2527458D2*
X1177160Y2525958D1*
X1176363Y2524458D1*
X1182363Y2527458D2*
Y2525958D1*
Y2524458D1*
Y2522958D1*
Y2521458D1*
Y2519958D1*
Y2518458D1*
Y2516958D1*
Y2515458D1*
Y2513958D1*
Y2512458D1*
Y2510958D1*
Y2509458D1*
Y2507958D1*
Y2506458D1*
Y2504958D1*
Y2503458D1*
Y2501958D1*
Y2500458D1*
Y2498958D1*
Y2497458D1*
Y2495958D1*
Y2494458D1*
Y2492958D1*
Y2491458D1*
Y2489958D1*
Y2488458D1*
Y2486958D1*
Y2485458D1*
Y2483958D1*
Y2482458D1*
Y2480958D1*
Y2479458D1*
Y2477958D1*
Y2476458D1*
Y2474958D1*
X1077363Y2524458D2*
X1075926Y2522958D1*
X1074677Y2521458D1*
X1073780Y2519958D1*
X1073221Y2518458D1*
X1072785Y2516958D1*
X1072320Y2515458D1*
X1071894Y2513958D1*
X1071616Y2512458D1*
X1071471Y2510958D1*
X1071406Y2509458D1*
X1071379Y2507958D1*
X1071369Y2506458D1*
X1071365Y2504958D1*
X1071363Y2503458D1*
Y2501958D1*
Y2500458D1*
Y2498958D1*
Y2497458D1*
Y2495958D1*
Y2494458D1*
Y2492958D1*
Y2491458D1*
Y2489958D1*
X1083363Y2524458D2*
X1084857Y2522958D1*
X1086298Y2521458D1*
X1087554Y2519958D1*
X1088498Y2518458D1*
X1089196Y2516958D1*
X1089800Y2515458D1*
X1090290Y2513958D1*
X1090594Y2512458D1*
X1090749Y2510958D1*
X1090818Y2509458D1*
X1090846Y2507958D1*
X1090857Y2506458D1*
X1090861Y2504958D1*
X1090862Y2503458D1*
X1090863Y2501958D1*
Y2500458D1*
Y2498958D1*
Y2497458D1*
Y2495958D1*
Y2494458D1*
Y2492958D1*
Y2491458D1*
Y2489958D1*
X1122363Y2524458D2*
X1119715Y2522958D1*
X1117536Y2521458D1*
X1115951Y2519958D1*
X1114842Y2518458D1*
X1114107Y2516958D1*
X1113697Y2515458D1*
X1113491Y2513958D1*
X1113363Y2512458D1*
X1125363Y2524458D2*
X1128062Y2522958D1*
X1130387Y2521458D1*
X1132192Y2519958D1*
X1133518Y2518458D1*
X1134489Y2516958D1*
X1135165Y2515458D1*
X1135575Y2513958D1*
X1135863Y2512458D1*
X1164363Y2524458D2*
X1162869Y2522958D1*
X1161427Y2521458D1*
X1160177Y2519958D1*
X1159280Y2518458D1*
X1158721Y2516958D1*
X1158285Y2515458D1*
X1157820Y2513958D1*
X1157394Y2512458D1*
X1157116Y2510958D1*
X1156977Y2509458D1*
X1156964Y2507958D1*
X1157129Y2506458D1*
X1157478Y2504958D1*
X1157864Y2503458D1*
X1158183Y2501958D1*
X1158572Y2500458D1*
X1159273Y2498958D1*
X1160285Y2497458D1*
X1162929Y2495958D1*
X1166943Y2494458D1*
X1171863Y2492958D1*
X1170363Y2524458D2*
X1171857Y2522958D1*
X1173298Y2521458D1*
X1174554Y2519958D1*
X1175498Y2518458D1*
X1176196Y2516958D1*
X1176800Y2515458D1*
X1177290Y2513958D1*
X1177594Y2512458D1*
X1177749Y2510958D1*
X1177818Y2509458D1*
X1177840Y2507958D1*
X1177798Y2506458D1*
X1177611Y2504958D1*
X1177247Y2503458D1*
X1176805Y2501958D1*
X1176293Y2500458D1*
X1175516Y2498958D1*
X1174458Y2497458D1*
X1171804Y2495958D1*
X1167786Y2494458D1*
X1162863Y2492958D1*
X1210863Y2524458D2*
X1208215Y2522958D1*
X1206036Y2521458D1*
X1204451Y2519958D1*
X1203342Y2518458D1*
X1202607Y2516958D1*
X1202198Y2515458D1*
X1202001Y2513958D1*
X1201916Y2512458D1*
X1201882Y2510958D1*
X1201870Y2509458D1*
X1201865Y2507958D1*
X1201864Y2506458D1*
X1201869Y2504958D1*
X1201922Y2503458D1*
X1202118Y2501958D1*
X1202542Y2500458D1*
X1203264Y2498958D1*
X1204269Y2497458D1*
X1207464Y2495958D1*
X1212372Y2494458D1*
X1218363Y2492958D1*
X1215363Y2524458D2*
X1216857Y2522958D1*
X1218298Y2521458D1*
X1219554Y2519958D1*
X1220498Y2518458D1*
X1221196Y2516958D1*
X1221800Y2515458D1*
X1222290Y2513958D1*
X1222594Y2512458D1*
X1222749Y2510958D1*
X1222818Y2509458D1*
X1222840Y2507958D1*
X1222798Y2506458D1*
X1222611Y2504958D1*
X1222247Y2503458D1*
X1221805Y2501958D1*
X1221293Y2500458D1*
X1220516Y2498958D1*
X1219458Y2497458D1*
X1216804Y2495958D1*
X1212786Y2494458D1*
X1207863Y2492958D1*
X1135863Y2507958D2*
X1135857Y2506458D1*
X1135804Y2504958D1*
X1135607Y2503458D1*
X1135189Y2501958D1*
X1134549Y2500458D1*
X1133585Y2498958D1*
X1132279Y2497458D1*
X1128652Y2495958D1*
X1123119Y2494458D1*
X1116363Y2492958D1*
X1108863Y2495958D2*
X1109085Y2494458D1*
X1109872Y2492958D1*
X1111917Y2491458D1*
X1114688Y2489958D1*
X1117863Y2488458D1*
X1113363Y2495958D2*
X1122082Y2494458D1*
X1131363Y2492958D1*
X1176363D2*
X1174587Y2491458D1*
X1172561Y2489958D1*
X1170363Y2488458D1*
X1177863Y2492958D2*
Y2491458D1*
Y2489958D1*
Y2488458D1*
Y2486958D1*
Y2485458D1*
Y2483958D1*
Y2482458D1*
Y2480958D1*
Y2479458D1*
Y2477958D1*
Y2476458D1*
Y2474958D1*
X794999Y2529646D2*
X792351Y2528146D1*
X790172Y2526646D1*
X788582Y2525146D1*
X787420Y2523646D1*
X786494Y2522146D1*
X785725Y2520646D1*
X785144Y2519146D1*
X784797Y2517646D1*
X784618Y2516146D1*
X784489Y2514646D1*
X784266Y2513146D1*
X783883Y2511646D1*
X783432Y2510146D1*
X782999Y2508646D1*
X803999Y2529646D2*
X806884Y2528146D1*
X809239Y2526646D1*
X811123Y2525146D1*
X812619Y2523646D1*
X813780Y2522146D1*
X814681Y2520646D1*
X815374Y2519146D1*
X815936Y2517646D1*
X816477Y2516146D1*
X816942Y2514646D1*
X817235Y2513146D1*
X817387Y2511646D1*
X817455Y2510146D1*
X817477Y2508646D1*
X817434Y2507146D1*
X817247Y2505646D1*
X816883Y2504146D1*
X816446Y2502646D1*
X815988Y2501146D1*
X815431Y2499646D1*
X814733Y2498146D1*
X813836Y2496646D1*
X812682Y2495146D1*
X811245Y2493646D1*
X809359Y2492146D1*
X806866Y2490646D1*
X803999Y2489146D1*
X833999Y2529646D2*
X832101Y2528146D1*
X830574Y2526646D1*
X830016Y2525146D1*
X829702Y2523646D1*
X829499Y2522146D1*
X845999Y2529646D2*
X848366Y2528146D1*
X850476Y2526646D1*
X852217Y2525146D1*
X853634Y2523646D1*
X854807Y2522146D1*
X855690Y2520646D1*
X856355Y2519146D1*
X856945Y2517646D1*
X857430Y2516146D1*
X857731Y2514646D1*
X857885Y2513146D1*
X857954Y2511646D1*
X857982Y2510146D1*
X857993Y2508646D1*
X857991Y2507146D1*
X857940Y2505646D1*
X857749Y2504146D1*
X857384Y2502646D1*
X856941Y2501146D1*
X856435Y2499646D1*
X855734Y2498146D1*
X854815Y2496646D1*
X853696Y2495146D1*
X852260Y2493646D1*
X850441Y2492146D1*
X848305Y2490646D1*
X845999Y2489146D1*
X872999Y2529646D2*
X871101Y2528146D1*
X869573Y2526646D1*
X868967Y2525146D1*
X868499Y2523646D1*
X881999Y2529646D2*
X884253Y2528146D1*
X886418Y2526646D1*
X888660Y2525146D1*
X890999Y2523646D1*
X968999Y2529646D2*
X966812Y2528146D1*
X964934Y2526646D1*
X963413Y2525146D1*
X962229Y2523646D1*
X961271Y2522146D1*
X960436Y2520646D1*
X959704Y2519146D1*
X959136Y2517646D1*
X958795Y2516146D1*
X958623Y2514646D1*
X958548Y2513146D1*
X958517Y2511646D1*
X958505Y2510146D1*
X958501Y2508646D1*
X958500Y2507146D1*
X958505Y2505646D1*
X958558Y2504146D1*
X958755Y2502646D1*
X959167Y2501146D1*
X959748Y2499646D1*
X960428Y2498146D1*
X961201Y2496646D1*
X962141Y2495146D1*
X963357Y2493646D1*
X964918Y2492146D1*
X966852Y2490646D1*
X968999Y2489146D1*
X979499Y2529646D2*
X982147Y2528146D1*
X984326Y2526646D1*
X985916Y2525146D1*
X987078Y2523646D1*
X988004Y2522146D1*
X988773Y2520646D1*
X989354Y2519146D1*
X989706Y2517646D1*
X989932Y2516146D1*
X990200Y2514646D1*
X990590Y2513146D1*
X990980Y2511646D1*
X991193Y2510146D1*
X991143Y2508646D1*
X990848Y2507146D1*
X990489Y2505646D1*
X990232Y2504146D1*
X990044Y2502646D1*
X989785Y2501146D1*
X989347Y2499646D1*
X988755Y2498146D1*
X988066Y2496646D1*
X987233Y2495146D1*
X986049Y2493646D1*
X984287Y2492146D1*
X982008Y2490646D1*
X979499Y2489146D1*
X1010999Y2529646D2*
X1009101Y2528146D1*
X1007574Y2526646D1*
X1007016Y2525146D1*
X1006702Y2523646D1*
X1006499Y2522146D1*
X1022999Y2529646D2*
X1025466Y2528146D1*
X1027419Y2526646D1*
X1028836Y2525146D1*
X1029899Y2523646D1*
X1030731Y2522146D1*
X1031332Y2520646D1*
X1031636Y2519146D1*
X1031616Y2517646D1*
X1031276Y2516146D1*
X1030673Y2514646D1*
X1029802Y2513146D1*
X1028545Y2511646D1*
X1026628Y2510146D1*
X1023672Y2508646D1*
X1019813Y2507146D1*
X1015963Y2505646D1*
X1013008Y2504146D1*
X1010835Y2502646D1*
X1010037Y2501146D1*
X1009912Y2499646D1*
X1010689Y2498146D1*
X1014006Y2496646D1*
X1019360Y2495146D1*
X1025999Y2493646D1*
X890999Y2528146D2*
X890723Y2526646D1*
X890197Y2525146D1*
X889499Y2523646D1*
X895499Y2528146D2*
Y2526646D1*
Y2525146D1*
Y2523646D1*
Y2522146D1*
Y2520646D1*
Y2519146D1*
Y2517646D1*
Y2516146D1*
Y2514646D1*
Y2513146D1*
Y2511646D1*
Y2510146D1*
Y2508646D1*
Y2507146D1*
Y2505646D1*
Y2504146D1*
Y2502646D1*
Y2501146D1*
Y2499646D1*
Y2498146D1*
Y2496646D1*
Y2495146D1*
Y2493646D1*
Y2492146D1*
Y2490646D1*
X916499Y2528146D2*
Y2526646D1*
Y2525146D1*
Y2523646D1*
Y2522146D1*
Y2520646D1*
Y2519146D1*
Y2517646D1*
Y2516146D1*
Y2514646D1*
Y2513146D1*
Y2511646D1*
Y2510146D1*
Y2508646D1*
Y2507146D1*
Y2505646D1*
Y2504146D1*
Y2502646D1*
Y2501146D1*
Y2499646D1*
Y2498146D1*
Y2496646D1*
Y2495146D1*
Y2493646D1*
Y2492146D1*
Y2490646D1*
X920999Y2528146D2*
Y2526646D1*
Y2525146D1*
Y2523646D1*
Y2522146D1*
Y2520646D1*
Y2519146D1*
Y2517646D1*
Y2516146D1*
Y2514646D1*
Y2513146D1*
Y2511646D1*
X921005Y2510146D1*
X921057Y2508646D1*
X921249Y2507146D1*
X921608Y2505646D1*
X921998Y2504146D1*
X922319Y2502646D1*
X922707Y2501146D1*
X923409Y2499646D1*
X924421Y2498146D1*
X927065Y2496646D1*
X931079Y2495146D1*
X935999Y2493646D1*
X940499Y2528146D2*
Y2526646D1*
Y2525146D1*
Y2523646D1*
Y2522146D1*
Y2520646D1*
Y2519146D1*
Y2517646D1*
Y2516146D1*
Y2514646D1*
Y2513146D1*
Y2511646D1*
Y2510146D1*
Y2508646D1*
X940493Y2507146D1*
X940440Y2505646D1*
X940249Y2504146D1*
X939884Y2502646D1*
X939441Y2501146D1*
X938900Y2499646D1*
X938175Y2498146D1*
X935729Y2496646D1*
X931836Y2495146D1*
X926999Y2493646D1*
X944999Y2528146D2*
Y2526646D1*
Y2525146D1*
Y2523646D1*
Y2522146D1*
Y2520646D1*
Y2519146D1*
Y2517646D1*
Y2516146D1*
Y2514646D1*
Y2513146D1*
Y2511646D1*
Y2510146D1*
Y2508646D1*
Y2507146D1*
Y2505646D1*
Y2504146D1*
Y2502646D1*
X944993Y2501146D1*
X944940Y2499646D1*
X944743Y2498146D1*
X944325Y2496646D1*
X943685Y2495146D1*
X942758Y2493646D1*
X941394Y2492146D1*
X939572Y2490646D1*
X937499Y2489146D1*
X797999Y2525146D2*
X795351Y2523646D1*
X793172Y2522146D1*
X791587Y2520646D1*
X790478Y2519146D1*
X789743Y2517646D1*
X789333Y2516146D1*
X789127Y2514646D1*
X788999Y2513146D1*
X800999Y2525146D2*
X803698Y2523646D1*
X806023Y2522146D1*
X807828Y2520646D1*
X809154Y2519146D1*
X810125Y2517646D1*
X810801Y2516146D1*
X811211Y2514646D1*
X811499Y2513146D1*
X836999Y2525146D2*
X833999Y2523646D1*
X830999Y2522146D1*
X841499Y2525146D2*
X844198Y2523646D1*
X846523Y2522146D1*
X848328Y2520646D1*
X849654Y2519146D1*
X850625Y2517646D1*
X851296Y2516146D1*
X851679Y2514646D1*
X851866Y2513146D1*
X851947Y2511646D1*
X851980Y2510146D1*
X851992Y2508646D1*
X851991Y2507146D1*
X851940Y2505646D1*
X851743Y2504146D1*
X851325Y2502646D1*
X850685Y2501146D1*
X849721Y2499646D1*
X848415Y2498146D1*
X844788Y2496646D1*
X839255Y2495146D1*
X832499Y2493646D1*
X874499Y2525146D2*
X872999Y2523646D1*
X878999Y2525146D2*
X881879Y2523646D1*
X884430Y2522146D1*
X886402Y2520646D1*
X887780Y2519146D1*
X888707Y2517646D1*
X889371Y2516146D1*
X889954Y2514646D1*
X890433Y2513146D1*
X890733Y2511646D1*
X890886Y2510146D1*
X890954Y2508646D1*
X890982Y2507146D1*
X890993Y2505646D1*
X890997Y2504146D1*
X890998Y2502646D1*
X890999Y2501146D1*
Y2499646D1*
Y2498146D1*
Y2496646D1*
Y2495146D1*
Y2493646D1*
Y2492146D1*
Y2490646D1*
X973499Y2525146D2*
X970851Y2523646D1*
X968672Y2522146D1*
X967087Y2520646D1*
X965978Y2519146D1*
X965244Y2517646D1*
X964834Y2516146D1*
X964637Y2514646D1*
X964552Y2513146D1*
X964518Y2511646D1*
X964506Y2510146D1*
X964501Y2508646D1*
X964500Y2507146D1*
X964505Y2505646D1*
X964558Y2504146D1*
X964755Y2502646D1*
X965178Y2501146D1*
X965900Y2499646D1*
X966905Y2498146D1*
X970100Y2496646D1*
X975008Y2495146D1*
X980999Y2493646D1*
X977999Y2525146D2*
X979493Y2523646D1*
X980934Y2522146D1*
X982191Y2520646D1*
X983134Y2519146D1*
X983832Y2517646D1*
X984436Y2516146D1*
X984926Y2514646D1*
X985230Y2513146D1*
X985385Y2511646D1*
X985454Y2510146D1*
X985476Y2508646D1*
X985434Y2507146D1*
X985247Y2505646D1*
X984883Y2504146D1*
X984441Y2502646D1*
X983929Y2501146D1*
X983152Y2499646D1*
X982094Y2498146D1*
X979440Y2496646D1*
X975422Y2495146D1*
X970499Y2493646D1*
X1015499Y2525146D2*
X1010999Y2523646D1*
X1006499Y2522146D1*
X1018499Y2525146D2*
X1021141Y2523646D1*
X1023268Y2522146D1*
X1024903Y2520646D1*
X1025546Y2519146D1*
X1025591Y2517646D1*
X1024706Y2516146D1*
X1021883Y2514646D1*
X1018119Y2513146D1*
X1014151Y2511646D1*
X1010819Y2510146D1*
X1008422Y2508646D1*
X1006848Y2507146D1*
X1005840Y2505646D1*
X1005150Y2504146D1*
X1004609Y2502646D1*
X1004185Y2501146D1*
X1004348Y2499646D1*
X1004662Y2498146D1*
X1005111Y2496646D1*
X1005838Y2495146D1*
X1006942Y2493646D1*
X1008452Y2492146D1*
X1010364Y2490646D1*
X1012499Y2489146D1*
X811499Y2508646D2*
X811493Y2507146D1*
X811440Y2505646D1*
X811243Y2504146D1*
X810825Y2502646D1*
X810185Y2501146D1*
X809221Y2499646D1*
X807915Y2498146D1*
X804288Y2496646D1*
X798755Y2495146D1*
X791999Y2493646D1*
X829499Y2498146D2*
X829511Y2496646D1*
X829628Y2495146D1*
X829909Y2493646D1*
X831280Y2492146D1*
X833239Y2490646D1*
X835499Y2489146D1*
X784499Y2496646D2*
X784722Y2495146D1*
X785508Y2493646D1*
X787554Y2492146D1*
X790324Y2490646D1*
X793499Y2489146D1*
X788999Y2496646D2*
X797718Y2495146D1*
X806999Y2493646D1*
X830999Y2496646D2*
X838218Y2495146D1*
X845999Y2493646D1*
X1030499Y2496646D2*
X1020280Y2495146D1*
X1009499Y2493646D1*
X1031999Y2496646D2*
X1031918Y2495146D1*
X1031724Y2493646D1*
X1030620Y2492146D1*
X1027805Y2490646D1*
X1024499Y2489146D1*
X920999Y2493646D2*
Y2492146D1*
Y2490646D1*
X923999Y2493646D2*
X925775Y2492146D1*
X927801Y2490646D1*
X929999Y2489146D1*
X1024028Y2473958D2*
Y2472458D1*
Y2470958D1*
Y2469458D1*
Y2467958D1*
Y2466458D1*
Y2464958D1*
Y2463458D1*
Y2461958D1*
Y2460458D1*
Y2458958D1*
Y2457458D1*
Y2455958D1*
Y2454458D1*
Y2452958D1*
Y2451458D1*
Y2449958D1*
Y2448458D1*
Y2446958D1*
Y2445458D1*
Y2443958D1*
Y2442458D1*
Y2440958D1*
Y2439458D1*
Y2437958D1*
Y2436458D1*
Y2434958D1*
Y2433458D1*
Y2431958D1*
Y2430458D1*
Y2428958D1*
Y2427458D1*
Y2425958D1*
Y2424458D1*
Y2422958D1*
Y2421458D1*
X1030028Y2473958D2*
Y2472458D1*
Y2470958D1*
Y2469458D1*
Y2467958D1*
Y2466458D1*
Y2464958D1*
Y2463458D1*
X1030034Y2461958D1*
X1030091Y2460458D1*
X1030322Y2458958D1*
X1030835Y2457458D1*
X1031528Y2455958D1*
X1178528Y2473958D2*
Y2472458D1*
Y2470958D1*
Y2469458D1*
Y2467958D1*
Y2466458D1*
Y2464958D1*
Y2463458D1*
Y2461958D1*
X1178522Y2460458D1*
X1178465Y2458958D1*
X1178233Y2457458D1*
X1177720Y2455958D1*
X1177028Y2454458D1*
X1183028Y2473958D2*
Y2472458D1*
Y2470958D1*
Y2469458D1*
Y2467958D1*
Y2466458D1*
Y2464958D1*
Y2463458D1*
Y2461958D1*
Y2460458D1*
Y2458958D1*
Y2457458D1*
Y2455958D1*
Y2454458D1*
Y2452958D1*
Y2451458D1*
Y2449958D1*
Y2448458D1*
Y2446958D1*
Y2445458D1*
Y2443958D1*
Y2442458D1*
Y2440958D1*
Y2439458D1*
Y2437958D1*
Y2436458D1*
Y2434958D1*
Y2433458D1*
Y2431958D1*
Y2430458D1*
Y2428958D1*
Y2427458D1*
Y2425958D1*
Y2424458D1*
Y2422958D1*
Y2421458D1*
X859028Y2460458D2*
X856380Y2458958D1*
X854200Y2457458D1*
X852610Y2455958D1*
X851448Y2454458D1*
X850523Y2452958D1*
X849754Y2451458D1*
X849173Y2449958D1*
X848826Y2448458D1*
X848647Y2446958D1*
X848518Y2445458D1*
X848295Y2443958D1*
X847911Y2442458D1*
X847461Y2440958D1*
X847028Y2439458D1*
X868028Y2460458D2*
X870913Y2458958D1*
X873268Y2457458D1*
X875152Y2455958D1*
X876648Y2454458D1*
X877808Y2452958D1*
X878710Y2451458D1*
X879402Y2449958D1*
X879964Y2448458D1*
X880506Y2446958D1*
X880971Y2445458D1*
X881264Y2443958D1*
X881415Y2442458D1*
X881483Y2440958D1*
X881505Y2439458D1*
X881463Y2437958D1*
X881276Y2436458D1*
X880912Y2434958D1*
X880475Y2433458D1*
X880017Y2431958D1*
X879460Y2430458D1*
X878762Y2428958D1*
X877865Y2427458D1*
X876710Y2425958D1*
X875274Y2424458D1*
X873388Y2422958D1*
X870895Y2421458D1*
X868028Y2419958D1*
X893528Y2460458D2*
X891630Y2458958D1*
X890101Y2457458D1*
X889496Y2455958D1*
X889028Y2454458D1*
X902528Y2460458D2*
X904782Y2458958D1*
X906947Y2457458D1*
X909189Y2455958D1*
X911528Y2454458D1*
X946028Y2460458D2*
X943835Y2458958D1*
X941910Y2457458D1*
X940251Y2455958D1*
X938904Y2454458D1*
X937974Y2452958D1*
X937453Y2451458D1*
X937202Y2449958D1*
X937095Y2448458D1*
X937052Y2446958D1*
X937036Y2445458D1*
X937031Y2443958D1*
X937029Y2442458D1*
X937028Y2440958D1*
Y2439458D1*
Y2437958D1*
Y2436458D1*
Y2434958D1*
Y2433458D1*
Y2431958D1*
Y2430458D1*
Y2428958D1*
Y2427458D1*
Y2425958D1*
Y2424458D1*
Y2422958D1*
Y2421458D1*
X958028Y2460458D2*
X961310Y2458958D1*
X963863Y2457458D1*
X964885Y2455958D1*
X965257Y2454458D1*
X965528Y2452958D1*
X1036028Y2460458D2*
X1034252Y2458958D1*
X1032226Y2457458D1*
X1030028Y2455958D1*
X1045028Y2460458D2*
X1047214Y2458958D1*
X1049092Y2457458D1*
X1050613Y2455958D1*
X1051792Y2454458D1*
X1052703Y2452958D1*
X1053400Y2451458D1*
X1053964Y2449958D1*
X1054506Y2448458D1*
X1054970Y2446958D1*
X1055264Y2445458D1*
X1055415Y2443958D1*
X1055483Y2442458D1*
X1055511Y2440958D1*
X1055516Y2439458D1*
X1055467Y2437958D1*
X1055277Y2436458D1*
X1054918Y2434958D1*
X1054528Y2433458D1*
X1054214Y2431958D1*
X1053878Y2430458D1*
X1053396Y2428958D1*
X1052736Y2427458D1*
X1051849Y2425958D1*
X1050656Y2424458D1*
X1049104Y2422958D1*
X1047173Y2421458D1*
X1045028Y2419958D1*
X1067528Y2460458D2*
X1065636Y2458958D1*
X1064127Y2457458D1*
X1063650Y2455958D1*
X1063991Y2454458D1*
X1064528Y2452958D1*
X1076528Y2460458D2*
X1078782Y2458958D1*
X1080947Y2457458D1*
X1083189Y2455958D1*
X1085528Y2454458D1*
X1120028Y2460458D2*
X1117835Y2458958D1*
X1115910Y2457458D1*
X1114251Y2455958D1*
X1112904Y2454458D1*
X1111974Y2452958D1*
X1111453Y2451458D1*
X1111202Y2449958D1*
X1111095Y2448458D1*
X1111052Y2446958D1*
X1111036Y2445458D1*
X1111031Y2443958D1*
X1111029Y2442458D1*
X1111028Y2440958D1*
Y2439458D1*
Y2437958D1*
Y2436458D1*
Y2434958D1*
Y2433458D1*
Y2431958D1*
Y2430458D1*
Y2428958D1*
Y2427458D1*
Y2425958D1*
Y2424458D1*
Y2422958D1*
Y2421458D1*
X1132028Y2460458D2*
X1135310Y2458958D1*
X1137863Y2457458D1*
X1138885Y2455958D1*
X1139257Y2454458D1*
X1139528Y2452958D1*
X1162028Y2460458D2*
X1159898Y2458958D1*
X1158212Y2457458D1*
X1157051Y2455958D1*
X1156257Y2454458D1*
X1155614Y2452958D1*
X1155109Y2451458D1*
X1154800Y2449958D1*
X1154643Y2448458D1*
X1154573Y2446958D1*
X1154544Y2445458D1*
X1154534Y2443958D1*
X1154530Y2442458D1*
X1154528Y2440958D1*
Y2439458D1*
Y2437958D1*
Y2436458D1*
Y2434958D1*
Y2433458D1*
Y2431958D1*
Y2430458D1*
Y2428958D1*
Y2427458D1*
Y2425958D1*
Y2424458D1*
Y2422958D1*
Y2421458D1*
X1169528Y2460458D2*
X1171782Y2458958D1*
X1173947Y2457458D1*
X1176189Y2455958D1*
X1178528Y2454458D1*
X911528Y2458958D2*
X911252Y2457458D1*
X910726Y2455958D1*
X910028Y2454458D1*
X916028Y2458958D2*
Y2457458D1*
Y2455958D1*
Y2454458D1*
Y2452958D1*
Y2451458D1*
Y2449958D1*
Y2448458D1*
Y2446958D1*
Y2445458D1*
Y2443958D1*
Y2442458D1*
Y2440958D1*
Y2439458D1*
Y2437958D1*
Y2436458D1*
Y2434958D1*
Y2433458D1*
Y2431958D1*
Y2430458D1*
Y2428958D1*
Y2427458D1*
Y2425958D1*
Y2424458D1*
Y2422958D1*
Y2421458D1*
X974528Y2458958D2*
X974585Y2457458D1*
X974777Y2455958D1*
X975137Y2454458D1*
X975527Y2452958D1*
X975841Y2451458D1*
X976172Y2449958D1*
X976595Y2448458D1*
X977011Y2446958D1*
X977336Y2445458D1*
X977670Y2443958D1*
X978094Y2442458D1*
X978511Y2440958D1*
X978836Y2439458D1*
X979170Y2437958D1*
X979594Y2436458D1*
X980005Y2434958D1*
X980283Y2433458D1*
X980479Y2431958D1*
X980735Y2430458D1*
X981121Y2428958D1*
X981521Y2427458D1*
X981844Y2425958D1*
X982216Y2424458D1*
X982796Y2422958D1*
X983528Y2421458D1*
X979028Y2458958D2*
X979540Y2457458D1*
X979993Y2455958D1*
X980330Y2454458D1*
X980668Y2452958D1*
X981093Y2451458D1*
X981505Y2449958D1*
X981783Y2448458D1*
X981979Y2446958D1*
X982235Y2445458D1*
X982621Y2443958D1*
X983016Y2442458D1*
X983287Y2440958D1*
X983480Y2439458D1*
X983735Y2437958D1*
X984121Y2436458D1*
X984522Y2434958D1*
X984844Y2433458D1*
X985216Y2431958D1*
X985796Y2430458D1*
X986528Y2428958D1*
X1010528Y2458958D2*
X1010471Y2457458D1*
X1010278Y2455958D1*
X1009919Y2454458D1*
X1009528Y2452958D1*
X1009214Y2451458D1*
X1008884Y2449958D1*
X1008461Y2448458D1*
X1008050Y2446958D1*
X1007772Y2445458D1*
X1007577Y2443958D1*
X1007321Y2442458D1*
X1006935Y2440958D1*
X1006540Y2439458D1*
X1006269Y2437958D1*
X1006075Y2436458D1*
X1005814Y2434958D1*
X1005371Y2433458D1*
X1004741Y2431958D1*
X1003940Y2430458D1*
X1003028Y2428958D1*
X1016528Y2458958D2*
X1015829Y2457458D1*
X1015346Y2455958D1*
X1014937Y2454458D1*
X1014481Y2452958D1*
X1014057Y2451458D1*
X1013775Y2449958D1*
X1013578Y2448458D1*
X1013321Y2446958D1*
X1012935Y2445458D1*
X1012534Y2443958D1*
X1012216Y2442458D1*
X1011884Y2440958D1*
X1011461Y2439458D1*
X1011044Y2437958D1*
X1010720Y2436458D1*
X1010386Y2434958D1*
X1009961Y2433458D1*
X1009544Y2431958D1*
X1009220Y2430458D1*
X1008886Y2428958D1*
X1008461Y2427458D1*
X1008050Y2425958D1*
X1007777Y2424458D1*
X1007626Y2422958D1*
X1007528Y2421458D1*
X1085528Y2458958D2*
X1085252Y2457458D1*
X1084726Y2455958D1*
X1084028Y2454458D1*
X1090028Y2458958D2*
Y2457458D1*
Y2455958D1*
Y2454458D1*
Y2452958D1*
Y2451458D1*
Y2449958D1*
Y2448458D1*
Y2446958D1*
Y2445458D1*
Y2443958D1*
Y2442458D1*
Y2440958D1*
Y2439458D1*
Y2437958D1*
Y2436458D1*
Y2434958D1*
Y2433458D1*
Y2431958D1*
Y2430458D1*
Y2428958D1*
Y2427458D1*
Y2425958D1*
Y2424458D1*
Y2422958D1*
Y2421458D1*
X862028Y2455958D2*
X859380Y2454458D1*
X857200Y2452958D1*
X855616Y2451458D1*
X854507Y2449958D1*
X853772Y2448458D1*
X853362Y2446958D1*
X853155Y2445458D1*
X853028Y2443958D1*
X865028Y2455958D2*
X867727Y2454458D1*
X870052Y2452958D1*
X871857Y2451458D1*
X873183Y2449958D1*
X874154Y2448458D1*
X874830Y2446958D1*
X875239Y2445458D1*
X875528Y2443958D1*
X895028Y2455958D2*
X893528Y2454458D1*
X899528Y2455958D2*
X902408Y2454458D1*
X904959Y2452958D1*
X906931Y2451458D1*
X908309Y2449958D1*
X909236Y2448458D1*
X909900Y2446958D1*
X910482Y2445458D1*
X910962Y2443958D1*
X911261Y2442458D1*
X911414Y2440958D1*
X911483Y2439458D1*
X911511Y2437958D1*
X911522Y2436458D1*
X911526Y2434958D1*
X911527Y2433458D1*
Y2431958D1*
X911528Y2430458D1*
Y2428958D1*
Y2427458D1*
Y2425958D1*
Y2424458D1*
Y2422958D1*
Y2421458D1*
X950528Y2455958D2*
X947880Y2454458D1*
X945700Y2452958D1*
X944115Y2451458D1*
X942991Y2449958D1*
X942179Y2448458D1*
X941528Y2446958D1*
X950696Y2445458D1*
X957317Y2443958D1*
X961611Y2442458D1*
X964663Y2440958D1*
X965889Y2439458D1*
X966747Y2437958D1*
X967422Y2436458D1*
X967934Y2434958D1*
X968195Y2433458D1*
X968162Y2431958D1*
X967867Y2430458D1*
X967453Y2428958D1*
X966952Y2427458D1*
X966202Y2425958D1*
X965089Y2424458D1*
X963577Y2422958D1*
X961663Y2421458D1*
X959528Y2419958D1*
X955028Y2455958D2*
X959528Y2454458D1*
X964028Y2452958D1*
X1039028Y2455958D2*
X1036380Y2454458D1*
X1034200Y2452958D1*
X1032616Y2451458D1*
X1031507Y2449958D1*
X1030772Y2448458D1*
X1030363Y2446958D1*
X1030166Y2445458D1*
X1030081Y2443958D1*
X1030047Y2442458D1*
X1030035Y2440958D1*
X1030030Y2439458D1*
X1030028Y2437958D1*
X1030034Y2436458D1*
X1030086Y2434958D1*
X1030283Y2433458D1*
X1030707Y2431958D1*
X1031423Y2430458D1*
X1032410Y2428958D1*
X1035344Y2427458D1*
X1039732Y2425958D1*
X1045028Y2424458D1*
X1040528Y2455958D2*
X1042995Y2454458D1*
X1044948Y2452958D1*
X1046365Y2451458D1*
X1047428Y2449958D1*
X1048259Y2448458D1*
X1048867Y2446958D1*
X1049224Y2445458D1*
X1049400Y2443958D1*
X1049478Y2442458D1*
X1049509Y2440958D1*
X1049521Y2439458D1*
X1049520Y2437958D1*
X1049468Y2436458D1*
X1049272Y2434958D1*
X1048860Y2433458D1*
X1048273Y2431958D1*
X1047511Y2430458D1*
X1046567Y2428958D1*
X1043876Y2427458D1*
X1039675Y2425958D1*
X1034528Y2424458D1*
X1070528Y2455958D2*
X1067528Y2454458D1*
X1064528Y2452958D1*
X1073528Y2455958D2*
X1076408Y2454458D1*
X1078959Y2452958D1*
X1080931Y2451458D1*
X1082309Y2449958D1*
X1083236Y2448458D1*
X1083900Y2446958D1*
X1084482Y2445458D1*
X1084962Y2443958D1*
X1085261Y2442458D1*
X1085414Y2440958D1*
X1085483Y2439458D1*
X1085511Y2437958D1*
X1085522Y2436458D1*
X1085526Y2434958D1*
X1085527Y2433458D1*
Y2431958D1*
X1085528Y2430458D1*
Y2428958D1*
Y2427458D1*
Y2425958D1*
Y2424458D1*
Y2422958D1*
Y2421458D1*
X1124528Y2455958D2*
X1121880Y2454458D1*
X1119700Y2452958D1*
X1118115Y2451458D1*
X1116991Y2449958D1*
X1116179Y2448458D1*
X1115528Y2446958D1*
X1124696Y2445458D1*
X1131317Y2443958D1*
X1135611Y2442458D1*
X1138663Y2440958D1*
X1139889Y2439458D1*
X1140747Y2437958D1*
X1141422Y2436458D1*
X1141934Y2434958D1*
X1142195Y2433458D1*
X1142162Y2431958D1*
X1141867Y2430458D1*
X1141453Y2428958D1*
X1140952Y2427458D1*
X1140202Y2425958D1*
X1139089Y2424458D1*
X1137577Y2422958D1*
X1135663Y2421458D1*
X1133528Y2419958D1*
X1129028Y2455958D2*
X1133528Y2454458D1*
X1138028Y2452958D1*
X1165028Y2455958D2*
X1163591Y2454458D1*
X1162342Y2452958D1*
X1161445Y2451458D1*
X1160886Y2449958D1*
X1160450Y2448458D1*
X1159985Y2446958D1*
X1159558Y2445458D1*
X1159281Y2443958D1*
X1159136Y2442458D1*
X1159071Y2440958D1*
X1159044Y2439458D1*
X1159033Y2437958D1*
X1159030Y2436458D1*
X1159028Y2434958D1*
Y2433458D1*
Y2431958D1*
Y2430458D1*
Y2428958D1*
Y2427458D1*
Y2425958D1*
Y2424458D1*
Y2422958D1*
Y2421458D1*
X1171028Y2455958D2*
X1172522Y2454458D1*
X1173963Y2452958D1*
X1175219Y2451458D1*
X1176163Y2449958D1*
X1176861Y2448458D1*
X1177465Y2446958D1*
X1177955Y2445458D1*
X1178259Y2443958D1*
X1178413Y2442458D1*
X1178483Y2440958D1*
X1178511Y2439458D1*
X1178522Y2437958D1*
X1178526Y2436458D1*
X1178527Y2434958D1*
Y2433458D1*
X1178528Y2431958D1*
Y2430458D1*
Y2428958D1*
Y2427458D1*
Y2425958D1*
Y2424458D1*
Y2422958D1*
Y2421458D1*
X992528Y2446958D2*
X992296Y2445458D1*
X991918Y2443958D1*
X991477Y2442458D1*
X991023Y2440958D1*
X990525Y2439458D1*
X990070Y2437958D1*
X989730Y2436458D1*
X989383Y2434958D1*
X988899Y2433458D1*
X988252Y2431958D1*
X987444Y2430458D1*
X986528Y2428958D1*
X997028Y2446958D2*
X997726Y2445458D1*
X998210Y2443958D1*
X998619Y2442458D1*
X999080Y2440958D1*
X999557Y2439458D1*
X1000025Y2437958D1*
X1000528Y2436458D1*
X1000984Y2434958D1*
X1001330Y2433458D1*
X1001711Y2431958D1*
X1002294Y2430458D1*
X1003028Y2428958D1*
X941528Y2440958D2*
X941585Y2439458D1*
X941777Y2437958D1*
X942142Y2436458D1*
X942580Y2434958D1*
X943039Y2433458D1*
X943601Y2431958D1*
X944387Y2430458D1*
X945425Y2428958D1*
X948625Y2427458D1*
X953536Y2425958D1*
X959528Y2424458D1*
X953528Y2440958D2*
X956227Y2439458D1*
X958546Y2437958D1*
X960298Y2436458D1*
X961630Y2434958D1*
X962088Y2433458D1*
X962273Y2431958D1*
X962255Y2430458D1*
X961409Y2428958D1*
X958327Y2427458D1*
X953480Y2425958D1*
X947528Y2424458D1*
X994028Y2440958D2*
X993796Y2439458D1*
X993418Y2437958D1*
X992977Y2436458D1*
X992523Y2434958D1*
X992019Y2433458D1*
X991518Y2431958D1*
X991038Y2430458D1*
X990530Y2428958D1*
X990072Y2427458D1*
X989726Y2425958D1*
X989344Y2424458D1*
X988761Y2422958D1*
X988028Y2421458D1*
X997028Y2440958D2*
X997034Y2439458D1*
X997086Y2437958D1*
X997277Y2436458D1*
X997643Y2434958D1*
X998080Y2433458D1*
X998533Y2431958D1*
X999037Y2430458D1*
X999538Y2428958D1*
X1000017Y2427458D1*
X1000526Y2425958D1*
X1000981Y2424458D1*
X1001294Y2422958D1*
X1001528Y2421458D1*
X1115528Y2440958D2*
X1115585Y2439458D1*
X1115777Y2437958D1*
X1116142Y2436458D1*
X1116580Y2434958D1*
X1117039Y2433458D1*
X1117601Y2431958D1*
X1118387Y2430458D1*
X1119425Y2428958D1*
X1122625Y2427458D1*
X1127536Y2425958D1*
X1133528Y2424458D1*
X1127528Y2440958D2*
X1130227Y2439458D1*
X1132546Y2437958D1*
X1134298Y2436458D1*
X1135630Y2434958D1*
X1136088Y2433458D1*
X1136273Y2431958D1*
X1136255Y2430458D1*
X1135409Y2428958D1*
X1132327Y2427458D1*
X1127480Y2425958D1*
X1121528Y2424458D1*
X875528Y2439458D2*
X875522Y2437958D1*
X875469Y2436458D1*
X875272Y2434958D1*
X874854Y2433458D1*
X874214Y2431958D1*
X873250Y2430458D1*
X871943Y2428958D1*
X868316Y2427458D1*
X862784Y2425958D1*
X856028Y2424458D1*
X848528Y2427458D2*
X848750Y2425958D1*
X849537Y2424458D1*
X851582Y2422958D1*
X854353Y2421458D1*
X857528Y2419958D1*
X853028Y2427458D2*
X861746Y2425958D1*
X871028Y2424458D1*
X941528Y2425958D2*
Y2424458D1*
Y2422958D1*
Y2421458D1*
X943028Y2425958D2*
X944589Y2424458D1*
X946322Y2422958D1*
X948335Y2421458D1*
X950528Y2419958D1*
X1115528Y2425958D2*
Y2424458D1*
Y2422958D1*
Y2421458D1*
X1117028Y2425958D2*
X1118589Y2424458D1*
X1120322Y2422958D1*
X1122335Y2421458D1*
X1124528Y2419958D1*
X1030028Y2424458D2*
Y2422958D1*
Y2421458D1*
X1031528Y2424458D2*
X1033028Y2422958D1*
X1034528Y2421458D1*
X1036028Y2419958D1*
X714829Y1529686D2*
D68*
X744973D1*
X714829Y1539734D2*
Y1519638D1*
X730614Y1510374D2*
Y1497441D1*
X729188Y1493163D1*
X727729Y1491704D1*
X724877Y1490278D1*
X720566D1*
X717714Y1491704D1*
X716255Y1493163D1*
X714829Y1497441D1*
Y1510374D1*
X744973D1*
X720599Y1481015D2*
X719140Y1478130D1*
X714862Y1473819D1*
X744973D1*
X1275673Y718091D2*
D69*
Y720943D1*
X1272821Y726713D1*
X1269969Y729565D1*
X1264199Y732417D1*
X1252725D1*
X1247021Y729565D1*
X1244169Y726713D1*
X1241251Y720943D1*
Y715239D1*
X1244169Y709469D1*
X1249873Y700913D1*
X1278591Y672195D1*
X1238399D1*
X1202628Y732417D2*
X1211250Y729565D1*
X1217020Y720943D1*
X1219872Y706617D1*
Y697995D1*
X1217020Y683669D1*
X1211250Y675047D1*
X1202628Y672195D1*
X1196924D1*
X1188302Y675047D1*
X1182598Y683669D1*
X1179680Y697995D1*
Y706617D1*
X1182598Y720943D1*
X1188302Y729565D1*
X1196924Y732417D1*
X1202628D1*
X1182598Y720943D2*
X1217020Y683669D1*
X1158234Y718091D2*
Y720943D1*
X1155382Y726713D1*
X1152531Y729565D1*
X1146760Y732417D1*
X1135286D1*
X1129583Y729565D1*
X1126731Y726713D1*
X1123812Y720943D1*
Y715239D1*
X1126731Y709469D1*
X1132435Y700913D1*
X1161153Y672195D1*
X1120961D1*
X1099515Y718091D2*
Y720943D1*
X1096663Y726713D1*
X1093811Y729565D1*
X1088041Y732417D1*
X1076567D1*
X1070864Y729565D1*
X1068012Y726713D1*
X1065093Y720943D1*
Y715239D1*
X1068012Y709469D1*
X1073715Y700913D1*
X1102433Y672195D1*
X1062241D1*
X1043714Y702306D2*
X1010553D1*
X974781Y732417D2*
X983403Y729565D1*
X989174Y720943D1*
X992026Y706617D1*
Y697995D1*
X989174Y683669D1*
X983403Y675047D1*
X974781Y672195D1*
X969078D1*
X960456Y675047D1*
X954752Y683669D1*
X951834Y697995D1*
Y706617D1*
X954752Y720943D1*
X960456Y729565D1*
X969078Y732417D1*
X974781D1*
X954752Y720943D2*
X989174Y683669D1*
X895966Y712387D2*
X898885Y703765D1*
X904588Y697995D1*
X913210Y695143D1*
X916062D1*
X924684Y697995D1*
X930388Y703765D1*
X933306Y712387D1*
Y715239D1*
X930388Y723861D1*
X924684Y729565D1*
X916062Y732417D1*
X913210D1*
X904588Y729565D1*
X898885Y723861D1*
X895966Y712387D1*
Y697995D1*
X898885Y683669D1*
X904588Y675047D1*
X913210Y672195D1*
X918914D1*
X927536Y675047D1*
X930388Y680817D1*
X877439Y702306D2*
X844278D1*
X825750Y720943D2*
X819980Y723861D1*
X811358Y732417D1*
Y672195D1*
X778505Y732417D2*
X787061Y729565D1*
X789979Y723861D1*
Y718091D1*
X787061Y712387D1*
X781357Y709469D1*
X769883Y706617D1*
X761261Y703765D1*
X755557Y697995D1*
X752705Y692291D1*
Y683669D1*
X755557Y677966D1*
X758409Y675047D1*
X767031Y672195D1*
X778505D1*
X787061Y675047D1*
X789979Y677966D1*
X792831Y683669D1*
Y692291D1*
X789979Y697995D1*
X784209Y703765D1*
X775653Y706617D1*
X764179Y709469D1*
X758409Y712387D1*
X755557Y718091D1*
Y723861D1*
X758409Y729565D1*
X767031Y732417D1*
X778505D1*
M02*
