M48
; DRILL file {KiCad 7.0.10} date Mon Feb  5 23:38:39 2024
; FORMAT={-:-/ absolute / inch / decimal}
; #@! TF.CreationDate,2024-02-05T23:38:39-06:00
; #@! TF.GenerationSoftware,Kicad,Pcbnew,7.0.10
; #@! TF.FileFunction,MixedPlating,1,2
FMAT,2
INCH
; #@! TA.AperFunction,Plated,PTH,ViaDrill
T1C0.0157
; #@! TA.AperFunction,Plated,PTH,ComponentDrill
T2C0.0315
; #@! TA.AperFunction,Plated,PTH,ComponentDrill
T3C0.0354
; #@! TA.AperFunction,Plated,PTH,ComponentDrill
T4C0.0390
; #@! TA.AperFunction,Plated,PTH,ComponentDrill
T5C0.0394
; #@! TA.AperFunction,Plated,PTH,ComponentDrill
T6C0.0402
; #@! TA.AperFunction,Plated,PTH,ComponentDrill
T7C0.0433
; #@! TA.AperFunction,Plated,PTH,ComponentDrill
T8C0.0512
; #@! TA.AperFunction,NonPlated,NPTH,ComponentDrill
T9C0.0354
; #@! TA.AperFunction,NonPlated,NPTH,ComponentDrill
T10C0.1260
%
G90
G05
T1
X4.285Y-4.19
X4.3Y-4.24
X4.3542Y-4.1977
X4.4792Y-3.74
X4.4842Y-3.5412
X4.4842Y-3.6362
X4.4992Y-4.0027
X4.5Y-4.155
X4.5Y-4.205
X4.52Y-3.4134
X4.5542Y-3.6677
X4.72Y-3.83
X4.725Y-3.165
X4.85Y-2.78
X4.85Y-4.265
X5.475Y-3.45
X5.665Y-3.55
X5.675Y-2.73
X5.925Y-3.81
X5.975Y-3.16
X6.0Y-3.55
X6.025Y-3.38
X6.075Y-3.7815
X6.175Y-3.755
X6.275Y-3.4085
X6.475Y-4.265
X6.775Y-3.7947
X6.785Y-3.665
X6.815Y-3.335
X7.19Y-3.29
X7.19Y-3.77
T2
X4.4194Y-2.9577
X4.4194Y-3.0577
X4.4194Y-3.1577
X4.4194Y-3.2577
X4.4194Y-3.3577
X4.4194Y-3.4577
X4.4194Y-3.5577
X4.4194Y-3.6577
X4.4194Y-3.7577
X4.4194Y-3.8577
X4.4194Y-3.9577
X4.4194Y-4.0577
X4.4194Y-4.1577
X4.4194Y-4.2577
X4.8516Y-4.39
X5.0194Y-2.9577
X5.0194Y-3.0577
X5.0194Y-3.1577
X5.0194Y-3.2577
X5.0194Y-3.3577
X5.0194Y-3.4577
X5.0194Y-3.5577
X5.0194Y-3.6577
X5.0194Y-3.7577
X5.0194Y-3.8577
X5.0194Y-3.9577
X5.0194Y-4.0577
X5.0194Y-4.1577
X5.0194Y-4.2577
X5.0484Y-4.39
X5.2Y-2.675
X5.2984Y-2.675
X5.414Y-4.205
X5.414Y-4.505
X5.525Y-2.9
X5.555Y-4.205
X5.555Y-4.505
X5.625Y-2.9
X5.725Y-2.9
X5.825Y-2.9
X5.925Y-2.9
X6.025Y-2.9
X6.086Y-4.209
X6.086Y-4.509
X6.125Y-2.9
X6.186Y-4.209
X6.186Y-4.509
X6.225Y-2.9
X6.325Y-2.9
X6.56Y-4.18
X6.57Y-2.89
X6.86Y-4.18
X6.87Y-2.89
T3
X6.8692Y-2.6462
X6.8692Y-2.7462
X6.8692Y-4.3302
X6.8692Y-4.4302
T4
X7.135Y-2.6069
X7.135Y-2.784
X7.135Y-4.2908
X7.135Y-4.468
T5
X5.8942Y-2.6561
X5.9942Y-2.6561
X6.0942Y-2.6561
X6.1942Y-2.6561
T6
X5.375Y-3.03
X5.375Y-4.03
X5.475Y-3.03
X5.475Y-4.03
X5.575Y-3.03
X5.575Y-4.03
X5.675Y-3.03
X5.675Y-4.03
X5.775Y-3.03
X5.775Y-4.03
X5.875Y-3.03
X5.875Y-4.03
X5.975Y-3.03
X5.975Y-4.03
X6.075Y-3.03
X6.075Y-4.03
X6.175Y-3.03
X6.175Y-4.03
X6.275Y-3.03
X6.275Y-4.03
X6.375Y-3.03
X6.375Y-4.03
X6.475Y-3.03
X6.475Y-4.03
X6.575Y-3.03
X6.575Y-4.03
X6.675Y-3.03
X6.675Y-4.03
X6.775Y-3.03
X6.775Y-4.03
X6.875Y-3.03
X6.875Y-4.03
X6.975Y-3.03
X6.975Y-4.03
X7.075Y-3.03
X7.075Y-4.03
X7.175Y-3.03
X7.175Y-4.03
T7
X5.183Y-3.994
X5.183Y-4.394
T8
X7.037Y-2.5577
X7.037Y-2.8336
X7.037Y-4.2416
X7.037Y-4.5176
T9
X7.1357Y-3.4168
X7.1357Y-3.7318
T10
X4.585Y-2.59
X4.585Y-4.485
X6.62Y-2.59
X6.62Y-4.485
M30
