%TF.GenerationSoftware,KiCad,Pcbnew,7.0.10*%
%TF.CreationDate,2024-02-05T23:38:35-06:00*%
%TF.ProjectId,CoCo-FujiNet-Rev000,436f436f-2d46-4756-9a69-4e65742d5265,Rev 000*%
%TF.SameCoordinates,Original*%
%TF.FileFunction,Legend,Top*%
%TF.FilePolarity,Positive*%
%FSLAX46Y46*%
G04 Gerber Fmt 4.6, Leading zero omitted, Abs format (unit mm)*
G04 Created by KiCad (PCBNEW 7.0.10) date 2024-02-05 23:38:35*
%MOMM*%
%LPD*%
G01*
G04 APERTURE LIST*
%ADD10C,0.150000*%
%ADD11C,0.300000*%
%ADD12C,0.120000*%
%ADD13C,0.127000*%
%ADD14C,0.200000*%
G04 APERTURE END LIST*
D10*
X115681666Y-82574580D02*
X115634047Y-82622200D01*
X115634047Y-82622200D02*
X115491190Y-82669819D01*
X115491190Y-82669819D02*
X115395952Y-82669819D01*
X115395952Y-82669819D02*
X115253095Y-82622200D01*
X115253095Y-82622200D02*
X115157857Y-82526961D01*
X115157857Y-82526961D02*
X115110238Y-82431723D01*
X115110238Y-82431723D02*
X115062619Y-82241247D01*
X115062619Y-82241247D02*
X115062619Y-82098390D01*
X115062619Y-82098390D02*
X115110238Y-81907914D01*
X115110238Y-81907914D02*
X115157857Y-81812676D01*
X115157857Y-81812676D02*
X115253095Y-81717438D01*
X115253095Y-81717438D02*
X115395952Y-81669819D01*
X115395952Y-81669819D02*
X115491190Y-81669819D01*
X115491190Y-81669819D02*
X115634047Y-81717438D01*
X115634047Y-81717438D02*
X115681666Y-81765057D01*
X116110238Y-82669819D02*
X116110238Y-81669819D01*
X116538809Y-82669819D02*
X116538809Y-82146009D01*
X116538809Y-82146009D02*
X116491190Y-82050771D01*
X116491190Y-82050771D02*
X116395952Y-82003152D01*
X116395952Y-82003152D02*
X116253095Y-82003152D01*
X116253095Y-82003152D02*
X116157857Y-82050771D01*
X116157857Y-82050771D02*
X116110238Y-82098390D01*
X117395952Y-82622200D02*
X117300714Y-82669819D01*
X117300714Y-82669819D02*
X117110238Y-82669819D01*
X117110238Y-82669819D02*
X117015000Y-82622200D01*
X117015000Y-82622200D02*
X116967381Y-82526961D01*
X116967381Y-82526961D02*
X116967381Y-82146009D01*
X116967381Y-82146009D02*
X117015000Y-82050771D01*
X117015000Y-82050771D02*
X117110238Y-82003152D01*
X117110238Y-82003152D02*
X117300714Y-82003152D01*
X117300714Y-82003152D02*
X117395952Y-82050771D01*
X117395952Y-82050771D02*
X117443571Y-82146009D01*
X117443571Y-82146009D02*
X117443571Y-82241247D01*
X117443571Y-82241247D02*
X116967381Y-82336485D01*
X118300714Y-82622200D02*
X118205476Y-82669819D01*
X118205476Y-82669819D02*
X118015000Y-82669819D01*
X118015000Y-82669819D02*
X117919762Y-82622200D01*
X117919762Y-82622200D02*
X117872143Y-82574580D01*
X117872143Y-82574580D02*
X117824524Y-82479342D01*
X117824524Y-82479342D02*
X117824524Y-82193628D01*
X117824524Y-82193628D02*
X117872143Y-82098390D01*
X117872143Y-82098390D02*
X117919762Y-82050771D01*
X117919762Y-82050771D02*
X118015000Y-82003152D01*
X118015000Y-82003152D02*
X118205476Y-82003152D01*
X118205476Y-82003152D02*
X118300714Y-82050771D01*
X118729286Y-82669819D02*
X118729286Y-81669819D01*
X118824524Y-82288866D02*
X119110238Y-82669819D01*
X119110238Y-82003152D02*
X118729286Y-82384104D01*
X120300715Y-82146009D02*
X120634048Y-82146009D01*
X120776905Y-82669819D02*
X120300715Y-82669819D01*
X120300715Y-82669819D02*
X120300715Y-81669819D01*
X120300715Y-81669819D02*
X120776905Y-81669819D01*
X121205477Y-82669819D02*
X121205477Y-81669819D01*
X121205477Y-81669819D02*
X121586429Y-81669819D01*
X121586429Y-81669819D02*
X121681667Y-81717438D01*
X121681667Y-81717438D02*
X121729286Y-81765057D01*
X121729286Y-81765057D02*
X121776905Y-81860295D01*
X121776905Y-81860295D02*
X121776905Y-82003152D01*
X121776905Y-82003152D02*
X121729286Y-82098390D01*
X121729286Y-82098390D02*
X121681667Y-82146009D01*
X121681667Y-82146009D02*
X121586429Y-82193628D01*
X121586429Y-82193628D02*
X121205477Y-82193628D01*
X122776905Y-82669819D02*
X122443572Y-82193628D01*
X122205477Y-82669819D02*
X122205477Y-81669819D01*
X122205477Y-81669819D02*
X122586429Y-81669819D01*
X122586429Y-81669819D02*
X122681667Y-81717438D01*
X122681667Y-81717438D02*
X122729286Y-81765057D01*
X122729286Y-81765057D02*
X122776905Y-81860295D01*
X122776905Y-81860295D02*
X122776905Y-82003152D01*
X122776905Y-82003152D02*
X122729286Y-82098390D01*
X122729286Y-82098390D02*
X122681667Y-82146009D01*
X122681667Y-82146009D02*
X122586429Y-82193628D01*
X122586429Y-82193628D02*
X122205477Y-82193628D01*
X123395953Y-81669819D02*
X123586429Y-81669819D01*
X123586429Y-81669819D02*
X123681667Y-81717438D01*
X123681667Y-81717438D02*
X123776905Y-81812676D01*
X123776905Y-81812676D02*
X123824524Y-82003152D01*
X123824524Y-82003152D02*
X123824524Y-82336485D01*
X123824524Y-82336485D02*
X123776905Y-82526961D01*
X123776905Y-82526961D02*
X123681667Y-82622200D01*
X123681667Y-82622200D02*
X123586429Y-82669819D01*
X123586429Y-82669819D02*
X123395953Y-82669819D01*
X123395953Y-82669819D02*
X123300715Y-82622200D01*
X123300715Y-82622200D02*
X123205477Y-82526961D01*
X123205477Y-82526961D02*
X123157858Y-82336485D01*
X123157858Y-82336485D02*
X123157858Y-82003152D01*
X123157858Y-82003152D02*
X123205477Y-81812676D01*
X123205477Y-81812676D02*
X123300715Y-81717438D01*
X123300715Y-81717438D02*
X123395953Y-81669819D01*
X124253096Y-82669819D02*
X124253096Y-81669819D01*
X124253096Y-81669819D02*
X124586429Y-82384104D01*
X124586429Y-82384104D02*
X124919762Y-81669819D01*
X124919762Y-81669819D02*
X124919762Y-82669819D01*
X116324523Y-83279819D02*
X116514999Y-83279819D01*
X116514999Y-83279819D02*
X116610237Y-83327438D01*
X116610237Y-83327438D02*
X116705475Y-83422676D01*
X116705475Y-83422676D02*
X116753094Y-83613152D01*
X116753094Y-83613152D02*
X116753094Y-83946485D01*
X116753094Y-83946485D02*
X116705475Y-84136961D01*
X116705475Y-84136961D02*
X116610237Y-84232200D01*
X116610237Y-84232200D02*
X116514999Y-84279819D01*
X116514999Y-84279819D02*
X116324523Y-84279819D01*
X116324523Y-84279819D02*
X116229285Y-84232200D01*
X116229285Y-84232200D02*
X116134047Y-84136961D01*
X116134047Y-84136961D02*
X116086428Y-83946485D01*
X116086428Y-83946485D02*
X116086428Y-83613152D01*
X116086428Y-83613152D02*
X116134047Y-83422676D01*
X116134047Y-83422676D02*
X116229285Y-83327438D01*
X116229285Y-83327438D02*
X116324523Y-83279819D01*
X117181666Y-84279819D02*
X117181666Y-83613152D01*
X117181666Y-83803628D02*
X117229285Y-83708390D01*
X117229285Y-83708390D02*
X117276904Y-83660771D01*
X117276904Y-83660771D02*
X117372142Y-83613152D01*
X117372142Y-83613152D02*
X117467380Y-83613152D01*
X117800714Y-84279819D02*
X117800714Y-83613152D01*
X117800714Y-83279819D02*
X117753095Y-83327438D01*
X117753095Y-83327438D02*
X117800714Y-83375057D01*
X117800714Y-83375057D02*
X117848333Y-83327438D01*
X117848333Y-83327438D02*
X117800714Y-83279819D01*
X117800714Y-83279819D02*
X117800714Y-83375057D01*
X118657856Y-84232200D02*
X118562618Y-84279819D01*
X118562618Y-84279819D02*
X118372142Y-84279819D01*
X118372142Y-84279819D02*
X118276904Y-84232200D01*
X118276904Y-84232200D02*
X118229285Y-84136961D01*
X118229285Y-84136961D02*
X118229285Y-83756009D01*
X118229285Y-83756009D02*
X118276904Y-83660771D01*
X118276904Y-83660771D02*
X118372142Y-83613152D01*
X118372142Y-83613152D02*
X118562618Y-83613152D01*
X118562618Y-83613152D02*
X118657856Y-83660771D01*
X118657856Y-83660771D02*
X118705475Y-83756009D01*
X118705475Y-83756009D02*
X118705475Y-83851247D01*
X118705475Y-83851247D02*
X118229285Y-83946485D01*
X119134047Y-83613152D02*
X119134047Y-84279819D01*
X119134047Y-83708390D02*
X119181666Y-83660771D01*
X119181666Y-83660771D02*
X119276904Y-83613152D01*
X119276904Y-83613152D02*
X119419761Y-83613152D01*
X119419761Y-83613152D02*
X119514999Y-83660771D01*
X119514999Y-83660771D02*
X119562618Y-83756009D01*
X119562618Y-83756009D02*
X119562618Y-84279819D01*
X119895952Y-83613152D02*
X120276904Y-83613152D01*
X120038809Y-83279819D02*
X120038809Y-84136961D01*
X120038809Y-84136961D02*
X120086428Y-84232200D01*
X120086428Y-84232200D02*
X120181666Y-84279819D01*
X120181666Y-84279819D02*
X120276904Y-84279819D01*
X121038809Y-84279819D02*
X121038809Y-83756009D01*
X121038809Y-83756009D02*
X120991190Y-83660771D01*
X120991190Y-83660771D02*
X120895952Y-83613152D01*
X120895952Y-83613152D02*
X120705476Y-83613152D01*
X120705476Y-83613152D02*
X120610238Y-83660771D01*
X121038809Y-84232200D02*
X120943571Y-84279819D01*
X120943571Y-84279819D02*
X120705476Y-84279819D01*
X120705476Y-84279819D02*
X120610238Y-84232200D01*
X120610238Y-84232200D02*
X120562619Y-84136961D01*
X120562619Y-84136961D02*
X120562619Y-84041723D01*
X120562619Y-84041723D02*
X120610238Y-83946485D01*
X120610238Y-83946485D02*
X120705476Y-83898866D01*
X120705476Y-83898866D02*
X120943571Y-83898866D01*
X120943571Y-83898866D02*
X121038809Y-83851247D01*
X121372143Y-83613152D02*
X121753095Y-83613152D01*
X121515000Y-83279819D02*
X121515000Y-84136961D01*
X121515000Y-84136961D02*
X121562619Y-84232200D01*
X121562619Y-84232200D02*
X121657857Y-84279819D01*
X121657857Y-84279819D02*
X121753095Y-84279819D01*
X122086429Y-84279819D02*
X122086429Y-83613152D01*
X122086429Y-83279819D02*
X122038810Y-83327438D01*
X122038810Y-83327438D02*
X122086429Y-83375057D01*
X122086429Y-83375057D02*
X122134048Y-83327438D01*
X122134048Y-83327438D02*
X122086429Y-83279819D01*
X122086429Y-83279819D02*
X122086429Y-83375057D01*
X122705476Y-84279819D02*
X122610238Y-84232200D01*
X122610238Y-84232200D02*
X122562619Y-84184580D01*
X122562619Y-84184580D02*
X122515000Y-84089342D01*
X122515000Y-84089342D02*
X122515000Y-83803628D01*
X122515000Y-83803628D02*
X122562619Y-83708390D01*
X122562619Y-83708390D02*
X122610238Y-83660771D01*
X122610238Y-83660771D02*
X122705476Y-83613152D01*
X122705476Y-83613152D02*
X122848333Y-83613152D01*
X122848333Y-83613152D02*
X122943571Y-83660771D01*
X122943571Y-83660771D02*
X122991190Y-83708390D01*
X122991190Y-83708390D02*
X123038809Y-83803628D01*
X123038809Y-83803628D02*
X123038809Y-84089342D01*
X123038809Y-84089342D02*
X122991190Y-84184580D01*
X122991190Y-84184580D02*
X122943571Y-84232200D01*
X122943571Y-84232200D02*
X122848333Y-84279819D01*
X122848333Y-84279819D02*
X122705476Y-84279819D01*
X123467381Y-83613152D02*
X123467381Y-84279819D01*
X123467381Y-83708390D02*
X123515000Y-83660771D01*
X123515000Y-83660771D02*
X123610238Y-83613152D01*
X123610238Y-83613152D02*
X123753095Y-83613152D01*
X123753095Y-83613152D02*
X123848333Y-83660771D01*
X123848333Y-83660771D02*
X123895952Y-83756009D01*
X123895952Y-83756009D02*
X123895952Y-84279819D01*
X120015000Y-86223152D02*
X120015000Y-84794580D01*
X119776905Y-86833152D02*
X120015000Y-87499819D01*
X120015000Y-87499819D02*
X120253095Y-86833152D01*
X168103779Y-92706866D02*
X168865684Y-92706866D01*
X168484731Y-93087819D02*
X168484731Y-92325914D01*
X133696104Y-92039839D02*
X133696104Y-91563649D01*
X133981819Y-92135077D02*
X132981819Y-91801744D01*
X132981819Y-91801744D02*
X133981819Y-91468411D01*
X133315152Y-91135077D02*
X133981819Y-91135077D01*
X133410390Y-91135077D02*
X133362771Y-91087458D01*
X133362771Y-91087458D02*
X133315152Y-90992220D01*
X133315152Y-90992220D02*
X133315152Y-90849363D01*
X133315152Y-90849363D02*
X133362771Y-90754125D01*
X133362771Y-90754125D02*
X133458009Y-90706506D01*
X133458009Y-90706506D02*
X133981819Y-90706506D01*
X133315152Y-90373172D02*
X133315152Y-89992220D01*
X132981819Y-90230315D02*
X133838961Y-90230315D01*
X133838961Y-90230315D02*
X133934200Y-90182696D01*
X133934200Y-90182696D02*
X133981819Y-90087458D01*
X133981819Y-90087458D02*
X133981819Y-89992220D01*
X133934200Y-89277934D02*
X133981819Y-89373172D01*
X133981819Y-89373172D02*
X133981819Y-89563648D01*
X133981819Y-89563648D02*
X133934200Y-89658886D01*
X133934200Y-89658886D02*
X133838961Y-89706505D01*
X133838961Y-89706505D02*
X133458009Y-89706505D01*
X133458009Y-89706505D02*
X133362771Y-89658886D01*
X133362771Y-89658886D02*
X133315152Y-89563648D01*
X133315152Y-89563648D02*
X133315152Y-89373172D01*
X133315152Y-89373172D02*
X133362771Y-89277934D01*
X133362771Y-89277934D02*
X133458009Y-89230315D01*
X133458009Y-89230315D02*
X133553247Y-89230315D01*
X133553247Y-89230315D02*
X133648485Y-89706505D01*
X133315152Y-88801743D02*
X133981819Y-88801743D01*
X133410390Y-88801743D02*
X133362771Y-88754124D01*
X133362771Y-88754124D02*
X133315152Y-88658886D01*
X133315152Y-88658886D02*
X133315152Y-88516029D01*
X133315152Y-88516029D02*
X133362771Y-88420791D01*
X133362771Y-88420791D02*
X133458009Y-88373172D01*
X133458009Y-88373172D02*
X133981819Y-88373172D01*
X133315152Y-87896981D02*
X133981819Y-87896981D01*
X133410390Y-87896981D02*
X133362771Y-87849362D01*
X133362771Y-87849362D02*
X133315152Y-87754124D01*
X133315152Y-87754124D02*
X133315152Y-87611267D01*
X133315152Y-87611267D02*
X133362771Y-87516029D01*
X133362771Y-87516029D02*
X133458009Y-87468410D01*
X133458009Y-87468410D02*
X133981819Y-87468410D01*
X133981819Y-86563648D02*
X133458009Y-86563648D01*
X133458009Y-86563648D02*
X133362771Y-86611267D01*
X133362771Y-86611267D02*
X133315152Y-86706505D01*
X133315152Y-86706505D02*
X133315152Y-86896981D01*
X133315152Y-86896981D02*
X133362771Y-86992219D01*
X133934200Y-86563648D02*
X133981819Y-86658886D01*
X133981819Y-86658886D02*
X133981819Y-86896981D01*
X133981819Y-86896981D02*
X133934200Y-86992219D01*
X133934200Y-86992219D02*
X133838961Y-87039838D01*
X133838961Y-87039838D02*
X133743723Y-87039838D01*
X133743723Y-87039838D02*
X133648485Y-86992219D01*
X133648485Y-86992219D02*
X133600866Y-86896981D01*
X133600866Y-86896981D02*
X133600866Y-86658886D01*
X133600866Y-86658886D02*
X133553247Y-86563648D01*
X162108151Y-101390433D02*
X161346247Y-101390433D01*
X161727199Y-101009480D02*
X161727199Y-101771385D01*
X152968560Y-116830504D02*
X153444750Y-116830504D01*
X152873322Y-117116219D02*
X153206655Y-116116219D01*
X153206655Y-116116219D02*
X153539988Y-117116219D01*
X154397131Y-117116219D02*
X153825703Y-117116219D01*
X154111417Y-117116219D02*
X154111417Y-116116219D01*
X154111417Y-116116219D02*
X154016179Y-116259076D01*
X154016179Y-116259076D02*
X153920941Y-116354314D01*
X153920941Y-116354314D02*
X153825703Y-116401933D01*
X155254274Y-116449552D02*
X155254274Y-117116219D01*
X155016179Y-116068600D02*
X154778084Y-116782885D01*
X154778084Y-116782885D02*
X155397131Y-116782885D01*
X156492370Y-116830504D02*
X156968560Y-116830504D01*
X156397132Y-117116219D02*
X156730465Y-116116219D01*
X156730465Y-116116219D02*
X157063798Y-117116219D01*
X157920941Y-117116219D02*
X157349513Y-117116219D01*
X157635227Y-117116219D02*
X157635227Y-116116219D01*
X157635227Y-116116219D02*
X157539989Y-116259076D01*
X157539989Y-116259076D02*
X157444751Y-116354314D01*
X157444751Y-116354314D02*
X157349513Y-116401933D01*
X158825703Y-116116219D02*
X158349513Y-116116219D01*
X158349513Y-116116219D02*
X158301894Y-116592409D01*
X158301894Y-116592409D02*
X158349513Y-116544790D01*
X158349513Y-116544790D02*
X158444751Y-116497171D01*
X158444751Y-116497171D02*
X158682846Y-116497171D01*
X158682846Y-116497171D02*
X158778084Y-116544790D01*
X158778084Y-116544790D02*
X158825703Y-116592409D01*
X158825703Y-116592409D02*
X158873322Y-116687647D01*
X158873322Y-116687647D02*
X158873322Y-116925742D01*
X158873322Y-116925742D02*
X158825703Y-117020980D01*
X158825703Y-117020980D02*
X158778084Y-117068600D01*
X158778084Y-117068600D02*
X158682846Y-117116219D01*
X158682846Y-117116219D02*
X158444751Y-117116219D01*
X158444751Y-117116219D02*
X158349513Y-117068600D01*
X158349513Y-117068600D02*
X158301894Y-117020980D01*
X157762580Y-64662160D02*
X157810200Y-64709779D01*
X157810200Y-64709779D02*
X157857819Y-64852636D01*
X157857819Y-64852636D02*
X157857819Y-64947874D01*
X157857819Y-64947874D02*
X157810200Y-65090731D01*
X157810200Y-65090731D02*
X157714961Y-65185969D01*
X157714961Y-65185969D02*
X157619723Y-65233588D01*
X157619723Y-65233588D02*
X157429247Y-65281207D01*
X157429247Y-65281207D02*
X157286390Y-65281207D01*
X157286390Y-65281207D02*
X157095914Y-65233588D01*
X157095914Y-65233588D02*
X157000676Y-65185969D01*
X157000676Y-65185969D02*
X156905438Y-65090731D01*
X156905438Y-65090731D02*
X156857819Y-64947874D01*
X156857819Y-64947874D02*
X156857819Y-64852636D01*
X156857819Y-64852636D02*
X156905438Y-64709779D01*
X156905438Y-64709779D02*
X156953057Y-64662160D01*
X157857819Y-64233588D02*
X156857819Y-64233588D01*
X156857819Y-64233588D02*
X156857819Y-63995493D01*
X156857819Y-63995493D02*
X156905438Y-63852636D01*
X156905438Y-63852636D02*
X157000676Y-63757398D01*
X157000676Y-63757398D02*
X157095914Y-63709779D01*
X157095914Y-63709779D02*
X157286390Y-63662160D01*
X157286390Y-63662160D02*
X157429247Y-63662160D01*
X157429247Y-63662160D02*
X157619723Y-63709779D01*
X157619723Y-63709779D02*
X157714961Y-63757398D01*
X157714961Y-63757398D02*
X157810200Y-63852636D01*
X157810200Y-63852636D02*
X157857819Y-63995493D01*
X157857819Y-63995493D02*
X157857819Y-64233588D01*
X151825438Y-64798411D02*
X151777819Y-64893649D01*
X151777819Y-64893649D02*
X151777819Y-65036506D01*
X151777819Y-65036506D02*
X151825438Y-65179363D01*
X151825438Y-65179363D02*
X151920676Y-65274601D01*
X151920676Y-65274601D02*
X152015914Y-65322220D01*
X152015914Y-65322220D02*
X152206390Y-65369839D01*
X152206390Y-65369839D02*
X152349247Y-65369839D01*
X152349247Y-65369839D02*
X152539723Y-65322220D01*
X152539723Y-65322220D02*
X152634961Y-65274601D01*
X152634961Y-65274601D02*
X152730200Y-65179363D01*
X152730200Y-65179363D02*
X152777819Y-65036506D01*
X152777819Y-65036506D02*
X152777819Y-64941268D01*
X152777819Y-64941268D02*
X152730200Y-64798411D01*
X152730200Y-64798411D02*
X152682580Y-64750792D01*
X152682580Y-64750792D02*
X152349247Y-64750792D01*
X152349247Y-64750792D02*
X152349247Y-64941268D01*
X152777819Y-64322220D02*
X151777819Y-64322220D01*
X151777819Y-64322220D02*
X152777819Y-63750792D01*
X152777819Y-63750792D02*
X151777819Y-63750792D01*
X152777819Y-63274601D02*
X151777819Y-63274601D01*
X151777819Y-63274601D02*
X151777819Y-63036506D01*
X151777819Y-63036506D02*
X151825438Y-62893649D01*
X151825438Y-62893649D02*
X151920676Y-62798411D01*
X151920676Y-62798411D02*
X152015914Y-62750792D01*
X152015914Y-62750792D02*
X152206390Y-62703173D01*
X152206390Y-62703173D02*
X152349247Y-62703173D01*
X152349247Y-62703173D02*
X152539723Y-62750792D01*
X152539723Y-62750792D02*
X152634961Y-62798411D01*
X152634961Y-62798411D02*
X152730200Y-62893649D01*
X152730200Y-62893649D02*
X152777819Y-63036506D01*
X152777819Y-63036506D02*
X152777819Y-63274601D01*
X150237819Y-64995541D02*
X149761628Y-65328874D01*
X150237819Y-65566969D02*
X149237819Y-65566969D01*
X149237819Y-65566969D02*
X149237819Y-65186017D01*
X149237819Y-65186017D02*
X149285438Y-65090779D01*
X149285438Y-65090779D02*
X149333057Y-65043160D01*
X149333057Y-65043160D02*
X149428295Y-64995541D01*
X149428295Y-64995541D02*
X149571152Y-64995541D01*
X149571152Y-64995541D02*
X149666390Y-65043160D01*
X149666390Y-65043160D02*
X149714009Y-65090779D01*
X149714009Y-65090779D02*
X149761628Y-65186017D01*
X149761628Y-65186017D02*
X149761628Y-65566969D01*
X149237819Y-64662207D02*
X150237819Y-63995541D01*
X149237819Y-63995541D02*
X150237819Y-64662207D01*
X176669819Y-94246506D02*
X177384104Y-94246506D01*
X177384104Y-94246506D02*
X177526961Y-94294125D01*
X177526961Y-94294125D02*
X177622200Y-94389363D01*
X177622200Y-94389363D02*
X177669819Y-94532220D01*
X177669819Y-94532220D02*
X177669819Y-94627458D01*
X177669819Y-93294125D02*
X177669819Y-93770315D01*
X177669819Y-93770315D02*
X176669819Y-93770315D01*
X177574580Y-92389363D02*
X177622200Y-92436982D01*
X177622200Y-92436982D02*
X177669819Y-92579839D01*
X177669819Y-92579839D02*
X177669819Y-92675077D01*
X177669819Y-92675077D02*
X177622200Y-92817934D01*
X177622200Y-92817934D02*
X177526961Y-92913172D01*
X177526961Y-92913172D02*
X177431723Y-92960791D01*
X177431723Y-92960791D02*
X177241247Y-93008410D01*
X177241247Y-93008410D02*
X177098390Y-93008410D01*
X177098390Y-93008410D02*
X176907914Y-92960791D01*
X176907914Y-92960791D02*
X176812676Y-92913172D01*
X176812676Y-92913172D02*
X176717438Y-92817934D01*
X176717438Y-92817934D02*
X176669819Y-92675077D01*
X176669819Y-92675077D02*
X176669819Y-92579839D01*
X176669819Y-92579839D02*
X176717438Y-92436982D01*
X176717438Y-92436982D02*
X176765057Y-92389363D01*
X176669819Y-91675077D02*
X177384104Y-91675077D01*
X177384104Y-91675077D02*
X177526961Y-91722696D01*
X177526961Y-91722696D02*
X177622200Y-91817934D01*
X177622200Y-91817934D02*
X177669819Y-91960791D01*
X177669819Y-91960791D02*
X177669819Y-92056029D01*
X177669819Y-90722696D02*
X177669819Y-91198886D01*
X177669819Y-91198886D02*
X176669819Y-91198886D01*
X177574580Y-89817934D02*
X177622200Y-89865553D01*
X177622200Y-89865553D02*
X177669819Y-90008410D01*
X177669819Y-90008410D02*
X177669819Y-90103648D01*
X177669819Y-90103648D02*
X177622200Y-90246505D01*
X177622200Y-90246505D02*
X177526961Y-90341743D01*
X177526961Y-90341743D02*
X177431723Y-90389362D01*
X177431723Y-90389362D02*
X177241247Y-90436981D01*
X177241247Y-90436981D02*
X177098390Y-90436981D01*
X177098390Y-90436981D02*
X176907914Y-90389362D01*
X176907914Y-90389362D02*
X176812676Y-90341743D01*
X176812676Y-90341743D02*
X176717438Y-90246505D01*
X176717438Y-90246505D02*
X176669819Y-90103648D01*
X176669819Y-90103648D02*
X176669819Y-90008410D01*
X176669819Y-90008410D02*
X176717438Y-89865553D01*
X176717438Y-89865553D02*
X176765057Y-89817934D01*
X176669819Y-89103648D02*
X177384104Y-89103648D01*
X177384104Y-89103648D02*
X177526961Y-89151267D01*
X177526961Y-89151267D02*
X177622200Y-89246505D01*
X177622200Y-89246505D02*
X177669819Y-89389362D01*
X177669819Y-89389362D02*
X177669819Y-89484600D01*
X177669819Y-88151267D02*
X177669819Y-88627457D01*
X177669819Y-88627457D02*
X176669819Y-88627457D01*
X177574580Y-87246505D02*
X177622200Y-87294124D01*
X177622200Y-87294124D02*
X177669819Y-87436981D01*
X177669819Y-87436981D02*
X177669819Y-87532219D01*
X177669819Y-87532219D02*
X177622200Y-87675076D01*
X177622200Y-87675076D02*
X177526961Y-87770314D01*
X177526961Y-87770314D02*
X177431723Y-87817933D01*
X177431723Y-87817933D02*
X177241247Y-87865552D01*
X177241247Y-87865552D02*
X177098390Y-87865552D01*
X177098390Y-87865552D02*
X176907914Y-87817933D01*
X176907914Y-87817933D02*
X176812676Y-87770314D01*
X176812676Y-87770314D02*
X176717438Y-87675076D01*
X176717438Y-87675076D02*
X176669819Y-87532219D01*
X176669819Y-87532219D02*
X176669819Y-87436981D01*
X176669819Y-87436981D02*
X176717438Y-87294124D01*
X176717438Y-87294124D02*
X176765057Y-87246505D01*
X176669819Y-86532219D02*
X177384104Y-86532219D01*
X177384104Y-86532219D02*
X177526961Y-86579838D01*
X177526961Y-86579838D02*
X177622200Y-86675076D01*
X177622200Y-86675076D02*
X177669819Y-86817933D01*
X177669819Y-86817933D02*
X177669819Y-86913171D01*
X177669819Y-85579838D02*
X177669819Y-86056028D01*
X177669819Y-86056028D02*
X176669819Y-86056028D01*
X177574580Y-84675076D02*
X177622200Y-84722695D01*
X177622200Y-84722695D02*
X177669819Y-84865552D01*
X177669819Y-84865552D02*
X177669819Y-84960790D01*
X177669819Y-84960790D02*
X177622200Y-85103647D01*
X177622200Y-85103647D02*
X177526961Y-85198885D01*
X177526961Y-85198885D02*
X177431723Y-85246504D01*
X177431723Y-85246504D02*
X177241247Y-85294123D01*
X177241247Y-85294123D02*
X177098390Y-85294123D01*
X177098390Y-85294123D02*
X176907914Y-85246504D01*
X176907914Y-85246504D02*
X176812676Y-85198885D01*
X176812676Y-85198885D02*
X176717438Y-85103647D01*
X176717438Y-85103647D02*
X176669819Y-84960790D01*
X176669819Y-84960790D02*
X176669819Y-84865552D01*
X176669819Y-84865552D02*
X176717438Y-84722695D01*
X176717438Y-84722695D02*
X176765057Y-84675076D01*
D11*
X139587653Y-65078828D02*
X139087653Y-64364542D01*
X138730510Y-65078828D02*
X138730510Y-63578828D01*
X138730510Y-63578828D02*
X139301939Y-63578828D01*
X139301939Y-63578828D02*
X139444796Y-63650257D01*
X139444796Y-63650257D02*
X139516225Y-63721685D01*
X139516225Y-63721685D02*
X139587653Y-63864542D01*
X139587653Y-63864542D02*
X139587653Y-64078828D01*
X139587653Y-64078828D02*
X139516225Y-64221685D01*
X139516225Y-64221685D02*
X139444796Y-64293114D01*
X139444796Y-64293114D02*
X139301939Y-64364542D01*
X139301939Y-64364542D02*
X138730510Y-64364542D01*
X140801939Y-65007400D02*
X140659082Y-65078828D01*
X140659082Y-65078828D02*
X140373368Y-65078828D01*
X140373368Y-65078828D02*
X140230510Y-65007400D01*
X140230510Y-65007400D02*
X140159082Y-64864542D01*
X140159082Y-64864542D02*
X140159082Y-64293114D01*
X140159082Y-64293114D02*
X140230510Y-64150257D01*
X140230510Y-64150257D02*
X140373368Y-64078828D01*
X140373368Y-64078828D02*
X140659082Y-64078828D01*
X140659082Y-64078828D02*
X140801939Y-64150257D01*
X140801939Y-64150257D02*
X140873368Y-64293114D01*
X140873368Y-64293114D02*
X140873368Y-64435971D01*
X140873368Y-64435971D02*
X140159082Y-64578828D01*
X141373367Y-64078828D02*
X141730510Y-65078828D01*
X141730510Y-65078828D02*
X142087653Y-64078828D01*
X142944796Y-63578828D02*
X143087653Y-63578828D01*
X143087653Y-63578828D02*
X143230510Y-63650257D01*
X143230510Y-63650257D02*
X143301939Y-63721685D01*
X143301939Y-63721685D02*
X143373367Y-63864542D01*
X143373367Y-63864542D02*
X143444796Y-64150257D01*
X143444796Y-64150257D02*
X143444796Y-64507400D01*
X143444796Y-64507400D02*
X143373367Y-64793114D01*
X143373367Y-64793114D02*
X143301939Y-64935971D01*
X143301939Y-64935971D02*
X143230510Y-65007400D01*
X143230510Y-65007400D02*
X143087653Y-65078828D01*
X143087653Y-65078828D02*
X142944796Y-65078828D01*
X142944796Y-65078828D02*
X142801939Y-65007400D01*
X142801939Y-65007400D02*
X142730510Y-64935971D01*
X142730510Y-64935971D02*
X142659081Y-64793114D01*
X142659081Y-64793114D02*
X142587653Y-64507400D01*
X142587653Y-64507400D02*
X142587653Y-64150257D01*
X142587653Y-64150257D02*
X142659081Y-63864542D01*
X142659081Y-63864542D02*
X142730510Y-63721685D01*
X142730510Y-63721685D02*
X142801939Y-63650257D01*
X142801939Y-63650257D02*
X142944796Y-63578828D01*
X144373367Y-63578828D02*
X144516224Y-63578828D01*
X144516224Y-63578828D02*
X144659081Y-63650257D01*
X144659081Y-63650257D02*
X144730510Y-63721685D01*
X144730510Y-63721685D02*
X144801938Y-63864542D01*
X144801938Y-63864542D02*
X144873367Y-64150257D01*
X144873367Y-64150257D02*
X144873367Y-64507400D01*
X144873367Y-64507400D02*
X144801938Y-64793114D01*
X144801938Y-64793114D02*
X144730510Y-64935971D01*
X144730510Y-64935971D02*
X144659081Y-65007400D01*
X144659081Y-65007400D02*
X144516224Y-65078828D01*
X144516224Y-65078828D02*
X144373367Y-65078828D01*
X144373367Y-65078828D02*
X144230510Y-65007400D01*
X144230510Y-65007400D02*
X144159081Y-64935971D01*
X144159081Y-64935971D02*
X144087652Y-64793114D01*
X144087652Y-64793114D02*
X144016224Y-64507400D01*
X144016224Y-64507400D02*
X144016224Y-64150257D01*
X144016224Y-64150257D02*
X144087652Y-63864542D01*
X144087652Y-63864542D02*
X144159081Y-63721685D01*
X144159081Y-63721685D02*
X144230510Y-63650257D01*
X144230510Y-63650257D02*
X144373367Y-63578828D01*
X145801938Y-63578828D02*
X145944795Y-63578828D01*
X145944795Y-63578828D02*
X146087652Y-63650257D01*
X146087652Y-63650257D02*
X146159081Y-63721685D01*
X146159081Y-63721685D02*
X146230509Y-63864542D01*
X146230509Y-63864542D02*
X146301938Y-64150257D01*
X146301938Y-64150257D02*
X146301938Y-64507400D01*
X146301938Y-64507400D02*
X146230509Y-64793114D01*
X146230509Y-64793114D02*
X146159081Y-64935971D01*
X146159081Y-64935971D02*
X146087652Y-65007400D01*
X146087652Y-65007400D02*
X145944795Y-65078828D01*
X145944795Y-65078828D02*
X145801938Y-65078828D01*
X145801938Y-65078828D02*
X145659081Y-65007400D01*
X145659081Y-65007400D02*
X145587652Y-64935971D01*
X145587652Y-64935971D02*
X145516223Y-64793114D01*
X145516223Y-64793114D02*
X145444795Y-64507400D01*
X145444795Y-64507400D02*
X145444795Y-64150257D01*
X145444795Y-64150257D02*
X145516223Y-63864542D01*
X145516223Y-63864542D02*
X145587652Y-63721685D01*
X145587652Y-63721685D02*
X145659081Y-63650257D01*
X145659081Y-63650257D02*
X145801938Y-63578828D01*
D10*
X154317819Y-65344731D02*
X154317819Y-64773303D01*
X155317819Y-65059017D02*
X154317819Y-65059017D01*
X154317819Y-64535207D02*
X155317819Y-63868541D01*
X154317819Y-63868541D02*
X155317819Y-64535207D01*
X110113866Y-91076332D02*
X108713866Y-91076332D01*
X108713866Y-91076332D02*
X108713866Y-90542999D01*
X108713866Y-90542999D02*
X108780533Y-90409666D01*
X108780533Y-90409666D02*
X108847200Y-90342999D01*
X108847200Y-90342999D02*
X108980533Y-90276332D01*
X108980533Y-90276332D02*
X109180533Y-90276332D01*
X109180533Y-90276332D02*
X109313866Y-90342999D01*
X109313866Y-90342999D02*
X109380533Y-90409666D01*
X109380533Y-90409666D02*
X109447200Y-90542999D01*
X109447200Y-90542999D02*
X109447200Y-91076332D01*
X110113866Y-88942999D02*
X110113866Y-89742999D01*
X110113866Y-89342999D02*
X108713866Y-89342999D01*
X108713866Y-89342999D02*
X108913866Y-89476332D01*
X108913866Y-89476332D02*
X109047200Y-89609666D01*
X109047200Y-89609666D02*
X109113866Y-89742999D01*
X108273819Y-114889273D02*
X108273819Y-114270226D01*
X108273819Y-114270226D02*
X108654771Y-114603559D01*
X108654771Y-114603559D02*
X108654771Y-114460702D01*
X108654771Y-114460702D02*
X108702390Y-114365464D01*
X108702390Y-114365464D02*
X108750009Y-114317845D01*
X108750009Y-114317845D02*
X108845247Y-114270226D01*
X108845247Y-114270226D02*
X109083342Y-114270226D01*
X109083342Y-114270226D02*
X109178580Y-114317845D01*
X109178580Y-114317845D02*
X109226200Y-114365464D01*
X109226200Y-114365464D02*
X109273819Y-114460702D01*
X109273819Y-114460702D02*
X109273819Y-114746416D01*
X109273819Y-114746416D02*
X109226200Y-114841654D01*
X109226200Y-114841654D02*
X109178580Y-114889273D01*
X109273819Y-113794035D02*
X109273819Y-113603559D01*
X109273819Y-113603559D02*
X109226200Y-113508321D01*
X109226200Y-113508321D02*
X109178580Y-113460702D01*
X109178580Y-113460702D02*
X109035723Y-113365464D01*
X109035723Y-113365464D02*
X108845247Y-113317845D01*
X108845247Y-113317845D02*
X108464295Y-113317845D01*
X108464295Y-113317845D02*
X108369057Y-113365464D01*
X108369057Y-113365464D02*
X108321438Y-113413083D01*
X108321438Y-113413083D02*
X108273819Y-113508321D01*
X108273819Y-113508321D02*
X108273819Y-113698797D01*
X108273819Y-113698797D02*
X108321438Y-113794035D01*
X108321438Y-113794035D02*
X108369057Y-113841654D01*
X108369057Y-113841654D02*
X108464295Y-113889273D01*
X108464295Y-113889273D02*
X108702390Y-113889273D01*
X108702390Y-113889273D02*
X108797628Y-113841654D01*
X108797628Y-113841654D02*
X108845247Y-113794035D01*
X108845247Y-113794035D02*
X108892866Y-113698797D01*
X108892866Y-113698797D02*
X108892866Y-113508321D01*
X108892866Y-113508321D02*
X108845247Y-113413083D01*
X108845247Y-113413083D02*
X108797628Y-113365464D01*
X108797628Y-113365464D02*
X108702390Y-113317845D01*
X109273819Y-65534035D02*
X109273819Y-66105463D01*
X109273819Y-65819749D02*
X108273819Y-65819749D01*
X108273819Y-65819749D02*
X108416676Y-65914987D01*
X108416676Y-65914987D02*
X108511914Y-66010225D01*
X108511914Y-66010225D02*
X108559533Y-66105463D01*
X124206666Y-64784819D02*
X124206666Y-65499104D01*
X124206666Y-65499104D02*
X124159047Y-65641961D01*
X124159047Y-65641961D02*
X124063809Y-65737200D01*
X124063809Y-65737200D02*
X123920952Y-65784819D01*
X123920952Y-65784819D02*
X123825714Y-65784819D01*
X124682857Y-65784819D02*
X124682857Y-64784819D01*
X124682857Y-64784819D02*
X125063809Y-64784819D01*
X125063809Y-64784819D02*
X125159047Y-64832438D01*
X125159047Y-64832438D02*
X125206666Y-64880057D01*
X125206666Y-64880057D02*
X125254285Y-64975295D01*
X125254285Y-64975295D02*
X125254285Y-65118152D01*
X125254285Y-65118152D02*
X125206666Y-65213390D01*
X125206666Y-65213390D02*
X125159047Y-65261009D01*
X125159047Y-65261009D02*
X125063809Y-65308628D01*
X125063809Y-65308628D02*
X124682857Y-65308628D01*
X126206666Y-65784819D02*
X125635238Y-65784819D01*
X125920952Y-65784819D02*
X125920952Y-64784819D01*
X125920952Y-64784819D02*
X125825714Y-64927676D01*
X125825714Y-64927676D02*
X125730476Y-65022914D01*
X125730476Y-65022914D02*
X125635238Y-65070533D01*
X121420951Y-69199104D02*
X121897141Y-69199104D01*
X121325713Y-69484819D02*
X121659046Y-68484819D01*
X121659046Y-68484819D02*
X121992379Y-69484819D01*
X122754284Y-68818152D02*
X122754284Y-69484819D01*
X122325713Y-68818152D02*
X122325713Y-69341961D01*
X122325713Y-69341961D02*
X122373332Y-69437200D01*
X122373332Y-69437200D02*
X122468570Y-69484819D01*
X122468570Y-69484819D02*
X122611427Y-69484819D01*
X122611427Y-69484819D02*
X122706665Y-69437200D01*
X122706665Y-69437200D02*
X122754284Y-69389580D01*
X123087618Y-68818152D02*
X123468570Y-68818152D01*
X123230475Y-68484819D02*
X123230475Y-69341961D01*
X123230475Y-69341961D02*
X123278094Y-69437200D01*
X123278094Y-69437200D02*
X123373332Y-69484819D01*
X123373332Y-69484819D02*
X123468570Y-69484819D01*
X123944761Y-69484819D02*
X123849523Y-69437200D01*
X123849523Y-69437200D02*
X123801904Y-69389580D01*
X123801904Y-69389580D02*
X123754285Y-69294342D01*
X123754285Y-69294342D02*
X123754285Y-69008628D01*
X123754285Y-69008628D02*
X123801904Y-68913390D01*
X123801904Y-68913390D02*
X123849523Y-68865771D01*
X123849523Y-68865771D02*
X123944761Y-68818152D01*
X123944761Y-68818152D02*
X124087618Y-68818152D01*
X124087618Y-68818152D02*
X124182856Y-68865771D01*
X124182856Y-68865771D02*
X124230475Y-68913390D01*
X124230475Y-68913390D02*
X124278094Y-69008628D01*
X124278094Y-69008628D02*
X124278094Y-69294342D01*
X124278094Y-69294342D02*
X124230475Y-69389580D01*
X124230475Y-69389580D02*
X124182856Y-69437200D01*
X124182856Y-69437200D02*
X124087618Y-69484819D01*
X124087618Y-69484819D02*
X123944761Y-69484819D01*
X125420952Y-69437200D02*
X125563809Y-69484819D01*
X125563809Y-69484819D02*
X125801904Y-69484819D01*
X125801904Y-69484819D02*
X125897142Y-69437200D01*
X125897142Y-69437200D02*
X125944761Y-69389580D01*
X125944761Y-69389580D02*
X125992380Y-69294342D01*
X125992380Y-69294342D02*
X125992380Y-69199104D01*
X125992380Y-69199104D02*
X125944761Y-69103866D01*
X125944761Y-69103866D02*
X125897142Y-69056247D01*
X125897142Y-69056247D02*
X125801904Y-69008628D01*
X125801904Y-69008628D02*
X125611428Y-68961009D01*
X125611428Y-68961009D02*
X125516190Y-68913390D01*
X125516190Y-68913390D02*
X125468571Y-68865771D01*
X125468571Y-68865771D02*
X125420952Y-68770533D01*
X125420952Y-68770533D02*
X125420952Y-68675295D01*
X125420952Y-68675295D02*
X125468571Y-68580057D01*
X125468571Y-68580057D02*
X125516190Y-68532438D01*
X125516190Y-68532438D02*
X125611428Y-68484819D01*
X125611428Y-68484819D02*
X125849523Y-68484819D01*
X125849523Y-68484819D02*
X125992380Y-68532438D01*
X126278095Y-68818152D02*
X126659047Y-68818152D01*
X126420952Y-68484819D02*
X126420952Y-69341961D01*
X126420952Y-69341961D02*
X126468571Y-69437200D01*
X126468571Y-69437200D02*
X126563809Y-69484819D01*
X126563809Y-69484819D02*
X126659047Y-69484819D01*
X127420952Y-69484819D02*
X127420952Y-68961009D01*
X127420952Y-68961009D02*
X127373333Y-68865771D01*
X127373333Y-68865771D02*
X127278095Y-68818152D01*
X127278095Y-68818152D02*
X127087619Y-68818152D01*
X127087619Y-68818152D02*
X126992381Y-68865771D01*
X127420952Y-69437200D02*
X127325714Y-69484819D01*
X127325714Y-69484819D02*
X127087619Y-69484819D01*
X127087619Y-69484819D02*
X126992381Y-69437200D01*
X126992381Y-69437200D02*
X126944762Y-69341961D01*
X126944762Y-69341961D02*
X126944762Y-69246723D01*
X126944762Y-69246723D02*
X126992381Y-69151485D01*
X126992381Y-69151485D02*
X127087619Y-69103866D01*
X127087619Y-69103866D02*
X127325714Y-69103866D01*
X127325714Y-69103866D02*
X127420952Y-69056247D01*
X127897143Y-69484819D02*
X127897143Y-68818152D01*
X127897143Y-69008628D02*
X127944762Y-68913390D01*
X127944762Y-68913390D02*
X127992381Y-68865771D01*
X127992381Y-68865771D02*
X128087619Y-68818152D01*
X128087619Y-68818152D02*
X128182857Y-68818152D01*
X128373334Y-68818152D02*
X128754286Y-68818152D01*
X128516191Y-68484819D02*
X128516191Y-69341961D01*
X128516191Y-69341961D02*
X128563810Y-69437200D01*
X128563810Y-69437200D02*
X128659048Y-69484819D01*
X128659048Y-69484819D02*
X128754286Y-69484819D01*
X151571600Y-112051932D02*
X151619219Y-111909075D01*
X151619219Y-111909075D02*
X151619219Y-111670980D01*
X151619219Y-111670980D02*
X151571600Y-111575742D01*
X151571600Y-111575742D02*
X151523980Y-111528123D01*
X151523980Y-111528123D02*
X151428742Y-111480504D01*
X151428742Y-111480504D02*
X151333504Y-111480504D01*
X151333504Y-111480504D02*
X151238266Y-111528123D01*
X151238266Y-111528123D02*
X151190647Y-111575742D01*
X151190647Y-111575742D02*
X151143028Y-111670980D01*
X151143028Y-111670980D02*
X151095409Y-111861456D01*
X151095409Y-111861456D02*
X151047790Y-111956694D01*
X151047790Y-111956694D02*
X151000171Y-112004313D01*
X151000171Y-112004313D02*
X150904933Y-112051932D01*
X150904933Y-112051932D02*
X150809695Y-112051932D01*
X150809695Y-112051932D02*
X150714457Y-112004313D01*
X150714457Y-112004313D02*
X150666838Y-111956694D01*
X150666838Y-111956694D02*
X150619219Y-111861456D01*
X150619219Y-111861456D02*
X150619219Y-111623361D01*
X150619219Y-111623361D02*
X150666838Y-111480504D01*
X150619219Y-111147170D02*
X151619219Y-110909075D01*
X151619219Y-110909075D02*
X150904933Y-110718599D01*
X150904933Y-110718599D02*
X151619219Y-110528123D01*
X151619219Y-110528123D02*
X150619219Y-110290028D01*
X151619219Y-109385266D02*
X151619219Y-109956694D01*
X151619219Y-109670980D02*
X150619219Y-109670980D01*
X150619219Y-109670980D02*
X150762076Y-109766218D01*
X150762076Y-109766218D02*
X150857314Y-109861456D01*
X150857314Y-109861456D02*
X150904933Y-109956694D01*
X153505476Y-104770809D02*
X153838809Y-104770809D01*
X153981666Y-105294619D02*
X153505476Y-105294619D01*
X153505476Y-105294619D02*
X153505476Y-104294619D01*
X153505476Y-104294619D02*
X153981666Y-104294619D01*
X154410238Y-105294619D02*
X154410238Y-104294619D01*
X154410238Y-104294619D02*
X154791190Y-104294619D01*
X154791190Y-104294619D02*
X154886428Y-104342238D01*
X154886428Y-104342238D02*
X154934047Y-104389857D01*
X154934047Y-104389857D02*
X154981666Y-104485095D01*
X154981666Y-104485095D02*
X154981666Y-104627952D01*
X154981666Y-104627952D02*
X154934047Y-104723190D01*
X154934047Y-104723190D02*
X154886428Y-104770809D01*
X154886428Y-104770809D02*
X154791190Y-104818428D01*
X154791190Y-104818428D02*
X154410238Y-104818428D01*
X155981666Y-105294619D02*
X155648333Y-104818428D01*
X155410238Y-105294619D02*
X155410238Y-104294619D01*
X155410238Y-104294619D02*
X155791190Y-104294619D01*
X155791190Y-104294619D02*
X155886428Y-104342238D01*
X155886428Y-104342238D02*
X155934047Y-104389857D01*
X155934047Y-104389857D02*
X155981666Y-104485095D01*
X155981666Y-104485095D02*
X155981666Y-104627952D01*
X155981666Y-104627952D02*
X155934047Y-104723190D01*
X155934047Y-104723190D02*
X155886428Y-104770809D01*
X155886428Y-104770809D02*
X155791190Y-104818428D01*
X155791190Y-104818428D02*
X155410238Y-104818428D01*
X156600714Y-104294619D02*
X156791190Y-104294619D01*
X156791190Y-104294619D02*
X156886428Y-104342238D01*
X156886428Y-104342238D02*
X156981666Y-104437476D01*
X156981666Y-104437476D02*
X157029285Y-104627952D01*
X157029285Y-104627952D02*
X157029285Y-104961285D01*
X157029285Y-104961285D02*
X156981666Y-105151761D01*
X156981666Y-105151761D02*
X156886428Y-105247000D01*
X156886428Y-105247000D02*
X156791190Y-105294619D01*
X156791190Y-105294619D02*
X156600714Y-105294619D01*
X156600714Y-105294619D02*
X156505476Y-105247000D01*
X156505476Y-105247000D02*
X156410238Y-105151761D01*
X156410238Y-105151761D02*
X156362619Y-104961285D01*
X156362619Y-104961285D02*
X156362619Y-104627952D01*
X156362619Y-104627952D02*
X156410238Y-104437476D01*
X156410238Y-104437476D02*
X156505476Y-104342238D01*
X156505476Y-104342238D02*
X156600714Y-104294619D01*
X157457857Y-105294619D02*
X157457857Y-104294619D01*
X157457857Y-104294619D02*
X157791190Y-105008904D01*
X157791190Y-105008904D02*
X158124523Y-104294619D01*
X158124523Y-104294619D02*
X158124523Y-105294619D01*
D12*
X153450755Y-109582648D02*
X153412660Y-109658838D01*
X153412660Y-109658838D02*
X153374564Y-109696933D01*
X153374564Y-109696933D02*
X153298374Y-109735029D01*
X153298374Y-109735029D02*
X153069802Y-109735029D01*
X153069802Y-109735029D02*
X152993612Y-109696933D01*
X152993612Y-109696933D02*
X152955517Y-109658838D01*
X152955517Y-109658838D02*
X152917421Y-109582648D01*
X152917421Y-109582648D02*
X152917421Y-109468362D01*
X152917421Y-109468362D02*
X152955517Y-109392171D01*
X152955517Y-109392171D02*
X152993612Y-109354076D01*
X152993612Y-109354076D02*
X153069802Y-109315981D01*
X153069802Y-109315981D02*
X153298374Y-109315981D01*
X153298374Y-109315981D02*
X153374564Y-109354076D01*
X153374564Y-109354076D02*
X153412660Y-109392171D01*
X153412660Y-109392171D02*
X153450755Y-109468362D01*
X153450755Y-109468362D02*
X153450755Y-109582648D01*
X152917421Y-108973123D02*
X153450755Y-108973123D01*
X152993612Y-108973123D02*
X152955517Y-108935028D01*
X152955517Y-108935028D02*
X152917421Y-108858838D01*
X152917421Y-108858838D02*
X152917421Y-108744552D01*
X152917421Y-108744552D02*
X152955517Y-108668361D01*
X152955517Y-108668361D02*
X153031707Y-108630266D01*
X153031707Y-108630266D02*
X153450755Y-108630266D01*
D10*
X140803333Y-116888419D02*
X140470000Y-116412228D01*
X140231905Y-116888419D02*
X140231905Y-115888419D01*
X140231905Y-115888419D02*
X140612857Y-115888419D01*
X140612857Y-115888419D02*
X140708095Y-115936038D01*
X140708095Y-115936038D02*
X140755714Y-115983657D01*
X140755714Y-115983657D02*
X140803333Y-116078895D01*
X140803333Y-116078895D02*
X140803333Y-116221752D01*
X140803333Y-116221752D02*
X140755714Y-116316990D01*
X140755714Y-116316990D02*
X140708095Y-116364609D01*
X140708095Y-116364609D02*
X140612857Y-116412228D01*
X140612857Y-116412228D02*
X140231905Y-116412228D01*
X141184286Y-115983657D02*
X141231905Y-115936038D01*
X141231905Y-115936038D02*
X141327143Y-115888419D01*
X141327143Y-115888419D02*
X141565238Y-115888419D01*
X141565238Y-115888419D02*
X141660476Y-115936038D01*
X141660476Y-115936038D02*
X141708095Y-115983657D01*
X141708095Y-115983657D02*
X141755714Y-116078895D01*
X141755714Y-116078895D02*
X141755714Y-116174133D01*
X141755714Y-116174133D02*
X141708095Y-116316990D01*
X141708095Y-116316990D02*
X141136667Y-116888419D01*
X141136667Y-116888419D02*
X141755714Y-116888419D01*
X141551819Y-111561476D02*
X141551819Y-112132904D01*
X141551819Y-111847190D02*
X140551819Y-111847190D01*
X140551819Y-111847190D02*
X140694676Y-111942428D01*
X140694676Y-111942428D02*
X140789914Y-112037666D01*
X140789914Y-112037666D02*
X140837533Y-112132904D01*
X140551819Y-110942428D02*
X140551819Y-110847190D01*
X140551819Y-110847190D02*
X140599438Y-110751952D01*
X140599438Y-110751952D02*
X140647057Y-110704333D01*
X140647057Y-110704333D02*
X140742295Y-110656714D01*
X140742295Y-110656714D02*
X140932771Y-110609095D01*
X140932771Y-110609095D02*
X141170866Y-110609095D01*
X141170866Y-110609095D02*
X141361342Y-110656714D01*
X141361342Y-110656714D02*
X141456580Y-110704333D01*
X141456580Y-110704333D02*
X141504200Y-110751952D01*
X141504200Y-110751952D02*
X141551819Y-110847190D01*
X141551819Y-110847190D02*
X141551819Y-110942428D01*
X141551819Y-110942428D02*
X141504200Y-111037666D01*
X141504200Y-111037666D02*
X141456580Y-111085285D01*
X141456580Y-111085285D02*
X141361342Y-111132904D01*
X141361342Y-111132904D02*
X141170866Y-111180523D01*
X141170866Y-111180523D02*
X140932771Y-111180523D01*
X140932771Y-111180523D02*
X140742295Y-111132904D01*
X140742295Y-111132904D02*
X140647057Y-111085285D01*
X140647057Y-111085285D02*
X140599438Y-111037666D01*
X140599438Y-111037666D02*
X140551819Y-110942428D01*
X141551819Y-110180523D02*
X140551819Y-110180523D01*
X141551819Y-109609095D02*
X140980390Y-110037666D01*
X140551819Y-109609095D02*
X141123247Y-110180523D01*
X137501333Y-116913819D02*
X137168000Y-116437628D01*
X136929905Y-116913819D02*
X136929905Y-115913819D01*
X136929905Y-115913819D02*
X137310857Y-115913819D01*
X137310857Y-115913819D02*
X137406095Y-115961438D01*
X137406095Y-115961438D02*
X137453714Y-116009057D01*
X137453714Y-116009057D02*
X137501333Y-116104295D01*
X137501333Y-116104295D02*
X137501333Y-116247152D01*
X137501333Y-116247152D02*
X137453714Y-116342390D01*
X137453714Y-116342390D02*
X137406095Y-116390009D01*
X137406095Y-116390009D02*
X137310857Y-116437628D01*
X137310857Y-116437628D02*
X136929905Y-116437628D01*
X138453714Y-116913819D02*
X137882286Y-116913819D01*
X138168000Y-116913819D02*
X138168000Y-115913819D01*
X138168000Y-115913819D02*
X138072762Y-116056676D01*
X138072762Y-116056676D02*
X137977524Y-116151914D01*
X137977524Y-116151914D02*
X137882286Y-116199533D01*
X137970419Y-111307476D02*
X137970419Y-111878904D01*
X137970419Y-111593190D02*
X136970419Y-111593190D01*
X136970419Y-111593190D02*
X137113276Y-111688428D01*
X137113276Y-111688428D02*
X137208514Y-111783666D01*
X137208514Y-111783666D02*
X137256133Y-111878904D01*
X136970419Y-110688428D02*
X136970419Y-110593190D01*
X136970419Y-110593190D02*
X137018038Y-110497952D01*
X137018038Y-110497952D02*
X137065657Y-110450333D01*
X137065657Y-110450333D02*
X137160895Y-110402714D01*
X137160895Y-110402714D02*
X137351371Y-110355095D01*
X137351371Y-110355095D02*
X137589466Y-110355095D01*
X137589466Y-110355095D02*
X137779942Y-110402714D01*
X137779942Y-110402714D02*
X137875180Y-110450333D01*
X137875180Y-110450333D02*
X137922800Y-110497952D01*
X137922800Y-110497952D02*
X137970419Y-110593190D01*
X137970419Y-110593190D02*
X137970419Y-110688428D01*
X137970419Y-110688428D02*
X137922800Y-110783666D01*
X137922800Y-110783666D02*
X137875180Y-110831285D01*
X137875180Y-110831285D02*
X137779942Y-110878904D01*
X137779942Y-110878904D02*
X137589466Y-110926523D01*
X137589466Y-110926523D02*
X137351371Y-110926523D01*
X137351371Y-110926523D02*
X137160895Y-110878904D01*
X137160895Y-110878904D02*
X137065657Y-110831285D01*
X137065657Y-110831285D02*
X137018038Y-110783666D01*
X137018038Y-110783666D02*
X136970419Y-110688428D01*
X137970419Y-109926523D02*
X136970419Y-109926523D01*
X137970419Y-109355095D02*
X137398990Y-109783666D01*
X136970419Y-109355095D02*
X137541847Y-109926523D01*
X130935505Y-114348419D02*
X130935505Y-113348419D01*
X130935505Y-113348419D02*
X131173600Y-113348419D01*
X131173600Y-113348419D02*
X131316457Y-113396038D01*
X131316457Y-113396038D02*
X131411695Y-113491276D01*
X131411695Y-113491276D02*
X131459314Y-113586514D01*
X131459314Y-113586514D02*
X131506933Y-113776990D01*
X131506933Y-113776990D02*
X131506933Y-113919847D01*
X131506933Y-113919847D02*
X131459314Y-114110323D01*
X131459314Y-114110323D02*
X131411695Y-114205561D01*
X131411695Y-114205561D02*
X131316457Y-114300800D01*
X131316457Y-114300800D02*
X131173600Y-114348419D01*
X131173600Y-114348419D02*
X130935505Y-114348419D01*
X132459314Y-114348419D02*
X131887886Y-114348419D01*
X132173600Y-114348419D02*
X132173600Y-113348419D01*
X132173600Y-113348419D02*
X132078362Y-113491276D01*
X132078362Y-113491276D02*
X131983124Y-113586514D01*
X131983124Y-113586514D02*
X131887886Y-113634133D01*
X132103019Y-108670457D02*
X132103019Y-109241885D01*
X132103019Y-108956171D02*
X131103019Y-108956171D01*
X131103019Y-108956171D02*
X131245876Y-109051409D01*
X131245876Y-109051409D02*
X131341114Y-109146647D01*
X131341114Y-109146647D02*
X131388733Y-109241885D01*
X132103019Y-108241885D02*
X131103019Y-108241885D01*
X131103019Y-108241885D02*
X132103019Y-107670457D01*
X132103019Y-107670457D02*
X131103019Y-107670457D01*
X131103019Y-106718076D02*
X131103019Y-107194266D01*
X131103019Y-107194266D02*
X131579209Y-107241885D01*
X131579209Y-107241885D02*
X131531590Y-107194266D01*
X131531590Y-107194266D02*
X131483971Y-107099028D01*
X131483971Y-107099028D02*
X131483971Y-106860933D01*
X131483971Y-106860933D02*
X131531590Y-106765695D01*
X131531590Y-106765695D02*
X131579209Y-106718076D01*
X131579209Y-106718076D02*
X131674447Y-106670457D01*
X131674447Y-106670457D02*
X131912542Y-106670457D01*
X131912542Y-106670457D02*
X132007780Y-106718076D01*
X132007780Y-106718076D02*
X132055400Y-106765695D01*
X132055400Y-106765695D02*
X132103019Y-106860933D01*
X132103019Y-106860933D02*
X132103019Y-107099028D01*
X132103019Y-107099028D02*
X132055400Y-107194266D01*
X132055400Y-107194266D02*
X132007780Y-107241885D01*
X131531590Y-106099028D02*
X131483971Y-106194266D01*
X131483971Y-106194266D02*
X131436352Y-106241885D01*
X131436352Y-106241885D02*
X131341114Y-106289504D01*
X131341114Y-106289504D02*
X131293495Y-106289504D01*
X131293495Y-106289504D02*
X131198257Y-106241885D01*
X131198257Y-106241885D02*
X131150638Y-106194266D01*
X131150638Y-106194266D02*
X131103019Y-106099028D01*
X131103019Y-106099028D02*
X131103019Y-105908552D01*
X131103019Y-105908552D02*
X131150638Y-105813314D01*
X131150638Y-105813314D02*
X131198257Y-105765695D01*
X131198257Y-105765695D02*
X131293495Y-105718076D01*
X131293495Y-105718076D02*
X131341114Y-105718076D01*
X131341114Y-105718076D02*
X131436352Y-105765695D01*
X131436352Y-105765695D02*
X131483971Y-105813314D01*
X131483971Y-105813314D02*
X131531590Y-105908552D01*
X131531590Y-105908552D02*
X131531590Y-106099028D01*
X131531590Y-106099028D02*
X131579209Y-106194266D01*
X131579209Y-106194266D02*
X131626828Y-106241885D01*
X131626828Y-106241885D02*
X131722066Y-106289504D01*
X131722066Y-106289504D02*
X131912542Y-106289504D01*
X131912542Y-106289504D02*
X132007780Y-106241885D01*
X132007780Y-106241885D02*
X132055400Y-106194266D01*
X132055400Y-106194266D02*
X132103019Y-106099028D01*
X132103019Y-106099028D02*
X132103019Y-105908552D01*
X132103019Y-105908552D02*
X132055400Y-105813314D01*
X132055400Y-105813314D02*
X132007780Y-105765695D01*
X132007780Y-105765695D02*
X131912542Y-105718076D01*
X131912542Y-105718076D02*
X131722066Y-105718076D01*
X131722066Y-105718076D02*
X131626828Y-105765695D01*
X131626828Y-105765695D02*
X131579209Y-105813314D01*
X131579209Y-105813314D02*
X131531590Y-105908552D01*
X132103019Y-104765695D02*
X132103019Y-105337123D01*
X132103019Y-105051409D02*
X131103019Y-105051409D01*
X131103019Y-105051409D02*
X131245876Y-105146647D01*
X131245876Y-105146647D02*
X131341114Y-105241885D01*
X131341114Y-105241885D02*
X131388733Y-105337123D01*
X131103019Y-104432361D02*
X131103019Y-103765695D01*
X131103019Y-103765695D02*
X132103019Y-104194266D01*
X130003019Y-111869504D02*
X129003019Y-111869504D01*
X130003019Y-111298076D02*
X129431590Y-111726647D01*
X129003019Y-111298076D02*
X129574447Y-111869504D01*
X119111095Y-109929319D02*
X119111095Y-110738842D01*
X119111095Y-110738842D02*
X119158714Y-110834080D01*
X119158714Y-110834080D02*
X119206333Y-110881700D01*
X119206333Y-110881700D02*
X119301571Y-110929319D01*
X119301571Y-110929319D02*
X119492047Y-110929319D01*
X119492047Y-110929319D02*
X119587285Y-110881700D01*
X119587285Y-110881700D02*
X119634904Y-110834080D01*
X119634904Y-110834080D02*
X119682523Y-110738842D01*
X119682523Y-110738842D02*
X119682523Y-109929319D01*
X120682523Y-110929319D02*
X120111095Y-110929319D01*
X120396809Y-110929319D02*
X120396809Y-109929319D01*
X120396809Y-109929319D02*
X120301571Y-110072176D01*
X120301571Y-110072176D02*
X120206333Y-110167414D01*
X120206333Y-110167414D02*
X120111095Y-110215033D01*
X117324524Y-93022057D02*
X117372143Y-92974438D01*
X117372143Y-92974438D02*
X117467381Y-92926819D01*
X117467381Y-92926819D02*
X117705476Y-92926819D01*
X117705476Y-92926819D02*
X117800714Y-92974438D01*
X117800714Y-92974438D02*
X117848333Y-93022057D01*
X117848333Y-93022057D02*
X117895952Y-93117295D01*
X117895952Y-93117295D02*
X117895952Y-93212533D01*
X117895952Y-93212533D02*
X117848333Y-93355390D01*
X117848333Y-93355390D02*
X117276905Y-93926819D01*
X117276905Y-93926819D02*
X117895952Y-93926819D01*
X118229286Y-92926819D02*
X118895952Y-92926819D01*
X118895952Y-92926819D02*
X118467381Y-93926819D01*
X119848333Y-93831580D02*
X119800714Y-93879200D01*
X119800714Y-93879200D02*
X119657857Y-93926819D01*
X119657857Y-93926819D02*
X119562619Y-93926819D01*
X119562619Y-93926819D02*
X119419762Y-93879200D01*
X119419762Y-93879200D02*
X119324524Y-93783961D01*
X119324524Y-93783961D02*
X119276905Y-93688723D01*
X119276905Y-93688723D02*
X119229286Y-93498247D01*
X119229286Y-93498247D02*
X119229286Y-93355390D01*
X119229286Y-93355390D02*
X119276905Y-93164914D01*
X119276905Y-93164914D02*
X119324524Y-93069676D01*
X119324524Y-93069676D02*
X119419762Y-92974438D01*
X119419762Y-92974438D02*
X119562619Y-92926819D01*
X119562619Y-92926819D02*
X119657857Y-92926819D01*
X119657857Y-92926819D02*
X119800714Y-92974438D01*
X119800714Y-92974438D02*
X119848333Y-93022057D01*
X120753095Y-92926819D02*
X120276905Y-92926819D01*
X120276905Y-92926819D02*
X120229286Y-93403009D01*
X120229286Y-93403009D02*
X120276905Y-93355390D01*
X120276905Y-93355390D02*
X120372143Y-93307771D01*
X120372143Y-93307771D02*
X120610238Y-93307771D01*
X120610238Y-93307771D02*
X120705476Y-93355390D01*
X120705476Y-93355390D02*
X120753095Y-93403009D01*
X120753095Y-93403009D02*
X120800714Y-93498247D01*
X120800714Y-93498247D02*
X120800714Y-93736342D01*
X120800714Y-93736342D02*
X120753095Y-93831580D01*
X120753095Y-93831580D02*
X120705476Y-93879200D01*
X120705476Y-93879200D02*
X120610238Y-93926819D01*
X120610238Y-93926819D02*
X120372143Y-93926819D01*
X120372143Y-93926819D02*
X120276905Y-93879200D01*
X120276905Y-93879200D02*
X120229286Y-93831580D01*
X121753095Y-93926819D02*
X121181667Y-93926819D01*
X121467381Y-93926819D02*
X121467381Y-92926819D01*
X121467381Y-92926819D02*
X121372143Y-93069676D01*
X121372143Y-93069676D02*
X121276905Y-93164914D01*
X121276905Y-93164914D02*
X121181667Y-93212533D01*
X122134048Y-93022057D02*
X122181667Y-92974438D01*
X122181667Y-92974438D02*
X122276905Y-92926819D01*
X122276905Y-92926819D02*
X122515000Y-92926819D01*
X122515000Y-92926819D02*
X122610238Y-92974438D01*
X122610238Y-92974438D02*
X122657857Y-93022057D01*
X122657857Y-93022057D02*
X122705476Y-93117295D01*
X122705476Y-93117295D02*
X122705476Y-93212533D01*
X122705476Y-93212533D02*
X122657857Y-93355390D01*
X122657857Y-93355390D02*
X122086429Y-93926819D01*
X122086429Y-93926819D02*
X122705476Y-93926819D01*
X174968819Y-115864794D02*
X173968819Y-115864794D01*
X173968819Y-115864794D02*
X173968819Y-115626699D01*
X173968819Y-115626699D02*
X174016438Y-115483842D01*
X174016438Y-115483842D02*
X174111676Y-115388604D01*
X174111676Y-115388604D02*
X174206914Y-115340985D01*
X174206914Y-115340985D02*
X174397390Y-115293366D01*
X174397390Y-115293366D02*
X174540247Y-115293366D01*
X174540247Y-115293366D02*
X174730723Y-115340985D01*
X174730723Y-115340985D02*
X174825961Y-115388604D01*
X174825961Y-115388604D02*
X174921200Y-115483842D01*
X174921200Y-115483842D02*
X174968819Y-115626699D01*
X174968819Y-115626699D02*
X174968819Y-115864794D01*
X174064057Y-114912413D02*
X174016438Y-114864794D01*
X174016438Y-114864794D02*
X173968819Y-114769556D01*
X173968819Y-114769556D02*
X173968819Y-114531461D01*
X173968819Y-114531461D02*
X174016438Y-114436223D01*
X174016438Y-114436223D02*
X174064057Y-114388604D01*
X174064057Y-114388604D02*
X174159295Y-114340985D01*
X174159295Y-114340985D02*
X174254533Y-114340985D01*
X174254533Y-114340985D02*
X174397390Y-114388604D01*
X174397390Y-114388604D02*
X174968819Y-114960032D01*
X174968819Y-114960032D02*
X174968819Y-114340985D01*
X170972819Y-115832651D02*
X171972819Y-115594556D01*
X171972819Y-115594556D02*
X171258533Y-115404080D01*
X171258533Y-115404080D02*
X171972819Y-115213604D01*
X171972819Y-115213604D02*
X170972819Y-114975509D01*
X171972819Y-114594556D02*
X170972819Y-114594556D01*
X171449009Y-113785033D02*
X171449009Y-114118366D01*
X171972819Y-114118366D02*
X170972819Y-114118366D01*
X170972819Y-114118366D02*
X170972819Y-113642176D01*
X171972819Y-113261223D02*
X170972819Y-113261223D01*
X172068057Y-113023129D02*
X172068057Y-112261224D01*
X170972819Y-112118366D02*
X171972819Y-111880271D01*
X171972819Y-111880271D02*
X171258533Y-111689795D01*
X171258533Y-111689795D02*
X171972819Y-111499319D01*
X171972819Y-111499319D02*
X170972819Y-111261224D01*
X171972819Y-110880271D02*
X170972819Y-110880271D01*
X171449009Y-110880271D02*
X171449009Y-110308843D01*
X171972819Y-110308843D02*
X170972819Y-110308843D01*
X171972819Y-109832652D02*
X170972819Y-109832652D01*
X170972819Y-109499319D02*
X170972819Y-108927891D01*
X171972819Y-109213605D02*
X170972819Y-109213605D01*
X171449009Y-108594557D02*
X171449009Y-108261224D01*
X171972819Y-108118367D02*
X171972819Y-108594557D01*
X171972819Y-108594557D02*
X170972819Y-108594557D01*
X170972819Y-108594557D02*
X170972819Y-108118367D01*
X179956200Y-112570532D02*
X180003819Y-112427675D01*
X180003819Y-112427675D02*
X180003819Y-112189580D01*
X180003819Y-112189580D02*
X179956200Y-112094342D01*
X179956200Y-112094342D02*
X179908580Y-112046723D01*
X179908580Y-112046723D02*
X179813342Y-111999104D01*
X179813342Y-111999104D02*
X179718104Y-111999104D01*
X179718104Y-111999104D02*
X179622866Y-112046723D01*
X179622866Y-112046723D02*
X179575247Y-112094342D01*
X179575247Y-112094342D02*
X179527628Y-112189580D01*
X179527628Y-112189580D02*
X179480009Y-112380056D01*
X179480009Y-112380056D02*
X179432390Y-112475294D01*
X179432390Y-112475294D02*
X179384771Y-112522913D01*
X179384771Y-112522913D02*
X179289533Y-112570532D01*
X179289533Y-112570532D02*
X179194295Y-112570532D01*
X179194295Y-112570532D02*
X179099057Y-112522913D01*
X179099057Y-112522913D02*
X179051438Y-112475294D01*
X179051438Y-112475294D02*
X179003819Y-112380056D01*
X179003819Y-112380056D02*
X179003819Y-112141961D01*
X179003819Y-112141961D02*
X179051438Y-111999104D01*
X179003819Y-111665770D02*
X180003819Y-111427675D01*
X180003819Y-111427675D02*
X179289533Y-111237199D01*
X179289533Y-111237199D02*
X180003819Y-111046723D01*
X180003819Y-111046723D02*
X179003819Y-110808628D01*
X179099057Y-110475294D02*
X179051438Y-110427675D01*
X179051438Y-110427675D02*
X179003819Y-110332437D01*
X179003819Y-110332437D02*
X179003819Y-110094342D01*
X179003819Y-110094342D02*
X179051438Y-109999104D01*
X179051438Y-109999104D02*
X179099057Y-109951485D01*
X179099057Y-109951485D02*
X179194295Y-109903866D01*
X179194295Y-109903866D02*
X179289533Y-109903866D01*
X179289533Y-109903866D02*
X179432390Y-109951485D01*
X179432390Y-109951485D02*
X180003819Y-110522913D01*
X180003819Y-110522913D02*
X180003819Y-109903866D01*
X176969009Y-113613914D02*
X177016628Y-113471057D01*
X177016628Y-113471057D02*
X177064247Y-113423438D01*
X177064247Y-113423438D02*
X177159485Y-113375819D01*
X177159485Y-113375819D02*
X177302342Y-113375819D01*
X177302342Y-113375819D02*
X177397580Y-113423438D01*
X177397580Y-113423438D02*
X177445200Y-113471057D01*
X177445200Y-113471057D02*
X177492819Y-113566295D01*
X177492819Y-113566295D02*
X177492819Y-113947247D01*
X177492819Y-113947247D02*
X176492819Y-113947247D01*
X176492819Y-113947247D02*
X176492819Y-113613914D01*
X176492819Y-113613914D02*
X176540438Y-113518676D01*
X176540438Y-113518676D02*
X176588057Y-113471057D01*
X176588057Y-113471057D02*
X176683295Y-113423438D01*
X176683295Y-113423438D02*
X176778533Y-113423438D01*
X176778533Y-113423438D02*
X176873771Y-113471057D01*
X176873771Y-113471057D02*
X176921390Y-113518676D01*
X176921390Y-113518676D02*
X176969009Y-113613914D01*
X176969009Y-113613914D02*
X176969009Y-113947247D01*
X176826152Y-112518676D02*
X177492819Y-112518676D01*
X176826152Y-112947247D02*
X177349961Y-112947247D01*
X177349961Y-112947247D02*
X177445200Y-112899628D01*
X177445200Y-112899628D02*
X177492819Y-112804390D01*
X177492819Y-112804390D02*
X177492819Y-112661533D01*
X177492819Y-112661533D02*
X177445200Y-112566295D01*
X177445200Y-112566295D02*
X177397580Y-112518676D01*
X176826152Y-112185342D02*
X176826152Y-111804390D01*
X176492819Y-112042485D02*
X177349961Y-112042485D01*
X177349961Y-112042485D02*
X177445200Y-111994866D01*
X177445200Y-111994866D02*
X177492819Y-111899628D01*
X177492819Y-111899628D02*
X177492819Y-111804390D01*
X176826152Y-111613913D02*
X176826152Y-111232961D01*
X176492819Y-111471056D02*
X177349961Y-111471056D01*
X177349961Y-111471056D02*
X177445200Y-111423437D01*
X177445200Y-111423437D02*
X177492819Y-111328199D01*
X177492819Y-111328199D02*
X177492819Y-111232961D01*
X177492819Y-110756770D02*
X177445200Y-110852008D01*
X177445200Y-110852008D02*
X177397580Y-110899627D01*
X177397580Y-110899627D02*
X177302342Y-110947246D01*
X177302342Y-110947246D02*
X177016628Y-110947246D01*
X177016628Y-110947246D02*
X176921390Y-110899627D01*
X176921390Y-110899627D02*
X176873771Y-110852008D01*
X176873771Y-110852008D02*
X176826152Y-110756770D01*
X176826152Y-110756770D02*
X176826152Y-110613913D01*
X176826152Y-110613913D02*
X176873771Y-110518675D01*
X176873771Y-110518675D02*
X176921390Y-110471056D01*
X176921390Y-110471056D02*
X177016628Y-110423437D01*
X177016628Y-110423437D02*
X177302342Y-110423437D01*
X177302342Y-110423437D02*
X177397580Y-110471056D01*
X177397580Y-110471056D02*
X177445200Y-110518675D01*
X177445200Y-110518675D02*
X177492819Y-110613913D01*
X177492819Y-110613913D02*
X177492819Y-110756770D01*
X176826152Y-109994865D02*
X177492819Y-109994865D01*
X176921390Y-109994865D02*
X176873771Y-109947246D01*
X176873771Y-109947246D02*
X176826152Y-109852008D01*
X176826152Y-109852008D02*
X176826152Y-109709151D01*
X176826152Y-109709151D02*
X176873771Y-109613913D01*
X176873771Y-109613913D02*
X176969009Y-109566294D01*
X176969009Y-109566294D02*
X177492819Y-109566294D01*
X177207104Y-109137722D02*
X177207104Y-108661532D01*
X177492819Y-109232960D02*
X176492819Y-108899627D01*
X176492819Y-108899627D02*
X177492819Y-108566294D01*
X146837819Y-67797833D02*
X147552104Y-67797833D01*
X147552104Y-67797833D02*
X147694961Y-67845452D01*
X147694961Y-67845452D02*
X147790200Y-67940690D01*
X147790200Y-67940690D02*
X147837819Y-68083547D01*
X147837819Y-68083547D02*
X147837819Y-68178785D01*
X147837819Y-66797833D02*
X147837819Y-67369261D01*
X147837819Y-67083547D02*
X146837819Y-67083547D01*
X146837819Y-67083547D02*
X146980676Y-67178785D01*
X146980676Y-67178785D02*
X147075914Y-67274023D01*
X147075914Y-67274023D02*
X147123533Y-67369261D01*
X149638237Y-70638200D02*
X149781094Y-70685819D01*
X149781094Y-70685819D02*
X150019189Y-70685819D01*
X150019189Y-70685819D02*
X150114427Y-70638200D01*
X150114427Y-70638200D02*
X150162046Y-70590580D01*
X150162046Y-70590580D02*
X150209665Y-70495342D01*
X150209665Y-70495342D02*
X150209665Y-70400104D01*
X150209665Y-70400104D02*
X150162046Y-70304866D01*
X150162046Y-70304866D02*
X150114427Y-70257247D01*
X150114427Y-70257247D02*
X150019189Y-70209628D01*
X150019189Y-70209628D02*
X149828713Y-70162009D01*
X149828713Y-70162009D02*
X149733475Y-70114390D01*
X149733475Y-70114390D02*
X149685856Y-70066771D01*
X149685856Y-70066771D02*
X149638237Y-69971533D01*
X149638237Y-69971533D02*
X149638237Y-69876295D01*
X149638237Y-69876295D02*
X149685856Y-69781057D01*
X149685856Y-69781057D02*
X149733475Y-69733438D01*
X149733475Y-69733438D02*
X149828713Y-69685819D01*
X149828713Y-69685819D02*
X150066808Y-69685819D01*
X150066808Y-69685819D02*
X150209665Y-69733438D01*
X151019189Y-70638200D02*
X150923951Y-70685819D01*
X150923951Y-70685819D02*
X150733475Y-70685819D01*
X150733475Y-70685819D02*
X150638237Y-70638200D01*
X150638237Y-70638200D02*
X150590618Y-70542961D01*
X150590618Y-70542961D02*
X150590618Y-70162009D01*
X150590618Y-70162009D02*
X150638237Y-70066771D01*
X150638237Y-70066771D02*
X150733475Y-70019152D01*
X150733475Y-70019152D02*
X150923951Y-70019152D01*
X150923951Y-70019152D02*
X151019189Y-70066771D01*
X151019189Y-70066771D02*
X151066808Y-70162009D01*
X151066808Y-70162009D02*
X151066808Y-70257247D01*
X151066808Y-70257247D02*
X150590618Y-70352485D01*
X151495380Y-70685819D02*
X151495380Y-70019152D01*
X151495380Y-70209628D02*
X151542999Y-70114390D01*
X151542999Y-70114390D02*
X151590618Y-70066771D01*
X151590618Y-70066771D02*
X151685856Y-70019152D01*
X151685856Y-70019152D02*
X151781094Y-70019152D01*
X152114428Y-70685819D02*
X152114428Y-70019152D01*
X152114428Y-69685819D02*
X152066809Y-69733438D01*
X152066809Y-69733438D02*
X152114428Y-69781057D01*
X152114428Y-69781057D02*
X152162047Y-69733438D01*
X152162047Y-69733438D02*
X152114428Y-69685819D01*
X152114428Y-69685819D02*
X152114428Y-69781057D01*
X153019189Y-70685819D02*
X153019189Y-70162009D01*
X153019189Y-70162009D02*
X152971570Y-70066771D01*
X152971570Y-70066771D02*
X152876332Y-70019152D01*
X152876332Y-70019152D02*
X152685856Y-70019152D01*
X152685856Y-70019152D02*
X152590618Y-70066771D01*
X153019189Y-70638200D02*
X152923951Y-70685819D01*
X152923951Y-70685819D02*
X152685856Y-70685819D01*
X152685856Y-70685819D02*
X152590618Y-70638200D01*
X152590618Y-70638200D02*
X152542999Y-70542961D01*
X152542999Y-70542961D02*
X152542999Y-70447723D01*
X152542999Y-70447723D02*
X152590618Y-70352485D01*
X152590618Y-70352485D02*
X152685856Y-70304866D01*
X152685856Y-70304866D02*
X152923951Y-70304866D01*
X152923951Y-70304866D02*
X153019189Y-70257247D01*
X153638237Y-70685819D02*
X153542999Y-70638200D01*
X153542999Y-70638200D02*
X153495380Y-70542961D01*
X153495380Y-70542961D02*
X153495380Y-69685819D01*
X154781095Y-70685819D02*
X154781095Y-69685819D01*
X154781095Y-69685819D02*
X155162047Y-69685819D01*
X155162047Y-69685819D02*
X155257285Y-69733438D01*
X155257285Y-69733438D02*
X155304904Y-69781057D01*
X155304904Y-69781057D02*
X155352523Y-69876295D01*
X155352523Y-69876295D02*
X155352523Y-70019152D01*
X155352523Y-70019152D02*
X155304904Y-70114390D01*
X155304904Y-70114390D02*
X155257285Y-70162009D01*
X155257285Y-70162009D02*
X155162047Y-70209628D01*
X155162047Y-70209628D02*
X154781095Y-70209628D01*
X155923952Y-70685819D02*
X155828714Y-70638200D01*
X155828714Y-70638200D02*
X155781095Y-70590580D01*
X155781095Y-70590580D02*
X155733476Y-70495342D01*
X155733476Y-70495342D02*
X155733476Y-70209628D01*
X155733476Y-70209628D02*
X155781095Y-70114390D01*
X155781095Y-70114390D02*
X155828714Y-70066771D01*
X155828714Y-70066771D02*
X155923952Y-70019152D01*
X155923952Y-70019152D02*
X156066809Y-70019152D01*
X156066809Y-70019152D02*
X156162047Y-70066771D01*
X156162047Y-70066771D02*
X156209666Y-70114390D01*
X156209666Y-70114390D02*
X156257285Y-70209628D01*
X156257285Y-70209628D02*
X156257285Y-70495342D01*
X156257285Y-70495342D02*
X156209666Y-70590580D01*
X156209666Y-70590580D02*
X156162047Y-70638200D01*
X156162047Y-70638200D02*
X156066809Y-70685819D01*
X156066809Y-70685819D02*
X155923952Y-70685819D01*
X156685857Y-70685819D02*
X156685857Y-70019152D01*
X156685857Y-70209628D02*
X156733476Y-70114390D01*
X156733476Y-70114390D02*
X156781095Y-70066771D01*
X156781095Y-70066771D02*
X156876333Y-70019152D01*
X156876333Y-70019152D02*
X156971571Y-70019152D01*
X157162048Y-70019152D02*
X157543000Y-70019152D01*
X157304905Y-69685819D02*
X157304905Y-70542961D01*
X157304905Y-70542961D02*
X157352524Y-70638200D01*
X157352524Y-70638200D02*
X157447762Y-70685819D01*
X157447762Y-70685819D02*
X157543000Y-70685819D01*
X174952819Y-65508094D02*
X173952819Y-65508094D01*
X173952819Y-65508094D02*
X173952819Y-65269999D01*
X173952819Y-65269999D02*
X174000438Y-65127142D01*
X174000438Y-65127142D02*
X174095676Y-65031904D01*
X174095676Y-65031904D02*
X174190914Y-64984285D01*
X174190914Y-64984285D02*
X174381390Y-64936666D01*
X174381390Y-64936666D02*
X174524247Y-64936666D01*
X174524247Y-64936666D02*
X174714723Y-64984285D01*
X174714723Y-64984285D02*
X174809961Y-65031904D01*
X174809961Y-65031904D02*
X174905200Y-65127142D01*
X174905200Y-65127142D02*
X174952819Y-65269999D01*
X174952819Y-65269999D02*
X174952819Y-65508094D01*
X173952819Y-64603332D02*
X173952819Y-63984285D01*
X173952819Y-63984285D02*
X174333771Y-64317618D01*
X174333771Y-64317618D02*
X174333771Y-64174761D01*
X174333771Y-64174761D02*
X174381390Y-64079523D01*
X174381390Y-64079523D02*
X174429009Y-64031904D01*
X174429009Y-64031904D02*
X174524247Y-63984285D01*
X174524247Y-63984285D02*
X174762342Y-63984285D01*
X174762342Y-63984285D02*
X174857580Y-64031904D01*
X174857580Y-64031904D02*
X174905200Y-64079523D01*
X174905200Y-64079523D02*
X174952819Y-64174761D01*
X174952819Y-64174761D02*
X174952819Y-64460475D01*
X174952819Y-64460475D02*
X174905200Y-64555713D01*
X174905200Y-64555713D02*
X174857580Y-64603332D01*
X171449009Y-71131095D02*
X171496628Y-70988238D01*
X171496628Y-70988238D02*
X171544247Y-70940619D01*
X171544247Y-70940619D02*
X171639485Y-70893000D01*
X171639485Y-70893000D02*
X171782342Y-70893000D01*
X171782342Y-70893000D02*
X171877580Y-70940619D01*
X171877580Y-70940619D02*
X171925200Y-70988238D01*
X171925200Y-70988238D02*
X171972819Y-71083476D01*
X171972819Y-71083476D02*
X171972819Y-71464428D01*
X171972819Y-71464428D02*
X170972819Y-71464428D01*
X170972819Y-71464428D02*
X170972819Y-71131095D01*
X170972819Y-71131095D02*
X171020438Y-71035857D01*
X171020438Y-71035857D02*
X171068057Y-70988238D01*
X171068057Y-70988238D02*
X171163295Y-70940619D01*
X171163295Y-70940619D02*
X171258533Y-70940619D01*
X171258533Y-70940619D02*
X171353771Y-70988238D01*
X171353771Y-70988238D02*
X171401390Y-71035857D01*
X171401390Y-71035857D02*
X171449009Y-71131095D01*
X171449009Y-71131095D02*
X171449009Y-71464428D01*
X170972819Y-70464428D02*
X171782342Y-70464428D01*
X171782342Y-70464428D02*
X171877580Y-70416809D01*
X171877580Y-70416809D02*
X171925200Y-70369190D01*
X171925200Y-70369190D02*
X171972819Y-70273952D01*
X171972819Y-70273952D02*
X171972819Y-70083476D01*
X171972819Y-70083476D02*
X171925200Y-69988238D01*
X171925200Y-69988238D02*
X171877580Y-69940619D01*
X171877580Y-69940619D02*
X171782342Y-69893000D01*
X171782342Y-69893000D02*
X170972819Y-69893000D01*
X171925200Y-69464428D02*
X171972819Y-69321571D01*
X171972819Y-69321571D02*
X171972819Y-69083476D01*
X171972819Y-69083476D02*
X171925200Y-68988238D01*
X171925200Y-68988238D02*
X171877580Y-68940619D01*
X171877580Y-68940619D02*
X171782342Y-68893000D01*
X171782342Y-68893000D02*
X171687104Y-68893000D01*
X171687104Y-68893000D02*
X171591866Y-68940619D01*
X171591866Y-68940619D02*
X171544247Y-68988238D01*
X171544247Y-68988238D02*
X171496628Y-69083476D01*
X171496628Y-69083476D02*
X171449009Y-69273952D01*
X171449009Y-69273952D02*
X171401390Y-69369190D01*
X171401390Y-69369190D02*
X171353771Y-69416809D01*
X171353771Y-69416809D02*
X171258533Y-69464428D01*
X171258533Y-69464428D02*
X171163295Y-69464428D01*
X171163295Y-69464428D02*
X171068057Y-69416809D01*
X171068057Y-69416809D02*
X171020438Y-69369190D01*
X171020438Y-69369190D02*
X170972819Y-69273952D01*
X170972819Y-69273952D02*
X170972819Y-69035857D01*
X170972819Y-69035857D02*
X171020438Y-68893000D01*
X172068057Y-68702524D02*
X172068057Y-67940619D01*
X170972819Y-67512047D02*
X170972819Y-67321571D01*
X170972819Y-67321571D02*
X171020438Y-67226333D01*
X171020438Y-67226333D02*
X171115676Y-67131095D01*
X171115676Y-67131095D02*
X171306152Y-67083476D01*
X171306152Y-67083476D02*
X171639485Y-67083476D01*
X171639485Y-67083476D02*
X171829961Y-67131095D01*
X171829961Y-67131095D02*
X171925200Y-67226333D01*
X171925200Y-67226333D02*
X171972819Y-67321571D01*
X171972819Y-67321571D02*
X171972819Y-67512047D01*
X171972819Y-67512047D02*
X171925200Y-67607285D01*
X171925200Y-67607285D02*
X171829961Y-67702523D01*
X171829961Y-67702523D02*
X171639485Y-67750142D01*
X171639485Y-67750142D02*
X171306152Y-67750142D01*
X171306152Y-67750142D02*
X171115676Y-67702523D01*
X171115676Y-67702523D02*
X171020438Y-67607285D01*
X171020438Y-67607285D02*
X170972819Y-67512047D01*
X171972819Y-66083476D02*
X171496628Y-66416809D01*
X171972819Y-66654904D02*
X170972819Y-66654904D01*
X170972819Y-66654904D02*
X170972819Y-66273952D01*
X170972819Y-66273952D02*
X171020438Y-66178714D01*
X171020438Y-66178714D02*
X171068057Y-66131095D01*
X171068057Y-66131095D02*
X171163295Y-66083476D01*
X171163295Y-66083476D02*
X171306152Y-66083476D01*
X171306152Y-66083476D02*
X171401390Y-66131095D01*
X171401390Y-66131095D02*
X171449009Y-66178714D01*
X171449009Y-66178714D02*
X171496628Y-66273952D01*
X171496628Y-66273952D02*
X171496628Y-66654904D01*
X171687104Y-65702523D02*
X171687104Y-65226333D01*
X171972819Y-65797761D02*
X170972819Y-65464428D01*
X170972819Y-65464428D02*
X171972819Y-65131095D01*
X171972819Y-64797761D02*
X170972819Y-64797761D01*
X170972819Y-64797761D02*
X171972819Y-64226333D01*
X171972819Y-64226333D02*
X170972819Y-64226333D01*
X171020438Y-63226333D02*
X170972819Y-63321571D01*
X170972819Y-63321571D02*
X170972819Y-63464428D01*
X170972819Y-63464428D02*
X171020438Y-63607285D01*
X171020438Y-63607285D02*
X171115676Y-63702523D01*
X171115676Y-63702523D02*
X171210914Y-63750142D01*
X171210914Y-63750142D02*
X171401390Y-63797761D01*
X171401390Y-63797761D02*
X171544247Y-63797761D01*
X171544247Y-63797761D02*
X171734723Y-63750142D01*
X171734723Y-63750142D02*
X171829961Y-63702523D01*
X171829961Y-63702523D02*
X171925200Y-63607285D01*
X171925200Y-63607285D02*
X171972819Y-63464428D01*
X171972819Y-63464428D02*
X171972819Y-63369190D01*
X171972819Y-63369190D02*
X171925200Y-63226333D01*
X171925200Y-63226333D02*
X171877580Y-63178714D01*
X171877580Y-63178714D02*
X171544247Y-63178714D01*
X171544247Y-63178714D02*
X171544247Y-63369190D01*
X171449009Y-62750142D02*
X171449009Y-62416809D01*
X171972819Y-62273952D02*
X171972819Y-62750142D01*
X171972819Y-62750142D02*
X170972819Y-62750142D01*
X170972819Y-62750142D02*
X170972819Y-62273952D01*
X146393819Y-90296904D02*
X147203342Y-90296904D01*
X147203342Y-90296904D02*
X147298580Y-90249285D01*
X147298580Y-90249285D02*
X147346200Y-90201666D01*
X147346200Y-90201666D02*
X147393819Y-90106428D01*
X147393819Y-90106428D02*
X147393819Y-89915952D01*
X147393819Y-89915952D02*
X147346200Y-89820714D01*
X147346200Y-89820714D02*
X147298580Y-89773095D01*
X147298580Y-89773095D02*
X147203342Y-89725476D01*
X147203342Y-89725476D02*
X146393819Y-89725476D01*
X146489057Y-89296904D02*
X146441438Y-89249285D01*
X146441438Y-89249285D02*
X146393819Y-89154047D01*
X146393819Y-89154047D02*
X146393819Y-88915952D01*
X146393819Y-88915952D02*
X146441438Y-88820714D01*
X146441438Y-88820714D02*
X146489057Y-88773095D01*
X146489057Y-88773095D02*
X146584295Y-88725476D01*
X146584295Y-88725476D02*
X146679533Y-88725476D01*
X146679533Y-88725476D02*
X146822390Y-88773095D01*
X146822390Y-88773095D02*
X147393819Y-89344523D01*
X147393819Y-89344523D02*
X147393819Y-88725476D01*
X148648009Y-96630237D02*
X148648009Y-96296904D01*
X149171819Y-96154047D02*
X149171819Y-96630237D01*
X149171819Y-96630237D02*
X148171819Y-96630237D01*
X148171819Y-96630237D02*
X148171819Y-96154047D01*
X149124200Y-95773094D02*
X149171819Y-95630237D01*
X149171819Y-95630237D02*
X149171819Y-95392142D01*
X149171819Y-95392142D02*
X149124200Y-95296904D01*
X149124200Y-95296904D02*
X149076580Y-95249285D01*
X149076580Y-95249285D02*
X148981342Y-95201666D01*
X148981342Y-95201666D02*
X148886104Y-95201666D01*
X148886104Y-95201666D02*
X148790866Y-95249285D01*
X148790866Y-95249285D02*
X148743247Y-95296904D01*
X148743247Y-95296904D02*
X148695628Y-95392142D01*
X148695628Y-95392142D02*
X148648009Y-95582618D01*
X148648009Y-95582618D02*
X148600390Y-95677856D01*
X148600390Y-95677856D02*
X148552771Y-95725475D01*
X148552771Y-95725475D02*
X148457533Y-95773094D01*
X148457533Y-95773094D02*
X148362295Y-95773094D01*
X148362295Y-95773094D02*
X148267057Y-95725475D01*
X148267057Y-95725475D02*
X148219438Y-95677856D01*
X148219438Y-95677856D02*
X148171819Y-95582618D01*
X148171819Y-95582618D02*
X148171819Y-95344523D01*
X148171819Y-95344523D02*
X148219438Y-95201666D01*
X149171819Y-94773094D02*
X148171819Y-94773094D01*
X148171819Y-94773094D02*
X148171819Y-94392142D01*
X148171819Y-94392142D02*
X148219438Y-94296904D01*
X148219438Y-94296904D02*
X148267057Y-94249285D01*
X148267057Y-94249285D02*
X148362295Y-94201666D01*
X148362295Y-94201666D02*
X148505152Y-94201666D01*
X148505152Y-94201666D02*
X148600390Y-94249285D01*
X148600390Y-94249285D02*
X148648009Y-94296904D01*
X148648009Y-94296904D02*
X148695628Y-94392142D01*
X148695628Y-94392142D02*
X148695628Y-94773094D01*
X148171819Y-93868332D02*
X148171819Y-93249285D01*
X148171819Y-93249285D02*
X148552771Y-93582618D01*
X148552771Y-93582618D02*
X148552771Y-93439761D01*
X148552771Y-93439761D02*
X148600390Y-93344523D01*
X148600390Y-93344523D02*
X148648009Y-93296904D01*
X148648009Y-93296904D02*
X148743247Y-93249285D01*
X148743247Y-93249285D02*
X148981342Y-93249285D01*
X148981342Y-93249285D02*
X149076580Y-93296904D01*
X149076580Y-93296904D02*
X149124200Y-93344523D01*
X149124200Y-93344523D02*
X149171819Y-93439761D01*
X149171819Y-93439761D02*
X149171819Y-93725475D01*
X149171819Y-93725475D02*
X149124200Y-93820713D01*
X149124200Y-93820713D02*
X149076580Y-93868332D01*
X148267057Y-92868332D02*
X148219438Y-92820713D01*
X148219438Y-92820713D02*
X148171819Y-92725475D01*
X148171819Y-92725475D02*
X148171819Y-92487380D01*
X148171819Y-92487380D02*
X148219438Y-92392142D01*
X148219438Y-92392142D02*
X148267057Y-92344523D01*
X148267057Y-92344523D02*
X148362295Y-92296904D01*
X148362295Y-92296904D02*
X148457533Y-92296904D01*
X148457533Y-92296904D02*
X148600390Y-92344523D01*
X148600390Y-92344523D02*
X149171819Y-92915951D01*
X149171819Y-92915951D02*
X149171819Y-92296904D01*
X148790866Y-91868332D02*
X148790866Y-91106428D01*
X149171819Y-90630237D02*
X148171819Y-90630237D01*
X148171819Y-90630237D02*
X148171819Y-90392142D01*
X148171819Y-90392142D02*
X148219438Y-90249285D01*
X148219438Y-90249285D02*
X148314676Y-90154047D01*
X148314676Y-90154047D02*
X148409914Y-90106428D01*
X148409914Y-90106428D02*
X148600390Y-90058809D01*
X148600390Y-90058809D02*
X148743247Y-90058809D01*
X148743247Y-90058809D02*
X148933723Y-90106428D01*
X148933723Y-90106428D02*
X149028961Y-90154047D01*
X149028961Y-90154047D02*
X149124200Y-90249285D01*
X149124200Y-90249285D02*
X149171819Y-90392142D01*
X149171819Y-90392142D02*
X149171819Y-90630237D01*
X149124200Y-89249285D02*
X149171819Y-89344523D01*
X149171819Y-89344523D02*
X149171819Y-89534999D01*
X149171819Y-89534999D02*
X149124200Y-89630237D01*
X149124200Y-89630237D02*
X149028961Y-89677856D01*
X149028961Y-89677856D02*
X148648009Y-89677856D01*
X148648009Y-89677856D02*
X148552771Y-89630237D01*
X148552771Y-89630237D02*
X148505152Y-89534999D01*
X148505152Y-89534999D02*
X148505152Y-89344523D01*
X148505152Y-89344523D02*
X148552771Y-89249285D01*
X148552771Y-89249285D02*
X148648009Y-89201666D01*
X148648009Y-89201666D02*
X148743247Y-89201666D01*
X148743247Y-89201666D02*
X148838485Y-89677856D01*
X148505152Y-88868332D02*
X149171819Y-88630237D01*
X149171819Y-88630237D02*
X148505152Y-88392142D01*
X149171819Y-88011189D02*
X148171819Y-88011189D01*
X149171819Y-87439761D02*
X148600390Y-87868332D01*
X148171819Y-87439761D02*
X148743247Y-88011189D01*
X149171819Y-87011189D02*
X148505152Y-87011189D01*
X148171819Y-87011189D02*
X148219438Y-87058808D01*
X148219438Y-87058808D02*
X148267057Y-87011189D01*
X148267057Y-87011189D02*
X148219438Y-86963570D01*
X148219438Y-86963570D02*
X148171819Y-87011189D01*
X148171819Y-87011189D02*
X148267057Y-87011189D01*
X148505152Y-86677856D02*
X148505152Y-86296904D01*
X148171819Y-86534999D02*
X149028961Y-86534999D01*
X149028961Y-86534999D02*
X149124200Y-86487380D01*
X149124200Y-86487380D02*
X149171819Y-86392142D01*
X149171819Y-86392142D02*
X149171819Y-86296904D01*
X149076580Y-85392142D02*
X149124200Y-85439761D01*
X149124200Y-85439761D02*
X149171819Y-85582618D01*
X149171819Y-85582618D02*
X149171819Y-85677856D01*
X149171819Y-85677856D02*
X149124200Y-85820713D01*
X149124200Y-85820713D02*
X149028961Y-85915951D01*
X149028961Y-85915951D02*
X148933723Y-85963570D01*
X148933723Y-85963570D02*
X148743247Y-86011189D01*
X148743247Y-86011189D02*
X148600390Y-86011189D01*
X148600390Y-86011189D02*
X148409914Y-85963570D01*
X148409914Y-85963570D02*
X148314676Y-85915951D01*
X148314676Y-85915951D02*
X148219438Y-85820713D01*
X148219438Y-85820713D02*
X148171819Y-85677856D01*
X148171819Y-85677856D02*
X148171819Y-85582618D01*
X148171819Y-85582618D02*
X148219438Y-85439761D01*
X148219438Y-85439761D02*
X148267057Y-85392142D01*
X148790866Y-84963570D02*
X148790866Y-84201666D01*
X148171819Y-83868332D02*
X149171819Y-83534999D01*
X149171819Y-83534999D02*
X148171819Y-83201666D01*
X148648009Y-82868332D02*
X148648009Y-82534999D01*
X149171819Y-82392142D02*
X149171819Y-82868332D01*
X149171819Y-82868332D02*
X148171819Y-82868332D01*
X148171819Y-82868332D02*
X148171819Y-82392142D01*
X164044333Y-106626819D02*
X163711000Y-106150628D01*
X163472905Y-106626819D02*
X163472905Y-105626819D01*
X163472905Y-105626819D02*
X163853857Y-105626819D01*
X163853857Y-105626819D02*
X163949095Y-105674438D01*
X163949095Y-105674438D02*
X163996714Y-105722057D01*
X163996714Y-105722057D02*
X164044333Y-105817295D01*
X164044333Y-105817295D02*
X164044333Y-105960152D01*
X164044333Y-105960152D02*
X163996714Y-106055390D01*
X163996714Y-106055390D02*
X163949095Y-106103009D01*
X163949095Y-106103009D02*
X163853857Y-106150628D01*
X163853857Y-106150628D02*
X163472905Y-106150628D01*
X164377667Y-105626819D02*
X164996714Y-105626819D01*
X164996714Y-105626819D02*
X164663381Y-106007771D01*
X164663381Y-106007771D02*
X164806238Y-106007771D01*
X164806238Y-106007771D02*
X164901476Y-106055390D01*
X164901476Y-106055390D02*
X164949095Y-106103009D01*
X164949095Y-106103009D02*
X164996714Y-106198247D01*
X164996714Y-106198247D02*
X164996714Y-106436342D01*
X164996714Y-106436342D02*
X164949095Y-106531580D01*
X164949095Y-106531580D02*
X164901476Y-106579200D01*
X164901476Y-106579200D02*
X164806238Y-106626819D01*
X164806238Y-106626819D02*
X164520524Y-106626819D01*
X164520524Y-106626819D02*
X164425286Y-106579200D01*
X164425286Y-106579200D02*
X164377667Y-106531580D01*
X170219714Y-106626819D02*
X169648286Y-106626819D01*
X169934000Y-106626819D02*
X169934000Y-105626819D01*
X169934000Y-105626819D02*
X169838762Y-105769676D01*
X169838762Y-105769676D02*
X169743524Y-105864914D01*
X169743524Y-105864914D02*
X169648286Y-105912533D01*
X170648286Y-106626819D02*
X170648286Y-105626819D01*
X171219714Y-106626819D02*
X170791143Y-106055390D01*
X171219714Y-105626819D02*
X170648286Y-106198247D01*
X133163333Y-63904580D02*
X133115714Y-63952200D01*
X133115714Y-63952200D02*
X132972857Y-63999819D01*
X132972857Y-63999819D02*
X132877619Y-63999819D01*
X132877619Y-63999819D02*
X132734762Y-63952200D01*
X132734762Y-63952200D02*
X132639524Y-63856961D01*
X132639524Y-63856961D02*
X132591905Y-63761723D01*
X132591905Y-63761723D02*
X132544286Y-63571247D01*
X132544286Y-63571247D02*
X132544286Y-63428390D01*
X132544286Y-63428390D02*
X132591905Y-63237914D01*
X132591905Y-63237914D02*
X132639524Y-63142676D01*
X132639524Y-63142676D02*
X132734762Y-63047438D01*
X132734762Y-63047438D02*
X132877619Y-62999819D01*
X132877619Y-62999819D02*
X132972857Y-62999819D01*
X132972857Y-62999819D02*
X133115714Y-63047438D01*
X133115714Y-63047438D02*
X133163333Y-63095057D01*
X133544286Y-63095057D02*
X133591905Y-63047438D01*
X133591905Y-63047438D02*
X133687143Y-62999819D01*
X133687143Y-62999819D02*
X133925238Y-62999819D01*
X133925238Y-62999819D02*
X134020476Y-63047438D01*
X134020476Y-63047438D02*
X134068095Y-63095057D01*
X134068095Y-63095057D02*
X134115714Y-63190295D01*
X134115714Y-63190295D02*
X134115714Y-63285533D01*
X134115714Y-63285533D02*
X134068095Y-63428390D01*
X134068095Y-63428390D02*
X133496667Y-63999819D01*
X133496667Y-63999819D02*
X134115714Y-63999819D01*
X130020475Y-72799819D02*
X129449047Y-72799819D01*
X129734761Y-72799819D02*
X129734761Y-71799819D01*
X129734761Y-71799819D02*
X129639523Y-71942676D01*
X129639523Y-71942676D02*
X129544285Y-72037914D01*
X129544285Y-72037914D02*
X129449047Y-72085533D01*
X130639523Y-71799819D02*
X130734761Y-71799819D01*
X130734761Y-71799819D02*
X130829999Y-71847438D01*
X130829999Y-71847438D02*
X130877618Y-71895057D01*
X130877618Y-71895057D02*
X130925237Y-71990295D01*
X130925237Y-71990295D02*
X130972856Y-72180771D01*
X130972856Y-72180771D02*
X130972856Y-72418866D01*
X130972856Y-72418866D02*
X130925237Y-72609342D01*
X130925237Y-72609342D02*
X130877618Y-72704580D01*
X130877618Y-72704580D02*
X130829999Y-72752200D01*
X130829999Y-72752200D02*
X130734761Y-72799819D01*
X130734761Y-72799819D02*
X130639523Y-72799819D01*
X130639523Y-72799819D02*
X130544285Y-72752200D01*
X130544285Y-72752200D02*
X130496666Y-72704580D01*
X130496666Y-72704580D02*
X130449047Y-72609342D01*
X130449047Y-72609342D02*
X130401428Y-72418866D01*
X130401428Y-72418866D02*
X130401428Y-72180771D01*
X130401428Y-72180771D02*
X130449047Y-71990295D01*
X130449047Y-71990295D02*
X130496666Y-71895057D01*
X130496666Y-71895057D02*
X130544285Y-71847438D01*
X130544285Y-71847438D02*
X130639523Y-71799819D01*
X131591904Y-71799819D02*
X131687142Y-71799819D01*
X131687142Y-71799819D02*
X131782380Y-71847438D01*
X131782380Y-71847438D02*
X131829999Y-71895057D01*
X131829999Y-71895057D02*
X131877618Y-71990295D01*
X131877618Y-71990295D02*
X131925237Y-72180771D01*
X131925237Y-72180771D02*
X131925237Y-72418866D01*
X131925237Y-72418866D02*
X131877618Y-72609342D01*
X131877618Y-72609342D02*
X131829999Y-72704580D01*
X131829999Y-72704580D02*
X131782380Y-72752200D01*
X131782380Y-72752200D02*
X131687142Y-72799819D01*
X131687142Y-72799819D02*
X131591904Y-72799819D01*
X131591904Y-72799819D02*
X131496666Y-72752200D01*
X131496666Y-72752200D02*
X131449047Y-72704580D01*
X131449047Y-72704580D02*
X131401428Y-72609342D01*
X131401428Y-72609342D02*
X131353809Y-72418866D01*
X131353809Y-72418866D02*
X131353809Y-72180771D01*
X131353809Y-72180771D02*
X131401428Y-71990295D01*
X131401428Y-71990295D02*
X131449047Y-71895057D01*
X131449047Y-71895057D02*
X131496666Y-71847438D01*
X131496666Y-71847438D02*
X131591904Y-71799819D01*
X132782380Y-72133152D02*
X132782380Y-72799819D01*
X132353809Y-72133152D02*
X132353809Y-72656961D01*
X132353809Y-72656961D02*
X132401428Y-72752200D01*
X132401428Y-72752200D02*
X132496666Y-72799819D01*
X132496666Y-72799819D02*
X132639523Y-72799819D01*
X132639523Y-72799819D02*
X132734761Y-72752200D01*
X132734761Y-72752200D02*
X132782380Y-72704580D01*
X133591904Y-72276009D02*
X133258571Y-72276009D01*
X133258571Y-72799819D02*
X133258571Y-71799819D01*
X133258571Y-71799819D02*
X133734761Y-71799819D01*
X135401428Y-72799819D02*
X134830000Y-72799819D01*
X135115714Y-72799819D02*
X135115714Y-71799819D01*
X135115714Y-71799819D02*
X135020476Y-71942676D01*
X135020476Y-71942676D02*
X134925238Y-72037914D01*
X134925238Y-72037914D02*
X134830000Y-72085533D01*
X136020476Y-71799819D02*
X136115714Y-71799819D01*
X136115714Y-71799819D02*
X136210952Y-71847438D01*
X136210952Y-71847438D02*
X136258571Y-71895057D01*
X136258571Y-71895057D02*
X136306190Y-71990295D01*
X136306190Y-71990295D02*
X136353809Y-72180771D01*
X136353809Y-72180771D02*
X136353809Y-72418866D01*
X136353809Y-72418866D02*
X136306190Y-72609342D01*
X136306190Y-72609342D02*
X136258571Y-72704580D01*
X136258571Y-72704580D02*
X136210952Y-72752200D01*
X136210952Y-72752200D02*
X136115714Y-72799819D01*
X136115714Y-72799819D02*
X136020476Y-72799819D01*
X136020476Y-72799819D02*
X135925238Y-72752200D01*
X135925238Y-72752200D02*
X135877619Y-72704580D01*
X135877619Y-72704580D02*
X135830000Y-72609342D01*
X135830000Y-72609342D02*
X135782381Y-72418866D01*
X135782381Y-72418866D02*
X135782381Y-72180771D01*
X135782381Y-72180771D02*
X135830000Y-71990295D01*
X135830000Y-71990295D02*
X135877619Y-71895057D01*
X135877619Y-71895057D02*
X135925238Y-71847438D01*
X135925238Y-71847438D02*
X136020476Y-71799819D01*
X136639524Y-71799819D02*
X136972857Y-72799819D01*
X136972857Y-72799819D02*
X137306190Y-71799819D01*
X161504333Y-91164580D02*
X161456714Y-91212200D01*
X161456714Y-91212200D02*
X161313857Y-91259819D01*
X161313857Y-91259819D02*
X161218619Y-91259819D01*
X161218619Y-91259819D02*
X161075762Y-91212200D01*
X161075762Y-91212200D02*
X160980524Y-91116961D01*
X160980524Y-91116961D02*
X160932905Y-91021723D01*
X160932905Y-91021723D02*
X160885286Y-90831247D01*
X160885286Y-90831247D02*
X160885286Y-90688390D01*
X160885286Y-90688390D02*
X160932905Y-90497914D01*
X160932905Y-90497914D02*
X160980524Y-90402676D01*
X160980524Y-90402676D02*
X161075762Y-90307438D01*
X161075762Y-90307438D02*
X161218619Y-90259819D01*
X161218619Y-90259819D02*
X161313857Y-90259819D01*
X161313857Y-90259819D02*
X161456714Y-90307438D01*
X161456714Y-90307438D02*
X161504333Y-90355057D01*
X161837667Y-90259819D02*
X162456714Y-90259819D01*
X162456714Y-90259819D02*
X162123381Y-90640771D01*
X162123381Y-90640771D02*
X162266238Y-90640771D01*
X162266238Y-90640771D02*
X162361476Y-90688390D01*
X162361476Y-90688390D02*
X162409095Y-90736009D01*
X162409095Y-90736009D02*
X162456714Y-90831247D01*
X162456714Y-90831247D02*
X162456714Y-91069342D01*
X162456714Y-91069342D02*
X162409095Y-91164580D01*
X162409095Y-91164580D02*
X162361476Y-91212200D01*
X162361476Y-91212200D02*
X162266238Y-91259819D01*
X162266238Y-91259819D02*
X161980524Y-91259819D01*
X161980524Y-91259819D02*
X161885286Y-91212200D01*
X161885286Y-91212200D02*
X161837667Y-91164580D01*
X164552333Y-73860819D02*
X164219000Y-73384628D01*
X163980905Y-73860819D02*
X163980905Y-72860819D01*
X163980905Y-72860819D02*
X164361857Y-72860819D01*
X164361857Y-72860819D02*
X164457095Y-72908438D01*
X164457095Y-72908438D02*
X164504714Y-72956057D01*
X164504714Y-72956057D02*
X164552333Y-73051295D01*
X164552333Y-73051295D02*
X164552333Y-73194152D01*
X164552333Y-73194152D02*
X164504714Y-73289390D01*
X164504714Y-73289390D02*
X164457095Y-73337009D01*
X164457095Y-73337009D02*
X164361857Y-73384628D01*
X164361857Y-73384628D02*
X163980905Y-73384628D01*
X165409476Y-73194152D02*
X165409476Y-73860819D01*
X165171381Y-72813200D02*
X164933286Y-73527485D01*
X164933286Y-73527485D02*
X165552333Y-73527485D01*
X170473714Y-73860819D02*
X169902286Y-73860819D01*
X170188000Y-73860819D02*
X170188000Y-72860819D01*
X170188000Y-72860819D02*
X170092762Y-73003676D01*
X170092762Y-73003676D02*
X169997524Y-73098914D01*
X169997524Y-73098914D02*
X169902286Y-73146533D01*
X170902286Y-73860819D02*
X170902286Y-72860819D01*
X171473714Y-73860819D02*
X171045143Y-73289390D01*
X171473714Y-72860819D02*
X170902286Y-73432247D01*
X179956200Y-69797832D02*
X180003819Y-69654975D01*
X180003819Y-69654975D02*
X180003819Y-69416880D01*
X180003819Y-69416880D02*
X179956200Y-69321642D01*
X179956200Y-69321642D02*
X179908580Y-69274023D01*
X179908580Y-69274023D02*
X179813342Y-69226404D01*
X179813342Y-69226404D02*
X179718104Y-69226404D01*
X179718104Y-69226404D02*
X179622866Y-69274023D01*
X179622866Y-69274023D02*
X179575247Y-69321642D01*
X179575247Y-69321642D02*
X179527628Y-69416880D01*
X179527628Y-69416880D02*
X179480009Y-69607356D01*
X179480009Y-69607356D02*
X179432390Y-69702594D01*
X179432390Y-69702594D02*
X179384771Y-69750213D01*
X179384771Y-69750213D02*
X179289533Y-69797832D01*
X179289533Y-69797832D02*
X179194295Y-69797832D01*
X179194295Y-69797832D02*
X179099057Y-69750213D01*
X179099057Y-69750213D02*
X179051438Y-69702594D01*
X179051438Y-69702594D02*
X179003819Y-69607356D01*
X179003819Y-69607356D02*
X179003819Y-69369261D01*
X179003819Y-69369261D02*
X179051438Y-69226404D01*
X179003819Y-68893070D02*
X180003819Y-68654975D01*
X180003819Y-68654975D02*
X179289533Y-68464499D01*
X179289533Y-68464499D02*
X180003819Y-68274023D01*
X180003819Y-68274023D02*
X179003819Y-68035928D01*
X179003819Y-67750213D02*
X179003819Y-67131166D01*
X179003819Y-67131166D02*
X179384771Y-67464499D01*
X179384771Y-67464499D02*
X179384771Y-67321642D01*
X179384771Y-67321642D02*
X179432390Y-67226404D01*
X179432390Y-67226404D02*
X179480009Y-67178785D01*
X179480009Y-67178785D02*
X179575247Y-67131166D01*
X179575247Y-67131166D02*
X179813342Y-67131166D01*
X179813342Y-67131166D02*
X179908580Y-67178785D01*
X179908580Y-67178785D02*
X179956200Y-67226404D01*
X179956200Y-67226404D02*
X180003819Y-67321642D01*
X180003819Y-67321642D02*
X180003819Y-67607356D01*
X180003819Y-67607356D02*
X179956200Y-67702594D01*
X179956200Y-67702594D02*
X179908580Y-67750213D01*
X177318200Y-72460952D02*
X177365819Y-72318095D01*
X177365819Y-72318095D02*
X177365819Y-72080000D01*
X177365819Y-72080000D02*
X177318200Y-71984762D01*
X177318200Y-71984762D02*
X177270580Y-71937143D01*
X177270580Y-71937143D02*
X177175342Y-71889524D01*
X177175342Y-71889524D02*
X177080104Y-71889524D01*
X177080104Y-71889524D02*
X176984866Y-71937143D01*
X176984866Y-71937143D02*
X176937247Y-71984762D01*
X176937247Y-71984762D02*
X176889628Y-72080000D01*
X176889628Y-72080000D02*
X176842009Y-72270476D01*
X176842009Y-72270476D02*
X176794390Y-72365714D01*
X176794390Y-72365714D02*
X176746771Y-72413333D01*
X176746771Y-72413333D02*
X176651533Y-72460952D01*
X176651533Y-72460952D02*
X176556295Y-72460952D01*
X176556295Y-72460952D02*
X176461057Y-72413333D01*
X176461057Y-72413333D02*
X176413438Y-72365714D01*
X176413438Y-72365714D02*
X176365819Y-72270476D01*
X176365819Y-72270476D02*
X176365819Y-72032381D01*
X176365819Y-72032381D02*
X176413438Y-71889524D01*
X177365819Y-71032381D02*
X176842009Y-71032381D01*
X176842009Y-71032381D02*
X176746771Y-71080000D01*
X176746771Y-71080000D02*
X176699152Y-71175238D01*
X176699152Y-71175238D02*
X176699152Y-71365714D01*
X176699152Y-71365714D02*
X176746771Y-71460952D01*
X177318200Y-71032381D02*
X177365819Y-71127619D01*
X177365819Y-71127619D02*
X177365819Y-71365714D01*
X177365819Y-71365714D02*
X177318200Y-71460952D01*
X177318200Y-71460952D02*
X177222961Y-71508571D01*
X177222961Y-71508571D02*
X177127723Y-71508571D01*
X177127723Y-71508571D02*
X177032485Y-71460952D01*
X177032485Y-71460952D02*
X176984866Y-71365714D01*
X176984866Y-71365714D02*
X176984866Y-71127619D01*
X176984866Y-71127619D02*
X176937247Y-71032381D01*
X176699152Y-70699047D02*
X176699152Y-70318095D01*
X177365819Y-70556190D02*
X176508676Y-70556190D01*
X176508676Y-70556190D02*
X176413438Y-70508571D01*
X176413438Y-70508571D02*
X176365819Y-70413333D01*
X176365819Y-70413333D02*
X176365819Y-70318095D01*
X177318200Y-69603809D02*
X177365819Y-69699047D01*
X177365819Y-69699047D02*
X177365819Y-69889523D01*
X177365819Y-69889523D02*
X177318200Y-69984761D01*
X177318200Y-69984761D02*
X177222961Y-70032380D01*
X177222961Y-70032380D02*
X176842009Y-70032380D01*
X176842009Y-70032380D02*
X176746771Y-69984761D01*
X176746771Y-69984761D02*
X176699152Y-69889523D01*
X176699152Y-69889523D02*
X176699152Y-69699047D01*
X176699152Y-69699047D02*
X176746771Y-69603809D01*
X176746771Y-69603809D02*
X176842009Y-69556190D01*
X176842009Y-69556190D02*
X176937247Y-69556190D01*
X176937247Y-69556190D02*
X177032485Y-70032380D01*
X177365819Y-67794285D02*
X176889628Y-68127618D01*
X177365819Y-68365713D02*
X176365819Y-68365713D01*
X176365819Y-68365713D02*
X176365819Y-67984761D01*
X176365819Y-67984761D02*
X176413438Y-67889523D01*
X176413438Y-67889523D02*
X176461057Y-67841904D01*
X176461057Y-67841904D02*
X176556295Y-67794285D01*
X176556295Y-67794285D02*
X176699152Y-67794285D01*
X176699152Y-67794285D02*
X176794390Y-67841904D01*
X176794390Y-67841904D02*
X176842009Y-67889523D01*
X176842009Y-67889523D02*
X176889628Y-67984761D01*
X176889628Y-67984761D02*
X176889628Y-68365713D01*
X177318200Y-66984761D02*
X177365819Y-67079999D01*
X177365819Y-67079999D02*
X177365819Y-67270475D01*
X177365819Y-67270475D02*
X177318200Y-67365713D01*
X177318200Y-67365713D02*
X177222961Y-67413332D01*
X177222961Y-67413332D02*
X176842009Y-67413332D01*
X176842009Y-67413332D02*
X176746771Y-67365713D01*
X176746771Y-67365713D02*
X176699152Y-67270475D01*
X176699152Y-67270475D02*
X176699152Y-67079999D01*
X176699152Y-67079999D02*
X176746771Y-66984761D01*
X176746771Y-66984761D02*
X176842009Y-66937142D01*
X176842009Y-66937142D02*
X176937247Y-66937142D01*
X176937247Y-66937142D02*
X177032485Y-67413332D01*
X177318200Y-66556189D02*
X177365819Y-66460951D01*
X177365819Y-66460951D02*
X177365819Y-66270475D01*
X177365819Y-66270475D02*
X177318200Y-66175237D01*
X177318200Y-66175237D02*
X177222961Y-66127618D01*
X177222961Y-66127618D02*
X177175342Y-66127618D01*
X177175342Y-66127618D02*
X177080104Y-66175237D01*
X177080104Y-66175237D02*
X177032485Y-66270475D01*
X177032485Y-66270475D02*
X177032485Y-66413332D01*
X177032485Y-66413332D02*
X176984866Y-66508570D01*
X176984866Y-66508570D02*
X176889628Y-66556189D01*
X176889628Y-66556189D02*
X176842009Y-66556189D01*
X176842009Y-66556189D02*
X176746771Y-66508570D01*
X176746771Y-66508570D02*
X176699152Y-66413332D01*
X176699152Y-66413332D02*
X176699152Y-66270475D01*
X176699152Y-66270475D02*
X176746771Y-66175237D01*
X177318200Y-65318094D02*
X177365819Y-65413332D01*
X177365819Y-65413332D02*
X177365819Y-65603808D01*
X177365819Y-65603808D02*
X177318200Y-65699046D01*
X177318200Y-65699046D02*
X177222961Y-65746665D01*
X177222961Y-65746665D02*
X176842009Y-65746665D01*
X176842009Y-65746665D02*
X176746771Y-65699046D01*
X176746771Y-65699046D02*
X176699152Y-65603808D01*
X176699152Y-65603808D02*
X176699152Y-65413332D01*
X176699152Y-65413332D02*
X176746771Y-65318094D01*
X176746771Y-65318094D02*
X176842009Y-65270475D01*
X176842009Y-65270475D02*
X176937247Y-65270475D01*
X176937247Y-65270475D02*
X177032485Y-65746665D01*
X176699152Y-64984760D02*
X176699152Y-64603808D01*
X176365819Y-64841903D02*
X177222961Y-64841903D01*
X177222961Y-64841903D02*
X177318200Y-64794284D01*
X177318200Y-64794284D02*
X177365819Y-64699046D01*
X177365819Y-64699046D02*
X177365819Y-64603808D01*
X139644523Y-71828819D02*
X139311190Y-71352628D01*
X139073095Y-71828819D02*
X139073095Y-70828819D01*
X139073095Y-70828819D02*
X139454047Y-70828819D01*
X139454047Y-70828819D02*
X139549285Y-70876438D01*
X139549285Y-70876438D02*
X139596904Y-70924057D01*
X139596904Y-70924057D02*
X139644523Y-71019295D01*
X139644523Y-71019295D02*
X139644523Y-71162152D01*
X139644523Y-71162152D02*
X139596904Y-71257390D01*
X139596904Y-71257390D02*
X139549285Y-71305009D01*
X139549285Y-71305009D02*
X139454047Y-71352628D01*
X139454047Y-71352628D02*
X139073095Y-71352628D01*
X140073095Y-71828819D02*
X140073095Y-70828819D01*
X140073095Y-70828819D02*
X140644523Y-71828819D01*
X140644523Y-71828819D02*
X140644523Y-70828819D01*
X141644523Y-71828819D02*
X141073095Y-71828819D01*
X141358809Y-71828819D02*
X141358809Y-70828819D01*
X141358809Y-70828819D02*
X141263571Y-70971676D01*
X141263571Y-70971676D02*
X141168333Y-71066914D01*
X141168333Y-71066914D02*
X141073095Y-71114533D01*
X143454523Y-71828819D02*
X142883095Y-71828819D01*
X143168809Y-71828819D02*
X143168809Y-70828819D01*
X143168809Y-70828819D02*
X143073571Y-70971676D01*
X143073571Y-70971676D02*
X142978333Y-71066914D01*
X142978333Y-71066914D02*
X142883095Y-71114533D01*
X144073571Y-70828819D02*
X144168809Y-70828819D01*
X144168809Y-70828819D02*
X144264047Y-70876438D01*
X144264047Y-70876438D02*
X144311666Y-70924057D01*
X144311666Y-70924057D02*
X144359285Y-71019295D01*
X144359285Y-71019295D02*
X144406904Y-71209771D01*
X144406904Y-71209771D02*
X144406904Y-71447866D01*
X144406904Y-71447866D02*
X144359285Y-71638342D01*
X144359285Y-71638342D02*
X144311666Y-71733580D01*
X144311666Y-71733580D02*
X144264047Y-71781200D01*
X144264047Y-71781200D02*
X144168809Y-71828819D01*
X144168809Y-71828819D02*
X144073571Y-71828819D01*
X144073571Y-71828819D02*
X143978333Y-71781200D01*
X143978333Y-71781200D02*
X143930714Y-71733580D01*
X143930714Y-71733580D02*
X143883095Y-71638342D01*
X143883095Y-71638342D02*
X143835476Y-71447866D01*
X143835476Y-71447866D02*
X143835476Y-71209771D01*
X143835476Y-71209771D02*
X143883095Y-71019295D01*
X143883095Y-71019295D02*
X143930714Y-70924057D01*
X143930714Y-70924057D02*
X143978333Y-70876438D01*
X143978333Y-70876438D02*
X144073571Y-70828819D01*
X144835476Y-71828819D02*
X144835476Y-70828819D01*
X145406904Y-71828819D02*
X144978333Y-71257390D01*
X145406904Y-70828819D02*
X144835476Y-71400247D01*
X122896333Y-114278580D02*
X122848714Y-114326200D01*
X122848714Y-114326200D02*
X122705857Y-114373819D01*
X122705857Y-114373819D02*
X122610619Y-114373819D01*
X122610619Y-114373819D02*
X122467762Y-114326200D01*
X122467762Y-114326200D02*
X122372524Y-114230961D01*
X122372524Y-114230961D02*
X122324905Y-114135723D01*
X122324905Y-114135723D02*
X122277286Y-113945247D01*
X122277286Y-113945247D02*
X122277286Y-113802390D01*
X122277286Y-113802390D02*
X122324905Y-113611914D01*
X122324905Y-113611914D02*
X122372524Y-113516676D01*
X122372524Y-113516676D02*
X122467762Y-113421438D01*
X122467762Y-113421438D02*
X122610619Y-113373819D01*
X122610619Y-113373819D02*
X122705857Y-113373819D01*
X122705857Y-113373819D02*
X122848714Y-113421438D01*
X122848714Y-113421438D02*
X122896333Y-113469057D01*
X123848714Y-114373819D02*
X123277286Y-114373819D01*
X123563000Y-114373819D02*
X123563000Y-113373819D01*
X123563000Y-113373819D02*
X123467762Y-113516676D01*
X123467762Y-113516676D02*
X123372524Y-113611914D01*
X123372524Y-113611914D02*
X123277286Y-113659533D01*
X124563380Y-111960819D02*
X123991952Y-111960819D01*
X124277666Y-111960819D02*
X124277666Y-110960819D01*
X124277666Y-110960819D02*
X124182428Y-111103676D01*
X124182428Y-111103676D02*
X124087190Y-111198914D01*
X124087190Y-111198914D02*
X123991952Y-111246533D01*
X125182428Y-110960819D02*
X125277666Y-110960819D01*
X125277666Y-110960819D02*
X125372904Y-111008438D01*
X125372904Y-111008438D02*
X125420523Y-111056057D01*
X125420523Y-111056057D02*
X125468142Y-111151295D01*
X125468142Y-111151295D02*
X125515761Y-111341771D01*
X125515761Y-111341771D02*
X125515761Y-111579866D01*
X125515761Y-111579866D02*
X125468142Y-111770342D01*
X125468142Y-111770342D02*
X125420523Y-111865580D01*
X125420523Y-111865580D02*
X125372904Y-111913200D01*
X125372904Y-111913200D02*
X125277666Y-111960819D01*
X125277666Y-111960819D02*
X125182428Y-111960819D01*
X125182428Y-111960819D02*
X125087190Y-111913200D01*
X125087190Y-111913200D02*
X125039571Y-111865580D01*
X125039571Y-111865580D02*
X124991952Y-111770342D01*
X124991952Y-111770342D02*
X124944333Y-111579866D01*
X124944333Y-111579866D02*
X124944333Y-111341771D01*
X124944333Y-111341771D02*
X124991952Y-111151295D01*
X124991952Y-111151295D02*
X125039571Y-111056057D01*
X125039571Y-111056057D02*
X125087190Y-111008438D01*
X125087190Y-111008438D02*
X125182428Y-110960819D01*
X126134809Y-110960819D02*
X126230047Y-110960819D01*
X126230047Y-110960819D02*
X126325285Y-111008438D01*
X126325285Y-111008438D02*
X126372904Y-111056057D01*
X126372904Y-111056057D02*
X126420523Y-111151295D01*
X126420523Y-111151295D02*
X126468142Y-111341771D01*
X126468142Y-111341771D02*
X126468142Y-111579866D01*
X126468142Y-111579866D02*
X126420523Y-111770342D01*
X126420523Y-111770342D02*
X126372904Y-111865580D01*
X126372904Y-111865580D02*
X126325285Y-111913200D01*
X126325285Y-111913200D02*
X126230047Y-111960819D01*
X126230047Y-111960819D02*
X126134809Y-111960819D01*
X126134809Y-111960819D02*
X126039571Y-111913200D01*
X126039571Y-111913200D02*
X125991952Y-111865580D01*
X125991952Y-111865580D02*
X125944333Y-111770342D01*
X125944333Y-111770342D02*
X125896714Y-111579866D01*
X125896714Y-111579866D02*
X125896714Y-111341771D01*
X125896714Y-111341771D02*
X125944333Y-111151295D01*
X125944333Y-111151295D02*
X125991952Y-111056057D01*
X125991952Y-111056057D02*
X126039571Y-111008438D01*
X126039571Y-111008438D02*
X126134809Y-110960819D01*
X126896714Y-111294152D02*
X126896714Y-111960819D01*
X126896714Y-111389390D02*
X126944333Y-111341771D01*
X126944333Y-111341771D02*
X127039571Y-111294152D01*
X127039571Y-111294152D02*
X127182428Y-111294152D01*
X127182428Y-111294152D02*
X127277666Y-111341771D01*
X127277666Y-111341771D02*
X127325285Y-111437009D01*
X127325285Y-111437009D02*
X127325285Y-111960819D01*
X128134809Y-111437009D02*
X127801476Y-111437009D01*
X127801476Y-111960819D02*
X127801476Y-110960819D01*
X127801476Y-110960819D02*
X128277666Y-110960819D01*
X182826819Y-91924094D02*
X181826819Y-91924094D01*
X181826819Y-91924094D02*
X181826819Y-91543142D01*
X181826819Y-91543142D02*
X181874438Y-91447904D01*
X181874438Y-91447904D02*
X181922057Y-91400285D01*
X181922057Y-91400285D02*
X182017295Y-91352666D01*
X182017295Y-91352666D02*
X182160152Y-91352666D01*
X182160152Y-91352666D02*
X182255390Y-91400285D01*
X182255390Y-91400285D02*
X182303009Y-91447904D01*
X182303009Y-91447904D02*
X182350628Y-91543142D01*
X182350628Y-91543142D02*
X182350628Y-91924094D01*
X181922057Y-90971713D02*
X181874438Y-90924094D01*
X181874438Y-90924094D02*
X181826819Y-90828856D01*
X181826819Y-90828856D02*
X181826819Y-90590761D01*
X181826819Y-90590761D02*
X181874438Y-90495523D01*
X181874438Y-90495523D02*
X181922057Y-90447904D01*
X181922057Y-90447904D02*
X182017295Y-90400285D01*
X182017295Y-90400285D02*
X182112533Y-90400285D01*
X182112533Y-90400285D02*
X182255390Y-90447904D01*
X182255390Y-90447904D02*
X182826819Y-91019332D01*
X182826819Y-91019332D02*
X182826819Y-90400285D01*
D12*
%TO.C,JP1*%
X125740000Y-68130000D02*
X124340000Y-68130000D01*
X124340000Y-66130000D02*
X125740000Y-66130000D01*
X123640000Y-67430000D02*
X123640000Y-66830000D01*
X126440000Y-66830000D02*
X126440000Y-67430000D01*
X124340000Y-66130000D02*
G75*
G03*
X123640000Y-66830000I-1J-699999D01*
G01*
X123640000Y-67430000D02*
G75*
G03*
X124340000Y-68130000I699999J-1D01*
G01*
X125740000Y-68130000D02*
G75*
G03*
X126440000Y-67430000I0J700000D01*
G01*
X126440000Y-66830000D02*
G75*
G03*
X125740000Y-66130000I-700000J0D01*
G01*
%TO.C,SW1*%
X154189400Y-112748600D02*
X154189400Y-111395267D01*
X155149400Y-112748600D02*
X155149400Y-111395267D01*
X152164400Y-115668600D02*
X159544400Y-115668600D01*
X154909400Y-112748600D02*
X154909400Y-111395267D01*
X157449400Y-112748600D02*
X157449400Y-111395267D01*
X152164400Y-115668600D02*
X152164400Y-105768600D01*
X153949400Y-111395267D02*
X155219400Y-111395267D01*
X154549400Y-112748600D02*
X154549400Y-111395267D01*
X153949400Y-108688600D02*
X153949400Y-112748600D01*
X156849400Y-112748600D02*
X156849400Y-111395267D01*
X155219400Y-108688600D02*
X153949400Y-108688600D01*
X156969400Y-112748600D02*
X156969400Y-111395267D01*
X155029400Y-112748600D02*
X155029400Y-111395267D01*
X153949400Y-112748600D02*
X155219400Y-112748600D01*
X157759400Y-112748600D02*
X157759400Y-108688600D01*
X154789400Y-112748600D02*
X154789400Y-111395267D01*
X156609400Y-112748600D02*
X156609400Y-111395267D01*
X154669400Y-112748600D02*
X154669400Y-111395267D01*
X154069400Y-112748600D02*
X154069400Y-111395267D01*
X154309400Y-112748600D02*
X154309400Y-111395267D01*
X156489400Y-111395267D02*
X157759400Y-111395267D01*
X157329400Y-112748600D02*
X157329400Y-111395267D01*
X156489400Y-108688600D02*
X156489400Y-112748600D01*
X157209400Y-112748600D02*
X157209400Y-111395267D01*
X151924400Y-115908600D02*
X153307400Y-115908600D01*
X154429400Y-112748600D02*
X154429400Y-111395267D01*
X159544400Y-115668600D02*
X159544400Y-105768600D01*
X157089400Y-112748600D02*
X157089400Y-111395267D01*
X155219400Y-112748600D02*
X155219400Y-108688600D01*
X152164400Y-105768600D02*
X159544400Y-105768600D01*
X151924400Y-115908600D02*
X151924400Y-114524600D01*
X156729400Y-112748600D02*
X156729400Y-111395267D01*
X157689400Y-112748600D02*
X157689400Y-111395267D01*
X156489400Y-112748600D02*
X157759400Y-112748600D01*
X157569400Y-112748600D02*
X157569400Y-111395267D01*
X157759400Y-108688600D02*
X156489400Y-108688600D01*
%TO.C,R2*%
X139727000Y-113887000D02*
X140057000Y-113887000D01*
X142467000Y-107347000D02*
X142467000Y-113887000D01*
X139727000Y-107347000D02*
X139727000Y-113887000D01*
X140057000Y-107347000D02*
X139727000Y-107347000D01*
X142137000Y-107347000D02*
X142467000Y-107347000D01*
X142467000Y-113887000D02*
X142137000Y-113887000D01*
%TO.C,R1*%
X136145600Y-113887000D02*
X136475600Y-113887000D01*
X138885600Y-107347000D02*
X138885600Y-113887000D01*
X136145600Y-107347000D02*
X136145600Y-113887000D01*
X136475600Y-107347000D02*
X136145600Y-107347000D01*
X138555600Y-107347000D02*
X138885600Y-107347000D01*
X138885600Y-113887000D02*
X138555600Y-113887000D01*
%TO.C,D1*%
X130178200Y-108347600D02*
X133118200Y-108347600D01*
X130178200Y-108227600D02*
X133118200Y-108227600D01*
X133118200Y-109247600D02*
X133118200Y-103807600D01*
X131648200Y-102787600D02*
X131648200Y-103807600D01*
X130178200Y-109247600D02*
X133118200Y-109247600D01*
X130178200Y-108467600D02*
X133118200Y-108467600D01*
X133118200Y-103807600D02*
X130178200Y-103807600D01*
X131648200Y-110267600D02*
X131648200Y-109247600D01*
X130178200Y-103807600D02*
X130178200Y-109247600D01*
%TO.C,U1*%
X126333000Y-109474500D02*
X126333000Y-73794500D01*
X126333000Y-73794500D02*
X113413000Y-73794500D01*
X120873000Y-109474500D02*
X126333000Y-109474500D01*
X113413000Y-109474500D02*
X118873000Y-109474500D01*
X113413000Y-73794500D02*
X113413000Y-109474500D01*
X120873000Y-109474500D02*
G75*
G03*
X118873000Y-109474500I-1000000J0D01*
G01*
%TO.C,D2*%
X173242485Y-109697201D02*
G75*
G03*
X173399392Y-112929534I1235515J-1559999D01*
G01*
X173398001Y-110216240D02*
G75*
G03*
X173398164Y-112298329I1079999J-1040960D01*
G01*
X175557836Y-112298329D02*
G75*
G03*
X175557999Y-110216240I-1079836J1041129D01*
G01*
X175556608Y-112929534D02*
G75*
G03*
X175713515Y-109697201I-1078608J1672334D01*
G01*
X173398000Y-109697200D02*
X173242000Y-109697200D01*
X175714000Y-109697200D02*
X175558000Y-109697200D01*
%TO.C,SW2*%
X177429000Y-115097200D02*
X176919000Y-115097200D01*
X183929000Y-115097200D02*
X180029000Y-115097200D01*
X176919000Y-114577200D02*
X176919000Y-115097200D01*
X177429000Y-114577200D02*
X176919000Y-114577200D01*
X180259000Y-114577200D02*
X180029000Y-114577200D01*
X180259000Y-114037200D02*
X180259000Y-114577200D01*
X180259000Y-109537200D02*
X180259000Y-112937200D01*
X177429000Y-107897200D02*
X176919000Y-107897200D01*
X180259000Y-107897200D02*
X180259000Y-108437200D01*
X180259000Y-107897200D02*
X180029000Y-107897200D01*
X176919000Y-107377200D02*
X176919000Y-107897200D01*
X177429000Y-107377200D02*
X176919000Y-107377200D01*
X183929000Y-107377200D02*
X183929000Y-115097200D01*
X183929000Y-107377200D02*
X180029000Y-107377200D01*
%TO.C,J1*%
X148383000Y-68794500D02*
X148383000Y-67464500D01*
X149713000Y-68794500D02*
X148383000Y-68794500D01*
X150983000Y-68794500D02*
X158663000Y-68794500D01*
X150983000Y-68794500D02*
X150983000Y-66134500D01*
X158663000Y-68794500D02*
X158663000Y-66134500D01*
X150983000Y-66134500D02*
X158663000Y-66134500D01*
%TO.C,D3*%
X175714000Y-66924500D02*
X175558000Y-66924500D01*
X173398000Y-66924500D02*
X173242000Y-66924500D01*
X175556608Y-70156834D02*
G75*
G03*
X175713515Y-66924501I-1078608J1672334D01*
G01*
X175557836Y-69525629D02*
G75*
G03*
X175557999Y-67443540I-1079836J1041129D01*
G01*
X173398001Y-67443540D02*
G75*
G03*
X173398164Y-69525629I1079999J-1040960D01*
G01*
X173242485Y-66924501D02*
G75*
G03*
X173399392Y-70156834I1235515J-1559999D01*
G01*
D13*
%TO.C,U2*%
X135275000Y-103612000D02*
X183475000Y-103612000D01*
X183475000Y-103612000D02*
X183475000Y-93732000D01*
X129075000Y-98662000D02*
X129075000Y-80662000D01*
X135275000Y-98662000D02*
X135275000Y-103612000D01*
X135275000Y-98662000D02*
X129075000Y-98662000D01*
X183475000Y-93732000D02*
X184375000Y-93732000D01*
X184375000Y-93732000D02*
X184375000Y-85602000D01*
X183475000Y-85602000D02*
X183475000Y-75712000D01*
X184375000Y-85602000D02*
X183475000Y-85602000D01*
X129075000Y-80662000D02*
X135275000Y-80662000D01*
X135275000Y-75712000D02*
X135275000Y-80662000D01*
X183475000Y-75712000D02*
X135275000Y-75712000D01*
D14*
X136505000Y-104232000D02*
G75*
G03*
X136305000Y-104232000I-100000J0D01*
G01*
X136305000Y-104232000D02*
G75*
G03*
X136505000Y-104232000I100000J0D01*
G01*
D12*
%TO.C,R3*%
X173704000Y-107542000D02*
X167164000Y-107542000D01*
X173704000Y-107212000D02*
X173704000Y-107542000D01*
X173704000Y-105132000D02*
X173704000Y-104802000D01*
X173704000Y-104802000D02*
X167164000Y-104802000D01*
X167164000Y-107542000D02*
X167164000Y-107212000D01*
X167164000Y-104802000D02*
X167164000Y-105132000D01*
%TO.C,C2*%
X129829759Y-66106000D02*
X130459759Y-66106000D01*
X130144759Y-65791000D02*
X130144759Y-66421000D01*
X133330000Y-64715000D02*
X133330000Y-71175000D01*
X133370000Y-64715000D02*
X133370000Y-71175000D01*
X133410000Y-64715000D02*
X133410000Y-71175000D01*
X133450000Y-64717000D02*
X133450000Y-71173000D01*
X133490000Y-64718000D02*
X133490000Y-71172000D01*
X133530000Y-64721000D02*
X133530000Y-71169000D01*
X133570000Y-64723000D02*
X133570000Y-66905000D01*
X133570000Y-68985000D02*
X133570000Y-71167000D01*
X133610000Y-64727000D02*
X133610000Y-66905000D01*
X133610000Y-68985000D02*
X133610000Y-71163000D01*
X133650000Y-64730000D02*
X133650000Y-66905000D01*
X133650000Y-68985000D02*
X133650000Y-71160000D01*
X133690000Y-64734000D02*
X133690000Y-66905000D01*
X133690000Y-68985000D02*
X133690000Y-71156000D01*
X133730000Y-64739000D02*
X133730000Y-66905000D01*
X133730000Y-68985000D02*
X133730000Y-71151000D01*
X133770000Y-64744000D02*
X133770000Y-66905000D01*
X133770000Y-68985000D02*
X133770000Y-71146000D01*
X133810000Y-64750000D02*
X133810000Y-66905000D01*
X133810000Y-68985000D02*
X133810000Y-71140000D01*
X133850000Y-64756000D02*
X133850000Y-66905000D01*
X133850000Y-68985000D02*
X133850000Y-71134000D01*
X133890000Y-64763000D02*
X133890000Y-66905000D01*
X133890000Y-68985000D02*
X133890000Y-71127000D01*
X133930000Y-64770000D02*
X133930000Y-66905000D01*
X133930000Y-68985000D02*
X133930000Y-71120000D01*
X133970000Y-64778000D02*
X133970000Y-66905000D01*
X133970000Y-68985000D02*
X133970000Y-71112000D01*
X134010000Y-64786000D02*
X134010000Y-66905000D01*
X134010000Y-68985000D02*
X134010000Y-71104000D01*
X134051000Y-64795000D02*
X134051000Y-66905000D01*
X134051000Y-68985000D02*
X134051000Y-71095000D01*
X134091000Y-64804000D02*
X134091000Y-66905000D01*
X134091000Y-68985000D02*
X134091000Y-71086000D01*
X134131000Y-64814000D02*
X134131000Y-66905000D01*
X134131000Y-68985000D02*
X134131000Y-71076000D01*
X134171000Y-64824000D02*
X134171000Y-66905000D01*
X134171000Y-68985000D02*
X134171000Y-71066000D01*
X134211000Y-64835000D02*
X134211000Y-66905000D01*
X134211000Y-68985000D02*
X134211000Y-71055000D01*
X134251000Y-64847000D02*
X134251000Y-66905000D01*
X134251000Y-68985000D02*
X134251000Y-71043000D01*
X134291000Y-64859000D02*
X134291000Y-66905000D01*
X134291000Y-68985000D02*
X134291000Y-71031000D01*
X134331000Y-64871000D02*
X134331000Y-66905000D01*
X134331000Y-68985000D02*
X134331000Y-71019000D01*
X134371000Y-64884000D02*
X134371000Y-66905000D01*
X134371000Y-68985000D02*
X134371000Y-71006000D01*
X134411000Y-64898000D02*
X134411000Y-66905000D01*
X134411000Y-68985000D02*
X134411000Y-70992000D01*
X134451000Y-64912000D02*
X134451000Y-66905000D01*
X134451000Y-68985000D02*
X134451000Y-70978000D01*
X134491000Y-64927000D02*
X134491000Y-66905000D01*
X134491000Y-68985000D02*
X134491000Y-70963000D01*
X134531000Y-64943000D02*
X134531000Y-66905000D01*
X134531000Y-68985000D02*
X134531000Y-70947000D01*
X134571000Y-64959000D02*
X134571000Y-66905000D01*
X134571000Y-68985000D02*
X134571000Y-70931000D01*
X134611000Y-64975000D02*
X134611000Y-66905000D01*
X134611000Y-68985000D02*
X134611000Y-70915000D01*
X134651000Y-64993000D02*
X134651000Y-66905000D01*
X134651000Y-68985000D02*
X134651000Y-70897000D01*
X134691000Y-65011000D02*
X134691000Y-66905000D01*
X134691000Y-68985000D02*
X134691000Y-70879000D01*
X134731000Y-65029000D02*
X134731000Y-66905000D01*
X134731000Y-68985000D02*
X134731000Y-70861000D01*
X134771000Y-65049000D02*
X134771000Y-66905000D01*
X134771000Y-68985000D02*
X134771000Y-70841000D01*
X134811000Y-65069000D02*
X134811000Y-66905000D01*
X134811000Y-68985000D02*
X134811000Y-70821000D01*
X134851000Y-65089000D02*
X134851000Y-66905000D01*
X134851000Y-68985000D02*
X134851000Y-70801000D01*
X134891000Y-65111000D02*
X134891000Y-66905000D01*
X134891000Y-68985000D02*
X134891000Y-70779000D01*
X134931000Y-65133000D02*
X134931000Y-66905000D01*
X134931000Y-68985000D02*
X134931000Y-70757000D01*
X134971000Y-65155000D02*
X134971000Y-66905000D01*
X134971000Y-68985000D02*
X134971000Y-70735000D01*
X135011000Y-65179000D02*
X135011000Y-66905000D01*
X135011000Y-68985000D02*
X135011000Y-70711000D01*
X135051000Y-65203000D02*
X135051000Y-66905000D01*
X135051000Y-68985000D02*
X135051000Y-70687000D01*
X135091000Y-65229000D02*
X135091000Y-66905000D01*
X135091000Y-68985000D02*
X135091000Y-70661000D01*
X135131000Y-65255000D02*
X135131000Y-66905000D01*
X135131000Y-68985000D02*
X135131000Y-70635000D01*
X135171000Y-65281000D02*
X135171000Y-66905000D01*
X135171000Y-68985000D02*
X135171000Y-70609000D01*
X135211000Y-65309000D02*
X135211000Y-66905000D01*
X135211000Y-68985000D02*
X135211000Y-70581000D01*
X135251000Y-65338000D02*
X135251000Y-66905000D01*
X135251000Y-68985000D02*
X135251000Y-70552000D01*
X135291000Y-65367000D02*
X135291000Y-66905000D01*
X135291000Y-68985000D02*
X135291000Y-70523000D01*
X135331000Y-65397000D02*
X135331000Y-66905000D01*
X135331000Y-68985000D02*
X135331000Y-70493000D01*
X135371000Y-65429000D02*
X135371000Y-66905000D01*
X135371000Y-68985000D02*
X135371000Y-70461000D01*
X135411000Y-65461000D02*
X135411000Y-66905000D01*
X135411000Y-68985000D02*
X135411000Y-70429000D01*
X135451000Y-65495000D02*
X135451000Y-66905000D01*
X135451000Y-68985000D02*
X135451000Y-70395000D01*
X135491000Y-65529000D02*
X135491000Y-66905000D01*
X135491000Y-68985000D02*
X135491000Y-70361000D01*
X135531000Y-65565000D02*
X135531000Y-66905000D01*
X135531000Y-68985000D02*
X135531000Y-70325000D01*
X135571000Y-65602000D02*
X135571000Y-66905000D01*
X135571000Y-68985000D02*
X135571000Y-70288000D01*
X135611000Y-65640000D02*
X135611000Y-66905000D01*
X135611000Y-68985000D02*
X135611000Y-70250000D01*
X135651000Y-65680000D02*
X135651000Y-70210000D01*
X135691000Y-65721000D02*
X135691000Y-70169000D01*
X135731000Y-65763000D02*
X135731000Y-70127000D01*
X135771000Y-65808000D02*
X135771000Y-70082000D01*
X135811000Y-65853000D02*
X135811000Y-70037000D01*
X135851000Y-65901000D02*
X135851000Y-69989000D01*
X135891000Y-65950000D02*
X135891000Y-69940000D01*
X135931000Y-66001000D02*
X135931000Y-69889000D01*
X135971000Y-66055000D02*
X135971000Y-69835000D01*
X136011000Y-66111000D02*
X136011000Y-69779000D01*
X136051000Y-66169000D02*
X136051000Y-69721000D01*
X136091000Y-66231000D02*
X136091000Y-69659000D01*
X136131000Y-66295000D02*
X136131000Y-69595000D01*
X136171000Y-66364000D02*
X136171000Y-69526000D01*
X136211000Y-66436000D02*
X136211000Y-69454000D01*
X136251000Y-66513000D02*
X136251000Y-69377000D01*
X136291000Y-66595000D02*
X136291000Y-69295000D01*
X136331000Y-66683000D02*
X136331000Y-69207000D01*
X136371000Y-66780000D02*
X136371000Y-69110000D01*
X136411000Y-66886000D02*
X136411000Y-69004000D01*
X136451000Y-67005000D02*
X136451000Y-68885000D01*
X136491000Y-67143000D02*
X136491000Y-68747000D01*
X136531000Y-67312000D02*
X136531000Y-68578000D01*
X136571000Y-67543000D02*
X136571000Y-68347000D01*
X136600000Y-67945000D02*
G75*
G03*
X130060000Y-67945000I-3270000J0D01*
G01*
X130060000Y-67945000D02*
G75*
G03*
X136600000Y-67945000I3270000J0D01*
G01*
%TO.C,C3*%
X168116000Y-92315000D02*
X168116000Y-89295000D01*
X168116000Y-89295000D02*
X163731000Y-89295000D01*
X163731000Y-92315000D02*
X168116000Y-92315000D01*
%TO.C,R4*%
X173958000Y-74776000D02*
X167418000Y-74776000D01*
X173958000Y-74446000D02*
X173958000Y-74776000D01*
X173958000Y-72366000D02*
X173958000Y-72036000D01*
X173958000Y-72036000D02*
X167418000Y-72036000D01*
X167418000Y-74776000D02*
X167418000Y-74446000D01*
X167418000Y-72036000D02*
X167418000Y-72366000D01*
%TO.C,SW3*%
X183929000Y-64604500D02*
X180029000Y-64604500D01*
X183929000Y-64604500D02*
X183929000Y-72324500D01*
X177429000Y-64604500D02*
X176919000Y-64604500D01*
X176919000Y-64604500D02*
X176919000Y-65124500D01*
X180259000Y-65124500D02*
X180029000Y-65124500D01*
X180259000Y-65124500D02*
X180259000Y-65664500D01*
X177429000Y-65124500D02*
X176919000Y-65124500D01*
X180259000Y-66764500D02*
X180259000Y-70164500D01*
X180259000Y-71264500D02*
X180259000Y-71804500D01*
X180259000Y-71804500D02*
X180029000Y-71804500D01*
X177429000Y-71804500D02*
X176919000Y-71804500D01*
X176919000Y-71804500D02*
X176919000Y-72324500D01*
X183929000Y-72324500D02*
X180029000Y-72324500D01*
X177429000Y-72324500D02*
X176919000Y-72324500D01*
%TO.C,RN1*%
X138895000Y-72260000D02*
X138895000Y-75060000D01*
X138895000Y-75060000D02*
X162095000Y-75060000D01*
X141605000Y-72260000D02*
X141605000Y-75060000D01*
X162095000Y-72260000D02*
X138895000Y-72260000D01*
X162095000Y-75060000D02*
X162095000Y-72260000D01*
%TO.C,C1*%
X123260000Y-110136000D02*
X123260000Y-110451000D01*
X123260000Y-110136000D02*
X128200000Y-110136000D01*
X123260000Y-112561000D02*
X123260000Y-112876000D01*
X123260000Y-112876000D02*
X128200000Y-112876000D01*
X128200000Y-110136000D02*
X128200000Y-110451000D01*
X128200000Y-112561000D02*
X128200000Y-112876000D01*
%TO.C,G\u002A\u002A\u002A*%
G36*
X142805672Y-91781121D02*
G01*
X142805672Y-91919165D01*
X141716662Y-91919165D01*
X140627653Y-91919165D01*
X140627653Y-91781121D01*
X140627653Y-91643078D01*
X141716662Y-91643078D01*
X142805672Y-91643078D01*
X142805672Y-91781121D01*
G37*
G36*
X140758027Y-81832558D02*
G01*
X140888401Y-81841991D01*
X140897176Y-82140643D01*
X140905951Y-82439296D01*
X141848142Y-82447406D01*
X142790334Y-82455517D01*
X142799767Y-82585892D01*
X142809200Y-82716266D01*
X141856470Y-82716266D01*
X140903740Y-82716266D01*
X140903740Y-83023029D01*
X140903740Y-83329793D01*
X140765696Y-83329793D01*
X140627653Y-83329793D01*
X140627653Y-82576459D01*
X140627653Y-81823125D01*
X140758027Y-81832558D01*
G37*
G36*
X140873063Y-96060469D02*
G01*
X140873063Y-96489938D01*
X141179827Y-96489938D01*
X141486590Y-96489938D01*
X141486590Y-96060469D01*
X141486590Y-95631000D01*
X141609295Y-95631000D01*
X141732000Y-95631000D01*
X141732000Y-96059745D01*
X141732000Y-96488489D01*
X142261167Y-96496882D01*
X142790334Y-96505276D01*
X142799767Y-96635650D01*
X142809200Y-96766024D01*
X141718426Y-96766024D01*
X140627653Y-96766024D01*
X140627653Y-96198512D01*
X140627653Y-95631000D01*
X140750358Y-95631000D01*
X140873063Y-95631000D01*
X140873063Y-96060469D01*
G37*
G36*
X141738817Y-83949266D02*
G01*
X141747339Y-84388126D01*
X142138462Y-84396712D01*
X142529585Y-84405297D01*
X142529585Y-83959574D01*
X142529585Y-83513851D01*
X142667628Y-83513851D01*
X142805672Y-83513851D01*
X142805672Y-84076250D01*
X142804606Y-84256107D01*
X142801644Y-84414407D01*
X142797140Y-84541088D01*
X142791445Y-84626088D01*
X142785221Y-84659100D01*
X142750803Y-84663878D01*
X142662171Y-84668260D01*
X142526460Y-84672112D01*
X142350810Y-84675299D01*
X142142356Y-84677688D01*
X141908235Y-84679146D01*
X141696211Y-84679551D01*
X140627653Y-84679551D01*
X140627653Y-84096701D01*
X140627653Y-83513851D01*
X140749516Y-83513851D01*
X140871379Y-83513851D01*
X140879890Y-83950988D01*
X140888401Y-84388126D01*
X141171308Y-84396935D01*
X141454215Y-84405744D01*
X141462733Y-83967466D01*
X141471252Y-83529189D01*
X141600773Y-83519798D01*
X141730295Y-83510406D01*
X141738817Y-83949266D01*
G37*
G36*
X142002577Y-85170690D02*
G01*
X142237383Y-85171594D01*
X142444960Y-85173011D01*
X142618509Y-85174869D01*
X142751233Y-85177094D01*
X142836333Y-85179613D01*
X142867013Y-85182353D01*
X142867025Y-85182408D01*
X142845323Y-85205269D01*
X142783549Y-85265059D01*
X142686693Y-85357077D01*
X142559751Y-85476620D01*
X142407714Y-85618988D01*
X142235575Y-85779478D01*
X142048329Y-85953388D01*
X142044449Y-85956985D01*
X141221873Y-86719527D01*
X142015511Y-86727709D01*
X142809149Y-86735891D01*
X142799742Y-86865752D01*
X142790334Y-86995614D01*
X141678317Y-87003666D01*
X141356759Y-87005165D01*
X141087454Y-87004660D01*
X140872145Y-87002186D01*
X140712574Y-86997778D01*
X140610484Y-86991470D01*
X140567615Y-86983298D01*
X140566300Y-86981374D01*
X140588160Y-86954405D01*
X140650385Y-86890962D01*
X140747947Y-86795844D01*
X140875814Y-86673848D01*
X141028958Y-86529773D01*
X141202348Y-86368417D01*
X141390955Y-86194577D01*
X141394772Y-86191075D01*
X142223243Y-85431121D01*
X141425448Y-85422943D01*
X140627653Y-85414764D01*
X140627653Y-85292568D01*
X140627653Y-85170372D01*
X141747339Y-85170372D01*
X142002577Y-85170690D01*
G37*
G36*
X141584524Y-92410101D02*
G01*
X141854179Y-92410343D01*
X142069483Y-92411262D01*
X142237436Y-92413254D01*
X142365040Y-92416715D01*
X142459296Y-92422042D01*
X142527203Y-92429630D01*
X142575764Y-92439876D01*
X142611979Y-92453175D01*
X142642849Y-92469925D01*
X142642954Y-92469989D01*
X142722637Y-92530193D01*
X142783757Y-92595698D01*
X142786833Y-92600248D01*
X142822889Y-92689726D01*
X142846089Y-92812429D01*
X142853385Y-92941020D01*
X142841725Y-93048160D01*
X142838185Y-93060589D01*
X142799556Y-93148808D01*
X142745555Y-93234849D01*
X142689086Y-93301138D01*
X142643049Y-93330098D01*
X142640211Y-93330276D01*
X142594749Y-93309128D01*
X142536273Y-93259853D01*
X142486820Y-93203702D01*
X142468232Y-93164417D01*
X142485511Y-93125894D01*
X142527317Y-93065459D01*
X142529585Y-93062559D01*
X142575575Y-92970821D01*
X142588865Y-92869009D01*
X142568674Y-92780467D01*
X142540272Y-92743513D01*
X142511830Y-92730672D01*
X142456418Y-92719944D01*
X142368333Y-92710992D01*
X142241874Y-92703480D01*
X142071336Y-92697072D01*
X141851018Y-92691431D01*
X141575215Y-92686221D01*
X141566299Y-92686073D01*
X140642991Y-92670735D01*
X140633558Y-92540360D01*
X140624125Y-92409986D01*
X141584524Y-92410101D01*
G37*
G36*
X141684450Y-93576850D02*
G01*
X141911021Y-93581169D01*
X142091822Y-93589887D01*
X142234628Y-93604247D01*
X142347214Y-93625492D01*
X142437357Y-93654865D01*
X142512833Y-93693610D01*
X142581417Y-93742969D01*
X142611825Y-93768730D01*
X142694587Y-93858546D01*
X142764501Y-93962743D01*
X142779459Y-93992765D01*
X142818044Y-94119264D01*
X142843474Y-94281077D01*
X142853628Y-94453165D01*
X142846385Y-94610489D01*
X142836837Y-94670021D01*
X142779571Y-94850286D01*
X142687312Y-94994008D01*
X142610474Y-95071025D01*
X142550248Y-95120875D01*
X142490604Y-95160377D01*
X142423725Y-95190727D01*
X142341797Y-95213120D01*
X142237003Y-95228750D01*
X142101527Y-95238812D01*
X141927556Y-95244502D01*
X141707272Y-95247014D01*
X141455913Y-95247546D01*
X140642991Y-95247546D01*
X140633651Y-95119070D01*
X140624310Y-94990593D01*
X141415897Y-94981026D01*
X141660156Y-94977724D01*
X141851165Y-94974009D01*
X141997027Y-94969252D01*
X142105845Y-94962823D01*
X142185721Y-94954093D01*
X142244758Y-94942430D01*
X142291059Y-94927207D01*
X142328209Y-94910107D01*
X142439878Y-94841645D01*
X142513326Y-94762309D01*
X142555542Y-94658233D01*
X142573514Y-94515549D01*
X142575599Y-94419285D01*
X142567887Y-94252368D01*
X142540015Y-94130454D01*
X142484881Y-94038599D01*
X142395382Y-93961860D01*
X142342320Y-93928464D01*
X142306439Y-93909737D01*
X142264711Y-93895054D01*
X142209284Y-93883799D01*
X142132309Y-93875358D01*
X142025932Y-93869115D01*
X141882304Y-93864454D01*
X141693573Y-93860761D01*
X141451887Y-93857419D01*
X141432906Y-93857184D01*
X140627653Y-93847257D01*
X140627653Y-93711472D01*
X140627653Y-93575686D01*
X141404331Y-93575686D01*
X141684450Y-93576850D01*
G37*
G36*
X143543792Y-86686111D02*
G01*
X143558350Y-86758969D01*
X143566375Y-86849901D01*
X143575508Y-87041628D01*
X143804116Y-87041628D01*
X143919500Y-87045457D01*
X143999859Y-87055812D01*
X144032548Y-87070996D01*
X144032725Y-87072305D01*
X144004177Y-87087762D01*
X143926900Y-87098535D01*
X143813442Y-87102952D01*
X143802653Y-87102981D01*
X143572580Y-87102981D01*
X143572580Y-87624479D01*
X143572580Y-88145976D01*
X143833329Y-88145976D01*
X143960313Y-88149369D01*
X144050237Y-88158700D01*
X144092303Y-88172699D01*
X144094078Y-88176653D01*
X144065240Y-88191592D01*
X143985926Y-88202171D01*
X143866935Y-88207120D01*
X143833329Y-88207329D01*
X143572580Y-88207329D01*
X143572580Y-88713488D01*
X143572580Y-89219648D01*
X143664609Y-89219648D01*
X143737672Y-89233367D01*
X143756638Y-89265662D01*
X143729295Y-89302250D01*
X143666553Y-89311677D01*
X143603284Y-89319708D01*
X143575513Y-89356429D01*
X143566855Y-89411375D01*
X143552039Y-89479285D01*
X143528868Y-89510799D01*
X143526566Y-89511073D01*
X143503079Y-89484203D01*
X143487074Y-89418773D01*
X143486277Y-89411375D01*
X143476664Y-89311677D01*
X142987786Y-89311677D01*
X142498909Y-89311677D01*
X142498909Y-89786009D01*
X142498909Y-90260341D01*
X142775165Y-90269161D01*
X142902094Y-90276397D01*
X142996571Y-90288075D01*
X143046570Y-90302474D01*
X143051422Y-90308657D01*
X143022751Y-90323667D01*
X142944754Y-90336649D01*
X142829458Y-90345882D01*
X142775165Y-90348154D01*
X142498909Y-90356974D01*
X142498909Y-90495677D01*
X142496328Y-90532874D01*
X142493031Y-90580389D01*
X142476910Y-90616490D01*
X142468232Y-90615421D01*
X142448624Y-90575199D01*
X142438116Y-90498906D01*
X142437556Y-90475567D01*
X142437556Y-90354672D01*
X142208666Y-90354672D01*
X141979776Y-90354672D01*
X141947110Y-90475982D01*
X141888258Y-90611833D01*
X141796050Y-90731504D01*
X141684176Y-90822204D01*
X141566323Y-90871144D01*
X141518790Y-90876169D01*
X141487417Y-90880977D01*
X141468653Y-90903674D01*
X141459300Y-90956677D01*
X141456156Y-91052398D01*
X141455913Y-91120116D01*
X141455913Y-91364063D01*
X141640283Y-91373196D01*
X141738969Y-91382707D01*
X141808717Y-91398171D01*
X141832010Y-91413005D01*
X141808124Y-91430208D01*
X141738309Y-91445747D01*
X141637987Y-91458300D01*
X141522580Y-91466543D01*
X141407511Y-91469152D01*
X141308202Y-91464805D01*
X141275795Y-91460733D01*
X141193778Y-91437851D01*
X141167950Y-91410070D01*
X141199334Y-91385157D01*
X141264186Y-91372716D01*
X141363885Y-91363103D01*
X141363885Y-91119636D01*
X141362641Y-90998060D01*
X141356770Y-90925393D01*
X141343064Y-90889212D01*
X141318312Y-90877091D01*
X141301008Y-90876169D01*
X141184701Y-90848366D01*
X141068678Y-90773482D01*
X140966627Y-90664308D01*
X140892237Y-90533634D01*
X140872688Y-90475982D01*
X140840022Y-90354672D01*
X140595794Y-90354672D01*
X140351566Y-90354672D01*
X140351566Y-90569406D01*
X140347512Y-90679560D01*
X140336649Y-90755675D01*
X140320919Y-90784140D01*
X140320889Y-90784140D01*
X140305153Y-90755767D01*
X140294280Y-90679722D01*
X140290213Y-90569615D01*
X140290213Y-90569406D01*
X140290213Y-90354672D01*
X140152170Y-90354672D01*
X140061183Y-90348650D01*
X140019739Y-90328174D01*
X140014126Y-90308657D01*
X140032192Y-90278329D01*
X140093620Y-90264514D01*
X140152170Y-90262643D01*
X140290213Y-90262643D01*
X140351566Y-90262643D01*
X140594728Y-90262643D01*
X140837889Y-90262643D01*
X140912865Y-90098875D01*
X141000491Y-89953848D01*
X141099791Y-89865917D01*
X141179602Y-89816592D01*
X141611122Y-89816592D01*
X141639243Y-89833710D01*
X141647641Y-89834195D01*
X141711360Y-89860904D01*
X141786395Y-89926991D01*
X141859358Y-90015674D01*
X141916861Y-90110172D01*
X141945517Y-90193703D01*
X141946620Y-90208959D01*
X141954123Y-90235934D01*
X141984477Y-90252117D01*
X142049666Y-90260128D01*
X142161671Y-90262587D01*
X142192145Y-90262643D01*
X142437556Y-90262643D01*
X142437556Y-89787160D01*
X142437556Y-89311677D01*
X142192145Y-89311677D01*
X142066835Y-89313736D01*
X141991619Y-89321345D01*
X141955333Y-89336654D01*
X141946735Y-89358913D01*
X141925286Y-89445589D01*
X141870319Y-89549038D01*
X141795906Y-89647312D01*
X141716321Y-89718328D01*
X141637311Y-89777294D01*
X141611122Y-89816592D01*
X141179602Y-89816592D01*
X141211743Y-89796728D01*
X141091555Y-89709664D01*
X141003171Y-89626707D01*
X140930990Y-89526974D01*
X140916801Y-89498926D01*
X140873063Y-89399791D01*
X140862236Y-89375251D01*
X140810151Y-89491588D01*
X140713994Y-89634069D01*
X140572385Y-89736514D01*
X140470117Y-89776690D01*
X140351566Y-89812209D01*
X140351566Y-90037426D01*
X140351566Y-90262643D01*
X140290213Y-90262643D01*
X140290213Y-90037426D01*
X140290213Y-89812209D01*
X140159839Y-89773305D01*
X140042274Y-89716700D01*
X139929143Y-89626332D01*
X139837962Y-89519367D01*
X139786246Y-89412974D01*
X139784416Y-89405358D01*
X139763841Y-89311677D01*
X139536206Y-89311677D01*
X139415585Y-89309223D01*
X139345050Y-89300363D01*
X139313474Y-89282848D01*
X139308571Y-89265662D01*
X139320622Y-89241391D01*
X139364175Y-89227144D01*
X139450324Y-89220702D01*
X139538643Y-89219648D01*
X139655781Y-89218523D01*
X139724460Y-89212510D01*
X139757566Y-89197650D01*
X139767985Y-89169983D01*
X139768715Y-89148963D01*
X139784771Y-89082843D01*
X139825713Y-88992749D01*
X139855660Y-88941180D01*
X139933083Y-88843686D01*
X140033099Y-88769607D01*
X140171993Y-88708067D01*
X140237882Y-88685856D01*
X140266450Y-88668635D01*
X140281841Y-88630740D01*
X140286380Y-88562953D01*
X140355105Y-88562953D01*
X140360324Y-88632896D01*
X140376162Y-88668965D01*
X140403896Y-88684397D01*
X140565260Y-88751309D01*
X140698934Y-88845366D01*
X140789041Y-88955070D01*
X140795942Y-88968272D01*
X140835803Y-89043483D01*
X140865608Y-89089102D01*
X140873063Y-89095274D01*
X140896097Y-89071965D01*
X140936095Y-89011854D01*
X140954722Y-88980286D01*
X141024787Y-88890067D01*
X141113233Y-88815428D01*
X141131111Y-88804827D01*
X141200018Y-88763289D01*
X141238362Y-88731576D01*
X141241179Y-88725572D01*
X141578619Y-88725572D01*
X141603011Y-88751238D01*
X141663923Y-88790992D01*
X141688233Y-88804582D01*
X141769247Y-88867321D01*
X141848602Y-88959060D01*
X141911940Y-89059579D01*
X141944903Y-89148656D01*
X141946735Y-89168659D01*
X141955325Y-89194413D01*
X141988913Y-89209869D01*
X142059228Y-89217464D01*
X142177997Y-89219635D01*
X142192145Y-89219648D01*
X142437556Y-89219648D01*
X142496328Y-89219648D01*
X142988440Y-89219648D01*
X143480551Y-89219648D01*
X143480551Y-88712087D01*
X143480551Y-88204526D01*
X143276460Y-88213596D01*
X143072369Y-88222667D01*
X143030204Y-88344785D01*
X142948279Y-88497278D01*
X142824510Y-88621845D01*
X142674799Y-88703095D01*
X142652825Y-88710093D01*
X142514247Y-88750408D01*
X142505287Y-88985028D01*
X142496328Y-89219648D01*
X142437556Y-89219648D01*
X142437556Y-88976674D01*
X142437556Y-88733701D01*
X142343248Y-88712988D01*
X142239477Y-88667820D01*
X142130538Y-88586046D01*
X142037939Y-88486306D01*
X141990576Y-88407295D01*
X141962651Y-88348447D01*
X141945160Y-88341630D01*
X141929153Y-88376049D01*
X141869115Y-88488029D01*
X141781384Y-88590497D01*
X141686340Y-88660375D01*
X141672515Y-88666700D01*
X141608627Y-88698534D01*
X141578892Y-88723933D01*
X141578619Y-88725572D01*
X141241179Y-88725572D01*
X141215939Y-88701524D01*
X141154454Y-88669729D01*
X141147283Y-88666700D01*
X141041416Y-88595339D01*
X140946963Y-88482546D01*
X140879582Y-88348095D01*
X140869464Y-88315838D01*
X140838808Y-88204813D01*
X140602856Y-88213740D01*
X140366904Y-88222667D01*
X140357882Y-88445514D01*
X140355105Y-88562953D01*
X140286380Y-88562953D01*
X140286681Y-88558461D01*
X140283897Y-88445514D01*
X140274875Y-88222667D01*
X140144500Y-88213234D01*
X140051340Y-88198878D01*
X140018138Y-88177849D01*
X140044894Y-88156480D01*
X140131609Y-88141103D01*
X140144500Y-88140071D01*
X140274875Y-88130638D01*
X140284147Y-87969587D01*
X140294051Y-87879583D01*
X140309545Y-87821129D01*
X140320889Y-87808537D01*
X140337835Y-87836220D01*
X140351899Y-87907326D01*
X140357632Y-87969587D01*
X140366904Y-88130638D01*
X140602856Y-88139565D01*
X140838808Y-88148493D01*
X140868558Y-88040748D01*
X140908842Y-87937797D01*
X140964316Y-87840306D01*
X140964960Y-87839399D01*
X141036151Y-87765856D01*
X141133631Y-87696317D01*
X141234806Y-87644589D01*
X141316648Y-87624479D01*
X141353723Y-87598864D01*
X141363885Y-87532450D01*
X141377603Y-87459387D01*
X141409899Y-87440421D01*
X141446573Y-87467621D01*
X141455913Y-87527594D01*
X141464844Y-87587498D01*
X141502800Y-87623804D01*
X141574465Y-87650286D01*
X141735742Y-87724105D01*
X141852613Y-87837775D01*
X141900601Y-87919985D01*
X141954278Y-88033101D01*
X141992055Y-87943256D01*
X142055588Y-87844395D01*
X142152795Y-87747950D01*
X142261920Y-87672685D01*
X142343248Y-87640317D01*
X142402262Y-87621987D01*
X142429593Y-87588491D01*
X142437279Y-87520104D01*
X142437556Y-87485808D01*
X142444772Y-87387713D01*
X142461982Y-87340536D01*
X142482528Y-87346867D01*
X142499754Y-87409297D01*
X142504866Y-87459617D01*
X142513627Y-87547418D01*
X142536132Y-87595136D01*
X142589246Y-87623705D01*
X142652825Y-87643276D01*
X142804856Y-87717205D01*
X142933166Y-87836613D01*
X143021873Y-87986129D01*
X143030204Y-88008521D01*
X143072369Y-88130638D01*
X143276460Y-88139709D01*
X143480551Y-88148779D01*
X143480551Y-87625880D01*
X143480551Y-87102981D01*
X143189126Y-87102981D01*
X143051665Y-87099921D01*
X142952931Y-87091403D01*
X142902345Y-87078419D01*
X142897701Y-87072305D01*
X142926758Y-87057814D01*
X143007611Y-87047412D01*
X143130777Y-87042102D01*
X143187662Y-87041628D01*
X143477624Y-87041628D01*
X143486756Y-86849901D01*
X143495959Y-86750551D01*
X143510917Y-86681260D01*
X143526566Y-86658174D01*
X143543792Y-86686111D01*
G37*
D13*
%TO.C,P2*%
X184718000Y-90459600D02*
X184718000Y-97393500D01*
X170748000Y-83936500D02*
X170748000Y-87036500D01*
X185734000Y-82407500D02*
X185734000Y-84938600D01*
X185550001Y-85938501D02*
G75*
G03*
X184718000Y-90459600I11867999J-4521129D01*
G01*
X185549985Y-85938494D02*
G75*
G03*
X185734000Y-84938600I-2624585J999894D01*
G01*
%TD*%
M02*
