%TF.GenerationSoftware,KiCad,Pcbnew,7.0.10*%
%TF.CreationDate,2024-02-05T23:38:35-06:00*%
%TF.ProjectId,CoCo-FujiNet-Rev000,436f436f-2d46-4756-9a69-4e65742d5265,Rev 000*%
%TF.SameCoordinates,Original*%
%TF.FileFunction,Soldermask,Top*%
%TF.FilePolarity,Negative*%
%FSLAX46Y46*%
G04 Gerber Fmt 4.6, Leading zero omitted, Abs format (unit mm)*
G04 Created by KiCad (PCBNEW 7.0.10) date 2024-02-05 23:38:35*
%MOMM*%
%LPD*%
G01*
G04 APERTURE LIST*
G04 Aperture macros list*
%AMRoundRect*
0 Rectangle with rounded corners*
0 $1 Rounding radius*
0 $2 $3 $4 $5 $6 $7 $8 $9 X,Y pos of 4 corners*
0 Add a 4 corners polygon primitive as box body*
4,1,4,$2,$3,$4,$5,$6,$7,$8,$9,$2,$3,0*
0 Add four circle primitives for the rounded corners*
1,1,$1+$1,$2,$3*
1,1,$1+$1,$4,$5*
1,1,$1+$1,$6,$7*
1,1,$1+$1,$8,$9*
0 Add four rect primitives between the rounded corners*
20,1,$1+$1,$2,$3,$4,$5,0*
20,1,$1+$1,$4,$5,$6,$7,0*
20,1,$1+$1,$6,$7,$8,$9,0*
20,1,$1+$1,$8,$9,$2,$3,0*%
%AMFreePoly0*
4,1,19,0.500000,-0.750000,0.000000,-0.750000,0.000000,-0.744911,-0.071157,-0.744911,-0.207708,-0.704816,-0.327430,-0.627875,-0.420627,-0.520320,-0.479746,-0.390866,-0.500000,-0.250000,-0.500000,0.250000,-0.479746,0.390866,-0.420627,0.520320,-0.327430,0.627875,-0.207708,0.704816,-0.071157,0.744911,0.000000,0.744911,0.000000,0.750000,0.500000,0.750000,0.500000,-0.750000,0.500000,-0.750000,
$1*%
%AMFreePoly1*
4,1,19,0.000000,0.744911,0.071157,0.744911,0.207708,0.704816,0.327430,0.627875,0.420627,0.520320,0.479746,0.390866,0.500000,0.250000,0.500000,-0.250000,0.479746,-0.390866,0.420627,-0.520320,0.327430,-0.627875,0.207708,-0.704816,0.071157,-0.744911,0.000000,-0.744911,0.000000,-0.750000,-0.500000,-0.750000,-0.500000,0.750000,0.000000,0.750000,0.000000,0.744911,0.000000,0.744911,
$1*%
G04 Aperture macros list end*
%ADD10C,0.010000*%
%ADD11RoundRect,0.102000X-4.762500X0.635000X-4.762500X-0.635000X4.762500X-0.635000X4.762500X0.635000X0*%
%ADD12RoundRect,0.102000X-4.171250X0.635000X-4.171250X-0.635000X4.171250X-0.635000X4.171250X0.635000X0*%
%ADD13FreePoly0,0.000000*%
%ADD14FreePoly1,0.000000*%
%ADD15R,1.600000X1.600000*%
%ADD16O,1.600000X1.600000*%
%ADD17C,1.600000*%
%ADD18R,2.200000X2.200000*%
%ADD19O,2.200000X2.200000*%
%ADD20C,1.800000*%
%ADD21R,1.800000X1.800000*%
%ADD22C,1.750000*%
%ADD23C,2.100000*%
%ADD24R,1.700000X1.700000*%
%ADD25O,1.700000X1.700000*%
%ADD26C,3.200000*%
%ADD27R,1.530000X1.530000*%
%ADD28C,1.530000*%
%ADD29RoundRect,0.250001X0.499999X0.924999X-0.499999X0.924999X-0.499999X-0.924999X0.499999X-0.924999X0*%
%ADD30C,0.900000*%
%ADD31R,1.600000X0.700000*%
%ADD32R,1.600000X1.400000*%
%ADD33R,2.200000X1.400000*%
%ADD34R,1.400000X1.800000*%
G04 APERTURE END LIST*
%TO.C,P1*%
D10*
X108184000Y-116619750D02*
X98024000Y-116619750D01*
X98024000Y-63279750D01*
X108184000Y-63279750D01*
X108184000Y-116619750D01*
G36*
X108184000Y-116619750D02*
G01*
X98024000Y-116619750D01*
X98024000Y-63279750D01*
X108184000Y-63279750D01*
X108184000Y-116619750D01*
G37*
%TD*%
D11*
%TO.C,P1*%
X103231000Y-114079750D03*
X103231000Y-111539750D03*
X103231000Y-108999750D03*
X103231000Y-106459750D03*
X103231000Y-103919750D03*
X103231000Y-101379750D03*
X103231000Y-98839750D03*
X103231000Y-96299750D03*
X103231000Y-93759750D03*
X103231000Y-91219750D03*
X103231000Y-88679750D03*
X103231000Y-86139750D03*
X103231000Y-83599750D03*
X103231000Y-81059750D03*
X103231000Y-78519750D03*
D12*
X103824000Y-75979750D03*
D11*
X103231000Y-73439750D03*
X103231000Y-70899750D03*
X103231000Y-68359750D03*
X103231000Y-65819750D03*
%TD*%
D13*
%TO.C,JP1*%
X124390000Y-67130000D03*
D14*
X125690000Y-67130000D03*
%TD*%
D15*
%TO.C,SW1*%
X154584400Y-114528600D03*
D16*
X157124400Y-114528600D03*
X157124400Y-106908600D03*
X154584400Y-106908600D03*
%TD*%
D17*
%TO.C,R2*%
X141097000Y-106807000D03*
D16*
X141097000Y-114427000D03*
%TD*%
D17*
%TO.C,R1*%
X137515600Y-106807000D03*
D16*
X137515600Y-114427000D03*
%TD*%
D18*
%TO.C,D1*%
X131648200Y-111607600D03*
D19*
X131648200Y-101447600D03*
%TD*%
D15*
%TO.C,U1*%
X127493000Y-108144500D03*
D16*
X127493000Y-105604500D03*
X127493000Y-103064500D03*
X127493000Y-100524500D03*
X127493000Y-97984500D03*
X127493000Y-95444500D03*
X127493000Y-92904500D03*
X127493000Y-90364500D03*
X127493000Y-87824500D03*
X127493000Y-85284500D03*
X127493000Y-82744500D03*
X127493000Y-80204500D03*
X127493000Y-77664500D03*
X127493000Y-75124500D03*
X112253000Y-75124500D03*
X112253000Y-77664500D03*
X112253000Y-80204500D03*
X112253000Y-82744500D03*
X112253000Y-85284500D03*
X112253000Y-87824500D03*
X112253000Y-90364500D03*
X112253000Y-92904500D03*
X112253000Y-95444500D03*
X112253000Y-97984500D03*
X112253000Y-100524500D03*
X112253000Y-103064500D03*
X112253000Y-105604500D03*
X112253000Y-108144500D03*
%TD*%
D20*
%TO.C,D2*%
X174478000Y-112527200D03*
D21*
X174478000Y-109987200D03*
%TD*%
D22*
%TO.C,SW2*%
X181229000Y-113487200D03*
X181229000Y-108987200D03*
D23*
X178739000Y-114747200D03*
X178739000Y-107737200D03*
%TD*%
D24*
%TO.C,J1*%
X149713000Y-67464500D03*
D25*
X152253000Y-67464500D03*
X154793000Y-67464500D03*
X157333000Y-67464500D03*
%TD*%
D26*
%TO.C,H1*%
X168148000Y-113919000D03*
%TD*%
D21*
%TO.C,D3*%
X174478000Y-67214500D03*
D20*
X174478000Y-69754500D03*
%TD*%
D27*
%TO.C,U2*%
X136525000Y-102362000D03*
D28*
X139065000Y-102362000D03*
X141605000Y-102362000D03*
X144145000Y-102362000D03*
X146685000Y-102362000D03*
X149225000Y-102362000D03*
X151765000Y-102362000D03*
X154305000Y-102362000D03*
X156845000Y-102362000D03*
X159385000Y-102362000D03*
X161925000Y-102362000D03*
X164465000Y-102362000D03*
X167005000Y-102362000D03*
X169545000Y-102362000D03*
X172085000Y-102362000D03*
X174625000Y-102362000D03*
X177165000Y-102362000D03*
X179705000Y-102362000D03*
X182245000Y-102362000D03*
X182245000Y-76962000D03*
X179705000Y-76962000D03*
X177165000Y-76962000D03*
X174625000Y-76962000D03*
X172085000Y-76962000D03*
X169545000Y-76962000D03*
X167005000Y-76962000D03*
X164465000Y-76962000D03*
X161925000Y-76962000D03*
X159385000Y-76962000D03*
X156845000Y-76962000D03*
X154305000Y-76962000D03*
X151765000Y-76962000D03*
X149225000Y-76962000D03*
X146685000Y-76962000D03*
X144145000Y-76962000D03*
X141605000Y-76962000D03*
X139065000Y-76962000D03*
X136525000Y-76962000D03*
%TD*%
D17*
%TO.C,R3*%
X174244000Y-106172000D03*
D16*
X166624000Y-106172000D03*
%TD*%
D15*
%TO.C,C2*%
X132080000Y-67945000D03*
D17*
X134580000Y-67945000D03*
%TD*%
D29*
%TO.C,C3*%
X167106000Y-90805000D03*
X163856000Y-90805000D03*
%TD*%
D17*
%TO.C,R4*%
X174498000Y-73406000D03*
D16*
X166878000Y-73406000D03*
%TD*%
D23*
%TO.C,SW3*%
X178739000Y-64964500D03*
X178739000Y-71974500D03*
D22*
X181229000Y-66214500D03*
X181229000Y-70714500D03*
%TD*%
D26*
%TO.C,H4*%
X116459000Y-113919000D03*
%TD*%
%TO.C,H3*%
X116459000Y-65786000D03*
%TD*%
D15*
%TO.C,RN1*%
X140335000Y-73660000D03*
D16*
X142875000Y-73660000D03*
X145415000Y-73660000D03*
X147955000Y-73660000D03*
X150495000Y-73660000D03*
X153035000Y-73660000D03*
X155575000Y-73660000D03*
X158115000Y-73660000D03*
X160655000Y-73660000D03*
%TD*%
D17*
%TO.C,C1*%
X123230000Y-111506000D03*
X128230000Y-111506000D03*
%TD*%
D26*
%TO.C,H2*%
X168148000Y-65786000D03*
%TD*%
D30*
%TO.C,P2*%
X181248000Y-94786500D03*
X181248000Y-86786500D03*
D31*
X170748000Y-87586500D03*
X170748000Y-88686500D03*
X170748000Y-89786500D03*
X170748000Y-90886500D03*
X170748000Y-91986500D03*
X170748000Y-93086500D03*
X170748000Y-94186500D03*
X170748000Y-95286500D03*
X170748000Y-96386500D03*
D32*
X171348000Y-97686500D03*
D33*
X180848000Y-97686500D03*
X180848000Y-81986500D03*
D34*
X171248000Y-82886500D03*
%TD*%
M02*
