%TF.GenerationSoftware,KiCad,Pcbnew,7.0.10*%
%TF.CreationDate,2024-02-08T23:41:11-06:00*%
%TF.ProjectId,FujiApple-DevKit-Combo,46756a69-4170-4706-9c65-2d4465764b69,1.0*%
%TF.SameCoordinates,Original*%
%TF.FileFunction,Legend,Bot*%
%TF.FilePolarity,Positive*%
%FSLAX46Y46*%
G04 Gerber Fmt 4.6, Leading zero omitted, Abs format (unit mm)*
G04 Created by KiCad (PCBNEW 7.0.10) date 2024-02-08 23:41:11*
%MOMM*%
%LPD*%
G01*
G04 APERTURE LIST*
%ADD10C,0.150000*%
%ADD11C,0.120000*%
G04 APERTURE END LIST*
D10*
X136116009Y-91473047D02*
X136116009Y-91139714D01*
X136639819Y-91139714D02*
X135639819Y-91139714D01*
X135639819Y-91139714D02*
X135639819Y-91615904D01*
X135973152Y-92425428D02*
X136639819Y-92425428D01*
X135973152Y-91996857D02*
X136496961Y-91996857D01*
X136496961Y-91996857D02*
X136592200Y-92044476D01*
X136592200Y-92044476D02*
X136639819Y-92139714D01*
X136639819Y-92139714D02*
X136639819Y-92282571D01*
X136639819Y-92282571D02*
X136592200Y-92377809D01*
X136592200Y-92377809D02*
X136544580Y-92425428D01*
X135973152Y-92901619D02*
X136830295Y-92901619D01*
X136830295Y-92901619D02*
X136925533Y-92854000D01*
X136925533Y-92854000D02*
X136973152Y-92758762D01*
X136973152Y-92758762D02*
X136973152Y-92711143D01*
X135639819Y-92901619D02*
X135687438Y-92854000D01*
X135687438Y-92854000D02*
X135735057Y-92901619D01*
X135735057Y-92901619D02*
X135687438Y-92949238D01*
X135687438Y-92949238D02*
X135639819Y-92901619D01*
X135639819Y-92901619D02*
X135735057Y-92901619D01*
X136639819Y-93377809D02*
X135973152Y-93377809D01*
X135639819Y-93377809D02*
X135687438Y-93330190D01*
X135687438Y-93330190D02*
X135735057Y-93377809D01*
X135735057Y-93377809D02*
X135687438Y-93425428D01*
X135687438Y-93425428D02*
X135639819Y-93377809D01*
X135639819Y-93377809D02*
X135735057Y-93377809D01*
X136354104Y-93806380D02*
X136354104Y-94282570D01*
X136639819Y-93711142D02*
X135639819Y-94044475D01*
X135639819Y-94044475D02*
X136639819Y-94377808D01*
X135973152Y-94711142D02*
X136973152Y-94711142D01*
X136020771Y-94711142D02*
X135973152Y-94806380D01*
X135973152Y-94806380D02*
X135973152Y-94996856D01*
X135973152Y-94996856D02*
X136020771Y-95092094D01*
X136020771Y-95092094D02*
X136068390Y-95139713D01*
X136068390Y-95139713D02*
X136163628Y-95187332D01*
X136163628Y-95187332D02*
X136449342Y-95187332D01*
X136449342Y-95187332D02*
X136544580Y-95139713D01*
X136544580Y-95139713D02*
X136592200Y-95092094D01*
X136592200Y-95092094D02*
X136639819Y-94996856D01*
X136639819Y-94996856D02*
X136639819Y-94806380D01*
X136639819Y-94806380D02*
X136592200Y-94711142D01*
X135973152Y-95615904D02*
X136973152Y-95615904D01*
X136020771Y-95615904D02*
X135973152Y-95711142D01*
X135973152Y-95711142D02*
X135973152Y-95901618D01*
X135973152Y-95901618D02*
X136020771Y-95996856D01*
X136020771Y-95996856D02*
X136068390Y-96044475D01*
X136068390Y-96044475D02*
X136163628Y-96092094D01*
X136163628Y-96092094D02*
X136449342Y-96092094D01*
X136449342Y-96092094D02*
X136544580Y-96044475D01*
X136544580Y-96044475D02*
X136592200Y-95996856D01*
X136592200Y-95996856D02*
X136639819Y-95901618D01*
X136639819Y-95901618D02*
X136639819Y-95711142D01*
X136639819Y-95711142D02*
X136592200Y-95615904D01*
X136639819Y-96663523D02*
X136592200Y-96568285D01*
X136592200Y-96568285D02*
X136496961Y-96520666D01*
X136496961Y-96520666D02*
X135639819Y-96520666D01*
X136592200Y-97425428D02*
X136639819Y-97330190D01*
X136639819Y-97330190D02*
X136639819Y-97139714D01*
X136639819Y-97139714D02*
X136592200Y-97044476D01*
X136592200Y-97044476D02*
X136496961Y-96996857D01*
X136496961Y-96996857D02*
X136116009Y-96996857D01*
X136116009Y-96996857D02*
X136020771Y-97044476D01*
X136020771Y-97044476D02*
X135973152Y-97139714D01*
X135973152Y-97139714D02*
X135973152Y-97330190D01*
X135973152Y-97330190D02*
X136020771Y-97425428D01*
X136020771Y-97425428D02*
X136116009Y-97473047D01*
X136116009Y-97473047D02*
X136211247Y-97473047D01*
X136211247Y-97473047D02*
X136306485Y-96996857D01*
X136639819Y-98663524D02*
X135639819Y-98663524D01*
X135639819Y-98663524D02*
X135639819Y-98901619D01*
X135639819Y-98901619D02*
X135687438Y-99044476D01*
X135687438Y-99044476D02*
X135782676Y-99139714D01*
X135782676Y-99139714D02*
X135877914Y-99187333D01*
X135877914Y-99187333D02*
X136068390Y-99234952D01*
X136068390Y-99234952D02*
X136211247Y-99234952D01*
X136211247Y-99234952D02*
X136401723Y-99187333D01*
X136401723Y-99187333D02*
X136496961Y-99139714D01*
X136496961Y-99139714D02*
X136592200Y-99044476D01*
X136592200Y-99044476D02*
X136639819Y-98901619D01*
X136639819Y-98901619D02*
X136639819Y-98663524D01*
X136592200Y-100044476D02*
X136639819Y-99949238D01*
X136639819Y-99949238D02*
X136639819Y-99758762D01*
X136639819Y-99758762D02*
X136592200Y-99663524D01*
X136592200Y-99663524D02*
X136496961Y-99615905D01*
X136496961Y-99615905D02*
X136116009Y-99615905D01*
X136116009Y-99615905D02*
X136020771Y-99663524D01*
X136020771Y-99663524D02*
X135973152Y-99758762D01*
X135973152Y-99758762D02*
X135973152Y-99949238D01*
X135973152Y-99949238D02*
X136020771Y-100044476D01*
X136020771Y-100044476D02*
X136116009Y-100092095D01*
X136116009Y-100092095D02*
X136211247Y-100092095D01*
X136211247Y-100092095D02*
X136306485Y-99615905D01*
X135973152Y-100425429D02*
X136639819Y-100663524D01*
X136639819Y-100663524D02*
X135973152Y-100901619D01*
X136639819Y-101282572D02*
X135639819Y-101282572D01*
X136639819Y-101854000D02*
X136068390Y-101425429D01*
X135639819Y-101854000D02*
X136211247Y-101282572D01*
X136639819Y-102282572D02*
X135973152Y-102282572D01*
X135639819Y-102282572D02*
X135687438Y-102234953D01*
X135687438Y-102234953D02*
X135735057Y-102282572D01*
X135735057Y-102282572D02*
X135687438Y-102330191D01*
X135687438Y-102330191D02*
X135639819Y-102282572D01*
X135639819Y-102282572D02*
X135735057Y-102282572D01*
X135973152Y-102615905D02*
X135973152Y-102996857D01*
X135639819Y-102758762D02*
X136496961Y-102758762D01*
X136496961Y-102758762D02*
X136592200Y-102806381D01*
X136592200Y-102806381D02*
X136639819Y-102901619D01*
X136639819Y-102901619D02*
X136639819Y-102996857D01*
X136544580Y-104663524D02*
X136592200Y-104615905D01*
X136592200Y-104615905D02*
X136639819Y-104473048D01*
X136639819Y-104473048D02*
X136639819Y-104377810D01*
X136639819Y-104377810D02*
X136592200Y-104234953D01*
X136592200Y-104234953D02*
X136496961Y-104139715D01*
X136496961Y-104139715D02*
X136401723Y-104092096D01*
X136401723Y-104092096D02*
X136211247Y-104044477D01*
X136211247Y-104044477D02*
X136068390Y-104044477D01*
X136068390Y-104044477D02*
X135877914Y-104092096D01*
X135877914Y-104092096D02*
X135782676Y-104139715D01*
X135782676Y-104139715D02*
X135687438Y-104234953D01*
X135687438Y-104234953D02*
X135639819Y-104377810D01*
X135639819Y-104377810D02*
X135639819Y-104473048D01*
X135639819Y-104473048D02*
X135687438Y-104615905D01*
X135687438Y-104615905D02*
X135735057Y-104663524D01*
X136639819Y-105234953D02*
X136592200Y-105139715D01*
X136592200Y-105139715D02*
X136544580Y-105092096D01*
X136544580Y-105092096D02*
X136449342Y-105044477D01*
X136449342Y-105044477D02*
X136163628Y-105044477D01*
X136163628Y-105044477D02*
X136068390Y-105092096D01*
X136068390Y-105092096D02*
X136020771Y-105139715D01*
X136020771Y-105139715D02*
X135973152Y-105234953D01*
X135973152Y-105234953D02*
X135973152Y-105377810D01*
X135973152Y-105377810D02*
X136020771Y-105473048D01*
X136020771Y-105473048D02*
X136068390Y-105520667D01*
X136068390Y-105520667D02*
X136163628Y-105568286D01*
X136163628Y-105568286D02*
X136449342Y-105568286D01*
X136449342Y-105568286D02*
X136544580Y-105520667D01*
X136544580Y-105520667D02*
X136592200Y-105473048D01*
X136592200Y-105473048D02*
X136639819Y-105377810D01*
X136639819Y-105377810D02*
X136639819Y-105234953D01*
X136639819Y-105996858D02*
X135973152Y-105996858D01*
X136068390Y-105996858D02*
X136020771Y-106044477D01*
X136020771Y-106044477D02*
X135973152Y-106139715D01*
X135973152Y-106139715D02*
X135973152Y-106282572D01*
X135973152Y-106282572D02*
X136020771Y-106377810D01*
X136020771Y-106377810D02*
X136116009Y-106425429D01*
X136116009Y-106425429D02*
X136639819Y-106425429D01*
X136116009Y-106425429D02*
X136020771Y-106473048D01*
X136020771Y-106473048D02*
X135973152Y-106568286D01*
X135973152Y-106568286D02*
X135973152Y-106711143D01*
X135973152Y-106711143D02*
X136020771Y-106806382D01*
X136020771Y-106806382D02*
X136116009Y-106854001D01*
X136116009Y-106854001D02*
X136639819Y-106854001D01*
X136639819Y-107330191D02*
X135639819Y-107330191D01*
X136020771Y-107330191D02*
X135973152Y-107425429D01*
X135973152Y-107425429D02*
X135973152Y-107615905D01*
X135973152Y-107615905D02*
X136020771Y-107711143D01*
X136020771Y-107711143D02*
X136068390Y-107758762D01*
X136068390Y-107758762D02*
X136163628Y-107806381D01*
X136163628Y-107806381D02*
X136449342Y-107806381D01*
X136449342Y-107806381D02*
X136544580Y-107758762D01*
X136544580Y-107758762D02*
X136592200Y-107711143D01*
X136592200Y-107711143D02*
X136639819Y-107615905D01*
X136639819Y-107615905D02*
X136639819Y-107425429D01*
X136639819Y-107425429D02*
X136592200Y-107330191D01*
X136639819Y-108377810D02*
X136592200Y-108282572D01*
X136592200Y-108282572D02*
X136544580Y-108234953D01*
X136544580Y-108234953D02*
X136449342Y-108187334D01*
X136449342Y-108187334D02*
X136163628Y-108187334D01*
X136163628Y-108187334D02*
X136068390Y-108234953D01*
X136068390Y-108234953D02*
X136020771Y-108282572D01*
X136020771Y-108282572D02*
X135973152Y-108377810D01*
X135973152Y-108377810D02*
X135973152Y-108520667D01*
X135973152Y-108520667D02*
X136020771Y-108615905D01*
X136020771Y-108615905D02*
X136068390Y-108663524D01*
X136068390Y-108663524D02*
X136163628Y-108711143D01*
X136163628Y-108711143D02*
X136449342Y-108711143D01*
X136449342Y-108711143D02*
X136544580Y-108663524D01*
X136544580Y-108663524D02*
X136592200Y-108615905D01*
X136592200Y-108615905D02*
X136639819Y-108520667D01*
X136639819Y-108520667D02*
X136639819Y-108377810D01*
X135973152Y-109806382D02*
X136639819Y-110044477D01*
X136639819Y-110044477D02*
X135973152Y-110282572D01*
X136639819Y-111187334D02*
X136639819Y-110615906D01*
X136639819Y-110901620D02*
X135639819Y-110901620D01*
X135639819Y-110901620D02*
X135782676Y-110806382D01*
X135782676Y-110806382D02*
X135877914Y-110711144D01*
X135877914Y-110711144D02*
X135925533Y-110615906D01*
X136544580Y-111615906D02*
X136592200Y-111663525D01*
X136592200Y-111663525D02*
X136639819Y-111615906D01*
X136639819Y-111615906D02*
X136592200Y-111568287D01*
X136592200Y-111568287D02*
X136544580Y-111615906D01*
X136544580Y-111615906D02*
X136639819Y-111615906D01*
X135639819Y-112282572D02*
X135639819Y-112377810D01*
X135639819Y-112377810D02*
X135687438Y-112473048D01*
X135687438Y-112473048D02*
X135735057Y-112520667D01*
X135735057Y-112520667D02*
X135830295Y-112568286D01*
X135830295Y-112568286D02*
X136020771Y-112615905D01*
X136020771Y-112615905D02*
X136258866Y-112615905D01*
X136258866Y-112615905D02*
X136449342Y-112568286D01*
X136449342Y-112568286D02*
X136544580Y-112520667D01*
X136544580Y-112520667D02*
X136592200Y-112473048D01*
X136592200Y-112473048D02*
X136639819Y-112377810D01*
X136639819Y-112377810D02*
X136639819Y-112282572D01*
X136639819Y-112282572D02*
X136592200Y-112187334D01*
X136592200Y-112187334D02*
X136544580Y-112139715D01*
X136544580Y-112139715D02*
X136449342Y-112092096D01*
X136449342Y-112092096D02*
X136258866Y-112044477D01*
X136258866Y-112044477D02*
X136020771Y-112044477D01*
X136020771Y-112044477D02*
X135830295Y-112092096D01*
X135830295Y-112092096D02*
X135735057Y-112139715D01*
X135735057Y-112139715D02*
X135687438Y-112187334D01*
X135687438Y-112187334D02*
X135639819Y-112282572D01*
X137583152Y-83687332D02*
X138392676Y-83687332D01*
X138392676Y-83687332D02*
X138487914Y-83639713D01*
X138487914Y-83639713D02*
X138535533Y-83592094D01*
X138535533Y-83592094D02*
X138583152Y-83496856D01*
X138583152Y-83496856D02*
X138583152Y-83353999D01*
X138583152Y-83353999D02*
X138535533Y-83258761D01*
X138202200Y-83687332D02*
X138249819Y-83592094D01*
X138249819Y-83592094D02*
X138249819Y-83401618D01*
X138249819Y-83401618D02*
X138202200Y-83306380D01*
X138202200Y-83306380D02*
X138154580Y-83258761D01*
X138154580Y-83258761D02*
X138059342Y-83211142D01*
X138059342Y-83211142D02*
X137773628Y-83211142D01*
X137773628Y-83211142D02*
X137678390Y-83258761D01*
X137678390Y-83258761D02*
X137630771Y-83306380D01*
X137630771Y-83306380D02*
X137583152Y-83401618D01*
X137583152Y-83401618D02*
X137583152Y-83592094D01*
X137583152Y-83592094D02*
X137630771Y-83687332D01*
X138249819Y-84163523D02*
X137583152Y-84163523D01*
X137249819Y-84163523D02*
X137297438Y-84115904D01*
X137297438Y-84115904D02*
X137345057Y-84163523D01*
X137345057Y-84163523D02*
X137297438Y-84211142D01*
X137297438Y-84211142D02*
X137249819Y-84163523D01*
X137249819Y-84163523D02*
X137345057Y-84163523D01*
X137583152Y-84496856D02*
X137583152Y-84877808D01*
X137249819Y-84639713D02*
X138106961Y-84639713D01*
X138106961Y-84639713D02*
X138202200Y-84687332D01*
X138202200Y-84687332D02*
X138249819Y-84782570D01*
X138249819Y-84782570D02*
X138249819Y-84877808D01*
X138249819Y-85211142D02*
X137249819Y-85211142D01*
X138249819Y-85639713D02*
X137726009Y-85639713D01*
X137726009Y-85639713D02*
X137630771Y-85592094D01*
X137630771Y-85592094D02*
X137583152Y-85496856D01*
X137583152Y-85496856D02*
X137583152Y-85353999D01*
X137583152Y-85353999D02*
X137630771Y-85258761D01*
X137630771Y-85258761D02*
X137678390Y-85211142D01*
X137583152Y-86544475D02*
X138249819Y-86544475D01*
X137583152Y-86115904D02*
X138106961Y-86115904D01*
X138106961Y-86115904D02*
X138202200Y-86163523D01*
X138202200Y-86163523D02*
X138249819Y-86258761D01*
X138249819Y-86258761D02*
X138249819Y-86401618D01*
X138249819Y-86401618D02*
X138202200Y-86496856D01*
X138202200Y-86496856D02*
X138154580Y-86544475D01*
X138249819Y-87020666D02*
X137249819Y-87020666D01*
X137630771Y-87020666D02*
X137583152Y-87115904D01*
X137583152Y-87115904D02*
X137583152Y-87306380D01*
X137583152Y-87306380D02*
X137630771Y-87401618D01*
X137630771Y-87401618D02*
X137678390Y-87449237D01*
X137678390Y-87449237D02*
X137773628Y-87496856D01*
X137773628Y-87496856D02*
X138059342Y-87496856D01*
X138059342Y-87496856D02*
X138154580Y-87449237D01*
X138154580Y-87449237D02*
X138202200Y-87401618D01*
X138202200Y-87401618D02*
X138249819Y-87306380D01*
X138249819Y-87306380D02*
X138249819Y-87115904D01*
X138249819Y-87115904D02*
X138202200Y-87020666D01*
X138154580Y-87925428D02*
X138202200Y-87973047D01*
X138202200Y-87973047D02*
X138249819Y-87925428D01*
X138249819Y-87925428D02*
X138202200Y-87877809D01*
X138202200Y-87877809D02*
X138154580Y-87925428D01*
X138154580Y-87925428D02*
X138249819Y-87925428D01*
X138202200Y-88830189D02*
X138249819Y-88734951D01*
X138249819Y-88734951D02*
X138249819Y-88544475D01*
X138249819Y-88544475D02*
X138202200Y-88449237D01*
X138202200Y-88449237D02*
X138154580Y-88401618D01*
X138154580Y-88401618D02*
X138059342Y-88353999D01*
X138059342Y-88353999D02*
X137773628Y-88353999D01*
X137773628Y-88353999D02*
X137678390Y-88401618D01*
X137678390Y-88401618D02*
X137630771Y-88449237D01*
X137630771Y-88449237D02*
X137583152Y-88544475D01*
X137583152Y-88544475D02*
X137583152Y-88734951D01*
X137583152Y-88734951D02*
X137630771Y-88830189D01*
X138249819Y-89401618D02*
X138202200Y-89306380D01*
X138202200Y-89306380D02*
X138154580Y-89258761D01*
X138154580Y-89258761D02*
X138059342Y-89211142D01*
X138059342Y-89211142D02*
X137773628Y-89211142D01*
X137773628Y-89211142D02*
X137678390Y-89258761D01*
X137678390Y-89258761D02*
X137630771Y-89306380D01*
X137630771Y-89306380D02*
X137583152Y-89401618D01*
X137583152Y-89401618D02*
X137583152Y-89544475D01*
X137583152Y-89544475D02*
X137630771Y-89639713D01*
X137630771Y-89639713D02*
X137678390Y-89687332D01*
X137678390Y-89687332D02*
X137773628Y-89734951D01*
X137773628Y-89734951D02*
X138059342Y-89734951D01*
X138059342Y-89734951D02*
X138154580Y-89687332D01*
X138154580Y-89687332D02*
X138202200Y-89639713D01*
X138202200Y-89639713D02*
X138249819Y-89544475D01*
X138249819Y-89544475D02*
X138249819Y-89401618D01*
X138249819Y-90163523D02*
X137583152Y-90163523D01*
X137678390Y-90163523D02*
X137630771Y-90211142D01*
X137630771Y-90211142D02*
X137583152Y-90306380D01*
X137583152Y-90306380D02*
X137583152Y-90449237D01*
X137583152Y-90449237D02*
X137630771Y-90544475D01*
X137630771Y-90544475D02*
X137726009Y-90592094D01*
X137726009Y-90592094D02*
X138249819Y-90592094D01*
X137726009Y-90592094D02*
X137630771Y-90639713D01*
X137630771Y-90639713D02*
X137583152Y-90734951D01*
X137583152Y-90734951D02*
X137583152Y-90877808D01*
X137583152Y-90877808D02*
X137630771Y-90973047D01*
X137630771Y-90973047D02*
X137726009Y-91020666D01*
X137726009Y-91020666D02*
X138249819Y-91020666D01*
X137202200Y-92211141D02*
X138487914Y-91353999D01*
X138249819Y-92973046D02*
X137249819Y-92973046D01*
X138202200Y-92973046D02*
X138249819Y-92877808D01*
X138249819Y-92877808D02*
X138249819Y-92687332D01*
X138249819Y-92687332D02*
X138202200Y-92592094D01*
X138202200Y-92592094D02*
X138154580Y-92544475D01*
X138154580Y-92544475D02*
X138059342Y-92496856D01*
X138059342Y-92496856D02*
X137773628Y-92496856D01*
X137773628Y-92496856D02*
X137678390Y-92544475D01*
X137678390Y-92544475D02*
X137630771Y-92592094D01*
X137630771Y-92592094D02*
X137583152Y-92687332D01*
X137583152Y-92687332D02*
X137583152Y-92877808D01*
X137583152Y-92877808D02*
X137630771Y-92973046D01*
X137583152Y-93449237D02*
X138440295Y-93449237D01*
X138440295Y-93449237D02*
X138535533Y-93401618D01*
X138535533Y-93401618D02*
X138583152Y-93306380D01*
X138583152Y-93306380D02*
X138583152Y-93258761D01*
X137249819Y-93449237D02*
X137297438Y-93401618D01*
X137297438Y-93401618D02*
X137345057Y-93449237D01*
X137345057Y-93449237D02*
X137297438Y-93496856D01*
X137297438Y-93496856D02*
X137249819Y-93449237D01*
X137249819Y-93449237D02*
X137345057Y-93449237D01*
X137583152Y-93782570D02*
X137583152Y-94163522D01*
X137249819Y-93925427D02*
X138106961Y-93925427D01*
X138106961Y-93925427D02*
X138202200Y-93973046D01*
X138202200Y-93973046D02*
X138249819Y-94068284D01*
X138249819Y-94068284D02*
X138249819Y-94163522D01*
X138202200Y-94877808D02*
X138249819Y-94782570D01*
X138249819Y-94782570D02*
X138249819Y-94592094D01*
X138249819Y-94592094D02*
X138202200Y-94496856D01*
X138202200Y-94496856D02*
X138106961Y-94449237D01*
X138106961Y-94449237D02*
X137726009Y-94449237D01*
X137726009Y-94449237D02*
X137630771Y-94496856D01*
X137630771Y-94496856D02*
X137583152Y-94592094D01*
X137583152Y-94592094D02*
X137583152Y-94782570D01*
X137583152Y-94782570D02*
X137630771Y-94877808D01*
X137630771Y-94877808D02*
X137726009Y-94925427D01*
X137726009Y-94925427D02*
X137821247Y-94925427D01*
X137821247Y-94925427D02*
X137916485Y-94449237D01*
X138249819Y-95353999D02*
X137583152Y-95353999D01*
X137773628Y-95353999D02*
X137678390Y-95401618D01*
X137678390Y-95401618D02*
X137630771Y-95449237D01*
X137630771Y-95449237D02*
X137583152Y-95544475D01*
X137583152Y-95544475D02*
X137583152Y-95639713D01*
X138202200Y-95925428D02*
X138249819Y-96020666D01*
X138249819Y-96020666D02*
X138249819Y-96211142D01*
X138249819Y-96211142D02*
X138202200Y-96306380D01*
X138202200Y-96306380D02*
X138106961Y-96353999D01*
X138106961Y-96353999D02*
X138059342Y-96353999D01*
X138059342Y-96353999D02*
X137964104Y-96306380D01*
X137964104Y-96306380D02*
X137916485Y-96211142D01*
X137916485Y-96211142D02*
X137916485Y-96068285D01*
X137916485Y-96068285D02*
X137868866Y-95973047D01*
X137868866Y-95973047D02*
X137773628Y-95925428D01*
X137773628Y-95925428D02*
X137726009Y-95925428D01*
X137726009Y-95925428D02*
X137630771Y-95973047D01*
X137630771Y-95973047D02*
X137583152Y-96068285D01*
X137583152Y-96068285D02*
X137583152Y-96211142D01*
X137583152Y-96211142D02*
X137630771Y-96306380D01*
X137583152Y-96639714D02*
X137583152Y-97020666D01*
X137249819Y-96782571D02*
X138106961Y-96782571D01*
X138106961Y-96782571D02*
X138202200Y-96830190D01*
X138202200Y-96830190D02*
X138249819Y-96925428D01*
X138249819Y-96925428D02*
X138249819Y-97020666D01*
X138202200Y-97734952D02*
X138249819Y-97639714D01*
X138249819Y-97639714D02*
X138249819Y-97449238D01*
X138249819Y-97449238D02*
X138202200Y-97354000D01*
X138202200Y-97354000D02*
X138106961Y-97306381D01*
X138106961Y-97306381D02*
X137726009Y-97306381D01*
X137726009Y-97306381D02*
X137630771Y-97354000D01*
X137630771Y-97354000D02*
X137583152Y-97449238D01*
X137583152Y-97449238D02*
X137583152Y-97639714D01*
X137583152Y-97639714D02*
X137630771Y-97734952D01*
X137630771Y-97734952D02*
X137726009Y-97782571D01*
X137726009Y-97782571D02*
X137821247Y-97782571D01*
X137821247Y-97782571D02*
X137916485Y-97306381D01*
X138202200Y-98592095D02*
X138249819Y-98496857D01*
X138249819Y-98496857D02*
X138249819Y-98306381D01*
X138249819Y-98306381D02*
X138202200Y-98211143D01*
X138202200Y-98211143D02*
X138106961Y-98163524D01*
X138106961Y-98163524D02*
X137726009Y-98163524D01*
X137726009Y-98163524D02*
X137630771Y-98211143D01*
X137630771Y-98211143D02*
X137583152Y-98306381D01*
X137583152Y-98306381D02*
X137583152Y-98496857D01*
X137583152Y-98496857D02*
X137630771Y-98592095D01*
X137630771Y-98592095D02*
X137726009Y-98639714D01*
X137726009Y-98639714D02*
X137821247Y-98639714D01*
X137821247Y-98639714D02*
X137916485Y-98163524D01*
X137583152Y-99496857D02*
X138392676Y-99496857D01*
X138392676Y-99496857D02*
X138487914Y-99449238D01*
X138487914Y-99449238D02*
X138535533Y-99401619D01*
X138535533Y-99401619D02*
X138583152Y-99306381D01*
X138583152Y-99306381D02*
X138583152Y-99163524D01*
X138583152Y-99163524D02*
X138535533Y-99068286D01*
X138202200Y-99496857D02*
X138249819Y-99401619D01*
X138249819Y-99401619D02*
X138249819Y-99211143D01*
X138249819Y-99211143D02*
X138202200Y-99115905D01*
X138202200Y-99115905D02*
X138154580Y-99068286D01*
X138154580Y-99068286D02*
X138059342Y-99020667D01*
X138059342Y-99020667D02*
X137773628Y-99020667D01*
X137773628Y-99020667D02*
X137678390Y-99068286D01*
X137678390Y-99068286D02*
X137630771Y-99115905D01*
X137630771Y-99115905D02*
X137583152Y-99211143D01*
X137583152Y-99211143D02*
X137583152Y-99401619D01*
X137583152Y-99401619D02*
X137630771Y-99496857D01*
X138202200Y-100401619D02*
X138249819Y-100306381D01*
X138249819Y-100306381D02*
X138249819Y-100115905D01*
X138249819Y-100115905D02*
X138202200Y-100020667D01*
X138202200Y-100020667D02*
X138154580Y-99973048D01*
X138154580Y-99973048D02*
X138059342Y-99925429D01*
X138059342Y-99925429D02*
X137773628Y-99925429D01*
X137773628Y-99925429D02*
X137678390Y-99973048D01*
X137678390Y-99973048D02*
X137630771Y-100020667D01*
X137630771Y-100020667D02*
X137583152Y-100115905D01*
X137583152Y-100115905D02*
X137583152Y-100306381D01*
X137583152Y-100306381D02*
X137630771Y-100401619D01*
X137202200Y-101544476D02*
X138487914Y-100687334D01*
X137583152Y-101734953D02*
X137583152Y-102115905D01*
X138249819Y-101877810D02*
X137392676Y-101877810D01*
X137392676Y-101877810D02*
X137297438Y-101925429D01*
X137297438Y-101925429D02*
X137249819Y-102020667D01*
X137249819Y-102020667D02*
X137249819Y-102115905D01*
X137583152Y-102877810D02*
X138249819Y-102877810D01*
X137583152Y-102449239D02*
X138106961Y-102449239D01*
X138106961Y-102449239D02*
X138202200Y-102496858D01*
X138202200Y-102496858D02*
X138249819Y-102592096D01*
X138249819Y-102592096D02*
X138249819Y-102734953D01*
X138249819Y-102734953D02*
X138202200Y-102830191D01*
X138202200Y-102830191D02*
X138154580Y-102877810D01*
X137583152Y-103354001D02*
X138440295Y-103354001D01*
X138440295Y-103354001D02*
X138535533Y-103306382D01*
X138535533Y-103306382D02*
X138583152Y-103211144D01*
X138583152Y-103211144D02*
X138583152Y-103163525D01*
X137249819Y-103354001D02*
X137297438Y-103306382D01*
X137297438Y-103306382D02*
X137345057Y-103354001D01*
X137345057Y-103354001D02*
X137297438Y-103401620D01*
X137297438Y-103401620D02*
X137249819Y-103354001D01*
X137249819Y-103354001D02*
X137345057Y-103354001D01*
X138249819Y-103830191D02*
X137583152Y-103830191D01*
X137249819Y-103830191D02*
X137297438Y-103782572D01*
X137297438Y-103782572D02*
X137345057Y-103830191D01*
X137345057Y-103830191D02*
X137297438Y-103877810D01*
X137297438Y-103877810D02*
X137249819Y-103830191D01*
X137249819Y-103830191D02*
X137345057Y-103830191D01*
X137583152Y-104306381D02*
X138249819Y-104306381D01*
X137678390Y-104306381D02*
X137630771Y-104354000D01*
X137630771Y-104354000D02*
X137583152Y-104449238D01*
X137583152Y-104449238D02*
X137583152Y-104592095D01*
X137583152Y-104592095D02*
X137630771Y-104687333D01*
X137630771Y-104687333D02*
X137726009Y-104734952D01*
X137726009Y-104734952D02*
X138249819Y-104734952D01*
X138202200Y-105592095D02*
X138249819Y-105496857D01*
X138249819Y-105496857D02*
X138249819Y-105306381D01*
X138249819Y-105306381D02*
X138202200Y-105211143D01*
X138202200Y-105211143D02*
X138106961Y-105163524D01*
X138106961Y-105163524D02*
X137726009Y-105163524D01*
X137726009Y-105163524D02*
X137630771Y-105211143D01*
X137630771Y-105211143D02*
X137583152Y-105306381D01*
X137583152Y-105306381D02*
X137583152Y-105496857D01*
X137583152Y-105496857D02*
X137630771Y-105592095D01*
X137630771Y-105592095D02*
X137726009Y-105639714D01*
X137726009Y-105639714D02*
X137821247Y-105639714D01*
X137821247Y-105639714D02*
X137916485Y-105163524D01*
X137583152Y-105925429D02*
X137583152Y-106306381D01*
X137249819Y-106068286D02*
X138106961Y-106068286D01*
X138106961Y-106068286D02*
X138202200Y-106115905D01*
X138202200Y-106115905D02*
X138249819Y-106211143D01*
X138249819Y-106211143D02*
X138249819Y-106306381D01*
X137868866Y-106639715D02*
X137868866Y-107401620D01*
X138249819Y-108306381D02*
X137726009Y-108306381D01*
X137726009Y-108306381D02*
X137630771Y-108258762D01*
X137630771Y-108258762D02*
X137583152Y-108163524D01*
X137583152Y-108163524D02*
X137583152Y-107973048D01*
X137583152Y-107973048D02*
X137630771Y-107877810D01*
X138202200Y-108306381D02*
X138249819Y-108211143D01*
X138249819Y-108211143D02*
X138249819Y-107973048D01*
X138249819Y-107973048D02*
X138202200Y-107877810D01*
X138202200Y-107877810D02*
X138106961Y-107830191D01*
X138106961Y-107830191D02*
X138011723Y-107830191D01*
X138011723Y-107830191D02*
X137916485Y-107877810D01*
X137916485Y-107877810D02*
X137868866Y-107973048D01*
X137868866Y-107973048D02*
X137868866Y-108211143D01*
X137868866Y-108211143D02*
X137821247Y-108306381D01*
X137583152Y-108782572D02*
X138583152Y-108782572D01*
X137630771Y-108782572D02*
X137583152Y-108877810D01*
X137583152Y-108877810D02*
X137583152Y-109068286D01*
X137583152Y-109068286D02*
X137630771Y-109163524D01*
X137630771Y-109163524D02*
X137678390Y-109211143D01*
X137678390Y-109211143D02*
X137773628Y-109258762D01*
X137773628Y-109258762D02*
X138059342Y-109258762D01*
X138059342Y-109258762D02*
X138154580Y-109211143D01*
X138154580Y-109211143D02*
X138202200Y-109163524D01*
X138202200Y-109163524D02*
X138249819Y-109068286D01*
X138249819Y-109068286D02*
X138249819Y-108877810D01*
X138249819Y-108877810D02*
X138202200Y-108782572D01*
X137583152Y-109687334D02*
X138583152Y-109687334D01*
X137630771Y-109687334D02*
X137583152Y-109782572D01*
X137583152Y-109782572D02*
X137583152Y-109973048D01*
X137583152Y-109973048D02*
X137630771Y-110068286D01*
X137630771Y-110068286D02*
X137678390Y-110115905D01*
X137678390Y-110115905D02*
X137773628Y-110163524D01*
X137773628Y-110163524D02*
X138059342Y-110163524D01*
X138059342Y-110163524D02*
X138154580Y-110115905D01*
X138154580Y-110115905D02*
X138202200Y-110068286D01*
X138202200Y-110068286D02*
X138249819Y-109973048D01*
X138249819Y-109973048D02*
X138249819Y-109782572D01*
X138249819Y-109782572D02*
X138202200Y-109687334D01*
X138249819Y-110734953D02*
X138202200Y-110639715D01*
X138202200Y-110639715D02*
X138106961Y-110592096D01*
X138106961Y-110592096D02*
X137249819Y-110592096D01*
X138202200Y-111496858D02*
X138249819Y-111401620D01*
X138249819Y-111401620D02*
X138249819Y-111211144D01*
X138249819Y-111211144D02*
X138202200Y-111115906D01*
X138202200Y-111115906D02*
X138106961Y-111068287D01*
X138106961Y-111068287D02*
X137726009Y-111068287D01*
X137726009Y-111068287D02*
X137630771Y-111115906D01*
X137630771Y-111115906D02*
X137583152Y-111211144D01*
X137583152Y-111211144D02*
X137583152Y-111401620D01*
X137583152Y-111401620D02*
X137630771Y-111496858D01*
X137630771Y-111496858D02*
X137726009Y-111544477D01*
X137726009Y-111544477D02*
X137821247Y-111544477D01*
X137821247Y-111544477D02*
X137916485Y-111068287D01*
X138249819Y-111973049D02*
X137583152Y-111973049D01*
X137249819Y-111973049D02*
X137297438Y-111925430D01*
X137297438Y-111925430D02*
X137345057Y-111973049D01*
X137345057Y-111973049D02*
X137297438Y-112020668D01*
X137297438Y-112020668D02*
X137249819Y-111973049D01*
X137249819Y-111973049D02*
X137345057Y-111973049D01*
X138249819Y-112449239D02*
X137583152Y-112449239D01*
X137249819Y-112449239D02*
X137297438Y-112401620D01*
X137297438Y-112401620D02*
X137345057Y-112449239D01*
X137345057Y-112449239D02*
X137297438Y-112496858D01*
X137297438Y-112496858D02*
X137249819Y-112449239D01*
X137249819Y-112449239D02*
X137345057Y-112449239D01*
X137868866Y-112925429D02*
X137868866Y-113687334D01*
X138249819Y-114163524D02*
X137249819Y-114163524D01*
X138249819Y-114592095D02*
X137726009Y-114592095D01*
X137726009Y-114592095D02*
X137630771Y-114544476D01*
X137630771Y-114544476D02*
X137583152Y-114449238D01*
X137583152Y-114449238D02*
X137583152Y-114306381D01*
X137583152Y-114306381D02*
X137630771Y-114211143D01*
X137630771Y-114211143D02*
X137678390Y-114163524D01*
X138249819Y-115496857D02*
X137726009Y-115496857D01*
X137726009Y-115496857D02*
X137630771Y-115449238D01*
X137630771Y-115449238D02*
X137583152Y-115354000D01*
X137583152Y-115354000D02*
X137583152Y-115163524D01*
X137583152Y-115163524D02*
X137630771Y-115068286D01*
X138202200Y-115496857D02*
X138249819Y-115401619D01*
X138249819Y-115401619D02*
X138249819Y-115163524D01*
X138249819Y-115163524D02*
X138202200Y-115068286D01*
X138202200Y-115068286D02*
X138106961Y-115020667D01*
X138106961Y-115020667D02*
X138011723Y-115020667D01*
X138011723Y-115020667D02*
X137916485Y-115068286D01*
X137916485Y-115068286D02*
X137868866Y-115163524D01*
X137868866Y-115163524D02*
X137868866Y-115401619D01*
X137868866Y-115401619D02*
X137821247Y-115496857D01*
X138249819Y-115973048D02*
X137583152Y-115973048D01*
X137773628Y-115973048D02*
X137678390Y-116020667D01*
X137678390Y-116020667D02*
X137630771Y-116068286D01*
X137630771Y-116068286D02*
X137583152Y-116163524D01*
X137583152Y-116163524D02*
X137583152Y-116258762D01*
X138249819Y-117020667D02*
X137249819Y-117020667D01*
X138202200Y-117020667D02*
X138249819Y-116925429D01*
X138249819Y-116925429D02*
X138249819Y-116734953D01*
X138249819Y-116734953D02*
X138202200Y-116639715D01*
X138202200Y-116639715D02*
X138154580Y-116592096D01*
X138154580Y-116592096D02*
X138059342Y-116544477D01*
X138059342Y-116544477D02*
X137773628Y-116544477D01*
X137773628Y-116544477D02*
X137678390Y-116592096D01*
X137678390Y-116592096D02*
X137630771Y-116639715D01*
X137630771Y-116639715D02*
X137583152Y-116734953D01*
X137583152Y-116734953D02*
X137583152Y-116925429D01*
X137583152Y-116925429D02*
X137630771Y-117020667D01*
X137583152Y-117401620D02*
X138249819Y-117592096D01*
X138249819Y-117592096D02*
X137773628Y-117782572D01*
X137773628Y-117782572D02*
X138249819Y-117973048D01*
X138249819Y-117973048D02*
X137583152Y-118163524D01*
X138249819Y-118973048D02*
X137726009Y-118973048D01*
X137726009Y-118973048D02*
X137630771Y-118925429D01*
X137630771Y-118925429D02*
X137583152Y-118830191D01*
X137583152Y-118830191D02*
X137583152Y-118639715D01*
X137583152Y-118639715D02*
X137630771Y-118544477D01*
X138202200Y-118973048D02*
X138249819Y-118877810D01*
X138249819Y-118877810D02*
X138249819Y-118639715D01*
X138249819Y-118639715D02*
X138202200Y-118544477D01*
X138202200Y-118544477D02*
X138106961Y-118496858D01*
X138106961Y-118496858D02*
X138011723Y-118496858D01*
X138011723Y-118496858D02*
X137916485Y-118544477D01*
X137916485Y-118544477D02*
X137868866Y-118639715D01*
X137868866Y-118639715D02*
X137868866Y-118877810D01*
X137868866Y-118877810D02*
X137821247Y-118973048D01*
X138249819Y-119449239D02*
X137583152Y-119449239D01*
X137773628Y-119449239D02*
X137678390Y-119496858D01*
X137678390Y-119496858D02*
X137630771Y-119544477D01*
X137630771Y-119544477D02*
X137583152Y-119639715D01*
X137583152Y-119639715D02*
X137583152Y-119734953D01*
X138202200Y-120449239D02*
X138249819Y-120354001D01*
X138249819Y-120354001D02*
X138249819Y-120163525D01*
X138249819Y-120163525D02*
X138202200Y-120068287D01*
X138202200Y-120068287D02*
X138106961Y-120020668D01*
X138106961Y-120020668D02*
X137726009Y-120020668D01*
X137726009Y-120020668D02*
X137630771Y-120068287D01*
X137630771Y-120068287D02*
X137583152Y-120163525D01*
X137583152Y-120163525D02*
X137583152Y-120354001D01*
X137583152Y-120354001D02*
X137630771Y-120449239D01*
X137630771Y-120449239D02*
X137726009Y-120496858D01*
X137726009Y-120496858D02*
X137821247Y-120496858D01*
X137821247Y-120496858D02*
X137916485Y-120020668D01*
X139859819Y-93592094D02*
X138859819Y-93592094D01*
X138859819Y-93592094D02*
X138859819Y-93973046D01*
X138859819Y-93973046D02*
X138907438Y-94068284D01*
X138907438Y-94068284D02*
X138955057Y-94115903D01*
X138955057Y-94115903D02*
X139050295Y-94163522D01*
X139050295Y-94163522D02*
X139193152Y-94163522D01*
X139193152Y-94163522D02*
X139288390Y-94115903D01*
X139288390Y-94115903D02*
X139336009Y-94068284D01*
X139336009Y-94068284D02*
X139383628Y-93973046D01*
X139383628Y-93973046D02*
X139383628Y-93592094D01*
X139764580Y-95163522D02*
X139812200Y-95115903D01*
X139812200Y-95115903D02*
X139859819Y-94973046D01*
X139859819Y-94973046D02*
X139859819Y-94877808D01*
X139859819Y-94877808D02*
X139812200Y-94734951D01*
X139812200Y-94734951D02*
X139716961Y-94639713D01*
X139716961Y-94639713D02*
X139621723Y-94592094D01*
X139621723Y-94592094D02*
X139431247Y-94544475D01*
X139431247Y-94544475D02*
X139288390Y-94544475D01*
X139288390Y-94544475D02*
X139097914Y-94592094D01*
X139097914Y-94592094D02*
X139002676Y-94639713D01*
X139002676Y-94639713D02*
X138907438Y-94734951D01*
X138907438Y-94734951D02*
X138859819Y-94877808D01*
X138859819Y-94877808D02*
X138859819Y-94973046D01*
X138859819Y-94973046D02*
X138907438Y-95115903D01*
X138907438Y-95115903D02*
X138955057Y-95163522D01*
X139336009Y-95925427D02*
X139383628Y-96068284D01*
X139383628Y-96068284D02*
X139431247Y-96115903D01*
X139431247Y-96115903D02*
X139526485Y-96163522D01*
X139526485Y-96163522D02*
X139669342Y-96163522D01*
X139669342Y-96163522D02*
X139764580Y-96115903D01*
X139764580Y-96115903D02*
X139812200Y-96068284D01*
X139812200Y-96068284D02*
X139859819Y-95973046D01*
X139859819Y-95973046D02*
X139859819Y-95592094D01*
X139859819Y-95592094D02*
X138859819Y-95592094D01*
X138859819Y-95592094D02*
X138859819Y-95925427D01*
X138859819Y-95925427D02*
X138907438Y-96020665D01*
X138907438Y-96020665D02*
X138955057Y-96068284D01*
X138955057Y-96068284D02*
X139050295Y-96115903D01*
X139050295Y-96115903D02*
X139145533Y-96115903D01*
X139145533Y-96115903D02*
X139240771Y-96068284D01*
X139240771Y-96068284D02*
X139288390Y-96020665D01*
X139288390Y-96020665D02*
X139336009Y-95925427D01*
X139336009Y-95925427D02*
X139336009Y-95592094D01*
X139859819Y-97353999D02*
X138859819Y-97353999D01*
X139240771Y-97353999D02*
X139193152Y-97449237D01*
X139193152Y-97449237D02*
X139193152Y-97639713D01*
X139193152Y-97639713D02*
X139240771Y-97734951D01*
X139240771Y-97734951D02*
X139288390Y-97782570D01*
X139288390Y-97782570D02*
X139383628Y-97830189D01*
X139383628Y-97830189D02*
X139669342Y-97830189D01*
X139669342Y-97830189D02*
X139764580Y-97782570D01*
X139764580Y-97782570D02*
X139812200Y-97734951D01*
X139812200Y-97734951D02*
X139859819Y-97639713D01*
X139859819Y-97639713D02*
X139859819Y-97449237D01*
X139859819Y-97449237D02*
X139812200Y-97353999D01*
X139193152Y-98163523D02*
X139859819Y-98401618D01*
X139193152Y-98639713D02*
X139859819Y-98401618D01*
X139859819Y-98401618D02*
X140097914Y-98306380D01*
X140097914Y-98306380D02*
X140145533Y-98258761D01*
X140145533Y-98258761D02*
X140193152Y-98163523D01*
X139764580Y-100353999D02*
X139812200Y-100306380D01*
X139812200Y-100306380D02*
X139859819Y-100163523D01*
X139859819Y-100163523D02*
X139859819Y-100068285D01*
X139859819Y-100068285D02*
X139812200Y-99925428D01*
X139812200Y-99925428D02*
X139716961Y-99830190D01*
X139716961Y-99830190D02*
X139621723Y-99782571D01*
X139621723Y-99782571D02*
X139431247Y-99734952D01*
X139431247Y-99734952D02*
X139288390Y-99734952D01*
X139288390Y-99734952D02*
X139097914Y-99782571D01*
X139097914Y-99782571D02*
X139002676Y-99830190D01*
X139002676Y-99830190D02*
X138907438Y-99925428D01*
X138907438Y-99925428D02*
X138859819Y-100068285D01*
X138859819Y-100068285D02*
X138859819Y-100163523D01*
X138859819Y-100163523D02*
X138907438Y-100306380D01*
X138907438Y-100306380D02*
X138955057Y-100353999D01*
X139859819Y-100782571D02*
X138859819Y-100782571D01*
X139859819Y-101211142D02*
X139336009Y-101211142D01*
X139336009Y-101211142D02*
X139240771Y-101163523D01*
X139240771Y-101163523D02*
X139193152Y-101068285D01*
X139193152Y-101068285D02*
X139193152Y-100925428D01*
X139193152Y-100925428D02*
X139240771Y-100830190D01*
X139240771Y-100830190D02*
X139288390Y-100782571D01*
X139859819Y-101687333D02*
X139193152Y-101687333D01*
X139383628Y-101687333D02*
X139288390Y-101734952D01*
X139288390Y-101734952D02*
X139240771Y-101782571D01*
X139240771Y-101782571D02*
X139193152Y-101877809D01*
X139193152Y-101877809D02*
X139193152Y-101973047D01*
X139859819Y-102306381D02*
X139193152Y-102306381D01*
X138859819Y-102306381D02*
X138907438Y-102258762D01*
X138907438Y-102258762D02*
X138955057Y-102306381D01*
X138955057Y-102306381D02*
X138907438Y-102354000D01*
X138907438Y-102354000D02*
X138859819Y-102306381D01*
X138859819Y-102306381D02*
X138955057Y-102306381D01*
X139812200Y-102734952D02*
X139859819Y-102830190D01*
X139859819Y-102830190D02*
X139859819Y-103020666D01*
X139859819Y-103020666D02*
X139812200Y-103115904D01*
X139812200Y-103115904D02*
X139716961Y-103163523D01*
X139716961Y-103163523D02*
X139669342Y-103163523D01*
X139669342Y-103163523D02*
X139574104Y-103115904D01*
X139574104Y-103115904D02*
X139526485Y-103020666D01*
X139526485Y-103020666D02*
X139526485Y-102877809D01*
X139526485Y-102877809D02*
X139478866Y-102782571D01*
X139478866Y-102782571D02*
X139383628Y-102734952D01*
X139383628Y-102734952D02*
X139336009Y-102734952D01*
X139336009Y-102734952D02*
X139240771Y-102782571D01*
X139240771Y-102782571D02*
X139193152Y-102877809D01*
X139193152Y-102877809D02*
X139193152Y-103020666D01*
X139193152Y-103020666D02*
X139240771Y-103115904D01*
X138859819Y-104211143D02*
X138859819Y-104782571D01*
X139859819Y-104496857D02*
X138859819Y-104496857D01*
X139812200Y-105496857D02*
X139859819Y-105401619D01*
X139859819Y-105401619D02*
X139859819Y-105211143D01*
X139859819Y-105211143D02*
X139812200Y-105115905D01*
X139812200Y-105115905D02*
X139716961Y-105068286D01*
X139716961Y-105068286D02*
X139336009Y-105068286D01*
X139336009Y-105068286D02*
X139240771Y-105115905D01*
X139240771Y-105115905D02*
X139193152Y-105211143D01*
X139193152Y-105211143D02*
X139193152Y-105401619D01*
X139193152Y-105401619D02*
X139240771Y-105496857D01*
X139240771Y-105496857D02*
X139336009Y-105544476D01*
X139336009Y-105544476D02*
X139431247Y-105544476D01*
X139431247Y-105544476D02*
X139526485Y-105068286D01*
X139859819Y-105973048D02*
X139193152Y-105973048D01*
X139383628Y-105973048D02*
X139288390Y-106020667D01*
X139288390Y-106020667D02*
X139240771Y-106068286D01*
X139240771Y-106068286D02*
X139193152Y-106163524D01*
X139193152Y-106163524D02*
X139193152Y-106258762D01*
X139812200Y-106544477D02*
X139859819Y-106639715D01*
X139859819Y-106639715D02*
X139859819Y-106830191D01*
X139859819Y-106830191D02*
X139812200Y-106925429D01*
X139812200Y-106925429D02*
X139716961Y-106973048D01*
X139716961Y-106973048D02*
X139669342Y-106973048D01*
X139669342Y-106973048D02*
X139574104Y-106925429D01*
X139574104Y-106925429D02*
X139526485Y-106830191D01*
X139526485Y-106830191D02*
X139526485Y-106687334D01*
X139526485Y-106687334D02*
X139478866Y-106592096D01*
X139478866Y-106592096D02*
X139383628Y-106544477D01*
X139383628Y-106544477D02*
X139336009Y-106544477D01*
X139336009Y-106544477D02*
X139240771Y-106592096D01*
X139240771Y-106592096D02*
X139193152Y-106687334D01*
X139193152Y-106687334D02*
X139193152Y-106830191D01*
X139193152Y-106830191D02*
X139240771Y-106925429D01*
X139193152Y-107258763D02*
X139193152Y-107639715D01*
X138859819Y-107401620D02*
X139716961Y-107401620D01*
X139716961Y-107401620D02*
X139812200Y-107449239D01*
X139812200Y-107449239D02*
X139859819Y-107544477D01*
X139859819Y-107544477D02*
X139859819Y-107639715D01*
X139812200Y-108354001D02*
X139859819Y-108258763D01*
X139859819Y-108258763D02*
X139859819Y-108068287D01*
X139859819Y-108068287D02*
X139812200Y-107973049D01*
X139812200Y-107973049D02*
X139716961Y-107925430D01*
X139716961Y-107925430D02*
X139336009Y-107925430D01*
X139336009Y-107925430D02*
X139240771Y-107973049D01*
X139240771Y-107973049D02*
X139193152Y-108068287D01*
X139193152Y-108068287D02*
X139193152Y-108258763D01*
X139193152Y-108258763D02*
X139240771Y-108354001D01*
X139240771Y-108354001D02*
X139336009Y-108401620D01*
X139336009Y-108401620D02*
X139431247Y-108401620D01*
X139431247Y-108401620D02*
X139526485Y-107925430D01*
X139812200Y-109211144D02*
X139859819Y-109115906D01*
X139859819Y-109115906D02*
X139859819Y-108925430D01*
X139859819Y-108925430D02*
X139812200Y-108830192D01*
X139812200Y-108830192D02*
X139716961Y-108782573D01*
X139716961Y-108782573D02*
X139336009Y-108782573D01*
X139336009Y-108782573D02*
X139240771Y-108830192D01*
X139240771Y-108830192D02*
X139193152Y-108925430D01*
X139193152Y-108925430D02*
X139193152Y-109115906D01*
X139193152Y-109115906D02*
X139240771Y-109211144D01*
X139240771Y-109211144D02*
X139336009Y-109258763D01*
X139336009Y-109258763D02*
X139431247Y-109258763D01*
X139431247Y-109258763D02*
X139526485Y-108782573D01*
X139193152Y-110115906D02*
X140002676Y-110115906D01*
X140002676Y-110115906D02*
X140097914Y-110068287D01*
X140097914Y-110068287D02*
X140145533Y-110020668D01*
X140145533Y-110020668D02*
X140193152Y-109925430D01*
X140193152Y-109925430D02*
X140193152Y-109782573D01*
X140193152Y-109782573D02*
X140145533Y-109687335D01*
X139812200Y-110115906D02*
X139859819Y-110020668D01*
X139859819Y-110020668D02*
X139859819Y-109830192D01*
X139859819Y-109830192D02*
X139812200Y-109734954D01*
X139812200Y-109734954D02*
X139764580Y-109687335D01*
X139764580Y-109687335D02*
X139669342Y-109639716D01*
X139669342Y-109639716D02*
X139383628Y-109639716D01*
X139383628Y-109639716D02*
X139288390Y-109687335D01*
X139288390Y-109687335D02*
X139240771Y-109734954D01*
X139240771Y-109734954D02*
X139193152Y-109830192D01*
X139193152Y-109830192D02*
X139193152Y-110020668D01*
X139193152Y-110020668D02*
X139240771Y-110115906D01*
X165463810Y-80698819D02*
X165273334Y-80698819D01*
X165273334Y-80698819D02*
X165178096Y-80746438D01*
X165178096Y-80746438D02*
X165082858Y-80841676D01*
X165082858Y-80841676D02*
X165035239Y-81032152D01*
X165035239Y-81032152D02*
X165035239Y-81365485D01*
X165035239Y-81365485D02*
X165082858Y-81555961D01*
X165082858Y-81555961D02*
X165178096Y-81651200D01*
X165178096Y-81651200D02*
X165273334Y-81698819D01*
X165273334Y-81698819D02*
X165463810Y-81698819D01*
X165463810Y-81698819D02*
X165559048Y-81651200D01*
X165559048Y-81651200D02*
X165654286Y-81555961D01*
X165654286Y-81555961D02*
X165701905Y-81365485D01*
X165701905Y-81365485D02*
X165701905Y-81032152D01*
X165701905Y-81032152D02*
X165654286Y-80841676D01*
X165654286Y-80841676D02*
X165559048Y-80746438D01*
X165559048Y-80746438D02*
X165463810Y-80698819D01*
X164606667Y-81698819D02*
X164606667Y-81032152D01*
X164606667Y-81222628D02*
X164559048Y-81127390D01*
X164559048Y-81127390D02*
X164511429Y-81079771D01*
X164511429Y-81079771D02*
X164416191Y-81032152D01*
X164416191Y-81032152D02*
X164320953Y-81032152D01*
X163987619Y-81698819D02*
X163987619Y-81032152D01*
X163987619Y-80698819D02*
X164035238Y-80746438D01*
X164035238Y-80746438D02*
X163987619Y-80794057D01*
X163987619Y-80794057D02*
X163940000Y-80746438D01*
X163940000Y-80746438D02*
X163987619Y-80698819D01*
X163987619Y-80698819D02*
X163987619Y-80794057D01*
X163082858Y-81032152D02*
X163082858Y-81841676D01*
X163082858Y-81841676D02*
X163130477Y-81936914D01*
X163130477Y-81936914D02*
X163178096Y-81984533D01*
X163178096Y-81984533D02*
X163273334Y-82032152D01*
X163273334Y-82032152D02*
X163416191Y-82032152D01*
X163416191Y-82032152D02*
X163511429Y-81984533D01*
X163082858Y-81651200D02*
X163178096Y-81698819D01*
X163178096Y-81698819D02*
X163368572Y-81698819D01*
X163368572Y-81698819D02*
X163463810Y-81651200D01*
X163463810Y-81651200D02*
X163511429Y-81603580D01*
X163511429Y-81603580D02*
X163559048Y-81508342D01*
X163559048Y-81508342D02*
X163559048Y-81222628D01*
X163559048Y-81222628D02*
X163511429Y-81127390D01*
X163511429Y-81127390D02*
X163463810Y-81079771D01*
X163463810Y-81079771D02*
X163368572Y-81032152D01*
X163368572Y-81032152D02*
X163178096Y-81032152D01*
X163178096Y-81032152D02*
X163082858Y-81079771D01*
X162606667Y-81698819D02*
X162606667Y-81032152D01*
X162606667Y-80698819D02*
X162654286Y-80746438D01*
X162654286Y-80746438D02*
X162606667Y-80794057D01*
X162606667Y-80794057D02*
X162559048Y-80746438D01*
X162559048Y-80746438D02*
X162606667Y-80698819D01*
X162606667Y-80698819D02*
X162606667Y-80794057D01*
X162130477Y-81032152D02*
X162130477Y-81698819D01*
X162130477Y-81127390D02*
X162082858Y-81079771D01*
X162082858Y-81079771D02*
X161987620Y-81032152D01*
X161987620Y-81032152D02*
X161844763Y-81032152D01*
X161844763Y-81032152D02*
X161749525Y-81079771D01*
X161749525Y-81079771D02*
X161701906Y-81175009D01*
X161701906Y-81175009D02*
X161701906Y-81698819D01*
X160797144Y-81698819D02*
X160797144Y-81175009D01*
X160797144Y-81175009D02*
X160844763Y-81079771D01*
X160844763Y-81079771D02*
X160940001Y-81032152D01*
X160940001Y-81032152D02*
X161130477Y-81032152D01*
X161130477Y-81032152D02*
X161225715Y-81079771D01*
X160797144Y-81651200D02*
X160892382Y-81698819D01*
X160892382Y-81698819D02*
X161130477Y-81698819D01*
X161130477Y-81698819D02*
X161225715Y-81651200D01*
X161225715Y-81651200D02*
X161273334Y-81555961D01*
X161273334Y-81555961D02*
X161273334Y-81460723D01*
X161273334Y-81460723D02*
X161225715Y-81365485D01*
X161225715Y-81365485D02*
X161130477Y-81317866D01*
X161130477Y-81317866D02*
X160892382Y-81317866D01*
X160892382Y-81317866D02*
X160797144Y-81270247D01*
X160178096Y-81698819D02*
X160273334Y-81651200D01*
X160273334Y-81651200D02*
X160320953Y-81555961D01*
X160320953Y-81555961D02*
X160320953Y-80698819D01*
X158606667Y-81698819D02*
X158606667Y-80698819D01*
X158606667Y-81651200D02*
X158701905Y-81698819D01*
X158701905Y-81698819D02*
X158892381Y-81698819D01*
X158892381Y-81698819D02*
X158987619Y-81651200D01*
X158987619Y-81651200D02*
X159035238Y-81603580D01*
X159035238Y-81603580D02*
X159082857Y-81508342D01*
X159082857Y-81508342D02*
X159082857Y-81222628D01*
X159082857Y-81222628D02*
X159035238Y-81127390D01*
X159035238Y-81127390D02*
X158987619Y-81079771D01*
X158987619Y-81079771D02*
X158892381Y-81032152D01*
X158892381Y-81032152D02*
X158701905Y-81032152D01*
X158701905Y-81032152D02*
X158606667Y-81079771D01*
X157749524Y-81651200D02*
X157844762Y-81698819D01*
X157844762Y-81698819D02*
X158035238Y-81698819D01*
X158035238Y-81698819D02*
X158130476Y-81651200D01*
X158130476Y-81651200D02*
X158178095Y-81555961D01*
X158178095Y-81555961D02*
X158178095Y-81175009D01*
X158178095Y-81175009D02*
X158130476Y-81079771D01*
X158130476Y-81079771D02*
X158035238Y-81032152D01*
X158035238Y-81032152D02*
X157844762Y-81032152D01*
X157844762Y-81032152D02*
X157749524Y-81079771D01*
X157749524Y-81079771D02*
X157701905Y-81175009D01*
X157701905Y-81175009D02*
X157701905Y-81270247D01*
X157701905Y-81270247D02*
X158178095Y-81365485D01*
X157320952Y-81651200D02*
X157225714Y-81698819D01*
X157225714Y-81698819D02*
X157035238Y-81698819D01*
X157035238Y-81698819D02*
X156940000Y-81651200D01*
X156940000Y-81651200D02*
X156892381Y-81555961D01*
X156892381Y-81555961D02*
X156892381Y-81508342D01*
X156892381Y-81508342D02*
X156940000Y-81413104D01*
X156940000Y-81413104D02*
X157035238Y-81365485D01*
X157035238Y-81365485D02*
X157178095Y-81365485D01*
X157178095Y-81365485D02*
X157273333Y-81317866D01*
X157273333Y-81317866D02*
X157320952Y-81222628D01*
X157320952Y-81222628D02*
X157320952Y-81175009D01*
X157320952Y-81175009D02*
X157273333Y-81079771D01*
X157273333Y-81079771D02*
X157178095Y-81032152D01*
X157178095Y-81032152D02*
X157035238Y-81032152D01*
X157035238Y-81032152D02*
X156940000Y-81079771D01*
X156463809Y-81698819D02*
X156463809Y-81032152D01*
X156463809Y-80698819D02*
X156511428Y-80746438D01*
X156511428Y-80746438D02*
X156463809Y-80794057D01*
X156463809Y-80794057D02*
X156416190Y-80746438D01*
X156416190Y-80746438D02*
X156463809Y-80698819D01*
X156463809Y-80698819D02*
X156463809Y-80794057D01*
X155559048Y-81032152D02*
X155559048Y-81841676D01*
X155559048Y-81841676D02*
X155606667Y-81936914D01*
X155606667Y-81936914D02*
X155654286Y-81984533D01*
X155654286Y-81984533D02*
X155749524Y-82032152D01*
X155749524Y-82032152D02*
X155892381Y-82032152D01*
X155892381Y-82032152D02*
X155987619Y-81984533D01*
X155559048Y-81651200D02*
X155654286Y-81698819D01*
X155654286Y-81698819D02*
X155844762Y-81698819D01*
X155844762Y-81698819D02*
X155940000Y-81651200D01*
X155940000Y-81651200D02*
X155987619Y-81603580D01*
X155987619Y-81603580D02*
X156035238Y-81508342D01*
X156035238Y-81508342D02*
X156035238Y-81222628D01*
X156035238Y-81222628D02*
X155987619Y-81127390D01*
X155987619Y-81127390D02*
X155940000Y-81079771D01*
X155940000Y-81079771D02*
X155844762Y-81032152D01*
X155844762Y-81032152D02*
X155654286Y-81032152D01*
X155654286Y-81032152D02*
X155559048Y-81079771D01*
X155082857Y-81032152D02*
X155082857Y-81698819D01*
X155082857Y-81127390D02*
X155035238Y-81079771D01*
X155035238Y-81079771D02*
X154940000Y-81032152D01*
X154940000Y-81032152D02*
X154797143Y-81032152D01*
X154797143Y-81032152D02*
X154701905Y-81079771D01*
X154701905Y-81079771D02*
X154654286Y-81175009D01*
X154654286Y-81175009D02*
X154654286Y-81698819D01*
X153416190Y-81698819D02*
X153416190Y-80698819D01*
X153416190Y-81079771D02*
X153320952Y-81032152D01*
X153320952Y-81032152D02*
X153130476Y-81032152D01*
X153130476Y-81032152D02*
X153035238Y-81079771D01*
X153035238Y-81079771D02*
X152987619Y-81127390D01*
X152987619Y-81127390D02*
X152940000Y-81222628D01*
X152940000Y-81222628D02*
X152940000Y-81508342D01*
X152940000Y-81508342D02*
X152987619Y-81603580D01*
X152987619Y-81603580D02*
X153035238Y-81651200D01*
X153035238Y-81651200D02*
X153130476Y-81698819D01*
X153130476Y-81698819D02*
X153320952Y-81698819D01*
X153320952Y-81698819D02*
X153416190Y-81651200D01*
X152606666Y-81032152D02*
X152368571Y-81698819D01*
X152130476Y-81032152D02*
X152368571Y-81698819D01*
X152368571Y-81698819D02*
X152463809Y-81936914D01*
X152463809Y-81936914D02*
X152511428Y-81984533D01*
X152511428Y-81984533D02*
X152606666Y-82032152D01*
X150987618Y-81698819D02*
X150987618Y-81032152D01*
X150987618Y-81127390D02*
X150939999Y-81079771D01*
X150939999Y-81079771D02*
X150844761Y-81032152D01*
X150844761Y-81032152D02*
X150701904Y-81032152D01*
X150701904Y-81032152D02*
X150606666Y-81079771D01*
X150606666Y-81079771D02*
X150559047Y-81175009D01*
X150559047Y-81175009D02*
X150559047Y-81698819D01*
X150559047Y-81175009D02*
X150511428Y-81079771D01*
X150511428Y-81079771D02*
X150416190Y-81032152D01*
X150416190Y-81032152D02*
X150273333Y-81032152D01*
X150273333Y-81032152D02*
X150178094Y-81079771D01*
X150178094Y-81079771D02*
X150130475Y-81175009D01*
X150130475Y-81175009D02*
X150130475Y-81698819D01*
X149511428Y-81698819D02*
X149606666Y-81651200D01*
X149606666Y-81651200D02*
X149654285Y-81603580D01*
X149654285Y-81603580D02*
X149701904Y-81508342D01*
X149701904Y-81508342D02*
X149701904Y-81222628D01*
X149701904Y-81222628D02*
X149654285Y-81127390D01*
X149654285Y-81127390D02*
X149606666Y-81079771D01*
X149606666Y-81079771D02*
X149511428Y-81032152D01*
X149511428Y-81032152D02*
X149368571Y-81032152D01*
X149368571Y-81032152D02*
X149273333Y-81079771D01*
X149273333Y-81079771D02*
X149225714Y-81127390D01*
X149225714Y-81127390D02*
X149178095Y-81222628D01*
X149178095Y-81222628D02*
X149178095Y-81508342D01*
X149178095Y-81508342D02*
X149225714Y-81603580D01*
X149225714Y-81603580D02*
X149273333Y-81651200D01*
X149273333Y-81651200D02*
X149368571Y-81698819D01*
X149368571Y-81698819D02*
X149511428Y-81698819D01*
X148844761Y-81032152D02*
X148320952Y-81032152D01*
X148320952Y-81032152D02*
X148844761Y-81698819D01*
X148844761Y-81698819D02*
X148320952Y-81698819D01*
X148035237Y-81032152D02*
X147511428Y-81032152D01*
X147511428Y-81032152D02*
X148035237Y-81698819D01*
X148035237Y-81698819D02*
X147511428Y-81698819D01*
X147225713Y-81032152D02*
X147035237Y-81698819D01*
X147035237Y-81698819D02*
X146844761Y-81222628D01*
X146844761Y-81222628D02*
X146654285Y-81698819D01*
X146654285Y-81698819D02*
X146463809Y-81032152D01*
X145654285Y-81698819D02*
X145654285Y-81175009D01*
X145654285Y-81175009D02*
X145701904Y-81079771D01*
X145701904Y-81079771D02*
X145797142Y-81032152D01*
X145797142Y-81032152D02*
X145987618Y-81032152D01*
X145987618Y-81032152D02*
X146082856Y-81079771D01*
X145654285Y-81651200D02*
X145749523Y-81698819D01*
X145749523Y-81698819D02*
X145987618Y-81698819D01*
X145987618Y-81698819D02*
X146082856Y-81651200D01*
X146082856Y-81651200D02*
X146130475Y-81555961D01*
X146130475Y-81555961D02*
X146130475Y-81460723D01*
X146130475Y-81460723D02*
X146082856Y-81365485D01*
X146082856Y-81365485D02*
X145987618Y-81317866D01*
X145987618Y-81317866D02*
X145749523Y-81317866D01*
X145749523Y-81317866D02*
X145654285Y-81270247D01*
X145035237Y-81698819D02*
X145130475Y-81651200D01*
X145130475Y-81651200D02*
X145178094Y-81555961D01*
X145178094Y-81555961D02*
X145178094Y-80698819D01*
X144225713Y-81698819D02*
X144225713Y-80698819D01*
X144225713Y-81651200D02*
X144320951Y-81698819D01*
X144320951Y-81698819D02*
X144511427Y-81698819D01*
X144511427Y-81698819D02*
X144606665Y-81651200D01*
X144606665Y-81651200D02*
X144654284Y-81603580D01*
X144654284Y-81603580D02*
X144701903Y-81508342D01*
X144701903Y-81508342D02*
X144701903Y-81222628D01*
X144701903Y-81222628D02*
X144654284Y-81127390D01*
X144654284Y-81127390D02*
X144606665Y-81079771D01*
X144606665Y-81079771D02*
X144511427Y-81032152D01*
X144511427Y-81032152D02*
X144320951Y-81032152D01*
X144320951Y-81032152D02*
X144225713Y-81079771D01*
X162011427Y-82642152D02*
X161630475Y-82642152D01*
X161868570Y-83308819D02*
X161868570Y-82451676D01*
X161868570Y-82451676D02*
X161820951Y-82356438D01*
X161820951Y-82356438D02*
X161725713Y-82308819D01*
X161725713Y-82308819D02*
X161630475Y-82308819D01*
X160868570Y-82642152D02*
X160868570Y-83308819D01*
X161297141Y-82642152D02*
X161297141Y-83165961D01*
X161297141Y-83165961D02*
X161249522Y-83261200D01*
X161249522Y-83261200D02*
X161154284Y-83308819D01*
X161154284Y-83308819D02*
X161011427Y-83308819D01*
X161011427Y-83308819D02*
X160916189Y-83261200D01*
X160916189Y-83261200D02*
X160868570Y-83213580D01*
X160392379Y-82642152D02*
X160392379Y-83499295D01*
X160392379Y-83499295D02*
X160439998Y-83594533D01*
X160439998Y-83594533D02*
X160535236Y-83642152D01*
X160535236Y-83642152D02*
X160582855Y-83642152D01*
X160392379Y-82308819D02*
X160439998Y-82356438D01*
X160439998Y-82356438D02*
X160392379Y-82404057D01*
X160392379Y-82404057D02*
X160344760Y-82356438D01*
X160344760Y-82356438D02*
X160392379Y-82308819D01*
X160392379Y-82308819D02*
X160392379Y-82404057D01*
X159916189Y-83308819D02*
X159916189Y-82642152D01*
X159916189Y-82308819D02*
X159963808Y-82356438D01*
X159963808Y-82356438D02*
X159916189Y-82404057D01*
X159916189Y-82404057D02*
X159868570Y-82356438D01*
X159868570Y-82356438D02*
X159916189Y-82308819D01*
X159916189Y-82308819D02*
X159916189Y-82404057D01*
X159439999Y-82642152D02*
X159439999Y-83308819D01*
X159439999Y-82737390D02*
X159392380Y-82689771D01*
X159392380Y-82689771D02*
X159297142Y-82642152D01*
X159297142Y-82642152D02*
X159154285Y-82642152D01*
X159154285Y-82642152D02*
X159059047Y-82689771D01*
X159059047Y-82689771D02*
X159011428Y-82785009D01*
X159011428Y-82785009D02*
X159011428Y-83308819D01*
X158154285Y-83261200D02*
X158249523Y-83308819D01*
X158249523Y-83308819D02*
X158439999Y-83308819D01*
X158439999Y-83308819D02*
X158535237Y-83261200D01*
X158535237Y-83261200D02*
X158582856Y-83165961D01*
X158582856Y-83165961D02*
X158582856Y-82785009D01*
X158582856Y-82785009D02*
X158535237Y-82689771D01*
X158535237Y-82689771D02*
X158439999Y-82642152D01*
X158439999Y-82642152D02*
X158249523Y-82642152D01*
X158249523Y-82642152D02*
X158154285Y-82689771D01*
X158154285Y-82689771D02*
X158106666Y-82785009D01*
X158106666Y-82785009D02*
X158106666Y-82880247D01*
X158106666Y-82880247D02*
X158582856Y-82975485D01*
X157820951Y-82642152D02*
X157439999Y-82642152D01*
X157678094Y-82308819D02*
X157678094Y-83165961D01*
X157678094Y-83165961D02*
X157630475Y-83261200D01*
X157630475Y-83261200D02*
X157535237Y-83308819D01*
X157535237Y-83308819D02*
X157439999Y-83308819D01*
X157201903Y-82642152D02*
X157011427Y-83308819D01*
X157011427Y-83308819D02*
X156820951Y-82832628D01*
X156820951Y-82832628D02*
X156630475Y-83308819D01*
X156630475Y-83308819D02*
X156439999Y-82642152D01*
X156059046Y-83308819D02*
X156059046Y-82642152D01*
X156059046Y-82308819D02*
X156106665Y-82356438D01*
X156106665Y-82356438D02*
X156059046Y-82404057D01*
X156059046Y-82404057D02*
X156011427Y-82356438D01*
X156011427Y-82356438D02*
X156059046Y-82308819D01*
X156059046Y-82308819D02*
X156059046Y-82404057D01*
X155725713Y-82642152D02*
X155344761Y-82642152D01*
X155582856Y-83308819D02*
X155582856Y-82451676D01*
X155582856Y-82451676D02*
X155535237Y-82356438D01*
X155535237Y-82356438D02*
X155439999Y-82308819D01*
X155439999Y-82308819D02*
X155344761Y-82308819D01*
X155011427Y-83308819D02*
X155011427Y-82642152D01*
X155011427Y-82308819D02*
X155059046Y-82356438D01*
X155059046Y-82356438D02*
X155011427Y-82404057D01*
X155011427Y-82404057D02*
X154963808Y-82356438D01*
X154963808Y-82356438D02*
X155011427Y-82308819D01*
X155011427Y-82308819D02*
X155011427Y-82404057D01*
X154535237Y-83213580D02*
X154487618Y-83261200D01*
X154487618Y-83261200D02*
X154535237Y-83308819D01*
X154535237Y-83308819D02*
X154582856Y-83261200D01*
X154582856Y-83261200D02*
X154535237Y-83213580D01*
X154535237Y-83213580D02*
X154535237Y-83308819D01*
X153630476Y-82642152D02*
X153630476Y-83451676D01*
X153630476Y-83451676D02*
X153678095Y-83546914D01*
X153678095Y-83546914D02*
X153725714Y-83594533D01*
X153725714Y-83594533D02*
X153820952Y-83642152D01*
X153820952Y-83642152D02*
X153963809Y-83642152D01*
X153963809Y-83642152D02*
X154059047Y-83594533D01*
X153630476Y-83261200D02*
X153725714Y-83308819D01*
X153725714Y-83308819D02*
X153916190Y-83308819D01*
X153916190Y-83308819D02*
X154011428Y-83261200D01*
X154011428Y-83261200D02*
X154059047Y-83213580D01*
X154059047Y-83213580D02*
X154106666Y-83118342D01*
X154106666Y-83118342D02*
X154106666Y-82832628D01*
X154106666Y-82832628D02*
X154059047Y-82737390D01*
X154059047Y-82737390D02*
X154011428Y-82689771D01*
X154011428Y-82689771D02*
X153916190Y-82642152D01*
X153916190Y-82642152D02*
X153725714Y-82642152D01*
X153725714Y-82642152D02*
X153630476Y-82689771D01*
X153154285Y-83308819D02*
X153154285Y-82642152D01*
X153154285Y-82308819D02*
X153201904Y-82356438D01*
X153201904Y-82356438D02*
X153154285Y-82404057D01*
X153154285Y-82404057D02*
X153106666Y-82356438D01*
X153106666Y-82356438D02*
X153154285Y-82308819D01*
X153154285Y-82308819D02*
X153154285Y-82404057D01*
X152820952Y-82642152D02*
X152440000Y-82642152D01*
X152678095Y-82308819D02*
X152678095Y-83165961D01*
X152678095Y-83165961D02*
X152630476Y-83261200D01*
X152630476Y-83261200D02*
X152535238Y-83308819D01*
X152535238Y-83308819D02*
X152440000Y-83308819D01*
X152106666Y-83308819D02*
X152106666Y-82308819D01*
X151678095Y-83308819D02*
X151678095Y-82785009D01*
X151678095Y-82785009D02*
X151725714Y-82689771D01*
X151725714Y-82689771D02*
X151820952Y-82642152D01*
X151820952Y-82642152D02*
X151963809Y-82642152D01*
X151963809Y-82642152D02*
X152059047Y-82689771D01*
X152059047Y-82689771D02*
X152106666Y-82737390D01*
X150773333Y-82642152D02*
X150773333Y-83308819D01*
X151201904Y-82642152D02*
X151201904Y-83165961D01*
X151201904Y-83165961D02*
X151154285Y-83261200D01*
X151154285Y-83261200D02*
X151059047Y-83308819D01*
X151059047Y-83308819D02*
X150916190Y-83308819D01*
X150916190Y-83308819D02*
X150820952Y-83261200D01*
X150820952Y-83261200D02*
X150773333Y-83213580D01*
X150297142Y-83308819D02*
X150297142Y-82308819D01*
X150297142Y-82689771D02*
X150201904Y-82642152D01*
X150201904Y-82642152D02*
X150011428Y-82642152D01*
X150011428Y-82642152D02*
X149916190Y-82689771D01*
X149916190Y-82689771D02*
X149868571Y-82737390D01*
X149868571Y-82737390D02*
X149820952Y-82832628D01*
X149820952Y-82832628D02*
X149820952Y-83118342D01*
X149820952Y-83118342D02*
X149868571Y-83213580D01*
X149868571Y-83213580D02*
X149916190Y-83261200D01*
X149916190Y-83261200D02*
X150011428Y-83308819D01*
X150011428Y-83308819D02*
X150201904Y-83308819D01*
X150201904Y-83308819D02*
X150297142Y-83261200D01*
X149392380Y-83213580D02*
X149344761Y-83261200D01*
X149344761Y-83261200D02*
X149392380Y-83308819D01*
X149392380Y-83308819D02*
X149439999Y-83261200D01*
X149439999Y-83261200D02*
X149392380Y-83213580D01*
X149392380Y-83213580D02*
X149392380Y-83308819D01*
X148916190Y-83308819D02*
X148916190Y-82642152D01*
X148916190Y-82308819D02*
X148963809Y-82356438D01*
X148963809Y-82356438D02*
X148916190Y-82404057D01*
X148916190Y-82404057D02*
X148868571Y-82356438D01*
X148868571Y-82356438D02*
X148916190Y-82308819D01*
X148916190Y-82308819D02*
X148916190Y-82404057D01*
X148297143Y-83308819D02*
X148392381Y-83261200D01*
X148392381Y-83261200D02*
X148440000Y-83213580D01*
X148440000Y-83213580D02*
X148487619Y-83118342D01*
X148487619Y-83118342D02*
X148487619Y-82832628D01*
X148487619Y-82832628D02*
X148440000Y-82737390D01*
X148440000Y-82737390D02*
X148392381Y-82689771D01*
X148392381Y-82689771D02*
X148297143Y-82642152D01*
X148297143Y-82642152D02*
X148154286Y-82642152D01*
X148154286Y-82642152D02*
X148059048Y-82689771D01*
X148059048Y-82689771D02*
X148011429Y-82737390D01*
X148011429Y-82737390D02*
X147963810Y-82832628D01*
X147963810Y-82832628D02*
X147963810Y-83118342D01*
X147963810Y-83118342D02*
X148011429Y-83213580D01*
X148011429Y-83213580D02*
X148059048Y-83261200D01*
X148059048Y-83261200D02*
X148154286Y-83308819D01*
X148154286Y-83308819D02*
X148297143Y-83308819D01*
X170513333Y-127724819D02*
X170513333Y-128439104D01*
X170513333Y-128439104D02*
X170560952Y-128581961D01*
X170560952Y-128581961D02*
X170656190Y-128677200D01*
X170656190Y-128677200D02*
X170799047Y-128724819D01*
X170799047Y-128724819D02*
X170894285Y-128724819D01*
X169513333Y-128724819D02*
X170084761Y-128724819D01*
X169799047Y-128724819D02*
X169799047Y-127724819D01*
X169799047Y-127724819D02*
X169894285Y-127867676D01*
X169894285Y-127867676D02*
X169989523Y-127962914D01*
X169989523Y-127962914D02*
X170084761Y-128010533D01*
D11*
%TO.C,J1*%
X169484470Y-126008256D02*
X168585202Y-131108256D01*
X167849689Y-124060000D02*
X141687265Y-124060000D01*
X167488000Y-121065662D02*
X166988000Y-121065662D01*
X167238000Y-121498675D02*
X167488000Y-121065662D01*
X166988000Y-121065662D02*
X167238000Y-121498675D01*
X166950421Y-132480000D02*
X142600222Y-132480000D01*
X140061530Y-126008256D02*
X140960798Y-131108256D01*
X166950421Y-132479999D02*
G75*
G03*
X168585201Y-131108256I1J1659998D01*
G01*
X169484470Y-126008256D02*
G75*
G03*
X167849689Y-124060000I-1634780J288257D01*
G01*
X140965436Y-131108257D02*
G75*
G03*
X142600222Y-132480000I1634814J288297D01*
G01*
X141687265Y-124060002D02*
G75*
G03*
X140052484Y-126008256I-145J-1659878D01*
G01*
%TD*%
M02*
