%TF.GenerationSoftware,KiCad,Pcbnew,7.0.10*%
%TF.CreationDate,2024-02-08T23:41:11-06:00*%
%TF.ProjectId,FujiApple-DevKit-Combo,46756a69-4170-4706-9c65-2d4465764b69,1.0*%
%TF.SameCoordinates,Original*%
%TF.FileFunction,Legend,Top*%
%TF.FilePolarity,Positive*%
%FSLAX46Y46*%
G04 Gerber Fmt 4.6, Leading zero omitted, Abs format (unit mm)*
G04 Created by KiCad (PCBNEW 7.0.10) date 2024-02-08 23:41:11*
%MOMM*%
%LPD*%
G01*
G04 APERTURE LIST*
%ADD10C,0.225000*%
%ADD11C,0.150000*%
%ADD12C,0.200000*%
%ADD13C,0.120000*%
%ADD14C,0.127000*%
G04 APERTURE END LIST*
D10*
X163434500Y-114173000D02*
G75*
G03*
X163209500Y-114173000I-112500J0D01*
G01*
X163209500Y-114173000D02*
G75*
G03*
X163434500Y-114173000I112500J0D01*
G01*
X157084500Y-114173000D02*
G75*
G03*
X156859500Y-114173000I-112500J0D01*
G01*
X156859500Y-114173000D02*
G75*
G03*
X157084500Y-114173000I112500J0D01*
G01*
X150607500Y-114173000D02*
G75*
G03*
X150382500Y-114173000I-112500J0D01*
G01*
X150382500Y-114173000D02*
G75*
G03*
X150607500Y-114173000I112500J0D01*
G01*
D11*
X153244779Y-91309866D02*
X154006684Y-91309866D01*
X153625731Y-91690819D02*
X153625731Y-90928914D01*
D12*
X149050951Y-83907219D02*
X149050951Y-84621504D01*
X149050951Y-84621504D02*
X149003332Y-84764361D01*
X149003332Y-84764361D02*
X148908094Y-84859600D01*
X148908094Y-84859600D02*
X148765237Y-84907219D01*
X148765237Y-84907219D02*
X148669999Y-84907219D01*
X150003332Y-84907219D02*
X149527142Y-84907219D01*
X149527142Y-84907219D02*
X149527142Y-83907219D01*
X150908094Y-84811980D02*
X150860475Y-84859600D01*
X150860475Y-84859600D02*
X150717618Y-84907219D01*
X150717618Y-84907219D02*
X150622380Y-84907219D01*
X150622380Y-84907219D02*
X150479523Y-84859600D01*
X150479523Y-84859600D02*
X150384285Y-84764361D01*
X150384285Y-84764361D02*
X150336666Y-84669123D01*
X150336666Y-84669123D02*
X150289047Y-84478647D01*
X150289047Y-84478647D02*
X150289047Y-84335790D01*
X150289047Y-84335790D02*
X150336666Y-84145314D01*
X150336666Y-84145314D02*
X150384285Y-84050076D01*
X150384285Y-84050076D02*
X150479523Y-83954838D01*
X150479523Y-83954838D02*
X150622380Y-83907219D01*
X150622380Y-83907219D02*
X150717618Y-83907219D01*
X150717618Y-83907219D02*
X150860475Y-83954838D01*
X150860475Y-83954838D02*
X150908094Y-84002457D01*
X151622380Y-83907219D02*
X151622380Y-84621504D01*
X151622380Y-84621504D02*
X151574761Y-84764361D01*
X151574761Y-84764361D02*
X151479523Y-84859600D01*
X151479523Y-84859600D02*
X151336666Y-84907219D01*
X151336666Y-84907219D02*
X151241428Y-84907219D01*
X152574761Y-84907219D02*
X152098571Y-84907219D01*
X152098571Y-84907219D02*
X152098571Y-83907219D01*
X153479523Y-84811980D02*
X153431904Y-84859600D01*
X153431904Y-84859600D02*
X153289047Y-84907219D01*
X153289047Y-84907219D02*
X153193809Y-84907219D01*
X153193809Y-84907219D02*
X153050952Y-84859600D01*
X153050952Y-84859600D02*
X152955714Y-84764361D01*
X152955714Y-84764361D02*
X152908095Y-84669123D01*
X152908095Y-84669123D02*
X152860476Y-84478647D01*
X152860476Y-84478647D02*
X152860476Y-84335790D01*
X152860476Y-84335790D02*
X152908095Y-84145314D01*
X152908095Y-84145314D02*
X152955714Y-84050076D01*
X152955714Y-84050076D02*
X153050952Y-83954838D01*
X153050952Y-83954838D02*
X153193809Y-83907219D01*
X153193809Y-83907219D02*
X153289047Y-83907219D01*
X153289047Y-83907219D02*
X153431904Y-83954838D01*
X153431904Y-83954838D02*
X153479523Y-84002457D01*
X154193809Y-83907219D02*
X154193809Y-84621504D01*
X154193809Y-84621504D02*
X154146190Y-84764361D01*
X154146190Y-84764361D02*
X154050952Y-84859600D01*
X154050952Y-84859600D02*
X153908095Y-84907219D01*
X153908095Y-84907219D02*
X153812857Y-84907219D01*
X155146190Y-84907219D02*
X154670000Y-84907219D01*
X154670000Y-84907219D02*
X154670000Y-83907219D01*
X156050952Y-84811980D02*
X156003333Y-84859600D01*
X156003333Y-84859600D02*
X155860476Y-84907219D01*
X155860476Y-84907219D02*
X155765238Y-84907219D01*
X155765238Y-84907219D02*
X155622381Y-84859600D01*
X155622381Y-84859600D02*
X155527143Y-84764361D01*
X155527143Y-84764361D02*
X155479524Y-84669123D01*
X155479524Y-84669123D02*
X155431905Y-84478647D01*
X155431905Y-84478647D02*
X155431905Y-84335790D01*
X155431905Y-84335790D02*
X155479524Y-84145314D01*
X155479524Y-84145314D02*
X155527143Y-84050076D01*
X155527143Y-84050076D02*
X155622381Y-83954838D01*
X155622381Y-83954838D02*
X155765238Y-83907219D01*
X155765238Y-83907219D02*
X155860476Y-83907219D01*
X155860476Y-83907219D02*
X156003333Y-83954838D01*
X156003333Y-83954838D02*
X156050952Y-84002457D01*
X156765238Y-83907219D02*
X156765238Y-84621504D01*
X156765238Y-84621504D02*
X156717619Y-84764361D01*
X156717619Y-84764361D02*
X156622381Y-84859600D01*
X156622381Y-84859600D02*
X156479524Y-84907219D01*
X156479524Y-84907219D02*
X156384286Y-84907219D01*
X157717619Y-84907219D02*
X157241429Y-84907219D01*
X157241429Y-84907219D02*
X157241429Y-83907219D01*
X158622381Y-84811980D02*
X158574762Y-84859600D01*
X158574762Y-84859600D02*
X158431905Y-84907219D01*
X158431905Y-84907219D02*
X158336667Y-84907219D01*
X158336667Y-84907219D02*
X158193810Y-84859600D01*
X158193810Y-84859600D02*
X158098572Y-84764361D01*
X158098572Y-84764361D02*
X158050953Y-84669123D01*
X158050953Y-84669123D02*
X158003334Y-84478647D01*
X158003334Y-84478647D02*
X158003334Y-84335790D01*
X158003334Y-84335790D02*
X158050953Y-84145314D01*
X158050953Y-84145314D02*
X158098572Y-84050076D01*
X158098572Y-84050076D02*
X158193810Y-83954838D01*
X158193810Y-83954838D02*
X158336667Y-83907219D01*
X158336667Y-83907219D02*
X158431905Y-83907219D01*
X158431905Y-83907219D02*
X158574762Y-83954838D01*
X158574762Y-83954838D02*
X158622381Y-84002457D01*
D11*
X174072779Y-111629866D02*
X174834684Y-111629866D01*
X174453731Y-112010819D02*
X174453731Y-111248914D01*
X152816160Y-124679104D02*
X153292350Y-124679104D01*
X152720922Y-124964819D02*
X153054255Y-123964819D01*
X153054255Y-123964819D02*
X153387588Y-124964819D01*
X153720922Y-124298152D02*
X153720922Y-124964819D01*
X153720922Y-124393390D02*
X153768541Y-124345771D01*
X153768541Y-124345771D02*
X153863779Y-124298152D01*
X153863779Y-124298152D02*
X154006636Y-124298152D01*
X154006636Y-124298152D02*
X154101874Y-124345771D01*
X154101874Y-124345771D02*
X154149493Y-124441009D01*
X154149493Y-124441009D02*
X154149493Y-124964819D01*
X154482827Y-124298152D02*
X154863779Y-124298152D01*
X154625684Y-123964819D02*
X154625684Y-124821961D01*
X154625684Y-124821961D02*
X154673303Y-124917200D01*
X154673303Y-124917200D02*
X154768541Y-124964819D01*
X154768541Y-124964819D02*
X154863779Y-124964819D01*
X155578065Y-124917200D02*
X155482827Y-124964819D01*
X155482827Y-124964819D02*
X155292351Y-124964819D01*
X155292351Y-124964819D02*
X155197113Y-124917200D01*
X155197113Y-124917200D02*
X155149494Y-124821961D01*
X155149494Y-124821961D02*
X155149494Y-124441009D01*
X155149494Y-124441009D02*
X155197113Y-124345771D01*
X155197113Y-124345771D02*
X155292351Y-124298152D01*
X155292351Y-124298152D02*
X155482827Y-124298152D01*
X155482827Y-124298152D02*
X155578065Y-124345771D01*
X155578065Y-124345771D02*
X155625684Y-124441009D01*
X155625684Y-124441009D02*
X155625684Y-124536247D01*
X155625684Y-124536247D02*
X155149494Y-124631485D01*
X156054256Y-124298152D02*
X156054256Y-124964819D01*
X156054256Y-124393390D02*
X156101875Y-124345771D01*
X156101875Y-124345771D02*
X156197113Y-124298152D01*
X156197113Y-124298152D02*
X156339970Y-124298152D01*
X156339970Y-124298152D02*
X156435208Y-124345771D01*
X156435208Y-124345771D02*
X156482827Y-124441009D01*
X156482827Y-124441009D02*
X156482827Y-124964819D01*
X156959018Y-124298152D02*
X156959018Y-124964819D01*
X156959018Y-124393390D02*
X157006637Y-124345771D01*
X157006637Y-124345771D02*
X157101875Y-124298152D01*
X157101875Y-124298152D02*
X157244732Y-124298152D01*
X157244732Y-124298152D02*
X157339970Y-124345771D01*
X157339970Y-124345771D02*
X157387589Y-124441009D01*
X157387589Y-124441009D02*
X157387589Y-124964819D01*
X158292351Y-124964819D02*
X158292351Y-124441009D01*
X158292351Y-124441009D02*
X158244732Y-124345771D01*
X158244732Y-124345771D02*
X158149494Y-124298152D01*
X158149494Y-124298152D02*
X157959018Y-124298152D01*
X157959018Y-124298152D02*
X157863780Y-124345771D01*
X158292351Y-124917200D02*
X158197113Y-124964819D01*
X158197113Y-124964819D02*
X157959018Y-124964819D01*
X157959018Y-124964819D02*
X157863780Y-124917200D01*
X157863780Y-124917200D02*
X157816161Y-124821961D01*
X157816161Y-124821961D02*
X157816161Y-124726723D01*
X157816161Y-124726723D02*
X157863780Y-124631485D01*
X157863780Y-124631485D02*
X157959018Y-124583866D01*
X157959018Y-124583866D02*
X158197113Y-124583866D01*
X158197113Y-124583866D02*
X158292351Y-124536247D01*
D12*
X168656191Y-129347819D02*
X168989524Y-130347819D01*
X168989524Y-130347819D02*
X169322857Y-129347819D01*
X170180000Y-130347819D02*
X169608572Y-130347819D01*
X169894286Y-130347819D02*
X169894286Y-129347819D01*
X169894286Y-129347819D02*
X169799048Y-129490676D01*
X169799048Y-129490676D02*
X169703810Y-129585914D01*
X169703810Y-129585914D02*
X169608572Y-129633533D01*
X170608572Y-130252580D02*
X170656191Y-130300200D01*
X170656191Y-130300200D02*
X170608572Y-130347819D01*
X170608572Y-130347819D02*
X170560953Y-130300200D01*
X170560953Y-130300200D02*
X170608572Y-130252580D01*
X170608572Y-130252580D02*
X170608572Y-130347819D01*
X171275238Y-129347819D02*
X171370476Y-129347819D01*
X171370476Y-129347819D02*
X171465714Y-129395438D01*
X171465714Y-129395438D02*
X171513333Y-129443057D01*
X171513333Y-129443057D02*
X171560952Y-129538295D01*
X171560952Y-129538295D02*
X171608571Y-129728771D01*
X171608571Y-129728771D02*
X171608571Y-129966866D01*
X171608571Y-129966866D02*
X171560952Y-130157342D01*
X171560952Y-130157342D02*
X171513333Y-130252580D01*
X171513333Y-130252580D02*
X171465714Y-130300200D01*
X171465714Y-130300200D02*
X171370476Y-130347819D01*
X171370476Y-130347819D02*
X171275238Y-130347819D01*
X171275238Y-130347819D02*
X171180000Y-130300200D01*
X171180000Y-130300200D02*
X171132381Y-130252580D01*
X171132381Y-130252580D02*
X171084762Y-130157342D01*
X171084762Y-130157342D02*
X171037143Y-129966866D01*
X171037143Y-129966866D02*
X171037143Y-129728771D01*
X171037143Y-129728771D02*
X171084762Y-129538295D01*
X171084762Y-129538295D02*
X171132381Y-129443057D01*
X171132381Y-129443057D02*
X171180000Y-129395438D01*
X171180000Y-129395438D02*
X171275238Y-129347819D01*
D11*
X172386666Y-135446419D02*
X172386666Y-136160704D01*
X172386666Y-136160704D02*
X172339047Y-136303561D01*
X172339047Y-136303561D02*
X172243809Y-136398800D01*
X172243809Y-136398800D02*
X172100952Y-136446419D01*
X172100952Y-136446419D02*
X172005714Y-136446419D01*
X172815238Y-135541657D02*
X172862857Y-135494038D01*
X172862857Y-135494038D02*
X172958095Y-135446419D01*
X172958095Y-135446419D02*
X173196190Y-135446419D01*
X173196190Y-135446419D02*
X173291428Y-135494038D01*
X173291428Y-135494038D02*
X173339047Y-135541657D01*
X173339047Y-135541657D02*
X173386666Y-135636895D01*
X173386666Y-135636895D02*
X173386666Y-135732133D01*
X173386666Y-135732133D02*
X173339047Y-135874990D01*
X173339047Y-135874990D02*
X172767619Y-136446419D01*
X172767619Y-136446419D02*
X173386666Y-136446419D01*
X136787142Y-108024819D02*
X136453809Y-107548628D01*
X136215714Y-108024819D02*
X136215714Y-107024819D01*
X136215714Y-107024819D02*
X136596666Y-107024819D01*
X136596666Y-107024819D02*
X136691904Y-107072438D01*
X136691904Y-107072438D02*
X136739523Y-107120057D01*
X136739523Y-107120057D02*
X136787142Y-107215295D01*
X136787142Y-107215295D02*
X136787142Y-107358152D01*
X136787142Y-107358152D02*
X136739523Y-107453390D01*
X136739523Y-107453390D02*
X136691904Y-107501009D01*
X136691904Y-107501009D02*
X136596666Y-107548628D01*
X136596666Y-107548628D02*
X136215714Y-107548628D01*
X137739523Y-108024819D02*
X137168095Y-108024819D01*
X137453809Y-108024819D02*
X137453809Y-107024819D01*
X137453809Y-107024819D02*
X137358571Y-107167676D01*
X137358571Y-107167676D02*
X137263333Y-107262914D01*
X137263333Y-107262914D02*
X137168095Y-107310533D01*
X138120476Y-107120057D02*
X138168095Y-107072438D01*
X138168095Y-107072438D02*
X138263333Y-107024819D01*
X138263333Y-107024819D02*
X138501428Y-107024819D01*
X138501428Y-107024819D02*
X138596666Y-107072438D01*
X138596666Y-107072438D02*
X138644285Y-107120057D01*
X138644285Y-107120057D02*
X138691904Y-107215295D01*
X138691904Y-107215295D02*
X138691904Y-107310533D01*
X138691904Y-107310533D02*
X138644285Y-107453390D01*
X138644285Y-107453390D02*
X138072857Y-108024819D01*
X138072857Y-108024819D02*
X138691904Y-108024819D01*
X171092905Y-109928819D02*
X171092905Y-108928819D01*
X171092905Y-108928819D02*
X171331000Y-108928819D01*
X171331000Y-108928819D02*
X171473857Y-108976438D01*
X171473857Y-108976438D02*
X171569095Y-109071676D01*
X171569095Y-109071676D02*
X171616714Y-109166914D01*
X171616714Y-109166914D02*
X171664333Y-109357390D01*
X171664333Y-109357390D02*
X171664333Y-109500247D01*
X171664333Y-109500247D02*
X171616714Y-109690723D01*
X171616714Y-109690723D02*
X171569095Y-109785961D01*
X171569095Y-109785961D02*
X171473857Y-109881200D01*
X171473857Y-109881200D02*
X171331000Y-109928819D01*
X171331000Y-109928819D02*
X171092905Y-109928819D01*
X171997667Y-108928819D02*
X172616714Y-108928819D01*
X172616714Y-108928819D02*
X172283381Y-109309771D01*
X172283381Y-109309771D02*
X172426238Y-109309771D01*
X172426238Y-109309771D02*
X172521476Y-109357390D01*
X172521476Y-109357390D02*
X172569095Y-109405009D01*
X172569095Y-109405009D02*
X172616714Y-109500247D01*
X172616714Y-109500247D02*
X172616714Y-109738342D01*
X172616714Y-109738342D02*
X172569095Y-109833580D01*
X172569095Y-109833580D02*
X172521476Y-109881200D01*
X172521476Y-109881200D02*
X172426238Y-109928819D01*
X172426238Y-109928819D02*
X172140524Y-109928819D01*
X172140524Y-109928819D02*
X172045286Y-109881200D01*
X172045286Y-109881200D02*
X171997667Y-109833580D01*
X155408333Y-98022580D02*
X155360714Y-98070200D01*
X155360714Y-98070200D02*
X155217857Y-98117819D01*
X155217857Y-98117819D02*
X155122619Y-98117819D01*
X155122619Y-98117819D02*
X154979762Y-98070200D01*
X154979762Y-98070200D02*
X154884524Y-97974961D01*
X154884524Y-97974961D02*
X154836905Y-97879723D01*
X154836905Y-97879723D02*
X154789286Y-97689247D01*
X154789286Y-97689247D02*
X154789286Y-97546390D01*
X154789286Y-97546390D02*
X154836905Y-97355914D01*
X154836905Y-97355914D02*
X154884524Y-97260676D01*
X154884524Y-97260676D02*
X154979762Y-97165438D01*
X154979762Y-97165438D02*
X155122619Y-97117819D01*
X155122619Y-97117819D02*
X155217857Y-97117819D01*
X155217857Y-97117819D02*
X155360714Y-97165438D01*
X155360714Y-97165438D02*
X155408333Y-97213057D01*
X156360714Y-98117819D02*
X155789286Y-98117819D01*
X156075000Y-98117819D02*
X156075000Y-97117819D01*
X156075000Y-97117819D02*
X155979762Y-97260676D01*
X155979762Y-97260676D02*
X155884524Y-97355914D01*
X155884524Y-97355914D02*
X155789286Y-97403533D01*
X152854819Y-97067666D02*
X152378628Y-97400999D01*
X152854819Y-97639094D02*
X151854819Y-97639094D01*
X151854819Y-97639094D02*
X151854819Y-97258142D01*
X151854819Y-97258142D02*
X151902438Y-97162904D01*
X151902438Y-97162904D02*
X151950057Y-97115285D01*
X151950057Y-97115285D02*
X152045295Y-97067666D01*
X152045295Y-97067666D02*
X152188152Y-97067666D01*
X152188152Y-97067666D02*
X152283390Y-97115285D01*
X152283390Y-97115285D02*
X152331009Y-97162904D01*
X152331009Y-97162904D02*
X152378628Y-97258142D01*
X152378628Y-97258142D02*
X152378628Y-97639094D01*
X152188152Y-96210523D02*
X152854819Y-96210523D01*
X151807200Y-96448618D02*
X152521485Y-96686713D01*
X152521485Y-96686713D02*
X152521485Y-96067666D01*
X137263333Y-83765819D02*
X136930000Y-83289628D01*
X136691905Y-83765819D02*
X136691905Y-82765819D01*
X136691905Y-82765819D02*
X137072857Y-82765819D01*
X137072857Y-82765819D02*
X137168095Y-82813438D01*
X137168095Y-82813438D02*
X137215714Y-82861057D01*
X137215714Y-82861057D02*
X137263333Y-82956295D01*
X137263333Y-82956295D02*
X137263333Y-83099152D01*
X137263333Y-83099152D02*
X137215714Y-83194390D01*
X137215714Y-83194390D02*
X137168095Y-83242009D01*
X137168095Y-83242009D02*
X137072857Y-83289628D01*
X137072857Y-83289628D02*
X136691905Y-83289628D01*
X137644286Y-82861057D02*
X137691905Y-82813438D01*
X137691905Y-82813438D02*
X137787143Y-82765819D01*
X137787143Y-82765819D02*
X138025238Y-82765819D01*
X138025238Y-82765819D02*
X138120476Y-82813438D01*
X138120476Y-82813438D02*
X138168095Y-82861057D01*
X138168095Y-82861057D02*
X138215714Y-82956295D01*
X138215714Y-82956295D02*
X138215714Y-83051533D01*
X138215714Y-83051533D02*
X138168095Y-83194390D01*
X138168095Y-83194390D02*
X137596667Y-83765819D01*
X137596667Y-83765819D02*
X138215714Y-83765819D01*
X147701095Y-113373819D02*
X147701095Y-114183342D01*
X147701095Y-114183342D02*
X147748714Y-114278580D01*
X147748714Y-114278580D02*
X147796333Y-114326200D01*
X147796333Y-114326200D02*
X147891571Y-114373819D01*
X147891571Y-114373819D02*
X148082047Y-114373819D01*
X148082047Y-114373819D02*
X148177285Y-114326200D01*
X148177285Y-114326200D02*
X148224904Y-114278580D01*
X148224904Y-114278580D02*
X148272523Y-114183342D01*
X148272523Y-114183342D02*
X148272523Y-113373819D01*
X148653476Y-113373819D02*
X149272523Y-113373819D01*
X149272523Y-113373819D02*
X148939190Y-113754771D01*
X148939190Y-113754771D02*
X149082047Y-113754771D01*
X149082047Y-113754771D02*
X149177285Y-113802390D01*
X149177285Y-113802390D02*
X149224904Y-113850009D01*
X149224904Y-113850009D02*
X149272523Y-113945247D01*
X149272523Y-113945247D02*
X149272523Y-114183342D01*
X149272523Y-114183342D02*
X149224904Y-114278580D01*
X149224904Y-114278580D02*
X149177285Y-114326200D01*
X149177285Y-114326200D02*
X149082047Y-114373819D01*
X149082047Y-114373819D02*
X148796333Y-114373819D01*
X148796333Y-114373819D02*
X148701095Y-114326200D01*
X148701095Y-114326200D02*
X148653476Y-114278580D01*
X136787142Y-124024819D02*
X136453809Y-123548628D01*
X136215714Y-124024819D02*
X136215714Y-123024819D01*
X136215714Y-123024819D02*
X136596666Y-123024819D01*
X136596666Y-123024819D02*
X136691904Y-123072438D01*
X136691904Y-123072438D02*
X136739523Y-123120057D01*
X136739523Y-123120057D02*
X136787142Y-123215295D01*
X136787142Y-123215295D02*
X136787142Y-123358152D01*
X136787142Y-123358152D02*
X136739523Y-123453390D01*
X136739523Y-123453390D02*
X136691904Y-123501009D01*
X136691904Y-123501009D02*
X136596666Y-123548628D01*
X136596666Y-123548628D02*
X136215714Y-123548628D01*
X137739523Y-124024819D02*
X137168095Y-124024819D01*
X137453809Y-124024819D02*
X137453809Y-123024819D01*
X137453809Y-123024819D02*
X137358571Y-123167676D01*
X137358571Y-123167676D02*
X137263333Y-123262914D01*
X137263333Y-123262914D02*
X137168095Y-123310533D01*
X138691904Y-124024819D02*
X138120476Y-124024819D01*
X138406190Y-124024819D02*
X138406190Y-123024819D01*
X138406190Y-123024819D02*
X138310952Y-123167676D01*
X138310952Y-123167676D02*
X138215714Y-123262914D01*
X138215714Y-123262914D02*
X138120476Y-123310533D01*
X154051095Y-113373819D02*
X154051095Y-114183342D01*
X154051095Y-114183342D02*
X154098714Y-114278580D01*
X154098714Y-114278580D02*
X154146333Y-114326200D01*
X154146333Y-114326200D02*
X154241571Y-114373819D01*
X154241571Y-114373819D02*
X154432047Y-114373819D01*
X154432047Y-114373819D02*
X154527285Y-114326200D01*
X154527285Y-114326200D02*
X154574904Y-114278580D01*
X154574904Y-114278580D02*
X154622523Y-114183342D01*
X154622523Y-114183342D02*
X154622523Y-113373819D01*
X155051095Y-113469057D02*
X155098714Y-113421438D01*
X155098714Y-113421438D02*
X155193952Y-113373819D01*
X155193952Y-113373819D02*
X155432047Y-113373819D01*
X155432047Y-113373819D02*
X155527285Y-113421438D01*
X155527285Y-113421438D02*
X155574904Y-113469057D01*
X155574904Y-113469057D02*
X155622523Y-113564295D01*
X155622523Y-113564295D02*
X155622523Y-113659533D01*
X155622523Y-113659533D02*
X155574904Y-113802390D01*
X155574904Y-113802390D02*
X155003476Y-114373819D01*
X155003476Y-114373819D02*
X155622523Y-114373819D01*
X147901819Y-97067666D02*
X147425628Y-97400999D01*
X147901819Y-97639094D02*
X146901819Y-97639094D01*
X146901819Y-97639094D02*
X146901819Y-97258142D01*
X146901819Y-97258142D02*
X146949438Y-97162904D01*
X146949438Y-97162904D02*
X146997057Y-97115285D01*
X146997057Y-97115285D02*
X147092295Y-97067666D01*
X147092295Y-97067666D02*
X147235152Y-97067666D01*
X147235152Y-97067666D02*
X147330390Y-97115285D01*
X147330390Y-97115285D02*
X147378009Y-97162904D01*
X147378009Y-97162904D02*
X147425628Y-97258142D01*
X147425628Y-97258142D02*
X147425628Y-97639094D01*
X146901819Y-96734332D02*
X146901819Y-96067666D01*
X146901819Y-96067666D02*
X147901819Y-96496237D01*
X171918333Y-99259819D02*
X171585000Y-98783628D01*
X171346905Y-99259819D02*
X171346905Y-98259819D01*
X171346905Y-98259819D02*
X171727857Y-98259819D01*
X171727857Y-98259819D02*
X171823095Y-98307438D01*
X171823095Y-98307438D02*
X171870714Y-98355057D01*
X171870714Y-98355057D02*
X171918333Y-98450295D01*
X171918333Y-98450295D02*
X171918333Y-98593152D01*
X171918333Y-98593152D02*
X171870714Y-98688390D01*
X171870714Y-98688390D02*
X171823095Y-98736009D01*
X171823095Y-98736009D02*
X171727857Y-98783628D01*
X171727857Y-98783628D02*
X171346905Y-98783628D01*
X172394524Y-99259819D02*
X172585000Y-99259819D01*
X172585000Y-99259819D02*
X172680238Y-99212200D01*
X172680238Y-99212200D02*
X172727857Y-99164580D01*
X172727857Y-99164580D02*
X172823095Y-99021723D01*
X172823095Y-99021723D02*
X172870714Y-98831247D01*
X172870714Y-98831247D02*
X172870714Y-98450295D01*
X172870714Y-98450295D02*
X172823095Y-98355057D01*
X172823095Y-98355057D02*
X172775476Y-98307438D01*
X172775476Y-98307438D02*
X172680238Y-98259819D01*
X172680238Y-98259819D02*
X172489762Y-98259819D01*
X172489762Y-98259819D02*
X172394524Y-98307438D01*
X172394524Y-98307438D02*
X172346905Y-98355057D01*
X172346905Y-98355057D02*
X172299286Y-98450295D01*
X172299286Y-98450295D02*
X172299286Y-98688390D01*
X172299286Y-98688390D02*
X172346905Y-98783628D01*
X172346905Y-98783628D02*
X172394524Y-98831247D01*
X172394524Y-98831247D02*
X172489762Y-98878866D01*
X172489762Y-98878866D02*
X172680238Y-98878866D01*
X172680238Y-98878866D02*
X172775476Y-98831247D01*
X172775476Y-98831247D02*
X172823095Y-98783628D01*
X172823095Y-98783628D02*
X172870714Y-98688390D01*
X159204819Y-97067666D02*
X158728628Y-97400999D01*
X159204819Y-97639094D02*
X158204819Y-97639094D01*
X158204819Y-97639094D02*
X158204819Y-97258142D01*
X158204819Y-97258142D02*
X158252438Y-97162904D01*
X158252438Y-97162904D02*
X158300057Y-97115285D01*
X158300057Y-97115285D02*
X158395295Y-97067666D01*
X158395295Y-97067666D02*
X158538152Y-97067666D01*
X158538152Y-97067666D02*
X158633390Y-97115285D01*
X158633390Y-97115285D02*
X158681009Y-97162904D01*
X158681009Y-97162904D02*
X158728628Y-97258142D01*
X158728628Y-97258142D02*
X158728628Y-97639094D01*
X158204819Y-96162904D02*
X158204819Y-96639094D01*
X158204819Y-96639094D02*
X158681009Y-96686713D01*
X158681009Y-96686713D02*
X158633390Y-96639094D01*
X158633390Y-96639094D02*
X158585771Y-96543856D01*
X158585771Y-96543856D02*
X158585771Y-96305761D01*
X158585771Y-96305761D02*
X158633390Y-96210523D01*
X158633390Y-96210523D02*
X158681009Y-96162904D01*
X158681009Y-96162904D02*
X158776247Y-96115285D01*
X158776247Y-96115285D02*
X159014342Y-96115285D01*
X159014342Y-96115285D02*
X159109580Y-96162904D01*
X159109580Y-96162904D02*
X159157200Y-96210523D01*
X159157200Y-96210523D02*
X159204819Y-96305761D01*
X159204819Y-96305761D02*
X159204819Y-96543856D01*
X159204819Y-96543856D02*
X159157200Y-96639094D01*
X159157200Y-96639094D02*
X159109580Y-96686713D01*
X136787142Y-99387819D02*
X136453809Y-98911628D01*
X136215714Y-99387819D02*
X136215714Y-98387819D01*
X136215714Y-98387819D02*
X136596666Y-98387819D01*
X136596666Y-98387819D02*
X136691904Y-98435438D01*
X136691904Y-98435438D02*
X136739523Y-98483057D01*
X136739523Y-98483057D02*
X136787142Y-98578295D01*
X136787142Y-98578295D02*
X136787142Y-98721152D01*
X136787142Y-98721152D02*
X136739523Y-98816390D01*
X136739523Y-98816390D02*
X136691904Y-98864009D01*
X136691904Y-98864009D02*
X136596666Y-98911628D01*
X136596666Y-98911628D02*
X136215714Y-98911628D01*
X137739523Y-99387819D02*
X137168095Y-99387819D01*
X137453809Y-99387819D02*
X137453809Y-98387819D01*
X137453809Y-98387819D02*
X137358571Y-98530676D01*
X137358571Y-98530676D02*
X137263333Y-98625914D01*
X137263333Y-98625914D02*
X137168095Y-98673533D01*
X138358571Y-98387819D02*
X138453809Y-98387819D01*
X138453809Y-98387819D02*
X138549047Y-98435438D01*
X138549047Y-98435438D02*
X138596666Y-98483057D01*
X138596666Y-98483057D02*
X138644285Y-98578295D01*
X138644285Y-98578295D02*
X138691904Y-98768771D01*
X138691904Y-98768771D02*
X138691904Y-99006866D01*
X138691904Y-99006866D02*
X138644285Y-99197342D01*
X138644285Y-99197342D02*
X138596666Y-99292580D01*
X138596666Y-99292580D02*
X138549047Y-99340200D01*
X138549047Y-99340200D02*
X138453809Y-99387819D01*
X138453809Y-99387819D02*
X138358571Y-99387819D01*
X138358571Y-99387819D02*
X138263333Y-99340200D01*
X138263333Y-99340200D02*
X138215714Y-99292580D01*
X138215714Y-99292580D02*
X138168095Y-99197342D01*
X138168095Y-99197342D02*
X138120476Y-99006866D01*
X138120476Y-99006866D02*
X138120476Y-98768771D01*
X138120476Y-98768771D02*
X138168095Y-98578295D01*
X138168095Y-98578295D02*
X138215714Y-98483057D01*
X138215714Y-98483057D02*
X138263333Y-98435438D01*
X138263333Y-98435438D02*
X138358571Y-98387819D01*
X156283819Y-108465857D02*
X155807628Y-108799190D01*
X156283819Y-109037285D02*
X155283819Y-109037285D01*
X155283819Y-109037285D02*
X155283819Y-108656333D01*
X155283819Y-108656333D02*
X155331438Y-108561095D01*
X155331438Y-108561095D02*
X155379057Y-108513476D01*
X155379057Y-108513476D02*
X155474295Y-108465857D01*
X155474295Y-108465857D02*
X155617152Y-108465857D01*
X155617152Y-108465857D02*
X155712390Y-108513476D01*
X155712390Y-108513476D02*
X155760009Y-108561095D01*
X155760009Y-108561095D02*
X155807628Y-108656333D01*
X155807628Y-108656333D02*
X155807628Y-109037285D01*
X156283819Y-107513476D02*
X156283819Y-108084904D01*
X156283819Y-107799190D02*
X155283819Y-107799190D01*
X155283819Y-107799190D02*
X155426676Y-107894428D01*
X155426676Y-107894428D02*
X155521914Y-107989666D01*
X155521914Y-107989666D02*
X155569533Y-108084904D01*
X155283819Y-106608714D02*
X155283819Y-107084904D01*
X155283819Y-107084904D02*
X155760009Y-107132523D01*
X155760009Y-107132523D02*
X155712390Y-107084904D01*
X155712390Y-107084904D02*
X155664771Y-106989666D01*
X155664771Y-106989666D02*
X155664771Y-106751571D01*
X155664771Y-106751571D02*
X155712390Y-106656333D01*
X155712390Y-106656333D02*
X155760009Y-106608714D01*
X155760009Y-106608714D02*
X155855247Y-106561095D01*
X155855247Y-106561095D02*
X156093342Y-106561095D01*
X156093342Y-106561095D02*
X156188580Y-106608714D01*
X156188580Y-106608714D02*
X156236200Y-106656333D01*
X156236200Y-106656333D02*
X156283819Y-106751571D01*
X156283819Y-106751571D02*
X156283819Y-106989666D01*
X156283819Y-106989666D02*
X156236200Y-107084904D01*
X156236200Y-107084904D02*
X156188580Y-107132523D01*
X150314819Y-97067666D02*
X149838628Y-97400999D01*
X150314819Y-97639094D02*
X149314819Y-97639094D01*
X149314819Y-97639094D02*
X149314819Y-97258142D01*
X149314819Y-97258142D02*
X149362438Y-97162904D01*
X149362438Y-97162904D02*
X149410057Y-97115285D01*
X149410057Y-97115285D02*
X149505295Y-97067666D01*
X149505295Y-97067666D02*
X149648152Y-97067666D01*
X149648152Y-97067666D02*
X149743390Y-97115285D01*
X149743390Y-97115285D02*
X149791009Y-97162904D01*
X149791009Y-97162904D02*
X149838628Y-97258142D01*
X149838628Y-97258142D02*
X149838628Y-97639094D01*
X149743390Y-96496237D02*
X149695771Y-96591475D01*
X149695771Y-96591475D02*
X149648152Y-96639094D01*
X149648152Y-96639094D02*
X149552914Y-96686713D01*
X149552914Y-96686713D02*
X149505295Y-96686713D01*
X149505295Y-96686713D02*
X149410057Y-96639094D01*
X149410057Y-96639094D02*
X149362438Y-96591475D01*
X149362438Y-96591475D02*
X149314819Y-96496237D01*
X149314819Y-96496237D02*
X149314819Y-96305761D01*
X149314819Y-96305761D02*
X149362438Y-96210523D01*
X149362438Y-96210523D02*
X149410057Y-96162904D01*
X149410057Y-96162904D02*
X149505295Y-96115285D01*
X149505295Y-96115285D02*
X149552914Y-96115285D01*
X149552914Y-96115285D02*
X149648152Y-96162904D01*
X149648152Y-96162904D02*
X149695771Y-96210523D01*
X149695771Y-96210523D02*
X149743390Y-96305761D01*
X149743390Y-96305761D02*
X149743390Y-96496237D01*
X149743390Y-96496237D02*
X149791009Y-96591475D01*
X149791009Y-96591475D02*
X149838628Y-96639094D01*
X149838628Y-96639094D02*
X149933866Y-96686713D01*
X149933866Y-96686713D02*
X150124342Y-96686713D01*
X150124342Y-96686713D02*
X150219580Y-96639094D01*
X150219580Y-96639094D02*
X150267200Y-96591475D01*
X150267200Y-96591475D02*
X150314819Y-96496237D01*
X150314819Y-96496237D02*
X150314819Y-96305761D01*
X150314819Y-96305761D02*
X150267200Y-96210523D01*
X150267200Y-96210523D02*
X150219580Y-96162904D01*
X150219580Y-96162904D02*
X150124342Y-96115285D01*
X150124342Y-96115285D02*
X149933866Y-96115285D01*
X149933866Y-96115285D02*
X149838628Y-96162904D01*
X149838628Y-96162904D02*
X149791009Y-96210523D01*
X149791009Y-96210523D02*
X149743390Y-96305761D01*
X170053095Y-123406819D02*
X170053095Y-124216342D01*
X170053095Y-124216342D02*
X170100714Y-124311580D01*
X170100714Y-124311580D02*
X170148333Y-124359200D01*
X170148333Y-124359200D02*
X170243571Y-124406819D01*
X170243571Y-124406819D02*
X170434047Y-124406819D01*
X170434047Y-124406819D02*
X170529285Y-124359200D01*
X170529285Y-124359200D02*
X170576904Y-124311580D01*
X170576904Y-124311580D02*
X170624523Y-124216342D01*
X170624523Y-124216342D02*
X170624523Y-123406819D01*
X171529285Y-123740152D02*
X171529285Y-124406819D01*
X171291190Y-123359200D02*
X171053095Y-124073485D01*
X171053095Y-124073485D02*
X171672142Y-124073485D01*
X148284762Y-100021009D02*
X148618095Y-100021009D01*
X148760952Y-100544819D02*
X148284762Y-100544819D01*
X148284762Y-100544819D02*
X148284762Y-99544819D01*
X148284762Y-99544819D02*
X148760952Y-99544819D01*
X149141905Y-100497200D02*
X149284762Y-100544819D01*
X149284762Y-100544819D02*
X149522857Y-100544819D01*
X149522857Y-100544819D02*
X149618095Y-100497200D01*
X149618095Y-100497200D02*
X149665714Y-100449580D01*
X149665714Y-100449580D02*
X149713333Y-100354342D01*
X149713333Y-100354342D02*
X149713333Y-100259104D01*
X149713333Y-100259104D02*
X149665714Y-100163866D01*
X149665714Y-100163866D02*
X149618095Y-100116247D01*
X149618095Y-100116247D02*
X149522857Y-100068628D01*
X149522857Y-100068628D02*
X149332381Y-100021009D01*
X149332381Y-100021009D02*
X149237143Y-99973390D01*
X149237143Y-99973390D02*
X149189524Y-99925771D01*
X149189524Y-99925771D02*
X149141905Y-99830533D01*
X149141905Y-99830533D02*
X149141905Y-99735295D01*
X149141905Y-99735295D02*
X149189524Y-99640057D01*
X149189524Y-99640057D02*
X149237143Y-99592438D01*
X149237143Y-99592438D02*
X149332381Y-99544819D01*
X149332381Y-99544819D02*
X149570476Y-99544819D01*
X149570476Y-99544819D02*
X149713333Y-99592438D01*
X150141905Y-100544819D02*
X150141905Y-99544819D01*
X150141905Y-99544819D02*
X150522857Y-99544819D01*
X150522857Y-99544819D02*
X150618095Y-99592438D01*
X150618095Y-99592438D02*
X150665714Y-99640057D01*
X150665714Y-99640057D02*
X150713333Y-99735295D01*
X150713333Y-99735295D02*
X150713333Y-99878152D01*
X150713333Y-99878152D02*
X150665714Y-99973390D01*
X150665714Y-99973390D02*
X150618095Y-100021009D01*
X150618095Y-100021009D02*
X150522857Y-100068628D01*
X150522857Y-100068628D02*
X150141905Y-100068628D01*
X151046667Y-99544819D02*
X151665714Y-99544819D01*
X151665714Y-99544819D02*
X151332381Y-99925771D01*
X151332381Y-99925771D02*
X151475238Y-99925771D01*
X151475238Y-99925771D02*
X151570476Y-99973390D01*
X151570476Y-99973390D02*
X151618095Y-100021009D01*
X151618095Y-100021009D02*
X151665714Y-100116247D01*
X151665714Y-100116247D02*
X151665714Y-100354342D01*
X151665714Y-100354342D02*
X151618095Y-100449580D01*
X151618095Y-100449580D02*
X151570476Y-100497200D01*
X151570476Y-100497200D02*
X151475238Y-100544819D01*
X151475238Y-100544819D02*
X151189524Y-100544819D01*
X151189524Y-100544819D02*
X151094286Y-100497200D01*
X151094286Y-100497200D02*
X151046667Y-100449580D01*
X152046667Y-99640057D02*
X152094286Y-99592438D01*
X152094286Y-99592438D02*
X152189524Y-99544819D01*
X152189524Y-99544819D02*
X152427619Y-99544819D01*
X152427619Y-99544819D02*
X152522857Y-99592438D01*
X152522857Y-99592438D02*
X152570476Y-99640057D01*
X152570476Y-99640057D02*
X152618095Y-99735295D01*
X152618095Y-99735295D02*
X152618095Y-99830533D01*
X152618095Y-99830533D02*
X152570476Y-99973390D01*
X152570476Y-99973390D02*
X151999048Y-100544819D01*
X151999048Y-100544819D02*
X152618095Y-100544819D01*
X153046667Y-100163866D02*
X153808572Y-100163866D01*
X154284762Y-100544819D02*
X154284762Y-99544819D01*
X154284762Y-99544819D02*
X154522857Y-99544819D01*
X154522857Y-99544819D02*
X154665714Y-99592438D01*
X154665714Y-99592438D02*
X154760952Y-99687676D01*
X154760952Y-99687676D02*
X154808571Y-99782914D01*
X154808571Y-99782914D02*
X154856190Y-99973390D01*
X154856190Y-99973390D02*
X154856190Y-100116247D01*
X154856190Y-100116247D02*
X154808571Y-100306723D01*
X154808571Y-100306723D02*
X154760952Y-100401961D01*
X154760952Y-100401961D02*
X154665714Y-100497200D01*
X154665714Y-100497200D02*
X154522857Y-100544819D01*
X154522857Y-100544819D02*
X154284762Y-100544819D01*
X155665714Y-100497200D02*
X155570476Y-100544819D01*
X155570476Y-100544819D02*
X155380000Y-100544819D01*
X155380000Y-100544819D02*
X155284762Y-100497200D01*
X155284762Y-100497200D02*
X155237143Y-100401961D01*
X155237143Y-100401961D02*
X155237143Y-100021009D01*
X155237143Y-100021009D02*
X155284762Y-99925771D01*
X155284762Y-99925771D02*
X155380000Y-99878152D01*
X155380000Y-99878152D02*
X155570476Y-99878152D01*
X155570476Y-99878152D02*
X155665714Y-99925771D01*
X155665714Y-99925771D02*
X155713333Y-100021009D01*
X155713333Y-100021009D02*
X155713333Y-100116247D01*
X155713333Y-100116247D02*
X155237143Y-100211485D01*
X156046667Y-99878152D02*
X156284762Y-100544819D01*
X156284762Y-100544819D02*
X156522857Y-99878152D01*
X156903810Y-100544819D02*
X156903810Y-99544819D01*
X157475238Y-100544819D02*
X157046667Y-99973390D01*
X157475238Y-99544819D02*
X156903810Y-100116247D01*
X157903810Y-100544819D02*
X157903810Y-99878152D01*
X157903810Y-99544819D02*
X157856191Y-99592438D01*
X157856191Y-99592438D02*
X157903810Y-99640057D01*
X157903810Y-99640057D02*
X157951429Y-99592438D01*
X157951429Y-99592438D02*
X157903810Y-99544819D01*
X157903810Y-99544819D02*
X157903810Y-99640057D01*
X158237143Y-99878152D02*
X158618095Y-99878152D01*
X158380000Y-99544819D02*
X158380000Y-100401961D01*
X158380000Y-100401961D02*
X158427619Y-100497200D01*
X158427619Y-100497200D02*
X158522857Y-100544819D01*
X158522857Y-100544819D02*
X158618095Y-100544819D01*
X159522857Y-100449580D02*
X159475238Y-100497200D01*
X159475238Y-100497200D02*
X159332381Y-100544819D01*
X159332381Y-100544819D02*
X159237143Y-100544819D01*
X159237143Y-100544819D02*
X159094286Y-100497200D01*
X159094286Y-100497200D02*
X158999048Y-100401961D01*
X158999048Y-100401961D02*
X158951429Y-100306723D01*
X158951429Y-100306723D02*
X158903810Y-100116247D01*
X158903810Y-100116247D02*
X158903810Y-99973390D01*
X158903810Y-99973390D02*
X158951429Y-99782914D01*
X158951429Y-99782914D02*
X158999048Y-99687676D01*
X158999048Y-99687676D02*
X159094286Y-99592438D01*
X159094286Y-99592438D02*
X159237143Y-99544819D01*
X159237143Y-99544819D02*
X159332381Y-99544819D01*
X159332381Y-99544819D02*
X159475238Y-99592438D01*
X159475238Y-99592438D02*
X159522857Y-99640057D01*
X159951429Y-100163866D02*
X160713334Y-100163866D01*
X161046667Y-99544819D02*
X161380000Y-100544819D01*
X161380000Y-100544819D02*
X161713333Y-99544819D01*
X162046667Y-100021009D02*
X162380000Y-100021009D01*
X162522857Y-100544819D02*
X162046667Y-100544819D01*
X162046667Y-100544819D02*
X162046667Y-99544819D01*
X162046667Y-99544819D02*
X162522857Y-99544819D01*
X160528095Y-113373819D02*
X160528095Y-114183342D01*
X160528095Y-114183342D02*
X160575714Y-114278580D01*
X160575714Y-114278580D02*
X160623333Y-114326200D01*
X160623333Y-114326200D02*
X160718571Y-114373819D01*
X160718571Y-114373819D02*
X160909047Y-114373819D01*
X160909047Y-114373819D02*
X161004285Y-114326200D01*
X161004285Y-114326200D02*
X161051904Y-114278580D01*
X161051904Y-114278580D02*
X161099523Y-114183342D01*
X161099523Y-114183342D02*
X161099523Y-113373819D01*
X162099523Y-114373819D02*
X161528095Y-114373819D01*
X161813809Y-114373819D02*
X161813809Y-113373819D01*
X161813809Y-113373819D02*
X161718571Y-113516676D01*
X161718571Y-113516676D02*
X161623333Y-113611914D01*
X161623333Y-113611914D02*
X161528095Y-113659533D01*
X159204819Y-108465857D02*
X158728628Y-108799190D01*
X159204819Y-109037285D02*
X158204819Y-109037285D01*
X158204819Y-109037285D02*
X158204819Y-108656333D01*
X158204819Y-108656333D02*
X158252438Y-108561095D01*
X158252438Y-108561095D02*
X158300057Y-108513476D01*
X158300057Y-108513476D02*
X158395295Y-108465857D01*
X158395295Y-108465857D02*
X158538152Y-108465857D01*
X158538152Y-108465857D02*
X158633390Y-108513476D01*
X158633390Y-108513476D02*
X158681009Y-108561095D01*
X158681009Y-108561095D02*
X158728628Y-108656333D01*
X158728628Y-108656333D02*
X158728628Y-109037285D01*
X159204819Y-107513476D02*
X159204819Y-108084904D01*
X159204819Y-107799190D02*
X158204819Y-107799190D01*
X158204819Y-107799190D02*
X158347676Y-107894428D01*
X158347676Y-107894428D02*
X158442914Y-107989666D01*
X158442914Y-107989666D02*
X158490533Y-108084904D01*
X158204819Y-106656333D02*
X158204819Y-106846809D01*
X158204819Y-106846809D02*
X158252438Y-106942047D01*
X158252438Y-106942047D02*
X158300057Y-106989666D01*
X158300057Y-106989666D02*
X158442914Y-107084904D01*
X158442914Y-107084904D02*
X158633390Y-107132523D01*
X158633390Y-107132523D02*
X159014342Y-107132523D01*
X159014342Y-107132523D02*
X159109580Y-107084904D01*
X159109580Y-107084904D02*
X159157200Y-107037285D01*
X159157200Y-107037285D02*
X159204819Y-106942047D01*
X159204819Y-106942047D02*
X159204819Y-106751571D01*
X159204819Y-106751571D02*
X159157200Y-106656333D01*
X159157200Y-106656333D02*
X159109580Y-106608714D01*
X159109580Y-106608714D02*
X159014342Y-106561095D01*
X159014342Y-106561095D02*
X158776247Y-106561095D01*
X158776247Y-106561095D02*
X158681009Y-106608714D01*
X158681009Y-106608714D02*
X158633390Y-106656333D01*
X158633390Y-106656333D02*
X158585771Y-106751571D01*
X158585771Y-106751571D02*
X158585771Y-106942047D01*
X158585771Y-106942047D02*
X158633390Y-107037285D01*
X158633390Y-107037285D02*
X158681009Y-107084904D01*
X158681009Y-107084904D02*
X158776247Y-107132523D01*
X171791333Y-122279580D02*
X171743714Y-122327200D01*
X171743714Y-122327200D02*
X171600857Y-122374819D01*
X171600857Y-122374819D02*
X171505619Y-122374819D01*
X171505619Y-122374819D02*
X171362762Y-122327200D01*
X171362762Y-122327200D02*
X171267524Y-122231961D01*
X171267524Y-122231961D02*
X171219905Y-122136723D01*
X171219905Y-122136723D02*
X171172286Y-121946247D01*
X171172286Y-121946247D02*
X171172286Y-121803390D01*
X171172286Y-121803390D02*
X171219905Y-121612914D01*
X171219905Y-121612914D02*
X171267524Y-121517676D01*
X171267524Y-121517676D02*
X171362762Y-121422438D01*
X171362762Y-121422438D02*
X171505619Y-121374819D01*
X171505619Y-121374819D02*
X171600857Y-121374819D01*
X171600857Y-121374819D02*
X171743714Y-121422438D01*
X171743714Y-121422438D02*
X171791333Y-121470057D01*
X172172286Y-121470057D02*
X172219905Y-121422438D01*
X172219905Y-121422438D02*
X172315143Y-121374819D01*
X172315143Y-121374819D02*
X172553238Y-121374819D01*
X172553238Y-121374819D02*
X172648476Y-121422438D01*
X172648476Y-121422438D02*
X172696095Y-121470057D01*
X172696095Y-121470057D02*
X172743714Y-121565295D01*
X172743714Y-121565295D02*
X172743714Y-121660533D01*
X172743714Y-121660533D02*
X172696095Y-121803390D01*
X172696095Y-121803390D02*
X172124667Y-122374819D01*
X172124667Y-122374819D02*
X172743714Y-122374819D01*
X153362819Y-108465857D02*
X152886628Y-108799190D01*
X153362819Y-109037285D02*
X152362819Y-109037285D01*
X152362819Y-109037285D02*
X152362819Y-108656333D01*
X152362819Y-108656333D02*
X152410438Y-108561095D01*
X152410438Y-108561095D02*
X152458057Y-108513476D01*
X152458057Y-108513476D02*
X152553295Y-108465857D01*
X152553295Y-108465857D02*
X152696152Y-108465857D01*
X152696152Y-108465857D02*
X152791390Y-108513476D01*
X152791390Y-108513476D02*
X152839009Y-108561095D01*
X152839009Y-108561095D02*
X152886628Y-108656333D01*
X152886628Y-108656333D02*
X152886628Y-109037285D01*
X153362819Y-107513476D02*
X153362819Y-108084904D01*
X153362819Y-107799190D02*
X152362819Y-107799190D01*
X152362819Y-107799190D02*
X152505676Y-107894428D01*
X152505676Y-107894428D02*
X152600914Y-107989666D01*
X152600914Y-107989666D02*
X152648533Y-108084904D01*
X152362819Y-107180142D02*
X152362819Y-106561095D01*
X152362819Y-106561095D02*
X152743771Y-106894428D01*
X152743771Y-106894428D02*
X152743771Y-106751571D01*
X152743771Y-106751571D02*
X152791390Y-106656333D01*
X152791390Y-106656333D02*
X152839009Y-106608714D01*
X152839009Y-106608714D02*
X152934247Y-106561095D01*
X152934247Y-106561095D02*
X153172342Y-106561095D01*
X153172342Y-106561095D02*
X153267580Y-106608714D01*
X153267580Y-106608714D02*
X153315200Y-106656333D01*
X153315200Y-106656333D02*
X153362819Y-106751571D01*
X153362819Y-106751571D02*
X153362819Y-107037285D01*
X153362819Y-107037285D02*
X153315200Y-107132523D01*
X153315200Y-107132523D02*
X153267580Y-107180142D01*
X137821200Y-94043332D02*
X137868819Y-93900475D01*
X137868819Y-93900475D02*
X137868819Y-93662380D01*
X137868819Y-93662380D02*
X137821200Y-93567142D01*
X137821200Y-93567142D02*
X137773580Y-93519523D01*
X137773580Y-93519523D02*
X137678342Y-93471904D01*
X137678342Y-93471904D02*
X137583104Y-93471904D01*
X137583104Y-93471904D02*
X137487866Y-93519523D01*
X137487866Y-93519523D02*
X137440247Y-93567142D01*
X137440247Y-93567142D02*
X137392628Y-93662380D01*
X137392628Y-93662380D02*
X137345009Y-93852856D01*
X137345009Y-93852856D02*
X137297390Y-93948094D01*
X137297390Y-93948094D02*
X137249771Y-93995713D01*
X137249771Y-93995713D02*
X137154533Y-94043332D01*
X137154533Y-94043332D02*
X137059295Y-94043332D01*
X137059295Y-94043332D02*
X136964057Y-93995713D01*
X136964057Y-93995713D02*
X136916438Y-93948094D01*
X136916438Y-93948094D02*
X136868819Y-93852856D01*
X136868819Y-93852856D02*
X136868819Y-93614761D01*
X136868819Y-93614761D02*
X136916438Y-93471904D01*
X136868819Y-93138570D02*
X137868819Y-92900475D01*
X137868819Y-92900475D02*
X137154533Y-92709999D01*
X137154533Y-92709999D02*
X137868819Y-92519523D01*
X137868819Y-92519523D02*
X136868819Y-92281428D01*
X136964057Y-91948094D02*
X136916438Y-91900475D01*
X136916438Y-91900475D02*
X136868819Y-91805237D01*
X136868819Y-91805237D02*
X136868819Y-91567142D01*
X136868819Y-91567142D02*
X136916438Y-91471904D01*
X136916438Y-91471904D02*
X136964057Y-91424285D01*
X136964057Y-91424285D02*
X137059295Y-91376666D01*
X137059295Y-91376666D02*
X137154533Y-91376666D01*
X137154533Y-91376666D02*
X137297390Y-91424285D01*
X137297390Y-91424285D02*
X137868819Y-91995713D01*
X137868819Y-91995713D02*
X137868819Y-91376666D01*
X136175904Y-89481819D02*
X135842571Y-89005628D01*
X135604476Y-89481819D02*
X135604476Y-88481819D01*
X135604476Y-88481819D02*
X135985428Y-88481819D01*
X135985428Y-88481819D02*
X136080666Y-88529438D01*
X136080666Y-88529438D02*
X136128285Y-88577057D01*
X136128285Y-88577057D02*
X136175904Y-88672295D01*
X136175904Y-88672295D02*
X136175904Y-88815152D01*
X136175904Y-88815152D02*
X136128285Y-88910390D01*
X136128285Y-88910390D02*
X136080666Y-88958009D01*
X136080666Y-88958009D02*
X135985428Y-89005628D01*
X135985428Y-89005628D02*
X135604476Y-89005628D01*
X136985428Y-89434200D02*
X136890190Y-89481819D01*
X136890190Y-89481819D02*
X136699714Y-89481819D01*
X136699714Y-89481819D02*
X136604476Y-89434200D01*
X136604476Y-89434200D02*
X136556857Y-89338961D01*
X136556857Y-89338961D02*
X136556857Y-88958009D01*
X136556857Y-88958009D02*
X136604476Y-88862771D01*
X136604476Y-88862771D02*
X136699714Y-88815152D01*
X136699714Y-88815152D02*
X136890190Y-88815152D01*
X136890190Y-88815152D02*
X136985428Y-88862771D01*
X136985428Y-88862771D02*
X137033047Y-88958009D01*
X137033047Y-88958009D02*
X137033047Y-89053247D01*
X137033047Y-89053247D02*
X136556857Y-89148485D01*
X137414000Y-89434200D02*
X137509238Y-89481819D01*
X137509238Y-89481819D02*
X137699714Y-89481819D01*
X137699714Y-89481819D02*
X137794952Y-89434200D01*
X137794952Y-89434200D02*
X137842571Y-89338961D01*
X137842571Y-89338961D02*
X137842571Y-89291342D01*
X137842571Y-89291342D02*
X137794952Y-89196104D01*
X137794952Y-89196104D02*
X137699714Y-89148485D01*
X137699714Y-89148485D02*
X137556857Y-89148485D01*
X137556857Y-89148485D02*
X137461619Y-89100866D01*
X137461619Y-89100866D02*
X137414000Y-89005628D01*
X137414000Y-89005628D02*
X137414000Y-88958009D01*
X137414000Y-88958009D02*
X137461619Y-88862771D01*
X137461619Y-88862771D02*
X137556857Y-88815152D01*
X137556857Y-88815152D02*
X137699714Y-88815152D01*
X137699714Y-88815152D02*
X137794952Y-88862771D01*
X138652095Y-89434200D02*
X138556857Y-89481819D01*
X138556857Y-89481819D02*
X138366381Y-89481819D01*
X138366381Y-89481819D02*
X138271143Y-89434200D01*
X138271143Y-89434200D02*
X138223524Y-89338961D01*
X138223524Y-89338961D02*
X138223524Y-88958009D01*
X138223524Y-88958009D02*
X138271143Y-88862771D01*
X138271143Y-88862771D02*
X138366381Y-88815152D01*
X138366381Y-88815152D02*
X138556857Y-88815152D01*
X138556857Y-88815152D02*
X138652095Y-88862771D01*
X138652095Y-88862771D02*
X138699714Y-88958009D01*
X138699714Y-88958009D02*
X138699714Y-89053247D01*
X138699714Y-89053247D02*
X138223524Y-89148485D01*
X138985429Y-88815152D02*
X139366381Y-88815152D01*
X139128286Y-88481819D02*
X139128286Y-89338961D01*
X139128286Y-89338961D02*
X139175905Y-89434200D01*
X139175905Y-89434200D02*
X139271143Y-89481819D01*
X139271143Y-89481819D02*
X139366381Y-89481819D01*
X161744819Y-97067666D02*
X161268628Y-97400999D01*
X161744819Y-97639094D02*
X160744819Y-97639094D01*
X160744819Y-97639094D02*
X160744819Y-97258142D01*
X160744819Y-97258142D02*
X160792438Y-97162904D01*
X160792438Y-97162904D02*
X160840057Y-97115285D01*
X160840057Y-97115285D02*
X160935295Y-97067666D01*
X160935295Y-97067666D02*
X161078152Y-97067666D01*
X161078152Y-97067666D02*
X161173390Y-97115285D01*
X161173390Y-97115285D02*
X161221009Y-97162904D01*
X161221009Y-97162904D02*
X161268628Y-97258142D01*
X161268628Y-97258142D02*
X161268628Y-97639094D01*
X160744819Y-96210523D02*
X160744819Y-96400999D01*
X160744819Y-96400999D02*
X160792438Y-96496237D01*
X160792438Y-96496237D02*
X160840057Y-96543856D01*
X160840057Y-96543856D02*
X160982914Y-96639094D01*
X160982914Y-96639094D02*
X161173390Y-96686713D01*
X161173390Y-96686713D02*
X161554342Y-96686713D01*
X161554342Y-96686713D02*
X161649580Y-96639094D01*
X161649580Y-96639094D02*
X161697200Y-96591475D01*
X161697200Y-96591475D02*
X161744819Y-96496237D01*
X161744819Y-96496237D02*
X161744819Y-96305761D01*
X161744819Y-96305761D02*
X161697200Y-96210523D01*
X161697200Y-96210523D02*
X161649580Y-96162904D01*
X161649580Y-96162904D02*
X161554342Y-96115285D01*
X161554342Y-96115285D02*
X161316247Y-96115285D01*
X161316247Y-96115285D02*
X161221009Y-96162904D01*
X161221009Y-96162904D02*
X161173390Y-96210523D01*
X161173390Y-96210523D02*
X161125771Y-96305761D01*
X161125771Y-96305761D02*
X161125771Y-96496237D01*
X161125771Y-96496237D02*
X161173390Y-96591475D01*
X161173390Y-96591475D02*
X161221009Y-96639094D01*
X161221009Y-96639094D02*
X161316247Y-96686713D01*
X171918333Y-83765819D02*
X171585000Y-83289628D01*
X171346905Y-83765819D02*
X171346905Y-82765819D01*
X171346905Y-82765819D02*
X171727857Y-82765819D01*
X171727857Y-82765819D02*
X171823095Y-82813438D01*
X171823095Y-82813438D02*
X171870714Y-82861057D01*
X171870714Y-82861057D02*
X171918333Y-82956295D01*
X171918333Y-82956295D02*
X171918333Y-83099152D01*
X171918333Y-83099152D02*
X171870714Y-83194390D01*
X171870714Y-83194390D02*
X171823095Y-83242009D01*
X171823095Y-83242009D02*
X171727857Y-83289628D01*
X171727857Y-83289628D02*
X171346905Y-83289628D01*
X172870714Y-83765819D02*
X172299286Y-83765819D01*
X172585000Y-83765819D02*
X172585000Y-82765819D01*
X172585000Y-82765819D02*
X172489762Y-82908676D01*
X172489762Y-82908676D02*
X172394524Y-83003914D01*
X172394524Y-83003914D02*
X172299286Y-83051533D01*
X164284819Y-97067666D02*
X163808628Y-97400999D01*
X164284819Y-97639094D02*
X163284819Y-97639094D01*
X163284819Y-97639094D02*
X163284819Y-97258142D01*
X163284819Y-97258142D02*
X163332438Y-97162904D01*
X163332438Y-97162904D02*
X163380057Y-97115285D01*
X163380057Y-97115285D02*
X163475295Y-97067666D01*
X163475295Y-97067666D02*
X163618152Y-97067666D01*
X163618152Y-97067666D02*
X163713390Y-97115285D01*
X163713390Y-97115285D02*
X163761009Y-97162904D01*
X163761009Y-97162904D02*
X163808628Y-97258142D01*
X163808628Y-97258142D02*
X163808628Y-97639094D01*
X163284819Y-96734332D02*
X163284819Y-96115285D01*
X163284819Y-96115285D02*
X163665771Y-96448618D01*
X163665771Y-96448618D02*
X163665771Y-96305761D01*
X163665771Y-96305761D02*
X163713390Y-96210523D01*
X163713390Y-96210523D02*
X163761009Y-96162904D01*
X163761009Y-96162904D02*
X163856247Y-96115285D01*
X163856247Y-96115285D02*
X164094342Y-96115285D01*
X164094342Y-96115285D02*
X164189580Y-96162904D01*
X164189580Y-96162904D02*
X164237200Y-96210523D01*
X164237200Y-96210523D02*
X164284819Y-96305761D01*
X164284819Y-96305761D02*
X164284819Y-96591475D01*
X164284819Y-96591475D02*
X164237200Y-96686713D01*
X164237200Y-96686713D02*
X164189580Y-96734332D01*
X172492200Y-94023932D02*
X172539819Y-93881075D01*
X172539819Y-93881075D02*
X172539819Y-93642980D01*
X172539819Y-93642980D02*
X172492200Y-93547742D01*
X172492200Y-93547742D02*
X172444580Y-93500123D01*
X172444580Y-93500123D02*
X172349342Y-93452504D01*
X172349342Y-93452504D02*
X172254104Y-93452504D01*
X172254104Y-93452504D02*
X172158866Y-93500123D01*
X172158866Y-93500123D02*
X172111247Y-93547742D01*
X172111247Y-93547742D02*
X172063628Y-93642980D01*
X172063628Y-93642980D02*
X172016009Y-93833456D01*
X172016009Y-93833456D02*
X171968390Y-93928694D01*
X171968390Y-93928694D02*
X171920771Y-93976313D01*
X171920771Y-93976313D02*
X171825533Y-94023932D01*
X171825533Y-94023932D02*
X171730295Y-94023932D01*
X171730295Y-94023932D02*
X171635057Y-93976313D01*
X171635057Y-93976313D02*
X171587438Y-93928694D01*
X171587438Y-93928694D02*
X171539819Y-93833456D01*
X171539819Y-93833456D02*
X171539819Y-93595361D01*
X171539819Y-93595361D02*
X171587438Y-93452504D01*
X171539819Y-93119170D02*
X172539819Y-92881075D01*
X172539819Y-92881075D02*
X171825533Y-92690599D01*
X171825533Y-92690599D02*
X172539819Y-92500123D01*
X172539819Y-92500123D02*
X171539819Y-92262028D01*
X172539819Y-91357266D02*
X172539819Y-91928694D01*
X172539819Y-91642980D02*
X171539819Y-91642980D01*
X171539819Y-91642980D02*
X171682676Y-91738218D01*
X171682676Y-91738218D02*
X171777914Y-91833456D01*
X171777914Y-91833456D02*
X171825533Y-91928694D01*
X169799285Y-88958009D02*
X169942142Y-89005628D01*
X169942142Y-89005628D02*
X169989761Y-89053247D01*
X169989761Y-89053247D02*
X170037380Y-89148485D01*
X170037380Y-89148485D02*
X170037380Y-89291342D01*
X170037380Y-89291342D02*
X169989761Y-89386580D01*
X169989761Y-89386580D02*
X169942142Y-89434200D01*
X169942142Y-89434200D02*
X169846904Y-89481819D01*
X169846904Y-89481819D02*
X169465952Y-89481819D01*
X169465952Y-89481819D02*
X169465952Y-88481819D01*
X169465952Y-88481819D02*
X169799285Y-88481819D01*
X169799285Y-88481819D02*
X169894523Y-88529438D01*
X169894523Y-88529438D02*
X169942142Y-88577057D01*
X169942142Y-88577057D02*
X169989761Y-88672295D01*
X169989761Y-88672295D02*
X169989761Y-88767533D01*
X169989761Y-88767533D02*
X169942142Y-88862771D01*
X169942142Y-88862771D02*
X169894523Y-88910390D01*
X169894523Y-88910390D02*
X169799285Y-88958009D01*
X169799285Y-88958009D02*
X169465952Y-88958009D01*
X170894523Y-88815152D02*
X170894523Y-89481819D01*
X170465952Y-88815152D02*
X170465952Y-89338961D01*
X170465952Y-89338961D02*
X170513571Y-89434200D01*
X170513571Y-89434200D02*
X170608809Y-89481819D01*
X170608809Y-89481819D02*
X170751666Y-89481819D01*
X170751666Y-89481819D02*
X170846904Y-89434200D01*
X170846904Y-89434200D02*
X170894523Y-89386580D01*
X171227857Y-88815152D02*
X171608809Y-88815152D01*
X171370714Y-88481819D02*
X171370714Y-89338961D01*
X171370714Y-89338961D02*
X171418333Y-89434200D01*
X171418333Y-89434200D02*
X171513571Y-89481819D01*
X171513571Y-89481819D02*
X171608809Y-89481819D01*
X171799286Y-88815152D02*
X172180238Y-88815152D01*
X171942143Y-88481819D02*
X171942143Y-89338961D01*
X171942143Y-89338961D02*
X171989762Y-89434200D01*
X171989762Y-89434200D02*
X172085000Y-89481819D01*
X172085000Y-89481819D02*
X172180238Y-89481819D01*
X172656429Y-89481819D02*
X172561191Y-89434200D01*
X172561191Y-89434200D02*
X172513572Y-89386580D01*
X172513572Y-89386580D02*
X172465953Y-89291342D01*
X172465953Y-89291342D02*
X172465953Y-89005628D01*
X172465953Y-89005628D02*
X172513572Y-88910390D01*
X172513572Y-88910390D02*
X172561191Y-88862771D01*
X172561191Y-88862771D02*
X172656429Y-88815152D01*
X172656429Y-88815152D02*
X172799286Y-88815152D01*
X172799286Y-88815152D02*
X172894524Y-88862771D01*
X172894524Y-88862771D02*
X172942143Y-88910390D01*
X172942143Y-88910390D02*
X172989762Y-89005628D01*
X172989762Y-89005628D02*
X172989762Y-89291342D01*
X172989762Y-89291342D02*
X172942143Y-89386580D01*
X172942143Y-89386580D02*
X172894524Y-89434200D01*
X172894524Y-89434200D02*
X172799286Y-89481819D01*
X172799286Y-89481819D02*
X172656429Y-89481819D01*
X173418334Y-88815152D02*
X173418334Y-89481819D01*
X173418334Y-88910390D02*
X173465953Y-88862771D01*
X173465953Y-88862771D02*
X173561191Y-88815152D01*
X173561191Y-88815152D02*
X173704048Y-88815152D01*
X173704048Y-88815152D02*
X173799286Y-88862771D01*
X173799286Y-88862771D02*
X173846905Y-88958009D01*
X173846905Y-88958009D02*
X173846905Y-89481819D01*
X174275477Y-89196104D02*
X174751667Y-89196104D01*
X174180239Y-89481819D02*
X174513572Y-88481819D01*
X174513572Y-88481819D02*
X174846905Y-89481819D01*
X134709819Y-112775904D02*
X135519342Y-112775904D01*
X135519342Y-112775904D02*
X135614580Y-112728285D01*
X135614580Y-112728285D02*
X135662200Y-112680666D01*
X135662200Y-112680666D02*
X135709819Y-112585428D01*
X135709819Y-112585428D02*
X135709819Y-112394952D01*
X135709819Y-112394952D02*
X135662200Y-112299714D01*
X135662200Y-112299714D02*
X135614580Y-112252095D01*
X135614580Y-112252095D02*
X135519342Y-112204476D01*
X135519342Y-112204476D02*
X134709819Y-112204476D01*
X134709819Y-111252095D02*
X134709819Y-111728285D01*
X134709819Y-111728285D02*
X135186009Y-111775904D01*
X135186009Y-111775904D02*
X135138390Y-111728285D01*
X135138390Y-111728285D02*
X135090771Y-111633047D01*
X135090771Y-111633047D02*
X135090771Y-111394952D01*
X135090771Y-111394952D02*
X135138390Y-111299714D01*
X135138390Y-111299714D02*
X135186009Y-111252095D01*
X135186009Y-111252095D02*
X135281247Y-111204476D01*
X135281247Y-111204476D02*
X135519342Y-111204476D01*
X135519342Y-111204476D02*
X135614580Y-111252095D01*
X135614580Y-111252095D02*
X135662200Y-111299714D01*
X135662200Y-111299714D02*
X135709819Y-111394952D01*
X135709819Y-111394952D02*
X135709819Y-111633047D01*
X135709819Y-111633047D02*
X135662200Y-111728285D01*
X135662200Y-111728285D02*
X135614580Y-111775904D01*
X171311905Y-80459819D02*
X171311905Y-79459819D01*
X171311905Y-79459819D02*
X171550000Y-79459819D01*
X171550000Y-79459819D02*
X171692857Y-79507438D01*
X171692857Y-79507438D02*
X171788095Y-79602676D01*
X171788095Y-79602676D02*
X171835714Y-79697914D01*
X171835714Y-79697914D02*
X171883333Y-79888390D01*
X171883333Y-79888390D02*
X171883333Y-80031247D01*
X171883333Y-80031247D02*
X171835714Y-80221723D01*
X171835714Y-80221723D02*
X171788095Y-80316961D01*
X171788095Y-80316961D02*
X171692857Y-80412200D01*
X171692857Y-80412200D02*
X171550000Y-80459819D01*
X171550000Y-80459819D02*
X171311905Y-80459819D01*
X172835714Y-80459819D02*
X172264286Y-80459819D01*
X172550000Y-80459819D02*
X172550000Y-79459819D01*
X172550000Y-79459819D02*
X172454762Y-79602676D01*
X172454762Y-79602676D02*
X172359524Y-79697914D01*
X172359524Y-79697914D02*
X172264286Y-79745533D01*
X170716667Y-75921717D02*
X170954762Y-76921717D01*
X170954762Y-76921717D02*
X171145238Y-76207431D01*
X171145238Y-76207431D02*
X171335714Y-76921717D01*
X171335714Y-76921717D02*
X171573810Y-75921717D01*
X171954762Y-76921717D02*
X171954762Y-75921717D01*
X172764285Y-76397907D02*
X172430952Y-76397907D01*
X172430952Y-76921717D02*
X172430952Y-75921717D01*
X172430952Y-75921717D02*
X172907142Y-75921717D01*
X173288095Y-76921717D02*
X173288095Y-75921717D01*
X153296705Y-81902819D02*
X153296705Y-80902819D01*
X153296705Y-80902819D02*
X153677657Y-80902819D01*
X153677657Y-80902819D02*
X153772895Y-80950438D01*
X153772895Y-80950438D02*
X153820514Y-80998057D01*
X153820514Y-80998057D02*
X153868133Y-81093295D01*
X153868133Y-81093295D02*
X153868133Y-81236152D01*
X153868133Y-81236152D02*
X153820514Y-81331390D01*
X153820514Y-81331390D02*
X153772895Y-81379009D01*
X153772895Y-81379009D02*
X153677657Y-81426628D01*
X153677657Y-81426628D02*
X153296705Y-81426628D01*
X154820514Y-81902819D02*
X154249086Y-81902819D01*
X154534800Y-81902819D02*
X154534800Y-80902819D01*
X154534800Y-80902819D02*
X154439562Y-81045676D01*
X154439562Y-81045676D02*
X154344324Y-81140914D01*
X154344324Y-81140914D02*
X154249086Y-81188533D01*
X150568819Y-108465857D02*
X150092628Y-108799190D01*
X150568819Y-109037285D02*
X149568819Y-109037285D01*
X149568819Y-109037285D02*
X149568819Y-108656333D01*
X149568819Y-108656333D02*
X149616438Y-108561095D01*
X149616438Y-108561095D02*
X149664057Y-108513476D01*
X149664057Y-108513476D02*
X149759295Y-108465857D01*
X149759295Y-108465857D02*
X149902152Y-108465857D01*
X149902152Y-108465857D02*
X149997390Y-108513476D01*
X149997390Y-108513476D02*
X150045009Y-108561095D01*
X150045009Y-108561095D02*
X150092628Y-108656333D01*
X150092628Y-108656333D02*
X150092628Y-109037285D01*
X150568819Y-107513476D02*
X150568819Y-108084904D01*
X150568819Y-107799190D02*
X149568819Y-107799190D01*
X149568819Y-107799190D02*
X149711676Y-107894428D01*
X149711676Y-107894428D02*
X149806914Y-107989666D01*
X149806914Y-107989666D02*
X149854533Y-108084904D01*
X149902152Y-106656333D02*
X150568819Y-106656333D01*
X149521200Y-106894428D02*
X150235485Y-107132523D01*
X150235485Y-107132523D02*
X150235485Y-106513476D01*
X136640905Y-80459819D02*
X136640905Y-79459819D01*
X136640905Y-79459819D02*
X136879000Y-79459819D01*
X136879000Y-79459819D02*
X137021857Y-79507438D01*
X137021857Y-79507438D02*
X137117095Y-79602676D01*
X137117095Y-79602676D02*
X137164714Y-79697914D01*
X137164714Y-79697914D02*
X137212333Y-79888390D01*
X137212333Y-79888390D02*
X137212333Y-80031247D01*
X137212333Y-80031247D02*
X137164714Y-80221723D01*
X137164714Y-80221723D02*
X137117095Y-80316961D01*
X137117095Y-80316961D02*
X137021857Y-80412200D01*
X137021857Y-80412200D02*
X136879000Y-80459819D01*
X136879000Y-80459819D02*
X136640905Y-80459819D01*
X137593286Y-79555057D02*
X137640905Y-79507438D01*
X137640905Y-79507438D02*
X137736143Y-79459819D01*
X137736143Y-79459819D02*
X137974238Y-79459819D01*
X137974238Y-79459819D02*
X138069476Y-79507438D01*
X138069476Y-79507438D02*
X138117095Y-79555057D01*
X138117095Y-79555057D02*
X138164714Y-79650295D01*
X138164714Y-79650295D02*
X138164714Y-79745533D01*
X138164714Y-79745533D02*
X138117095Y-79888390D01*
X138117095Y-79888390D02*
X137545667Y-80459819D01*
X137545667Y-80459819D02*
X138164714Y-80459819D01*
X136450428Y-76397907D02*
X136593285Y-76445526D01*
X136593285Y-76445526D02*
X136640904Y-76493145D01*
X136640904Y-76493145D02*
X136688523Y-76588383D01*
X136688523Y-76588383D02*
X136688523Y-76731240D01*
X136688523Y-76731240D02*
X136640904Y-76826478D01*
X136640904Y-76826478D02*
X136593285Y-76874098D01*
X136593285Y-76874098D02*
X136498047Y-76921717D01*
X136498047Y-76921717D02*
X136117095Y-76921717D01*
X136117095Y-76921717D02*
X136117095Y-75921717D01*
X136117095Y-75921717D02*
X136450428Y-75921717D01*
X136450428Y-75921717D02*
X136545666Y-75969336D01*
X136545666Y-75969336D02*
X136593285Y-76016955D01*
X136593285Y-76016955D02*
X136640904Y-76112193D01*
X136640904Y-76112193D02*
X136640904Y-76207431D01*
X136640904Y-76207431D02*
X136593285Y-76302669D01*
X136593285Y-76302669D02*
X136545666Y-76350288D01*
X136545666Y-76350288D02*
X136450428Y-76397907D01*
X136450428Y-76397907D02*
X136117095Y-76397907D01*
X137117095Y-75921717D02*
X137117095Y-76731240D01*
X137117095Y-76731240D02*
X137164714Y-76826478D01*
X137164714Y-76826478D02*
X137212333Y-76874098D01*
X137212333Y-76874098D02*
X137307571Y-76921717D01*
X137307571Y-76921717D02*
X137498047Y-76921717D01*
X137498047Y-76921717D02*
X137593285Y-76874098D01*
X137593285Y-76874098D02*
X137640904Y-76826478D01*
X137640904Y-76826478D02*
X137688523Y-76731240D01*
X137688523Y-76731240D02*
X137688523Y-75921717D01*
X138117095Y-76874098D02*
X138259952Y-76921717D01*
X138259952Y-76921717D02*
X138498047Y-76921717D01*
X138498047Y-76921717D02*
X138593285Y-76874098D01*
X138593285Y-76874098D02*
X138640904Y-76826478D01*
X138640904Y-76826478D02*
X138688523Y-76731240D01*
X138688523Y-76731240D02*
X138688523Y-76636002D01*
X138688523Y-76636002D02*
X138640904Y-76540764D01*
X138640904Y-76540764D02*
X138593285Y-76493145D01*
X138593285Y-76493145D02*
X138498047Y-76445526D01*
X138498047Y-76445526D02*
X138307571Y-76397907D01*
X138307571Y-76397907D02*
X138212333Y-76350288D01*
X138212333Y-76350288D02*
X138164714Y-76302669D01*
X138164714Y-76302669D02*
X138117095Y-76207431D01*
X138117095Y-76207431D02*
X138117095Y-76112193D01*
X138117095Y-76112193D02*
X138164714Y-76016955D01*
X138164714Y-76016955D02*
X138212333Y-75969336D01*
X138212333Y-75969336D02*
X138307571Y-75921717D01*
X138307571Y-75921717D02*
X138545666Y-75921717D01*
X138545666Y-75921717D02*
X138688523Y-75969336D01*
D13*
%TO.C,J2*%
X166203000Y-131041600D02*
X166703000Y-130041600D01*
X152723000Y-132741600D02*
X152723000Y-131431600D01*
X171413000Y-140551600D02*
X138133000Y-140551600D01*
X138133000Y-140551600D02*
X138133000Y-131431600D01*
X170113000Y-132741600D02*
X170113000Y-139241600D01*
X166703000Y-130041600D02*
X165703000Y-130041600D01*
X152723000Y-132741600D02*
X152723000Y-132741600D01*
X171413000Y-131431600D02*
X171413000Y-140551600D01*
X139433000Y-139241600D02*
X139433000Y-132741600D01*
X138133000Y-131431600D02*
X171413000Y-131431600D01*
X165703000Y-130041600D02*
X166203000Y-131041600D01*
X139433000Y-132741600D02*
X152723000Y-132741600D01*
X156823000Y-132741600D02*
X170113000Y-132741600D01*
X170113000Y-139241600D02*
X139433000Y-139241600D01*
X156823000Y-131431600D02*
X156823000Y-132741600D01*
%TO.C,R12*%
X137202936Y-108485000D02*
X137657064Y-108485000D01*
X137202936Y-109955000D02*
X137657064Y-109955000D01*
%TO.C,D3*%
X173481000Y-101646000D02*
X170181000Y-101646000D01*
X173481000Y-101646000D02*
X173481000Y-107156000D01*
X170181000Y-101646000D02*
X170181000Y-107156000D01*
%TO.C,C1*%
X157085000Y-91700000D02*
X154065000Y-91700000D01*
X154065000Y-91700000D02*
X154065000Y-96085000D01*
X157085000Y-96085000D02*
X157085000Y-91700000D01*
%TO.C,R4*%
X153135000Y-93752936D02*
X153135000Y-94207064D01*
X151665000Y-93752936D02*
X151665000Y-94207064D01*
%TO.C,R2*%
X137657064Y-82396000D02*
X137202936Y-82396000D01*
X137657064Y-80926000D02*
X137202936Y-80926000D01*
%TO.C,U3*%
X151065001Y-118435001D02*
X151065001Y-114835001D01*
X151065001Y-118435001D02*
X151065001Y-120635001D01*
X145845001Y-118435001D02*
X145845001Y-116235001D01*
X145845001Y-118435001D02*
X145845001Y-120635001D01*
%TO.C,R11*%
X137657064Y-122655000D02*
X137202936Y-122655000D01*
X137657064Y-121185000D02*
X137202936Y-121185000D01*
%TO.C,U2*%
X157505001Y-118435001D02*
X157505001Y-114835001D01*
X157505001Y-118435001D02*
X157505001Y-120635001D01*
X152285001Y-118435001D02*
X152285001Y-116235001D01*
X152285001Y-118435001D02*
X152285001Y-120635001D01*
%TO.C,R7*%
X148055000Y-93752936D02*
X148055000Y-94207064D01*
X146585000Y-93752936D02*
X146585000Y-94207064D01*
%TO.C,R9*%
X172312064Y-97890000D02*
X171857936Y-97890000D01*
X172312064Y-96420000D02*
X171857936Y-96420000D01*
%TO.C,R5*%
X159485000Y-93752936D02*
X159485000Y-94207064D01*
X158015000Y-93752936D02*
X158015000Y-94207064D01*
%TO.C,R10*%
X137202936Y-96420000D02*
X137657064Y-96420000D01*
X137202936Y-97890000D02*
X137657064Y-97890000D01*
%TO.C,R15*%
X155065000Y-104732064D02*
X155065000Y-104277936D01*
X156535000Y-104732064D02*
X156535000Y-104277936D01*
%TO.C,R8*%
X150595000Y-93752936D02*
X150595000Y-94207064D01*
X149125000Y-93752936D02*
X149125000Y-94207064D01*
D14*
%TO.C,U4*%
X168712200Y-124430000D02*
X168712200Y-76230000D01*
X168712200Y-76230000D02*
X158832200Y-76230000D01*
X163762200Y-130630000D02*
X145762200Y-130630000D01*
X163762200Y-124430000D02*
X168712200Y-124430000D01*
X163762200Y-124430000D02*
X163762200Y-130630000D01*
X158832200Y-76230000D02*
X158832200Y-75330000D01*
X158832200Y-75330000D02*
X150702200Y-75330000D01*
X150702200Y-76230000D02*
X140812200Y-76230000D01*
X150702200Y-75330000D02*
X150702200Y-76230000D01*
X145762200Y-130630000D02*
X145762200Y-124430000D01*
X140812200Y-124430000D02*
X145762200Y-124430000D01*
X140812200Y-76230000D02*
X140812200Y-124430000D01*
D12*
X169432200Y-123300000D02*
G75*
G03*
X169232200Y-123300000I-100000J0D01*
G01*
X169232200Y-123300000D02*
G75*
G03*
X169432200Y-123300000I100000J0D01*
G01*
D13*
%TO.C,U1*%
X163855001Y-118435001D02*
X163855001Y-114835001D01*
X163855001Y-118435001D02*
X163855001Y-120635001D01*
X158635001Y-118435001D02*
X158635001Y-116235001D01*
X158635001Y-118435001D02*
X158635001Y-120635001D01*
%TO.C,R16*%
X158015000Y-104732064D02*
X158015000Y-104277936D01*
X159485000Y-104732064D02*
X159485000Y-104277936D01*
%TO.C,C2*%
X174218000Y-112001000D02*
X169698000Y-112001000D01*
X169698000Y-112001000D02*
X169698000Y-120236000D01*
X174218000Y-120236000D02*
X174218000Y-112001000D01*
%TO.C,R13*%
X152173000Y-104748064D02*
X152173000Y-104293936D01*
X153643000Y-104748064D02*
X153643000Y-104293936D01*
%TO.C,SW2*%
X135875400Y-94780000D02*
X135875400Y-90640000D01*
X136175400Y-94780000D02*
X135875400Y-94780000D01*
X139015400Y-94780000D02*
X138715400Y-94780000D01*
X135875400Y-90640000D02*
X136175400Y-90640000D01*
X138715400Y-90640000D02*
X139015400Y-90640000D01*
X139015400Y-90640000D02*
X139015400Y-94780000D01*
%TO.C,R6*%
X162025000Y-93752936D02*
X162025000Y-94207064D01*
X160555000Y-93752936D02*
X160555000Y-94207064D01*
%TO.C,R1*%
X172312064Y-82396000D02*
X171857936Y-82396000D01*
X172312064Y-80926000D02*
X171857936Y-80926000D01*
%TO.C,R3*%
X164565000Y-93752936D02*
X164565000Y-94207064D01*
X163095000Y-93752936D02*
X163095000Y-94207064D01*
%TO.C,SW1*%
X170515000Y-94760600D02*
X170515000Y-90620600D01*
X170815000Y-94760600D02*
X170515000Y-94760600D01*
X173655000Y-94760600D02*
X173355000Y-94760600D01*
X170515000Y-90620600D02*
X170815000Y-90620600D01*
X173355000Y-90620600D02*
X173655000Y-90620600D01*
X173655000Y-90620600D02*
X173655000Y-94760600D01*
%TO.C,U5*%
X135481000Y-117828000D02*
X135711000Y-117828000D01*
X135711000Y-117828000D02*
X135711000Y-119568000D01*
X139601000Y-117828000D02*
X139371000Y-117828000D01*
X135481000Y-115518000D02*
X135481000Y-117828000D01*
X135481000Y-115518000D02*
X135481000Y-113208000D01*
X139601000Y-115518000D02*
X139601000Y-117828000D01*
X139601000Y-115518000D02*
X139601000Y-113208000D01*
X135481000Y-113208000D02*
X135711000Y-113208000D01*
X139601000Y-113208000D02*
X139371000Y-113208000D01*
%TO.C,D1*%
X173050000Y-77100000D02*
X174750000Y-77100000D01*
X174750000Y-77100000D02*
X174750000Y-79100000D01*
X174750000Y-79100000D02*
X173050000Y-79100000D01*
X172750000Y-77100000D02*
X172850000Y-77100000D01*
X172850000Y-77100000D02*
X172850000Y-79100000D01*
X172850000Y-79100000D02*
X172750000Y-79100000D01*
X172750000Y-79100000D02*
X172750000Y-77100000D01*
D14*
%TO.C,P1*%
X155359900Y-74530000D02*
X162293800Y-74530000D01*
X148836800Y-88500000D02*
X151936800Y-88500000D01*
X147307800Y-73514000D02*
X149838900Y-73514000D01*
X150838801Y-73697999D02*
G75*
G03*
X155359900Y-74530000I4521129J11867999D01*
G01*
X150838794Y-73698015D02*
G75*
G03*
X149838900Y-73514000I-999894J-2624585D01*
G01*
D13*
%TO.C,R14*%
X149506000Y-104732064D02*
X149506000Y-104277936D01*
X150976000Y-104732064D02*
X150976000Y-104277936D01*
%TO.C,D2*%
X138379000Y-77100000D02*
X140079000Y-77100000D01*
X140079000Y-77100000D02*
X140079000Y-79100000D01*
X140079000Y-79100000D02*
X138379000Y-79100000D01*
X138079000Y-77100000D02*
X138179000Y-77100000D01*
X138179000Y-77100000D02*
X138179000Y-79100000D01*
X138179000Y-79100000D02*
X138079000Y-79100000D01*
X138079000Y-79100000D02*
X138079000Y-77100000D01*
%TD*%
M02*
