%TF.GenerationSoftware,KiCad,Pcbnew,7.0.10*%
%TF.CreationDate,2024-02-08T23:41:11-06:00*%
%TF.ProjectId,FujiApple-DevKit-Combo,46756a69-4170-4706-9c65-2d4465764b69,1.0*%
%TF.SameCoordinates,Original*%
%TF.FileFunction,Soldermask,Top*%
%TF.FilePolarity,Negative*%
%FSLAX46Y46*%
G04 Gerber Fmt 4.6, Leading zero omitted, Abs format (unit mm)*
G04 Created by KiCad (PCBNEW 7.0.10) date 2024-02-08 23:41:11*
%MOMM*%
%LPD*%
G01*
G04 APERTURE LIST*
G04 Aperture macros list*
%AMRoundRect*
0 Rectangle with rounded corners*
0 $1 Rounding radius*
0 $2 $3 $4 $5 $6 $7 $8 $9 X,Y pos of 4 corners*
0 Add a 4 corners polygon primitive as box body*
4,1,4,$2,$3,$4,$5,$6,$7,$8,$9,$2,$3,0*
0 Add four circle primitives for the rounded corners*
1,1,$1+$1,$2,$3*
1,1,$1+$1,$4,$5*
1,1,$1+$1,$6,$7*
1,1,$1+$1,$8,$9*
0 Add four rect primitives between the rounded corners*
20,1,$1+$1,$2,$3,$4,$5,0*
20,1,$1+$1,$4,$5,$6,$7,0*
20,1,$1+$1,$6,$7,$8,$9,0*
20,1,$1+$1,$8,$9,$2,$3,0*%
G04 Aperture macros list end*
%ADD10RoundRect,0.250000X-0.600000X0.600000X-0.600000X-0.600000X0.600000X-0.600000X0.600000X0.600000X0*%
%ADD11C,1.700000*%
%ADD12RoundRect,0.250000X-0.350000X-0.450000X0.350000X-0.450000X0.350000X0.450000X-0.350000X0.450000X0*%
%ADD13RoundRect,0.250000X-0.650000X1.000000X-0.650000X-1.000000X0.650000X-1.000000X0.650000X1.000000X0*%
%ADD14RoundRect,0.250001X-0.924999X0.499999X-0.924999X-0.499999X0.924999X-0.499999X0.924999X0.499999X0*%
%ADD15RoundRect,0.250000X-0.450000X0.350000X-0.450000X-0.350000X0.450000X-0.350000X0.450000X0.350000X0*%
%ADD16RoundRect,0.250000X0.350000X0.450000X-0.350000X0.450000X-0.350000X-0.450000X0.350000X-0.450000X0*%
%ADD17RoundRect,0.100000X-0.100000X0.637500X-0.100000X-0.637500X0.100000X-0.637500X0.100000X0.637500X0*%
%ADD18RoundRect,0.250000X0.450000X-0.350000X0.450000X0.350000X-0.450000X0.350000X-0.450000X-0.350000X0*%
%ADD19R,1.530000X1.530000*%
%ADD20C,1.530000*%
%ADD21RoundRect,0.250000X-1.025000X0.875000X-1.025000X-0.875000X1.025000X-0.875000X1.025000X0.875000X0*%
%ADD22RoundRect,0.200000X0.800000X-0.200000X0.800000X0.200000X-0.800000X0.200000X-0.800000X-0.200000X0*%
%ADD23RoundRect,0.150000X0.150000X-0.750000X0.150000X0.750000X-0.150000X0.750000X-0.150000X-0.750000X0*%
%ADD24R,0.900000X0.900000*%
%ADD25R,1.500000X1.500000*%
%ADD26C,0.900000*%
%ADD27R,0.700000X1.600000*%
%ADD28R,1.400000X1.600000*%
%ADD29R,1.400000X2.200000*%
%ADD30R,1.800000X1.400000*%
%ADD31C,2.700000*%
%ADD32O,2.100000X2.300000*%
G04 APERTURE END LIST*
D10*
%TO.C,J2*%
X166203000Y-134721600D03*
D11*
X166203000Y-137261600D03*
X163663000Y-134721600D03*
X163663000Y-137261600D03*
X161123000Y-134721600D03*
X161123000Y-137261600D03*
X158583000Y-134721600D03*
X158583000Y-137261600D03*
X156043000Y-134721600D03*
X156043000Y-137261600D03*
X153503000Y-134721600D03*
X153503000Y-137261600D03*
X150963000Y-134721600D03*
X150963000Y-137261600D03*
X148423000Y-134721600D03*
X148423000Y-137261600D03*
X145883000Y-134721600D03*
X145883000Y-137261600D03*
X143343000Y-134721600D03*
X143343000Y-137261600D03*
%TD*%
D12*
%TO.C,R12*%
X136430000Y-109220000D03*
X138430000Y-109220000D03*
%TD*%
D13*
%TO.C,D3*%
X171831000Y-103156000D03*
X171831000Y-107156000D03*
%TD*%
D14*
%TO.C,C1*%
X155575000Y-92710000D03*
X155575000Y-95960000D03*
%TD*%
D15*
%TO.C,R4*%
X152400000Y-92980000D03*
X152400000Y-94980000D03*
%TD*%
D16*
%TO.C,R2*%
X138430000Y-81661000D03*
X136430000Y-81661000D03*
%TD*%
D17*
%TO.C,U3*%
X150405001Y-115572501D03*
X149755001Y-115572501D03*
X149105001Y-115572501D03*
X148455001Y-115572501D03*
X147805001Y-115572501D03*
X147155001Y-115572501D03*
X146505001Y-115572501D03*
X146505001Y-121297501D03*
X147155001Y-121297501D03*
X147805001Y-121297501D03*
X148455001Y-121297501D03*
X149105001Y-121297501D03*
X149755001Y-121297501D03*
X150405001Y-121297501D03*
%TD*%
D16*
%TO.C,R11*%
X138430000Y-121920000D03*
X136430000Y-121920000D03*
%TD*%
D17*
%TO.C,U2*%
X156845001Y-115572501D03*
X156195001Y-115572501D03*
X155545001Y-115572501D03*
X154895001Y-115572501D03*
X154245001Y-115572501D03*
X153595001Y-115572501D03*
X152945001Y-115572501D03*
X152945001Y-121297501D03*
X153595001Y-121297501D03*
X154245001Y-121297501D03*
X154895001Y-121297501D03*
X155545001Y-121297501D03*
X156195001Y-121297501D03*
X156845001Y-121297501D03*
%TD*%
D15*
%TO.C,R7*%
X147320000Y-92980000D03*
X147320000Y-94980000D03*
%TD*%
D16*
%TO.C,R9*%
X173085000Y-97155000D03*
X171085000Y-97155000D03*
%TD*%
D15*
%TO.C,R5*%
X158750000Y-92980000D03*
X158750000Y-94980000D03*
%TD*%
D12*
%TO.C,R10*%
X136430000Y-97155000D03*
X138430000Y-97155000D03*
%TD*%
D18*
%TO.C,R15*%
X155800000Y-105505000D03*
X155800000Y-103505000D03*
%TD*%
D15*
%TO.C,R8*%
X149860000Y-92980000D03*
X149860000Y-94980000D03*
%TD*%
D19*
%TO.C,U4*%
X167462200Y-123180000D03*
D20*
X167462200Y-120640000D03*
X167462200Y-118100000D03*
X167462200Y-115560000D03*
X167462200Y-113020000D03*
X167462200Y-110480000D03*
X167462200Y-107940000D03*
X167462200Y-105400000D03*
X167462200Y-102860000D03*
X167462200Y-100320000D03*
X167462200Y-97780000D03*
X167462200Y-95240000D03*
X167462200Y-92700000D03*
X167462200Y-90160000D03*
X167462200Y-87620000D03*
X167462200Y-85080000D03*
X167462200Y-82540000D03*
X167462200Y-80000000D03*
X167462200Y-77460000D03*
X142062200Y-77460000D03*
X142062200Y-80000000D03*
X142062200Y-82540000D03*
X142062200Y-85080000D03*
X142062200Y-87620000D03*
X142062200Y-90160000D03*
X142062200Y-92700000D03*
X142062200Y-95240000D03*
X142062200Y-97780000D03*
X142062200Y-100320000D03*
X142062200Y-102860000D03*
X142062200Y-105400000D03*
X142062200Y-107940000D03*
X142062200Y-110480000D03*
X142062200Y-113020000D03*
X142062200Y-115560000D03*
X142062200Y-118100000D03*
X142062200Y-120640000D03*
X142062200Y-123180000D03*
%TD*%
D17*
%TO.C,U1*%
X163195001Y-115572501D03*
X162545001Y-115572501D03*
X161895001Y-115572501D03*
X161245001Y-115572501D03*
X160595001Y-115572501D03*
X159945001Y-115572501D03*
X159295001Y-115572501D03*
X159295001Y-121297501D03*
X159945001Y-121297501D03*
X160595001Y-121297501D03*
X161245001Y-121297501D03*
X161895001Y-121297501D03*
X162545001Y-121297501D03*
X163195001Y-121297501D03*
%TD*%
D18*
%TO.C,R16*%
X158750000Y-105505000D03*
X158750000Y-103505000D03*
%TD*%
D21*
%TO.C,C2*%
X171958000Y-113386000D03*
X171958000Y-119786000D03*
%TD*%
D18*
%TO.C,R13*%
X152908000Y-105521000D03*
X152908000Y-103521000D03*
%TD*%
D22*
%TO.C,SW2*%
X137445400Y-94810000D03*
X137445400Y-90610000D03*
%TD*%
D15*
%TO.C,R6*%
X161290000Y-92980000D03*
X161290000Y-94980000D03*
%TD*%
D16*
%TO.C,R1*%
X173085000Y-81661000D03*
X171085000Y-81661000D03*
%TD*%
D15*
%TO.C,R3*%
X163830000Y-92980000D03*
X163830000Y-94980000D03*
%TD*%
D22*
%TO.C,SW1*%
X172085000Y-94790600D03*
X172085000Y-90590600D03*
%TD*%
D23*
%TO.C,U5*%
X136271000Y-118668000D03*
X138811000Y-118668000D03*
X138811000Y-112368000D03*
X136271000Y-112368000D03*
%TD*%
D24*
%TO.C,D1*%
X172050000Y-78650000D03*
D25*
X173800000Y-78100000D03*
X170300000Y-78100000D03*
%TD*%
D26*
%TO.C,P1*%
X159686800Y-78000000D03*
X151686800Y-78000000D03*
D27*
X152486800Y-88500000D03*
X153586800Y-88500000D03*
X154686800Y-88500000D03*
X155786800Y-88500000D03*
X156886800Y-88500000D03*
X157986800Y-88500000D03*
X159086800Y-88500000D03*
X160186800Y-88500000D03*
X161286800Y-88500000D03*
D28*
X162586800Y-87900000D03*
D29*
X162586800Y-78400000D03*
X146886800Y-78400000D03*
D30*
X147786800Y-88000000D03*
%TD*%
D18*
%TO.C,R14*%
X150241000Y-105505000D03*
X150241000Y-103505000D03*
%TD*%
D24*
%TO.C,D2*%
X137379000Y-78650000D03*
D25*
X139129000Y-78100000D03*
X135629000Y-78100000D03*
%TD*%
D31*
%TO.C,J1*%
X173368000Y-128270000D03*
X136178000Y-128270000D03*
D32*
X167238000Y-126850000D03*
X164468000Y-126850000D03*
X161698000Y-126850000D03*
X158928000Y-126850000D03*
X153388000Y-126850000D03*
X145078000Y-126850000D03*
X142308000Y-126850000D03*
X165853000Y-129690000D03*
X163083000Y-129690000D03*
X160313000Y-129690000D03*
X157543000Y-129690000D03*
X154773000Y-129690000D03*
X152003000Y-129690000D03*
X149233000Y-129690000D03*
X146463000Y-129690000D03*
X143693000Y-129690000D03*
%TD*%
M02*
