%TF.GenerationSoftware,KiCad,Pcbnew,(5.1.9)-1*%
%TF.CreationDate,2021-02-16T00:19:24-06:00*%
%TF.ProjectId,fujinet-devkit-shield,66756a69-6e65-4742-9d64-65766b69742d,1.0*%
%TF.SameCoordinates,Original*%
%TF.FileFunction,Legend,Bot*%
%TF.FilePolarity,Positive*%
%FSLAX46Y46*%
G04 Gerber Fmt 4.6, Leading zero omitted, Abs format (unit mm)*
G04 Created by KiCad (PCBNEW (5.1.9)-1) date 2021-02-16 00:19:24*
%MOMM*%
%LPD*%
G01*
G04 APERTURE LIST*
%ADD10C,4.000000*%
%ADD11C,1.600000*%
%ADD12R,1.600000X1.600000*%
%ADD13O,1.600000X1.600000*%
%ADD14O,2.200000X2.200000*%
%ADD15R,2.200000X2.200000*%
%ADD16O,1.700000X1.700000*%
%ADD17R,1.700000X1.700000*%
%ADD18C,1.800000*%
%ADD19R,1.800000X1.800000*%
%ADD20O,1.600000X2.400000*%
%ADD21R,1.600000X2.400000*%
%ADD22C,0.900000*%
%ADD23O,1.400000X1.400000*%
%ADD24C,1.400000*%
%ADD25C,3.200000*%
%ADD26C,1.700000*%
%ADD27C,1.530000*%
%ADD28R,1.530000X1.530000*%
G04 APERTURE END LIST*
%LPC*%
D10*
%TO.C,J10*%
X110340000Y-101697000D03*
X110340000Y-68397000D03*
D11*
X108920000Y-76737000D03*
X108920000Y-79507000D03*
X108920000Y-82277000D03*
X108920000Y-85047000D03*
X108920000Y-87817000D03*
X108920000Y-90587000D03*
X108920000Y-93357000D03*
X111760000Y-75352000D03*
X111760000Y-78122000D03*
X111760000Y-80892000D03*
X111760000Y-83662000D03*
X111760000Y-86432000D03*
X111760000Y-89202000D03*
X111760000Y-91972000D03*
D12*
X111760000Y-94742000D03*
%TD*%
D11*
%TO.C,C1*%
X125904000Y-77597000D03*
X120904000Y-77597000D03*
X124654000Y-77597000D03*
X122154000Y-77597000D03*
%TD*%
D13*
%TO.C,R7*%
X133604000Y-80264000D03*
D11*
X141224000Y-80264000D03*
%TD*%
%TO.C,C5*%
X115475000Y-109982000D03*
D12*
X117475000Y-109982000D03*
%TD*%
D14*
%TO.C,D4*%
X120650000Y-81280000D03*
D15*
X130810000Y-81280000D03*
%TD*%
D16*
%TO.C,J1*%
X116840000Y-76200000D03*
X116840000Y-78740000D03*
X116840000Y-81280000D03*
X116840000Y-83820000D03*
X116840000Y-86360000D03*
X116840000Y-88900000D03*
X116840000Y-91440000D03*
X116840000Y-93980000D03*
X116840000Y-96520000D03*
X116840000Y-99060000D03*
X116840000Y-101600000D03*
D17*
X116840000Y-104140000D03*
%TD*%
D13*
%TO.C,R16*%
X128270000Y-99060000D03*
D11*
X120650000Y-99060000D03*
%TD*%
D18*
%TO.C,D1*%
X189230000Y-99695000D03*
D19*
X189230000Y-102235000D03*
%TD*%
D18*
%TO.C,D3*%
X189230000Y-86360000D03*
D19*
X189230000Y-88900000D03*
%TD*%
D11*
%TO.C,C4*%
X118658000Y-70612000D03*
D12*
X121158000Y-70612000D03*
%TD*%
D20*
%TO.C,U4*%
X126365000Y-86360000D03*
X141605000Y-93980000D03*
X128905000Y-86360000D03*
X139065000Y-93980000D03*
X131445000Y-86360000D03*
X136525000Y-93980000D03*
X133985000Y-86360000D03*
X133985000Y-93980000D03*
X136525000Y-86360000D03*
X131445000Y-93980000D03*
X139065000Y-86360000D03*
X128905000Y-93980000D03*
X141605000Y-86360000D03*
D21*
X126365000Y-93980000D03*
%TD*%
D16*
%TO.C,J8*%
X190500000Y-82550000D03*
D17*
X187960000Y-82550000D03*
%TD*%
D16*
%TO.C,J7*%
X190500000Y-73660000D03*
D17*
X187960000Y-73660000D03*
%TD*%
D16*
%TO.C,J6*%
X190500000Y-95885000D03*
D17*
X187960000Y-95885000D03*
%TD*%
D16*
%TO.C,J5*%
X197612000Y-75438000D03*
D17*
X200152000Y-75438000D03*
%TD*%
D16*
%TO.C,J4*%
X197612000Y-81280000D03*
D17*
X200152000Y-81280000D03*
%TD*%
D16*
%TO.C,J2*%
X197612000Y-94488000D03*
D17*
X200152000Y-94488000D03*
%TD*%
D22*
%TO.C,P1*%
X130300000Y-60870000D03*
X138300000Y-60870000D03*
%TD*%
D23*
%TO.C,R13*%
X117602000Y-66294000D03*
D24*
X122682000Y-66294000D03*
%TD*%
D23*
%TO.C,R12*%
X117602000Y-63754000D03*
D24*
X122682000Y-63754000D03*
%TD*%
D23*
%TO.C,R11*%
X117602000Y-61214000D03*
D24*
X122682000Y-61214000D03*
%TD*%
D23*
%TO.C,R10*%
X117602000Y-58674000D03*
D24*
X122682000Y-58674000D03*
%TD*%
D25*
%TO.C,H4*%
X199745600Y-60604400D03*
%TD*%
%TO.C,H3*%
X199745600Y-109575600D03*
%TD*%
%TO.C,H2*%
X107594400Y-60604400D03*
%TD*%
%TO.C,H1*%
X107594400Y-109575600D03*
%TD*%
D13*
%TO.C,R15*%
X175260000Y-85090000D03*
D11*
X182880000Y-85090000D03*
%TD*%
D13*
%TO.C,R14*%
X182880000Y-80010000D03*
D11*
X175260000Y-80010000D03*
%TD*%
D16*
%TO.C,J3*%
X139700000Y-74168000D03*
X137160000Y-74168000D03*
X134620000Y-74168000D03*
X132080000Y-74168000D03*
X129540000Y-74168000D03*
D17*
X127000000Y-74168000D03*
%TD*%
D11*
%TO.C,C3*%
X122555000Y-91360000D03*
X122555000Y-86360000D03*
%TD*%
%TO.C,C2*%
X122555000Y-107950000D03*
X122555000Y-102950000D03*
%TD*%
D26*
%TO.C,SW3*%
X196850000Y-72390000D03*
X196850000Y-65890000D03*
X201350000Y-72390000D03*
X201350000Y-65890000D03*
%TD*%
%TO.C,SW2*%
X196850000Y-90805000D03*
X196850000Y-84305000D03*
X201350000Y-90805000D03*
X201350000Y-84305000D03*
%TD*%
%TO.C,SW1*%
X196850000Y-104140000D03*
X196850000Y-97640000D03*
X201350000Y-104140000D03*
X201350000Y-97640000D03*
%TD*%
D13*
%TO.C,R9*%
X175260000Y-105410000D03*
D11*
X182880000Y-105410000D03*
%TD*%
D13*
%TO.C,R8*%
X182880000Y-95250000D03*
D11*
X175260000Y-95250000D03*
%TD*%
D13*
%TO.C,R6*%
X182880000Y-69850000D03*
D11*
X175260000Y-69850000D03*
%TD*%
D13*
%TO.C,R5*%
X182880000Y-74930000D03*
D11*
X175260000Y-74930000D03*
%TD*%
D13*
%TO.C,R4*%
X182880000Y-64770000D03*
D11*
X175260000Y-64770000D03*
%TD*%
D13*
%TO.C,R3*%
X175260000Y-90170000D03*
D11*
X182880000Y-90170000D03*
%TD*%
D13*
%TO.C,R2*%
X175260000Y-100330000D03*
D11*
X182880000Y-100330000D03*
%TD*%
D13*
%TO.C,R1*%
X175260000Y-110490000D03*
D11*
X182880000Y-110490000D03*
%TD*%
D18*
%TO.C,D2*%
X189230000Y-67310000D03*
D19*
X189230000Y-69850000D03*
%TD*%
D20*
%TO.C,U3*%
X126365000Y-102870000D03*
X141605000Y-110490000D03*
X128905000Y-102870000D03*
X139065000Y-110490000D03*
X131445000Y-102870000D03*
X136525000Y-110490000D03*
X133985000Y-102870000D03*
X133985000Y-110490000D03*
X136525000Y-102870000D03*
X131445000Y-110490000D03*
X139065000Y-102870000D03*
X128905000Y-110490000D03*
X141605000Y-102870000D03*
D21*
X126365000Y-110490000D03*
%TD*%
D27*
%TO.C,U1*%
X171450000Y-64780000D03*
X171450000Y-67320000D03*
X171450000Y-69860000D03*
X171450000Y-72400000D03*
X171450000Y-74940000D03*
X171450000Y-77480000D03*
X171450000Y-80020000D03*
X171450000Y-82560000D03*
X171450000Y-85100000D03*
X171450000Y-87640000D03*
X171450000Y-90180000D03*
X171450000Y-92720000D03*
X171450000Y-95260000D03*
X171450000Y-97800000D03*
X171450000Y-100340000D03*
X171450000Y-102880000D03*
X171450000Y-105420000D03*
X171450000Y-107960000D03*
X171450000Y-110500000D03*
X146050000Y-110500000D03*
X146050000Y-107960000D03*
X146050000Y-105420000D03*
X146050000Y-102880000D03*
X146050000Y-100340000D03*
X146050000Y-97800000D03*
X146050000Y-95260000D03*
X146050000Y-92720000D03*
X146050000Y-90180000D03*
X146050000Y-87640000D03*
X146050000Y-85100000D03*
X146050000Y-82560000D03*
X146050000Y-80020000D03*
X146050000Y-77480000D03*
X146050000Y-74940000D03*
X146050000Y-72400000D03*
X146050000Y-69860000D03*
X146050000Y-67320000D03*
D28*
X146050000Y-64780000D03*
%TD*%
M02*
