M48
; DRILL file {KiCad (5.1.9)-1} date 02/16/21 00:19:29
; FORMAT={-:-/ absolute / inch / decimal}
; #@! TF.CreationDate,2021-02-16T00:19:29-06:00
; #@! TF.GenerationSoftware,Kicad,Pcbnew,(5.1.9)-1
FMAT,2
INCH
T1C0.0157
T2C0.0276
T3C0.0315
T4C0.0354
T5C0.0394
T6C0.0402
T7C0.0433
T8C0.1260
T9C0.0354
T10C0.1260
%
G90
G05
T1
X4.72Y-3.42
X4.85Y-3.7
X4.87Y-2.72
X4.9Y-3.47
X4.925Y-3.5785
X4.93Y-3.3
X5.125Y-3.5
X5.13Y-3.83
X5.24Y-3.82
X5.325Y-3.6
X5.375Y-3.9
X5.45Y-3.55
X5.45Y-3.85
X5.58Y-2.51
X5.58Y-2.67
X5.9Y-3.05
X5.9Y-3.15
X5.9Y-3.45
X6.1004Y-3.6
X6.16Y-3.2
X6.2Y-2.75
X6.2Y-2.85
X6.4Y-2.96
X6.525Y-2.975
X6.625Y-3.7
X6.63Y-3.6
X7.255Y-3.025
X7.39Y-3.61
X7.44Y-3.025
X7.61Y-3.38
X7.61Y-3.54
T2
X4.63Y-2.31
X4.63Y-2.41
X4.63Y-2.51
X4.63Y-2.61
X4.83Y-2.31
X4.83Y-2.41
X4.83Y-2.51
X4.83Y-2.61
T3
X4.5463Y-4.33
X4.625Y-4.33
X4.6716Y-2.78
X4.75Y-3.9
X4.76Y-3.055
X4.77Y-2.78
X4.8092Y-3.055
X4.825Y-3.4
X4.825Y-3.5969
X4.825Y-4.0531
X4.825Y-4.25
X4.9076Y-3.055
X4.9569Y-3.055
X4.975Y-3.4
X4.975Y-3.7
X4.975Y-4.05
X4.975Y-4.35
X5.05Y-3.9
X5.075Y-3.4
X5.075Y-3.7
X5.075Y-4.05
X5.075Y-4.35
X5.175Y-3.4
X5.175Y-3.7
X5.175Y-4.05
X5.175Y-4.35
X5.26Y-3.16
X5.275Y-3.4
X5.275Y-3.7
X5.275Y-4.05
X5.275Y-4.35
X5.375Y-3.4
X5.375Y-3.7
X5.375Y-4.05
X5.375Y-4.35
X5.475Y-3.4
X5.475Y-3.7
X5.475Y-4.05
X5.475Y-4.35
X5.56Y-3.16
X5.575Y-3.4
X5.575Y-3.7
X5.575Y-4.05
X5.575Y-4.35
X6.9Y-2.55
X6.9Y-2.75
X6.9Y-2.95
X6.9Y-3.15
X6.9Y-3.35
X6.9Y-3.55
X6.9Y-3.75
X6.9Y-3.95
X6.9Y-4.15
X6.9Y-4.35
X7.2Y-2.55
X7.2Y-2.75
X7.2Y-2.95
X7.2Y-3.15
X7.2Y-3.35
X7.2Y-3.55
X7.2Y-3.75
X7.2Y-3.95
X7.2Y-4.15
X7.2Y-4.35
T4
X7.45Y-2.65
X7.45Y-2.75
X7.45Y-3.4
X7.45Y-3.5
X7.45Y-3.925
X7.45Y-4.025
T5
X4.2882Y-3.0211
X4.2882Y-3.1302
X4.2882Y-3.2393
X4.2882Y-3.3483
X4.2882Y-3.4574
X4.2882Y-3.5664
X4.2882Y-3.6755
X4.4Y-2.9666
X4.4Y-3.0757
X4.4Y-3.1847
X4.4Y-3.2938
X4.4Y-3.4028
X4.4Y-3.5119
X4.4Y-3.6209
X4.4Y-3.73
X4.6Y-3.0
X4.6Y-3.1
X4.6Y-3.2
X4.6Y-3.3
X4.6Y-3.4
X4.6Y-3.5
X4.6Y-3.6
X4.6Y-3.7
X4.6Y-3.8
X4.6Y-3.9
X4.6Y-4.0
X4.6Y-4.1
X5.0Y-2.92
X5.1Y-2.92
X5.2Y-2.92
X5.3Y-2.92
X5.4Y-2.92
X5.5Y-2.92
X7.4Y-2.9
X7.4Y-3.25
X7.4Y-3.775
X7.5Y-2.9
X7.5Y-3.25
X7.5Y-3.775
X7.75Y-2.5941
X7.75Y-2.85
X7.75Y-3.3191
X7.75Y-3.575
X7.75Y-3.8441
X7.75Y-4.1
X7.78Y-2.97
X7.78Y-3.2
X7.78Y-3.72
X7.88Y-2.97
X7.88Y-3.2
X7.88Y-3.72
X7.9272Y-2.5941
X7.9272Y-2.85
X7.9272Y-3.3191
X7.9272Y-3.575
X7.9272Y-3.8441
X7.9272Y-4.1
T6
X5.75Y-2.5504
X5.75Y-2.6504
X5.75Y-2.7504
X5.75Y-2.8504
X5.75Y-2.9504
X5.75Y-3.0504
X5.75Y-3.1504
X5.75Y-3.2504
X5.75Y-3.3504
X5.75Y-3.4504
X5.75Y-3.5504
X5.75Y-3.6504
X5.75Y-3.7504
X5.75Y-3.8504
X5.75Y-3.9504
X5.75Y-4.0504
X5.75Y-4.1504
X5.75Y-4.2504
X5.75Y-4.3504
X6.75Y-2.5504
X6.75Y-2.6504
X6.75Y-2.7504
X6.75Y-2.8504
X6.75Y-2.9504
X6.75Y-3.0504
X6.75Y-3.1504
X6.75Y-3.2504
X6.75Y-3.3504
X6.75Y-3.4504
X6.75Y-3.5504
X6.75Y-3.6504
X6.75Y-3.7504
X6.75Y-3.8504
X6.75Y-3.9504
X6.75Y-4.0504
X6.75Y-4.1504
X6.75Y-4.2504
X6.75Y-4.3504
T7
X4.75Y-3.2
X5.15Y-3.2
T8
X4.3441Y-2.6928
X4.3441Y-4.0038
T9
X5.1299Y-2.3965
X5.4449Y-2.3965
T10
X4.236Y-2.386
X4.236Y-4.314
X7.864Y-2.386
X7.864Y-4.314
T0
M30
