G04 DipTrace 5.1.0.3*
G04 2 - Bottom.gbr*
%MOIN*%
G04 #@! TF.FileFunction,Copper,L2,Bot*
G04 #@! TF.Part,Single*
G04 #@! TA.AperFunction,Conductor*
%ADD15C,0.007874*%
G04 #@! TA.AperFunction,CopperBalancing*
%ADD16C,0.025*%
%ADD17C,0.00787*%
G04 #@! TA.AperFunction,ComponentPad*
%ADD21R,0.066535X0.066535*%
%ADD22C,0.066535*%
%ADD23C,0.187402*%
%ADD24C,0.055118*%
%ADD29C,0.049213*%
G04 #@! TA.AperFunction,ComponentPad*
%ADD30C,0.066929*%
G04 #@! TA.AperFunction,ViaPad*
%ADD31C,0.031*%
%FSLAX26Y26*%
G04*
G70*
G90*
G75*
G01*
G04 Bottom*
%LPD*%
X893702Y1149951D2*
D15*
X1024953D1*
X1381202Y1506200D1*
Y1606588D1*
Y2106200D1*
X1146979Y1606588D2*
X1381202D1*
X737453Y2056200D2*
Y2016115D1*
X1146979Y1606588D1*
X961357Y2220825D2*
X964458D1*
Y3128050D1*
X1112453Y2151229D2*
Y2149949D1*
X1037453Y2074949D1*
X893702D1*
X824952Y2143700D1*
Y3118701D1*
X799953Y3143700D1*
Y3206293D1*
X800953D1*
X1049953Y2151229D2*
Y2149951D1*
X1012452Y2112449D1*
X912453D1*
X856202Y2168700D1*
Y3112451D1*
X993702Y2151229D2*
X997743D1*
X1051361Y2204847D1*
Y3129536D1*
X1128118Y3206293D1*
X1518702Y2243700D2*
X1514024D1*
X1462452Y2192128D1*
Y1699951D1*
X1518702Y1643700D1*
X1099953Y799949D2*
X662453D1*
X518702Y943700D1*
X1526036Y2964388D2*
Y2708482D1*
Y2498108D1*
X1521187Y2493259D1*
Y2246184D1*
X1518702Y2243700D1*
Y1643700D2*
Y1642330D1*
X1435079Y1558707D1*
Y1504183D1*
X953449Y1022553D1*
X597555D1*
X518702Y943700D1*
X743702Y2924951D2*
Y2919533D1*
X448751Y2624582D1*
Y1213651D1*
X518702Y1143700D1*
X956202Y843700D2*
Y881200D1*
X1518702Y1443700D1*
X868702Y868700D2*
Y893700D1*
X1518702Y1543700D1*
X1043702Y868700D2*
Y937449D1*
X1499953Y1393700D1*
X1543702D1*
X1568702Y1418700D1*
Y2093700D1*
X1518702Y2143700D1*
X518702Y1943700D2*
X569259Y1994256D1*
Y2367906D1*
X1087453Y868700D2*
X1418702Y1199949D1*
Y1243700D1*
X1518702Y1343700D1*
X794196Y1506776D2*
X850528D1*
X890956Y1547204D1*
Y1596763D1*
X897617Y2221250D2*
Y3125487D1*
X855828Y3167276D1*
Y3234919D1*
X909047Y3288138D1*
Y3345941D1*
X933756Y3370650D1*
X1130100D1*
X1182646Y3318104D1*
X935330Y2151229D2*
X932983D1*
Y3149361D1*
X965520Y3181898D1*
Y3344250D1*
X939374Y3318104D1*
X964536D1*
X1081202Y2221250D2*
Y3072659D1*
X1081142Y3072720D1*
X1021879Y2221250D2*
Y3203477D1*
X1019063Y3206293D1*
D31*
X897617Y2221250D3*
X935330Y2151229D3*
X961357Y2220825D3*
X993702Y2151229D3*
X1021879Y2221250D3*
X1049953Y2151229D3*
X1081202Y2221250D3*
X1112453Y2151229D3*
X890956Y1596763D3*
X1087453Y868700D3*
X1043702D3*
X956202Y843700D3*
X893702Y1149951D3*
X868702Y868700D3*
X1381202Y1506200D3*
Y2106200D3*
X1146979Y1606588D3*
X737453Y2056200D3*
X1099953Y799949D3*
X743702Y2924951D3*
X569259Y2367906D3*
X1081142Y3072720D3*
X856202Y3112451D3*
X964458Y3128050D3*
X427462Y3587582D2*
D16*
X1622448D1*
X427462Y3562713D2*
X1622448D1*
X427462Y3537844D2*
X1622448D1*
X427462Y3512976D2*
X1622448D1*
X427462Y3488107D2*
X1622448D1*
X427462Y3463238D2*
X1622448D1*
X427462Y3438369D2*
X1622448D1*
X427462Y3413501D2*
X1622448D1*
X427462Y3388632D2*
X911383D1*
X1152484D2*
X1622448D1*
X427462Y3363763D2*
X467496D1*
X586769D2*
X820382D1*
X1217739D2*
X1451352D1*
X1570625D2*
X1622448D1*
X617379Y3338894D2*
X800878D1*
X1237260D2*
X1420760D1*
X1601234D2*
X1622448D1*
X634011Y3314025D2*
X797021D1*
X1241100D2*
X1404109D1*
X643000Y3289157D2*
X804933D1*
X1233205D2*
X1395121D1*
X646158Y3264288D2*
X837139D1*
X994792D2*
X1055244D1*
X1091929D2*
X1164295D1*
X1200999D2*
X1391980D1*
X643915Y3239419D2*
X742352D1*
X1066847D2*
X1080344D1*
X1175898D2*
X1189396D1*
X1284950D2*
X1394206D1*
X635984Y3214550D2*
X742352D1*
X1295159D2*
X1402137D1*
X620860Y3189682D2*
X742352D1*
X1293257D2*
X1417280D1*
X1604714D2*
X1622448D1*
X427462Y3164813D2*
X460625D1*
X593642D2*
X742352D1*
X1168399D2*
X1196896D1*
X1277450D2*
X1444498D1*
X1577496D2*
X1622448D1*
X427462Y3139944D2*
X770952D1*
X1102121D2*
X1622448D1*
X427462Y3115075D2*
X788211D1*
X1080626D2*
X1622448D1*
X427462Y3090207D2*
X795676D1*
X1117748D2*
X1622448D1*
X427462Y3065338D2*
X795676D1*
X1121265D2*
X1622448D1*
X427462Y3040469D2*
X795676D1*
X1110482D2*
X1622448D1*
X427462Y3015600D2*
X795676D1*
X1110482D2*
X1518795D1*
X1533503D2*
X1622448D1*
X427462Y2990731D2*
X795676D1*
X1110482D2*
X1303419D1*
X1394326D2*
X1479896D1*
X1572400D2*
X1622448D1*
X427462Y2965863D2*
X795676D1*
X1110482D2*
X1295991D1*
X1401735D2*
X1473007D1*
X1579290D2*
X1622448D1*
X427462Y2940994D2*
X706395D1*
X781011D2*
X795676D1*
X1110482D2*
X1301732D1*
X1396012D2*
X1478372D1*
X1573944D2*
X1622448D1*
X427462Y2916125D2*
X699936D1*
X1110482D2*
X1331874D1*
X1365869D2*
X1505931D1*
X1546366D2*
X1622448D1*
X427462Y2891256D2*
X675068D1*
X764486D2*
X795676D1*
X1110482D2*
X1622448D1*
X427462Y2866388D2*
X650201D1*
X730916D2*
X795676D1*
X1110482D2*
X1622448D1*
X427462Y2841519D2*
X625333D1*
X706049D2*
X795676D1*
X1110482D2*
X1622448D1*
X427462Y2816650D2*
X600466D1*
X681181D2*
X795676D1*
X1110482D2*
X1622448D1*
X427462Y2791781D2*
X575597D1*
X656314D2*
X795676D1*
X1110482D2*
X1622448D1*
X427462Y2766913D2*
X550730D1*
X631445D2*
X795676D1*
X1110482D2*
X1622448D1*
X427462Y2742044D2*
X525862D1*
X606578D2*
X795676D1*
X1110482D2*
X1308784D1*
X1388961D2*
X1485226D1*
X1566965D2*
X1622448D1*
X427462Y2717175D2*
X500977D1*
X581710D2*
X795676D1*
X1110482D2*
X1296726D1*
X1401000D2*
X1473635D1*
X1578537D2*
X1622448D1*
X427462Y2692306D2*
X476109D1*
X556843D2*
X795676D1*
X1110482D2*
X1298646D1*
X1399099D2*
X1475448D1*
X1576725D2*
X1622448D1*
X427462Y2667438D2*
X451242D1*
X531957D2*
X795676D1*
X1110482D2*
X1317126D1*
X1380600D2*
X1493030D1*
X1559159D2*
X1622448D1*
X507089Y2642569D2*
X795676D1*
X1110482D2*
X1622448D1*
X482221Y2617700D2*
X795676D1*
X1110482D2*
X1622448D1*
X478022Y2592831D2*
X795676D1*
X1110482D2*
X1622448D1*
X478022Y2567962D2*
X795676D1*
X1110482D2*
X1622448D1*
X478022Y2543094D2*
X795676D1*
X1110482D2*
X1622448D1*
X478022Y2518225D2*
X795676D1*
X1110482D2*
X1622448D1*
X478022Y2493356D2*
X795676D1*
X1110482D2*
X1622448D1*
X478022Y2468487D2*
X795676D1*
X1110482D2*
X1622448D1*
X478022Y2443619D2*
X795676D1*
X1110482D2*
X1622448D1*
X478022Y2418750D2*
X795676D1*
X1110482D2*
X1622448D1*
X478022Y2393881D2*
X538566D1*
X599957D2*
X795676D1*
X1110482D2*
X1622448D1*
X478022Y2369012D2*
X528446D1*
X610076D2*
X795676D1*
X1110482D2*
X1622448D1*
X478022Y2344144D2*
X536681D1*
X601841D2*
X795676D1*
X1110482D2*
X1622448D1*
X478022Y2319275D2*
X539983D1*
X598521D2*
X795676D1*
X1110482D2*
X1622448D1*
X478022Y2294406D2*
X491736D1*
X598521D2*
X795676D1*
X1110482D2*
X1491739D1*
X1545667D2*
X1622448D1*
X598521Y2269537D2*
X795676D1*
X1110482D2*
X1466189D1*
X1571217D2*
X1622448D1*
X598521Y2244669D2*
X795676D1*
X1114051D2*
X1459910D1*
X1577496D2*
X1622448D1*
X598521Y2219800D2*
X795676D1*
X1122000D2*
X1465221D1*
X1572167D2*
X1622448D1*
X598521Y2194931D2*
X795676D1*
X1111576D2*
X1488079D1*
X1549327D2*
X1622448D1*
X598521Y2170062D2*
X795676D1*
X1148339D2*
X1466458D1*
X1570948D2*
X1622448D1*
X598521Y2145193D2*
X795676D1*
X1152807D2*
X1459928D1*
X1577478D2*
X1622448D1*
X598521Y2120325D2*
X807966D1*
X1137627D2*
X1343071D1*
X1419336D2*
X1464987D1*
X1582431D2*
X1622448D1*
X598521Y2095456D2*
X832833D1*
X1098316D2*
X1341904D1*
X1420503D2*
X1487181D1*
X1597915D2*
X1622448D1*
X598521Y2070587D2*
X699416D1*
X775484D2*
X857701D1*
X1073449D2*
X1351935D1*
X1410474D2*
X1466746D1*
X1597969D2*
X1622448D1*
X598521Y2045718D2*
X698088D1*
X776831D2*
X1351935D1*
X1410474D2*
X1459945D1*
X1597969D2*
X1622448D1*
X598521Y2020850D2*
X708189D1*
X773080D2*
X1351935D1*
X1410474D2*
X1464753D1*
X1597969D2*
X1622448D1*
X598521Y1995981D2*
X717232D1*
X797948D2*
X1351935D1*
X1410474D2*
X1486339D1*
X1597969D2*
X1622448D1*
X586465Y1971112D2*
X742100D1*
X822816D2*
X1351935D1*
X1410474D2*
X1467033D1*
X1597969D2*
X1622448D1*
X577440Y1946243D2*
X766969D1*
X847684D2*
X1351935D1*
X1410474D2*
X1459963D1*
X1597969D2*
X1622448D1*
X572882Y1921375D2*
X791836D1*
X872551D2*
X1351935D1*
X1410474D2*
X1464521D1*
X1597969D2*
X1622448D1*
X551890Y1896506D2*
X816704D1*
X897419D2*
X1351935D1*
X1410474D2*
X1485513D1*
X1597969D2*
X1622448D1*
X570084Y1871637D2*
X841571D1*
X922286D2*
X1351935D1*
X1410474D2*
X1467319D1*
X1597969D2*
X1622448D1*
X577421Y1846768D2*
X866438D1*
X947155D2*
X1351935D1*
X1410474D2*
X1459982D1*
X1597969D2*
X1622448D1*
X573116Y1821899D2*
X891307D1*
X972022D2*
X1351935D1*
X1410474D2*
X1464306D1*
X1597969D2*
X1622448D1*
X552698Y1797031D2*
X916175D1*
X996890D2*
X1351935D1*
X1410474D2*
X1484723D1*
X1597969D2*
X1622448D1*
X569778Y1772162D2*
X941042D1*
X1021757D2*
X1351935D1*
X1410474D2*
X1467625D1*
X1597969D2*
X1622448D1*
X577386Y1747293D2*
X965910D1*
X1046626D2*
X1351935D1*
X1410474D2*
X1460017D1*
X1597969D2*
X1622448D1*
X573331Y1722424D2*
X990777D1*
X1071494D2*
X1351935D1*
X1410474D2*
X1464072D1*
X1597969D2*
X1622448D1*
X553452Y1697556D2*
X1015646D1*
X1096379D2*
X1351935D1*
X1410474D2*
X1483952D1*
X1597969D2*
X1622448D1*
X569456Y1672687D2*
X1040513D1*
X1121247D2*
X1351935D1*
X1410474D2*
X1467948D1*
X1597969D2*
X1622448D1*
X577351Y1647818D2*
X1065399D1*
X1146114D2*
X1351935D1*
X1410474D2*
X1460053D1*
X1597969D2*
X1622448D1*
X573529Y1622949D2*
X860465D1*
X921444D2*
X1090267D1*
X1410474D2*
X1463874D1*
X1597969D2*
X1622448D1*
X554187Y1598081D2*
X850147D1*
X931760D2*
X1107096D1*
X1410474D2*
X1483217D1*
X1597969D2*
X1622448D1*
X569151Y1573212D2*
X858204D1*
X923705D2*
X1125630D1*
X1168327D2*
X1351935D1*
X1410474D2*
X1468252D1*
X1597969D2*
X1622448D1*
X577314Y1548343D2*
X768833D1*
X819550D2*
X851744D1*
X920223D2*
X1351935D1*
X1410474D2*
X1460089D1*
X1597969D2*
X1622448D1*
X573744Y1523474D2*
X747285D1*
X907592D2*
X1344488D1*
X1417919D2*
X1458116D1*
X1597969D2*
X1622448D1*
X554904Y1498606D2*
X744971D1*
X882725D2*
X1333256D1*
X1597969D2*
X1622448D1*
X568810Y1473737D2*
X757656D1*
X830747D2*
X1308389D1*
X1597969D2*
X1622448D1*
X577260Y1448868D2*
X1283503D1*
X1364236D2*
X1383512D1*
X1597969D2*
X1622448D1*
X573941Y1423999D2*
X1258635D1*
X1339369D2*
X1358645D1*
X1439360D2*
X1458635D1*
X1597969D2*
X1622448D1*
X555604Y1399130D2*
X1233768D1*
X1314483D2*
X1333777D1*
X1414492D2*
X1433768D1*
X1589499D2*
X1622448D1*
X568487Y1374262D2*
X1208899D1*
X1289616D2*
X1308908D1*
X1389625D2*
X1408900D1*
X1568490D2*
X1622448D1*
X577206Y1349393D2*
X1184032D1*
X1264748D2*
X1284041D1*
X1364757D2*
X1384033D1*
X1577209D2*
X1622448D1*
X574138Y1324524D2*
X1159164D1*
X1239879D2*
X1259173D1*
X1339889D2*
X1359164D1*
X1574141D2*
X1622448D1*
X556268Y1299655D2*
X1134297D1*
X1215012D2*
X1234306D1*
X1315021D2*
X1334297D1*
X1556271D2*
X1622448D1*
X568146Y1274787D2*
X1109429D1*
X1190145D2*
X1209438D1*
X1290154D2*
X1309429D1*
X1568130D2*
X1622448D1*
X577152Y1249918D2*
X1084561D1*
X1165277D2*
X1184553D1*
X1265286D2*
X1284562D1*
X1577155D2*
X1622448D1*
X574318Y1225049D2*
X1059693D1*
X1140408D2*
X1159685D1*
X1240417D2*
X1259694D1*
X1447973D2*
X1463085D1*
X1574320D2*
X1622448D1*
X556914Y1200180D2*
X1034826D1*
X1115541D2*
X1134816D1*
X1215550D2*
X1234826D1*
X1447973D2*
X1480490D1*
X1556916D2*
X1622448D1*
X427462Y1175312D2*
X446738D1*
X567788D2*
X862456D1*
X1090673D2*
X1109949D1*
X1190664D2*
X1209958D1*
X1434425D2*
X1469616D1*
X1567790D2*
X1622448D1*
X427462Y1150443D2*
X460302D1*
X577099D2*
X852874D1*
X1065806D2*
X1085082D1*
X1165797D2*
X1185091D1*
X1409558D2*
X1460305D1*
X1577101D2*
X1622448D1*
X427462Y1125574D2*
X462903D1*
X574498D2*
X861613D1*
X1038516D2*
X1060214D1*
X1140929D2*
X1160223D1*
X1384690D2*
X1462906D1*
X1574500D2*
X1622448D1*
X427462Y1100705D2*
X479858D1*
X557542D2*
X1035345D1*
X1116062D2*
X1135354D1*
X1359823D2*
X1479861D1*
X1557545D2*
X1622448D1*
X427462Y1075836D2*
X469973D1*
X567428D2*
X1010478D1*
X1091194D2*
X1110487D1*
X1334956D2*
X1469975D1*
X1567431D2*
X1622448D1*
X427462Y1050968D2*
X460374D1*
X577028D2*
X985610D1*
X1066326D2*
X1085620D1*
X1310087D2*
X1460375D1*
X1577030D2*
X1622448D1*
X427462Y1026099D2*
X462725D1*
X574677D2*
X960743D1*
X1041458D2*
X1060734D1*
X1285219D2*
X1462726D1*
X1574680D2*
X1622448D1*
X427462Y1001230D2*
X479248D1*
X558152D2*
X935875D1*
X1016591D2*
X1035866D1*
X1260333D2*
X1479251D1*
X1558155D2*
X1622448D1*
X427462Y976361D2*
X470349D1*
X567051D2*
X911007D1*
X991723D2*
X1010999D1*
X1235466D2*
X1470352D1*
X1567054D2*
X1622448D1*
X427462Y951493D2*
X460445D1*
X576956D2*
X886139D1*
X966854D2*
X986130D1*
X1210599D2*
X1460448D1*
X1576958D2*
X1622448D1*
X427462Y926624D2*
X462562D1*
X574856D2*
X861272D1*
X941987D2*
X961263D1*
X1185731D2*
X1462564D1*
X1574841D2*
X1622448D1*
X427462Y901755D2*
X478656D1*
X558763D2*
X840675D1*
X917120D2*
X936395D1*
X1160862D2*
X1478659D1*
X1558747D2*
X1622448D1*
X427462Y876886D2*
X470726D1*
X566675D2*
X828760D1*
X908651D2*
X926940D1*
X1135995D2*
X1470729D1*
X1566677D2*
X1622448D1*
X427462Y852018D2*
X460517D1*
X576883D2*
X831685D1*
X1124458D2*
X1460520D1*
X1576886D2*
X1622448D1*
X427462Y827149D2*
X462400D1*
X575017D2*
X919135D1*
X993284D2*
X1462386D1*
X1575020D2*
X1622448D1*
X427462Y802280D2*
X478064D1*
X559336D2*
X1478067D1*
X1559339D2*
X1622448D1*
X427462Y777411D2*
X471121D1*
X566298D2*
X1471105D1*
X1566282D2*
X1622448D1*
X427462Y752543D2*
X460606D1*
X576794D2*
X1460609D1*
X1576797D2*
X1622448D1*
X427462Y727674D2*
X462239D1*
X575179D2*
X1462242D1*
X1575164D2*
X1622448D1*
X427462Y702805D2*
X477508D1*
X559893D2*
X1477511D1*
X1559895D2*
X1622448D1*
X427462Y677936D2*
X471516D1*
X565885D2*
X1471519D1*
X1565887D2*
X1622448D1*
X427462Y653067D2*
X460697D1*
X576722D2*
X1460681D1*
X1576706D2*
X1622448D1*
X427462Y628199D2*
X462078D1*
X575323D2*
X1462080D1*
X1575326D2*
X1622448D1*
X427462Y603330D2*
X476970D1*
X560449D2*
X813689D1*
X883461D2*
X1128125D1*
X1197914D2*
X1476954D1*
X1560433D2*
X1622448D1*
X427462Y578461D2*
X471911D1*
X565491D2*
X790705D1*
X906444D2*
X1105141D1*
X1220896D2*
X1471912D1*
X1565494D2*
X1622448D1*
X427462Y553592D2*
X460786D1*
X576633D2*
X784049D1*
X913100D2*
X1098501D1*
X1227536D2*
X1460789D1*
X1576617D2*
X1622448D1*
X427462Y528724D2*
X461935D1*
X575466D2*
X787853D1*
X909297D2*
X1102306D1*
X1223750D2*
X1461937D1*
X1575469D2*
X1622448D1*
X427462Y503855D2*
X476432D1*
X560969D2*
X804879D1*
X892252D2*
X1119332D1*
X1206705D2*
X1476435D1*
X1560971D2*
X1622448D1*
X427462Y478986D2*
X472341D1*
X565078D2*
X1472344D1*
X1565062D2*
X1622448D1*
X427462Y454117D2*
X460875D1*
X576525D2*
X1460878D1*
X1576528D2*
X1622448D1*
X440828Y429249D2*
X461792D1*
X575610D2*
X1461794D1*
X1575612D2*
X1618625D1*
X1398428Y2955252D2*
X1395906Y2946301D1*
X1391781Y2937966D1*
X1386196Y2930532D1*
X1379339Y2924250D1*
X1371445Y2919335D1*
X1362782Y2915953D1*
X1353646Y2914222D1*
X1344347Y2914199D1*
X1335201Y2915885D1*
X1326521Y2919222D1*
X1318603Y2924098D1*
X1311715Y2930346D1*
X1306092Y2937752D1*
X1301927Y2946066D1*
X1299360Y2955004D1*
X1298478Y2964262D1*
X1299312Y2973523D1*
X1301835Y2982474D1*
X1305959Y2990809D1*
X1311545Y2998243D1*
X1318402Y3004525D1*
X1326295Y3009440D1*
X1334958Y3012822D1*
X1344095Y3014553D1*
X1353394Y3014577D1*
X1362540Y3012890D1*
X1371219Y3009553D1*
X1379138Y3004678D1*
X1386025Y2998430D1*
X1391648Y2991023D1*
X1395814Y2982709D1*
X1398381Y2973771D1*
X1399263Y2964388D1*
X1398428Y2955252D1*
Y2699347D2*
X1395906Y2690396D1*
X1391781Y2682061D1*
X1386196Y2674627D1*
X1379339Y2668344D1*
X1371445Y2663430D1*
X1362782Y2660048D1*
X1353646Y2658317D1*
X1344347Y2658293D1*
X1335201Y2659980D1*
X1326521Y2663317D1*
X1318603Y2668192D1*
X1311715Y2674440D1*
X1306092Y2681847D1*
X1301927Y2690161D1*
X1299360Y2699099D1*
X1298478Y2708356D1*
X1299312Y2717617D1*
X1301835Y2726569D1*
X1305959Y2734903D1*
X1311545Y2742338D1*
X1318402Y2748620D1*
X1326295Y2753535D1*
X1334958Y2756917D1*
X1344095Y2758648D1*
X1353394Y2758671D1*
X1362540Y2756985D1*
X1371219Y2753648D1*
X1379138Y2748772D1*
X1386025Y2742524D1*
X1391648Y2735117D1*
X1395814Y2726804D1*
X1398381Y2717865D1*
X1399263Y2708482D1*
X1398428Y2699347D1*
X910001Y541187D2*
X907952Y532134D1*
X904575Y523487D1*
X899948Y515441D1*
X894172Y508174D1*
X887378Y501850D1*
X879718Y496607D1*
X871361Y492566D1*
X862496Y489814D1*
X853319Y488415D1*
X844037Y488399D1*
X834856Y489768D1*
X825982Y492489D1*
X817612Y496503D1*
X809933Y501718D1*
X803118Y508020D1*
X797318Y515268D1*
X792663Y523300D1*
X789257Y531934D1*
X787177Y540981D1*
X786467Y550235D1*
X787146Y559494D1*
X789196Y568546D1*
X792572Y577193D1*
X797200Y585239D1*
X802975Y592507D1*
X809769Y598831D1*
X817429Y604074D1*
X825786Y608115D1*
X834651Y610867D1*
X843828Y612266D1*
X853110Y612281D1*
X862292Y610913D1*
X871166Y608192D1*
X879536Y604178D1*
X887214Y598962D1*
X894029Y592661D1*
X899830Y585413D1*
X904484Y577381D1*
X907890Y568747D1*
X909970Y559700D1*
X910680Y550340D1*
X910001Y541187D1*
X1224450D2*
X1222400Y532134D1*
X1219024Y523487D1*
X1214396Y515441D1*
X1208621Y508174D1*
X1201827Y501850D1*
X1194167Y496607D1*
X1185810Y492566D1*
X1176945Y489814D1*
X1167768Y488415D1*
X1158486Y488399D1*
X1149305Y489768D1*
X1140431Y492489D1*
X1132061Y496503D1*
X1124382Y501718D1*
X1117567Y508020D1*
X1111767Y515268D1*
X1107112Y523300D1*
X1103706Y531934D1*
X1101626Y540981D1*
X1100916Y550235D1*
X1101595Y559494D1*
X1103645Y568546D1*
X1107021Y577193D1*
X1111648Y585239D1*
X1117424Y592507D1*
X1124218Y598831D1*
X1131878Y604074D1*
X1140235Y608115D1*
X1149100Y610867D1*
X1158277Y612266D1*
X1167559Y612281D1*
X1176740Y610913D1*
X1185614Y608192D1*
X1193984Y604178D1*
X1201663Y598962D1*
X1208478Y592661D1*
X1214278Y585413D1*
X1218933Y577381D1*
X1222339Y568747D1*
X1224419Y559700D1*
X1225129Y550340D1*
X1224450Y541187D1*
X913391Y1532600D2*
X916621Y1539591D1*
X917726Y1547204D1*
X917725Y1569644D1*
X919700Y1571401D1*
X924933Y1579018D1*
X928193Y1587665D1*
X929289Y1596840D1*
X928156Y1606012D1*
X924862Y1614646D1*
X919597Y1622241D1*
X912668Y1628355D1*
X904477Y1632633D1*
X895499Y1634826D1*
X886259Y1634808D1*
X877290Y1632578D1*
X869116Y1628267D1*
X862211Y1622125D1*
X856978Y1614508D1*
X853718Y1605861D1*
X852622Y1596686D1*
X853755Y1587514D1*
X857049Y1578880D1*
X862314Y1571285D1*
X864188Y1569632D1*
X864187Y1558293D1*
X839437Y1533546D1*
X833320Y1533540D1*
X827650Y1540411D1*
X820445Y1546292D1*
X812231Y1550654D1*
X803324Y1553329D1*
X794067Y1554216D1*
X784815Y1553279D1*
X775923Y1550556D1*
X767732Y1546149D1*
X760561Y1540230D1*
X754680Y1533025D1*
X750318Y1524812D1*
X747643Y1515905D1*
X746756Y1506648D1*
X747693Y1497396D1*
X750416Y1488503D1*
X754823Y1480313D1*
X760742Y1473141D1*
X767946Y1467260D1*
X776160Y1462898D1*
X785067Y1460224D1*
X794324Y1459336D1*
X803576Y1460273D1*
X812469Y1462997D1*
X820659Y1467403D1*
X827831Y1473322D1*
X833281Y1479999D1*
X850500Y1480006D1*
X856074Y1480586D1*
X863293Y1483245D1*
X869457Y1487847D1*
X909865Y1528255D1*
X913391Y1532600D1*
X1030491Y1123760D2*
X1037718Y1126419D1*
X1043882Y1131022D1*
X1380999Y1468146D1*
X1385899Y1468155D1*
X1394868Y1470385D1*
X1403042Y1474696D1*
X1409946Y1480838D1*
X1415180Y1488455D1*
X1418440Y1497102D1*
X1419536Y1506277D1*
X1418403Y1515449D1*
X1415109Y1524083D1*
X1409844Y1531678D1*
X1407970Y1533331D1*
X1407973Y2078763D1*
X1407971Y2079081D1*
X1409946Y2080838D1*
X1415180Y2088455D1*
X1418440Y2097102D1*
X1419536Y2106277D1*
X1418403Y2115449D1*
X1415109Y2124083D1*
X1409844Y2131678D1*
X1402915Y2137792D1*
X1394723Y2142070D1*
X1385746Y2144263D1*
X1376505Y2144245D1*
X1367537Y2142015D1*
X1359362Y2137704D1*
X1352458Y2131562D1*
X1347225Y2123945D1*
X1343965Y2115298D1*
X1342869Y2106123D1*
X1344001Y2096951D1*
X1347295Y2088317D1*
X1352561Y2080722D1*
X1354435Y2079069D1*
X1354432Y1634213D1*
X1354436Y1633359D1*
X1174152Y1633361D1*
X1168692Y1638180D1*
X1160500Y1642459D1*
X1151522Y1644651D1*
X1146785Y1644642D1*
X764223Y2027205D1*
X764222Y2029081D1*
X766197Y2030838D1*
X771431Y2038455D1*
X774690Y2047102D1*
X775786Y2056277D1*
X774654Y2065449D1*
X771360Y2074083D1*
X766095Y2081678D1*
X759166Y2087792D1*
X750974Y2092070D1*
X741996Y2094263D1*
X732756Y2094245D1*
X723788Y2092015D1*
X715613Y2087704D1*
X708709Y2081562D1*
X703475Y2073945D1*
X700215Y2065298D1*
X699120Y2056123D1*
X700252Y2046951D1*
X703546Y2038317D1*
X708811Y2030722D1*
X710685Y2029069D1*
X710683Y2016124D1*
X711263Y2010569D1*
X713921Y2003350D1*
X718524Y1997186D1*
X1108705Y1607004D1*
X1108646Y1606511D1*
X1109778Y1597339D1*
X1113072Y1588705D1*
X1118337Y1581111D1*
X1125267Y1574997D1*
X1133458Y1570718D1*
X1142436Y1568525D1*
X1151676Y1568544D1*
X1160645Y1570773D1*
X1168819Y1575085D1*
X1174410Y1579818D1*
X1354432Y1579812D1*
X1354433Y1533319D1*
X1352458Y1531562D1*
X1347225Y1523945D1*
X1343965Y1515298D1*
X1342869Y1506123D1*
X1342874Y1505731D1*
X1013861Y1176721D1*
X920875Y1176724D1*
X915415Y1181543D1*
X907223Y1185821D1*
X898246Y1188014D1*
X889005Y1187995D1*
X880037Y1185766D1*
X871862Y1181455D1*
X864958Y1175313D1*
X859725Y1167696D1*
X856465Y1159049D1*
X855369Y1149873D1*
X856501Y1140701D1*
X859795Y1132067D1*
X865061Y1124473D1*
X871990Y1118359D1*
X880181Y1114081D1*
X889159Y1111888D1*
X898399Y1111906D1*
X907368Y1114136D1*
X915542Y1118447D1*
X920862Y1123179D1*
X1024925Y1123180D1*
X1030491Y1123760D1*
X492932Y1093754D2*
X491647Y1094329D1*
X484078Y1099308D1*
X477406Y1105438D1*
X471802Y1112557D1*
X467415Y1120483D1*
X464354Y1129011D1*
X462702Y1137919D1*
X462500Y1146978D1*
X463753Y1155951D1*
X464895Y1159645D1*
X429822Y1194722D1*
X425217Y1200894D1*
X424953Y1199403D1*
Y442625D1*
X442631Y424949D1*
X465616D1*
X464012Y430340D1*
X462578Y439285D1*
X462596Y448346D1*
X464068Y457285D1*
X466956Y465875D1*
X471183Y473888D1*
X476639Y481120D1*
X483187Y487382D1*
X490654Y492514D1*
X492999Y493620D1*
X491647Y494329D1*
X484078Y499308D1*
X477406Y505438D1*
X471802Y512557D1*
X467415Y520483D1*
X464354Y529011D1*
X462702Y537919D1*
X462500Y546978D1*
X463753Y555951D1*
X466431Y564607D1*
X470461Y572721D1*
X475740Y580083D1*
X482133Y586503D1*
X489473Y591815D1*
X493024Y593598D1*
X491647Y594329D1*
X484078Y599308D1*
X477406Y605438D1*
X471802Y612557D1*
X467415Y620483D1*
X464354Y629011D1*
X462702Y637919D1*
X462500Y646978D1*
X463753Y655951D1*
X466431Y664607D1*
X470461Y672721D1*
X475740Y680083D1*
X482133Y686503D1*
X489473Y691815D1*
X493024Y693598D1*
X491647Y694329D1*
X484078Y699308D1*
X477406Y705438D1*
X471802Y712557D1*
X467415Y720483D1*
X464354Y729011D1*
X462702Y737919D1*
X462500Y746978D1*
X463753Y755951D1*
X466431Y764607D1*
X470461Y772721D1*
X475740Y780083D1*
X482133Y786503D1*
X489473Y791815D1*
X493024Y793598D1*
X491647Y794329D1*
X484078Y799308D1*
X477406Y805438D1*
X471802Y812557D1*
X467415Y820483D1*
X464354Y829011D1*
X462702Y837919D1*
X462500Y846978D1*
X463753Y855951D1*
X466431Y864607D1*
X470461Y872721D1*
X475740Y880083D1*
X482133Y886503D1*
X489473Y891815D1*
X493024Y893598D1*
X490845Y894777D1*
X488238Y896357D1*
X485719Y898075D1*
X483297Y899928D1*
X480979Y901910D1*
X478772Y904012D1*
X476683Y906233D1*
X474715Y908562D1*
X472878Y910995D1*
X471175Y913524D1*
X469610Y916142D1*
X468190Y918840D1*
X466919Y921611D1*
X465799Y924447D1*
X464833Y927339D1*
X464028Y930280D1*
X463381Y933259D1*
X462896Y936270D1*
X462576Y939302D1*
X462420Y942347D1*
X462429Y945396D1*
X462604Y948440D1*
X462944Y951470D1*
X463445Y954478D1*
X464110Y957453D1*
X464935Y960389D1*
X465917Y963275D1*
X467054Y966104D1*
X468343Y968868D1*
X469780Y971557D1*
X471360Y974165D1*
X473078Y976683D1*
X474931Y979106D1*
X476912Y981423D1*
X479015Y983630D1*
X481235Y985720D1*
X483564Y987687D1*
X485998Y989524D1*
X488526Y991228D1*
X491145Y992792D1*
X492849Y993690D1*
X490453Y995003D1*
X483007Y1000165D1*
X476486Y1006455D1*
X471058Y1013709D1*
X466864Y1021741D1*
X464012Y1030340D1*
X462578Y1039285D1*
X462596Y1048346D1*
X464068Y1057285D1*
X466956Y1065875D1*
X471183Y1073888D1*
X476639Y1081120D1*
X483187Y1087382D1*
X490654Y1092514D1*
X492999Y1093620D1*
X1475559Y2966791D2*
X1475790Y2970312D1*
X1475559Y2966791D1*
X1476537Y2975094D2*
X1476885Y2976842D1*
X1476537Y2975094D1*
X1476187Y2973326D2*
X1476537Y2975094D1*
X1476187Y2973326D1*
X1478250Y2981485D2*
X1478823Y2983172D1*
X1478250Y2981485D1*
X1477671Y2979777D2*
X1478250Y2981485D1*
X1477671Y2979777D1*
X1480782Y2987598D2*
X1481570Y2989196D1*
X1480782Y2987598D1*
X1479986Y2985981D2*
X1480782Y2987598D1*
X1479986Y2985981D1*
X1484091Y2993329D2*
X1485080Y2994810D1*
X1484091Y2993329D1*
X1483089Y2991829D2*
X1484091Y2993329D1*
X1483089Y2991829D1*
X1488118Y2998578D2*
X1489293Y2999918D1*
X1488118Y2998578D1*
X1486931Y2997222D2*
X1488118Y2998578D1*
X1486931Y2997222D1*
X1492797Y3003256D2*
X1494137Y3004431D1*
X1492797Y3003256D1*
X1491441Y3002066D2*
X1492797Y3003256D1*
X1491441Y3002066D1*
X1498046Y3007284D2*
X1499528Y3008275D1*
X1498046Y3007284D1*
X1496547Y3006281D2*
X1498046Y3007284D1*
X1496547Y3006281D1*
X1503777Y3010592D2*
X1505374Y3011381D1*
X1503777Y3010592D1*
X1502159Y3009794D2*
X1503777Y3010592D1*
X1502159Y3009794D1*
X1509890Y3013125D2*
X1511576Y3013697D1*
X1509890Y3013125D1*
X1508181Y3012544D2*
X1509890Y3013125D1*
X1508181Y3012544D1*
X1516281Y3014838D2*
X1518028Y3015186D1*
X1516281Y3014838D1*
X1514512Y3014485D2*
X1516281Y3014838D1*
X1514512Y3014485D1*
X1534339Y3015171D2*
X1537765Y3014490D1*
X1534339Y3015171D1*
X1542408Y3013125D2*
X1544096Y3012552D1*
X1542408Y3013125D1*
X1540700Y3013704D2*
X1542408Y3013125D1*
X1540700Y3013704D1*
X1548521Y3010592D2*
X1550120Y3009805D1*
X1548521Y3010592D1*
X1546050Y3011788D2*
X1548521Y3010592D1*
X1546050Y3011788D1*
X1554252Y3007284D2*
X1555734Y3006294D1*
X1554252Y3007284D1*
X1551958Y3008792D2*
X1554252Y3007284D1*
X1551958Y3008792D1*
X1559501Y3003256D2*
X1560841Y3002082D1*
X1559501Y3003256D1*
X1557424Y3005052D2*
X1559501Y3003256D1*
X1557424Y3005052D1*
X1564180Y2998578D2*
X1565354Y2997238D1*
X1564180Y2998578D1*
X1562354Y3000628D2*
X1564180Y2998578D1*
X1562354Y3000628D1*
X1568208Y2993329D2*
X1569198Y2991847D1*
X1568208Y2993329D1*
X1566666Y2995600D2*
X1568208Y2993329D1*
X1566666Y2995600D1*
X1571516Y2987598D2*
X1572305Y2986001D1*
X1571516Y2987598D1*
X1570284Y2990052D2*
X1571516Y2987598D1*
X1570284Y2990052D1*
X1574049Y2981485D2*
X1574621Y2979798D1*
X1574049Y2981485D1*
X1573146Y2984078D2*
X1574049Y2981485D1*
X1573146Y2984078D1*
X1575761Y2975094D2*
X1576108Y2973346D1*
X1575761Y2975094D1*
X1575205Y2977783D2*
X1575761Y2975094D1*
X1575205Y2977783D1*
X1576625Y2968533D2*
X1576740Y2966756D1*
X1576625Y2968533D1*
X1576424Y2971272D2*
X1576625Y2968533D1*
X1576424Y2971272D1*
X1576792Y2964378D2*
Y2963549D1*
Y2964378D1*
X1576790Y2965231D2*
X1576792Y2964378D1*
X1576790Y2965231D1*
X1576625Y2960224D2*
X1576508Y2958445D1*
X1576625Y2960224D1*
X1576742Y2962022D2*
X1576625Y2960224D1*
X1576742Y2962022D1*
X1575761Y2953663D2*
X1575414Y2951915D1*
X1575761Y2953663D1*
X1576112Y2955431D2*
X1575761Y2953663D1*
X1576112Y2955431D1*
X1574049Y2947272D2*
X1573475Y2945585D1*
X1574049Y2947272D1*
X1574627Y2948980D2*
X1574049Y2947272D1*
X1574627Y2948980D1*
X1571516Y2941159D2*
X1570729Y2939561D1*
X1571516Y2941159D1*
X1572312Y2942776D2*
X1571516Y2941159D1*
X1572312Y2942776D1*
X1568208Y2935428D2*
X1567218Y2933947D1*
X1568208Y2935428D1*
X1569209Y2936928D2*
X1568208Y2935428D1*
X1569209Y2936928D1*
X1564180Y2930179D2*
X1563005Y2928839D1*
X1564180Y2930179D1*
X1565368Y2931535D2*
X1564180Y2930179D1*
X1565368Y2931535D1*
X1559501Y2925501D2*
X1558162Y2924326D1*
X1559501Y2925501D1*
X1560857Y2926691D2*
X1559501Y2925501D1*
X1560857Y2926691D1*
X1554252Y2921473D2*
X1552771Y2920482D1*
X1554252Y2921473D1*
X1555751Y2922476D2*
X1554252Y2921473D1*
X1555751Y2922476D1*
X1548521Y2918165D2*
X1546903Y2917367D1*
X1548521Y2918165D1*
X1550139Y2918962D2*
X1548521Y2918165D1*
X1550139Y2918962D1*
X1544029Y2916183D2*
X1540722Y2915060D1*
X1544029Y2916183D1*
X1536017Y2913919D2*
X1534269Y2913573D1*
X1536017Y2913919D1*
X1537786Y2914272D2*
X1536017Y2913919D1*
X1537786Y2914272D1*
X1516281Y2913919D2*
X1514533Y2914267D1*
X1516281Y2913919D1*
X1518050Y2913569D2*
X1516281Y2913919D1*
X1518050Y2913569D1*
X1509890Y2915632D2*
X1508202Y2916205D1*
X1509890Y2915632D1*
X1511599Y2915053D2*
X1509890Y2915632D1*
X1511599Y2915053D1*
X1503777Y2918165D2*
X1502179Y2918952D1*
X1503777Y2918165D1*
X1506248Y2916969D2*
X1503777Y2918165D1*
X1506248Y2916969D1*
X1498046Y2921473D2*
X1496564Y2922462D1*
X1498046Y2921473D1*
X1500340Y2919964D2*
X1498046Y2921473D1*
X1500340Y2919964D1*
X1492797Y2925501D2*
X1491457Y2926675D1*
X1492797Y2925501D1*
X1494874Y2923705D2*
X1492797Y2925501D1*
X1494874Y2923705D1*
X1488118Y2930179D2*
X1486944Y2931519D1*
X1488118Y2930179D1*
X1489944Y2928129D2*
X1488118Y2930179D1*
X1489944Y2928129D1*
X1484091Y2935428D2*
X1483100Y2936910D1*
X1484091Y2935428D1*
X1485633Y2933157D2*
X1484091Y2935428D1*
X1485633Y2933157D1*
X1480782Y2941159D2*
X1479994Y2942756D1*
X1480782Y2941159D1*
X1482015Y2938705D2*
X1480782Y2941159D1*
X1482015Y2938705D1*
X1478250Y2947272D2*
X1477677Y2948959D1*
X1478250Y2947272D1*
X1479152Y2944679D2*
X1478250Y2947272D1*
X1479152Y2944679D1*
X1476537Y2953663D2*
X1476189Y2955411D1*
X1476537Y2953663D1*
X1477093Y2950974D2*
X1476537Y2953663D1*
X1477093Y2950974D1*
X1475673Y2960224D2*
X1475557Y2962001D1*
X1475673Y2960224D1*
X1475874Y2957485D2*
X1475673Y2960224D1*
X1475874Y2957485D1*
X1475507Y2964378D2*
X1475508Y2965233D1*
X1475507Y2964378D1*
X1475508Y2963525D2*
X1475507Y2964378D1*
X1475508Y2963525D1*
X1475637Y2712415D2*
X1475753Y2714192D1*
X1475637Y2712415D1*
X1475520Y2710620D2*
X1475637Y2712415D1*
X1475520Y2710620D1*
X1476500Y2718973D2*
X1476848Y2720720D1*
X1476500Y2718973D1*
X1476150Y2717207D2*
X1476500Y2718973D1*
X1476150Y2717207D1*
X1478211Y2725361D2*
X1478784Y2727048D1*
X1478211Y2725361D1*
X1477634Y2723655D2*
X1478211Y2725361D1*
X1477634Y2723655D1*
X1480743Y2731472D2*
X1481530Y2733069D1*
X1480743Y2731472D1*
X1479946Y2729856D2*
X1480743Y2731472D1*
X1479946Y2729856D1*
X1484050Y2737199D2*
X1485053Y2738697D1*
X1484050Y2737199D1*
X1483050Y2735701D2*
X1484050Y2737199D1*
X1483050Y2735701D1*
X1486949Y2741161D2*
X1489250Y2743785D1*
X1486949Y2741161D1*
X1492752Y2747123D2*
X1494091Y2748297D1*
X1492752Y2747123D1*
X1491399Y2745935D2*
X1492752Y2747123D1*
X1491399Y2745935D1*
X1498000Y2751149D2*
X1499480Y2752138D1*
X1498000Y2751149D1*
X1496503Y2750148D2*
X1498000Y2751149D1*
X1496503Y2750148D1*
X1503727Y2754456D2*
X1505324Y2755243D1*
X1503727Y2754456D1*
X1502112Y2753658D2*
X1503727Y2754456D1*
X1502112Y2753658D1*
X1509837Y2756987D2*
X1511524Y2757560D1*
X1509837Y2756987D1*
X1508133Y2756407D2*
X1509837Y2756987D1*
X1508133Y2756407D1*
X1516226Y2758699D2*
X1517973Y2759046D1*
X1516226Y2758699D1*
X1514459Y2758347D2*
X1516226Y2758699D1*
X1514459Y2758347D1*
X1535954Y2758699D2*
X1537701Y2758351D1*
X1535954Y2758699D1*
X1534188Y2759049D2*
X1535954Y2758699D1*
X1534188Y2759049D1*
X1542343Y2756987D2*
X1544029Y2756414D1*
X1542343Y2756987D1*
X1540637Y2757565D2*
X1542343Y2756987D1*
X1540637Y2757565D1*
X1548453Y2754456D2*
X1550050Y2753669D1*
X1548453Y2754456D1*
X1545983Y2755651D2*
X1548453Y2754456D1*
X1545983Y2755651D1*
X1554180Y2751149D2*
X1555660Y2750159D1*
X1554180Y2751149D1*
X1551887Y2752657D2*
X1554180Y2751149D1*
X1551887Y2752657D1*
X1559428Y2747123D2*
X1560767Y2745949D1*
X1559428Y2747123D1*
X1557351Y2748917D2*
X1559428Y2747123D1*
X1557351Y2748917D1*
X1564104Y2742447D2*
X1565278Y2741108D1*
X1564104Y2742447D1*
X1562280Y2744495D2*
X1564104Y2742447D1*
X1562280Y2744495D1*
X1568130Y2737199D2*
X1569120Y2735718D1*
X1568130Y2737199D1*
X1566589Y2739469D2*
X1568130Y2737199D1*
X1566589Y2739469D1*
X1571437Y2731472D2*
X1572225Y2729875D1*
X1571437Y2731472D1*
X1570205Y2733923D2*
X1571437Y2731472D1*
X1570205Y2733923D1*
X1573969Y2725361D2*
X1574541Y2723675D1*
X1573969Y2725361D1*
X1573067Y2727953D2*
X1573969Y2725361D1*
X1573067Y2727953D1*
X1575680Y2718973D2*
X1576028Y2717226D1*
X1575680Y2718973D1*
X1575125Y2721661D2*
X1575680Y2718973D1*
X1575125Y2721661D1*
X1576543Y2712415D2*
X1576660Y2710640D1*
X1576543Y2712415D1*
X1576343Y2715153D2*
X1576543Y2712415D1*
X1576343Y2715153D1*
X1576710Y2708448D2*
Y2707805D1*
Y2708448D1*
X1576709Y2709115D2*
X1576710Y2708448D1*
X1576709Y2709115D1*
X1576543Y2704481D2*
X1576424Y2702682D1*
X1576543Y2704481D1*
X1576660Y2706276D2*
X1576543Y2704481D1*
X1576660Y2706276D1*
X1576013Y2699600D2*
X1575332Y2696176D1*
X1576013Y2699600D1*
X1573969Y2691535D2*
X1573395Y2689848D1*
X1573969Y2691535D1*
X1574546Y2693241D2*
X1573969Y2691535D1*
X1574546Y2693241D1*
X1571437Y2685424D2*
X1570650Y2683827D1*
X1571437Y2685424D1*
X1572234Y2687040D2*
X1571437Y2685424D1*
X1572234Y2687040D1*
X1568130Y2679697D2*
X1567141Y2678217D1*
X1568130Y2679697D1*
X1569130Y2681195D2*
X1568130Y2679697D1*
X1569130Y2681195D1*
X1564104Y2674449D2*
X1562931Y2673111D1*
X1564104Y2674449D1*
X1565292Y2675805D2*
X1564104Y2674449D1*
X1565292Y2675805D1*
X1559428Y2669773D2*
X1558089Y2668599D1*
X1559428Y2669773D1*
X1560781Y2670961D2*
X1559428Y2669773D1*
X1560781Y2670961D1*
X1554180Y2665747D2*
X1552700Y2664758D1*
X1554180Y2665747D1*
X1555677Y2666749D2*
X1554180Y2665747D1*
X1555677Y2666749D1*
X1548453Y2662440D2*
X1546856Y2661653D1*
X1548453Y2662440D1*
X1550068Y2663238D2*
X1548453Y2662440D1*
X1550068Y2663238D1*
X1542343Y2659909D2*
X1540656Y2659336D1*
X1542343Y2659909D1*
X1544047Y2660489D2*
X1542343Y2659909D1*
X1544047Y2660489D1*
X1535954Y2658197D2*
X1534208Y2657850D1*
X1535954Y2658197D1*
X1537721Y2658549D2*
X1535954Y2658197D1*
X1537721Y2658549D1*
X1516226Y2658197D2*
X1514479Y2658545D1*
X1516226Y2658197D1*
X1517992Y2657847D2*
X1516226Y2658197D1*
X1517992Y2657847D1*
X1509837Y2659909D2*
X1508151Y2660481D1*
X1509837Y2659909D1*
X1511543Y2659331D2*
X1509837Y2659909D1*
X1511543Y2659331D1*
X1503727Y2662440D2*
X1502130Y2663228D1*
X1503727Y2662440D1*
X1506197Y2661245D2*
X1503727Y2662440D1*
X1506197Y2661245D1*
X1498000Y2665747D2*
X1496520Y2666737D1*
X1498000Y2665747D1*
X1500293Y2664239D2*
X1498000Y2665747D1*
X1500293Y2664239D1*
X1492752Y2669773D2*
X1491414Y2670947D1*
X1492752Y2669773D1*
X1494830Y2667980D2*
X1492752Y2669773D1*
X1494830Y2667980D1*
X1488076Y2674449D2*
X1486902Y2675788D1*
X1488076Y2674449D1*
X1489900Y2672401D2*
X1488076Y2674449D1*
X1489900Y2672401D1*
X1484050Y2679697D2*
X1483061Y2681178D1*
X1484050Y2679697D1*
X1485591Y2677427D2*
X1484050Y2679697D1*
X1485591Y2677427D1*
X1480743Y2685424D2*
X1479956Y2687022D1*
X1480743Y2685424D1*
X1481975Y2682973D2*
X1480743Y2685424D1*
X1481975Y2682973D1*
X1478211Y2691535D2*
X1477633Y2693242D1*
X1478211Y2691535D1*
X1479113Y2688943D2*
X1478211Y2691535D1*
X1479113Y2688943D1*
X1476833Y2696246D2*
X1476152Y2699670D1*
X1476833Y2696246D1*
X1475637Y2704481D2*
X1475521Y2706256D1*
X1475637Y2704481D1*
X1475837Y2701743D2*
X1475637Y2704481D1*
X1475837Y2701743D1*
X1475470Y2708448D2*
Y2709037D1*
Y2708448D1*
X1475471Y2707781D2*
X1475470Y2708448D1*
X1475471Y2707781D1*
X914810Y3389564D2*
X890118Y3364871D1*
X888677Y3363305D1*
X881011Y3368060D1*
X872441Y3371581D1*
X863407Y3373642D1*
X854158Y3374190D1*
X844945Y3373208D1*
X836019Y3370722D1*
X827624Y3366801D1*
X819988Y3361552D1*
X813322Y3355117D1*
X807805Y3347674D1*
X803588Y3339423D1*
X800786Y3330591D1*
X799478Y3321418D1*
X799696Y3312155D1*
X801436Y3303054D1*
X804650Y3294364D1*
X809251Y3286322D1*
X815113Y3279146D1*
X822076Y3273033D1*
X829950Y3268149D1*
X831600Y3267340D1*
X833274Y3266586D1*
X834973Y3265886D1*
X836694Y3265242D1*
X838435Y3264655D1*
X840194Y3264127D1*
X841970Y3263655D1*
X843760Y3263242D1*
X845882Y3262831D1*
X845444Y3262394D1*
X744852D1*
Y3150192D1*
X773183Y3150187D1*
Y3143700D1*
X773718Y3138375D1*
X776315Y3131133D1*
X780872Y3124926D1*
X798181Y3107606D1*
Y2143700D1*
X799067Y2136871D1*
X802083Y2129785D1*
X806036Y2124756D1*
X874773Y2056020D1*
X880227Y2051817D1*
X887370Y2048940D1*
X893721Y2048179D1*
X1037453D1*
X1044282Y2049065D1*
X1051368Y2052081D1*
X1056394Y2056031D1*
X1113532Y2113178D1*
X1117150Y2113184D1*
X1126118Y2115414D1*
X1134293Y2119725D1*
X1141197Y2125867D1*
X1146431Y2133483D1*
X1149690Y2142130D1*
X1150786Y2151306D1*
X1149654Y2160478D1*
X1146360Y2169112D1*
X1141095Y2176707D1*
X1134166Y2182821D1*
X1125974Y2187099D1*
X1116996Y2189292D1*
X1107756Y2189273D1*
X1098788Y2187044D1*
X1090613Y2182733D1*
X1083709Y2176591D1*
X1081130Y2173325D1*
X1075854Y2179487D1*
X1068916Y2184544D1*
X1069339Y2184976D1*
X1076659Y2183187D1*
X1085899Y2183205D1*
X1094868Y2185435D1*
X1103042Y2189746D1*
X1109946Y2195888D1*
X1115180Y2203504D1*
X1118440Y2212151D1*
X1119536Y2221327D1*
X1118403Y2230499D1*
X1115109Y2239133D1*
X1109844Y2246728D1*
X1107973Y2248680D1*
X1107978Y3045661D1*
X1109886Y3047357D1*
X1115120Y3054974D1*
X1118379Y3063621D1*
X1119475Y3072720D1*
X1119474Y3072952D1*
X1118305Y3082119D1*
X1114977Y3090739D1*
X1109680Y3098313D1*
X1102726Y3104398D1*
X1094519Y3108644D1*
X1085532Y3110801D1*
X1078131Y3110934D1*
X1078137Y3118452D1*
X1112301Y3152616D1*
X1114433Y3151888D1*
X1123575Y3150377D1*
X1132840Y3150392D1*
X1141978Y3151931D1*
X1150736Y3154953D1*
X1158878Y3159377D1*
X1166180Y3165079D1*
X1172445Y3171906D1*
X1177500Y3179671D1*
X1181209Y3188162D1*
X1182652Y3193124D1*
X1182760Y3192636D1*
X1183587Y3189684D1*
X1184574Y3186784D1*
X1185718Y3183940D1*
X1187016Y3181163D1*
X1188462Y3178462D1*
X1190055Y3175843D1*
X1191789Y3173315D1*
X1193658Y3170886D1*
X1195655Y3168564D1*
X1197778Y3166352D1*
X1200019Y3164260D1*
X1202369Y3162294D1*
X1204823Y3160459D1*
X1207374Y3158760D1*
X1210015Y3157204D1*
X1212736Y3155794D1*
X1215530Y3154536D1*
X1218389Y3153431D1*
X1221305Y3152483D1*
X1224267Y3151697D1*
X1227267Y3151074D1*
X1230297Y3150616D1*
X1233348Y3150323D1*
X1236410Y3150197D1*
X1239475Y3150239D1*
X1242532Y3150449D1*
X1245574Y3150825D1*
X1248591Y3151367D1*
X1251572Y3152071D1*
X1254512Y3152939D1*
X1257400Y3153965D1*
X1260227Y3155149D1*
X1262986Y3156483D1*
X1265668Y3157968D1*
X1268264Y3159596D1*
X1270768Y3161363D1*
X1273172Y3163266D1*
X1275467Y3165294D1*
X1277650Y3167448D1*
X1279710Y3169716D1*
X1281645Y3172094D1*
X1283445Y3174573D1*
X1285109Y3177148D1*
X1286629Y3179808D1*
X1288001Y3182549D1*
X1289222Y3185360D1*
X1290288Y3188233D1*
X1291194Y3191161D1*
X1291941Y3194133D1*
X1292522Y3197142D1*
X1292940Y3200179D1*
X1293190Y3203233D1*
X1293274Y3206297D1*
X1293190Y3209360D1*
X1292940Y3212415D1*
X1292522Y3215451D1*
X1291940Y3218460D1*
X1291193Y3221432D1*
X1290286Y3224360D1*
X1289221Y3227233D1*
X1287999Y3230044D1*
X1286626Y3232784D1*
X1285105Y3235445D1*
X1283442Y3238019D1*
X1281641Y3240499D1*
X1279706Y3242876D1*
X1277645Y3245144D1*
X1275463Y3247296D1*
X1273167Y3249326D1*
X1270763Y3251228D1*
X1268259Y3252995D1*
X1265663Y3254623D1*
X1262980Y3256107D1*
X1260222Y3257441D1*
X1257395Y3258624D1*
X1254507Y3259650D1*
X1251567Y3260516D1*
X1248584Y3261222D1*
X1245568Y3261763D1*
X1242526Y3262138D1*
X1239469Y3262348D1*
X1236404Y3262389D1*
X1233341Y3262263D1*
X1230292Y3261970D1*
X1227261Y3261512D1*
X1224260Y3260888D1*
X1221298Y3260102D1*
X1218383Y3259154D1*
X1215525Y3258049D1*
X1212731Y3256791D1*
X1210009Y3255380D1*
X1207370Y3253823D1*
X1204819Y3252125D1*
X1202364Y3250289D1*
X1200013Y3248323D1*
X1197773Y3246231D1*
X1195651Y3244020D1*
X1193654Y3241696D1*
X1191785Y3239267D1*
X1190053Y3236738D1*
X1188459Y3234120D1*
X1187013Y3231418D1*
X1185715Y3228641D1*
X1184572Y3225798D1*
X1183585Y3222897D1*
X1182759Y3219945D1*
X1182551Y3219096D1*
X1181150Y3224595D1*
X1177415Y3233074D1*
X1172335Y3240822D1*
X1166049Y3247629D1*
X1158727Y3253309D1*
X1150571Y3257705D1*
X1141803Y3260700D1*
X1132662Y3262210D1*
X1123396Y3262196D1*
X1114259Y3260655D1*
X1105500Y3257633D1*
X1097358Y3253210D1*
X1090057Y3247507D1*
X1083792Y3240680D1*
X1078736Y3232915D1*
X1075028Y3224424D1*
X1073496Y3219096D1*
X1072095Y3224595D1*
X1068360Y3233074D1*
X1063280Y3240822D1*
X1056994Y3247629D1*
X1049672Y3253309D1*
X1041516Y3257705D1*
X1032748Y3260700D1*
X1023606Y3262210D1*
X1014341Y3262196D1*
X1005204Y3260655D1*
X996445Y3257633D1*
X992288Y3255375D1*
X992298Y3269560D1*
X995295Y3271188D1*
X1002597Y3276890D1*
X1008862Y3283717D1*
X1013917Y3291482D1*
X1017626Y3299973D1*
X1018970Y3305318D1*
X1019158Y3305301D1*
X1020559Y3299804D1*
X1024294Y3291325D1*
X1029374Y3283575D1*
X1035660Y3276770D1*
X1042982Y3271090D1*
X1051138Y3266692D1*
X1059906Y3263699D1*
X1069047Y3262188D1*
X1078312Y3262203D1*
X1087450Y3263742D1*
X1096209Y3266764D1*
X1104351Y3271188D1*
X1111652Y3276890D1*
X1117917Y3283717D1*
X1122973Y3291482D1*
X1126681Y3299973D1*
X1128025Y3305318D1*
X1128213Y3305301D1*
X1129614Y3299804D1*
X1133349Y3291325D1*
X1138429Y3283575D1*
X1144715Y3276770D1*
X1152037Y3271090D1*
X1160193Y3266692D1*
X1168961Y3263699D1*
X1178103Y3262188D1*
X1187368Y3262203D1*
X1196505Y3263742D1*
X1205264Y3266764D1*
X1213406Y3271188D1*
X1220708Y3276890D1*
X1226973Y3283717D1*
X1232028Y3291482D1*
X1235736Y3299973D1*
X1237996Y3308960D1*
X1238747Y3318195D1*
X1237967Y3327427D1*
X1235677Y3336406D1*
X1231942Y3344885D1*
X1226862Y3352633D1*
X1220576Y3359440D1*
X1213255Y3365120D1*
X1205099Y3369516D1*
X1196331Y3372511D1*
X1187189Y3374022D1*
X1177924Y3374007D1*
X1168786Y3372466D1*
X1166828Y3371791D1*
X1149029Y3389579D1*
X1143575Y3393783D1*
X1136432Y3396659D1*
X1130082Y3397420D1*
X933756D1*
X926927Y3396535D1*
X919841Y3393519D1*
X914810Y3389564D1*
X929432Y881182D2*
X929433Y870819D1*
X927458Y869062D1*
X922225Y861445D1*
X918965Y852798D1*
X917869Y843623D1*
X919001Y834451D1*
X922295Y825817D1*
X927561Y818222D1*
X934490Y812108D1*
X942681Y807830D1*
X951659Y805637D1*
X960899Y805655D1*
X969868Y807885D1*
X978042Y812196D1*
X984946Y818338D1*
X990180Y825955D1*
X993440Y834602D1*
X994536Y843777D1*
X993403Y852949D1*
X990109Y861583D1*
X984844Y869178D1*
X983486Y870625D1*
X1016932Y904067D1*
X1016933Y895819D1*
X1014958Y894062D1*
X1009725Y886445D1*
X1006465Y877798D1*
X1005369Y868623D1*
X1006501Y859451D1*
X1009795Y850817D1*
X1015061Y843222D1*
X1021990Y837108D1*
X1030181Y832830D1*
X1039159Y830637D1*
X1048399Y830655D1*
X1057368Y832885D1*
X1065599Y837234D1*
X1065740Y837108D1*
X1073932Y832830D1*
X1082910Y830637D1*
X1092150Y830655D1*
X1101118Y832885D1*
X1109293Y837196D1*
X1116197Y843338D1*
X1121431Y850955D1*
X1124690Y859602D1*
X1125786Y868777D1*
X1125743Y869127D1*
X1437613Y1181001D1*
X1441142Y1185352D1*
X1444368Y1192336D1*
X1445473Y1199949D1*
X1445471Y1232611D1*
X1462932Y1250071D1*
X1462500Y1246978D1*
X1462702Y1237919D1*
X1464354Y1229011D1*
X1467415Y1220483D1*
X1471802Y1212557D1*
X1477406Y1205438D1*
X1484078Y1199308D1*
X1491647Y1194329D1*
X1493024Y1193598D1*
X1489473Y1191815D1*
X1482133Y1186503D1*
X1475740Y1180083D1*
X1470461Y1172721D1*
X1466431Y1164607D1*
X1463753Y1155951D1*
X1462500Y1146978D1*
X1462702Y1137919D1*
X1464354Y1129011D1*
X1467415Y1120483D1*
X1471802Y1112557D1*
X1477406Y1105438D1*
X1484078Y1099308D1*
X1491647Y1094329D1*
X1493024Y1093598D1*
X1489473Y1091815D1*
X1482133Y1086503D1*
X1475740Y1080083D1*
X1470461Y1072721D1*
X1466431Y1064607D1*
X1463753Y1055951D1*
X1462500Y1046978D1*
X1462702Y1037919D1*
X1464354Y1029011D1*
X1467415Y1020483D1*
X1471802Y1012557D1*
X1477406Y1005438D1*
X1484078Y999308D1*
X1491647Y994329D1*
X1493024Y993598D1*
X1489473Y991815D1*
X1482133Y986503D1*
X1475740Y980083D1*
X1470461Y972721D1*
X1466431Y964607D1*
X1463753Y955951D1*
X1462500Y946978D1*
X1462702Y937919D1*
X1464354Y929011D1*
X1467415Y920483D1*
X1471802Y912557D1*
X1477406Y905438D1*
X1484078Y899308D1*
X1491647Y894329D1*
X1493024Y893598D1*
X1489473Y891815D1*
X1482133Y886503D1*
X1475740Y880083D1*
X1470461Y872721D1*
X1466431Y864607D1*
X1463753Y855951D1*
X1462500Y846978D1*
X1462702Y837919D1*
X1464354Y829011D1*
X1467415Y820483D1*
X1471802Y812557D1*
X1477406Y805438D1*
X1484078Y799308D1*
X1491647Y794329D1*
X1493024Y793598D1*
X1489473Y791815D1*
X1482133Y786503D1*
X1475740Y780083D1*
X1470461Y772721D1*
X1466431Y764607D1*
X1463753Y755951D1*
X1462500Y746978D1*
X1462702Y737919D1*
X1464354Y729011D1*
X1467415Y720483D1*
X1471802Y712557D1*
X1477406Y705438D1*
X1484078Y699308D1*
X1491647Y694329D1*
X1493024Y693598D1*
X1489473Y691815D1*
X1482133Y686503D1*
X1475740Y680083D1*
X1470461Y672721D1*
X1466431Y664607D1*
X1463753Y655951D1*
X1462500Y646978D1*
X1462702Y637919D1*
X1464354Y629011D1*
X1467415Y620483D1*
X1471802Y612557D1*
X1477406Y605438D1*
X1484078Y599308D1*
X1491647Y594329D1*
X1493024Y593598D1*
X1489473Y591815D1*
X1482133Y586503D1*
X1475740Y580083D1*
X1470461Y572721D1*
X1466431Y564607D1*
X1463753Y555951D1*
X1462500Y546978D1*
X1462702Y537919D1*
X1464354Y529011D1*
X1467415Y520483D1*
X1471802Y512557D1*
X1477406Y505438D1*
X1484078Y499308D1*
X1491647Y494329D1*
X1492999Y493620D1*
X1490654Y492514D1*
X1483187Y487382D1*
X1476639Y481120D1*
X1471183Y473888D1*
X1466956Y465875D1*
X1464068Y457285D1*
X1462596Y448346D1*
X1462578Y439285D1*
X1464012Y430340D1*
X1465797Y424957D1*
X1411155Y424949D1*
X571721Y424957D1*
X572066Y425762D1*
X574252Y434554D1*
X575000Y443700D1*
X574785Y448624D1*
X573268Y457556D1*
X570339Y466130D1*
X566072Y474123D1*
X560579Y481327D1*
X554000Y487557D1*
X546508Y492651D1*
X544442Y493771D1*
X550587Y497302D1*
X557617Y503018D1*
X563639Y509787D1*
X568498Y517434D1*
X572066Y525762D1*
X574252Y534554D1*
X575000Y543700D1*
X574648Y549989D1*
X572915Y558881D1*
X569777Y567381D1*
X565316Y575268D1*
X559650Y582336D1*
X552921Y588405D1*
X545307Y593314D1*
X544442Y593771D1*
X550587Y597302D1*
X557617Y603018D1*
X563639Y609787D1*
X568498Y617434D1*
X572066Y625762D1*
X574252Y634554D1*
X575000Y643700D1*
X574648Y649989D1*
X572915Y658881D1*
X569777Y667381D1*
X565316Y675268D1*
X559650Y682336D1*
X552921Y688405D1*
X545307Y693314D1*
X544442Y693771D1*
X550587Y697302D1*
X557617Y703018D1*
X563639Y709787D1*
X568498Y717434D1*
X572066Y725762D1*
X574252Y734554D1*
X575000Y743700D1*
X574648Y749989D1*
X572915Y758881D1*
X569777Y767381D1*
X565316Y775268D1*
X559650Y782336D1*
X552921Y788405D1*
X545307Y793314D1*
X544442Y793771D1*
X550587Y797302D1*
X557617Y803018D1*
X563639Y809787D1*
X568498Y817434D1*
X572066Y825762D1*
X574252Y834554D1*
X575000Y843700D1*
X574986Y844956D1*
X574055Y853968D1*
X571692Y862714D1*
X567956Y870968D1*
X562944Y878516D1*
X556786Y885162D1*
X549642Y890734D1*
X544563Y893707D1*
X545062Y893955D1*
X547715Y895455D1*
X550285Y897096D1*
X552763Y898875D1*
X555139Y900784D1*
X557410Y902819D1*
X559566Y904974D1*
X561603Y907243D1*
X563513Y909620D1*
X565293Y912096D1*
X566935Y914665D1*
X568436Y917318D1*
X569792Y920049D1*
X570998Y922850D1*
X572049Y925712D1*
X572945Y928627D1*
X573681Y931586D1*
X574256Y934579D1*
X574668Y937600D1*
X574917Y940640D1*
X575000Y943700D1*
X574935Y946431D1*
X574704Y949470D1*
X574309Y952494D1*
X573751Y955491D1*
X573032Y958455D1*
X572154Y961375D1*
X571118Y964242D1*
X569929Y967050D1*
X568591Y969789D1*
X567105Y972452D1*
X565477Y975029D1*
X563713Y977516D1*
X561815Y979903D1*
X559793Y982184D1*
X557648Y984352D1*
X555390Y986402D1*
X553025Y988325D1*
X550559Y990117D1*
X547999Y991775D1*
X545353Y993291D1*
X544442Y993771D1*
X550587Y997302D1*
X557617Y1003018D1*
X563639Y1009787D1*
X568498Y1017434D1*
X572066Y1025762D1*
X574252Y1034554D1*
X575000Y1043700D1*
X574785Y1048624D1*
X573268Y1057556D1*
X570339Y1066130D1*
X566072Y1074123D1*
X560579Y1081327D1*
X554000Y1087557D1*
X546508Y1092651D1*
X544442Y1093771D1*
X550587Y1097302D1*
X557617Y1103018D1*
X563639Y1109787D1*
X568498Y1117434D1*
X572066Y1125762D1*
X574252Y1134554D1*
X575000Y1143700D1*
X574648Y1149989D1*
X572915Y1158881D1*
X569777Y1167381D1*
X565316Y1175268D1*
X559650Y1182336D1*
X552921Y1188405D1*
X545307Y1193314D1*
X544442Y1193771D1*
X550587Y1197302D1*
X557617Y1203018D1*
X563639Y1209787D1*
X568498Y1217434D1*
X572066Y1225762D1*
X574252Y1234554D1*
X575000Y1243700D1*
X574648Y1249989D1*
X572915Y1258881D1*
X569777Y1267381D1*
X565316Y1275268D1*
X559650Y1282336D1*
X552921Y1288405D1*
X545307Y1293314D1*
X544442Y1293771D1*
X550587Y1297302D1*
X557617Y1303018D1*
X563639Y1309787D1*
X568498Y1317434D1*
X572066Y1325762D1*
X574252Y1334554D1*
X575000Y1343700D1*
X574648Y1349989D1*
X572915Y1358881D1*
X569777Y1367381D1*
X565316Y1375268D1*
X559650Y1382336D1*
X552921Y1388405D1*
X545307Y1393314D1*
X544442Y1393771D1*
X550587Y1397302D1*
X557617Y1403018D1*
X563639Y1409787D1*
X568498Y1417434D1*
X572066Y1425762D1*
X574252Y1434554D1*
X575000Y1443700D1*
X574648Y1449989D1*
X572915Y1458881D1*
X569777Y1467381D1*
X565316Y1475268D1*
X559650Y1482336D1*
X552921Y1488405D1*
X545307Y1493314D1*
X544442Y1493771D1*
X550587Y1497302D1*
X557617Y1503018D1*
X563639Y1509787D1*
X568498Y1517434D1*
X572066Y1525762D1*
X574252Y1534554D1*
X575000Y1543700D1*
X574648Y1549989D1*
X572915Y1558881D1*
X569777Y1567381D1*
X565316Y1575268D1*
X559650Y1582336D1*
X552921Y1588405D1*
X545307Y1593314D1*
X544442Y1593771D1*
X550587Y1597302D1*
X557617Y1603018D1*
X563639Y1609787D1*
X568498Y1617434D1*
X572066Y1625762D1*
X574252Y1634554D1*
X575000Y1643700D1*
X574648Y1649989D1*
X572915Y1658881D1*
X569777Y1667381D1*
X565316Y1675268D1*
X559650Y1682336D1*
X552921Y1688405D1*
X545307Y1693314D1*
X544442Y1693771D1*
X550587Y1697302D1*
X557617Y1703018D1*
X563639Y1709787D1*
X568498Y1717434D1*
X572066Y1725762D1*
X574252Y1734554D1*
X575000Y1743700D1*
X574648Y1749989D1*
X572915Y1758881D1*
X569777Y1767381D1*
X565316Y1775268D1*
X559650Y1782336D1*
X552921Y1788405D1*
X545307Y1793314D1*
X544442Y1793771D1*
X550587Y1797302D1*
X557617Y1803018D1*
X563639Y1809787D1*
X568498Y1817434D1*
X572066Y1825762D1*
X574252Y1834554D1*
X575000Y1843700D1*
X574648Y1849989D1*
X572915Y1858881D1*
X569777Y1867381D1*
X565316Y1875268D1*
X559650Y1882336D1*
X552921Y1888405D1*
X545307Y1893314D1*
X544442Y1893771D1*
X550587Y1897302D1*
X557617Y1903018D1*
X563639Y1909787D1*
X568498Y1917434D1*
X572066Y1925762D1*
X574252Y1934554D1*
X575000Y1943700D1*
X574648Y1949989D1*
X572915Y1958881D1*
X572599Y1959737D1*
X588169Y1975309D1*
X591698Y1979659D1*
X594924Y1986644D1*
X596029Y1994256D1*
X596028Y2340787D1*
X598003Y2342544D1*
X603236Y2350161D1*
X606496Y2358808D1*
X607592Y2367983D1*
X606459Y2377155D1*
X603166Y2385789D1*
X597900Y2393384D1*
X590971Y2399498D1*
X582780Y2403776D1*
X573802Y2405969D1*
X564562Y2405951D1*
X555593Y2403721D1*
X547419Y2399410D1*
X540515Y2393268D1*
X535281Y2385651D1*
X532021Y2377004D1*
X530925Y2367829D1*
X532058Y2358657D1*
X535352Y2350023D1*
X540617Y2342428D1*
X542488Y2340473D1*
X542496Y2294650D1*
X541697Y2295088D1*
X533155Y2298111D1*
X524240Y2299725D1*
X515181Y2299888D1*
X506214Y2298595D1*
X497570Y2295881D1*
X489473Y2291815D1*
X482133Y2286503D1*
X475740Y2280083D1*
X475521Y2279822D1*
X475526Y2613499D1*
X749109Y2887083D1*
X757368Y2889136D1*
X765542Y2893447D1*
X772446Y2899588D1*
X777680Y2907205D1*
X780940Y2915852D1*
X782036Y2925028D1*
X780903Y2934200D1*
X777609Y2942834D1*
X772344Y2950428D1*
X765415Y2956543D1*
X757223Y2960821D1*
X748246Y2963014D1*
X739005Y2962995D1*
X730037Y2960766D1*
X721862Y2956455D1*
X714958Y2950313D1*
X709725Y2942696D1*
X706465Y2934049D1*
X705369Y2924873D1*
X706007Y2919705D1*
X644097Y2857787D1*
X429840Y2643531D1*
X426310Y2639179D1*
X424953Y2636844D1*
X424949Y3206354D1*
X427755Y3201339D1*
X432836Y3193729D1*
X438499Y3186543D1*
X444708Y3179821D1*
X451425Y3173608D1*
X458609Y3167941D1*
X466217Y3162855D1*
X474198Y3158382D1*
X482507Y3154549D1*
X491091Y3151378D1*
X499896Y3148893D1*
X508870Y3147106D1*
X517957Y3146027D1*
X527100Y3145665D1*
X536243Y3146022D1*
X545331Y3147095D1*
X554306Y3148877D1*
X563113Y3151357D1*
X571698Y3154523D1*
X580009Y3158351D1*
X587994Y3162819D1*
X595604Y3167901D1*
X602792Y3173564D1*
X609512Y3179773D1*
X615726Y3186490D1*
X621393Y3193675D1*
X626478Y3201281D1*
X630952Y3209263D1*
X634785Y3217573D1*
X637954Y3226155D1*
X640440Y3234962D1*
X642229Y3243936D1*
X643306Y3253023D1*
X643668Y3262199D1*
X643311Y3271309D1*
X642239Y3280396D1*
X640456Y3289371D1*
X637975Y3298178D1*
X634810Y3306763D1*
X630982Y3315074D1*
X626513Y3323060D1*
X621432Y3330669D1*
X615769Y3337856D1*
X609561Y3344577D1*
X602843Y3350791D1*
X595659Y3356457D1*
X588051Y3361543D1*
X580070Y3366016D1*
X571761Y3369850D1*
X563177Y3373019D1*
X554372Y3375506D1*
X545398Y3377293D1*
X536311Y3378372D1*
X527168Y3378733D1*
X518025Y3378377D1*
X508937Y3377304D1*
X499962Y3375522D1*
X491155Y3373040D1*
X482570Y3369876D1*
X474259Y3366046D1*
X466274Y3361578D1*
X458664Y3356497D1*
X451477Y3350834D1*
X444756Y3344625D1*
X438542Y3337907D1*
X432875Y3330724D1*
X427790Y3323117D1*
X424954Y3318058D1*
X424957Y3601027D1*
X436379Y3612451D1*
X1613529Y3612447D1*
X1624952Y3601023D1*
X1624950Y3286171D1*
X1624314Y3289371D1*
X1621833Y3298178D1*
X1618668Y3306763D1*
X1614840Y3315074D1*
X1610372Y3323060D1*
X1605290Y3330669D1*
X1599627Y3337856D1*
X1593419Y3344577D1*
X1586701Y3350791D1*
X1579517Y3356457D1*
X1571910Y3361543D1*
X1563928Y3366016D1*
X1555620Y3369850D1*
X1547036Y3373019D1*
X1538230Y3375506D1*
X1529256Y3377293D1*
X1520169Y3378372D1*
X1511026Y3378733D1*
X1501883Y3378377D1*
X1492795Y3377304D1*
X1483820Y3375522D1*
X1475013Y3373040D1*
X1466428Y3369876D1*
X1458117Y3366046D1*
X1450133Y3361578D1*
X1442522Y3356497D1*
X1435335Y3350834D1*
X1428614Y3344625D1*
X1422400Y3337907D1*
X1416734Y3330724D1*
X1411648Y3323117D1*
X1407175Y3315134D1*
X1403341Y3306826D1*
X1400172Y3298242D1*
X1397687Y3289436D1*
X1395898Y3280462D1*
X1394820Y3271376D1*
X1394458Y3262233D1*
X1394815Y3253090D1*
X1395887Y3244003D1*
X1397671Y3235028D1*
X1400151Y3226220D1*
X1403316Y3217634D1*
X1407145Y3209323D1*
X1411613Y3201339D1*
X1416694Y3193729D1*
X1422357Y3186543D1*
X1428566Y3179821D1*
X1435284Y3173608D1*
X1442467Y3167941D1*
X1450075Y3162855D1*
X1458057Y3158382D1*
X1466365Y3154549D1*
X1474949Y3151378D1*
X1483755Y3148893D1*
X1492729Y3147106D1*
X1501815Y3146027D1*
X1510958Y3145665D1*
X1520101Y3146022D1*
X1529189Y3147095D1*
X1538164Y3148877D1*
X1546971Y3151357D1*
X1555557Y3154523D1*
X1563868Y3158351D1*
X1571852Y3162819D1*
X1579462Y3167901D1*
X1586650Y3173564D1*
X1593370Y3179773D1*
X1599584Y3186490D1*
X1605251Y3193675D1*
X1610336Y3201281D1*
X1614810Y3209263D1*
X1618643Y3217573D1*
X1621812Y3226155D1*
X1624298Y3234962D1*
X1624950Y3238230D1*
X1624956Y434991D1*
X1618269Y424949D1*
X1571721Y424957D1*
X1572066Y425762D1*
X1574252Y434554D1*
X1575000Y443700D1*
X1574785Y448624D1*
X1573268Y457556D1*
X1570339Y466130D1*
X1566072Y474123D1*
X1560579Y481327D1*
X1554000Y487557D1*
X1546508Y492651D1*
X1544431Y493620D1*
X1544442Y493771D1*
X1550587Y497302D1*
X1557617Y503018D1*
X1563639Y509787D1*
X1568498Y517434D1*
X1572066Y525762D1*
X1574252Y534554D1*
X1575000Y543700D1*
X1574648Y549989D1*
X1572915Y558881D1*
X1569777Y567381D1*
X1565316Y575268D1*
X1559650Y582336D1*
X1552921Y588405D1*
X1545307Y593314D1*
X1544504Y593665D1*
X1544442Y593771D1*
X1550587Y597302D1*
X1557617Y603018D1*
X1563639Y609787D1*
X1568498Y617434D1*
X1572066Y625762D1*
X1574252Y634554D1*
X1575000Y643700D1*
X1574648Y649989D1*
X1572915Y658881D1*
X1569777Y667381D1*
X1565316Y675268D1*
X1559650Y682336D1*
X1552921Y688405D1*
X1545307Y693314D1*
X1544504Y693665D1*
X1544442Y693771D1*
X1550587Y697302D1*
X1557617Y703018D1*
X1563639Y709787D1*
X1568498Y717434D1*
X1572066Y725762D1*
X1574252Y734554D1*
X1575000Y743700D1*
X1574648Y749989D1*
X1572915Y758881D1*
X1569777Y767381D1*
X1565316Y775268D1*
X1559650Y782336D1*
X1552921Y788405D1*
X1545307Y793314D1*
X1544504Y793665D1*
X1544442Y793771D1*
X1550587Y797302D1*
X1557617Y803018D1*
X1563639Y809787D1*
X1568498Y817434D1*
X1572066Y825762D1*
X1574252Y834554D1*
X1575000Y843700D1*
X1574648Y849989D1*
X1572915Y858881D1*
X1569777Y867381D1*
X1565316Y875268D1*
X1559650Y882336D1*
X1552921Y888405D1*
X1545307Y893314D1*
X1544504Y893665D1*
X1544442Y893771D1*
X1550587Y897302D1*
X1557617Y903018D1*
X1563639Y909787D1*
X1568498Y917434D1*
X1572066Y925762D1*
X1574252Y934554D1*
X1575000Y943700D1*
X1574648Y949989D1*
X1572915Y958881D1*
X1569777Y967381D1*
X1565316Y975268D1*
X1559650Y982336D1*
X1552921Y988405D1*
X1545307Y993314D1*
X1544504Y993665D1*
X1544442Y993771D1*
X1550587Y997302D1*
X1557617Y1003018D1*
X1563639Y1009787D1*
X1568498Y1017434D1*
X1572066Y1025762D1*
X1574252Y1034554D1*
X1575000Y1043700D1*
X1574648Y1049989D1*
X1572915Y1058881D1*
X1569777Y1067381D1*
X1565316Y1075268D1*
X1559650Y1082336D1*
X1552921Y1088405D1*
X1545307Y1093314D1*
X1544504Y1093665D1*
X1544442Y1093771D1*
X1550587Y1097302D1*
X1557617Y1103018D1*
X1563639Y1109787D1*
X1568498Y1117434D1*
X1572066Y1125762D1*
X1574252Y1134554D1*
X1575000Y1143700D1*
X1574648Y1149989D1*
X1572915Y1158881D1*
X1569777Y1167381D1*
X1565316Y1175268D1*
X1559650Y1182336D1*
X1552921Y1188405D1*
X1545307Y1193314D1*
X1544504Y1193665D1*
X1544442Y1193771D1*
X1550587Y1197302D1*
X1557617Y1203018D1*
X1563639Y1209787D1*
X1568498Y1217434D1*
X1572066Y1225762D1*
X1574252Y1234554D1*
X1575000Y1243700D1*
X1574648Y1249989D1*
X1572915Y1258881D1*
X1569777Y1267381D1*
X1565316Y1275268D1*
X1559650Y1282336D1*
X1552921Y1288405D1*
X1545307Y1293314D1*
X1544504Y1293665D1*
X1544442Y1293771D1*
X1550587Y1297302D1*
X1557617Y1303018D1*
X1563639Y1309787D1*
X1568498Y1317434D1*
X1572066Y1325762D1*
X1574252Y1334554D1*
X1575000Y1343700D1*
X1574648Y1349989D1*
X1572915Y1358881D1*
X1569777Y1367381D1*
X1565316Y1375268D1*
X1564348Y1376476D1*
X1587613Y1399752D1*
X1591143Y1404103D1*
X1594368Y1411087D1*
X1595473Y1418700D1*
Y2093674D1*
X1594893Y2099246D1*
X1592234Y2106465D1*
X1587631Y2112629D1*
X1572550Y2127710D1*
X1574252Y2134554D1*
X1575000Y2143700D1*
X1574949Y2146094D1*
X1573837Y2155086D1*
X1571297Y2163783D1*
X1567394Y2171959D1*
X1562230Y2179403D1*
X1555940Y2185924D1*
X1548684Y2191351D1*
X1547113Y2192304D1*
X1544563Y2193707D1*
X1545062Y2193955D1*
X1547715Y2195455D1*
X1550285Y2197096D1*
X1552763Y2198875D1*
X1555139Y2200784D1*
X1557410Y2202819D1*
X1559566Y2204974D1*
X1561603Y2207243D1*
X1563513Y2209620D1*
X1565293Y2212096D1*
X1566935Y2214665D1*
X1568436Y2217318D1*
X1569792Y2220049D1*
X1570998Y2222850D1*
X1572049Y2225712D1*
X1572945Y2228627D1*
X1573681Y2231586D1*
X1574256Y2234579D1*
X1574668Y2237600D1*
X1574917Y2240640D1*
X1575000Y2243700D1*
X1574984Y2245053D1*
X1574828Y2248098D1*
X1574508Y2251130D1*
X1574024Y2254141D1*
X1573377Y2257120D1*
X1572571Y2260061D1*
X1571605Y2262953D1*
X1570486Y2265789D1*
X1569214Y2268560D1*
X1567794Y2271258D1*
X1566230Y2273876D1*
X1564526Y2276405D1*
X1562689Y2278838D1*
X1560722Y2281167D1*
X1558633Y2283388D1*
X1556425Y2285490D1*
X1554108Y2287472D1*
X1551685Y2289325D1*
X1549167Y2291043D1*
X1546559Y2292623D1*
X1543870Y2294060D1*
X1541106Y2295348D1*
X1538277Y2296485D1*
X1535391Y2297468D1*
X1532456Y2298292D1*
X1529480Y2298957D1*
X1526473Y2299459D1*
X1523442Y2299798D1*
X1520398Y2299973D1*
X1517349Y2299982D1*
X1514305Y2299826D1*
X1511272Y2299506D1*
X1508261Y2299022D1*
X1505282Y2298375D1*
X1502341Y2297569D1*
X1499449Y2296603D1*
X1496613Y2295483D1*
X1493843Y2294212D1*
X1491145Y2292792D1*
X1488526Y2291228D1*
X1485998Y2289524D1*
X1483564Y2287687D1*
X1481235Y2285720D1*
X1479015Y2283630D1*
X1476912Y2281423D1*
X1474931Y2279106D1*
X1473078Y2276683D1*
X1471360Y2274165D1*
X1469780Y2271557D1*
X1468343Y2268868D1*
X1467054Y2266104D1*
X1465917Y2263275D1*
X1464935Y2260389D1*
X1464110Y2257453D1*
X1463445Y2254478D1*
X1462944Y2251470D1*
X1462604Y2248440D1*
X1462429Y2245396D1*
X1462420Y2242347D1*
X1462576Y2239302D1*
X1462896Y2236270D1*
X1463381Y2233259D1*
X1464028Y2230280D1*
X1464833Y2227339D1*
X1465799Y2224447D1*
X1466919Y2221611D1*
X1468190Y2218840D1*
X1469610Y2216142D1*
X1471175Y2213524D1*
X1472878Y2210995D1*
X1474715Y2208562D1*
X1476683Y2206233D1*
X1478772Y2204012D1*
X1480979Y2201910D1*
X1483297Y2199928D1*
X1485719Y2198075D1*
X1488238Y2196357D1*
X1490845Y2194777D1*
X1493024Y2193598D1*
X1489473Y2191815D1*
X1482133Y2186503D1*
X1475740Y2180083D1*
X1470461Y2172721D1*
X1466431Y2164607D1*
X1463753Y2155951D1*
X1462500Y2146978D1*
X1462702Y2137919D1*
X1464354Y2129011D1*
X1467415Y2120483D1*
X1471802Y2112557D1*
X1477406Y2105438D1*
X1484078Y2099308D1*
X1491647Y2094329D1*
X1493024Y2093598D1*
X1489473Y2091815D1*
X1482133Y2086503D1*
X1475740Y2080083D1*
X1470461Y2072721D1*
X1466431Y2064607D1*
X1463753Y2055951D1*
X1462500Y2046978D1*
X1462702Y2037919D1*
X1464354Y2029011D1*
X1467415Y2020483D1*
X1471802Y2012557D1*
X1477406Y2005438D1*
X1484078Y1999308D1*
X1491647Y1994329D1*
X1493024Y1993598D1*
X1489473Y1991815D1*
X1482133Y1986503D1*
X1475740Y1980083D1*
X1470461Y1972721D1*
X1466431Y1964607D1*
X1463753Y1955951D1*
X1462500Y1946978D1*
X1462702Y1937919D1*
X1464354Y1929011D1*
X1467415Y1920483D1*
X1471802Y1912557D1*
X1477406Y1905438D1*
X1484078Y1899308D1*
X1491647Y1894329D1*
X1493024Y1893598D1*
X1489473Y1891815D1*
X1482133Y1886503D1*
X1475740Y1880083D1*
X1470461Y1872721D1*
X1466431Y1864607D1*
X1463753Y1855951D1*
X1462500Y1846978D1*
X1462702Y1837919D1*
X1464354Y1829011D1*
X1467415Y1820483D1*
X1471802Y1812557D1*
X1477406Y1805438D1*
X1484078Y1799308D1*
X1491647Y1794329D1*
X1492827Y1793693D1*
X1485189Y1788936D1*
X1478368Y1782976D1*
X1472589Y1775997D1*
X1468005Y1768182D1*
X1464735Y1759731D1*
X1462862Y1750867D1*
X1462436Y1741817D1*
X1463466Y1732815D1*
X1465928Y1724096D1*
X1469756Y1715885D1*
X1474852Y1708393D1*
X1481083Y1701817D1*
X1488289Y1696325D1*
X1489851Y1695357D1*
X1491444Y1694441D1*
X1492849Y1693690D1*
X1491145Y1692792D1*
X1488526Y1691228D1*
X1485998Y1689524D1*
X1483564Y1687687D1*
X1481235Y1685720D1*
X1479015Y1683630D1*
X1476912Y1681423D1*
X1474931Y1679106D1*
X1473078Y1676683D1*
X1471360Y1674165D1*
X1469780Y1671557D1*
X1468343Y1668868D1*
X1467054Y1666104D1*
X1465917Y1663275D1*
X1464935Y1660389D1*
X1464110Y1657453D1*
X1463445Y1654478D1*
X1462944Y1651470D1*
X1462604Y1648440D1*
X1462429Y1645396D1*
X1462420Y1642347D1*
X1462576Y1639302D1*
X1462896Y1636270D1*
X1463381Y1633259D1*
X1464028Y1630280D1*
X1464833Y1627339D1*
X1465799Y1624447D1*
X1466919Y1621611D1*
X1468190Y1618840D1*
X1469610Y1616142D1*
X1471175Y1613524D1*
X1472878Y1610995D1*
X1474715Y1608562D1*
X1476683Y1606233D1*
X1478772Y1604012D1*
X1480979Y1601910D1*
X1483297Y1599928D1*
X1485719Y1598075D1*
X1488238Y1596357D1*
X1490845Y1594777D1*
X1493024Y1593598D1*
X1489473Y1591815D1*
X1482133Y1586503D1*
X1475740Y1580083D1*
X1470461Y1572721D1*
X1466431Y1564607D1*
X1463753Y1555951D1*
X1462500Y1546978D1*
X1462702Y1537919D1*
X1464354Y1529011D1*
X1464747Y1527603D1*
X849773Y912629D1*
X845570Y907175D1*
X842693Y900040D1*
X842028Y895903D1*
X839958Y894062D1*
X834725Y886445D1*
X831465Y877798D1*
X830369Y868623D1*
X831501Y859451D1*
X834795Y850817D1*
X840061Y843222D1*
X846990Y837108D1*
X855181Y832830D1*
X864159Y830637D1*
X873399Y830655D1*
X882368Y832885D1*
X890542Y837196D1*
X897446Y843338D1*
X902680Y850955D1*
X905940Y859602D1*
X907036Y868777D1*
X905903Y877949D1*
X902609Y886583D1*
X901318Y888444D1*
X927029Y914167D1*
X1462932Y1450071D1*
X1462500Y1446978D1*
X1462702Y1437919D1*
X1464354Y1429011D1*
X1464830Y1427687D1*
X937273Y900129D1*
X933070Y894675D1*
X930193Y887532D1*
X929432Y881182D1*
X1237173Y3206293D2*
D17*
X1293239D1*
X1237173Y3150229D2*
Y3262359D1*
X1462440Y1643700D2*
X1518702D1*
X1462440Y2243700D2*
X1574965D1*
X1518702D2*
Y2299962D1*
X462440Y943700D2*
X574965D1*
D21*
X800953Y3206294D3*
D22*
X910008D3*
X1019063D3*
X1128118D3*
X1237173D3*
X855480Y3318105D3*
X964536D3*
X1073591D3*
X1182646D3*
D23*
X527134Y3262199D3*
X1510992D3*
D24*
X1526036Y2708482D3*
Y2964388D3*
X1348870D3*
Y2708482D3*
D29*
X794196Y1506776D3*
D30*
X1518702Y443700D3*
Y543700D3*
Y643700D3*
Y743700D3*
Y843700D3*
Y943700D3*
Y1043700D3*
Y1143700D3*
Y1243700D3*
Y1343700D3*
Y1443700D3*
Y1543700D3*
Y1643700D3*
Y1743700D3*
Y1843700D3*
Y1943700D3*
Y2043700D3*
Y2143700D3*
Y2243700D3*
X518702D3*
Y2143700D3*
Y2043700D3*
Y1943700D3*
Y1843700D3*
Y1743700D3*
Y1643700D3*
Y1543700D3*
Y1443700D3*
Y1343700D3*
Y1243700D3*
Y1143700D3*
Y1043700D3*
Y943700D3*
Y843700D3*
Y743700D3*
Y643700D3*
Y543700D3*
Y443700D3*
M02*
