G04 DipTrace 5.1.0.3*
G04 BottomSilk.gbr*
%MOIN*%
G04 #@! TF.FileFunction,Legend,Bot*
G04 #@! TF.Part,Single*
%ADD15C,0.007874*%
%ADD18C,0.005906*%
%ADD62C,0.004632*%
%ADD63C,0.009264*%
%FSLAX26Y26*%
G04*
G70*
G90*
G75*
G01*
G04 BotSilk*
%LPD*%
X758763Y1506776D2*
D15*
G02X758763Y1506776I35433J0D01*
G01*
G36*
X932788Y1511968D2*
X1074603D1*
Y1528899D1*
X932788D1*
Y1511968D1*
G37*
G36*
X932314Y962314D2*
Y864864D1*
X948692D1*
Y905025D1*
X1074704D1*
Y922251D1*
X948692D1*
Y962314D1*
X932314D1*
G37*
G36*
Y1050510D2*
Y975306D1*
X948421D1*
Y1033284D1*
X988843D1*
Y975306D1*
X1004373D1*
Y1033579D1*
X1059173D1*
Y975306D1*
X1074704D1*
Y1050510D1*
X932314D1*
G37*
G36*
X1074637Y1204067D2*
X926074D1*
X1040454Y1099924D1*
X932008D1*
Y1083781D1*
X1081486D1*
X967715Y1187924D1*
X1074637D1*
Y1204067D1*
G37*
G36*
X933059Y1579002D2*
Y1561973D1*
X1045812D1*
X1055172Y1562957D1*
X1062021Y1565024D1*
X1067311Y1567878D1*
X1071109Y1571028D1*
X1074466Y1575655D1*
X1076739Y1580970D1*
X1077824Y1587270D1*
X1078536Y1595046D1*
Y1600460D1*
X1077213Y1605678D1*
X1073517Y1613158D1*
X1070024Y1618179D1*
X1064667Y1623100D1*
X1053137Y1611583D1*
X1057206Y1608040D1*
X1059750Y1604693D1*
X1062124Y1599968D1*
X1062971Y1597606D1*
X1063344Y1594751D1*
X1063106Y1590519D1*
X1062530Y1588155D1*
X1061717Y1586384D1*
X1060326Y1584317D1*
X1058020Y1582250D1*
X1055273Y1580675D1*
X1053306Y1579789D1*
X1050899Y1579494D1*
X1048152Y1579100D1*
X1046050Y1578903D1*
X933059Y1579002D1*
G37*
G36*
X932958Y1749292D2*
Y1732066D1*
X1024211D1*
X1032417Y1731574D1*
X1041437Y1729507D1*
X1049034Y1726062D1*
X1053068Y1723011D1*
X1056799Y1718581D1*
X1060190Y1711888D1*
X1062394Y1702339D1*
X1062802Y1694268D1*
X1061717Y1683046D1*
X1059274Y1675073D1*
X1055815Y1669167D1*
X1053068Y1666116D1*
X1047372Y1661981D1*
X1038861Y1658634D1*
X1025500Y1656666D1*
X1012613D1*
X932890D1*
Y1639440D1*
X1021125D1*
X1036554Y1640621D1*
X1048187Y1643476D1*
X1056935Y1647609D1*
X1063853Y1652926D1*
X1069347Y1659323D1*
X1073618Y1667100D1*
X1076806Y1677140D1*
X1078501Y1692003D1*
Y1695843D1*
X1077553Y1708344D1*
X1074669Y1719466D1*
X1070668Y1727735D1*
X1065446Y1734625D1*
X1058326Y1740434D1*
X1049645Y1744961D1*
X1037776Y1748111D1*
X1021227Y1749390D1*
X932958Y1749292D1*
G37*
X983519Y1500649D2*
D18*
Y1390993D1*
X891655Y1422885D2*
X1093117D1*
X968190Y1495726D2*
X1009969D1*
X912374Y1452710D2*
Y1258205D1*
X844994Y1353687D2*
X946285D1*
X894265Y1281731D2*
X1160091D1*
X1123433Y1369043D2*
X1122789Y1185167D1*
G36*
X948794Y1352508D2*
X948477Y1347676D1*
X947533Y1342928D1*
X945977Y1338343D1*
X943835Y1334001D1*
X941145Y1329975D1*
X937953Y1326335D1*
X934313Y1323143D1*
X930287Y1320453D1*
X925945Y1318311D1*
X921360Y1316755D1*
X916612Y1315811D1*
X911780Y1315494D1*
X906949Y1315811D1*
X902200Y1316755D1*
X897616Y1318311D1*
X893273Y1320453D1*
X889248Y1323143D1*
X885608Y1326335D1*
X882415Y1329975D1*
X879725Y1334001D1*
X877584Y1338343D1*
X876028Y1342928D1*
X875083Y1347676D1*
X874767Y1352508D1*
Y1353191D1*
X875083Y1358023D1*
X876028Y1362771D1*
X877584Y1367356D1*
X879725Y1371698D1*
X882415Y1375724D1*
X885608Y1379364D1*
X889248Y1382556D1*
X893273Y1385246D1*
X897616Y1387388D1*
X902200Y1388944D1*
X906949Y1389889D1*
X911780Y1390205D1*
X916612Y1389889D1*
X921360Y1388944D1*
X925945Y1387388D1*
X930287Y1385246D1*
X934313Y1382556D1*
X937953Y1379364D1*
X941145Y1375724D1*
X943835Y1371698D1*
X945977Y1367356D1*
X947533Y1362771D1*
X948477Y1358023D1*
X948794Y1353191D1*
Y1352508D1*
G37*
G36*
X932652Y1774098D2*
Y1849203D1*
X1075517D1*
Y1831878D1*
X1004543D1*
Y1774098D1*
X989046D1*
Y1832371D1*
X948557D1*
Y1774098D1*
X932652D1*
G37*
G36*
X1021396Y1424249D2*
X1021080Y1419420D1*
X1020136Y1414674D1*
X1018580Y1410091D1*
X1016440Y1405751D1*
X1013751Y1401727D1*
X1010560Y1398089D1*
X1006922Y1394898D1*
X1002898Y1392209D1*
X998558Y1390069D1*
X993975Y1388513D1*
X989229Y1387569D1*
X984400Y1387252D1*
X979571Y1387569D1*
X974824Y1388513D1*
X970242Y1390069D1*
X965901Y1392209D1*
X961878Y1394898D1*
X958239Y1398089D1*
X955048Y1401727D1*
X952360Y1405751D1*
X950219Y1410091D1*
X948664Y1414674D1*
X947720Y1419420D1*
X947403Y1424249D1*
Y1424967D1*
X947720Y1429796D1*
X948664Y1434543D1*
X950219Y1439125D1*
X952360Y1443465D1*
X955048Y1447489D1*
X958239Y1451128D1*
X961878Y1454319D1*
X965901Y1457007D1*
X970242Y1459148D1*
X974824Y1460703D1*
X979571Y1461647D1*
X984400Y1461964D1*
X989229Y1461647D1*
X993975Y1460703D1*
X998558Y1459148D1*
X1002898Y1457007D1*
X1006922Y1454319D1*
X1010560Y1451128D1*
X1013751Y1447489D1*
X1016440Y1443465D1*
X1018580Y1439125D1*
X1020136Y1434543D1*
X1021080Y1429796D1*
X1021396Y1424967D1*
Y1424249D1*
G37*
G36*
Y1282110D2*
X1021080Y1277281D1*
X1020136Y1272535D1*
X1018580Y1267952D1*
X1016440Y1263612D1*
X1013751Y1259588D1*
X1010560Y1255949D1*
X1006922Y1252759D1*
X1002898Y1250070D1*
X998558Y1247930D1*
X993975Y1246374D1*
X989229Y1245430D1*
X984400Y1245113D1*
X979571Y1245430D1*
X974824Y1246374D1*
X970242Y1247930D1*
X965901Y1250070D1*
X961878Y1252759D1*
X958239Y1255949D1*
X955048Y1259588D1*
X952360Y1263612D1*
X950219Y1267952D1*
X948664Y1272535D1*
X947720Y1277281D1*
X947403Y1282110D1*
Y1282829D1*
X947720Y1287658D1*
X948664Y1292405D1*
X950219Y1296987D1*
X952360Y1301328D1*
X955048Y1305351D1*
X958239Y1308990D1*
X961878Y1312181D1*
X965901Y1314869D1*
X970242Y1317010D1*
X974824Y1318565D1*
X979571Y1319509D1*
X984400Y1319826D1*
X989229Y1319509D1*
X993975Y1318565D1*
X998558Y1317010D1*
X1002898Y1314869D1*
X1006922Y1312181D1*
X1010560Y1308990D1*
X1013751Y1305351D1*
X1016440Y1301328D1*
X1018580Y1296987D1*
X1020136Y1292405D1*
X1021080Y1287658D1*
X1021396Y1282829D1*
Y1282110D1*
G37*
G36*
X1093185Y1282093D2*
X1092869Y1277266D1*
X1091925Y1272522D1*
X1090370Y1267942D1*
X1088231Y1263603D1*
X1085543Y1259581D1*
X1082354Y1255944D1*
X1078717Y1252755D1*
X1074695Y1250068D1*
X1070357Y1247928D1*
X1065777Y1246373D1*
X1061032Y1245430D1*
X1056206Y1245113D1*
X1051379Y1245430D1*
X1046634Y1246373D1*
X1042054Y1247928D1*
X1037716Y1250068D1*
X1033694Y1252755D1*
X1030057Y1255944D1*
X1026868Y1259581D1*
X1024180Y1263603D1*
X1022041Y1267942D1*
X1020486Y1272522D1*
X1019542Y1277266D1*
X1019226Y1282093D1*
Y1282846D1*
X1019542Y1287673D1*
X1020486Y1292417D1*
X1022041Y1296998D1*
X1024180Y1301336D1*
X1026868Y1305358D1*
X1030057Y1308995D1*
X1033694Y1312184D1*
X1037716Y1314872D1*
X1042054Y1317011D1*
X1046634Y1318566D1*
X1051379Y1319510D1*
X1056206Y1319826D1*
X1061032Y1319510D1*
X1065777Y1318566D1*
X1070357Y1317011D1*
X1074695Y1314872D1*
X1078717Y1312184D1*
X1082354Y1308995D1*
X1085543Y1305358D1*
X1088231Y1301336D1*
X1090370Y1296998D1*
X1091925Y1292417D1*
X1092869Y1287673D1*
X1093185Y1282846D1*
Y1282093D1*
G37*
X982133Y1319628D2*
D18*
X983243D1*
G03X983243Y1389221I0J34797D01*
G01*
X982133D1*
G03X982133Y1319628I0J-34797D01*
G01*
X1083487Y1209776D2*
X1154767D1*
X1053509Y1442966D2*
Y1225132D1*
X983553Y1233106D2*
Y1311754D1*
X1019532Y1353687D2*
X1136794Y1353096D1*
G36*
X1105557Y2482234D2*
X1088393Y2475169D1*
X1086167Y2476224D1*
X1056605Y2548760D1*
X1057104Y2550642D1*
X1063280Y2553854D1*
X1068865Y2557983D1*
X1074042Y2562800D1*
X1079083Y2569361D1*
X1082080Y2575830D1*
X1084759Y2583493D1*
X1086030Y2590512D1*
X1086303Y2598817D1*
X1085168Y2606249D1*
X1083760Y2611342D1*
X1080853Y2617994D1*
X1076903Y2624280D1*
X1072045Y2629969D1*
X1066096Y2635016D1*
X1059874Y2638687D1*
X1052473Y2641852D1*
X1044935Y2643641D1*
X1037851Y2644238D1*
X1032400Y2643825D1*
X1024635Y2642402D1*
X1017324Y2639742D1*
X1011012Y2636117D1*
X1005336Y2631941D1*
X999614Y2625886D1*
X995618Y2620060D1*
X991986Y2612627D1*
X990033Y2605699D1*
X989306Y2600376D1*
X989034Y2592990D1*
X989806Y2585787D1*
X991895Y2578262D1*
X995345Y2570646D1*
X999705Y2564682D1*
X1004474Y2559543D1*
X1010604Y2554863D1*
X1017597Y2550918D1*
X1018505Y2549633D1*
X1018323Y2548027D1*
X988807Y2475857D1*
X986627Y2475123D1*
X969280Y2482280D1*
X932407Y2457642D1*
X931453D1*
X899938Y2488888D1*
X899848Y2490218D1*
X924687Y2526876D1*
X909339Y2563993D1*
X865017Y2572619D1*
X865109Y2618224D1*
X909566Y2626804D1*
X924732Y2663461D1*
X899302Y2701267D1*
X931816Y2733522D1*
X969099Y2708378D1*
X1006063Y2723427D1*
X1014690Y2767793D1*
X1060374Y2767885D1*
X1069184Y2723473D1*
X1105920Y2708287D1*
X1143339Y2733430D1*
X1175717Y2701267D1*
X1150559Y2663875D1*
X1165726Y2626896D1*
X1210138Y2618270D1*
Y2572527D1*
X1165726Y2563764D1*
X1150650Y2527519D1*
X1175626Y2489805D1*
X1143429Y2457184D1*
X1106511Y2482188D1*
X1105557Y2482234D1*
G37*
G36*
X1303333Y3563407D2*
X1297428Y3562226D1*
X1293885Y3561045D1*
X1289160Y3558683D1*
X1285617Y3556321D1*
X1280893Y3551596D1*
X1277349Y3544510D1*
X1276168Y3540966D1*
Y3536242D1*
X1286798D1*
X1289160Y3543329D1*
Y3544510D1*
X1295066Y3550415D1*
X1297428Y3551596D1*
X1302152Y3552777D1*
X1307664Y3553959D1*
X1313176D1*
X1318688Y3552777D1*
X1323412Y3551596D1*
X1325774Y3550415D1*
X1331680Y3544510D1*
Y3540966D1*
X1332573Y3539378D1*
X1332455Y3538314D1*
X1331680Y3537423D1*
X1330499Y3533880D1*
Y3532699D1*
X1328137Y3530336D1*
X1323412Y3527974D1*
X1316326Y3525612D1*
X1297428Y3520888D1*
X1290341Y3518525D1*
X1285617Y3516163D1*
X1282074Y3513801D1*
X1277349Y3509077D1*
X1274987Y3505533D1*
X1273806Y3501990D1*
Y3487817D1*
X1277349Y3480730D1*
X1284436Y3473644D1*
X1291522Y3470100D1*
X1295066Y3468919D1*
X1300971Y3467738D1*
X1315145D1*
X1321050Y3468919D1*
X1325774Y3470100D1*
X1332861Y3473644D1*
X1341129Y3481911D1*
X1343491Y3485455D1*
X1344672Y3488998D1*
X1345853Y3491360D1*
X1347034Y3498447D1*
Y3499628D1*
X1336404D1*
X1335223Y3497266D1*
X1334042Y3492541D1*
X1332861Y3490179D1*
X1330499Y3486636D1*
X1325774Y3481911D1*
X1323412Y3480730D1*
X1319869Y3479549D1*
X1315145Y3478368D1*
X1310026Y3477187D1*
X1304908D1*
X1299790Y3478368D1*
X1292704Y3480730D1*
X1290341Y3481911D1*
X1285617Y3486636D1*
Y3487817D1*
X1284436Y3488998D1*
Y3498447D1*
X1285617Y3499628D1*
Y3500809D1*
X1289160Y3504352D1*
X1296247Y3507896D1*
X1315145Y3512620D1*
X1329318Y3517344D1*
X1336404Y3522069D1*
X1338767Y3524431D1*
X1341129Y3527974D1*
X1342310Y3531518D1*
X1343491Y3536242D1*
Y3539785D1*
X1342310Y3545691D1*
X1339948Y3550415D1*
X1337585Y3553959D1*
X1336404Y3555140D1*
X1331680Y3558683D1*
X1329318Y3559864D1*
X1323412Y3562226D1*
X1317507Y3563407D1*
X1303333D1*
G37*
G36*
X571050Y3551596D2*
X570662Y3550163D1*
X569869Y3549234D1*
X566326Y3542148D1*
X565145Y3538604D1*
X563963Y3532699D1*
X562782Y3523250D1*
Y3507896D1*
X563963Y3497266D1*
X565145Y3491360D1*
X566326Y3487817D1*
X571050Y3478368D1*
X578137Y3471281D1*
X582861Y3468919D1*
X587585Y3467738D1*
X598215D1*
X602940Y3468919D1*
X607664Y3471281D1*
X611208Y3473644D1*
X613570Y3476006D1*
X615932Y3479549D1*
X619475Y3486636D1*
X620656Y3490179D1*
X621837Y3494903D1*
X623019Y3503171D1*
Y3526793D1*
X621837Y3535061D1*
X620656Y3539785D1*
X619475Y3543329D1*
X615932Y3550415D1*
X607664Y3558683D1*
X602940Y3561045D1*
X598215Y3562226D1*
X587585D1*
X580499Y3559864D1*
X576956Y3557502D1*
X571050Y3551596D1*
X587585D1*
X591129Y3552777D1*
X594672D1*
X601759Y3550415D1*
X607664Y3544510D1*
Y3543329D1*
X610026Y3536242D1*
X611208Y3529155D1*
X612389Y3527974D1*
Y3501990D1*
X611208Y3500809D1*
X610026Y3493722D1*
X608845Y3488998D1*
X607664Y3486636D1*
Y3485455D1*
X602940Y3480730D1*
X598215Y3478368D1*
X594672Y3477187D1*
X591129D1*
X587585Y3478368D1*
X585223Y3479549D1*
X584042Y3480730D1*
X581680Y3481911D1*
X579318Y3484273D1*
Y3485455D1*
X576956Y3490179D1*
X575774Y3494903D1*
X574593Y3504352D1*
X573412Y3505533D1*
Y3524431D1*
X574593Y3525612D1*
X575774Y3535061D1*
X576956Y3539785D1*
X579318Y3544510D1*
Y3545691D1*
X582861Y3549234D1*
X587585Y3551596D1*
X571050D1*
G37*
G36*
X644278D2*
X643890Y3550163D1*
X643097Y3549234D1*
X639554Y3542148D1*
X638373Y3538604D1*
X637192Y3532699D1*
X636011Y3523250D1*
Y3507896D1*
X637192Y3497266D1*
X638373Y3491360D1*
X639554Y3487817D1*
X644278Y3478368D1*
X651365Y3471281D1*
X656089Y3468919D1*
X660814Y3467738D1*
X671444D1*
X676168Y3468919D1*
X680893Y3471281D1*
X684436Y3473644D1*
X686798Y3476006D1*
X689160Y3479549D1*
X692704Y3486636D1*
X693885Y3490179D1*
X695066Y3494903D1*
X696247Y3503171D1*
Y3526793D1*
X695066Y3535061D1*
X693885Y3539785D1*
X692704Y3543329D1*
X689160Y3550415D1*
X680893Y3558683D1*
X676168Y3561045D1*
X671444Y3562226D1*
X660814D1*
X653727Y3559864D1*
X650184Y3557502D1*
X644278Y3551596D1*
X660814D1*
X664357Y3552777D1*
X667900D1*
X674987Y3550415D1*
X680893Y3544510D1*
Y3543329D1*
X683255Y3536242D1*
X684436Y3529155D1*
X685617Y3527974D1*
Y3501990D1*
X684436Y3500809D1*
X683255Y3493722D1*
X682074Y3488998D1*
X680893Y3486636D1*
Y3485455D1*
X676168Y3480730D1*
X671444Y3478368D1*
X667900Y3477187D1*
X664357D1*
X660814Y3478368D1*
X658452Y3479549D1*
X657271Y3480730D1*
X654908Y3481911D1*
X652546Y3484273D1*
Y3485455D1*
X650184Y3490179D1*
X649003Y3494903D1*
X647822Y3504352D1*
X646641Y3505533D1*
Y3524431D1*
X647822Y3525612D1*
X649003Y3535061D1*
X650184Y3539785D1*
X652546Y3544510D1*
Y3545691D1*
X656089Y3549234D1*
X660814Y3551596D1*
X644278D1*
G37*
G36*
X717507D2*
X717118Y3550163D1*
X716326Y3549234D1*
X712782Y3542148D1*
X711601Y3538604D1*
X710420Y3532699D1*
X709239Y3523250D1*
Y3507896D1*
X710420Y3497266D1*
X711601Y3491360D1*
X712782Y3487817D1*
X717507Y3478368D1*
X724593Y3471281D1*
X729318Y3468919D1*
X734042Y3467738D1*
X744672D1*
X749396Y3468919D1*
X754121Y3471281D1*
X757664Y3473644D1*
X760026Y3476006D1*
X762389Y3479549D1*
X765932Y3486636D1*
X767113Y3490179D1*
X768294Y3494903D1*
X769475Y3503171D1*
Y3526793D1*
X768294Y3535061D1*
X767113Y3539785D1*
X765932Y3543329D1*
X762389Y3550415D1*
X754121Y3558683D1*
X749396Y3561045D1*
X744672Y3562226D1*
X734042D1*
X726956Y3559864D1*
X723412Y3557502D1*
X717507Y3551596D1*
X734042D1*
X737585Y3552777D1*
X741129D1*
X748215Y3550415D1*
X754121Y3544510D1*
Y3543329D1*
X756483Y3536242D1*
X757664Y3529155D1*
X758845Y3527974D1*
Y3501990D1*
X757664Y3500809D1*
X756483Y3493722D1*
X755302Y3488998D1*
X754121Y3486636D1*
Y3485455D1*
X749396Y3480730D1*
X744672Y3478368D1*
X741129Y3477187D1*
X737585D1*
X734042Y3478368D1*
X731680Y3479549D1*
X730499Y3480730D1*
X728137Y3481911D1*
X725774Y3484273D1*
Y3485455D1*
X723412Y3490179D1*
X722231Y3494903D1*
X721050Y3504352D1*
X719869Y3505533D1*
Y3524431D1*
X721050Y3525612D1*
X722231Y3535061D1*
X723412Y3539785D1*
X725774Y3544510D1*
Y3545691D1*
X729318Y3549234D1*
X734042Y3551596D1*
X717507D1*
G37*
G36*
X928924D2*
X927743Y3550415D1*
X926562Y3548053D1*
X925381Y3544510D1*
X924200Y3537423D1*
X925381Y3530336D1*
X926562Y3526793D1*
X927743Y3524431D1*
X934830Y3517344D1*
X939554Y3514982D1*
X943097Y3513801D1*
X947822Y3512620D1*
X950184Y3511439D1*
X947822Y3510258D1*
X944278Y3507896D1*
X938373Y3501990D1*
X934830Y3497266D1*
X932467Y3493722D1*
X931286Y3491360D1*
X926562Y3484273D1*
X925381Y3481911D1*
X920656Y3474825D1*
X919475Y3472462D1*
X917113Y3468919D1*
X931286D1*
X933648Y3471281D1*
X936011Y3474825D1*
X937192Y3477187D1*
X939554Y3480730D1*
X940735Y3483092D1*
X950184Y3497266D1*
X953727Y3501990D1*
Y3503171D1*
X957271Y3506714D1*
X959633Y3507896D1*
X960814Y3509077D1*
X964357Y3510258D1*
X971837Y3511439D1*
X979318D1*
X986798Y3510258D1*
Y3468919D1*
X998609D1*
Y3562226D1*
X947822D1*
X941916Y3561045D1*
X938373Y3559864D1*
X933648Y3557502D1*
X930105Y3553959D1*
X928924Y3551596D1*
X949003D1*
X961601Y3552777D1*
X974200D1*
X986798Y3551596D1*
Y3522069D1*
X974593Y3520888D1*
X962389D1*
X950184Y3522069D1*
X945459Y3523250D1*
X943097Y3524431D1*
X938373Y3529155D1*
Y3530336D1*
X937192Y3533880D1*
X936011Y3535061D1*
Y3539785D1*
X937192Y3540966D1*
X939554Y3545691D1*
X939784Y3546528D1*
X940735Y3548053D1*
X945459Y3550415D1*
X949003Y3551596D1*
X928924D1*
G37*
G36*
X1076562Y3562226D2*
X1071837Y3561045D1*
X1068294Y3559864D1*
X1065932Y3558683D1*
X1057664Y3550415D1*
X1055302Y3545691D1*
X1054121Y3542148D1*
Y3531518D1*
X1056483Y3524431D1*
X1057664Y3522069D1*
X1060026Y3518525D1*
X1077743Y3500809D1*
X1084830Y3494903D1*
X1087192Y3493722D1*
X1099003Y3481911D1*
Y3480730D1*
X1054121Y3479549D1*
Y3468919D1*
X1114357D1*
Y3474825D1*
X1113176Y3477187D1*
X1111995Y3480730D1*
X1107271Y3487817D1*
X1093097Y3501990D1*
X1086011Y3507896D1*
X1083648Y3509077D1*
X1069475Y3523250D1*
Y3524431D1*
X1067113Y3527974D1*
X1065932Y3531518D1*
X1064751Y3532699D1*
Y3540966D1*
X1065932Y3542148D1*
X1068294Y3545691D1*
X1068524Y3546528D1*
X1069475Y3548053D1*
X1076562Y3551596D1*
X1080893Y3552777D1*
X1085223D1*
X1089554Y3551596D1*
X1093097Y3550415D1*
X1095459Y3549234D1*
X1100184Y3544510D1*
Y3543329D1*
X1101365Y3536242D1*
X1106089D1*
X1111995Y3537423D1*
Y3542148D1*
X1110814Y3545691D1*
X1108452Y3550415D1*
X1106089Y3553959D1*
X1104908Y3555140D1*
X1100184Y3558683D1*
X1097822Y3559864D1*
X1094278Y3561045D1*
X1089554Y3562226D1*
X1076562D1*
G37*
G36*
X1152152D2*
X1147428Y3561045D1*
X1140341Y3557502D1*
X1134436Y3551596D1*
X1132074Y3546872D1*
X1130893Y3543329D1*
Y3533880D1*
X1134436Y3526793D1*
X1137979Y3523250D1*
X1140341Y3522069D1*
X1142704Y3519707D1*
X1139160Y3518525D1*
X1136798Y3517344D1*
X1133255Y3514982D1*
X1130893Y3512620D1*
X1128530Y3509077D1*
X1126168Y3501990D1*
Y3491360D1*
X1128530Y3484273D1*
X1129711Y3481911D1*
X1133255Y3477187D1*
X1134436Y3476006D1*
X1139160Y3472462D1*
X1146247Y3468919D1*
X1150971Y3467738D1*
X1162782D1*
X1167507Y3468919D1*
X1171050Y3470100D1*
X1174593Y3472462D1*
X1179318Y3476006D1*
X1182861Y3480730D1*
X1185223Y3485455D1*
X1186404Y3490179D1*
Y3492541D1*
X1180499Y3493722D1*
X1175774D1*
X1174593Y3490179D1*
X1172231Y3485455D1*
Y3484273D1*
X1169869Y3481911D1*
X1167507Y3480730D1*
X1166326Y3479549D1*
X1162782Y3478368D1*
X1158845Y3477187D1*
X1154908D1*
X1150971Y3478368D1*
X1147428Y3479549D1*
X1146247Y3480730D1*
X1143885Y3481911D1*
X1140341Y3485455D1*
Y3486636D1*
X1139160Y3488998D1*
X1137979Y3492541D1*
X1136798Y3493722D1*
Y3499628D1*
X1137979Y3500809D1*
X1139160Y3504352D1*
X1140341Y3506714D1*
Y3507896D1*
X1142704Y3510258D1*
X1145066Y3511439D1*
X1146247Y3512620D1*
X1149790Y3513801D1*
X1154121Y3514982D1*
X1158452D1*
X1162782Y3513801D1*
X1163963D1*
Y3514982D1*
X1162782Y3523250D1*
X1154515Y3524431D1*
X1150971Y3525612D1*
X1146247Y3527974D1*
X1142704Y3531518D1*
Y3532699D1*
X1141522Y3533880D1*
Y3542148D1*
X1142704Y3543329D1*
X1143885Y3545691D1*
X1144114Y3546528D1*
X1145066Y3548053D1*
X1147428Y3549234D1*
X1148609Y3550415D1*
X1155696Y3552777D1*
X1159239D1*
X1166326Y3550415D1*
X1167507Y3549234D1*
X1169869Y3548053D1*
X1170820Y3546528D1*
X1171050Y3545691D1*
X1173412Y3540966D1*
X1174593Y3537423D1*
X1179318D1*
X1185223Y3538604D1*
Y3539785D1*
X1184042Y3544510D1*
X1181680Y3549234D1*
X1179318Y3552777D1*
X1174593Y3557502D1*
X1167507Y3561045D1*
X1162782Y3562226D1*
X1152152D1*
G37*
G36*
X1223019D2*
X1218294Y3561045D1*
X1214751Y3559864D1*
X1212389Y3558683D1*
X1204121Y3550415D1*
X1201759Y3545691D1*
X1200578Y3542148D1*
Y3531518D1*
X1202940Y3524431D1*
X1204121Y3522069D1*
X1206483Y3518525D1*
X1224200Y3500809D1*
X1231286Y3494903D1*
X1233648Y3493722D1*
X1245459Y3481911D1*
Y3480730D1*
X1200578Y3479549D1*
Y3468919D1*
X1260814D1*
Y3474825D1*
X1259633Y3477187D1*
X1258452Y3480730D1*
X1253727Y3487817D1*
X1239554Y3501990D1*
X1232467Y3507896D1*
X1230105Y3509077D1*
X1215932Y3523250D1*
Y3524431D1*
X1213570Y3527974D1*
X1212389Y3531518D1*
X1211208Y3532699D1*
Y3540966D1*
X1212389Y3542148D1*
X1214751Y3545691D1*
X1214980Y3546528D1*
X1215932Y3548053D1*
X1223019Y3551596D1*
X1227349Y3552777D1*
X1231680D1*
X1236011Y3551596D1*
X1239554Y3550415D1*
X1241916Y3549234D1*
X1246641Y3544510D1*
Y3543329D1*
X1247822Y3536242D1*
X1252546D1*
X1258452Y3537423D1*
Y3542148D1*
X1257271Y3545691D1*
X1254908Y3550415D1*
X1252546Y3553959D1*
X1251365Y3555140D1*
X1246641Y3558683D1*
X1244278Y3559864D1*
X1240735Y3561045D1*
X1236011Y3562226D1*
X1223019D1*
G37*
G36*
X1367113Y3551596D2*
X1365932Y3550415D1*
X1364751Y3548053D1*
X1363570Y3544510D1*
X1362389Y3537423D1*
X1363570Y3530336D1*
X1364751Y3526793D1*
X1365932Y3524431D1*
X1373019Y3517344D1*
X1377743Y3514982D1*
X1381286Y3513801D1*
X1386011Y3512620D1*
X1388373Y3511439D1*
X1386011Y3510258D1*
X1382467Y3507896D1*
X1376562Y3501990D1*
X1373019Y3497266D1*
X1370656Y3493722D1*
X1369475Y3491360D1*
X1364751Y3484273D1*
X1363570Y3481911D1*
X1358845Y3474825D1*
X1357664Y3472462D1*
X1355302Y3468919D1*
X1369475D1*
X1371837Y3471281D1*
X1374200Y3474825D1*
X1375381Y3477187D1*
X1377743Y3480730D1*
X1378924Y3483092D1*
X1388373Y3497266D1*
X1391916Y3501990D1*
Y3503171D1*
X1395459Y3506714D1*
X1397822Y3507896D1*
X1399003Y3509077D1*
X1402546Y3510258D1*
X1410026Y3511439D1*
X1417507D1*
X1424987Y3510258D1*
Y3468919D1*
X1436798D1*
Y3562226D1*
X1386011D1*
X1380105Y3561045D1*
X1376562Y3559864D1*
X1371837Y3557502D1*
X1368294Y3553959D1*
X1367113Y3551596D1*
X1387192D1*
X1399790Y3552777D1*
X1412389D1*
X1424987Y3551596D1*
Y3522069D1*
X1412782Y3520888D1*
X1400578D1*
X1388373Y3522069D1*
X1383648Y3523250D1*
X1381286Y3524431D1*
X1376562Y3529155D1*
Y3530336D1*
X1375381Y3533880D1*
X1374200Y3535061D1*
Y3539785D1*
X1375381Y3540966D1*
X1377743Y3545691D1*
X1377973Y3546528D1*
X1378924Y3548053D1*
X1383648Y3550415D1*
X1387192Y3551596D1*
X1367113D1*
G37*
G36*
X854515Y3526793D2*
Y3525612D1*
X852152Y3523250D1*
X850971Y3520888D1*
X849790Y3517344D1*
X848609Y3512620D1*
Y3500809D1*
X898215Y3498447D1*
Y3492541D1*
X897034Y3491360D1*
X894672Y3486636D1*
Y3485455D1*
X891129Y3481911D1*
X884042Y3478368D1*
X879711Y3477187D1*
X875381D1*
X871050Y3478368D1*
X863963Y3481911D1*
X862563Y3483239D1*
X862782Y3484273D1*
X860420Y3487817D1*
X859239Y3488998D1*
X854515D1*
X848609Y3487817D1*
Y3486636D1*
X852152Y3479549D1*
X859239Y3472462D1*
X866326Y3468919D1*
X871050Y3467738D1*
X884042D1*
X888767Y3468919D1*
X892310Y3470100D1*
X894672Y3471281D1*
X898215Y3473644D1*
X902940Y3478368D1*
X905302Y3481911D1*
X906483Y3484273D1*
X908845Y3491360D1*
X910026Y3500809D1*
Y3503171D1*
X908845Y3512620D1*
X907664Y3517344D1*
X904121Y3524431D1*
X901759Y3527974D1*
X899396Y3530336D1*
X895853Y3532699D1*
X888767Y3536242D1*
X884042Y3537423D1*
X872231D1*
X865145Y3535061D1*
X862782Y3533880D1*
X859239Y3531518D1*
X854515Y3526793D1*
X872231D1*
X876168Y3527974D1*
X880105D1*
X884042Y3526793D1*
X887585Y3525612D1*
X892310Y3523250D1*
X894672Y3520888D1*
Y3519707D1*
X897034Y3514982D1*
X898215Y3513801D1*
Y3511439D1*
X885223Y3510258D1*
X872231D1*
X859239Y3511439D1*
Y3514982D1*
X860420Y3516163D1*
X861601Y3518525D1*
Y3519707D1*
X866326Y3524431D1*
X868688Y3525612D1*
X872231Y3526793D1*
X854515D1*
G37*
G36*
X778924Y3536242D2*
Y3533880D1*
X780105Y3531518D1*
X782467Y3524431D1*
X783648Y3522069D1*
X786011Y3514982D1*
X787192Y3512620D1*
X789554Y3505533D1*
X790735Y3503171D1*
X793097Y3496085D1*
X794278Y3493722D1*
X796641Y3486636D1*
X797822Y3484273D1*
X800184Y3477187D1*
X801365Y3474825D1*
X802546Y3471281D1*
X803727Y3468919D1*
X813176D1*
X814357Y3470100D1*
X815538Y3472462D1*
X816719Y3476006D1*
X817900Y3478368D1*
X820263Y3485455D1*
X821444Y3487817D1*
X823806Y3494903D1*
X824987Y3497266D1*
X827349Y3504352D1*
X828530Y3506714D1*
X830893Y3513801D1*
X832074Y3516163D1*
X834436Y3523250D1*
X835617Y3525612D1*
X836798Y3529155D1*
X837979Y3531518D1*
X839160Y3535061D1*
Y3536242D1*
X828530D1*
X827349Y3535061D1*
X821444Y3517344D1*
X820263Y3514982D1*
X815538Y3500809D1*
X814357Y3498447D1*
X810814Y3487817D1*
Y3484273D1*
X809374Y3483041D1*
X808008Y3483194D1*
X807271Y3484273D1*
Y3486636D1*
X803727Y3497266D1*
X802546Y3499628D1*
X797822Y3513801D1*
X796641Y3516163D1*
X793097Y3526793D1*
X791916Y3529155D1*
X789554Y3536242D1*
X778924D1*
G37*
G36*
X1146116Y1165245D2*
Y1156058D1*
X1154383D1*
Y1165245D1*
X1146116D1*
G37*
G36*
X1105696Y1133092D2*
X1103858Y1131255D1*
X1102021Y1127581D1*
X1101103Y1123906D1*
Y1111964D1*
X1102021Y1109208D1*
X1104777Y1103696D1*
X1110289Y1098184D1*
X1115801Y1095428D1*
X1118557Y1094510D1*
X1125906Y1093591D1*
X1129580D1*
X1136929Y1094510D1*
X1142441Y1096347D1*
X1147953Y1100022D1*
X1151627Y1104615D1*
X1153465Y1108289D1*
X1154383Y1111045D1*
X1155302Y1116557D1*
Y1120231D1*
X1154383Y1125743D1*
X1153465Y1128499D1*
X1152546Y1130336D1*
X1150709Y1133092D1*
X1145197Y1138604D1*
X1141522Y1140441D1*
X1138767Y1141360D1*
X1135092Y1142279D1*
X1120394D1*
X1116719Y1141360D1*
X1112126Y1139523D1*
X1109370Y1137686D1*
X1105696Y1134011D1*
Y1133092D1*
X1120394D1*
X1125293Y1134011D1*
X1130193D1*
X1135092Y1133092D1*
X1138767Y1132174D1*
X1140604Y1131255D1*
X1146116Y1125743D1*
Y1124825D1*
X1147034Y1121150D1*
X1147953Y1120231D1*
Y1116557D1*
X1147034Y1115638D1*
X1146116Y1111964D1*
X1145197Y1110127D1*
Y1109208D1*
X1142441Y1106452D1*
X1136929Y1103696D1*
X1131417Y1102777D1*
X1128968Y1101859D1*
X1126518D1*
X1124068Y1102777D1*
X1119475Y1103696D1*
X1116719Y1104615D1*
X1114882Y1105533D1*
X1110289Y1110127D1*
Y1111045D1*
X1109370Y1112882D1*
X1108452Y1113801D1*
Y1122987D1*
X1109370Y1123906D1*
X1110289Y1125743D1*
Y1126662D1*
X1113963Y1130336D1*
X1117638Y1132174D1*
X1120394Y1133092D1*
X1105696D1*
G37*
G36*
X1102021Y1082567D2*
Y1075218D1*
X1108452Y1074300D1*
X1103858Y1069707D1*
X1102021Y1066032D1*
X1101103Y1063276D1*
Y1052252D1*
X1102021Y1049497D1*
X1102940Y1047659D1*
X1104777Y1044903D1*
X1105696Y1043985D1*
X1108452Y1042148D1*
X1110289Y1041229D1*
X1113963Y1040310D1*
X1154383D1*
Y1047659D1*
X1153465Y1048578D1*
X1114882Y1049497D1*
X1111208Y1051334D1*
X1110118Y1052367D1*
X1110289Y1053171D1*
X1109370Y1055008D1*
X1108452Y1055927D1*
Y1064195D1*
X1109370Y1065113D1*
X1110289Y1066951D1*
Y1067869D1*
X1113963Y1071544D1*
X1115801Y1072462D1*
X1119475Y1073381D1*
X1154383Y1074300D1*
Y1081649D1*
X1153465Y1082567D1*
X1102021D1*
G37*
G36*
X1081811Y1025612D2*
Y1017344D1*
X1154383D1*
Y1025612D1*
X1081811D1*
G37*
G36*
Y1002646D2*
Y994378D1*
X1090079D1*
Y1001728D1*
X1089160Y1002646D1*
X1081811D1*
G37*
G36*
X1102021D2*
Y994378D1*
X1154383D1*
Y1001728D1*
X1153465Y1002646D1*
X1102021D1*
G37*
G36*
Y979680D2*
Y972331D1*
X1108452Y971413D1*
X1103858Y966819D1*
X1102021Y963145D1*
X1101103Y960389D1*
Y949365D1*
X1102021Y946609D1*
X1102940Y944772D1*
X1104777Y942016D1*
X1105696Y941098D1*
X1108452Y939260D1*
X1110289Y938342D1*
X1113963Y937423D1*
X1154383D1*
Y944772D1*
X1153465Y945691D1*
X1114882Y946609D1*
X1111208Y948447D1*
X1110118Y949479D1*
X1110289Y950284D1*
X1109370Y952121D1*
X1108452Y953040D1*
Y961308D1*
X1109370Y962226D1*
X1110289Y964064D1*
Y964982D1*
X1113963Y968657D1*
X1115801Y969575D1*
X1119475Y970494D1*
X1154383Y971413D1*
Y978762D1*
X1153465Y979680D1*
X1102021D1*
G37*
G36*
X1104777Y915376D2*
X1104475Y914261D1*
X1103858Y913539D1*
X1102021Y909864D1*
X1101103Y907108D1*
Y895166D1*
X1102021Y892410D1*
X1103858Y888735D1*
X1105696Y885980D1*
X1109370Y882305D1*
X1114882Y879549D1*
X1117638Y878630D1*
X1121312Y877712D1*
X1129580D1*
Y916294D1*
X1130805Y917213D1*
X1132030D1*
X1133255Y916294D1*
X1136929Y915376D1*
X1139685Y914457D1*
X1140604Y913539D1*
X1142441Y912620D1*
X1145197Y909864D1*
Y908945D1*
X1146116Y907108D1*
X1147034Y903434D1*
X1147953Y902515D1*
Y897922D1*
X1147034Y897003D1*
X1146116Y894247D1*
X1145197Y892410D1*
Y891491D1*
X1142441Y888735D1*
X1138767Y886898D1*
Y879549D1*
X1139685Y878630D1*
X1141522D1*
X1145197Y880468D1*
X1147953Y882305D1*
X1149790Y884142D1*
X1151627Y886898D1*
X1153465Y890573D1*
X1154383Y893329D1*
X1155302Y897922D1*
Y902515D1*
X1154383Y908027D1*
X1153465Y910783D1*
X1150709Y916294D1*
X1147034Y919969D1*
X1144278Y921806D1*
X1140604Y923644D1*
X1137848Y924562D1*
X1133255Y925481D1*
X1123150D1*
X1118557Y924562D1*
X1115801Y923644D1*
X1110289Y920888D1*
X1104777Y915376D1*
X1117638D1*
X1119169Y916294D1*
X1120700D1*
X1122231Y915376D1*
Y886898D1*
X1121006Y885980D1*
X1119781D1*
X1118557Y886898D1*
X1115801Y887817D1*
X1113963Y888735D1*
X1110289Y892410D1*
Y893329D1*
X1109370Y895166D1*
X1108452Y896085D1*
Y906190D1*
X1109370Y907108D1*
X1110289Y908945D1*
Y909864D1*
X1114882Y914457D1*
X1117638Y915376D1*
X1104777D1*
G37*
G36*
X1105958Y2434798D2*
X1103990Y2434142D1*
X1100053Y2432174D1*
X1098740Y2430861D1*
X1097428Y2428237D1*
X1096772Y2426268D1*
Y2396741D1*
X1102021D1*
X1102677Y2422331D1*
X1103990Y2426268D1*
X1104117Y2426733D1*
X1104646Y2427581D1*
X1107271Y2428893D1*
X1109239Y2429549D1*
X1111208D1*
X1115145Y2428237D1*
X1117769Y2426924D1*
X1119082Y2425612D1*
Y2424956D1*
X1119738Y2422987D1*
X1120394Y2419707D1*
X1121050Y2396741D1*
X1126299D1*
Y2434142D1*
X1121706D1*
Y2429549D1*
X1121010Y2428836D1*
X1120671Y2428943D1*
X1120394Y2429549D1*
X1117113Y2432830D1*
X1114488Y2434142D1*
X1111864Y2434798D1*
X1105958D1*
G37*
G36*
X1138767Y2428893D2*
Y2428237D1*
X1137454Y2426924D1*
X1136798Y2425612D1*
X1136142Y2423644D1*
X1135486Y2421019D1*
Y2414457D1*
X1163045Y2413145D1*
Y2409864D1*
X1162389Y2409208D1*
X1161076Y2406583D1*
Y2405927D1*
X1159108Y2403959D1*
X1155171Y2401990D1*
X1152765Y2401334D1*
X1150359D1*
X1147953Y2401990D1*
X1144016Y2403959D1*
X1143238Y2404696D1*
X1143360Y2405271D1*
X1142047Y2407239D1*
X1141391Y2407896D1*
X1138767D1*
X1135486Y2407239D1*
Y2406583D1*
X1137454Y2402646D1*
X1141391Y2398709D1*
X1145328Y2396741D1*
X1147953Y2396085D1*
X1155171D1*
X1157795Y2396741D1*
X1159764Y2397397D1*
X1161076Y2398053D1*
X1163045Y2399365D1*
X1165669Y2401990D1*
X1166982Y2403959D1*
X1167638Y2405271D1*
X1168950Y2409208D1*
X1169606Y2414457D1*
Y2415770D1*
X1168950Y2421019D1*
X1168294Y2423644D1*
X1166326Y2427581D1*
X1165013Y2429549D1*
X1163701Y2430861D1*
X1161732Y2432174D1*
X1157795Y2434142D1*
X1155171Y2434798D1*
X1148609D1*
X1144672Y2433486D1*
X1143360Y2432830D1*
X1141391Y2431518D1*
X1138767Y2428893D1*
X1148609D1*
X1150796Y2429549D1*
X1152984D1*
X1155171Y2428893D1*
X1157139Y2428237D1*
X1159764Y2426924D1*
X1161076Y2425612D1*
Y2424956D1*
X1162389Y2422331D1*
X1163045Y2421675D1*
Y2420363D1*
X1155827Y2419707D1*
X1148609D1*
X1141391Y2420363D1*
Y2422331D1*
X1142047Y2422987D1*
X1142704Y2424300D1*
Y2424956D1*
X1145328Y2427581D1*
X1146641Y2428237D1*
X1148609Y2428893D1*
X1138767D1*
G37*
G36*
X1179449D2*
X1178793Y2428237D1*
X1177480Y2425612D1*
X1176168Y2421675D1*
X1175512Y2416426D1*
Y2415113D1*
X1176168Y2409864D1*
X1176824Y2407239D1*
X1178793Y2403302D1*
X1180105Y2401334D1*
X1182074Y2399365D1*
X1184042Y2398053D1*
X1185354Y2397397D1*
X1189292Y2396085D1*
X1193885D1*
X1196509Y2396741D1*
X1198478Y2398053D1*
X1201103Y2400678D1*
X1201593Y2401099D1*
X1201933Y2401061D1*
X1202415Y2400678D1*
Y2382305D1*
X1207664D1*
Y2434142D1*
X1203071D1*
Y2429549D1*
X1202271Y2428864D1*
X1201510Y2428948D1*
X1200888Y2429708D1*
X1201103Y2430205D1*
X1198478Y2432830D1*
X1195853Y2434142D1*
X1193885Y2434798D1*
X1188635D1*
X1184698Y2433486D1*
X1183386Y2432830D1*
X1179449Y2428893D1*
X1189292D1*
X1191041Y2429549D1*
X1192791D1*
X1194541Y2428893D1*
X1198478Y2426924D1*
X1200446Y2424956D1*
Y2424300D1*
X1201103Y2422987D1*
X1201759Y2421019D1*
X1202415Y2417082D1*
X1203071Y2416426D1*
Y2413801D1*
X1202415Y2413145D1*
X1201759Y2409208D1*
X1201103Y2407239D1*
X1199790Y2405271D1*
X1199574Y2404475D1*
X1199134Y2403959D1*
X1197822Y2403302D1*
X1197166Y2402646D1*
X1193229Y2401334D1*
X1191260D1*
X1189292Y2401990D1*
X1186667Y2403302D1*
X1183386Y2406583D1*
Y2407239D1*
X1182730Y2409208D1*
X1182074Y2412489D1*
X1181417Y2413145D1*
Y2417738D1*
X1182074Y2418394D1*
X1182730Y2422331D1*
X1183386Y2423644D1*
X1184698Y2425612D1*
X1187323Y2428237D1*
X1189292Y2428893D1*
X1179449D1*
G37*
G36*
X1220131D2*
X1219475Y2428237D1*
X1217507Y2424300D1*
X1216851Y2422331D1*
X1216194Y2419050D1*
Y2411833D1*
X1216851Y2408552D1*
X1218163Y2404615D1*
X1219475Y2402646D1*
X1222756Y2399365D1*
X1224725Y2398053D1*
X1226037Y2397397D1*
X1228005Y2396741D1*
X1230630Y2396085D1*
X1236536D1*
X1239816Y2396741D1*
X1243753Y2398709D1*
X1247690Y2402646D1*
X1249003Y2404615D1*
X1250315Y2408552D1*
X1250971Y2411176D1*
Y2419050D1*
X1250315Y2422331D1*
X1249003Y2426268D1*
X1247690Y2428237D1*
X1243753Y2432174D1*
X1241129Y2433486D1*
X1239160Y2434142D1*
X1236536Y2434798D1*
X1230630D1*
X1228005Y2434142D1*
X1226037Y2433486D1*
X1224725Y2432830D1*
X1222756Y2431518D1*
X1220131Y2428893D1*
X1230630D1*
X1232599Y2429549D1*
X1234567D1*
X1238504Y2428237D1*
X1239816Y2427581D1*
X1243097Y2424300D1*
Y2423644D1*
X1243753Y2422331D1*
X1244410Y2419707D1*
X1245066Y2419050D1*
Y2411833D1*
X1244410Y2411176D1*
X1243753Y2408552D1*
X1243097Y2407239D1*
Y2406583D1*
X1239816Y2403302D1*
X1238504Y2402646D1*
X1234567Y2401334D1*
X1232599D1*
X1228662Y2402646D1*
X1227349Y2403302D1*
X1224068Y2406583D1*
Y2407239D1*
X1223412Y2408552D1*
X1222756Y2411176D1*
X1222100Y2411833D1*
Y2419050D1*
X1222756Y2419707D1*
X1223412Y2422331D1*
X1224068Y2423644D1*
Y2424300D1*
X1227349Y2427581D1*
X1228662Y2428237D1*
X1230630Y2428893D1*
X1220131D1*
G37*
G36*
X846772Y2429549D2*
Y2428893D1*
X845459Y2427581D1*
X844803Y2426268D1*
X844147Y2424300D1*
X843491Y2421675D1*
Y2415113D1*
X871050Y2413801D1*
Y2410520D1*
X870394Y2409864D1*
X869082Y2407239D1*
Y2406583D1*
X867113Y2404615D1*
X863176Y2402646D1*
X860770Y2401990D1*
X858364D1*
X855958Y2402646D1*
X852021Y2404615D1*
X851243Y2405352D1*
X851365Y2405927D1*
X850053Y2407896D1*
X849396Y2408552D1*
X846772D1*
X843491Y2407896D1*
Y2407239D1*
X845459Y2403302D1*
X849396Y2399365D1*
X853333Y2397397D1*
X855958Y2396741D1*
X863176D1*
X865801Y2397397D1*
X867769Y2398053D1*
X869082Y2398709D1*
X871050Y2400022D1*
X873675Y2402646D1*
X874987Y2404615D1*
X875643Y2405927D1*
X876956Y2409864D1*
X877612Y2415113D1*
Y2416426D1*
X876956Y2421675D1*
X876299Y2424300D1*
X874331Y2428237D1*
X873019Y2430205D1*
X871706Y2431518D1*
X869738Y2432830D1*
X865801Y2434798D1*
X863176Y2435455D1*
X856614D1*
X852677Y2434142D1*
X851365Y2433486D1*
X849396Y2432174D1*
X846772Y2429549D1*
X856614D1*
X858802Y2430205D1*
X860989D1*
X863176Y2429549D1*
X865145Y2428893D1*
X867769Y2427581D1*
X869082Y2426268D1*
Y2425612D1*
X870394Y2422987D1*
X871050Y2422331D1*
Y2421019D1*
X863832Y2420363D1*
X856614D1*
X849396Y2421019D1*
Y2422987D1*
X850053Y2423644D1*
X850709Y2424956D1*
Y2425612D1*
X853333Y2428237D1*
X854646Y2428893D1*
X856614Y2429549D1*
X846772D1*
G37*
G36*
X894016Y2435455D2*
X891391Y2434798D1*
X887454Y2432830D1*
X885486Y2430861D1*
X884173Y2428893D1*
X882861Y2426268D1*
X882205Y2423644D1*
X885486Y2422987D1*
X888110D1*
X888767Y2424956D1*
Y2425612D1*
X892047Y2428893D1*
X895984Y2430205D1*
X897953D1*
X901890Y2428893D1*
X903202Y2428237D1*
X906483Y2424956D1*
Y2423644D1*
X907139Y2421675D1*
X907795Y2421019D1*
Y2411176D1*
X907139Y2410520D1*
X906483Y2407896D1*
Y2407239D1*
X903202Y2403959D1*
X900578Y2402646D1*
X898390Y2401990D1*
X896203D1*
X894016Y2402646D1*
X892047Y2403302D1*
X891391Y2403959D1*
X890079Y2404615D1*
X889301Y2405352D1*
X889423Y2405927D1*
X888110Y2408552D1*
X887454Y2410520D1*
X885486D1*
X881549Y2409864D1*
X882205Y2407239D1*
X882861Y2405271D1*
X883517Y2403959D1*
X884830Y2401990D1*
X886798Y2400022D1*
X888767Y2398709D1*
X891391Y2397397D1*
X894016Y2396741D1*
X900578D1*
X904515Y2398053D1*
X905827Y2398709D1*
X907795Y2400022D1*
X910420Y2402646D1*
X911732Y2404615D1*
X912389Y2406583D1*
X913045Y2407896D1*
X913701Y2410520D1*
Y2421019D1*
X913045Y2424300D1*
X910420Y2429549D1*
X907795Y2432174D1*
X905827Y2433486D1*
X904515Y2434142D1*
X902546Y2434798D1*
X899921Y2435455D1*
X894016D1*
G37*
G36*
X920263D2*
X918294Y2434798D1*
X916982Y2434142D1*
Y2432174D1*
X917638Y2430205D1*
X918294Y2428893D1*
X918950D1*
X920919Y2429549D1*
X922450Y2430205D1*
X923981D1*
X925512Y2429549D1*
X926824Y2428893D1*
X928793Y2426924D1*
Y2426268D1*
X929449Y2424300D1*
X930105Y2420363D1*
X930761Y2397397D1*
X936011D1*
Y2434798D1*
X931417D1*
Y2430861D1*
X930722Y2430149D1*
X930382Y2430255D1*
X930105Y2430861D1*
X928137Y2433486D1*
X926168Y2434798D1*
X924200Y2435455D1*
X920263D1*
G37*
G36*
X989160Y2429549D2*
X988504Y2428893D1*
X986536Y2424956D1*
X985879Y2422987D1*
X985223Y2419707D1*
Y2412489D1*
X985879Y2409208D1*
X987192Y2405271D1*
X988504Y2403302D1*
X991785Y2400022D1*
X993753Y2398709D1*
X995066Y2398053D1*
X997034Y2397397D1*
X999659Y2396741D1*
X1005564D1*
X1008845Y2397397D1*
X1012782Y2399365D1*
X1016719Y2403302D1*
X1018032Y2405271D1*
X1019344Y2409208D1*
X1020000Y2411833D1*
Y2419707D1*
X1019344Y2422987D1*
X1018032Y2426924D1*
X1016719Y2428893D1*
X1012782Y2432830D1*
X1010158Y2434142D1*
X1008189Y2434798D1*
X1005564Y2435455D1*
X999659D1*
X997034Y2434798D1*
X995066Y2434142D1*
X993753Y2433486D1*
X991785Y2432174D1*
X989160Y2429549D1*
X999659D1*
X1001627Y2430205D1*
X1003596D1*
X1007533Y2428893D1*
X1008845Y2428237D1*
X1012126Y2424956D1*
Y2424300D1*
X1012782Y2422987D1*
X1013438Y2420363D1*
X1014095Y2419707D1*
Y2412489D1*
X1013438Y2411833D1*
X1012782Y2409208D1*
X1012126Y2407896D1*
Y2407239D1*
X1008845Y2403959D1*
X1007533Y2403302D1*
X1003596Y2401990D1*
X1001627D1*
X997690Y2403302D1*
X996378Y2403959D1*
X993097Y2407239D1*
Y2407896D1*
X992441Y2409208D1*
X991785Y2411833D1*
X991129Y2412489D1*
Y2419707D1*
X991785Y2420363D1*
X992441Y2422987D1*
X993097Y2424300D1*
Y2424956D1*
X996378Y2428237D1*
X997690Y2428893D1*
X999659Y2429549D1*
X989160D1*
G37*
G36*
X1039029Y2435455D2*
X1035748Y2434798D1*
X1031811Y2432830D1*
X1029843Y2430861D1*
X1028530Y2428893D1*
X1027874Y2426924D1*
Y2424956D1*
X1031155Y2424300D1*
X1033124D1*
X1033780Y2425612D1*
Y2426268D1*
X1036404Y2428893D1*
X1038373Y2429549D1*
X1040998Y2430205D1*
X1043622D1*
X1046247Y2429549D1*
X1048872Y2428237D1*
X1050184Y2426924D1*
Y2424300D1*
X1048215Y2422331D1*
X1044278Y2421019D1*
X1039029Y2419707D1*
X1034436Y2418394D1*
X1031155Y2417082D1*
X1029187Y2415770D1*
X1027874Y2414457D1*
X1026562Y2411833D1*
Y2405271D1*
X1027874Y2402646D1*
X1031811Y2398709D1*
X1033124Y2398053D1*
X1035092Y2397397D1*
X1037717Y2396741D1*
X1044935D1*
X1047559Y2397397D1*
X1049528Y2398053D1*
X1050840Y2398709D1*
X1053465Y2400678D1*
X1054777Y2402646D1*
X1056089Y2405271D1*
X1056746Y2407239D1*
Y2408552D1*
X1053465Y2409208D1*
X1051496D1*
X1050840Y2408552D1*
X1050184Y2406583D1*
Y2405927D1*
X1048215Y2403959D1*
X1046903Y2403302D1*
X1044935Y2402646D1*
X1042310Y2401990D1*
X1039685D1*
X1037061Y2402646D1*
X1035092Y2403302D1*
X1032467Y2405927D1*
Y2407896D1*
X1032483Y2408535D1*
X1032599Y2409012D1*
X1033124Y2409864D1*
Y2410520D1*
X1034436Y2411176D1*
X1036404Y2411833D1*
X1041654Y2413145D1*
X1046247Y2414457D1*
X1048215Y2415113D1*
X1052152Y2417082D1*
X1054121Y2419050D1*
X1055433Y2421675D1*
X1056089Y2424300D1*
Y2425612D1*
X1055433Y2428237D1*
X1054777Y2429549D1*
X1053465Y2431518D1*
X1052152Y2432830D1*
X1048215Y2434798D1*
X1045591Y2435455D1*
X1039029D1*
G37*
G36*
X947166Y2434798D2*
Y2397397D1*
X952415D1*
Y2401990D1*
X952905Y2402411D1*
X953245Y2402373D1*
X953727Y2401990D1*
X957008Y2398709D1*
X959633Y2397397D1*
X961601Y2396741D1*
X967507D1*
X969475Y2397397D1*
X973412Y2399365D1*
X974725Y2400678D1*
X976693Y2404615D1*
X977349Y2410520D1*
Y2434798D1*
X971444D1*
X970788Y2408552D1*
X970131Y2405927D1*
Y2405271D1*
X968819Y2403959D1*
X966194Y2402646D1*
X964226Y2401990D1*
X962257D1*
X958320Y2403302D1*
X957008Y2403959D1*
X954383Y2406583D1*
Y2407239D1*
X953727Y2409208D1*
X953071Y2434798D1*
X947166D1*
G37*
G36*
X1069213Y2359995D2*
Y2327843D1*
X1074462D1*
Y2332436D1*
X1074952Y2332858D1*
X1075284Y2332803D1*
X1075657Y2332260D1*
X1075774Y2331780D1*
X1078399Y2329155D1*
X1081024Y2327843D1*
X1082992Y2327187D1*
X1087585D1*
X1090210Y2327843D1*
X1094147Y2329812D1*
X1097428Y2333092D1*
X1098740Y2335061D1*
X1100053Y2337686D1*
X1100709Y2340310D1*
X1101365Y2343591D1*
Y2349497D1*
X1100709Y2353434D1*
X1100053Y2355402D1*
X1099396Y2356714D1*
X1098740Y2358683D1*
X1097428Y2360651D1*
X1095459Y2362620D1*
X1093491Y2363932D1*
X1090866Y2365245D1*
X1088242Y2365901D1*
X1082992D1*
X1081024Y2365245D1*
X1079711Y2364588D1*
X1077087Y2362620D1*
X1076431Y2361964D1*
X1076264Y2361190D1*
X1075736Y2360591D1*
X1075396Y2360701D1*
X1075118Y2361308D1*
Y2379680D1*
X1069213D1*
Y2359995D1*
X1082336D1*
X1084305Y2360651D1*
X1086273D1*
X1088242Y2359995D1*
X1090866Y2358683D1*
X1093491Y2356058D1*
Y2355402D1*
X1094147Y2353434D1*
X1094803Y2350809D1*
X1095459Y2350153D1*
Y2342935D1*
X1094803Y2342279D1*
X1094147Y2339654D1*
X1093491Y2338342D1*
X1092179Y2336373D1*
X1089554Y2333749D1*
X1085617Y2332436D1*
X1083648D1*
X1081680Y2333092D1*
X1079055Y2334405D1*
X1075774Y2337686D1*
Y2338998D1*
X1075118Y2340966D1*
X1074462Y2341623D1*
Y2350809D1*
X1075118Y2351465D1*
X1075774Y2354090D1*
X1076431Y2355402D1*
Y2356058D1*
X1079055Y2358683D1*
X1080368Y2359339D1*
X1082336Y2359995D1*
X1069213D1*
G37*
G36*
X1199134Y2379680D2*
Y2361308D1*
X1198438Y2360595D1*
X1198099Y2360702D1*
X1197822Y2361308D1*
X1195853Y2363276D1*
X1191916Y2365245D1*
X1189948Y2365901D1*
X1184698D1*
X1182074Y2365245D1*
X1180105Y2364588D1*
X1178137Y2363276D1*
X1176824Y2361964D1*
X1175512Y2359339D1*
X1174856Y2357371D1*
Y2327843D1*
X1180105D1*
X1180761Y2354090D1*
X1181417Y2356714D1*
Y2357371D1*
X1182730Y2358683D1*
X1185354Y2359995D1*
X1187323Y2360651D1*
X1189292D1*
X1193229Y2359339D1*
X1194541Y2358683D1*
X1197822Y2355402D1*
Y2354090D1*
X1198478Y2350809D1*
X1199134Y2327843D1*
X1204383D1*
Y2379680D1*
X1199134D1*
G37*
G36*
X912389Y2359995D2*
Y2359339D1*
X911076Y2358027D1*
X910420Y2356714D1*
X909764Y2354746D1*
X909108Y2352121D1*
Y2345560D1*
X936667Y2344247D1*
Y2340966D1*
X936011Y2340310D1*
X934698Y2337686D1*
Y2337029D1*
X932730Y2335061D1*
X928793Y2333092D1*
X926387Y2332436D1*
X923981D1*
X921575Y2333092D1*
X917638Y2335061D1*
X916860Y2335799D1*
X916982Y2336373D1*
X915669Y2338342D1*
X915013Y2338998D1*
X912389D1*
X909108Y2338342D1*
Y2337686D1*
X911076Y2333749D1*
X915013Y2329812D1*
X918950Y2327843D1*
X921575Y2327187D1*
X928793D1*
X931417Y2327843D1*
X933386Y2328499D1*
X934698Y2329155D1*
X936667Y2330468D1*
X939292Y2333092D1*
X940604Y2335061D1*
X941260Y2336373D1*
X942572Y2340310D1*
X943229Y2345560D1*
Y2346872D1*
X942572Y2352121D1*
X941916Y2354746D1*
X939948Y2358683D1*
X938635Y2360651D1*
X937323Y2361964D1*
X935354Y2363276D1*
X931417Y2365245D1*
X928793Y2365901D1*
X922231D1*
X918294Y2364588D1*
X916982Y2363932D1*
X915013Y2362620D1*
X912389Y2359995D1*
X922231D1*
X924418Y2360651D1*
X926606D1*
X928793Y2359995D1*
X930761Y2359339D1*
X933386Y2358027D1*
X934698Y2356714D1*
Y2356058D1*
X936011Y2353434D1*
X936667Y2352777D1*
Y2351465D1*
X929449Y2350809D1*
X922231D1*
X915013Y2351465D1*
Y2353434D1*
X915669Y2354090D1*
X916326Y2355402D1*
Y2356058D1*
X918950Y2358683D1*
X920263Y2359339D1*
X922231Y2359995D1*
X912389D1*
G37*
G36*
X949134Y2365901D2*
X947166Y2365245D1*
X945853Y2364588D1*
Y2362620D1*
X946509Y2360651D1*
X947166Y2359339D1*
X947822D1*
X949790Y2359995D1*
X951321Y2360651D1*
X952852D1*
X954383Y2359995D1*
X955696Y2359339D1*
X957664Y2357371D1*
Y2356714D1*
X958320Y2354746D1*
X958977Y2350809D1*
X959633Y2327843D1*
X964882D1*
Y2365245D1*
X960289D1*
Y2361308D1*
X959593Y2360595D1*
X959253Y2360702D1*
X958977Y2361308D1*
X957008Y2363932D1*
X955040Y2365245D1*
X953071Y2365901D1*
X949134D1*
G37*
G36*
X976037Y2345560D2*
Y2335061D1*
X975381Y2334405D1*
X974725Y2330468D1*
X974068Y2328499D1*
Y2327843D1*
X979974D1*
X980630Y2329155D1*
X981286Y2331124D1*
X981393Y2331631D1*
X981796Y2332169D1*
X982119Y2332154D1*
X982599Y2331780D1*
X983911Y2330468D1*
X989160Y2327843D1*
X991785Y2327187D1*
X998347D1*
X1000971Y2327843D1*
X1003596Y2329155D1*
X1006877Y2332436D1*
X1007533Y2333749D1*
X1008189Y2337029D1*
Y2338342D1*
X1007533Y2341623D1*
X1006877Y2342935D1*
X1002940Y2346872D1*
X1000315Y2348184D1*
X997690Y2348840D1*
X993753Y2349497D1*
X988504Y2350153D1*
X985223Y2350809D1*
X982599Y2351465D1*
X981942Y2352121D1*
Y2356714D1*
X983911Y2358683D1*
X985223Y2359339D1*
X987192Y2359995D1*
X989816Y2360651D1*
X992441D1*
X995066Y2359995D1*
X997034Y2359339D1*
X998347Y2358683D1*
X1000315Y2356714D1*
Y2356058D1*
X1000971Y2354090D1*
X1003596D1*
X1006877Y2354746D1*
Y2355402D1*
X1006221Y2357371D1*
X1004908Y2359995D1*
X1001627Y2363276D1*
X999003Y2364588D1*
X997034Y2365245D1*
X993753Y2365901D1*
X985879D1*
X983255Y2365245D1*
X979318Y2363276D1*
X977349Y2361308D1*
X976693Y2359995D1*
X976037Y2358027D1*
Y2345560D1*
X981942D1*
X982432Y2345981D1*
X982773Y2345943D1*
X983255Y2345560D1*
X985879Y2344903D1*
X989816Y2344247D1*
X994410Y2343591D1*
X997690Y2342935D1*
X1000315Y2341623D1*
X1000844Y2340775D1*
X1000971Y2340310D1*
X1001627Y2339654D1*
Y2336373D1*
X1000971Y2335717D1*
X1000756Y2334921D1*
X1000315Y2334405D1*
X999003Y2333749D1*
X997034Y2333092D1*
X994847Y2332436D1*
X992660D1*
X990473Y2333092D1*
X987848Y2333749D1*
X986536Y2334405D1*
X985879Y2335061D1*
X984567Y2335717D1*
X983255Y2337029D1*
Y2337686D1*
X982599Y2338998D1*
X981942Y2345560D1*
X976037D1*
G37*
G36*
X1107271Y2365901D2*
X1105302Y2365245D1*
X1103990Y2364588D1*
Y2362620D1*
X1104646Y2360651D1*
X1105302Y2359339D1*
X1105958D1*
X1107927Y2359995D1*
X1109458Y2360651D1*
X1110989D1*
X1112520Y2359995D1*
X1113832Y2359339D1*
X1115801Y2357371D1*
Y2356714D1*
X1116457Y2354746D1*
X1117113Y2350809D1*
X1117769Y2327843D1*
X1123019D1*
Y2365245D1*
X1118425D1*
Y2361308D1*
X1117730Y2360595D1*
X1117390Y2360702D1*
X1117113Y2361308D1*
X1115145Y2363932D1*
X1113176Y2365245D1*
X1111208Y2365901D1*
X1107271D1*
G37*
G36*
X1134173Y2345560D2*
Y2335061D1*
X1133517Y2334405D1*
X1132861Y2330468D1*
X1132205Y2328499D1*
Y2327843D1*
X1138110D1*
X1138767Y2329155D1*
X1139423Y2331124D1*
X1139530Y2331631D1*
X1139932Y2332169D1*
X1140256Y2332154D1*
X1140735Y2331780D1*
X1142047Y2330468D1*
X1147297Y2327843D1*
X1149921Y2327187D1*
X1156483D1*
X1159108Y2327843D1*
X1161732Y2329155D1*
X1165013Y2332436D1*
X1165669Y2333749D1*
X1166326Y2337029D1*
Y2338342D1*
X1165669Y2341623D1*
X1165013Y2342935D1*
X1161076Y2346872D1*
X1158452Y2348184D1*
X1155827Y2348840D1*
X1151890Y2349497D1*
X1146641Y2350153D1*
X1143360Y2350809D1*
X1140735Y2351465D1*
X1140079Y2352121D1*
Y2356714D1*
X1142047Y2358683D1*
X1143360Y2359339D1*
X1145328Y2359995D1*
X1147953Y2360651D1*
X1150578D1*
X1153202Y2359995D1*
X1155171Y2359339D1*
X1156483Y2358683D1*
X1158452Y2356714D1*
Y2356058D1*
X1159108Y2354090D1*
X1161732D1*
X1165013Y2354746D1*
Y2355402D1*
X1164357Y2357371D1*
X1163045Y2359995D1*
X1159764Y2363276D1*
X1157139Y2364588D1*
X1155171Y2365245D1*
X1151890Y2365901D1*
X1144016D1*
X1141391Y2365245D1*
X1137454Y2363276D1*
X1135486Y2361308D1*
X1134830Y2359995D1*
X1134173Y2358027D1*
Y2345560D1*
X1140079D1*
X1140569Y2345981D1*
X1140909Y2345943D1*
X1141391Y2345560D1*
X1144016Y2344903D1*
X1147953Y2344247D1*
X1152546Y2343591D1*
X1155827Y2342935D1*
X1158452Y2341623D1*
X1158980Y2340775D1*
X1159108Y2340310D1*
X1159764Y2339654D1*
Y2336373D1*
X1159108Y2335717D1*
X1158892Y2334921D1*
X1158452Y2334405D1*
X1157139Y2333749D1*
X1155171Y2333092D1*
X1152984Y2332436D1*
X1150796D1*
X1148609Y2333092D1*
X1145984Y2333749D1*
X1144672Y2334405D1*
X1144016Y2335061D1*
X1142704Y2335717D1*
X1141391Y2337029D1*
Y2337686D1*
X1140735Y2338998D1*
X1140079Y2345560D1*
X1134173D1*
G37*
G36*
X1012126Y2365245D2*
Y2363932D1*
X1012782Y2361308D1*
X1014751Y2355402D1*
X1015407Y2352777D1*
X1018032Y2344903D1*
X1018688Y2342279D1*
X1020656Y2336373D1*
X1021312Y2333749D1*
X1023281Y2327843D1*
X1029843D1*
X1031155Y2333092D1*
X1031811Y2335061D1*
X1034436Y2345560D1*
X1035092Y2347528D1*
X1035748Y2350153D1*
X1036404Y2353434D1*
Y2355402D1*
X1036894Y2355823D1*
X1037234Y2355785D1*
X1037717Y2355402D1*
X1038373Y2353434D1*
X1040998Y2342935D1*
X1041654Y2340966D1*
X1044935Y2327843D1*
X1051496D1*
X1053465Y2333749D1*
X1054121Y2336373D1*
X1056089Y2342279D1*
X1056746Y2344903D1*
X1058058Y2348840D1*
X1058714Y2351465D1*
X1060683Y2357371D1*
X1061339Y2359995D1*
X1062651Y2363932D1*
Y2365245D1*
X1056746D1*
X1056089Y2363276D1*
X1055433Y2360651D1*
X1054777Y2358683D1*
X1053465Y2353434D1*
X1052809Y2351465D1*
X1051496Y2346216D1*
X1050840Y2344247D1*
X1049528Y2338998D1*
X1048872Y2337029D1*
X1048705Y2336255D1*
X1048177Y2335657D1*
X1047837Y2335767D1*
X1047559Y2336373D1*
Y2338342D1*
X1046903Y2340966D1*
X1046247Y2342935D1*
X1044278Y2350809D1*
X1043622Y2352777D1*
X1041654Y2360651D1*
X1040998Y2362620D1*
X1040341Y2365245D1*
X1033780D1*
X1027874Y2341623D1*
X1027218Y2339654D1*
Y2337686D1*
X1026418Y2337001D1*
X1025659Y2337086D1*
X1025250Y2337686D1*
Y2338998D1*
X1024593Y2341623D1*
X1023281Y2345560D1*
X1022625Y2348184D1*
X1021969Y2350153D1*
X1021312Y2352777D1*
X1020000Y2356714D1*
X1019344Y2359339D1*
X1018688Y2361308D1*
X1018032Y2363932D1*
X1017375Y2365245D1*
X1012126D1*
G37*
X1278591Y718091D2*
D63*
Y720943D1*
X1275739Y726713D1*
X1272887Y729565D1*
X1267117Y732417D1*
X1255643D1*
X1249939Y729565D1*
X1247087Y726713D1*
X1244169Y720943D1*
Y715239D1*
X1247087Y709469D1*
X1252791Y700913D1*
X1281509Y672195D1*
X1241317D1*
X1205546Y732417D2*
X1214168Y729565D1*
X1219938Y720943D1*
X1222790Y706617D1*
Y697995D1*
X1219938Y683669D1*
X1214168Y675047D1*
X1205546Y672195D1*
X1199842D1*
X1191220Y675047D1*
X1185516Y683669D1*
X1182598Y697995D1*
Y706617D1*
X1185516Y720943D1*
X1191220Y729565D1*
X1199842Y732417D1*
X1205546D1*
X1185516Y720943D2*
X1219938Y683669D1*
X1161153Y718091D2*
Y720943D1*
X1158301Y726713D1*
X1155449Y729565D1*
X1149679Y732417D1*
X1138205D1*
X1132501Y729565D1*
X1129649Y726713D1*
X1126731Y720943D1*
Y715239D1*
X1129649Y709469D1*
X1135353Y700913D1*
X1164071Y672195D1*
X1123879D1*
X1070930Y732417D2*
X1099582D1*
X1102433Y706617D1*
X1099582Y709469D1*
X1090959Y712387D1*
X1082404D1*
X1073782Y709469D1*
X1068012Y703765D1*
X1065160Y695143D1*
Y689440D1*
X1068012Y680817D1*
X1073782Y675047D1*
X1082404Y672195D1*
X1090959D1*
X1099582Y675047D1*
X1102433Y677966D1*
X1105352Y683669D1*
X1046633Y702306D2*
X1013471D1*
X977700Y732417D2*
X986322Y729565D1*
X992092Y720943D1*
X994944Y706617D1*
Y697995D1*
X992092Y683669D1*
X986322Y675047D1*
X977700Y672195D1*
X971996D1*
X963374Y675047D1*
X957670Y683669D1*
X954752Y697995D1*
Y706617D1*
X957670Y720943D1*
X963374Y729565D1*
X971996Y732417D1*
X977700D1*
X957670Y720943D2*
X992092Y683669D1*
X930454Y732417D2*
X898951D1*
X916129Y709469D1*
X907507D1*
X901803Y706617D1*
X898951Y703765D1*
X896033Y695143D1*
Y689440D1*
X898951Y680817D1*
X904655Y675047D1*
X913277Y672195D1*
X921899D1*
X930454Y675047D1*
X933306Y677966D1*
X936225Y683669D1*
X877506Y702306D2*
X844344D1*
X808573Y732417D2*
X817195Y729565D1*
X822965Y720943D1*
X825817Y706617D1*
Y697995D1*
X822965Y683669D1*
X817195Y675047D1*
X808573Y672195D1*
X802869D1*
X794247Y675047D1*
X788543Y683669D1*
X785625Y697995D1*
Y706617D1*
X788543Y720943D1*
X794247Y729565D1*
X802869Y732417D1*
X808573D1*
X788543Y720943D2*
X822965Y683669D1*
X767098Y720943D2*
X761327Y723861D1*
X752705Y732417D1*
Y672195D1*
X714829Y1529686D2*
D62*
X744973D1*
X714829Y1539734D2*
Y1519638D1*
X730614Y1510374D2*
Y1497441D1*
X729188Y1493163D1*
X727729Y1491704D1*
X724877Y1490278D1*
X720566D1*
X717714Y1491704D1*
X716255Y1493163D1*
X714829Y1497441D1*
Y1510374D1*
X744973D1*
X720599Y1481015D2*
X719140Y1478130D1*
X714862Y1473819D1*
X744973D1*
M02*
