G04 DipTrace 5.1.0.3*
G04 TopAssembly.gbr*
%MOIN*%
G04 #@! TF.FileFunction,Drawing,Top*
G04 #@! TF.Part,Single*
%ADD13C,0.005*%
%ADD25C,0.000013*%
%ADD62C,0.004632*%
%ADD65C,0.00772*%
%ADD66C,0.012351*%
%FSLAX26Y26*%
G04*
G70*
G90*
G75*
G01*
G04 TopAssy*
%LPD*%
X412764Y3518438D2*
D13*
Y3637173D1*
X1625362D2*
Y3518438D1*
X1368292Y3844868D2*
G03X1340402Y3872396I-26326J1220D01*
G01*
X1368292Y3663832D2*
G03X1394969Y3636303I26054J-1442D01*
G01*
X697725Y3872396D2*
G03X669835Y3844868I-1564J-26308D01*
G01*
X643158Y3636303D2*
G03X669108Y3662165I2615J23326D01*
G01*
X1368292Y3663832D2*
Y3844868D1*
X669835Y3663832D2*
Y3844868D1*
X412764Y3636303D2*
X1625362Y3637173D1*
X697725Y3872396D2*
X1340402D1*
X791189Y387690D2*
Y293225D1*
X1212452D1*
Y387690D1*
X690280Y967516D2*
D25*
X757529D1*
Y911178D1*
X690280D1*
Y967516D1*
X1277272Y967800D2*
X1348339D1*
Y911603D1*
X1277272D1*
Y967800D1*
X1314609Y605107D2*
X1382761D1*
Y517871D1*
X1314609D1*
Y605107D1*
X703327Y604894D2*
X771549D1*
Y517871D1*
X703327D1*
Y604894D1*
X848236Y574705D2*
D3*
X1163108Y575768D2*
D3*
X468702Y393766D2*
D13*
X1568702D1*
Y2293628D1*
X468702D1*
Y393766D1*
X631172Y2243498D2*
X1387423D1*
Y2562523D1*
X631172D1*
Y2243498D1*
G36*
X740183Y539176D2*
X739845Y534028D1*
X738839Y528969D1*
X737181Y524085D1*
X734899Y519458D1*
X732033Y515169D1*
X728632Y511291D1*
X724754Y507890D1*
X720465Y505024D1*
X715839Y502742D1*
X710954Y501084D1*
X705895Y500078D1*
X700748Y499741D1*
X695600Y500078D1*
X690541Y501084D1*
X685656Y502742D1*
X681030Y505024D1*
X676741Y507890D1*
X672863Y511291D1*
X669462Y515169D1*
X666596Y519458D1*
X664314Y524085D1*
X662656Y528969D1*
X661650Y534028D1*
X661313Y539176D1*
X661312Y539237D1*
X661650Y544385D1*
X662656Y549444D1*
X664314Y554329D1*
X666596Y558955D1*
X669462Y563244D1*
X672863Y567122D1*
X676741Y570523D1*
X681030Y573389D1*
X685656Y575671D1*
X690541Y577329D1*
X695600Y578335D1*
X700748Y578672D1*
X705895Y578335D1*
X710954Y577329D1*
X715839Y575671D1*
X720465Y573389D1*
X724754Y570523D1*
X728632Y567122D1*
X732033Y563244D1*
X734899Y558955D1*
X737181Y554329D1*
X738839Y549444D1*
X739845Y544385D1*
X740183Y539237D1*
Y539176D1*
G37*
G36*
X1367183Y538846D2*
X1366846Y533713D1*
X1365843Y528667D1*
X1364189Y523796D1*
X1361914Y519183D1*
X1359056Y514906D1*
X1355664Y511038D1*
X1351797Y507647D1*
X1347520Y504789D1*
X1342906Y502514D1*
X1338035Y500860D1*
X1332990Y499857D1*
X1327857Y499520D1*
X1322724Y499857D1*
X1317679Y500860D1*
X1312808Y502514D1*
X1308194Y504789D1*
X1303917Y507647D1*
X1300050Y511038D1*
X1296658Y514906D1*
X1293800Y519183D1*
X1291525Y523796D1*
X1289872Y528668D1*
X1288868Y533713D1*
X1288532Y538846D1*
Y539127D1*
X1288868Y544260D1*
X1289872Y549305D1*
X1291525Y554176D1*
X1293800Y558789D1*
X1296658Y563066D1*
X1300050Y566934D1*
X1303917Y570325D1*
X1308194Y573183D1*
X1312808Y575458D1*
X1317679Y577112D1*
X1322724Y578116D1*
X1327857Y578452D1*
X1332990Y578116D1*
X1338035Y577112D1*
X1342906Y575458D1*
X1347520Y573183D1*
X1351797Y570325D1*
X1355664Y566934D1*
X1359056Y563066D1*
X1361914Y558789D1*
X1364189Y554176D1*
X1365843Y549305D1*
X1366846Y544260D1*
X1367183Y539127D1*
Y538846D1*
G37*
X876142Y363864D2*
D13*
X1171492D1*
Y580651D1*
X876142D1*
Y363864D1*
X824739Y1919157D2*
X1238125D1*
Y1698684D1*
X824739D1*
Y1919157D1*
G36*
X1197967Y2019944D2*
X1198995Y2019877D1*
X1200005Y2019676D1*
X1200981Y2019345D1*
X1201904Y2018889D1*
X1202761Y2018317D1*
X1203535Y2017638D1*
X1204214Y2016863D1*
X1204786Y2016007D1*
X1205242Y2015083D1*
X1205573Y2014108D1*
X1205774Y2013098D1*
X1205841Y2012070D1*
X1205774Y2011042D1*
X1205573Y2010032D1*
X1205242Y2009057D1*
X1204786Y2008133D1*
X1204214Y2007277D1*
X1203535Y2006502D1*
X1202761Y2005823D1*
X1201904Y2005251D1*
X1200981Y2004795D1*
X1200005Y2004464D1*
X1198995Y2004263D1*
X1197967Y2004196D1*
D1*
X1196940Y2004263D1*
X1195929Y2004464D1*
X1194954Y2004795D1*
X1194030Y2005251D1*
X1193174Y2005823D1*
X1192400Y2006502D1*
X1191720Y2007277D1*
X1191148Y2008133D1*
X1190693Y2009057D1*
X1190362Y2010032D1*
X1190161Y2011042D1*
X1190093Y2012070D1*
X1190161Y2013098D1*
X1190362Y2014108D1*
X1190693Y2015083D1*
X1191148Y2016007D1*
X1191720Y2016863D1*
X1192400Y2017638D1*
X1193174Y2018317D1*
X1194030Y2018889D1*
X1194954Y2019345D1*
X1195929Y2019676D1*
X1196940Y2019877D1*
X1197967Y2019944D1*
D1*
G37*
X945083Y354895D2*
D65*
X942706Y359648D1*
X937898Y364457D1*
X933145Y366833D1*
X923583D1*
X918775Y364457D1*
X914021Y359648D1*
X911590Y354895D1*
X909213Y347710D1*
Y335716D1*
X911590Y328587D1*
X914021Y323778D1*
X918775Y319025D1*
X923583Y316593D1*
X933145D1*
X937898Y319025D1*
X942706Y323778D1*
X945083Y328587D1*
X998824Y316593D2*
X979645Y366833D1*
X960522Y316593D1*
X967707Y333340D2*
X991639D1*
X1014263Y342901D2*
X1035763D1*
X1042948Y345333D1*
X1045380Y347710D1*
X1047757Y352463D1*
Y357272D1*
X1045380Y362025D1*
X1042948Y364457D1*
X1035763Y366833D1*
X1014263D1*
Y316593D1*
X1031010Y342901D2*
X1047757Y316593D1*
X1063196Y366833D2*
Y316593D1*
X1079942D1*
X1087127Y319025D1*
X1091936Y323778D1*
X1094313Y328587D1*
X1096689Y335716D1*
Y347710D1*
X1094313Y354895D1*
X1091936Y359648D1*
X1087127Y364457D1*
X1079942Y366833D1*
X1063196D1*
X797301Y2356725D2*
D66*
X766616Y2437109D1*
X736018Y2356725D1*
X747514Y2383520D2*
X785805D1*
X875593Y2437109D2*
Y2356725D1*
X822004Y2437109D1*
Y2356725D1*
X927091Y2437109D2*
Y2356725D1*
X900296Y2437109D2*
X953886D1*
X1028287D2*
X978588D1*
Y2356725D1*
X1028287D1*
X978588Y2398819D2*
X1009186D1*
X1106579Y2437109D2*
Y2356725D1*
X1052989Y2437109D1*
Y2356725D1*
X1184871Y2437109D2*
Y2356725D1*
X1131282Y2437109D1*
Y2356725D1*
X1270857D2*
X1240171Y2437109D1*
X1209574Y2356725D1*
X1221070Y2383520D2*
X1259361D1*
X699645Y465820D2*
D62*
X681008D1*
Y435676D1*
X699645D1*
X681008Y451461D2*
X692482D1*
X729004Y465820D2*
Y435676D1*
X708908Y465820D1*
Y435676D1*
X1294479Y467799D2*
Y437655D1*
X1312364Y467799D2*
X1309479Y466373D1*
X1306627Y463488D1*
X1305168Y460636D1*
X1303742Y456325D1*
Y449129D1*
X1305168Y444851D1*
X1306627Y441966D1*
X1309479Y439114D1*
X1312364Y437655D1*
X1318101D1*
X1320953Y439114D1*
X1323838Y441966D1*
X1325264Y444851D1*
X1326690Y449129D1*
Y456325D1*
X1325264Y460636D1*
X1323838Y463488D1*
X1320953Y466373D1*
X1318101Y467799D1*
X1312364D1*
X1344576Y467766D2*
X1340265Y466340D1*
X1337380Y462029D1*
X1335954Y454866D1*
Y450555D1*
X1337380Y443392D1*
X1340265Y439081D1*
X1344576Y437655D1*
X1347428D1*
X1351739Y439081D1*
X1354591Y443392D1*
X1356050Y450555D1*
Y454866D1*
X1354591Y462029D1*
X1351739Y466340D1*
X1347428Y467766D1*
X1344576D1*
X1354591Y462029D2*
X1337380Y443392D1*
M02*
