G04 DipTrace 5.1.0.3*
G04 TopPaste.gbr*
%MOIN*%
G04 #@! TF.FileFunction,Paste,Top*
G04 #@! TF.Part,Single*
%AMOUTLINE2*
4,1,4,
0.005512,0.033465,
0.005512,-0.033465,
-0.005512,-0.033465,
-0.005512,0.033465,
0.005512,0.033465,
0*%
%ADD45R,0.061024X0.080709*%
%ADD47R,0.061024X0.049213*%
%ADD49R,0.015748X0.070866*%
%ADD59R,0.027559X0.019685*%
%ADD61R,0.019685X0.027559*%
%ADD69OUTLINE2*%
%FSLAX26Y26*%
G04*
G70*
G90*
G75*
G01*
G04 TopPaste*
%LPD*%
D61*
X1193702Y2012028D3*
Y2063209D3*
X1234198Y1568478D3*
Y1517297D3*
X1134824Y1568764D3*
Y1517583D3*
X1184824Y1568764D3*
Y1517583D3*
X1123906Y2062028D3*
Y2010847D3*
D59*
X913685Y2868700D3*
X862504D3*
X656202D3*
X605021D3*
X1381202Y1543700D3*
X1432383D3*
X913685Y2924949D3*
X862504D3*
X1381201Y2143700D3*
X1432382D3*
X1381202Y1337449D3*
X1432383D3*
X656202Y2924951D3*
X605021D3*
D61*
X1431202Y793700D3*
Y742519D3*
X827944Y1151987D3*
Y1100806D3*
X1131202Y1156200D3*
Y1105019D3*
D59*
X569256Y2661745D3*
X518075D3*
D61*
X874196Y2012983D3*
Y2064165D3*
X824196Y2012983D3*
Y2064165D3*
X774196Y2012983D3*
Y2064165D3*
D49*
X783337Y962516D3*
X826645D3*
X869952D3*
X913259D3*
X956566D3*
X999873D3*
X1043180D3*
X1086487D3*
X1129794D3*
D47*
X724243Y938934D3*
X1313042Y938582D3*
D45*
X1349353Y560697D3*
X737735Y560833D3*
D69*
X1018637Y1946913D3*
X993046D3*
X941865D3*
X1095408Y1670928D3*
X1069818D3*
X1044227D3*
X967456D3*
X916274D3*
X1197771D3*
X1120999D3*
X1197771Y1946913D3*
X1146589D3*
X1172180Y1670928D3*
X1146589D3*
X1018637D3*
X993046D3*
X941865D3*
X1095408Y1946913D3*
X1069818D3*
X1044227D3*
X967456D3*
X916274D3*
X890684D3*
Y1670928D3*
X865093Y1946913D3*
Y1670928D3*
X1172180Y1946913D3*
X1120999D3*
M02*
