%TF.GenerationSoftware,KiCad,Pcbnew,7.0.9*%
%TF.CreationDate,2024-01-05T00:29:13-06:00*%
%TF.ProjectId,FujiApple-DevKit-IDC-20,46756a69-4170-4706-9c65-2d4465764b69,1.0*%
%TF.SameCoordinates,Original*%
%TF.FileFunction,Soldermask,Bot*%
%TF.FilePolarity,Negative*%
%FSLAX46Y46*%
G04 Gerber Fmt 4.6, Leading zero omitted, Abs format (unit mm)*
G04 Created by KiCad (PCBNEW 7.0.9) date 2024-01-05 00:29:13*
%MOMM*%
%LPD*%
G01*
G04 APERTURE LIST*
G04 Aperture macros list*
%AMRoundRect*
0 Rectangle with rounded corners*
0 $1 Rounding radius*
0 $2 $3 $4 $5 $6 $7 $8 $9 X,Y pos of 4 corners*
0 Add a 4 corners polygon primitive as box body*
4,1,4,$2,$3,$4,$5,$6,$7,$8,$9,$2,$3,0*
0 Add four circle primitives for the rounded corners*
1,1,$1+$1,$2,$3*
1,1,$1+$1,$4,$5*
1,1,$1+$1,$6,$7*
1,1,$1+$1,$8,$9*
0 Add four rect primitives between the rounded corners*
20,1,$1+$1,$2,$3,$4,$5,0*
20,1,$1+$1,$4,$5,$6,$7,0*
20,1,$1+$1,$6,$7,$8,$9,0*
20,1,$1+$1,$8,$9,$2,$3,0*%
G04 Aperture macros list end*
%ADD10R,1.530000X1.530000*%
%ADD11C,1.530000*%
%ADD12C,2.700000*%
%ADD13RoundRect,0.250000X-0.600000X0.600000X-0.600000X-0.600000X0.600000X-0.600000X0.600000X0.600000X0*%
%ADD14C,1.700000*%
%ADD15R,1.800000X1.800000*%
%ADD16C,1.800000*%
%ADD17C,0.900000*%
G04 APERTURE END LIST*
D10*
%TO.C,U4*%
X167462200Y-123180000D03*
D11*
X167462200Y-120640000D03*
X167462200Y-118100000D03*
X167462200Y-115560000D03*
X167462200Y-113020000D03*
X167462200Y-110480000D03*
X167462200Y-107940000D03*
X167462200Y-105400000D03*
X167462200Y-102860000D03*
X167462200Y-100320000D03*
X167462200Y-97780000D03*
X167462200Y-95240000D03*
X167462200Y-92700000D03*
X167462200Y-90160000D03*
X167462200Y-87620000D03*
X167462200Y-85080000D03*
X167462200Y-82540000D03*
X167462200Y-80000000D03*
X167462200Y-77460000D03*
X142062200Y-77460000D03*
X142062200Y-80000000D03*
X142062200Y-82540000D03*
X142062200Y-85080000D03*
X142062200Y-87620000D03*
X142062200Y-90160000D03*
X142062200Y-92700000D03*
X142062200Y-95240000D03*
X142062200Y-97780000D03*
X142062200Y-100320000D03*
X142062200Y-102860000D03*
X142062200Y-105400000D03*
X142062200Y-107940000D03*
X142062200Y-110480000D03*
X142062200Y-113020000D03*
X142062200Y-115560000D03*
X142062200Y-118100000D03*
X142062200Y-120640000D03*
X142062200Y-123180000D03*
%TD*%
D12*
%TO.C,H2*%
X171831000Y-127127000D03*
%TD*%
D13*
%TO.C,J1*%
X166203000Y-126238000D03*
D14*
X166203000Y-128778000D03*
X163663000Y-126238000D03*
X163663000Y-128778000D03*
X161123000Y-126238000D03*
X161123000Y-128778000D03*
X158583000Y-126238000D03*
X158583000Y-128778000D03*
X156043000Y-126238000D03*
X156043000Y-128778000D03*
X153503000Y-126238000D03*
X153503000Y-128778000D03*
X150963000Y-126238000D03*
X150963000Y-128778000D03*
X148423000Y-126238000D03*
X148423000Y-128778000D03*
X145883000Y-126238000D03*
X145883000Y-128778000D03*
X143343000Y-126238000D03*
X143343000Y-128778000D03*
%TD*%
D12*
%TO.C,H1*%
X137795000Y-127127000D03*
%TD*%
D15*
%TO.C,D1*%
X170815000Y-82296000D03*
D16*
X173355000Y-82296000D03*
%TD*%
D17*
%TO.C,P1*%
X159686800Y-78000000D03*
X151686800Y-78000000D03*
%TD*%
D15*
%TO.C,D2*%
X136271000Y-82296000D03*
D16*
X138811000Y-82296000D03*
%TD*%
M02*
