%TF.GenerationSoftware,KiCad,Pcbnew,7.0.9*%
%TF.CreationDate,2024-01-05T00:29:13-06:00*%
%TF.ProjectId,FujiApple-DevKit-IDC-20,46756a69-4170-4706-9c65-2d4465764b69,1.0*%
%TF.SameCoordinates,Original*%
%TF.FileFunction,Copper,L2,Bot*%
%TF.FilePolarity,Positive*%
%FSLAX46Y46*%
G04 Gerber Fmt 4.6, Leading zero omitted, Abs format (unit mm)*
G04 Created by KiCad (PCBNEW 7.0.9) date 2024-01-05 00:29:13*
%MOMM*%
%LPD*%
G01*
G04 APERTURE LIST*
G04 Aperture macros list*
%AMRoundRect*
0 Rectangle with rounded corners*
0 $1 Rounding radius*
0 $2 $3 $4 $5 $6 $7 $8 $9 X,Y pos of 4 corners*
0 Add a 4 corners polygon primitive as box body*
4,1,4,$2,$3,$4,$5,$6,$7,$8,$9,$2,$3,0*
0 Add four circle primitives for the rounded corners*
1,1,$1+$1,$2,$3*
1,1,$1+$1,$4,$5*
1,1,$1+$1,$6,$7*
1,1,$1+$1,$8,$9*
0 Add four rect primitives between the rounded corners*
20,1,$1+$1,$2,$3,$4,$5,0*
20,1,$1+$1,$4,$5,$6,$7,0*
20,1,$1+$1,$6,$7,$8,$9,0*
20,1,$1+$1,$8,$9,$2,$3,0*%
G04 Aperture macros list end*
%ADD10C,0.300000*%
%TA.AperFunction,NonConductor*%
%ADD11C,0.300000*%
%TD*%
%TA.AperFunction,NonConductor*%
%ADD12C,0.200000*%
%TD*%
%TA.AperFunction,ComponentPad*%
%ADD13R,1.530000X1.530000*%
%TD*%
%TA.AperFunction,ComponentPad*%
%ADD14C,1.530000*%
%TD*%
%TA.AperFunction,ComponentPad*%
%ADD15RoundRect,0.250000X-0.600000X0.600000X-0.600000X-0.600000X0.600000X-0.600000X0.600000X0.600000X0*%
%TD*%
%TA.AperFunction,ComponentPad*%
%ADD16C,1.700000*%
%TD*%
%TA.AperFunction,ComponentPad*%
%ADD17R,1.800000X1.800000*%
%TD*%
%TA.AperFunction,ComponentPad*%
%ADD18C,1.800000*%
%TD*%
%TA.AperFunction,ViaPad*%
%ADD19C,0.800000*%
%TD*%
%TA.AperFunction,ViaPad*%
%ADD20C,1.000000*%
%TD*%
%TA.AperFunction,Conductor*%
%ADD21C,0.800000*%
%TD*%
%TA.AperFunction,Conductor*%
%ADD22C,0.700000*%
%TD*%
%TA.AperFunction,Conductor*%
%ADD23C,0.300000*%
%TD*%
%TA.AperFunction,Conductor*%
%ADD24C,0.250000*%
%TD*%
%TA.AperFunction,Conductor*%
%ADD25C,0.200000*%
%TD*%
%TA.AperFunction,Conductor*%
%ADD26C,0.400000*%
%TD*%
G04 APERTURE END LIST*
D10*
D11*
X194863328Y-110316505D02*
X194863328Y-111030791D01*
X194863328Y-111030791D02*
X195577614Y-111102219D01*
X195577614Y-111102219D02*
X195506185Y-111030791D01*
X195506185Y-111030791D02*
X195434757Y-110887934D01*
X195434757Y-110887934D02*
X195434757Y-110530791D01*
X195434757Y-110530791D02*
X195506185Y-110387934D01*
X195506185Y-110387934D02*
X195577614Y-110316505D01*
X195577614Y-110316505D02*
X195720471Y-110245076D01*
X195720471Y-110245076D02*
X196077614Y-110245076D01*
X196077614Y-110245076D02*
X196220471Y-110316505D01*
X196220471Y-110316505D02*
X196291900Y-110387934D01*
X196291900Y-110387934D02*
X196363328Y-110530791D01*
X196363328Y-110530791D02*
X196363328Y-110887934D01*
X196363328Y-110887934D02*
X196291900Y-111030791D01*
X196291900Y-111030791D02*
X196220471Y-111102219D01*
X194863328Y-108959363D02*
X194863328Y-109245077D01*
X194863328Y-109245077D02*
X194934757Y-109387934D01*
X194934757Y-109387934D02*
X195006185Y-109459363D01*
X195006185Y-109459363D02*
X195220471Y-109602220D01*
X195220471Y-109602220D02*
X195506185Y-109673648D01*
X195506185Y-109673648D02*
X196077614Y-109673648D01*
X196077614Y-109673648D02*
X196220471Y-109602220D01*
X196220471Y-109602220D02*
X196291900Y-109530791D01*
X196291900Y-109530791D02*
X196363328Y-109387934D01*
X196363328Y-109387934D02*
X196363328Y-109102220D01*
X196363328Y-109102220D02*
X196291900Y-108959363D01*
X196291900Y-108959363D02*
X196220471Y-108887934D01*
X196220471Y-108887934D02*
X196077614Y-108816505D01*
X196077614Y-108816505D02*
X195720471Y-108816505D01*
X195720471Y-108816505D02*
X195577614Y-108887934D01*
X195577614Y-108887934D02*
X195506185Y-108959363D01*
X195506185Y-108959363D02*
X195434757Y-109102220D01*
X195434757Y-109102220D02*
X195434757Y-109387934D01*
X195434757Y-109387934D02*
X195506185Y-109530791D01*
X195506185Y-109530791D02*
X195577614Y-109602220D01*
X195577614Y-109602220D02*
X195720471Y-109673648D01*
X196220471Y-108173649D02*
X196291900Y-108102220D01*
X196291900Y-108102220D02*
X196363328Y-108173649D01*
X196363328Y-108173649D02*
X196291900Y-108245077D01*
X196291900Y-108245077D02*
X196220471Y-108173649D01*
X196220471Y-108173649D02*
X196363328Y-108173649D01*
X196363328Y-107387934D02*
X196363328Y-107102220D01*
X196363328Y-107102220D02*
X196291900Y-106959363D01*
X196291900Y-106959363D02*
X196220471Y-106887934D01*
X196220471Y-106887934D02*
X196006185Y-106745077D01*
X196006185Y-106745077D02*
X195720471Y-106673648D01*
X195720471Y-106673648D02*
X195149042Y-106673648D01*
X195149042Y-106673648D02*
X195006185Y-106745077D01*
X195006185Y-106745077D02*
X194934757Y-106816506D01*
X194934757Y-106816506D02*
X194863328Y-106959363D01*
X194863328Y-106959363D02*
X194863328Y-107245077D01*
X194863328Y-107245077D02*
X194934757Y-107387934D01*
X194934757Y-107387934D02*
X195006185Y-107459363D01*
X195006185Y-107459363D02*
X195149042Y-107530791D01*
X195149042Y-107530791D02*
X195506185Y-107530791D01*
X195506185Y-107530791D02*
X195649042Y-107459363D01*
X195649042Y-107459363D02*
X195720471Y-107387934D01*
X195720471Y-107387934D02*
X195791900Y-107245077D01*
X195791900Y-107245077D02*
X195791900Y-106959363D01*
X195791900Y-106959363D02*
X195720471Y-106816506D01*
X195720471Y-106816506D02*
X195649042Y-106745077D01*
X195649042Y-106745077D02*
X195506185Y-106673648D01*
X195006185Y-106102220D02*
X194934757Y-106030792D01*
X194934757Y-106030792D02*
X194863328Y-105887935D01*
X194863328Y-105887935D02*
X194863328Y-105530792D01*
X194863328Y-105530792D02*
X194934757Y-105387935D01*
X194934757Y-105387935D02*
X195006185Y-105316506D01*
X195006185Y-105316506D02*
X195149042Y-105245077D01*
X195149042Y-105245077D02*
X195291900Y-105245077D01*
X195291900Y-105245077D02*
X195506185Y-105316506D01*
X195506185Y-105316506D02*
X196363328Y-106173649D01*
X196363328Y-106173649D02*
X196363328Y-105245077D01*
X194863328Y-103959364D02*
X194863328Y-104245078D01*
X194863328Y-104245078D02*
X194934757Y-104387935D01*
X194934757Y-104387935D02*
X195006185Y-104459364D01*
X195006185Y-104459364D02*
X195220471Y-104602221D01*
X195220471Y-104602221D02*
X195506185Y-104673649D01*
X195506185Y-104673649D02*
X196077614Y-104673649D01*
X196077614Y-104673649D02*
X196220471Y-104602221D01*
X196220471Y-104602221D02*
X196291900Y-104530792D01*
X196291900Y-104530792D02*
X196363328Y-104387935D01*
X196363328Y-104387935D02*
X196363328Y-104102221D01*
X196363328Y-104102221D02*
X196291900Y-103959364D01*
X196291900Y-103959364D02*
X196220471Y-103887935D01*
X196220471Y-103887935D02*
X196077614Y-103816506D01*
X196077614Y-103816506D02*
X195720471Y-103816506D01*
X195720471Y-103816506D02*
X195577614Y-103887935D01*
X195577614Y-103887935D02*
X195506185Y-103959364D01*
X195506185Y-103959364D02*
X195434757Y-104102221D01*
X195434757Y-104102221D02*
X195434757Y-104387935D01*
X195434757Y-104387935D02*
X195506185Y-104530792D01*
X195506185Y-104530792D02*
X195577614Y-104602221D01*
X195577614Y-104602221D02*
X195720471Y-104673649D01*
X196363328Y-103102221D02*
X196363328Y-102816507D01*
X196363328Y-102816507D02*
X196291900Y-102673650D01*
X196291900Y-102673650D02*
X196220471Y-102602221D01*
X196220471Y-102602221D02*
X196006185Y-102459364D01*
X196006185Y-102459364D02*
X195720471Y-102387935D01*
X195720471Y-102387935D02*
X195149042Y-102387935D01*
X195149042Y-102387935D02*
X195006185Y-102459364D01*
X195006185Y-102459364D02*
X194934757Y-102530793D01*
X194934757Y-102530793D02*
X194863328Y-102673650D01*
X194863328Y-102673650D02*
X194863328Y-102959364D01*
X194863328Y-102959364D02*
X194934757Y-103102221D01*
X194934757Y-103102221D02*
X195006185Y-103173650D01*
X195006185Y-103173650D02*
X195149042Y-103245078D01*
X195149042Y-103245078D02*
X195506185Y-103245078D01*
X195506185Y-103245078D02*
X195649042Y-103173650D01*
X195649042Y-103173650D02*
X195720471Y-103102221D01*
X195720471Y-103102221D02*
X195791900Y-102959364D01*
X195791900Y-102959364D02*
X195791900Y-102673650D01*
X195791900Y-102673650D02*
X195720471Y-102530793D01*
X195720471Y-102530793D02*
X195649042Y-102459364D01*
X195649042Y-102459364D02*
X195506185Y-102387935D01*
X196363328Y-100602222D02*
X195363328Y-100602222D01*
X195506185Y-100602222D02*
X195434757Y-100530793D01*
X195434757Y-100530793D02*
X195363328Y-100387936D01*
X195363328Y-100387936D02*
X195363328Y-100173650D01*
X195363328Y-100173650D02*
X195434757Y-100030793D01*
X195434757Y-100030793D02*
X195577614Y-99959365D01*
X195577614Y-99959365D02*
X196363328Y-99959365D01*
X195577614Y-99959365D02*
X195434757Y-99887936D01*
X195434757Y-99887936D02*
X195363328Y-99745079D01*
X195363328Y-99745079D02*
X195363328Y-99530793D01*
X195363328Y-99530793D02*
X195434757Y-99387936D01*
X195434757Y-99387936D02*
X195577614Y-99316507D01*
X195577614Y-99316507D02*
X196363328Y-99316507D01*
X196363328Y-98602222D02*
X195363328Y-98602222D01*
X195506185Y-98602222D02*
X195434757Y-98530793D01*
X195434757Y-98530793D02*
X195363328Y-98387936D01*
X195363328Y-98387936D02*
X195363328Y-98173650D01*
X195363328Y-98173650D02*
X195434757Y-98030793D01*
X195434757Y-98030793D02*
X195577614Y-97959365D01*
X195577614Y-97959365D02*
X196363328Y-97959365D01*
X195577614Y-97959365D02*
X195434757Y-97887936D01*
X195434757Y-97887936D02*
X195363328Y-97745079D01*
X195363328Y-97745079D02*
X195363328Y-97530793D01*
X195363328Y-97530793D02*
X195434757Y-97387936D01*
X195434757Y-97387936D02*
X195577614Y-97316507D01*
X195577614Y-97316507D02*
X196363328Y-97316507D01*
D12*
X175760000Y-75710200D02*
X198071420Y-75710200D01*
X175760000Y-132637100D02*
X198071420Y-132637100D01*
X197485000Y-75710200D02*
X197485000Y-132637100D01*
X197485000Y-75710200D02*
X197485000Y-132637100D01*
X197485000Y-75710200D02*
X198071421Y-76836704D01*
X197485000Y-75710200D02*
X196898579Y-76836704D01*
X197485000Y-132637100D02*
X196898579Y-131510596D01*
X197485000Y-132637100D02*
X198071421Y-131510596D01*
D10*
D11*
X148558716Y-140118328D02*
X148558716Y-141118328D01*
X148201573Y-139546900D02*
X147844430Y-140618328D01*
X147844430Y-140618328D02*
X148773001Y-140618328D01*
X149630144Y-139618328D02*
X149773001Y-139618328D01*
X149773001Y-139618328D02*
X149915858Y-139689757D01*
X149915858Y-139689757D02*
X149987287Y-139761185D01*
X149987287Y-139761185D02*
X150058715Y-139904042D01*
X150058715Y-139904042D02*
X150130144Y-140189757D01*
X150130144Y-140189757D02*
X150130144Y-140546900D01*
X150130144Y-140546900D02*
X150058715Y-140832614D01*
X150058715Y-140832614D02*
X149987287Y-140975471D01*
X149987287Y-140975471D02*
X149915858Y-141046900D01*
X149915858Y-141046900D02*
X149773001Y-141118328D01*
X149773001Y-141118328D02*
X149630144Y-141118328D01*
X149630144Y-141118328D02*
X149487287Y-141046900D01*
X149487287Y-141046900D02*
X149415858Y-140975471D01*
X149415858Y-140975471D02*
X149344429Y-140832614D01*
X149344429Y-140832614D02*
X149273001Y-140546900D01*
X149273001Y-140546900D02*
X149273001Y-140189757D01*
X149273001Y-140189757D02*
X149344429Y-139904042D01*
X149344429Y-139904042D02*
X149415858Y-139761185D01*
X149415858Y-139761185D02*
X149487287Y-139689757D01*
X149487287Y-139689757D02*
X149630144Y-139618328D01*
X150773000Y-140975471D02*
X150844429Y-141046900D01*
X150844429Y-141046900D02*
X150773000Y-141118328D01*
X150773000Y-141118328D02*
X150701572Y-141046900D01*
X150701572Y-141046900D02*
X150773000Y-140975471D01*
X150773000Y-140975471D02*
X150773000Y-141118328D01*
X151558715Y-141118328D02*
X151844429Y-141118328D01*
X151844429Y-141118328D02*
X151987286Y-141046900D01*
X151987286Y-141046900D02*
X152058715Y-140975471D01*
X152058715Y-140975471D02*
X152201572Y-140761185D01*
X152201572Y-140761185D02*
X152273001Y-140475471D01*
X152273001Y-140475471D02*
X152273001Y-139904042D01*
X152273001Y-139904042D02*
X152201572Y-139761185D01*
X152201572Y-139761185D02*
X152130144Y-139689757D01*
X152130144Y-139689757D02*
X151987286Y-139618328D01*
X151987286Y-139618328D02*
X151701572Y-139618328D01*
X151701572Y-139618328D02*
X151558715Y-139689757D01*
X151558715Y-139689757D02*
X151487286Y-139761185D01*
X151487286Y-139761185D02*
X151415858Y-139904042D01*
X151415858Y-139904042D02*
X151415858Y-140261185D01*
X151415858Y-140261185D02*
X151487286Y-140404042D01*
X151487286Y-140404042D02*
X151558715Y-140475471D01*
X151558715Y-140475471D02*
X151701572Y-140546900D01*
X151701572Y-140546900D02*
X151987286Y-140546900D01*
X151987286Y-140546900D02*
X152130144Y-140475471D01*
X152130144Y-140475471D02*
X152201572Y-140404042D01*
X152201572Y-140404042D02*
X152273001Y-140261185D01*
X152773000Y-139618328D02*
X153773000Y-139618328D01*
X153773000Y-139618328D02*
X153130143Y-141118328D01*
X154987286Y-140118328D02*
X154987286Y-141118328D01*
X154630143Y-139546900D02*
X154273000Y-140618328D01*
X154273000Y-140618328D02*
X155201571Y-140618328D01*
X156058714Y-139618328D02*
X156201571Y-139618328D01*
X156201571Y-139618328D02*
X156344428Y-139689757D01*
X156344428Y-139689757D02*
X156415857Y-139761185D01*
X156415857Y-139761185D02*
X156487285Y-139904042D01*
X156487285Y-139904042D02*
X156558714Y-140189757D01*
X156558714Y-140189757D02*
X156558714Y-140546900D01*
X156558714Y-140546900D02*
X156487285Y-140832614D01*
X156487285Y-140832614D02*
X156415857Y-140975471D01*
X156415857Y-140975471D02*
X156344428Y-141046900D01*
X156344428Y-141046900D02*
X156201571Y-141118328D01*
X156201571Y-141118328D02*
X156058714Y-141118328D01*
X156058714Y-141118328D02*
X155915857Y-141046900D01*
X155915857Y-141046900D02*
X155844428Y-140975471D01*
X155844428Y-140975471D02*
X155772999Y-140832614D01*
X155772999Y-140832614D02*
X155701571Y-140546900D01*
X155701571Y-140546900D02*
X155701571Y-140189757D01*
X155701571Y-140189757D02*
X155772999Y-139904042D01*
X155772999Y-139904042D02*
X155844428Y-139761185D01*
X155844428Y-139761185D02*
X155915857Y-139689757D01*
X155915857Y-139689757D02*
X156058714Y-139618328D01*
X158344427Y-141118328D02*
X158344427Y-140118328D01*
X158344427Y-140261185D02*
X158415856Y-140189757D01*
X158415856Y-140189757D02*
X158558713Y-140118328D01*
X158558713Y-140118328D02*
X158772999Y-140118328D01*
X158772999Y-140118328D02*
X158915856Y-140189757D01*
X158915856Y-140189757D02*
X158987285Y-140332614D01*
X158987285Y-140332614D02*
X158987285Y-141118328D01*
X158987285Y-140332614D02*
X159058713Y-140189757D01*
X159058713Y-140189757D02*
X159201570Y-140118328D01*
X159201570Y-140118328D02*
X159415856Y-140118328D01*
X159415856Y-140118328D02*
X159558713Y-140189757D01*
X159558713Y-140189757D02*
X159630142Y-140332614D01*
X159630142Y-140332614D02*
X159630142Y-141118328D01*
X160344427Y-141118328D02*
X160344427Y-140118328D01*
X160344427Y-140261185D02*
X160415856Y-140189757D01*
X160415856Y-140189757D02*
X160558713Y-140118328D01*
X160558713Y-140118328D02*
X160772999Y-140118328D01*
X160772999Y-140118328D02*
X160915856Y-140189757D01*
X160915856Y-140189757D02*
X160987285Y-140332614D01*
X160987285Y-140332614D02*
X160987285Y-141118328D01*
X160987285Y-140332614D02*
X161058713Y-140189757D01*
X161058713Y-140189757D02*
X161201570Y-140118328D01*
X161201570Y-140118328D02*
X161415856Y-140118328D01*
X161415856Y-140118328D02*
X161558713Y-140189757D01*
X161558713Y-140189757D02*
X161630142Y-140332614D01*
X161630142Y-140332614D02*
X161630142Y-141118328D01*
D12*
X134286000Y-133137100D02*
X134286000Y-142826420D01*
X175260000Y-133137100D02*
X175260000Y-142826420D01*
X134286000Y-142240000D02*
X175260000Y-142240000D01*
X134286000Y-142240000D02*
X175260000Y-142240000D01*
X134286000Y-142240000D02*
X135412504Y-141653579D01*
X134286000Y-142240000D02*
X135412504Y-142826421D01*
X175260000Y-142240000D02*
X174133496Y-142826421D01*
X175260000Y-142240000D02*
X174133496Y-141653579D01*
D13*
%TO.P,U4,1,3V3*%
%TO.N,+3.3V*%
X167462200Y-123180000D03*
D14*
%TO.P,U4,2,EN*%
%TO.N,unconnected-(U4-EN-Pad2)*%
X167462200Y-120640000D03*
%TO.P,U4,3,SENSOR_VP*%
%TO.N,/IO36{slash}DRIVE1*%
X167462200Y-118100000D03*
%TO.P,U4,4,SENSOR_VN*%
%TO.N,/IO39{slash}EN3.5*%
X167462200Y-115560000D03*
%TO.P,U4,5,IO34*%
%TO.N,/IO34{slash}PH2*%
X167462200Y-113020000D03*
%TO.P,U4,6,IO35*%
%TO.N,/IO35{slash}PH3*%
X167462200Y-110480000D03*
%TO.P,U4,7,IO32*%
%TO.N,/IO32{slash}PH0{slash}REQ*%
X167462200Y-107940000D03*
%TO.P,U4,8,IO33*%
%TO.N,/IO33{slash}PH1*%
X167462200Y-105400000D03*
%TO.P,U4,9,IO25*%
%TO.N,/IO25{slash}BUF_EN*%
X167462200Y-102860000D03*
%TO.P,U4,10,IO26*%
%TO.N,/IO26{slash}WREQ*%
X167462200Y-100320000D03*
%TO.P,U4,11,IO27*%
%TO.N,/IO27{slash}WRPROT{slash}ACK*%
X167462200Y-97780000D03*
%TO.P,U4,12,IO14*%
%TO.N,/IO14{slash}RDDATA*%
X167462200Y-95240000D03*
%TO.P,U4,13,IO12*%
%TO.N,/IO12{slash}BUS_LED*%
X167462200Y-92700000D03*
%TO.P,U4,14,GND1*%
%TO.N,GND*%
X167462200Y-90160000D03*
%TO.P,U4,15,IO13*%
%TO.N,/IO13{slash}HDSEL*%
X167462200Y-87620000D03*
%TO.P,U4,16,SD2*%
%TO.N,unconnected-(U4-SD2-Pad16)*%
X167462200Y-85080000D03*
%TO.P,U4,17,SD3*%
%TO.N,unconnected-(U4-SD3-Pad17)*%
X167462200Y-82540000D03*
%TO.P,U4,18,CMD*%
%TO.N,unconnected-(U4-CMD-Pad18)*%
X167462200Y-80000000D03*
%TO.P,U4,19,EXT_5V*%
%TO.N,+5V*%
X167462200Y-77460000D03*
%TO.P,U4,20,CLK*%
%TO.N,unconnected-(U4-CLK-Pad20)*%
X142062200Y-77460000D03*
%TO.P,U4,21,SD0*%
%TO.N,unconnected-(U4-SD0-Pad21)*%
X142062200Y-80000000D03*
%TO.P,U4,22,SD1*%
%TO.N,unconnected-(U4-SD1-Pad22)*%
X142062200Y-82540000D03*
%TO.P,U4,23,IO15*%
%TO.N,/IO15{slash}CD*%
X142062200Y-85080000D03*
%TO.P,U4,24,IO2*%
%TO.N,/IO2{slash}WIFI_LED*%
X142062200Y-87620000D03*
%TO.P,U4,25,IO0*%
%TO.N,/IO0*%
X142062200Y-90160000D03*
%TO.P,U4,26,IO4*%
%TO.N,/IO4{slash}SAFE_RESET*%
X142062200Y-92700000D03*
%TO.P,U4,27,IO16*%
%TO.N,unconnected-(U4-IO16-Pad27)*%
X142062200Y-95240000D03*
%TO.P,U4,28,IO17*%
%TO.N,unconnected-(U4-IO17-Pad28)*%
X142062200Y-97780000D03*
%TO.P,U4,29,IO5*%
%TO.N,/IO5{slash}SPI_CS*%
X142062200Y-100320000D03*
%TO.P,U4,30,IO18*%
%TO.N,/IO18{slash}SPI_CLK*%
X142062200Y-102860000D03*
%TO.P,U4,31,IO19*%
%TO.N,/IO19{slash}SPI_MISO*%
X142062200Y-105400000D03*
%TO.P,U4,32,GND2*%
%TO.N,GND*%
X142062200Y-107940000D03*
%TO.P,U4,33,IO21*%
%TO.N,/IO21{slash}DRV2*%
X142062200Y-110480000D03*
%TO.P,U4,34,RXD0*%
%TO.N,unconnected-(U4-RXD0-Pad34)*%
X142062200Y-113020000D03*
%TO.P,U4,35,TXD0*%
%TO.N,unconnected-(U4-TXD0-Pad35)*%
X142062200Y-115560000D03*
%TO.P,U4,36,IO22*%
%TO.N,/IO22{slash}WRDATA*%
X142062200Y-118100000D03*
%TO.P,U4,37,IO23*%
%TO.N,/IO23{slash}SPI_MOSI*%
X142062200Y-120640000D03*
%TO.P,U4,38,GND3*%
%TO.N,GND*%
X142062200Y-123180000D03*
%TD*%
D15*
%TO.P,J1,1,Pin_1*%
%TO.N,GND*%
X166203000Y-126238000D03*
D16*
%TO.P,J1,2,Pin_2*%
%TO.N,/A2_PH0*%
X166203000Y-128778000D03*
%TO.P,J1,3,Pin_3*%
%TO.N,GND*%
X163663000Y-126238000D03*
%TO.P,J1,4,Pin_4*%
%TO.N,/A2_PH1*%
X163663000Y-128778000D03*
%TO.P,J1,5,Pin_5*%
%TO.N,GND*%
X161123000Y-126238000D03*
%TO.P,J1,6,Pin_6*%
%TO.N,/A2_PH2*%
X161123000Y-128778000D03*
%TO.P,J1,7,Pin_7*%
%TO.N,/A2_EN3.5*%
X158583000Y-126238000D03*
%TO.P,J1,8,Pin_8*%
%TO.N,/A2_PH3*%
X158583000Y-128778000D03*
%TO.P,J1,9,Pin_9*%
%TO.N,unconnected-(J1-Pin_9-Pad9)*%
X156043000Y-126238000D03*
%TO.P,J1,10,Pin_10*%
%TO.N,/A2_WREQ*%
X156043000Y-128778000D03*
%TO.P,J1,11,Pin_11*%
%TO.N,/A2_5V*%
X153503000Y-126238000D03*
%TO.P,J1,12,Pin_12*%
%TO.N,/A2_HDSEL*%
X153503000Y-128778000D03*
%TO.P,J1,13,Pin_13*%
%TO.N,unconnected-(J1-Pin_13-Pad13)*%
X150963000Y-126238000D03*
%TO.P,J1,14,Pin_14*%
%TO.N,/A2_DRIVE1*%
X150963000Y-128778000D03*
%TO.P,J1,15,Pin_15*%
%TO.N,unconnected-(J1-Pin_15-Pad15)*%
X148423000Y-126238000D03*
%TO.P,J1,16,Pin_16*%
%TO.N,/A2_RD_DATA*%
X148423000Y-128778000D03*
%TO.P,J1,17,Pin_17*%
%TO.N,/DRIVE2*%
X145883000Y-126238000D03*
%TO.P,J1,18,Pin_18*%
%TO.N,/A2_WR_DATA*%
X145883000Y-128778000D03*
%TO.P,J1,19,Pin_19*%
%TO.N,unconnected-(J1-Pin_19-Pad19)*%
X143343000Y-126238000D03*
%TO.P,J1,20,Pin_20*%
%TO.N,/A2_WPROT*%
X143343000Y-128778000D03*
%TD*%
D17*
%TO.P,D1,1,K*%
%TO.N,Net-(D1-K)*%
X170815000Y-82296000D03*
D18*
%TO.P,D1,2,A*%
%TO.N,+3.3V*%
X173355000Y-82296000D03*
%TD*%
D17*
%TO.P,D2,1,K*%
%TO.N,Net-(D2-K)*%
X136271000Y-82296000D03*
D18*
%TO.P,D2,2,A*%
%TO.N,/IO12{slash}BUS_LED*%
X138811000Y-82296000D03*
%TD*%
D19*
%TO.N,GND*%
X168402000Y-128397000D03*
X140208000Y-112395000D03*
X153035000Y-114173000D03*
X160401000Y-79629000D03*
X135763000Y-130937000D03*
X144526000Y-78486000D03*
X164084000Y-78359000D03*
X173736000Y-131064000D03*
X159474500Y-113030000D03*
X158003000Y-89400000D03*
X144653000Y-87757000D03*
X171958000Y-121920000D03*
X164465000Y-87630000D03*
X141605000Y-127508000D03*
X174117000Y-119761000D03*
X146431000Y-114173000D03*
X149479000Y-88011000D03*
X146939000Y-80391000D03*
X154051000Y-96012000D03*
X173990000Y-123444000D03*
X155575000Y-94904000D03*
X135382000Y-123825000D03*
%TO.N,+5V*%
X163720059Y-122537941D03*
D20*
X171831000Y-101346000D03*
D19*
X151384000Y-122555000D03*
X158115000Y-122555000D03*
X168849500Y-119380000D03*
%TO.N,/IO5{slash}SPI_CS*%
X143637000Y-96139000D03*
X148840655Y-96082760D03*
%TO.N,/IO23{slash}SPI_MOSI*%
X143637000Y-99949000D03*
X151257000Y-98933000D03*
%TO.N,/IO12{slash}BUS_LED*%
X144780000Y-90932000D03*
%TO.N,/IO18{slash}SPI_CLK*%
X157480000Y-100838000D03*
%TO.N,/IO19{slash}SPI_MISO*%
X160020000Y-101727000D03*
%TO.N,+3.3V*%
X161290000Y-94179500D03*
X152400000Y-94179500D03*
X163830000Y-94179500D03*
X139700000Y-109220000D03*
X147320000Y-94179500D03*
D20*
X165862000Y-91313000D03*
D19*
X163195000Y-116840000D03*
X156845000Y-116840000D03*
X150454501Y-116840000D03*
X150368000Y-109220000D03*
X158750000Y-94179500D03*
D20*
X156210000Y-91313000D03*
D19*
X149860000Y-94179500D03*
%TO.N,/DRIVE2*%
X144399000Y-124714000D03*
%TO.N,/IO0*%
X170688000Y-99187000D03*
X145161000Y-99822000D03*
%TO.N,/IO15{slash}CD*%
X161290000Y-85090000D03*
%TO.N,/IO2{slash}WIFI_LED*%
X165862000Y-86360000D03*
%TO.N,/IO25{slash}BUF_EN*%
X152908000Y-119888000D03*
X146558000Y-119888000D03*
X160020000Y-102870000D03*
X159385000Y-119888000D03*
%TO.N,/IO32{slash}PH0{slash}REQ*%
X162560000Y-108039500D03*
%TO.N,/IO33{slash}PH1*%
X161798000Y-105410000D03*
%TO.N,/IO34{slash}PH2*%
X161073500Y-113030000D03*
%TO.N,/IO35{slash}PH3*%
X160274000Y-110490000D03*
%TO.N,/IO39{slash}EN3.5*%
X156269502Y-114046000D03*
%TO.N,/IO26{slash}WREQ*%
X155575000Y-107315000D03*
X166243000Y-107188000D03*
%TO.N,/IO13{slash}HDSEL*%
X154305000Y-109093000D03*
X163576000Y-109093000D03*
%TO.N,/IO36{slash}DRIVE1*%
X149733000Y-118237000D03*
%TO.N,/IO14{slash}RDDATA*%
X148900000Y-97080500D03*
%TO.N,/IO22{slash}WRDATA*%
X148463000Y-118110000D03*
%TO.N,/IO27{slash}WRPROT{slash}ACK*%
X147828000Y-97790000D03*
%TO.N,/A2_5V*%
X151384000Y-103505000D03*
X144361500Y-104394000D03*
D20*
X169418000Y-124079000D03*
D19*
X136271000Y-120015000D03*
X144399000Y-121920000D03*
%TD*%
D21*
%TO.N,GND*%
X166203000Y-126238000D02*
X168148000Y-126238000D01*
X161123000Y-126238000D02*
X163663000Y-126238000D01*
X163663000Y-126238000D02*
X166203000Y-126238000D01*
D22*
%TO.N,+5V*%
X169291000Y-78867000D02*
X169291000Y-85471000D01*
X167884000Y-77460000D02*
X169291000Y-78867000D01*
X171831000Y-98986497D02*
X171831000Y-101346000D01*
X170053000Y-97208497D02*
X171831000Y-98986497D01*
D23*
X158115000Y-122555000D02*
X163703000Y-122555000D01*
D22*
X170053000Y-86233000D02*
X170053000Y-97208497D01*
X167462200Y-77460000D02*
X167884000Y-77460000D01*
D23*
X151384000Y-122555000D02*
X158115000Y-122555000D01*
D22*
X169291000Y-85471000D02*
X170053000Y-86233000D01*
D23*
X163703000Y-122555000D02*
X163720059Y-122537941D01*
X166878000Y-119380000D02*
X163720059Y-122537941D01*
X168849500Y-119380000D02*
X166878000Y-119380000D01*
D24*
%TO.N,/IO5{slash}SPI_CS*%
X148840655Y-96082760D02*
X143693240Y-96082760D01*
X143693240Y-96082760D02*
X143637000Y-96139000D01*
%TO.N,/IO23{slash}SPI_MOSI*%
X151257000Y-98933000D02*
X144653000Y-98933000D01*
X144653000Y-98933000D02*
X143637000Y-99949000D01*
%TO.N,/IO12{slash}BUS_LED*%
X167462200Y-92700000D02*
X166944200Y-93218000D01*
X166944200Y-93218000D02*
X147066000Y-93218000D01*
X147066000Y-93218000D02*
X144780000Y-90932000D01*
%TO.N,/IO18{slash}SPI_CLK*%
X157480000Y-100838000D02*
X144084200Y-100838000D01*
X144084200Y-100838000D02*
X142062200Y-102860000D01*
%TO.N,/IO19{slash}SPI_MISO*%
X159893000Y-101854000D02*
X145608200Y-101854000D01*
X160020000Y-101727000D02*
X159893000Y-101854000D01*
X145608200Y-101854000D02*
X142062200Y-105400000D01*
%TO.N,+3.3V*%
X139700000Y-109220000D02*
X150368000Y-109220000D01*
X152400000Y-94179500D02*
X158750000Y-94179500D01*
X158750000Y-94179500D02*
X161290000Y-94179500D01*
X161290000Y-94179500D02*
X163830000Y-94179500D01*
X147320000Y-94179500D02*
X149860000Y-94179500D01*
X149860000Y-94179500D02*
X152400000Y-94179500D01*
D23*
X156778049Y-116906951D02*
X156845000Y-116840000D01*
D22*
X165862000Y-91313000D02*
X156210000Y-91313000D01*
D23*
X150454501Y-116840000D02*
X150521452Y-116906951D01*
X150521452Y-116906951D02*
X156778049Y-116906951D01*
X156845000Y-116840000D02*
X163195000Y-116840000D01*
D24*
%TO.N,/DRIVE2*%
X145883000Y-126238000D02*
X145883000Y-126198000D01*
X145883000Y-126198000D02*
X144399000Y-124714000D01*
%TO.N,/IO0*%
X151393305Y-99822000D02*
X145161000Y-99822000D01*
X152155305Y-99060000D02*
X151393305Y-99822000D01*
X170561000Y-99060000D02*
X152155305Y-99060000D01*
X170688000Y-99187000D02*
X170561000Y-99060000D01*
%TO.N,/IO15{slash}CD*%
X142062200Y-85080000D02*
X161280000Y-85080000D01*
X161280000Y-85080000D02*
X161290000Y-85090000D01*
%TO.N,/IO2{slash}WIFI_LED*%
X143867200Y-85815000D02*
X161417000Y-85815000D01*
X142062200Y-87620000D02*
X143867200Y-85815000D01*
X161417000Y-85815000D02*
X161962000Y-86360000D01*
X161962000Y-86360000D02*
X165862000Y-86360000D01*
%TO.N,/IO25{slash}BUF_EN*%
X152908000Y-119888000D02*
X146558000Y-119888000D01*
X159385000Y-119888000D02*
X152908000Y-119888000D01*
D25*
X160030000Y-102860000D02*
X160020000Y-102870000D01*
X167462200Y-102860000D02*
X160030000Y-102860000D01*
D24*
%TO.N,/IO32{slash}PH0{slash}REQ*%
X162560000Y-108039500D02*
X167362700Y-108039500D01*
%TO.N,/IO33{slash}PH1*%
X161808000Y-105400000D02*
X167462200Y-105400000D01*
X161798000Y-105410000D02*
X161808000Y-105400000D01*
%TO.N,/IO34{slash}PH2*%
X161073500Y-113030000D02*
X161083500Y-113020000D01*
X161083500Y-113020000D02*
X167462200Y-113020000D01*
%TO.N,/IO35{slash}PH3*%
X160284000Y-110480000D02*
X167462200Y-110480000D01*
X160274000Y-110490000D02*
X160284000Y-110480000D01*
%TO.N,/IO39{slash}EN3.5*%
X156269502Y-114046000D02*
X165948200Y-114046000D01*
X165948200Y-114046000D02*
X167462200Y-115560000D01*
%TO.N,/IO26{slash}WREQ*%
X155575000Y-107315000D02*
X166116000Y-107315000D01*
X166116000Y-107315000D02*
X166243000Y-107188000D01*
%TO.N,/IO13{slash}HDSEL*%
X163576000Y-109093000D02*
X154305000Y-109093000D01*
D25*
%TO.N,/IO36{slash}DRIVE1*%
X149733000Y-118237000D02*
X149870000Y-118100000D01*
X149870000Y-118100000D02*
X167462200Y-118100000D01*
%TO.N,/IO14{slash}RDDATA*%
X148900000Y-97080500D02*
X165621700Y-97080500D01*
X165621700Y-97080500D02*
X167462200Y-95240000D01*
D24*
%TO.N,/IO22{slash}WRDATA*%
X148453000Y-118100000D02*
X148463000Y-118110000D01*
X142062200Y-118100000D02*
X148453000Y-118100000D01*
D25*
%TO.N,/IO27{slash}WRPROT{slash}ACK*%
X147828000Y-97790000D02*
X147838000Y-97780000D01*
X147838000Y-97780000D02*
X167462200Y-97780000D01*
D26*
%TO.N,/A2_5V*%
X153503000Y-126238000D02*
X149185000Y-121920000D01*
X149185000Y-121920000D02*
X144399000Y-121920000D01*
X144399000Y-121920000D02*
X138176000Y-121920000D01*
D22*
X168910000Y-124587000D02*
X155154000Y-124587000D01*
D26*
X144399000Y-121920000D02*
X144589000Y-121730000D01*
D22*
X169418000Y-124079000D02*
X168910000Y-124587000D01*
D26*
X138176000Y-121920000D02*
X136271000Y-120015000D01*
X145250500Y-103505000D02*
X144361500Y-104394000D01*
D22*
X155154000Y-124587000D02*
X153503000Y-126238000D01*
D26*
X151384000Y-103505000D02*
X145250500Y-103505000D01*
%TD*%
%TA.AperFunction,Conductor*%
%TO.N,GND*%
G36*
X141661689Y-76030702D02*
G01*
X141708182Y-76084358D01*
X141718286Y-76154632D01*
X141688792Y-76219212D01*
X141629066Y-76257596D01*
X141626190Y-76258403D01*
X141625975Y-76258461D01*
X141624974Y-76258729D01*
X141624969Y-76258731D01*
X141423021Y-76352901D01*
X141240482Y-76480716D01*
X141240478Y-76480719D01*
X141082919Y-76638278D01*
X141082916Y-76638282D01*
X140955101Y-76820821D01*
X140860931Y-77022769D01*
X140860929Y-77022774D01*
X140859980Y-77026317D01*
X140803256Y-77238014D01*
X140783835Y-77460000D01*
X140803256Y-77681986D01*
X140821420Y-77749774D01*
X140860929Y-77897225D01*
X140860931Y-77897230D01*
X140955102Y-78099182D01*
X141082918Y-78281720D01*
X141240479Y-78439281D01*
X141240482Y-78439283D01*
X141240483Y-78439284D01*
X141423017Y-78567097D01*
X141527472Y-78615805D01*
X141580757Y-78662722D01*
X141600218Y-78730999D01*
X141579676Y-78798959D01*
X141527472Y-78844195D01*
X141423021Y-78892901D01*
X141240482Y-79020716D01*
X141240478Y-79020719D01*
X141082919Y-79178278D01*
X141082916Y-79178282D01*
X140955101Y-79360821D01*
X140860931Y-79562769D01*
X140860929Y-79562774D01*
X140818709Y-79720341D01*
X140803256Y-79778014D01*
X140783835Y-80000000D01*
X140803256Y-80221986D01*
X140834163Y-80337332D01*
X140860929Y-80437225D01*
X140860931Y-80437230D01*
X140955102Y-80639182D01*
X141082918Y-80821720D01*
X141240479Y-80979281D01*
X141240482Y-80979283D01*
X141240483Y-80979284D01*
X141423017Y-81107097D01*
X141527472Y-81155805D01*
X141580757Y-81202722D01*
X141600218Y-81270999D01*
X141579676Y-81338959D01*
X141527472Y-81384195D01*
X141423021Y-81432901D01*
X141240482Y-81560716D01*
X141240478Y-81560719D01*
X141082919Y-81718278D01*
X141082916Y-81718282D01*
X140955101Y-81900821D01*
X140860931Y-82102769D01*
X140860929Y-82102774D01*
X140818709Y-82260341D01*
X140803256Y-82318014D01*
X140783835Y-82540000D01*
X140803256Y-82761986D01*
X140834163Y-82877332D01*
X140860929Y-82977225D01*
X140860931Y-82977230D01*
X140955102Y-83179182D01*
X141082918Y-83361720D01*
X141240479Y-83519281D01*
X141240482Y-83519283D01*
X141240483Y-83519284D01*
X141423017Y-83647097D01*
X141527472Y-83695805D01*
X141580757Y-83742722D01*
X141600218Y-83810999D01*
X141579676Y-83878959D01*
X141527472Y-83924195D01*
X141423021Y-83972901D01*
X141240482Y-84100716D01*
X141240478Y-84100719D01*
X141082919Y-84258278D01*
X141082916Y-84258282D01*
X140955101Y-84440821D01*
X140860931Y-84642769D01*
X140860929Y-84642774D01*
X140818709Y-84800341D01*
X140803256Y-84858014D01*
X140783835Y-85080000D01*
X140803256Y-85301986D01*
X140834163Y-85417332D01*
X140860929Y-85517225D01*
X140860931Y-85517230D01*
X140955102Y-85719182D01*
X141082918Y-85901720D01*
X141240479Y-86059281D01*
X141240482Y-86059283D01*
X141240483Y-86059284D01*
X141423017Y-86187097D01*
X141527472Y-86235805D01*
X141580757Y-86282722D01*
X141600218Y-86350999D01*
X141579676Y-86418959D01*
X141527472Y-86464195D01*
X141423021Y-86512901D01*
X141240482Y-86640716D01*
X141240478Y-86640719D01*
X141082919Y-86798278D01*
X141082916Y-86798282D01*
X140955101Y-86980821D01*
X140860931Y-87182769D01*
X140860929Y-87182774D01*
X140818709Y-87340341D01*
X140803256Y-87398014D01*
X140783835Y-87620000D01*
X140803256Y-87841986D01*
X140834163Y-87957332D01*
X140860929Y-88057225D01*
X140860931Y-88057230D01*
X140955102Y-88259182D01*
X141082918Y-88441720D01*
X141240479Y-88599281D01*
X141240482Y-88599283D01*
X141240483Y-88599284D01*
X141423017Y-88727097D01*
X141527472Y-88775805D01*
X141580757Y-88822722D01*
X141600218Y-88890999D01*
X141579676Y-88958959D01*
X141527472Y-89004195D01*
X141423021Y-89052901D01*
X141423018Y-89052902D01*
X141423018Y-89052903D01*
X141400083Y-89068962D01*
X141240482Y-89180716D01*
X141240478Y-89180719D01*
X141082919Y-89338278D01*
X141082916Y-89338282D01*
X140955101Y-89520821D01*
X140860931Y-89722769D01*
X140860929Y-89722774D01*
X140818709Y-89880341D01*
X140803256Y-89938014D01*
X140783835Y-90160000D01*
X140803256Y-90381986D01*
X140806759Y-90395058D01*
X140860929Y-90597225D01*
X140860931Y-90597230D01*
X140955102Y-90799182D01*
X141082918Y-90981720D01*
X141240479Y-91139281D01*
X141240482Y-91139283D01*
X141240483Y-91139284D01*
X141423017Y-91267097D01*
X141527472Y-91315805D01*
X141580757Y-91362722D01*
X141600218Y-91430999D01*
X141579676Y-91498959D01*
X141527472Y-91544195D01*
X141423021Y-91592901D01*
X141240482Y-91720716D01*
X141240478Y-91720719D01*
X141082919Y-91878278D01*
X141082916Y-91878282D01*
X140955101Y-92060821D01*
X140860931Y-92262769D01*
X140860929Y-92262774D01*
X140847481Y-92312965D01*
X140803256Y-92478014D01*
X140783835Y-92700000D01*
X140803256Y-92921986D01*
X140834163Y-93037332D01*
X140860929Y-93137225D01*
X140860931Y-93137230D01*
X140955102Y-93339182D01*
X141082918Y-93521720D01*
X141240479Y-93679281D01*
X141240482Y-93679283D01*
X141240483Y-93679284D01*
X141423017Y-93807097D01*
X141527472Y-93855805D01*
X141580757Y-93902722D01*
X141600218Y-93970999D01*
X141579676Y-94038959D01*
X141527472Y-94084195D01*
X141423021Y-94132901D01*
X141240482Y-94260716D01*
X141240478Y-94260719D01*
X141082919Y-94418278D01*
X141082916Y-94418282D01*
X140955101Y-94600821D01*
X140860931Y-94802769D01*
X140860929Y-94802774D01*
X140818709Y-94960341D01*
X140803256Y-95018014D01*
X140783835Y-95240000D01*
X140803256Y-95461986D01*
X140825716Y-95545808D01*
X140860929Y-95677225D01*
X140860931Y-95677230D01*
X140955102Y-95879182D01*
X141082918Y-96061720D01*
X141240479Y-96219281D01*
X141240482Y-96219283D01*
X141240483Y-96219284D01*
X141423017Y-96347097D01*
X141527472Y-96395805D01*
X141580757Y-96442722D01*
X141600218Y-96510999D01*
X141579676Y-96578959D01*
X141527472Y-96624195D01*
X141423021Y-96672901D01*
X141240482Y-96800716D01*
X141240478Y-96800719D01*
X141082919Y-96958278D01*
X141082916Y-96958282D01*
X140955101Y-97140821D01*
X140860931Y-97342769D01*
X140860929Y-97342774D01*
X140820509Y-97493626D01*
X140803256Y-97558014D01*
X140783835Y-97780000D01*
X140803256Y-98001986D01*
X140834163Y-98117332D01*
X140860929Y-98217225D01*
X140860931Y-98217230D01*
X140955102Y-98419182D01*
X141082918Y-98601720D01*
X141240479Y-98759281D01*
X141240482Y-98759283D01*
X141240483Y-98759284D01*
X141423017Y-98887097D01*
X141527472Y-98935805D01*
X141580757Y-98982722D01*
X141600218Y-99050999D01*
X141579676Y-99118959D01*
X141527472Y-99164195D01*
X141423021Y-99212901D01*
X141240482Y-99340716D01*
X141240478Y-99340719D01*
X141082919Y-99498278D01*
X141082916Y-99498282D01*
X140955101Y-99680821D01*
X140860931Y-99882769D01*
X140860929Y-99882774D01*
X140837770Y-99969206D01*
X140803256Y-100098014D01*
X140783835Y-100320000D01*
X140803256Y-100541986D01*
X140831682Y-100648072D01*
X140860929Y-100757225D01*
X140860931Y-100757230D01*
X140955102Y-100959182D01*
X141082918Y-101141720D01*
X141240479Y-101299281D01*
X141240482Y-101299283D01*
X141240483Y-101299284D01*
X141423017Y-101427097D01*
X141527472Y-101475805D01*
X141580757Y-101522722D01*
X141600218Y-101590999D01*
X141579676Y-101658959D01*
X141527472Y-101704195D01*
X141423021Y-101752901D01*
X141240482Y-101880716D01*
X141240478Y-101880719D01*
X141082919Y-102038278D01*
X141082916Y-102038282D01*
X140955101Y-102220821D01*
X140860931Y-102422769D01*
X140860929Y-102422774D01*
X140833354Y-102525686D01*
X140803256Y-102638014D01*
X140783835Y-102860000D01*
X140803256Y-103081986D01*
X140834163Y-103197332D01*
X140860929Y-103297225D01*
X140860931Y-103297230D01*
X140955102Y-103499182D01*
X141082918Y-103681720D01*
X141240479Y-103839281D01*
X141240482Y-103839283D01*
X141240483Y-103839284D01*
X141423017Y-103967097D01*
X141527472Y-104015805D01*
X141580757Y-104062722D01*
X141600218Y-104130999D01*
X141579676Y-104198959D01*
X141527472Y-104244195D01*
X141423021Y-104292901D01*
X141240482Y-104420716D01*
X141240478Y-104420719D01*
X141082919Y-104578278D01*
X141082916Y-104578282D01*
X140955101Y-104760821D01*
X140860931Y-104962769D01*
X140860929Y-104962774D01*
X140833254Y-105066060D01*
X140803256Y-105178014D01*
X140783835Y-105400000D01*
X140803256Y-105621986D01*
X140834163Y-105737332D01*
X140860929Y-105837225D01*
X140860931Y-105837230D01*
X140955102Y-106039182D01*
X141082918Y-106221720D01*
X141240479Y-106379281D01*
X141240482Y-106379283D01*
X141240483Y-106379284D01*
X141423017Y-106507097D01*
X141528064Y-106556081D01*
X141581349Y-106602998D01*
X141600810Y-106671275D01*
X141580268Y-106739235D01*
X141528065Y-106784470D01*
X141423270Y-106833337D01*
X141423268Y-106833338D01*
X141359439Y-106878030D01*
X141925779Y-107444370D01*
X141917039Y-107445627D01*
X141783638Y-107506549D01*
X141672805Y-107602587D01*
X141593518Y-107725960D01*
X141569782Y-107806792D01*
X141000230Y-107237239D01*
X140955539Y-107301067D01*
X140861403Y-107502942D01*
X140861401Y-107502946D01*
X140803751Y-107718102D01*
X140784337Y-107940000D01*
X140803751Y-108161897D01*
X140861401Y-108377053D01*
X140861405Y-108377062D01*
X140875482Y-108407251D01*
X140886143Y-108477442D01*
X140857163Y-108542255D01*
X140797743Y-108581111D01*
X140761287Y-108586500D01*
X140408200Y-108586500D01*
X140340079Y-108566498D01*
X140314563Y-108544810D01*
X140311252Y-108541133D01*
X140156752Y-108428882D01*
X139982288Y-108351206D01*
X139795487Y-108311500D01*
X139604513Y-108311500D01*
X139417711Y-108351206D01*
X139243247Y-108428882D01*
X139088744Y-108541135D01*
X138960965Y-108683048D01*
X138960958Y-108683058D01*
X138865476Y-108848438D01*
X138865473Y-108848445D01*
X138806457Y-109030072D01*
X138786496Y-109220000D01*
X138806457Y-109409927D01*
X138824207Y-109464554D01*
X138865473Y-109591556D01*
X138865476Y-109591561D01*
X138960958Y-109756941D01*
X138960965Y-109756951D01*
X139088744Y-109898864D01*
X139140972Y-109936810D01*
X139243248Y-110011118D01*
X139417712Y-110088794D01*
X139604513Y-110128500D01*
X139795487Y-110128500D01*
X139982288Y-110088794D01*
X140156752Y-110011118D01*
X140311253Y-109898866D01*
X140314563Y-109895190D01*
X140375009Y-109857950D01*
X140408200Y-109853500D01*
X140751409Y-109853500D01*
X140819530Y-109873502D01*
X140866023Y-109927158D01*
X140876127Y-109997432D01*
X140865603Y-110032751D01*
X140860933Y-110042765D01*
X140860929Y-110042774D01*
X140837959Y-110128500D01*
X140803256Y-110258014D01*
X140783835Y-110480000D01*
X140803256Y-110701986D01*
X140834163Y-110817332D01*
X140860929Y-110917225D01*
X140860931Y-110917230D01*
X140955102Y-111119182D01*
X141082918Y-111301720D01*
X141240479Y-111459281D01*
X141240482Y-111459283D01*
X141240483Y-111459284D01*
X141423017Y-111587097D01*
X141527472Y-111635805D01*
X141580757Y-111682722D01*
X141600218Y-111750999D01*
X141579676Y-111818959D01*
X141527472Y-111864195D01*
X141423021Y-111912901D01*
X141240482Y-112040716D01*
X141240478Y-112040719D01*
X141082919Y-112198278D01*
X141082916Y-112198282D01*
X140955101Y-112380821D01*
X140860931Y-112582769D01*
X140860929Y-112582774D01*
X140818709Y-112740341D01*
X140803256Y-112798014D01*
X140783835Y-113020000D01*
X140803256Y-113241986D01*
X140823766Y-113318531D01*
X140860929Y-113457225D01*
X140860931Y-113457230D01*
X140955102Y-113659182D01*
X141082918Y-113841720D01*
X141240479Y-113999281D01*
X141240482Y-113999283D01*
X141240483Y-113999284D01*
X141423017Y-114127097D01*
X141527472Y-114175805D01*
X141580757Y-114222722D01*
X141600218Y-114290999D01*
X141579676Y-114358959D01*
X141527472Y-114404195D01*
X141423021Y-114452901D01*
X141240482Y-114580716D01*
X141240478Y-114580719D01*
X141082919Y-114738278D01*
X141082916Y-114738282D01*
X140955101Y-114920821D01*
X140860931Y-115122769D01*
X140860929Y-115122774D01*
X140833064Y-115226768D01*
X140803256Y-115338014D01*
X140783835Y-115560000D01*
X140803256Y-115781986D01*
X140834163Y-115897332D01*
X140860929Y-115997225D01*
X140860931Y-115997230D01*
X140955102Y-116199182D01*
X141082918Y-116381720D01*
X141240479Y-116539281D01*
X141240482Y-116539283D01*
X141240483Y-116539284D01*
X141423017Y-116667097D01*
X141527472Y-116715805D01*
X141580757Y-116762722D01*
X141600218Y-116830999D01*
X141579676Y-116898959D01*
X141527472Y-116944195D01*
X141423021Y-116992901D01*
X141240482Y-117120716D01*
X141240478Y-117120719D01*
X141082919Y-117278278D01*
X141082916Y-117278282D01*
X140955101Y-117460821D01*
X140860931Y-117662769D01*
X140860929Y-117662774D01*
X140818709Y-117820341D01*
X140803256Y-117878014D01*
X140783835Y-118100000D01*
X140803256Y-118321986D01*
X140804752Y-118327568D01*
X140860929Y-118537225D01*
X140860931Y-118537230D01*
X140955102Y-118739182D01*
X141082918Y-118921720D01*
X141240479Y-119079281D01*
X141240482Y-119079283D01*
X141240483Y-119079284D01*
X141423017Y-119207097D01*
X141527472Y-119255805D01*
X141580757Y-119302722D01*
X141600218Y-119370999D01*
X141579676Y-119438959D01*
X141527472Y-119484195D01*
X141423021Y-119532901D01*
X141240482Y-119660716D01*
X141240478Y-119660719D01*
X141082919Y-119818278D01*
X141082916Y-119818282D01*
X140955101Y-120000821D01*
X140860931Y-120202769D01*
X140860929Y-120202774D01*
X140837959Y-120288500D01*
X140803256Y-120418014D01*
X140783835Y-120640000D01*
X140803256Y-120861986D01*
X140844963Y-121017636D01*
X140854409Y-121052889D01*
X140852719Y-121123865D01*
X140812925Y-121182661D01*
X140747660Y-121210609D01*
X140732702Y-121211500D01*
X138521660Y-121211500D01*
X138453539Y-121191498D01*
X138432565Y-121174595D01*
X137205664Y-119947694D01*
X137171638Y-119885382D01*
X137169449Y-119871767D01*
X137164542Y-119825075D01*
X137164541Y-119825069D01*
X137162334Y-119818278D01*
X137105527Y-119643444D01*
X137010040Y-119478056D01*
X137010038Y-119478054D01*
X137010034Y-119478048D01*
X136882255Y-119336135D01*
X136727752Y-119223882D01*
X136553288Y-119146206D01*
X136366487Y-119106500D01*
X136175513Y-119106500D01*
X135988711Y-119146206D01*
X135814247Y-119223882D01*
X135659744Y-119336135D01*
X135531965Y-119478048D01*
X135531958Y-119478058D01*
X135436476Y-119643438D01*
X135436473Y-119643445D01*
X135377457Y-119825072D01*
X135357496Y-120015000D01*
X135377457Y-120204927D01*
X135404612Y-120288500D01*
X135436473Y-120386556D01*
X135436476Y-120386561D01*
X135531958Y-120551941D01*
X135531965Y-120551951D01*
X135659744Y-120693864D01*
X135659747Y-120693866D01*
X135814248Y-120806118D01*
X135988712Y-120883794D01*
X136141570Y-120916285D01*
X136204041Y-120950012D01*
X136204466Y-120950436D01*
X137658533Y-122404503D01*
X137661119Y-122407249D01*
X137702727Y-122454215D01*
X137754348Y-122489846D01*
X137757395Y-122492088D01*
X137806774Y-122530775D01*
X137816070Y-122534958D01*
X137835935Y-122546163D01*
X137844320Y-122551951D01*
X137844322Y-122551952D01*
X137844325Y-122551954D01*
X137844329Y-122551955D01*
X137844332Y-122551957D01*
X137859692Y-122557782D01*
X137902968Y-122574194D01*
X137906473Y-122575646D01*
X137963671Y-122601389D01*
X137973704Y-122603227D01*
X137995668Y-122609351D01*
X138005196Y-122612964D01*
X138005199Y-122612965D01*
X138067470Y-122620525D01*
X138071193Y-122621092D01*
X138132908Y-122632402D01*
X138195519Y-122628614D01*
X138199319Y-122628500D01*
X140727861Y-122628500D01*
X140795982Y-122648502D01*
X140842475Y-122702158D01*
X140852579Y-122772432D01*
X140849568Y-122787111D01*
X140803751Y-122958102D01*
X140784337Y-123180000D01*
X140803751Y-123401897D01*
X140861401Y-123617053D01*
X140861403Y-123617058D01*
X140955540Y-123818937D01*
X140955541Y-123818938D01*
X141000228Y-123882758D01*
X141000230Y-123882758D01*
X141569782Y-123313206D01*
X141593518Y-123394040D01*
X141672805Y-123517413D01*
X141783638Y-123613451D01*
X141917039Y-123674373D01*
X141925779Y-123675629D01*
X141359440Y-124241968D01*
X141359440Y-124241969D01*
X141423267Y-124286661D01*
X141625141Y-124380796D01*
X141625146Y-124380798D01*
X141840302Y-124438448D01*
X142062200Y-124457862D01*
X142284097Y-124438448D01*
X142499253Y-124380798D01*
X142499258Y-124380796D01*
X142701131Y-124286662D01*
X142764958Y-124241969D01*
X142764958Y-124241967D01*
X142198620Y-123675629D01*
X142207361Y-123674373D01*
X142340762Y-123613451D01*
X142451595Y-123517413D01*
X142530882Y-123394040D01*
X142554616Y-123313207D01*
X143124167Y-123882758D01*
X143124169Y-123882758D01*
X143168862Y-123818931D01*
X143262996Y-123617058D01*
X143262998Y-123617053D01*
X143320648Y-123401897D01*
X143340062Y-123180000D01*
X143320648Y-122958102D01*
X143274832Y-122787111D01*
X143276522Y-122716134D01*
X143316316Y-122657339D01*
X143381581Y-122629391D01*
X143396539Y-122628500D01*
X143787595Y-122628500D01*
X143855716Y-122648502D01*
X143861655Y-122652563D01*
X143942248Y-122711118D01*
X144116712Y-122788794D01*
X144303513Y-122828500D01*
X144494487Y-122828500D01*
X144681288Y-122788794D01*
X144855752Y-122711118D01*
X144936344Y-122652563D01*
X145003212Y-122628706D01*
X145010405Y-122628500D01*
X148839340Y-122628500D01*
X148907461Y-122648502D01*
X148928435Y-122665405D01*
X150927961Y-124664931D01*
X150961987Y-124727243D01*
X150956922Y-124798058D01*
X150914375Y-124854894D01*
X150855346Y-124877297D01*
X150855571Y-124878643D01*
X150850435Y-124879500D01*
X150850431Y-124879500D01*
X150700959Y-124904442D01*
X150628369Y-124916555D01*
X150628360Y-124916557D01*
X150415428Y-124989656D01*
X150415426Y-124989658D01*
X150238453Y-125085431D01*
X150217426Y-125096810D01*
X150217424Y-125096811D01*
X150039762Y-125235091D01*
X149887279Y-125400729D01*
X149798483Y-125536643D01*
X149744479Y-125582731D01*
X149674131Y-125592306D01*
X149609774Y-125562329D01*
X149587517Y-125536643D01*
X149498720Y-125400729D01*
X149346237Y-125235091D01*
X149264382Y-125171381D01*
X149168576Y-125096811D01*
X148970574Y-124989658D01*
X148970572Y-124989657D01*
X148970571Y-124989656D01*
X148757639Y-124916557D01*
X148757630Y-124916555D01*
X148713476Y-124909187D01*
X148535569Y-124879500D01*
X148310431Y-124879500D01*
X148165335Y-124903712D01*
X148088369Y-124916555D01*
X148088360Y-124916557D01*
X147875428Y-124989656D01*
X147875426Y-124989658D01*
X147698453Y-125085431D01*
X147677426Y-125096810D01*
X147677424Y-125096811D01*
X147499762Y-125235091D01*
X147347279Y-125400729D01*
X147258483Y-125536643D01*
X147204479Y-125582731D01*
X147134131Y-125592306D01*
X147069774Y-125562329D01*
X147047517Y-125536643D01*
X146958720Y-125400729D01*
X146806237Y-125235091D01*
X146724382Y-125171381D01*
X146628576Y-125096811D01*
X146430574Y-124989658D01*
X146430572Y-124989657D01*
X146430571Y-124989656D01*
X146217639Y-124916557D01*
X146217630Y-124916555D01*
X146173476Y-124909187D01*
X145995569Y-124879500D01*
X145770431Y-124879500D01*
X145672698Y-124895808D01*
X145568712Y-124913160D01*
X145498228Y-124904642D01*
X145458879Y-124877974D01*
X145405441Y-124824536D01*
X145346120Y-124765215D01*
X145312096Y-124702905D01*
X145309908Y-124689306D01*
X145292542Y-124524072D01*
X145233527Y-124342444D01*
X145138040Y-124177056D01*
X145138038Y-124177054D01*
X145138034Y-124177048D01*
X145010255Y-124035135D01*
X144855752Y-123922882D01*
X144681288Y-123845206D01*
X144494487Y-123805500D01*
X144303513Y-123805500D01*
X144116711Y-123845206D01*
X143942247Y-123922882D01*
X143787744Y-124035135D01*
X143659965Y-124177048D01*
X143659958Y-124177058D01*
X143564476Y-124342438D01*
X143564473Y-124342445D01*
X143505457Y-124524072D01*
X143485496Y-124714001D01*
X143488263Y-124740332D01*
X143475490Y-124810170D01*
X143426987Y-124862016D01*
X143362953Y-124879500D01*
X143230431Y-124879500D01*
X143085335Y-124903712D01*
X143008369Y-124916555D01*
X143008360Y-124916557D01*
X142795428Y-124989656D01*
X142795426Y-124989658D01*
X142618453Y-125085431D01*
X142597426Y-125096810D01*
X142597424Y-125096811D01*
X142419762Y-125235091D01*
X142267279Y-125400729D01*
X142267275Y-125400734D01*
X142144141Y-125589206D01*
X142053703Y-125795386D01*
X142053702Y-125795387D01*
X141998437Y-126013624D01*
X141998436Y-126013630D01*
X141998436Y-126013632D01*
X141979844Y-126238000D01*
X141997232Y-126447844D01*
X141998437Y-126462375D01*
X142053702Y-126680612D01*
X142053703Y-126680613D01*
X142144141Y-126886793D01*
X142267275Y-127075265D01*
X142267279Y-127075270D01*
X142419762Y-127240908D01*
X142474331Y-127283381D01*
X142597424Y-127379189D01*
X142630153Y-127396901D01*
X142630680Y-127397186D01*
X142681071Y-127447200D01*
X142696423Y-127516516D01*
X142671862Y-127583129D01*
X142630680Y-127618813D01*
X142597426Y-127636810D01*
X142597424Y-127636811D01*
X142419762Y-127775091D01*
X142267279Y-127940729D01*
X142267275Y-127940734D01*
X142144141Y-128129206D01*
X142053703Y-128335386D01*
X142053702Y-128335387D01*
X141998437Y-128553624D01*
X141998436Y-128553630D01*
X141998436Y-128553632D01*
X141984029Y-128727500D01*
X141979844Y-128778000D01*
X141998437Y-129002375D01*
X142053702Y-129220612D01*
X142053703Y-129220613D01*
X142144141Y-129426793D01*
X142267275Y-129615265D01*
X142267279Y-129615270D01*
X142419762Y-129780908D01*
X142474331Y-129823381D01*
X142597424Y-129919189D01*
X142795426Y-130026342D01*
X142795427Y-130026342D01*
X142795428Y-130026343D01*
X142907227Y-130064723D01*
X143008365Y-130099444D01*
X143230431Y-130136500D01*
X143230435Y-130136500D01*
X143455565Y-130136500D01*
X143455569Y-130136500D01*
X143677635Y-130099444D01*
X143890574Y-130026342D01*
X144088576Y-129919189D01*
X144266240Y-129780906D01*
X144418722Y-129615268D01*
X144507518Y-129479354D01*
X144561520Y-129433268D01*
X144631868Y-129423692D01*
X144696225Y-129453669D01*
X144718480Y-129479353D01*
X144751607Y-129530058D01*
X144807275Y-129615265D01*
X144807279Y-129615270D01*
X144959762Y-129780908D01*
X145014331Y-129823381D01*
X145137424Y-129919189D01*
X145335426Y-130026342D01*
X145335427Y-130026342D01*
X145335428Y-130026343D01*
X145447227Y-130064723D01*
X145548365Y-130099444D01*
X145770431Y-130136500D01*
X145770435Y-130136500D01*
X145995565Y-130136500D01*
X145995569Y-130136500D01*
X146217635Y-130099444D01*
X146430574Y-130026342D01*
X146628576Y-129919189D01*
X146806240Y-129780906D01*
X146958722Y-129615268D01*
X147047518Y-129479354D01*
X147101520Y-129433268D01*
X147171868Y-129423692D01*
X147236225Y-129453669D01*
X147258480Y-129479353D01*
X147291607Y-129530058D01*
X147347275Y-129615265D01*
X147347279Y-129615270D01*
X147499762Y-129780908D01*
X147554331Y-129823381D01*
X147677424Y-129919189D01*
X147875426Y-130026342D01*
X147875427Y-130026342D01*
X147875428Y-130026343D01*
X147987227Y-130064723D01*
X148088365Y-130099444D01*
X148310431Y-130136500D01*
X148310435Y-130136500D01*
X148535565Y-130136500D01*
X148535569Y-130136500D01*
X148757635Y-130099444D01*
X148970574Y-130026342D01*
X149168576Y-129919189D01*
X149346240Y-129780906D01*
X149498722Y-129615268D01*
X149587518Y-129479354D01*
X149641520Y-129433268D01*
X149711868Y-129423692D01*
X149776225Y-129453669D01*
X149798480Y-129479353D01*
X149831607Y-129530058D01*
X149887275Y-129615265D01*
X149887279Y-129615270D01*
X150039762Y-129780908D01*
X150094331Y-129823381D01*
X150217424Y-129919189D01*
X150415426Y-130026342D01*
X150415427Y-130026342D01*
X150415428Y-130026343D01*
X150527227Y-130064723D01*
X150628365Y-130099444D01*
X150850431Y-130136500D01*
X150850435Y-130136500D01*
X151075565Y-130136500D01*
X151075569Y-130136500D01*
X151297635Y-130099444D01*
X151510574Y-130026342D01*
X151708576Y-129919189D01*
X151886240Y-129780906D01*
X152038722Y-129615268D01*
X152127518Y-129479354D01*
X152181520Y-129433268D01*
X152251868Y-129423692D01*
X152316225Y-129453669D01*
X152338480Y-129479353D01*
X152371607Y-129530058D01*
X152427275Y-129615265D01*
X152427279Y-129615270D01*
X152579762Y-129780908D01*
X152634331Y-129823381D01*
X152757424Y-129919189D01*
X152955426Y-130026342D01*
X152955427Y-130026342D01*
X152955428Y-130026343D01*
X153067227Y-130064723D01*
X153168365Y-130099444D01*
X153390431Y-130136500D01*
X153390435Y-130136500D01*
X153615565Y-130136500D01*
X153615569Y-130136500D01*
X153837635Y-130099444D01*
X154050574Y-130026342D01*
X154248576Y-129919189D01*
X154426240Y-129780906D01*
X154578722Y-129615268D01*
X154667518Y-129479354D01*
X154721520Y-129433268D01*
X154791868Y-129423692D01*
X154856225Y-129453669D01*
X154878480Y-129479353D01*
X154911607Y-129530058D01*
X154967275Y-129615265D01*
X154967279Y-129615270D01*
X155119762Y-129780908D01*
X155174331Y-129823381D01*
X155297424Y-129919189D01*
X155495426Y-130026342D01*
X155495427Y-130026342D01*
X155495428Y-130026343D01*
X155607227Y-130064723D01*
X155708365Y-130099444D01*
X155930431Y-130136500D01*
X155930435Y-130136500D01*
X156155565Y-130136500D01*
X156155569Y-130136500D01*
X156377635Y-130099444D01*
X156590574Y-130026342D01*
X156788576Y-129919189D01*
X156966240Y-129780906D01*
X157118722Y-129615268D01*
X157207518Y-129479354D01*
X157261520Y-129433268D01*
X157331868Y-129423692D01*
X157396225Y-129453669D01*
X157418480Y-129479353D01*
X157451607Y-129530058D01*
X157507275Y-129615265D01*
X157507279Y-129615270D01*
X157659762Y-129780908D01*
X157714331Y-129823381D01*
X157837424Y-129919189D01*
X158035426Y-130026342D01*
X158035427Y-130026342D01*
X158035428Y-130026343D01*
X158147227Y-130064723D01*
X158248365Y-130099444D01*
X158470431Y-130136500D01*
X158470435Y-130136500D01*
X158695565Y-130136500D01*
X158695569Y-130136500D01*
X158917635Y-130099444D01*
X159130574Y-130026342D01*
X159328576Y-129919189D01*
X159506240Y-129780906D01*
X159658722Y-129615268D01*
X159747518Y-129479354D01*
X159801520Y-129433268D01*
X159871868Y-129423692D01*
X159936225Y-129453669D01*
X159958480Y-129479353D01*
X159991607Y-129530058D01*
X160047275Y-129615265D01*
X160047279Y-129615270D01*
X160199762Y-129780908D01*
X160254331Y-129823381D01*
X160377424Y-129919189D01*
X160575426Y-130026342D01*
X160575427Y-130026342D01*
X160575428Y-130026343D01*
X160687227Y-130064723D01*
X160788365Y-130099444D01*
X161010431Y-130136500D01*
X161010435Y-130136500D01*
X161235565Y-130136500D01*
X161235569Y-130136500D01*
X161457635Y-130099444D01*
X161670574Y-130026342D01*
X161868576Y-129919189D01*
X162046240Y-129780906D01*
X162198722Y-129615268D01*
X162287518Y-129479354D01*
X162341520Y-129433268D01*
X162411868Y-129423692D01*
X162476225Y-129453669D01*
X162498480Y-129479353D01*
X162531607Y-129530058D01*
X162587275Y-129615265D01*
X162587279Y-129615270D01*
X162739762Y-129780908D01*
X162794331Y-129823381D01*
X162917424Y-129919189D01*
X163115426Y-130026342D01*
X163115427Y-130026342D01*
X163115428Y-130026343D01*
X163227227Y-130064723D01*
X163328365Y-130099444D01*
X163550431Y-130136500D01*
X163550435Y-130136500D01*
X163775565Y-130136500D01*
X163775569Y-130136500D01*
X163997635Y-130099444D01*
X164210574Y-130026342D01*
X164408576Y-129919189D01*
X164586240Y-129780906D01*
X164738722Y-129615268D01*
X164827518Y-129479354D01*
X164881520Y-129433268D01*
X164951868Y-129423692D01*
X165016225Y-129453669D01*
X165038480Y-129479353D01*
X165071607Y-129530058D01*
X165127275Y-129615265D01*
X165127279Y-129615270D01*
X165279762Y-129780908D01*
X165334331Y-129823381D01*
X165457424Y-129919189D01*
X165655426Y-130026342D01*
X165655427Y-130026342D01*
X165655428Y-130026343D01*
X165767227Y-130064723D01*
X165868365Y-130099444D01*
X166090431Y-130136500D01*
X166090435Y-130136500D01*
X166315565Y-130136500D01*
X166315569Y-130136500D01*
X166537635Y-130099444D01*
X166750574Y-130026342D01*
X166948576Y-129919189D01*
X167126240Y-129780906D01*
X167278722Y-129615268D01*
X167401860Y-129426791D01*
X167492296Y-129220616D01*
X167547564Y-129002368D01*
X167566156Y-128778000D01*
X167547564Y-128553632D01*
X167492296Y-128335384D01*
X167401860Y-128129209D01*
X167395140Y-128118924D01*
X167278724Y-127940734D01*
X167278720Y-127940729D01*
X167126237Y-127775091D01*
X167090961Y-127747635D01*
X167049490Y-127690010D01*
X167045756Y-127619111D01*
X167080946Y-127557449D01*
X167119524Y-127534156D01*
X167118873Y-127532760D01*
X167125521Y-127529659D01*
X167276339Y-127436634D01*
X167276345Y-127436629D01*
X167401629Y-127311345D01*
X167401634Y-127311339D01*
X167494657Y-127160525D01*
X167505766Y-127127000D01*
X170225551Y-127127000D01*
X170245317Y-127378148D01*
X170245466Y-127378768D01*
X170304126Y-127623109D01*
X170367079Y-127775090D01*
X170400534Y-127855859D01*
X170452544Y-127940732D01*
X170532165Y-128070660D01*
X170532166Y-128070662D01*
X170695775Y-128262224D01*
X170887337Y-128425833D01*
X170887341Y-128425836D01*
X171102141Y-128557466D01*
X171334889Y-128653873D01*
X171579852Y-128712683D01*
X171732155Y-128724669D01*
X171768115Y-128727500D01*
X171768118Y-128727500D01*
X171893885Y-128727500D01*
X171927692Y-128724839D01*
X172082148Y-128712683D01*
X172327111Y-128653873D01*
X172559859Y-128557466D01*
X172774659Y-128425836D01*
X172966224Y-128262224D01*
X173129836Y-128070659D01*
X173261466Y-127855859D01*
X173357873Y-127623111D01*
X173416683Y-127378148D01*
X173436449Y-127127000D01*
X173416683Y-126875852D01*
X173357873Y-126630889D01*
X173261466Y-126398141D01*
X173129836Y-126183341D01*
X173129833Y-126183337D01*
X172966224Y-125991775D01*
X172774662Y-125828166D01*
X172774660Y-125828165D01*
X172774659Y-125828164D01*
X172559859Y-125696534D01*
X172327111Y-125600127D01*
X172327109Y-125600126D01*
X172159536Y-125559896D01*
X172082148Y-125541317D01*
X172022760Y-125536643D01*
X171893885Y-125526500D01*
X171893882Y-125526500D01*
X171768118Y-125526500D01*
X171768115Y-125526500D01*
X171579852Y-125541317D01*
X171334890Y-125600126D01*
X171102142Y-125696533D01*
X170887339Y-125828165D01*
X170887337Y-125828166D01*
X170695775Y-125991775D01*
X170532166Y-126183337D01*
X170532165Y-126183339D01*
X170400533Y-126398142D01*
X170304126Y-126630890D01*
X170278412Y-126738000D01*
X170245317Y-126875852D01*
X170225551Y-127127000D01*
X167505766Y-127127000D01*
X167550393Y-126992321D01*
X167550394Y-126992318D01*
X167560999Y-126888516D01*
X167561000Y-126888516D01*
X167561000Y-126492000D01*
X166634116Y-126492000D01*
X166662493Y-126447844D01*
X166703000Y-126309889D01*
X166703000Y-126166111D01*
X166662493Y-126028156D01*
X166634116Y-125984000D01*
X167561000Y-125984000D01*
X167561000Y-125587494D01*
X167560675Y-125584316D01*
X167573645Y-125514514D01*
X167622294Y-125462805D01*
X167686022Y-125445500D01*
X168872554Y-125445500D01*
X168877662Y-125445707D01*
X168903932Y-125447846D01*
X168933381Y-125450245D01*
X168933382Y-125450244D01*
X168933385Y-125450245D01*
X169014379Y-125439209D01*
X169095640Y-125430372D01*
X169095641Y-125430371D01*
X169095646Y-125430371D01*
X169097304Y-125430006D01*
X169116727Y-125425454D01*
X169118405Y-125425037D01*
X169118406Y-125425036D01*
X169118410Y-125425036D01*
X169171724Y-125405448D01*
X169195130Y-125396850D01*
X169220952Y-125388149D01*
X169272600Y-125370748D01*
X169272606Y-125370743D01*
X169274116Y-125370045D01*
X169292116Y-125361420D01*
X169293681Y-125360643D01*
X169293690Y-125360641D01*
X169362560Y-125316620D01*
X169432605Y-125274476D01*
X169432607Y-125274473D01*
X169433977Y-125273432D01*
X169449726Y-125261120D01*
X169451024Y-125260075D01*
X169451031Y-125260072D01*
X169508854Y-125202248D01*
X169568174Y-125146058D01*
X169568180Y-125146048D01*
X169569287Y-125144746D01*
X169583233Y-125127868D01*
X169625672Y-125085429D01*
X169678187Y-125053952D01*
X169805804Y-125015241D01*
X169981004Y-124921595D01*
X170134568Y-124795568D01*
X170260595Y-124642004D01*
X170354241Y-124466804D01*
X170411908Y-124276701D01*
X170421723Y-124177056D01*
X170431380Y-124079003D01*
X170431380Y-124078996D01*
X170411909Y-123881305D01*
X170411908Y-123881303D01*
X170411908Y-123881299D01*
X170354241Y-123691196D01*
X170260595Y-123515996D01*
X170134568Y-123362432D01*
X169981004Y-123236405D01*
X169805804Y-123142759D01*
X169615701Y-123085092D01*
X169615700Y-123085091D01*
X169615694Y-123085090D01*
X169418003Y-123065620D01*
X169417997Y-123065620D01*
X169220305Y-123085090D01*
X169030197Y-123142758D01*
X168921095Y-123201074D01*
X168851589Y-123215545D01*
X168785293Y-123190141D01*
X168743256Y-123132927D01*
X168735700Y-123089951D01*
X168735700Y-122366367D01*
X168735699Y-122366350D01*
X168729190Y-122305803D01*
X168729188Y-122305795D01*
X168678089Y-122168797D01*
X168678087Y-122168792D01*
X168590461Y-122051738D01*
X168473407Y-121964112D01*
X168473402Y-121964110D01*
X168336404Y-121913011D01*
X168336396Y-121913009D01*
X168275849Y-121906500D01*
X168275838Y-121906500D01*
X168273351Y-121906500D01*
X168272797Y-121906337D01*
X168272472Y-121906320D01*
X168272476Y-121906243D01*
X168205230Y-121886498D01*
X168158737Y-121832842D01*
X168148633Y-121762568D01*
X168178127Y-121697988D01*
X168201076Y-121677290D01*
X168283917Y-121619284D01*
X168441484Y-121461717D01*
X168569297Y-121279183D01*
X168663470Y-121077227D01*
X168721144Y-120861986D01*
X168740565Y-120640000D01*
X168721797Y-120425480D01*
X168735786Y-120355877D01*
X168785186Y-120304884D01*
X168847318Y-120288500D01*
X168944987Y-120288500D01*
X169131788Y-120248794D01*
X169306252Y-120171118D01*
X169460753Y-120058866D01*
X169588540Y-119916944D01*
X169684027Y-119751556D01*
X169743042Y-119569928D01*
X169763004Y-119380000D01*
X169743042Y-119190072D01*
X169684027Y-119008444D01*
X169588540Y-118843056D01*
X169588538Y-118843054D01*
X169588534Y-118843048D01*
X169460755Y-118701135D01*
X169306252Y-118588882D01*
X169131788Y-118511206D01*
X168944987Y-118471500D01*
X168844941Y-118471500D01*
X168776820Y-118451498D01*
X168730327Y-118397842D01*
X168720223Y-118327568D01*
X168720857Y-118323611D01*
X168721143Y-118321988D01*
X168721144Y-118321986D01*
X168740565Y-118100000D01*
X168721144Y-117878014D01*
X168663470Y-117662773D01*
X168569297Y-117460818D01*
X168441484Y-117278283D01*
X168441483Y-117278282D01*
X168441480Y-117278278D01*
X168283920Y-117120718D01*
X168247255Y-117095045D01*
X168101383Y-116992903D01*
X168101379Y-116992901D01*
X168101378Y-116992900D01*
X167996928Y-116944195D01*
X167943642Y-116897278D01*
X167924181Y-116829001D01*
X167944722Y-116761041D01*
X167996928Y-116715805D01*
X168030800Y-116700009D01*
X168101383Y-116667097D01*
X168283917Y-116539284D01*
X168441484Y-116381717D01*
X168569297Y-116199183D01*
X168663470Y-115997227D01*
X168721144Y-115781986D01*
X168740565Y-115560000D01*
X168721144Y-115338014D01*
X168663470Y-115122773D01*
X168569297Y-114920818D01*
X168441484Y-114738283D01*
X168441483Y-114738282D01*
X168441480Y-114738278D01*
X168283920Y-114580718D01*
X168247255Y-114555045D01*
X168101383Y-114452903D01*
X168101379Y-114452901D01*
X168101378Y-114452900D01*
X167996928Y-114404195D01*
X167943642Y-114357278D01*
X167924181Y-114289001D01*
X167944722Y-114221041D01*
X167996928Y-114175805D01*
X168030800Y-114160009D01*
X168101383Y-114127097D01*
X168283917Y-113999284D01*
X168441484Y-113841717D01*
X168569297Y-113659183D01*
X168663470Y-113457227D01*
X168721144Y-113241986D01*
X168740565Y-113020000D01*
X168721144Y-112798014D01*
X168663470Y-112582773D01*
X168569297Y-112380818D01*
X168441484Y-112198283D01*
X168441483Y-112198282D01*
X168441480Y-112198278D01*
X168283920Y-112040718D01*
X168247255Y-112015045D01*
X168101383Y-111912903D01*
X168101379Y-111912901D01*
X168101378Y-111912900D01*
X167996928Y-111864195D01*
X167943642Y-111817278D01*
X167924181Y-111749001D01*
X167944722Y-111681041D01*
X167996928Y-111635805D01*
X168030800Y-111620009D01*
X168101383Y-111587097D01*
X168283917Y-111459284D01*
X168441484Y-111301717D01*
X168569297Y-111119183D01*
X168663470Y-110917227D01*
X168721144Y-110701986D01*
X168740565Y-110480000D01*
X168721144Y-110258014D01*
X168663470Y-110042773D01*
X168569297Y-109840818D01*
X168441484Y-109658283D01*
X168441483Y-109658282D01*
X168441480Y-109658278D01*
X168283920Y-109500718D01*
X168232273Y-109464554D01*
X168101383Y-109372903D01*
X168101379Y-109372901D01*
X168101378Y-109372900D01*
X167996928Y-109324195D01*
X167943642Y-109277278D01*
X167924181Y-109209001D01*
X167944722Y-109141041D01*
X167996928Y-109095805D01*
X168030800Y-109080009D01*
X168101383Y-109047097D01*
X168283917Y-108919284D01*
X168441484Y-108761717D01*
X168569297Y-108579183D01*
X168663470Y-108377227D01*
X168721144Y-108161986D01*
X168740565Y-107940000D01*
X168721144Y-107718014D01*
X168663470Y-107502773D01*
X168569297Y-107300818D01*
X168441484Y-107118283D01*
X168441483Y-107118282D01*
X168441480Y-107118278D01*
X168283920Y-106960718D01*
X168165829Y-106878029D01*
X168101383Y-106832903D01*
X168101381Y-106832902D01*
X168101378Y-106832900D01*
X167996928Y-106784195D01*
X167943642Y-106737278D01*
X167924181Y-106669001D01*
X167944722Y-106601041D01*
X167996928Y-106555805D01*
X168030800Y-106540009D01*
X168101383Y-106507097D01*
X168283917Y-106379284D01*
X168441484Y-106221717D01*
X168569297Y-106039183D01*
X168663470Y-105837227D01*
X168721144Y-105621986D01*
X168740565Y-105400000D01*
X168721144Y-105178014D01*
X168663470Y-104962773D01*
X168569297Y-104760818D01*
X168441484Y-104578283D01*
X168441483Y-104578282D01*
X168441480Y-104578278D01*
X168283920Y-104420718D01*
X168105974Y-104296118D01*
X168101383Y-104292903D01*
X168101379Y-104292901D01*
X168101378Y-104292900D01*
X167996928Y-104244195D01*
X167943642Y-104197278D01*
X167924181Y-104129001D01*
X167944722Y-104061041D01*
X167996928Y-104015805D01*
X168030800Y-104000009D01*
X168101383Y-103967097D01*
X168283917Y-103839284D01*
X168441484Y-103681717D01*
X168569297Y-103499183D01*
X168663470Y-103297227D01*
X168721144Y-103081986D01*
X168740565Y-102860000D01*
X168721144Y-102638014D01*
X168663470Y-102422773D01*
X168569297Y-102220818D01*
X168441484Y-102038283D01*
X168441483Y-102038282D01*
X168441480Y-102038278D01*
X168283920Y-101880718D01*
X168247255Y-101855045D01*
X168101383Y-101752903D01*
X168101379Y-101752901D01*
X168101378Y-101752900D01*
X167996928Y-101704195D01*
X167943642Y-101657278D01*
X167924181Y-101589001D01*
X167944722Y-101521041D01*
X167996928Y-101475805D01*
X168030800Y-101460009D01*
X168101383Y-101427097D01*
X168283917Y-101299284D01*
X168441484Y-101141717D01*
X168569297Y-100959183D01*
X168663470Y-100757227D01*
X168721144Y-100541986D01*
X168740565Y-100320000D01*
X168721144Y-100098014D01*
X168663470Y-99882773D01*
X168658797Y-99872751D01*
X168648135Y-99802560D01*
X168677114Y-99737747D01*
X168736533Y-99698890D01*
X168772991Y-99693500D01*
X169865449Y-99693500D01*
X169933570Y-99713502D01*
X169959085Y-99735190D01*
X170076744Y-99865864D01*
X170136140Y-99909018D01*
X170231248Y-99978118D01*
X170405712Y-100055794D01*
X170592513Y-100095500D01*
X170783490Y-100095500D01*
X170820301Y-100087675D01*
X170891092Y-100093076D01*
X170947725Y-100135892D01*
X170972220Y-100202529D01*
X170972500Y-100210921D01*
X170972500Y-100781190D01*
X170957622Y-100840585D01*
X170894760Y-100958191D01*
X170894759Y-100958194D01*
X170837090Y-101148305D01*
X170817620Y-101345996D01*
X170817620Y-101346003D01*
X170837090Y-101543694D01*
X170837091Y-101543700D01*
X170837092Y-101543701D01*
X170894759Y-101733804D01*
X170988405Y-101909004D01*
X171114432Y-102062568D01*
X171267996Y-102188595D01*
X171443196Y-102282241D01*
X171633299Y-102339908D01*
X171633303Y-102339908D01*
X171633305Y-102339909D01*
X171830997Y-102359380D01*
X171831000Y-102359380D01*
X171831003Y-102359380D01*
X172028694Y-102339909D01*
X172028695Y-102339908D01*
X172028701Y-102339908D01*
X172218804Y-102282241D01*
X172394004Y-102188595D01*
X172547568Y-102062568D01*
X172673595Y-101909004D01*
X172767241Y-101733804D01*
X172824908Y-101543701D01*
X172826975Y-101522722D01*
X172844380Y-101346003D01*
X172844380Y-101345996D01*
X172824909Y-101148305D01*
X172824908Y-101148303D01*
X172824908Y-101148299D01*
X172767241Y-100958196D01*
X172767240Y-100958194D01*
X172767239Y-100958191D01*
X172704378Y-100840585D01*
X172689500Y-100781190D01*
X172689500Y-99023945D01*
X172689708Y-99018830D01*
X172694245Y-98963115D01*
X172694244Y-98963106D01*
X172683209Y-98882117D01*
X172674371Y-98800851D01*
X172674009Y-98799207D01*
X172669467Y-98779823D01*
X172669036Y-98778091D01*
X172669036Y-98778087D01*
X172640850Y-98701367D01*
X172614748Y-98623897D01*
X172614746Y-98623894D01*
X172614025Y-98622337D01*
X172605417Y-98604373D01*
X172604642Y-98602810D01*
X172604641Y-98602807D01*
X172560620Y-98533936D01*
X172518476Y-98463892D01*
X172518474Y-98463890D01*
X172517487Y-98462592D01*
X172505095Y-98446740D01*
X172504066Y-98445459D01*
X172446249Y-98387643D01*
X172390059Y-98328324D01*
X172388793Y-98327248D01*
X172371866Y-98313260D01*
X170948405Y-96889799D01*
X170914379Y-96827487D01*
X170911500Y-96800704D01*
X170911500Y-86270448D01*
X170911708Y-86265333D01*
X170916245Y-86209618D01*
X170916244Y-86209609D01*
X170905209Y-86128620D01*
X170898818Y-86069852D01*
X170896372Y-86047360D01*
X170896371Y-86047358D01*
X170896371Y-86047354D01*
X170896009Y-86045710D01*
X170891467Y-86026326D01*
X170891036Y-86024594D01*
X170891036Y-86024590D01*
X170862850Y-85947870D01*
X170853484Y-85920071D01*
X170836750Y-85870405D01*
X170836025Y-85868840D01*
X170827417Y-85850876D01*
X170826642Y-85849313D01*
X170826641Y-85849310D01*
X170782620Y-85780439D01*
X170740476Y-85710395D01*
X170740474Y-85710393D01*
X170739487Y-85709095D01*
X170727091Y-85693237D01*
X170726070Y-85691967D01*
X170668249Y-85634147D01*
X170612056Y-85574824D01*
X170610831Y-85573784D01*
X170593868Y-85559765D01*
X170186405Y-85152302D01*
X170152379Y-85089990D01*
X170149500Y-85063207D01*
X170149500Y-83830500D01*
X170169502Y-83762379D01*
X170223158Y-83715886D01*
X170275500Y-83704500D01*
X171763632Y-83704500D01*
X171763638Y-83704500D01*
X171763645Y-83704499D01*
X171763649Y-83704499D01*
X171824196Y-83697990D01*
X171824199Y-83697989D01*
X171824201Y-83697989D01*
X171830057Y-83695805D01*
X171843045Y-83690960D01*
X171961204Y-83646889D01*
X172078261Y-83559261D01*
X172165889Y-83442204D01*
X172189258Y-83379547D01*
X172231804Y-83322715D01*
X172298325Y-83297904D01*
X172367699Y-83312996D01*
X172393294Y-83332996D01*
X172393946Y-83332289D01*
X172397778Y-83335817D01*
X172442597Y-83370701D01*
X172581983Y-83479190D01*
X172787273Y-83590287D01*
X173008049Y-83666080D01*
X173238288Y-83704500D01*
X173238292Y-83704500D01*
X173471708Y-83704500D01*
X173471712Y-83704500D01*
X173701951Y-83666080D01*
X173922727Y-83590287D01*
X174128017Y-83479190D01*
X174312220Y-83335818D01*
X174324283Y-83322715D01*
X174470314Y-83164083D01*
X174486500Y-83139308D01*
X174597984Y-82968669D01*
X174691749Y-82754907D01*
X174711356Y-82677482D01*
X174747468Y-82616356D01*
X174810895Y-82584457D01*
X174881499Y-82591914D01*
X174936864Y-82636358D01*
X174959411Y-82703679D01*
X174959500Y-82708413D01*
X174959500Y-132210600D01*
X174939498Y-132278721D01*
X174885842Y-132325214D01*
X174833500Y-132336600D01*
X134712500Y-132336600D01*
X134644379Y-132316598D01*
X134597886Y-132262942D01*
X134586500Y-132210600D01*
X134586500Y-127127000D01*
X136189551Y-127127000D01*
X136209317Y-127378148D01*
X136209466Y-127378768D01*
X136268126Y-127623109D01*
X136331079Y-127775090D01*
X136364534Y-127855859D01*
X136416544Y-127940732D01*
X136496165Y-128070660D01*
X136496166Y-128070662D01*
X136659775Y-128262224D01*
X136851337Y-128425833D01*
X136851341Y-128425836D01*
X137066141Y-128557466D01*
X137298889Y-128653873D01*
X137543852Y-128712683D01*
X137696155Y-128724669D01*
X137732115Y-128727500D01*
X137732118Y-128727500D01*
X137857885Y-128727500D01*
X137891692Y-128724839D01*
X138046148Y-128712683D01*
X138291111Y-128653873D01*
X138523859Y-128557466D01*
X138738659Y-128425836D01*
X138930224Y-128262224D01*
X139093836Y-128070659D01*
X139225466Y-127855859D01*
X139321873Y-127623111D01*
X139380683Y-127378148D01*
X139400449Y-127127000D01*
X139380683Y-126875852D01*
X139321873Y-126630889D01*
X139225466Y-126398141D01*
X139093836Y-126183341D01*
X139093833Y-126183337D01*
X138930224Y-125991775D01*
X138738662Y-125828166D01*
X138738660Y-125828165D01*
X138738659Y-125828164D01*
X138523859Y-125696534D01*
X138291111Y-125600127D01*
X138291109Y-125600126D01*
X138123536Y-125559896D01*
X138046148Y-125541317D01*
X137986760Y-125536643D01*
X137857885Y-125526500D01*
X137857882Y-125526500D01*
X137732118Y-125526500D01*
X137732115Y-125526500D01*
X137543852Y-125541317D01*
X137298890Y-125600126D01*
X137066142Y-125696533D01*
X136851339Y-125828165D01*
X136851337Y-125828166D01*
X136659775Y-125991775D01*
X136496166Y-126183337D01*
X136496165Y-126183339D01*
X136364533Y-126398142D01*
X136268126Y-126630890D01*
X136242412Y-126738000D01*
X136209317Y-126875852D01*
X136189551Y-127127000D01*
X134586500Y-127127000D01*
X134586500Y-83244649D01*
X134862500Y-83244649D01*
X134869009Y-83305196D01*
X134869011Y-83305204D01*
X134920110Y-83442202D01*
X134920112Y-83442207D01*
X135007738Y-83559261D01*
X135124792Y-83646887D01*
X135124794Y-83646888D01*
X135124796Y-83646889D01*
X135152677Y-83657288D01*
X135261795Y-83697988D01*
X135261803Y-83697990D01*
X135322350Y-83704499D01*
X135322355Y-83704499D01*
X135322362Y-83704500D01*
X135322368Y-83704500D01*
X137219632Y-83704500D01*
X137219638Y-83704500D01*
X137219645Y-83704499D01*
X137219649Y-83704499D01*
X137280196Y-83697990D01*
X137280199Y-83697989D01*
X137280201Y-83697989D01*
X137286057Y-83695805D01*
X137299045Y-83690960D01*
X137417204Y-83646889D01*
X137534261Y-83559261D01*
X137621889Y-83442204D01*
X137645258Y-83379547D01*
X137687804Y-83322715D01*
X137754325Y-83297904D01*
X137823699Y-83312996D01*
X137849294Y-83332996D01*
X137849946Y-83332289D01*
X137853778Y-83335817D01*
X137898597Y-83370701D01*
X138037983Y-83479190D01*
X138243273Y-83590287D01*
X138464049Y-83666080D01*
X138694288Y-83704500D01*
X138694292Y-83704500D01*
X138927708Y-83704500D01*
X138927712Y-83704500D01*
X139157951Y-83666080D01*
X139378727Y-83590287D01*
X139584017Y-83479190D01*
X139768220Y-83335818D01*
X139780283Y-83322715D01*
X139926314Y-83164083D01*
X139942500Y-83139308D01*
X140053984Y-82968669D01*
X140147749Y-82754907D01*
X140205051Y-82528626D01*
X140224327Y-82296000D01*
X140205051Y-82063374D01*
X140163887Y-81900821D01*
X140147750Y-81837096D01*
X140147747Y-81837089D01*
X140095633Y-81718282D01*
X140053984Y-81623331D01*
X139990345Y-81525924D01*
X139926314Y-81427916D01*
X139768225Y-81256186D01*
X139768221Y-81256182D01*
X139676118Y-81184496D01*
X139584017Y-81112810D01*
X139378727Y-81001713D01*
X139378724Y-81001712D01*
X139378723Y-81001711D01*
X139157955Y-80925921D01*
X139157948Y-80925919D01*
X139059411Y-80909476D01*
X138927712Y-80887500D01*
X138694288Y-80887500D01*
X138579066Y-80906727D01*
X138464051Y-80925919D01*
X138464044Y-80925921D01*
X138243276Y-81001711D01*
X138243273Y-81001713D01*
X138037985Y-81112809D01*
X138037983Y-81112810D01*
X137853778Y-81256182D01*
X137849946Y-81259711D01*
X137848581Y-81258228D01*
X137795129Y-81290333D01*
X137724165Y-81288180D01*
X137665630Y-81248003D01*
X137645258Y-81212449D01*
X137621889Y-81149797D01*
X137621887Y-81149792D01*
X137534261Y-81032738D01*
X137417207Y-80945112D01*
X137417202Y-80945110D01*
X137280204Y-80894011D01*
X137280196Y-80894009D01*
X137219649Y-80887500D01*
X137219638Y-80887500D01*
X135322362Y-80887500D01*
X135322350Y-80887500D01*
X135261803Y-80894009D01*
X135261795Y-80894011D01*
X135124797Y-80945110D01*
X135124792Y-80945112D01*
X135007738Y-81032738D01*
X134920112Y-81149792D01*
X134920110Y-81149797D01*
X134869011Y-81286795D01*
X134869009Y-81286803D01*
X134862500Y-81347350D01*
X134862500Y-83244649D01*
X134586500Y-83244649D01*
X134586500Y-76136700D01*
X134606502Y-76068579D01*
X134660158Y-76022086D01*
X134712500Y-76010700D01*
X141593568Y-76010700D01*
X141661689Y-76030702D01*
G37*
%TD.AperFunction*%
%TA.AperFunction,Conductor*%
G36*
X160663507Y-126447844D02*
G01*
X160741239Y-126568798D01*
X160849900Y-126662952D01*
X160980685Y-126722680D01*
X160995412Y-126724797D01*
X160357310Y-127362898D01*
X160377694Y-127378763D01*
X160377700Y-127378768D01*
X160411206Y-127396900D01*
X160461597Y-127446913D01*
X160476949Y-127516230D01*
X160452389Y-127582843D01*
X160411209Y-127618526D01*
X160377430Y-127636806D01*
X160377424Y-127636811D01*
X160199762Y-127775091D01*
X160047279Y-127940729D01*
X159958483Y-128076643D01*
X159904479Y-128122731D01*
X159834131Y-128132306D01*
X159769774Y-128102329D01*
X159747517Y-128076643D01*
X159658720Y-127940729D01*
X159506237Y-127775091D01*
X159396925Y-127690010D01*
X159328576Y-127636811D01*
X159295319Y-127618813D01*
X159244929Y-127568802D01*
X159229576Y-127499485D01*
X159254136Y-127432872D01*
X159295320Y-127397186D01*
X159295847Y-127396901D01*
X159328576Y-127379189D01*
X159506240Y-127240906D01*
X159658722Y-127075268D01*
X159747816Y-126938898D01*
X159801819Y-126892810D01*
X159872167Y-126883235D01*
X159936524Y-126913212D01*
X159958782Y-126938898D01*
X159999921Y-127001866D01*
X159999923Y-127001866D01*
X160638638Y-126363150D01*
X160663507Y-126447844D01*
G37*
%TD.AperFunction*%
%TA.AperFunction,Conductor*%
G36*
X163203507Y-126447844D02*
G01*
X163281239Y-126568798D01*
X163389900Y-126662952D01*
X163520685Y-126722680D01*
X163535412Y-126724797D01*
X162897310Y-127362898D01*
X162917694Y-127378763D01*
X162917700Y-127378768D01*
X162951206Y-127396900D01*
X163001597Y-127446913D01*
X163016949Y-127516230D01*
X162992389Y-127582843D01*
X162951209Y-127618526D01*
X162917430Y-127636806D01*
X162917424Y-127636811D01*
X162739762Y-127775091D01*
X162587279Y-127940729D01*
X162498483Y-128076643D01*
X162444479Y-128122731D01*
X162374131Y-128132306D01*
X162309774Y-128102329D01*
X162287517Y-128076643D01*
X162198720Y-127940729D01*
X162046237Y-127775091D01*
X161936925Y-127690010D01*
X161868576Y-127636811D01*
X161834792Y-127618528D01*
X161784402Y-127568516D01*
X161769050Y-127499199D01*
X161793610Y-127432586D01*
X161834793Y-127396901D01*
X161868299Y-127378768D01*
X161868302Y-127378766D01*
X161888689Y-127362898D01*
X161250588Y-126724797D01*
X161265315Y-126722680D01*
X161396100Y-126662952D01*
X161504761Y-126568798D01*
X161582493Y-126447844D01*
X161607360Y-126363151D01*
X162246076Y-127001867D01*
X162287516Y-126938440D01*
X162341520Y-126892352D01*
X162411868Y-126882777D01*
X162476225Y-126912755D01*
X162498481Y-126938439D01*
X162539921Y-127001866D01*
X162539923Y-127001866D01*
X163178638Y-126363150D01*
X163203507Y-126447844D01*
G37*
%TD.AperFunction*%
%TA.AperFunction,Conductor*%
G36*
X164796832Y-127012623D02*
G01*
X164825429Y-127017894D01*
X164877209Y-127066467D01*
X164888211Y-127090721D01*
X164911340Y-127160521D01*
X165004365Y-127311339D01*
X165004370Y-127311345D01*
X165129654Y-127436629D01*
X165129660Y-127436634D01*
X165280478Y-127529659D01*
X165287127Y-127532760D01*
X165286189Y-127534771D01*
X165335640Y-127568999D01*
X165362905Y-127634551D01*
X165350402Y-127704438D01*
X165315039Y-127747634D01*
X165279763Y-127775090D01*
X165127279Y-127940729D01*
X165038483Y-128076643D01*
X164984479Y-128122731D01*
X164914131Y-128132306D01*
X164849774Y-128102329D01*
X164827517Y-128076643D01*
X164738720Y-127940729D01*
X164586237Y-127775091D01*
X164476925Y-127690010D01*
X164408576Y-127636811D01*
X164374792Y-127618528D01*
X164324402Y-127568516D01*
X164309050Y-127499199D01*
X164333610Y-127432586D01*
X164374793Y-127396901D01*
X164408299Y-127378768D01*
X164408302Y-127378766D01*
X164428689Y-127362898D01*
X163790588Y-126724797D01*
X163805315Y-126722680D01*
X163936100Y-126662952D01*
X164044761Y-126568798D01*
X164122493Y-126447844D01*
X164147360Y-126363151D01*
X164796832Y-127012623D01*
G37*
%TD.AperFunction*%
%TA.AperFunction,Conductor*%
G36*
X159083725Y-102507502D02*
G01*
X159130218Y-102561158D01*
X159140322Y-102631432D01*
X159135437Y-102652436D01*
X159126457Y-102680071D01*
X159106496Y-102870000D01*
X159126457Y-103059927D01*
X159133624Y-103081984D01*
X159185473Y-103241556D01*
X159185476Y-103241561D01*
X159280958Y-103406941D01*
X159280965Y-103406951D01*
X159408744Y-103548864D01*
X159408747Y-103548866D01*
X159563248Y-103661118D01*
X159737712Y-103738794D01*
X159924513Y-103778500D01*
X160115487Y-103778500D01*
X160302288Y-103738794D01*
X160476752Y-103661118D01*
X160631253Y-103548866D01*
X160631255Y-103548864D01*
X160666078Y-103510190D01*
X160726524Y-103472950D01*
X160759714Y-103468500D01*
X166268027Y-103468500D01*
X166336148Y-103488502D01*
X166371238Y-103522226D01*
X166482916Y-103681717D01*
X166482919Y-103681720D01*
X166482923Y-103681725D01*
X166640479Y-103839281D01*
X166640482Y-103839283D01*
X166640483Y-103839284D01*
X166823017Y-103967097D01*
X166927472Y-104015805D01*
X166980757Y-104062722D01*
X167000218Y-104130999D01*
X166979676Y-104198959D01*
X166927472Y-104244195D01*
X166823021Y-104292901D01*
X166640482Y-104420716D01*
X166640478Y-104420719D01*
X166482919Y-104578278D01*
X166482916Y-104578282D01*
X166388746Y-104712771D01*
X166333289Y-104757099D01*
X166285533Y-104766500D01*
X162496897Y-104766500D01*
X162428776Y-104746498D01*
X162412582Y-104734132D01*
X162409250Y-104731131D01*
X162254752Y-104618882D01*
X162080288Y-104541206D01*
X161893487Y-104501500D01*
X161702513Y-104501500D01*
X161515711Y-104541206D01*
X161341247Y-104618882D01*
X161186744Y-104731135D01*
X161058965Y-104873048D01*
X161058958Y-104873058D01*
X160963476Y-105038438D01*
X160963473Y-105038445D01*
X160904457Y-105220072D01*
X160884496Y-105410000D01*
X160904457Y-105599927D01*
X160911624Y-105621984D01*
X160963473Y-105781556D01*
X160963476Y-105781561D01*
X161058958Y-105946941D01*
X161058965Y-105946951D01*
X161186744Y-106088864D01*
X161186747Y-106088866D01*
X161341248Y-106201118D01*
X161515712Y-106278794D01*
X161702513Y-106318500D01*
X161893487Y-106318500D01*
X162080288Y-106278794D01*
X162254752Y-106201118D01*
X162409253Y-106088866D01*
X162421567Y-106075190D01*
X162482013Y-106037950D01*
X162515204Y-106033500D01*
X166106040Y-106033500D01*
X166174161Y-106053502D01*
X166220654Y-106107158D01*
X166230758Y-106177432D01*
X166201264Y-106242012D01*
X166141538Y-106280396D01*
X166132237Y-106282747D01*
X165960711Y-106319206D01*
X165786247Y-106396882D01*
X165631744Y-106509135D01*
X165514085Y-106639810D01*
X165453639Y-106677050D01*
X165420449Y-106681500D01*
X156283200Y-106681500D01*
X156215079Y-106661498D01*
X156189563Y-106639810D01*
X156186252Y-106636133D01*
X156031752Y-106523882D01*
X155857288Y-106446206D01*
X155670487Y-106406500D01*
X155479513Y-106406500D01*
X155292711Y-106446206D01*
X155118247Y-106523882D01*
X154963744Y-106636135D01*
X154835965Y-106778048D01*
X154835958Y-106778058D01*
X154740476Y-106943438D01*
X154740473Y-106943445D01*
X154681457Y-107125072D01*
X154661496Y-107315000D01*
X154681457Y-107504927D01*
X154706107Y-107580790D01*
X154740473Y-107686556D01*
X154740476Y-107686561D01*
X154835958Y-107851941D01*
X154835965Y-107851951D01*
X154963744Y-107993864D01*
X154963747Y-107993866D01*
X155118248Y-108106118D01*
X155292712Y-108183794D01*
X155413507Y-108209470D01*
X155417191Y-108210253D01*
X155479665Y-108243982D01*
X155513986Y-108306131D01*
X155509258Y-108376970D01*
X155466982Y-108434008D01*
X155400581Y-108459135D01*
X155390994Y-108459500D01*
X155013200Y-108459500D01*
X154945079Y-108439498D01*
X154919563Y-108417810D01*
X154916252Y-108414133D01*
X154761752Y-108301882D01*
X154587288Y-108224206D01*
X154400487Y-108184500D01*
X154209513Y-108184500D01*
X154022711Y-108224206D01*
X153848247Y-108301882D01*
X153693744Y-108414135D01*
X153565965Y-108556048D01*
X153565958Y-108556058D01*
X153470476Y-108721438D01*
X153470473Y-108721445D01*
X153411457Y-108903072D01*
X153391496Y-109093000D01*
X153411457Y-109282927D01*
X153440692Y-109372900D01*
X153470473Y-109464556D01*
X153470476Y-109464561D01*
X153565958Y-109629941D01*
X153565965Y-109629951D01*
X153693744Y-109771864D01*
X153693747Y-109771866D01*
X153848248Y-109884118D01*
X154022712Y-109961794D01*
X154209513Y-110001500D01*
X154400487Y-110001500D01*
X154587288Y-109961794D01*
X154761752Y-109884118D01*
X154916253Y-109771866D01*
X154919563Y-109768190D01*
X154980009Y-109730950D01*
X155013200Y-109726500D01*
X159455951Y-109726500D01*
X159524072Y-109746502D01*
X159570565Y-109800158D01*
X159580669Y-109870432D01*
X159551175Y-109935012D01*
X159549588Y-109936810D01*
X159534961Y-109953054D01*
X159534958Y-109953058D01*
X159439476Y-110118438D01*
X159439473Y-110118445D01*
X159380457Y-110300072D01*
X159360496Y-110490000D01*
X159380457Y-110679927D01*
X159387624Y-110701984D01*
X159439473Y-110861556D01*
X159439476Y-110861561D01*
X159534958Y-111026941D01*
X159534965Y-111026951D01*
X159662744Y-111168864D01*
X159662747Y-111168866D01*
X159817248Y-111281118D01*
X159991712Y-111358794D01*
X160178513Y-111398500D01*
X160369487Y-111398500D01*
X160556288Y-111358794D01*
X160730752Y-111281118D01*
X160885253Y-111168866D01*
X160897567Y-111155190D01*
X160958013Y-111117950D01*
X160991204Y-111113500D01*
X166285533Y-111113500D01*
X166353654Y-111133502D01*
X166388744Y-111167227D01*
X166482916Y-111301717D01*
X166482919Y-111301720D01*
X166482923Y-111301725D01*
X166640479Y-111459281D01*
X166640482Y-111459283D01*
X166640483Y-111459284D01*
X166823017Y-111587097D01*
X166927472Y-111635805D01*
X166980757Y-111682722D01*
X167000218Y-111750999D01*
X166979676Y-111818959D01*
X166927472Y-111864195D01*
X166823021Y-111912901D01*
X166640482Y-112040716D01*
X166640478Y-112040719D01*
X166482919Y-112198278D01*
X166482916Y-112198282D01*
X166388746Y-112332771D01*
X166333289Y-112377099D01*
X166285533Y-112386500D01*
X161772397Y-112386500D01*
X161704276Y-112366498D01*
X161688082Y-112354132D01*
X161684750Y-112351131D01*
X161530252Y-112238882D01*
X161355788Y-112161206D01*
X161168987Y-112121500D01*
X160978013Y-112121500D01*
X160791211Y-112161206D01*
X160616747Y-112238882D01*
X160462244Y-112351135D01*
X160334465Y-112493048D01*
X160334458Y-112493058D01*
X160238976Y-112658438D01*
X160238973Y-112658445D01*
X160179957Y-112840072D01*
X160159996Y-113030000D01*
X160179957Y-113219928D01*
X160188937Y-113247564D01*
X160190965Y-113318531D01*
X160154302Y-113379329D01*
X160090590Y-113410655D01*
X160069104Y-113412500D01*
X156977702Y-113412500D01*
X156909581Y-113392498D01*
X156884065Y-113370810D01*
X156880754Y-113367133D01*
X156726254Y-113254882D01*
X156551790Y-113177206D01*
X156364989Y-113137500D01*
X156174015Y-113137500D01*
X155987213Y-113177206D01*
X155812749Y-113254882D01*
X155658246Y-113367135D01*
X155530467Y-113509048D01*
X155530460Y-113509058D01*
X155434978Y-113674438D01*
X155434975Y-113674445D01*
X155375959Y-113856072D01*
X155355998Y-114046000D01*
X155375959Y-114235927D01*
X155406028Y-114328470D01*
X155434975Y-114417556D01*
X155455382Y-114452902D01*
X155530460Y-114582941D01*
X155530467Y-114582951D01*
X155658246Y-114724864D01*
X155658249Y-114724866D01*
X155812750Y-114837118D01*
X155987214Y-114914794D01*
X156174015Y-114954500D01*
X156364989Y-114954500D01*
X156551790Y-114914794D01*
X156726254Y-114837118D01*
X156880755Y-114724866D01*
X156884065Y-114721190D01*
X156944511Y-114683950D01*
X156977702Y-114679500D01*
X165633606Y-114679500D01*
X165701727Y-114699502D01*
X165722701Y-114716405D01*
X166181624Y-115175328D01*
X166215650Y-115237640D01*
X166214236Y-115297033D01*
X166203257Y-115338008D01*
X166203256Y-115338011D01*
X166203256Y-115338014D01*
X166183835Y-115560000D01*
X166203256Y-115781986D01*
X166234163Y-115897332D01*
X166260929Y-115997225D01*
X166260931Y-115997230D01*
X166355102Y-116199182D01*
X166482918Y-116381720D01*
X166640479Y-116539281D01*
X166640482Y-116539283D01*
X166640483Y-116539284D01*
X166823017Y-116667097D01*
X166927472Y-116715805D01*
X166980757Y-116762722D01*
X167000218Y-116830999D01*
X166979676Y-116898959D01*
X166927472Y-116944195D01*
X166823021Y-116992901D01*
X166640482Y-117120716D01*
X166640478Y-117120719D01*
X166482919Y-117278278D01*
X166482916Y-117278282D01*
X166371241Y-117437771D01*
X166315784Y-117482099D01*
X166268028Y-117491500D01*
X164086139Y-117491500D01*
X164018018Y-117471498D01*
X163971525Y-117417842D01*
X163961421Y-117347568D01*
X163977018Y-117302503D01*
X164029527Y-117211556D01*
X164088542Y-117029928D01*
X164108504Y-116840000D01*
X164088542Y-116650072D01*
X164029527Y-116468444D01*
X163934040Y-116303056D01*
X163934038Y-116303054D01*
X163934034Y-116303048D01*
X163806255Y-116161135D01*
X163651752Y-116048882D01*
X163477288Y-115971206D01*
X163290487Y-115931500D01*
X163099513Y-115931500D01*
X162912711Y-115971206D01*
X162738247Y-116048882D01*
X162588837Y-116157436D01*
X162521969Y-116181294D01*
X162514776Y-116181500D01*
X157525224Y-116181500D01*
X157457103Y-116161498D01*
X157451163Y-116157436D01*
X157301752Y-116048882D01*
X157127288Y-115971206D01*
X156940487Y-115931500D01*
X156749513Y-115931500D01*
X156562711Y-115971206D01*
X156388247Y-116048882D01*
X156233749Y-116161131D01*
X156233744Y-116161136D01*
X156192664Y-116206761D01*
X156132218Y-116244001D01*
X156099028Y-116248451D01*
X151200473Y-116248451D01*
X151132352Y-116228449D01*
X151106837Y-116206761D01*
X151065756Y-116161136D01*
X151065751Y-116161131D01*
X150911253Y-116048882D01*
X150736789Y-115971206D01*
X150549988Y-115931500D01*
X150359014Y-115931500D01*
X150172212Y-115971206D01*
X149997748Y-116048882D01*
X149843245Y-116161135D01*
X149715466Y-116303048D01*
X149715459Y-116303058D01*
X149619977Y-116468438D01*
X149619974Y-116468445D01*
X149560958Y-116650072D01*
X149540997Y-116840000D01*
X149560958Y-117029928D01*
X149613406Y-117191344D01*
X149615434Y-117262311D01*
X149578771Y-117323109D01*
X149519770Y-117353526D01*
X149450716Y-117368204D01*
X149276245Y-117445883D01*
X149253945Y-117462085D01*
X149187077Y-117485942D01*
X149117926Y-117469860D01*
X149086249Y-117444457D01*
X149074252Y-117431133D01*
X148919752Y-117318882D01*
X148745288Y-117241206D01*
X148558487Y-117201500D01*
X148367513Y-117201500D01*
X148180711Y-117241206D01*
X148006247Y-117318882D01*
X147851749Y-117431131D01*
X147848418Y-117434132D01*
X147784412Y-117464852D01*
X147764103Y-117466500D01*
X143238867Y-117466500D01*
X143170746Y-117446498D01*
X143135654Y-117412771D01*
X143126061Y-117399072D01*
X143041484Y-117278283D01*
X143041483Y-117278282D01*
X143041480Y-117278278D01*
X142883920Y-117120718D01*
X142847255Y-117095045D01*
X142701383Y-116992903D01*
X142701379Y-116992901D01*
X142701378Y-116992900D01*
X142596928Y-116944195D01*
X142543642Y-116897278D01*
X142524181Y-116829001D01*
X142544722Y-116761041D01*
X142596928Y-116715805D01*
X142630800Y-116700009D01*
X142701383Y-116667097D01*
X142883917Y-116539284D01*
X143041484Y-116381717D01*
X143169297Y-116199183D01*
X143263470Y-115997227D01*
X143321144Y-115781986D01*
X143340565Y-115560000D01*
X143321144Y-115338014D01*
X143263470Y-115122773D01*
X143169297Y-114920818D01*
X143041484Y-114738283D01*
X143041483Y-114738282D01*
X143041480Y-114738278D01*
X142883920Y-114580718D01*
X142847255Y-114555045D01*
X142701383Y-114452903D01*
X142701379Y-114452901D01*
X142701378Y-114452900D01*
X142596928Y-114404195D01*
X142543642Y-114357278D01*
X142524181Y-114289001D01*
X142544722Y-114221041D01*
X142596928Y-114175805D01*
X142630800Y-114160009D01*
X142701383Y-114127097D01*
X142883917Y-113999284D01*
X143041484Y-113841717D01*
X143169297Y-113659183D01*
X143263470Y-113457227D01*
X143321144Y-113241986D01*
X143340565Y-113020000D01*
X143321144Y-112798014D01*
X143263470Y-112582773D01*
X143169297Y-112380818D01*
X143041484Y-112198283D01*
X143041483Y-112198282D01*
X143041480Y-112198278D01*
X142883920Y-112040718D01*
X142847255Y-112015045D01*
X142701383Y-111912903D01*
X142701379Y-111912901D01*
X142701378Y-111912900D01*
X142596928Y-111864195D01*
X142543642Y-111817278D01*
X142524181Y-111749001D01*
X142544722Y-111681041D01*
X142596928Y-111635805D01*
X142630800Y-111620009D01*
X142701383Y-111587097D01*
X142883917Y-111459284D01*
X143041484Y-111301717D01*
X143169297Y-111119183D01*
X143263470Y-110917227D01*
X143321144Y-110701986D01*
X143340565Y-110480000D01*
X143321144Y-110258014D01*
X143263470Y-110042773D01*
X143258797Y-110032751D01*
X143248135Y-109962560D01*
X143277114Y-109897747D01*
X143336533Y-109858890D01*
X143372991Y-109853500D01*
X149659800Y-109853500D01*
X149727921Y-109873502D01*
X149753437Y-109895190D01*
X149756747Y-109898866D01*
X149911248Y-110011118D01*
X150085712Y-110088794D01*
X150272513Y-110128500D01*
X150463487Y-110128500D01*
X150650288Y-110088794D01*
X150824752Y-110011118D01*
X150979253Y-109898866D01*
X151034868Y-109837099D01*
X151107034Y-109756951D01*
X151107035Y-109756949D01*
X151107040Y-109756944D01*
X151202527Y-109591556D01*
X151261542Y-109409928D01*
X151281504Y-109220000D01*
X151261542Y-109030072D01*
X151202527Y-108848444D01*
X151107040Y-108683056D01*
X151107038Y-108683054D01*
X151107034Y-108683048D01*
X150979255Y-108541135D01*
X150824752Y-108428882D01*
X150650288Y-108351206D01*
X150463487Y-108311500D01*
X150272513Y-108311500D01*
X150085711Y-108351206D01*
X149911247Y-108428882D01*
X149756747Y-108541133D01*
X149753437Y-108544810D01*
X149692991Y-108582050D01*
X149659800Y-108586500D01*
X143363113Y-108586500D01*
X143294992Y-108566498D01*
X143248499Y-108512842D01*
X143238395Y-108442568D01*
X143248918Y-108407251D01*
X143262994Y-108377062D01*
X143262998Y-108377053D01*
X143320648Y-108161897D01*
X143340062Y-107940000D01*
X143320648Y-107718102D01*
X143262998Y-107502946D01*
X143262996Y-107502942D01*
X143168859Y-107301064D01*
X143168858Y-107301062D01*
X143124170Y-107237240D01*
X143124168Y-107237240D01*
X142554616Y-107806791D01*
X142530882Y-107725960D01*
X142451595Y-107602587D01*
X142340762Y-107506549D01*
X142207361Y-107445627D01*
X142198619Y-107444370D01*
X142764958Y-106878029D01*
X142764958Y-106878028D01*
X142701138Y-106833341D01*
X142701137Y-106833340D01*
X142596335Y-106784471D01*
X142543050Y-106737554D01*
X142523589Y-106669277D01*
X142544131Y-106601317D01*
X142596336Y-106556081D01*
X142621933Y-106544144D01*
X142701383Y-106507097D01*
X142883917Y-106379284D01*
X143041484Y-106221717D01*
X143169297Y-106039183D01*
X143263470Y-105837227D01*
X143321144Y-105621986D01*
X143340565Y-105400000D01*
X143321144Y-105178014D01*
X143310163Y-105137033D01*
X143311851Y-105066060D01*
X143342772Y-105015330D01*
X143436042Y-104922060D01*
X143498352Y-104888036D01*
X143569167Y-104893101D01*
X143618772Y-104926847D01*
X143622458Y-104930941D01*
X143622460Y-104930944D01*
X143750247Y-105072866D01*
X143904748Y-105185118D01*
X144079212Y-105262794D01*
X144266013Y-105302500D01*
X144456987Y-105302500D01*
X144643788Y-105262794D01*
X144818252Y-105185118D01*
X144972753Y-105072866D01*
X145003752Y-105038438D01*
X145100534Y-104930951D01*
X145100535Y-104930949D01*
X145100540Y-104930944D01*
X145196027Y-104765556D01*
X145255042Y-104583928D01*
X145259949Y-104537232D01*
X145286960Y-104471575D01*
X145296154Y-104461314D01*
X145507066Y-104250404D01*
X145569378Y-104216379D01*
X145596161Y-104213500D01*
X150772595Y-104213500D01*
X150840716Y-104233502D01*
X150846655Y-104237563D01*
X150927248Y-104296118D01*
X151101712Y-104373794D01*
X151288513Y-104413500D01*
X151479487Y-104413500D01*
X151666288Y-104373794D01*
X151840752Y-104296118D01*
X151995253Y-104183866D01*
X152053709Y-104118944D01*
X152123034Y-104041951D01*
X152123035Y-104041949D01*
X152123040Y-104041944D01*
X152218527Y-103876556D01*
X152277542Y-103694928D01*
X152297504Y-103505000D01*
X152277542Y-103315072D01*
X152218527Y-103133444D01*
X152123040Y-102968056D01*
X152123038Y-102968054D01*
X152123034Y-102968048D01*
X151995255Y-102826135D01*
X151842891Y-102715436D01*
X151799537Y-102659214D01*
X151793462Y-102588477D01*
X151826594Y-102525686D01*
X151888414Y-102490774D01*
X151916952Y-102487500D01*
X159015604Y-102487500D01*
X159083725Y-102507502D01*
G37*
%TD.AperFunction*%
%TA.AperFunction,Conductor*%
G36*
X168527294Y-85920071D02*
G01*
X168584131Y-85962617D01*
X168591227Y-85973167D01*
X168603524Y-85993605D01*
X168604502Y-85994891D01*
X168616929Y-86010787D01*
X168617924Y-86012026D01*
X168617928Y-86012031D01*
X168617931Y-86012034D01*
X168617932Y-86012035D01*
X168675750Y-86069852D01*
X168731945Y-86129177D01*
X168733224Y-86130263D01*
X168750130Y-86144233D01*
X168966953Y-86361056D01*
X169157595Y-86551697D01*
X169191620Y-86614010D01*
X169194500Y-86640793D01*
X169194500Y-97171050D01*
X169194292Y-97176165D01*
X169189754Y-97231878D01*
X169189754Y-97231879D01*
X169200790Y-97312876D01*
X169209626Y-97394131D01*
X169209970Y-97395695D01*
X169214563Y-97415296D01*
X169214965Y-97416912D01*
X169243148Y-97493626D01*
X169269251Y-97571095D01*
X169269895Y-97572488D01*
X169278646Y-97590748D01*
X169279359Y-97592187D01*
X169323380Y-97661058D01*
X169365524Y-97731102D01*
X169366502Y-97732388D01*
X169378946Y-97748305D01*
X169379926Y-97749525D01*
X169379928Y-97749528D01*
X169410400Y-97780000D01*
X169437750Y-97807350D01*
X169493940Y-97866669D01*
X169495171Y-97867715D01*
X169512133Y-97881733D01*
X169841805Y-98211405D01*
X169875831Y-98273717D01*
X169870766Y-98344532D01*
X169828219Y-98401368D01*
X169761699Y-98426179D01*
X169752710Y-98426500D01*
X168763665Y-98426500D01*
X168695544Y-98406498D01*
X168649051Y-98352842D01*
X168638947Y-98282568D01*
X168649470Y-98247250D01*
X168663470Y-98217227D01*
X168721144Y-98001986D01*
X168740565Y-97780000D01*
X168721144Y-97558014D01*
X168663470Y-97342773D01*
X168569297Y-97140818D01*
X168441484Y-96958283D01*
X168441483Y-96958282D01*
X168441480Y-96958278D01*
X168283920Y-96800718D01*
X168191868Y-96736262D01*
X168101383Y-96672903D01*
X168101379Y-96672901D01*
X168101378Y-96672900D01*
X167996928Y-96624195D01*
X167943642Y-96577278D01*
X167924181Y-96509001D01*
X167944722Y-96441041D01*
X167996928Y-96395805D01*
X168030800Y-96380009D01*
X168101383Y-96347097D01*
X168283917Y-96219284D01*
X168441484Y-96061717D01*
X168569297Y-95879183D01*
X168663470Y-95677227D01*
X168721144Y-95461986D01*
X168740565Y-95240000D01*
X168721144Y-95018014D01*
X168663470Y-94802773D01*
X168569297Y-94600818D01*
X168441484Y-94418283D01*
X168441483Y-94418282D01*
X168441480Y-94418278D01*
X168283920Y-94260718D01*
X168247255Y-94235045D01*
X168101383Y-94132903D01*
X168101379Y-94132901D01*
X168101378Y-94132900D01*
X167996928Y-94084195D01*
X167943642Y-94037278D01*
X167924181Y-93969001D01*
X167944722Y-93901041D01*
X167996928Y-93855805D01*
X168099564Y-93807945D01*
X168101383Y-93807097D01*
X168283917Y-93679284D01*
X168441484Y-93521717D01*
X168569297Y-93339183D01*
X168663470Y-93137227D01*
X168721144Y-92921986D01*
X168740565Y-92700000D01*
X168721144Y-92478014D01*
X168663470Y-92262773D01*
X168569297Y-92060818D01*
X168441484Y-91878283D01*
X168441483Y-91878282D01*
X168441480Y-91878278D01*
X168283920Y-91720718D01*
X168247255Y-91695045D01*
X168101383Y-91592903D01*
X168101381Y-91592902D01*
X168101382Y-91592902D01*
X167996335Y-91543918D01*
X167943050Y-91497000D01*
X167923589Y-91428723D01*
X167944131Y-91360763D01*
X167996337Y-91315528D01*
X168101124Y-91266666D01*
X168101130Y-91266662D01*
X168164958Y-91221969D01*
X168164958Y-91221968D01*
X167598619Y-90655629D01*
X167607361Y-90654373D01*
X167740762Y-90593451D01*
X167851595Y-90497413D01*
X167930882Y-90374040D01*
X167954616Y-90293207D01*
X168524167Y-90862758D01*
X168524169Y-90862758D01*
X168568862Y-90798931D01*
X168662996Y-90597058D01*
X168662998Y-90597053D01*
X168720648Y-90381897D01*
X168740062Y-90160000D01*
X168720648Y-89938102D01*
X168662998Y-89722946D01*
X168662996Y-89722942D01*
X168568859Y-89521064D01*
X168568858Y-89521062D01*
X168524170Y-89457240D01*
X168524168Y-89457240D01*
X167954616Y-90026791D01*
X167930882Y-89945960D01*
X167851595Y-89822587D01*
X167740762Y-89726549D01*
X167607361Y-89665627D01*
X167598619Y-89664370D01*
X168164958Y-89098029D01*
X168164958Y-89098028D01*
X168101138Y-89053341D01*
X168101137Y-89053340D01*
X167996335Y-89004471D01*
X167943050Y-88957554D01*
X167923589Y-88889277D01*
X167944131Y-88821317D01*
X167996336Y-88776081D01*
X168021933Y-88764144D01*
X168101383Y-88727097D01*
X168283917Y-88599284D01*
X168441484Y-88441717D01*
X168569297Y-88259183D01*
X168663470Y-88057227D01*
X168721144Y-87841986D01*
X168740565Y-87620000D01*
X168721144Y-87398014D01*
X168663470Y-87182773D01*
X168569297Y-86980818D01*
X168441484Y-86798283D01*
X168441483Y-86798282D01*
X168441480Y-86798278D01*
X168283920Y-86640718D01*
X168156786Y-86551697D01*
X168101383Y-86512903D01*
X168101379Y-86512901D01*
X168101378Y-86512900D01*
X167996928Y-86464195D01*
X167943642Y-86417278D01*
X167924181Y-86349001D01*
X167944722Y-86281041D01*
X167996928Y-86235805D01*
X168053086Y-86209618D01*
X168101383Y-86187097D01*
X168283917Y-86059284D01*
X168394171Y-85949029D01*
X168456479Y-85915007D01*
X168527294Y-85920071D01*
G37*
%TD.AperFunction*%
%TA.AperFunction,Conductor*%
G36*
X161170527Y-86468502D02*
G01*
X161191501Y-86485405D01*
X161454753Y-86748657D01*
X161464720Y-86761097D01*
X161464947Y-86760910D01*
X161469999Y-86767017D01*
X161521095Y-86814999D01*
X161542225Y-86836130D01*
X161547768Y-86840430D01*
X161552281Y-86844285D01*
X161586679Y-86876586D01*
X161586680Y-86876586D01*
X161586682Y-86876588D01*
X161604429Y-86886344D01*
X161620959Y-86897202D01*
X161636959Y-86909613D01*
X161668136Y-86923104D01*
X161680251Y-86928347D01*
X161685585Y-86930959D01*
X161726940Y-86953695D01*
X161746562Y-86958733D01*
X161765263Y-86965135D01*
X161783855Y-86973181D01*
X161830470Y-86980563D01*
X161836242Y-86981758D01*
X161881970Y-86993500D01*
X161902231Y-86993500D01*
X161921939Y-86995050D01*
X161941943Y-86998219D01*
X161975459Y-86995051D01*
X161988910Y-86993780D01*
X161994842Y-86993500D01*
X165153800Y-86993500D01*
X165221921Y-87013502D01*
X165247437Y-87035190D01*
X165250747Y-87038866D01*
X165405248Y-87151118D01*
X165579712Y-87228794D01*
X165766513Y-87268500D01*
X165957491Y-87268500D01*
X166053830Y-87248022D01*
X166124621Y-87253423D01*
X166181254Y-87296239D01*
X166205748Y-87362877D01*
X166204114Y-87393144D01*
X166203257Y-87398001D01*
X166203256Y-87398013D01*
X166203256Y-87398014D01*
X166183835Y-87620000D01*
X166203256Y-87841986D01*
X166234163Y-87957332D01*
X166260929Y-88057225D01*
X166260931Y-88057230D01*
X166355102Y-88259182D01*
X166482918Y-88441720D01*
X166640479Y-88599281D01*
X166640482Y-88599283D01*
X166640483Y-88599284D01*
X166823017Y-88727097D01*
X166928064Y-88776081D01*
X166981349Y-88822998D01*
X167000810Y-88891275D01*
X166980268Y-88959235D01*
X166928065Y-89004470D01*
X166823270Y-89053337D01*
X166823268Y-89053338D01*
X166759439Y-89098030D01*
X167325779Y-89664370D01*
X167317039Y-89665627D01*
X167183638Y-89726549D01*
X167072805Y-89822587D01*
X166993518Y-89945960D01*
X166969782Y-90026792D01*
X166400230Y-89457239D01*
X166355539Y-89521067D01*
X166261403Y-89722942D01*
X166261401Y-89722946D01*
X166203751Y-89938102D01*
X166184337Y-90160000D01*
X166186227Y-90181599D01*
X166172237Y-90251204D01*
X166122838Y-90302196D01*
X166053712Y-90318386D01*
X166048357Y-90317973D01*
X165862004Y-90299620D01*
X165861997Y-90299620D01*
X165664305Y-90319090D01*
X165474195Y-90376759D01*
X165356587Y-90439622D01*
X165297191Y-90454500D01*
X156774809Y-90454500D01*
X156715413Y-90439622D01*
X156632020Y-90395048D01*
X156597804Y-90376759D01*
X156407701Y-90319092D01*
X156407700Y-90319091D01*
X156407694Y-90319090D01*
X156210003Y-90299620D01*
X156209997Y-90299620D01*
X156012305Y-90319090D01*
X155822195Y-90376759D01*
X155646995Y-90470405D01*
X155493432Y-90596432D01*
X155367405Y-90749995D01*
X155273759Y-90925195D01*
X155216090Y-91115305D01*
X155196620Y-91312996D01*
X155196620Y-91313003D01*
X155216090Y-91510694D01*
X155216091Y-91510700D01*
X155216092Y-91510701D01*
X155273759Y-91700804D01*
X155367405Y-91876004D01*
X155493432Y-92029568D01*
X155646996Y-92155595D01*
X155822196Y-92249241D01*
X156012299Y-92306908D01*
X156012303Y-92306908D01*
X156012305Y-92306909D01*
X156209997Y-92326380D01*
X156210000Y-92326380D01*
X156210003Y-92326380D01*
X156407694Y-92306909D01*
X156407695Y-92306908D01*
X156407701Y-92306908D01*
X156597804Y-92249241D01*
X156715413Y-92186377D01*
X156774809Y-92171500D01*
X165297191Y-92171500D01*
X165356586Y-92186377D01*
X165474196Y-92249241D01*
X165664299Y-92306908D01*
X165664303Y-92306908D01*
X165664305Y-92306909D01*
X165861997Y-92326380D01*
X165862000Y-92326380D01*
X165862003Y-92326380D01*
X166059693Y-92306909D01*
X166059695Y-92306908D01*
X166059701Y-92306908D01*
X166059706Y-92306906D01*
X166061022Y-92306645D01*
X166061733Y-92306708D01*
X166065861Y-92306302D01*
X166065938Y-92307084D01*
X166131737Y-92312965D01*
X166187809Y-92356513D01*
X166211436Y-92423463D01*
X166207325Y-92462827D01*
X166203255Y-92478015D01*
X166202837Y-92480390D01*
X166202364Y-92481343D01*
X166201834Y-92483323D01*
X166201435Y-92483216D01*
X166171305Y-92544000D01*
X166110388Y-92580464D01*
X166078753Y-92584500D01*
X147380595Y-92584500D01*
X147312474Y-92564498D01*
X147291500Y-92547595D01*
X145727121Y-90983216D01*
X145693095Y-90920904D01*
X145690908Y-90907306D01*
X145673542Y-90742072D01*
X145614527Y-90560444D01*
X145519040Y-90395056D01*
X145519038Y-90395054D01*
X145519034Y-90395048D01*
X145391255Y-90253135D01*
X145236752Y-90140882D01*
X145062288Y-90063206D01*
X144875487Y-90023500D01*
X144684513Y-90023500D01*
X144497711Y-90063206D01*
X144323247Y-90140882D01*
X144168744Y-90253135D01*
X144040965Y-90395048D01*
X144040958Y-90395058D01*
X143945476Y-90560438D01*
X143945473Y-90560445D01*
X143886457Y-90742072D01*
X143866496Y-90932000D01*
X143886457Y-91121927D01*
X143892096Y-91139281D01*
X143945473Y-91303556D01*
X143945476Y-91303561D01*
X144040958Y-91468941D01*
X144040965Y-91468951D01*
X144168744Y-91610864D01*
X144168747Y-91610866D01*
X144323248Y-91723118D01*
X144497712Y-91800794D01*
X144684513Y-91840500D01*
X144740406Y-91840500D01*
X144808527Y-91860502D01*
X144829501Y-91877405D01*
X146517606Y-93565510D01*
X146551632Y-93627822D01*
X146546567Y-93698637D01*
X146537630Y-93717605D01*
X146485476Y-93807938D01*
X146485473Y-93807945D01*
X146426457Y-93989572D01*
X146406496Y-94179500D01*
X146426457Y-94369427D01*
X146442332Y-94418283D01*
X146485473Y-94551056D01*
X146485476Y-94551061D01*
X146580958Y-94716441D01*
X146580965Y-94716451D01*
X146708744Y-94858364D01*
X146708747Y-94858366D01*
X146863248Y-94970618D01*
X147037712Y-95048294D01*
X147224513Y-95088000D01*
X147415487Y-95088000D01*
X147602288Y-95048294D01*
X147776752Y-94970618D01*
X147931253Y-94858366D01*
X147934563Y-94854690D01*
X147995009Y-94817450D01*
X148028200Y-94813000D01*
X149151800Y-94813000D01*
X149219921Y-94833002D01*
X149245437Y-94854690D01*
X149248747Y-94858366D01*
X149403248Y-94970618D01*
X149577712Y-95048294D01*
X149764513Y-95088000D01*
X149955487Y-95088000D01*
X150142288Y-95048294D01*
X150316752Y-94970618D01*
X150471253Y-94858366D01*
X150474563Y-94854690D01*
X150535009Y-94817450D01*
X150568200Y-94813000D01*
X151691800Y-94813000D01*
X151759921Y-94833002D01*
X151785437Y-94854690D01*
X151788747Y-94858366D01*
X151943248Y-94970618D01*
X152117712Y-95048294D01*
X152304513Y-95088000D01*
X152495487Y-95088000D01*
X152682288Y-95048294D01*
X152856752Y-94970618D01*
X153011253Y-94858366D01*
X153014563Y-94854690D01*
X153075009Y-94817450D01*
X153108200Y-94813000D01*
X158041800Y-94813000D01*
X158109921Y-94833002D01*
X158135437Y-94854690D01*
X158138747Y-94858366D01*
X158293248Y-94970618D01*
X158467712Y-95048294D01*
X158654513Y-95088000D01*
X158845487Y-95088000D01*
X159032288Y-95048294D01*
X159206752Y-94970618D01*
X159361253Y-94858366D01*
X159364563Y-94854690D01*
X159425009Y-94817450D01*
X159458200Y-94813000D01*
X160581800Y-94813000D01*
X160649921Y-94833002D01*
X160675437Y-94854690D01*
X160678747Y-94858366D01*
X160833248Y-94970618D01*
X161007712Y-95048294D01*
X161194513Y-95088000D01*
X161385487Y-95088000D01*
X161572288Y-95048294D01*
X161746752Y-94970618D01*
X161901253Y-94858366D01*
X161904563Y-94854690D01*
X161965009Y-94817450D01*
X161998200Y-94813000D01*
X163121800Y-94813000D01*
X163189921Y-94833002D01*
X163215437Y-94854690D01*
X163218747Y-94858366D01*
X163373248Y-94970618D01*
X163547712Y-95048294D01*
X163734513Y-95088000D01*
X163925487Y-95088000D01*
X164112288Y-95048294D01*
X164286752Y-94970618D01*
X164441253Y-94858366D01*
X164569040Y-94716444D01*
X164664527Y-94551056D01*
X164723542Y-94369428D01*
X164743504Y-94179500D01*
X164731598Y-94066226D01*
X164723658Y-93990670D01*
X164736430Y-93920832D01*
X164784933Y-93868985D01*
X164848968Y-93851500D01*
X166858139Y-93851500D01*
X166926260Y-93871502D01*
X166972753Y-93925158D01*
X166982857Y-93995432D01*
X166953363Y-94060012D01*
X166911389Y-94091695D01*
X166823021Y-94132901D01*
X166640482Y-94260716D01*
X166640478Y-94260719D01*
X166482919Y-94418278D01*
X166482916Y-94418282D01*
X166355101Y-94600821D01*
X166260931Y-94802769D01*
X166260929Y-94802774D01*
X166203256Y-95018015D01*
X166183835Y-95240000D01*
X166203256Y-95461989D01*
X166221707Y-95530847D01*
X166220017Y-95601823D01*
X166189096Y-95652553D01*
X165406556Y-96435095D01*
X165344243Y-96469120D01*
X165317460Y-96472000D01*
X149842861Y-96472000D01*
X149774740Y-96451998D01*
X149728247Y-96398342D01*
X149718143Y-96328068D01*
X149723028Y-96307064D01*
X149734197Y-96272688D01*
X149739810Y-96219281D01*
X149754159Y-96082760D01*
X149734197Y-95892832D01*
X149675182Y-95711204D01*
X149579695Y-95545816D01*
X149579693Y-95545814D01*
X149579689Y-95545808D01*
X149451910Y-95403895D01*
X149297407Y-95291642D01*
X149122943Y-95213966D01*
X148936142Y-95174260D01*
X148745168Y-95174260D01*
X148558366Y-95213966D01*
X148383902Y-95291642D01*
X148229402Y-95403893D01*
X148226092Y-95407570D01*
X148165646Y-95444810D01*
X148132455Y-95449260D01*
X144274226Y-95449260D01*
X144206105Y-95429258D01*
X144200165Y-95425196D01*
X144093752Y-95347882D01*
X143919288Y-95270206D01*
X143732487Y-95230500D01*
X143541513Y-95230500D01*
X143541511Y-95230500D01*
X143482721Y-95242996D01*
X143411931Y-95237594D01*
X143355298Y-95194777D01*
X143331005Y-95130734D01*
X143321144Y-95018014D01*
X143263470Y-94802773D01*
X143169297Y-94600818D01*
X143041484Y-94418283D01*
X143041483Y-94418282D01*
X143041480Y-94418278D01*
X142883920Y-94260718D01*
X142847255Y-94235045D01*
X142701383Y-94132903D01*
X142701379Y-94132901D01*
X142701378Y-94132900D01*
X142596928Y-94084195D01*
X142543642Y-94037278D01*
X142524181Y-93969001D01*
X142544722Y-93901041D01*
X142596928Y-93855805D01*
X142699564Y-93807945D01*
X142701383Y-93807097D01*
X142883917Y-93679284D01*
X143041484Y-93521717D01*
X143169297Y-93339183D01*
X143263470Y-93137227D01*
X143321144Y-92921986D01*
X143340565Y-92700000D01*
X143321144Y-92478014D01*
X143263470Y-92262773D01*
X143169297Y-92060818D01*
X143041484Y-91878283D01*
X143041483Y-91878282D01*
X143041480Y-91878278D01*
X142883920Y-91720718D01*
X142847255Y-91695045D01*
X142701383Y-91592903D01*
X142701379Y-91592901D01*
X142701378Y-91592900D01*
X142596928Y-91544195D01*
X142543642Y-91497278D01*
X142524181Y-91429001D01*
X142544722Y-91361041D01*
X142596928Y-91315805D01*
X142630800Y-91300009D01*
X142701383Y-91267097D01*
X142883917Y-91139284D01*
X143041484Y-90981717D01*
X143169297Y-90799183D01*
X143263470Y-90597227D01*
X143321144Y-90381986D01*
X143340565Y-90160000D01*
X143321144Y-89938014D01*
X143263470Y-89722773D01*
X143169297Y-89520818D01*
X143041484Y-89338283D01*
X143041483Y-89338282D01*
X143041480Y-89338278D01*
X142883920Y-89180718D01*
X142765829Y-89098029D01*
X142701383Y-89052903D01*
X142701379Y-89052901D01*
X142701378Y-89052900D01*
X142596928Y-89004195D01*
X142543642Y-88957278D01*
X142524181Y-88889001D01*
X142544722Y-88821041D01*
X142596928Y-88775805D01*
X142630800Y-88760009D01*
X142701383Y-88727097D01*
X142883917Y-88599284D01*
X143041484Y-88441717D01*
X143169297Y-88259183D01*
X143263470Y-88057227D01*
X143321144Y-87841986D01*
X143340565Y-87620000D01*
X143321144Y-87398014D01*
X143310163Y-87357033D01*
X143311851Y-87286061D01*
X143342772Y-87235330D01*
X144092700Y-86485404D01*
X144155012Y-86451379D01*
X144181795Y-86448500D01*
X161102406Y-86448500D01*
X161170527Y-86468502D01*
G37*
%TD.AperFunction*%
%TA.AperFunction,Conductor*%
G36*
X167061689Y-76030702D02*
G01*
X167108182Y-76084358D01*
X167118286Y-76154632D01*
X167088792Y-76219212D01*
X167029066Y-76257596D01*
X167026190Y-76258403D01*
X167025975Y-76258461D01*
X167024974Y-76258729D01*
X167024969Y-76258731D01*
X166823021Y-76352901D01*
X166640482Y-76480716D01*
X166640478Y-76480719D01*
X166482919Y-76638278D01*
X166482916Y-76638282D01*
X166355101Y-76820821D01*
X166260931Y-77022769D01*
X166260929Y-77022774D01*
X166259980Y-77026317D01*
X166203256Y-77238014D01*
X166183835Y-77460000D01*
X166203256Y-77681986D01*
X166221420Y-77749774D01*
X166260929Y-77897225D01*
X166260931Y-77897230D01*
X166355102Y-78099182D01*
X166482918Y-78281720D01*
X166640479Y-78439281D01*
X166640482Y-78439283D01*
X166640483Y-78439284D01*
X166823017Y-78567097D01*
X166927472Y-78615805D01*
X166980757Y-78662722D01*
X167000218Y-78730999D01*
X166979676Y-78798959D01*
X166927472Y-78844195D01*
X166823021Y-78892901D01*
X166640482Y-79020716D01*
X166640478Y-79020719D01*
X166482919Y-79178278D01*
X166482916Y-79178282D01*
X166355101Y-79360821D01*
X166260931Y-79562769D01*
X166260929Y-79562774D01*
X166218709Y-79720341D01*
X166203256Y-79778014D01*
X166183835Y-80000000D01*
X166203256Y-80221986D01*
X166234163Y-80337332D01*
X166260929Y-80437225D01*
X166260931Y-80437230D01*
X166355102Y-80639182D01*
X166482918Y-80821720D01*
X166640479Y-80979281D01*
X166640482Y-80979283D01*
X166640483Y-80979284D01*
X166823017Y-81107097D01*
X166927472Y-81155805D01*
X166980757Y-81202722D01*
X167000218Y-81270999D01*
X166979676Y-81338959D01*
X166927472Y-81384195D01*
X166823021Y-81432901D01*
X166640482Y-81560716D01*
X166640478Y-81560719D01*
X166482919Y-81718278D01*
X166482916Y-81718282D01*
X166355101Y-81900821D01*
X166260931Y-82102769D01*
X166260929Y-82102774D01*
X166218709Y-82260341D01*
X166203256Y-82318014D01*
X166183835Y-82540000D01*
X166203256Y-82761986D01*
X166234163Y-82877332D01*
X166260929Y-82977225D01*
X166260931Y-82977230D01*
X166355102Y-83179182D01*
X166482918Y-83361720D01*
X166640479Y-83519281D01*
X166640482Y-83519283D01*
X166640483Y-83519284D01*
X166823017Y-83647097D01*
X166927472Y-83695805D01*
X166980757Y-83742722D01*
X167000218Y-83810999D01*
X166979676Y-83878959D01*
X166927472Y-83924195D01*
X166823021Y-83972901D01*
X166640482Y-84100716D01*
X166640478Y-84100719D01*
X166482919Y-84258278D01*
X166482916Y-84258282D01*
X166355101Y-84440821D01*
X166260931Y-84642769D01*
X166260929Y-84642774D01*
X166218709Y-84800341D01*
X166203256Y-84858014D01*
X166185304Y-85063207D01*
X166183835Y-85080000D01*
X166203256Y-85301985D01*
X166207365Y-85317321D01*
X166205673Y-85388298D01*
X166165876Y-85447092D01*
X166100611Y-85475037D01*
X166059460Y-85473175D01*
X165957487Y-85451500D01*
X165766513Y-85451500D01*
X165579711Y-85491206D01*
X165405247Y-85568882D01*
X165250747Y-85681133D01*
X165247437Y-85684810D01*
X165186991Y-85722050D01*
X165153800Y-85726500D01*
X162276595Y-85726500D01*
X162208474Y-85706498D01*
X162187500Y-85689595D01*
X162132474Y-85634569D01*
X162098448Y-85572257D01*
X162103513Y-85501442D01*
X162112451Y-85482472D01*
X162124525Y-85461559D01*
X162124527Y-85461556D01*
X162183542Y-85279928D01*
X162203504Y-85090000D01*
X162183542Y-84900072D01*
X162124527Y-84718444D01*
X162029040Y-84553056D01*
X162029038Y-84553054D01*
X162029034Y-84553048D01*
X161901255Y-84411135D01*
X161746752Y-84298882D01*
X161572288Y-84221206D01*
X161385487Y-84181500D01*
X161194513Y-84181500D01*
X161007711Y-84221206D01*
X160833247Y-84298882D01*
X160678749Y-84411131D01*
X160675418Y-84414132D01*
X160611412Y-84444852D01*
X160591103Y-84446500D01*
X143238867Y-84446500D01*
X143170746Y-84426498D01*
X143135654Y-84392771D01*
X143041483Y-84258282D01*
X143041480Y-84258278D01*
X142883920Y-84100718D01*
X142784113Y-84030832D01*
X142701383Y-83972903D01*
X142701379Y-83972901D01*
X142701378Y-83972900D01*
X142596928Y-83924195D01*
X142543642Y-83877278D01*
X142524181Y-83809001D01*
X142544722Y-83741041D01*
X142596928Y-83695805D01*
X142630800Y-83680009D01*
X142701383Y-83647097D01*
X142883917Y-83519284D01*
X143041484Y-83361717D01*
X143169297Y-83179183D01*
X143263470Y-82977227D01*
X143321144Y-82761986D01*
X143340565Y-82540000D01*
X143321144Y-82318014D01*
X143263470Y-82102773D01*
X143169297Y-81900818D01*
X143041484Y-81718283D01*
X143041483Y-81718282D01*
X143041480Y-81718278D01*
X142883920Y-81560718D01*
X142784113Y-81490832D01*
X142701383Y-81432903D01*
X142701379Y-81432901D01*
X142701378Y-81432900D01*
X142596928Y-81384195D01*
X142543642Y-81337278D01*
X142524181Y-81269001D01*
X142544722Y-81201041D01*
X142596928Y-81155805D01*
X142689133Y-81112809D01*
X142701383Y-81107097D01*
X142883917Y-80979284D01*
X143041484Y-80821717D01*
X143169297Y-80639183D01*
X143263470Y-80437227D01*
X143321144Y-80221986D01*
X143340565Y-80000000D01*
X143321144Y-79778014D01*
X143263470Y-79562773D01*
X143169297Y-79360818D01*
X143041484Y-79178283D01*
X143041483Y-79178282D01*
X143041480Y-79178278D01*
X142883920Y-79020718D01*
X142847255Y-78995045D01*
X142701383Y-78892903D01*
X142701379Y-78892901D01*
X142701378Y-78892900D01*
X142596928Y-78844195D01*
X142543642Y-78797278D01*
X142524181Y-78729001D01*
X142544722Y-78661041D01*
X142596928Y-78615805D01*
X142630800Y-78600009D01*
X142701383Y-78567097D01*
X142883917Y-78439284D01*
X143041484Y-78281717D01*
X143169297Y-78099183D01*
X143175883Y-78085059D01*
X150986300Y-78085059D01*
X151027008Y-78250221D01*
X151027010Y-78250225D01*
X151106065Y-78400851D01*
X151106070Y-78400857D01*
X151218869Y-78528181D01*
X151218871Y-78528183D01*
X151358870Y-78624818D01*
X151358874Y-78624820D01*
X151447915Y-78658588D01*
X151517928Y-78685140D01*
X151644428Y-78700500D01*
X151644432Y-78700500D01*
X151729168Y-78700500D01*
X151729172Y-78700500D01*
X151855672Y-78685140D01*
X152014730Y-78624818D01*
X152154729Y-78528183D01*
X152267534Y-78400852D01*
X152346590Y-78250225D01*
X152387299Y-78085059D01*
X158986300Y-78085059D01*
X159027008Y-78250221D01*
X159027010Y-78250225D01*
X159106065Y-78400851D01*
X159106070Y-78400857D01*
X159218869Y-78528181D01*
X159218871Y-78528183D01*
X159358870Y-78624818D01*
X159358874Y-78624820D01*
X159447915Y-78658588D01*
X159517928Y-78685140D01*
X159644428Y-78700500D01*
X159644432Y-78700500D01*
X159729168Y-78700500D01*
X159729172Y-78700500D01*
X159855672Y-78685140D01*
X160014730Y-78624818D01*
X160154729Y-78528183D01*
X160267534Y-78400852D01*
X160346590Y-78250225D01*
X160387300Y-78085056D01*
X160387300Y-77914944D01*
X160346590Y-77749775D01*
X160267534Y-77599148D01*
X160154729Y-77471817D01*
X160137610Y-77460000D01*
X160014729Y-77375181D01*
X160014725Y-77375179D01*
X159855670Y-77314859D01*
X159729178Y-77299500D01*
X159729172Y-77299500D01*
X159644428Y-77299500D01*
X159644421Y-77299500D01*
X159517929Y-77314859D01*
X159358874Y-77375179D01*
X159358870Y-77375181D01*
X159218871Y-77471816D01*
X159218869Y-77471818D01*
X159106070Y-77599142D01*
X159106065Y-77599148D01*
X159027010Y-77749774D01*
X159027008Y-77749778D01*
X158986300Y-77914940D01*
X158986300Y-78085059D01*
X152387299Y-78085059D01*
X152387300Y-78085056D01*
X152387300Y-77914944D01*
X152346590Y-77749775D01*
X152267534Y-77599148D01*
X152154729Y-77471817D01*
X152137610Y-77460000D01*
X152014729Y-77375181D01*
X152014725Y-77375179D01*
X151855670Y-77314859D01*
X151729178Y-77299500D01*
X151729172Y-77299500D01*
X151644428Y-77299500D01*
X151644421Y-77299500D01*
X151517929Y-77314859D01*
X151358874Y-77375179D01*
X151358870Y-77375181D01*
X151218871Y-77471816D01*
X151218869Y-77471818D01*
X151106070Y-77599142D01*
X151106065Y-77599148D01*
X151027010Y-77749774D01*
X151027008Y-77749778D01*
X150986300Y-77914940D01*
X150986300Y-78085059D01*
X143175883Y-78085059D01*
X143263470Y-77897227D01*
X143321144Y-77681986D01*
X143340565Y-77460000D01*
X143321144Y-77238014D01*
X143263470Y-77022773D01*
X143169297Y-76820818D01*
X143041484Y-76638283D01*
X143041483Y-76638282D01*
X143041480Y-76638278D01*
X142883920Y-76480718D01*
X142847255Y-76455045D01*
X142701383Y-76352903D01*
X142701381Y-76352902D01*
X142701382Y-76352902D01*
X142499430Y-76258731D01*
X142499425Y-76258729D01*
X142498513Y-76258485D01*
X142498220Y-76258406D01*
X142497750Y-76258120D01*
X142494258Y-76256849D01*
X142494513Y-76256147D01*
X142437598Y-76221456D01*
X142406577Y-76157595D01*
X142415005Y-76087101D01*
X142460208Y-76032353D01*
X142527833Y-76010736D01*
X142530832Y-76010700D01*
X166993568Y-76010700D01*
X167061689Y-76030702D01*
G37*
%TD.AperFunction*%
%TD*%
M02*
