M48
; DRILL file {KiCad 7.0.9} date Fri Jan  5 00:29:16 2024
; FORMAT={-:-/ absolute / inch / decimal}
; #@! TF.CreationDate,2024-01-05T00:29:16-06:00
; #@! TF.GenerationSoftware,Kicad,Pcbnew,7.0.9
; #@! TF.FileFunction,MixedPlating,1,2
FMAT,2
INCH
; #@! TA.AperFunction,Plated,PTH,ViaDrill
T1C0.0157
; #@! TA.AperFunction,Plated,PTH,ViaDrill
T2C0.0236
; #@! TA.AperFunction,Plated,PTH,ComponentDrill
T3C0.0354
; #@! TA.AperFunction,Plated,PTH,ComponentDrill
T4C0.0394
; #@! TA.AperFunction,Plated,PTH,ComponentDrill
T5C0.0402
; #@! TA.AperFunction,NonPlated,NPTH,ComponentDrill
T6C0.0354
; #@! TA.AperFunction,NonPlated,NPTH,ComponentDrill
T7C0.1063
%
G90
G05
T1
X5.33Y-4.875
X5.345Y-5.155
X5.365Y-4.725
X5.5Y-4.3
X5.52Y-4.425
X5.575Y-5.02
X5.655Y-3.785
X5.655Y-3.935
X5.6835Y-4.11
X5.685Y-4.8
X5.685Y-4.91
X5.69Y-3.09
X5.695Y-3.455
X5.7Y-3.58
X5.715Y-3.93
X5.765Y-4.495
X5.77Y-4.72
X5.785Y-3.165
X5.8Y-3.7079
X5.82Y-3.85
X5.845Y-4.65
X5.8599Y-3.7828
X5.8622Y-3.8221
X5.885Y-3.465
X5.895Y-4.655
X5.9Y-3.7079
X5.92Y-4.3
X5.9234Y-4.6
X5.955Y-3.895
X5.96Y-4.075
X5.96Y-4.825
X6.0Y-3.7079
X6.02Y-4.72
X6.025Y-4.495
X6.065Y-3.78
X6.075Y-4.295
X6.125Y-3.7364
X6.125Y-4.225
X6.1523Y-4.49
X6.175Y-4.6
X6.2Y-3.97
X6.2206Y-3.5197
X6.225Y-4.825
X6.25Y-3.7079
X6.275Y-4.72
X6.2785Y-4.45
X6.3Y-4.005
X6.3Y-4.05
X6.31Y-4.35
X6.315Y-3.135
X6.3415Y-4.45
X6.35Y-3.35
X6.35Y-3.7079
X6.37Y-4.15
X6.4Y-4.2535
X6.425Y-4.6
X6.44Y-4.295
X6.4457Y-4.8243
X6.45Y-3.7079
X6.46Y-3.085
X6.475Y-3.45
X6.53Y-3.4
X6.545Y-4.22
X6.63Y-5.055
X6.6476Y-4.7
X6.72Y-3.905
X6.77Y-4.8
X6.84Y-5.16
X6.85Y-4.86
X6.855Y-4.715
T2
X6.15Y-3.595
X6.53Y-3.595
X6.67Y-4.885
X6.765Y-3.99
T3
X5.365Y-3.24
X5.465Y-3.24
X6.725Y-3.24
X6.825Y-3.24
T4
X5.6434Y-4.97
X5.6434Y-5.07
X5.7434Y-4.97
X5.7434Y-5.07
X5.8434Y-4.97
X5.8434Y-5.07
X5.9434Y-4.97
X5.9434Y-5.07
X6.0434Y-4.97
X6.0434Y-5.07
X6.1434Y-4.97
X6.1434Y-5.07
X6.2434Y-4.97
X6.2434Y-5.07
X6.3434Y-4.97
X6.3434Y-5.07
X6.4434Y-4.97
X6.4434Y-5.07
X6.5434Y-4.97
X6.5434Y-5.07
T5
X5.593Y-3.0496
X5.593Y-3.1496
X5.593Y-3.2496
X5.593Y-3.3496
X5.593Y-3.4496
X5.593Y-3.5496
X5.593Y-3.6496
X5.593Y-3.7496
X5.593Y-3.8496
X5.593Y-3.9496
X5.593Y-4.0496
X5.593Y-4.1496
X5.593Y-4.2496
X5.593Y-4.3496
X5.593Y-4.4496
X5.593Y-4.5496
X5.593Y-4.6496
X5.593Y-4.7496
X5.593Y-4.8496
X6.593Y-3.0496
X6.593Y-3.1496
X6.593Y-3.2496
X6.593Y-3.3496
X6.593Y-3.4496
X6.593Y-3.5496
X6.593Y-3.6496
X6.593Y-3.7496
X6.593Y-3.8496
X6.593Y-3.9496
X6.593Y-4.0496
X6.593Y-4.1496
X6.593Y-4.2496
X6.593Y-4.3496
X6.593Y-4.4496
X6.593Y-4.5496
X6.593Y-4.6496
X6.593Y-4.7496
X6.593Y-4.8496
T6
X5.9719Y-3.0709
X6.2869Y-3.0709
T7
X5.425Y-5.005
X6.765Y-5.005
T0
M30
