%TF.GenerationSoftware,KiCad,Pcbnew,7.0.9*%
%TF.CreationDate,2024-01-05T00:29:13-06:00*%
%TF.ProjectId,FujiApple-DevKit-IDC-20,46756a69-4170-4706-9c65-2d4465764b69,1.0*%
%TF.SameCoordinates,Original*%
%TF.FileFunction,Legend,Bot*%
%TF.FilePolarity,Positive*%
%FSLAX46Y46*%
G04 Gerber Fmt 4.6, Leading zero omitted, Abs format (unit mm)*
G04 Created by KiCad (PCBNEW 7.0.9) date 2024-01-05 00:29:13*
%MOMM*%
%LPD*%
G01*
G04 APERTURE LIST*
%ADD10C,0.150000*%
G04 APERTURE END LIST*
D10*
X139473990Y-112520666D02*
X139473990Y-112853999D01*
X138950180Y-112853999D02*
X139950180Y-112853999D01*
X139950180Y-112853999D02*
X139950180Y-112377809D01*
X139616847Y-111568285D02*
X138950180Y-111568285D01*
X139616847Y-111996856D02*
X139093038Y-111996856D01*
X139093038Y-111996856D02*
X138997800Y-111949237D01*
X138997800Y-111949237D02*
X138950180Y-111853999D01*
X138950180Y-111853999D02*
X138950180Y-111711142D01*
X138950180Y-111711142D02*
X138997800Y-111615904D01*
X138997800Y-111615904D02*
X139045419Y-111568285D01*
X139616847Y-111092094D02*
X138759704Y-111092094D01*
X138759704Y-111092094D02*
X138664466Y-111139713D01*
X138664466Y-111139713D02*
X138616847Y-111234951D01*
X138616847Y-111234951D02*
X138616847Y-111282570D01*
X139950180Y-111092094D02*
X139902561Y-111139713D01*
X139902561Y-111139713D02*
X139854942Y-111092094D01*
X139854942Y-111092094D02*
X139902561Y-111044475D01*
X139902561Y-111044475D02*
X139950180Y-111092094D01*
X139950180Y-111092094D02*
X139854942Y-111092094D01*
X138950180Y-110615904D02*
X139616847Y-110615904D01*
X139950180Y-110615904D02*
X139902561Y-110663523D01*
X139902561Y-110663523D02*
X139854942Y-110615904D01*
X139854942Y-110615904D02*
X139902561Y-110568285D01*
X139902561Y-110568285D02*
X139950180Y-110615904D01*
X139950180Y-110615904D02*
X139854942Y-110615904D01*
X139235895Y-110187333D02*
X139235895Y-109711143D01*
X138950180Y-110282571D02*
X139950180Y-109949238D01*
X139950180Y-109949238D02*
X138950180Y-109615905D01*
X139616847Y-109282571D02*
X138616847Y-109282571D01*
X139569228Y-109282571D02*
X139616847Y-109187333D01*
X139616847Y-109187333D02*
X139616847Y-108996857D01*
X139616847Y-108996857D02*
X139569228Y-108901619D01*
X139569228Y-108901619D02*
X139521609Y-108854000D01*
X139521609Y-108854000D02*
X139426371Y-108806381D01*
X139426371Y-108806381D02*
X139140657Y-108806381D01*
X139140657Y-108806381D02*
X139045419Y-108854000D01*
X139045419Y-108854000D02*
X138997800Y-108901619D01*
X138997800Y-108901619D02*
X138950180Y-108996857D01*
X138950180Y-108996857D02*
X138950180Y-109187333D01*
X138950180Y-109187333D02*
X138997800Y-109282571D01*
X139616847Y-108377809D02*
X138616847Y-108377809D01*
X139569228Y-108377809D02*
X139616847Y-108282571D01*
X139616847Y-108282571D02*
X139616847Y-108092095D01*
X139616847Y-108092095D02*
X139569228Y-107996857D01*
X139569228Y-107996857D02*
X139521609Y-107949238D01*
X139521609Y-107949238D02*
X139426371Y-107901619D01*
X139426371Y-107901619D02*
X139140657Y-107901619D01*
X139140657Y-107901619D02*
X139045419Y-107949238D01*
X139045419Y-107949238D02*
X138997800Y-107996857D01*
X138997800Y-107996857D02*
X138950180Y-108092095D01*
X138950180Y-108092095D02*
X138950180Y-108282571D01*
X138950180Y-108282571D02*
X138997800Y-108377809D01*
X138950180Y-107330190D02*
X138997800Y-107425428D01*
X138997800Y-107425428D02*
X139093038Y-107473047D01*
X139093038Y-107473047D02*
X139950180Y-107473047D01*
X138997800Y-106568285D02*
X138950180Y-106663523D01*
X138950180Y-106663523D02*
X138950180Y-106853999D01*
X138950180Y-106853999D02*
X138997800Y-106949237D01*
X138997800Y-106949237D02*
X139093038Y-106996856D01*
X139093038Y-106996856D02*
X139473990Y-106996856D01*
X139473990Y-106996856D02*
X139569228Y-106949237D01*
X139569228Y-106949237D02*
X139616847Y-106853999D01*
X139616847Y-106853999D02*
X139616847Y-106663523D01*
X139616847Y-106663523D02*
X139569228Y-106568285D01*
X139569228Y-106568285D02*
X139473990Y-106520666D01*
X139473990Y-106520666D02*
X139378752Y-106520666D01*
X139378752Y-106520666D02*
X139283514Y-106996856D01*
X138950180Y-105330189D02*
X139950180Y-105330189D01*
X139950180Y-105330189D02*
X139950180Y-105092094D01*
X139950180Y-105092094D02*
X139902561Y-104949237D01*
X139902561Y-104949237D02*
X139807323Y-104853999D01*
X139807323Y-104853999D02*
X139712085Y-104806380D01*
X139712085Y-104806380D02*
X139521609Y-104758761D01*
X139521609Y-104758761D02*
X139378752Y-104758761D01*
X139378752Y-104758761D02*
X139188276Y-104806380D01*
X139188276Y-104806380D02*
X139093038Y-104853999D01*
X139093038Y-104853999D02*
X138997800Y-104949237D01*
X138997800Y-104949237D02*
X138950180Y-105092094D01*
X138950180Y-105092094D02*
X138950180Y-105330189D01*
X138997800Y-103949237D02*
X138950180Y-104044475D01*
X138950180Y-104044475D02*
X138950180Y-104234951D01*
X138950180Y-104234951D02*
X138997800Y-104330189D01*
X138997800Y-104330189D02*
X139093038Y-104377808D01*
X139093038Y-104377808D02*
X139473990Y-104377808D01*
X139473990Y-104377808D02*
X139569228Y-104330189D01*
X139569228Y-104330189D02*
X139616847Y-104234951D01*
X139616847Y-104234951D02*
X139616847Y-104044475D01*
X139616847Y-104044475D02*
X139569228Y-103949237D01*
X139569228Y-103949237D02*
X139473990Y-103901618D01*
X139473990Y-103901618D02*
X139378752Y-103901618D01*
X139378752Y-103901618D02*
X139283514Y-104377808D01*
X139616847Y-103568284D02*
X138950180Y-103330189D01*
X138950180Y-103330189D02*
X139616847Y-103092094D01*
X138950180Y-102711141D02*
X139950180Y-102711141D01*
X138950180Y-102139713D02*
X139521609Y-102568284D01*
X139950180Y-102139713D02*
X139378752Y-102711141D01*
X138950180Y-101711141D02*
X139616847Y-101711141D01*
X139950180Y-101711141D02*
X139902561Y-101758760D01*
X139902561Y-101758760D02*
X139854942Y-101711141D01*
X139854942Y-101711141D02*
X139902561Y-101663522D01*
X139902561Y-101663522D02*
X139950180Y-101711141D01*
X139950180Y-101711141D02*
X139854942Y-101711141D01*
X139616847Y-101377808D02*
X139616847Y-100996856D01*
X139950180Y-101234951D02*
X139093038Y-101234951D01*
X139093038Y-101234951D02*
X138997800Y-101187332D01*
X138997800Y-101187332D02*
X138950180Y-101092094D01*
X138950180Y-101092094D02*
X138950180Y-100996856D01*
X138950180Y-99901617D02*
X139950180Y-99901617D01*
X138950180Y-99425427D02*
X139950180Y-99425427D01*
X139950180Y-99425427D02*
X139950180Y-99187332D01*
X139950180Y-99187332D02*
X139902561Y-99044475D01*
X139902561Y-99044475D02*
X139807323Y-98949237D01*
X139807323Y-98949237D02*
X139712085Y-98901618D01*
X139712085Y-98901618D02*
X139521609Y-98853999D01*
X139521609Y-98853999D02*
X139378752Y-98853999D01*
X139378752Y-98853999D02*
X139188276Y-98901618D01*
X139188276Y-98901618D02*
X139093038Y-98949237D01*
X139093038Y-98949237D02*
X138997800Y-99044475D01*
X138997800Y-99044475D02*
X138950180Y-99187332D01*
X138950180Y-99187332D02*
X138950180Y-99425427D01*
X139045419Y-97853999D02*
X138997800Y-97901618D01*
X138997800Y-97901618D02*
X138950180Y-98044475D01*
X138950180Y-98044475D02*
X138950180Y-98139713D01*
X138950180Y-98139713D02*
X138997800Y-98282570D01*
X138997800Y-98282570D02*
X139093038Y-98377808D01*
X139093038Y-98377808D02*
X139188276Y-98425427D01*
X139188276Y-98425427D02*
X139378752Y-98473046D01*
X139378752Y-98473046D02*
X139521609Y-98473046D01*
X139521609Y-98473046D02*
X139712085Y-98425427D01*
X139712085Y-98425427D02*
X139807323Y-98377808D01*
X139807323Y-98377808D02*
X139902561Y-98282570D01*
X139902561Y-98282570D02*
X139950180Y-98139713D01*
X139950180Y-98139713D02*
X139950180Y-98044475D01*
X139950180Y-98044475D02*
X139902561Y-97901618D01*
X139902561Y-97901618D02*
X139854942Y-97853999D01*
X139331133Y-97425427D02*
X139331133Y-96663523D01*
X139854942Y-96234951D02*
X139902561Y-96187332D01*
X139902561Y-96187332D02*
X139950180Y-96092094D01*
X139950180Y-96092094D02*
X139950180Y-95853999D01*
X139950180Y-95853999D02*
X139902561Y-95758761D01*
X139902561Y-95758761D02*
X139854942Y-95711142D01*
X139854942Y-95711142D02*
X139759704Y-95663523D01*
X139759704Y-95663523D02*
X139664466Y-95663523D01*
X139664466Y-95663523D02*
X139521609Y-95711142D01*
X139521609Y-95711142D02*
X138950180Y-96282570D01*
X138950180Y-96282570D02*
X138950180Y-95663523D01*
X139950180Y-95044475D02*
X139950180Y-94949237D01*
X139950180Y-94949237D02*
X139902561Y-94853999D01*
X139902561Y-94853999D02*
X139854942Y-94806380D01*
X139854942Y-94806380D02*
X139759704Y-94758761D01*
X139759704Y-94758761D02*
X139569228Y-94711142D01*
X139569228Y-94711142D02*
X139331133Y-94711142D01*
X139331133Y-94711142D02*
X139140657Y-94758761D01*
X139140657Y-94758761D02*
X139045419Y-94806380D01*
X139045419Y-94806380D02*
X138997800Y-94853999D01*
X138997800Y-94853999D02*
X138950180Y-94949237D01*
X138950180Y-94949237D02*
X138950180Y-95044475D01*
X138950180Y-95044475D02*
X138997800Y-95139713D01*
X138997800Y-95139713D02*
X139045419Y-95187332D01*
X139045419Y-95187332D02*
X139140657Y-95234951D01*
X139140657Y-95234951D02*
X139331133Y-95282570D01*
X139331133Y-95282570D02*
X139569228Y-95282570D01*
X139569228Y-95282570D02*
X139759704Y-95234951D01*
X139759704Y-95234951D02*
X139854942Y-95187332D01*
X139854942Y-95187332D02*
X139902561Y-95139713D01*
X139902561Y-95139713D02*
X139950180Y-95044475D01*
X139616847Y-93615903D02*
X138950180Y-93377808D01*
X138950180Y-93377808D02*
X139616847Y-93139713D01*
X138950180Y-92234951D02*
X138950180Y-92806379D01*
X138950180Y-92520665D02*
X139950180Y-92520665D01*
X139950180Y-92520665D02*
X139807323Y-92615903D01*
X139807323Y-92615903D02*
X139712085Y-92711141D01*
X139712085Y-92711141D02*
X139664466Y-92806379D01*
X139045419Y-91806379D02*
X138997800Y-91758760D01*
X138997800Y-91758760D02*
X138950180Y-91806379D01*
X138950180Y-91806379D02*
X138997800Y-91853998D01*
X138997800Y-91853998D02*
X139045419Y-91806379D01*
X139045419Y-91806379D02*
X138950180Y-91806379D01*
X139950180Y-91139713D02*
X139950180Y-91044475D01*
X139950180Y-91044475D02*
X139902561Y-90949237D01*
X139902561Y-90949237D02*
X139854942Y-90901618D01*
X139854942Y-90901618D02*
X139759704Y-90853999D01*
X139759704Y-90853999D02*
X139569228Y-90806380D01*
X139569228Y-90806380D02*
X139331133Y-90806380D01*
X139331133Y-90806380D02*
X139140657Y-90853999D01*
X139140657Y-90853999D02*
X139045419Y-90901618D01*
X139045419Y-90901618D02*
X138997800Y-90949237D01*
X138997800Y-90949237D02*
X138950180Y-91044475D01*
X138950180Y-91044475D02*
X138950180Y-91139713D01*
X138950180Y-91139713D02*
X138997800Y-91234951D01*
X138997800Y-91234951D02*
X139045419Y-91282570D01*
X139045419Y-91282570D02*
X139140657Y-91330189D01*
X139140657Y-91330189D02*
X139331133Y-91377808D01*
X139331133Y-91377808D02*
X139569228Y-91377808D01*
X139569228Y-91377808D02*
X139759704Y-91330189D01*
X139759704Y-91330189D02*
X139854942Y-91282570D01*
X139854942Y-91282570D02*
X139902561Y-91234951D01*
X139902561Y-91234951D02*
X139950180Y-91139713D01*
X138006847Y-120020667D02*
X137197323Y-120020667D01*
X137197323Y-120020667D02*
X137102085Y-120068286D01*
X137102085Y-120068286D02*
X137054466Y-120115905D01*
X137054466Y-120115905D02*
X137006847Y-120211143D01*
X137006847Y-120211143D02*
X137006847Y-120354000D01*
X137006847Y-120354000D02*
X137054466Y-120449238D01*
X137387800Y-120020667D02*
X137340180Y-120115905D01*
X137340180Y-120115905D02*
X137340180Y-120306381D01*
X137340180Y-120306381D02*
X137387800Y-120401619D01*
X137387800Y-120401619D02*
X137435419Y-120449238D01*
X137435419Y-120449238D02*
X137530657Y-120496857D01*
X137530657Y-120496857D02*
X137816371Y-120496857D01*
X137816371Y-120496857D02*
X137911609Y-120449238D01*
X137911609Y-120449238D02*
X137959228Y-120401619D01*
X137959228Y-120401619D02*
X138006847Y-120306381D01*
X138006847Y-120306381D02*
X138006847Y-120115905D01*
X138006847Y-120115905D02*
X137959228Y-120020667D01*
X137340180Y-119544476D02*
X138006847Y-119544476D01*
X138340180Y-119544476D02*
X138292561Y-119592095D01*
X138292561Y-119592095D02*
X138244942Y-119544476D01*
X138244942Y-119544476D02*
X138292561Y-119496857D01*
X138292561Y-119496857D02*
X138340180Y-119544476D01*
X138340180Y-119544476D02*
X138244942Y-119544476D01*
X138006847Y-119211143D02*
X138006847Y-118830191D01*
X138340180Y-119068286D02*
X137483038Y-119068286D01*
X137483038Y-119068286D02*
X137387800Y-119020667D01*
X137387800Y-119020667D02*
X137340180Y-118925429D01*
X137340180Y-118925429D02*
X137340180Y-118830191D01*
X137340180Y-118496857D02*
X138340180Y-118496857D01*
X137340180Y-118068286D02*
X137863990Y-118068286D01*
X137863990Y-118068286D02*
X137959228Y-118115905D01*
X137959228Y-118115905D02*
X138006847Y-118211143D01*
X138006847Y-118211143D02*
X138006847Y-118354000D01*
X138006847Y-118354000D02*
X137959228Y-118449238D01*
X137959228Y-118449238D02*
X137911609Y-118496857D01*
X138006847Y-117163524D02*
X137340180Y-117163524D01*
X138006847Y-117592095D02*
X137483038Y-117592095D01*
X137483038Y-117592095D02*
X137387800Y-117544476D01*
X137387800Y-117544476D02*
X137340180Y-117449238D01*
X137340180Y-117449238D02*
X137340180Y-117306381D01*
X137340180Y-117306381D02*
X137387800Y-117211143D01*
X137387800Y-117211143D02*
X137435419Y-117163524D01*
X137340180Y-116687333D02*
X138340180Y-116687333D01*
X137959228Y-116687333D02*
X138006847Y-116592095D01*
X138006847Y-116592095D02*
X138006847Y-116401619D01*
X138006847Y-116401619D02*
X137959228Y-116306381D01*
X137959228Y-116306381D02*
X137911609Y-116258762D01*
X137911609Y-116258762D02*
X137816371Y-116211143D01*
X137816371Y-116211143D02*
X137530657Y-116211143D01*
X137530657Y-116211143D02*
X137435419Y-116258762D01*
X137435419Y-116258762D02*
X137387800Y-116306381D01*
X137387800Y-116306381D02*
X137340180Y-116401619D01*
X137340180Y-116401619D02*
X137340180Y-116592095D01*
X137340180Y-116592095D02*
X137387800Y-116687333D01*
X137435419Y-115782571D02*
X137387800Y-115734952D01*
X137387800Y-115734952D02*
X137340180Y-115782571D01*
X137340180Y-115782571D02*
X137387800Y-115830190D01*
X137387800Y-115830190D02*
X137435419Y-115782571D01*
X137435419Y-115782571D02*
X137340180Y-115782571D01*
X137387800Y-114877810D02*
X137340180Y-114973048D01*
X137340180Y-114973048D02*
X137340180Y-115163524D01*
X137340180Y-115163524D02*
X137387800Y-115258762D01*
X137387800Y-115258762D02*
X137435419Y-115306381D01*
X137435419Y-115306381D02*
X137530657Y-115354000D01*
X137530657Y-115354000D02*
X137816371Y-115354000D01*
X137816371Y-115354000D02*
X137911609Y-115306381D01*
X137911609Y-115306381D02*
X137959228Y-115258762D01*
X137959228Y-115258762D02*
X138006847Y-115163524D01*
X138006847Y-115163524D02*
X138006847Y-114973048D01*
X138006847Y-114973048D02*
X137959228Y-114877810D01*
X137340180Y-114306381D02*
X137387800Y-114401619D01*
X137387800Y-114401619D02*
X137435419Y-114449238D01*
X137435419Y-114449238D02*
X137530657Y-114496857D01*
X137530657Y-114496857D02*
X137816371Y-114496857D01*
X137816371Y-114496857D02*
X137911609Y-114449238D01*
X137911609Y-114449238D02*
X137959228Y-114401619D01*
X137959228Y-114401619D02*
X138006847Y-114306381D01*
X138006847Y-114306381D02*
X138006847Y-114163524D01*
X138006847Y-114163524D02*
X137959228Y-114068286D01*
X137959228Y-114068286D02*
X137911609Y-114020667D01*
X137911609Y-114020667D02*
X137816371Y-113973048D01*
X137816371Y-113973048D02*
X137530657Y-113973048D01*
X137530657Y-113973048D02*
X137435419Y-114020667D01*
X137435419Y-114020667D02*
X137387800Y-114068286D01*
X137387800Y-114068286D02*
X137340180Y-114163524D01*
X137340180Y-114163524D02*
X137340180Y-114306381D01*
X137340180Y-113544476D02*
X138006847Y-113544476D01*
X137911609Y-113544476D02*
X137959228Y-113496857D01*
X137959228Y-113496857D02*
X138006847Y-113401619D01*
X138006847Y-113401619D02*
X138006847Y-113258762D01*
X138006847Y-113258762D02*
X137959228Y-113163524D01*
X137959228Y-113163524D02*
X137863990Y-113115905D01*
X137863990Y-113115905D02*
X137340180Y-113115905D01*
X137863990Y-113115905D02*
X137959228Y-113068286D01*
X137959228Y-113068286D02*
X138006847Y-112973048D01*
X138006847Y-112973048D02*
X138006847Y-112830191D01*
X138006847Y-112830191D02*
X137959228Y-112734952D01*
X137959228Y-112734952D02*
X137863990Y-112687333D01*
X137863990Y-112687333D02*
X137340180Y-112687333D01*
X138387800Y-111496858D02*
X137102085Y-112354000D01*
X137340180Y-110734953D02*
X138340180Y-110734953D01*
X137387800Y-110734953D02*
X137340180Y-110830191D01*
X137340180Y-110830191D02*
X137340180Y-111020667D01*
X137340180Y-111020667D02*
X137387800Y-111115905D01*
X137387800Y-111115905D02*
X137435419Y-111163524D01*
X137435419Y-111163524D02*
X137530657Y-111211143D01*
X137530657Y-111211143D02*
X137816371Y-111211143D01*
X137816371Y-111211143D02*
X137911609Y-111163524D01*
X137911609Y-111163524D02*
X137959228Y-111115905D01*
X137959228Y-111115905D02*
X138006847Y-111020667D01*
X138006847Y-111020667D02*
X138006847Y-110830191D01*
X138006847Y-110830191D02*
X137959228Y-110734953D01*
X138006847Y-110258762D02*
X137149704Y-110258762D01*
X137149704Y-110258762D02*
X137054466Y-110306381D01*
X137054466Y-110306381D02*
X137006847Y-110401619D01*
X137006847Y-110401619D02*
X137006847Y-110449238D01*
X138340180Y-110258762D02*
X138292561Y-110306381D01*
X138292561Y-110306381D02*
X138244942Y-110258762D01*
X138244942Y-110258762D02*
X138292561Y-110211143D01*
X138292561Y-110211143D02*
X138340180Y-110258762D01*
X138340180Y-110258762D02*
X138244942Y-110258762D01*
X138006847Y-109925429D02*
X138006847Y-109544477D01*
X138340180Y-109782572D02*
X137483038Y-109782572D01*
X137483038Y-109782572D02*
X137387800Y-109734953D01*
X137387800Y-109734953D02*
X137340180Y-109639715D01*
X137340180Y-109639715D02*
X137340180Y-109544477D01*
X137387800Y-108830191D02*
X137340180Y-108925429D01*
X137340180Y-108925429D02*
X137340180Y-109115905D01*
X137340180Y-109115905D02*
X137387800Y-109211143D01*
X137387800Y-109211143D02*
X137483038Y-109258762D01*
X137483038Y-109258762D02*
X137863990Y-109258762D01*
X137863990Y-109258762D02*
X137959228Y-109211143D01*
X137959228Y-109211143D02*
X138006847Y-109115905D01*
X138006847Y-109115905D02*
X138006847Y-108925429D01*
X138006847Y-108925429D02*
X137959228Y-108830191D01*
X137959228Y-108830191D02*
X137863990Y-108782572D01*
X137863990Y-108782572D02*
X137768752Y-108782572D01*
X137768752Y-108782572D02*
X137673514Y-109258762D01*
X137340180Y-108354000D02*
X138006847Y-108354000D01*
X137816371Y-108354000D02*
X137911609Y-108306381D01*
X137911609Y-108306381D02*
X137959228Y-108258762D01*
X137959228Y-108258762D02*
X138006847Y-108163524D01*
X138006847Y-108163524D02*
X138006847Y-108068286D01*
X137387800Y-107782571D02*
X137340180Y-107687333D01*
X137340180Y-107687333D02*
X137340180Y-107496857D01*
X137340180Y-107496857D02*
X137387800Y-107401619D01*
X137387800Y-107401619D02*
X137483038Y-107354000D01*
X137483038Y-107354000D02*
X137530657Y-107354000D01*
X137530657Y-107354000D02*
X137625895Y-107401619D01*
X137625895Y-107401619D02*
X137673514Y-107496857D01*
X137673514Y-107496857D02*
X137673514Y-107639714D01*
X137673514Y-107639714D02*
X137721133Y-107734952D01*
X137721133Y-107734952D02*
X137816371Y-107782571D01*
X137816371Y-107782571D02*
X137863990Y-107782571D01*
X137863990Y-107782571D02*
X137959228Y-107734952D01*
X137959228Y-107734952D02*
X138006847Y-107639714D01*
X138006847Y-107639714D02*
X138006847Y-107496857D01*
X138006847Y-107496857D02*
X137959228Y-107401619D01*
X138006847Y-107068285D02*
X138006847Y-106687333D01*
X138340180Y-106925428D02*
X137483038Y-106925428D01*
X137483038Y-106925428D02*
X137387800Y-106877809D01*
X137387800Y-106877809D02*
X137340180Y-106782571D01*
X137340180Y-106782571D02*
X137340180Y-106687333D01*
X137387800Y-105973047D02*
X137340180Y-106068285D01*
X137340180Y-106068285D02*
X137340180Y-106258761D01*
X137340180Y-106258761D02*
X137387800Y-106353999D01*
X137387800Y-106353999D02*
X137483038Y-106401618D01*
X137483038Y-106401618D02*
X137863990Y-106401618D01*
X137863990Y-106401618D02*
X137959228Y-106353999D01*
X137959228Y-106353999D02*
X138006847Y-106258761D01*
X138006847Y-106258761D02*
X138006847Y-106068285D01*
X138006847Y-106068285D02*
X137959228Y-105973047D01*
X137959228Y-105973047D02*
X137863990Y-105925428D01*
X137863990Y-105925428D02*
X137768752Y-105925428D01*
X137768752Y-105925428D02*
X137673514Y-106401618D01*
X137387800Y-105115904D02*
X137340180Y-105211142D01*
X137340180Y-105211142D02*
X137340180Y-105401618D01*
X137340180Y-105401618D02*
X137387800Y-105496856D01*
X137387800Y-105496856D02*
X137483038Y-105544475D01*
X137483038Y-105544475D02*
X137863990Y-105544475D01*
X137863990Y-105544475D02*
X137959228Y-105496856D01*
X137959228Y-105496856D02*
X138006847Y-105401618D01*
X138006847Y-105401618D02*
X138006847Y-105211142D01*
X138006847Y-105211142D02*
X137959228Y-105115904D01*
X137959228Y-105115904D02*
X137863990Y-105068285D01*
X137863990Y-105068285D02*
X137768752Y-105068285D01*
X137768752Y-105068285D02*
X137673514Y-105544475D01*
X138006847Y-104211142D02*
X137197323Y-104211142D01*
X137197323Y-104211142D02*
X137102085Y-104258761D01*
X137102085Y-104258761D02*
X137054466Y-104306380D01*
X137054466Y-104306380D02*
X137006847Y-104401618D01*
X137006847Y-104401618D02*
X137006847Y-104544475D01*
X137006847Y-104544475D02*
X137054466Y-104639713D01*
X137387800Y-104211142D02*
X137340180Y-104306380D01*
X137340180Y-104306380D02*
X137340180Y-104496856D01*
X137340180Y-104496856D02*
X137387800Y-104592094D01*
X137387800Y-104592094D02*
X137435419Y-104639713D01*
X137435419Y-104639713D02*
X137530657Y-104687332D01*
X137530657Y-104687332D02*
X137816371Y-104687332D01*
X137816371Y-104687332D02*
X137911609Y-104639713D01*
X137911609Y-104639713D02*
X137959228Y-104592094D01*
X137959228Y-104592094D02*
X138006847Y-104496856D01*
X138006847Y-104496856D02*
X138006847Y-104306380D01*
X138006847Y-104306380D02*
X137959228Y-104211142D01*
X137387800Y-103306380D02*
X137340180Y-103401618D01*
X137340180Y-103401618D02*
X137340180Y-103592094D01*
X137340180Y-103592094D02*
X137387800Y-103687332D01*
X137387800Y-103687332D02*
X137435419Y-103734951D01*
X137435419Y-103734951D02*
X137530657Y-103782570D01*
X137530657Y-103782570D02*
X137816371Y-103782570D01*
X137816371Y-103782570D02*
X137911609Y-103734951D01*
X137911609Y-103734951D02*
X137959228Y-103687332D01*
X137959228Y-103687332D02*
X138006847Y-103592094D01*
X138006847Y-103592094D02*
X138006847Y-103401618D01*
X138006847Y-103401618D02*
X137959228Y-103306380D01*
X138387800Y-102163523D02*
X137102085Y-103020665D01*
X138006847Y-101973046D02*
X138006847Y-101592094D01*
X137340180Y-101830189D02*
X138197323Y-101830189D01*
X138197323Y-101830189D02*
X138292561Y-101782570D01*
X138292561Y-101782570D02*
X138340180Y-101687332D01*
X138340180Y-101687332D02*
X138340180Y-101592094D01*
X138006847Y-100830189D02*
X137340180Y-100830189D01*
X138006847Y-101258760D02*
X137483038Y-101258760D01*
X137483038Y-101258760D02*
X137387800Y-101211141D01*
X137387800Y-101211141D02*
X137340180Y-101115903D01*
X137340180Y-101115903D02*
X137340180Y-100973046D01*
X137340180Y-100973046D02*
X137387800Y-100877808D01*
X137387800Y-100877808D02*
X137435419Y-100830189D01*
X138006847Y-100353998D02*
X137149704Y-100353998D01*
X137149704Y-100353998D02*
X137054466Y-100401617D01*
X137054466Y-100401617D02*
X137006847Y-100496855D01*
X137006847Y-100496855D02*
X137006847Y-100544474D01*
X138340180Y-100353998D02*
X138292561Y-100401617D01*
X138292561Y-100401617D02*
X138244942Y-100353998D01*
X138244942Y-100353998D02*
X138292561Y-100306379D01*
X138292561Y-100306379D02*
X138340180Y-100353998D01*
X138340180Y-100353998D02*
X138244942Y-100353998D01*
X137340180Y-99877808D02*
X138006847Y-99877808D01*
X138340180Y-99877808D02*
X138292561Y-99925427D01*
X138292561Y-99925427D02*
X138244942Y-99877808D01*
X138244942Y-99877808D02*
X138292561Y-99830189D01*
X138292561Y-99830189D02*
X138340180Y-99877808D01*
X138340180Y-99877808D02*
X138244942Y-99877808D01*
X138006847Y-99401618D02*
X137340180Y-99401618D01*
X137911609Y-99401618D02*
X137959228Y-99353999D01*
X137959228Y-99353999D02*
X138006847Y-99258761D01*
X138006847Y-99258761D02*
X138006847Y-99115904D01*
X138006847Y-99115904D02*
X137959228Y-99020666D01*
X137959228Y-99020666D02*
X137863990Y-98973047D01*
X137863990Y-98973047D02*
X137340180Y-98973047D01*
X137387800Y-98115904D02*
X137340180Y-98211142D01*
X137340180Y-98211142D02*
X137340180Y-98401618D01*
X137340180Y-98401618D02*
X137387800Y-98496856D01*
X137387800Y-98496856D02*
X137483038Y-98544475D01*
X137483038Y-98544475D02*
X137863990Y-98544475D01*
X137863990Y-98544475D02*
X137959228Y-98496856D01*
X137959228Y-98496856D02*
X138006847Y-98401618D01*
X138006847Y-98401618D02*
X138006847Y-98211142D01*
X138006847Y-98211142D02*
X137959228Y-98115904D01*
X137959228Y-98115904D02*
X137863990Y-98068285D01*
X137863990Y-98068285D02*
X137768752Y-98068285D01*
X137768752Y-98068285D02*
X137673514Y-98544475D01*
X138006847Y-97782570D02*
X138006847Y-97401618D01*
X138340180Y-97639713D02*
X137483038Y-97639713D01*
X137483038Y-97639713D02*
X137387800Y-97592094D01*
X137387800Y-97592094D02*
X137340180Y-97496856D01*
X137340180Y-97496856D02*
X137340180Y-97401618D01*
X137721133Y-97068284D02*
X137721133Y-96306380D01*
X137340180Y-95401618D02*
X137863990Y-95401618D01*
X137863990Y-95401618D02*
X137959228Y-95449237D01*
X137959228Y-95449237D02*
X138006847Y-95544475D01*
X138006847Y-95544475D02*
X138006847Y-95734951D01*
X138006847Y-95734951D02*
X137959228Y-95830189D01*
X137387800Y-95401618D02*
X137340180Y-95496856D01*
X137340180Y-95496856D02*
X137340180Y-95734951D01*
X137340180Y-95734951D02*
X137387800Y-95830189D01*
X137387800Y-95830189D02*
X137483038Y-95877808D01*
X137483038Y-95877808D02*
X137578276Y-95877808D01*
X137578276Y-95877808D02*
X137673514Y-95830189D01*
X137673514Y-95830189D02*
X137721133Y-95734951D01*
X137721133Y-95734951D02*
X137721133Y-95496856D01*
X137721133Y-95496856D02*
X137768752Y-95401618D01*
X138006847Y-94925427D02*
X137006847Y-94925427D01*
X137959228Y-94925427D02*
X138006847Y-94830189D01*
X138006847Y-94830189D02*
X138006847Y-94639713D01*
X138006847Y-94639713D02*
X137959228Y-94544475D01*
X137959228Y-94544475D02*
X137911609Y-94496856D01*
X137911609Y-94496856D02*
X137816371Y-94449237D01*
X137816371Y-94449237D02*
X137530657Y-94449237D01*
X137530657Y-94449237D02*
X137435419Y-94496856D01*
X137435419Y-94496856D02*
X137387800Y-94544475D01*
X137387800Y-94544475D02*
X137340180Y-94639713D01*
X137340180Y-94639713D02*
X137340180Y-94830189D01*
X137340180Y-94830189D02*
X137387800Y-94925427D01*
X138006847Y-94020665D02*
X137006847Y-94020665D01*
X137959228Y-94020665D02*
X138006847Y-93925427D01*
X138006847Y-93925427D02*
X138006847Y-93734951D01*
X138006847Y-93734951D02*
X137959228Y-93639713D01*
X137959228Y-93639713D02*
X137911609Y-93592094D01*
X137911609Y-93592094D02*
X137816371Y-93544475D01*
X137816371Y-93544475D02*
X137530657Y-93544475D01*
X137530657Y-93544475D02*
X137435419Y-93592094D01*
X137435419Y-93592094D02*
X137387800Y-93639713D01*
X137387800Y-93639713D02*
X137340180Y-93734951D01*
X137340180Y-93734951D02*
X137340180Y-93925427D01*
X137340180Y-93925427D02*
X137387800Y-94020665D01*
X137340180Y-92973046D02*
X137387800Y-93068284D01*
X137387800Y-93068284D02*
X137483038Y-93115903D01*
X137483038Y-93115903D02*
X138340180Y-93115903D01*
X137387800Y-92211141D02*
X137340180Y-92306379D01*
X137340180Y-92306379D02*
X137340180Y-92496855D01*
X137340180Y-92496855D02*
X137387800Y-92592093D01*
X137387800Y-92592093D02*
X137483038Y-92639712D01*
X137483038Y-92639712D02*
X137863990Y-92639712D01*
X137863990Y-92639712D02*
X137959228Y-92592093D01*
X137959228Y-92592093D02*
X138006847Y-92496855D01*
X138006847Y-92496855D02*
X138006847Y-92306379D01*
X138006847Y-92306379D02*
X137959228Y-92211141D01*
X137959228Y-92211141D02*
X137863990Y-92163522D01*
X137863990Y-92163522D02*
X137768752Y-92163522D01*
X137768752Y-92163522D02*
X137673514Y-92639712D01*
X137340180Y-91734950D02*
X138006847Y-91734950D01*
X138340180Y-91734950D02*
X138292561Y-91782569D01*
X138292561Y-91782569D02*
X138244942Y-91734950D01*
X138244942Y-91734950D02*
X138292561Y-91687331D01*
X138292561Y-91687331D02*
X138340180Y-91734950D01*
X138340180Y-91734950D02*
X138244942Y-91734950D01*
X137340180Y-91258760D02*
X138006847Y-91258760D01*
X138340180Y-91258760D02*
X138292561Y-91306379D01*
X138292561Y-91306379D02*
X138244942Y-91258760D01*
X138244942Y-91258760D02*
X138292561Y-91211141D01*
X138292561Y-91211141D02*
X138340180Y-91258760D01*
X138340180Y-91258760D02*
X138244942Y-91258760D01*
X137721133Y-90782570D02*
X137721133Y-90020666D01*
X137340180Y-89544475D02*
X138340180Y-89544475D01*
X137340180Y-89115904D02*
X137863990Y-89115904D01*
X137863990Y-89115904D02*
X137959228Y-89163523D01*
X137959228Y-89163523D02*
X138006847Y-89258761D01*
X138006847Y-89258761D02*
X138006847Y-89401618D01*
X138006847Y-89401618D02*
X137959228Y-89496856D01*
X137959228Y-89496856D02*
X137911609Y-89544475D01*
X137340180Y-88211142D02*
X137863990Y-88211142D01*
X137863990Y-88211142D02*
X137959228Y-88258761D01*
X137959228Y-88258761D02*
X138006847Y-88353999D01*
X138006847Y-88353999D02*
X138006847Y-88544475D01*
X138006847Y-88544475D02*
X137959228Y-88639713D01*
X137387800Y-88211142D02*
X137340180Y-88306380D01*
X137340180Y-88306380D02*
X137340180Y-88544475D01*
X137340180Y-88544475D02*
X137387800Y-88639713D01*
X137387800Y-88639713D02*
X137483038Y-88687332D01*
X137483038Y-88687332D02*
X137578276Y-88687332D01*
X137578276Y-88687332D02*
X137673514Y-88639713D01*
X137673514Y-88639713D02*
X137721133Y-88544475D01*
X137721133Y-88544475D02*
X137721133Y-88306380D01*
X137721133Y-88306380D02*
X137768752Y-88211142D01*
X137340180Y-87734951D02*
X138006847Y-87734951D01*
X137816371Y-87734951D02*
X137911609Y-87687332D01*
X137911609Y-87687332D02*
X137959228Y-87639713D01*
X137959228Y-87639713D02*
X138006847Y-87544475D01*
X138006847Y-87544475D02*
X138006847Y-87449237D01*
X137340180Y-86687332D02*
X138340180Y-86687332D01*
X137387800Y-86687332D02*
X137340180Y-86782570D01*
X137340180Y-86782570D02*
X137340180Y-86973046D01*
X137340180Y-86973046D02*
X137387800Y-87068284D01*
X137387800Y-87068284D02*
X137435419Y-87115903D01*
X137435419Y-87115903D02*
X137530657Y-87163522D01*
X137530657Y-87163522D02*
X137816371Y-87163522D01*
X137816371Y-87163522D02*
X137911609Y-87115903D01*
X137911609Y-87115903D02*
X137959228Y-87068284D01*
X137959228Y-87068284D02*
X138006847Y-86973046D01*
X138006847Y-86973046D02*
X138006847Y-86782570D01*
X138006847Y-86782570D02*
X137959228Y-86687332D01*
X138006847Y-86306379D02*
X137340180Y-86115903D01*
X137340180Y-86115903D02*
X137816371Y-85925427D01*
X137816371Y-85925427D02*
X137340180Y-85734951D01*
X137340180Y-85734951D02*
X138006847Y-85544475D01*
X137340180Y-84734951D02*
X137863990Y-84734951D01*
X137863990Y-84734951D02*
X137959228Y-84782570D01*
X137959228Y-84782570D02*
X138006847Y-84877808D01*
X138006847Y-84877808D02*
X138006847Y-85068284D01*
X138006847Y-85068284D02*
X137959228Y-85163522D01*
X137387800Y-84734951D02*
X137340180Y-84830189D01*
X137340180Y-84830189D02*
X137340180Y-85068284D01*
X137340180Y-85068284D02*
X137387800Y-85163522D01*
X137387800Y-85163522D02*
X137483038Y-85211141D01*
X137483038Y-85211141D02*
X137578276Y-85211141D01*
X137578276Y-85211141D02*
X137673514Y-85163522D01*
X137673514Y-85163522D02*
X137721133Y-85068284D01*
X137721133Y-85068284D02*
X137721133Y-84830189D01*
X137721133Y-84830189D02*
X137768752Y-84734951D01*
X137340180Y-84258760D02*
X138006847Y-84258760D01*
X137816371Y-84258760D02*
X137911609Y-84211141D01*
X137911609Y-84211141D02*
X137959228Y-84163522D01*
X137959228Y-84163522D02*
X138006847Y-84068284D01*
X138006847Y-84068284D02*
X138006847Y-83973046D01*
X137387800Y-83258760D02*
X137340180Y-83353998D01*
X137340180Y-83353998D02*
X137340180Y-83544474D01*
X137340180Y-83544474D02*
X137387800Y-83639712D01*
X137387800Y-83639712D02*
X137483038Y-83687331D01*
X137483038Y-83687331D02*
X137863990Y-83687331D01*
X137863990Y-83687331D02*
X137959228Y-83639712D01*
X137959228Y-83639712D02*
X138006847Y-83544474D01*
X138006847Y-83544474D02*
X138006847Y-83353998D01*
X138006847Y-83353998D02*
X137959228Y-83258760D01*
X137959228Y-83258760D02*
X137863990Y-83211141D01*
X137863990Y-83211141D02*
X137768752Y-83211141D01*
X137768752Y-83211141D02*
X137673514Y-83687331D01*
X135730180Y-110115905D02*
X136730180Y-110115905D01*
X136730180Y-110115905D02*
X136730180Y-109734953D01*
X136730180Y-109734953D02*
X136682561Y-109639715D01*
X136682561Y-109639715D02*
X136634942Y-109592096D01*
X136634942Y-109592096D02*
X136539704Y-109544477D01*
X136539704Y-109544477D02*
X136396847Y-109544477D01*
X136396847Y-109544477D02*
X136301609Y-109592096D01*
X136301609Y-109592096D02*
X136253990Y-109639715D01*
X136253990Y-109639715D02*
X136206371Y-109734953D01*
X136206371Y-109734953D02*
X136206371Y-110115905D01*
X135825419Y-108544477D02*
X135777800Y-108592096D01*
X135777800Y-108592096D02*
X135730180Y-108734953D01*
X135730180Y-108734953D02*
X135730180Y-108830191D01*
X135730180Y-108830191D02*
X135777800Y-108973048D01*
X135777800Y-108973048D02*
X135873038Y-109068286D01*
X135873038Y-109068286D02*
X135968276Y-109115905D01*
X135968276Y-109115905D02*
X136158752Y-109163524D01*
X136158752Y-109163524D02*
X136301609Y-109163524D01*
X136301609Y-109163524D02*
X136492085Y-109115905D01*
X136492085Y-109115905D02*
X136587323Y-109068286D01*
X136587323Y-109068286D02*
X136682561Y-108973048D01*
X136682561Y-108973048D02*
X136730180Y-108830191D01*
X136730180Y-108830191D02*
X136730180Y-108734953D01*
X136730180Y-108734953D02*
X136682561Y-108592096D01*
X136682561Y-108592096D02*
X136634942Y-108544477D01*
X136253990Y-107782572D02*
X136206371Y-107639715D01*
X136206371Y-107639715D02*
X136158752Y-107592096D01*
X136158752Y-107592096D02*
X136063514Y-107544477D01*
X136063514Y-107544477D02*
X135920657Y-107544477D01*
X135920657Y-107544477D02*
X135825419Y-107592096D01*
X135825419Y-107592096D02*
X135777800Y-107639715D01*
X135777800Y-107639715D02*
X135730180Y-107734953D01*
X135730180Y-107734953D02*
X135730180Y-108115905D01*
X135730180Y-108115905D02*
X136730180Y-108115905D01*
X136730180Y-108115905D02*
X136730180Y-107782572D01*
X136730180Y-107782572D02*
X136682561Y-107687334D01*
X136682561Y-107687334D02*
X136634942Y-107639715D01*
X136634942Y-107639715D02*
X136539704Y-107592096D01*
X136539704Y-107592096D02*
X136444466Y-107592096D01*
X136444466Y-107592096D02*
X136349228Y-107639715D01*
X136349228Y-107639715D02*
X136301609Y-107687334D01*
X136301609Y-107687334D02*
X136253990Y-107782572D01*
X136253990Y-107782572D02*
X136253990Y-108115905D01*
X135730180Y-106354000D02*
X136730180Y-106354000D01*
X136349228Y-106354000D02*
X136396847Y-106258762D01*
X136396847Y-106258762D02*
X136396847Y-106068286D01*
X136396847Y-106068286D02*
X136349228Y-105973048D01*
X136349228Y-105973048D02*
X136301609Y-105925429D01*
X136301609Y-105925429D02*
X136206371Y-105877810D01*
X136206371Y-105877810D02*
X135920657Y-105877810D01*
X135920657Y-105877810D02*
X135825419Y-105925429D01*
X135825419Y-105925429D02*
X135777800Y-105973048D01*
X135777800Y-105973048D02*
X135730180Y-106068286D01*
X135730180Y-106068286D02*
X135730180Y-106258762D01*
X135730180Y-106258762D02*
X135777800Y-106354000D01*
X136396847Y-105544476D02*
X135730180Y-105306381D01*
X136396847Y-105068286D02*
X135730180Y-105306381D01*
X135730180Y-105306381D02*
X135492085Y-105401619D01*
X135492085Y-105401619D02*
X135444466Y-105449238D01*
X135444466Y-105449238D02*
X135396847Y-105544476D01*
X135825419Y-103354000D02*
X135777800Y-103401619D01*
X135777800Y-103401619D02*
X135730180Y-103544476D01*
X135730180Y-103544476D02*
X135730180Y-103639714D01*
X135730180Y-103639714D02*
X135777800Y-103782571D01*
X135777800Y-103782571D02*
X135873038Y-103877809D01*
X135873038Y-103877809D02*
X135968276Y-103925428D01*
X135968276Y-103925428D02*
X136158752Y-103973047D01*
X136158752Y-103973047D02*
X136301609Y-103973047D01*
X136301609Y-103973047D02*
X136492085Y-103925428D01*
X136492085Y-103925428D02*
X136587323Y-103877809D01*
X136587323Y-103877809D02*
X136682561Y-103782571D01*
X136682561Y-103782571D02*
X136730180Y-103639714D01*
X136730180Y-103639714D02*
X136730180Y-103544476D01*
X136730180Y-103544476D02*
X136682561Y-103401619D01*
X136682561Y-103401619D02*
X136634942Y-103354000D01*
X135730180Y-102925428D02*
X136730180Y-102925428D01*
X135730180Y-102496857D02*
X136253990Y-102496857D01*
X136253990Y-102496857D02*
X136349228Y-102544476D01*
X136349228Y-102544476D02*
X136396847Y-102639714D01*
X136396847Y-102639714D02*
X136396847Y-102782571D01*
X136396847Y-102782571D02*
X136349228Y-102877809D01*
X136349228Y-102877809D02*
X136301609Y-102925428D01*
X135730180Y-102020666D02*
X136396847Y-102020666D01*
X136206371Y-102020666D02*
X136301609Y-101973047D01*
X136301609Y-101973047D02*
X136349228Y-101925428D01*
X136349228Y-101925428D02*
X136396847Y-101830190D01*
X136396847Y-101830190D02*
X136396847Y-101734952D01*
X135730180Y-101401618D02*
X136396847Y-101401618D01*
X136730180Y-101401618D02*
X136682561Y-101449237D01*
X136682561Y-101449237D02*
X136634942Y-101401618D01*
X136634942Y-101401618D02*
X136682561Y-101353999D01*
X136682561Y-101353999D02*
X136730180Y-101401618D01*
X136730180Y-101401618D02*
X136634942Y-101401618D01*
X135777800Y-100973047D02*
X135730180Y-100877809D01*
X135730180Y-100877809D02*
X135730180Y-100687333D01*
X135730180Y-100687333D02*
X135777800Y-100592095D01*
X135777800Y-100592095D02*
X135873038Y-100544476D01*
X135873038Y-100544476D02*
X135920657Y-100544476D01*
X135920657Y-100544476D02*
X136015895Y-100592095D01*
X136015895Y-100592095D02*
X136063514Y-100687333D01*
X136063514Y-100687333D02*
X136063514Y-100830190D01*
X136063514Y-100830190D02*
X136111133Y-100925428D01*
X136111133Y-100925428D02*
X136206371Y-100973047D01*
X136206371Y-100973047D02*
X136253990Y-100973047D01*
X136253990Y-100973047D02*
X136349228Y-100925428D01*
X136349228Y-100925428D02*
X136396847Y-100830190D01*
X136396847Y-100830190D02*
X136396847Y-100687333D01*
X136396847Y-100687333D02*
X136349228Y-100592095D01*
X136730180Y-99496856D02*
X136730180Y-98925428D01*
X135730180Y-99211142D02*
X136730180Y-99211142D01*
X135777800Y-98211142D02*
X135730180Y-98306380D01*
X135730180Y-98306380D02*
X135730180Y-98496856D01*
X135730180Y-98496856D02*
X135777800Y-98592094D01*
X135777800Y-98592094D02*
X135873038Y-98639713D01*
X135873038Y-98639713D02*
X136253990Y-98639713D01*
X136253990Y-98639713D02*
X136349228Y-98592094D01*
X136349228Y-98592094D02*
X136396847Y-98496856D01*
X136396847Y-98496856D02*
X136396847Y-98306380D01*
X136396847Y-98306380D02*
X136349228Y-98211142D01*
X136349228Y-98211142D02*
X136253990Y-98163523D01*
X136253990Y-98163523D02*
X136158752Y-98163523D01*
X136158752Y-98163523D02*
X136063514Y-98639713D01*
X135730180Y-97734951D02*
X136396847Y-97734951D01*
X136206371Y-97734951D02*
X136301609Y-97687332D01*
X136301609Y-97687332D02*
X136349228Y-97639713D01*
X136349228Y-97639713D02*
X136396847Y-97544475D01*
X136396847Y-97544475D02*
X136396847Y-97449237D01*
X135777800Y-97163522D02*
X135730180Y-97068284D01*
X135730180Y-97068284D02*
X135730180Y-96877808D01*
X135730180Y-96877808D02*
X135777800Y-96782570D01*
X135777800Y-96782570D02*
X135873038Y-96734951D01*
X135873038Y-96734951D02*
X135920657Y-96734951D01*
X135920657Y-96734951D02*
X136015895Y-96782570D01*
X136015895Y-96782570D02*
X136063514Y-96877808D01*
X136063514Y-96877808D02*
X136063514Y-97020665D01*
X136063514Y-97020665D02*
X136111133Y-97115903D01*
X136111133Y-97115903D02*
X136206371Y-97163522D01*
X136206371Y-97163522D02*
X136253990Y-97163522D01*
X136253990Y-97163522D02*
X136349228Y-97115903D01*
X136349228Y-97115903D02*
X136396847Y-97020665D01*
X136396847Y-97020665D02*
X136396847Y-96877808D01*
X136396847Y-96877808D02*
X136349228Y-96782570D01*
X136396847Y-96449236D02*
X136396847Y-96068284D01*
X136730180Y-96306379D02*
X135873038Y-96306379D01*
X135873038Y-96306379D02*
X135777800Y-96258760D01*
X135777800Y-96258760D02*
X135730180Y-96163522D01*
X135730180Y-96163522D02*
X135730180Y-96068284D01*
X135777800Y-95353998D02*
X135730180Y-95449236D01*
X135730180Y-95449236D02*
X135730180Y-95639712D01*
X135730180Y-95639712D02*
X135777800Y-95734950D01*
X135777800Y-95734950D02*
X135873038Y-95782569D01*
X135873038Y-95782569D02*
X136253990Y-95782569D01*
X136253990Y-95782569D02*
X136349228Y-95734950D01*
X136349228Y-95734950D02*
X136396847Y-95639712D01*
X136396847Y-95639712D02*
X136396847Y-95449236D01*
X136396847Y-95449236D02*
X136349228Y-95353998D01*
X136349228Y-95353998D02*
X136253990Y-95306379D01*
X136253990Y-95306379D02*
X136158752Y-95306379D01*
X136158752Y-95306379D02*
X136063514Y-95782569D01*
X135777800Y-94496855D02*
X135730180Y-94592093D01*
X135730180Y-94592093D02*
X135730180Y-94782569D01*
X135730180Y-94782569D02*
X135777800Y-94877807D01*
X135777800Y-94877807D02*
X135873038Y-94925426D01*
X135873038Y-94925426D02*
X136253990Y-94925426D01*
X136253990Y-94925426D02*
X136349228Y-94877807D01*
X136349228Y-94877807D02*
X136396847Y-94782569D01*
X136396847Y-94782569D02*
X136396847Y-94592093D01*
X136396847Y-94592093D02*
X136349228Y-94496855D01*
X136349228Y-94496855D02*
X136253990Y-94449236D01*
X136253990Y-94449236D02*
X136158752Y-94449236D01*
X136158752Y-94449236D02*
X136063514Y-94925426D01*
X136396847Y-93592093D02*
X135587323Y-93592093D01*
X135587323Y-93592093D02*
X135492085Y-93639712D01*
X135492085Y-93639712D02*
X135444466Y-93687331D01*
X135444466Y-93687331D02*
X135396847Y-93782569D01*
X135396847Y-93782569D02*
X135396847Y-93925426D01*
X135396847Y-93925426D02*
X135444466Y-94020664D01*
X135777800Y-93592093D02*
X135730180Y-93687331D01*
X135730180Y-93687331D02*
X135730180Y-93877807D01*
X135730180Y-93877807D02*
X135777800Y-93973045D01*
X135777800Y-93973045D02*
X135825419Y-94020664D01*
X135825419Y-94020664D02*
X135920657Y-94068283D01*
X135920657Y-94068283D02*
X136206371Y-94068283D01*
X136206371Y-94068283D02*
X136301609Y-94020664D01*
X136301609Y-94020664D02*
X136349228Y-93973045D01*
X136349228Y-93973045D02*
X136396847Y-93877807D01*
X136396847Y-93877807D02*
X136396847Y-93687331D01*
X136396847Y-93687331D02*
X136349228Y-93592093D01*
X165463810Y-80698819D02*
X165273334Y-80698819D01*
X165273334Y-80698819D02*
X165178096Y-80746438D01*
X165178096Y-80746438D02*
X165082858Y-80841676D01*
X165082858Y-80841676D02*
X165035239Y-81032152D01*
X165035239Y-81032152D02*
X165035239Y-81365485D01*
X165035239Y-81365485D02*
X165082858Y-81555961D01*
X165082858Y-81555961D02*
X165178096Y-81651200D01*
X165178096Y-81651200D02*
X165273334Y-81698819D01*
X165273334Y-81698819D02*
X165463810Y-81698819D01*
X165463810Y-81698819D02*
X165559048Y-81651200D01*
X165559048Y-81651200D02*
X165654286Y-81555961D01*
X165654286Y-81555961D02*
X165701905Y-81365485D01*
X165701905Y-81365485D02*
X165701905Y-81032152D01*
X165701905Y-81032152D02*
X165654286Y-80841676D01*
X165654286Y-80841676D02*
X165559048Y-80746438D01*
X165559048Y-80746438D02*
X165463810Y-80698819D01*
X164606667Y-81698819D02*
X164606667Y-81032152D01*
X164606667Y-81222628D02*
X164559048Y-81127390D01*
X164559048Y-81127390D02*
X164511429Y-81079771D01*
X164511429Y-81079771D02*
X164416191Y-81032152D01*
X164416191Y-81032152D02*
X164320953Y-81032152D01*
X163987619Y-81698819D02*
X163987619Y-81032152D01*
X163987619Y-80698819D02*
X164035238Y-80746438D01*
X164035238Y-80746438D02*
X163987619Y-80794057D01*
X163987619Y-80794057D02*
X163940000Y-80746438D01*
X163940000Y-80746438D02*
X163987619Y-80698819D01*
X163987619Y-80698819D02*
X163987619Y-80794057D01*
X163082858Y-81032152D02*
X163082858Y-81841676D01*
X163082858Y-81841676D02*
X163130477Y-81936914D01*
X163130477Y-81936914D02*
X163178096Y-81984533D01*
X163178096Y-81984533D02*
X163273334Y-82032152D01*
X163273334Y-82032152D02*
X163416191Y-82032152D01*
X163416191Y-82032152D02*
X163511429Y-81984533D01*
X163082858Y-81651200D02*
X163178096Y-81698819D01*
X163178096Y-81698819D02*
X163368572Y-81698819D01*
X163368572Y-81698819D02*
X163463810Y-81651200D01*
X163463810Y-81651200D02*
X163511429Y-81603580D01*
X163511429Y-81603580D02*
X163559048Y-81508342D01*
X163559048Y-81508342D02*
X163559048Y-81222628D01*
X163559048Y-81222628D02*
X163511429Y-81127390D01*
X163511429Y-81127390D02*
X163463810Y-81079771D01*
X163463810Y-81079771D02*
X163368572Y-81032152D01*
X163368572Y-81032152D02*
X163178096Y-81032152D01*
X163178096Y-81032152D02*
X163082858Y-81079771D01*
X162606667Y-81698819D02*
X162606667Y-81032152D01*
X162606667Y-80698819D02*
X162654286Y-80746438D01*
X162654286Y-80746438D02*
X162606667Y-80794057D01*
X162606667Y-80794057D02*
X162559048Y-80746438D01*
X162559048Y-80746438D02*
X162606667Y-80698819D01*
X162606667Y-80698819D02*
X162606667Y-80794057D01*
X162130477Y-81032152D02*
X162130477Y-81698819D01*
X162130477Y-81127390D02*
X162082858Y-81079771D01*
X162082858Y-81079771D02*
X161987620Y-81032152D01*
X161987620Y-81032152D02*
X161844763Y-81032152D01*
X161844763Y-81032152D02*
X161749525Y-81079771D01*
X161749525Y-81079771D02*
X161701906Y-81175009D01*
X161701906Y-81175009D02*
X161701906Y-81698819D01*
X160797144Y-81698819D02*
X160797144Y-81175009D01*
X160797144Y-81175009D02*
X160844763Y-81079771D01*
X160844763Y-81079771D02*
X160940001Y-81032152D01*
X160940001Y-81032152D02*
X161130477Y-81032152D01*
X161130477Y-81032152D02*
X161225715Y-81079771D01*
X160797144Y-81651200D02*
X160892382Y-81698819D01*
X160892382Y-81698819D02*
X161130477Y-81698819D01*
X161130477Y-81698819D02*
X161225715Y-81651200D01*
X161225715Y-81651200D02*
X161273334Y-81555961D01*
X161273334Y-81555961D02*
X161273334Y-81460723D01*
X161273334Y-81460723D02*
X161225715Y-81365485D01*
X161225715Y-81365485D02*
X161130477Y-81317866D01*
X161130477Y-81317866D02*
X160892382Y-81317866D01*
X160892382Y-81317866D02*
X160797144Y-81270247D01*
X160178096Y-81698819D02*
X160273334Y-81651200D01*
X160273334Y-81651200D02*
X160320953Y-81555961D01*
X160320953Y-81555961D02*
X160320953Y-80698819D01*
X158606667Y-81698819D02*
X158606667Y-80698819D01*
X158606667Y-81651200D02*
X158701905Y-81698819D01*
X158701905Y-81698819D02*
X158892381Y-81698819D01*
X158892381Y-81698819D02*
X158987619Y-81651200D01*
X158987619Y-81651200D02*
X159035238Y-81603580D01*
X159035238Y-81603580D02*
X159082857Y-81508342D01*
X159082857Y-81508342D02*
X159082857Y-81222628D01*
X159082857Y-81222628D02*
X159035238Y-81127390D01*
X159035238Y-81127390D02*
X158987619Y-81079771D01*
X158987619Y-81079771D02*
X158892381Y-81032152D01*
X158892381Y-81032152D02*
X158701905Y-81032152D01*
X158701905Y-81032152D02*
X158606667Y-81079771D01*
X157749524Y-81651200D02*
X157844762Y-81698819D01*
X157844762Y-81698819D02*
X158035238Y-81698819D01*
X158035238Y-81698819D02*
X158130476Y-81651200D01*
X158130476Y-81651200D02*
X158178095Y-81555961D01*
X158178095Y-81555961D02*
X158178095Y-81175009D01*
X158178095Y-81175009D02*
X158130476Y-81079771D01*
X158130476Y-81079771D02*
X158035238Y-81032152D01*
X158035238Y-81032152D02*
X157844762Y-81032152D01*
X157844762Y-81032152D02*
X157749524Y-81079771D01*
X157749524Y-81079771D02*
X157701905Y-81175009D01*
X157701905Y-81175009D02*
X157701905Y-81270247D01*
X157701905Y-81270247D02*
X158178095Y-81365485D01*
X157320952Y-81651200D02*
X157225714Y-81698819D01*
X157225714Y-81698819D02*
X157035238Y-81698819D01*
X157035238Y-81698819D02*
X156940000Y-81651200D01*
X156940000Y-81651200D02*
X156892381Y-81555961D01*
X156892381Y-81555961D02*
X156892381Y-81508342D01*
X156892381Y-81508342D02*
X156940000Y-81413104D01*
X156940000Y-81413104D02*
X157035238Y-81365485D01*
X157035238Y-81365485D02*
X157178095Y-81365485D01*
X157178095Y-81365485D02*
X157273333Y-81317866D01*
X157273333Y-81317866D02*
X157320952Y-81222628D01*
X157320952Y-81222628D02*
X157320952Y-81175009D01*
X157320952Y-81175009D02*
X157273333Y-81079771D01*
X157273333Y-81079771D02*
X157178095Y-81032152D01*
X157178095Y-81032152D02*
X157035238Y-81032152D01*
X157035238Y-81032152D02*
X156940000Y-81079771D01*
X156463809Y-81698819D02*
X156463809Y-81032152D01*
X156463809Y-80698819D02*
X156511428Y-80746438D01*
X156511428Y-80746438D02*
X156463809Y-80794057D01*
X156463809Y-80794057D02*
X156416190Y-80746438D01*
X156416190Y-80746438D02*
X156463809Y-80698819D01*
X156463809Y-80698819D02*
X156463809Y-80794057D01*
X155559048Y-81032152D02*
X155559048Y-81841676D01*
X155559048Y-81841676D02*
X155606667Y-81936914D01*
X155606667Y-81936914D02*
X155654286Y-81984533D01*
X155654286Y-81984533D02*
X155749524Y-82032152D01*
X155749524Y-82032152D02*
X155892381Y-82032152D01*
X155892381Y-82032152D02*
X155987619Y-81984533D01*
X155559048Y-81651200D02*
X155654286Y-81698819D01*
X155654286Y-81698819D02*
X155844762Y-81698819D01*
X155844762Y-81698819D02*
X155940000Y-81651200D01*
X155940000Y-81651200D02*
X155987619Y-81603580D01*
X155987619Y-81603580D02*
X156035238Y-81508342D01*
X156035238Y-81508342D02*
X156035238Y-81222628D01*
X156035238Y-81222628D02*
X155987619Y-81127390D01*
X155987619Y-81127390D02*
X155940000Y-81079771D01*
X155940000Y-81079771D02*
X155844762Y-81032152D01*
X155844762Y-81032152D02*
X155654286Y-81032152D01*
X155654286Y-81032152D02*
X155559048Y-81079771D01*
X155082857Y-81032152D02*
X155082857Y-81698819D01*
X155082857Y-81127390D02*
X155035238Y-81079771D01*
X155035238Y-81079771D02*
X154940000Y-81032152D01*
X154940000Y-81032152D02*
X154797143Y-81032152D01*
X154797143Y-81032152D02*
X154701905Y-81079771D01*
X154701905Y-81079771D02*
X154654286Y-81175009D01*
X154654286Y-81175009D02*
X154654286Y-81698819D01*
X153416190Y-81698819D02*
X153416190Y-80698819D01*
X153416190Y-81079771D02*
X153320952Y-81032152D01*
X153320952Y-81032152D02*
X153130476Y-81032152D01*
X153130476Y-81032152D02*
X153035238Y-81079771D01*
X153035238Y-81079771D02*
X152987619Y-81127390D01*
X152987619Y-81127390D02*
X152940000Y-81222628D01*
X152940000Y-81222628D02*
X152940000Y-81508342D01*
X152940000Y-81508342D02*
X152987619Y-81603580D01*
X152987619Y-81603580D02*
X153035238Y-81651200D01*
X153035238Y-81651200D02*
X153130476Y-81698819D01*
X153130476Y-81698819D02*
X153320952Y-81698819D01*
X153320952Y-81698819D02*
X153416190Y-81651200D01*
X152606666Y-81032152D02*
X152368571Y-81698819D01*
X152130476Y-81032152D02*
X152368571Y-81698819D01*
X152368571Y-81698819D02*
X152463809Y-81936914D01*
X152463809Y-81936914D02*
X152511428Y-81984533D01*
X152511428Y-81984533D02*
X152606666Y-82032152D01*
X150987618Y-81698819D02*
X150987618Y-81032152D01*
X150987618Y-81127390D02*
X150939999Y-81079771D01*
X150939999Y-81079771D02*
X150844761Y-81032152D01*
X150844761Y-81032152D02*
X150701904Y-81032152D01*
X150701904Y-81032152D02*
X150606666Y-81079771D01*
X150606666Y-81079771D02*
X150559047Y-81175009D01*
X150559047Y-81175009D02*
X150559047Y-81698819D01*
X150559047Y-81175009D02*
X150511428Y-81079771D01*
X150511428Y-81079771D02*
X150416190Y-81032152D01*
X150416190Y-81032152D02*
X150273333Y-81032152D01*
X150273333Y-81032152D02*
X150178094Y-81079771D01*
X150178094Y-81079771D02*
X150130475Y-81175009D01*
X150130475Y-81175009D02*
X150130475Y-81698819D01*
X149511428Y-81698819D02*
X149606666Y-81651200D01*
X149606666Y-81651200D02*
X149654285Y-81603580D01*
X149654285Y-81603580D02*
X149701904Y-81508342D01*
X149701904Y-81508342D02*
X149701904Y-81222628D01*
X149701904Y-81222628D02*
X149654285Y-81127390D01*
X149654285Y-81127390D02*
X149606666Y-81079771D01*
X149606666Y-81079771D02*
X149511428Y-81032152D01*
X149511428Y-81032152D02*
X149368571Y-81032152D01*
X149368571Y-81032152D02*
X149273333Y-81079771D01*
X149273333Y-81079771D02*
X149225714Y-81127390D01*
X149225714Y-81127390D02*
X149178095Y-81222628D01*
X149178095Y-81222628D02*
X149178095Y-81508342D01*
X149178095Y-81508342D02*
X149225714Y-81603580D01*
X149225714Y-81603580D02*
X149273333Y-81651200D01*
X149273333Y-81651200D02*
X149368571Y-81698819D01*
X149368571Y-81698819D02*
X149511428Y-81698819D01*
X148844761Y-81032152D02*
X148320952Y-81032152D01*
X148320952Y-81032152D02*
X148844761Y-81698819D01*
X148844761Y-81698819D02*
X148320952Y-81698819D01*
X148035237Y-81032152D02*
X147511428Y-81032152D01*
X147511428Y-81032152D02*
X148035237Y-81698819D01*
X148035237Y-81698819D02*
X147511428Y-81698819D01*
X147225713Y-81032152D02*
X147035237Y-81698819D01*
X147035237Y-81698819D02*
X146844761Y-81222628D01*
X146844761Y-81222628D02*
X146654285Y-81698819D01*
X146654285Y-81698819D02*
X146463809Y-81032152D01*
X145654285Y-81698819D02*
X145654285Y-81175009D01*
X145654285Y-81175009D02*
X145701904Y-81079771D01*
X145701904Y-81079771D02*
X145797142Y-81032152D01*
X145797142Y-81032152D02*
X145987618Y-81032152D01*
X145987618Y-81032152D02*
X146082856Y-81079771D01*
X145654285Y-81651200D02*
X145749523Y-81698819D01*
X145749523Y-81698819D02*
X145987618Y-81698819D01*
X145987618Y-81698819D02*
X146082856Y-81651200D01*
X146082856Y-81651200D02*
X146130475Y-81555961D01*
X146130475Y-81555961D02*
X146130475Y-81460723D01*
X146130475Y-81460723D02*
X146082856Y-81365485D01*
X146082856Y-81365485D02*
X145987618Y-81317866D01*
X145987618Y-81317866D02*
X145749523Y-81317866D01*
X145749523Y-81317866D02*
X145654285Y-81270247D01*
X145035237Y-81698819D02*
X145130475Y-81651200D01*
X145130475Y-81651200D02*
X145178094Y-81555961D01*
X145178094Y-81555961D02*
X145178094Y-80698819D01*
X144225713Y-81698819D02*
X144225713Y-80698819D01*
X144225713Y-81651200D02*
X144320951Y-81698819D01*
X144320951Y-81698819D02*
X144511427Y-81698819D01*
X144511427Y-81698819D02*
X144606665Y-81651200D01*
X144606665Y-81651200D02*
X144654284Y-81603580D01*
X144654284Y-81603580D02*
X144701903Y-81508342D01*
X144701903Y-81508342D02*
X144701903Y-81222628D01*
X144701903Y-81222628D02*
X144654284Y-81127390D01*
X144654284Y-81127390D02*
X144606665Y-81079771D01*
X144606665Y-81079771D02*
X144511427Y-81032152D01*
X144511427Y-81032152D02*
X144320951Y-81032152D01*
X144320951Y-81032152D02*
X144225713Y-81079771D01*
X162011427Y-82642152D02*
X161630475Y-82642152D01*
X161868570Y-83308819D02*
X161868570Y-82451676D01*
X161868570Y-82451676D02*
X161820951Y-82356438D01*
X161820951Y-82356438D02*
X161725713Y-82308819D01*
X161725713Y-82308819D02*
X161630475Y-82308819D01*
X160868570Y-82642152D02*
X160868570Y-83308819D01*
X161297141Y-82642152D02*
X161297141Y-83165961D01*
X161297141Y-83165961D02*
X161249522Y-83261200D01*
X161249522Y-83261200D02*
X161154284Y-83308819D01*
X161154284Y-83308819D02*
X161011427Y-83308819D01*
X161011427Y-83308819D02*
X160916189Y-83261200D01*
X160916189Y-83261200D02*
X160868570Y-83213580D01*
X160392379Y-82642152D02*
X160392379Y-83499295D01*
X160392379Y-83499295D02*
X160439998Y-83594533D01*
X160439998Y-83594533D02*
X160535236Y-83642152D01*
X160535236Y-83642152D02*
X160582855Y-83642152D01*
X160392379Y-82308819D02*
X160439998Y-82356438D01*
X160439998Y-82356438D02*
X160392379Y-82404057D01*
X160392379Y-82404057D02*
X160344760Y-82356438D01*
X160344760Y-82356438D02*
X160392379Y-82308819D01*
X160392379Y-82308819D02*
X160392379Y-82404057D01*
X159916189Y-83308819D02*
X159916189Y-82642152D01*
X159916189Y-82308819D02*
X159963808Y-82356438D01*
X159963808Y-82356438D02*
X159916189Y-82404057D01*
X159916189Y-82404057D02*
X159868570Y-82356438D01*
X159868570Y-82356438D02*
X159916189Y-82308819D01*
X159916189Y-82308819D02*
X159916189Y-82404057D01*
X159439999Y-82642152D02*
X159439999Y-83308819D01*
X159439999Y-82737390D02*
X159392380Y-82689771D01*
X159392380Y-82689771D02*
X159297142Y-82642152D01*
X159297142Y-82642152D02*
X159154285Y-82642152D01*
X159154285Y-82642152D02*
X159059047Y-82689771D01*
X159059047Y-82689771D02*
X159011428Y-82785009D01*
X159011428Y-82785009D02*
X159011428Y-83308819D01*
X158154285Y-83261200D02*
X158249523Y-83308819D01*
X158249523Y-83308819D02*
X158439999Y-83308819D01*
X158439999Y-83308819D02*
X158535237Y-83261200D01*
X158535237Y-83261200D02*
X158582856Y-83165961D01*
X158582856Y-83165961D02*
X158582856Y-82785009D01*
X158582856Y-82785009D02*
X158535237Y-82689771D01*
X158535237Y-82689771D02*
X158439999Y-82642152D01*
X158439999Y-82642152D02*
X158249523Y-82642152D01*
X158249523Y-82642152D02*
X158154285Y-82689771D01*
X158154285Y-82689771D02*
X158106666Y-82785009D01*
X158106666Y-82785009D02*
X158106666Y-82880247D01*
X158106666Y-82880247D02*
X158582856Y-82975485D01*
X157820951Y-82642152D02*
X157439999Y-82642152D01*
X157678094Y-82308819D02*
X157678094Y-83165961D01*
X157678094Y-83165961D02*
X157630475Y-83261200D01*
X157630475Y-83261200D02*
X157535237Y-83308819D01*
X157535237Y-83308819D02*
X157439999Y-83308819D01*
X157201903Y-82642152D02*
X157011427Y-83308819D01*
X157011427Y-83308819D02*
X156820951Y-82832628D01*
X156820951Y-82832628D02*
X156630475Y-83308819D01*
X156630475Y-83308819D02*
X156439999Y-82642152D01*
X156059046Y-83308819D02*
X156059046Y-82642152D01*
X156059046Y-82308819D02*
X156106665Y-82356438D01*
X156106665Y-82356438D02*
X156059046Y-82404057D01*
X156059046Y-82404057D02*
X156011427Y-82356438D01*
X156011427Y-82356438D02*
X156059046Y-82308819D01*
X156059046Y-82308819D02*
X156059046Y-82404057D01*
X155725713Y-82642152D02*
X155344761Y-82642152D01*
X155582856Y-83308819D02*
X155582856Y-82451676D01*
X155582856Y-82451676D02*
X155535237Y-82356438D01*
X155535237Y-82356438D02*
X155439999Y-82308819D01*
X155439999Y-82308819D02*
X155344761Y-82308819D01*
X155011427Y-83308819D02*
X155011427Y-82642152D01*
X155011427Y-82308819D02*
X155059046Y-82356438D01*
X155059046Y-82356438D02*
X155011427Y-82404057D01*
X155011427Y-82404057D02*
X154963808Y-82356438D01*
X154963808Y-82356438D02*
X155011427Y-82308819D01*
X155011427Y-82308819D02*
X155011427Y-82404057D01*
X154535237Y-83213580D02*
X154487618Y-83261200D01*
X154487618Y-83261200D02*
X154535237Y-83308819D01*
X154535237Y-83308819D02*
X154582856Y-83261200D01*
X154582856Y-83261200D02*
X154535237Y-83213580D01*
X154535237Y-83213580D02*
X154535237Y-83308819D01*
X153630476Y-82642152D02*
X153630476Y-83451676D01*
X153630476Y-83451676D02*
X153678095Y-83546914D01*
X153678095Y-83546914D02*
X153725714Y-83594533D01*
X153725714Y-83594533D02*
X153820952Y-83642152D01*
X153820952Y-83642152D02*
X153963809Y-83642152D01*
X153963809Y-83642152D02*
X154059047Y-83594533D01*
X153630476Y-83261200D02*
X153725714Y-83308819D01*
X153725714Y-83308819D02*
X153916190Y-83308819D01*
X153916190Y-83308819D02*
X154011428Y-83261200D01*
X154011428Y-83261200D02*
X154059047Y-83213580D01*
X154059047Y-83213580D02*
X154106666Y-83118342D01*
X154106666Y-83118342D02*
X154106666Y-82832628D01*
X154106666Y-82832628D02*
X154059047Y-82737390D01*
X154059047Y-82737390D02*
X154011428Y-82689771D01*
X154011428Y-82689771D02*
X153916190Y-82642152D01*
X153916190Y-82642152D02*
X153725714Y-82642152D01*
X153725714Y-82642152D02*
X153630476Y-82689771D01*
X153154285Y-83308819D02*
X153154285Y-82642152D01*
X153154285Y-82308819D02*
X153201904Y-82356438D01*
X153201904Y-82356438D02*
X153154285Y-82404057D01*
X153154285Y-82404057D02*
X153106666Y-82356438D01*
X153106666Y-82356438D02*
X153154285Y-82308819D01*
X153154285Y-82308819D02*
X153154285Y-82404057D01*
X152820952Y-82642152D02*
X152440000Y-82642152D01*
X152678095Y-82308819D02*
X152678095Y-83165961D01*
X152678095Y-83165961D02*
X152630476Y-83261200D01*
X152630476Y-83261200D02*
X152535238Y-83308819D01*
X152535238Y-83308819D02*
X152440000Y-83308819D01*
X152106666Y-83308819D02*
X152106666Y-82308819D01*
X151678095Y-83308819D02*
X151678095Y-82785009D01*
X151678095Y-82785009D02*
X151725714Y-82689771D01*
X151725714Y-82689771D02*
X151820952Y-82642152D01*
X151820952Y-82642152D02*
X151963809Y-82642152D01*
X151963809Y-82642152D02*
X152059047Y-82689771D01*
X152059047Y-82689771D02*
X152106666Y-82737390D01*
X150773333Y-82642152D02*
X150773333Y-83308819D01*
X151201904Y-82642152D02*
X151201904Y-83165961D01*
X151201904Y-83165961D02*
X151154285Y-83261200D01*
X151154285Y-83261200D02*
X151059047Y-83308819D01*
X151059047Y-83308819D02*
X150916190Y-83308819D01*
X150916190Y-83308819D02*
X150820952Y-83261200D01*
X150820952Y-83261200D02*
X150773333Y-83213580D01*
X150297142Y-83308819D02*
X150297142Y-82308819D01*
X150297142Y-82689771D02*
X150201904Y-82642152D01*
X150201904Y-82642152D02*
X150011428Y-82642152D01*
X150011428Y-82642152D02*
X149916190Y-82689771D01*
X149916190Y-82689771D02*
X149868571Y-82737390D01*
X149868571Y-82737390D02*
X149820952Y-82832628D01*
X149820952Y-82832628D02*
X149820952Y-83118342D01*
X149820952Y-83118342D02*
X149868571Y-83213580D01*
X149868571Y-83213580D02*
X149916190Y-83261200D01*
X149916190Y-83261200D02*
X150011428Y-83308819D01*
X150011428Y-83308819D02*
X150201904Y-83308819D01*
X150201904Y-83308819D02*
X150297142Y-83261200D01*
X149392380Y-83213580D02*
X149344761Y-83261200D01*
X149344761Y-83261200D02*
X149392380Y-83308819D01*
X149392380Y-83308819D02*
X149439999Y-83261200D01*
X149439999Y-83261200D02*
X149392380Y-83213580D01*
X149392380Y-83213580D02*
X149392380Y-83308819D01*
X148916190Y-83308819D02*
X148916190Y-82642152D01*
X148916190Y-82308819D02*
X148963809Y-82356438D01*
X148963809Y-82356438D02*
X148916190Y-82404057D01*
X148916190Y-82404057D02*
X148868571Y-82356438D01*
X148868571Y-82356438D02*
X148916190Y-82308819D01*
X148916190Y-82308819D02*
X148916190Y-82404057D01*
X148297143Y-83308819D02*
X148392381Y-83261200D01*
X148392381Y-83261200D02*
X148440000Y-83213580D01*
X148440000Y-83213580D02*
X148487619Y-83118342D01*
X148487619Y-83118342D02*
X148487619Y-82832628D01*
X148487619Y-82832628D02*
X148440000Y-82737390D01*
X148440000Y-82737390D02*
X148392381Y-82689771D01*
X148392381Y-82689771D02*
X148297143Y-82642152D01*
X148297143Y-82642152D02*
X148154286Y-82642152D01*
X148154286Y-82642152D02*
X148059048Y-82689771D01*
X148059048Y-82689771D02*
X148011429Y-82737390D01*
X148011429Y-82737390D02*
X147963810Y-82832628D01*
X147963810Y-82832628D02*
X147963810Y-83118342D01*
X147963810Y-83118342D02*
X148011429Y-83213580D01*
X148011429Y-83213580D02*
X148059048Y-83261200D01*
X148059048Y-83261200D02*
X148154286Y-83308819D01*
X148154286Y-83308819D02*
X148297143Y-83308819D01*
M02*
