%TF.GenerationSoftware,KiCad,Pcbnew,7.0.10*%
%TF.CreationDate,2024-01-20T14:12:54-06:00*%
%TF.ProjectId,Apple-68k-FujiNet-Rev0,4170706c-652d-4363-986b-2d46756a694e,Rev 0*%
%TF.SameCoordinates,Original*%
%TF.FileFunction,Legend,Top*%
%TF.FilePolarity,Positive*%
%FSLAX46Y46*%
G04 Gerber Fmt 4.6, Leading zero omitted, Abs format (unit mm)*
G04 Created by KiCad (PCBNEW 7.0.10) date 2024-01-20 14:12:54*
%MOMM*%
%LPD*%
G01*
G04 APERTURE LIST*
%ADD10C,0.150000*%
%ADD11C,0.300000*%
%ADD12C,0.120000*%
%ADD13C,0.100000*%
%ADD14C,0.127000*%
%ADD15C,0.200000*%
G04 APERTURE END LIST*
D10*
X137877779Y-124015619D02*
X137877779Y-124825142D01*
X137877779Y-124825142D02*
X137925398Y-124920380D01*
X137925398Y-124920380D02*
X137973017Y-124968000D01*
X137973017Y-124968000D02*
X138068255Y-125015619D01*
X138068255Y-125015619D02*
X138258731Y-125015619D01*
X138258731Y-125015619D02*
X138353969Y-124968000D01*
X138353969Y-124968000D02*
X138401588Y-124920380D01*
X138401588Y-124920380D02*
X138449207Y-124825142D01*
X138449207Y-124825142D02*
X138449207Y-124015619D01*
X138877779Y-124968000D02*
X139020636Y-125015619D01*
X139020636Y-125015619D02*
X139258731Y-125015619D01*
X139258731Y-125015619D02*
X139353969Y-124968000D01*
X139353969Y-124968000D02*
X139401588Y-124920380D01*
X139401588Y-124920380D02*
X139449207Y-124825142D01*
X139449207Y-124825142D02*
X139449207Y-124729904D01*
X139449207Y-124729904D02*
X139401588Y-124634666D01*
X139401588Y-124634666D02*
X139353969Y-124587047D01*
X139353969Y-124587047D02*
X139258731Y-124539428D01*
X139258731Y-124539428D02*
X139068255Y-124491809D01*
X139068255Y-124491809D02*
X138973017Y-124444190D01*
X138973017Y-124444190D02*
X138925398Y-124396571D01*
X138925398Y-124396571D02*
X138877779Y-124301333D01*
X138877779Y-124301333D02*
X138877779Y-124206095D01*
X138877779Y-124206095D02*
X138925398Y-124110857D01*
X138925398Y-124110857D02*
X138973017Y-124063238D01*
X138973017Y-124063238D02*
X139068255Y-124015619D01*
X139068255Y-124015619D02*
X139306350Y-124015619D01*
X139306350Y-124015619D02*
X139449207Y-124063238D01*
X140211112Y-124491809D02*
X140353969Y-124539428D01*
X140353969Y-124539428D02*
X140401588Y-124587047D01*
X140401588Y-124587047D02*
X140449207Y-124682285D01*
X140449207Y-124682285D02*
X140449207Y-124825142D01*
X140449207Y-124825142D02*
X140401588Y-124920380D01*
X140401588Y-124920380D02*
X140353969Y-124968000D01*
X140353969Y-124968000D02*
X140258731Y-125015619D01*
X140258731Y-125015619D02*
X139877779Y-125015619D01*
X139877779Y-125015619D02*
X139877779Y-124015619D01*
X139877779Y-124015619D02*
X140211112Y-124015619D01*
X140211112Y-124015619D02*
X140306350Y-124063238D01*
X140306350Y-124063238D02*
X140353969Y-124110857D01*
X140353969Y-124110857D02*
X140401588Y-124206095D01*
X140401588Y-124206095D02*
X140401588Y-124301333D01*
X140401588Y-124301333D02*
X140353969Y-124396571D01*
X140353969Y-124396571D02*
X140306350Y-124444190D01*
X140306350Y-124444190D02*
X140211112Y-124491809D01*
X140211112Y-124491809D02*
X139877779Y-124491809D01*
X138734848Y-86764066D02*
X139496753Y-86764066D01*
X139115800Y-87145019D02*
X139115800Y-86383114D01*
X179860458Y-109724819D02*
X179527125Y-109248628D01*
X179289030Y-109724819D02*
X179289030Y-108724819D01*
X179289030Y-108724819D02*
X179669982Y-108724819D01*
X179669982Y-108724819D02*
X179765220Y-108772438D01*
X179765220Y-108772438D02*
X179812839Y-108820057D01*
X179812839Y-108820057D02*
X179860458Y-108915295D01*
X179860458Y-108915295D02*
X179860458Y-109058152D01*
X179860458Y-109058152D02*
X179812839Y-109153390D01*
X179812839Y-109153390D02*
X179765220Y-109201009D01*
X179765220Y-109201009D02*
X179669982Y-109248628D01*
X179669982Y-109248628D02*
X179289030Y-109248628D01*
X180193792Y-108724819D02*
X180860458Y-109724819D01*
X180860458Y-108724819D02*
X180193792Y-109724819D01*
X180470180Y-91150839D02*
X180470180Y-90579411D01*
X180470180Y-90865125D02*
X181470180Y-90865125D01*
X181470180Y-90865125D02*
X181327323Y-90769887D01*
X181327323Y-90769887D02*
X181232085Y-90674649D01*
X181232085Y-90674649D02*
X181184466Y-90579411D01*
X180470180Y-105540398D02*
X180470180Y-105730874D01*
X180470180Y-105730874D02*
X180517800Y-105826112D01*
X180517800Y-105826112D02*
X180565419Y-105873731D01*
X180565419Y-105873731D02*
X180708276Y-105968969D01*
X180708276Y-105968969D02*
X180898752Y-106016588D01*
X180898752Y-106016588D02*
X181279704Y-106016588D01*
X181279704Y-106016588D02*
X181374942Y-105968969D01*
X181374942Y-105968969D02*
X181422561Y-105921350D01*
X181422561Y-105921350D02*
X181470180Y-105826112D01*
X181470180Y-105826112D02*
X181470180Y-105635636D01*
X181470180Y-105635636D02*
X181422561Y-105540398D01*
X181422561Y-105540398D02*
X181374942Y-105492779D01*
X181374942Y-105492779D02*
X181279704Y-105445160D01*
X181279704Y-105445160D02*
X181041609Y-105445160D01*
X181041609Y-105445160D02*
X180946371Y-105492779D01*
X180946371Y-105492779D02*
X180898752Y-105540398D01*
X180898752Y-105540398D02*
X180851133Y-105635636D01*
X180851133Y-105635636D02*
X180851133Y-105826112D01*
X180851133Y-105826112D02*
X180898752Y-105921350D01*
X180898752Y-105921350D02*
X180946371Y-105968969D01*
X180946371Y-105968969D02*
X181041609Y-106016588D01*
X183010180Y-106016588D02*
X183010180Y-105445160D01*
X183010180Y-105730874D02*
X184010180Y-105730874D01*
X184010180Y-105730874D02*
X183867323Y-105635636D01*
X183867323Y-105635636D02*
X183772085Y-105540398D01*
X183772085Y-105540398D02*
X183724466Y-105445160D01*
X184010180Y-106635636D02*
X184010180Y-106730874D01*
X184010180Y-106730874D02*
X183962561Y-106826112D01*
X183962561Y-106826112D02*
X183914942Y-106873731D01*
X183914942Y-106873731D02*
X183819704Y-106921350D01*
X183819704Y-106921350D02*
X183629228Y-106968969D01*
X183629228Y-106968969D02*
X183391133Y-106968969D01*
X183391133Y-106968969D02*
X183200657Y-106921350D01*
X183200657Y-106921350D02*
X183105419Y-106873731D01*
X183105419Y-106873731D02*
X183057800Y-106826112D01*
X183057800Y-106826112D02*
X183010180Y-106730874D01*
X183010180Y-106730874D02*
X183010180Y-106635636D01*
X183010180Y-106635636D02*
X183057800Y-106540398D01*
X183057800Y-106540398D02*
X183105419Y-106492779D01*
X183105419Y-106492779D02*
X183200657Y-106445160D01*
X183200657Y-106445160D02*
X183391133Y-106397541D01*
X183391133Y-106397541D02*
X183629228Y-106397541D01*
X183629228Y-106397541D02*
X183819704Y-106445160D01*
X183819704Y-106445160D02*
X183914942Y-106492779D01*
X183914942Y-106492779D02*
X183962561Y-106540398D01*
X183962561Y-106540398D02*
X184010180Y-106635636D01*
X179384268Y-111391819D02*
X179955696Y-111391819D01*
X179669982Y-112391819D02*
X179669982Y-111391819D01*
X180193792Y-111391819D02*
X180860458Y-112391819D01*
X180860458Y-111391819D02*
X180193792Y-112391819D01*
X178717601Y-84769438D02*
X178622363Y-84721819D01*
X178622363Y-84721819D02*
X178479506Y-84721819D01*
X178479506Y-84721819D02*
X178336649Y-84769438D01*
X178336649Y-84769438D02*
X178241411Y-84864676D01*
X178241411Y-84864676D02*
X178193792Y-84959914D01*
X178193792Y-84959914D02*
X178146173Y-85150390D01*
X178146173Y-85150390D02*
X178146173Y-85293247D01*
X178146173Y-85293247D02*
X178193792Y-85483723D01*
X178193792Y-85483723D02*
X178241411Y-85578961D01*
X178241411Y-85578961D02*
X178336649Y-85674200D01*
X178336649Y-85674200D02*
X178479506Y-85721819D01*
X178479506Y-85721819D02*
X178574744Y-85721819D01*
X178574744Y-85721819D02*
X178717601Y-85674200D01*
X178717601Y-85674200D02*
X178765220Y-85626580D01*
X178765220Y-85626580D02*
X178765220Y-85293247D01*
X178765220Y-85293247D02*
X178574744Y-85293247D01*
X179193792Y-85721819D02*
X179193792Y-84721819D01*
X179193792Y-84721819D02*
X179765220Y-85721819D01*
X179765220Y-85721819D02*
X179765220Y-84721819D01*
X180241411Y-85721819D02*
X180241411Y-84721819D01*
X180241411Y-84721819D02*
X180479506Y-84721819D01*
X180479506Y-84721819D02*
X180622363Y-84769438D01*
X180622363Y-84769438D02*
X180717601Y-84864676D01*
X180717601Y-84864676D02*
X180765220Y-84959914D01*
X180765220Y-84959914D02*
X180812839Y-85150390D01*
X180812839Y-85150390D02*
X180812839Y-85293247D01*
X180812839Y-85293247D02*
X180765220Y-85483723D01*
X180765220Y-85483723D02*
X180717601Y-85578961D01*
X180717601Y-85578961D02*
X180622363Y-85674200D01*
X180622363Y-85674200D02*
X180479506Y-85721819D01*
X180479506Y-85721819D02*
X180241411Y-85721819D01*
X190264942Y-111414160D02*
X190312561Y-111461779D01*
X190312561Y-111461779D02*
X190360180Y-111557017D01*
X190360180Y-111557017D02*
X190360180Y-111795112D01*
X190360180Y-111795112D02*
X190312561Y-111890350D01*
X190312561Y-111890350D02*
X190264942Y-111937969D01*
X190264942Y-111937969D02*
X190169704Y-111985588D01*
X190169704Y-111985588D02*
X190074466Y-111985588D01*
X190074466Y-111985588D02*
X189931609Y-111937969D01*
X189931609Y-111937969D02*
X189360180Y-111366541D01*
X189360180Y-111366541D02*
X189360180Y-111985588D01*
X190360180Y-112604636D02*
X190360180Y-112699874D01*
X190360180Y-112699874D02*
X190312561Y-112795112D01*
X190312561Y-112795112D02*
X190264942Y-112842731D01*
X190264942Y-112842731D02*
X190169704Y-112890350D01*
X190169704Y-112890350D02*
X189979228Y-112937969D01*
X189979228Y-112937969D02*
X189741133Y-112937969D01*
X189741133Y-112937969D02*
X189550657Y-112890350D01*
X189550657Y-112890350D02*
X189455419Y-112842731D01*
X189455419Y-112842731D02*
X189407800Y-112795112D01*
X189407800Y-112795112D02*
X189360180Y-112699874D01*
X189360180Y-112699874D02*
X189360180Y-112604636D01*
X189360180Y-112604636D02*
X189407800Y-112509398D01*
X189407800Y-112509398D02*
X189455419Y-112461779D01*
X189455419Y-112461779D02*
X189550657Y-112414160D01*
X189550657Y-112414160D02*
X189741133Y-112366541D01*
X189741133Y-112366541D02*
X189979228Y-112366541D01*
X189979228Y-112366541D02*
X190169704Y-112414160D01*
X190169704Y-112414160D02*
X190264942Y-112461779D01*
X190264942Y-112461779D02*
X190312561Y-112509398D01*
X190312561Y-112509398D02*
X190360180Y-112604636D01*
X186820180Y-111985588D02*
X186820180Y-111414160D01*
X186820180Y-111699874D02*
X187820180Y-111699874D01*
X187820180Y-111699874D02*
X187677323Y-111604636D01*
X187677323Y-111604636D02*
X187582085Y-111509398D01*
X187582085Y-111509398D02*
X187534466Y-111414160D01*
X186820180Y-112461779D02*
X186820180Y-112652255D01*
X186820180Y-112652255D02*
X186867800Y-112747493D01*
X186867800Y-112747493D02*
X186915419Y-112795112D01*
X186915419Y-112795112D02*
X187058276Y-112890350D01*
X187058276Y-112890350D02*
X187248752Y-112937969D01*
X187248752Y-112937969D02*
X187629704Y-112937969D01*
X187629704Y-112937969D02*
X187724942Y-112890350D01*
X187724942Y-112890350D02*
X187772561Y-112842731D01*
X187772561Y-112842731D02*
X187820180Y-112747493D01*
X187820180Y-112747493D02*
X187820180Y-112557017D01*
X187820180Y-112557017D02*
X187772561Y-112461779D01*
X187772561Y-112461779D02*
X187724942Y-112414160D01*
X187724942Y-112414160D02*
X187629704Y-112366541D01*
X187629704Y-112366541D02*
X187391609Y-112366541D01*
X187391609Y-112366541D02*
X187296371Y-112414160D01*
X187296371Y-112414160D02*
X187248752Y-112461779D01*
X187248752Y-112461779D02*
X187201133Y-112557017D01*
X187201133Y-112557017D02*
X187201133Y-112747493D01*
X187201133Y-112747493D02*
X187248752Y-112842731D01*
X187248752Y-112842731D02*
X187296371Y-112890350D01*
X187296371Y-112890350D02*
X187391609Y-112937969D01*
X132956493Y-72148819D02*
X132956493Y-72863104D01*
X132956493Y-72863104D02*
X132908874Y-73005961D01*
X132908874Y-73005961D02*
X132813636Y-73101200D01*
X132813636Y-73101200D02*
X132670779Y-73148819D01*
X132670779Y-73148819D02*
X132575541Y-73148819D01*
X133908874Y-73148819D02*
X133432684Y-73148819D01*
X133432684Y-73148819D02*
X133432684Y-72148819D01*
X134813636Y-73053580D02*
X134766017Y-73101200D01*
X134766017Y-73101200D02*
X134623160Y-73148819D01*
X134623160Y-73148819D02*
X134527922Y-73148819D01*
X134527922Y-73148819D02*
X134385065Y-73101200D01*
X134385065Y-73101200D02*
X134289827Y-73005961D01*
X134289827Y-73005961D02*
X134242208Y-72910723D01*
X134242208Y-72910723D02*
X134194589Y-72720247D01*
X134194589Y-72720247D02*
X134194589Y-72577390D01*
X134194589Y-72577390D02*
X134242208Y-72386914D01*
X134242208Y-72386914D02*
X134289827Y-72291676D01*
X134289827Y-72291676D02*
X134385065Y-72196438D01*
X134385065Y-72196438D02*
X134527922Y-72148819D01*
X134527922Y-72148819D02*
X134623160Y-72148819D01*
X134623160Y-72148819D02*
X134766017Y-72196438D01*
X134766017Y-72196438D02*
X134813636Y-72244057D01*
X135527922Y-72148819D02*
X135527922Y-72863104D01*
X135527922Y-72863104D02*
X135480303Y-73005961D01*
X135480303Y-73005961D02*
X135385065Y-73101200D01*
X135385065Y-73101200D02*
X135242208Y-73148819D01*
X135242208Y-73148819D02*
X135146970Y-73148819D01*
X136480303Y-73148819D02*
X136004113Y-73148819D01*
X136004113Y-73148819D02*
X136004113Y-72148819D01*
X137385065Y-73053580D02*
X137337446Y-73101200D01*
X137337446Y-73101200D02*
X137194589Y-73148819D01*
X137194589Y-73148819D02*
X137099351Y-73148819D01*
X137099351Y-73148819D02*
X136956494Y-73101200D01*
X136956494Y-73101200D02*
X136861256Y-73005961D01*
X136861256Y-73005961D02*
X136813637Y-72910723D01*
X136813637Y-72910723D02*
X136766018Y-72720247D01*
X136766018Y-72720247D02*
X136766018Y-72577390D01*
X136766018Y-72577390D02*
X136813637Y-72386914D01*
X136813637Y-72386914D02*
X136861256Y-72291676D01*
X136861256Y-72291676D02*
X136956494Y-72196438D01*
X136956494Y-72196438D02*
X137099351Y-72148819D01*
X137099351Y-72148819D02*
X137194589Y-72148819D01*
X137194589Y-72148819D02*
X137337446Y-72196438D01*
X137337446Y-72196438D02*
X137385065Y-72244057D01*
X138099351Y-72148819D02*
X138099351Y-72863104D01*
X138099351Y-72863104D02*
X138051732Y-73005961D01*
X138051732Y-73005961D02*
X137956494Y-73101200D01*
X137956494Y-73101200D02*
X137813637Y-73148819D01*
X137813637Y-73148819D02*
X137718399Y-73148819D01*
X139051732Y-73148819D02*
X138575542Y-73148819D01*
X138575542Y-73148819D02*
X138575542Y-72148819D01*
X139956494Y-73053580D02*
X139908875Y-73101200D01*
X139908875Y-73101200D02*
X139766018Y-73148819D01*
X139766018Y-73148819D02*
X139670780Y-73148819D01*
X139670780Y-73148819D02*
X139527923Y-73101200D01*
X139527923Y-73101200D02*
X139432685Y-73005961D01*
X139432685Y-73005961D02*
X139385066Y-72910723D01*
X139385066Y-72910723D02*
X139337447Y-72720247D01*
X139337447Y-72720247D02*
X139337447Y-72577390D01*
X139337447Y-72577390D02*
X139385066Y-72386914D01*
X139385066Y-72386914D02*
X139432685Y-72291676D01*
X139432685Y-72291676D02*
X139527923Y-72196438D01*
X139527923Y-72196438D02*
X139670780Y-72148819D01*
X139670780Y-72148819D02*
X139766018Y-72148819D01*
X139766018Y-72148819D02*
X139908875Y-72196438D01*
X139908875Y-72196438D02*
X139956494Y-72244057D01*
X140670780Y-72148819D02*
X140670780Y-72863104D01*
X140670780Y-72863104D02*
X140623161Y-73005961D01*
X140623161Y-73005961D02*
X140527923Y-73101200D01*
X140527923Y-73101200D02*
X140385066Y-73148819D01*
X140385066Y-73148819D02*
X140289828Y-73148819D01*
X141623161Y-73148819D02*
X141146971Y-73148819D01*
X141146971Y-73148819D02*
X141146971Y-72148819D01*
X142527923Y-73053580D02*
X142480304Y-73101200D01*
X142480304Y-73101200D02*
X142337447Y-73148819D01*
X142337447Y-73148819D02*
X142242209Y-73148819D01*
X142242209Y-73148819D02*
X142099352Y-73101200D01*
X142099352Y-73101200D02*
X142004114Y-73005961D01*
X142004114Y-73005961D02*
X141956495Y-72910723D01*
X141956495Y-72910723D02*
X141908876Y-72720247D01*
X141908876Y-72720247D02*
X141908876Y-72577390D01*
X141908876Y-72577390D02*
X141956495Y-72386914D01*
X141956495Y-72386914D02*
X142004114Y-72291676D01*
X142004114Y-72291676D02*
X142099352Y-72196438D01*
X142099352Y-72196438D02*
X142242209Y-72148819D01*
X142242209Y-72148819D02*
X142337447Y-72148819D01*
X142337447Y-72148819D02*
X142480304Y-72196438D01*
X142480304Y-72196438D02*
X142527923Y-72244057D01*
X190264942Y-84610411D02*
X190312561Y-84658030D01*
X190312561Y-84658030D02*
X190360180Y-84753268D01*
X190360180Y-84753268D02*
X190360180Y-84991363D01*
X190360180Y-84991363D02*
X190312561Y-85086601D01*
X190312561Y-85086601D02*
X190264942Y-85134220D01*
X190264942Y-85134220D02*
X190169704Y-85181839D01*
X190169704Y-85181839D02*
X190074466Y-85181839D01*
X190074466Y-85181839D02*
X189931609Y-85134220D01*
X189931609Y-85134220D02*
X189360180Y-84562792D01*
X189360180Y-84562792D02*
X189360180Y-85181839D01*
D11*
X176075058Y-72903257D02*
X176789344Y-72903257D01*
X175932201Y-73331828D02*
X176432201Y-71831828D01*
X176432201Y-71831828D02*
X176932201Y-73331828D01*
X177432200Y-72331828D02*
X177432200Y-73831828D01*
X177432200Y-72403257D02*
X177575058Y-72331828D01*
X177575058Y-72331828D02*
X177860772Y-72331828D01*
X177860772Y-72331828D02*
X178003629Y-72403257D01*
X178003629Y-72403257D02*
X178075058Y-72474685D01*
X178075058Y-72474685D02*
X178146486Y-72617542D01*
X178146486Y-72617542D02*
X178146486Y-73046114D01*
X178146486Y-73046114D02*
X178075058Y-73188971D01*
X178075058Y-73188971D02*
X178003629Y-73260400D01*
X178003629Y-73260400D02*
X177860772Y-73331828D01*
X177860772Y-73331828D02*
X177575058Y-73331828D01*
X177575058Y-73331828D02*
X177432200Y-73260400D01*
X178789343Y-72331828D02*
X178789343Y-73831828D01*
X178789343Y-72403257D02*
X178932201Y-72331828D01*
X178932201Y-72331828D02*
X179217915Y-72331828D01*
X179217915Y-72331828D02*
X179360772Y-72403257D01*
X179360772Y-72403257D02*
X179432201Y-72474685D01*
X179432201Y-72474685D02*
X179503629Y-72617542D01*
X179503629Y-72617542D02*
X179503629Y-73046114D01*
X179503629Y-73046114D02*
X179432201Y-73188971D01*
X179432201Y-73188971D02*
X179360772Y-73260400D01*
X179360772Y-73260400D02*
X179217915Y-73331828D01*
X179217915Y-73331828D02*
X178932201Y-73331828D01*
X178932201Y-73331828D02*
X178789343Y-73260400D01*
X180360772Y-73331828D02*
X180217915Y-73260400D01*
X180217915Y-73260400D02*
X180146486Y-73117542D01*
X180146486Y-73117542D02*
X180146486Y-71831828D01*
X181503629Y-73260400D02*
X181360772Y-73331828D01*
X181360772Y-73331828D02*
X181075058Y-73331828D01*
X181075058Y-73331828D02*
X180932200Y-73260400D01*
X180932200Y-73260400D02*
X180860772Y-73117542D01*
X180860772Y-73117542D02*
X180860772Y-72546114D01*
X180860772Y-72546114D02*
X180932200Y-72403257D01*
X180932200Y-72403257D02*
X181075058Y-72331828D01*
X181075058Y-72331828D02*
X181360772Y-72331828D01*
X181360772Y-72331828D02*
X181503629Y-72403257D01*
X181503629Y-72403257D02*
X181575058Y-72546114D01*
X181575058Y-72546114D02*
X181575058Y-72688971D01*
X181575058Y-72688971D02*
X180860772Y-72831828D01*
X184003629Y-71831828D02*
X183717914Y-71831828D01*
X183717914Y-71831828D02*
X183575057Y-71903257D01*
X183575057Y-71903257D02*
X183503629Y-71974685D01*
X183503629Y-71974685D02*
X183360771Y-72188971D01*
X183360771Y-72188971D02*
X183289343Y-72474685D01*
X183289343Y-72474685D02*
X183289343Y-73046114D01*
X183289343Y-73046114D02*
X183360771Y-73188971D01*
X183360771Y-73188971D02*
X183432200Y-73260400D01*
X183432200Y-73260400D02*
X183575057Y-73331828D01*
X183575057Y-73331828D02*
X183860771Y-73331828D01*
X183860771Y-73331828D02*
X184003629Y-73260400D01*
X184003629Y-73260400D02*
X184075057Y-73188971D01*
X184075057Y-73188971D02*
X184146486Y-73046114D01*
X184146486Y-73046114D02*
X184146486Y-72688971D01*
X184146486Y-72688971D02*
X184075057Y-72546114D01*
X184075057Y-72546114D02*
X184003629Y-72474685D01*
X184003629Y-72474685D02*
X183860771Y-72403257D01*
X183860771Y-72403257D02*
X183575057Y-72403257D01*
X183575057Y-72403257D02*
X183432200Y-72474685D01*
X183432200Y-72474685D02*
X183360771Y-72546114D01*
X183360771Y-72546114D02*
X183289343Y-72688971D01*
X185003628Y-72474685D02*
X184860771Y-72403257D01*
X184860771Y-72403257D02*
X184789342Y-72331828D01*
X184789342Y-72331828D02*
X184717914Y-72188971D01*
X184717914Y-72188971D02*
X184717914Y-72117542D01*
X184717914Y-72117542D02*
X184789342Y-71974685D01*
X184789342Y-71974685D02*
X184860771Y-71903257D01*
X184860771Y-71903257D02*
X185003628Y-71831828D01*
X185003628Y-71831828D02*
X185289342Y-71831828D01*
X185289342Y-71831828D02*
X185432200Y-71903257D01*
X185432200Y-71903257D02*
X185503628Y-71974685D01*
X185503628Y-71974685D02*
X185575057Y-72117542D01*
X185575057Y-72117542D02*
X185575057Y-72188971D01*
X185575057Y-72188971D02*
X185503628Y-72331828D01*
X185503628Y-72331828D02*
X185432200Y-72403257D01*
X185432200Y-72403257D02*
X185289342Y-72474685D01*
X185289342Y-72474685D02*
X185003628Y-72474685D01*
X185003628Y-72474685D02*
X184860771Y-72546114D01*
X184860771Y-72546114D02*
X184789342Y-72617542D01*
X184789342Y-72617542D02*
X184717914Y-72760400D01*
X184717914Y-72760400D02*
X184717914Y-73046114D01*
X184717914Y-73046114D02*
X184789342Y-73188971D01*
X184789342Y-73188971D02*
X184860771Y-73260400D01*
X184860771Y-73260400D02*
X185003628Y-73331828D01*
X185003628Y-73331828D02*
X185289342Y-73331828D01*
X185289342Y-73331828D02*
X185432200Y-73260400D01*
X185432200Y-73260400D02*
X185503628Y-73188971D01*
X185503628Y-73188971D02*
X185575057Y-73046114D01*
X185575057Y-73046114D02*
X185575057Y-72760400D01*
X185575057Y-72760400D02*
X185503628Y-72617542D01*
X185503628Y-72617542D02*
X185432200Y-72546114D01*
X185432200Y-72546114D02*
X185289342Y-72474685D01*
X186217913Y-73331828D02*
X186217913Y-71831828D01*
X186360771Y-72760400D02*
X186789342Y-73331828D01*
X186789342Y-72331828D02*
X186217913Y-72903257D01*
X179967914Y-75746828D02*
X179467914Y-75032542D01*
X179110771Y-75746828D02*
X179110771Y-74246828D01*
X179110771Y-74246828D02*
X179682200Y-74246828D01*
X179682200Y-74246828D02*
X179825057Y-74318257D01*
X179825057Y-74318257D02*
X179896486Y-74389685D01*
X179896486Y-74389685D02*
X179967914Y-74532542D01*
X179967914Y-74532542D02*
X179967914Y-74746828D01*
X179967914Y-74746828D02*
X179896486Y-74889685D01*
X179896486Y-74889685D02*
X179825057Y-74961114D01*
X179825057Y-74961114D02*
X179682200Y-75032542D01*
X179682200Y-75032542D02*
X179110771Y-75032542D01*
X181182200Y-75675400D02*
X181039343Y-75746828D01*
X181039343Y-75746828D02*
X180753629Y-75746828D01*
X180753629Y-75746828D02*
X180610771Y-75675400D01*
X180610771Y-75675400D02*
X180539343Y-75532542D01*
X180539343Y-75532542D02*
X180539343Y-74961114D01*
X180539343Y-74961114D02*
X180610771Y-74818257D01*
X180610771Y-74818257D02*
X180753629Y-74746828D01*
X180753629Y-74746828D02*
X181039343Y-74746828D01*
X181039343Y-74746828D02*
X181182200Y-74818257D01*
X181182200Y-74818257D02*
X181253629Y-74961114D01*
X181253629Y-74961114D02*
X181253629Y-75103971D01*
X181253629Y-75103971D02*
X180539343Y-75246828D01*
X181753628Y-74746828D02*
X182110771Y-75746828D01*
X182110771Y-75746828D02*
X182467914Y-74746828D01*
X183325057Y-74246828D02*
X183467914Y-74246828D01*
X183467914Y-74246828D02*
X183610771Y-74318257D01*
X183610771Y-74318257D02*
X183682200Y-74389685D01*
X183682200Y-74389685D02*
X183753628Y-74532542D01*
X183753628Y-74532542D02*
X183825057Y-74818257D01*
X183825057Y-74818257D02*
X183825057Y-75175400D01*
X183825057Y-75175400D02*
X183753628Y-75461114D01*
X183753628Y-75461114D02*
X183682200Y-75603971D01*
X183682200Y-75603971D02*
X183610771Y-75675400D01*
X183610771Y-75675400D02*
X183467914Y-75746828D01*
X183467914Y-75746828D02*
X183325057Y-75746828D01*
X183325057Y-75746828D02*
X183182200Y-75675400D01*
X183182200Y-75675400D02*
X183110771Y-75603971D01*
X183110771Y-75603971D02*
X183039342Y-75461114D01*
X183039342Y-75461114D02*
X182967914Y-75175400D01*
X182967914Y-75175400D02*
X182967914Y-74818257D01*
X182967914Y-74818257D02*
X183039342Y-74532542D01*
X183039342Y-74532542D02*
X183110771Y-74389685D01*
X183110771Y-74389685D02*
X183182200Y-74318257D01*
X183182200Y-74318257D02*
X183325057Y-74246828D01*
D10*
X183914942Y-90579411D02*
X183962561Y-90627030D01*
X183962561Y-90627030D02*
X184010180Y-90722268D01*
X184010180Y-90722268D02*
X184010180Y-90960363D01*
X184010180Y-90960363D02*
X183962561Y-91055601D01*
X183962561Y-91055601D02*
X183914942Y-91103220D01*
X183914942Y-91103220D02*
X183819704Y-91150839D01*
X183819704Y-91150839D02*
X183724466Y-91150839D01*
X183724466Y-91150839D02*
X183581609Y-91103220D01*
X183581609Y-91103220D02*
X183010180Y-90531792D01*
X183010180Y-90531792D02*
X183010180Y-91150839D01*
X186820180Y-85181839D02*
X186820180Y-84610411D01*
X186820180Y-84896125D02*
X187820180Y-84896125D01*
X187820180Y-84896125D02*
X187677323Y-84800887D01*
X187677323Y-84800887D02*
X187582085Y-84705649D01*
X187582085Y-84705649D02*
X187534466Y-84610411D01*
X179003315Y-83086580D02*
X178955696Y-83134200D01*
X178955696Y-83134200D02*
X178812839Y-83181819D01*
X178812839Y-83181819D02*
X178717601Y-83181819D01*
X178717601Y-83181819D02*
X178574744Y-83134200D01*
X178574744Y-83134200D02*
X178479506Y-83038961D01*
X178479506Y-83038961D02*
X178431887Y-82943723D01*
X178431887Y-82943723D02*
X178384268Y-82753247D01*
X178384268Y-82753247D02*
X178384268Y-82610390D01*
X178384268Y-82610390D02*
X178431887Y-82419914D01*
X178431887Y-82419914D02*
X178479506Y-82324676D01*
X178479506Y-82324676D02*
X178574744Y-82229438D01*
X178574744Y-82229438D02*
X178717601Y-82181819D01*
X178717601Y-82181819D02*
X178812839Y-82181819D01*
X178812839Y-82181819D02*
X178955696Y-82229438D01*
X178955696Y-82229438D02*
X179003315Y-82277057D01*
X179908077Y-83181819D02*
X179431887Y-83181819D01*
X179431887Y-83181819D02*
X179431887Y-82181819D01*
X180241411Y-83181819D02*
X180241411Y-82181819D01*
X180812839Y-83181819D02*
X180384268Y-82610390D01*
X180812839Y-82181819D02*
X180241411Y-82753247D01*
X178717602Y-88134819D02*
X178717602Y-87134819D01*
X178717602Y-87134819D02*
X178955697Y-87134819D01*
X178955697Y-87134819D02*
X179098554Y-87182438D01*
X179098554Y-87182438D02*
X179193792Y-87277676D01*
X179193792Y-87277676D02*
X179241411Y-87372914D01*
X179241411Y-87372914D02*
X179289030Y-87563390D01*
X179289030Y-87563390D02*
X179289030Y-87706247D01*
X179289030Y-87706247D02*
X179241411Y-87896723D01*
X179241411Y-87896723D02*
X179193792Y-87991961D01*
X179193792Y-87991961D02*
X179098554Y-88087200D01*
X179098554Y-88087200D02*
X178955697Y-88134819D01*
X178955697Y-88134819D02*
X178717602Y-88134819D01*
X179717602Y-88134819D02*
X179717602Y-87134819D01*
X180384268Y-87134819D02*
X180574744Y-87134819D01*
X180574744Y-87134819D02*
X180669982Y-87182438D01*
X180669982Y-87182438D02*
X180765220Y-87277676D01*
X180765220Y-87277676D02*
X180812839Y-87468152D01*
X180812839Y-87468152D02*
X180812839Y-87801485D01*
X180812839Y-87801485D02*
X180765220Y-87991961D01*
X180765220Y-87991961D02*
X180669982Y-88087200D01*
X180669982Y-88087200D02*
X180574744Y-88134819D01*
X180574744Y-88134819D02*
X180384268Y-88134819D01*
X180384268Y-88134819D02*
X180289030Y-88087200D01*
X180289030Y-88087200D02*
X180193792Y-87991961D01*
X180193792Y-87991961D02*
X180146173Y-87801485D01*
X180146173Y-87801485D02*
X180146173Y-87468152D01*
X180146173Y-87468152D02*
X180193792Y-87277676D01*
X180193792Y-87277676D02*
X180289030Y-87182438D01*
X180289030Y-87182438D02*
X180384268Y-87134819D01*
X114203180Y-92606905D02*
X115203180Y-92606905D01*
X115203180Y-92606905D02*
X115203180Y-92845000D01*
X115203180Y-92845000D02*
X115155561Y-92987857D01*
X115155561Y-92987857D02*
X115060323Y-93083095D01*
X115060323Y-93083095D02*
X114965085Y-93130714D01*
X114965085Y-93130714D02*
X114774609Y-93178333D01*
X114774609Y-93178333D02*
X114631752Y-93178333D01*
X114631752Y-93178333D02*
X114441276Y-93130714D01*
X114441276Y-93130714D02*
X114346038Y-93083095D01*
X114346038Y-93083095D02*
X114250800Y-92987857D01*
X114250800Y-92987857D02*
X114203180Y-92845000D01*
X114203180Y-92845000D02*
X114203180Y-92606905D01*
X114203180Y-94130714D02*
X114203180Y-93559286D01*
X114203180Y-93845000D02*
X115203180Y-93845000D01*
X115203180Y-93845000D02*
X115060323Y-93749762D01*
X115060323Y-93749762D02*
X114965085Y-93654524D01*
X114965085Y-93654524D02*
X114917466Y-93559286D01*
X123123180Y-89464048D02*
X122123180Y-89702143D01*
X122123180Y-89702143D02*
X122837466Y-89892619D01*
X122837466Y-89892619D02*
X122123180Y-90083095D01*
X122123180Y-90083095D02*
X123123180Y-90321191D01*
X122123180Y-90702143D02*
X123123180Y-90702143D01*
X122646990Y-91511666D02*
X122646990Y-91178333D01*
X122123180Y-91178333D02*
X123123180Y-91178333D01*
X123123180Y-91178333D02*
X123123180Y-91654523D01*
X122123180Y-92035476D02*
X123123180Y-92035476D01*
X122027942Y-92273571D02*
X122027942Y-93035475D01*
X123123180Y-93178333D02*
X122123180Y-93416428D01*
X122123180Y-93416428D02*
X122837466Y-93606904D01*
X122837466Y-93606904D02*
X122123180Y-93797380D01*
X122123180Y-93797380D02*
X123123180Y-94035476D01*
X122123180Y-94416428D02*
X123123180Y-94416428D01*
X122646990Y-94416428D02*
X122646990Y-94987856D01*
X122123180Y-94987856D02*
X123123180Y-94987856D01*
X122123180Y-95464047D02*
X123123180Y-95464047D01*
X123123180Y-95797380D02*
X123123180Y-96368808D01*
X122123180Y-96083094D02*
X123123180Y-96083094D01*
X122646990Y-96702142D02*
X122646990Y-97035475D01*
X122123180Y-97178332D02*
X122123180Y-96702142D01*
X122123180Y-96702142D02*
X123123180Y-96702142D01*
X123123180Y-96702142D02*
X123123180Y-97178332D01*
X117956800Y-81141667D02*
X117909180Y-81284524D01*
X117909180Y-81284524D02*
X117909180Y-81522619D01*
X117909180Y-81522619D02*
X117956800Y-81617857D01*
X117956800Y-81617857D02*
X118004419Y-81665476D01*
X118004419Y-81665476D02*
X118099657Y-81713095D01*
X118099657Y-81713095D02*
X118194895Y-81713095D01*
X118194895Y-81713095D02*
X118290133Y-81665476D01*
X118290133Y-81665476D02*
X118337752Y-81617857D01*
X118337752Y-81617857D02*
X118385371Y-81522619D01*
X118385371Y-81522619D02*
X118432990Y-81332143D01*
X118432990Y-81332143D02*
X118480609Y-81236905D01*
X118480609Y-81236905D02*
X118528228Y-81189286D01*
X118528228Y-81189286D02*
X118623466Y-81141667D01*
X118623466Y-81141667D02*
X118718704Y-81141667D01*
X118718704Y-81141667D02*
X118813942Y-81189286D01*
X118813942Y-81189286D02*
X118861561Y-81236905D01*
X118861561Y-81236905D02*
X118909180Y-81332143D01*
X118909180Y-81332143D02*
X118909180Y-81570238D01*
X118909180Y-81570238D02*
X118861561Y-81713095D01*
X118909180Y-82046429D02*
X117909180Y-82284524D01*
X117909180Y-82284524D02*
X118623466Y-82475000D01*
X118623466Y-82475000D02*
X117909180Y-82665476D01*
X117909180Y-82665476D02*
X118909180Y-82903572D01*
X117909180Y-83808333D02*
X117909180Y-83236905D01*
X117909180Y-83522619D02*
X118909180Y-83522619D01*
X118909180Y-83522619D02*
X118766323Y-83427381D01*
X118766323Y-83427381D02*
X118671085Y-83332143D01*
X118671085Y-83332143D02*
X118623466Y-83236905D01*
X123004990Y-80114285D02*
X122957371Y-80257142D01*
X122957371Y-80257142D02*
X122909752Y-80304761D01*
X122909752Y-80304761D02*
X122814514Y-80352380D01*
X122814514Y-80352380D02*
X122671657Y-80352380D01*
X122671657Y-80352380D02*
X122576419Y-80304761D01*
X122576419Y-80304761D02*
X122528800Y-80257142D01*
X122528800Y-80257142D02*
X122481180Y-80161904D01*
X122481180Y-80161904D02*
X122481180Y-79780952D01*
X122481180Y-79780952D02*
X123481180Y-79780952D01*
X123481180Y-79780952D02*
X123481180Y-80114285D01*
X123481180Y-80114285D02*
X123433561Y-80209523D01*
X123433561Y-80209523D02*
X123385942Y-80257142D01*
X123385942Y-80257142D02*
X123290704Y-80304761D01*
X123290704Y-80304761D02*
X123195466Y-80304761D01*
X123195466Y-80304761D02*
X123100228Y-80257142D01*
X123100228Y-80257142D02*
X123052609Y-80209523D01*
X123052609Y-80209523D02*
X123004990Y-80114285D01*
X123004990Y-80114285D02*
X123004990Y-79780952D01*
X123147847Y-81209523D02*
X122481180Y-81209523D01*
X123147847Y-80780952D02*
X122624038Y-80780952D01*
X122624038Y-80780952D02*
X122528800Y-80828571D01*
X122528800Y-80828571D02*
X122481180Y-80923809D01*
X122481180Y-80923809D02*
X122481180Y-81066666D01*
X122481180Y-81066666D02*
X122528800Y-81161904D01*
X122528800Y-81161904D02*
X122576419Y-81209523D01*
X123147847Y-81542857D02*
X123147847Y-81923809D01*
X123481180Y-81685714D02*
X122624038Y-81685714D01*
X122624038Y-81685714D02*
X122528800Y-81733333D01*
X122528800Y-81733333D02*
X122481180Y-81828571D01*
X122481180Y-81828571D02*
X122481180Y-81923809D01*
X123147847Y-82114286D02*
X123147847Y-82495238D01*
X123481180Y-82257143D02*
X122624038Y-82257143D01*
X122624038Y-82257143D02*
X122528800Y-82304762D01*
X122528800Y-82304762D02*
X122481180Y-82400000D01*
X122481180Y-82400000D02*
X122481180Y-82495238D01*
X122481180Y-82971429D02*
X122528800Y-82876191D01*
X122528800Y-82876191D02*
X122576419Y-82828572D01*
X122576419Y-82828572D02*
X122671657Y-82780953D01*
X122671657Y-82780953D02*
X122957371Y-82780953D01*
X122957371Y-82780953D02*
X123052609Y-82828572D01*
X123052609Y-82828572D02*
X123100228Y-82876191D01*
X123100228Y-82876191D02*
X123147847Y-82971429D01*
X123147847Y-82971429D02*
X123147847Y-83114286D01*
X123147847Y-83114286D02*
X123100228Y-83209524D01*
X123100228Y-83209524D02*
X123052609Y-83257143D01*
X123052609Y-83257143D02*
X122957371Y-83304762D01*
X122957371Y-83304762D02*
X122671657Y-83304762D01*
X122671657Y-83304762D02*
X122576419Y-83257143D01*
X122576419Y-83257143D02*
X122528800Y-83209524D01*
X122528800Y-83209524D02*
X122481180Y-83114286D01*
X122481180Y-83114286D02*
X122481180Y-82971429D01*
X123147847Y-83733334D02*
X122481180Y-83733334D01*
X123052609Y-83733334D02*
X123100228Y-83780953D01*
X123100228Y-83780953D02*
X123147847Y-83876191D01*
X123147847Y-83876191D02*
X123147847Y-84019048D01*
X123147847Y-84019048D02*
X123100228Y-84114286D01*
X123100228Y-84114286D02*
X123004990Y-84161905D01*
X123004990Y-84161905D02*
X122481180Y-84161905D01*
X122766895Y-84590477D02*
X122766895Y-85066667D01*
X122481180Y-84495239D02*
X123481180Y-84828572D01*
X123481180Y-84828572D02*
X122481180Y-85161905D01*
X165100095Y-77559819D02*
X165100095Y-78369342D01*
X165100095Y-78369342D02*
X165147714Y-78464580D01*
X165147714Y-78464580D02*
X165195333Y-78512200D01*
X165195333Y-78512200D02*
X165290571Y-78559819D01*
X165290571Y-78559819D02*
X165481047Y-78559819D01*
X165481047Y-78559819D02*
X165576285Y-78512200D01*
X165576285Y-78512200D02*
X165623904Y-78464580D01*
X165623904Y-78464580D02*
X165671523Y-78369342D01*
X165671523Y-78369342D02*
X165671523Y-77559819D01*
X166671523Y-78559819D02*
X166100095Y-78559819D01*
X166385809Y-78559819D02*
X166385809Y-77559819D01*
X166385809Y-77559819D02*
X166290571Y-77702676D01*
X166290571Y-77702676D02*
X166195333Y-77797914D01*
X166195333Y-77797914D02*
X166100095Y-77845533D01*
X164354048Y-80083819D02*
X164354048Y-79083819D01*
X164354048Y-79083819D02*
X164735000Y-79083819D01*
X164735000Y-79083819D02*
X164830238Y-79131438D01*
X164830238Y-79131438D02*
X164877857Y-79179057D01*
X164877857Y-79179057D02*
X164925476Y-79274295D01*
X164925476Y-79274295D02*
X164925476Y-79417152D01*
X164925476Y-79417152D02*
X164877857Y-79512390D01*
X164877857Y-79512390D02*
X164830238Y-79560009D01*
X164830238Y-79560009D02*
X164735000Y-79607628D01*
X164735000Y-79607628D02*
X164354048Y-79607628D01*
X165354048Y-80083819D02*
X165354048Y-79417152D01*
X165354048Y-79083819D02*
X165306429Y-79131438D01*
X165306429Y-79131438D02*
X165354048Y-79179057D01*
X165354048Y-79179057D02*
X165401667Y-79131438D01*
X165401667Y-79131438D02*
X165354048Y-79083819D01*
X165354048Y-79083819D02*
X165354048Y-79179057D01*
X166258809Y-80036200D02*
X166163571Y-80083819D01*
X166163571Y-80083819D02*
X165973095Y-80083819D01*
X165973095Y-80083819D02*
X165877857Y-80036200D01*
X165877857Y-80036200D02*
X165830238Y-79988580D01*
X165830238Y-79988580D02*
X165782619Y-79893342D01*
X165782619Y-79893342D02*
X165782619Y-79607628D01*
X165782619Y-79607628D02*
X165830238Y-79512390D01*
X165830238Y-79512390D02*
X165877857Y-79464771D01*
X165877857Y-79464771D02*
X165973095Y-79417152D01*
X165973095Y-79417152D02*
X166163571Y-79417152D01*
X166163571Y-79417152D02*
X166258809Y-79464771D01*
X166830238Y-80083819D02*
X166735000Y-80036200D01*
X166735000Y-80036200D02*
X166687381Y-79988580D01*
X166687381Y-79988580D02*
X166639762Y-79893342D01*
X166639762Y-79893342D02*
X166639762Y-79607628D01*
X166639762Y-79607628D02*
X166687381Y-79512390D01*
X166687381Y-79512390D02*
X166735000Y-79464771D01*
X166735000Y-79464771D02*
X166830238Y-79417152D01*
X166830238Y-79417152D02*
X166973095Y-79417152D01*
X166973095Y-79417152D02*
X167068333Y-79464771D01*
X167068333Y-79464771D02*
X167115952Y-79512390D01*
X167115952Y-79512390D02*
X167163571Y-79607628D01*
X167163571Y-79607628D02*
X167163571Y-79893342D01*
X167163571Y-79893342D02*
X167115952Y-79988580D01*
X167115952Y-79988580D02*
X167068333Y-80036200D01*
X167068333Y-80036200D02*
X166973095Y-80083819D01*
X166973095Y-80083819D02*
X166830238Y-80083819D01*
X185838180Y-110156666D02*
X185123895Y-110156666D01*
X185123895Y-110156666D02*
X184981038Y-110109047D01*
X184981038Y-110109047D02*
X184885800Y-110013809D01*
X184885800Y-110013809D02*
X184838180Y-109870952D01*
X184838180Y-109870952D02*
X184838180Y-109775714D01*
X185838180Y-110537619D02*
X185838180Y-111156666D01*
X185838180Y-111156666D02*
X185457228Y-110823333D01*
X185457228Y-110823333D02*
X185457228Y-110966190D01*
X185457228Y-110966190D02*
X185409609Y-111061428D01*
X185409609Y-111061428D02*
X185361990Y-111109047D01*
X185361990Y-111109047D02*
X185266752Y-111156666D01*
X185266752Y-111156666D02*
X185028657Y-111156666D01*
X185028657Y-111156666D02*
X184933419Y-111109047D01*
X184933419Y-111109047D02*
X184885800Y-111061428D01*
X184885800Y-111061428D02*
X184838180Y-110966190D01*
X184838180Y-110966190D02*
X184838180Y-110680476D01*
X184838180Y-110680476D02*
X184885800Y-110585238D01*
X184885800Y-110585238D02*
X184933419Y-110537619D01*
X183425180Y-113847762D02*
X182615657Y-113847762D01*
X182615657Y-113847762D02*
X182520419Y-113895381D01*
X182520419Y-113895381D02*
X182472800Y-113943000D01*
X182472800Y-113943000D02*
X182425180Y-114038238D01*
X182425180Y-114038238D02*
X182425180Y-114228714D01*
X182425180Y-114228714D02*
X182472800Y-114323952D01*
X182472800Y-114323952D02*
X182520419Y-114371571D01*
X182520419Y-114371571D02*
X182615657Y-114419190D01*
X182615657Y-114419190D02*
X183425180Y-114419190D01*
X182710895Y-114847762D02*
X182710895Y-115323952D01*
X182425180Y-114752524D02*
X183425180Y-115085857D01*
X183425180Y-115085857D02*
X182425180Y-115419190D01*
X182425180Y-116323952D02*
X182901371Y-115990619D01*
X182425180Y-115752524D02*
X183425180Y-115752524D01*
X183425180Y-115752524D02*
X183425180Y-116133476D01*
X183425180Y-116133476D02*
X183377561Y-116228714D01*
X183377561Y-116228714D02*
X183329942Y-116276333D01*
X183329942Y-116276333D02*
X183234704Y-116323952D01*
X183234704Y-116323952D02*
X183091847Y-116323952D01*
X183091847Y-116323952D02*
X182996609Y-116276333D01*
X182996609Y-116276333D02*
X182948990Y-116228714D01*
X182948990Y-116228714D02*
X182901371Y-116133476D01*
X182901371Y-116133476D02*
X182901371Y-115752524D01*
X183425180Y-116609667D02*
X183425180Y-117181095D01*
X182425180Y-116895381D02*
X183425180Y-116895381D01*
X114203180Y-102766905D02*
X115203180Y-102766905D01*
X115203180Y-102766905D02*
X115203180Y-103005000D01*
X115203180Y-103005000D02*
X115155561Y-103147857D01*
X115155561Y-103147857D02*
X115060323Y-103243095D01*
X115060323Y-103243095D02*
X114965085Y-103290714D01*
X114965085Y-103290714D02*
X114774609Y-103338333D01*
X114774609Y-103338333D02*
X114631752Y-103338333D01*
X114631752Y-103338333D02*
X114441276Y-103290714D01*
X114441276Y-103290714D02*
X114346038Y-103243095D01*
X114346038Y-103243095D02*
X114250800Y-103147857D01*
X114250800Y-103147857D02*
X114203180Y-103005000D01*
X114203180Y-103005000D02*
X114203180Y-102766905D01*
X115107942Y-103719286D02*
X115155561Y-103766905D01*
X115155561Y-103766905D02*
X115203180Y-103862143D01*
X115203180Y-103862143D02*
X115203180Y-104100238D01*
X115203180Y-104100238D02*
X115155561Y-104195476D01*
X115155561Y-104195476D02*
X115107942Y-104243095D01*
X115107942Y-104243095D02*
X115012704Y-104290714D01*
X115012704Y-104290714D02*
X114917466Y-104290714D01*
X114917466Y-104290714D02*
X114774609Y-104243095D01*
X114774609Y-104243095D02*
X114203180Y-103671667D01*
X114203180Y-103671667D02*
X114203180Y-104290714D01*
X122646990Y-99266904D02*
X122599371Y-99409761D01*
X122599371Y-99409761D02*
X122551752Y-99457380D01*
X122551752Y-99457380D02*
X122456514Y-99504999D01*
X122456514Y-99504999D02*
X122313657Y-99504999D01*
X122313657Y-99504999D02*
X122218419Y-99457380D01*
X122218419Y-99457380D02*
X122170800Y-99409761D01*
X122170800Y-99409761D02*
X122123180Y-99314523D01*
X122123180Y-99314523D02*
X122123180Y-98933571D01*
X122123180Y-98933571D02*
X123123180Y-98933571D01*
X123123180Y-98933571D02*
X123123180Y-99266904D01*
X123123180Y-99266904D02*
X123075561Y-99362142D01*
X123075561Y-99362142D02*
X123027942Y-99409761D01*
X123027942Y-99409761D02*
X122932704Y-99457380D01*
X122932704Y-99457380D02*
X122837466Y-99457380D01*
X122837466Y-99457380D02*
X122742228Y-99409761D01*
X122742228Y-99409761D02*
X122694609Y-99362142D01*
X122694609Y-99362142D02*
X122646990Y-99266904D01*
X122646990Y-99266904D02*
X122646990Y-98933571D01*
X123123180Y-99933571D02*
X122313657Y-99933571D01*
X122313657Y-99933571D02*
X122218419Y-99981190D01*
X122218419Y-99981190D02*
X122170800Y-100028809D01*
X122170800Y-100028809D02*
X122123180Y-100124047D01*
X122123180Y-100124047D02*
X122123180Y-100314523D01*
X122123180Y-100314523D02*
X122170800Y-100409761D01*
X122170800Y-100409761D02*
X122218419Y-100457380D01*
X122218419Y-100457380D02*
X122313657Y-100504999D01*
X122313657Y-100504999D02*
X123123180Y-100504999D01*
X122170800Y-100933571D02*
X122123180Y-101076428D01*
X122123180Y-101076428D02*
X122123180Y-101314523D01*
X122123180Y-101314523D02*
X122170800Y-101409761D01*
X122170800Y-101409761D02*
X122218419Y-101457380D01*
X122218419Y-101457380D02*
X122313657Y-101504999D01*
X122313657Y-101504999D02*
X122408895Y-101504999D01*
X122408895Y-101504999D02*
X122504133Y-101457380D01*
X122504133Y-101457380D02*
X122551752Y-101409761D01*
X122551752Y-101409761D02*
X122599371Y-101314523D01*
X122599371Y-101314523D02*
X122646990Y-101124047D01*
X122646990Y-101124047D02*
X122694609Y-101028809D01*
X122694609Y-101028809D02*
X122742228Y-100981190D01*
X122742228Y-100981190D02*
X122837466Y-100933571D01*
X122837466Y-100933571D02*
X122932704Y-100933571D01*
X122932704Y-100933571D02*
X123027942Y-100981190D01*
X123027942Y-100981190D02*
X123075561Y-101028809D01*
X123075561Y-101028809D02*
X123123180Y-101124047D01*
X123123180Y-101124047D02*
X123123180Y-101362142D01*
X123123180Y-101362142D02*
X123075561Y-101504999D01*
X122027942Y-101695476D02*
X122027942Y-102457380D01*
X123123180Y-102885952D02*
X123123180Y-103076428D01*
X123123180Y-103076428D02*
X123075561Y-103171666D01*
X123075561Y-103171666D02*
X122980323Y-103266904D01*
X122980323Y-103266904D02*
X122789847Y-103314523D01*
X122789847Y-103314523D02*
X122456514Y-103314523D01*
X122456514Y-103314523D02*
X122266038Y-103266904D01*
X122266038Y-103266904D02*
X122170800Y-103171666D01*
X122170800Y-103171666D02*
X122123180Y-103076428D01*
X122123180Y-103076428D02*
X122123180Y-102885952D01*
X122123180Y-102885952D02*
X122170800Y-102790714D01*
X122170800Y-102790714D02*
X122266038Y-102695476D01*
X122266038Y-102695476D02*
X122456514Y-102647857D01*
X122456514Y-102647857D02*
X122789847Y-102647857D01*
X122789847Y-102647857D02*
X122980323Y-102695476D01*
X122980323Y-102695476D02*
X123075561Y-102790714D01*
X123075561Y-102790714D02*
X123123180Y-102885952D01*
X122123180Y-104314523D02*
X122599371Y-103981190D01*
X122123180Y-103743095D02*
X123123180Y-103743095D01*
X123123180Y-103743095D02*
X123123180Y-104124047D01*
X123123180Y-104124047D02*
X123075561Y-104219285D01*
X123075561Y-104219285D02*
X123027942Y-104266904D01*
X123027942Y-104266904D02*
X122932704Y-104314523D01*
X122932704Y-104314523D02*
X122789847Y-104314523D01*
X122789847Y-104314523D02*
X122694609Y-104266904D01*
X122694609Y-104266904D02*
X122646990Y-104219285D01*
X122646990Y-104219285D02*
X122599371Y-104124047D01*
X122599371Y-104124047D02*
X122599371Y-103743095D01*
X122408895Y-104695476D02*
X122408895Y-105171666D01*
X122123180Y-104600238D02*
X123123180Y-104933571D01*
X123123180Y-104933571D02*
X122123180Y-105266904D01*
X122123180Y-105600238D02*
X123123180Y-105600238D01*
X123123180Y-105600238D02*
X122123180Y-106171666D01*
X122123180Y-106171666D02*
X123123180Y-106171666D01*
X123075561Y-107171666D02*
X123123180Y-107076428D01*
X123123180Y-107076428D02*
X123123180Y-106933571D01*
X123123180Y-106933571D02*
X123075561Y-106790714D01*
X123075561Y-106790714D02*
X122980323Y-106695476D01*
X122980323Y-106695476D02*
X122885085Y-106647857D01*
X122885085Y-106647857D02*
X122694609Y-106600238D01*
X122694609Y-106600238D02*
X122551752Y-106600238D01*
X122551752Y-106600238D02*
X122361276Y-106647857D01*
X122361276Y-106647857D02*
X122266038Y-106695476D01*
X122266038Y-106695476D02*
X122170800Y-106790714D01*
X122170800Y-106790714D02*
X122123180Y-106933571D01*
X122123180Y-106933571D02*
X122123180Y-107028809D01*
X122123180Y-107028809D02*
X122170800Y-107171666D01*
X122170800Y-107171666D02*
X122218419Y-107219285D01*
X122218419Y-107219285D02*
X122551752Y-107219285D01*
X122551752Y-107219285D02*
X122551752Y-107028809D01*
X122646990Y-107647857D02*
X122646990Y-107981190D01*
X122123180Y-108124047D02*
X122123180Y-107647857D01*
X122123180Y-107647857D02*
X123123180Y-107647857D01*
X123123180Y-107647857D02*
X123123180Y-108124047D01*
X171664333Y-82623819D02*
X171331000Y-82147628D01*
X171092905Y-82623819D02*
X171092905Y-81623819D01*
X171092905Y-81623819D02*
X171473857Y-81623819D01*
X171473857Y-81623819D02*
X171569095Y-81671438D01*
X171569095Y-81671438D02*
X171616714Y-81719057D01*
X171616714Y-81719057D02*
X171664333Y-81814295D01*
X171664333Y-81814295D02*
X171664333Y-81957152D01*
X171664333Y-81957152D02*
X171616714Y-82052390D01*
X171616714Y-82052390D02*
X171569095Y-82100009D01*
X171569095Y-82100009D02*
X171473857Y-82147628D01*
X171473857Y-82147628D02*
X171092905Y-82147628D01*
X171997667Y-81623819D02*
X172616714Y-81623819D01*
X172616714Y-81623819D02*
X172283381Y-82004771D01*
X172283381Y-82004771D02*
X172426238Y-82004771D01*
X172426238Y-82004771D02*
X172521476Y-82052390D01*
X172521476Y-82052390D02*
X172569095Y-82100009D01*
X172569095Y-82100009D02*
X172616714Y-82195247D01*
X172616714Y-82195247D02*
X172616714Y-82433342D01*
X172616714Y-82433342D02*
X172569095Y-82528580D01*
X172569095Y-82528580D02*
X172521476Y-82576200D01*
X172521476Y-82576200D02*
X172426238Y-82623819D01*
X172426238Y-82623819D02*
X172140524Y-82623819D01*
X172140524Y-82623819D02*
X172045286Y-82576200D01*
X172045286Y-82576200D02*
X171997667Y-82528580D01*
X163996905Y-81592057D02*
X164044524Y-81544438D01*
X164044524Y-81544438D02*
X164139762Y-81496819D01*
X164139762Y-81496819D02*
X164377857Y-81496819D01*
X164377857Y-81496819D02*
X164473095Y-81544438D01*
X164473095Y-81544438D02*
X164520714Y-81592057D01*
X164520714Y-81592057D02*
X164568333Y-81687295D01*
X164568333Y-81687295D02*
X164568333Y-81782533D01*
X164568333Y-81782533D02*
X164520714Y-81925390D01*
X164520714Y-81925390D02*
X163949286Y-82496819D01*
X163949286Y-82496819D02*
X164568333Y-82496819D01*
X164901667Y-81496819D02*
X165568333Y-81496819D01*
X165568333Y-81496819D02*
X165139762Y-82496819D01*
X166139762Y-81496819D02*
X166235000Y-81496819D01*
X166235000Y-81496819D02*
X166330238Y-81544438D01*
X166330238Y-81544438D02*
X166377857Y-81592057D01*
X166377857Y-81592057D02*
X166425476Y-81687295D01*
X166425476Y-81687295D02*
X166473095Y-81877771D01*
X166473095Y-81877771D02*
X166473095Y-82115866D01*
X166473095Y-82115866D02*
X166425476Y-82306342D01*
X166425476Y-82306342D02*
X166377857Y-82401580D01*
X166377857Y-82401580D02*
X166330238Y-82449200D01*
X166330238Y-82449200D02*
X166235000Y-82496819D01*
X166235000Y-82496819D02*
X166139762Y-82496819D01*
X166139762Y-82496819D02*
X166044524Y-82449200D01*
X166044524Y-82449200D02*
X165996905Y-82401580D01*
X165996905Y-82401580D02*
X165949286Y-82306342D01*
X165949286Y-82306342D02*
X165901667Y-82115866D01*
X165901667Y-82115866D02*
X165901667Y-81877771D01*
X165901667Y-81877771D02*
X165949286Y-81687295D01*
X165949286Y-81687295D02*
X165996905Y-81592057D01*
X165996905Y-81592057D02*
X166044524Y-81544438D01*
X166044524Y-81544438D02*
X166139762Y-81496819D01*
X167473095Y-82496819D02*
X167139762Y-82020628D01*
X166901667Y-82496819D02*
X166901667Y-81496819D01*
X166901667Y-81496819D02*
X167282619Y-81496819D01*
X167282619Y-81496819D02*
X167377857Y-81544438D01*
X167377857Y-81544438D02*
X167425476Y-81592057D01*
X167425476Y-81592057D02*
X167473095Y-81687295D01*
X167473095Y-81687295D02*
X167473095Y-81830152D01*
X167473095Y-81830152D02*
X167425476Y-81925390D01*
X167425476Y-81925390D02*
X167377857Y-81973009D01*
X167377857Y-81973009D02*
X167282619Y-82020628D01*
X167282619Y-82020628D02*
X166901667Y-82020628D01*
X170743666Y-119723819D02*
X170743666Y-120438104D01*
X170743666Y-120438104D02*
X170696047Y-120580961D01*
X170696047Y-120580961D02*
X170600809Y-120676200D01*
X170600809Y-120676200D02*
X170457952Y-120723819D01*
X170457952Y-120723819D02*
X170362714Y-120723819D01*
X171219857Y-120723819D02*
X171219857Y-119723819D01*
X171219857Y-119723819D02*
X171600809Y-119723819D01*
X171600809Y-119723819D02*
X171696047Y-119771438D01*
X171696047Y-119771438D02*
X171743666Y-119819057D01*
X171743666Y-119819057D02*
X171791285Y-119914295D01*
X171791285Y-119914295D02*
X171791285Y-120057152D01*
X171791285Y-120057152D02*
X171743666Y-120152390D01*
X171743666Y-120152390D02*
X171696047Y-120200009D01*
X171696047Y-120200009D02*
X171600809Y-120247628D01*
X171600809Y-120247628D02*
X171219857Y-120247628D01*
X172743666Y-120723819D02*
X172172238Y-120723819D01*
X172457952Y-120723819D02*
X172457952Y-119723819D01*
X172457952Y-119723819D02*
X172362714Y-119866676D01*
X172362714Y-119866676D02*
X172267476Y-119961914D01*
X172267476Y-119961914D02*
X172172238Y-120009533D01*
X159067952Y-120311104D02*
X159544142Y-120311104D01*
X158972714Y-120596819D02*
X159306047Y-119596819D01*
X159306047Y-119596819D02*
X159639380Y-120596819D01*
X160115571Y-120596819D02*
X160020333Y-120549200D01*
X160020333Y-120549200D02*
X159972714Y-120453961D01*
X159972714Y-120453961D02*
X159972714Y-119596819D01*
X160401286Y-119930152D02*
X160591762Y-120596819D01*
X160591762Y-120596819D02*
X160782238Y-120120628D01*
X160782238Y-120120628D02*
X160972714Y-120596819D01*
X160972714Y-120596819D02*
X161163190Y-119930152D01*
X161972714Y-120596819D02*
X161972714Y-120073009D01*
X161972714Y-120073009D02*
X161925095Y-119977771D01*
X161925095Y-119977771D02*
X161829857Y-119930152D01*
X161829857Y-119930152D02*
X161639381Y-119930152D01*
X161639381Y-119930152D02*
X161544143Y-119977771D01*
X161972714Y-120549200D02*
X161877476Y-120596819D01*
X161877476Y-120596819D02*
X161639381Y-120596819D01*
X161639381Y-120596819D02*
X161544143Y-120549200D01*
X161544143Y-120549200D02*
X161496524Y-120453961D01*
X161496524Y-120453961D02*
X161496524Y-120358723D01*
X161496524Y-120358723D02*
X161544143Y-120263485D01*
X161544143Y-120263485D02*
X161639381Y-120215866D01*
X161639381Y-120215866D02*
X161877476Y-120215866D01*
X161877476Y-120215866D02*
X161972714Y-120168247D01*
X162353667Y-119930152D02*
X162591762Y-120596819D01*
X162829857Y-119930152D02*
X162591762Y-120596819D01*
X162591762Y-120596819D02*
X162496524Y-120834914D01*
X162496524Y-120834914D02*
X162448905Y-120882533D01*
X162448905Y-120882533D02*
X162353667Y-120930152D01*
X163163191Y-120549200D02*
X163258429Y-120596819D01*
X163258429Y-120596819D02*
X163448905Y-120596819D01*
X163448905Y-120596819D02*
X163544143Y-120549200D01*
X163544143Y-120549200D02*
X163591762Y-120453961D01*
X163591762Y-120453961D02*
X163591762Y-120406342D01*
X163591762Y-120406342D02*
X163544143Y-120311104D01*
X163544143Y-120311104D02*
X163448905Y-120263485D01*
X163448905Y-120263485D02*
X163306048Y-120263485D01*
X163306048Y-120263485D02*
X163210810Y-120215866D01*
X163210810Y-120215866D02*
X163163191Y-120120628D01*
X163163191Y-120120628D02*
X163163191Y-120073009D01*
X163163191Y-120073009D02*
X163210810Y-119977771D01*
X163210810Y-119977771D02*
X163306048Y-119930152D01*
X163306048Y-119930152D02*
X163448905Y-119930152D01*
X163448905Y-119930152D02*
X163544143Y-119977771D01*
X164972715Y-119596819D02*
X165163191Y-119596819D01*
X165163191Y-119596819D02*
X165258429Y-119644438D01*
X165258429Y-119644438D02*
X165353667Y-119739676D01*
X165353667Y-119739676D02*
X165401286Y-119930152D01*
X165401286Y-119930152D02*
X165401286Y-120263485D01*
X165401286Y-120263485D02*
X165353667Y-120453961D01*
X165353667Y-120453961D02*
X165258429Y-120549200D01*
X165258429Y-120549200D02*
X165163191Y-120596819D01*
X165163191Y-120596819D02*
X164972715Y-120596819D01*
X164972715Y-120596819D02*
X164877477Y-120549200D01*
X164877477Y-120549200D02*
X164782239Y-120453961D01*
X164782239Y-120453961D02*
X164734620Y-120263485D01*
X164734620Y-120263485D02*
X164734620Y-119930152D01*
X164734620Y-119930152D02*
X164782239Y-119739676D01*
X164782239Y-119739676D02*
X164877477Y-119644438D01*
X164877477Y-119644438D02*
X164972715Y-119596819D01*
X165829858Y-119930152D02*
X165829858Y-120596819D01*
X165829858Y-120025390D02*
X165877477Y-119977771D01*
X165877477Y-119977771D02*
X165972715Y-119930152D01*
X165972715Y-119930152D02*
X166115572Y-119930152D01*
X166115572Y-119930152D02*
X166210810Y-119977771D01*
X166210810Y-119977771D02*
X166258429Y-120073009D01*
X166258429Y-120073009D02*
X166258429Y-120596819D01*
X138303095Y-118961819D02*
X138303095Y-119771342D01*
X138303095Y-119771342D02*
X138350714Y-119866580D01*
X138350714Y-119866580D02*
X138398333Y-119914200D01*
X138398333Y-119914200D02*
X138493571Y-119961819D01*
X138493571Y-119961819D02*
X138684047Y-119961819D01*
X138684047Y-119961819D02*
X138779285Y-119914200D01*
X138779285Y-119914200D02*
X138826904Y-119866580D01*
X138826904Y-119866580D02*
X138874523Y-119771342D01*
X138874523Y-119771342D02*
X138874523Y-118961819D01*
X139303095Y-119057057D02*
X139350714Y-119009438D01*
X139350714Y-119009438D02*
X139445952Y-118961819D01*
X139445952Y-118961819D02*
X139684047Y-118961819D01*
X139684047Y-118961819D02*
X139779285Y-119009438D01*
X139779285Y-119009438D02*
X139826904Y-119057057D01*
X139826904Y-119057057D02*
X139874523Y-119152295D01*
X139874523Y-119152295D02*
X139874523Y-119247533D01*
X139874523Y-119247533D02*
X139826904Y-119390390D01*
X139826904Y-119390390D02*
X139255476Y-119961819D01*
X139255476Y-119961819D02*
X139874523Y-119961819D01*
X131969762Y-121216009D02*
X132303095Y-121216009D01*
X132445952Y-121739819D02*
X131969762Y-121739819D01*
X131969762Y-121739819D02*
X131969762Y-120739819D01*
X131969762Y-120739819D02*
X132445952Y-120739819D01*
X132826905Y-121692200D02*
X132969762Y-121739819D01*
X132969762Y-121739819D02*
X133207857Y-121739819D01*
X133207857Y-121739819D02*
X133303095Y-121692200D01*
X133303095Y-121692200D02*
X133350714Y-121644580D01*
X133350714Y-121644580D02*
X133398333Y-121549342D01*
X133398333Y-121549342D02*
X133398333Y-121454104D01*
X133398333Y-121454104D02*
X133350714Y-121358866D01*
X133350714Y-121358866D02*
X133303095Y-121311247D01*
X133303095Y-121311247D02*
X133207857Y-121263628D01*
X133207857Y-121263628D02*
X133017381Y-121216009D01*
X133017381Y-121216009D02*
X132922143Y-121168390D01*
X132922143Y-121168390D02*
X132874524Y-121120771D01*
X132874524Y-121120771D02*
X132826905Y-121025533D01*
X132826905Y-121025533D02*
X132826905Y-120930295D01*
X132826905Y-120930295D02*
X132874524Y-120835057D01*
X132874524Y-120835057D02*
X132922143Y-120787438D01*
X132922143Y-120787438D02*
X133017381Y-120739819D01*
X133017381Y-120739819D02*
X133255476Y-120739819D01*
X133255476Y-120739819D02*
X133398333Y-120787438D01*
X133826905Y-121739819D02*
X133826905Y-120739819D01*
X133826905Y-120739819D02*
X134207857Y-120739819D01*
X134207857Y-120739819D02*
X134303095Y-120787438D01*
X134303095Y-120787438D02*
X134350714Y-120835057D01*
X134350714Y-120835057D02*
X134398333Y-120930295D01*
X134398333Y-120930295D02*
X134398333Y-121073152D01*
X134398333Y-121073152D02*
X134350714Y-121168390D01*
X134350714Y-121168390D02*
X134303095Y-121216009D01*
X134303095Y-121216009D02*
X134207857Y-121263628D01*
X134207857Y-121263628D02*
X133826905Y-121263628D01*
X134731667Y-120739819D02*
X135350714Y-120739819D01*
X135350714Y-120739819D02*
X135017381Y-121120771D01*
X135017381Y-121120771D02*
X135160238Y-121120771D01*
X135160238Y-121120771D02*
X135255476Y-121168390D01*
X135255476Y-121168390D02*
X135303095Y-121216009D01*
X135303095Y-121216009D02*
X135350714Y-121311247D01*
X135350714Y-121311247D02*
X135350714Y-121549342D01*
X135350714Y-121549342D02*
X135303095Y-121644580D01*
X135303095Y-121644580D02*
X135255476Y-121692200D01*
X135255476Y-121692200D02*
X135160238Y-121739819D01*
X135160238Y-121739819D02*
X134874524Y-121739819D01*
X134874524Y-121739819D02*
X134779286Y-121692200D01*
X134779286Y-121692200D02*
X134731667Y-121644580D01*
X135731667Y-120835057D02*
X135779286Y-120787438D01*
X135779286Y-120787438D02*
X135874524Y-120739819D01*
X135874524Y-120739819D02*
X136112619Y-120739819D01*
X136112619Y-120739819D02*
X136207857Y-120787438D01*
X136207857Y-120787438D02*
X136255476Y-120835057D01*
X136255476Y-120835057D02*
X136303095Y-120930295D01*
X136303095Y-120930295D02*
X136303095Y-121025533D01*
X136303095Y-121025533D02*
X136255476Y-121168390D01*
X136255476Y-121168390D02*
X135684048Y-121739819D01*
X135684048Y-121739819D02*
X136303095Y-121739819D01*
X136731667Y-121358866D02*
X137493572Y-121358866D01*
X137969762Y-121739819D02*
X137969762Y-120739819D01*
X137969762Y-120739819D02*
X138207857Y-120739819D01*
X138207857Y-120739819D02*
X138350714Y-120787438D01*
X138350714Y-120787438D02*
X138445952Y-120882676D01*
X138445952Y-120882676D02*
X138493571Y-120977914D01*
X138493571Y-120977914D02*
X138541190Y-121168390D01*
X138541190Y-121168390D02*
X138541190Y-121311247D01*
X138541190Y-121311247D02*
X138493571Y-121501723D01*
X138493571Y-121501723D02*
X138445952Y-121596961D01*
X138445952Y-121596961D02*
X138350714Y-121692200D01*
X138350714Y-121692200D02*
X138207857Y-121739819D01*
X138207857Y-121739819D02*
X137969762Y-121739819D01*
X139350714Y-121692200D02*
X139255476Y-121739819D01*
X139255476Y-121739819D02*
X139065000Y-121739819D01*
X139065000Y-121739819D02*
X138969762Y-121692200D01*
X138969762Y-121692200D02*
X138922143Y-121596961D01*
X138922143Y-121596961D02*
X138922143Y-121216009D01*
X138922143Y-121216009D02*
X138969762Y-121120771D01*
X138969762Y-121120771D02*
X139065000Y-121073152D01*
X139065000Y-121073152D02*
X139255476Y-121073152D01*
X139255476Y-121073152D02*
X139350714Y-121120771D01*
X139350714Y-121120771D02*
X139398333Y-121216009D01*
X139398333Y-121216009D02*
X139398333Y-121311247D01*
X139398333Y-121311247D02*
X138922143Y-121406485D01*
X139731667Y-121073152D02*
X139969762Y-121739819D01*
X139969762Y-121739819D02*
X140207857Y-121073152D01*
X140588810Y-121739819D02*
X140588810Y-120739819D01*
X141160238Y-121739819D02*
X140731667Y-121168390D01*
X141160238Y-120739819D02*
X140588810Y-121311247D01*
X141588810Y-121739819D02*
X141588810Y-121073152D01*
X141588810Y-120739819D02*
X141541191Y-120787438D01*
X141541191Y-120787438D02*
X141588810Y-120835057D01*
X141588810Y-120835057D02*
X141636429Y-120787438D01*
X141636429Y-120787438D02*
X141588810Y-120739819D01*
X141588810Y-120739819D02*
X141588810Y-120835057D01*
X141922143Y-121073152D02*
X142303095Y-121073152D01*
X142065000Y-120739819D02*
X142065000Y-121596961D01*
X142065000Y-121596961D02*
X142112619Y-121692200D01*
X142112619Y-121692200D02*
X142207857Y-121739819D01*
X142207857Y-121739819D02*
X142303095Y-121739819D01*
X143207857Y-121644580D02*
X143160238Y-121692200D01*
X143160238Y-121692200D02*
X143017381Y-121739819D01*
X143017381Y-121739819D02*
X142922143Y-121739819D01*
X142922143Y-121739819D02*
X142779286Y-121692200D01*
X142779286Y-121692200D02*
X142684048Y-121596961D01*
X142684048Y-121596961D02*
X142636429Y-121501723D01*
X142636429Y-121501723D02*
X142588810Y-121311247D01*
X142588810Y-121311247D02*
X142588810Y-121168390D01*
X142588810Y-121168390D02*
X142636429Y-120977914D01*
X142636429Y-120977914D02*
X142684048Y-120882676D01*
X142684048Y-120882676D02*
X142779286Y-120787438D01*
X142779286Y-120787438D02*
X142922143Y-120739819D01*
X142922143Y-120739819D02*
X143017381Y-120739819D01*
X143017381Y-120739819D02*
X143160238Y-120787438D01*
X143160238Y-120787438D02*
X143207857Y-120835057D01*
X143636429Y-121358866D02*
X144398334Y-121358866D01*
X144731667Y-120739819D02*
X145065000Y-121739819D01*
X145065000Y-121739819D02*
X145398333Y-120739819D01*
X145731667Y-121216009D02*
X146065000Y-121216009D01*
X146207857Y-121739819D02*
X145731667Y-121739819D01*
X145731667Y-121739819D02*
X145731667Y-120739819D01*
X145731667Y-120739819D02*
X146207857Y-120739819D01*
X137628333Y-108574819D02*
X137295000Y-108098628D01*
X137056905Y-108574819D02*
X137056905Y-107574819D01*
X137056905Y-107574819D02*
X137437857Y-107574819D01*
X137437857Y-107574819D02*
X137533095Y-107622438D01*
X137533095Y-107622438D02*
X137580714Y-107670057D01*
X137580714Y-107670057D02*
X137628333Y-107765295D01*
X137628333Y-107765295D02*
X137628333Y-107908152D01*
X137628333Y-107908152D02*
X137580714Y-108003390D01*
X137580714Y-108003390D02*
X137533095Y-108051009D01*
X137533095Y-108051009D02*
X137437857Y-108098628D01*
X137437857Y-108098628D02*
X137056905Y-108098628D01*
X138485476Y-107908152D02*
X138485476Y-108574819D01*
X138247381Y-107527200D02*
X138009286Y-108241485D01*
X138009286Y-108241485D02*
X138628333Y-108241485D01*
X137580714Y-110944819D02*
X137009286Y-110944819D01*
X137295000Y-110944819D02*
X137295000Y-109944819D01*
X137295000Y-109944819D02*
X137199762Y-110087676D01*
X137199762Y-110087676D02*
X137104524Y-110182914D01*
X137104524Y-110182914D02*
X137009286Y-110230533D01*
X138009286Y-110944819D02*
X138009286Y-109944819D01*
X138580714Y-110944819D02*
X138152143Y-110373390D01*
X138580714Y-109944819D02*
X138009286Y-110516247D01*
X186219180Y-97964666D02*
X185504895Y-97964666D01*
X185504895Y-97964666D02*
X185362038Y-97917047D01*
X185362038Y-97917047D02*
X185266800Y-97821809D01*
X185266800Y-97821809D02*
X185219180Y-97678952D01*
X185219180Y-97678952D02*
X185219180Y-97583714D01*
X186123942Y-98393238D02*
X186171561Y-98440857D01*
X186171561Y-98440857D02*
X186219180Y-98536095D01*
X186219180Y-98536095D02*
X186219180Y-98774190D01*
X186219180Y-98774190D02*
X186171561Y-98869428D01*
X186171561Y-98869428D02*
X186123942Y-98917047D01*
X186123942Y-98917047D02*
X186028704Y-98964666D01*
X186028704Y-98964666D02*
X185933466Y-98964666D01*
X185933466Y-98964666D02*
X185790609Y-98917047D01*
X185790609Y-98917047D02*
X185219180Y-98345619D01*
X185219180Y-98345619D02*
X185219180Y-98964666D01*
X178107180Y-93541094D02*
X178107180Y-93064904D01*
X178107180Y-93064904D02*
X179107180Y-93064904D01*
X178107180Y-94017285D02*
X178154800Y-93922047D01*
X178154800Y-93922047D02*
X178202419Y-93874428D01*
X178202419Y-93874428D02*
X178297657Y-93826809D01*
X178297657Y-93826809D02*
X178583371Y-93826809D01*
X178583371Y-93826809D02*
X178678609Y-93874428D01*
X178678609Y-93874428D02*
X178726228Y-93922047D01*
X178726228Y-93922047D02*
X178773847Y-94017285D01*
X178773847Y-94017285D02*
X178773847Y-94160142D01*
X178773847Y-94160142D02*
X178726228Y-94255380D01*
X178726228Y-94255380D02*
X178678609Y-94302999D01*
X178678609Y-94302999D02*
X178583371Y-94350618D01*
X178583371Y-94350618D02*
X178297657Y-94350618D01*
X178297657Y-94350618D02*
X178202419Y-94302999D01*
X178202419Y-94302999D02*
X178154800Y-94255380D01*
X178154800Y-94255380D02*
X178107180Y-94160142D01*
X178107180Y-94160142D02*
X178107180Y-94017285D01*
X178773847Y-95207761D02*
X177964323Y-95207761D01*
X177964323Y-95207761D02*
X177869085Y-95160142D01*
X177869085Y-95160142D02*
X177821466Y-95112523D01*
X177821466Y-95112523D02*
X177773847Y-95017285D01*
X177773847Y-95017285D02*
X177773847Y-94874428D01*
X177773847Y-94874428D02*
X177821466Y-94779190D01*
X178154800Y-95207761D02*
X178107180Y-95112523D01*
X178107180Y-95112523D02*
X178107180Y-94922047D01*
X178107180Y-94922047D02*
X178154800Y-94826809D01*
X178154800Y-94826809D02*
X178202419Y-94779190D01*
X178202419Y-94779190D02*
X178297657Y-94731571D01*
X178297657Y-94731571D02*
X178583371Y-94731571D01*
X178583371Y-94731571D02*
X178678609Y-94779190D01*
X178678609Y-94779190D02*
X178726228Y-94826809D01*
X178726228Y-94826809D02*
X178773847Y-94922047D01*
X178773847Y-94922047D02*
X178773847Y-95112523D01*
X178773847Y-95112523D02*
X178726228Y-95207761D01*
X178107180Y-95683952D02*
X178773847Y-95683952D01*
X179107180Y-95683952D02*
X179059561Y-95636333D01*
X179059561Y-95636333D02*
X179011942Y-95683952D01*
X179011942Y-95683952D02*
X179059561Y-95731571D01*
X179059561Y-95731571D02*
X179107180Y-95683952D01*
X179107180Y-95683952D02*
X179011942Y-95683952D01*
X178154800Y-96588713D02*
X178107180Y-96493475D01*
X178107180Y-96493475D02*
X178107180Y-96302999D01*
X178107180Y-96302999D02*
X178154800Y-96207761D01*
X178154800Y-96207761D02*
X178202419Y-96160142D01*
X178202419Y-96160142D02*
X178297657Y-96112523D01*
X178297657Y-96112523D02*
X178583371Y-96112523D01*
X178583371Y-96112523D02*
X178678609Y-96160142D01*
X178678609Y-96160142D02*
X178726228Y-96207761D01*
X178726228Y-96207761D02*
X178773847Y-96302999D01*
X178773847Y-96302999D02*
X178773847Y-96493475D01*
X178773847Y-96493475D02*
X178726228Y-96588713D01*
X178392895Y-97731571D02*
X178392895Y-98207761D01*
X178107180Y-97636333D02*
X179107180Y-97969666D01*
X179107180Y-97969666D02*
X178107180Y-98302999D01*
X178773847Y-98636333D02*
X178107180Y-98636333D01*
X178678609Y-98636333D02*
X178726228Y-98683952D01*
X178726228Y-98683952D02*
X178773847Y-98779190D01*
X178773847Y-98779190D02*
X178773847Y-98922047D01*
X178773847Y-98922047D02*
X178726228Y-99017285D01*
X178726228Y-99017285D02*
X178630990Y-99064904D01*
X178630990Y-99064904D02*
X178107180Y-99064904D01*
X178107180Y-99969666D02*
X178630990Y-99969666D01*
X178630990Y-99969666D02*
X178726228Y-99922047D01*
X178726228Y-99922047D02*
X178773847Y-99826809D01*
X178773847Y-99826809D02*
X178773847Y-99636333D01*
X178773847Y-99636333D02*
X178726228Y-99541095D01*
X178154800Y-99969666D02*
X178107180Y-99874428D01*
X178107180Y-99874428D02*
X178107180Y-99636333D01*
X178107180Y-99636333D02*
X178154800Y-99541095D01*
X178154800Y-99541095D02*
X178250038Y-99493476D01*
X178250038Y-99493476D02*
X178345276Y-99493476D01*
X178345276Y-99493476D02*
X178440514Y-99541095D01*
X178440514Y-99541095D02*
X178488133Y-99636333D01*
X178488133Y-99636333D02*
X178488133Y-99874428D01*
X178488133Y-99874428D02*
X178535752Y-99969666D01*
X178107180Y-100588714D02*
X178154800Y-100493476D01*
X178154800Y-100493476D02*
X178250038Y-100445857D01*
X178250038Y-100445857D02*
X179107180Y-100445857D01*
X178773847Y-100874429D02*
X178107180Y-101112524D01*
X178773847Y-101350619D02*
X178107180Y-101112524D01*
X178107180Y-101112524D02*
X177869085Y-101017286D01*
X177869085Y-101017286D02*
X177821466Y-100969667D01*
X177821466Y-100969667D02*
X177773847Y-100874429D01*
X178773847Y-101636334D02*
X178773847Y-102160143D01*
X178773847Y-102160143D02*
X178107180Y-101636334D01*
X178107180Y-101636334D02*
X178107180Y-102160143D01*
X178154800Y-102922048D02*
X178107180Y-102826810D01*
X178107180Y-102826810D02*
X178107180Y-102636334D01*
X178107180Y-102636334D02*
X178154800Y-102541096D01*
X178154800Y-102541096D02*
X178250038Y-102493477D01*
X178250038Y-102493477D02*
X178630990Y-102493477D01*
X178630990Y-102493477D02*
X178726228Y-102541096D01*
X178726228Y-102541096D02*
X178773847Y-102636334D01*
X178773847Y-102636334D02*
X178773847Y-102826810D01*
X178773847Y-102826810D02*
X178726228Y-102922048D01*
X178726228Y-102922048D02*
X178630990Y-102969667D01*
X178630990Y-102969667D02*
X178535752Y-102969667D01*
X178535752Y-102969667D02*
X178440514Y-102493477D01*
X178107180Y-103398239D02*
X178773847Y-103398239D01*
X178583371Y-103398239D02*
X178678609Y-103445858D01*
X178678609Y-103445858D02*
X178726228Y-103493477D01*
X178726228Y-103493477D02*
X178773847Y-103588715D01*
X178773847Y-103588715D02*
X178773847Y-103683953D01*
X139277419Y-89495333D02*
X139229800Y-89447714D01*
X139229800Y-89447714D02*
X139182180Y-89304857D01*
X139182180Y-89304857D02*
X139182180Y-89209619D01*
X139182180Y-89209619D02*
X139229800Y-89066762D01*
X139229800Y-89066762D02*
X139325038Y-88971524D01*
X139325038Y-88971524D02*
X139420276Y-88923905D01*
X139420276Y-88923905D02*
X139610752Y-88876286D01*
X139610752Y-88876286D02*
X139753609Y-88876286D01*
X139753609Y-88876286D02*
X139944085Y-88923905D01*
X139944085Y-88923905D02*
X140039323Y-88971524D01*
X140039323Y-88971524D02*
X140134561Y-89066762D01*
X140134561Y-89066762D02*
X140182180Y-89209619D01*
X140182180Y-89209619D02*
X140182180Y-89304857D01*
X140182180Y-89304857D02*
X140134561Y-89447714D01*
X140134561Y-89447714D02*
X140086942Y-89495333D01*
X139182180Y-90447714D02*
X139182180Y-89876286D01*
X139182180Y-90162000D02*
X140182180Y-90162000D01*
X140182180Y-90162000D02*
X140039323Y-90066762D01*
X140039323Y-90066762D02*
X139944085Y-89971524D01*
X139944085Y-89971524D02*
X139896466Y-89876286D01*
X137628333Y-103494819D02*
X137295000Y-103018628D01*
X137056905Y-103494819D02*
X137056905Y-102494819D01*
X137056905Y-102494819D02*
X137437857Y-102494819D01*
X137437857Y-102494819D02*
X137533095Y-102542438D01*
X137533095Y-102542438D02*
X137580714Y-102590057D01*
X137580714Y-102590057D02*
X137628333Y-102685295D01*
X137628333Y-102685295D02*
X137628333Y-102828152D01*
X137628333Y-102828152D02*
X137580714Y-102923390D01*
X137580714Y-102923390D02*
X137533095Y-102971009D01*
X137533095Y-102971009D02*
X137437857Y-103018628D01*
X137437857Y-103018628D02*
X137056905Y-103018628D01*
X138533095Y-102494819D02*
X138056905Y-102494819D01*
X138056905Y-102494819D02*
X138009286Y-102971009D01*
X138009286Y-102971009D02*
X138056905Y-102923390D01*
X138056905Y-102923390D02*
X138152143Y-102875771D01*
X138152143Y-102875771D02*
X138390238Y-102875771D01*
X138390238Y-102875771D02*
X138485476Y-102923390D01*
X138485476Y-102923390D02*
X138533095Y-102971009D01*
X138533095Y-102971009D02*
X138580714Y-103066247D01*
X138580714Y-103066247D02*
X138580714Y-103304342D01*
X138580714Y-103304342D02*
X138533095Y-103399580D01*
X138533095Y-103399580D02*
X138485476Y-103447200D01*
X138485476Y-103447200D02*
X138390238Y-103494819D01*
X138390238Y-103494819D02*
X138152143Y-103494819D01*
X138152143Y-103494819D02*
X138056905Y-103447200D01*
X138056905Y-103447200D02*
X138009286Y-103399580D01*
X137580714Y-105864819D02*
X137009286Y-105864819D01*
X137295000Y-105864819D02*
X137295000Y-104864819D01*
X137295000Y-104864819D02*
X137199762Y-105007676D01*
X137199762Y-105007676D02*
X137104524Y-105102914D01*
X137104524Y-105102914D02*
X137009286Y-105150533D01*
X138009286Y-105864819D02*
X138009286Y-104864819D01*
X138580714Y-105864819D02*
X138152143Y-105293390D01*
X138580714Y-104864819D02*
X138009286Y-105436247D01*
X192061180Y-79930666D02*
X191346895Y-79930666D01*
X191346895Y-79930666D02*
X191204038Y-79883047D01*
X191204038Y-79883047D02*
X191108800Y-79787809D01*
X191108800Y-79787809D02*
X191061180Y-79644952D01*
X191061180Y-79644952D02*
X191061180Y-79549714D01*
X191061180Y-80930666D02*
X191061180Y-80359238D01*
X191061180Y-80644952D02*
X192061180Y-80644952D01*
X192061180Y-80644952D02*
X191918323Y-80549714D01*
X191918323Y-80549714D02*
X191823085Y-80454476D01*
X191823085Y-80454476D02*
X191775466Y-80359238D01*
X192997895Y-102037190D02*
X192997895Y-102513380D01*
X192712180Y-101941952D02*
X193712180Y-102275285D01*
X193712180Y-102275285D02*
X192712180Y-102608618D01*
X193378847Y-102941952D02*
X192378847Y-102941952D01*
X193331228Y-102941952D02*
X193378847Y-103037190D01*
X193378847Y-103037190D02*
X193378847Y-103227666D01*
X193378847Y-103227666D02*
X193331228Y-103322904D01*
X193331228Y-103322904D02*
X193283609Y-103370523D01*
X193283609Y-103370523D02*
X193188371Y-103418142D01*
X193188371Y-103418142D02*
X192902657Y-103418142D01*
X192902657Y-103418142D02*
X192807419Y-103370523D01*
X192807419Y-103370523D02*
X192759800Y-103322904D01*
X192759800Y-103322904D02*
X192712180Y-103227666D01*
X192712180Y-103227666D02*
X192712180Y-103037190D01*
X192712180Y-103037190D02*
X192759800Y-102941952D01*
X193378847Y-103846714D02*
X192378847Y-103846714D01*
X193331228Y-103846714D02*
X193378847Y-103941952D01*
X193378847Y-103941952D02*
X193378847Y-104132428D01*
X193378847Y-104132428D02*
X193331228Y-104227666D01*
X193331228Y-104227666D02*
X193283609Y-104275285D01*
X193283609Y-104275285D02*
X193188371Y-104322904D01*
X193188371Y-104322904D02*
X192902657Y-104322904D01*
X192902657Y-104322904D02*
X192807419Y-104275285D01*
X192807419Y-104275285D02*
X192759800Y-104227666D01*
X192759800Y-104227666D02*
X192712180Y-104132428D01*
X192712180Y-104132428D02*
X192712180Y-103941952D01*
X192712180Y-103941952D02*
X192759800Y-103846714D01*
X192712180Y-104894333D02*
X192759800Y-104799095D01*
X192759800Y-104799095D02*
X192855038Y-104751476D01*
X192855038Y-104751476D02*
X193712180Y-104751476D01*
X192759800Y-105656238D02*
X192712180Y-105561000D01*
X192712180Y-105561000D02*
X192712180Y-105370524D01*
X192712180Y-105370524D02*
X192759800Y-105275286D01*
X192759800Y-105275286D02*
X192855038Y-105227667D01*
X192855038Y-105227667D02*
X193235990Y-105227667D01*
X193235990Y-105227667D02*
X193331228Y-105275286D01*
X193331228Y-105275286D02*
X193378847Y-105370524D01*
X193378847Y-105370524D02*
X193378847Y-105561000D01*
X193378847Y-105561000D02*
X193331228Y-105656238D01*
X193331228Y-105656238D02*
X193235990Y-105703857D01*
X193235990Y-105703857D02*
X193140752Y-105703857D01*
X193140752Y-105703857D02*
X193045514Y-105227667D01*
X192712180Y-106894334D02*
X193712180Y-106894334D01*
X192712180Y-107370524D02*
X193712180Y-107370524D01*
X193712180Y-107370524D02*
X193712180Y-107608619D01*
X193712180Y-107608619D02*
X193664561Y-107751476D01*
X193664561Y-107751476D02*
X193569323Y-107846714D01*
X193569323Y-107846714D02*
X193474085Y-107894333D01*
X193474085Y-107894333D02*
X193283609Y-107941952D01*
X193283609Y-107941952D02*
X193140752Y-107941952D01*
X193140752Y-107941952D02*
X192950276Y-107894333D01*
X192950276Y-107894333D02*
X192855038Y-107846714D01*
X192855038Y-107846714D02*
X192759800Y-107751476D01*
X192759800Y-107751476D02*
X192712180Y-107608619D01*
X192712180Y-107608619D02*
X192712180Y-107370524D01*
X192807419Y-108941952D02*
X192759800Y-108894333D01*
X192759800Y-108894333D02*
X192712180Y-108751476D01*
X192712180Y-108751476D02*
X192712180Y-108656238D01*
X192712180Y-108656238D02*
X192759800Y-108513381D01*
X192759800Y-108513381D02*
X192855038Y-108418143D01*
X192855038Y-108418143D02*
X192950276Y-108370524D01*
X192950276Y-108370524D02*
X193140752Y-108322905D01*
X193140752Y-108322905D02*
X193283609Y-108322905D01*
X193283609Y-108322905D02*
X193474085Y-108370524D01*
X193474085Y-108370524D02*
X193569323Y-108418143D01*
X193569323Y-108418143D02*
X193664561Y-108513381D01*
X193664561Y-108513381D02*
X193712180Y-108656238D01*
X193712180Y-108656238D02*
X193712180Y-108751476D01*
X193712180Y-108751476D02*
X193664561Y-108894333D01*
X193664561Y-108894333D02*
X193616942Y-108941952D01*
X193093133Y-109370524D02*
X193093133Y-110132429D01*
X193616942Y-110561000D02*
X193664561Y-110608619D01*
X193664561Y-110608619D02*
X193712180Y-110703857D01*
X193712180Y-110703857D02*
X193712180Y-110941952D01*
X193712180Y-110941952D02*
X193664561Y-111037190D01*
X193664561Y-111037190D02*
X193616942Y-111084809D01*
X193616942Y-111084809D02*
X193521704Y-111132428D01*
X193521704Y-111132428D02*
X193426466Y-111132428D01*
X193426466Y-111132428D02*
X193283609Y-111084809D01*
X193283609Y-111084809D02*
X192712180Y-110513381D01*
X192712180Y-110513381D02*
X192712180Y-111132428D01*
X193712180Y-111751476D02*
X193712180Y-111846714D01*
X193712180Y-111846714D02*
X193664561Y-111941952D01*
X193664561Y-111941952D02*
X193616942Y-111989571D01*
X193616942Y-111989571D02*
X193521704Y-112037190D01*
X193521704Y-112037190D02*
X193331228Y-112084809D01*
X193331228Y-112084809D02*
X193093133Y-112084809D01*
X193093133Y-112084809D02*
X192902657Y-112037190D01*
X192902657Y-112037190D02*
X192807419Y-111989571D01*
X192807419Y-111989571D02*
X192759800Y-111941952D01*
X192759800Y-111941952D02*
X192712180Y-111846714D01*
X192712180Y-111846714D02*
X192712180Y-111751476D01*
X192712180Y-111751476D02*
X192759800Y-111656238D01*
X192759800Y-111656238D02*
X192807419Y-111608619D01*
X192807419Y-111608619D02*
X192902657Y-111561000D01*
X192902657Y-111561000D02*
X193093133Y-111513381D01*
X193093133Y-111513381D02*
X193331228Y-111513381D01*
X193331228Y-111513381D02*
X193521704Y-111561000D01*
X193521704Y-111561000D02*
X193616942Y-111608619D01*
X193616942Y-111608619D02*
X193664561Y-111656238D01*
X193664561Y-111656238D02*
X193712180Y-111751476D01*
X117829800Y-112764667D02*
X117782180Y-112907524D01*
X117782180Y-112907524D02*
X117782180Y-113145619D01*
X117782180Y-113145619D02*
X117829800Y-113240857D01*
X117829800Y-113240857D02*
X117877419Y-113288476D01*
X117877419Y-113288476D02*
X117972657Y-113336095D01*
X117972657Y-113336095D02*
X118067895Y-113336095D01*
X118067895Y-113336095D02*
X118163133Y-113288476D01*
X118163133Y-113288476D02*
X118210752Y-113240857D01*
X118210752Y-113240857D02*
X118258371Y-113145619D01*
X118258371Y-113145619D02*
X118305990Y-112955143D01*
X118305990Y-112955143D02*
X118353609Y-112859905D01*
X118353609Y-112859905D02*
X118401228Y-112812286D01*
X118401228Y-112812286D02*
X118496466Y-112764667D01*
X118496466Y-112764667D02*
X118591704Y-112764667D01*
X118591704Y-112764667D02*
X118686942Y-112812286D01*
X118686942Y-112812286D02*
X118734561Y-112859905D01*
X118734561Y-112859905D02*
X118782180Y-112955143D01*
X118782180Y-112955143D02*
X118782180Y-113193238D01*
X118782180Y-113193238D02*
X118734561Y-113336095D01*
X118782180Y-113669429D02*
X117782180Y-113907524D01*
X117782180Y-113907524D02*
X118496466Y-114098000D01*
X118496466Y-114098000D02*
X117782180Y-114288476D01*
X117782180Y-114288476D02*
X118782180Y-114526572D01*
X118686942Y-114859905D02*
X118734561Y-114907524D01*
X118734561Y-114907524D02*
X118782180Y-115002762D01*
X118782180Y-115002762D02*
X118782180Y-115240857D01*
X118782180Y-115240857D02*
X118734561Y-115336095D01*
X118734561Y-115336095D02*
X118686942Y-115383714D01*
X118686942Y-115383714D02*
X118591704Y-115431333D01*
X118591704Y-115431333D02*
X118496466Y-115431333D01*
X118496466Y-115431333D02*
X118353609Y-115383714D01*
X118353609Y-115383714D02*
X117782180Y-114812286D01*
X117782180Y-114812286D02*
X117782180Y-115431333D01*
X122401800Y-110197047D02*
X122354180Y-110339904D01*
X122354180Y-110339904D02*
X122354180Y-110577999D01*
X122354180Y-110577999D02*
X122401800Y-110673237D01*
X122401800Y-110673237D02*
X122449419Y-110720856D01*
X122449419Y-110720856D02*
X122544657Y-110768475D01*
X122544657Y-110768475D02*
X122639895Y-110768475D01*
X122639895Y-110768475D02*
X122735133Y-110720856D01*
X122735133Y-110720856D02*
X122782752Y-110673237D01*
X122782752Y-110673237D02*
X122830371Y-110577999D01*
X122830371Y-110577999D02*
X122877990Y-110387523D01*
X122877990Y-110387523D02*
X122925609Y-110292285D01*
X122925609Y-110292285D02*
X122973228Y-110244666D01*
X122973228Y-110244666D02*
X123068466Y-110197047D01*
X123068466Y-110197047D02*
X123163704Y-110197047D01*
X123163704Y-110197047D02*
X123258942Y-110244666D01*
X123258942Y-110244666D02*
X123306561Y-110292285D01*
X123306561Y-110292285D02*
X123354180Y-110387523D01*
X123354180Y-110387523D02*
X123354180Y-110625618D01*
X123354180Y-110625618D02*
X123306561Y-110768475D01*
X122354180Y-111625618D02*
X122877990Y-111625618D01*
X122877990Y-111625618D02*
X122973228Y-111577999D01*
X122973228Y-111577999D02*
X123020847Y-111482761D01*
X123020847Y-111482761D02*
X123020847Y-111292285D01*
X123020847Y-111292285D02*
X122973228Y-111197047D01*
X122401800Y-111625618D02*
X122354180Y-111530380D01*
X122354180Y-111530380D02*
X122354180Y-111292285D01*
X122354180Y-111292285D02*
X122401800Y-111197047D01*
X122401800Y-111197047D02*
X122497038Y-111149428D01*
X122497038Y-111149428D02*
X122592276Y-111149428D01*
X122592276Y-111149428D02*
X122687514Y-111197047D01*
X122687514Y-111197047D02*
X122735133Y-111292285D01*
X122735133Y-111292285D02*
X122735133Y-111530380D01*
X122735133Y-111530380D02*
X122782752Y-111625618D01*
X123020847Y-111958952D02*
X123020847Y-112339904D01*
X122354180Y-112101809D02*
X123211323Y-112101809D01*
X123211323Y-112101809D02*
X123306561Y-112149428D01*
X123306561Y-112149428D02*
X123354180Y-112244666D01*
X123354180Y-112244666D02*
X123354180Y-112339904D01*
X122401800Y-113054190D02*
X122354180Y-112958952D01*
X122354180Y-112958952D02*
X122354180Y-112768476D01*
X122354180Y-112768476D02*
X122401800Y-112673238D01*
X122401800Y-112673238D02*
X122497038Y-112625619D01*
X122497038Y-112625619D02*
X122877990Y-112625619D01*
X122877990Y-112625619D02*
X122973228Y-112673238D01*
X122973228Y-112673238D02*
X123020847Y-112768476D01*
X123020847Y-112768476D02*
X123020847Y-112958952D01*
X123020847Y-112958952D02*
X122973228Y-113054190D01*
X122973228Y-113054190D02*
X122877990Y-113101809D01*
X122877990Y-113101809D02*
X122782752Y-113101809D01*
X122782752Y-113101809D02*
X122687514Y-112625619D01*
X122354180Y-114863714D02*
X122830371Y-114530381D01*
X122354180Y-114292286D02*
X123354180Y-114292286D01*
X123354180Y-114292286D02*
X123354180Y-114673238D01*
X123354180Y-114673238D02*
X123306561Y-114768476D01*
X123306561Y-114768476D02*
X123258942Y-114816095D01*
X123258942Y-114816095D02*
X123163704Y-114863714D01*
X123163704Y-114863714D02*
X123020847Y-114863714D01*
X123020847Y-114863714D02*
X122925609Y-114816095D01*
X122925609Y-114816095D02*
X122877990Y-114768476D01*
X122877990Y-114768476D02*
X122830371Y-114673238D01*
X122830371Y-114673238D02*
X122830371Y-114292286D01*
X122401800Y-115673238D02*
X122354180Y-115578000D01*
X122354180Y-115578000D02*
X122354180Y-115387524D01*
X122354180Y-115387524D02*
X122401800Y-115292286D01*
X122401800Y-115292286D02*
X122497038Y-115244667D01*
X122497038Y-115244667D02*
X122877990Y-115244667D01*
X122877990Y-115244667D02*
X122973228Y-115292286D01*
X122973228Y-115292286D02*
X123020847Y-115387524D01*
X123020847Y-115387524D02*
X123020847Y-115578000D01*
X123020847Y-115578000D02*
X122973228Y-115673238D01*
X122973228Y-115673238D02*
X122877990Y-115720857D01*
X122877990Y-115720857D02*
X122782752Y-115720857D01*
X122782752Y-115720857D02*
X122687514Y-115244667D01*
X122401800Y-116101810D02*
X122354180Y-116197048D01*
X122354180Y-116197048D02*
X122354180Y-116387524D01*
X122354180Y-116387524D02*
X122401800Y-116482762D01*
X122401800Y-116482762D02*
X122497038Y-116530381D01*
X122497038Y-116530381D02*
X122544657Y-116530381D01*
X122544657Y-116530381D02*
X122639895Y-116482762D01*
X122639895Y-116482762D02*
X122687514Y-116387524D01*
X122687514Y-116387524D02*
X122687514Y-116244667D01*
X122687514Y-116244667D02*
X122735133Y-116149429D01*
X122735133Y-116149429D02*
X122830371Y-116101810D01*
X122830371Y-116101810D02*
X122877990Y-116101810D01*
X122877990Y-116101810D02*
X122973228Y-116149429D01*
X122973228Y-116149429D02*
X123020847Y-116244667D01*
X123020847Y-116244667D02*
X123020847Y-116387524D01*
X123020847Y-116387524D02*
X122973228Y-116482762D01*
X122401800Y-117339905D02*
X122354180Y-117244667D01*
X122354180Y-117244667D02*
X122354180Y-117054191D01*
X122354180Y-117054191D02*
X122401800Y-116958953D01*
X122401800Y-116958953D02*
X122497038Y-116911334D01*
X122497038Y-116911334D02*
X122877990Y-116911334D01*
X122877990Y-116911334D02*
X122973228Y-116958953D01*
X122973228Y-116958953D02*
X123020847Y-117054191D01*
X123020847Y-117054191D02*
X123020847Y-117244667D01*
X123020847Y-117244667D02*
X122973228Y-117339905D01*
X122973228Y-117339905D02*
X122877990Y-117387524D01*
X122877990Y-117387524D02*
X122782752Y-117387524D01*
X122782752Y-117387524D02*
X122687514Y-116911334D01*
X123020847Y-117673239D02*
X123020847Y-118054191D01*
X123354180Y-117816096D02*
X122497038Y-117816096D01*
X122497038Y-117816096D02*
X122401800Y-117863715D01*
X122401800Y-117863715D02*
X122354180Y-117958953D01*
X122354180Y-117958953D02*
X122354180Y-118054191D01*
X147500180Y-101798523D02*
X147976371Y-101465190D01*
X147500180Y-101227095D02*
X148500180Y-101227095D01*
X148500180Y-101227095D02*
X148500180Y-101608047D01*
X148500180Y-101608047D02*
X148452561Y-101703285D01*
X148452561Y-101703285D02*
X148404942Y-101750904D01*
X148404942Y-101750904D02*
X148309704Y-101798523D01*
X148309704Y-101798523D02*
X148166847Y-101798523D01*
X148166847Y-101798523D02*
X148071609Y-101750904D01*
X148071609Y-101750904D02*
X148023990Y-101703285D01*
X148023990Y-101703285D02*
X147976371Y-101608047D01*
X147976371Y-101608047D02*
X147976371Y-101227095D01*
X147500180Y-102227095D02*
X148500180Y-102227095D01*
X148500180Y-102227095D02*
X147500180Y-102798523D01*
X147500180Y-102798523D02*
X148500180Y-102798523D01*
X147500180Y-103798523D02*
X147500180Y-103227095D01*
X147500180Y-103512809D02*
X148500180Y-103512809D01*
X148500180Y-103512809D02*
X148357323Y-103417571D01*
X148357323Y-103417571D02*
X148262085Y-103322333D01*
X148262085Y-103322333D02*
X148214466Y-103227095D01*
D11*
X164857757Y-105461427D02*
X164786328Y-105604285D01*
X164786328Y-105604285D02*
X164786328Y-105818570D01*
X164786328Y-105818570D02*
X164857757Y-106032856D01*
X164857757Y-106032856D02*
X165000614Y-106175713D01*
X165000614Y-106175713D02*
X165143471Y-106247142D01*
X165143471Y-106247142D02*
X165429185Y-106318570D01*
X165429185Y-106318570D02*
X165643471Y-106318570D01*
X165643471Y-106318570D02*
X165929185Y-106247142D01*
X165929185Y-106247142D02*
X166072042Y-106175713D01*
X166072042Y-106175713D02*
X166214900Y-106032856D01*
X166214900Y-106032856D02*
X166286328Y-105818570D01*
X166286328Y-105818570D02*
X166286328Y-105675713D01*
X166286328Y-105675713D02*
X166214900Y-105461427D01*
X166214900Y-105461427D02*
X166143471Y-105389999D01*
X166143471Y-105389999D02*
X165643471Y-105389999D01*
X165643471Y-105389999D02*
X165643471Y-105675713D01*
X164786328Y-104532856D02*
X165143471Y-104532856D01*
X165000614Y-104889999D02*
X165143471Y-104532856D01*
X165143471Y-104532856D02*
X165000614Y-104175713D01*
X165429185Y-104747142D02*
X165143471Y-104532856D01*
X165143471Y-104532856D02*
X165429185Y-104318570D01*
X164786328Y-103389999D02*
X165143471Y-103389999D01*
X165000614Y-103747142D02*
X165143471Y-103389999D01*
X165143471Y-103389999D02*
X165000614Y-103032856D01*
X165429185Y-103604285D02*
X165143471Y-103389999D01*
X165143471Y-103389999D02*
X165429185Y-103175713D01*
X164786328Y-102247142D02*
X165143471Y-102247142D01*
X165000614Y-102604285D02*
X165143471Y-102247142D01*
X165143471Y-102247142D02*
X165000614Y-101889999D01*
X165429185Y-102461428D02*
X165143471Y-102247142D01*
X165143471Y-102247142D02*
X165429185Y-102032856D01*
D10*
X185584180Y-84629666D02*
X184869895Y-84629666D01*
X184869895Y-84629666D02*
X184727038Y-84582047D01*
X184727038Y-84582047D02*
X184631800Y-84486809D01*
X184631800Y-84486809D02*
X184584180Y-84343952D01*
X184584180Y-84343952D02*
X184584180Y-84248714D01*
X185250847Y-85534428D02*
X184584180Y-85534428D01*
X185631800Y-85296333D02*
X184917514Y-85058238D01*
X184917514Y-85058238D02*
X184917514Y-85677285D01*
X182472800Y-77763857D02*
X182425180Y-77906714D01*
X182425180Y-77906714D02*
X182425180Y-78144809D01*
X182425180Y-78144809D02*
X182472800Y-78240047D01*
X182472800Y-78240047D02*
X182520419Y-78287666D01*
X182520419Y-78287666D02*
X182615657Y-78335285D01*
X182615657Y-78335285D02*
X182710895Y-78335285D01*
X182710895Y-78335285D02*
X182806133Y-78287666D01*
X182806133Y-78287666D02*
X182853752Y-78240047D01*
X182853752Y-78240047D02*
X182901371Y-78144809D01*
X182901371Y-78144809D02*
X182948990Y-77954333D01*
X182948990Y-77954333D02*
X182996609Y-77859095D01*
X182996609Y-77859095D02*
X183044228Y-77811476D01*
X183044228Y-77811476D02*
X183139466Y-77763857D01*
X183139466Y-77763857D02*
X183234704Y-77763857D01*
X183234704Y-77763857D02*
X183329942Y-77811476D01*
X183329942Y-77811476D02*
X183377561Y-77859095D01*
X183377561Y-77859095D02*
X183425180Y-77954333D01*
X183425180Y-77954333D02*
X183425180Y-78192428D01*
X183425180Y-78192428D02*
X183377561Y-78335285D01*
X183425180Y-78668619D02*
X182425180Y-78906714D01*
X182425180Y-78906714D02*
X183139466Y-79097190D01*
X183139466Y-79097190D02*
X182425180Y-79287666D01*
X182425180Y-79287666D02*
X183425180Y-79525762D01*
X182425180Y-79906714D02*
X183425180Y-79906714D01*
X183425180Y-79906714D02*
X183425180Y-80144809D01*
X183425180Y-80144809D02*
X183377561Y-80287666D01*
X183377561Y-80287666D02*
X183282323Y-80382904D01*
X183282323Y-80382904D02*
X183187085Y-80430523D01*
X183187085Y-80430523D02*
X182996609Y-80478142D01*
X182996609Y-80478142D02*
X182853752Y-80478142D01*
X182853752Y-80478142D02*
X182663276Y-80430523D01*
X182663276Y-80430523D02*
X182568038Y-80382904D01*
X182568038Y-80382904D02*
X182472800Y-80287666D01*
X182472800Y-80287666D02*
X182425180Y-80144809D01*
X182425180Y-80144809D02*
X182425180Y-79906714D01*
X171664333Y-86687819D02*
X171331000Y-86211628D01*
X171092905Y-86687819D02*
X171092905Y-85687819D01*
X171092905Y-85687819D02*
X171473857Y-85687819D01*
X171473857Y-85687819D02*
X171569095Y-85735438D01*
X171569095Y-85735438D02*
X171616714Y-85783057D01*
X171616714Y-85783057D02*
X171664333Y-85878295D01*
X171664333Y-85878295D02*
X171664333Y-86021152D01*
X171664333Y-86021152D02*
X171616714Y-86116390D01*
X171616714Y-86116390D02*
X171569095Y-86164009D01*
X171569095Y-86164009D02*
X171473857Y-86211628D01*
X171473857Y-86211628D02*
X171092905Y-86211628D01*
X172045286Y-85783057D02*
X172092905Y-85735438D01*
X172092905Y-85735438D02*
X172188143Y-85687819D01*
X172188143Y-85687819D02*
X172426238Y-85687819D01*
X172426238Y-85687819D02*
X172521476Y-85735438D01*
X172521476Y-85735438D02*
X172569095Y-85783057D01*
X172569095Y-85783057D02*
X172616714Y-85878295D01*
X172616714Y-85878295D02*
X172616714Y-85973533D01*
X172616714Y-85973533D02*
X172569095Y-86116390D01*
X172569095Y-86116390D02*
X171997667Y-86687819D01*
X171997667Y-86687819D02*
X172616714Y-86687819D01*
X163996905Y-85656057D02*
X164044524Y-85608438D01*
X164044524Y-85608438D02*
X164139762Y-85560819D01*
X164139762Y-85560819D02*
X164377857Y-85560819D01*
X164377857Y-85560819D02*
X164473095Y-85608438D01*
X164473095Y-85608438D02*
X164520714Y-85656057D01*
X164520714Y-85656057D02*
X164568333Y-85751295D01*
X164568333Y-85751295D02*
X164568333Y-85846533D01*
X164568333Y-85846533D02*
X164520714Y-85989390D01*
X164520714Y-85989390D02*
X163949286Y-86560819D01*
X163949286Y-86560819D02*
X164568333Y-86560819D01*
X164901667Y-85560819D02*
X165568333Y-85560819D01*
X165568333Y-85560819D02*
X165139762Y-86560819D01*
X166139762Y-85560819D02*
X166235000Y-85560819D01*
X166235000Y-85560819D02*
X166330238Y-85608438D01*
X166330238Y-85608438D02*
X166377857Y-85656057D01*
X166377857Y-85656057D02*
X166425476Y-85751295D01*
X166425476Y-85751295D02*
X166473095Y-85941771D01*
X166473095Y-85941771D02*
X166473095Y-86179866D01*
X166473095Y-86179866D02*
X166425476Y-86370342D01*
X166425476Y-86370342D02*
X166377857Y-86465580D01*
X166377857Y-86465580D02*
X166330238Y-86513200D01*
X166330238Y-86513200D02*
X166235000Y-86560819D01*
X166235000Y-86560819D02*
X166139762Y-86560819D01*
X166139762Y-86560819D02*
X166044524Y-86513200D01*
X166044524Y-86513200D02*
X165996905Y-86465580D01*
X165996905Y-86465580D02*
X165949286Y-86370342D01*
X165949286Y-86370342D02*
X165901667Y-86179866D01*
X165901667Y-86179866D02*
X165901667Y-85941771D01*
X165901667Y-85941771D02*
X165949286Y-85751295D01*
X165949286Y-85751295D02*
X165996905Y-85656057D01*
X165996905Y-85656057D02*
X166044524Y-85608438D01*
X166044524Y-85608438D02*
X166139762Y-85560819D01*
X167473095Y-86560819D02*
X167139762Y-86084628D01*
X166901667Y-86560819D02*
X166901667Y-85560819D01*
X166901667Y-85560819D02*
X167282619Y-85560819D01*
X167282619Y-85560819D02*
X167377857Y-85608438D01*
X167377857Y-85608438D02*
X167425476Y-85656057D01*
X167425476Y-85656057D02*
X167473095Y-85751295D01*
X167473095Y-85751295D02*
X167473095Y-85894152D01*
X167473095Y-85894152D02*
X167425476Y-85989390D01*
X167425476Y-85989390D02*
X167377857Y-86037009D01*
X167377857Y-86037009D02*
X167282619Y-86084628D01*
X167282619Y-86084628D02*
X166901667Y-86084628D01*
X186269333Y-119358580D02*
X186221714Y-119406200D01*
X186221714Y-119406200D02*
X186078857Y-119453819D01*
X186078857Y-119453819D02*
X185983619Y-119453819D01*
X185983619Y-119453819D02*
X185840762Y-119406200D01*
X185840762Y-119406200D02*
X185745524Y-119310961D01*
X185745524Y-119310961D02*
X185697905Y-119215723D01*
X185697905Y-119215723D02*
X185650286Y-119025247D01*
X185650286Y-119025247D02*
X185650286Y-118882390D01*
X185650286Y-118882390D02*
X185697905Y-118691914D01*
X185697905Y-118691914D02*
X185745524Y-118596676D01*
X185745524Y-118596676D02*
X185840762Y-118501438D01*
X185840762Y-118501438D02*
X185983619Y-118453819D01*
X185983619Y-118453819D02*
X186078857Y-118453819D01*
X186078857Y-118453819D02*
X186221714Y-118501438D01*
X186221714Y-118501438D02*
X186269333Y-118549057D01*
X186650286Y-118549057D02*
X186697905Y-118501438D01*
X186697905Y-118501438D02*
X186793143Y-118453819D01*
X186793143Y-118453819D02*
X187031238Y-118453819D01*
X187031238Y-118453819D02*
X187126476Y-118501438D01*
X187126476Y-118501438D02*
X187174095Y-118549057D01*
X187174095Y-118549057D02*
X187221714Y-118644295D01*
X187221714Y-118644295D02*
X187221714Y-118739533D01*
X187221714Y-118739533D02*
X187174095Y-118882390D01*
X187174095Y-118882390D02*
X186602667Y-119453819D01*
X186602667Y-119453819D02*
X187221714Y-119453819D01*
X171664333Y-90624819D02*
X171331000Y-90148628D01*
X171092905Y-90624819D02*
X171092905Y-89624819D01*
X171092905Y-89624819D02*
X171473857Y-89624819D01*
X171473857Y-89624819D02*
X171569095Y-89672438D01*
X171569095Y-89672438D02*
X171616714Y-89720057D01*
X171616714Y-89720057D02*
X171664333Y-89815295D01*
X171664333Y-89815295D02*
X171664333Y-89958152D01*
X171664333Y-89958152D02*
X171616714Y-90053390D01*
X171616714Y-90053390D02*
X171569095Y-90101009D01*
X171569095Y-90101009D02*
X171473857Y-90148628D01*
X171473857Y-90148628D02*
X171092905Y-90148628D01*
X172616714Y-90624819D02*
X172045286Y-90624819D01*
X172331000Y-90624819D02*
X172331000Y-89624819D01*
X172331000Y-89624819D02*
X172235762Y-89767676D01*
X172235762Y-89767676D02*
X172140524Y-89862914D01*
X172140524Y-89862914D02*
X172045286Y-89910533D01*
X163996905Y-89720057D02*
X164044524Y-89672438D01*
X164044524Y-89672438D02*
X164139762Y-89624819D01*
X164139762Y-89624819D02*
X164377857Y-89624819D01*
X164377857Y-89624819D02*
X164473095Y-89672438D01*
X164473095Y-89672438D02*
X164520714Y-89720057D01*
X164520714Y-89720057D02*
X164568333Y-89815295D01*
X164568333Y-89815295D02*
X164568333Y-89910533D01*
X164568333Y-89910533D02*
X164520714Y-90053390D01*
X164520714Y-90053390D02*
X163949286Y-90624819D01*
X163949286Y-90624819D02*
X164568333Y-90624819D01*
X164901667Y-89624819D02*
X165568333Y-89624819D01*
X165568333Y-89624819D02*
X165139762Y-90624819D01*
X166139762Y-89624819D02*
X166235000Y-89624819D01*
X166235000Y-89624819D02*
X166330238Y-89672438D01*
X166330238Y-89672438D02*
X166377857Y-89720057D01*
X166377857Y-89720057D02*
X166425476Y-89815295D01*
X166425476Y-89815295D02*
X166473095Y-90005771D01*
X166473095Y-90005771D02*
X166473095Y-90243866D01*
X166473095Y-90243866D02*
X166425476Y-90434342D01*
X166425476Y-90434342D02*
X166377857Y-90529580D01*
X166377857Y-90529580D02*
X166330238Y-90577200D01*
X166330238Y-90577200D02*
X166235000Y-90624819D01*
X166235000Y-90624819D02*
X166139762Y-90624819D01*
X166139762Y-90624819D02*
X166044524Y-90577200D01*
X166044524Y-90577200D02*
X165996905Y-90529580D01*
X165996905Y-90529580D02*
X165949286Y-90434342D01*
X165949286Y-90434342D02*
X165901667Y-90243866D01*
X165901667Y-90243866D02*
X165901667Y-90005771D01*
X165901667Y-90005771D02*
X165949286Y-89815295D01*
X165949286Y-89815295D02*
X165996905Y-89720057D01*
X165996905Y-89720057D02*
X166044524Y-89672438D01*
X166044524Y-89672438D02*
X166139762Y-89624819D01*
X167473095Y-90624819D02*
X167139762Y-90148628D01*
X166901667Y-90624819D02*
X166901667Y-89624819D01*
X166901667Y-89624819D02*
X167282619Y-89624819D01*
X167282619Y-89624819D02*
X167377857Y-89672438D01*
X167377857Y-89672438D02*
X167425476Y-89720057D01*
X167425476Y-89720057D02*
X167473095Y-89815295D01*
X167473095Y-89815295D02*
X167473095Y-89958152D01*
X167473095Y-89958152D02*
X167425476Y-90053390D01*
X167425476Y-90053390D02*
X167377857Y-90101009D01*
X167377857Y-90101009D02*
X167282619Y-90148628D01*
X167282619Y-90148628D02*
X166901667Y-90148628D01*
X145284505Y-72805619D02*
X145284505Y-71805619D01*
X145284505Y-71805619D02*
X145665457Y-71805619D01*
X145665457Y-71805619D02*
X145760695Y-71853238D01*
X145760695Y-71853238D02*
X145808314Y-71900857D01*
X145808314Y-71900857D02*
X145855933Y-71996095D01*
X145855933Y-71996095D02*
X145855933Y-72138952D01*
X145855933Y-72138952D02*
X145808314Y-72234190D01*
X145808314Y-72234190D02*
X145760695Y-72281809D01*
X145760695Y-72281809D02*
X145665457Y-72329428D01*
X145665457Y-72329428D02*
X145284505Y-72329428D01*
X146808314Y-72805619D02*
X146236886Y-72805619D01*
X146522600Y-72805619D02*
X146522600Y-71805619D01*
X146522600Y-71805619D02*
X146427362Y-71948476D01*
X146427362Y-71948476D02*
X146332124Y-72043714D01*
X146332124Y-72043714D02*
X146236886Y-72091333D01*
X171577095Y-124867200D02*
X171719952Y-124914819D01*
X171719952Y-124914819D02*
X171958047Y-124914819D01*
X171958047Y-124914819D02*
X172053285Y-124867200D01*
X172053285Y-124867200D02*
X172100904Y-124819580D01*
X172100904Y-124819580D02*
X172148523Y-124724342D01*
X172148523Y-124724342D02*
X172148523Y-124629104D01*
X172148523Y-124629104D02*
X172100904Y-124533866D01*
X172100904Y-124533866D02*
X172053285Y-124486247D01*
X172053285Y-124486247D02*
X171958047Y-124438628D01*
X171958047Y-124438628D02*
X171767571Y-124391009D01*
X171767571Y-124391009D02*
X171672333Y-124343390D01*
X171672333Y-124343390D02*
X171624714Y-124295771D01*
X171624714Y-124295771D02*
X171577095Y-124200533D01*
X171577095Y-124200533D02*
X171577095Y-124105295D01*
X171577095Y-124105295D02*
X171624714Y-124010057D01*
X171624714Y-124010057D02*
X171672333Y-123962438D01*
X171672333Y-123962438D02*
X171767571Y-123914819D01*
X171767571Y-123914819D02*
X172005666Y-123914819D01*
X172005666Y-123914819D02*
X172148523Y-123962438D01*
X173100904Y-124914819D02*
X172529476Y-124914819D01*
X172815190Y-124914819D02*
X172815190Y-123914819D01*
X172815190Y-123914819D02*
X172719952Y-124057676D01*
X172719952Y-124057676D02*
X172624714Y-124152914D01*
X172624714Y-124152914D02*
X172529476Y-124200533D01*
X170711905Y-115643819D02*
X170711905Y-114643819D01*
X170711905Y-114643819D02*
X170950000Y-114643819D01*
X170950000Y-114643819D02*
X171092857Y-114691438D01*
X171092857Y-114691438D02*
X171188095Y-114786676D01*
X171188095Y-114786676D02*
X171235714Y-114881914D01*
X171235714Y-114881914D02*
X171283333Y-115072390D01*
X171283333Y-115072390D02*
X171283333Y-115215247D01*
X171283333Y-115215247D02*
X171235714Y-115405723D01*
X171235714Y-115405723D02*
X171188095Y-115500961D01*
X171188095Y-115500961D02*
X171092857Y-115596200D01*
X171092857Y-115596200D02*
X170950000Y-115643819D01*
X170950000Y-115643819D02*
X170711905Y-115643819D01*
X171616667Y-114643819D02*
X172235714Y-114643819D01*
X172235714Y-114643819D02*
X171902381Y-115024771D01*
X171902381Y-115024771D02*
X172045238Y-115024771D01*
X172045238Y-115024771D02*
X172140476Y-115072390D01*
X172140476Y-115072390D02*
X172188095Y-115120009D01*
X172188095Y-115120009D02*
X172235714Y-115215247D01*
X172235714Y-115215247D02*
X172235714Y-115453342D01*
X172235714Y-115453342D02*
X172188095Y-115548580D01*
X172188095Y-115548580D02*
X172140476Y-115596200D01*
X172140476Y-115596200D02*
X172045238Y-115643819D01*
X172045238Y-115643819D02*
X171759524Y-115643819D01*
X171759524Y-115643819D02*
X171664286Y-115596200D01*
X171664286Y-115596200D02*
X171616667Y-115548580D01*
X160393095Y-115829819D02*
X160393095Y-114829819D01*
X160964523Y-115829819D02*
X160535952Y-115258390D01*
X160964523Y-114829819D02*
X160393095Y-115401247D01*
D12*
%TO.C,D1*%
X117073000Y-95905000D02*
X120163000Y-95905000D01*
X118618462Y-90355001D02*
G75*
G03*
X117073170Y-95904999I-462J-2989999D01*
G01*
X120162830Y-95905000D02*
G75*
G03*
X118617538Y-90355000I-1544830J2560000D01*
G01*
X121118000Y-93345000D02*
G75*
G03*
X116118000Y-93345000I-2500000J0D01*
G01*
X116118000Y-93345000D02*
G75*
G03*
X121118000Y-93345000I2500000J0D01*
G01*
%TO.C,SW1*%
X119150000Y-78975000D02*
X117650000Y-78975000D01*
X115150000Y-80225000D02*
X115150000Y-84725000D01*
X121650000Y-84725000D02*
X121650000Y-80225000D01*
X117650000Y-85975000D02*
X119150000Y-85975000D01*
%TO.C,U1*%
X176235000Y-125205000D02*
X176235000Y-124905000D01*
X176235000Y-125205000D02*
X155235000Y-125205000D01*
X176235000Y-122805000D02*
X176235000Y-122405000D01*
X176235000Y-122538000D02*
X173228000Y-122538000D01*
X176235000Y-120205000D02*
X176235000Y-119805000D01*
X176235000Y-117705000D02*
X176235000Y-117305000D01*
X176235000Y-115105000D02*
X176235000Y-114705000D01*
X176235000Y-112605000D02*
X176235000Y-112205000D01*
X176235000Y-110105000D02*
X176235000Y-109705000D01*
X176235000Y-107505000D02*
X176235000Y-107105000D01*
X176235000Y-102405000D02*
X176235000Y-102005000D01*
X176235000Y-99905000D02*
X176235000Y-99505000D01*
X176235000Y-97405000D02*
X176235000Y-97005000D01*
X176235000Y-94805000D02*
X176235000Y-94405000D01*
X176235000Y-92305000D02*
X176235000Y-91905000D01*
X176235000Y-89705000D02*
X176235000Y-89305000D01*
X176235000Y-87205000D02*
X176235000Y-86805000D01*
X176235000Y-84605000D02*
X176235000Y-84205000D01*
X176235000Y-82105000D02*
X176235000Y-81705000D01*
X176235000Y-79605000D02*
X176235000Y-79205000D01*
X176235000Y-77005000D02*
X176235000Y-76605000D01*
X173228000Y-122538000D02*
X173228000Y-125205000D01*
X169435000Y-74205000D02*
X176235000Y-74205000D01*
X167235000Y-74205000D02*
X166835000Y-74205000D01*
X164635000Y-74205000D02*
X164235000Y-74205000D01*
X155235000Y-125205000D02*
X155235000Y-124905000D01*
X155235000Y-122805000D02*
X155235000Y-122405000D01*
X155235000Y-120205000D02*
X155235000Y-119805000D01*
X155235000Y-117705000D02*
X155235000Y-117305000D01*
X155235000Y-115105000D02*
X155235000Y-114705000D01*
X155235000Y-112605000D02*
X155235000Y-112205000D01*
X155235000Y-110105000D02*
X155235000Y-109705000D01*
X155235000Y-107505000D02*
X155235000Y-107105000D01*
X155235000Y-105005000D02*
X155235000Y-104605000D01*
X155235000Y-102405000D02*
X155235000Y-102005000D01*
X155235000Y-99905000D02*
X155235000Y-99505000D01*
X155235000Y-97405000D02*
X155235000Y-97005000D01*
X155235000Y-94805000D02*
X155235000Y-94405000D01*
X155235000Y-92305000D02*
X155235000Y-91905000D01*
X155235000Y-89705000D02*
X155235000Y-89305000D01*
X155235000Y-87205000D02*
X155235000Y-86805000D01*
X155235000Y-84605000D02*
X155235000Y-84205000D01*
X155235000Y-82105000D02*
X155235000Y-81705000D01*
X155235000Y-79605000D02*
X155235000Y-79205000D01*
X155235000Y-77005000D02*
X155235000Y-76605000D01*
X155235000Y-74205000D02*
X162035000Y-74205000D01*
D13*
X176235000Y-125205000D02*
X155235000Y-125205000D01*
X155235000Y-125205000D02*
X155235000Y-74205000D01*
X155235000Y-74205000D02*
X176235000Y-74205000D01*
X176235000Y-74205000D02*
X176235000Y-125205000D01*
D12*
%TO.C,J3*%
X184210000Y-113090000D02*
X182880000Y-113090000D01*
X184210000Y-111760000D02*
X184210000Y-113090000D01*
X184210000Y-110490000D02*
X184210000Y-107890000D01*
X184210000Y-110490000D02*
X181550000Y-110490000D01*
X184210000Y-107890000D02*
X181550000Y-107890000D01*
X181550000Y-110490000D02*
X181550000Y-107890000D01*
%TO.C,D2*%
X117073000Y-106065000D02*
X120163000Y-106065000D01*
X118618462Y-100515001D02*
G75*
G03*
X117073170Y-106064999I-462J-2989999D01*
G01*
X120162830Y-106065000D02*
G75*
G03*
X118617538Y-100515000I-1544830J2560000D01*
G01*
X121118000Y-103505000D02*
G75*
G03*
X116118000Y-103505000I-2500000J0D01*
G01*
X116118000Y-103505000D02*
G75*
G03*
X121118000Y-103505000I2500000J0D01*
G01*
%TO.C,R3*%
X162465000Y-80700000D02*
X169005000Y-80700000D01*
X162465000Y-81030000D02*
X162465000Y-80700000D01*
X162465000Y-83110000D02*
X162465000Y-83440000D01*
X162465000Y-83440000D02*
X169005000Y-83440000D01*
X169005000Y-80700000D02*
X169005000Y-81030000D01*
X169005000Y-83440000D02*
X169005000Y-83110000D01*
%TO.C,JP1*%
X169675000Y-119969000D02*
X169675000Y-120569000D01*
X168975000Y-121269000D02*
X167575000Y-121269000D01*
X167575000Y-119269000D02*
X168975000Y-119269000D01*
X166875000Y-120569000D02*
X166875000Y-119969000D01*
X168975000Y-121269000D02*
G75*
G03*
X169675000Y-120569000I1J699999D01*
G01*
X169675000Y-119969000D02*
G75*
G03*
X168975000Y-119269000I-699999J1D01*
G01*
X166875000Y-120569000D02*
G75*
G03*
X167575000Y-121269000I700000J0D01*
G01*
X167575000Y-119269000D02*
G75*
G03*
X166875000Y-119969000I0J-700000D01*
G01*
D14*
%TO.C,U2*%
X125115000Y-76865000D02*
X125115000Y-125065000D01*
X125115000Y-125065000D02*
X134995000Y-125065000D01*
X130065000Y-70665000D02*
X148065000Y-70665000D01*
X130065000Y-76865000D02*
X125115000Y-76865000D01*
X130065000Y-76865000D02*
X130065000Y-70665000D01*
X134995000Y-125065000D02*
X134995000Y-125965000D01*
X134995000Y-125965000D02*
X143125000Y-125965000D01*
X143125000Y-125065000D02*
X153015000Y-125065000D01*
X143125000Y-125965000D02*
X143125000Y-125065000D01*
X148065000Y-70665000D02*
X148065000Y-76865000D01*
X153015000Y-76865000D02*
X148065000Y-76865000D01*
X153015000Y-125065000D02*
X153015000Y-76865000D01*
D15*
X124595000Y-77995000D02*
G75*
G03*
X124395000Y-77995000I-100000J0D01*
G01*
X124395000Y-77995000D02*
G75*
G03*
X124595000Y-77995000I100000J0D01*
G01*
D12*
%TO.C,R4*%
X134525000Y-109120000D02*
X141065000Y-109120000D01*
X134525000Y-109450000D02*
X134525000Y-109120000D01*
X134525000Y-111530000D02*
X134525000Y-111860000D01*
X134525000Y-111860000D02*
X141065000Y-111860000D01*
X141065000Y-109120000D02*
X141065000Y-109450000D01*
X141065000Y-111860000D02*
X141065000Y-111530000D01*
%TO.C,J2*%
X179645000Y-91893000D02*
X180975000Y-91893000D01*
X179645000Y-93223000D02*
X179645000Y-91893000D01*
X179645000Y-94493000D02*
X179645000Y-104713000D01*
X179645000Y-94493000D02*
X182245000Y-94493000D01*
X179645000Y-104713000D02*
X184845000Y-104713000D01*
X182245000Y-91893000D02*
X184845000Y-91893000D01*
X182245000Y-94493000D02*
X182245000Y-91893000D01*
X184845000Y-91893000D02*
X184845000Y-104713000D01*
%TO.C,C1*%
X138797000Y-87027000D02*
X135777000Y-87027000D01*
X135777000Y-87027000D02*
X135777000Y-91412000D01*
X138797000Y-91412000D02*
X138797000Y-87027000D01*
%TO.C,R5*%
X134525000Y-104040000D02*
X141065000Y-104040000D01*
X134525000Y-104370000D02*
X134525000Y-104040000D01*
X134525000Y-106450000D02*
X134525000Y-106780000D01*
X134525000Y-106780000D02*
X141065000Y-106780000D01*
X141065000Y-104040000D02*
X141065000Y-104370000D01*
X141065000Y-106780000D02*
X141065000Y-106450000D01*
%TO.C,J1*%
X184975000Y-86368000D02*
X184975000Y-87368000D01*
X184975000Y-87368000D02*
X185975000Y-86868000D01*
X185975000Y-86868000D02*
X184975000Y-86368000D01*
X191595000Y-81658000D02*
X200715000Y-81658000D01*
X191595000Y-96248000D02*
X200715000Y-96248000D01*
X191595000Y-100348000D02*
X200715000Y-100348000D01*
X191595000Y-114938000D02*
X191595000Y-81658000D01*
X200715000Y-81658000D02*
X200715000Y-114938000D01*
X200715000Y-114938000D02*
X191595000Y-114938000D01*
%TO.C,SW2*%
X119150000Y-110598000D02*
X117650000Y-110598000D01*
X115150000Y-111848000D02*
X115150000Y-116348000D01*
X121650000Y-116348000D02*
X121650000Y-111848000D01*
X117650000Y-117598000D02*
X119150000Y-117598000D01*
%TO.C,RN1*%
X146555000Y-100500000D02*
X149355000Y-100500000D01*
X149355000Y-100500000D02*
X149355000Y-77300000D01*
X146555000Y-97790000D02*
X149355000Y-97790000D01*
X146555000Y-77300000D02*
X146555000Y-100500000D01*
X149355000Y-77300000D02*
X146555000Y-77300000D01*
%TO.C,G\u002A\u002A\u002A*%
G36*
X167229277Y-100469610D02*
G01*
X167229277Y-100672269D01*
X165630518Y-100672269D01*
X164031759Y-100672269D01*
X164031759Y-100469610D01*
X164031759Y-100266950D01*
X165630518Y-100266950D01*
X167229277Y-100266950D01*
X167229277Y-100469610D01*
G37*
G36*
X167229277Y-113982838D02*
G01*
X167229277Y-115088796D01*
X167037876Y-115074948D01*
X166846475Y-115061099D01*
X166833593Y-114622652D01*
X166820712Y-114184205D01*
X165437494Y-114172297D01*
X164054277Y-114160390D01*
X164040428Y-113968989D01*
X164026580Y-113777589D01*
X165425269Y-113777589D01*
X166823958Y-113777589D01*
X166823958Y-113327234D01*
X166823958Y-112876879D01*
X167026617Y-112876879D01*
X167229277Y-112876879D01*
X167229277Y-113982838D01*
G37*
G36*
X167229277Y-93984504D02*
G01*
X167229277Y-94817660D01*
X167049135Y-94817660D01*
X166868993Y-94817660D01*
X166868993Y-94187163D01*
X166868993Y-93556667D01*
X166418638Y-93556667D01*
X165968284Y-93556667D01*
X165968284Y-94187163D01*
X165968284Y-94817660D01*
X165788142Y-94817660D01*
X165608000Y-94817660D01*
X165608000Y-94188227D01*
X165608000Y-93558794D01*
X164831138Y-93546471D01*
X164054277Y-93534149D01*
X164040428Y-93342748D01*
X164026580Y-93151348D01*
X165627928Y-93151348D01*
X167229277Y-93151348D01*
X167229277Y-93984504D01*
G37*
G36*
X167229277Y-111750993D02*
G01*
X167229277Y-112606667D01*
X167050371Y-112606667D01*
X166871466Y-112606667D01*
X166858971Y-111964911D01*
X166846475Y-111323156D01*
X166431144Y-111310224D01*
X166015813Y-111297291D01*
X166003307Y-111940720D01*
X165990801Y-112584149D01*
X165800653Y-112597936D01*
X165610504Y-112611723D01*
X165597993Y-111967440D01*
X165585482Y-111323156D01*
X165011280Y-111310552D01*
X164437078Y-111297947D01*
X164437078Y-111952307D01*
X164437078Y-112606667D01*
X164234419Y-112606667D01*
X164031759Y-112606667D01*
X164031759Y-111781017D01*
X164033324Y-111516971D01*
X164037672Y-111284573D01*
X164044285Y-111098595D01*
X164052645Y-110973808D01*
X164061783Y-110925343D01*
X164112311Y-110918328D01*
X164242431Y-110911896D01*
X164441665Y-110906241D01*
X164699536Y-110901561D01*
X165005564Y-110898054D01*
X165349272Y-110895914D01*
X165660541Y-110895319D01*
X167229277Y-110895319D01*
X167229277Y-111750993D01*
G37*
G36*
X166554249Y-107481861D02*
G01*
X166870341Y-107485493D01*
X167104604Y-107491965D01*
X167254482Y-107501225D01*
X167317417Y-107513223D01*
X167319348Y-107516048D01*
X167287256Y-107555640D01*
X167195904Y-107648779D01*
X167052675Y-107788421D01*
X166864954Y-107967521D01*
X166640126Y-108179036D01*
X166385575Y-108415921D01*
X166108684Y-108671132D01*
X166103081Y-108676273D01*
X164886814Y-109791950D01*
X166058045Y-109803957D01*
X167229277Y-109815964D01*
X167229277Y-109995358D01*
X167229277Y-110174752D01*
X165585482Y-110174752D01*
X165210771Y-110174286D01*
X164866055Y-110172958D01*
X164561315Y-110170878D01*
X164306530Y-110168151D01*
X164111680Y-110164884D01*
X163986745Y-110161186D01*
X163941705Y-110157164D01*
X163941688Y-110157082D01*
X163973547Y-110123521D01*
X164064238Y-110035744D01*
X164206430Y-109900654D01*
X164392792Y-109725154D01*
X164615996Y-109516146D01*
X164868709Y-109280533D01*
X165143603Y-109025218D01*
X165149299Y-109019937D01*
X166356911Y-107900461D01*
X165191782Y-107888449D01*
X164026654Y-107876438D01*
X164040465Y-107685790D01*
X164054277Y-107495142D01*
X165686812Y-107483321D01*
X166158887Y-107481120D01*
X166554249Y-107481861D01*
G37*
G36*
X164341412Y-98226366D02*
G01*
X164427259Y-98298706D01*
X164499861Y-98381140D01*
X164527149Y-98438813D01*
X164501783Y-98495368D01*
X164440407Y-98584093D01*
X164437078Y-98588349D01*
X164369562Y-98723029D01*
X164350050Y-98872498D01*
X164379692Y-99002485D01*
X164421388Y-99056737D01*
X164463144Y-99075589D01*
X164544494Y-99091339D01*
X164673809Y-99104481D01*
X164859463Y-99115508D01*
X165109826Y-99124916D01*
X165433273Y-99133197D01*
X165838174Y-99140846D01*
X165851264Y-99141064D01*
X167206759Y-99163582D01*
X167220607Y-99354982D01*
X167234456Y-99546383D01*
X165824508Y-99546215D01*
X165428632Y-99545859D01*
X165112547Y-99544510D01*
X164865978Y-99541585D01*
X164678644Y-99536503D01*
X164540269Y-99528683D01*
X164440575Y-99517543D01*
X164369283Y-99502502D01*
X164316116Y-99482977D01*
X164270797Y-99458388D01*
X164270642Y-99458294D01*
X164153661Y-99369908D01*
X164063932Y-99273742D01*
X164059416Y-99267061D01*
X164006483Y-99135701D01*
X163972423Y-98955562D01*
X163961713Y-98766780D01*
X163978830Y-98609489D01*
X163984027Y-98591242D01*
X164040738Y-98461730D01*
X164120015Y-98335413D01*
X164202918Y-98238096D01*
X164270503Y-98195580D01*
X164274670Y-98195319D01*
X164341412Y-98226366D01*
G37*
G36*
X167220471Y-95569218D02*
G01*
X167234183Y-95757832D01*
X166072067Y-95771877D01*
X165713474Y-95776726D01*
X165433057Y-95782179D01*
X165218919Y-95789163D01*
X165059165Y-95798601D01*
X164941900Y-95811418D01*
X164855228Y-95828539D01*
X164787254Y-95850889D01*
X164732715Y-95875993D01*
X164568775Y-95976500D01*
X164460947Y-96092972D01*
X164398971Y-96245766D01*
X164372587Y-96455237D01*
X164369525Y-96596560D01*
X164380847Y-96841609D01*
X164421766Y-97020590D01*
X164502707Y-97155440D01*
X164634099Y-97268099D01*
X164711998Y-97317128D01*
X164764676Y-97344621D01*
X164825936Y-97366177D01*
X164907307Y-97382700D01*
X165020314Y-97395092D01*
X165176483Y-97404258D01*
X165387342Y-97411100D01*
X165664415Y-97416522D01*
X166019231Y-97421428D01*
X166047096Y-97421773D01*
X167229277Y-97436347D01*
X167229277Y-97635691D01*
X167229277Y-97835035D01*
X166089046Y-97835035D01*
X165677808Y-97833327D01*
X165345182Y-97826987D01*
X165079751Y-97814188D01*
X164870101Y-97793106D01*
X164704814Y-97761917D01*
X164572477Y-97718795D01*
X164461672Y-97661914D01*
X164360985Y-97589451D01*
X164316343Y-97551631D01*
X164194841Y-97419773D01*
X164092202Y-97266803D01*
X164070241Y-97222729D01*
X164013596Y-97037017D01*
X163976262Y-96799461D01*
X163961355Y-96546822D01*
X163971988Y-96315858D01*
X163986006Y-96228458D01*
X164070077Y-95963815D01*
X164205522Y-95752818D01*
X164318326Y-95639750D01*
X164406743Y-95566567D01*
X164494306Y-95508574D01*
X164592489Y-95464018D01*
X164712767Y-95431144D01*
X164866614Y-95408198D01*
X165065503Y-95393425D01*
X165320908Y-95385072D01*
X165644304Y-95381384D01*
X166013319Y-95380603D01*
X167206759Y-95380603D01*
X167220471Y-95569218D01*
G37*
G36*
X166230172Y-100933988D02*
G01*
X166277749Y-100939967D01*
X166398156Y-100973559D01*
X166436074Y-101014345D01*
X166389999Y-101050918D01*
X166294791Y-101069183D01*
X166148426Y-101083295D01*
X166148426Y-101440726D01*
X166150252Y-101619211D01*
X166158870Y-101725891D01*
X166178992Y-101779008D01*
X166215329Y-101796803D01*
X166240733Y-101798156D01*
X166411482Y-101838974D01*
X166581815Y-101948909D01*
X166731634Y-102109186D01*
X166840844Y-102301027D01*
X166869544Y-102385665D01*
X166917500Y-102563759D01*
X167276048Y-102563759D01*
X167634596Y-102563759D01*
X167634596Y-102248511D01*
X167640546Y-102086796D01*
X167656495Y-101975053D01*
X167679588Y-101933263D01*
X167679631Y-101933262D01*
X167702733Y-101974917D01*
X167718697Y-102086558D01*
X167724667Y-102248205D01*
X167724667Y-102248511D01*
X167724667Y-102563759D01*
X167927326Y-102563759D01*
X168060902Y-102572600D01*
X168121746Y-102602660D01*
X168129986Y-102631312D01*
X168103464Y-102675837D01*
X168013282Y-102696118D01*
X167927326Y-102698865D01*
X167724667Y-102698865D01*
X167724667Y-103029503D01*
X167724667Y-103360140D01*
X167916067Y-103417255D01*
X168088662Y-103500355D01*
X168254748Y-103633024D01*
X168388610Y-103790057D01*
X168464533Y-103946251D01*
X168467219Y-103957433D01*
X168497426Y-104094965D01*
X168831614Y-104094965D01*
X169008695Y-104098566D01*
X169112247Y-104111573D01*
X169158603Y-104137287D01*
X169165801Y-104162518D01*
X169148108Y-104198150D01*
X169084169Y-104219066D01*
X168957696Y-104228523D01*
X168828036Y-104230071D01*
X168656067Y-104231722D01*
X168555241Y-104240549D01*
X168506638Y-104262365D01*
X168491342Y-104302982D01*
X168490270Y-104333842D01*
X168466698Y-104430912D01*
X168406592Y-104563178D01*
X168362627Y-104638885D01*
X168248964Y-104782014D01*
X168102131Y-104890769D01*
X167898224Y-104981115D01*
X167801493Y-105013722D01*
X167759553Y-105039004D01*
X167736957Y-105094638D01*
X167729853Y-105200750D01*
X167733939Y-105366565D01*
X167747184Y-105693723D01*
X167938585Y-105707572D01*
X168075353Y-105728648D01*
X168124097Y-105759520D01*
X168084816Y-105790892D01*
X167957511Y-105813467D01*
X167938585Y-105814981D01*
X167747184Y-105828830D01*
X167733572Y-106065266D01*
X167719032Y-106197400D01*
X167696286Y-106283215D01*
X167679631Y-106301702D01*
X167654754Y-106261060D01*
X167634106Y-106156671D01*
X167625690Y-106065266D01*
X167612078Y-105828830D01*
X167265680Y-105815724D01*
X166919282Y-105802618D01*
X166875607Y-105960796D01*
X166816467Y-106111937D01*
X166735026Y-106255062D01*
X166734081Y-106256394D01*
X166629566Y-106364361D01*
X166486458Y-106466450D01*
X166337924Y-106542391D01*
X166217773Y-106571915D01*
X166163343Y-106609519D01*
X166148426Y-106707021D01*
X166128285Y-106814283D01*
X166080872Y-106842128D01*
X166027032Y-106802196D01*
X166013319Y-106714150D01*
X166000209Y-106626206D01*
X165944486Y-106572905D01*
X165839275Y-106534027D01*
X165602507Y-106425655D01*
X165430930Y-106258778D01*
X165360481Y-106138087D01*
X165281678Y-105972022D01*
X165226218Y-106103923D01*
X165132945Y-106249058D01*
X164990238Y-106390648D01*
X164830032Y-106501144D01*
X164710636Y-106548662D01*
X164623999Y-106575573D01*
X164583875Y-106624748D01*
X164572592Y-106725146D01*
X164572184Y-106775495D01*
X164561591Y-106919507D01*
X164536325Y-106988767D01*
X164506161Y-106979472D01*
X164480872Y-106887819D01*
X164473367Y-106813946D01*
X164460506Y-106685046D01*
X164427467Y-106614992D01*
X164349491Y-106573050D01*
X164256151Y-106544319D01*
X164032957Y-106435785D01*
X163844588Y-106260483D01*
X163714358Y-106040982D01*
X163702127Y-106008109D01*
X163640225Y-105828830D01*
X163340602Y-105815513D01*
X163040979Y-105802197D01*
X163040979Y-106569857D01*
X163040979Y-107337518D01*
X163468816Y-107337518D01*
X163670620Y-107342010D01*
X163815570Y-107354515D01*
X163889835Y-107373577D01*
X163896653Y-107382553D01*
X163853994Y-107403827D01*
X163735296Y-107419098D01*
X163554477Y-107426893D01*
X163470965Y-107427589D01*
X163045277Y-107427589D01*
X163031869Y-107709060D01*
X163018359Y-107854915D01*
X162996399Y-107956640D01*
X162973426Y-107990532D01*
X162948135Y-107949519D01*
X162926764Y-107842556D01*
X162914982Y-107709060D01*
X162901574Y-107427589D01*
X162565957Y-107427589D01*
X162396564Y-107421968D01*
X162278591Y-107406766D01*
X162230601Y-107384474D01*
X162230341Y-107382553D01*
X162272251Y-107359861D01*
X162385701Y-107344044D01*
X162552267Y-107337560D01*
X162568106Y-107337518D01*
X162905872Y-107337518D01*
X162905872Y-106571915D01*
X162905872Y-105806312D01*
X162523071Y-105806312D01*
X162336648Y-105801331D01*
X162204632Y-105787633D01*
X162142875Y-105767081D01*
X162140270Y-105761277D01*
X162182606Y-105739344D01*
X162299045Y-105723813D01*
X162382170Y-105720356D01*
X163040979Y-105720356D01*
X163340602Y-105707040D01*
X163640225Y-105693723D01*
X163702127Y-105514445D01*
X163822400Y-105290571D01*
X164004103Y-105107696D01*
X164223891Y-104988415D01*
X164256151Y-104978141D01*
X164459596Y-104918955D01*
X164472749Y-104574513D01*
X164485902Y-104230071D01*
X164572184Y-104230071D01*
X164572184Y-104586776D01*
X164572184Y-104943482D01*
X164710636Y-104973891D01*
X164862981Y-105040201D01*
X165022913Y-105160253D01*
X165158856Y-105306678D01*
X165228388Y-105422673D01*
X165269385Y-105509068D01*
X165295064Y-105519075D01*
X165318563Y-105468546D01*
X165406704Y-105304150D01*
X165535501Y-105153717D01*
X165675034Y-105051131D01*
X165695329Y-105041845D01*
X165789122Y-104995110D01*
X165832776Y-104957822D01*
X165833177Y-104955416D01*
X166328567Y-104955416D01*
X166365622Y-104990721D01*
X166455887Y-105037398D01*
X166466415Y-105041845D01*
X166621837Y-105146609D01*
X166760502Y-105312199D01*
X166859422Y-105509584D01*
X166874277Y-105556940D01*
X166919282Y-105719935D01*
X167265680Y-105706829D01*
X167612078Y-105693723D01*
X167625323Y-105366565D01*
X167629399Y-105194155D01*
X167621738Y-105091473D01*
X167598486Y-105038520D01*
X167557770Y-105015865D01*
X167320875Y-104917632D01*
X167124629Y-104779548D01*
X166992345Y-104618493D01*
X166982213Y-104599112D01*
X166923694Y-104488695D01*
X166879938Y-104421724D01*
X166868993Y-104412661D01*
X166835177Y-104446881D01*
X166776457Y-104535129D01*
X166749111Y-104581474D01*
X166646249Y-104713923D01*
X166516403Y-104823500D01*
X166490158Y-104839063D01*
X166388996Y-104900044D01*
X166332704Y-104946601D01*
X166328567Y-104955416D01*
X165833177Y-104955416D01*
X165797367Y-104917737D01*
X165707944Y-104859375D01*
X165672255Y-104839423D01*
X165553319Y-104747316D01*
X165436820Y-104612635D01*
X165343834Y-104465065D01*
X165295441Y-104334293D01*
X165292752Y-104304926D01*
X165280141Y-104267118D01*
X165230831Y-104244427D01*
X165127603Y-104233277D01*
X164953239Y-104230089D01*
X164932468Y-104230071D01*
X164572184Y-104230071D01*
X164485902Y-104230071D01*
X163763441Y-104230071D01*
X163040979Y-104230071D01*
X163040979Y-104975214D01*
X163040979Y-105720356D01*
X162382170Y-105720356D01*
X162473734Y-105716548D01*
X162523071Y-105716241D01*
X162905872Y-105716241D01*
X162905872Y-104973156D01*
X162905872Y-104230071D01*
X162770766Y-104230071D01*
X162663504Y-104209930D01*
X162635660Y-104162518D01*
X162675801Y-104108804D01*
X162767913Y-104094965D01*
X162860796Y-104083173D01*
X162901567Y-104029264D01*
X162914278Y-103948599D01*
X162936028Y-103848901D01*
X162970045Y-103802636D01*
X162973426Y-103802234D01*
X163007905Y-103841681D01*
X163031402Y-103937738D01*
X163032573Y-103948599D01*
X163046686Y-104094965D01*
X163764400Y-104094965D01*
X164482114Y-104094965D01*
X164482114Y-103398605D01*
X164482114Y-102702245D01*
X164376251Y-102698865D01*
X164572184Y-102698865D01*
X164572184Y-103396915D01*
X164572184Y-104094965D01*
X164932468Y-104094965D01*
X165116435Y-104091942D01*
X165226859Y-104080770D01*
X165280129Y-104058295D01*
X165292752Y-104025617D01*
X165324241Y-103898370D01*
X165404937Y-103746497D01*
X165514182Y-103602224D01*
X165631018Y-103497965D01*
X165747013Y-103411399D01*
X165766026Y-103382868D01*
X166371783Y-103382868D01*
X166548229Y-103510685D01*
X166677983Y-103632472D01*
X166783952Y-103778889D01*
X166804782Y-103820067D01*
X166868993Y-103965605D01*
X166884888Y-104001632D01*
X166961353Y-103830840D01*
X167102520Y-103621665D01*
X167310415Y-103471267D01*
X167460552Y-103412285D01*
X167634596Y-103360140D01*
X167634596Y-103029503D01*
X167634596Y-102698865D01*
X167277614Y-102698865D01*
X166920631Y-102698865D01*
X166810561Y-102939290D01*
X166681918Y-103152203D01*
X166536137Y-103281292D01*
X166371783Y-103382868D01*
X165766026Y-103382868D01*
X165785460Y-103353706D01*
X165744176Y-103328575D01*
X165731848Y-103327863D01*
X165638303Y-103288652D01*
X165528145Y-103191631D01*
X165421029Y-103061436D01*
X165336609Y-102922706D01*
X165294540Y-102800075D01*
X165292920Y-102777677D01*
X165281906Y-102738076D01*
X165237343Y-102714318D01*
X165141640Y-102702558D01*
X164977207Y-102698948D01*
X164932468Y-102698865D01*
X164572184Y-102698865D01*
X164376251Y-102698865D01*
X164076545Y-102689296D01*
X163890203Y-102678673D01*
X163751502Y-102661529D01*
X163678100Y-102640390D01*
X163670977Y-102631312D01*
X163713069Y-102609276D01*
X163827575Y-102590219D01*
X163996839Y-102576664D01*
X164076545Y-102573328D01*
X164482114Y-102560379D01*
X164482114Y-102356751D01*
X164485902Y-102302151D01*
X164490742Y-102232387D01*
X164514410Y-102179388D01*
X164527149Y-102180957D01*
X164555936Y-102240006D01*
X164571362Y-102352011D01*
X164572184Y-102386275D01*
X164572184Y-102563759D01*
X164908215Y-102563759D01*
X165244245Y-102563759D01*
X165292200Y-102385665D01*
X165378601Y-102186224D01*
X165513970Y-102010537D01*
X165678211Y-101877382D01*
X165851228Y-101805534D01*
X165921012Y-101798156D01*
X165967070Y-101791099D01*
X165994616Y-101757776D01*
X166008348Y-101679964D01*
X166012963Y-101539438D01*
X166013319Y-101440021D01*
X166013319Y-101081887D01*
X165742649Y-101068479D01*
X165597769Y-101054515D01*
X165495373Y-101031814D01*
X165461177Y-101010035D01*
X165496244Y-100984781D01*
X165598739Y-100961968D01*
X165746020Y-100943539D01*
X165915448Y-100931438D01*
X166084379Y-100927607D01*
X166230172Y-100933988D01*
G37*
%TO.C,J4*%
X181550000Y-81220000D02*
X182880000Y-81220000D01*
X181550000Y-82550000D02*
X181550000Y-81220000D01*
X181550000Y-83820000D02*
X181550000Y-88960000D01*
X181550000Y-83820000D02*
X184210000Y-83820000D01*
X181550000Y-88960000D02*
X184210000Y-88960000D01*
X184210000Y-83820000D02*
X184210000Y-88960000D01*
%TO.C,R2*%
X162465000Y-84750000D02*
X169005000Y-84750000D01*
X162465000Y-85080000D02*
X162465000Y-84750000D01*
X162465000Y-87160000D02*
X162465000Y-87490000D01*
X162465000Y-87490000D02*
X169005000Y-87490000D01*
X169005000Y-84750000D02*
X169005000Y-85080000D01*
X169005000Y-87490000D02*
X169005000Y-87160000D01*
%TO.C,C2*%
X178724759Y-119446000D02*
X179354759Y-119446000D01*
X179039759Y-119131000D02*
X179039759Y-119761000D01*
X182225000Y-118055000D02*
X182225000Y-124515000D01*
X182265000Y-118055000D02*
X182265000Y-124515000D01*
X182305000Y-118055000D02*
X182305000Y-124515000D01*
X182345000Y-118057000D02*
X182345000Y-124513000D01*
X182385000Y-118058000D02*
X182385000Y-124512000D01*
X182425000Y-118061000D02*
X182425000Y-124509000D01*
X182465000Y-118063000D02*
X182465000Y-120245000D01*
X182465000Y-122325000D02*
X182465000Y-124507000D01*
X182505000Y-118067000D02*
X182505000Y-120245000D01*
X182505000Y-122325000D02*
X182505000Y-124503000D01*
X182545000Y-118070000D02*
X182545000Y-120245000D01*
X182545000Y-122325000D02*
X182545000Y-124500000D01*
X182585000Y-118074000D02*
X182585000Y-120245000D01*
X182585000Y-122325000D02*
X182585000Y-124496000D01*
X182625000Y-118079000D02*
X182625000Y-120245000D01*
X182625000Y-122325000D02*
X182625000Y-124491000D01*
X182665000Y-118084000D02*
X182665000Y-120245000D01*
X182665000Y-122325000D02*
X182665000Y-124486000D01*
X182705000Y-118090000D02*
X182705000Y-120245000D01*
X182705000Y-122325000D02*
X182705000Y-124480000D01*
X182745000Y-118096000D02*
X182745000Y-120245000D01*
X182745000Y-122325000D02*
X182745000Y-124474000D01*
X182785000Y-118103000D02*
X182785000Y-120245000D01*
X182785000Y-122325000D02*
X182785000Y-124467000D01*
X182825000Y-118110000D02*
X182825000Y-120245000D01*
X182825000Y-122325000D02*
X182825000Y-124460000D01*
X182865000Y-118118000D02*
X182865000Y-120245000D01*
X182865000Y-122325000D02*
X182865000Y-124452000D01*
X182905000Y-118126000D02*
X182905000Y-120245000D01*
X182905000Y-122325000D02*
X182905000Y-124444000D01*
X182946000Y-118135000D02*
X182946000Y-120245000D01*
X182946000Y-122325000D02*
X182946000Y-124435000D01*
X182986000Y-118144000D02*
X182986000Y-120245000D01*
X182986000Y-122325000D02*
X182986000Y-124426000D01*
X183026000Y-118154000D02*
X183026000Y-120245000D01*
X183026000Y-122325000D02*
X183026000Y-124416000D01*
X183066000Y-118164000D02*
X183066000Y-120245000D01*
X183066000Y-122325000D02*
X183066000Y-124406000D01*
X183106000Y-118175000D02*
X183106000Y-120245000D01*
X183106000Y-122325000D02*
X183106000Y-124395000D01*
X183146000Y-118187000D02*
X183146000Y-120245000D01*
X183146000Y-122325000D02*
X183146000Y-124383000D01*
X183186000Y-118199000D02*
X183186000Y-120245000D01*
X183186000Y-122325000D02*
X183186000Y-124371000D01*
X183226000Y-118211000D02*
X183226000Y-120245000D01*
X183226000Y-122325000D02*
X183226000Y-124359000D01*
X183266000Y-118224000D02*
X183266000Y-120245000D01*
X183266000Y-122325000D02*
X183266000Y-124346000D01*
X183306000Y-118238000D02*
X183306000Y-120245000D01*
X183306000Y-122325000D02*
X183306000Y-124332000D01*
X183346000Y-118252000D02*
X183346000Y-120245000D01*
X183346000Y-122325000D02*
X183346000Y-124318000D01*
X183386000Y-118267000D02*
X183386000Y-120245000D01*
X183386000Y-122325000D02*
X183386000Y-124303000D01*
X183426000Y-118283000D02*
X183426000Y-120245000D01*
X183426000Y-122325000D02*
X183426000Y-124287000D01*
X183466000Y-118299000D02*
X183466000Y-120245000D01*
X183466000Y-122325000D02*
X183466000Y-124271000D01*
X183506000Y-118315000D02*
X183506000Y-120245000D01*
X183506000Y-122325000D02*
X183506000Y-124255000D01*
X183546000Y-118333000D02*
X183546000Y-120245000D01*
X183546000Y-122325000D02*
X183546000Y-124237000D01*
X183586000Y-118351000D02*
X183586000Y-120245000D01*
X183586000Y-122325000D02*
X183586000Y-124219000D01*
X183626000Y-118369000D02*
X183626000Y-120245000D01*
X183626000Y-122325000D02*
X183626000Y-124201000D01*
X183666000Y-118389000D02*
X183666000Y-120245000D01*
X183666000Y-122325000D02*
X183666000Y-124181000D01*
X183706000Y-118409000D02*
X183706000Y-120245000D01*
X183706000Y-122325000D02*
X183706000Y-124161000D01*
X183746000Y-118429000D02*
X183746000Y-120245000D01*
X183746000Y-122325000D02*
X183746000Y-124141000D01*
X183786000Y-118451000D02*
X183786000Y-120245000D01*
X183786000Y-122325000D02*
X183786000Y-124119000D01*
X183826000Y-118473000D02*
X183826000Y-120245000D01*
X183826000Y-122325000D02*
X183826000Y-124097000D01*
X183866000Y-118495000D02*
X183866000Y-120245000D01*
X183866000Y-122325000D02*
X183866000Y-124075000D01*
X183906000Y-118519000D02*
X183906000Y-120245000D01*
X183906000Y-122325000D02*
X183906000Y-124051000D01*
X183946000Y-118543000D02*
X183946000Y-120245000D01*
X183946000Y-122325000D02*
X183946000Y-124027000D01*
X183986000Y-118569000D02*
X183986000Y-120245000D01*
X183986000Y-122325000D02*
X183986000Y-124001000D01*
X184026000Y-118595000D02*
X184026000Y-120245000D01*
X184026000Y-122325000D02*
X184026000Y-123975000D01*
X184066000Y-118621000D02*
X184066000Y-120245000D01*
X184066000Y-122325000D02*
X184066000Y-123949000D01*
X184106000Y-118649000D02*
X184106000Y-120245000D01*
X184106000Y-122325000D02*
X184106000Y-123921000D01*
X184146000Y-118678000D02*
X184146000Y-120245000D01*
X184146000Y-122325000D02*
X184146000Y-123892000D01*
X184186000Y-118707000D02*
X184186000Y-120245000D01*
X184186000Y-122325000D02*
X184186000Y-123863000D01*
X184226000Y-118737000D02*
X184226000Y-120245000D01*
X184226000Y-122325000D02*
X184226000Y-123833000D01*
X184266000Y-118769000D02*
X184266000Y-120245000D01*
X184266000Y-122325000D02*
X184266000Y-123801000D01*
X184306000Y-118801000D02*
X184306000Y-120245000D01*
X184306000Y-122325000D02*
X184306000Y-123769000D01*
X184346000Y-118835000D02*
X184346000Y-120245000D01*
X184346000Y-122325000D02*
X184346000Y-123735000D01*
X184386000Y-118869000D02*
X184386000Y-120245000D01*
X184386000Y-122325000D02*
X184386000Y-123701000D01*
X184426000Y-118905000D02*
X184426000Y-120245000D01*
X184426000Y-122325000D02*
X184426000Y-123665000D01*
X184466000Y-118942000D02*
X184466000Y-120245000D01*
X184466000Y-122325000D02*
X184466000Y-123628000D01*
X184506000Y-118980000D02*
X184506000Y-120245000D01*
X184506000Y-122325000D02*
X184506000Y-123590000D01*
X184546000Y-119020000D02*
X184546000Y-123550000D01*
X184586000Y-119061000D02*
X184586000Y-123509000D01*
X184626000Y-119103000D02*
X184626000Y-123467000D01*
X184666000Y-119148000D02*
X184666000Y-123422000D01*
X184706000Y-119193000D02*
X184706000Y-123377000D01*
X184746000Y-119241000D02*
X184746000Y-123329000D01*
X184786000Y-119290000D02*
X184786000Y-123280000D01*
X184826000Y-119341000D02*
X184826000Y-123229000D01*
X184866000Y-119395000D02*
X184866000Y-123175000D01*
X184906000Y-119451000D02*
X184906000Y-123119000D01*
X184946000Y-119509000D02*
X184946000Y-123061000D01*
X184986000Y-119571000D02*
X184986000Y-122999000D01*
X185026000Y-119635000D02*
X185026000Y-122935000D01*
X185066000Y-119704000D02*
X185066000Y-122866000D01*
X185106000Y-119776000D02*
X185106000Y-122794000D01*
X185146000Y-119853000D02*
X185146000Y-122717000D01*
X185186000Y-119935000D02*
X185186000Y-122635000D01*
X185226000Y-120023000D02*
X185226000Y-122547000D01*
X185266000Y-120120000D02*
X185266000Y-122450000D01*
X185306000Y-120226000D02*
X185306000Y-122344000D01*
X185346000Y-120345000D02*
X185346000Y-122225000D01*
X185386000Y-120483000D02*
X185386000Y-122087000D01*
X185426000Y-120652000D02*
X185426000Y-121918000D01*
X185466000Y-120883000D02*
X185466000Y-121687000D01*
X185495000Y-121285000D02*
G75*
G03*
X178955000Y-121285000I-3270000J0D01*
G01*
X178955000Y-121285000D02*
G75*
G03*
X185495000Y-121285000I3270000J0D01*
G01*
%TO.C,R1*%
X162465000Y-88800000D02*
X169005000Y-88800000D01*
X162465000Y-89130000D02*
X162465000Y-88800000D01*
X162465000Y-91210000D02*
X162465000Y-91540000D01*
X162465000Y-91540000D02*
X169005000Y-91540000D01*
X169005000Y-88800000D02*
X169005000Y-89130000D01*
X169005000Y-91540000D02*
X169005000Y-91210000D01*
D14*
%TO.C,P1*%
X137630700Y-71166800D02*
X144564600Y-71166800D01*
X131107600Y-85136800D02*
X134207600Y-85136800D01*
X129578600Y-70150800D02*
X132109700Y-70150800D01*
X133109601Y-70334799D02*
G75*
G03*
X137630700Y-71166800I4521129J11867999D01*
G01*
X133109594Y-70334815D02*
G75*
G03*
X132109700Y-70150800I-999894J-2624585D01*
G01*
%TO.C,S1*%
X160330000Y-121825000D02*
X160330000Y-122525000D01*
X160330000Y-121825000D02*
X170330000Y-121825000D01*
X160330000Y-125125000D02*
X160330000Y-125825000D01*
X163330000Y-125825000D02*
X160330000Y-125825000D01*
X165330000Y-125825000D02*
X163330000Y-125825000D01*
X167330000Y-125825000D02*
X165330000Y-125825000D01*
X170330000Y-121825000D02*
X170330000Y-122525000D01*
X170330000Y-125125000D02*
X170330000Y-125825000D01*
X170330000Y-125825000D02*
X167330000Y-125825000D01*
D12*
%TO.C,D3*%
X161995000Y-117475000D02*
X163015000Y-117475000D01*
X163015000Y-116005000D02*
X163015000Y-118945000D01*
X163015000Y-118945000D02*
X168455000Y-118945000D01*
X163795000Y-116005000D02*
X163795000Y-118945000D01*
X163915000Y-116005000D02*
X163915000Y-118945000D01*
X164035000Y-116005000D02*
X164035000Y-118945000D01*
X168455000Y-116005000D02*
X163015000Y-116005000D01*
X168455000Y-118945000D02*
X168455000Y-116005000D01*
X169475000Y-117475000D02*
X168455000Y-117475000D01*
%TD*%
M02*
