%TF.GenerationSoftware,KiCad,Pcbnew,7.0.10*%
%TF.CreationDate,2024-01-20T14:12:54-06:00*%
%TF.ProjectId,Apple-68k-FujiNet-Rev0,4170706c-652d-4363-986b-2d46756a694e,Rev 0*%
%TF.SameCoordinates,Original*%
%TF.FileFunction,Soldermask,Bot*%
%TF.FilePolarity,Negative*%
%FSLAX46Y46*%
G04 Gerber Fmt 4.6, Leading zero omitted, Abs format (unit mm)*
G04 Created by KiCad (PCBNEW 7.0.10) date 2024-01-20 14:12:54*
%MOMM*%
%LPD*%
G01*
G04 APERTURE LIST*
G04 Aperture macros list*
%AMRoundRect*
0 Rectangle with rounded corners*
0 $1 Rounding radius*
0 $2 $3 $4 $5 $6 $7 $8 $9 X,Y pos of 4 corners*
0 Add a 4 corners polygon primitive as box body*
4,1,4,$2,$3,$4,$5,$6,$7,$8,$9,$2,$3,0*
0 Add four circle primitives for the rounded corners*
1,1,$1+$1,$2,$3*
1,1,$1+$1,$4,$5*
1,1,$1+$1,$6,$7*
1,1,$1+$1,$8,$9*
0 Add four rect primitives between the rounded corners*
20,1,$1+$1,$2,$3,$4,$5,0*
20,1,$1+$1,$4,$5,$6,$7,0*
20,1,$1+$1,$6,$7,$8,$9,0*
20,1,$1+$1,$8,$9,$2,$3,0*%
G04 Aperture macros list end*
%ADD10R,1.800000X1.800000*%
%ADD11C,1.800000*%
%ADD12C,2.000000*%
%ADD13O,1.700000X1.700000*%
%ADD14R,1.700000X1.700000*%
%ADD15C,1.600000*%
%ADD16O,1.600000X1.600000*%
%ADD17R,1.530000X1.530000*%
%ADD18C,1.530000*%
%ADD19C,3.200000*%
%ADD20RoundRect,0.250000X-0.600000X-0.600000X0.600000X-0.600000X0.600000X0.600000X-0.600000X0.600000X0*%
%ADD21C,1.700000*%
%ADD22R,1.600000X1.600000*%
%ADD23C,0.900000*%
%ADD24C,1.512000*%
%ADD25C,2.454000*%
%ADD26R,2.200000X2.200000*%
%ADD27O,2.200000X2.200000*%
G04 APERTURE END LIST*
D10*
%TO.C,D1*%
X118618000Y-94615000D03*
D11*
X118618000Y-92075000D03*
%TD*%
D12*
%TO.C,SW1*%
X120650000Y-79225000D03*
X120650000Y-85725000D03*
X116150000Y-79225000D03*
X116150000Y-85725000D03*
%TD*%
D13*
%TO.C,U1*%
X174625000Y-123835000D03*
X174625000Y-121295000D03*
D14*
X174625000Y-118755000D03*
D13*
X174625000Y-116215000D03*
X174625000Y-113675000D03*
X174625000Y-111135000D03*
X174625000Y-108595000D03*
D14*
X174625000Y-106055000D03*
D13*
X174625000Y-103515000D03*
X174625000Y-100975000D03*
X174625000Y-98435000D03*
X174625000Y-95895000D03*
D14*
X174625000Y-93355000D03*
D13*
X174625000Y-90815000D03*
X174625000Y-88275000D03*
X174625000Y-85735000D03*
X174625000Y-83195000D03*
D14*
X174625000Y-80655000D03*
D13*
X174625000Y-78115000D03*
X174625000Y-75575000D03*
X156845000Y-75575000D03*
X156845000Y-78115000D03*
D14*
X156845000Y-80655000D03*
D13*
X156845000Y-83195000D03*
X156845000Y-85735000D03*
X156845000Y-88275000D03*
X156845000Y-90815000D03*
D14*
X156845000Y-93355000D03*
D13*
X156845000Y-95895000D03*
X156845000Y-98435000D03*
X156845000Y-100975000D03*
X156845000Y-103515000D03*
D14*
X156845000Y-106055000D03*
D13*
X156845000Y-108595000D03*
X156845000Y-111135000D03*
X156845000Y-113675000D03*
X156845000Y-116215000D03*
D14*
X156845000Y-118755000D03*
D13*
X156845000Y-121295000D03*
X156845000Y-123835000D03*
X168275000Y-75805000D03*
D14*
X165735000Y-75805000D03*
D13*
X163195000Y-75805000D03*
%TD*%
D14*
%TO.C,J3*%
X182880000Y-111760000D03*
D13*
X182880000Y-109220000D03*
%TD*%
D10*
%TO.C,D2*%
X118618000Y-104775000D03*
D11*
X118618000Y-102235000D03*
%TD*%
D15*
%TO.C,R3*%
X161925000Y-82070000D03*
D16*
X169545000Y-82070000D03*
%TD*%
D17*
%TO.C,U2*%
X126365000Y-78115000D03*
D18*
X126365000Y-80655000D03*
X126365000Y-83195000D03*
X126365000Y-85735000D03*
X126365000Y-88275000D03*
X126365000Y-90815000D03*
X126365000Y-93355000D03*
X126365000Y-95895000D03*
X126365000Y-98435000D03*
X126365000Y-100975000D03*
X126365000Y-103515000D03*
X126365000Y-106055000D03*
X126365000Y-108595000D03*
X126365000Y-111135000D03*
X126365000Y-113675000D03*
X126365000Y-116215000D03*
X126365000Y-118755000D03*
X126365000Y-121295000D03*
X126365000Y-123835000D03*
X151765000Y-123835000D03*
X151765000Y-121295000D03*
X151765000Y-118755000D03*
X151765000Y-116215000D03*
X151765000Y-113675000D03*
X151765000Y-111135000D03*
X151765000Y-108595000D03*
X151765000Y-106055000D03*
X151765000Y-103515000D03*
X151765000Y-100975000D03*
X151765000Y-98435000D03*
X151765000Y-95895000D03*
X151765000Y-93355000D03*
X151765000Y-90815000D03*
X151765000Y-88275000D03*
X151765000Y-85735000D03*
X151765000Y-83195000D03*
X151765000Y-80655000D03*
X151765000Y-78115000D03*
%TD*%
D15*
%TO.C,R4*%
X133985000Y-110490000D03*
D16*
X141605000Y-110490000D03*
%TD*%
D19*
%TO.C,H1*%
X190881000Y-74168000D03*
%TD*%
D14*
%TO.C,J2*%
X180975000Y-93223000D03*
D13*
X183515000Y-93223000D03*
X180975000Y-95763000D03*
X183515000Y-95763000D03*
X180975000Y-98303000D03*
X183515000Y-98303000D03*
X180975000Y-100843000D03*
X183515000Y-100843000D03*
X180975000Y-103383000D03*
X183515000Y-103383000D03*
%TD*%
D19*
%TO.C,H2*%
X190881000Y-122428000D03*
%TD*%
%TO.C,H3*%
X117221000Y-74168000D03*
%TD*%
%TO.C,H4*%
X117221000Y-122428000D03*
%TD*%
D15*
%TO.C,R5*%
X133985000Y-105410000D03*
D16*
X141605000Y-105410000D03*
%TD*%
D20*
%TO.C,J1*%
X187325000Y-86868000D03*
D21*
X189865000Y-86868000D03*
X187325000Y-89408000D03*
X189865000Y-89408000D03*
X187325000Y-91948000D03*
X189865000Y-91948000D03*
X187325000Y-94488000D03*
X189865000Y-94488000D03*
X187325000Y-97028000D03*
X189865000Y-97028000D03*
X187325000Y-99568000D03*
X189865000Y-99568000D03*
X187325000Y-102108000D03*
X189865000Y-102108000D03*
X187325000Y-104648000D03*
X189865000Y-104648000D03*
X187325000Y-107188000D03*
X189865000Y-107188000D03*
X187325000Y-109728000D03*
X189865000Y-109728000D03*
%TD*%
D12*
%TO.C,SW2*%
X120650000Y-110848000D03*
X120650000Y-117348000D03*
X116150000Y-110848000D03*
X116150000Y-117348000D03*
%TD*%
D22*
%TO.C,RN1*%
X147955000Y-99060000D03*
D16*
X147955000Y-96520000D03*
X147955000Y-93980000D03*
X147955000Y-91440000D03*
X147955000Y-88900000D03*
X147955000Y-86360000D03*
X147955000Y-83820000D03*
X147955000Y-81280000D03*
X147955000Y-78740000D03*
%TD*%
D14*
%TO.C,J4*%
X182880000Y-82550000D03*
D13*
X182880000Y-85090000D03*
X182880000Y-87630000D03*
%TD*%
D15*
%TO.C,R2*%
X161925000Y-86120000D03*
D16*
X169545000Y-86120000D03*
%TD*%
D22*
%TO.C,C2*%
X180975000Y-121285000D03*
D15*
X183475000Y-121285000D03*
%TD*%
%TO.C,R1*%
X161925000Y-90170000D03*
D16*
X169545000Y-90170000D03*
%TD*%
D23*
%TO.C,P1*%
X141957600Y-74636800D03*
X133957600Y-74636800D03*
%TD*%
D24*
%TO.C,S1*%
X163330000Y-123825000D03*
X165330000Y-123825000D03*
X167330000Y-123825000D03*
D25*
X160480000Y-123825000D03*
X170180000Y-123825000D03*
%TD*%
D26*
%TO.C,D3*%
X160655000Y-117475000D03*
D27*
X170815000Y-117475000D03*
%TD*%
M02*
