M48
; DRILL file {KiCad 7.0.10} date Sat Jan 20 14:12:56 2024
; FORMAT={-:-/ absolute / inch / decimal}
; #@! TF.CreationDate,2024-01-20T14:12:56-06:00
; #@! TF.GenerationSoftware,Kicad,Pcbnew,7.0.10
; #@! TF.FileFunction,MixedPlating,1,2
FMAT,2
INCH
; #@! TA.AperFunction,Plated,PTH,ViaDrill
T1C0.0157
; #@! TA.AperFunction,Plated,PTH,ComponentDrill
T2C0.0315
; #@! TA.AperFunction,Plated,PTH,ComponentDrill
T3C0.0354
; #@! TA.AperFunction,Plated,PTH,ComponentDrill
T4C0.0394
; #@! TA.AperFunction,Plated,PTH,ComponentDrill
T5C0.0402
; #@! TA.AperFunction,Plated,PTH,ComponentDrill
T6C0.0433
; #@! TA.AperFunction,Plated,PTH,ComponentDrill
T7C0.0591
; #@! TA.AperFunction,NonPlated,NPTH,ComponentDrill
T8C0.0354
; #@! TA.AperFunction,NonPlated,NPTH,ComponentDrill
T9C0.1260
%
G90
G05
T1
X4.67Y-3.25
X4.83Y-3.725
X4.83Y-4.53
X4.86Y-3.82
X4.89Y-2.99
X5.11Y-3.78
X5.11Y-4.005
X5.18Y-3.47
X5.19Y-3.02
X5.2Y-3.695
X5.205Y-3.89
X5.307Y-3.304
X5.325Y-3.89
X5.35Y-3.304
X5.394Y-3.304
X5.405Y-3.55
X5.525Y-3.407
X5.535Y-3.855
X5.57Y-3.5965
X5.61Y-3.5
X5.655Y-4.575
X5.7165Y-4.28
X5.745Y-4.3215
X5.78Y-4.465
X5.92Y-3.53
X5.92Y-4.63
X6.07Y-3.875
X6.67Y-3.93
X6.94Y-3.615
X6.9415Y-3.975
X6.97Y-3.67
X6.97Y-4.075
X6.997Y-3.021
X7.0015Y-3.475
X7.0015Y-3.82
X7.03Y-3.9
X7.0585Y-3.505
X7.06Y-3.87
X7.15Y-4.575
X7.175Y-4.165
X7.275Y-4.2663
T2
X5.275Y-4.15
X5.275Y-4.35
X5.575Y-4.15
X5.575Y-4.35
X5.825Y-3.1
X5.825Y-3.2
X5.825Y-3.3
X5.825Y-3.4
X5.825Y-3.5
X5.825Y-3.6
X5.825Y-3.7
X5.825Y-3.8
X5.825Y-3.9
X6.375Y-3.2311
X6.375Y-3.3906
X6.375Y-3.55
X6.4303Y-4.875
X6.5091Y-4.875
X6.5878Y-4.875
X6.675Y-3.2311
X6.675Y-3.3906
X6.675Y-3.55
X7.125Y-4.775
X7.2234Y-4.775
T3
X4.67Y-3.625
X4.67Y-3.725
X4.67Y-4.025
X4.67Y-4.125
T4
X7.125Y-3.6702
X7.125Y-3.7702
X7.125Y-3.8702
X7.125Y-3.9702
X7.125Y-4.0702
X7.2Y-3.25
X7.2Y-3.35
X7.2Y-3.45
X7.2Y-4.3
X7.2Y-4.4
X7.225Y-3.6702
X7.225Y-3.7702
X7.225Y-3.8702
X7.225Y-3.9702
X7.225Y-4.0702
X7.375Y-3.42
X7.375Y-3.52
X7.375Y-3.62
X7.375Y-3.72
X7.375Y-3.82
X7.375Y-3.92
X7.375Y-4.02
X7.375Y-4.12
X7.375Y-4.22
X7.375Y-4.32
X7.475Y-3.42
X7.475Y-3.52
X7.475Y-3.62
X7.475Y-3.72
X7.475Y-3.82
X7.475Y-3.92
X7.475Y-4.02
X7.475Y-4.12
X7.475Y-4.22
X7.475Y-4.32
T5
X4.975Y-3.0754
X4.975Y-3.1754
X4.975Y-3.2754
X4.975Y-3.3754
X4.975Y-3.4754
X4.975Y-3.5754
X4.975Y-3.6754
X4.975Y-3.7754
X4.975Y-3.8754
X4.975Y-3.9754
X4.975Y-4.0754
X4.975Y-4.1754
X4.975Y-4.2754
X4.975Y-4.3754
X4.975Y-4.4754
X4.975Y-4.5754
X4.975Y-4.6754
X4.975Y-4.7754
X4.975Y-4.8754
X5.975Y-3.0754
X5.975Y-3.1754
X5.975Y-3.2754
X5.975Y-3.3754
X5.975Y-3.4754
X5.975Y-3.5754
X5.975Y-3.6754
X5.975Y-3.7754
X5.975Y-3.8754
X5.975Y-3.9754
X5.975Y-4.0754
X5.975Y-4.1754
X5.975Y-4.2754
X5.975Y-4.3754
X5.975Y-4.4754
X5.975Y-4.5754
X5.975Y-4.6754
X5.975Y-4.7754
X5.975Y-4.8754
X6.175Y-2.9754
X6.175Y-3.0754
X6.175Y-3.1754
X6.175Y-3.2754
X6.175Y-3.3754
X6.175Y-3.4754
X6.175Y-3.5754
X6.175Y-3.6754
X6.175Y-3.7754
X6.175Y-3.8754
X6.175Y-3.9754
X6.175Y-4.0754
X6.175Y-4.1754
X6.175Y-4.2754
X6.175Y-4.3754
X6.175Y-4.4754
X6.175Y-4.5754
X6.175Y-4.6754
X6.175Y-4.7754
X6.175Y-4.8754
X6.425Y-2.9844
X6.525Y-2.9844
X6.625Y-2.9844
X6.875Y-2.9754
X6.875Y-3.0754
X6.875Y-3.1754
X6.875Y-3.2754
X6.875Y-3.3754
X6.875Y-3.4754
X6.875Y-3.5754
X6.875Y-3.6754
X6.875Y-3.7754
X6.875Y-3.8754
X6.875Y-3.9754
X6.875Y-4.0754
X6.875Y-4.1754
X6.875Y-4.2754
X6.875Y-4.3754
X6.875Y-4.4754
X6.875Y-4.5754
X6.875Y-4.6754
X6.875Y-4.7754
X6.875Y-4.8754
T6
X4.5728Y-3.1191
X4.5728Y-3.375
X4.5728Y-4.3641
X4.5728Y-4.62
X4.75Y-3.1191
X4.75Y-3.375
X4.75Y-4.3641
X4.75Y-4.62
X6.325Y-4.625
X6.725Y-4.625
T7
X6.3181Y-4.875
X6.7Y-4.875
T8
X5.2739Y-2.9385
X5.5889Y-2.9385
T9
X4.615Y-2.92
X4.615Y-4.82
X7.515Y-2.92
X7.515Y-4.82
M30
