%TF.GenerationSoftware,KiCad,Pcbnew,7.0.10*%
%TF.CreationDate,2024-01-20T14:12:54-06:00*%
%TF.ProjectId,Apple-68k-FujiNet-Rev0,4170706c-652d-4363-986b-2d46756a694e,Rev 0*%
%TF.SameCoordinates,Original*%
%TF.FileFunction,Legend,Bot*%
%TF.FilePolarity,Positive*%
%FSLAX46Y46*%
G04 Gerber Fmt 4.6, Leading zero omitted, Abs format (unit mm)*
G04 Created by KiCad (PCBNEW 7.0.10) date 2024-01-20 14:12:54*
%MOMM*%
%LPD*%
G01*
G04 APERTURE LIST*
%ADD10C,0.300000*%
G04 APERTURE END LIST*
D10*
X160838171Y-114112144D02*
X160838171Y-113540716D01*
X159838171Y-113897859D02*
X161123885Y-113897859D01*
X161123885Y-113897859D02*
X161266742Y-113826430D01*
X161266742Y-113826430D02*
X161338171Y-113683573D01*
X161338171Y-113683573D02*
X161338171Y-113540716D01*
X160838171Y-112397859D02*
X159838171Y-112397859D01*
X160838171Y-113040716D02*
X160052457Y-113040716D01*
X160052457Y-113040716D02*
X159909600Y-112969287D01*
X159909600Y-112969287D02*
X159838171Y-112826430D01*
X159838171Y-112826430D02*
X159838171Y-112612144D01*
X159838171Y-112612144D02*
X159909600Y-112469287D01*
X159909600Y-112469287D02*
X159981028Y-112397859D01*
X160838171Y-111683573D02*
X159552457Y-111683573D01*
X159552457Y-111683573D02*
X159409600Y-111755001D01*
X159409600Y-111755001D02*
X159338171Y-111897858D01*
X159338171Y-111897858D02*
X159338171Y-111969287D01*
X161338171Y-111683573D02*
X161266742Y-111755001D01*
X161266742Y-111755001D02*
X161195314Y-111683573D01*
X161195314Y-111683573D02*
X161266742Y-111612144D01*
X161266742Y-111612144D02*
X161338171Y-111683573D01*
X161338171Y-111683573D02*
X161195314Y-111683573D01*
X159838171Y-110969287D02*
X160838171Y-110969287D01*
X161338171Y-110969287D02*
X161266742Y-111040715D01*
X161266742Y-111040715D02*
X161195314Y-110969287D01*
X161195314Y-110969287D02*
X161266742Y-110897858D01*
X161266742Y-110897858D02*
X161338171Y-110969287D01*
X161338171Y-110969287D02*
X161195314Y-110969287D01*
X160838171Y-110255001D02*
X159838171Y-110255001D01*
X160695314Y-110255001D02*
X160766742Y-110183572D01*
X160766742Y-110183572D02*
X160838171Y-110040715D01*
X160838171Y-110040715D02*
X160838171Y-109826429D01*
X160838171Y-109826429D02*
X160766742Y-109683572D01*
X160766742Y-109683572D02*
X160623885Y-109612144D01*
X160623885Y-109612144D02*
X159838171Y-109612144D01*
X159909600Y-108326429D02*
X159838171Y-108469286D01*
X159838171Y-108469286D02*
X159838171Y-108755001D01*
X159838171Y-108755001D02*
X159909600Y-108897858D01*
X159909600Y-108897858D02*
X160052457Y-108969286D01*
X160052457Y-108969286D02*
X160623885Y-108969286D01*
X160623885Y-108969286D02*
X160766742Y-108897858D01*
X160766742Y-108897858D02*
X160838171Y-108755001D01*
X160838171Y-108755001D02*
X160838171Y-108469286D01*
X160838171Y-108469286D02*
X160766742Y-108326429D01*
X160766742Y-108326429D02*
X160623885Y-108255001D01*
X160623885Y-108255001D02*
X160481028Y-108255001D01*
X160481028Y-108255001D02*
X160338171Y-108969286D01*
X160838171Y-107826429D02*
X160838171Y-107255001D01*
X161338171Y-107612144D02*
X160052457Y-107612144D01*
X160052457Y-107612144D02*
X159909600Y-107540715D01*
X159909600Y-107540715D02*
X159838171Y-107397858D01*
X159838171Y-107397858D02*
X159838171Y-107255001D01*
X160838171Y-106897858D02*
X159838171Y-106612144D01*
X159838171Y-106612144D02*
X160552457Y-106326429D01*
X160552457Y-106326429D02*
X159838171Y-106040715D01*
X159838171Y-106040715D02*
X160838171Y-105755001D01*
X159838171Y-105183572D02*
X160838171Y-105183572D01*
X161338171Y-105183572D02*
X161266742Y-105255000D01*
X161266742Y-105255000D02*
X161195314Y-105183572D01*
X161195314Y-105183572D02*
X161266742Y-105112143D01*
X161266742Y-105112143D02*
X161338171Y-105183572D01*
X161338171Y-105183572D02*
X161195314Y-105183572D01*
X160838171Y-104683571D02*
X160838171Y-104112143D01*
X159838171Y-104469286D02*
X161123885Y-104469286D01*
X161123885Y-104469286D02*
X161266742Y-104397857D01*
X161266742Y-104397857D02*
X161338171Y-104255000D01*
X161338171Y-104255000D02*
X161338171Y-104112143D01*
X159838171Y-103612143D02*
X160838171Y-103612143D01*
X161338171Y-103612143D02*
X161266742Y-103683571D01*
X161266742Y-103683571D02*
X161195314Y-103612143D01*
X161195314Y-103612143D02*
X161266742Y-103540714D01*
X161266742Y-103540714D02*
X161338171Y-103612143D01*
X161338171Y-103612143D02*
X161195314Y-103612143D01*
X159981028Y-102897857D02*
X159909600Y-102826428D01*
X159909600Y-102826428D02*
X159838171Y-102897857D01*
X159838171Y-102897857D02*
X159909600Y-102969285D01*
X159909600Y-102969285D02*
X159981028Y-102897857D01*
X159981028Y-102897857D02*
X159838171Y-102897857D01*
X160838171Y-101540714D02*
X159623885Y-101540714D01*
X159623885Y-101540714D02*
X159481028Y-101612142D01*
X159481028Y-101612142D02*
X159409600Y-101683571D01*
X159409600Y-101683571D02*
X159338171Y-101826428D01*
X159338171Y-101826428D02*
X159338171Y-102040714D01*
X159338171Y-102040714D02*
X159409600Y-102183571D01*
X159909600Y-101540714D02*
X159838171Y-101683571D01*
X159838171Y-101683571D02*
X159838171Y-101969285D01*
X159838171Y-101969285D02*
X159909600Y-102112142D01*
X159909600Y-102112142D02*
X159981028Y-102183571D01*
X159981028Y-102183571D02*
X160123885Y-102254999D01*
X160123885Y-102254999D02*
X160552457Y-102254999D01*
X160552457Y-102254999D02*
X160695314Y-102183571D01*
X160695314Y-102183571D02*
X160766742Y-102112142D01*
X160766742Y-102112142D02*
X160838171Y-101969285D01*
X160838171Y-101969285D02*
X160838171Y-101683571D01*
X160838171Y-101683571D02*
X160766742Y-101540714D01*
X159838171Y-100826428D02*
X160838171Y-100826428D01*
X161338171Y-100826428D02*
X161266742Y-100897856D01*
X161266742Y-100897856D02*
X161195314Y-100826428D01*
X161195314Y-100826428D02*
X161266742Y-100754999D01*
X161266742Y-100754999D02*
X161338171Y-100826428D01*
X161338171Y-100826428D02*
X161195314Y-100826428D01*
X160838171Y-100326427D02*
X160838171Y-99754999D01*
X161338171Y-100112142D02*
X160052457Y-100112142D01*
X160052457Y-100112142D02*
X159909600Y-100040713D01*
X159909600Y-100040713D02*
X159838171Y-99897856D01*
X159838171Y-99897856D02*
X159838171Y-99754999D01*
X159838171Y-99254999D02*
X161338171Y-99254999D01*
X159838171Y-98612142D02*
X160623885Y-98612142D01*
X160623885Y-98612142D02*
X160766742Y-98683570D01*
X160766742Y-98683570D02*
X160838171Y-98826427D01*
X160838171Y-98826427D02*
X160838171Y-99040713D01*
X160838171Y-99040713D02*
X160766742Y-99183570D01*
X160766742Y-99183570D02*
X160695314Y-99254999D01*
X160838171Y-97254999D02*
X159838171Y-97254999D01*
X160838171Y-97897856D02*
X160052457Y-97897856D01*
X160052457Y-97897856D02*
X159909600Y-97826427D01*
X159909600Y-97826427D02*
X159838171Y-97683570D01*
X159838171Y-97683570D02*
X159838171Y-97469284D01*
X159838171Y-97469284D02*
X159909600Y-97326427D01*
X159909600Y-97326427D02*
X159981028Y-97254999D01*
X159838171Y-96540713D02*
X161338171Y-96540713D01*
X160766742Y-96540713D02*
X160838171Y-96397856D01*
X160838171Y-96397856D02*
X160838171Y-96112141D01*
X160838171Y-96112141D02*
X160766742Y-95969284D01*
X160766742Y-95969284D02*
X160695314Y-95897856D01*
X160695314Y-95897856D02*
X160552457Y-95826427D01*
X160552457Y-95826427D02*
X160123885Y-95826427D01*
X160123885Y-95826427D02*
X159981028Y-95897856D01*
X159981028Y-95897856D02*
X159909600Y-95969284D01*
X159909600Y-95969284D02*
X159838171Y-96112141D01*
X159838171Y-96112141D02*
X159838171Y-96397856D01*
X159838171Y-96397856D02*
X159909600Y-96540713D01*
X159981028Y-95183570D02*
X159909600Y-95112141D01*
X159909600Y-95112141D02*
X159838171Y-95183570D01*
X159838171Y-95183570D02*
X159909600Y-95254998D01*
X159909600Y-95254998D02*
X159981028Y-95183570D01*
X159981028Y-95183570D02*
X159838171Y-95183570D01*
X159838171Y-94469284D02*
X160838171Y-94469284D01*
X161338171Y-94469284D02*
X161266742Y-94540712D01*
X161266742Y-94540712D02*
X161195314Y-94469284D01*
X161195314Y-94469284D02*
X161266742Y-94397855D01*
X161266742Y-94397855D02*
X161338171Y-94469284D01*
X161338171Y-94469284D02*
X161195314Y-94469284D01*
X159838171Y-93540712D02*
X159909600Y-93683569D01*
X159909600Y-93683569D02*
X159981028Y-93754998D01*
X159981028Y-93754998D02*
X160123885Y-93826426D01*
X160123885Y-93826426D02*
X160552457Y-93826426D01*
X160552457Y-93826426D02*
X160695314Y-93754998D01*
X160695314Y-93754998D02*
X160766742Y-93683569D01*
X160766742Y-93683569D02*
X160838171Y-93540712D01*
X160838171Y-93540712D02*
X160838171Y-93326426D01*
X160838171Y-93326426D02*
X160766742Y-93183569D01*
X160766742Y-93183569D02*
X160695314Y-93112141D01*
X160695314Y-93112141D02*
X160552457Y-93040712D01*
X160552457Y-93040712D02*
X160123885Y-93040712D01*
X160123885Y-93040712D02*
X159981028Y-93112141D01*
X159981028Y-93112141D02*
X159909600Y-93183569D01*
X159909600Y-93183569D02*
X159838171Y-93326426D01*
X159838171Y-93326426D02*
X159838171Y-93540712D01*
X164857757Y-102310572D02*
X164786328Y-102167715D01*
X164786328Y-102167715D02*
X164786328Y-101953429D01*
X164786328Y-101953429D02*
X164857757Y-101739143D01*
X164857757Y-101739143D02*
X165000614Y-101596286D01*
X165000614Y-101596286D02*
X165143471Y-101524857D01*
X165143471Y-101524857D02*
X165429185Y-101453429D01*
X165429185Y-101453429D02*
X165643471Y-101453429D01*
X165643471Y-101453429D02*
X165929185Y-101524857D01*
X165929185Y-101524857D02*
X166072042Y-101596286D01*
X166072042Y-101596286D02*
X166214900Y-101739143D01*
X166214900Y-101739143D02*
X166286328Y-101953429D01*
X166286328Y-101953429D02*
X166286328Y-102096286D01*
X166286328Y-102096286D02*
X166214900Y-102310572D01*
X166214900Y-102310572D02*
X166143471Y-102382000D01*
X166143471Y-102382000D02*
X165643471Y-102382000D01*
X165643471Y-102382000D02*
X165643471Y-102096286D01*
X164786328Y-103239143D02*
X165143471Y-103239143D01*
X165000614Y-102882000D02*
X165143471Y-103239143D01*
X165143471Y-103239143D02*
X165000614Y-103596286D01*
X165429185Y-103024857D02*
X165143471Y-103239143D01*
X165143471Y-103239143D02*
X165429185Y-103453429D01*
X164786328Y-104382000D02*
X165143471Y-104382000D01*
X165000614Y-104024857D02*
X165143471Y-104382000D01*
X165143471Y-104382000D02*
X165000614Y-104739143D01*
X165429185Y-104167714D02*
X165143471Y-104382000D01*
X165143471Y-104382000D02*
X165429185Y-104596286D01*
X164786328Y-105524857D02*
X165143471Y-105524857D01*
X165000614Y-105167714D02*
X165143471Y-105524857D01*
X165143471Y-105524857D02*
X165000614Y-105882000D01*
X165429185Y-105310571D02*
X165143471Y-105524857D01*
X165143471Y-105524857D02*
X165429185Y-105739143D01*
%TO.C,G\u002A\u002A\u002A*%
G36*
X167229277Y-107302390D02*
G01*
X167229277Y-107505050D01*
X165630518Y-107505050D01*
X164031759Y-107505050D01*
X164031759Y-107302390D01*
X164031759Y-107099731D01*
X165630518Y-107099731D01*
X167229277Y-107099731D01*
X167229277Y-107302390D01*
G37*
G36*
X167229277Y-93789162D02*
G01*
X167229277Y-94895121D01*
X167026617Y-94895121D01*
X166823958Y-94895121D01*
X166823958Y-94444766D01*
X166823958Y-93994411D01*
X165425269Y-93994411D01*
X164026580Y-93994411D01*
X164040428Y-93803011D01*
X164054277Y-93611610D01*
X165437494Y-93599703D01*
X166820712Y-93587795D01*
X166833593Y-93149348D01*
X166846475Y-92710901D01*
X167037876Y-92697052D01*
X167229277Y-92683204D01*
X167229277Y-93789162D01*
G37*
G36*
X165968284Y-113584837D02*
G01*
X165968284Y-114215333D01*
X166418638Y-114215333D01*
X166868993Y-114215333D01*
X166868993Y-113584837D01*
X166868993Y-112954340D01*
X167049135Y-112954340D01*
X167229277Y-112954340D01*
X167229277Y-113787496D01*
X167229277Y-114620652D01*
X165627928Y-114620652D01*
X164026580Y-114620652D01*
X164040428Y-114429252D01*
X164054277Y-114237851D01*
X164831138Y-114225529D01*
X165608000Y-114213206D01*
X165608000Y-113583773D01*
X165608000Y-112954340D01*
X165788142Y-112954340D01*
X165968284Y-112954340D01*
X165968284Y-113584837D01*
G37*
G36*
X165800653Y-95174064D02*
G01*
X165990801Y-95187851D01*
X166003307Y-95831280D01*
X166015813Y-96474709D01*
X166431144Y-96461776D01*
X166846475Y-96448844D01*
X166858971Y-95807089D01*
X166871466Y-95165333D01*
X167050371Y-95165333D01*
X167229277Y-95165333D01*
X167229277Y-96021007D01*
X167229277Y-96876681D01*
X165660541Y-96876681D01*
X165349272Y-96876086D01*
X165005564Y-96873946D01*
X164699536Y-96870439D01*
X164441665Y-96865759D01*
X164242431Y-96860104D01*
X164112311Y-96853672D01*
X164061783Y-96846657D01*
X164052645Y-96798192D01*
X164044285Y-96673405D01*
X164037672Y-96487427D01*
X164033324Y-96255029D01*
X164031759Y-95990983D01*
X164031759Y-95165333D01*
X164234419Y-95165333D01*
X164437078Y-95165333D01*
X164437078Y-95819693D01*
X164437078Y-96474053D01*
X165011280Y-96461448D01*
X165585482Y-96448844D01*
X165597993Y-95804560D01*
X165610504Y-95160277D01*
X165800653Y-95174064D01*
G37*
G36*
X167229277Y-97776642D02*
G01*
X167229277Y-97956036D01*
X166058045Y-97968043D01*
X164886814Y-97980050D01*
X166103081Y-99095727D01*
X166108684Y-99100868D01*
X166385575Y-99356079D01*
X166640126Y-99592964D01*
X166864954Y-99804479D01*
X167052675Y-99983579D01*
X167195904Y-100123221D01*
X167287256Y-100216360D01*
X167319348Y-100255952D01*
X167317417Y-100258777D01*
X167254482Y-100270775D01*
X167104604Y-100280035D01*
X166870341Y-100286507D01*
X166554249Y-100290139D01*
X166158887Y-100290880D01*
X165686812Y-100288679D01*
X164054277Y-100276858D01*
X164040465Y-100086210D01*
X164026654Y-99895562D01*
X165191782Y-99883551D01*
X166356911Y-99871539D01*
X165149299Y-98752063D01*
X165143603Y-98746782D01*
X164868709Y-98491467D01*
X164615996Y-98255854D01*
X164392792Y-98046846D01*
X164206430Y-97871346D01*
X164064238Y-97736256D01*
X163973547Y-97648479D01*
X163941688Y-97614918D01*
X163941705Y-97614836D01*
X163986745Y-97610814D01*
X164111680Y-97607116D01*
X164306530Y-97603849D01*
X164561315Y-97601122D01*
X164866055Y-97599042D01*
X165210771Y-97597714D01*
X165585482Y-97597248D01*
X167229277Y-97597248D01*
X167229277Y-97776642D01*
G37*
G36*
X167220607Y-108417018D02*
G01*
X167206759Y-108608418D01*
X165851264Y-108630936D01*
X165838174Y-108631154D01*
X165433273Y-108638803D01*
X165109826Y-108647084D01*
X164859463Y-108656492D01*
X164673809Y-108667519D01*
X164544494Y-108680661D01*
X164463144Y-108696411D01*
X164421388Y-108715263D01*
X164379692Y-108769515D01*
X164350050Y-108899502D01*
X164369562Y-109048971D01*
X164437078Y-109183651D01*
X164440407Y-109187907D01*
X164501783Y-109276632D01*
X164527149Y-109333187D01*
X164499861Y-109390860D01*
X164427259Y-109473294D01*
X164341412Y-109545634D01*
X164274670Y-109576681D01*
X164270503Y-109576420D01*
X164202918Y-109533904D01*
X164120015Y-109436587D01*
X164040738Y-109310270D01*
X163984027Y-109180758D01*
X163978830Y-109162511D01*
X163961713Y-109005220D01*
X163972423Y-108816438D01*
X164006483Y-108636299D01*
X164059416Y-108504939D01*
X164063932Y-108498258D01*
X164153661Y-108402092D01*
X164270642Y-108313706D01*
X164270797Y-108313612D01*
X164316116Y-108289023D01*
X164369283Y-108269498D01*
X164440575Y-108254457D01*
X164540269Y-108243317D01*
X164678644Y-108235497D01*
X164865978Y-108230415D01*
X165112547Y-108227490D01*
X165428632Y-108226141D01*
X165824508Y-108225785D01*
X167234456Y-108225617D01*
X167220607Y-108417018D01*
G37*
G36*
X167229277Y-110136309D02*
G01*
X167229277Y-110335653D01*
X166047096Y-110350227D01*
X166019231Y-110350572D01*
X165664415Y-110355478D01*
X165387342Y-110360900D01*
X165176483Y-110367742D01*
X165020314Y-110376908D01*
X164907307Y-110389300D01*
X164825936Y-110405823D01*
X164764676Y-110427379D01*
X164711998Y-110454872D01*
X164634099Y-110503901D01*
X164502707Y-110616560D01*
X164421766Y-110751410D01*
X164380847Y-110930391D01*
X164369525Y-111175440D01*
X164372587Y-111316763D01*
X164398971Y-111526234D01*
X164460947Y-111679028D01*
X164568775Y-111795500D01*
X164732715Y-111896007D01*
X164787254Y-111921111D01*
X164855228Y-111943461D01*
X164941900Y-111960582D01*
X165059165Y-111973399D01*
X165218919Y-111982837D01*
X165433057Y-111989821D01*
X165713474Y-111995274D01*
X166072067Y-112000123D01*
X167234183Y-112014168D01*
X167220471Y-112202782D01*
X167206759Y-112391397D01*
X166013319Y-112391397D01*
X165644304Y-112390616D01*
X165320908Y-112386928D01*
X165065503Y-112378575D01*
X164866614Y-112363802D01*
X164712767Y-112340856D01*
X164592489Y-112307982D01*
X164494306Y-112263426D01*
X164406743Y-112205433D01*
X164318326Y-112132250D01*
X164205522Y-112019182D01*
X164070077Y-111808185D01*
X163986006Y-111543542D01*
X163971988Y-111456142D01*
X163961355Y-111225178D01*
X163976262Y-110972539D01*
X164013596Y-110734983D01*
X164070241Y-110549271D01*
X164092202Y-110505197D01*
X164194841Y-110352227D01*
X164316343Y-110220369D01*
X164360985Y-110182549D01*
X164461672Y-110110086D01*
X164572477Y-110053205D01*
X164704814Y-110010083D01*
X164870101Y-109978894D01*
X165079751Y-109957812D01*
X165345182Y-109945013D01*
X165677808Y-109938673D01*
X166089046Y-109936965D01*
X167229277Y-109936965D01*
X167229277Y-110136309D01*
G37*
G36*
X162996399Y-99815360D02*
G01*
X163018359Y-99917085D01*
X163031869Y-100062940D01*
X163045277Y-100344411D01*
X163470965Y-100344411D01*
X163554477Y-100345107D01*
X163735296Y-100352902D01*
X163853994Y-100368173D01*
X163896653Y-100389447D01*
X163889835Y-100398423D01*
X163815570Y-100417485D01*
X163670620Y-100429990D01*
X163468816Y-100434482D01*
X163040979Y-100434482D01*
X163040979Y-101202143D01*
X163040979Y-101969803D01*
X163340602Y-101956487D01*
X163640225Y-101943170D01*
X163702127Y-101763891D01*
X163714358Y-101731018D01*
X163844588Y-101511517D01*
X164032957Y-101336215D01*
X164256151Y-101227681D01*
X164349491Y-101198950D01*
X164427467Y-101157008D01*
X164460506Y-101086954D01*
X164473367Y-100958054D01*
X164480872Y-100884181D01*
X164506161Y-100792528D01*
X164536325Y-100783233D01*
X164561591Y-100852493D01*
X164572184Y-100996505D01*
X164572592Y-101046854D01*
X164583875Y-101147252D01*
X164623999Y-101196427D01*
X164710636Y-101223338D01*
X164830032Y-101270856D01*
X164990238Y-101381352D01*
X165132945Y-101522942D01*
X165226218Y-101668077D01*
X165281678Y-101799978D01*
X165360481Y-101633913D01*
X165430930Y-101513222D01*
X165602507Y-101346345D01*
X165839275Y-101237973D01*
X165944486Y-101199095D01*
X166000209Y-101145794D01*
X166013319Y-101057850D01*
X166027032Y-100969804D01*
X166080872Y-100929872D01*
X166128285Y-100957717D01*
X166148426Y-101064979D01*
X166163343Y-101162481D01*
X166217773Y-101200085D01*
X166337924Y-101229609D01*
X166486458Y-101305550D01*
X166629566Y-101407639D01*
X166734081Y-101515606D01*
X166735026Y-101516938D01*
X166816467Y-101660063D01*
X166875607Y-101811204D01*
X166919282Y-101969382D01*
X167265680Y-101956276D01*
X167612078Y-101943170D01*
X167625690Y-101706734D01*
X167634106Y-101615329D01*
X167654754Y-101510940D01*
X167679631Y-101470298D01*
X167696286Y-101488785D01*
X167719032Y-101574600D01*
X167733572Y-101706734D01*
X167747184Y-101943170D01*
X167938585Y-101957019D01*
X167957511Y-101958533D01*
X168084816Y-101981108D01*
X168124097Y-102012480D01*
X168075353Y-102043352D01*
X167938585Y-102064428D01*
X167747184Y-102078277D01*
X167733939Y-102405435D01*
X167729853Y-102571250D01*
X167736957Y-102677362D01*
X167759553Y-102732996D01*
X167801493Y-102758278D01*
X167898224Y-102790885D01*
X168102131Y-102881231D01*
X168248964Y-102989986D01*
X168362627Y-103133115D01*
X168406592Y-103208822D01*
X168466698Y-103341088D01*
X168490270Y-103438158D01*
X168491342Y-103469018D01*
X168506638Y-103509635D01*
X168555241Y-103531451D01*
X168656067Y-103540278D01*
X168828036Y-103541929D01*
X168957696Y-103543477D01*
X169084169Y-103552934D01*
X169148108Y-103573850D01*
X169165801Y-103609482D01*
X169158603Y-103634713D01*
X169112247Y-103660427D01*
X169008695Y-103673434D01*
X168831614Y-103677035D01*
X168497426Y-103677035D01*
X168467219Y-103814567D01*
X168464533Y-103825749D01*
X168388610Y-103981943D01*
X168254748Y-104138976D01*
X168088662Y-104271645D01*
X167916067Y-104354745D01*
X167724667Y-104411860D01*
X167724667Y-104742497D01*
X167724667Y-105073135D01*
X167927326Y-105073135D01*
X168013282Y-105075882D01*
X168103464Y-105096163D01*
X168129986Y-105140688D01*
X168121746Y-105169340D01*
X168060902Y-105199400D01*
X167927326Y-105208241D01*
X167724667Y-105208241D01*
X167724667Y-105523489D01*
X167724667Y-105523795D01*
X167718697Y-105685442D01*
X167702733Y-105797083D01*
X167679631Y-105838738D01*
X167679588Y-105838737D01*
X167656495Y-105796947D01*
X167640546Y-105685204D01*
X167634596Y-105523489D01*
X167634596Y-105208241D01*
X167276048Y-105208241D01*
X166917500Y-105208241D01*
X166869544Y-105386335D01*
X166840844Y-105470973D01*
X166731634Y-105662814D01*
X166581815Y-105823091D01*
X166411482Y-105933026D01*
X166240733Y-105973844D01*
X166215329Y-105975197D01*
X166178992Y-105992992D01*
X166158870Y-106046109D01*
X166150252Y-106152789D01*
X166148426Y-106331274D01*
X166148426Y-106688705D01*
X166294791Y-106702817D01*
X166389999Y-106721082D01*
X166436074Y-106757655D01*
X166398156Y-106798441D01*
X166277749Y-106832033D01*
X166230172Y-106838012D01*
X166084379Y-106844393D01*
X165915448Y-106840562D01*
X165746020Y-106828461D01*
X165598739Y-106810032D01*
X165496244Y-106787219D01*
X165461177Y-106761965D01*
X165495373Y-106740186D01*
X165597769Y-106717485D01*
X165742649Y-106703521D01*
X166013319Y-106690113D01*
X166013319Y-106331979D01*
X166012963Y-106232562D01*
X166008348Y-106092036D01*
X165994616Y-106014224D01*
X165967070Y-105980901D01*
X165921012Y-105973844D01*
X165851228Y-105966466D01*
X165678211Y-105894618D01*
X165513970Y-105761463D01*
X165378601Y-105585776D01*
X165292200Y-105386335D01*
X165244245Y-105208241D01*
X164908215Y-105208241D01*
X164572184Y-105208241D01*
X164572184Y-105385725D01*
X164571362Y-105419989D01*
X164555936Y-105531994D01*
X164527149Y-105591043D01*
X164514410Y-105592612D01*
X164490742Y-105539613D01*
X164485902Y-105469849D01*
X164482114Y-105415249D01*
X164482114Y-105211621D01*
X164076545Y-105198672D01*
X163996839Y-105195336D01*
X163827575Y-105181781D01*
X163713069Y-105162724D01*
X163670977Y-105140688D01*
X163678100Y-105131610D01*
X163751502Y-105110471D01*
X163890203Y-105093327D01*
X164076545Y-105082704D01*
X164482114Y-105069755D01*
X164482114Y-104373395D01*
X164482114Y-103677035D01*
X164572184Y-103677035D01*
X164572184Y-104375085D01*
X164572184Y-105073135D01*
X164932468Y-105073135D01*
X164977207Y-105073052D01*
X165141640Y-105069442D01*
X165237343Y-105057682D01*
X165281906Y-105033924D01*
X165292920Y-104994323D01*
X165294540Y-104971925D01*
X165336609Y-104849294D01*
X165421029Y-104710564D01*
X165528145Y-104580369D01*
X165638303Y-104483348D01*
X165731848Y-104444137D01*
X165744176Y-104443425D01*
X165785460Y-104418294D01*
X165766026Y-104389132D01*
X166371783Y-104389132D01*
X166536137Y-104490708D01*
X166681918Y-104619797D01*
X166810561Y-104832710D01*
X166920631Y-105073135D01*
X167277614Y-105073135D01*
X167634596Y-105073135D01*
X167634596Y-104742497D01*
X167634596Y-104411860D01*
X167460552Y-104359715D01*
X167310415Y-104300733D01*
X167102520Y-104150335D01*
X166961353Y-103941160D01*
X166884888Y-103770368D01*
X166868993Y-103806395D01*
X166804782Y-103951933D01*
X166783952Y-103993111D01*
X166677983Y-104139528D01*
X166548229Y-104261315D01*
X166371783Y-104389132D01*
X165766026Y-104389132D01*
X165747013Y-104360601D01*
X165631018Y-104274035D01*
X165514182Y-104169776D01*
X165404937Y-104025503D01*
X165324241Y-103873630D01*
X165292752Y-103746383D01*
X165280129Y-103713705D01*
X165226859Y-103691230D01*
X165116435Y-103680058D01*
X164932468Y-103677035D01*
X164572184Y-103677035D01*
X164482114Y-103677035D01*
X163764400Y-103677035D01*
X163046686Y-103677035D01*
X163032573Y-103823401D01*
X163031402Y-103834262D01*
X163007905Y-103930319D01*
X162973426Y-103969766D01*
X162970045Y-103969364D01*
X162936028Y-103923099D01*
X162914278Y-103823401D01*
X162901567Y-103742736D01*
X162860796Y-103688827D01*
X162767913Y-103677035D01*
X162675801Y-103663196D01*
X162635660Y-103609482D01*
X162663504Y-103562070D01*
X162770766Y-103541929D01*
X162905872Y-103541929D01*
X162905872Y-102798844D01*
X162905872Y-102055759D01*
X162523071Y-102055759D01*
X162473734Y-102055452D01*
X162382170Y-102051644D01*
X163040979Y-102051644D01*
X163040979Y-102796786D01*
X163040979Y-103541929D01*
X163763441Y-103541929D01*
X164485902Y-103541929D01*
X164572184Y-103541929D01*
X164932468Y-103541929D01*
X164953239Y-103541911D01*
X165127603Y-103538723D01*
X165230831Y-103527573D01*
X165280141Y-103504882D01*
X165292752Y-103467074D01*
X165295441Y-103437707D01*
X165343834Y-103306935D01*
X165436820Y-103159365D01*
X165553319Y-103024684D01*
X165672255Y-102932577D01*
X165707944Y-102912625D01*
X165797367Y-102854263D01*
X165833177Y-102816584D01*
X166328567Y-102816584D01*
X166332704Y-102825399D01*
X166388996Y-102871956D01*
X166490158Y-102932937D01*
X166516403Y-102948500D01*
X166646249Y-103058077D01*
X166749111Y-103190526D01*
X166776457Y-103236871D01*
X166835177Y-103325119D01*
X166868993Y-103359339D01*
X166879938Y-103350276D01*
X166923694Y-103283305D01*
X166982213Y-103172888D01*
X166992345Y-103153507D01*
X167124629Y-102992452D01*
X167320875Y-102854368D01*
X167557770Y-102756135D01*
X167598486Y-102733480D01*
X167621738Y-102680527D01*
X167629399Y-102577845D01*
X167625323Y-102405435D01*
X167612078Y-102078277D01*
X167265680Y-102065171D01*
X166919282Y-102052065D01*
X166874277Y-102215060D01*
X166859422Y-102262416D01*
X166760502Y-102459801D01*
X166621837Y-102625391D01*
X166466415Y-102730155D01*
X166455887Y-102734602D01*
X166365622Y-102781279D01*
X166328567Y-102816584D01*
X165833177Y-102816584D01*
X165832776Y-102814178D01*
X165789122Y-102776890D01*
X165695329Y-102730155D01*
X165675034Y-102720869D01*
X165535501Y-102618283D01*
X165406704Y-102467850D01*
X165318563Y-102303454D01*
X165295064Y-102252925D01*
X165269385Y-102262932D01*
X165228388Y-102349327D01*
X165158856Y-102465322D01*
X165022913Y-102611747D01*
X164862981Y-102731799D01*
X164710636Y-102798109D01*
X164572184Y-102828518D01*
X164572184Y-103185224D01*
X164572184Y-103541929D01*
X164485902Y-103541929D01*
X164472749Y-103197487D01*
X164459596Y-102853045D01*
X164256151Y-102793859D01*
X164223891Y-102783585D01*
X164004103Y-102664304D01*
X163822400Y-102481429D01*
X163702127Y-102257555D01*
X163640225Y-102078277D01*
X163340602Y-102064960D01*
X163040979Y-102051644D01*
X162382170Y-102051644D01*
X162299045Y-102048187D01*
X162182606Y-102032656D01*
X162140270Y-102010723D01*
X162142875Y-102004919D01*
X162204632Y-101984367D01*
X162336648Y-101970669D01*
X162523071Y-101965688D01*
X162905872Y-101965688D01*
X162905872Y-101200085D01*
X162905872Y-100434482D01*
X162568106Y-100434482D01*
X162552267Y-100434440D01*
X162385701Y-100427956D01*
X162272251Y-100412139D01*
X162230341Y-100389447D01*
X162230601Y-100387526D01*
X162278591Y-100365234D01*
X162396564Y-100350032D01*
X162565957Y-100344411D01*
X162901574Y-100344411D01*
X162914982Y-100062940D01*
X162926764Y-99929444D01*
X162948135Y-99822481D01*
X162973426Y-99781468D01*
X162996399Y-99815360D01*
G37*
%TD*%
M02*
